<svg version="1.1" xmlns="http://www.w3.org/2000/svg" xmlns:xlink="http://www.w3.org/1999/xlink" width="139" height="164" viewBox="0,0,139,164"><g transform="translate(-170.5,-98)"><g data-paper-data="{&quot;isPaintingLayer&quot;:true}" fill-rule="nonzero" stroke="none" stroke-width="1" stroke-linecap="butt" stroke-linejoin="miter" stroke-miterlimit="10" stroke-dasharray="" stroke-dashoffset="0" style="mix-blend-mode: normal"><path d="M170.5,118c0,-11.04569 8.95431,-20 20,-20h99c11.046,0 20,8.95431 20,20v124c0,11.046 -8.954,20 -20,20h-99c-11.04569,0 -20,-8.954 -20,-20z" fill="#ee6338"/><path d="M206.7102,233.455v14.545h-1.6761v-14.545zM214.354,248.227c-1.0511,0 -1.9578,-0.232 -2.7201,-0.696c-0.7576,-0.469 -1.3424,-1.122 -1.7543,-1.96c-0.4072,-0.843 -0.6108,-1.823 -0.6108,-2.94c0,-1.118 0.2036,-2.103 0.6108,-2.955c0.4119,-0.857 0.9849,-1.524 1.7188,-2.003c0.7386,-0.483 1.6003,-0.724 2.5852,-0.724c0.5682,0 1.1293,0.095 1.6832,0.284c0.554,0.189 1.0583,0.497 1.5128,0.923c0.4546,0.422 0.8168,0.98 1.0867,1.676c0.2699,0.696 0.4048,1.553 0.4048,2.571v0.711h-8.4091v-1.449h6.7045c0,-0.616 -0.1231,-1.165 -0.3693,-1.648c-0.2414,-0.483 -0.5871,-0.864 -1.0369,-1.143c-0.4451,-0.28 -0.9706,-0.419 -1.5767,-0.419c-0.6676,0 -1.2453,0.165 -1.733,0.497c-0.4829,0.326 -0.8546,0.753 -1.115,1.278c-0.2604,0.526 -0.3906,1.089 -0.3906,1.69v0.966c0,0.824 0.142,1.523 0.4261,2.096c0.2888,0.568 0.6889,1.001 1.2003,1.299c0.5113,0.294 1.1056,0.441 1.7826,0.441c0.4404,0 0.8381,-0.062 1.1932,-0.185c0.3599,-0.128 0.67,-0.317 0.9304,-0.568c0.2604,-0.256 0.4617,-0.573 0.6037,-0.952l1.6193,0.455c-0.1704,0.549 -0.4569,1.032 -0.8593,1.448c-0.4025,0.412 -0.8997,0.734 -1.4915,0.966c-0.5919,0.228 -1.2571,0.341 -1.9958,0.341zM226.1651,237.091v1.42h-5.6534v-1.42zM222.1594,234.477h1.6762v10.398c0,0.473 0.0686,0.829 0.2059,1.065c0.1421,0.232 0.322,0.389 0.5398,0.469c0.2226,0.076 0.4569,0.114 0.7031,0.114c0.1847,0 0.3362,-0.01 0.4546,-0.029c0.1184,-0.023 0.2131,-0.042 0.2841,-0.056l0.3409,1.505c-0.1136,0.043 -0.2723,0.085 -0.4759,0.128c-0.2036,0.047 -0.4616,0.071 -0.7741,0.071c-0.4735,0 -0.9375,-0.102 -1.3921,-0.305c-0.4498,-0.204 -0.8238,-0.514 -1.1221,-0.931c-0.2936,-0.416 -0.4404,-0.942 -0.4404,-1.576zM233.4308,237.091v1.42h-5.6535v-1.42zM229.4251,234.477h1.6761v10.398c0,0.473 0.0687,0.829 0.206,1.065c0.142,0.232 0.3219,0.389 0.5397,0.469c0.2226,0.076 0.457,0.114 0.7032,0.114c0.1846,0 0.3361,-0.01 0.4545,-0.029c0.1184,-0.023 0.2131,-0.042 0.2841,-0.056l0.3409,1.505c-0.1136,0.043 -0.2722,0.085 -0.4758,0.128c-0.2036,0.047 -0.4617,0.071 -0.7742,0.071c-0.4735,0 -0.9375,-0.102 -1.392,-0.305c-0.4498,-0.204 -0.8239,-0.514 -1.1222,-0.931c-0.2935,-0.416 -0.4403,-0.942 -0.4403,-1.576zM240.4087,248.227c-1.0511,0 -1.9578,-0.232 -2.7201,-0.696c-0.7576,-0.469 -1.3424,-1.122 -1.7543,-1.96c-0.4072,-0.843 -0.6108,-1.823 -0.6108,-2.94c0,-1.118 0.2036,-2.103 0.6108,-2.955c0.4119,-0.857 0.9849,-1.524 1.7188,-2.003c0.7386,-0.483 1.6003,-0.724 2.5852,-0.724c0.5682,0 1.1292,0.095 1.6832,0.284c0.554,0.189 1.0583,0.497 1.5128,0.923c0.4545,0.422 0.8168,0.98 1.0867,1.676c0.2698,0.696 0.4048,1.553 0.4048,2.571v0.711h-8.4091v-1.449h6.7045c0,-0.616 -0.1231,-1.165 -0.3693,-1.648c-0.2415,-0.483 -0.5871,-0.864 -1.0369,-1.143c-0.4451,-0.28 -0.9707,-0.419 -1.5767,-0.419c-0.6676,0 -1.2453,0.165 -1.733,0.497c-0.4829,0.326 -0.8546,0.753 -1.115,1.278c-0.2604,0.526 -0.3907,1.089 -0.3907,1.69v0.966c0,0.824 0.1421,1.523 0.4262,2.096c0.2888,0.568 0.6889,1.001 1.2003,1.299c0.5113,0.294 1.1056,0.441 1.7826,0.441c0.4404,0 0.8381,-0.062 1.1932,-0.185c0.3599,-0.128 0.67,-0.317 0.9304,-0.568c0.2604,-0.256 0.4617,-0.573 0.6037,-0.952l1.6193,0.455c-0.1704,0.549 -0.4569,1.032 -0.8593,1.448c-0.4025,0.412 -0.8997,0.734 -1.4915,0.966c-0.5919,0.228 -1.2571,0.341 -1.9958,0.341zM247.4755,248v-10.909h1.6193v1.648h0.1137c0.1988,-0.54 0.5587,-0.978 1.0795,-1.314c0.5208,-0.336 1.108,-0.505 1.7614,-0.505c0.1231,0 0.2769,0.003 0.4616,0.008c0.1847,0.004 0.3243,0.011 0.419,0.021v1.704c-0.0568,-0.014 -0.187,-0.035 -0.3906,-0.064c-0.1988,-0.033 -0.4095,-0.049 -0.6321,-0.049c-0.5303,0 -1.0038,0.111 -1.4204,0.334c-0.412,0.217 -0.7387,0.52 -0.9802,0.909c-0.2367,0.383 -0.3551,0.821 -0.3551,1.314v6.903zM260.7692,248v-14.545h5.0852c1.0133,0 1.849,0.175 2.5071,0.525c0.6582,0.346 1.1482,0.812 1.4702,1.399c0.3219,0.583 0.4829,1.229 0.4829,1.939c0,0.625 -0.1112,1.141 -0.3338,1.548c-0.2178,0.408 -0.5066,0.73 -0.8665,0.966c-0.3551,0.237 -0.741,0.412 -1.1576,0.526v0.142c0.4451,0.028 0.8925,0.185 1.3423,0.469c0.4498,0.284 0.8262,0.691 1.1293,1.221c0.3027,0.531 0.4547,1.179 0.4547,1.946c0,0.73 -0.166,1.385 -0.4973,1.968c-0.3315,0.582 -0.8547,1.044 -1.5696,1.385c-0.715,0.341 -1.6454,0.511 -2.7912,0.511zM262.5305,246.438h3.4944c1.1505,0 1.9673,-0.223 2.4502,-0.668c0.4877,-0.45 0.7316,-0.994 0.7316,-1.634c0,-0.492 -0.1255,-0.947 -0.3764,-1.363c-0.251,-0.422 -0.6085,-0.758 -1.0725,-1.009c-0.464,-0.255 -1.0132,-0.383 -1.6477,-0.383h-3.5796zM262.5305,239.847h3.2671c0.5303,0 1.0085,-0.105 1.4346,-0.313c0.4309,-0.208 0.7718,-0.502 1.0228,-0.881c0.2557,-0.378 0.3835,-0.823 0.3835,-1.335c0,-0.639 -0.2225,-1.181 -0.6676,-1.626c-0.4451,-0.45 -1.1506,-0.675 -2.1165,-0.675h-3.3239z" fill="#000000"/><path d="M239.728,180.4773c-1.4318,-0.0228 -2.8637,-0.2955 -4.2955,-0.8182c-1.4318,-0.5227 -2.7386,-1.4034 -3.9204,-2.6421c-1.1818,-1.25 -2.1307,-2.9375 -2.8466,-5.0625c-0.7159,-2.1363 -1.0739,-4.8181 -1.0739,-8.0454c0,-3.0909 0.2898,-5.8296 0.8693,-8.2159c0.5796,-2.3977 1.4205,-4.4148 2.5228,-6.0512c1.1022,-1.6477 2.4318,-2.8977 3.9886,-3.75c1.5682,-0.8522 3.3352,-1.2784 5.3011,-1.2784c1.9546,0 3.6932,0.3921 5.2159,1.1762c1.5341,0.7727 2.7841,1.8522 3.75,3.2386c0.966,1.3864 1.591,2.983 1.875,4.7898h-4.159c-0.3864,-1.5682 -1.1364,-2.8693 -2.25,-3.9034c-1.1137,-1.0341 -2.591,-1.5512 -4.4319,-1.5512c-2.7045,0 -4.8352,1.1762 -6.392,3.5284c-1.5455,2.3523 -2.3239,5.6535 -2.3352,9.9035h0.2727c0.6364,-0.966 1.392,-1.7898 2.267,-2.4716c0.8864,-0.6932 1.8637,-1.2273 2.9319,-1.6023c1.0681,-0.375 2.1988,-0.5625 3.392,-0.5625c2,0 3.8295,0.5 5.4886,1.5c1.6591,0.9886 2.9887,2.3579 3.9887,4.1079c1,1.7387 1.5,3.733 1.5,5.983c0,2.1591 -0.483,4.1364 -1.4489,5.9318c-0.9659,1.7841 -2.3239,3.2046 -4.0739,4.2614c-1.7386,1.0454 -3.784,1.5568 -6.1363,1.5341zM239.728,176.7273c1.4318,0 2.7159,-0.358 3.8523,-1.0739c1.1477,-0.7159 2.0511,-1.6761 2.7102,-2.8807c0.6704,-1.2045 1.0057,-2.5454 1.0057,-4.0227c0,-1.4432 -0.3239,-2.7557 -0.9716,-3.9375c-0.6364,-1.1932 -1.5171,-2.142 -2.6421,-2.8466c-1.1136,-0.7045 -2.3863,-1.0568 -3.8182,-1.0568c-1.0795,0 -2.0852,0.2159 -3.017,0.6477c-0.9318,0.4205 -1.75,1 -2.4545,1.7387c-0.6932,0.7386 -1.2387,1.5852 -1.6364,2.5397c-0.3977,0.9432 -0.5966,1.9375 -0.5966,2.983c0,1.3863 0.3239,2.6818 0.9716,3.8863c0.6591,1.2046 1.5568,2.1762 2.6932,2.9148c1.1477,0.7387 2.4488,1.108 3.9034,1.108z" fill="#000000"/></g></g></svg>