<svg version="1.1" xmlns="http://www.w3.org/2000/svg" xmlns:xlink="http://www.w3.org/1999/xlink" width="139" height="164" viewBox="0,0,139,164"><g transform="translate(-170.5,-98)"><g data-paper-data="{&quot;isPaintingLayer&quot;:true}" fill-rule="nonzero" stroke="none" stroke-width="1" stroke-linecap="butt" stroke-linejoin="miter" stroke-miterlimit="10" stroke-dasharray="" stroke-dashoffset="0" style="mix-blend-mode: normal"><path d="M170.5,118c0,-11.04569 8.9543,-20 20,-20h99c11.046,0 20,8.95431 20,20v124c0,11.046 -8.954,20 -20,20h-99c-11.0457,0 -20,-8.954 -20,-20z" fill="#43d059"/><path d="M206.7102,233.34741v14.545h-1.6761v-14.545zM214.354,248.11941c-1.0511,0 -1.9578,-0.232 -2.7201,-0.696c-0.7576,-0.469 -1.3424,-1.122 -1.7543,-1.96c-0.4072,-0.843 -0.6108,-1.823 -0.6108,-2.94c0,-1.118 0.2036,-2.103 0.6108,-2.955c0.4119,-0.857 0.9849,-1.524 1.7188,-2.003c0.7386,-0.483 1.6003,-0.724 2.5852,-0.724c0.5682,0 1.1293,0.095 1.6832,0.284c0.554,0.189 1.0583,0.497 1.5128,0.923c0.4546,0.422 0.8168,0.98 1.0867,1.676c0.2699,0.696 0.4048,1.553 0.4048,2.571v0.711h-8.4091v-1.449h6.7045c0,-0.616 -0.1231,-1.165 -0.3693,-1.648c-0.2414,-0.483 -0.5871,-0.864 -1.0369,-1.143c-0.4451,-0.28 -0.9706,-0.419 -1.5767,-0.419c-0.6676,0 -1.2453,0.165 -1.733,0.497c-0.4829,0.326 -0.8546,0.753 -1.115,1.278c-0.2604,0.526 -0.3906,1.089 -0.3906,1.69v0.966c0,0.824 0.142,1.523 0.4261,2.096c0.2888,0.568 0.6889,1.001 1.2003,1.299c0.5113,0.294 1.1056,0.441 1.7826,0.441c0.4404,0 0.8381,-0.062 1.1932,-0.185c0.3599,-0.128 0.67,-0.317 0.9304,-0.568c0.2604,-0.256 0.4617,-0.573 0.6037,-0.952l1.6193,0.455c-0.1704,0.549 -0.4569,1.032 -0.8593,1.448c-0.4025,0.412 -0.8997,0.734 -1.4915,0.966c-0.5919,0.228 -1.2571,0.341 -1.9958,0.341zM226.1651,236.98341v1.42h-5.6534v-1.42zM222.1594,234.36941h1.6762v10.398c0,0.473 0.0686,0.829 0.2059,1.065c0.1421,0.232 0.322,0.389 0.5398,0.469c0.2226,0.076 0.4569,0.114 0.7031,0.114c0.1847,0 0.3362,-0.01 0.4546,-0.029c0.1184,-0.023 0.2131,-0.042 0.2841,-0.056l0.3409,1.505c-0.1136,0.043 -0.2723,0.085 -0.4759,0.128c-0.2036,0.047 -0.4616,0.071 -0.7741,0.071c-0.4735,0 -0.9375,-0.102 -1.3921,-0.305c-0.4498,-0.204 -0.8238,-0.514 -1.1221,-0.931c-0.2936,-0.416 -0.4404,-0.942 -0.4404,-1.576zM233.4308,236.98341v1.42h-5.6535v-1.42zM229.4251,234.36941h1.6761v10.398c0,0.473 0.0687,0.829 0.206,1.065c0.142,0.232 0.3219,0.389 0.5397,0.469c0.2226,0.076 0.457,0.114 0.7032,0.114c0.1846,0 0.3361,-0.01 0.4545,-0.029c0.1184,-0.023 0.2131,-0.042 0.2841,-0.056l0.3409,1.505c-0.1136,0.043 -0.2722,0.085 -0.4758,0.128c-0.2036,0.047 -0.4617,0.071 -0.7742,0.071c-0.4735,0 -0.9375,-0.102 -1.392,-0.305c-0.4498,-0.204 -0.8239,-0.514 -1.1222,-0.931c-0.2935,-0.416 -0.4403,-0.942 -0.4403,-1.576zM240.4087,248.11941c-1.0511,0 -1.9578,-0.232 -2.7201,-0.696c-0.7576,-0.469 -1.3424,-1.122 -1.7543,-1.96c-0.4072,-0.843 -0.6108,-1.823 -0.6108,-2.94c0,-1.118 0.2036,-2.103 0.6108,-2.955c0.4119,-0.857 0.9849,-1.524 1.7188,-2.003c0.7386,-0.483 1.6003,-0.724 2.5852,-0.724c0.5682,0 1.1292,0.095 1.6832,0.284c0.554,0.189 1.0583,0.497 1.5128,0.923c0.4545,0.422 0.8168,0.98 1.0867,1.676c0.2698,0.696 0.4048,1.553 0.4048,2.571v0.711h-8.4091v-1.449h6.7045c0,-0.616 -0.1231,-1.165 -0.3693,-1.648c-0.2415,-0.483 -0.5871,-0.864 -1.0369,-1.143c-0.4451,-0.28 -0.9707,-0.419 -1.5767,-0.419c-0.6676,0 -1.2453,0.165 -1.733,0.497c-0.4829,0.326 -0.8546,0.753 -1.115,1.278c-0.2604,0.526 -0.3907,1.089 -0.3907,1.69v0.966c0,0.824 0.1421,1.523 0.4262,2.096c0.2888,0.568 0.6889,1.001 1.2003,1.299c0.5113,0.294 1.1056,0.441 1.7826,0.441c0.4404,0 0.8381,-0.062 1.1932,-0.185c0.3599,-0.128 0.67,-0.317 0.9304,-0.568c0.2604,-0.256 0.4617,-0.573 0.6037,-0.952l1.6193,0.455c-0.1704,0.549 -0.4569,1.032 -0.8593,1.448c-0.4025,0.412 -0.8997,0.734 -1.4915,0.966c-0.5919,0.228 -1.2571,0.341 -1.9958,0.341zM247.4755,247.89241v-10.909h1.6193v1.648h0.1137c0.1988,-0.54 0.5587,-0.978 1.0795,-1.314c0.5208,-0.336 1.108,-0.505 1.7614,-0.505c0.1231,0 0.2769,0.003 0.4616,0.008c0.1847,0.004 0.3243,0.011 0.419,0.021v1.704c-0.0568,-0.014 -0.187,-0.035 -0.3906,-0.064c-0.1988,-0.033 -0.4095,-0.049 -0.6321,-0.049c-0.5303,0 -1.0038,0.111 -1.4204,0.334c-0.412,0.217 -0.7387,0.52 -0.9802,0.909c-0.2367,0.383 -0.3551,0.821 -0.3551,1.314v6.903zM260.7692,247.89241v-14.545h5.0852c1.0136,0 1.8486,0.175 2.5076,0.525c0.658,0.346 1.148,0.812 1.47,1.399c0.322,0.583 0.483,1.229 0.483,1.939c0,0.625 -0.112,1.141 -0.334,1.548c-0.218,0.408 -0.507,0.73 -0.867,0.966c-0.355,0.237 -0.741,0.412 -1.157,0.526v0.142c0.445,0.028 0.892,0.185 1.342,0.469c0.45,0.284 0.826,0.691 1.129,1.221c0.303,0.531 0.455,1.179 0.455,1.946c0,0.73 -0.166,1.385 -0.497,1.968c-0.332,0.582 -0.855,1.044 -1.57,1.385c-0.715,0.341 -1.645,0.511 -2.7911,0.511zM262.5305,246.33041h3.4944c1.1501,0 1.9671,-0.223 2.4501,-0.668c0.488,-0.45 0.732,-0.994 0.732,-1.634c0,-0.492 -0.126,-0.947 -0.377,-1.363c-0.251,-0.422 -0.608,-0.758 -1.072,-1.009c-0.464,-0.255 -1.013,-0.383 -1.6479,-0.383h-3.5796zM262.5305,239.73941h3.2671c0.5303,0 1.0084,-0.105 1.4344,-0.313c0.431,-0.208 0.772,-0.502 1.023,-0.881c0.256,-0.378 0.383,-0.823 0.383,-1.335c0,-0.639 -0.222,-1.181 -0.667,-1.626c-0.445,-0.45 -1.151,-0.675 -2.1166,-0.675h-3.3239z" fill="#000000"/><path d="M211.2164,176l-5.9659,-21.8182h2.6847l4.5597,17.7699h0.213l4.6449,-17.7699h2.983l4.6448,17.7699h0.2131l4.5597,-17.7699h2.6846l-5.9659,21.8182h-2.7272l-4.8154,-17.3864h-0.1704l-4.8154,17.3864zM235.389,176v-16.3636h2.5142v16.3636zM236.6674,156.9091c-0.49,0 -0.9126,-0.1669 -1.2677,-0.5007c-0.348,-0.3338 -0.522,-0.7351 -0.522,-1.2039c0,-0.4687 0.174,-0.87 0.522,-1.2038c0.3551,-0.3338 0.7777,-0.5007 1.2677,-0.5007c0.4901,0 0.9091,0.1669 1.2571,0.5007c0.3552,0.3338 0.5327,0.7351 0.5327,1.2038c0,0.4688 -0.1775,0.8701 -0.5327,1.2039c-0.348,0.3338 -0.767,0.5007 -1.2571,0.5007zM245.0224,166.1562v9.8438h-2.5142v-16.3636h2.4289v2.5568h0.2131c0.3835,-0.831 0.9659,-1.4986 1.7472,-2.0029c0.7812,-0.5113 1.7897,-0.767 3.0255,-0.767c1.108,0 2.0775,0.2273 2.9084,0.6818c0.831,0.4475 1.4773,1.1293 1.9389,2.0455c0.4617,0.9091 0.6925,2.0596 0.6925,3.4517v10.3977h-2.5142v-10.2273c0,-1.2855 -0.3338,-2.2869 -1.0014,-3.0042c-0.6676,-0.7245 -1.5838,-1.0867 -2.7486,-1.0867c-0.8025,0 -1.5199,0.174 -2.152,0.522c-0.625,0.348 -1.1186,0.8559 -1.4808,1.5235c-0.3622,0.6676 -0.5433,1.4772 -0.5433,2.4289zM266.236,176.3409c-1.3637,0 -2.5675,-0.3445 -3.6115,-1.0334c-1.0441,-0.696 -1.8608,-1.6761 -2.4503,-2.9403c-0.5895,-1.2713 -0.8842,-2.7734 -0.8842,-4.5064c0,-1.7188 0.2947,-3.2102 0.8842,-4.4744c0.5895,-1.2642 1.4098,-2.2408 2.4609,-2.9297c1.0512,-0.6889 2.2656,-1.0334 3.6435,-1.0334c1.0654,0 1.9074,0.1776 2.5244,0.5327c0.625,0.348 1.101,0.7457 1.428,1.1931c0.334,0.4404 0.593,0.8026 0.778,1.0867h0.213v-8.054h2.514v21.8182h-2.429v-2.5142h-0.298c-0.185,0.2983 -0.448,0.6747 -0.789,1.1293c-0.341,0.4474 -0.827,0.8487 -1.459,1.2038c-0.632,0.348 -1.474,0.522 -2.525,0.522zM266.577,174.0824c1.008,0 1.861,-0.2628 2.557,-0.7884c0.696,-0.5326 1.225,-1.2677 1.587,-2.2052c0.362,-0.9446 0.543,-2.0348 0.543,-3.2706c0,-1.2216 -0.177,-2.2905 -0.532,-3.2067c-0.355,-0.9233 -0.881,-1.6406 -1.577,-2.152c-0.696,-0.5184 -1.555,-0.7777 -2.578,-0.7777c-1.0655,0 -1.9532,0.2735 -2.6635,0.8203c-0.7031,0.5398 -1.2322,1.2749 -1.5873,2.2053c-0.348,0.9233 -0.522,1.9602 -0.522,3.1108c0,1.1648 0.1775,2.223 0.5326,3.1747c0.3622,0.9446 0.8949,1.6974 1.598,2.2585c0.7103,0.554 1.5909,0.831 2.6422,0.831z" fill="#000000"/></g></g></svg>