<svg version="1.1" xmlns="http://www.w3.org/2000/svg" xmlns:xlink="http://www.w3.org/1999/xlink" width="240.37708" height="31.49263" viewBox="0,0,240.37708,31.49263"><g transform="translate(-119.81146,-164.25368)"><g data-paper-data="{&quot;isPaintingLayer&quot;:true}" fill="#ffffff" fill-rule="nonzero" stroke="none" stroke-width="1" stroke-linecap="butt" stroke-linejoin="miter" stroke-miterlimit="10" stroke-dasharray="" stroke-dashoffset="0" style="mix-blend-mode: normal"><path d="M122.6769,175.22422l-2.86544,-10.47932h1.28945l2.19,8.53491h0.10233l2.23097,-8.53491h1.43271l2.23094,8.53491h0.10233l2.19003,-8.53491h1.28943l-2.86542,10.47932h-1.30993l-2.3128,-8.35071h-0.08186l-2.31283,8.35071zM135.4946,170.49624v4.72797h-1.20757v-10.47932h1.20757v3.84788h0.10236c0.1842,-0.40595 0.46049,-0.72829 0.82891,-0.96709c0.37184,-0.24219 0.86646,-0.36329 1.48389,-0.36329c0.53557,0 1.00461,0.10744 1.40713,0.32234c0.40252,0.21151 0.71466,0.53728 0.93638,0.97732c0.22514,0.43665 0.33771,0.99266 0.33771,1.66809v4.99406h-1.20757v-4.91217c0,-0.62427 -0.16204,-1.10695 -0.4861,-1.44808c-0.32066,-0.34453 -0.76584,-0.5168 -1.33551,-0.5168c-0.39571,0 -0.75047,0.08357 -1.06429,0.25072c-0.31043,0.16718 -0.55604,0.41108 -0.73684,0.73171c-0.17738,0.32066 -0.26609,0.70956 -0.26609,1.16665zM145.113,175.40841c-0.49804,0 -0.95001,-0.09381 -1.35595,-0.28143c-0.40595,-0.19101 -0.72829,-0.46562 -0.96709,-0.82381c-0.2388,-0.36158 -0.35819,-0.79823 -0.35819,-1.3099c0,-0.45028 0.08871,-0.81528 0.26609,-1.095c0.17738,-0.28314 0.41447,-0.50489 0.71124,-0.66522c0.29677,-0.1603 0.62424,-0.27972 0.98243,-0.35816c0.36161,-0.08189 0.7249,-0.1467 1.0899,-0.19446c0.47757,-0.06139 0.86475,-0.10744 1.16152,-0.13815c0.30019,-0.0341 0.51852,-0.09039 0.65495,-0.16886c0.13989,-0.07847 0.2098,-0.21491 0.2098,-0.40934v-0.04095c0,-0.50486 -0.13815,-0.89714 -0.41447,-1.17686c-0.2729,-0.27975 -0.68734,-0.4196 -1.24338,-0.4196c-0.57651,0 -1.02851,0.12623 -1.35598,0.37866c-0.32748,0.25243 -0.55772,0.52191 -0.69076,0.80847l-1.14618,-0.40937c0.20467,-0.47757 0.47757,-0.84938 0.8187,-1.11547c0.34453,-0.26948 0.71976,-0.4571 1.12571,-0.56285c0.40934,-0.10915 0.81186,-0.16372 1.20757,-0.16372c0.25243,0 0.54238,0.03068 0.86986,0.0921c0.3309,0.058 0.64985,0.17909 0.95685,0.36329c0.31043,0.18423 0.56799,0.46223 0.77266,0.83404c0.20467,0.37184 0.307,0.86989 0.307,1.49413v5.17826h-1.20757v-1.06432h-0.06139c-0.08189,0.17057 -0.21833,0.35308 -0.40937,0.54751c-0.19101,0.19443 -0.44515,0.3599 -0.76239,0.49633c-0.31727,0.13647 -0.70442,0.20467 -1.16155,0.20467zM145.29723,174.32365c0.47757,0 0.88009,-0.09381 1.20757,-0.28143c0.3309,-0.18762 0.5799,-0.42981 0.74705,-0.72661c0.17057,-0.29677 0.25585,-0.6089 0.25585,-0.93638v-1.10523c-0.05115,0.06142 -0.16372,0.1177 -0.33771,0.16886c-0.17057,0.04776 -0.36842,0.09039 -0.59356,0.12791c-0.22172,0.03413 -0.43834,0.06484 -0.64982,0.09213c-0.20809,0.02387 -0.37695,0.04434 -0.50657,0.06139c-0.31385,0.04095 -0.60722,0.10747 -0.88012,0.19957c-0.26948,0.08868 -0.48781,0.22343 -0.65495,0.40423c-0.16372,0.17738 -0.24561,0.41957 -0.24561,0.72658c0,0.4196 0.15523,0.73684 0.46565,0.95175c0.31382,0.21148 0.71124,0.31724 1.19223,0.31724zM154.33744,167.36474v1.02337h-4.07296v-1.02337zM151.45143,165.48174h1.20766v7.49106c0,0.34113 0.04953,0.59696 0.14829,0.76752c0.10236,0.16715 0.23205,0.27972 0.38904,0.33771c0.1603,0.05457 0.32901,0.08186 0.50642,0.08186c0.13298,0 0.24225,-0.00681 0.32751,-0.02044c0.08525,-0.01708 0.1537,-0.03071 0.20473,-0.04095l0.24555,1.08476c-0.08195,0.03071 -0.19602,0.06142 -0.34282,0.09213c-0.14649,0.0341 -0.33261,0.05115 -0.55775,0.05115c-0.34101,0 -0.67542,-0.07334 -1.00293,-0.22001c-0.3239,-0.1467 -0.59347,-0.37013 -0.80841,-0.67032c-0.21133,-0.30019 -0.3173,-0.67885 -0.3173,-1.13594zM160.20643,175.22422v-7.85948h1.20766v7.85948zM160.82062,166.0548c-0.23565,0 -0.43858,-0.08015 -0.60908,-0.24048c-0.16721,-0.16033 -0.25066,-0.35305 -0.25066,-0.57819c0,-0.22514 0.08345,-0.41789 0.25066,-0.57822c0.17051,-0.16033 0.37343,-0.24048 0.60908,-0.24048c0.23535,0 0.43647,0.08015 0.60368,0.24048c0.17051,0.16033 0.25576,0.35308 0.25576,0.57822c0,0.22514 -0.08525,0.41786 -0.25576,0.57819c-0.16721,0.16033 -0.36833,0.24048 -0.60368,0.24048zM169.19288,169.12492l-1.08458,0.307c-0.06844,-0.18077 -0.16901,-0.35647 -0.30199,-0.52701c-0.12968,-0.17399 -0.30709,-0.31727 -0.53223,-0.42984c-0.22514,-0.11257 -0.51332,-0.16886 -0.86484,-0.16886c-0.4809,0 -0.88165,0.11089 -1.20226,0.33261c-0.3173,0.21833 -0.4758,0.49633 -0.4758,0.83404c0,0.30019 0.10897,0.53728 0.32721,0.71124c0.21854,0.17399 0.55955,0.31895 1.02364,0.43494l1.16653,0.28653c0.70274,0.17057 1.22627,0.43152 1.57089,0.78289c0.34462,0.34795 0.51662,0.79652 0.51662,1.34572c0,0.45028 -0.12938,0.85284 -0.38874,1.2076c-0.25576,0.35476 -0.61389,0.63448 -1.07468,0.83915c-0.46049,0.20467 -0.99603,0.30703 -1.60661,0.30703c-0.8015,0 -1.46522,-0.17399 -1.99055,-0.52194c-0.52533,-0.34795 -0.85764,-0.85623 -0.99753,-1.52481l1.14612,-0.28656c0.10897,0.423 0.3155,0.74024 0.61899,0.95175c0.30709,0.21148 0.70784,0.31724 1.20256,0.31724c0.56285,0 1.00983,-0.11939 1.34064,-0.35819c0.33441,-0.24219 0.50132,-0.53214 0.50132,-0.86986c0,-0.2729 -0.09546,-0.50147 -0.28638,-0.68566c-0.19122,-0.18762 -0.4845,-0.32748 -0.88015,-0.41957l-1.31002,-0.30703c-0.71955,-0.17054 -1.24848,-0.43491 -1.5862,-0.7931c-0.33411,-0.36158 -0.50132,-0.81357 -0.50132,-1.35595c0,-0.44347 0.12458,-0.83576 0.37343,-1.17689c0.25246,-0.34113 0.59527,-0.6089 1.02845,-0.80333c0.43677,-0.19446 0.93149,-0.29166 1.48383,-0.29166c0.77779,0 1.38837,0.17057 1.83205,0.51167c0.44668,0.34113 0.76398,0.79142 0.9516,1.35085zM178.62451,167.36474v1.02337h-4.07296v-1.02337zM175.7388,165.48174h1.20736v7.49106c0,0.34113 0.04953,0.59696 0.14859,0.76752c0.10236,0.16715 0.23175,0.27972 0.38874,0.33771c0.1603,0.05457 0.32931,0.08186 0.50672,0.08186c0.13298,0 0.24195,-0.00681 0.32721,-0.02044c0.08555,-0.01708 0.1537,-0.03071 0.20473,-0.04095l0.24555,1.08476c-0.08165,0.03071 -0.19602,0.06142 -0.34282,0.09213c-0.14649,0.0341 -0.33261,0.05115 -0.55775,0.05115c-0.34101,0 -0.67542,-0.07334 -1.00263,-0.22001c-0.3242,-0.1467 -0.59377,-0.37013 -0.80871,-0.67032c-0.21133,-0.30019 -0.317,-0.67885 -0.317,-1.13594zM181.81762,170.49624v4.72797h-1.20766v-10.47932h1.20766v3.84788h0.10206c0.18432,-0.40595 0.46079,-0.72829 0.82912,-0.96709c0.37163,-0.24219 0.86634,-0.36329 1.48383,-0.36329c0.53554,0 1.00473,0.10744 1.40698,0.32234c0.40255,0.21151 0.71475,0.53728 0.93659,0.97732c0.22514,0.43665 0.33771,0.99266 0.33771,1.66809v4.99406h-1.20766v-4.91217c0,-0.62427 -0.1621,-1.10695 -0.48601,-1.44808c-0.3206,-0.34453 -0.76578,-0.5168 -1.33554,-0.5168c-0.39565,0 -0.75047,0.08357 -1.06447,0.25072c-0.3104,0.16718 -0.55595,0.41108 -0.73666,0.73171c-0.17741,0.32066 -0.26597,0.70956 -0.26597,1.16665zM192.41818,175.38797c-0.75708,0 -1.41029,-0.16718 -1.95963,-0.50147c-0.54574,-0.33771 -0.96721,-0.80847 -1.26379,-1.41224c-0.29328,-0.60722 -0.44008,-1.31333 -0.44008,-2.1184c0,-0.80505 0.14679,-1.51457 0.44008,-2.12861c0.29659,-0.61743 0.70935,-1.09842 1.23828,-1.44295c0.53223,-0.34795 1.15302,-0.52191 1.86237,-0.52191c0.40946,0 0.81381,0.0682 1.21276,0.20467c0.39925,0.13644 0.76248,0.35819 1.08999,0.66519c0.32751,0.30361 0.58837,0.70613 0.78289,1.20757c0.19452,0.50147 0.29148,1.11889 0.29148,1.85231v0.51167h-6.05811v-1.04382h4.83004c0,-0.44347 -0.08856,-0.83918 -0.26597,-1.18713c-0.17381,-0.34795 -0.42297,-0.62256 -0.74717,-0.82381c-0.3206,-0.20128 -0.69914,-0.3019 -1.13591,-0.3019c-0.4809,0 -0.89696,0.11939 -1.24848,0.35819c-0.34792,0.23538 -0.61569,0.54238 -0.8033,0.92104c-0.18762,0.37863 -0.28128,0.78457 -0.28128,1.21781v0.6959c0,0.59353 0.10236,1.09671 0.30679,1.50947c0.20833,0.40934 0.49651,0.72147 0.86484,0.93638c0.36833,0.21148 0.7964,0.31724 1.28421,0.31724c0.3173,0 0.60398,-0.04434 0.85974,-0.13304c0.25936,-0.0921 0.4827,-0.22853 0.67032,-0.40934c0.18762,-0.1842 0.33261,-0.41276 0.43497,-0.68566l1.16653,0.32748c-0.12278,0.39571 -0.32901,0.74366 -0.61899,1.04385c-0.28998,0.29677 -0.64811,0.52875 -1.07468,0.6959c-0.42627,0.16372 -0.90567,0.24561 -1.4379,0.24561zM203.87488,175.40841c-0.49801,0 -0.9501,-0.09381 -1.35595,-0.28143c-0.40586,-0.19101 -0.72826,-0.46562 -0.96691,-0.82381c-0.23895,-0.36158 -0.35843,-0.79823 -0.35843,-1.3099c0,-0.45028 0.08886,-0.81528 0.26627,-1.095c0.17741,-0.28314 0.41426,-0.50489 0.71115,-0.66522c0.29689,-0.1603 0.62439,-0.27972 0.98252,-0.35816c0.36143,-0.08189 0.72496,-0.1467 1.08999,-0.19446c0.4773,-0.06139 0.86454,-0.10744 1.16143,-0.13815c0.30019,-0.0341 0.51843,-0.09039 0.65501,-0.16886c0.13989,-0.07847 0.20983,-0.21491 0.20983,-0.40934v-0.04095c0,-0.50486 -0.13839,-0.89714 -0.41456,-1.17686c-0.27287,-0.27975 -0.68743,-0.4196 -1.24338,-0.4196c-0.57666,0 -1.02845,0.12623 -1.35595,0.37866c-0.32751,0.25243 -0.55775,0.52191 -0.69073,0.80847l-1.14642,-0.40937c0.20473,-0.47757 0.4776,-0.84938 0.81891,-1.11547c0.34432,-0.26948 0.71955,-0.4571 1.12571,-0.56285c0.40916,-0.10915 0.81171,-0.16372 1.20736,-0.16372c0.25246,0 0.54244,0.03068 0.86995,0.0921c0.33081,0.058 0.64991,0.17909 0.957,0.36329c0.3104,0.18423 0.56796,0.46223 0.77269,0.83404c0.20443,0.37184 0.30679,0.86989 0.30679,1.49413v5.17826h-1.20736v-1.06432h-0.06154c-0.08195,0.17057 -0.21824,0.35308 -0.40946,0.54751c-0.19092,0.19443 -0.44518,0.3599 -0.76218,0.49633c-0.3173,0.13647 -0.70454,0.20467 -1.16173,0.20467zM204.0592,174.32365c0.4776,0 0.88015,-0.09381 1.20766,-0.28143c0.33081,-0.18762 0.57966,-0.42981 0.74687,-0.72661c0.17051,-0.29677 0.25606,-0.6089 0.25606,-0.93638v-1.10523c-0.05133,0.06142 -0.1639,0.1177 -0.33771,0.16886c-0.17081,0.04776 -0.36863,0.09039 -0.59377,0.12791c-0.22154,0.03413 -0.43828,0.06484 -0.64991,0.09213c-0.20803,0.02387 -0.37674,0.04434 -0.50642,0.06139c-0.3137,0.04095 -0.60728,0.10747 -0.88015,0.19957c-0.26957,0.08868 -0.48781,0.22343 -0.65501,0.40423c-0.1636,0.17738 -0.24555,0.41957 -0.24555,0.72658c0,0.4196 0.1552,0.73684 0.46559,0.95175c0.314,0.21148 0.71145,0.31724 1.19235,0.31724zM209.68143,175.22422v-7.85948h1.16653v1.1871h0.08195c0.14319,-0.38886 0.40255,-0.70442 0.77779,-0.94662c0.37524,-0.24219 0.7982,-0.36329 1.2689,-0.36329c0.08856,0 0.19963,0.00171 0.33261,0.0051c0.13298,0.00342 0.23355,0.00853 0.30169,0.01537v1.22804c-0.04083,-0.01024 -0.13448,-0.02558 -0.28128,-0.04605c-0.14319,-0.0239 -0.29509,-0.03581 -0.45539,-0.03581c-0.38214,0 -0.72315,0.08015 -1.02334,0.24048c-0.29689,0.15691 -0.53223,0.37524 -0.70604,0.65495c-0.17081,0.27632 -0.25606,0.59185 -0.25606,0.94662v4.97359zM218.09842,175.38797c-0.75708,0 -1.41059,-0.16718 -1.95963,-0.50147c-0.54574,-0.33771 -0.96721,-0.80847 -1.26379,-1.41224c-0.29358,-0.60722 -0.44008,-1.31333 -0.44008,-2.1184c0,-0.80505 0.14649,-1.51457 0.44008,-2.12861c0.29659,-0.61743 0.70935,-1.09842 1.23828,-1.44295c0.53193,-0.34795 1.15302,-0.52191 1.86237,-0.52191c0.40946,0 0.81351,0.0682 1.21276,0.20467c0.39925,0.13644 0.76248,0.35819 1.08999,0.66519c0.32751,0.30361 0.58837,0.70613 0.78289,1.20757c0.19422,0.50147 0.29148,1.11889 0.29148,1.85231v0.51167h-6.05841v-1.04382h4.83034c0,-0.44347 -0.08856,-0.83918 -0.26597,-1.18713c-0.17411,-0.34795 -0.42297,-0.62256 -0.74717,-0.82381c-0.3206,-0.20128 -0.69914,-0.3019 -1.13591,-0.3019c-0.4809,0 -0.89696,0.11939 -1.24848,0.35819c-0.34792,0.23538 -0.61569,0.54238 -0.8033,0.92104c-0.18762,0.37863 -0.28128,0.78457 -0.28128,1.21781v0.6959c0,0.59353 0.10206,1.09671 0.30679,1.50947c0.20803,0.40934 0.49651,0.72147 0.86484,0.93638c0.36833,0.21148 0.7964,0.31724 1.28421,0.31724c0.3173,0 0.60398,-0.04434 0.85974,-0.13304c0.25936,-0.0921 0.4827,-0.22853 0.67032,-0.40934c0.18762,-0.1842 0.33261,-0.41276 0.43497,-0.68566l1.16653,0.32748c-0.12278,0.39571 -0.32901,0.74366 -0.61899,1.04385c-0.28998,0.29677 -0.64811,0.52875 -1.07468,0.6959c-0.42627,0.16372 -0.90567,0.24561 -1.4379,0.24561zM225.50258,175.40841c-0.49801,0 -0.9501,-0.09381 -1.35595,-0.28143c-0.40586,-0.19101 -0.72826,-0.46562 -0.96721,-0.82381c-0.23865,-0.36158 -0.35813,-0.79823 -0.35813,-1.3099c0,-0.45028 0.08886,-0.81528 0.26627,-1.095c0.17741,-0.28314 0.41426,-0.50489 0.71115,-0.66522c0.29689,-0.1603 0.62439,-0.27972 0.98252,-0.35816c0.36143,-0.08189 0.72466,-0.1467 1.08968,-0.19446c0.4776,-0.06139 0.86484,-0.10744 1.16173,-0.13815c0.30019,-0.0341 0.51843,-0.09039 0.65501,-0.16886c0.13959,-0.07847 0.20953,-0.21491 0.20953,-0.40934v-0.04095c0,-0.50486 -0.13809,-0.89714 -0.41426,-1.17686c-0.27287,-0.27975 -0.68743,-0.4196 -1.24338,-0.4196c-0.57666,0 -1.02845,0.12623 -1.35595,0.37866c-0.32751,0.25243 -0.55775,0.52191 -0.69103,0.80847l-1.14612,-0.40937c0.20473,-0.47757 0.4776,-0.84938 0.81891,-1.11547c0.34432,-0.26948 0.71955,-0.4571 1.12571,-0.56285c0.40916,-0.10915 0.81171,-0.16372 1.20736,-0.16372c0.25246,0 0.54244,0.03068 0.86995,0.0921c0.33081,0.058 0.64991,0.17909 0.957,0.36329c0.3104,0.18423 0.56796,0.46223 0.77239,0.83404c0.20473,0.37184 0.30709,0.86989 0.30709,1.49413v5.17826h-1.20766v-1.06432h-0.06124c-0.08195,0.17057 -0.21824,0.35308 -0.40946,0.54751c-0.19092,0.19443 -0.44518,0.3599 -0.76248,0.49633c-0.317,0.13647 -0.70424,0.20467 -1.16143,0.20467zM225.68689,174.32365c0.4776,0 0.88015,-0.09381 1.20736,-0.28143c0.33111,-0.18762 0.57996,-0.42981 0.74717,-0.72661c0.17051,-0.29677 0.25576,-0.6089 0.25576,-0.93638v-1.10523c-0.05103,0.06142 -0.1636,0.1177 -0.33771,0.16886c-0.17051,0.04776 -0.36833,0.09039 -0.59347,0.12791c-0.22184,0.03413 -0.43828,0.06484 -0.64991,0.09213c-0.20803,0.02387 -0.37674,0.04434 -0.50642,0.06139c-0.314,0.04095 -0.60728,0.10747 -0.88015,0.19957c-0.26957,0.08868 -0.48781,0.22343 -0.65501,0.40423c-0.1636,0.17738 -0.24555,0.41957 -0.24555,0.72658c0,0.4196 0.1552,0.73684 0.46559,0.95175c0.314,0.21148 0.71115,0.31724 1.19235,0.31724zM238.55448,175.38797c-0.70965,0 -1.33224,-0.16886 -1.86777,-0.50657c-0.53223,-0.33771 -0.9483,-0.81018 -1.24848,-1.41737c-0.29689,-0.60722 -0.44518,-1.31675 -0.44518,-2.12861c0,-0.8187 0.14829,-1.53336 0.44518,-2.14398c0.30019,-0.61061 0.71625,-1.08476 1.24848,-1.42247c0.53554,-0.33771 1.15813,-0.50657 1.86777,-0.50657c0.70935,0 1.33044,0.16886 1.86237,0.50657c0.53554,0.33771 0.9519,0.81186 1.24848,1.42247c0.30019,0.61061 0.45028,1.32527 0.45028,2.14398c0,0.81186 -0.15009,1.52139 -0.45028,2.12861c-0.29659,0.60719 -0.71295,1.07966 -1.24848,1.41737c-0.53193,0.33771 -1.15302,0.50657 -1.86237,0.50657zM238.55448,174.30318c0.53884,0 0.98252,-0.13815 1.33044,-0.41447c0.34792,-0.27629 0.60548,-0.63958 0.77239,-1.08987c0.16721,-0.45028 0.25096,-0.93809 0.25096,-1.46342c0,-0.52533 -0.08375,-1.01485 -0.25096,-1.46855c-0.1669,-0.45371 -0.42447,-0.82039 -0.77239,-1.10013c-0.34792,-0.27972 -0.7916,-0.41957 -1.33044,-0.41957c-0.53914,0 -0.98252,0.13986 -1.33044,0.41957c-0.34792,0.27975 -0.60548,0.64643 -0.77269,1.10013c-0.16721,0.45371 -0.25066,0.94322 -0.25066,1.46855c0,0.52533 0.08345,1.01314 0.25066,1.46342c0.16721,0.45028 0.42477,0.81357 0.77269,1.08987c0.34792,0.27632 0.7913,0.41447 1.33044,0.41447zM247.45898,167.36474v1.02337h-4.23656v-1.02337zM244.49131,175.22422v-8.94427c0,-0.45028 0.10567,-0.82552 0.3173,-1.12571c0.21133,-0.30019 0.48601,-0.52533 0.82372,-0.67542c0.33771,-0.15008 0.69404,-0.22513 1.06927,-0.22513c0.29689,0 0.53914,0.02388 0.72676,0.07164c0.18762,0.04776 0.32751,0.0921 0.41966,0.13305l-0.34792,1.04382c-0.06154,-0.02044 -0.14679,-0.04605 -0.25606,-0.07673c-0.10567,-0.03071 -0.24555,-0.04608 -0.41936,-0.04608c-0.39925,0 -0.68743,0.10065 -0.86484,0.3019c-0.17411,0.20128 -0.26086,0.49633 -0.26086,0.88523v8.65771zM255.51664,175.40841c-0.49801,0 -0.9498,-0.09381 -1.35595,-0.28143c-0.40586,-0.19101 -0.72826,-0.46562 -0.96691,-0.82381c-0.23895,-0.36158 -0.35813,-0.79823 -0.35813,-1.3099c0,-0.45028 0.08856,-0.81528 0.26597,-1.095c0.17741,-0.28314 0.41456,-0.50489 0.71115,-0.66522c0.29689,-0.1603 0.62439,-0.27972 0.98252,-0.35816c0.36173,-0.08189 0.72496,-0.1467 1.08999,-0.19446c0.4776,-0.06139 0.86454,-0.10744 1.16143,-0.13815c0.30019,-0.0341 0.51843,-0.09039 0.65501,-0.16886c0.13989,-0.07847 0.20983,-0.21491 0.20983,-0.40934v-0.04095c0,-0.50486 -0.13809,-0.89714 -0.41456,-1.17686c-0.27287,-0.27975 -0.68743,-0.4196 -1.24338,-0.4196c-0.57636,0 -1.02845,0.12623 -1.35595,0.37866c-0.32751,0.25243 -0.55775,0.52191 -0.69073,0.80847l-1.14612,-0.40937c0.20443,-0.47757 0.4776,-0.84938 0.81861,-1.11547c0.34462,-0.26948 0.71985,-0.4571 1.12571,-0.56285c0.40946,-0.10915 0.81171,-0.16372 1.20766,-0.16372c0.25246,0 0.54214,0.03068 0.86965,0.0921c0.33111,0.058 0.64991,0.17909 0.957,0.36329c0.3104,0.18423 0.56796,0.46223 0.77269,0.83404c0.20473,0.37184 0.30679,0.86989 0.30679,1.49413v5.17826h-1.20736v-1.06432h-0.06154c-0.08195,0.17057 -0.21824,0.35308 -0.40916,0.54751c-0.19122,0.19443 -0.44518,0.3599 -0.76248,0.49633c-0.3173,0.13647 -0.70454,0.20467 -1.16173,0.20467zM255.70096,174.32365c0.4776,0 0.88015,-0.09381 1.20766,-0.28143c0.33081,-0.18762 0.57996,-0.42981 0.74687,-0.72661c0.17081,-0.29677 0.25606,-0.6089 0.25606,-0.93638v-1.10523c-0.05133,0.06142 -0.1639,0.1177 -0.33771,0.16886c-0.17051,0.04776 -0.36863,0.09039 -0.59377,0.12791c-0.22154,0.03413 -0.43828,0.06484 -0.64961,0.09213c-0.20803,0.02387 -0.37704,0.04434 -0.50672,0.06139c-0.3137,0.04095 -0.60728,0.10747 -0.88015,0.19957c-0.26927,0.08868 -0.48781,0.22343 -0.65471,0.40423c-0.1639,0.17738 -0.24585,0.41957 -0.24585,0.72658c0,0.4196 0.1552,0.73684 0.46589,0.95175c0.3137,0.21148 0.71115,0.31724 1.19205,0.31724zM265.37574,175.22422v-7.85948h1.16653v1.1871h0.08195c0.14319,-0.38886 0.40255,-0.70442 0.77779,-0.94662c0.37524,-0.24219 0.7982,-0.36329 1.2689,-0.36329c0.08886,0 0.19963,0.00171 0.33261,0.0051c0.13298,0.00342 0.23355,0.00853 0.30199,0.01537v1.22804c-0.04113,-0.01024 -0.13478,-0.02558 -0.28158,-0.04605c-0.14319,-0.0239 -0.29509,-0.03581 -0.45539,-0.03581c-0.38214,0 -0.72315,0.08015 -1.02334,0.24048c-0.29689,0.15691 -0.53223,0.37524 -0.70604,0.65495c-0.17051,0.27632 -0.25576,0.59185 -0.25576,0.94662v4.97359zM273.79303,175.38797c-0.75738,0 -1.41059,-0.16718 -1.95993,-0.50147c-0.54574,-0.33771 -0.96691,-0.80847 -1.26379,-1.41224c-0.29328,-0.60722 -0.44008,-1.31333 -0.44008,-2.1184c0,-0.80505 0.14679,-1.51457 0.44008,-2.12861c0.29689,-0.61743 0.70965,-1.09842 1.23828,-1.44295c0.53223,-0.34795 1.15302,-0.52191 1.86237,-0.52191c0.40946,0 0.81381,0.0682 1.21276,0.20467c0.39925,0.13644 0.76248,0.35819 1.08999,0.66519c0.32751,0.30361 0.58837,0.70613 0.78289,1.20757c0.19452,0.50147 0.29148,1.11889 0.29148,1.85231v0.51167h-6.05811v-1.04382h4.83034c0,-0.44347 -0.08886,-0.83918 -0.26627,-1.18713c-0.17381,-0.34795 -0.42297,-0.62256 -0.74687,-0.82381c-0.3209,-0.20128 -0.69944,-0.3019 -1.13621,-0.3019c-0.4809,0 -0.89696,0.11939 -1.24848,0.35819c-0.34792,0.23538 -0.61569,0.54238 -0.8033,0.92104c-0.18762,0.37863 -0.28128,0.78457 -0.28128,1.21781v0.6959c0,0.59353 0.10236,1.09671 0.30679,1.50947c0.20833,0.40934 0.49651,0.72147 0.86484,0.93638c0.36833,0.21148 0.7967,0.31724 1.28451,0.31724c0.317,0 0.60368,-0.04434 0.85944,-0.13304c0.25936,-0.0921 0.4827,-0.22853 0.67032,-0.40934c0.18762,-0.1842 0.33261,-0.41276 0.43497,-0.68566l1.16653,0.32748c-0.12278,0.39571 -0.32901,0.74366 -0.61899,1.04385c-0.28998,0.29677 -0.64811,0.52875 -1.07468,0.6959c-0.42627,0.16372 -0.90567,0.24561 -1.4376,0.24561zM282.07704,175.38797c-0.73666,0 -1.37126,-0.17399 -1.9035,-0.52194c-0.53193,-0.34795 -0.94139,-0.82723 -1.22807,-1.43784c-0.28638,-0.61058 -0.42957,-1.30819 -0.42957,-2.09277c0,-0.79823 0.14649,-1.50265 0.43978,-2.11327c0.29689,-0.61404 0.70965,-1.09332 1.23828,-1.43784c0.53223,-0.34795 1.15302,-0.52191 1.86267,-0.52191c0.55265,0 1.05066,0.10233 1.49404,0.307c0.44368,0.20467 0.80691,0.49123 1.08999,0.85962c0.28308,0.36842 0.45869,0.79823 0.52713,1.28946h-1.20766c-0.09216,-0.35819 -0.29689,-0.67542 -0.61419,-0.95175c-0.3137,-0.27972 -0.73666,-0.41957 -1.2689,-0.41957c-0.4707,0 -0.88346,0.12281 -1.23828,0.36842c-0.35122,0.24219 -0.62589,0.58501 -0.82372,1.02848c-0.19452,0.44005 -0.29178,0.95685 -0.29178,1.55041c0,0.60719 0.09546,1.13594 0.28668,1.58623c0.19452,0.45028 0.46739,0.79994 0.81861,1.04895c0.35482,0.24901 0.77088,0.37352 1.24848,0.37352c0.314,0 0.59858,-0.05457 0.85464,-0.16372c0.25576,-0.10918 0.4725,-0.26609 0.64991,-0.47076c0.17711,-0.20467 0.30349,-0.45028 0.37854,-0.73684h1.20766c-0.06844,0.46394 -0.23715,0.8818 -0.50672,1.25365c-0.26597,0.36839 -0.61899,0.66177 -1.05907,0.88009c-0.43677,0.21491 -0.94499,0.32237 -1.52496,0.32237zM290.35114,167.36474v1.02337h-4.07326v-1.02337zM287.46513,165.48174h1.20766v7.49106c0,0.34113 0.04953,0.59696 0.14829,0.76752c0.10236,0.16715 0.23205,0.27972 0.38904,0.33771c0.1603,0.05457 0.32901,0.08186 0.50642,0.08186c0.13298,0 0.24225,-0.00681 0.32751,-0.02044c0.08525,-0.01708 0.1534,-0.03071 0.20473,-0.04095l0.24555,1.08476c-0.08195,0.03071 -0.19602,0.06142 -0.34282,0.09213c-0.14679,0.0341 -0.33261,0.05115 -0.55775,0.05115c-0.34101,0 -0.67542,-0.07334 -1.00293,-0.22001c-0.3239,-0.1467 -0.59347,-0.37013 -0.80841,-0.67032c-0.21163,-0.30019 -0.3173,-0.67885 -0.3173,-1.13594zM294.48024,175.40841c-0.49801,0 -0.9498,-0.09381 -1.35595,-0.28143c-0.40586,-0.19101 -0.72826,-0.46562 -0.96691,-0.82381c-0.23895,-0.36158 -0.35813,-0.79823 -0.35813,-1.3099c0,-0.45028 0.08856,-0.81528 0.26597,-1.095c0.17741,-0.28314 0.41456,-0.50489 0.71115,-0.66522c0.29689,-0.1603 0.62439,-0.27972 0.98252,-0.35816c0.36173,-0.08189 0.72496,-0.1467 1.08999,-0.19446c0.4776,-0.06139 0.86454,-0.10744 1.16143,-0.13815c0.30019,-0.0341 0.51843,-0.09039 0.65501,-0.16886c0.13989,-0.07847 0.20983,-0.21491 0.20983,-0.40934v-0.04095c0,-0.50486 -0.13839,-0.89714 -0.41456,-1.17686c-0.27287,-0.27975 -0.68743,-0.4196 -1.24338,-0.4196c-0.57666,0 -1.02845,0.12623 -1.35595,0.37866c-0.32751,0.25243 -0.55775,0.52191 -0.69073,0.80847l-1.14612,-0.40937c0.20443,-0.47757 0.4773,-0.84938 0.81861,-1.11547c0.34462,-0.26948 0.71985,-0.4571 1.12571,-0.56285c0.40916,-0.10915 0.81171,-0.16372 1.20766,-0.16372c0.25216,0 0.54214,0.03068 0.86965,0.0921c0.33111,0.058 0.64991,0.17909 0.957,0.36329c0.3104,0.18423 0.56796,0.46223 0.77269,0.83404c0.20443,0.37184 0.30679,0.86989 0.30679,1.49413v5.17826h-1.20736v-1.06432h-0.06154c-0.08195,0.17057 -0.21824,0.35308 -0.40946,0.54751c-0.19092,0.19443 -0.44488,0.3599 -0.76218,0.49633c-0.3173,0.13647 -0.70454,0.20467 -1.16173,0.20467zM294.66455,174.32365c0.4776,0 0.88015,-0.09381 1.20766,-0.28143c0.33081,-0.18762 0.57996,-0.42981 0.74687,-0.72661c0.17081,-0.29677 0.25606,-0.6089 0.25606,-0.93638v-1.10523c-0.05133,0.06142 -0.1639,0.1177 -0.33771,0.16886c-0.17081,0.04776 -0.36863,0.09039 -0.59377,0.12791c-0.22154,0.03413 -0.43828,0.06484 -0.64961,0.09213c-0.20833,0.02387 -0.37704,0.04434 -0.50672,0.06139c-0.3137,0.04095 -0.60728,0.10747 -0.88015,0.19957c-0.26927,0.08868 -0.48781,0.22343 -0.65501,0.40423c-0.1636,0.17738 -0.24555,0.41957 -0.24555,0.72658c0,0.4196 0.1552,0.73684 0.46559,0.95175c0.314,0.21148 0.71145,0.31724 1.19235,0.31724zM301.49415,170.49624v4.72797h-1.20736v-7.85948h1.16653v1.22804h0.10236c0.18432,-0.39913 0.46379,-0.71976 0.83903,-0.96198c0.37524,-0.24558 0.85974,-0.36839 1.45321,-0.36839c0.53223,0 0.99783,0.10915 1.39708,0.32748c0.39895,0.21491 0.70935,0.54238 0.93119,0.98243c0.22184,0.43665 0.33261,0.98927 0.33261,1.65785v4.99406h-1.20766v-4.91217c0,-0.61746 -0.1603,-1.09842 -0.4809,-1.44298c-0.3206,-0.34792 -0.76068,-0.52191 -1.32023,-0.52191c-0.38544,0 -0.73006,0.08357 -1.03355,0.25072c-0.30019,0.16718 -0.53734,0.41108 -0.71115,0.73171c-0.17411,0.32066 -0.26116,0.70956 -0.26116,1.16665zM311.88788,178.33525c-0.58327,0 -1.08488,-0.07505 -1.50425,-0.22514c-0.41966,-0.14667 -0.76938,-0.3411 -1.04916,-0.5833c-0.27617,-0.2388 -0.49621,-0.49465 -0.66011,-0.76755l0.9621,-0.67542c0.10927,0.14328 0.24736,0.30703 0.41456,0.49123c0.16721,0.18762 0.39565,0.34966 0.68563,0.4861c0.29328,0.13986 0.67693,0.2098 1.15122,0.2098c0.6346,0 1.15813,-0.15352 1.57089,-0.46052c0.41276,-0.307 0.61899,-0.788 0.61899,-1.44295v-1.59646h-0.10206c-0.08886,0.14328 -0.21494,0.32066 -0.37884,0.53214c-0.1603,0.20809 -0.39235,0.394 -0.69584,0.55775c-0.30019,0.16033 -0.70604,0.24048 -1.21787,0.24048c-0.6343,0 -1.20406,-0.15009 -1.70897,-0.45028c-0.50132,-0.30019 -0.89876,-0.73681 -1.19235,-1.3099c-0.28968,-0.57309 -0.43467,-1.26899 -0.43467,-2.08769c0,-0.80505 0.14139,-1.50605 0.42447,-2.10303c0.28338,-0.60038 0.67723,-1.06429 1.18214,-1.39176c0.50492,-0.3309 1.08818,-0.49633 1.7498,-0.49633c0.51182,0 0.91768,0.08528 1.21787,0.25582c0.30379,0.16718 0.53554,0.35819 0.69584,0.57309c0.1639,0.21151 0.28998,0.38547 0.37884,0.52194h0.12278v-1.24851h1.16653v8.08462c0,0.67542 -0.1534,1.22462 -0.46049,1.64762c-0.30349,0.42642 -0.71295,0.73855 -1.22807,0.93641c-0.51152,0.20125 -1.08128,0.30187 -1.70897,0.30187zM311.84705,174.01665c0.4842,0 0.89366,-0.11086 1.22807,-0.33261c0.33411,-0.22172 0.58837,-0.54067 0.76218,-0.95685c0.17411,-0.41615 0.26116,-0.91419 0.26116,-1.49413c0,-0.56625 -0.08525,-1.066 -0.25606,-1.49923c-0.17051,-0.43323 -0.42297,-0.77263 -0.75708,-1.01824c-0.33441,-0.24561 -0.74717,-0.36842 -1.23828,-0.36842c-0.51182,0 -0.93809,0.12962 -1.2794,0.38889c-0.33771,0.25924 -0.59167,0.60719 -0.76218,1.04382c-0.16721,0.43665 -0.25096,0.92104 -0.25096,1.45318c0,0.5458 0.08525,1.02851 0.25606,1.44808c0.17381,0.41618 0.42957,0.74366 0.76728,0.98243c0.34131,0.23538 0.76428,0.35308 1.2692,0.35308zM318.70366,164.7449v10.47932h-1.20766v-10.47932zM324.21063,175.38797c-0.75738,0 -1.41059,-0.16718 -1.95993,-0.50147c-0.54574,-0.33771 -0.96691,-0.80847 -1.26379,-1.41224c-0.29328,-0.60722 -0.44008,-1.31333 -0.44008,-2.1184c0,-0.80505 0.14679,-1.51457 0.44008,-2.12861c0.29689,-0.61743 0.70965,-1.09842 1.23828,-1.44295c0.53223,-0.34795 1.15302,-0.52191 1.86267,-0.52191c0.40916,0 0.81351,0.0682 1.21246,0.20467c0.39925,0.13644 0.76248,0.35819 1.08999,0.66519c0.32751,0.30361 0.58837,0.70613 0.78289,1.20757c0.19452,0.50147 0.29178,1.11889 0.29178,1.85231v0.51167h-6.05841v-1.04382h4.83034c0,-0.44347 -0.08886,-0.83918 -0.26627,-1.18713c-0.17381,-0.34795 -0.42297,-0.62256 -0.74687,-0.82381c-0.3206,-0.20128 -0.69944,-0.3019 -1.13591,-0.3019c-0.4812,0 -0.89726,0.11939 -1.24848,0.35819c-0.34822,0.23538 -0.61599,0.54238 -0.80361,0.92104c-0.18762,0.37863 -0.28128,0.78457 -0.28128,1.21781v0.6959c0,0.59353 0.10236,1.09671 0.30709,1.50947c0.20803,0.40934 0.49621,0.72147 0.86454,0.93638c0.36863,0.21148 0.7967,0.31724 1.28451,0.31724c0.3173,0 0.60368,-0.04434 0.85944,-0.13304c0.25936,-0.0921 0.4827,-0.22853 0.67032,-0.40934c0.18762,-0.1842 0.33261,-0.41276 0.43497,-0.68566l1.16683,0.32748c-0.12308,0.39571 -0.32931,0.74366 -0.61929,1.04385c-0.28998,0.29677 -0.64811,0.52875 -1.07468,0.6959c-0.42627,0.16372 -0.90567,0.24561 -1.4376,0.24561zM335.13509,175.22422l-2.39491,-7.85948h1.2692l1.69877,6.0174h0.08195l1.67805,-6.0174h1.28961l1.65794,5.99696h0.08165l1.69877,-5.99696h1.2692l-2.39491,7.85948h-1.18695l-1.71918,-6.03788h-0.12278l-1.71948,6.03788zM345.06173,175.22422v-7.85948h1.20766v7.85948zM345.67562,166.0548c-0.23535,0 -0.43828,-0.08015 -0.60878,-0.24048c-0.16721,-0.16033 -0.25066,-0.35305 -0.25066,-0.57819c0,-0.22514 0.08345,-0.41789 0.25066,-0.57822c0.17051,-0.16033 0.37343,-0.24048 0.60878,-0.24048c0.23535,0 0.43677,0.08015 0.60398,0.24048c0.17051,0.16033 0.25576,0.35308 0.25576,0.57822c0,0.22514 -0.08525,0.41786 -0.25576,0.57819c-0.16721,0.16033 -0.36863,0.24048 -0.60398,0.24048zM351.89913,167.36474v1.02337h-4.07296v-1.02337zM349.01312,165.48174h1.20766v7.49106c0,0.34113 0.04953,0.59696 0.14829,0.76752c0.10236,0.16715 0.23205,0.27972 0.38904,0.33771c0.1603,0.05457 0.32901,0.08186 0.50642,0.08186c0.13298,0 0.24225,-0.00681 0.32751,-0.02044c0.08525,-0.01708 0.1537,-0.03071 0.20473,-0.04095l0.24555,1.08476c-0.08195,0.03071 -0.19602,0.06142 -0.34282,0.09213c-0.14649,0.0341 -0.33261,0.05115 -0.55775,0.05115c-0.34101,0 -0.67542,-0.07334 -1.00293,-0.22001c-0.3239,-0.1467 -0.59347,-0.37013 -0.80841,-0.67032c-0.21133,-0.30019 -0.3173,-0.67885 -0.3173,-1.13594zM355.09194,170.49624v4.72797h-1.20736v-10.47932h1.20736v3.84788h0.10236c0.18432,-0.40595 0.46049,-0.72829 0.82912,-0.96709c0.37163,-0.24219 0.86634,-0.36329 1.48383,-0.36329c0.53554,0 1.00443,0.10744 1.40698,0.32234c0.40255,0.21151 0.71475,0.53728 0.93659,0.97732c0.22514,0.43665 0.33771,0.99266 0.33771,1.66809v4.99406h-1.20766v-4.91217c0,-0.62427 -0.1621,-1.10695 -0.48601,-1.44808c-0.3209,-0.34453 -0.76608,-0.5168 -1.33554,-0.5168c-0.39595,0 -0.75047,0.08357 -1.06447,0.25072c-0.3104,0.16718 -0.55595,0.41108 -0.73666,0.73171c-0.17741,0.32066 -0.26627,0.70956 -0.26627,1.16665zM121.81727,182.15584v10.47932h-1.20758v-10.47932zM127.32427,192.79876c-0.75729,0 -1.41053,-0.1669 -1.95975,-0.50132c-0.5458,-0.33771 -0.96709,-0.80841 -1.26385,-1.41224c-0.29337,-0.60722 -0.44005,-1.31333 -0.44005,-2.1184c0,-0.80505 0.14667,-1.51457 0.44005,-2.12861c0.29677,-0.61743 0.70953,-1.09842 1.23828,-1.44295c0.53214,-0.34795 1.15299,-0.52191 1.86252,-0.52191c0.40937,0 0.8136,0.0682 1.2127,0.20467c0.3991,0.13644 0.76242,0.35819 1.0899,0.66519c0.32748,0.30361 0.58843,0.70613 0.78286,1.20757c0.19446,0.50147 0.29166,1.11889 0.29166,1.85231v0.51167h-6.05835v-1.04382h4.83031c0,-0.44347 -0.08868,-0.83918 -0.26606,-1.18713c-0.17399,-0.34795 -0.423,-0.62256 -0.74708,-0.82381c-0.32066,-0.20128 -0.69929,-0.3019 -1.13594,-0.3019c-0.48096,0 -0.89714,0.11939 -1.24851,0.35819c-0.34795,0.23538 -0.61572,0.54238 -0.80333,0.92104c-0.18762,0.37863 -0.28143,0.78457 -0.28143,1.21781v0.6959c0,0.59353 0.10233,1.09671 0.307,1.50947c0.20809,0.40934 0.49633,0.72147 0.86475,0.93638c0.36842,0.21163 0.79652,0.3173 1.28433,0.3173c0.31724,0 0.6038,-0.04443 0.85965,-0.13298c0.25924,-0.09216 0.48267,-0.22865 0.67029,-0.40946c0.18762,-0.1842 0.33261,-0.41276 0.43494,-0.68566l1.16662,0.32748c-0.12281,0.39571 -0.32919,0.74363 -0.61914,1.04382c-0.28995,0.29689 -0.64814,0.52863 -1.07453,0.69584c-0.42642,0.1639 -0.9057,0.24555 -1.43784,0.24555zM133.62313,187.90719v4.72797h-1.2076v-7.85948h1.16665v1.22804h0.10233c0.18423,-0.39913 0.46394,-0.71976 0.83918,-0.96198c0.37524,-0.24558 0.85962,-0.36839 1.45318,-0.36839c0.53214,0 0.99777,0.10915 1.3969,0.32748c0.3991,0.21491 0.70953,0.54238 0.93128,0.98243c0.22172,0.43665 0.33258,0.98927 0.33258,1.65785v4.99406h-1.20757v-4.91217c0,-0.61746 -0.16033,-1.09842 -0.48099,-1.44298c-0.32066,-0.34792 -0.76071,-0.52191 -1.32014,-0.52191c-0.38547,0 -0.73,0.08357 -1.03361,0.25072c-0.30019,0.16718 -0.53728,0.41108 -0.71124,0.73171c-0.17399,0.32066 -0.26095,0.70956 -0.26095,1.16665zM144.01672,195.74632c-0.5833,0 -1.08476,-0.07505 -1.50434,-0.22514c-0.41957,-0.14679 -0.76923,-0.34131 -1.04895,-0.58357c-0.27632,-0.23865 -0.49633,-0.49441 -0.66008,-0.76728l0.96195,-0.67542c0.10918,0.14319 0.24733,0.30679 0.41447,0.49111c0.16718,0.18762 0.39571,0.34972 0.68566,0.48601c0.29337,0.13989 0.67714,0.20983 1.15128,0.20983c0.63451,0 1.15813,-0.1534 1.57089,-0.46049c0.41276,-0.30709 0.61914,-0.788 0.61914,-1.44301v-1.59637h-0.10233c-0.08871,0.14328 -0.21491,0.32057 -0.37866,0.5322c-0.16033,0.20803 -0.39229,0.39385 -0.6959,0.55775c-0.30019,0.1603 -0.7061,0.24045 -1.21781,0.24045c-0.63448,0 -1.20415,-0.15009 -1.70903,-0.45028c-0.50144,-0.30019 -0.89886,-0.73684 -1.1922,-1.30993c-0.28995,-0.57309 -0.43494,-1.26899 -0.43494,-2.08769c0,-0.80505 0.14157,-1.50605 0.42471,-2.10303c0.28314,-0.60038 0.67714,-1.06429 1.18199,-1.39176c0.50486,-0.3309 1.08818,-0.49633 1.74995,-0.49633c0.5117,0 0.91762,0.08528 1.21781,0.25582c0.30361,0.16718 0.53557,0.35819 0.6959,0.57309c0.16375,0.21151 0.28995,0.38547 0.37866,0.52194h0.12281v-1.24851h1.16662v8.08462c0,0.67542 -0.15349,1.22477 -0.46052,1.64774c-0.30358,0.42627 -0.71295,0.73846 -1.22804,0.93629c-0.51167,0.20113 -1.08134,0.30199 -1.70903,0.30199zM143.9758,191.42759c0.48438,0 0.89375,-0.11086 1.22804,-0.33261c0.33429,-0.22172 0.58843,-0.54067 0.76242,-0.95685c0.17396,-0.41615 0.26095,-0.91419 0.26095,-1.49413c0,-0.56625 -0.08528,-1.066 -0.25585,-1.49923c-0.17057,-0.43323 -0.423,-0.77263 -0.75729,-1.01824c-0.33429,-0.24561 -0.74705,-0.36842 -1.23828,-0.36842c-0.5117,0 -0.93809,0.12962 -1.27922,0.38889c-0.33771,0.25924 -0.59185,0.60719 -0.76239,1.04382c-0.16718,0.43665 -0.25075,0.92104 -0.25075,1.45318c0,0.5458 0.08528,1.02851 0.25585,1.44808c0.17396,0.41618 0.42981,0.74366 0.76752,0.98243c0.34113,0.23538 0.76413,0.35308 1.26899,0.35308zM153.04273,184.77568v1.02337h-4.0729v-1.02337zM150.15702,182.89269h1.20766v7.49106c0,0.34113 0.04923,0.59696 0.14829,0.76752c0.10236,0.16715 0.23205,0.27972 0.38874,0.33777c0.1603,0.05463 0.32931,0.08195 0.50672,0.08195c0.13298,0 0.24225,-0.0069 0.32751,-0.02071c0.08525,-0.01681 0.1534,-0.03062 0.20473,-0.04083l0.24555,1.08488c-0.08195,0.03062 -0.19632,0.06124 -0.34282,0.09186c-0.14679,0.03422 -0.33261,0.05133 -0.55775,0.05133c-0.34131,0 -0.67542,-0.07325 -1.00293,-0.22004c-0.3242,-0.14679 -0.59347,-0.37013 -0.80841,-0.67032c-0.21163,-0.30019 -0.3173,-0.67885 -0.3173,-1.13594zM156.23584,187.90719v4.72797h-1.20766v-10.47932h1.20766v3.84788h0.10236c0.18402,-0.40595 0.46049,-0.72829 0.82882,-0.96709c0.37193,-0.24219 0.86634,-0.36329 1.48383,-0.36329c0.53554,0 1.00473,0.10744 1.40728,0.32234c0.40255,0.21151 0.71445,0.53728 0.93629,0.97732c0.22514,0.43665 0.33771,0.99266 0.33771,1.66809v4.99406h-1.20766v-4.91217c0,-0.62427 -0.1618,-1.10695 -0.48601,-1.44808c-0.3206,-0.34453 -0.76578,-0.5168 -1.33554,-0.5168c-0.39565,0 -0.75047,0.08357 -1.06417,0.25072c-0.3104,0.16718 -0.55625,0.41108 -0.73696,0.73171c-0.17741,0.32066 -0.26597,0.70956 -0.26597,1.16665zM170.93007,192.77835c-0.70274,0 -1.32353,-0.12458 -1.86237,-0.37343c-0.53584,-0.25246 -0.9537,-0.59858 -1.25389,-1.03874c-0.30019,-0.44344 -0.44848,-0.94833 -0.44518,-1.51457c-0.0033,-0.44347 0.08375,-0.85281 0.26116,-1.22804c0.17741,-0.37866 0.41936,-0.69419 0.72646,-0.94662c0.3104,-0.25585 0.65681,-0.41789 1.03865,-0.48613v-0.06139c-0.50132,-0.12962 -0.90057,-0.41105 -1.19715,-0.84428c-0.29689,-0.43665 -0.44338,-0.93299 -0.44008,-1.489c-0.0033,-0.53217 0.13118,-1.00803 0.40405,-1.42761c0.27317,-0.41957 0.64841,-0.75047 1.12571,-0.99266c0.4812,-0.24222 1.02875,-0.36332 1.64263,-0.36332c0.60728,0 1.14972,0.1211 1.62732,0.36332c0.4773,0.24219 0.85254,0.57309 1.12571,0.99266c0.27617,0.41957 0.41606,0.89543 0.41936,1.42761c-0.0033,0.55601 -0.1552,1.05234 -0.45539,1.489c-0.29659,0.43323 -0.69073,0.71466 -1.18184,0.84428v0.06139c0.37854,0.06823 0.71955,0.23027 1.02334,0.48613c0.30349,0.25243 0.54574,0.56796 0.72646,0.94662c0.18101,0.37524 0.27287,0.78457 0.27647,1.22804c-0.0036,0.56625 -0.157,1.07113 -0.46049,1.51457c-0.30019,0.44017 -0.71805,0.78628 -1.25389,1.03874c-0.53193,0.24886 -1.14762,0.37343 -1.84706,0.37343zM170.93007,191.65264c0.4743,0 0.88346,-0.07655 1.22807,-0.23018c0.34462,-0.15349 0.61058,-0.3701 0.7982,-0.64982c0.18762,-0.27975 0.28308,-0.60722 0.28668,-0.98246c-0.0036,-0.39571 -0.10597,-0.74534 -0.30709,-1.04895c-0.20143,-0.30361 -0.4758,-0.54238 -0.82372,-0.71637c-0.34462,-0.17396 -0.73876,-0.26095 -1.18214,-0.26095c-0.44698,0 -0.84593,0.08699 -1.19745,0.26095c-0.34792,0.17399 -0.62229,0.41276 -0.82372,0.71637c-0.19782,0.30361 -0.29509,0.65324 -0.29148,1.04895c-0.0036,0.37524 0.08675,0.70271 0.27107,0.98246c0.18762,0.27972 0.45539,0.49633 0.8033,0.64982c0.34792,0.15364 0.76068,0.23018 1.23828,0.23018zM170.93007,186.67915c0.37524,0 0.70784,-0.07505 0.99783,-0.22514c0.29328,-0.15009 0.52353,-0.3599 0.69073,-0.62938c0.16721,-0.26948 0.25246,-0.58504 0.25576,-0.94662c-0.0033,-0.35476 -0.08675,-0.66348 -0.25066,-0.92614c-0.1636,-0.26609 -0.39055,-0.47076 -0.68053,-0.61404c-0.28998,-0.14667 -0.62769,-0.22001 -1.01314,-0.22001c-0.39235,0 -0.73516,0.07334 -1.02845,0.22001c-0.29328,0.14328 -0.52023,0.34795 -0.68053,0.61404c-0.1603,0.26267 -0.23895,0.57138 -0.23535,0.92614c-0.0036,0.36158 0.07655,0.67714 0.24045,0.94662c0.16721,0.26948 0.39745,0.47928 0.69073,0.62938c0.29328,0.15009 0.631,0.22514 1.01314,0.22514zM185.47872,189.42179v-4.64611h1.20736v7.85948h-1.20736v-1.33038h-0.08195c-0.18432,0.39919 -0.4707,0.7384 -0.85974,1.01818c-0.38874,0.27647 -0.88015,0.41456 -1.47363,0.41456c-0.49111,0 -0.92788,-0.10747 -1.31002,-0.3224c-0.38184,-0.21824 -0.68203,-0.54574 -0.90057,-0.98243c-0.21824,-0.44005 -0.32721,-0.99438 -0.32721,-1.66299v-4.99403h1.20736v4.91217c0,0.57309 0.1603,1.03019 0.4812,1.37132c0.3239,0.34113 0.73666,0.51182 1.23828,0.51182c0.30019,0 0.60548,-0.07685 0.91588,-0.23039c0.3137,-0.15352 0.57636,-0.38889 0.788,-0.70613c0.21494,-0.31724 0.3224,-0.72147 0.3224,-1.21267zM190.10553,187.90719v4.72797h-1.20766v-7.85948h1.16683v1.22804h0.10206c0.18432,-0.39913 0.46409,-0.71976 0.83933,-0.96198c0.37524,-0.24558 0.85974,-0.36839 1.45321,-0.36839c0.53223,0 0.99783,0.10915 1.39678,0.32748c0.39925,0.21491 0.70965,0.54238 0.93149,0.98243c0.22154,0.43665 0.33231,0.98927 0.33231,1.65785v4.99406h-1.20736v-4.91217c0,-0.61746 -0.1603,-1.09842 -0.4812,-1.44298c-0.3206,-0.34792 -0.76068,-0.52191 -1.31993,-0.52191c-0.38544,0 -0.73006,0.08357 -1.03355,0.25072c-0.30019,0.16718 -0.53734,0.41108 -0.71145,0.73171c-0.17381,0.32066 -0.26086,0.70956 -0.26086,1.16665zM197.32657,192.63516v-7.85948h1.20766v7.85948zM197.94075,183.46575c-0.23535,0 -0.43828,-0.08015 -0.60908,-0.24048c-0.1669,-0.16033 -0.25066,-0.35305 -0.25066,-0.57819c0,-0.22514 0.08375,-0.41789 0.25066,-0.57822c0.17081,-0.16033 0.37373,-0.24048 0.60908,-0.24048c0.23535,0 0.43647,0.08015 0.60368,0.24048c0.17051,0.16033 0.25576,0.35308 0.25576,0.57822c0,0.22514 -0.08525,0.41786 -0.25576,0.57819c-0.16721,0.16033 -0.36833,0.24048 -0.60368,0.24048zM204.16396,184.77568v1.02337h-4.07296v-1.02337zM201.27825,182.89269h1.20736v7.49106c0,0.34113 0.04953,0.59696 0.14859,0.76752c0.10236,0.16715 0.23175,0.27972 0.38874,0.33777c0.1603,0.05463 0.32931,0.08195 0.50672,0.08195c0.13298,0 0.24195,-0.0069 0.32751,-0.02071c0.08525,-0.01681 0.1534,-0.03062 0.20443,-0.04083l0.24585,1.08488c-0.08195,0.03062 -0.19632,0.06124 -0.34282,0.09186c-0.14679,0.03422 -0.33261,0.05133 -0.55775,0.05133c-0.34131,0 -0.67542,-0.07325 -1.00293,-0.22004c-0.3242,-0.14679 -0.59377,-0.37013 -0.80871,-0.67032c-0.21133,-0.30019 -0.317,-0.67885 -0.317,-1.13594zM211.40692,186.53587l-1.08458,0.307c-0.06844,-0.18077 -0.16901,-0.35647 -0.30199,-0.52701c-0.12968,-0.17399 -0.30709,-0.31727 -0.53223,-0.42984c-0.22514,-0.11257 -0.51332,-0.16886 -0.86484,-0.16886c-0.4809,0 -0.88165,0.11089 -1.20226,0.33261c-0.3173,0.21833 -0.4758,0.49633 -0.4758,0.83404c0,0.30019 0.10897,0.53728 0.32721,0.71124c0.21854,0.17399 0.55955,0.31895 1.02364,0.43494l1.16653,0.28653c0.70274,0.17057 1.22627,0.43152 1.57089,0.78289c0.34462,0.34795 0.51662,0.79652 0.51662,1.34572c0,0.45028 -0.12938,0.85284 -0.38874,1.20751c-0.25576,0.35482 -0.61389,0.6346 -1.07468,0.83933c-0.46049,0.20473 -0.99603,0.30679 -1.60661,0.30679c-0.8015,0 -1.46522,-0.17381 -1.99055,-0.52173c-0.52533,-0.34792 -0.85764,-0.85629 -0.99753,-1.52487l1.14612,-0.28656c0.10897,0.423 0.3155,0.74024 0.61899,0.95175c0.30709,0.21157 0.70784,0.31724 1.20256,0.31724c0.56285,0 1.00983,-0.11948 1.34064,-0.35819c0.33441,-0.24219 0.50132,-0.53214 0.50132,-0.86986c0,-0.2729 -0.09546,-0.50147 -0.28638,-0.68566c-0.19122,-0.18762 -0.4845,-0.32748 -0.88015,-0.41957l-1.31002,-0.30703c-0.71955,-0.17054 -1.24848,-0.43491 -1.5862,-0.7931c-0.33411,-0.36158 -0.50132,-0.81357 -0.50132,-1.35595c0,-0.44347 0.12458,-0.83576 0.37343,-1.17689c0.25246,-0.34113 0.59527,-0.6089 1.02845,-0.80333c0.43677,-0.19446 0.93149,-0.29166 1.48383,-0.29166c0.77779,0 1.38837,0.17057 1.83205,0.51167c0.44668,0.34113 0.76398,0.79142 0.9516,1.35085zM219.73325,192.81948c-0.49801,0 -0.9498,-0.09396 -1.35595,-0.28158c-0.40586,-0.19092 -0.72826,-0.46559 -0.96691,-0.82372c-0.23895,-0.36164 -0.35813,-0.79829 -0.35813,-1.30996c0,-0.45028 0.08856,-0.81528 0.26597,-1.095c0.17741,-0.28314 0.41456,-0.50489 0.71115,-0.66522c0.29689,-0.1603 0.62439,-0.27972 0.98252,-0.35816c0.36173,-0.08189 0.72496,-0.1467 1.08999,-0.19446c0.4776,-0.06139 0.86454,-0.10744 1.16143,-0.13815c0.30019,-0.0341 0.51843,-0.09039 0.65501,-0.16886c0.13989,-0.07847 0.20983,-0.21491 0.20983,-0.40934v-0.04095c0,-0.50486 -0.13839,-0.89714 -0.41456,-1.17686c-0.27287,-0.27975 -0.68743,-0.4196 -1.24338,-0.4196c-0.57666,0 -1.02845,0.12623 -1.35595,0.37866c-0.32751,0.25243 -0.55775,0.52191 -0.69073,0.80847l-1.14612,-0.40937c0.20443,-0.47757 0.4773,-0.84938 0.81861,-1.11547c0.34462,-0.26948 0.71985,-0.4571 1.12571,-0.56285c0.40916,-0.10915 0.81171,-0.16372 1.20766,-0.16372c0.25216,0 0.54214,0.03068 0.86965,0.0921c0.33111,0.058 0.64991,0.17909 0.957,0.36329c0.3104,0.18423 0.56796,0.46223 0.77269,0.83404c0.20443,0.37184 0.30679,0.86989 0.30679,1.49413v5.17826h-1.20736v-1.06417h-0.06154c-0.08195,0.17051 -0.21824,0.35302 -0.40946,0.54724c-0.19092,0.19452 -0.44488,0.35993 -0.76218,0.49651c-0.3173,0.13629 -0.70454,0.20473 -1.16173,0.20473zM219.91757,191.7346c0.4776,0 0.88015,-0.09366 1.20766,-0.28158c0.33081,-0.18747 0.57996,-0.42966 0.74687,-0.72646c0.17081,-0.29677 0.25606,-0.6089 0.25606,-0.93638v-1.10523c-0.05133,0.06142 -0.1639,0.1177 -0.33771,0.16886c-0.17081,0.04776 -0.36863,0.09039 -0.59377,0.12791c-0.22154,0.03413 -0.43828,0.06484 -0.64961,0.09213c-0.20833,0.02387 -0.37704,0.04434 -0.50672,0.06139c-0.3137,0.04095 -0.60728,0.10747 -0.88015,0.19957c-0.26927,0.08868 -0.48781,0.22343 -0.65501,0.40423c-0.1636,0.17738 -0.24555,0.41957 -0.24555,0.72658c0,0.4196 0.1552,0.73684 0.46559,0.95175c0.314,0.21157 0.71145,0.31724 1.19235,0.31724zM226.74716,187.90719v4.72797h-1.20736v-7.85948h1.16653v1.22804h0.10236c0.18432,-0.39913 0.46379,-0.71976 0.83903,-0.96198c0.37524,-0.24558 0.85974,-0.36839 1.45321,-0.36839c0.53223,0 0.99783,0.10915 1.39708,0.32748c0.39895,0.21491 0.70935,0.54238 0.93119,0.98243c0.22184,0.43665 0.33261,0.98927 0.33261,1.65785v4.99406h-1.20766v-4.91217c0,-0.61746 -0.1603,-1.09842 -0.4809,-1.44298c-0.3206,-0.34792 -0.76068,-0.52191 -1.32023,-0.52191c-0.38544,0 -0.73006,0.08357 -1.03355,0.25072c-0.30019,0.16718 -0.53734,0.41108 -0.71115,0.73171c-0.17411,0.32066 -0.26116,0.70956 -0.26116,1.16665zM236.93616,192.79876c-0.65501,0 -1.23318,-0.1654 -1.73449,-0.49621c-0.50162,-0.33441 -0.89366,-0.80511 -1.17704,-1.41224c-0.28308,-0.61061 -0.42447,-1.33209 -0.42447,-2.16442c0,-0.82552 0.14139,-1.54189 0.42447,-2.14908c0.28338,-0.60719 0.67723,-1.07624 1.18214,-1.40713c0.50492,-0.3309 1.08818,-0.49633 1.7498,-0.49633c0.51182,0 0.91618,0.08528 1.21276,0.25582c0.30019,0.16718 0.52893,0.35819 0.68563,0.57309c0.1603,0.21151 0.28488,0.38547 0.37373,0.52194h0.10206v-3.86835h1.20766v10.47932h-1.16653v-1.20757h-0.14319c-0.08886,0.1434 -0.21494,0.32411 -0.37884,0.54235c-0.1636,0.21494 -0.39745,0.40766 -0.70094,0.57816c-0.30349,0.16721 -0.70784,0.25066 -1.21276,0.25066zM237.10007,191.71418c0.4842,0 0.89366,-0.12638 1.22807,-0.37869c0.33411,-0.25585 0.58837,-0.60893 0.76218,-1.05922c0.17411,-0.45368 0.26116,-0.97729 0.26116,-1.57086c0,-0.58675 -0.08525,-1.10013 -0.25606,-1.54018c-0.17051,-0.44347 -0.42297,-0.788 -0.75708,-1.03361c-0.33441,-0.24901 -0.74717,-0.37352 -1.23828,-0.37352c-0.51182,0 -0.93809,0.13133 -1.2794,0.394c-0.33771,0.25924 -0.59167,0.61232 -0.76218,1.05919c-0.16721,0.44347 -0.25096,0.94151 -0.25096,1.49413c0,0.55943 0.08525,1.06771 0.25606,1.52481c0.17381,0.45371 0.42957,0.81528 0.76728,1.08479c0.34131,0.26618 0.76428,0.39916 1.2692,0.39916zM248.75099,192.63516l-2.39461,-7.85948h1.2689l1.69877,6.0174h0.08195l1.67836,-6.0174h1.28931l1.65794,5.99696h0.08195l1.69877,-5.99696h1.2689l-2.39461,7.85948h-1.18725l-1.71918,-6.03788h-0.12278l-1.71918,6.03788zM258.67763,192.63516v-7.85948h1.20766v7.85948zM259.29182,183.46575c-0.23535,0 -0.43828,-0.08015 -0.60908,-0.24048c-0.1669,-0.16033 -0.25066,-0.35305 -0.25066,-0.57819c0,-0.22514 0.08375,-0.41789 0.25066,-0.57822c0.17081,-0.16033 0.37373,-0.24048 0.60908,-0.24048c0.23535,0 0.43647,0.08015 0.60368,0.24048c0.17051,0.16033 0.25576,0.35308 0.25576,0.57822c0,0.22514 -0.08525,0.41786 -0.25576,0.57819c-0.16721,0.16033 -0.36833,0.24048 -0.60368,0.24048zM265.06475,192.79876c-0.65501,0 -1.23318,-0.1654 -1.73449,-0.49621c-0.50162,-0.33441 -0.89366,-0.80511 -1.17704,-1.41224c-0.28308,-0.61061 -0.42447,-1.33209 -0.42447,-2.16442c0,-0.82552 0.14139,-1.54189 0.42447,-2.14908c0.28338,-0.60719 0.67723,-1.07624 1.18214,-1.40713c0.50492,-0.3309 1.08818,-0.49633 1.7498,-0.49633c0.51182,0 0.91618,0.08528 1.21276,0.25582c0.30019,0.16718 0.52893,0.35819 0.68563,0.57309c0.1603,0.21151 0.28488,0.38547 0.37373,0.52194h0.10236v-3.86835h1.20736v10.47932h-1.16653v-1.20757h-0.14319c-0.08886,0.1434 -0.21494,0.32411 -0.37884,0.54235c-0.1636,0.21494 -0.39745,0.40766 -0.70094,0.57816c-0.30349,0.16721 -0.70784,0.25066 -1.21276,0.25066zM265.22865,191.71418c0.4842,0 0.89366,-0.12638 1.22807,-0.37869c0.33411,-0.25585 0.58837,-0.60893 0.76218,-1.05922c0.17411,-0.45368 0.26116,-0.97729 0.26116,-1.57086c0,-0.58675 -0.08525,-1.10013 -0.25606,-1.54018c-0.17051,-0.44347 -0.42297,-0.788 -0.75708,-1.03361c-0.33441,-0.24901 -0.74717,-0.37352 -1.23828,-0.37352c-0.51182,0 -0.93809,0.13133 -1.2794,0.394c-0.33771,0.25924 -0.59167,0.61232 -0.76218,1.05919c-0.16721,0.44347 -0.25096,0.94151 -0.25096,1.49413c0,0.55943 0.08525,1.06771 0.25606,1.52481c0.17381,0.45371 0.42957,0.81528 0.76728,1.08479c0.34131,0.26618 0.76428,0.39916 1.2692,0.39916zM274.46455,184.77568v1.02337h-4.07296v-1.02337zM271.57854,182.89269h1.20766v7.49106c0,0.34113 0.04953,0.59696 0.14829,0.76752c0.10236,0.16715 0.23205,0.27972 0.38904,0.33777c0.1603,0.05463 0.32901,0.08195 0.50642,0.08195c0.13298,0 0.24225,-0.0069 0.32751,-0.02071c0.08525,-0.01681 0.1534,-0.03062 0.20473,-0.04083l0.24555,1.08488c-0.08195,0.03062 -0.19602,0.06124 -0.34282,0.09186c-0.14679,0.03422 -0.33261,0.05133 -0.55775,0.05133c-0.34101,0 -0.67542,-0.07325 -1.00293,-0.22004c-0.3239,-0.14679 -0.59347,-0.37013 -0.80841,-0.67032c-0.21163,-0.30019 -0.3173,-0.67885 -0.3173,-1.13594zM277.65736,187.90719v4.72797h-1.20766v-10.47932h1.20766v3.84788h0.10236c0.18432,-0.40595 0.46049,-0.72829 0.82882,-0.96709c0.37193,-0.24219 0.86664,-0.36329 1.48413,-0.36329c0.53554,0 1.00443,0.10744 1.40698,0.32234c0.40255,0.21151 0.71475,0.53728 0.93629,0.97732c0.22514,0.43665 0.33771,0.99266 0.33771,1.66809v4.99406h-1.20736v-4.91217c0,-0.62427 -0.1621,-1.10695 -0.48631,-1.44808c-0.3206,-0.34453 -0.76578,-0.5168 -1.33524,-0.5168c-0.39595,0 -0.75047,0.08357 -1.06447,0.25072c-0.3104,0.16718 -0.55595,0.41108 -0.73666,0.73171c-0.17741,0.32066 -0.26627,0.70956 -0.26627,1.16665zM292.26995,192.77835c-0.60038,0 -1.14102,-0.11917 -1.62222,-0.35813c-0.4809,-0.23865 -0.86634,-0.56616 -1.15633,-0.98252c-0.28998,-0.41606 -0.44848,-0.89021 -0.4758,-1.42238h1.22807c0.04773,0.47418 0.26267,0.86646 0.64451,1.17689c0.38574,0.30703 0.84623,0.46043 1.38177,0.46043c0.42987,0 0.81171,-0.10056 1.14612,-0.30181c0.33771,-0.20128 0.60218,-0.47757 0.7931,-0.82894c0.19452,-0.35476 0.29178,-0.75557 0.29178,-1.20247c0,-0.4571 -0.10086,-0.86472 -0.30199,-1.22291c-0.19782,-0.36161 -0.4707,-0.64643 -0.81861,-0.85452c-0.34792,-0.20809 -0.74537,-0.31385 -1.19235,-0.31724c-0.3206,-0.00342 -0.64991,0.04605 -0.98762,0.14838c-0.33771,0.09891 -0.61569,0.22685 -0.83392,0.38376l-1.18725,-0.14328l0.6346,-5.15778h5.44422v1.12571h-4.38005l-0.36833,3.09059h0.06154c0.21494,-0.17057 0.4842,-0.31214 0.80841,-0.42471c0.3239,-0.11257 0.66162,-0.16886 1.01314,-0.16886c0.6412,0 1.21276,0.15352 1.71408,0.46052c0.50492,0.30358 0.90057,0.71976 1.18725,1.24851c0.28968,0.52872 0.43467,1.13252 0.43467,1.81137c0,0.66858 -0.15009,1.26557 -0.45028,1.7909c-0.29659,0.52194 -0.70604,0.9347 -1.22777,1.23819c-0.52203,0.30019 -1.1155,0.45028 -1.78072,0.45028zM306.78767,189.42179v-4.64611h1.20766v7.85948h-1.20766v-1.33038h-0.08195c-0.18402,0.39919 -0.4707,0.7384 -0.85944,1.01818c-0.38904,0.27647 -0.88015,0.41456 -1.47393,0.41456c-0.49111,0 -0.92758,-0.10747 -1.30972,-0.3224c-0.38214,-0.21824 -0.68233,-0.54574 -0.90057,-0.98243c-0.21824,-0.44005 -0.32751,-0.99438 -0.32751,-1.66299v-4.99403h1.20766v4.91217c0,0.57309 0.1603,1.03019 0.4809,1.37132c0.3239,0.34113 0.73666,0.51182 1.23828,0.51182c0.30019,0 0.60548,-0.07685 0.91588,-0.23039c0.314,-0.15352 0.57666,-0.38889 0.788,-0.70613c0.21494,-0.31724 0.3224,-0.72147 0.3224,-1.21267zM311.41448,187.90719v4.72797h-1.20736v-7.85948h1.16653v1.22804h0.10236c0.18402,-0.39913 0.46379,-0.71976 0.83903,-0.96198c0.37524,-0.24558 0.85974,-0.36839 1.45321,-0.36839c0.53223,0 0.99783,0.10915 1.39708,0.32748c0.39895,0.21491 0.70935,0.54238 0.93119,0.98243c0.22184,0.43665 0.33261,0.98927 0.33261,1.65785v4.99406h-1.20766v-4.91217c0,-0.61746 -0.1603,-1.09842 -0.4809,-1.44298c-0.3206,-0.34792 -0.76068,-0.52191 -1.32023,-0.52191c-0.38544,0 -0.73006,0.08357 -1.03355,0.25072c-0.30019,0.16718 -0.53734,0.41108 -0.71115,0.73171c-0.17411,0.32066 -0.26116,0.70956 -0.26116,1.16665zM318.63582,192.63516v-7.85948h1.20736v7.85948zM319.24971,183.46575c-0.23535,0 -0.43828,-0.08015 -0.60878,-0.24048c-0.16721,-0.16033 -0.25066,-0.35305 -0.25066,-0.57819c0,-0.22514 0.08345,-0.41789 0.25066,-0.57822c0.17051,-0.16033 0.37343,-0.24048 0.60878,-0.24048c0.23535,0 0.43677,0.08015 0.60398,0.24048c0.17051,0.16033 0.25576,0.35308 0.25576,0.57822c0,0.22514 -0.08525,0.41786 -0.25576,0.57819c-0.16721,0.16033 -0.36863,0.24048 -0.60398,0.24048zM325.47322,184.77568v1.02337h-4.07326v-1.02337zM322.5872,182.89269h1.20766v7.49106c0,0.34113 0.04953,0.59696 0.14829,0.76752c0.10236,0.16715 0.23205,0.27972 0.38904,0.33777c0.1603,0.05463 0.32901,0.08195 0.50642,0.08195c0.13298,0 0.24225,-0.0069 0.32751,-0.02071c0.08525,-0.01681 0.1534,-0.03062 0.20473,-0.04083l0.24555,1.08488c-0.08195,0.03062 -0.19602,0.06124 -0.34282,0.09186c-0.14679,0.03422 -0.33261,0.05133 -0.55775,0.05133c-0.34101,0 -0.67542,-0.07325 -1.00293,-0.22004c-0.3239,-0.14679 -0.59347,-0.37013 -0.80841,-0.67032c-0.21163,-0.30019 -0.3173,-0.67885 -0.3173,-1.13594zM332.71617,186.53587l-1.08488,0.307c-0.06814,-0.18077 -0.16901,-0.35647 -0.30199,-0.52701c-0.12968,-0.17399 -0.30709,-0.31727 -0.53223,-0.42984c-0.22514,-0.11257 -0.51332,-0.16886 -0.86454,-0.16886c-0.4809,0 -0.88195,0.11089 -1.20256,0.33261c-0.3173,0.21833 -0.4758,0.49633 -0.4758,0.83404c0,0.30019 0.10927,0.53728 0.32751,0.71124c0.21824,0.17399 0.55925,0.31895 1.02334,0.43494l1.16653,0.28653c0.70274,0.17057 1.22627,0.43152 1.57089,0.78289c0.34462,0.34795 0.51692,0.79652 0.51692,1.34572c0,0.45028 -0.12968,0.85284 -0.38904,1.20751c-0.25576,0.35482 -0.61389,0.6346 -1.07438,0.83933c-0.46049,0.20473 -0.99603,0.30679 -1.60661,0.30679c-0.8018,0 -1.46522,-0.17381 -1.99055,-0.52173c-0.52533,-0.34792 -0.85794,-0.85629 -0.99783,-1.52487l1.14612,-0.28656c0.10927,0.423 0.3155,0.74024 0.61929,0.95175c0.30679,0.21157 0.70784,0.31724 1.20226,0.31724c0.56285,0 1.00983,-0.11948 1.34064,-0.35819c0.33441,-0.24219 0.50162,-0.53214 0.50162,-0.86986c0,-0.2729 -0.09546,-0.50147 -0.28668,-0.68566c-0.19092,-0.18762 -0.4842,-0.32748 -0.88015,-0.41957l-1.30972,-0.30703c-0.71985,-0.17054 -1.24848,-0.43491 -1.5862,-0.7931c-0.33441,-0.36158 -0.50162,-0.81357 -0.50162,-1.35595c0,-0.44347 0.12458,-0.83576 0.37343,-1.17689c0.25246,-0.34113 0.59527,-0.6089 1.02875,-0.80333c0.43647,-0.19446 0.93119,-0.29166 1.48383,-0.29166c0.77779,0 1.38837,0.17057 1.83175,0.51167c0.44698,0.34113 0.76428,0.79142 0.9519,1.35085zM336.253,189.68785v-0.06139c0.0069,-0.65156 0.07505,-1.17008 0.20473,-1.55552c0.12968,-0.38547 0.3137,-0.69761 0.55265,-0.93641c0.23865,-0.23877 0.52533,-0.45881 0.85974,-0.66005c0.20113,-0.12281 0.38184,-0.2678 0.54214,-0.43494c0.1603,-0.17057 0.28668,-0.36671 0.37884,-0.58843c0.09546,-0.22175 0.14319,-0.46733 0.14319,-0.73684c0,-0.33429 -0.07835,-0.62424 -0.23535,-0.86986c-0.157,-0.24561 -0.36683,-0.43494 -0.6295,-0.56796c-0.26267,-0.13304 -0.55415,-0.19957 -0.87475,-0.19957c-0.27978,0 -0.54935,0.058 -0.80871,0.17396c-0.25906,0.11599 -0.4758,0.29851 -0.64961,0.54751c-0.17411,0.24901 -0.27467,0.5748 -0.30199,0.97732h-1.28961c0.02732,-0.5799 0.17741,-1.07624 0.45028,-1.489c0.27647,-0.41276 0.6397,-0.72832 1.08999,-0.94665c0.45389,-0.2183 0.957,-0.32748 1.50965,-0.32748c0.60038,0 1.12211,0.11942 1.56548,0.35819c0.44698,0.2388 0.7916,0.56628 1.03385,0.98243c0.24555,0.41618 0.36833,0.89036 0.36833,1.4225c0,0.37524 -0.05794,0.71466 -0.17411,1.01824c-0.11257,0.30361 -0.27617,0.5748 -0.49111,0.8136c-0.21163,0.23877 -0.46739,0.45028 -0.76758,0.63448c-0.30019,0.18762 -0.54064,0.38547 -0.72135,0.59356c-0.18071,0.20467 -0.3122,0.44857 -0.39415,0.73171c-0.08165,0.28311 -0.12608,0.63619 -0.13298,1.05919v0.06139zM336.90801,192.71711c-0.25246,0 -0.46889,-0.09036 -0.64991,-0.27137c-0.18071,-0.18071 -0.27107,-0.39745 -0.27107,-0.64961c0,-0.25246 0.09036,-0.46919 0.27107,-0.64997c0.18101,-0.1808 0.39745,-0.27119 0.64991,-0.27119c0.25246,0 0.46919,0.09039 0.64991,0.27119c0.18071,0.18077 0.27107,0.39751 0.27107,0.64997c0,0.1669 -0.04263,0.3206 -0.12788,0.46049c-0.08195,0.13989 -0.19272,0.25246 -0.33261,0.33771c-0.13629,0.08165 -0.28998,0.12278 -0.46049,0.12278z"/></g></g></svg>