<svg version="1.1" xmlns="http://www.w3.org/2000/svg" xmlns:xlink="http://www.w3.org/1999/xlink" width="228.47791" height="32.87432" viewBox="0,0,228.47791,32.87432"><g transform="translate(-125.76105,-163.56284)"><g data-paper-data="{&quot;isPaintingLayer&quot;:true}" fill="#ffffff" fill-rule="nonzero" stroke="none" stroke-width="1" stroke-linecap="butt" stroke-linejoin="miter" stroke-miterlimit="10" stroke-dasharray="" stroke-dashoffset="0" style="mix-blend-mode: normal"><path d="M129.07769,176.0713l-3.31664,-12.12942h1.49249l2.53485,9.87884h0.11845l2.58227,-9.87884h1.65831l2.58223,9.87884h0.11845l2.53487,-9.87884h1.49247l-3.31662,12.12942h-1.5162l-2.67698,-9.66564h-0.09475l-2.67702,9.66564zM143.9137,170.59885v5.47245h-1.39772v-12.12942h1.39772v4.45378h0.11848c0.2132,-0.46987 0.533,-0.84297 0.95943,-1.11937c0.4304,-0.28033 1.0029,-0.42049 1.71755,-0.42049c0.6199,0 1.1628,0.12435 1.62871,0.3731c0.46591,0.24482 0.82719,0.62188 1.08382,1.13122c0.26059,0.50541 0.39089,1.14897 0.39089,1.93075v5.78044h-1.39772v-5.68565c0,-0.72257 -0.18756,-1.28125 -0.56264,-1.6761c-0.37115,-0.39878 -0.88643,-0.59818 -1.5458,-0.59818c-0.45802,0 -0.86864,0.09673 -1.23187,0.2902c-0.35931,0.1935 -0.6436,0.47581 -0.85287,0.84693c-0.20531,0.37115 -0.30799,0.82128 -0.30799,1.35036zM152.36966,176.0713v-9.09706h1.39772v9.09706zM153.08035,165.45805c-0.27241,0 -0.50736,-0.09277 -0.70478,-0.27835c-0.19346,-0.18558 -0.2902,-0.40864 -0.2902,-0.66924c0,-0.26059 0.09673,-0.4837 0.2902,-0.66927c0.19743,-0.18558 0.43238,-0.27835 0.70478,-0.27835c0.27244,0 0.50541,0.09277 0.69888,0.27835c0.19743,0.18558 0.29614,0.40868 0.29614,0.66927c0,0.26059 -0.09871,0.48366 -0.29614,0.66924c-0.19346,0.18558 -0.42643,0.27835 -0.69888,0.27835zM160.0231,176.26084c-0.85287,0 -1.58725,-0.20139 -2.20319,-0.60412c-0.61597,-0.40274 -1.08976,-0.95749 -1.42141,-1.66425c-0.33168,-0.70673 -0.49752,-1.51418 -0.49752,-2.4223c0,-0.92392 0.1698,-1.73927 0.50937,-2.44603c0.3435,-0.71072 0.82125,-1.26547 1.43326,-1.66425c0.61594,-0.40274 1.33455,-0.60409 2.1558,-0.60409c0.6395,0 1.21593,0.11845 1.72947,0.35534c0.51319,0.2369 0.93362,0.56858 1.26127,0.99498c0.328,0.42643 0.53126,0.92392 0.61013,1.4925h-1.39782c-0.10632,-0.41459 -0.34329,-0.78178 -0.71055,-1.10161c-0.36309,-0.32376 -0.85301,-0.48564 -1.46881,-0.48564c-0.54488,0 -1.02264,0.14214 -1.43326,0.42643c-0.4067,0.28033 -0.72452,0.67712 -0.95353,1.19042c-0.22508,0.50934 -0.33759,1.10752 -0.33759,1.79455c0,0.7028 0.11056,1.31481 0.33165,1.836c0.22505,0.52119 0.54092,0.9259 0.94762,1.21412c0.41062,0.28822 0.89234,0.43234 1.44511,0.43234c0.3632,0 0.69293,-0.06317 0.98897,-0.1895c0.29638,-0.12637 0.5469,-0.30799 0.75224,-0.54488c0.20535,-0.2369 0.35128,-0.52119 0.43814,-0.85287h1.39782c-0.07887,0.537 -0.27449,1.02066 -0.58616,1.45105c-0.30819,0.4264 -0.7168,0.76597 -1.22618,1.01868c-0.5052,0.24874 -1.09345,0.37313 -1.76484,0.37313zM167.04149,170.59885v5.47245h-1.39782v-12.12942h1.39782v4.45378h0.11814c0.21334,-0.46987 0.53335,-0.84297 0.95968,-1.11937c0.43015,-0.28033 1.00276,-0.42049 1.71748,-0.42049c0.61986,0 1.16294,0.12435 1.62853,0.3731c0.46594,0.24482 0.8273,0.62188 1.08407,1.13122c0.26059,0.50541 0.39089,1.14897 0.39089,1.93075v5.78044h-1.39782v-5.68565c0,-0.72257 -0.18763,-1.28125 -0.56253,-1.6761c-0.37108,-0.39878 -0.88636,-0.59818 -1.54584,-0.59818c-0.45795,0 -0.86864,0.09673 -1.23208,0.2902c-0.35927,0.1935 -0.64349,0.47581 -0.85266,0.84693c-0.20535,0.37115 -0.30785,0.82128 -0.30785,1.35036zM180.18789,179.48271v-12.50846h1.35057v1.44511h0.16574c0.1025,-0.15795 0.24461,-0.35931 0.42633,-0.60412c0.18554,-0.24874 0.4503,-0.46983 0.79359,-0.66333c0.34746,-0.19739 0.81722,-0.2961 1.40963,-0.2961c0.76614,0 1.44125,0.19148 2.02568,0.57449c0.58408,0.383 1.04029,0.9259 1.36794,1.62871c0.32765,0.7028 0.49165,1.53197 0.49165,2.48748c0,0.96339 -0.164,1.79847 -0.49165,2.50524c-0.32765,0.7028 -0.78178,1.24768 -1.36203,1.63461c-0.5806,0.383 -1.2498,0.57452 -2.00796,0.57452c-0.58442,0 -1.0521,-0.09677 -1.40373,-0.29023c-0.35128,-0.19743 -0.6216,-0.42049 -0.81131,-0.66924c-0.18936,-0.25271 -0.33564,-0.46198 -0.43814,-0.62779h-0.11848v4.80912zM181.56208,171.52277c0,0.68703 0.10076,1.2931 0.30194,1.81821c0.20153,0.52119 0.49547,0.92987 0.88254,1.226c0.38672,0.29218 0.86065,0.43825 1.42145,0.43825c0.58442,0 1.07191,-0.15399 1.4628,-0.46194c0.39471,-0.31195 0.69109,-0.73046 0.88845,-1.25561c0.20118,-0.52907 0.30194,-1.11739 0.30194,-1.76491c0,-0.63963 -0.09868,-1.2161 -0.29603,-1.7294c-0.19353,-0.51722 -0.48783,-0.9259 -0.88254,-1.22597c-0.39089,-0.30403 -0.88254,-0.45604 -1.47461,-0.45604c-0.56879,0 -1.04654,0.14413 -1.43326,0.43234c-0.38707,0.28429 -0.67928,0.68307 -0.87663,1.19636c-0.19736,0.50934 -0.29603,1.10356 -0.29603,1.7827zM191.74883,163.94188v12.12942h-1.39782v-12.12942zM196.98571,176.2845c-0.57643,0 -1.09935,-0.10858 -1.56946,-0.32574c-0.46976,-0.22109 -0.84293,-0.53894 -1.11916,-0.95353c-0.27658,-0.41851 -0.41452,-0.92392 -0.41452,-1.51616c0,-0.52119 0.1025,-0.94366 0.30785,-1.26742c0.20535,-0.32772 0.47984,-0.58439 0.82313,-0.76997c0.34364,-0.18554 0.72271,-0.32376 1.13723,-0.41455c0.41869,-0.09479 0.83911,-0.1698 1.26162,-0.22508c0.5528,-0.07106 1.00068,-0.12435 1.34431,-0.1599c0.34746,-0.03947 0.60006,-0.10462 0.75815,-0.19544c0.16192,-0.09083 0.24287,-0.24874 0.24287,-0.47379v-0.04739c0,-0.58435 -0.16018,-1.03841 -0.47984,-1.36217c-0.31584,-0.3238 -0.79568,-0.48568 -1.43917,-0.48568c-0.66747,0 -1.19039,0.14611 -1.56946,0.43828c-0.37908,0.29218 -0.64558,0.60409 -0.7995,0.93577l-1.32659,-0.47383c0.23662,-0.55277 0.55246,-0.98313 0.94752,-1.29112c0.39888,-0.31191 0.8332,-0.52907 1.30296,-0.65148c0.47358,-0.12634 0.93952,-0.1895 1.39782,-0.1895c0.29186,0 0.62751,0.03551 1.00658,0.1066c0.38325,0.06713 0.75224,0.20729 1.10769,0.42049c0.35927,0.21323 0.65739,0.53501 0.89435,0.96538c0.23662,0.4304 0.3551,1.00686 0.3551,1.7294v5.99364h-1.39747v-1.23191h-0.07123c-0.09486,0.19743 -0.2526,0.40868 -0.47393,0.63373c-0.22098,0.22505 -0.51493,0.41657 -0.88219,0.57449c-0.36726,0.15795 -0.81548,0.2369 -1.34466,0.2369zM197.19905,175.02893c0.5528,0 1.01874,-0.10858 1.39782,-0.32574c0.3829,-0.21716 0.67129,-0.49749 0.86447,-0.84102c0.1977,-0.3435 0.29638,-0.70478 0.29638,-1.08382v-1.27927c-0.05942,0.07109 -0.18971,0.13624 -0.39089,0.19544c-0.1977,0.05528 -0.42668,0.10462 -0.68727,0.14805c-0.25642,0.03951 -0.50729,0.07505 -0.7519,0.10663c-0.24114,0.02762 -0.43641,0.05132 -0.58651,0.07106c-0.36309,0.04739 -0.70291,0.12439 -1.01874,0.23099c-0.31167,0.10264 -0.56462,0.25861 -0.75815,0.46789c-0.18936,0.20531 -0.28422,0.48564 -0.28422,0.84099c0,0.48568 0.17964,0.85287 0.53891,1.10161c0.36344,0.24478 0.82347,0.36719 1.3801,0.36719zM205.10405,170.59885v5.47245h-1.39747v-9.09706h1.35022v1.42141h0.11848c0.21334,-0.46198 0.53682,-0.8331 0.97114,-1.11346c0.43432,-0.28425 0.99512,-0.4264 1.68204,-0.4264c0.61604,0 1.15495,0.12634 1.61707,0.37904c0.46177,0.24874 0.82104,0.62779 1.07781,1.13712c0.25677,0.50541 0.38498,1.14505 0.38498,1.9189v5.78044h-1.39782v-5.68565c0,-0.71468 -0.18554,-1.27138 -0.55663,-1.67019c-0.37108,-0.4027 -0.88046,-0.60409 -1.52812,-0.60409c-0.44614,0 -0.84502,0.09673 -1.1963,0.2902c-0.34746,0.1935 -0.62195,0.47581 -0.82313,0.84693c-0.20153,0.37115 -0.30229,0.82128 -0.30229,1.35036zM217.27652,176.26084c-0.87663,0 -1.6327,-0.1935 -2.2682,-0.58043c-0.63202,-0.39089 -1.11951,-0.93577 -1.46314,-1.63461c-0.33947,-0.70284 -0.50902,-1.52013 -0.50902,-2.45197c0,-0.93181 0.16956,-1.75306 0.50902,-2.46378c0.34364,-0.71465 0.82139,-1.27138 1.43326,-1.67016c0.61604,-0.40274 1.33458,-0.60409 2.15597,-0.60409c0.47393,0 0.94161,0.07894 1.40373,0.2369c0.46177,0.15792 0.88254,0.41459 1.26127,0.76993c0.37908,0.35142 0.68136,0.81732 0.90617,1.39772c0.22515,0.58043 0.33773,1.29508 0.33773,2.14398v0.59224h-7.01238v-1.20818h5.59093c0,-0.5133 -0.1025,-0.97132 -0.30785,-1.37405c-0.20153,-0.40274 -0.48957,-0.72059 -0.86482,-0.95353c-0.37108,-0.23297 -0.80923,-0.34944 -1.31478,-0.34944c-0.55663,0 -1.03855,0.13818 -1.44507,0.41459c-0.4027,0.27244 -0.71263,0.62779 -0.9298,1.06607c-0.21716,0.43825 -0.32591,0.90811 -0.32591,1.40956v0.80548c0,0.68699 0.11848,1.2694 0.35545,1.74715c0.24079,0.47379 0.57435,0.83508 1.00102,1.08382c0.42633,0.24478 0.9218,0.36719 1.48642,0.36719c0.36726,0 0.69874,-0.05132 0.99512,-0.15399c0.29986,-0.1066 0.55871,-0.26452 0.77587,-0.47379c0.21716,-0.2132 0.38498,-0.47775 0.50347,-0.79363l1.35022,0.37904c-0.14211,0.45802 -0.38116,0.86076 -0.7168,1.20821c-0.3353,0.3435 -0.75016,0.61201 -1.24355,0.80548c-0.49374,0.1895 -1.04828,0.28429 -1.66432,0.28429zM227.12589,166.97424v1.18452h-4.7143v-1.18452zM223.78543,164.79475h1.39782v8.67062c0,0.39485 0.05733,0.69095 0.17164,0.88838c0.11848,0.19346 0.26858,0.32376 0.4503,0.39089c0.18554,0.06317 0.38081,0.09475 0.58616,0.09475c0.15392,0 0.2804,-0.00789 0.37908,-0.02366c0.09868,-0.01977 0.17755,-0.03554 0.23697,-0.04739l0.28422,1.25557c-0.09486,0.03554 -0.22689,0.07109 -0.3968,0.10663c-0.16991,0.03947 -0.38498,0.05921 -0.64558,0.05921c-0.39471,0 -0.78178,-0.08488 -1.16085,-0.25465c-0.37491,-0.1698 -0.68692,-0.42841 -0.9357,-0.77587c-0.24496,-0.34746 -0.36726,-0.78574 -0.36726,-1.31481zM233.91902,176.0713v-9.09706h1.39782v9.09706zM234.62957,165.45805c-0.27241,0 -0.50729,-0.09277 -0.70464,-0.27835c-0.19353,-0.18558 -0.29013,-0.40864 -0.29013,-0.66924c0,-0.26059 0.09659,-0.4837 0.29013,-0.66927c0.19736,-0.18558 0.43224,-0.27835 0.70464,-0.27835c0.27241,0 0.50555,0.09277 0.69908,0.27835c0.19736,0.18558 0.29603,0.40868 0.29603,0.66927c0,0.26059 -0.09868,0.48366 -0.29603,0.66924c-0.19353,0.18558 -0.42668,0.27835 -0.69908,0.27835zM244.3205,169.01159l-1.25571,0.35534c-0.07887,-0.20924 -0.19527,-0.41261 -0.34919,-0.61c-0.1501,-0.20139 -0.35545,-0.36723 -0.61604,-0.49752c-0.26059,-0.1303 -0.59415,-0.19544 -1.00102,-0.19544c-0.55663,0 -1.02048,0.12835 -1.39191,0.38498c-0.36691,0.25271 -0.55072,0.57449 -0.55072,0.96538c0,0.34746 0.12647,0.62188 0.37908,0.82323c0.2526,0.20139 0.64766,0.36917 1.18448,0.50343l1.35057,0.33165c0.8134,0.19743 1.41936,0.49947 1.81824,0.90617c0.39853,0.40274 0.59797,0.92194 0.59797,1.55762c0,0.52119 -0.1501,0.98713 -0.44996,1.39775c-0.29638,0.41062 -0.7109,0.73439 -1.2439,0.97128c-0.533,0.2369 -1.15286,0.35538 -1.85959,0.35538c-0.92806,0 -1.69594,-0.20139 -2.30399,-0.60412c-0.60805,-0.40274 -0.99303,-0.99105 -1.15495,-1.76491l1.32694,-0.33168c0.12613,0.4896 0.36518,0.85679 0.71646,1.10161c0.35545,0.24478 0.8193,0.36719 1.39191,0.36719c0.65148,0 1.1685,-0.13818 1.55174,-0.41459c0.38672,-0.28033 0.58025,-0.61594 0.58025,-1.00683c0,-0.31587 -0.11049,-0.58043 -0.33147,-0.79363c-0.22133,-0.21716 -0.5608,-0.37904 -1.01874,-0.48564l-1.5163,-0.35538c-0.8332,-0.19739 -1.44507,-0.5034 -1.83596,-0.91798c-0.38707,-0.41851 -0.58025,-0.94168 -0.58025,-1.56946c0,-0.5133 0.14385,-0.96736 0.43224,-1.36221c0.29221,-0.39485 0.68901,-0.70478 1.19039,-0.92983c0.50555,-0.22508 1.07781,-0.33759 1.71748,-0.33759c0.90026,0 1.60699,0.19743 2.12018,0.59224c0.51736,0.39485 0.88463,0.91604 1.10179,1.56356zM252.58408,172.75465l-0.02397,-1.72936h0.28457l3.97978,-4.05104h1.72929l-4.24037,4.28794h-0.11848zM251.28112,176.0713v-12.12942h1.39747v12.12942zM257.06141,176.0713l-3.55345,-4.50113l0.99477,-0.97132l4.33557,5.47245zM261.7507,170.59885v5.47245h-1.39782v-9.09706h1.35022v1.42141h0.11848c0.21334,-0.46198 0.53717,-0.8331 0.97149,-1.11346c0.43432,-0.28425 0.99477,-0.4264 1.68204,-0.4264c0.61569,0 1.1546,0.12634 1.61672,0.37904c0.46212,0.24874 0.82139,0.62779 1.07781,1.13712c0.25677,0.50541 0.38498,1.14505 0.38498,1.9189v5.78044h-1.39782v-5.68565c0,-0.71468 -0.18554,-1.27138 -0.55663,-1.67019c-0.37108,-0.4027 -0.88046,-0.60409 -1.52812,-0.60409c-0.44614,0 -0.84467,0.09673 -1.1963,0.2902c-0.34746,0.1935 -0.6216,0.47581 -0.82313,0.84693c-0.20153,0.37115 -0.30194,0.82128 -0.30194,1.35036zM273.80434,176.26084c-0.82104,0 -1.54167,-0.19544 -2.16153,-0.58633c-0.61604,-0.39089 -1.09762,-0.93775 -1.44507,-1.64055c-0.34364,-0.70284 -0.51528,-1.52409 -0.51528,-2.46378c0,-0.94762 0.17164,-1.77481 0.51528,-2.48157c0.34746,-0.70676 0.82903,-1.25557 1.44507,-1.64646c0.61986,-0.39089 1.34049,-0.58633 2.16153,-0.58633c0.82139,0 1.53993,0.19544 2.15597,0.58633c0.61986,0.39089 1.10144,0.9397 1.44507,1.64646c0.34746,0.70676 0.52119,1.53395 0.52119,2.48157c0,0.9397 -0.17373,1.76095 -0.52119,2.46378c-0.34364,0.7028 -0.82521,1.24966 -1.44507,1.64055c-0.61604,0.39089 -1.33458,0.58633 -2.15597,0.58633zM273.80434,175.00523c0.62403,0 1.13723,-0.1599 1.53993,-0.47973c0.4027,-0.3198 0.70082,-0.74029 0.89435,-1.26148c0.19353,-0.52119 0.29013,-1.0858 0.29013,-1.69385c0,-0.60805 -0.09659,-1.17465 -0.29013,-1.6998c-0.19353,-0.52515 -0.49165,-0.94957 -0.89435,-1.27336c-0.4027,-0.32376 -0.9159,-0.48564 -1.53993,-0.48564c-0.62369,0 -1.13688,0.16188 -1.53958,0.48564c-0.4027,0.3238 -0.70082,0.74821 -0.89435,1.27336c-0.19353,0.52515 -0.29013,1.09175 -0.29013,1.6998c0,0.60805 0.09659,1.17267 0.29013,1.69385c0.19353,0.52119 0.49165,0.94168 0.89435,1.26148c0.4027,0.31983 0.9159,0.47973 1.53958,0.47973zM281.81184,176.0713l-2.77167,-9.09706h1.4687l1.96626,6.96492h0.09486l1.94263,-6.96492h1.49233l1.91901,6.94126h0.09486l1.96626,-6.94126h1.4687l-2.77167,9.09706h-1.37419l-1.98989,-6.98862h-0.14211l-1.99024,6.98862zM294.69937,170.59885v5.47245h-1.39782v-9.09706h1.35022v1.42141h0.11848c0.21334,-0.46198 0.53717,-0.8331 0.97149,-1.11346c0.43432,-0.28425 0.99477,-0.4264 1.68204,-0.4264c0.61569,0 1.15495,0.12634 1.61672,0.37904c0.46212,0.24874 0.82139,0.62779 1.07781,1.13712c0.25677,0.50541 0.38498,1.14505 0.38498,1.9189v5.78044h-1.39747v-5.68565c0,-0.71468 -0.18554,-1.27138 -0.55697,-1.67019c-0.37108,-0.4027 -0.88046,-0.60409 -1.52777,-0.60409c-0.44614,0 -0.84502,0.09673 -1.19664,0.2902c-0.34746,0.1935 -0.6216,0.47581 -0.82313,0.84693c-0.20118,0.37115 -0.30194,0.82128 -0.30194,1.35036zM310.42529,176.2845c-0.57643,0 -1.0997,-0.10858 -1.56946,-0.32574c-0.47011,-0.22109 -0.84293,-0.53894 -1.11951,-0.95353c-0.27623,-0.41851 -0.41452,-0.92392 -0.41452,-1.51616c0,-0.52119 0.1025,-0.94366 0.30785,-1.26742c0.20535,-0.32772 0.47984,-0.58439 0.82347,-0.76997c0.34329,-0.18554 0.72236,-0.32376 1.13688,-0.41455c0.41869,-0.09479 0.83911,-0.1698 1.26162,-0.22508c0.5528,-0.07106 1.00102,-0.12435 1.34431,-0.1599c0.34746,-0.03947 0.60041,-0.10462 0.75815,-0.19544c0.16192,-0.09083 0.24287,-0.24874 0.24287,-0.47379v-0.04739c0,-0.58435 -0.15983,-1.03841 -0.47984,-1.36217c-0.31584,-0.3238 -0.79533,-0.48568 -1.43917,-0.48568c-0.66712,0 -1.19039,0.14611 -1.56946,0.43828c-0.37908,0.29218 -0.64558,0.60409 -0.7995,0.93577l-1.32659,-0.47383c0.23697,-0.55277 0.5528,-0.98313 0.94752,-1.29112c0.39888,-0.31191 0.8332,-0.52907 1.30296,-0.65148c0.47393,-0.12634 0.93987,-0.1895 1.39782,-0.1895c0.29221,0 0.62786,0.03551 1.00693,0.1066c0.3829,0.06713 0.7519,0.20729 1.10735,0.42049c0.35927,0.21323 0.65739,0.53501 0.89435,0.96538c0.23697,0.4304 0.35545,1.00686 0.35545,1.7294v5.99364h-1.39782v-1.23191h-0.07123c-0.09451,0.19743 -0.2526,0.40868 -0.47358,0.63373c-0.22133,0.22505 -0.51528,0.41657 -0.88254,0.57449c-0.36726,0.15795 -0.81548,0.2369 -1.34431,0.2369zM310.63828,175.02893c0.5528,0 1.01874,-0.10858 1.39782,-0.32574c0.3829,-0.21716 0.67129,-0.49749 0.86482,-0.84102c0.19736,-0.3435 0.29603,-0.70478 0.29603,-1.08382v-1.27927c-0.05907,0.07109 -0.18936,0.13624 -0.39089,0.19544c-0.19736,0.05528 -0.42633,0.10462 -0.68692,0.14805c-0.25677,0.03951 -0.50729,0.07505 -0.75224,0.10663c-0.24079,0.02762 -0.43641,0.05132 -0.58651,0.07106c-0.36309,0.04739 -0.70256,0.12439 -1.0184,0.23099c-0.31202,0.10264 -0.56462,0.25861 -0.75815,0.46789c-0.18971,0.20531 -0.28422,0.48564 -0.28422,0.84099c0,0.48568 0.17964,0.85287 0.53891,1.10161c0.36309,0.24478 0.82313,0.36719 1.37975,0.36719zM323.58975,169.01159l-1.25571,0.35534c-0.07887,-0.20924 -0.19562,-0.41261 -0.34954,-0.61c-0.1501,-0.20139 -0.35545,-0.36723 -0.61604,-0.49752c-0.26059,-0.1303 -0.59415,-0.19544 -1.00068,-0.19544c-0.55663,0 -1.02083,0.12835 -1.39191,0.38498c-0.36726,0.25271 -0.55072,0.57449 -0.55072,0.96538c0,0.34746 0.12647,0.62188 0.37908,0.82323c0.2526,0.20139 0.64731,0.36917 1.18448,0.50343l1.35022,0.33165c0.8134,0.19743 1.41936,0.49947 1.81824,0.90617c0.39888,0.40274 0.59832,0.92194 0.59832,1.55762c0,0.52119 -0.1501,0.98713 -0.4503,1.39775c-0.29603,0.41062 -0.71055,0.73439 -1.24355,0.97128c-0.533,0.2369 -1.15286,0.35538 -1.85959,0.35538c-0.92806,0 -1.69594,-0.20139 -2.30399,-0.60412c-0.60805,-0.40274 -0.99303,-0.99105 -1.15495,-1.76491l1.32659,-0.33168c0.12647,0.4896 0.36518,0.85679 0.7168,1.10161c0.3551,0.24478 0.8193,0.36719 1.39157,0.36719c0.65148,0 1.16885,-0.13818 1.55174,-0.41459c0.38707,-0.28033 0.5806,-0.61594 0.5806,-1.00683c0,-0.31587 -0.11049,-0.58043 -0.33182,-0.79363c-0.22098,-0.21716 -0.56045,-0.37904 -1.01874,-0.48564l-1.51596,-0.35538c-0.8332,-0.19739 -1.44507,-0.5034 -1.83596,-0.91798c-0.38707,-0.41851 -0.5806,-0.94168 -0.5806,-1.56946c0,-0.5133 0.14419,-0.96736 0.43224,-1.36221c0.29221,-0.39485 0.68901,-0.70478 1.19074,-0.92983c0.5052,-0.22508 1.07781,-0.33759 1.71748,-0.33759c0.90026,0 1.60699,0.19743 2.12018,0.59224c0.51736,0.39485 0.88463,0.91604 1.10179,1.56356zM334.50651,166.97424v1.18452h-4.71465v-1.18452zM331.16605,164.79475h1.39782v8.67062c0,0.39485 0.05698,0.69095 0.17164,0.88838c0.11848,0.19346 0.26858,0.32376 0.44996,0.39089c0.18589,0.06317 0.38116,0.09475 0.58651,0.09475c0.15392,0 0.2804,-0.00789 0.37908,-0.02366c0.09868,-0.01977 0.17755,-0.03554 0.23697,-0.04739l0.28422,1.25557c-0.09486,0.03554 -0.22724,0.07109 -0.3968,0.10663c-0.16991,0.03947 -0.38498,0.05921 -0.64558,0.05921c-0.39506,0 -0.78178,-0.08488 -1.16085,-0.25465c-0.37525,-0.1698 -0.68692,-0.42841 -0.9357,-0.77587c-0.24496,-0.34746 -0.36726,-0.78574 -0.36726,-1.31481zM338.20206,170.59885v5.47245h-1.39782v-12.12942h1.39782v4.45378h0.11848c0.21299,-0.46987 0.533,-0.84297 0.95933,-1.11937c0.4305,-0.28033 1.00311,-0.42049 1.71748,-0.42049c0.61986,0 1.16294,0.12435 1.62888,0.3731c0.46594,0.24482 0.8273,0.62188 1.08372,1.13122c0.26059,0.50541 0.39089,1.14897 0.39089,1.93075v5.78044h-1.39782v-5.68565c0,-0.72257 -0.18728,-1.28125 -0.56253,-1.6761c-0.37108,-0.39878 -0.88636,-0.59818 -1.54584,-0.59818c-0.45795,0 -0.86864,0.09673 -1.23174,0.2902c-0.35927,0.1935 -0.64349,0.47581 -0.85301,0.84693c-0.20535,0.37115 -0.30785,0.82128 -0.30785,1.35036zM350.47217,176.26084c-0.87663,0 -1.6327,-0.1935 -2.26855,-0.58043c-0.63168,-0.39089 -1.11916,-0.93577 -1.4628,-1.63461c-0.33947,-0.70284 -0.50937,-1.52013 -0.50937,-2.45197c0,-0.93181 0.16991,-1.75306 0.50937,-2.46378c0.34364,-0.71465 0.82139,-1.27138 1.43326,-1.67016c0.61604,-0.40274 1.33458,-0.60409 2.15597,-0.60409c0.47358,0 0.94161,0.07894 1.40373,0.2369c0.46177,0.15792 0.88219,0.41459 1.26127,0.76993c0.37908,0.35142 0.68102,0.81732 0.90617,1.39772c0.22515,0.58043 0.33773,1.29508 0.33773,2.14398v0.59224h-7.01238v-1.20818h5.59093c0,-0.5133 -0.10285,-0.97132 -0.30819,-1.37405c-0.20118,-0.40274 -0.48957,-0.72059 -0.86447,-0.95353c-0.37108,-0.23297 -0.80958,-0.34944 -1.31478,-0.34944c-0.55697,0 -1.03855,0.13818 -1.44507,0.41459c-0.4027,0.27244 -0.71263,0.62779 -0.9298,1.06607c-0.21716,0.43825 -0.32591,0.90811 -0.32591,1.40956v0.80548c0,0.68699 0.11848,1.2694 0.35545,1.74715c0.24079,0.47379 0.57435,0.83508 1.00068,1.08382c0.42668,0.24478 0.92215,0.36719 1.48677,0.36719c0.36726,0 0.69874,-0.05132 0.99477,-0.15399c0.3002,-0.1066 0.55871,-0.26452 0.77587,-0.47379c0.21716,-0.2132 0.38498,-0.47775 0.50347,-0.79363l1.35057,0.37904c-0.14211,0.45802 -0.38116,0.86076 -0.7168,1.20821c-0.33564,0.3435 -0.75016,0.61201 -1.24355,0.80548c-0.49374,0.1895 -1.04828,0.28429 -1.66432,0.28429zM126.21116,187.88485v-1.06607c0,-0.32376 0.05725,-0.66726 0.17176,-1.03052c0.11845,-0.36719 0.28823,-0.72059 0.50934,-1.06013c0.22506,-0.34353 0.49552,-0.64161 0.81139,-0.89432l0.75809,0.61594c-0.24874,0.35538 -0.46591,0.7265 -0.65148,1.11346c-0.18162,0.383 -0.27244,0.79363 -0.27244,1.23187v1.08976zM129.24353,187.88485v-1.06607c0,-0.32376 0.05723,-0.66726 0.17175,-1.03052c0.11845,-0.36719 0.28822,-0.72059 0.50934,-1.06013c0.22505,-0.34353 0.49551,-0.64161 0.81138,-0.89432l0.75808,0.61594c-0.24874,0.35538 -0.46591,0.7265 -0.65148,1.11346c-0.18162,0.383 -0.27244,0.79363 -0.27244,1.23187v1.08976zM133.22643,196.22382v-12.12942h4.09843c0.94762,0 1.72544,0.16188 2.33349,0.48564c0.60805,0.31983 1.05815,0.76006 1.35032,1.32075c0.29221,0.56066 0.43828,1.19831 0.43828,1.913c0,0.71465 -0.14607,1.34834 -0.43828,1.90111c-0.29218,0.5528 -0.74029,0.98713 -1.34442,1.30296c-0.60409,0.31195 -1.376,0.46789 -2.3157,0.46789h-3.31665v-1.32663h3.26926c0.64752,0 1.16871,-0.09479 1.56356,-0.28429c0.39878,-0.18954 0.68703,-0.45802 0.86468,-0.80548c0.18165,-0.35142 0.27244,-0.76993 0.27244,-1.25557c0,-0.48568 -0.09079,-0.91013 -0.27244,-1.27336c-0.18162,-0.36327 -0.47181,-0.6436 -0.87059,-0.84102c-0.39881,-0.20135 -0.9259,-0.30204 -1.58135,-0.30204h-2.58223v10.82646zM138.93578,190.77507l2.98497,5.44876h-1.70567l-2.93761,-5.44876zM147.42135,196.41319c-0.87653,0 -1.63263,-0.19319 -2.26834,-0.58025c-0.63175,-0.39089 -1.11937,-0.9357 -1.46286,-1.63461c-0.33957,-0.70284 -0.50934,-1.52013 -0.50934,-2.45197c0,-0.93181 0.16977,-1.75306 0.50934,-2.46378c0.3435,-0.71465 0.82125,-1.27138 1.43326,-1.67016c0.61594,-0.40274 1.33455,-0.60409 2.1558,-0.60409c0.47383,0 0.94171,0.07894 1.40366,0.2369c0.46194,0.15792 0.88247,0.41459 1.26151,0.76993c0.37904,0.35142 0.68109,0.81732 0.90613,1.39772c0.22508,0.58043 0.33759,1.29508 0.33759,2.14398v0.59224h-7.01231v-1.20818h5.5909c0,-0.5133 -0.10264,-0.97132 -0.30795,-1.37405c-0.20139,-0.40274 -0.4896,-0.72059 -0.86472,-0.95353c-0.37115,-0.23297 -0.8094,-0.34944 -1.31481,-0.34944c-0.5567,0 -1.03841,0.13818 -1.44511,0.41459c-0.40274,0.27244 -0.71267,0.62779 -0.92983,1.06607c-0.21716,0.43825 -0.32574,0.90811 -0.32574,1.40956v0.80548c0,0.68699 0.11845,1.2694 0.35534,1.74715c0.24086,0.47379 0.57449,0.83508 1.00092,1.08382c0.42643,0.24496 0.92194,0.36726 1.48656,0.36726c0.36719,0 0.69888,-0.05142 0.99501,-0.15392c0.30006,-0.10667 0.55868,-0.26466 0.77584,-0.47393c0.21716,-0.2132 0.38498,-0.47775 0.50343,-0.79363l1.35032,0.37904c-0.14214,0.45802 -0.38102,0.86072 -0.71663,1.20818c-0.33561,0.34364 -0.75019,0.61187 -1.24372,0.80541c-0.49356,0.18971 -1.04831,0.28422 -1.66425,0.28422zM156.74939,196.41319c-0.75808,0 -1.42732,-0.19145 -2.00775,-0.57435c-0.58043,-0.38707 -1.03448,-0.93188 -1.36221,-1.63461c-0.32769,-0.70676 -0.49155,-1.54184 -0.49155,-2.50524c0,-0.95551 0.16386,-1.78468 0.49155,-2.48748c0.32772,-0.7028 0.78376,-1.2457 1.36811,-1.62871c0.58439,-0.383 1.25953,-0.57449 2.02554,-0.57449c0.59224,0 1.06013,0.09871 1.40366,0.2961c0.34746,0.1935 0.61198,0.41459 0.79363,0.66333c0.18554,0.24482 0.32967,0.44617 0.43234,0.60412h0.11845v-4.47747h1.39779v12.12942h-1.35043v-1.39772h-0.16581c-0.10267,0.16598 -0.24874,0.37515 -0.43828,0.62775c-0.1895,0.24878 -0.46,0.47185 -0.81138,0.6692c-0.35142,0.19353 -0.8193,0.29013 -1.40366,0.29013zM156.93893,195.15782c0.56066,0 1.03445,-0.14628 1.42141,-0.43832c0.38693,-0.29614 0.68109,-0.70482 0.88244,-1.226c0.20139,-0.52511 0.30208,-1.13118 0.30208,-1.81821c0,-0.67914 -0.09871,-1.27336 -0.29614,-1.7827c-0.19743,-0.5133 -0.4896,-0.91208 -0.87653,-1.19636c-0.38696,-0.28822 -0.86472,-0.43234 -1.43326,-0.43234c-0.59228,0 -1.0858,0.15201 -1.48065,0.45604c-0.39089,0.30006 -0.68505,0.70874 -0.88247,1.22597c-0.19346,0.5133 -0.2902,1.08976 -0.2902,1.7294c0,0.64752 0.09871,1.23584 0.29614,1.76491c0.20135,0.52515 0.49749,0.94366 0.88838,1.25561c0.39485,0.30809 0.88442,0.46201 1.46881,0.46201zM168.55293,196.22382v-12.12942h4.09861c0.95134,0 1.72929,0.17175 2.33352,0.51528c0.60805,0.33954 1.05801,0.79953 1.35022,1.37996c0.29221,0.58039 0.43814,1.22791 0.43814,1.9426c0,0.71465 -0.14593,1.36415 -0.43814,1.94851c-0.28804,0.58435 -0.73452,1.05026 -1.33841,1.39772c-0.60423,0.34353 -1.37802,0.51528 -2.32171,0.51528h-2.93775v-1.30296h2.8905c0.65148,0 1.17441,-0.11254 1.56946,-0.33759c0.39471,-0.22505 0.68102,-0.52907 0.85857,-0.91208c0.18172,-0.38693 0.27241,-0.82323 0.27241,-1.30887c0,-0.48568 -0.09069,-0.92 -0.27241,-1.30296c-0.17755,-0.383 -0.46594,-0.68307 -0.86447,-0.90023c-0.39888,-0.22112 -0.92806,-0.33168 -1.58753,-0.33168h-2.58195v10.82646zM180.34772,184.0944v12.12942h-1.39747v-12.12942zM185.58494,196.43716c-0.57643,0 -1.0997,-0.10875 -1.56946,-0.32591c-0.46976,-0.22098 -0.84293,-0.53891 -1.11951,-0.95342c-0.27623,-0.41858 -0.41452,-0.92399 -0.41452,-1.51623c0,-0.52119 0.10285,-0.94366 0.30785,-1.26742c0.20535,-0.32772 0.47984,-0.58439 0.82347,-0.76997c0.34329,-0.18554 0.72236,-0.32376 1.13688,-0.41455c0.41869,-0.09479 0.83911,-0.1698 1.26162,-0.22508c0.5528,-0.07106 1.00102,-0.12435 1.34431,-0.1599c0.34746,-0.03947 0.60041,-0.10462 0.75815,-0.19544c0.16192,-0.09083 0.24287,-0.24874 0.24287,-0.47379v-0.04739c0,-0.58435 -0.15983,-1.03841 -0.47984,-1.36217c-0.31584,-0.3238 -0.79533,-0.48568 -1.43917,-0.48568c-0.66712,0 -1.19039,0.14611 -1.56946,0.43828c-0.37908,0.29218 -0.64558,0.60409 -0.7995,0.93577l-1.32659,-0.47383c0.23697,-0.55277 0.5528,-0.98313 0.94752,-1.29112c0.39888,-0.31191 0.8332,-0.52907 1.30296,-0.65148c0.47393,-0.12634 0.93987,-0.1895 1.39782,-0.1895c0.29221,0 0.62786,0.03551 1.00693,0.1066c0.3829,0.06713 0.75224,0.20729 1.10735,0.42049c0.35927,0.21323 0.65739,0.53501 0.89435,0.96538c0.23697,0.4304 0.35545,1.00686 0.35545,1.7294v5.99364h-1.39782v-1.23174h-0.07088c-0.09486,0.19736 -0.25295,0.40861 -0.47393,0.63341c-0.22098,0.22515 -0.51528,0.4166 -0.88254,0.57469c-0.36726,0.15775 -0.81513,0.23697 -1.34431,0.23697zM185.79793,195.18145c0.5528,0 1.01874,-0.10841 1.39782,-0.32591c0.38325,-0.21699 0.67129,-0.49732 0.86482,-0.84085c0.19736,-0.3435 0.29603,-0.70478 0.29603,-1.08382v-1.27927c-0.05907,0.07109 -0.18936,0.13624 -0.39089,0.19544c-0.19736,0.05528 -0.42633,0.10462 -0.68692,0.14805c-0.25677,0.03951 -0.50729,0.07505 -0.75224,0.10663c-0.24079,0.02762 -0.43641,0.05132 -0.58616,0.07106c-0.36344,0.04739 -0.70291,0.12439 -1.01874,0.23099c-0.31202,0.10264 -0.56462,0.25861 -0.75815,0.46789c-0.18936,0.20531 -0.28422,0.48564 -0.28422,0.84099c0,0.48568 0.17964,0.85287 0.53891,1.10161c0.36309,0.24489 0.82313,0.36719 1.37975,0.36719zM193.70328,190.75137v5.47245h-1.39782v-9.09706h1.35057v1.42141h0.11814c0.21334,-0.46198 0.53717,-0.8331 0.97149,-1.11346c0.43432,-0.28425 0.99512,-0.4264 1.68204,-0.4264c0.61604,0 1.15495,0.12634 1.61672,0.37904c0.46212,0.24874 0.82139,0.62779 1.07816,1.13712c0.25642,0.50541 0.38464,1.14505 0.38464,1.9189v5.78044h-1.39747v-5.68565c0,-0.71468 -0.18554,-1.27138 -0.55697,-1.67019c-0.37108,-0.4027 -0.88046,-0.60409 -1.52777,-0.60409c-0.44614,0 -0.84502,0.09673 -1.1963,0.2902c-0.34746,0.1935 -0.62195,0.47581 -0.82347,0.84693c-0.20118,0.37115 -0.30194,0.82128 -0.30194,1.35036zM205.87575,196.41319c-0.87663,0 -1.6327,-0.19319 -2.26855,-0.58025c-0.63168,-0.39089 -1.11916,-0.9357 -1.4628,-1.63461c-0.33947,-0.70284 -0.50937,-1.52013 -0.50937,-2.45197c0,-0.93181 0.16991,-1.75306 0.50937,-2.46378c0.34364,-0.71465 0.82139,-1.27138 1.43326,-1.67016c0.61604,-0.40274 1.33458,-0.60409 2.15597,-0.60409c0.47358,0 0.94161,0.07894 1.40338,0.2369c0.46212,0.15792 0.88254,0.41459 1.26162,0.76993c0.37908,0.35142 0.68102,0.81732 0.90617,1.39772c0.22515,0.58043 0.33773,1.29508 0.33773,2.14398v0.59224h-7.01238v-1.20818h5.59093c0,-0.5133 -0.10285,-0.97132 -0.30819,-1.37405c-0.20118,-0.40274 -0.48957,-0.72059 -0.86447,-0.95353c-0.37143,-0.23297 -0.80958,-0.34944 -1.31478,-0.34944c-0.55697,0 -1.03855,0.13818 -1.44542,0.41459c-0.4027,0.27244 -0.71263,0.62779 -0.9298,1.06607c-0.21716,0.43825 -0.32557,0.90811 -0.32557,1.40956v0.80548c0,0.68699 0.11848,1.2694 0.35545,1.74715c0.24079,0.47379 0.57435,0.83508 1.00068,1.08382c0.42633,0.24496 0.92215,0.36726 1.48677,0.36726c0.36691,0 0.69874,-0.05142 0.99477,-0.15392c0.3002,-0.10667 0.55871,-0.26466 0.77587,-0.47393c0.21716,-0.2132 0.38498,-0.47775 0.50347,-0.79363l1.35022,0.37904c-0.14211,0.45802 -0.38081,0.86072 -0.71646,1.20818c-0.33564,0.34364 -0.75016,0.61187 -1.2439,0.80541c-0.49339,0.18971 -1.04828,0.28422 -1.66397,0.28422zM215.72477,187.12677v1.18452h-4.7143v-1.18452zM212.38467,184.94727h1.39747v8.67062c0,0.39485 0.05733,0.69095 0.17199,0.88838c0.11848,0.19346 0.26824,0.32376 0.44996,0.39096c0.18554,0.06324 0.38116,0.09486 0.58651,0.09486c0.15392,0 0.28005,-0.00799 0.37873,-0.02397c0.09903,-0.01946 0.1779,-0.03544 0.23697,-0.04725l0.28422,1.25571c-0.09451,0.03544 -0.22689,0.07088 -0.3968,0.10632c-0.16956,0.03961 -0.38498,0.05942 -0.64558,0.05942c-0.39471,0 -0.78178,-0.08478 -1.16051,-0.25469c-0.37525,-0.16991 -0.68727,-0.42841 -0.93605,-0.77587c-0.24461,-0.34746 -0.36691,-0.78574 -0.36691,-1.31481zM219.03569,184.0944v4.16949h-1.30296v-4.16949zM222.06795,184.0944v4.16949h-1.30296v-4.16949zM226.37816,192.81242v-0.07106c0.00764,-0.75416 0.08686,-1.35432 0.23697,-1.80045c0.14975,-0.44617 0.36309,-0.80746 0.63932,-1.08386c0.27658,-0.27637 0.60805,-0.53105 0.99512,-0.76399c0.23314,-0.14214 0.44231,-0.30997 0.62786,-0.50343c0.18554,-0.19743 0.33147,-0.42445 0.43814,-0.68109c0.11049,-0.25667 0.16608,-0.54092 0.16608,-0.85287c0,-0.38693 -0.09103,-0.72254 -0.27275,-1.00683c-0.18137,-0.28429 -0.42425,-0.50343 -0.72827,-0.65739c-0.30403,-0.15399 -0.64175,-0.23099 -1.01284,-0.23099c-0.32383,0 -0.6355,0.06713 -0.9357,0.20135c-0.3002,0.13426 -0.55072,0.34551 -0.75224,0.63373c-0.20118,0.28822 -0.31792,0.66531 -0.34954,1.13122h-1.49233c0.03162,-0.67122 0.20535,-1.2457 0.52119,-1.72346c0.31966,-0.47775 0.74043,-0.843 1.26162,-1.09571c0.52501,-0.25267 1.10735,-0.37904 1.74702,-0.37904c0.69491,0 1.29914,0.13822 1.81234,0.41459c0.51736,0.2764 0.9159,0.65544 1.1963,1.13712c0.28422,0.48171 0.42633,1.03056 0.42633,1.6465c0,0.43432 -0.06706,0.82719 -0.20118,1.17858c-0.1303,0.35142 -0.32001,0.66531 -0.56844,0.94171c-0.24496,0.27637 -0.54099,0.52119 -0.88845,0.73439c-0.34746,0.21716 -0.62577,0.44617 -0.83529,0.68703c-0.20917,0.2369 -0.36101,0.51921 -0.45586,0.84693c-0.09486,0.32769 -0.14628,0.73637 -0.15392,1.22597v0.07106zM227.13631,196.31868c-0.29221,0 -0.54308,-0.10458 -0.75224,-0.3141c-0.20952,-0.20917 -0.3141,-0.46003 -0.3141,-0.7519c0,-0.29221 0.10458,-0.54308 0.3141,-0.75231c0.20917,-0.20927 0.46003,-0.31389 0.75224,-0.31389c0.29186,0 0.54273,0.10462 0.7519,0.31389c0.20952,0.20924 0.3141,0.4601 0.3141,0.75231c0,0.19319 -0.04934,0.37108 -0.14802,0.533c-0.09486,0.16192 -0.22307,0.29221 -0.38498,0.39089c-0.15809,0.09451 -0.33564,0.14211 -0.533,0.14211z"/></g></g></svg>