<svg xmlns="http://www.w3.org/2000/svg" fill="none" viewBox="0 0 139 164" height="164" width="139">
<path fill="#EE6338" d="M0 20C0 8.95431 8.95431 0 20 0H119C130.046 0 139 8.95431 139 20V144C139 155.046 130.046 164 119 164H20C8.95431 164 0 155.046 0 144V20Z"></path>
<path fill="black" d="M36.2102 135.455V150H34.5341V135.455H36.2102ZM43.854 150.227C42.8029 150.227 41.8962 149.995 41.1339 149.531C40.3763 149.062 39.7915 148.409 39.3796 147.571C38.9724 146.728 38.7688 145.748 38.7688 144.631C38.7688 143.513 38.9724 142.528 39.3796 141.676C39.7915 140.819 40.3645 140.152 41.0984 139.673C41.837 139.19 42.6987 138.949 43.6836 138.949C44.2518 138.949 44.8129 139.044 45.3668 139.233C45.9208 139.422 46.4251 139.73 46.8796 140.156C47.3342 140.578 47.6964 141.136 47.9663 141.832C48.2362 142.528 48.3711 143.385 48.3711 144.403V145.114H39.962V143.665H46.6665C46.6665 143.049 46.5434 142.5 46.2972 142.017C46.0558 141.534 45.7101 141.153 45.2603 140.874C44.8152 140.594 44.2897 140.455 43.6836 140.455C43.016 140.455 42.4383 140.62 41.9506 140.952C41.4677 141.278 41.096 141.705 40.8356 142.23C40.5752 142.756 40.445 143.319 40.445 143.92V144.886C40.445 145.71 40.587 146.409 40.8711 146.982C41.1599 147.55 41.56 147.983 42.0714 148.281C42.5827 148.575 43.177 148.722 43.854 148.722C44.2944 148.722 44.6921 148.66 45.0472 148.537C45.4071 148.409 45.7172 148.22 45.9776 147.969C46.238 147.713 46.4393 147.396 46.5813 147.017L48.2006 147.472C48.0302 148.021 47.7437 148.504 47.3413 148.92C46.9388 149.332 46.4416 149.654 45.8498 149.886C45.2579 150.114 44.5927 150.227 43.854 150.227ZM55.6651 139.091V140.511H50.0117V139.091H55.6651ZM51.6594 136.477H53.3356V146.875C53.3356 147.348 53.4042 147.704 53.5415 147.94C53.6836 148.172 53.8635 148.329 54.0813 148.409C54.3039 148.485 54.5382 148.523 54.7844 148.523C54.9691 148.523 55.1206 148.513 55.239 148.494C55.3574 148.471 55.4521 148.452 55.5231 148.438L55.864 149.943C55.7504 149.986 55.5917 150.028 55.3881 150.071C55.1845 150.118 54.9265 150.142 54.614 150.142C54.1405 150.142 53.6765 150.04 53.2219 149.837C52.7721 149.633 52.3981 149.323 52.0998 148.906C51.8062 148.49 51.6594 147.964 51.6594 147.33V136.477ZM62.9308 139.091V140.511H57.2773V139.091H62.9308ZM58.9251 136.477H60.6012V146.875C60.6012 147.348 60.6699 147.704 60.8072 147.94C60.9492 148.172 61.1291 148.329 61.3469 148.409C61.5695 148.485 61.8039 148.523 62.0501 148.523C62.2347 148.523 62.3862 148.513 62.5046 148.494C62.623 148.471 62.7177 148.452 62.7887 148.438L63.1296 149.943C63.016 149.986 62.8574 150.028 62.6538 150.071C62.4502 150.118 62.1921 150.142 61.8796 150.142C61.4061 150.142 60.9421 150.04 60.4876 149.837C60.0378 149.633 59.6637 149.323 59.3654 148.906C59.0719 148.49 58.9251 147.964 58.9251 147.33V136.477ZM69.9087 150.227C68.8576 150.227 67.9509 149.995 67.1886 149.531C66.431 149.062 65.8462 148.409 65.4343 147.571C65.0271 146.728 64.8235 145.748 64.8235 144.631C64.8235 143.513 65.0271 142.528 65.4343 141.676C65.8462 140.819 66.4192 140.152 67.1531 139.673C67.8917 139.19 68.7534 138.949 69.7383 138.949C70.3065 138.949 70.8675 139.044 71.4215 139.233C71.9755 139.422 72.4798 139.73 72.9343 140.156C73.3888 140.578 73.7511 141.136 74.021 141.832C74.2908 142.528 74.4258 143.385 74.4258 144.403V145.114H66.0167V143.665H72.7212C72.7212 143.049 72.5981 142.5 72.3519 142.017C72.1104 141.534 71.7648 141.153 71.315 140.874C70.8699 140.594 70.3443 140.455 69.7383 140.455C69.0707 140.455 68.493 140.62 68.0053 140.952C67.5224 141.278 67.1507 141.705 66.8903 142.23C66.6299 142.756 66.4996 143.319 66.4996 143.92V144.886C66.4996 145.71 66.6417 146.409 66.9258 146.982C67.2146 147.55 67.6147 147.983 68.1261 148.281C68.6374 148.575 69.2317 148.722 69.9087 148.722C70.3491 148.722 70.7468 148.66 71.1019 148.537C71.4618 148.409 71.7719 148.22 72.0323 147.969C72.2927 147.713 72.494 147.396 72.636 147.017L74.2553 147.472C74.0849 148.021 73.7984 148.504 73.396 148.92C72.9935 149.332 72.4963 149.654 71.9045 149.886C71.3126 150.114 70.6474 150.227 69.9087 150.227ZM76.9755 150V139.091H78.5948V140.739H78.7085C78.9073 140.199 79.2672 139.761 79.788 139.425C80.3088 139.089 80.896 138.92 81.5494 138.92C81.6725 138.92 81.8263 138.923 82.011 138.928C82.1957 138.932 82.3353 138.939 82.43 138.949V140.653C82.3732 140.639 82.243 140.618 82.0394 140.589C81.8406 140.556 81.6299 140.54 81.4073 140.54C80.877 140.54 80.4035 140.651 79.9869 140.874C79.5749 141.091 79.2482 141.394 79.0067 141.783C78.77 142.166 78.6516 142.604 78.6516 143.097V150H76.9755ZM101.974 140H100.212C100.108 139.493 99.9259 139.048 99.6655 138.665C99.4098 138.281 99.0973 137.959 98.728 137.699C98.3634 137.434 97.9586 137.235 97.5135 137.102C97.0684 136.97 96.6044 136.903 96.1214 136.903C95.2408 136.903 94.4429 137.126 93.728 137.571C93.0178 138.016 92.4519 138.672 92.0305 139.538C91.6139 140.405 91.4055 141.468 91.4055 142.727C91.4055 143.987 91.6139 145.05 92.0305 145.916C92.4519 146.783 93.0178 147.438 93.728 147.884C94.4429 148.329 95.2408 148.551 96.1214 148.551C96.6044 148.551 97.0684 148.485 97.5135 148.352C97.9586 148.22 98.3634 148.023 98.728 147.763C99.0973 147.498 99.4098 147.173 99.6655 146.79C99.9259 146.402 100.108 145.956 100.212 145.455H101.974C101.841 146.198 101.6 146.863 101.249 147.45C100.899 148.037 100.463 148.537 99.9425 148.949C99.4216 149.356 98.8369 149.666 98.1882 149.879C97.5443 150.092 96.8554 150.199 96.1214 150.199C94.8809 150.199 93.7777 149.896 92.8118 149.29C91.8459 148.684 91.0859 147.822 90.532 146.705C89.978 145.587 89.701 144.261 89.701 142.727C89.701 141.193 89.978 139.867 90.532 138.75C91.0859 137.633 91.8459 136.771 92.8118 136.165C93.7777 135.559 94.8809 135.256 96.1214 135.256C96.8554 135.256 97.5443 135.362 98.1882 135.575C98.8369 135.788 99.4216 136.101 99.9425 136.513C100.463 136.92 100.899 137.417 101.249 138.004C101.6 138.587 101.841 139.252 101.974 140Z"></path>
<path fill="black" d="M46.3842 82.4773C44.9524 82.4545 43.5206 82.1818 42.0888 81.6591C40.657 81.1364 39.3501 80.2557 38.1683 79.017C36.9865 77.767 36.0376 76.0795 35.3217 73.9545C34.6058 71.8182 34.2479 69.1364 34.2479 65.9091C34.2479 62.8182 34.5376 60.0795 35.1172 57.6932C35.6967 55.2955 36.5376 53.2784 37.6399 51.642C38.7422 49.9943 40.0717 48.7443 41.6286 47.892C43.1967 47.0398 44.9638 46.6136 46.9297 46.6136C48.8842 46.6136 50.6229 47.0057 52.1456 47.7898C53.6797 48.5625 54.9297 49.642 55.8956 51.0284C56.8615 52.4148 57.4865 54.0114 57.7706 55.8182H53.6115C53.2251 54.25 52.4751 52.9489 51.3615 51.9148C50.2479 50.8807 48.7706 50.3636 46.9297 50.3636C44.2251 50.3636 42.0945 51.5398 40.5376 53.892C38.9922 56.2443 38.2138 59.5455 38.2024 63.7955H38.4751C39.1115 62.8295 39.8672 62.0057 40.7422 61.3239C41.6286 60.6307 42.6058 60.0966 43.674 59.7216C44.7422 59.3466 45.8729 59.1591 47.0661 59.1591C49.0661 59.1591 50.8956 59.6591 52.5547 60.6591C54.2138 61.6477 55.5433 63.017 56.5433 64.767C57.5433 66.5057 58.0433 68.5 58.0433 70.75C58.0433 72.9091 57.5604 74.8864 56.5945 76.6818C55.6286 78.4659 54.2706 79.8864 52.5206 80.9432C50.782 81.9886 48.7365 82.5 46.3842 82.4773ZM46.3842 78.7273C47.8161 78.7273 49.1001 78.3693 50.2365 77.6534C51.3842 76.9375 52.2876 75.9773 52.9467 74.7727C53.6172 73.5682 53.9524 72.2273 53.9524 70.75C53.9524 69.3068 53.6286 67.9943 52.9808 66.8125C52.3445 65.6193 51.4638 64.6705 50.3388 63.9659C49.2251 63.2614 47.9524 62.9091 46.5206 62.9091C45.4411 62.9091 44.4354 63.125 43.5036 63.5568C42.5717 63.9773 41.7536 64.5568 41.049 65.2955C40.3558 66.0341 39.8104 66.8807 39.4126 67.8352C39.0149 68.7784 38.8161 69.7727 38.8161 70.8182C38.8161 72.2045 39.1399 73.5 39.7876 74.7045C40.4467 75.9091 41.3445 76.8807 42.4808 77.6193C43.6286 78.358 44.9297 78.7273 46.3842 78.7273ZM77.1555 45.4545L65.9055 87.25H62.2237L73.4737 45.4545H77.1555ZM93.0376 82.4773C90.6967 82.4773 88.6286 82.0625 86.8331 81.233C85.049 80.392 83.657 79.2386 82.657 77.7727C81.657 76.2955 81.1626 74.6136 81.174 72.7273C81.1626 71.25 81.4524 69.8864 82.0433 68.6364C82.6342 67.375 83.4411 66.3239 84.4638 65.483C85.4979 64.6307 86.6513 64.0909 87.924 63.8636V63.6591C86.2536 63.2273 84.924 62.2898 83.9354 60.8466C82.9467 59.392 82.4581 57.7386 82.4695 55.8864C82.4581 54.1136 82.907 52.5284 83.8161 51.1307C84.7251 49.733 85.9751 48.6307 87.5661 47.8239C89.1683 47.017 90.9922 46.6136 93.0376 46.6136C95.0604 46.6136 96.8672 47.017 98.4581 47.8239C100.049 48.6307 101.299 49.733 102.208 51.1307C103.129 52.5284 103.594 54.1136 103.606 55.8864C103.594 57.7386 103.089 59.392 102.089 60.8466C101.1 62.2898 99.7876 63.2273 98.1513 63.6591V63.8636C99.4126 64.0909 100.549 64.6307 101.56 65.483C102.572 66.3239 103.379 67.375 103.981 68.6364C104.583 69.8864 104.89 71.25 104.901 72.7273C104.89 74.6136 104.379 76.2955 103.367 77.7727C102.367 79.2386 100.975 80.392 99.1911 81.233C97.4183 82.0625 95.3672 82.4773 93.0376 82.4773ZM93.0376 78.7273C94.6172 78.7273 95.9808 78.4716 97.1286 77.9602C98.2763 77.4489 99.1626 76.7273 99.7876 75.7955C100.413 74.8636 100.731 73.7727 100.742 72.5227C100.731 71.2045 100.39 70.0398 99.7195 69.0284C99.049 68.017 98.1342 67.2216 96.9751 66.642C95.8274 66.0625 94.5149 65.7727 93.0376 65.7727C91.549 65.7727 90.2195 66.0625 89.049 66.642C87.8899 67.2216 86.9751 68.017 86.3047 69.0284C85.6456 70.0398 85.3217 71.2045 85.3331 72.5227C85.3217 73.7727 85.6229 74.8636 86.2365 75.7955C86.8615 76.7273 87.7536 77.4489 88.9126 77.9602C90.0717 78.4716 91.4467 78.7273 93.0376 78.7273ZM93.0376 62.1591C94.2876 62.1591 95.3956 61.9091 96.3615 61.4091C97.3388 60.9091 98.1058 60.2102 98.6626 59.3125C99.2195 58.4148 99.5036 57.3636 99.5149 56.1591C99.5036 54.9773 99.2251 53.9489 98.6797 53.0739C98.1342 52.1875 97.3786 51.5057 96.4126 51.0284C95.4467 50.5398 94.3217 50.2955 93.0376 50.2955C91.7308 50.2955 90.5888 50.5398 89.6115 51.0284C88.6342 51.5057 87.8786 52.1875 87.3445 53.0739C86.8104 53.9489 86.549 54.9773 86.5604 56.1591C86.549 57.3636 86.8161 58.4148 87.3615 59.3125C87.9183 60.2102 88.6854 60.9091 89.6626 61.4091C90.6399 61.9091 91.7649 62.1591 93.0376 62.1591Z"></path>
</svg>
