<svg xmlns="http://www.w3.org/2000/svg" fill="none" viewBox="0 0 139 164" height="164" width="139">
<path fill="#43D059" d="M0 20C0 8.95431 8.95431 0 20 0H119C130.046 0 139 8.95431 139 20V144C139 155.046 130.046 164 119 164H20C8.95431 164 0 155.046 0 144V20Z"></path>
<path fill="black" d="M36.2102 135.455V150H34.5341V135.455H36.2102ZM43.854 150.227C42.8029 150.227 41.8962 149.995 41.1339 149.531C40.3763 149.062 39.7915 148.409 39.3796 147.571C38.9724 146.728 38.7688 145.748 38.7688 144.631C38.7688 143.513 38.9724 142.528 39.3796 141.676C39.7915 140.819 40.3645 140.152 41.0984 139.673C41.837 139.19 42.6987 138.949 43.6836 138.949C44.2518 138.949 44.8129 139.044 45.3668 139.233C45.9208 139.422 46.4251 139.73 46.8796 140.156C47.3342 140.578 47.6964 141.136 47.9663 141.832C48.2362 142.528 48.3711 143.385 48.3711 144.403V145.114H39.962V143.665H46.6665C46.6665 143.049 46.5434 142.5 46.2972 142.017C46.0558 141.534 45.7101 141.153 45.2603 140.874C44.8152 140.594 44.2897 140.455 43.6836 140.455C43.016 140.455 42.4383 140.62 41.9506 140.952C41.4677 141.278 41.096 141.705 40.8356 142.23C40.5752 142.756 40.445 143.319 40.445 143.92V144.886C40.445 145.71 40.587 146.409 40.8711 146.982C41.1599 147.55 41.56 147.983 42.0714 148.281C42.5827 148.575 43.177 148.722 43.854 148.722C44.2944 148.722 44.6921 148.66 45.0472 148.537C45.4071 148.409 45.7172 148.22 45.9776 147.969C46.238 147.713 46.4393 147.396 46.5813 147.017L48.2006 147.472C48.0302 148.021 47.7437 148.504 47.3413 148.92C46.9388 149.332 46.4416 149.654 45.8498 149.886C45.2579 150.114 44.5927 150.227 43.854 150.227ZM55.6651 139.091V140.511H50.0117V139.091H55.6651ZM51.6594 136.477H53.3356V146.875C53.3356 147.348 53.4042 147.704 53.5415 147.94C53.6836 148.172 53.8635 148.329 54.0813 148.409C54.3039 148.485 54.5382 148.523 54.7844 148.523C54.9691 148.523 55.1206 148.513 55.239 148.494C55.3574 148.471 55.4521 148.452 55.5231 148.438L55.864 149.943C55.7504 149.986 55.5917 150.028 55.3881 150.071C55.1845 150.118 54.9265 150.142 54.614 150.142C54.1405 150.142 53.6765 150.04 53.2219 149.837C52.7721 149.633 52.3981 149.323 52.0998 148.906C51.8062 148.49 51.6594 147.964 51.6594 147.33V136.477ZM62.9308 139.091V140.511H57.2773V139.091H62.9308ZM58.9251 136.477H60.6012V146.875C60.6012 147.348 60.6699 147.704 60.8072 147.94C60.9492 148.172 61.1291 148.329 61.3469 148.409C61.5695 148.485 61.8039 148.523 62.0501 148.523C62.2347 148.523 62.3862 148.513 62.5046 148.494C62.623 148.471 62.7177 148.452 62.7887 148.438L63.1296 149.943C63.016 149.986 62.8574 150.028 62.6538 150.071C62.4502 150.118 62.1921 150.142 61.8796 150.142C61.4061 150.142 60.9421 150.04 60.4876 149.837C60.0378 149.633 59.6637 149.323 59.3654 148.906C59.0719 148.49 58.9251 147.964 58.9251 147.33V136.477ZM69.9087 150.227C68.8576 150.227 67.9509 149.995 67.1886 149.531C66.431 149.062 65.8462 148.409 65.4343 147.571C65.0271 146.728 64.8235 145.748 64.8235 144.631C64.8235 143.513 65.0271 142.528 65.4343 141.676C65.8462 140.819 66.4192 140.152 67.1531 139.673C67.8917 139.19 68.7534 138.949 69.7383 138.949C70.3065 138.949 70.8675 139.044 71.4215 139.233C71.9755 139.422 72.4798 139.73 72.9343 140.156C73.3888 140.578 73.7511 141.136 74.021 141.832C74.2908 142.528 74.4258 143.385 74.4258 144.403V145.114H66.0167V143.665H72.7212C72.7212 143.049 72.5981 142.5 72.3519 142.017C72.1104 141.534 71.7648 141.153 71.315 140.874C70.8699 140.594 70.3443 140.455 69.7383 140.455C69.0707 140.455 68.493 140.62 68.0053 140.952C67.5224 141.278 67.1507 141.705 66.8903 142.23C66.6299 142.756 66.4996 143.319 66.4996 143.92V144.886C66.4996 145.71 66.6417 146.409 66.9258 146.982C67.2146 147.55 67.6147 147.983 68.1261 148.281C68.6374 148.575 69.2317 148.722 69.9087 148.722C70.3491 148.722 70.7468 148.66 71.1019 148.537C71.4618 148.409 71.7719 148.22 72.0323 147.969C72.2927 147.713 72.494 147.396 72.636 147.017L74.2553 147.472C74.0849 148.021 73.7984 148.504 73.396 148.92C72.9935 149.332 72.4963 149.654 71.9045 149.886C71.3126 150.114 70.6474 150.227 69.9087 150.227ZM76.9755 150V139.091H78.5948V140.739H78.7085C78.9073 140.199 79.2672 139.761 79.788 139.425C80.3088 139.089 80.896 138.92 81.5494 138.92C81.6725 138.92 81.8263 138.923 82.011 138.928C82.1957 138.932 82.3353 138.939 82.43 138.949V140.653C82.3732 140.639 82.243 140.618 82.0394 140.589C81.8406 140.556 81.6299 140.54 81.4073 140.54C80.877 140.54 80.4035 140.651 79.9869 140.874C79.5749 141.091 79.2482 141.394 79.0067 141.783C78.77 142.166 78.6516 142.604 78.6516 143.097V150H76.9755ZM94.7578 150H90.2692V135.455H94.9567C96.3677 135.455 97.575 135.746 98.5788 136.328C99.5826 136.906 100.352 137.737 100.887 138.821C101.422 139.901 101.69 141.193 101.69 142.699C101.69 144.214 101.42 145.518 100.88 146.612C100.34 147.701 99.5542 148.539 98.522 149.126C97.4898 149.709 96.2351 150 94.7578 150ZM92.0305 148.438H94.6442C95.8468 148.438 96.8435 148.205 97.6342 147.741C98.425 147.277 99.0144 146.617 99.4027 145.76C99.791 144.903 99.9851 143.883 99.9851 142.699C99.9851 141.525 99.7933 140.514 99.4098 139.666C99.0263 138.814 98.4534 138.161 97.6911 137.706C96.9287 137.247 95.9794 137.017 94.843 137.017H92.0305V148.438Z"></path>
<path fill="black" d="M38.7768 82V60.1818H41.4189V79.6562H51.5609V82H38.7768ZM55.3109 82V65.6364H57.8251V82H55.3109ZM56.5893 62.9091C56.0993 62.9091 55.6767 62.7422 55.3216 62.4084C54.9735 62.0746 54.7995 61.6733 54.7995 61.2045C54.7995 60.7358 54.9735 60.3345 55.3216 60.0007C55.6767 59.6669 56.0993 59.5 56.5893 59.5C57.0794 59.5 57.4984 59.6669 57.8464 60.0007C58.2015 60.3345 58.3791 60.7358 58.3791 61.2045C58.3791 61.6733 58.2015 62.0746 57.8464 62.4084C57.4984 62.7422 57.0794 62.9091 56.5893 62.9091ZM75.8107 65.6364L69.7596 82H67.2028L61.1516 65.6364H63.8789L68.396 78.6761H68.5664L73.0835 65.6364H75.8107ZM85.4041 82.3409C83.8274 82.3409 82.4673 81.9929 81.3239 81.2969C80.1875 80.5938 79.3104 79.6136 78.6925 78.3565C78.0817 77.0923 77.7763 75.6222 77.7763 73.946C77.7763 72.2699 78.0817 70.7926 78.6925 69.5142C79.3104 68.2287 80.1697 67.2273 81.2706 66.5099C82.3786 65.7855 83.6712 65.4233 85.1484 65.4233C86.0007 65.4233 86.8423 65.5653 87.6733 65.8494C88.5043 66.1335 89.2607 66.5952 89.9425 67.2344C90.6243 67.8665 91.1676 68.7045 91.5724 69.7486C91.9773 70.7926 92.1797 72.0781 92.1797 73.6051V74.6705H79.5661V72.4972H89.6229C89.6229 71.5739 89.4382 70.75 89.0689 70.0256C88.7067 69.3011 88.1882 68.7294 87.5135 68.3104C86.8459 67.8913 86.0575 67.6818 85.1484 67.6818C84.147 67.6818 83.2805 67.9304 82.549 68.4276C81.8246 68.9176 81.267 69.5568 80.8764 70.3452C80.4858 71.1335 80.2905 71.9787 80.2905 72.8807V74.3295C80.2905 75.5653 80.5036 76.6129 80.9297 77.4723C81.3629 78.3246 81.9631 78.9744 82.7301 79.4219C83.4972 79.8622 84.3885 80.0824 85.4041 80.0824C86.0646 80.0824 86.6612 79.9901 87.1939 79.8054C87.7337 79.6136 88.1989 79.3295 88.5895 78.9531C88.9801 78.5696 89.282 78.0937 89.495 77.5256L91.924 78.2074C91.6683 79.0312 91.2386 79.7557 90.6349 80.3807C90.0313 80.9986 89.2855 81.4815 88.3977 81.8295C87.5099 82.1705 86.5121 82.3409 85.4041 82.3409ZM96.0043 82V65.6364H98.4332V68.108H98.6037C98.902 67.2983 99.4418 66.6413 100.223 66.1371C101.004 65.6328 101.885 65.3807 102.865 65.3807C103.05 65.3807 103.281 65.3842 103.558 65.3913C103.835 65.3984 104.044 65.4091 104.186 65.4233V67.9801C104.101 67.9588 103.906 67.9268 103.6 67.8842C103.302 67.8345 102.986 67.8097 102.652 67.8097C101.857 67.8097 101.146 67.9766 100.521 68.3104C99.9034 68.6371 99.4134 69.0916 99.0511 69.674C98.696 70.2493 98.5185 70.9062 98.5185 71.6449V82H96.0043Z"></path>
</svg>
