<svg version="1.1" xmlns="http://www.w3.org/2000/svg" xmlns:xlink="http://www.w3.org/1999/xlink" width="238.40021" height="27.84371" viewBox="0,0,238.40021,27.84371"><g transform="translate(-120.79989,-166.07815)"><g data-paper-data="{&quot;isPaintingLayer&quot;:true}" fill="#ffffff" fill-rule="nonzero" stroke="none" stroke-width="1" stroke-linecap="butt" stroke-linejoin="miter" stroke-miterlimit="10" stroke-dasharray="" stroke-dashoffset="0" style="mix-blend-mode: normal"><path d="M123.33333,175.77757l-2.53343,-9.26511h1.14004l1.93625,7.546h0.09048l1.97247,-7.546h1.26671l1.97245,7.546h0.09048l1.93627,-7.546h1.14003l-2.53341,9.26511h-1.15816l-2.04483,-7.38314h-0.07238l-2.04485,7.38314zM134.66588,171.59742v4.18016h-1.06766v-9.26511h1.06766v3.40204h0.0905c0.16286,-0.35891 0.40714,-0.64391 0.73287,-0.85503c0.32876,-0.21413 0.76607,-0.32119 1.31196,-0.32119c0.47352,0 0.88821,0.09499 1.2441,0.28499c0.35589,0.187 0.63185,0.47503 0.82788,0.86408c0.19906,0.38606 0.29859,0.87765 0.29859,1.47481v4.41541h-1.06766v-4.34301c0,-0.55194 -0.14327,-0.97869 -0.42977,-1.2803c-0.28351,-0.30461 -0.67711,-0.45692 -1.18077,-0.45692c-0.34986,0 -0.66351,0.07389 -0.94097,0.22167c-0.27446,0.1478 -0.49161,0.36345 -0.65147,0.64693c-0.15683,0.28351 -0.23525,0.62734 -0.23525,1.03147zM141.125,175.77757v-6.94883h1.06766v6.94883zM141.66786,167.67059c-0.20808,0 -0.38755,-0.07087 -0.53835,-0.21262c-0.14778,-0.14175 -0.22167,-0.31214 -0.22167,-0.5112c0,-0.19906 0.07389,-0.36947 0.22167,-0.51123c0.1508,-0.14175 0.33027,-0.21262 0.53835,-0.21262c0.2081,0 0.38606,0.07087 0.53384,0.21262c0.1508,0.14175 0.22621,0.31217 0.22621,0.51123c0,0.19906 -0.07541,0.36945 -0.22621,0.5112c-0.14778,0.14175 -0.32573,0.21262 -0.53384,0.21262zM146.97112,175.92235c-0.65147,0 -1.21243,-0.15383 -1.68292,-0.46146c-0.47051,-0.30763 -0.83242,-0.73138 -1.08575,-1.27125c-0.25336,-0.53984 -0.38003,-1.15662 -0.38003,-1.85028c0,-0.70575 0.1297,-1.32855 0.38909,-1.86841c0.26238,-0.54289 0.62731,-0.96664 1.09481,-1.27125c0.47049,-0.30763 1.0194,-0.46143 1.64672,-0.46143c0.48848,0 0.92879,0.09048 1.32106,0.27144c0.392,0.18095 0.71315,0.43431 0.96343,0.76002c0.25054,0.32573 0.40581,0.70575 0.46606,1.14005h-1.06773c-0.08122,-0.31668 -0.26223,-0.59717 -0.54276,-0.84148c-0.27735,-0.24731 -0.65157,-0.37096 -1.12195,-0.37096c-0.41621,0 -0.78114,0.10858 -1.09481,0.32573c-0.31066,0.21413 -0.55343,0.51722 -0.72836,0.90931c-0.17193,0.38906 -0.25787,0.84599 -0.25787,1.37077c0,0.53684 0.08445,1.00432 0.25333,1.40243c0.1719,0.39811 0.41319,0.70726 0.72384,0.92741c0.31366,0.22016 0.68162,0.33025 1.10386,0.33025c0.27743,0 0.5293,-0.04825 0.75542,-0.14475c0.22639,-0.09653 0.41775,-0.23525 0.57461,-0.41621c0.15685,-0.18095 0.26832,-0.39811 0.33468,-0.65147h1.06773c-0.06025,0.41018 -0.20967,0.77963 -0.44774,1.10839c-0.23542,0.32571 -0.54753,0.58509 -0.93662,0.77812c-0.3859,0.19001 -0.83523,0.28502 -1.34808,0.28502zM152.33215,171.59742v4.18016h-1.06773v-9.26511h1.06773v3.40204h0.09024c0.16296,-0.35891 0.4074,-0.64391 0.73305,-0.85503c0.32857,-0.21413 0.76597,-0.32119 1.31191,-0.32119c0.47349,0 0.88831,0.09499 1.24396,0.28499c0.35591,0.187 0.63194,0.47503 0.82807,0.86408c0.19906,0.38606 0.29859,0.87765 0.29859,1.47481v4.41541h-1.06773v-4.34301c0,-0.55194 -0.14332,-0.97869 -0.4297,-1.2803c-0.28345,-0.30461 -0.67705,-0.45692 -1.18079,-0.45692c-0.34981,0 -0.66351,0.07389 -0.94113,0.22167c-0.27443,0.1478 -0.49153,0.36345 -0.65131,0.64693c-0.15685,0.28351 -0.23515,0.62734 -0.23515,1.03147zM165.17891,178.52814c-0.51569,0 -0.95891,-0.06635 -1.32996,-0.19906c-0.37103,-0.12968 -0.67997,-0.30158 -0.92733,-0.51571c-0.24444,-0.21113 -0.43898,-0.43734 -0.58363,-0.67862l0.85036,-0.59717c0.09661,0.12667 0.21869,0.27145 0.36653,0.43431c0.14783,0.16588 0.34981,0.30915 0.60619,0.42977c0.2593,0.12365 0.59875,0.18549 1.01783,0.18549c0.56107,0 1.02394,-0.13573 1.38888,-0.40716c0.36494,-0.27144 0.54753,-0.6967 0.54753,-1.27576v-1.41149h-0.0905c-0.07856,0.12667 -0.19003,0.28351 -0.33468,0.47049c-0.14199,0.18398 -0.34689,0.34834 -0.61548,0.49312c-0.2654,0.14175 -0.62424,0.21262 -1.07649,0.21262c-0.56107,0 -1.06481,-0.13271 -1.51122,-0.39811c-0.44323,-0.2654 -0.79463,-0.65144 -1.05393,-1.15813c-0.25638,-0.50669 -0.38457,-1.12195 -0.38457,-1.8458c0,-0.71177 0.12527,-1.33155 0.37555,-1.85936c0.25028,-0.53082 0.5985,-0.94097 1.04491,-1.23051c0.44641,-0.29256 0.9621,-0.43882 1.54732,-0.43882c0.45225,0 0.81135,0.07541 1.07676,0.22618c0.26832,0.1478 0.47349,0.31668 0.61521,0.50669c0.14465,0.187 0.25638,0.34081 0.33468,0.46146h0.10855v-1.10386h1.03164v7.14789c0,0.59717 -0.13589,1.08272 -0.4074,1.45671c-0.26832,0.37701 -0.63034,0.65298 -1.08551,0.82791c-0.45252,0.17792 -0.95626,0.2669 -1.51122,0.2669zM165.14281,174.70992c0.42836,0 0.79011,-0.09801 1.08578,-0.29407c0.29567,-0.19603 0.5202,-0.47803 0.67413,-0.84599c0.15367,-0.36793 0.23064,-0.80827 0.23064,-1.32101c0,-0.50064 -0.07538,-0.94248 -0.22613,-1.32552c-0.15075,-0.38303 -0.37395,-0.6831 -0.66962,-0.90026c-0.29567,-0.21716 -0.66059,-0.32573 -1.09481,-0.32573c-0.45252,0 -0.82939,0.1146 -1.1309,0.34383c-0.29859,0.2292 -0.52338,0.53684 -0.67413,0.92288c-0.14783,0.38606 -0.22161,0.81432 -0.22161,1.28481c0,0.48256 0.07538,0.90934 0.22613,1.2803c0.15367,0.36796 0.38006,0.65749 0.67864,0.8686c0.3015,0.2081 0.67546,0.31217 1.12187,0.31217zM172.1822,175.94043c-0.44031,0 -0.84001,-0.08294 -1.19884,-0.24882c-0.3591,-0.16888 -0.64388,-0.41168 -0.85514,-0.72836c-0.211,-0.31968 -0.31663,-0.70575 -0.31663,-1.15813c0,-0.39811 0.0783,-0.72081 0.23515,-0.96812c0.15685,-0.25033 0.36653,-0.44639 0.62902,-0.58814c0.26223,-0.14173 0.55178,-0.24731 0.86841,-0.31665c0.31981,-0.0724 0.64096,-0.1297 0.96369,-0.17193c0.42227,-0.05428 0.76464,-0.09499 1.02686,-0.12214c0.2654,-0.03015 0.45862,-0.07992 0.57912,-0.14929c0.12368,-0.06937 0.18552,-0.19001 0.18552,-0.36191v-0.0362c0,-0.44636 -0.12209,-0.79319 -0.36653,-1.0405c-0.24126,-0.24734 -0.60751,-0.37099 -1.09932,-0.37099c-0.50958,0 -0.90928,0.11161 -1.19884,0.33479c-0.28956,0.22318 -0.49312,0.46143 -0.6107,0.71479l-1.01332,-0.36194c0.18101,-0.42224 0.42227,-0.75097 0.72376,-0.98623c0.30469,-0.23825 0.63645,-0.40413 0.99528,-0.49764c0.36202,-0.0965 0.71792,-0.14475 1.06773,-0.14475c0.22321,0 0.47959,0.02712 0.76915,0.08143c0.29248,0.05128 0.57434,0.15835 0.84585,0.32119c0.27443,0.16288 0.50215,0.40867 0.68316,0.73741c0.18101,0.32876 0.27151,0.7691 0.27151,1.32101v4.57827h-1.06773v-0.941h-0.05441c-0.07219,0.1508 -0.19295,0.31217 -0.36175,0.48408c-0.16906,0.1719 -0.3936,0.3182 -0.67413,0.43882c-0.28053,0.12065 -0.62291,0.18095 -1.02686,0.18095zM172.3449,174.98135c0.42227,0 0.77817,-0.08294 1.06773,-0.24882c0.29248,-0.16588 0.51277,-0.38001 0.66059,-0.64242c0.15075,-0.26238 0.22613,-0.53835 0.22613,-0.82788v-0.97717c-0.04512,0.0543 -0.14465,0.10407 -0.29859,0.14929c-0.15075,0.04222 -0.32565,0.07992 -0.52471,0.11309c-0.19613,0.03018 -0.38749,0.05733 -0.57461,0.08146c-0.18393,0.0211 -0.33335,0.0392 -0.44801,0.05428c-0.27735,0.0362 -0.53666,0.09501 -0.7779,0.17644c-0.23834,0.0784 -0.43128,0.19754 -0.57912,0.3574c-0.14491,0.15683 -0.2171,0.37096 -0.2171,0.64239c0,0.37099 0.13722,0.65147 0.41165,0.84148c0.27735,0.18698 0.62875,0.28048 1.05393,0.28048zM182.23793,170.38498l-0.95918,0.27144c-0.06025,-0.15983 -0.14942,-0.31517 -0.267,-0.46595c-0.11466,-0.15383 -0.27151,-0.28051 -0.47057,-0.38003c-0.19906,-0.09953 -0.45385,-0.14929 -0.76437,-0.14929c-0.42519,0 -0.77976,0.09804 -1.06322,0.29407c-0.28053,0.19303 -0.42067,0.43882 -0.42067,0.73741c0,0.2654 0.09661,0.47503 0.28956,0.62883c0.19295,0.15383 0.49445,0.282 0.90477,0.38454l1.03137,0.25333c0.62132,0.1508 1.08419,0.38152 1.38888,0.69218c0.30469,0.30763 0.45703,0.70423 0.45703,1.18979c0,0.39811 -0.11466,0.75402 -0.34397,1.06767c-0.22613,0.31366 -0.54276,0.56097 -0.94989,0.74192c-0.40714,0.18095 -0.88062,0.27145 -1.42046,0.27145c-0.7089,0 -1.29545,-0.15383 -1.75991,-0.46146c-0.46446,-0.30763 -0.75854,-0.75702 -0.88221,-1.34814l1.01332,-0.25336c0.09661,0.37398 0.27894,0.65447 0.54753,0.84148c0.27124,0.18698 0.62583,0.28048 1.06295,0.28048c0.49764,0 0.89283,-0.10555 1.18531,-0.31668c0.29567,-0.21413 0.44349,-0.47049 0.44349,-0.76907c0,-0.24128 -0.0844,-0.44336 -0.25346,-0.60621c-0.1688,-0.16588 -0.42811,-0.28953 -0.77817,-0.37096l-1.15797,-0.27145c-0.63645,-0.15078 -1.10383,-0.38452 -1.40241,-0.70121c-0.29567,-0.31968 -0.44349,-0.7193 -0.44349,-1.19884c0,-0.39209 0.11014,-0.73892 0.33016,-1.04053c0.22321,-0.30161 0.5263,-0.53835 0.90955,-0.71025c0.3859,-0.17193 0.8233,-0.25787 1.31191,-0.25787c0.68767,0 1.2275,0.1508 1.61952,0.45239c0.39519,0.30161 0.67573,0.69972 0.8416,1.19433zM190.17864,175.92235c-0.57912,0 -1.09029,-0.14629 -1.53379,-0.43885c-0.44323,-0.29556 -0.79011,-0.71177 -1.0404,-1.24861c-0.25028,-0.53986 -0.37555,-1.17774 -0.37555,-1.91363c0,-0.72987 0.12527,-1.36324 0.37555,-1.90008c0.25028,-0.53684 0.5985,-0.95154 1.04491,-1.2441c0.44641,-0.29256 0.9621,-0.43882 1.54732,-0.43882c0.45225,0 0.80976,0.07541 1.07224,0.22618c0.2654,0.1478 0.46738,0.31668 0.60619,0.50669c0.14173,0.187 0.25161,0.34081 0.33016,0.46146h0.0905v-3.42014h1.06773v9.26511h-1.03164v-1.06766h-0.1266c-0.07856,0.12666 -0.19003,0.2865 -0.33468,0.47954c-0.14491,0.19001 -0.3514,0.3604 -0.61999,0.5112c-0.26832,0.14778 -0.62583,0.2217 -1.07198,0.2217zM190.3233,174.96325c0.42836,0 0.79011,-0.11158 1.08578,-0.33476c0.29567,-0.22621 0.5202,-0.53838 0.67413,-0.93649c0.15367,-0.40111 0.23064,-0.86406 0.23064,-1.38885c0,-0.51876 -0.07538,-0.97266 -0.22613,-1.36172c-0.15075,-0.39209 -0.37395,-0.6967 -0.66962,-0.91385c-0.29567,-0.22016 -0.66059,-0.33025 -1.09481,-0.33025c-0.45252,0 -0.82939,0.11611 -1.1309,0.34834c-0.29859,0.2292 -0.52338,0.54138 -0.67413,0.93646c-0.14783,0.39209 -0.22161,0.83242 -0.22161,1.32101c0,0.49461 0.07538,0.944 0.22613,1.34814c0.15367,0.40114 0.38006,0.72081 0.67864,0.9591c0.3015,0.23523 0.67546,0.35286 1.12187,0.35286zM198.29001,175.92235c-0.62742,0 -1.17761,-0.14929 -1.65136,-0.44788c-0.4703,-0.29859 -0.83842,-0.71631 -1.10383,-1.25314c-0.26223,-0.53687 -0.3936,-1.16418 -0.3936,-1.88197c0,-0.72384 0.13138,-1.3557 0.3936,-1.89557c0.2654,-0.53986 0.63353,-0.95908 1.10383,-1.25765c0.47376,-0.29859 1.02394,-0.44788 1.65136,-0.44788c0.62742,0 1.17628,0.14929 1.64685,0.44788c0.47349,0.29859 0.84134,0.71779 1.10383,1.25765c0.2654,0.53986 0.39811,1.17172 0.39811,1.89557c0,0.71779 -0.13271,1.34511 -0.39811,1.88197c-0.26248,0.53684 -0.63034,0.95457 -1.10383,1.25314c-0.47057,0.29859 -1.01943,0.44788 -1.64685,0.44788zM198.29001,174.96325c0.47668,0 0.86868,-0.12214 1.17628,-0.36645c0.30761,-0.24428 0.53533,-0.56547 0.68316,-0.96358c0.14783,-0.39811 0.22161,-0.82939 0.22161,-1.29386c0,-0.46446 -0.07379,-0.89727 -0.22161,-1.2984c-0.14783,-0.40114 -0.37555,-0.72533 -0.68316,-0.97266c-0.30761,-0.24731 -0.69961,-0.37096 -1.17628,-0.37096c-0.47641,0 -0.86868,0.12365 -1.17628,0.37096c-0.30761,0.24734 -0.53533,0.57153 -0.68316,0.97266c-0.14757,0.40114 -0.22161,0.83393 -0.22161,1.2984c0,0.46446 0.07405,0.89575 0.22161,1.29386c0.14783,0.39811 0.37555,0.7193 0.68316,0.96358c0.30761,0.24431 0.69988,0.36645 1.17628,0.36645zM206.65139,178.38339v-9.55465h1.03164v1.10386h0.1266c0.0783,-0.12065 0.18712,-0.27446 0.32565,-0.46146c0.14173,-0.19001 0.34397,-0.35889 0.60619,-0.50669c0.2654,-0.15078 0.6245,-0.22618 1.07676,-0.22618c0.58523,0 1.10091,0.14626 1.54732,0.43882c0.44641,0.29256 0.79463,0.70726 1.04491,1.2441c0.25028,0.53684 0.37555,1.1702 0.37555,1.90008c0,0.73589 -0.12527,1.37377 -0.37555,1.91363c-0.25028,0.53684 -0.59717,0.95305 -1.0404,1.24861c-0.44349,0.29256 -0.95467,0.43885 -1.53379,0.43885c-0.44615,0 -0.80365,-0.07391 -1.07198,-0.2217c-0.26859,-0.1508 -0.47508,-0.32119 -0.61999,-0.5112c-0.14465,-0.19303 -0.25638,-0.35288 -0.33468,-0.47954h-0.0905v3.67347zM207.70108,172.30316c0,0.52478 0.07697,0.98774 0.23064,1.38885c0.15393,0.39811 0.37847,0.71028 0.67413,0.93649c0.29567,0.22318 0.65742,0.33476 1.08578,0.33476c0.44641,0 0.81878,-0.11763 1.11736,-0.35286c0.3015,-0.23828 0.5279,-0.55797 0.67864,-0.9591c0.15367,-0.40413 0.23064,-0.85352 0.23064,-1.34814c0,-0.48859 -0.07538,-0.92893 -0.22613,-1.32101c-0.14783,-0.39508 -0.37237,-0.70726 -0.67413,-0.93646c-0.29859,-0.23223 -0.67413,-0.34834 -1.12638,-0.34834c-0.4342,0 -0.79914,0.11009 -1.09481,0.33025c-0.29567,0.21716 -0.51887,0.52176 -0.66962,0.91385c-0.15075,0.38906 -0.22613,0.84296 -0.22613,1.36172zM215.48227,166.51246v9.26511h-1.06773v-9.26511zM219.48249,175.94043c-0.44031,0 -0.83974,-0.08294 -1.19884,-0.24882c-0.35883,-0.16888 -0.64388,-0.41168 -0.85487,-0.72836c-0.21126,-0.31968 -0.31663,-0.70575 -0.31663,-1.15813c0,-0.39811 0.0783,-0.72081 0.23515,-0.96812c0.15685,-0.25033 0.36653,-0.44639 0.62875,-0.58814c0.26248,-0.14173 0.55204,-0.24731 0.86868,-0.31665c0.31981,-0.0724 0.64096,-0.1297 0.96369,-0.17193c0.42227,-0.05428 0.76437,-0.09499 1.02686,-0.12214c0.2654,-0.03015 0.45836,-0.07992 0.57912,-0.14929c0.12368,-0.06937 0.18552,-0.19001 0.18552,-0.36191v-0.0362c0,-0.44636 -0.12209,-0.79319 -0.36653,-1.0405c-0.24126,-0.24734 -0.60778,-0.37099 -1.09932,-0.37099c-0.50958,0 -0.90928,0.11161 -1.19884,0.33479c-0.28956,0.22318 -0.49312,0.46143 -0.6107,0.71479l-1.01332,-0.36194c0.18074,-0.42224 0.42227,-0.75097 0.72376,-0.98623c0.30469,-0.23825 0.63645,-0.40413 0.99528,-0.49764c0.36202,-0.0965 0.71766,-0.14475 1.06773,-0.14475c0.22321,0 0.47933,0.02712 0.76889,0.08143c0.29275,0.05128 0.57461,0.15835 0.84612,0.32119c0.27443,0.16288 0.50215,0.40867 0.68316,0.73741c0.18101,0.32876 0.27124,0.7691 0.27124,1.32101v4.57827h-1.06746v-0.941h-0.05441c-0.07246,0.1508 -0.19295,0.31217 -0.36175,0.48408c-0.16906,0.1719 -0.3936,0.3182 -0.67413,0.43882c-0.28053,0.12065 -0.62291,0.18095 -1.02713,0.18095zM219.64544,174.98135c0.42227,0 0.77817,-0.08294 1.06773,-0.24882c0.29248,-0.16588 0.51277,-0.38001 0.66034,-0.64242c0.15101,-0.26238 0.22639,-0.53835 0.22639,-0.82788v-0.97717c-0.04538,0.0543 -0.14491,0.10407 -0.29859,0.14929c-0.15075,0.04222 -0.32592,0.07992 -0.52498,0.11309c-0.19587,0.03018 -0.38749,0.05733 -0.57434,0.08146c-0.18393,0.0211 -0.33335,0.0392 -0.44801,0.05428c-0.27735,0.0362 -0.53692,0.09501 -0.77817,0.17644c-0.23807,0.0784 -0.43128,0.19754 -0.57885,0.3574c-0.14491,0.15683 -0.21737,0.37096 -0.21737,0.64239c0,0.37099 0.13722,0.65147 0.41192,0.84148c0.27735,0.18698 0.62875,0.28048 1.05393,0.28048zM225.68399,171.59742v4.18016h-1.06773v-6.94883h1.03137v1.08575h0.0905c0.16296,-0.35288 0.41032,-0.63636 0.74208,-0.85052c0.33176,-0.21713 0.75986,-0.32571 1.28457,-0.32571c0.47057,0 0.88221,0.0965 1.2352,0.28953c0.35273,0.19001 0.62742,0.47954 0.8233,0.8686c0.19613,0.38606 0.29407,0.87465 0.29407,1.46577v4.41541h-1.06773v-4.34301c0,-0.54591 -0.14173,-0.97115 -0.42519,-1.27579c-0.28345,-0.30761 -0.67254,-0.46143 -1.16726,-0.46143c-0.34078,0 -0.64521,0.07389 -0.9138,0.22167c-0.2654,0.1478 -0.47508,0.36345 -0.62875,0.64693c-0.15393,0.28351 -0.23064,0.62734 -0.23064,1.03147zM235.09027,168.82874v0.9048h-3.60104v-0.9048zM232.53892,167.16393h1.06746v6.62309c0,0.30161 0.04379,0.52779 0.13138,0.67859c0.0905,0.14778 0.2049,0.24731 0.3437,0.29859c0.14173,0.04825 0.29115,0.07238 0.44801,0.07238c0.11758,0 0.21391,-0.00602 0.28956,-0.01808c0.07538,-0.0151 0.13563,-0.02715 0.18074,-0.0362l0.21737,0.95908c-0.07246,0.02715 -0.17358,0.0543 -0.3031,0.08146c-0.12979,0.03015 -0.29407,0.04523 -0.49312,0.04523c-0.30177,0 -0.59717,-0.06484 -0.88672,-0.19452c-0.28664,-0.1297 -0.52498,-0.32724 -0.715,-0.59266c-0.18685,-0.2654 -0.28027,-0.60019 -0.28027,-1.00432zM241.49401,170.38498l-0.95891,0.27144c-0.06051,-0.15983 -0.14942,-0.31517 -0.267,-0.46595c-0.11466,-0.15383 -0.27151,-0.28051 -0.47057,-0.38003c-0.19906,-0.09953 -0.45385,-0.14929 -0.76464,-0.14929c-0.42519,0 -0.7795,0.09804 -1.06295,0.29407c-0.28053,0.19303 -0.42067,0.43882 -0.42067,0.73741c0,0.2654 0.09634,0.47503 0.28929,0.62883c0.19321,0.15383 0.49472,0.282 0.90504,0.38454l1.03137,0.25333c0.62132,0.1508 1.08419,0.38152 1.38888,0.69218c0.30469,0.30763 0.45676,0.70423 0.45676,1.18979c0,0.39811 -0.11439,0.75402 -0.3437,1.06767c-0.22613,0.31366 -0.54276,0.56097 -0.95015,0.74192c-0.40714,0.18095 -0.88062,0.27145 -1.42046,0.27145c-0.70864,0 -1.29545,-0.15383 -1.75991,-0.46146c-0.46446,-0.30763 -0.75827,-0.75702 -0.88195,-1.34814l1.01332,-0.25336c0.09634,0.37398 0.27894,0.65447 0.54726,0.84148c0.27151,0.18698 0.62583,0.28048 1.06322,0.28048c0.49764,0 0.89283,-0.10555 1.18531,-0.31668c0.29567,-0.21413 0.44323,-0.47049 0.44323,-0.76907c0,-0.24128 -0.0844,-0.44336 -0.2532,-0.60621c-0.16906,-0.16588 -0.42836,-0.28953 -0.77817,-0.37096l-1.15824,-0.27145c-0.63618,-0.15078 -1.10383,-0.38452 -1.40241,-0.70121c-0.2954,-0.31968 -0.44323,-0.7193 -0.44323,-1.19884c0,-0.39209 0.11014,-0.73892 0.33016,-1.04053c0.22321,-0.30161 0.5263,-0.53835 0.90928,-0.71025c0.38617,-0.17193 0.82355,-0.25787 1.31191,-0.25787c0.68767,0 1.2275,0.1508 1.61977,0.45239c0.39492,0.30161 0.67546,0.69972 0.84134,1.19433zM248.8556,175.94043c-0.44031,0 -0.83974,-0.08294 -1.19884,-0.24882c-0.35883,-0.16888 -0.64388,-0.41168 -0.85487,-0.72836c-0.21126,-0.31968 -0.31663,-0.70575 -0.31663,-1.15813c0,-0.39811 0.0783,-0.72081 0.23515,-0.96812c0.15685,-0.25033 0.36653,-0.44639 0.62875,-0.58814c0.26248,-0.14173 0.55204,-0.24731 0.86868,-0.31665c0.31981,-0.0724 0.64096,-0.1297 0.96369,-0.17193c0.42227,-0.05428 0.76437,-0.09499 1.02686,-0.12214c0.2654,-0.03015 0.45836,-0.07992 0.57912,-0.14929c0.12368,-0.06937 0.18552,-0.19001 0.18552,-0.36191v-0.0362c0,-0.44636 -0.12236,-0.79319 -0.36653,-1.0405c-0.24126,-0.24734 -0.60778,-0.37099 -1.09932,-0.37099c-0.50985,0 -0.90928,0.11161 -1.19884,0.33479c-0.28956,0.22318 -0.49312,0.46143 -0.6107,0.71479l-1.01332,-0.36194c0.18074,-0.42224 0.422,-0.75097 0.72376,-0.98623c0.30469,-0.23825 0.63645,-0.40413 0.99528,-0.49764c0.36175,-0.0965 0.71766,-0.14475 1.06773,-0.14475c0.22294,0 0.47933,0.02712 0.76889,0.08143c0.29275,0.05128 0.57461,0.15835 0.84612,0.32119c0.27443,0.16288 0.50215,0.40867 0.68316,0.73741c0.18074,0.32876 0.27124,0.7691 0.27124,1.32101v4.57827h-1.06746v-0.941h-0.05441c-0.07246,0.1508 -0.19295,0.31217 -0.36202,0.48408c-0.1688,0.1719 -0.39333,0.3182 -0.67387,0.43882c-0.28053,0.12065 -0.62291,0.18095 -1.02713,0.18095zM249.01856,174.98135c0.42227,0 0.77817,-0.08294 1.06773,-0.24882c0.29248,-0.16588 0.51277,-0.38001 0.66034,-0.64242c0.15101,-0.26238 0.22639,-0.53835 0.22639,-0.82788v-0.97717c-0.04538,0.0543 -0.14491,0.10407 -0.29859,0.14929c-0.15101,0.04222 -0.32592,0.07992 -0.52498,0.11309c-0.19587,0.03018 -0.38749,0.05733 -0.57434,0.08146c-0.1842,0.0211 -0.33335,0.0392 -0.44801,0.05428c-0.27735,0.0362 -0.53692,0.09501 -0.77817,0.17644c-0.23807,0.0784 -0.43128,0.19754 -0.57912,0.3574c-0.14465,0.15683 -0.2171,0.37096 -0.2171,0.64239c0,0.37099 0.13722,0.65147 0.41165,0.84148c0.27762,0.18698 0.62902,0.28048 1.05419,0.28048zM254.13401,175.77757v-9.26511h1.06773v3.42014h0.0905c0.0783,-0.12065 0.18685,-0.27446 0.32565,-0.46146c0.14173,-0.19001 0.34397,-0.35889 0.60619,-0.50669c0.2654,-0.15078 0.62424,-0.22618 1.07676,-0.22618c0.58523,0 1.10091,0.14626 1.54732,0.43882c0.44615,0.29256 0.79463,0.70726 1.04491,1.2441c0.25028,0.53684 0.37555,1.1702 0.37555,1.90008c0,0.73589 -0.12527,1.37377 -0.37555,1.91363c-0.25028,0.53684 -0.59717,0.95305 -1.0404,1.24861c-0.44349,0.29256 -0.95467,0.43885 -1.53379,0.43885c-0.44641,0 -0.80365,-0.07391 -1.07224,-0.2217c-0.26832,-0.1508 -0.47481,-0.32119 -0.61972,-0.5112c-0.14465,-0.19303 -0.25638,-0.35288 -0.33468,-0.47954h-0.1266v1.06766zM255.18369,172.30316c0,0.52478 0.0767,0.98774 0.23064,1.38885c0.15393,0.39811 0.37847,0.71028 0.67413,0.93649c0.2954,0.22318 0.65742,0.33476 1.08578,0.33476c0.44641,0 0.81878,-0.11763 1.11736,-0.35286c0.3015,-0.23828 0.5279,-0.55797 0.67864,-0.9591c0.15367,-0.40413 0.23064,-0.85352 0.23064,-1.34814c0,-0.48859 -0.07538,-0.92893 -0.22613,-1.32101c-0.14783,-0.39508 -0.37263,-0.70726 -0.67413,-0.93646c-0.29859,-0.23223 -0.67413,-0.34834 -1.12638,-0.34834c-0.43447,0 -0.79941,0.11009 -1.09481,0.33025c-0.29567,0.21716 -0.51887,0.52176 -0.66962,0.91385c-0.15075,0.38906 -0.22613,0.84296 -0.22613,1.36172zM266.82391,170.38498l-0.95918,0.27144c-0.06025,-0.15983 -0.14915,-0.31517 -0.267,-0.46595c-0.11439,-0.15383 -0.27124,-0.28051 -0.4703,-0.38003c-0.19906,-0.09953 -0.45411,-0.14929 -0.76464,-0.14929c-0.42519,0 -0.77976,0.09804 -1.06322,0.29407c-0.28053,0.19303 -0.42067,0.43882 -0.42067,0.73741c0,0.2654 0.09661,0.47503 0.28956,0.62883c0.19295,0.15383 0.49472,0.282 0.90477,0.38454l1.03137,0.25333c0.62132,0.1508 1.08445,0.38152 1.38888,0.69218c0.30469,0.30763 0.45703,0.70423 0.45703,1.18979c0,0.39811 -0.11466,0.75402 -0.34397,1.06767c-0.22613,0.31366 -0.54276,0.56097 -0.94989,0.74192c-0.40714,0.18095 -0.88062,0.27145 -1.42046,0.27145c-0.7089,0 -1.29545,-0.15383 -1.75991,-0.46146c-0.46446,-0.30763 -0.75854,-0.75702 -0.88221,-1.34814l1.01332,-0.25336c0.09661,0.37398 0.27894,0.65447 0.54753,0.84148c0.27151,0.18698 0.62583,0.28048 1.06295,0.28048c0.49764,0 0.89283,-0.10555 1.18531,-0.31668c0.29567,-0.21413 0.44349,-0.47049 0.44349,-0.76907c0,-0.24128 -0.0844,-0.44336 -0.25346,-0.60621c-0.1688,-0.16588 -0.42811,-0.28953 -0.77817,-0.37096l-1.15797,-0.27145c-0.63645,-0.15078 -1.10383,-0.38452 -1.40241,-0.70121c-0.29567,-0.31968 -0.44349,-0.7193 -0.44349,-1.19884c0,-0.39209 0.11014,-0.73892 0.33043,-1.04053c0.22321,-0.30161 0.5263,-0.53835 0.90928,-0.71025c0.3859,-0.17193 0.8233,-0.25787 1.31191,-0.25787c0.68767,0 1.2275,0.1508 1.61952,0.45239c0.39519,0.30161 0.67573,0.69972 0.8416,1.19433zM271.38068,175.92235c-0.62742,0 -1.17787,-0.14929 -1.65136,-0.44788c-0.47057,-0.29859 -0.83842,-0.71631 -1.10383,-1.25314c-0.26248,-0.53687 -0.3936,-1.16418 -0.3936,-1.88197c0,-0.72384 0.13111,-1.3557 0.3936,-1.89557c0.2654,-0.53986 0.63326,-0.95908 1.10383,-1.25765c0.47349,-0.29859 1.02394,-0.44788 1.65136,-0.44788c0.62716,0 1.17628,0.14929 1.64658,0.44788c0.47349,0.29859 0.8416,0.71779 1.10383,1.25765c0.2654,0.53986 0.39811,1.17172 0.39811,1.89557c0,0.71779 -0.13271,1.34511 -0.39811,1.88197c-0.26223,0.53684 -0.63034,0.95457 -1.10383,1.25314c-0.4703,0.29859 -1.01943,0.44788 -1.64658,0.44788zM271.38068,174.96325c0.47641,0 0.86841,-0.12214 1.17601,-0.36645c0.30787,-0.24428 0.53559,-0.56547 0.68316,-0.96358c0.14783,-0.39811 0.22188,-0.82939 0.22188,-1.29386c0,-0.46446 -0.07405,-0.89727 -0.22188,-1.2984c-0.14757,-0.40114 -0.37529,-0.72533 -0.68316,-0.97266c-0.30761,-0.24731 -0.69961,-0.37096 -1.17601,-0.37096c-0.47668,0 -0.86868,0.12365 -1.17628,0.37096c-0.30761,0.24734 -0.53533,0.57153 -0.68316,0.97266c-0.14783,0.40114 -0.22161,0.83393 -0.22161,1.2984c0,0.46446 0.07379,0.89575 0.22161,1.29386c0.14783,0.39811 0.37555,0.7193 0.68316,0.96358c0.30761,0.24431 0.69961,0.36645 1.17628,0.36645zM276.15906,175.77757v-6.94883h1.03137v1.04955h0.07246c0.1266,-0.34381 0.35591,-0.6228 0.68767,-0.83693c0.33176,-0.21413 0.70572,-0.32119 1.12187,-0.32119c0.07856,0 0.1765,0.00151 0.29407,0.00451c0.11758,0.00303 0.20675,0.00753 0.267,0.01359v1.08575c-0.03636,-0.00905 -0.11917,-0.02261 -0.24896,-0.04071c-0.1266,-0.02113 -0.26089,-0.03166 -0.40262,-0.03166c-0.3376,0 -0.63937,0.07087 -0.90477,0.21262c-0.26223,0.13873 -0.47057,0.33176 -0.62424,0.57906c-0.15075,0.24431 -0.22613,0.52327 -0.22613,0.83693v4.39732zM281.04388,175.77757v-9.26511h1.06746v3.42014h0.0905c0.07856,-0.12065 0.18712,-0.27446 0.32592,-0.46146c0.14173,-0.19001 0.3437,-0.35889 0.60619,-0.50669c0.2654,-0.15078 0.62424,-0.22618 1.07676,-0.22618c0.58496,0 1.10064,0.14626 1.54706,0.43882c0.44641,0.29256 0.79463,0.70726 1.04518,1.2441c0.25028,0.53684 0.37529,1.1702 0.37529,1.90008c0,0.73589 -0.12501,1.37377 -0.37529,1.91363c-0.25054,0.53684 -0.59717,0.95305 -1.04066,1.24861c-0.44323,0.29256 -0.9544,0.43885 -1.53352,0.43885c-0.44641,0 -0.80392,-0.07391 -1.07224,-0.2217c-0.26832,-0.1508 -0.47508,-0.32119 -0.61972,-0.5112c-0.14491,-0.19303 -0.25638,-0.35288 -0.33494,-0.47954h-0.1266v1.06766zM282.0933,172.30316c0,0.52478 0.07697,0.98774 0.23091,1.38885c0.15367,0.39811 0.37847,0.71028 0.67387,0.93649c0.29567,0.22318 0.65768,0.33476 1.08578,0.33476c0.44641,0 0.81904,-0.11763 1.11763,-0.35286c0.3015,-0.23828 0.52763,-0.55797 0.67838,-0.9591c0.15393,-0.40413 0.23091,-0.85352 0.23091,-1.34814c0,-0.48859 -0.07538,-0.92893 -0.22639,-1.32101c-0.14757,-0.39508 -0.37237,-0.70726 -0.67387,-0.93646c-0.29859,-0.23223 -0.67413,-0.34834 -1.12665,-0.34834c-0.4342,0 -0.79914,0.11009 -1.09481,0.33025c-0.2954,0.21716 -0.51861,0.52176 -0.66935,0.91385c-0.15101,0.38906 -0.22639,0.84296 -0.22639,1.36172zM295.48892,168.82874v0.9048h-3.74595v-0.9048zM292.8651,175.77757v-7.90793c0,-0.39811 0.09342,-0.72987 0.28027,-0.99528c0.18712,-0.2654 0.42996,-0.46446 0.72854,-0.59717c0.29859,-0.1327 0.61362,-0.19904 0.94537,-0.19904c0.26248,0 0.47668,0.02112 0.64255,0.06333c0.16588,0.04222 0.28956,0.08143 0.37078,0.11763l-0.30761,0.92288c-0.05414,-0.01808 -0.12952,-0.04071 -0.22613,-0.06784c-0.09342,-0.02715 -0.2171,-0.04074 -0.37103,-0.04074c-0.35273,0 -0.60751,0.08899 -0.76437,0.26692c-0.15393,0.17795 -0.23091,0.43882 -0.23091,0.78266v7.65458zM296.98528,175.77757v-6.94883h1.03137v1.04955h0.07246c0.1266,-0.34381 0.35591,-0.6228 0.68767,-0.83693c0.33176,-0.21413 0.70572,-0.32119 1.12187,-0.32119c0.0783,0 0.1765,0.00151 0.29407,0.00451c0.11758,0.00303 0.20648,0.00753 0.267,0.01359v1.08575c-0.03636,-0.00905 -0.11917,-0.02261 -0.24896,-0.04071c-0.1266,-0.02113 -0.26089,-0.03166 -0.40262,-0.03166c-0.33786,0 -0.63937,0.07087 -0.90477,0.21262c-0.26248,0.13873 -0.47057,0.33176 -0.62424,0.57906c-0.15075,0.24431 -0.22639,0.52327 -0.22639,0.83693v4.39732zM304.33678,175.92235c-0.62742,0 -1.17787,-0.14929 -1.65136,-0.44788c-0.47057,-0.29859 -0.83842,-0.71631 -1.10383,-1.25314c-0.26248,-0.53687 -0.3936,-1.16418 -0.3936,-1.88197c0,-0.72384 0.13111,-1.3557 0.3936,-1.89557c0.2654,-0.53986 0.63326,-0.95908 1.10383,-1.25765c0.47349,-0.29859 1.02394,-0.44788 1.65136,-0.44788c0.62716,0 1.17601,0.14929 1.64658,0.44788c0.47349,0.29859 0.8416,0.71779 1.10383,1.25765c0.2654,0.53986 0.39811,1.17172 0.39811,1.89557c0,0.71779 -0.13271,1.34511 -0.39811,1.88197c-0.26223,0.53684 -0.63034,0.95457 -1.10383,1.25314c-0.47057,0.29859 -1.01943,0.44788 -1.64658,0.44788zM304.33678,174.96325c0.47641,0 0.86841,-0.12214 1.17601,-0.36645c0.30761,-0.24428 0.53533,-0.56547 0.68316,-0.96358c0.14783,-0.39811 0.22161,-0.82939 0.22161,-1.29386c0,-0.46446 -0.07379,-0.89727 -0.22161,-1.2984c-0.14783,-0.40114 -0.37555,-0.72533 -0.68316,-0.97266c-0.30761,-0.24731 -0.69961,-0.37096 -1.17601,-0.37096c-0.47668,0 -0.86868,0.12365 -1.17628,0.37096c-0.30761,0.24734 -0.53533,0.57153 -0.68316,0.97266c-0.14783,0.40114 -0.22161,0.83393 -0.22161,1.2984c0,0.46446 0.07379,0.89575 0.22161,1.29386c0.14783,0.39811 0.37555,0.7193 0.68316,0.96358c0.30761,0.24431 0.69961,0.36645 1.17628,0.36645zM309.11517,175.77757v-6.94883h1.03137v1.08575h0.0905c0.14491,-0.37096 0.37847,-0.659 0.70121,-0.86408c0.32273,-0.2081 0.71023,-0.31214 1.16275,-0.31214c0.45836,0 0.84001,0.10404 1.14443,0.31214c0.30761,0.20508 0.54753,0.49312 0.71952,0.86408h0.07219c0.17809,-0.35891 0.44482,-0.64391 0.80073,-0.85503c0.35591,-0.21413 0.78268,-0.32119 1.28032,-0.32119c0.62132,0 1.12957,0.19452 1.52476,0.58358c0.39492,0.38606 0.59239,0.98774 0.59239,1.80508v4.65065h-1.06746v-4.65065c0,-0.51271 -0.1404,-0.87916 -0.42093,-1.09935c-0.28027,-0.22016 -0.6107,-0.33025 -0.9905,-0.33025c-0.48861,0 -0.86709,0.14778 -1.13568,0.44336c-0.26832,0.29253 -0.40262,0.66351 -0.40262,1.11287v4.52399h-1.08578v-4.75923c0,-0.39511 -0.12819,-0.71328 -0.38457,-0.95457c-0.25638,-0.24431 -0.58655,-0.36645 -0.99077,-0.36645c-0.27735,0 -0.53666,0.07389 -0.7779,0.22167c-0.23834,0.1478 -0.43128,0.35288 -0.57912,0.61527c-0.14491,0.25938 -0.2171,0.55948 -0.2171,0.90029v4.34301zM124.52766,184.22235v0.9048h-3.6011v-0.9048zM121.97613,182.55753h1.06766v6.62309c0,0.30161 0.04374,0.52779 0.1312,0.67859c0.09048,0.14778 0.20508,0.24731 0.34381,0.29864c0.14175,0.0483 0.29104,0.07246 0.44788,0.07246c0.11763,0 0.21415,-0.00611 0.28956,-0.01832c0.07538,-0.01486 0.1357,-0.02708 0.18095,-0.03609l0.21716,0.95918c-0.0724,0.02708 -0.17344,0.05414 -0.30313,0.08122c-0.12968,0.03025 -0.29404,0.04538 -0.4931,0.04538c-0.30161,0 -0.59717,-0.06476 -0.88671,-0.19455c-0.28652,-0.12979 -0.52478,-0.32724 -0.71479,-0.59266c-0.18699,-0.2654 -0.28049,-0.60019 -0.28049,-1.00432zM127.3506,186.99101v4.18016h-1.06766v-9.26511h1.06766v3.40204h0.0905c0.16286,-0.35891 0.40714,-0.64391 0.73287,-0.85503c0.32876,-0.21413 0.76607,-0.32119 1.31196,-0.32119c0.47352,0 0.88821,0.09499 1.2441,0.28499c0.35589,0.187 0.63185,0.47503 0.82788,0.86408c0.19906,0.38606 0.29859,0.87765 0.29859,1.47481v4.41541h-1.06766v-4.34301c0,-0.55194 -0.14327,-0.97869 -0.42977,-1.2803c-0.28351,-0.30461 -0.67711,-0.45692 -1.18077,-0.45692c-0.34986,0 -0.66351,0.07389 -0.94097,0.22167c-0.27446,0.1478 -0.49161,0.36345 -0.65147,0.64693c-0.15683,0.28351 -0.23525,0.62734 -0.23525,1.03147zM136.72318,191.31583c-0.66956,0 -1.24712,-0.14757 -1.73268,-0.44323c-0.48256,-0.29859 -0.85503,-0.71474 -1.11744,-1.24861c-0.25935,-0.53687 -0.38906,-1.16116 -0.38906,-1.87295c0,-0.71177 0.1297,-1.33908 0.38906,-1.88197c0.26241,-0.54589 0.62734,-0.97115 1.09481,-1.27576c0.47051,-0.30763 1.0194,-0.46143 1.64674,-0.46143c0.36191,0 0.7193,0.0603 1.07216,0.18095c0.35288,0.12062 0.67408,0.31668 0.96361,0.58812c0.28953,0.26843 0.52028,0.62432 0.69218,1.06766c0.1719,0.44336 0.25787,0.98925 0.25787,1.6377v0.45239h-5.35639v-0.92288h4.27063c0,-0.39209 -0.07843,-0.74194 -0.23525,-1.04958c-0.15381,-0.30763 -0.37398,-0.55042 -0.66049,-0.72836c-0.28351,-0.17795 -0.6183,-0.26692 -1.00432,-0.26692c-0.42526,0 -0.79322,0.10555 -1.10386,0.31668c-0.30763,0.2081 -0.5444,0.47954 -0.71028,0.81432c-0.16588,0.33476 -0.24882,0.69367 -0.24882,1.0767v0.61527c0,0.52477 0.0905,0.96964 0.27145,1.33457c0.18398,0.36191 0.43882,0.63788 0.76456,0.82788c0.32571,0.18712 0.70423,0.28053 1.13552,0.28053c0.28048,0 0.53381,-0.03928 0.76002,-0.11758c0.2292,-0.08148 0.42677,-0.20216 0.59266,-0.36202c0.16588,-0.16286 0.29404,-0.36494 0.38452,-0.60621l1.03147,0.28953c-0.10858,0.34986 -0.29104,0.65746 -0.5474,0.92288c-0.25636,0.26248 -0.57304,0.46738 -0.95005,0.61521c-0.37698,0.14491 -0.80073,0.2171 -1.27122,0.2171zM146.85235,191.33413c-0.44034,0 -0.83994,-0.08307 -1.19884,-0.24896c-0.35891,-0.1688 -0.64391,-0.41165 -0.85503,-0.72827c-0.21113,-0.31974 -0.31668,-0.70579 -0.31668,-1.15818c0,-0.39811 0.07843,-0.72081 0.23525,-0.96812c0.15683,-0.25033 0.36645,-0.44639 0.62883,-0.58814c0.26238,-0.14173 0.55192,-0.24731 0.8686,-0.31665c0.31971,-0.0724 0.64091,-0.1297 0.96375,-0.17193c0.422,-0.05428 0.76437,-0.09499 1.02686,-0.12214c0.2654,-0.03015 0.45836,-0.07992 0.57912,-0.14929c0.12368,-0.06937 0.18552,-0.19001 0.18552,-0.36191v-0.0362c0,-0.44636 -0.12236,-0.79319 -0.36653,-1.0405c-0.24126,-0.24734 -0.60778,-0.37099 -1.09932,-0.37099c-0.50976,0 -0.90939,0.11161 -1.19893,0.33479c-0.28953,0.22318 -0.4931,0.46143 -0.61073,0.71479l-1.01338,-0.36194c0.18095,-0.42224 0.42224,-0.75097 0.72384,-0.98623c0.30461,-0.23825 0.63636,-0.40413 0.99528,-0.49764c0.36191,-0.0965 0.71774,-0.14475 1.06755,-0.14475c0.22321,0 0.47959,0.02712 0.76915,0.08143c0.29248,0.05128 0.57461,0.15835 0.84612,0.32119c0.27443,0.16288 0.50215,0.40867 0.68316,0.73741c0.18074,0.32876 0.27124,0.7691 0.27124,1.32101v4.57827h-1.06746v-0.94087h-0.05441c-0.07246,0.15075 -0.19295,0.31212 -0.36202,0.48384c-0.1688,0.17198 -0.3936,0.31822 -0.67387,0.43898c-0.28053,0.12049 -0.62291,0.18101 -1.02707,0.18101zM147.01524,190.37495c0.42228,0 0.7782,-0.08281 1.06776,-0.24896c0.29248,-0.16575 0.5125,-0.37988 0.66034,-0.64229c0.15075,-0.26238 0.22639,-0.53835 0.22639,-0.82788v-0.97717c-0.04538,0.0543 -0.14491,0.10407 -0.29859,0.14929c-0.15101,0.04222 -0.32592,0.07992 -0.52498,0.11309c-0.19587,0.03018 -0.38749,0.05733 -0.57461,0.08146c-0.18393,0.0211 -0.33308,0.0392 -0.44774,0.05428c-0.27749,0.0362 -0.53687,0.09501 -0.77814,0.17644c-0.23825,0.0784 -0.43128,0.19754 -0.57906,0.3574c-0.14475,0.15683 -0.21716,0.37096 -0.21716,0.64239c0,0.37099 0.13724,0.65147 0.4117,0.84148c0.27746,0.18706 0.62883,0.28048 1.05409,0.28048zM155.00799,184.22235v0.9048h-3.60104v-0.9048zM152.45637,182.55753h1.06773v6.62309c0,0.30161 0.04379,0.52779 0.13111,0.67859c0.0905,0.14778 0.20516,0.24731 0.34397,0.29864c0.14173,0.0483 0.29089,0.07246 0.44774,0.07246c0.11758,0 0.21418,-0.00611 0.28956,-0.01832c0.07538,-0.01486 0.13589,-0.02708 0.18101,-0.03609l0.2171,0.95918c-0.07246,0.02708 -0.17331,0.05414 -0.3031,0.08122c-0.12952,0.03025 -0.29407,0.04538 -0.49312,0.04538c-0.3015,0 -0.59717,-0.06476 -0.88672,-0.19455c-0.28637,-0.12979 -0.52471,-0.32724 -0.71474,-0.59266c-0.18685,-0.2654 -0.28053,-0.60019 -0.28053,-1.00432zM156.61397,191.17117v-6.94883h1.03137v1.08575h0.0905c0.14491,-0.37096 0.37847,-0.659 0.70121,-0.86408c0.32273,-0.2081 0.71049,-0.31214 1.16275,-0.31214c0.45836,0 0.84001,0.10404 1.1447,0.31214c0.30761,0.20508 0.54726,0.49312 0.71925,0.86408h0.07246c0.17782,-0.35891 0.44482,-0.64391 0.80073,-0.85503c0.35565,-0.21413 0.78242,-0.32119 1.28006,-0.32119c0.62132,0 1.12957,0.19452 1.52476,0.58358c0.39492,0.38606 0.59266,0.98774 0.59266,1.80508v4.65065h-1.06773v-4.65065c0,-0.51271 -0.14014,-0.87916 -0.42067,-1.09935c-0.28053,-0.22016 -0.6107,-0.33025 -0.99077,-0.33025c-0.48861,0 -0.86709,0.14778 -1.13568,0.44336c-0.26832,0.29253 -0.40262,0.66351 -0.40262,1.11287v4.52399h-1.08578v-4.75923c0,-0.39511 -0.12819,-0.71328 -0.38431,-0.95457c-0.25638,-0.24431 -0.58682,-0.36645 -0.99077,-0.36645c-0.27762,0 -0.53692,0.07389 -0.77817,0.22167c-0.23834,0.1478 -0.43128,0.35288 -0.57912,0.61527c-0.14465,0.25938 -0.2171,0.55948 -0.2171,0.90029v4.34301zM170.50934,191.31583c-0.62716,0 -1.17761,-0.14915 -1.6511,-0.44774c-0.47057,-0.29859 -0.83842,-0.71633 -1.10383,-1.25314c-0.26248,-0.53687 -0.3936,-1.16418 -0.3936,-1.88197c0,-0.72384 0.13111,-1.3557 0.3936,-1.89557c0.2654,-0.53986 0.63326,-0.95908 1.10383,-1.25765c0.47349,-0.29859 1.02394,-0.44788 1.6511,-0.44788c0.62742,0 1.17628,0.14929 1.64685,0.44788c0.47349,0.29859 0.84134,0.71779 1.10383,1.25765c0.2654,0.53986 0.39811,1.17172 0.39811,1.89557c0,0.71779 -0.13271,1.34511 -0.39811,1.88197c-0.26248,0.53681 -0.63034,0.95457 -1.10383,1.25314c-0.47057,0.29859 -1.01943,0.44774 -1.64685,0.44774zM170.50934,190.3569c0.47668,0 0.86868,-0.12209 1.17628,-0.3665c0.30761,-0.24428 0.53533,-0.56547 0.68316,-0.96358c0.14783,-0.39811 0.22161,-0.82939 0.22161,-1.29386c0,-0.46446 -0.07379,-0.89727 -0.22161,-1.2984c-0.14783,-0.40114 -0.37555,-0.72533 -0.68316,-0.97266c-0.30761,-0.24731 -0.69961,-0.37096 -1.17628,-0.37096c-0.47641,0 -0.86868,0.12365 -1.17628,0.37096c-0.30761,0.24734 -0.53533,0.57153 -0.68316,0.97266c-0.14757,0.40114 -0.22161,0.83393 -0.22161,1.2984c0,0.46446 0.07405,0.89575 0.22161,1.29386c0.14783,0.39811 0.37555,0.7193 0.68316,0.96358c0.30761,0.24442 0.69988,0.3665 1.17628,0.3665zM180.20996,185.77858l-0.95918,0.27144c-0.06025,-0.15983 -0.14915,-0.31517 -0.26673,-0.46595c-0.11466,-0.15383 -0.27151,-0.28051 -0.47057,-0.38003c-0.19906,-0.09953 -0.45385,-0.14929 -0.76464,-0.14929c-0.42519,0 -0.7795,0.09804 -1.06322,0.29407c-0.28027,0.19303 -0.42067,0.43882 -0.42067,0.73741c0,0.2654 0.09661,0.47503 0.28956,0.62883c0.19295,0.15383 0.49472,0.282 0.90477,0.38454l1.03164,0.25333c0.62132,0.1508 1.08419,0.38152 1.38888,0.69218c0.30442,0.30763 0.45676,0.70423 0.45676,1.18979c0,0.39811 -0.11466,0.75402 -0.3437,1.0676c-0.22639,0.31371 -0.54302,0.56107 -0.95015,0.74208c-0.40714,0.18101 -0.88062,0.27124 -1.42046,0.27124c-0.7089,0 -1.29545,-0.15367 -1.75991,-0.46128c-0.46446,-0.30761 -0.75854,-0.75707 -0.88221,-1.34819l1.01359,-0.25336c0.09634,0.37398 0.27894,0.65447 0.54726,0.84148c0.27151,0.18706 0.62583,0.28048 1.06322,0.28048c0.49764,0 0.89256,-0.10563 1.18531,-0.31668c0.2954,-0.21413 0.44323,-0.47049 0.44323,-0.76907c0,-0.24128 -0.0844,-0.44336 -0.2532,-0.60621c-0.16906,-0.16588 -0.42836,-0.28953 -0.77817,-0.37096l-1.15824,-0.27145c-0.63645,-0.15078 -1.10383,-0.38452 -1.40241,-0.70121c-0.29567,-0.31968 -0.44323,-0.7193 -0.44323,-1.19884c0,-0.39209 0.10988,-0.73892 0.33016,-1.04053c0.22321,-0.30161 0.5263,-0.53835 0.90928,-0.71025c0.38617,-0.17193 0.8233,-0.25787 1.31191,-0.25787c0.68767,0 1.2275,0.1508 1.61952,0.45239c0.39519,0.30161 0.67573,0.69972 0.8416,1.19433zM181.94387,193.77694v-9.55459h1.03137v1.10386h0.1266c0.07856,-0.12065 0.18712,-0.27446 0.32565,-0.46146c0.14199,-0.19001 0.34397,-0.35889 0.60645,-0.50669c0.2654,-0.15078 0.62424,-0.22618 1.07649,-0.22618c0.58523,0 1.10091,0.14626 1.54732,0.43882c0.44641,0.29256 0.79463,0.70726 1.04491,1.2441c0.25054,0.53684 0.37555,1.1702 0.37555,1.90008c0,0.73589 -0.12501,1.37377 -0.37555,1.91363c-0.25028,0.53678 -0.59717,0.95294 -1.0404,1.24861c-0.44323,0.29248 -0.95467,0.43871 -1.53352,0.43871c-0.44641,0 -0.80392,-0.07379 -1.07224,-0.22161c-0.26859,-0.15075 -0.47508,-0.32114 -0.61972,-0.51117c-0.14491,-0.19295 -0.25638,-0.35273 -0.33494,-0.47951h-0.0905v3.67342zM182.99328,187.69676c0,0.52478 0.07697,0.98774 0.23064,1.38885c0.15393,0.39811 0.37873,0.71028 0.67413,0.93649c0.29567,0.22308 0.65742,0.33481 1.08578,0.33481c0.44641,0 0.81878,-0.11758 1.11736,-0.35291c0.30177,-0.23828 0.5279,-0.55797 0.67864,-0.9591c0.15393,-0.40413 0.23064,-0.85352 0.23064,-1.34814c0,-0.48859 -0.07538,-0.92893 -0.22613,-1.32101c-0.14783,-0.39508 -0.37237,-0.70726 -0.67413,-0.93646c-0.29859,-0.23223 -0.67387,-0.34834 -1.12638,-0.34834c-0.4342,0 -0.79914,0.11009 -1.09481,0.33025c-0.29567,0.21716 -0.51861,0.52176 -0.66962,0.91385c-0.15075,0.38906 -0.22613,0.84296 -0.22613,1.36172zM190.77449,186.99101v4.18016h-1.06746v-9.26511h1.06746v3.40204h0.0905c0.16296,-0.35891 0.40714,-0.64391 0.73305,-0.85503c0.32857,-0.21413 0.76597,-0.32119 1.31191,-0.32119c0.47349,0 0.88806,0.09499 1.24396,0.28499c0.35591,0.187 0.63194,0.47503 0.82807,0.86408c0.19906,0.38606 0.29859,0.87765 0.29859,1.47481v4.41541h-1.06773v-4.34301c0,-0.55194 -0.14332,-0.97869 -0.4297,-1.2803c-0.28372,-0.30461 -0.67732,-0.45692 -1.18079,-0.45692c-0.35007,0 -0.66351,0.07389 -0.94113,0.22167c-0.27443,0.1478 -0.49153,0.36345 -0.65131,0.64693c-0.15685,0.28351 -0.23542,0.62734 -0.23542,1.03147zM200.14707,191.31583c-0.66962,0 -1.24715,-0.14757 -1.73258,-0.44323c-0.48251,-0.29859 -0.85514,-0.71474 -1.11736,-1.24861c-0.25957,-0.53687 -0.38909,-1.16116 -0.38909,-1.87295c0,-0.71177 0.12952,-1.33908 0.38909,-1.88197c0.26223,-0.54589 0.62716,-0.97115 1.09481,-1.27576c0.4703,-0.30763 1.01916,-0.46143 1.64658,-0.46143c0.36202,0 0.71925,0.0603 1.07224,0.18095c0.35273,0.12062 0.67413,0.31668 0.96369,0.58812c0.28929,0.26843 0.5202,0.62432 0.69218,1.06766c0.17172,0.44336 0.25771,0.98925 0.25771,1.6377v0.45239h-5.35644v-0.92288h4.27066c0,-0.39209 -0.0783,-0.74194 -0.23515,-1.04958c-0.15393,-0.30763 -0.37395,-0.55042 -0.66059,-0.72836c-0.28345,-0.17795 -0.61813,-0.26692 -1.0043,-0.26692c-0.42519,0 -0.7933,0.10555 -1.10383,0.31668c-0.30761,0.2081 -0.54435,0.47954 -0.71023,0.81432c-0.16588,0.33476 -0.24896,0.69367 -0.24896,1.0767v0.61527c0,0.52477 0.0905,0.96964 0.27151,1.33457c0.18393,0.36191 0.43898,0.63788 0.76464,0.82788c0.32565,0.18712 0.70413,0.28053 1.13541,0.28053c0.28053,0 0.534,-0.03928 0.76013,-0.11758c0.22905,-0.08148 0.42677,-0.20216 0.59266,-0.36202c0.16588,-0.16286 0.29407,-0.36494 0.38457,-0.60621l1.03137,0.28953c-0.10855,0.34986 -0.29115,0.65746 -0.54726,0.92288c-0.25638,0.26248 -0.57328,0.46738 -0.95015,0.61521c-0.37687,0.14491 -0.80073,0.2171 -1.2713,0.2171zM204.64837,191.17117v-6.94883h1.03164v1.04955h0.07246c0.1266,-0.34381 0.35565,-0.6228 0.6874,-0.83693c0.33176,-0.21413 0.70598,-0.32119 1.12214,-0.32119c0.0783,0 0.17623,0.00151 0.29407,0.00451c0.11758,0.00303 0.20648,0.00753 0.26673,0.01359v1.08575c-0.03609,-0.00905 -0.11917,-0.02261 -0.24869,-0.04071c-0.1266,-0.02113 -0.26089,-0.03166 -0.40262,-0.03166c-0.33786,0 -0.63937,0.07087 -0.90477,0.21262c-0.26248,0.13873 -0.47057,0.33176 -0.6245,0.57906c-0.15075,0.24431 -0.22613,0.52327 -0.22613,0.83693v4.39732zM212.09037,191.31583c-0.66962,0 -1.24715,-0.14757 -1.73258,-0.44323c-0.48251,-0.29859 -0.85514,-0.71474 -1.11736,-1.24861c-0.25957,-0.53687 -0.38909,-1.16116 -0.38909,-1.87295c0,-0.71177 0.12952,-1.33908 0.38909,-1.88197c0.26223,-0.54589 0.62716,-0.97115 1.09481,-1.27576c0.4703,-0.30763 1.01916,-0.46143 1.64658,-0.46143c0.36202,0 0.71925,0.0603 1.07224,0.18095c0.35273,0.12062 0.67413,0.31668 0.96369,0.58812c0.28929,0.26843 0.5202,0.62432 0.69218,1.06766c0.17172,0.44336 0.25771,0.98925 0.25771,1.6377v0.45239h-5.35644v-0.92288h4.27066c0,-0.39209 -0.0783,-0.74194 -0.23515,-1.04958c-0.15393,-0.30763 -0.37395,-0.55042 -0.66059,-0.72836c-0.28345,-0.17795 -0.61813,-0.26692 -1.0043,-0.26692c-0.42519,0 -0.7933,0.10555 -1.10383,0.31668c-0.30761,0.2081 -0.54435,0.47954 -0.71023,0.81432c-0.16588,0.33476 -0.24896,0.69367 -0.24896,1.0767v0.61527c0,0.52477 0.0905,0.96964 0.27151,1.33457c0.18393,0.36191 0.43898,0.63788 0.76464,0.82788c0.32565,0.18712 0.70413,0.28053 1.13541,0.28053c0.28053,0 0.534,-0.03928 0.76013,-0.11758c0.22905,-0.08148 0.42677,-0.20216 0.59266,-0.36202c0.16588,-0.16286 0.29407,-0.36494 0.38457,-0.60621l1.03137,0.28953c-0.10855,0.34986 -0.29115,0.65746 -0.54726,0.92288c-0.25638,0.26248 -0.57328,0.46738 -0.95015,0.61521c-0.37687,0.14491 -0.80073,0.2171 -1.2713,0.2171zM222.79875,191.31583c-0.57912,0 -1.09029,-0.14624 -1.53379,-0.43871c-0.44323,-0.29567 -0.79011,-0.71182 -1.0404,-1.24861c-0.25028,-0.53986 -0.37555,-1.17774 -0.37555,-1.91363c0,-0.72987 0.12527,-1.36324 0.37555,-1.90008c0.25028,-0.53684 0.59875,-0.95154 1.04491,-1.2441c0.44641,-0.29256 0.9621,-0.43882 1.54732,-0.43882c0.45252,0 0.80976,0.07541 1.07224,0.22618c0.2654,0.1478 0.46738,0.31668 0.60619,0.50669c0.14173,0.187 0.25188,0.34081 0.33016,0.46146h0.0905v-3.42014h1.06773v9.26511h-1.03164v-1.06766h-0.1266c-0.0783,0.12678 -0.19003,0.28656 -0.33468,0.47951c-0.14491,0.19003 -0.3514,0.36043 -0.61972,0.51117c-0.26859,0.14783 -0.62583,0.22161 -1.07224,0.22161zM222.94339,190.3569c0.42836,0 0.79038,-0.11174 1.08578,-0.33481c0.29567,-0.22621 0.5202,-0.53838 0.67413,-0.93649c0.15367,-0.40111 0.23064,-0.86406 0.23064,-1.38885c0,-0.51876 -0.07538,-0.97266 -0.22613,-1.36172c-0.15075,-0.39209 -0.37395,-0.6967 -0.66962,-0.91385c-0.2954,-0.22016 -0.66034,-0.33025 -1.09481,-0.33025c-0.45225,0 -0.82939,0.11611 -1.1309,0.34834c-0.29859,0.2292 -0.52338,0.54138 -0.67413,0.93646c-0.14783,0.39209 -0.22161,0.83242 -0.22161,1.32101c0,0.49461 0.07538,0.944 0.22613,1.34814c0.15393,0.40114 0.38006,0.72081 0.67864,0.9591c0.3015,0.23534 0.67546,0.35291 1.12187,0.35291zM232.46646,188.33012v-4.10779h1.06773v6.94883h-1.06773v-1.17623h-0.07246c-0.16269,0.35294 -0.41616,0.65285 -0.75986,0.9002c-0.34397,0.24444 -0.77817,0.36653 -1.30315,0.36653c-0.4342,0 -0.82011,-0.09501 -1.15797,-0.28505c-0.33786,-0.19295 -0.60327,-0.48251 -0.79622,-0.8686c-0.19295,-0.38906 -0.28956,-0.87916 -0.28956,-1.4703v-4.41539h1.06773v4.34301c0,0.50669 0.14173,0.91082 0.42519,1.21243c0.28637,0.30161 0.65131,0.45252 1.09481,0.45252c0.2654,0 0.53533,-0.06795 0.80976,-0.2037c0.27762,-0.13573 0.50985,-0.34383 0.6967,-0.62432c0.19003,-0.28048 0.28505,-0.63788 0.28505,-1.07216zM235.48971,191.17117v-6.94883h1.03137v1.04955h0.07246c0.1266,-0.34381 0.35591,-0.6228 0.68767,-0.83693c0.33176,-0.21413 0.70572,-0.32119 1.12187,-0.32119c0.0783,0 0.1765,0.00151 0.29407,0.00451c0.11758,0.00303 0.20648,0.00753 0.26673,0.01359v1.08575c-0.03609,-0.00905 -0.1189,-0.02261 -0.24869,-0.04071c-0.1266,-0.02113 -0.26089,-0.03166 -0.40262,-0.03166c-0.33786,0 -0.63937,0.07087 -0.90477,0.21262c-0.26248,0.13873 -0.47057,0.33176 -0.62424,0.57906c-0.15101,0.24431 -0.22639,0.52327 -0.22639,0.83693v4.39732zM240.22961,191.17117v-6.94883h1.06773v6.94883zM240.77236,183.06419c-0.20808,0 -0.38749,-0.07087 -0.53825,-0.21262c-0.14783,-0.14175 -0.22161,-0.31214 -0.22161,-0.5112c0,-0.19906 0.07379,-0.36947 0.22161,-0.51123c0.15075,-0.14175 0.33016,-0.21262 0.53825,-0.21262c0.20808,0 0.38617,0.07087 0.534,0.21262c0.15075,0.14175 0.22613,0.31217 0.22613,0.51123c0,0.19906 -0.07538,0.36945 -0.22613,0.5112c-0.14783,0.14175 -0.32592,0.21262 -0.534,0.21262zM244.32032,186.99101v4.18016h-1.06746v-6.94883h1.03137v1.08575h0.0905c0.16269,-0.35288 0.41005,-0.63636 0.74181,-0.85052c0.33176,-0.21713 0.76013,-0.32571 1.28483,-0.32571c0.47057,0 0.88221,0.0965 1.2352,0.28953c0.35273,0.19001 0.62716,0.47954 0.8233,0.8686c0.19613,0.38606 0.29407,0.87465 0.29407,1.46577v4.41541h-1.06773v-4.34301c0,-0.54591 -0.14173,-0.97115 -0.42519,-1.27579c-0.28345,-0.30761 -0.67254,-0.46143 -1.16726,-0.46143c-0.34078,0 -0.64547,0.07389 -0.9138,0.22167c-0.2654,0.1478 -0.47508,0.36345 -0.62875,0.64693c-0.15393,0.28351 -0.23091,0.62734 -0.23091,1.03147zM253.50977,193.92185c-0.51569,0 -0.95918,-0.06635 -1.32996,-0.19906c-0.37103,-0.12979 -0.68024,-0.30177 -0.9276,-0.51595c-0.24418,-0.211 -0.43871,-0.43712 -0.58363,-0.67838l0.85063,-0.59717c0.09661,0.1266 0.21869,0.27124 0.36653,0.4342c0.14757,0.16588 0.34981,0.3092 0.60619,0.4297c0.2593,0.12368 0.5985,0.18552 1.01783,0.18552c0.56107,0 1.02394,-0.13563 1.38888,-0.40714c0.36494,-0.27151 0.54726,-0.6967 0.54726,-1.27581v-1.4114h-0.0905c-0.0783,0.12667 -0.18977,0.28343 -0.33468,0.47054c-0.14173,0.18393 -0.34689,0.34821 -0.61521,0.49312c-0.2654,0.14173 -0.62424,0.21259 -1.07676,0.21259c-0.56107,0 -1.06454,-0.13271 -1.51096,-0.39811c-0.44349,-0.2654 -0.79463,-0.65147 -1.05419,-1.15816c-0.25638,-0.50669 -0.38457,-1.12195 -0.38457,-1.8458c0,-0.71177 0.12527,-1.33155 0.37555,-1.85936c0.25028,-0.53082 0.59875,-0.94097 1.04518,-1.23051c0.44641,-0.29256 0.9621,-0.43882 1.54706,-0.43882c0.45252,0 0.81135,0.07541 1.07676,0.22618c0.26832,0.1478 0.47349,0.31668 0.61521,0.50669c0.14491,0.187 0.25638,0.34081 0.33494,0.46146h0.10855v-1.10386h1.03137v7.14789c0,0.59717 -0.13563,1.08286 -0.40714,1.45682c-0.26832,0.37687 -0.63034,0.6529 -1.08578,0.82781c-0.45225,0.17782 -0.95599,0.267 -1.51096,0.267zM253.47367,190.10352c0.42811,0 0.79011,-0.09801 1.08551,-0.29407c0.29567,-0.19603 0.52047,-0.47803 0.67413,-0.84599c0.15393,-0.36793 0.23091,-0.80827 0.23091,-1.32101c0,-0.50064 -0.07565,-0.94248 -0.22639,-1.32552c-0.15075,-0.38303 -0.37395,-0.6831 -0.66935,-0.90026c-0.29567,-0.21716 -0.66059,-0.32573 -1.09481,-0.32573c-0.45252,0 -0.82939,0.1146 -1.13116,0.34383c-0.29859,0.2292 -0.52312,0.53684 -0.67413,0.92288c-0.14757,0.38606 -0.22161,0.81432 -0.22161,1.28481c0,0.48256 0.07538,0.90934 0.22613,1.2803c0.15393,0.36796 0.38006,0.65749 0.67864,0.8686c0.30177,0.2081 0.67573,0.31217 1.12214,0.31217zM262.0511,193.77694v-9.55459h1.03137v1.10386h0.1266c0.07856,-0.12065 0.18712,-0.27446 0.32592,-0.46146c0.14173,-0.19001 0.3437,-0.35889 0.60619,-0.50669c0.2654,-0.15078 0.62424,-0.22618 1.07676,-0.22618c0.58496,0 1.10064,0.14626 1.54706,0.43882c0.44641,0.29256 0.79463,0.70726 1.04518,1.2441c0.25028,0.53684 0.37529,1.1702 0.37529,1.90008c0,0.73589 -0.12501,1.37377 -0.37529,1.91363c-0.25054,0.53678 -0.59717,0.95294 -1.04066,1.24861c-0.44323,0.29248 -0.9544,0.43871 -1.53352,0.43871c-0.44641,0 -0.80392,-0.07379 -1.07224,-0.22161c-0.26832,-0.15075 -0.47508,-0.32114 -0.61972,-0.51117c-0.14491,-0.19295 -0.25638,-0.35273 -0.33494,-0.47951h-0.0905v3.67342zM263.10051,187.69676c0,0.52478 0.07697,0.98774 0.23091,1.38885c0.15367,0.39811 0.37847,0.71028 0.67387,0.93649c0.29567,0.22308 0.65768,0.33481 1.08578,0.33481c0.44641,0 0.81878,-0.11758 1.11736,-0.35291c0.30177,-0.23828 0.5279,-0.55797 0.67864,-0.9591c0.15393,-0.40413 0.23091,-0.85352 0.23091,-1.34814c0,-0.48859 -0.07538,-0.92893 -0.22639,-1.32101c-0.14757,-0.39508 -0.37237,-0.70726 -0.67387,-0.93646c-0.29859,-0.23223 -0.67413,-0.34834 -1.12665,-0.34834c-0.4342,0 -0.79914,0.11009 -1.09481,0.33025c-0.2954,0.21716 -0.51861,0.52176 -0.66935,0.91385c-0.15101,0.38906 -0.22639,0.84296 -0.22639,1.36172zM270.88172,186.99101v4.18016h-1.06746v-9.26511h1.06746v3.40204h0.0905c0.16296,-0.35891 0.40714,-0.64391 0.73305,-0.85503c0.32857,-0.21413 0.76597,-0.32119 1.31191,-0.32119c0.47349,0 0.88806,0.09499 1.24396,0.28499c0.35591,0.187 0.63194,0.47503 0.82807,0.86408c0.19906,0.38606 0.29859,0.87765 0.29859,1.47481v4.41541h-1.06773v-4.34301c0,-0.55194 -0.14332,-0.97869 -0.4297,-1.2803c-0.28372,-0.30461 -0.67705,-0.45692 -1.18079,-0.45692c-0.34981,0 -0.66351,0.07389 -0.94113,0.22167c-0.27443,0.1478 -0.49153,0.36345 -0.65131,0.64693c-0.15685,0.28351 -0.23542,0.62734 -0.23542,1.03147zM280.16379,191.31583c-0.62716,0 -1.17761,-0.14915 -1.6511,-0.44774c-0.47057,-0.29859 -0.83842,-0.71633 -1.10383,-1.25314c-0.26248,-0.53687 -0.3936,-1.16418 -0.3936,-1.88197c0,-0.72384 0.13111,-1.3557 0.3936,-1.89557c0.2654,-0.53986 0.63326,-0.95908 1.10383,-1.25765c0.47349,-0.29859 1.02394,-0.44788 1.6511,-0.44788c0.62742,0 1.17628,0.14929 1.64685,0.44788c0.47349,0.29859 0.84134,0.71779 1.10383,1.25765c0.2654,0.53986 0.39811,1.17172 0.39811,1.89557c0,0.71779 -0.13271,1.34511 -0.39811,1.88197c-0.26248,0.53681 -0.63034,0.95457 -1.10383,1.25314c-0.47057,0.29859 -1.01943,0.44774 -1.64685,0.44774zM280.16379,190.3569c0.47668,0 0.86868,-0.12209 1.17628,-0.3665c0.30761,-0.24428 0.53533,-0.56547 0.68316,-0.96358c0.14783,-0.39811 0.22161,-0.82939 0.22161,-1.29386c0,-0.46446 -0.07379,-0.89727 -0.22161,-1.2984c-0.14783,-0.40114 -0.37555,-0.72533 -0.68316,-0.97266c-0.30761,-0.24731 -0.69961,-0.37096 -1.17628,-0.37096c-0.47641,0 -0.86841,0.12365 -1.17601,0.37096c-0.30761,0.24734 -0.53533,0.57153 -0.68316,0.97266c-0.14783,0.40114 -0.22161,0.83393 -0.22161,1.2984c0,0.46446 0.07379,0.89575 0.22161,1.29386c0.14783,0.39811 0.37555,0.7193 0.68316,0.96358c0.30761,0.24442 0.69961,0.3665 1.17601,0.3665zM287.96437,184.22235v0.9048h-3.60104v-0.9048zM285.41275,182.55753h1.06773v6.62309c0,0.30161 0.04379,0.52779 0.13111,0.67859c0.0905,0.14778 0.20516,0.24731 0.34397,0.29864c0.14173,0.0483 0.29115,0.07246 0.44774,0.07246c0.11784,0 0.21418,-0.00611 0.28956,-0.01832c0.07538,-0.01486 0.13589,-0.02708 0.18101,-0.03609l0.2171,0.95918c-0.07219,0.02708 -0.17331,0.05414 -0.3031,0.08122c-0.12952,0.03025 -0.29407,0.04538 -0.49312,0.04538c-0.3015,0 -0.59717,-0.06476 -0.88672,-0.19455c-0.28637,-0.12979 -0.52471,-0.32724 -0.71474,-0.59266c-0.18685,-0.2654 -0.28053,-0.60019 -0.28053,-1.00432zM292.31863,191.31583c-0.62716,0 -1.17761,-0.14915 -1.6511,-0.44774c-0.47057,-0.29859 -0.83842,-0.71633 -1.10383,-1.25314c-0.26248,-0.53687 -0.3936,-1.16418 -0.3936,-1.88197c0,-0.72384 0.13111,-1.3557 0.3936,-1.89557c0.2654,-0.53986 0.63326,-0.95908 1.10383,-1.25765c0.47349,-0.29859 1.02394,-0.44788 1.6511,-0.44788c0.62742,0 1.17628,0.14929 1.64685,0.44788c0.47349,0.29859 0.84134,0.71779 1.10383,1.25765c0.2654,0.53986 0.39811,1.17172 0.39811,1.89557c0,0.71779 -0.13271,1.34511 -0.39811,1.88197c-0.26248,0.53681 -0.63034,0.95457 -1.10383,1.25314c-0.47057,0.29859 -1.01943,0.44774 -1.64685,0.44774zM292.31863,190.3569c0.47668,0 0.86868,-0.12209 1.17628,-0.3665c0.30761,-0.24428 0.53533,-0.56547 0.68316,-0.96358c0.14783,-0.39811 0.22161,-0.82939 0.22161,-1.29386c0,-0.46446 -0.07379,-0.89727 -0.22161,-1.2984c-0.14783,-0.40114 -0.37555,-0.72533 -0.68316,-0.97266c-0.30761,-0.24731 -0.69961,-0.37096 -1.17628,-0.37096c-0.47641,0 -0.86841,0.12365 -1.17628,0.37096c-0.30761,0.24734 -0.53533,0.57153 -0.68289,0.97266c-0.14783,0.40114 -0.22188,0.83393 -0.22188,1.2984c0,0.46446 0.07405,0.89575 0.22188,1.29386c0.14757,0.39811 0.37529,0.7193 0.68289,0.96358c0.30787,0.24442 0.69988,0.3665 1.17628,0.3665zM302.01926,185.77858l-0.95918,0.27144c-0.06025,-0.15983 -0.14915,-0.31517 -0.26673,-0.46595c-0.11466,-0.15383 -0.27151,-0.28051 -0.47057,-0.38003c-0.19906,-0.09953 -0.45385,-0.14929 -0.76464,-0.14929c-0.42519,0 -0.7795,0.09804 -1.06295,0.29407c-0.28053,0.19303 -0.42093,0.43882 -0.42093,0.73741c0,0.2654 0.09661,0.47503 0.28956,0.62883c0.19321,0.15383 0.49472,0.282 0.90477,0.38454l1.03164,0.25333c0.62132,0.1508 1.08419,0.38152 1.38888,0.69218c0.30442,0.30763 0.45676,0.70423 0.45676,1.18979c0,0.39811 -0.11466,0.75402 -0.3437,1.0676c-0.22613,0.31371 -0.54302,0.56107 -0.95015,0.74208c-0.40714,0.18101 -0.88062,0.27124 -1.42046,0.27124c-0.70864,0 -1.29545,-0.15367 -1.75991,-0.46128c-0.46446,-0.30761 -0.75854,-0.75707 -0.88221,-1.34819l1.01359,-0.25336c0.09634,0.37398 0.27894,0.65447 0.54726,0.84148c0.27151,0.18706 0.62583,0.28048 1.06322,0.28048c0.49764,0 0.89256,-0.10563 1.18531,-0.31668c0.2954,-0.21413 0.44323,-0.47049 0.44323,-0.76907c0,-0.24128 -0.0844,-0.44336 -0.2532,-0.60621c-0.16906,-0.16588 -0.42836,-0.28953 -0.77817,-0.37096l-1.15824,-0.27145c-0.63645,-0.15078 -1.10383,-0.38452 -1.40241,-0.70121c-0.29567,-0.31968 -0.44323,-0.7193 -0.44323,-1.19884c0,-0.39209 0.10988,-0.73892 0.33016,-1.04053c0.22321,-0.30161 0.5263,-0.53835 0.90928,-0.71025c0.38617,-0.17193 0.8233,-0.25787 1.31191,-0.25787c0.68767,0 1.2275,0.1508 1.61977,0.45239c0.39492,0.30161 0.67546,0.69972 0.84134,1.19433zM304.44082,193.77694c-0.18101,0 -0.34238,-0.01513 -0.4841,-0.04512c-0.14173,-0.02733 -0.23993,-0.05441 -0.29407,-0.08148l0.27151,-0.94113c0.2593,0.06635 0.48835,0.0905 0.6874,0.07246c0.19906,-0.01805 0.37555,-0.10696 0.52949,-0.267c0.15685,-0.15659 0.29991,-0.41165 0.4297,-0.76437l0.19906,-0.54302l-2.56967,-6.98493h1.15824l1.91809,5.53734h0.07246l1.91809,-5.53734h1.15824l-2.94973,7.96215c-0.13271,0.35883 -0.29699,0.65608 -0.49312,0.89123c-0.19587,0.23834 -0.42359,0.41483 -0.68316,0.52922c-0.25638,0.11466 -0.54568,0.17198 -0.86841,0.17198zM311.91203,186.99101v4.18016h-1.06773v-6.94883h1.03164v1.08575h0.0905c0.16269,-0.35288 0.41005,-0.63636 0.74181,-0.85052c0.33176,-0.21713 0.76013,-0.32571 1.28483,-0.32571c0.47057,0 0.88221,0.0965 1.23493,0.28953c0.35299,0.19001 0.62742,0.47954 0.82355,0.8686c0.19587,0.38606 0.29407,0.87465 0.29407,1.46577v4.41541h-1.06773v-4.34301c0,-0.54591 -0.14173,-0.97115 -0.42519,-1.27579c-0.28345,-0.30761 -0.67254,-0.46143 -1.16726,-0.46143c-0.34078,0 -0.64547,0.07389 -0.9138,0.22167c-0.2654,0.1478 -0.47508,0.36345 -0.62902,0.64693c-0.15367,0.28351 -0.23064,0.62734 -0.23064,1.03147zM321.31857,184.22235v0.9048h-3.60104v-0.9048zM318.76695,182.55753h1.06773v6.62309c0,0.30161 0.04379,0.52779 0.13111,0.67859c0.0905,0.14778 0.20516,0.24731 0.34397,0.29864c0.14173,0.0483 0.29089,0.07246 0.44774,0.07246c0.11758,0 0.21418,-0.00611 0.28956,-0.01832c0.07538,-0.01486 0.13589,-0.02708 0.18101,-0.03609l0.2171,0.95918c-0.07246,0.02708 -0.17331,0.05414 -0.3031,0.08122c-0.12952,0.03025 -0.29407,0.04538 -0.49312,0.04538c-0.3015,0 -0.59717,-0.06476 -0.88672,-0.19455c-0.28637,-0.12979 -0.52471,-0.32724 -0.71474,-0.59266c-0.18685,-0.2654 -0.28053,-0.60019 -0.28053,-1.00432zM324.14145,186.99101v4.18016h-1.06746v-9.26511h1.06746v3.40204h0.0905c0.16296,-0.35891 0.40714,-0.64391 0.73305,-0.85503c0.32857,-0.21413 0.76597,-0.32119 1.31191,-0.32119c0.47349,0 0.88806,0.09499 1.24396,0.28499c0.35591,0.187 0.63194,0.47503 0.82807,0.86408c0.19906,0.38606 0.29859,0.87765 0.29859,1.47481v4.41541h-1.06773v-4.34301c0,-0.55194 -0.14332,-0.97869 -0.4297,-1.2803c-0.28372,-0.30461 -0.67732,-0.45692 -1.18079,-0.45692c-0.35007,0 -0.66351,0.07389 -0.94113,0.22167c-0.27443,0.1478 -0.49153,0.36345 -0.65131,0.64693c-0.15685,0.28351 -0.23542,0.62734 -0.23542,1.03147zM333.51402,191.31583c-0.66962,0 -1.24715,-0.14757 -1.73258,-0.44323c-0.48251,-0.29859 -0.85514,-0.71474 -1.11736,-1.24861c-0.25957,-0.53687 -0.38909,-1.16116 -0.38909,-1.87295c0,-0.71177 0.12952,-1.33908 0.38909,-1.88197c0.26223,-0.54589 0.62716,-0.97115 1.09481,-1.27576c0.4703,-0.30763 1.01916,-0.46143 1.64658,-0.46143c0.36202,0 0.71925,0.0603 1.07224,0.18095c0.35273,0.12062 0.67413,0.31668 0.96369,0.58812c0.28929,0.26843 0.5202,0.62432 0.69218,1.06766c0.17172,0.44336 0.25771,0.98925 0.25771,1.6377v0.45239h-5.35644v-0.92288h4.27066c0,-0.39209 -0.0783,-0.74194 -0.23515,-1.04958c-0.15393,-0.30763 -0.37395,-0.55042 -0.66059,-0.72836c-0.28345,-0.17795 -0.61813,-0.26692 -1.0043,-0.26692c-0.42519,0 -0.7933,0.10555 -1.10383,0.31668c-0.30761,0.2081 -0.54435,0.47954 -0.71023,0.81432c-0.16588,0.33476 -0.24896,0.69367 -0.24896,1.0767v0.61527c0,0.52477 0.0905,0.96964 0.27151,1.33457c0.18393,0.36191 0.43898,0.63788 0.76464,0.82788c0.32565,0.18712 0.70413,0.28053 1.13541,0.28053c0.28053,0 0.534,-0.03928 0.76013,-0.11758c0.22905,-0.08148 0.42677,-0.20216 0.59266,-0.36202c0.16588,-0.16286 0.29407,-0.36494 0.38457,-0.60621l1.03137,0.28953c-0.10855,0.34986 -0.29115,0.65746 -0.54726,0.92288c-0.25638,0.26248 -0.57328,0.46738 -0.95015,0.61521c-0.37687,0.14491 -0.80073,0.2171 -1.2713,0.2171zM342.93756,185.77858l-0.95918,0.27144c-0.06025,-0.15983 -0.14915,-0.31517 -0.26673,-0.46595c-0.11466,-0.15383 -0.27151,-0.28051 -0.47057,-0.38003c-0.19906,-0.09953 -0.45385,-0.14929 -0.76464,-0.14929c-0.42519,0 -0.7795,0.09804 -1.06322,0.29407c-0.28027,0.19303 -0.42067,0.43882 -0.42067,0.73741c0,0.2654 0.09661,0.47503 0.28956,0.62883c0.19295,0.15383 0.49472,0.282 0.90477,0.38454l1.03164,0.25333c0.62132,0.1508 1.08419,0.38152 1.38888,0.69218c0.30442,0.30763 0.45676,0.70423 0.45676,1.18979c0,0.39811 -0.11466,0.75402 -0.3437,1.0676c-0.22639,0.31371 -0.54302,0.56107 -0.95015,0.74208c-0.40714,0.18101 -0.88062,0.27124 -1.42046,0.27124c-0.7089,0 -1.29545,-0.15367 -1.75991,-0.46128c-0.46446,-0.30761 -0.75854,-0.75707 -0.88221,-1.34819l1.01359,-0.25336c0.09634,0.37398 0.27894,0.65447 0.54726,0.84148c0.27151,0.18706 0.62583,0.28048 1.06322,0.28048c0.49764,0 0.89256,-0.10563 1.18531,-0.31668c0.2954,-0.21413 0.44323,-0.47049 0.44323,-0.76907c0,-0.24128 -0.0844,-0.44336 -0.2532,-0.60621c-0.16906,-0.16588 -0.42836,-0.28953 -0.77817,-0.37096l-1.15824,-0.27145c-0.63645,-0.15078 -1.10383,-0.38452 -1.40241,-0.70121c-0.29567,-0.31968 -0.44323,-0.7193 -0.44323,-1.19884c0,-0.39209 0.10988,-0.73892 0.33016,-1.04053c0.22321,-0.30161 0.5263,-0.53835 0.90928,-0.71025c0.38617,-0.17193 0.8233,-0.25787 1.31191,-0.25787c0.68767,0 1.2275,0.1508 1.61952,0.45239c0.39519,0.30161 0.67573,0.69972 0.8416,1.19433zM344.67146,191.17117v-6.94883h1.06746v6.94883zM345.21422,183.06419c-0.20808,0 -0.38749,-0.07087 -0.53825,-0.21262c-0.14783,-0.14175 -0.22188,-0.31214 -0.22188,-0.5112c0,-0.19906 0.07405,-0.36947 0.22188,-0.51123c0.15075,-0.14175 0.33016,-0.21262 0.53825,-0.21262c0.20808,0 0.38617,0.07087 0.53374,0.21262c0.15101,0.14175 0.22639,0.31217 0.22639,0.51123c0,0.19906 -0.07538,0.36945 -0.22639,0.5112c-0.14757,0.14175 -0.32565,0.21262 -0.53374,0.21262zM352.61669,185.77858l-0.95918,0.27144c-0.06025,-0.15983 -0.14915,-0.31517 -0.267,-0.46595c-0.11439,-0.15383 -0.27124,-0.28051 -0.4703,-0.38003c-0.19906,-0.09953 -0.45411,-0.14929 -0.76464,-0.14929c-0.42519,0 -0.77976,0.09804 -1.06322,0.29407c-0.28053,0.19303 -0.42067,0.43882 -0.42067,0.73741c0,0.2654 0.09661,0.47503 0.28956,0.62883c0.19295,0.15383 0.49472,0.282 0.90477,0.38454l1.03137,0.25333c0.62132,0.1508 1.08445,0.38152 1.38888,0.69218c0.30469,0.30763 0.45703,0.70423 0.45703,1.18979c0,0.39811 -0.11466,0.75402 -0.34397,1.0676c-0.22613,0.31371 -0.54276,0.56107 -0.94989,0.74208c-0.40714,0.18101 -0.88062,0.27124 -1.42046,0.27124c-0.7089,0 -1.29545,-0.15367 -1.75991,-0.46128c-0.46446,-0.30761 -0.75854,-0.75707 -0.88221,-1.34819l1.01332,-0.25336c0.09661,0.37398 0.27894,0.65447 0.54753,0.84148c0.27151,0.18706 0.62583,0.28048 1.06295,0.28048c0.49764,0 0.89283,-0.10563 1.18531,-0.31668c0.29567,-0.21413 0.44349,-0.47049 0.44349,-0.76907c0,-0.24128 -0.0844,-0.44336 -0.25346,-0.60621c-0.1688,-0.16588 -0.42811,-0.28953 -0.77817,-0.37096l-1.15797,-0.27145c-0.63645,-0.15078 -1.10383,-0.38452 -1.40241,-0.70121c-0.29567,-0.31968 -0.44349,-0.7193 -0.44349,-1.19884c0,-0.39209 0.11014,-0.73892 0.33043,-1.04053c0.22321,-0.30161 0.5263,-0.53835 0.90928,-0.71025c0.3859,-0.17193 0.8233,-0.25787 1.31191,-0.25787c0.68767,0 1.2275,0.1508 1.61952,0.45239c0.39519,0.30161 0.67573,0.69972 0.8416,1.19433zM355.74371,188.56536v-0.05428c0.00611,-0.57606 0.06635,-1.0345 0.18101,-1.37528c0.11466,-0.34081 0.27762,-0.61678 0.48861,-0.82791c0.211,-0.21111 0.46446,-0.40564 0.76013,-0.58358c0.17782,-0.10858 0.3376,-0.23677 0.47959,-0.38454c0.14173,-0.1508 0.2532,-0.32422 0.33468,-0.52025c0.0844,-0.19606 0.1266,-0.41319 0.1266,-0.65147c0,-0.29556 -0.06927,-0.55192 -0.20808,-0.76907c-0.13881,-0.21716 -0.32433,-0.38454 -0.55656,-0.50215c-0.23223,-0.11763 -0.48994,-0.17644 -0.7734,-0.17644c-0.24736,0 -0.48569,0.05128 -0.71474,0.15381c-0.22931,0.10256 -0.42093,0.26392 -0.57461,0.48408c-0.15393,0.22016 -0.24285,0.5082 -0.267,0.86408h-1.13992c0.02389,-0.51271 0.15659,-0.95154 0.39811,-1.31647c0.24418,-0.36494 0.56531,-0.64393 0.96343,-0.83696c0.4013,-0.193 0.84612,-0.28953 1.33473,-0.28953c0.53082,0 0.99209,0.10558 1.38437,0.31668c0.39492,0.21113 0.69961,0.50067 0.9138,0.8686c0.2171,0.36796 0.32565,0.7872 0.32565,1.25768c0,0.33176 -0.05122,0.63185 -0.15367,0.90026c-0.09979,0.26843 -0.24444,0.5082 -0.43447,0.71933c-0.18685,0.21111 -0.41324,0.39811 -0.67864,0.56097c-0.2654,0.16588 -0.478,0.34081 -0.63777,0.52478c-0.15977,0.18095 -0.27602,0.3966 -0.34848,0.64693c-0.07219,0.25031 -0.11147,0.56248 -0.11758,0.93646v0.05428zM356.32283,191.24363c-0.22321,0 -0.41457,-0.07989 -0.57461,-0.23993c-0.15977,-0.15977 -0.23966,-0.3514 -0.23966,-0.57434c0,-0.22321 0.07989,-0.41483 0.23966,-0.57466c0.16004,-0.15986 0.3514,-0.23976 0.57461,-0.23976c0.22321,0 0.41483,0.07992 0.57461,0.23976c0.15977,0.15983 0.23966,0.35146 0.23966,0.57466c0,0.14757 -0.03768,0.28345 -0.11306,0.40714c-0.07246,0.12368 -0.17039,0.22321 -0.29407,0.29859c-0.12049,0.07219 -0.25638,0.10855 -0.40714,0.10855z"/></g></g></svg>