<svg xmlns="http://www.w3.org/2000/svg" fill="none" viewBox="0 0 139 164" height="164" width="139">
<path fill="#EE6338" d="M0 20C0 8.95431 8.95431 0 20 0H119C130.046 0 139 8.95431 139 20V144C139 155.046 130.046 164 119 164H20C8.95431 164 0 155.046 0 144V20Z"></path>
<path fill="black" d="M36.2102 135.455V150H34.5341V135.455H36.2102ZM43.854 150.227C42.8029 150.227 41.8962 149.995 41.1339 149.531C40.3763 149.062 39.7915 148.409 39.3796 147.571C38.9724 146.728 38.7688 145.748 38.7688 144.631C38.7688 143.513 38.9724 142.528 39.3796 141.676C39.7915 140.819 40.3645 140.152 41.0984 139.673C41.837 139.19 42.6987 138.949 43.6836 138.949C44.2518 138.949 44.8129 139.044 45.3668 139.233C45.9208 139.422 46.4251 139.73 46.8796 140.156C47.3342 140.578 47.6964 141.136 47.9663 141.832C48.2362 142.528 48.3711 143.385 48.3711 144.403V145.114H39.962V143.665H46.6665C46.6665 143.049 46.5434 142.5 46.2972 142.017C46.0558 141.534 45.7101 141.153 45.2603 140.874C44.8152 140.594 44.2897 140.455 43.6836 140.455C43.016 140.455 42.4383 140.62 41.9506 140.952C41.4677 141.278 41.096 141.705 40.8356 142.23C40.5752 142.756 40.445 143.319 40.445 143.92V144.886C40.445 145.71 40.587 146.409 40.8711 146.982C41.1599 147.55 41.56 147.983 42.0714 148.281C42.5827 148.575 43.177 148.722 43.854 148.722C44.2944 148.722 44.6921 148.66 45.0472 148.537C45.4071 148.409 45.7172 148.22 45.9776 147.969C46.238 147.713 46.4393 147.396 46.5813 147.017L48.2006 147.472C48.0302 148.021 47.7437 148.504 47.3413 148.92C46.9388 149.332 46.4416 149.654 45.8498 149.886C45.2579 150.114 44.5927 150.227 43.854 150.227ZM55.6651 139.091V140.511H50.0117V139.091H55.6651ZM51.6594 136.477H53.3356V146.875C53.3356 147.348 53.4042 147.704 53.5415 147.94C53.6836 148.172 53.8635 148.329 54.0813 148.409C54.3039 148.485 54.5382 148.523 54.7844 148.523C54.9691 148.523 55.1206 148.513 55.239 148.494C55.3574 148.471 55.4521 148.452 55.5231 148.438L55.864 149.943C55.7504 149.986 55.5917 150.028 55.3881 150.071C55.1845 150.118 54.9265 150.142 54.614 150.142C54.1405 150.142 53.6765 150.04 53.2219 149.837C52.7721 149.633 52.3981 149.323 52.0998 148.906C51.8062 148.49 51.6594 147.964 51.6594 147.33V136.477ZM62.9308 139.091V140.511H57.2773V139.091H62.9308ZM58.9251 136.477H60.6012V146.875C60.6012 147.348 60.6699 147.704 60.8072 147.94C60.9492 148.172 61.1291 148.329 61.3469 148.409C61.5695 148.485 61.8039 148.523 62.0501 148.523C62.2347 148.523 62.3862 148.513 62.5046 148.494C62.623 148.471 62.7177 148.452 62.7887 148.438L63.1296 149.943C63.016 149.986 62.8574 150.028 62.6538 150.071C62.4502 150.118 62.1921 150.142 61.8796 150.142C61.4061 150.142 60.9421 150.04 60.4876 149.837C60.0378 149.633 59.6637 149.323 59.3654 148.906C59.0719 148.49 58.9251 147.964 58.9251 147.33V136.477ZM69.9087 150.227C68.8576 150.227 67.9509 149.995 67.1886 149.531C66.431 149.062 65.8462 148.409 65.4343 147.571C65.0271 146.728 64.8235 145.748 64.8235 144.631C64.8235 143.513 65.0271 142.528 65.4343 141.676C65.8462 140.819 66.4192 140.152 67.1531 139.673C67.8917 139.19 68.7534 138.949 69.7383 138.949C70.3065 138.949 70.8675 139.044 71.4215 139.233C71.9755 139.422 72.4798 139.73 72.9343 140.156C73.3888 140.578 73.7511 141.136 74.021 141.832C74.2908 142.528 74.4258 143.385 74.4258 144.403V145.114H66.0167V143.665H72.7212C72.7212 143.049 72.5981 142.5 72.3519 142.017C72.1104 141.534 71.7648 141.153 71.315 140.874C70.8699 140.594 70.3443 140.455 69.7383 140.455C69.0707 140.455 68.493 140.62 68.0053 140.952C67.5224 141.278 67.1507 141.705 66.8903 142.23C66.6299 142.756 66.4996 143.319 66.4996 143.92V144.886C66.4996 145.71 66.6417 146.409 66.9258 146.982C67.2146 147.55 67.6147 147.983 68.1261 148.281C68.6374 148.575 69.2317 148.722 69.9087 148.722C70.3491 148.722 70.7468 148.66 71.1019 148.537C71.4618 148.409 71.7719 148.22 72.0323 147.969C72.2927 147.713 72.494 147.396 72.636 147.017L74.2553 147.472C74.0849 148.021 73.7984 148.504 73.396 148.92C72.9935 149.332 72.4963 149.654 71.9045 149.886C71.3126 150.114 70.6474 150.227 69.9087 150.227ZM76.9755 150V139.091H78.5948V140.739H78.7085C78.9073 140.199 79.2672 139.761 79.788 139.425C80.3088 139.089 80.896 138.92 81.5494 138.92C81.6725 138.92 81.8263 138.923 82.011 138.928C82.1957 138.932 82.3353 138.939 82.43 138.949V140.653C82.3732 140.639 82.243 140.618 82.0394 140.589C81.8406 140.556 81.6299 140.54 81.4073 140.54C80.877 140.54 80.4035 140.651 79.9869 140.874C79.5749 141.091 79.2482 141.394 79.0067 141.783C78.77 142.166 78.6516 142.604 78.6516 143.097V150H76.9755ZM90.2692 150V135.455H95.3544C96.3677 135.455 97.2034 135.63 97.8615 135.98C98.5197 136.326 99.0097 136.792 99.3317 137.379C99.6536 137.962 99.8146 138.608 99.8146 139.318C99.8146 139.943 99.7034 140.459 99.4808 140.866C99.263 141.274 98.9742 141.596 98.6143 141.832C98.2592 142.069 97.8733 142.244 97.4567 142.358V142.5C97.9018 142.528 98.3492 142.685 98.799 142.969C99.2488 143.253 99.6252 143.66 99.9283 144.19C100.231 144.721 100.383 145.369 100.383 146.136C100.383 146.866 100.217 147.521 99.8857 148.104C99.5542 148.686 99.031 149.148 98.3161 149.489C97.6011 149.83 96.6707 150 95.5249 150H90.2692ZM92.0305 148.438H95.5249C96.6754 148.438 97.4922 148.215 97.9751 147.77C98.4628 147.32 98.7067 146.776 98.7067 146.136C98.7067 145.644 98.5812 145.189 98.3303 144.773C98.0793 144.351 97.7218 144.015 97.2578 143.764C96.7938 143.509 96.2446 143.381 95.6101 143.381H92.0305V148.438ZM92.0305 141.847H95.2976C95.8279 141.847 96.3061 141.742 96.7322 141.534C97.1631 141.326 97.504 141.032 97.755 140.653C98.0107 140.275 98.1385 139.83 98.1385 139.318C98.1385 138.679 97.916 138.137 97.4709 137.692C97.0258 137.242 96.3203 137.017 95.3544 137.017H92.0305V141.847Z"></path>
<path fill="black" d="M34.7464 82V78.9318L46.2692 66.3182C47.6214 64.8409 48.7351 63.5568 49.6101 62.4659C50.4851 61.3636 51.1328 60.3295 51.5533 59.3636C51.9851 58.3864 52.201 57.3636 52.201 56.2955C52.201 55.0682 51.9055 54.0057 51.3146 53.108C50.7351 52.2102 49.9396 51.517 48.9283 51.0284C47.9169 50.5398 46.7805 50.2955 45.5192 50.2955C44.1783 50.2955 43.0078 50.5739 42.0078 51.1307C41.0192 51.6761 40.2521 52.4432 39.7067 53.4318C39.1726 54.4205 38.9055 55.5795 38.9055 56.9091H34.8828C34.8828 54.8636 35.3544 53.0682 36.2976 51.5227C37.2408 49.9773 38.5249 48.7727 40.1499 47.9091C41.7862 47.0455 43.6214 46.6136 45.6555 46.6136C47.701 46.6136 49.5135 47.0455 51.093 47.9091C52.6726 48.7727 53.9112 49.9375 54.8089 51.4034C55.7067 52.8693 56.1555 54.5 56.1555 56.2955C56.1555 57.5795 55.9226 58.8352 55.4567 60.0625C55.0021 61.2784 54.2067 62.6364 53.0703 64.1364C51.9453 65.625 50.3828 67.4432 48.3828 69.5909L40.5419 77.9773V78.25H56.7692V82H34.7464ZM76.218 45.4545L64.968 87.25H61.2862L72.5362 45.4545H76.218ZM92.7138 82.4773C90.4638 82.4773 88.4581 82.0909 86.6967 81.3182C84.9467 80.5455 83.5547 79.4716 82.5206 78.0966C81.4979 76.7102 80.9411 75.1023 80.8501 73.2727H85.1456C85.2365 74.3977 85.6229 75.3693 86.3047 76.1875C86.9865 76.9943 87.8786 77.6193 88.9808 78.0625C90.0831 78.5057 91.3047 78.7273 92.6456 78.7273C94.1456 78.7273 95.4751 78.4659 96.6342 77.9432C97.7933 77.4205 98.7024 76.6932 99.3615 75.7614C100.021 74.8295 100.35 73.75 100.35 72.5227C100.35 71.2386 100.032 70.108 99.3956 69.1307C98.7592 68.142 97.8274 67.3693 96.6001 66.8125C95.3729 66.2557 93.8729 65.9773 92.1001 65.9773H89.3047V62.2273H92.1001C93.4865 62.2273 94.7024 61.9773 95.7479 61.4773C96.8047 60.9773 97.6286 60.2727 98.2195 59.3636C98.8217 58.4545 99.1229 57.3864 99.1229 56.1591C99.1229 54.9773 98.8615 53.9489 98.3388 53.0739C97.8161 52.1989 97.0774 51.517 96.1229 51.0284C95.1797 50.5398 94.0661 50.2955 92.782 50.2955C91.5774 50.2955 90.4411 50.517 89.3729 50.9602C88.3161 51.392 87.4524 52.0227 86.782 52.8523C86.1115 53.6705 85.7479 54.6591 85.6911 55.8182H81.6001C81.6683 53.9886 82.2195 52.3864 83.2536 51.0114C84.2876 49.625 85.6399 48.5455 87.3104 47.7727C88.9922 47 90.8388 46.6136 92.8501 46.6136C95.0092 46.6136 96.8615 47.0511 98.407 47.9261C99.9524 48.7898 101.14 49.9318 101.969 51.3523C102.799 52.7727 103.214 54.3068 103.214 55.9545C103.214 57.9205 102.697 59.5966 101.663 60.983C100.64 62.3693 99.2479 63.3295 97.4865 63.8636V64.1364C99.6911 64.5 101.413 65.4375 102.651 66.9489C103.89 68.4489 104.509 70.3068 104.509 72.5227C104.509 74.4205 103.992 76.125 102.958 77.6364C101.935 79.1364 100.538 80.3182 98.7649 81.1818C96.9922 82.0455 94.9751 82.4773 92.7138 82.4773Z"></path>
</svg>
