<svg version="1.1" xmlns="http://www.w3.org/2000/svg" xmlns:xlink="http://www.w3.org/1999/xlink" width="233.93871" height="31.08621" viewBox="0,0,233.93871,31.08621"><g transform="translate(-123.03064,-164.4569)"><g data-paper-data="{&quot;isPaintingLayer&quot;:true}" fill="#ffffff" fill-rule="nonzero" stroke="none" stroke-width="1" stroke-linecap="butt" stroke-linejoin="miter" stroke-miterlimit="10" stroke-dasharray="" stroke-dashoffset="0" style="mix-blend-mode: normal"><path d="M125.85911,175.28585l-2.82846,-10.34408h1.2728l2.16174,8.42476h0.10101l2.20218,-8.42476h1.41422l2.20215,8.42476h0.10101l2.16176,-8.42476h1.27279l-2.82844,10.34408h-1.29303l-2.28296,-8.24294h-0.08081l-2.28299,8.24294zM138.51139,170.61889v4.66696h-1.19198v-10.34408h1.19198v3.79822h0.10104c0.18182,-0.40071 0.45455,-0.71889 0.81821,-0.95461c0.36704,-0.23907 0.85528,-0.3586 1.46474,-0.3586c0.52865,0 0.99165,0.10605 1.38897,0.31818c0.39733,0.20878 0.70544,0.53034 0.92429,0.96471c0.22224,0.43102 0.33335,0.97985 0.33335,1.64656v4.92961h-1.19198v-4.84877c0,-0.61622 -0.15995,-1.09266 -0.47982,-1.42939c-0.31652,-0.34008 -0.75596,-0.51014 -1.31827,-0.51014c-0.3906,0 -0.74079,0.08249 -1.05055,0.24748c-0.30642,0.16502 -0.54886,0.40577 -0.72733,0.72227c-0.17509,0.31652 -0.26265,0.7004 -0.26265,1.1516zM148.00566,175.46767c-0.49162,0 -0.93775,-0.0926 -1.33845,-0.27779c-0.40071,-0.18855 -0.71889,-0.45961 -0.95461,-0.81318c-0.23572,-0.35691 -0.35356,-0.78793 -0.35356,-1.293c0,-0.44447 0.08756,-0.80476 0.26265,-1.08087c0.17509,-0.27948 0.40912,-0.49837 0.70206,-0.65663c0.29294,-0.15823 0.61619,-0.27611 0.96975,-0.35353c0.35694,-0.08083 0.71554,-0.14481 1.07583,-0.19195c0.47141,-0.0606 0.85359,-0.10605 1.14653,-0.13636c0.29631,-0.03366 0.51182,-0.08922 0.6465,-0.16668c0.13808,-0.07746 0.20709,-0.21213 0.20709,-0.40405v-0.04042c0,-0.49834 -0.13636,-0.88557 -0.40912,-1.16167c-0.26938,-0.27614 -0.67847,-0.41419 -1.22734,-0.41419c-0.56907,0 -1.01523,0.1246 -1.33848,0.37377c-0.32325,0.24917 -0.55052,0.51517 -0.68185,0.79803l-1.13139,-0.40408c0.20203,-0.47141 0.47141,-0.83842 0.80814,-1.10108c0.34008,-0.266 0.71047,-0.4512 1.11118,-0.55559c0.40405,-0.10774 0.80138,-0.16161 1.19198,-0.16161c0.24917,0 0.53538,0.03028 0.85863,0.09091c0.32663,0.05725 0.64146,0.17678 0.9445,0.3586c0.30642,0.18185 0.56066,0.45627 0.76268,0.82328c0.20203,0.36704 0.30304,0.85866 0.30304,1.47485v5.11143h-1.19198v-1.05058h-0.0606c-0.08083,0.16837 -0.21551,0.34853 -0.40408,0.54045c-0.18855,0.19192 -0.4394,0.35525 -0.75255,0.48993c-0.31317,0.1347 -0.69533,0.20203 -1.14656,0.20203zM148.18751,174.39691c0.47141,0 0.86874,-0.0926 1.19198,-0.27779c0.32663,-0.1852 0.57242,-0.42426 0.73741,-0.71723c0.16837,-0.29294 0.25255,-0.60104 0.25255,-0.92429v-1.09097c-0.05049,0.06063 -0.16161,0.11618 -0.33335,0.16668c-0.16837,0.04714 -0.36367,0.08922 -0.5859,0.12626c-0.21886,0.03369 -0.43268,0.064 -0.64143,0.09094c-0.20541,0.02356 -0.37208,0.04377 -0.50003,0.0606c-0.3098,0.04042 -0.59939,0.10608 -0.86876,0.19699c-0.266,0.08753 -0.48151,0.22055 -0.6465,0.39902c-0.16161,0.17509 -0.24244,0.41416 -0.24244,0.7172c0,0.41419 0.15322,0.72733 0.45964,0.93947c0.30977,0.20875 0.70206,0.31315 1.17684,0.31315zM157.11106,167.5278v1.01017h-4.0204v-1.01017zM154.26229,165.66911h1.19207v7.39438c0,0.33673 0.04889,0.58925 0.14638,0.75762c0.10104,0.16499 0.22905,0.27611 0.38402,0.33335c0.15823,0.05387 0.32476,0.08081 0.49988,0.08081c0.13127,0 0.23913,-0.00673 0.32328,-0.02018c0.08415,-0.01686 0.15171,-0.03031 0.20209,-0.04042l0.24239,1.07076c-0.08089,0.03031 -0.19349,0.06063 -0.33839,0.09094c-0.1446,0.03366 -0.32832,0.05049 -0.55055,0.05049c-0.33661,0 -0.66671,-0.07239 -0.98999,-0.21717c-0.31972,-0.14481 -0.58581,-0.36536 -0.79798,-0.66167c-0.20861,-0.29631 -0.3132,-0.67009 -0.3132,-1.12128zM162.9043,175.28585v-7.75805h1.19207v7.75805zM163.51056,166.23477c-0.23261,0 -0.43292,-0.07912 -0.60122,-0.23738c-0.16505,-0.15826 -0.24742,-0.3485 -0.24742,-0.57073c0,-0.22224 0.08238,-0.4125 0.24742,-0.57076c0.16831,-0.15826 0.36862,-0.23738 0.60122,-0.23738c0.23231,0 0.43084,0.07912 0.59589,0.23738c0.16831,0.15826 0.25246,0.34853 0.25246,0.57076c0,0.22224 -0.08415,0.41247 -0.25246,0.57073c-0.16505,0.15826 -0.36358,0.23738 -0.59589,0.23738zM171.77478,169.26527l-1.07058,0.30304c-0.06756,-0.17844 -0.16683,-0.35187 -0.29809,-0.52021c-0.12801,-0.17174 -0.30313,-0.31317 -0.52537,-0.42429c-0.22224,-0.11112 -0.5067,-0.16668 -0.85368,-0.16668c-0.4747,0 -0.87028,0.10946 -1.18674,0.32832c-0.3132,0.21551 -0.46966,0.48993 -0.46966,0.82328c0,0.29631 0.10756,0.53034 0.32298,0.70206c0.21572,0.17174 0.55233,0.31483 1.01043,0.42933l1.15148,0.28283c0.69367,0.16837 1.21045,0.42595 1.55061,0.77279c0.34017,0.34346 0.50996,0.78624 0.50996,1.32835c0,0.44447 -0.12771,0.84183 -0.38373,1.19201c-0.25246,0.35018 -0.60596,0.62629 -1.06081,0.82832c-0.45455,0.20203 -0.98317,0.30307 -1.58588,0.30307c-0.79116,0 -1.44631,-0.17174 -1.96486,-0.5152c-0.51855,-0.34346 -0.84657,-0.84518 -0.98465,-1.50513l1.13133,-0.28286c0.10756,0.41754 0.31143,0.73068 0.611,0.93947c0.30313,0.20875 0.69871,0.31315 1.18704,0.31315c0.55559,0 0.9968,-0.11784 1.32334,-0.35356c0.33009,-0.23907 0.49485,-0.52528 0.49485,-0.85863c0,-0.26938 -0.09423,-0.49499 -0.28268,-0.67681c-0.18875,-0.1852 -0.47825,-0.32325 -0.86879,-0.41416l-1.29312,-0.30307c-0.71027,-0.16834 -1.23237,-0.4293 -1.56573,-0.78286c-0.3298,-0.35691 -0.49485,-0.80307 -0.49485,-1.33845c0,-0.43775 0.12297,-0.82497 0.36862,-1.1617c0.2492,-0.33673 0.58759,-0.60104 1.01517,-0.79297c0.43114,-0.19195 0.91946,-0.2879 1.46468,-0.2879c0.76775,0 1.37046,0.16837 1.80841,0.50507c0.44092,0.33673 0.75412,0.7812 0.93932,1.33342zM181.08469,167.5278v1.01017h-4.0204v-1.01017zM178.23622,165.66911h1.19178v7.39438c0,0.33673 0.04889,0.58925 0.14668,0.75762c0.10104,0.16499 0.22875,0.27611 0.38373,0.33335c0.15823,0.05387 0.32506,0.08081 0.50018,0.08081c0.13127,0 0.23883,-0.00673 0.32298,-0.02018c0.08445,-0.01686 0.15171,-0.03031 0.20209,-0.04042l0.24239,1.07076c-0.0806,0.03031 -0.19349,0.06063 -0.33839,0.09094c-0.1446,0.03366 -0.32832,0.05049 -0.55055,0.05049c-0.33661,0 -0.66671,-0.07239 -0.98969,-0.21717c-0.32002,-0.14481 -0.58611,-0.36536 -0.79827,-0.66167c-0.20861,-0.29631 -0.31291,-0.67009 -0.31291,-1.12128zM184.23659,170.61889v4.66696h-1.19207v-10.34408h1.19207v3.79822h0.10075c0.18194,-0.40071 0.45484,-0.71889 0.81842,-0.95461c0.36684,-0.23907 0.85516,-0.3586 1.46468,-0.3586c0.52863,0 0.99177,0.10605 1.38883,0.31818c0.39736,0.20878 0.70553,0.53034 0.9245,0.96471c0.22224,0.43102 0.33335,0.97985 0.33335,1.64656v4.92961h-1.19207v-4.84877c0,-0.61622 -0.16001,-1.09266 -0.47973,-1.42939c-0.31646,-0.34008 -0.7559,-0.51014 -1.3183,-0.51014c-0.39054,0 -0.74079,0.08249 -1.05073,0.24748c-0.30639,0.16502 -0.54877,0.40577 -0.72716,0.72227c-0.17512,0.31652 -0.26253,0.7004 -0.26253,1.1516zM194.70035,175.44749c-0.74731,0 -1.39209,-0.16502 -1.93434,-0.49499c-0.5387,-0.33335 -0.95473,-0.79803 -1.24748,-1.39401c-0.2895,-0.59939 -0.4344,-1.29638 -0.4344,-2.09106c0,-0.79466 0.1449,-1.49503 0.4344,-2.10114c0.29276,-0.60946 0.70019,-1.08424 1.2223,-1.42433c0.52537,-0.34346 1.13814,-0.51517 1.83834,-0.51517c0.40417,0 0.80331,0.06732 1.19711,0.20203c0.3941,0.13468 0.75264,0.35356 1.07592,0.6566c0.32328,0.29969 0.58078,0.69702 0.77279,1.19198c0.19201,0.49499 0.28772,1.10445 0.28772,1.82841v0.50507h-5.97993v-1.03035h4.7677c0,-0.43775 -0.08741,-0.82835 -0.26253,-1.17181c-0.17157,-0.34346 -0.41751,-0.61453 -0.73753,-0.81318c-0.31646,-0.19868 -0.69012,-0.298 -1.12125,-0.298c-0.4747,0 -0.88539,0.11784 -1.23237,0.35356c-0.34343,0.23234 -0.60774,0.53538 -0.79294,0.90915c-0.1852,0.37374 -0.27765,0.77445 -0.27765,1.20209v0.68692c0,0.58587 0.10104,1.08256 0.30283,1.48999c0.20564,0.40405 0.4901,0.71216 0.85368,0.92429c0.36358,0.20875 0.78612,0.31315 1.26763,0.31315c0.3132,0 0.59619,-0.04377 0.84865,-0.13133c0.25602,-0.09091 0.47647,-0.22558 0.66167,-0.40405c0.1852,-0.18182 0.32832,-0.40743 0.42936,-0.67681l1.15148,0.32325c-0.12119,0.3906 -0.32476,0.73406 -0.611,1.03037c-0.28624,0.29294 -0.63974,0.52193 -1.06081,0.68692c-0.42077,0.16161 -0.89398,0.24244 -1.41935,0.24244zM203.72639,178.19513v-10.66733h1.15148v1.2324h0.14134c0.08771,-0.1347 0.2089,-0.30642 0.36387,-0.5152c0.15823,-0.21213 0.38373,-0.40068 0.67678,-0.56569c0.29631,-0.16834 0.69693,-0.25252 1.20215,-0.25252c0.65308,0 1.22882,0.1633 1.72722,0.48993c0.4984,0.32663 0.88717,0.78962 1.16689,1.38897c0.27942,0.59936 0.41899,1.30648 0.41899,2.12135c0,0.82159 -0.13956,1.53375 -0.41899,2.13649c-0.27972,0.59936 -0.66671,1.06404 -1.16185,1.39401c-0.49485,0.32663 -1.06555,0.48996 -1.71211,0.48996c-0.4984,0 -0.89754,-0.08252 -1.19711,-0.24751c-0.29957,-0.16837 -0.5304,-0.3586 -0.69189,-0.57073c-0.16179,-0.21551 -0.28624,-0.39398 -0.37395,-0.53538h-0.10104v4.10126zM204.89801,171.40682c0,0.5859 0.08593,1.10276 0.25779,1.55058c0.17157,0.44447 0.42254,0.793 0.75234,1.04555c0.33009,0.24917 0.73427,0.37374 1.21222,0.37374c0.4984,0 0.91413,-0.13133 1.24748,-0.39395c0.33691,-0.26603 0.58937,-0.62294 0.75768,-1.07079c0.17186,-0.4512 0.25779,-0.95292 0.25779,-1.50513c0,-0.54549 -0.08415,-1.0371 -0.25276,-1.47485c-0.16475,-0.44109 -0.41573,-0.78962 -0.75234,-1.04552c-0.33335,-0.25928 -0.75264,-0.38891 -1.25786,-0.38891c-0.48477,0 -0.8922,0.12291 -1.2223,0.3687c-0.3298,0.24244 -0.579,0.58252 -0.74731,1.02027c-0.1686,0.43437 -0.25276,0.94112 -0.25276,1.5203zM215.64624,175.44749c-0.7476,0 -1.39238,-0.16502 -1.93434,-0.49499c-0.539,-0.33335 -0.95473,-0.79803 -1.24778,-1.39401c-0.2895,-0.59939 -0.4344,-1.29638 -0.4344,-2.09106c0,-0.79466 0.1449,-1.49503 0.4344,-2.10114c0.29306,-0.60946 0.70049,-1.08424 1.2223,-1.42433c0.52537,-0.34346 1.13814,-0.51517 1.83863,-0.51517c0.40417,0 0.80301,0.06732 1.19711,0.20203c0.3938,0.13468 0.75234,0.35356 1.07562,0.6566c0.32328,0.29969 0.58107,0.69702 0.77279,1.19198c0.19201,0.49499 0.28802,1.10445 0.28802,1.82841v0.50507h-5.98022v-1.03035h4.768c0,-0.43775 -0.08741,-0.82835 -0.26253,-1.17181c-0.17186,-0.34346 -0.41751,-0.61453 -0.73753,-0.81318c-0.31646,-0.19868 -0.69041,-0.298 -1.12125,-0.298c-0.4747,0 -0.88568,0.11784 -1.23237,0.35356c-0.34343,0.23234 -0.60774,0.53538 -0.79294,0.90915c-0.1852,0.37374 -0.27794,0.77445 -0.27794,1.20209v0.68692c0,0.58587 0.10104,1.08256 0.30313,1.48999c0.20535,0.40405 0.48981,0.71216 0.85368,0.92429c0.36358,0.20875 0.78612,0.31315 1.26763,0.31315c0.3132,0 0.59589,-0.04377 0.84865,-0.13133c0.25572,-0.09091 0.47647,-0.22558 0.66167,-0.40405c0.1852,-0.18182 0.32832,-0.40743 0.42906,-0.67681l1.15178,0.32325c-0.12119,0.3906 -0.32506,0.73406 -0.6113,1.03037c-0.28624,0.29294 -0.63974,0.52193 -1.06051,0.68692c-0.42106,0.16161 -0.89398,0.24244 -1.41935,0.24244zM220.67173,175.28585v-7.75805h1.15178v1.17178h0.0806c0.14164,-0.38385 0.39736,-0.69533 0.76775,-0.9344c0.37039,-0.23907 0.7879,-0.3586 1.25252,-0.3586c0.08771,0 0.19705,0.00169 0.32832,0.00504c0.13156,0.00338 0.23083,0.00842 0.29809,0.01517v1.21219c-0.0403,-0.0101 -0.13305,-0.02525 -0.27765,-0.04545c-0.14164,-0.02359 -0.29128,-0.03535 -0.44951,-0.03535c-0.37721,0 -0.71412,0.07912 -1.01043,0.23738c-0.29276,0.15488 -0.52507,0.37039 -0.69693,0.6465c-0.16831,0.27276 -0.25246,0.58421 -0.25246,0.9344v4.9094zM225.96391,175.28585v-7.75805h1.19178v7.75805zM226.56988,166.23477c-0.23231,0 -0.43262,-0.07912 -0.60093,-0.23738c-0.16505,-0.15826 -0.24772,-0.3485 -0.24772,-0.57073c0,-0.22224 0.08267,-0.4125 0.24772,-0.57076c0.16831,-0.15826 0.36862,-0.23738 0.60093,-0.23738c0.23231,0 0.43114,0.07912 0.59589,0.23738c0.1686,0.15826 0.25276,0.34853 0.25276,0.57076c0,0.22224 -0.08415,0.41247 -0.25276,0.57073c-0.16475,0.15826 -0.36358,0.23738 -0.59589,0.23738zM229.33894,175.28585v-7.75805h1.15178v1.21219h0.10075c0.16179,-0.41416 0.42284,-0.73575 0.78316,-0.96471c0.36002,-0.23234 0.79294,-0.3485 1.29786,-0.3485c0.51174,0 0.93784,0.11616 1.27801,0.3485c0.34343,0.22896 0.611,0.55055 0.80301,0.96471h0.08089c0.19853,-0.40071 0.49662,-0.71889 0.89398,-0.95461c0.39736,-0.23907 0.87383,-0.3586 1.42942,-0.3586c0.69338,0 1.26082,0.21717 1.70203,0.65154c0.44121,0.43102 0.66167,1.10276 0.66167,2.0153v5.19223h-1.19207v-5.19223c0,-0.57242 -0.15645,-0.98154 -0.46966,-1.22736c-0.3132,-0.24579 -0.68182,-0.3687 -1.10614,-0.3687c-0.54552,0 -0.96806,0.16499 -1.26763,0.49499c-0.29987,0.3266 -0.44981,0.74079 -0.44981,1.24248v5.05083h-1.21193v-5.31345c0,-0.44112 -0.14312,-0.79635 -0.42936,-1.06573c-0.28624,-0.27276 -0.65515,-0.40912 -1.10614,-0.40912c-0.30995,0 -0.59944,0.08249 -0.86879,0.24748c-0.26609,0.16502 -0.48151,0.39398 -0.64656,0.68692c-0.16149,0.28959 -0.24239,0.62463 -0.24239,1.00513v4.84877zM244.95353,175.44749c-0.7476,0 -1.39238,-0.16502 -1.93434,-0.49499c-0.5387,-0.33335 -0.95473,-0.79803 -1.24748,-1.39401c-0.2898,-0.59939 -0.4344,-1.29638 -0.4344,-2.09106c0,-0.79466 0.1446,-1.49503 0.4344,-2.10114c0.29276,-0.60946 0.70019,-1.08424 1.2223,-1.42433c0.52507,-0.34346 1.13785,-0.51517 1.83834,-0.51517c0.40417,0 0.80301,0.06732 1.19711,0.20203c0.3938,0.13468 0.75264,0.35356 1.07592,0.6566c0.32298,0.29969 0.58078,0.69702 0.77279,1.19198c0.19172,0.49499 0.28772,1.10445 0.28772,1.82841v0.50507h-5.98022v-1.03035h4.768c0,-0.43775 -0.08741,-0.82835 -0.26253,-1.17181c-0.17186,-0.34346 -0.41751,-0.61453 -0.73753,-0.81318c-0.31646,-0.19868 -0.69012,-0.298 -1.12125,-0.298c-0.4747,0 -0.88568,0.11784 -1.23237,0.35356c-0.34343,0.23234 -0.60774,0.53538 -0.79294,0.90915c-0.1852,0.37374 -0.27794,0.77445 -0.27794,1.20209v0.68692c0,0.58587 0.10104,1.08256 0.30313,1.48999c0.20535,0.40405 0.4901,0.71216 0.85368,0.92429c0.36358,0.20875 0.78612,0.31315 1.26763,0.31315c0.3132,0 0.59619,-0.04377 0.84865,-0.13133c0.25572,-0.09091 0.47647,-0.22558 0.66167,-0.40405c0.1852,-0.18182 0.32832,-0.40743 0.42936,-0.67681l1.15148,0.32325c-0.12119,0.3906 -0.32506,0.73406 -0.611,1.03037c-0.28624,0.29294 -0.64004,0.52193 -1.06081,0.68692c-0.42077,0.16161 -0.89398,0.24244 -1.41935,0.24244zM253.35316,167.5278v1.01017h-4.0204v-1.01017zM250.50439,165.66911h1.19207v7.39438c0,0.33673 0.04889,0.58925 0.14638,0.75762c0.10104,0.16499 0.22905,0.27611 0.38402,0.33335c0.15823,0.05387 0.32476,0.08081 0.49988,0.08081c0.13127,0 0.23913,-0.00673 0.32328,-0.02018c0.08415,-0.01686 0.15142,-0.03031 0.20209,-0.04042l0.24239,1.07076c-0.08089,0.03031 -0.19349,0.06063 -0.33839,0.09094c-0.1449,0.03366 -0.32832,0.05049 -0.55055,0.05049c-0.33661,0 -0.66671,-0.07239 -0.98999,-0.21717c-0.31972,-0.14481 -0.58581,-0.36536 -0.79798,-0.66167c-0.2089,-0.29631 -0.3132,-0.67009 -0.3132,-1.12128zM258.31554,175.44749c-0.7476,0 -1.39238,-0.16502 -1.93434,-0.49499c-0.539,-0.33335 -0.95473,-0.79803 -1.24778,-1.39401c-0.2895,-0.59939 -0.4344,-1.29638 -0.4344,-2.09106c0,-0.79466 0.1449,-1.49503 0.4344,-2.10114c0.29306,-0.60946 0.70049,-1.08424 1.2223,-1.42433c0.52537,-0.34346 1.13814,-0.51517 1.83863,-0.51517c0.40417,0 0.80301,0.06732 1.19711,0.20203c0.3938,0.13468 0.75234,0.35356 1.07562,0.6566c0.32328,0.29969 0.58107,0.69702 0.77279,1.19198c0.19201,0.49499 0.28802,1.10445 0.28802,1.82841v0.50507h-5.98022v-1.03035h4.768c0,-0.43775 -0.08741,-0.82835 -0.26253,-1.17181c-0.17186,-0.34346 -0.41751,-0.61453 -0.73753,-0.81318c-0.31646,-0.19868 -0.69041,-0.298 -1.12125,-0.298c-0.4747,0 -0.88568,0.11784 -1.23237,0.35356c-0.34343,0.23234 -0.60774,0.53538 -0.79294,0.90915c-0.1852,0.37374 -0.27794,0.77445 -0.27794,1.20209v0.68692c0,0.58587 0.10104,1.08256 0.30313,1.48999c0.20535,0.40405 0.48981,0.71216 0.85368,0.92429c0.36358,0.20875 0.78612,0.31315 1.26763,0.31315c0.3132,0 0.59589,-0.04377 0.84865,-0.13133c0.25572,-0.09091 0.47647,-0.22558 0.66167,-0.40405c0.1852,-0.18182 0.32832,-0.40743 0.42906,-0.67681l1.15178,0.32325c-0.12119,0.3906 -0.32506,0.73406 -0.6113,1.03037c-0.28624,0.29294 -0.63974,0.52193 -1.06051,0.68692c-0.42106,0.16161 -0.89398,0.24244 -1.41935,0.24244zM263.34104,175.28585v-7.75805h1.15178v1.17178h0.0806c0.14164,-0.38385 0.39736,-0.69533 0.76775,-0.9344c0.37039,-0.23907 0.7879,-0.3586 1.25252,-0.3586c0.08771,0 0.19705,0.00169 0.32832,0.00504c0.13156,0.00338 0.23083,0.00842 0.29809,0.01517v1.21219c-0.0403,-0.0101 -0.13305,-0.02525 -0.27765,-0.04545c-0.14164,-0.02359 -0.29128,-0.03535 -0.44951,-0.03535c-0.37721,0 -0.71412,0.07912 -1.01043,0.23738c-0.29276,0.15488 -0.52507,0.37039 -0.69693,0.6465c-0.16831,0.27276 -0.25246,0.58421 -0.25246,0.9344v4.9094zM275.78507,175.44749c-0.70049,0 -1.31504,-0.16668 -1.84367,-0.50003c-0.52507,-0.33335 -0.93606,-0.79972 -1.23237,-1.39908c-0.29276,-0.59939 -0.43943,-1.29975 -0.43943,-2.10114c0,-0.80814 0.14668,-1.51358 0.43943,-2.11631c0.29631,-0.60273 0.7073,-1.07076 1.23237,-1.40412c0.52863,-0.33335 1.14318,-0.50003 1.84367,-0.50003c0.70049,0 1.31327,0.16668 1.83834,0.50003c0.52892,0.33335 0.93961,0.80138 1.23267,1.40412c0.29631,0.60273 0.44447,1.30817 0.44447,2.11631c0,0.80138 -0.14816,1.50175 -0.44447,2.10114c-0.29306,0.59936 -0.70375,1.06573 -1.23267,1.39908c-0.52507,0.33335 -1.13785,0.50003 -1.83834,0.50003zM275.78507,174.3767c0.53188,0 0.96984,-0.13636 1.31327,-0.40912c0.34343,-0.27273 0.59767,-0.63133 0.76271,-1.0758c0.16475,-0.44447 0.24742,-0.92598 0.24742,-1.44453c0,-0.51855 -0.08267,-1.00175 -0.24742,-1.4496c-0.16505,-0.44785 -0.41929,-0.8098 -0.76271,-1.08593c-0.34343,-0.27611 -0.78138,-0.41416 -1.31327,-0.41416c-0.53218,0 -0.96984,0.13805 -1.31327,0.41416c-0.34343,0.27614 -0.59767,0.63808 -0.76271,1.08593c-0.16505,0.44785 -0.24742,0.93105 -0.24742,1.4496c0,0.51855 0.08238,1.00006 0.24742,1.44453c0.16505,0.44447 0.41929,0.80307 0.76271,1.0758c0.34343,0.27276 0.78109,0.40912 1.31327,0.40912zM284.57465,167.5278v1.01017h-4.18189v-1.01017zM281.64529,175.28585v-8.82884c0,-0.44447 0.1043,-0.81487 0.3132,-1.11118c0.20861,-0.29631 0.47973,-0.51855 0.81309,-0.66671c0.33335,-0.14815 0.68538,-0.22222 1.05577,-0.22222c0.29276,0 0.53188,0.02357 0.71708,0.07071c0.1852,0.04714 0.32328,0.09092 0.41425,0.13133l-0.34343,1.03035c-0.06074,-0.02018 -0.1449,-0.04545 -0.25276,-0.07574c-0.1043,-0.03031 -0.24239,-0.04548 -0.41395,-0.04548c-0.3941,0 -0.67856,0.09935 -0.85368,0.298c-0.17186,0.19868 -0.2575,0.48993 -0.2575,0.8738v8.54598zM292.52863,175.46767c-0.49159,0 -0.93784,-0.0926 -1.33845,-0.27779c-0.40091,-0.18855 -0.71916,-0.45961 -0.95473,-0.81318c-0.23557,-0.35691 -0.3535,-0.78793 -0.3535,-1.293c0,-0.44447 0.08741,-0.80476 0.26253,-1.08087c0.17512,-0.27948 0.40921,-0.49837 0.70197,-0.65663c0.29306,-0.15823 0.61633,-0.27611 0.96984,-0.35353c0.35706,-0.08083 0.7156,-0.14481 1.07592,-0.19195c0.47144,-0.0606 0.85368,-0.10605 1.14644,-0.13636c0.29631,-0.03366 0.51174,-0.08922 0.64656,-0.16668c0.13808,-0.07746 0.20712,-0.21213 0.20712,-0.40405v-0.04042c0,-0.49834 -0.1363,-0.88557 -0.40921,-1.16167c-0.26935,-0.27614 -0.67856,-0.41419 -1.22734,-0.41419c-0.56892,0 -1.01517,0.1246 -1.33845,0.37377c-0.32328,0.24917 -0.55055,0.51517 -0.68182,0.79803l-1.13133,-0.40408c0.20209,-0.47141 0.47144,-0.83842 0.80805,-1.10108c0.34017,-0.266 0.71056,-0.4512 1.11118,-0.55559c0.40417,-0.10774 0.80153,-0.16161 1.19207,-0.16161c0.2492,0 0.53544,0.03028 0.85872,0.09091c0.32654,0.05725 0.64122,0.17678 0.94435,0.3586c0.30639,0.18185 0.56063,0.45627 0.76271,0.82328c0.20209,0.36704 0.30313,0.85866 0.30313,1.47485v5.11143h-1.19207v-1.05058h-0.06074c-0.0806,0.16837 -0.21542,0.34853 -0.40388,0.54045c-0.18875,0.19192 -0.43943,0.35525 -0.75264,0.48993c-0.3132,0.1347 -0.69545,0.20203 -1.14644,0.20203zM292.71027,174.39691c0.47144,0 0.86879,-0.0926 1.19207,-0.27779c0.32654,-0.1852 0.57248,-0.42426 0.73753,-0.71723c0.16831,-0.29294 0.25246,-0.60104 0.25246,-0.92429v-1.09097c-0.05067,0.06063 -0.16179,0.11618 -0.33335,0.16668c-0.16831,0.04714 -0.36358,0.08922 -0.58581,0.12626c-0.21898,0.03369 -0.43292,0.064 -0.64152,0.09094c-0.20535,0.02356 -0.37217,0.04377 -0.50018,0.0606c-0.30965,0.04042 -0.59915,0.10608 -0.8685,0.19699c-0.26609,0.08753 -0.48151,0.22055 -0.64656,0.39902c-0.16179,0.17509 -0.24239,0.41416 -0.24239,0.7172c0,0.41419 0.15319,0.72733 0.45958,0.93947c0.30965,0.20875 0.70197,0.31315 1.17667,0.31315zM307.75535,169.26527l-1.07058,0.30304c-0.06756,-0.17844 -0.16683,-0.35187 -0.29809,-0.52021c-0.12801,-0.17174 -0.30313,-0.31317 -0.52537,-0.42429c-0.22224,-0.11112 -0.5067,-0.16668 -0.85339,-0.16668c-0.47499,0 -0.87057,0.10946 -1.18704,0.32832c-0.3132,0.21551 -0.46966,0.48993 -0.46966,0.82328c0,0.29631 0.10756,0.53034 0.32328,0.70206c0.21542,0.17174 0.55203,0.31483 1.01014,0.42933l1.15148,0.28283c0.69367,0.16837 1.21045,0.42595 1.55061,0.77279c0.34017,0.34346 0.51025,0.78624 0.51025,1.32835c0,0.44447 -0.12801,0.84183 -0.38402,1.19201c-0.25246,0.35018 -0.60596,0.62629 -1.06051,0.82832c-0.45455,0.20203 -0.98347,0.30307 -1.58617,0.30307c-0.79116,0 -1.44602,-0.17174 -1.96457,-0.5152c-0.51855,-0.34346 -0.84687,-0.84518 -0.98495,-1.50513l1.13133,-0.28286c0.10786,0.41754 0.31143,0.73068 0.6113,0.93947c0.30283,0.20875 0.69841,0.31315 1.18674,0.31315c0.55559,0 0.9968,-0.11784 1.32334,-0.35356c0.33009,-0.23907 0.49514,-0.52528 0.49514,-0.85863c0,-0.26938 -0.09452,-0.49499 -0.28298,-0.67681c-0.18846,-0.1852 -0.47825,-0.32325 -0.86879,-0.41416l-1.29282,-0.30307c-0.71056,-0.16834 -1.23267,-0.4293 -1.56602,-0.78286c-0.3298,-0.35691 -0.49485,-0.80307 -0.49485,-1.33845c0,-0.43775 0.12297,-0.82497 0.36862,-1.1617c0.2492,-0.33673 0.58759,-0.60104 1.01517,-0.79297c0.43114,-0.19195 0.91946,-0.2879 1.46498,-0.2879c0.76775,0 1.37046,0.16837 1.80811,0.50507c0.44121,0.33673 0.75412,0.7812 0.93932,1.33342zM314.98454,178.19513v-4.10126h-0.10104c-0.08771,0.1414 -0.21216,0.31987 -0.37395,0.53538c-0.16149,0.21213 -0.39202,0.40237 -0.69189,0.57073c-0.29957,0.16499 -0.69871,0.24751 -1.19711,0.24751c-0.64626,0 -1.21726,-0.16333 -1.71211,-0.48996c-0.49485,-0.32998 -0.88213,-0.79466 -1.16155,-1.39401c-0.27972,-0.60273 -0.41929,-1.3149 -0.41929,-2.13649c0,-0.81487 0.13956,-1.52199 0.41929,-2.12135c0.27942,-0.59936 0.66819,-1.06235 1.16659,-1.38897c0.4984,-0.32663 1.07414,-0.48993 1.72751,-0.48993c0.50492,0 0.90406,0.08418 1.19681,0.25252c0.29631,0.16502 0.52211,0.35356 0.67678,0.56569c0.15853,0.20878 0.2812,0.3805 0.36891,0.5152h0.14134v-1.2324h1.15148v10.66733zM312.78232,174.3767c0.47825,0 0.88213,-0.12457 1.21222,-0.37374c0.3298,-0.25255 0.58078,-0.60107 0.75264,-1.04555c0.17157,-0.44782 0.2575,-0.96468 0.2575,-1.55058c0,-0.57918 -0.08415,-1.08593 -0.25246,-1.5203c-0.1686,-0.43775 -0.41751,-0.77783 -0.7476,-1.02027c-0.33009,-0.24579 -0.73753,-0.3687 -1.2223,-0.3687c-0.50522,0 -0.92598,0.12964 -1.2626,0.38891c-0.33335,0.2559 -0.58433,0.60442 -0.75264,1.04552c-0.16505,0.43775 -0.24742,0.92936 -0.24742,1.47485c0,0.55221 0.08415,1.05393 0.25246,1.50513c0.17157,0.44785 0.42432,0.80476 0.75768,1.07079c0.33661,0.26262 0.75412,0.39395 1.25252,0.39395zM323.24757,172.11395v-4.58615h1.19207v7.75805h-1.19207v-1.31321h-0.08089c-0.18164,0.39395 -0.46462,0.72899 -0.84835,1.0051c-0.38402,0.27276 -0.86879,0.40912 -1.45461,0.40912c-0.48507,0 -0.91591,-0.10605 -1.29312,-0.31821c-0.37721,-0.21548 -0.67352,-0.53873 -0.88894,-0.96975c-0.21542,-0.43437 -0.32328,-0.98154 -0.32328,-1.64152v-4.92958h1.19207v4.84877c0,0.56569 0.15823,1.01689 0.4747,1.35362c0.32002,0.33673 0.72745,0.50507 1.2223,0.50507c0.29631,0 0.59767,-0.07574 0.90406,-0.22727c0.30995,-0.15154 0.56922,-0.38388 0.77783,-0.69702c0.21216,-0.31315 0.31824,-0.71216 0.31824,-1.19702zM328.90569,175.46767c-0.49159,0 -0.93784,-0.0926 -1.33845,-0.27779c-0.40062,-0.18855 -0.71886,-0.45961 -0.95443,-0.81318c-0.23587,-0.35691 -0.3538,-0.78793 -0.3538,-1.293c0,-0.44447 0.08771,-0.80476 0.26283,-1.08087c0.17512,-0.27948 0.40891,-0.49837 0.70197,-0.65663c0.29306,-0.15823 0.61633,-0.27611 0.96984,-0.35353c0.35676,-0.08083 0.7156,-0.14481 1.07592,-0.19195c0.47114,-0.0606 0.85339,-0.10605 1.14644,-0.13636c0.29631,-0.03366 0.51174,-0.08922 0.64656,-0.16668c0.13808,-0.07746 0.20712,-0.21213 0.20712,-0.40405v-0.04042c0,-0.49834 -0.1366,-0.88557 -0.40921,-1.16167c-0.26935,-0.27614 -0.67856,-0.41419 -1.22734,-0.41419c-0.56922,0 -1.01517,0.1246 -1.33845,0.37377c-0.32328,0.24917 -0.55055,0.51517 -0.68182,0.79803l-1.13163,-0.40408c0.20209,-0.47141 0.47144,-0.83842 0.80835,-1.10108c0.33987,-0.266 0.71027,-0.4512 1.11118,-0.55559c0.40388,-0.10774 0.80123,-0.16161 1.19178,-0.16161c0.2492,0 0.53544,0.03028 0.85872,0.09091c0.32654,0.05725 0.64152,0.17678 0.94465,0.3586c0.30639,0.18185 0.56063,0.45627 0.76271,0.82328c0.20179,0.36704 0.30283,0.85866 0.30283,1.47485v5.11143h-1.19178v-1.05058h-0.06074c-0.08089,0.16837 -0.21542,0.34853 -0.40417,0.54045c-0.18846,0.19192 -0.43943,0.35525 -0.75234,0.48993c-0.3132,0.1347 -0.69545,0.20203 -1.14674,0.20203zM329.08763,174.39691c0.47144,0 0.86879,-0.0926 1.19207,-0.27779c0.32654,-0.1852 0.57218,-0.42426 0.73723,-0.71723c0.16831,-0.29294 0.25276,-0.60104 0.25276,-0.92429v-1.09097c-0.05067,0.06063 -0.16179,0.11618 -0.33335,0.16668c-0.1686,0.04714 -0.36387,0.08922 -0.58611,0.12626c-0.21868,0.03369 -0.43262,0.064 -0.64152,0.09094c-0.20535,0.02356 -0.37187,0.04377 -0.49988,0.0606c-0.30965,0.04042 -0.59944,0.10608 -0.86879,0.19699c-0.26609,0.08753 -0.48151,0.22055 -0.64656,0.39902c-0.16149,0.17509 -0.24239,0.41416 -0.24239,0.7172c0,0.41419 0.15319,0.72733 0.45958,0.93947c0.30995,0.20875 0.70227,0.31315 1.17696,0.31315zM334.63731,175.28585v-7.75805h1.15148v1.17178h0.08089c0.14134,-0.38385 0.39736,-0.69533 0.76775,-0.9344c0.37039,-0.23907 0.7879,-0.3586 1.25252,-0.3586c0.08741,0 0.19705,0.00169 0.32832,0.00504c0.13127,0.00338 0.23053,0.00842 0.2978,0.01517v1.21219c-0.0403,-0.0101 -0.13275,-0.02525 -0.27765,-0.04545c-0.14134,-0.02359 -0.29128,-0.03535 -0.44951,-0.03535c-0.37721,0 -0.71382,0.07912 -1.01014,0.23738c-0.29306,0.15488 -0.52537,0.37039 -0.69693,0.6465c-0.1686,0.27276 -0.25276,0.58421 -0.25276,0.9344v4.9094zM342.94567,175.44749c-0.74731,0 -1.39238,-0.16502 -1.93434,-0.49499c-0.5387,-0.33335 -0.95473,-0.79803 -1.24748,-1.39401c-0.2898,-0.59939 -0.4344,-1.29638 -0.4344,-2.09106c0,-0.79466 0.1446,-1.49503 0.4344,-2.10114c0.29276,-0.60946 0.70019,-1.08424 1.2223,-1.42433c0.52507,-0.34346 1.13814,-0.51517 1.83834,-0.51517c0.40417,0 0.80301,0.06732 1.19711,0.20203c0.3941,0.13468 0.75264,0.35356 1.07592,0.6566c0.32328,0.29969 0.58078,0.69702 0.77279,1.19198c0.19172,0.49499 0.28772,1.10445 0.28772,1.82841v0.50507h-5.98022v-1.03035h4.768c0,-0.43775 -0.08741,-0.82835 -0.26253,-1.17181c-0.17186,-0.34346 -0.41751,-0.61453 -0.73753,-0.81318c-0.31646,-0.19868 -0.69012,-0.298 -1.12125,-0.298c-0.4747,0 -0.88539,0.11784 -1.23237,0.35356c-0.34343,0.23234 -0.60774,0.53538 -0.79294,0.90915c-0.1852,0.37374 -0.27765,0.77445 -0.27765,1.20209v0.68692c0,0.58587 0.10075,1.08256 0.30283,1.48999c0.20535,0.40405 0.4901,0.71216 0.85368,0.92429c0.36358,0.20875 0.78612,0.31315 1.26763,0.31315c0.3132,0 0.59619,-0.04377 0.84865,-0.13133c0.25602,-0.09091 0.47647,-0.22558 0.66167,-0.40405c0.1852,-0.18182 0.32832,-0.40743 0.42936,-0.67681l1.15148,0.32325c-0.12119,0.3906 -0.32476,0.73406 -0.611,1.03037c-0.28624,0.29294 -0.63974,0.52193 -1.06081,0.68692c-0.42077,0.16161 -0.89398,0.24244 -1.41935,0.24244zM125.57626,192.4721l-2.36378,-7.75805h1.2526l1.67686,5.93975h0.08083l1.65667,-5.93975h1.27279l1.63646,5.91957h0.08083l1.67687,-5.91957h1.25258l-2.36376,7.75805h-1.17181l-1.69708,-5.95995h-0.12119l-1.69708,5.95995zM135.37484,192.4721v-7.75805h1.19198v7.75805zM135.98095,183.42102c-0.23234,0 -0.43271,-0.07912 -0.60104,-0.23738c-0.16502,-0.15826 -0.24751,-0.3485 -0.24751,-0.57073c0,-0.22224 0.08249,-0.4125 0.24751,-0.57076c0.16834,-0.15826 0.3687,-0.23738 0.60104,-0.23738c0.23234,0 0.43099,0.07912 0.59598,0.23738c0.16837,0.15826 0.25255,0.34853 0.25255,0.57076c0,0.22224 -0.08418,0.41247 -0.25255,0.57073c-0.16499,0.15826 -0.36364,0.23738 -0.59598,0.23738zM142.12399,184.71405v1.01017h-4.02046v-1.01017zM139.27534,182.85536h1.19198v7.39438c0,0.33673 0.04883,0.58925 0.14647,0.75762c0.10101,0.16499 0.22896,0.27611 0.38388,0.33341c0.15826,0.05393 0.32494,0.08089 0.50003,0.08089c0.13133,0 0.23907,-0.00682 0.32325,-0.02045c0.08418,-0.01659 0.15151,-0.03022 0.20203,-0.0403l0.24244,1.07088c-0.08081,0.03022 -0.19361,0.06045 -0.33842,0.09067c-0.14478,0.03378 -0.32829,0.05067 -0.55052,0.05067c-0.33673,0 -0.66671,-0.0723 -0.98996,-0.2172c-0.3199,-0.1449 -0.5859,-0.36536 -0.79803,-0.66167c-0.20878,-0.29631 -0.31315,-0.67009 -0.31315,-1.12128zM145.27572,187.80514v4.66696h-1.19201v-10.34408h1.19201v3.79822h0.10101c0.18182,-0.40071 0.45458,-0.71889 0.81821,-0.95461c0.36704,-0.23907 0.85528,-0.3586 1.46474,-0.3586c0.52865,0 0.99165,0.10605 1.38897,0.31818c0.39733,0.20878 0.70544,0.53034 0.92429,0.96471c0.22224,0.43102 0.33335,0.97985 0.33335,1.64656v4.92961h-1.19198v-4.84877c0,-0.61622 -0.15995,-1.09266 -0.47982,-1.42939c-0.31652,-0.34008 -0.75593,-0.51014 -1.31827,-0.51014c-0.39057,0 -0.74079,0.08249 -1.05055,0.24748c-0.30642,0.16502 -0.54886,0.40577 -0.72733,0.72227c-0.17509,0.31652 -0.26262,0.7004 -0.26262,1.1516zM161.98247,186.45152l-1.07058,0.30304c-0.06756,-0.17844 -0.16683,-0.35187 -0.29809,-0.52021c-0.12801,-0.17174 -0.30313,-0.31317 -0.52537,-0.42429c-0.22224,-0.11112 -0.5067,-0.16668 -0.85339,-0.16668c-0.47499,0 -0.87057,0.10946 -1.18704,0.32832c-0.3132,0.21551 -0.46966,0.48993 -0.46966,0.82328c0,0.29631 0.10756,0.53034 0.32328,0.70206c0.21542,0.17174 0.55203,0.31483 1.01014,0.42933l1.15148,0.28283c0.69367,0.16837 1.21045,0.42595 1.55061,0.77279c0.34017,0.34346 0.51025,0.78624 0.51025,1.32835c0,0.44447 -0.12801,0.84183 -0.38402,1.19193c-0.25246,0.35024 -0.60596,0.62641 -1.06051,0.8285c-0.45484,0.20209 -0.98347,0.30283 -1.58617,0.30283c-0.79116,0 -1.44602,-0.17157 -1.96457,-0.51499c-0.51855,-0.34343 -0.84687,-0.84524 -0.98495,-1.50519l1.13133,-0.28286c0.10786,0.41754 0.31143,0.73068 0.611,0.93947c0.30313,0.20884 0.69871,0.31315 1.18704,0.31315c0.55559,0 0.9968,-0.11793 1.32334,-0.35356c0.33009,-0.23907 0.49485,-0.52528 0.49485,-0.85863c0,-0.26938 -0.09423,-0.49499 -0.28268,-0.67681c-0.18846,-0.1852 -0.47825,-0.32325 -0.86879,-0.41416l-1.29312,-0.30307c-0.71027,-0.16834 -1.23237,-0.4293 -1.56573,-0.78286c-0.3298,-0.35691 -0.49485,-0.80307 -0.49485,-1.33845c0,-0.43775 0.12297,-0.82497 0.36862,-1.1617c0.2492,-0.33673 0.58759,-0.60104 1.01517,-0.79297c0.43114,-0.19195 0.91946,-0.2879 1.46498,-0.2879c0.76745,0 1.37046,0.16837 1.80811,0.50507c0.44092,0.33673 0.75412,0.7812 0.93932,1.33342zM163.91829,192.4721v-7.75805h1.19207v7.75805zM164.52426,183.42102c-0.23231,0 -0.43262,-0.07912 -0.60093,-0.23738c-0.16505,-0.15826 -0.24742,-0.3485 -0.24742,-0.57073c0,-0.22224 0.08238,-0.4125 0.24742,-0.57076c0.16831,-0.15826 0.36862,-0.23738 0.60093,-0.23738c0.23231,0 0.43114,0.07912 0.59619,0.23738c0.16831,0.15826 0.25246,0.34853 0.25246,0.57076c0,0.22224 -0.08415,0.41247 -0.25246,0.57073c-0.16505,0.15826 -0.36387,0.23738 -0.59619,0.23738zM170.22298,192.63359c-0.64656,0 -1.21726,-0.16327 -1.71211,-0.48981c-0.49514,-0.33009 -0.88243,-0.79472 -1.16185,-1.39401c-0.27942,-0.60273 -0.41929,-1.3149 -0.41929,-2.13649c0,-0.81487 0.13986,-1.52199 0.41929,-2.12135c0.27942,-0.59936 0.66849,-1.06235 1.16689,-1.38897c0.4981,-0.32663 1.07414,-0.48993 1.72722,-0.48993c0.50522,0 0.90406,0.08418 1.19711,0.25252c0.29631,0.16502 0.52181,0.35356 0.67678,0.56569c0.15823,0.20878 0.2812,0.3805 0.36862,0.5152h0.10104v-3.81843h1.19207v10.34408h-1.15148v-1.19198h-0.14164c-0.08741,0.14155 -0.21216,0.31993 -0.37365,0.53535c-0.16179,0.21216 -0.39232,0.4024 -0.69189,0.5707c-0.29987,0.16505 -0.69871,0.24742 -1.19711,0.24742zM170.38447,191.56301c0.47825,0 0.88243,-0.12475 1.21222,-0.3738c0.33009,-0.25255 0.58107,-0.60107 0.75264,-1.04555c0.17186,-0.44782 0.2575,-0.96468 0.2575,-1.55058c0,-0.57918 -0.08415,-1.08593 -0.25246,-1.5203c-0.16831,-0.43775 -0.41751,-0.77783 -0.7476,-1.02027c-0.3298,-0.24579 -0.73723,-0.3687 -1.2223,-0.3687c-0.50492,0 -0.92598,0.12964 -1.2626,0.38891c-0.33335,0.2559 -0.58433,0.60442 -0.75264,1.04552c-0.16505,0.43775 -0.24742,0.92936 -0.24742,1.47485c0,0.55221 0.08415,1.05393 0.25246,1.50513c0.17186,0.44785 0.42432,0.80476 0.75768,1.07079c0.33661,0.26274 0.75442,0.39401 1.25252,0.39401zM179.37999,192.63359c-0.74731,0 -1.39238,-0.16475 -1.93434,-0.49485c-0.5387,-0.33335 -0.95473,-0.79798 -1.24748,-1.39401c-0.2898,-0.59939 -0.4344,-1.29638 -0.4344,-2.09106c0,-0.79466 0.1446,-1.49503 0.4344,-2.10114c0.29276,-0.60946 0.70019,-1.08424 1.2223,-1.42433c0.52507,-0.34346 1.13814,-0.51517 1.83834,-0.51517c0.40417,0 0.80301,0.06732 1.19711,0.20203c0.3941,0.13468 0.75264,0.35356 1.07592,0.6566c0.32328,0.29969 0.58078,0.69702 0.77279,1.19198c0.19172,0.49499 0.28772,1.10445 0.28772,1.82841v0.50507h-5.98022v-1.03035h4.768c0,-0.43775 -0.08741,-0.82835 -0.26253,-1.17181c-0.17186,-0.34346 -0.41751,-0.61453 -0.73753,-0.81318c-0.31646,-0.19868 -0.69012,-0.298 -1.12125,-0.298c-0.4747,0 -0.88539,0.11784 -1.23237,0.35356c-0.34343,0.23234 -0.60774,0.53538 -0.79294,0.90915c-0.1852,0.37374 -0.27765,0.77445 -0.27765,1.20209v0.68692c0,0.58587 0.10075,1.08256 0.30283,1.48999c0.20535,0.40405 0.4901,0.71216 0.85368,0.92429c0.36358,0.2089 0.78612,0.3132 1.26763,0.3132c0.3132,0 0.59619,-0.04385 0.84865,-0.13127c0.25602,-0.09097 0.47647,-0.2257 0.66167,-0.40417c0.1852,-0.18182 0.32832,-0.40743 0.42936,-0.67681l1.15148,0.32325c-0.12119,0.3906 -0.32476,0.73403 -0.611,1.03035c-0.28624,0.29306 -0.63974,0.52181 -1.06081,0.68686c-0.42077,0.16179 -0.89398,0.24239 -1.41935,0.24239zM189.90094,186.45152l-1.07088,0.30304c-0.06726,-0.17844 -0.16653,-0.35187 -0.2978,-0.52021c-0.12801,-0.17174 -0.30313,-0.31317 -0.52537,-0.42429c-0.22224,-0.11112 -0.5067,-0.16668 -0.85368,-0.16668c-0.4747,0 -0.87028,0.10946 -1.18674,0.32832c-0.3132,0.21551 -0.46996,0.48993 -0.46996,0.82328c0,0.29631 0.10786,0.53034 0.32328,0.70206c0.21572,0.17174 0.55233,0.31483 1.01014,0.42933l1.15178,0.28283c0.69367,0.16837 1.21045,0.42595 1.55061,0.77279c0.33987,0.34346 0.50996,0.78624 0.50996,1.32835c0,0.44447 -0.12801,0.84183 -0.38373,1.19193c-0.25246,0.35024 -0.60626,0.62641 -1.06081,0.8285c-0.45455,0.20209 -0.98317,0.30283 -1.58588,0.30283c-0.79116,0 -1.44631,-0.17157 -1.96486,-0.51499c-0.51855,-0.34343 -0.84687,-0.84524 -0.98495,-1.50519l1.13163,-0.28286c0.10756,0.41754 0.31143,0.73068 0.611,0.93947c0.30313,0.20884 0.69871,0.31315 1.18704,0.31315c0.55559,0 0.99651,-0.11793 1.32334,-0.35356c0.3298,-0.23907 0.49485,-0.52528 0.49485,-0.85863c0,-0.26938 -0.09423,-0.49499 -0.28268,-0.67681c-0.18875,-0.1852 -0.47825,-0.32325 -0.86879,-0.41416l-1.29312,-0.30307c-0.71056,-0.16834 -1.23237,-0.4293 -1.56573,-0.78286c-0.33009,-0.35691 -0.49485,-0.80307 -0.49485,-1.33845c0,-0.43775 0.12267,-0.82497 0.36862,-1.1617c0.2492,-0.33673 0.58759,-0.60104 1.01517,-0.79297c0.43114,-0.19195 0.91917,-0.2879 1.46468,-0.2879c0.76775,0 1.37046,0.16837 1.80841,0.50507c0.44092,0.33673 0.75412,0.7812 0.93932,1.33342zM195.83701,192.4721v-7.75805h1.15148v1.21219h0.10104c0.16149,-0.41416 0.42254,-0.73575 0.78286,-0.96471c0.36032,-0.23234 0.79294,-0.3485 1.29815,-0.3485c0.51174,0 0.93754,0.11616 1.27771,0.3485c0.34343,0.22896 0.6113,0.55055 0.80301,0.96471h0.08089c0.19883,-0.40071 0.49662,-0.71889 0.89398,-0.95461c0.39736,-0.23907 0.87383,-0.3586 1.42942,-0.3586c0.69367,0 1.26112,0.21717 1.70203,0.65154c0.44121,0.43102 0.66167,1.10276 0.66167,2.0153v5.19223h-1.19178v-5.19223c0,-0.57242 -0.15675,-0.98154 -0.46996,-1.22736c-0.31291,-0.24579 -0.68182,-0.3687 -1.10614,-0.3687c-0.54522,0 -0.96806,0.16499 -1.26763,0.49499c-0.29957,0.3266 -0.44951,0.74079 -0.44951,1.24248v5.05083h-1.21222v-5.31345c0,-0.44112 -0.14312,-0.79635 -0.42936,-1.06573c-0.28624,-0.27276 -0.65486,-0.40912 -1.10614,-0.40912c-0.30965,0 -0.59915,0.08249 -0.86879,0.24748c-0.26579,0.16502 -0.48151,0.39398 -0.64626,0.68692c-0.16179,0.28959 -0.24268,0.62463 -0.24268,1.00513v4.84877zM211.45161,192.63359c-0.7476,0 -1.39238,-0.16475 -1.93464,-0.49485c-0.5387,-0.33335 -0.95443,-0.79798 -1.24748,-1.39401c-0.2895,-0.59939 -0.4344,-1.29638 -0.4344,-2.09106c0,-0.79466 0.1449,-1.49503 0.4344,-2.10114c0.29306,-0.60946 0.70049,-1.08424 1.2223,-1.42433c0.52537,-0.34346 1.13814,-0.51517 1.83863,-0.51517c0.40388,0 0.80301,0.06732 1.19681,0.20203c0.3941,0.13468 0.75264,0.35356 1.07592,0.6566c0.32328,0.29969 0.58078,0.69702 0.77279,1.19198c0.19201,0.49499 0.28802,1.10445 0.28802,1.82841v0.50507h-5.98022v-1.03035h4.768c0,-0.43775 -0.08771,-0.82835 -0.26283,-1.17181c-0.17157,-0.34346 -0.41751,-0.61453 -0.73723,-0.81318c-0.31646,-0.19868 -0.69041,-0.298 -1.12125,-0.298c-0.47499,0 -0.88568,0.11784 -1.23237,0.35356c-0.34372,0.23234 -0.60804,0.53538 -0.79323,0.90915c-0.1852,0.37374 -0.27765,0.77445 -0.27765,1.20209v0.68692c0,0.58587 0.10104,1.08256 0.30313,1.48999c0.20535,0.40405 0.48981,0.71216 0.85339,0.92429c0.36387,0.2089 0.78642,0.3132 1.26793,0.3132c0.3132,0 0.59589,-0.04385 0.84835,-0.13127c0.25602,-0.09097 0.47647,-0.2257 0.66167,-0.40417c0.1852,-0.18182 0.32832,-0.40743 0.42936,-0.67681l1.15178,0.32325c-0.12149,0.3906 -0.32506,0.73403 -0.6113,1.03035c-0.28624,0.29306 -0.63974,0.52181 -1.06081,0.68686c-0.42077,0.16179 -0.89398,0.24239 -1.41905,0.24239zM218.75991,192.65404c-0.49159,0 -0.93754,-0.09275 -1.33845,-0.27794c-0.40062,-0.18846 -0.71886,-0.45958 -0.95443,-0.81309c-0.23587,-0.35697 -0.3535,-0.78799 -0.3535,-1.29306c0,-0.44447 0.08741,-0.80476 0.26253,-1.08087c0.17512,-0.27948 0.40921,-0.49837 0.70197,-0.65663c0.29306,-0.15823 0.61633,-0.27611 0.96984,-0.35353c0.35706,-0.08083 0.7156,-0.14481 1.07592,-0.19195c0.47144,-0.0606 0.85339,-0.10605 1.14644,-0.13636c0.29631,-0.03366 0.51174,-0.08922 0.64656,-0.16668c0.13808,-0.07746 0.20712,-0.21213 0.20712,-0.40405v-0.04042c0,-0.49834 -0.1363,-0.88557 -0.40921,-1.16167c-0.26935,-0.27614 -0.67856,-0.41419 -1.22734,-0.41419c-0.56892,0 -1.01517,0.1246 -1.33845,0.37377c-0.32328,0.24917 -0.55055,0.51517 -0.68182,0.79803l-1.13133,-0.40408c0.20179,-0.47141 0.47144,-0.83842 0.80805,-1.10108c0.34017,-0.266 0.71056,-0.4512 1.11118,-0.55559c0.40417,-0.10774 0.80123,-0.16161 1.19207,-0.16161c0.2492,0 0.53514,0.03028 0.85842,0.09091c0.32684,0.05725 0.64152,0.17678 0.94465,0.3586c0.30639,0.18185 0.56063,0.45627 0.76271,0.82328c0.20209,0.36704 0.30283,0.85866 0.30283,1.47485v5.11143h-1.19178v-1.05044h-0.06074c-0.08089,0.16831 -0.21542,0.34847 -0.40388,0.54018c-0.18875,0.19201 -0.43943,0.35528 -0.75264,0.4901c-0.3132,0.13453 -0.69545,0.20209 -1.14674,0.20209zM218.94185,191.58316c0.47144,0 0.86879,-0.09245 1.19207,-0.27794c0.32654,-0.18505 0.57248,-0.42412 0.73723,-0.71708c0.1686,-0.29294 0.25276,-0.60104 0.25276,-0.92429v-1.09097c-0.05067,0.06063 -0.16179,0.11618 -0.33335,0.16668c-0.16831,0.04714 -0.36387,0.08922 -0.58611,0.12626c-0.21868,0.03369 -0.43262,0.064 -0.64122,0.09094c-0.20535,0.02356 -0.37217,0.04377 -0.50018,0.0606c-0.30965,0.04042 -0.59944,0.10608 -0.86879,0.19699c-0.26579,0.08753 -0.48151,0.22055 -0.64626,0.39902c-0.16179,0.17509 -0.24268,0.41416 -0.24268,0.7172c0,0.41419 0.15319,0.72733 0.45988,0.93947c0.30965,0.20884 0.70197,0.31315 1.17667,0.31315zM229.98668,186.45152l-1.07058,0.30304c-0.06756,-0.17844 -0.16683,-0.35187 -0.29809,-0.52021c-0.12801,-0.17174 -0.30313,-0.31317 -0.52537,-0.42429c-0.22224,-0.11112 -0.5067,-0.16668 -0.85339,-0.16668c-0.47499,0 -0.87057,0.10946 -1.18704,0.32832c-0.3132,0.21551 -0.46966,0.48993 -0.46966,0.82328c0,0.29631 0.10756,0.53034 0.32328,0.70206c0.21542,0.17174 0.55203,0.31483 1.01014,0.42933l1.15148,0.28283c0.69367,0.16837 1.21045,0.42595 1.55061,0.77279c0.34017,0.34346 0.51025,0.78624 0.51025,1.32835c0,0.44447 -0.12801,0.84183 -0.38402,1.19193c-0.25246,0.35024 -0.60596,0.62641 -1.06051,0.8285c-0.45484,0.20209 -0.98347,0.30283 -1.58617,0.30283c-0.79116,0 -1.44602,-0.17157 -1.96457,-0.51499c-0.51855,-0.34343 -0.84687,-0.84524 -0.98495,-1.50519l1.13133,-0.28286c0.10786,0.41754 0.31143,0.73068 0.611,0.93947c0.30313,0.20884 0.69871,0.31315 1.18704,0.31315c0.55559,0 0.9968,-0.11793 1.32334,-0.35356c0.33009,-0.23907 0.49485,-0.52528 0.49485,-0.85863c0,-0.26938 -0.09423,-0.49499 -0.28268,-0.67681c-0.18846,-0.1852 -0.47825,-0.32325 -0.86879,-0.41416l-1.29312,-0.30307c-0.71027,-0.16834 -1.23237,-0.4293 -1.56573,-0.78286c-0.3298,-0.35691 -0.49485,-0.80307 -0.49485,-1.33845c0,-0.43775 0.12297,-0.82497 0.36862,-1.1617c0.2492,-0.33673 0.58759,-0.60104 1.01517,-0.79297c0.43114,-0.19195 0.91946,-0.2879 1.46498,-0.2879c0.76745,0 1.37046,0.16837 1.80811,0.50507c0.44092,0.33673 0.75412,0.7812 0.93932,1.33342zM236.81169,189.3002v-4.58615h1.19207v7.75805h-1.19207v-1.31321h-0.08089c-0.18164,0.39404 -0.46462,0.72887 -0.84835,1.00504c-0.38402,0.27291 -0.86879,0.40921 -1.4549,0.40921c-0.48477,0 -0.91561,-0.10608 -1.29282,-0.31824c-0.37721,-0.21542 -0.67352,-0.5387 -0.88894,-0.96975c-0.21542,-0.43437 -0.32328,-0.98154 -0.32328,-1.64152v-4.92958h1.19207v4.84877c0,0.56569 0.15823,1.01689 0.4747,1.35362c0.31972,0.33673 0.72716,0.50522 1.2223,0.50522c0.29631,0 0.59767,-0.07586 0.90406,-0.22742c0.30995,-0.15154 0.56922,-0.38388 0.77783,-0.69702c0.21216,-0.31315 0.31824,-0.71216 0.31824,-1.19702zM240.18701,192.4721v-7.75805h1.15148v1.17178h0.08089c0.14134,-0.38385 0.39736,-0.69533 0.76775,-0.9344c0.37039,-0.23907 0.7879,-0.3586 1.25252,-0.3586c0.08741,0 0.19705,0.00169 0.32832,0.00504c0.13127,0.00338 0.23053,0.00842 0.2978,0.01517v1.21219c-0.0403,-0.0101 -0.13275,-0.02525 -0.27765,-0.04545c-0.14134,-0.02359 -0.29128,-0.03535 -0.44951,-0.03535c-0.37721,0 -0.71382,0.07912 -1.01014,0.23738c-0.29306,0.15488 -0.52537,0.37039 -0.69693,0.6465c-0.1686,0.27276 -0.25276,0.58421 -0.25276,0.9344v4.9094zM245.4789,192.4721v-7.75805h1.19207v7.75805zM246.08486,183.42102c-0.23231,0 -0.43262,-0.07912 -0.60093,-0.23738c-0.16505,-0.15826 -0.24742,-0.3485 -0.24742,-0.57073c0,-0.22224 0.08238,-0.4125 0.24742,-0.57076c0.16831,-0.15826 0.36862,-0.23738 0.60093,-0.23738c0.23231,0 0.43114,0.07912 0.59619,0.23738c0.16831,0.15826 0.25246,0.34853 0.25246,0.57076c0,0.22224 -0.08415,0.41247 -0.25246,0.57073c-0.16505,0.15826 -0.36387,0.23738 -0.59619,0.23738zM250.046,187.80514v4.66696h-1.19178v-7.75805h1.15148v1.21219h0.10104c0.18164,-0.39398 0.45781,-0.71047 0.8282,-0.94957c0.37039,-0.24242 0.84865,-0.36364 1.43446,-0.36364c0.52537,0 0.98495,0.10774 1.37905,0.32325c0.3938,0.21213 0.70019,0.53538 0.91917,0.96975c0.21898,0.43102 0.32832,0.9765 0.32832,1.63646v4.92961h-1.19207v-4.84877c0,-0.60949 -0.15823,-1.08424 -0.4747,-1.42435c-0.31646,-0.34343 -0.75086,-0.51517 -1.30319,-0.51517c-0.38047,0 -0.72064,0.08249 -1.02021,0.24748c-0.29631,0.16502 -0.5304,0.40577 -0.70197,0.72227c-0.17186,0.31652 -0.25779,0.7004 -0.25779,1.1516zM260.30559,195.5431c-0.57574,0 -1.07088,-0.07408 -1.48483,-0.22224c-0.41425,-0.1449 -0.75945,-0.33691 -1.03562,-0.57604c-0.27261,-0.23557 -0.48981,-0.48803 -0.6516,-0.75738l0.94969,-0.66671c0.10786,0.14134 0.24416,0.30283 0.40921,0.48477c0.16475,0.1852 0.39054,0.34521 0.67678,0.47973c0.2895,0.13808 0.66819,0.20712 1.13637,0.20712c0.62641,0 1.14318,-0.15142 1.55061,-0.45455c0.40743,-0.30313 0.611,-0.77783 0.611,-1.42438v-1.57577h-0.10104c-0.08741,0.14143 -0.21186,0.31643 -0.37365,0.52534c-0.15823,0.20535 -0.38728,0.38876 -0.68686,0.55055c-0.29631,0.15823 -0.69693,0.23735 -1.20215,0.23735c-0.62641,0 -1.18852,-0.14816 -1.68692,-0.44447c-0.49514,-0.29631 -0.88717,-0.72733 -1.17696,-1.29303c-0.28624,-0.56569 -0.42936,-1.25261 -0.42936,-2.06075c0,-0.79466 0.13986,-1.48661 0.41929,-2.07589c0.27942,-0.59263 0.66849,-1.05055 1.16689,-1.3738c0.4984,-0.32663 1.07414,-0.48993 1.72722,-0.48993c0.50522,0 0.90583,0.08418 1.20215,0.25252c0.29957,0.16502 0.52863,0.35356 0.68686,0.56569c0.16179,0.20878 0.28624,0.3805 0.37395,0.5152h0.12119v-1.2324h1.15148v7.98029c0,0.66671 -0.15142,1.20896 -0.45455,1.62647c-0.29957,0.42077 -0.70375,0.72893 -1.21222,0.92421c-0.50492,0.19853 -1.06733,0.29809 -1.68692,0.29809zM260.26529,191.28011c0.47796,0 0.88213,-0.10943 1.21193,-0.32832c0.33009,-0.21886 0.58107,-0.53369 0.75264,-0.9445c0.17186,-0.41078 0.25779,-0.9024 0.25779,-1.47485c0,-0.55894 -0.08445,-1.05224 -0.25276,-1.47988c-0.16831,-0.42764 -0.41751,-0.76265 -0.74731,-1.0051c-0.33009,-0.24244 -0.73753,-0.36367 -1.2223,-0.36367c-0.50522,0 -0.92598,0.12795 -1.26289,0.38388c-0.33335,0.2559 -0.58404,0.59936 -0.75264,1.03035c-0.16475,0.43102 -0.24742,0.90915 -0.24742,1.43443c0,0.53876 0.08415,1.01523 0.25246,1.42939c0.17186,0.41081 0.42432,0.73406 0.75768,0.96975c0.33691,0.23234 0.75442,0.34853 1.25282,0.34853zM273.05394,192.61344c-0.59263,0 -1.12659,-0.11764 -1.60128,-0.3535c-0.4747,-0.23557 -0.85516,-0.55885 -1.1414,-0.96984c-0.28624,-0.41069 -0.44269,-0.87872 -0.46966,-1.40403h1.21222c0.04711,0.46806 0.25928,0.85528 0.63619,1.1617c0.38047,0.30307 0.83531,0.45449 1.36394,0.45449c0.42403,0 0.80123,-0.09927 1.13133,-0.29791c0.33335,-0.19868 0.59411,-0.47141 0.78286,-0.81824c0.19201,-0.35018 0.28772,-0.74582 0.28772,-1.18695c0,-0.4512 -0.09927,-0.85356 -0.2978,-1.20713c-0.19527,-0.35694 -0.46462,-0.63808 -0.80835,-0.84349c-0.34343,-0.20541 -0.73545,-0.3098 -1.17667,-0.31315c-0.31646,-0.00338 -0.64152,0.04545 -0.97488,0.14647c-0.33335,0.09764 -0.60774,0.22392 -0.82316,0.37881l-1.17192,-0.14143l0.62641,-5.09122h5.37396v1.11118h-4.32353l-0.36358,3.05071h0.06074c0.21186,-0.16837 0.47796,-0.30811 0.79798,-0.41923c0.31972,-0.11112 0.65308,-0.16668 1.00006,-0.16668c0.63293,0 1.19681,0.15154 1.69196,0.45458c0.4984,0.29966 0.88894,0.71047 1.17163,1.2324c0.28624,0.5219 0.42936,1.11791 0.42936,1.78799c0,0.65995 -0.14816,1.24923 -0.44447,1.76778c-0.29276,0.5152 -0.69693,0.92263 -1.21222,1.22221c-0.51499,0.29631 -1.10081,0.44447 -1.75744,0.44447zM287.38431,189.3002v-4.58615h1.19207v7.75805h-1.19207v-1.31321h-0.08089c-0.18194,0.39404 -0.46462,0.72887 -0.84865,1.00504c-0.38373,0.27291 -0.8685,0.40921 -1.45461,0.40921c-0.48477,0 -0.91591,-0.10608 -1.29282,-0.31824c-0.37721,-0.21542 -0.67352,-0.5387 -0.88894,-0.96975c-0.21572,-0.43437 -0.32328,-0.98154 -0.32328,-1.64152v-4.92958h1.19207v4.84877c0,0.56569 0.15823,1.01689 0.4747,1.35362c0.31972,0.33673 0.72716,0.50522 1.2223,0.50522c0.29631,0 0.59767,-0.07586 0.90406,-0.22742c0.30965,-0.15154 0.56892,-0.38388 0.77783,-0.69702c0.21216,-0.31315 0.31824,-0.71216 0.31824,-1.19702zM291.95141,187.80514v4.66696h-1.19207v-7.75805h1.15178v1.21219h0.10104c0.18164,-0.39398 0.45781,-0.71047 0.8282,-0.94957c0.37039,-0.24242 0.84865,-0.36364 1.43446,-0.36364c0.52537,0 0.98495,0.10774 1.37875,0.32325c0.3941,0.21213 0.70049,0.53538 0.91946,0.96975c0.21868,0.43102 0.32832,0.9765 0.32832,1.63646v4.92961h-1.19207v-4.84877c0,-0.60949 -0.15823,-1.08424 -0.4747,-1.42435c-0.31646,-0.34343 -0.75086,-0.51517 -1.30319,-0.51517c-0.38047,0 -0.72064,0.08249 -1.02021,0.24748c-0.29631,0.16502 -0.5304,0.40577 -0.70227,0.72227c-0.17157,0.31652 -0.2575,0.7004 -0.2575,1.1516zM299.07955,192.4721v-7.75805h1.19178v7.75805zM299.68551,183.42102c-0.23231,0 -0.43262,-0.07912 -0.60093,-0.23738c-0.16505,-0.15826 -0.24772,-0.3485 -0.24772,-0.57073c0,-0.22224 0.08267,-0.4125 0.24772,-0.57076c0.16831,-0.15826 0.36862,-0.23738 0.60093,-0.23738c0.23231,0 0.43114,0.07912 0.59589,0.23738c0.1686,0.15826 0.25276,0.34853 0.25276,0.57076c0,0.22224 -0.08415,0.41247 -0.25276,0.57073c-0.16475,0.15826 -0.36358,0.23738 -0.59589,0.23738zM305.82871,184.71405v1.01017h-4.02069v-1.01017zM302.97994,182.85536h1.19207v7.39438c0,0.33673 0.0486,0.58925 0.14638,0.75762c0.10104,0.16499 0.22905,0.27611 0.38373,0.33341c0.15853,0.05393 0.32506,0.08089 0.50018,0.08089c0.13127,0 0.23913,-0.00682 0.32328,-0.02045c0.08415,-0.01659 0.15142,-0.03022 0.20209,-0.0403l0.24239,1.07088c-0.08089,0.03022 -0.19379,0.06045 -0.33839,0.09067c-0.1449,0.03378 -0.32832,0.05067 -0.55055,0.05067c-0.33691,0 -0.66671,-0.0723 -0.98999,-0.2172c-0.32002,-0.1449 -0.58581,-0.36536 -0.79798,-0.66167c-0.2089,-0.29631 -0.3132,-0.67009 -0.3132,-1.12128zM312.97789,186.45152l-1.07058,0.30304c-0.06756,-0.17844 -0.16683,-0.35187 -0.29809,-0.52021c-0.12801,-0.17174 -0.30313,-0.31317 -0.52537,-0.42429c-0.22224,-0.11112 -0.5067,-0.16668 -0.85339,-0.16668c-0.47499,0 -0.87057,0.10946 -1.18704,0.32832c-0.3132,0.21551 -0.46966,0.48993 -0.46966,0.82328c0,0.29631 0.10756,0.53034 0.32328,0.70206c0.21542,0.17174 0.55203,0.31483 1.01014,0.42933l1.15148,0.28283c0.69367,0.16837 1.21045,0.42595 1.55061,0.77279c0.34017,0.34346 0.51025,0.78624 0.51025,1.32835c0,0.44447 -0.12801,0.84183 -0.38402,1.19193c-0.25246,0.35024 -0.60596,0.62641 -1.06051,0.8285c-0.45455,0.20209 -0.98347,0.30283 -1.58617,0.30283c-0.79116,0 -1.44602,-0.17157 -1.96457,-0.51499c-0.51855,-0.34343 -0.84687,-0.84524 -0.98495,-1.50519l1.13133,-0.28286c0.10786,0.41754 0.31143,0.73068 0.6113,0.93947c0.30283,0.20884 0.69841,0.31315 1.18674,0.31315c0.55559,0 0.9968,-0.11793 1.32334,-0.35356c0.33009,-0.23907 0.49514,-0.52528 0.49514,-0.85863c0,-0.26938 -0.09452,-0.49499 -0.28298,-0.67681c-0.18846,-0.1852 -0.47825,-0.32325 -0.86879,-0.41416l-1.29282,-0.30307c-0.71056,-0.16834 -1.23267,-0.4293 -1.56602,-0.78286c-0.3298,-0.35691 -0.49485,-0.80307 -0.49485,-1.33845c0,-0.43775 0.12297,-0.82497 0.36862,-1.1617c0.2492,-0.33673 0.58759,-0.60104 1.01517,-0.79297c0.43114,-0.19195 0.91946,-0.2879 1.46498,-0.2879c0.76775,0 1.37046,0.16837 1.80811,0.50507c0.44121,0.33673 0.75412,0.7812 0.93932,1.33342zM322.16661,192.63359c-0.74731,0 -1.39238,-0.16475 -1.93434,-0.49485c-0.5387,-0.33335 -0.95473,-0.79798 -1.24748,-1.39401c-0.2898,-0.59939 -0.4344,-1.29638 -0.4344,-2.09106c0,-0.79466 0.1446,-1.49503 0.4344,-2.10114c0.29276,-0.60946 0.70019,-1.08424 1.2223,-1.42433c0.52507,-0.34346 1.13814,-0.51517 1.83834,-0.51517c0.40417,0 0.80301,0.06732 1.19711,0.20203c0.3941,0.13468 0.75264,0.35356 1.07592,0.6566c0.32328,0.29969 0.58078,0.69702 0.77279,1.19198c0.19172,0.49499 0.28772,1.10445 0.28772,1.82841v0.50507h-5.98022v-1.03035h4.768c0,-0.43775 -0.08741,-0.82835 -0.26253,-1.17181c-0.17186,-0.34346 -0.41751,-0.61453 -0.73753,-0.81318c-0.31646,-0.19868 -0.69012,-0.298 -1.12125,-0.298c-0.4747,0 -0.88539,0.11784 -1.23237,0.35356c-0.34343,0.23234 -0.60774,0.53538 -0.79294,0.90915c-0.1852,0.37374 -0.27765,0.77445 -0.27765,1.20209v0.68692c0,0.58587 0.10075,1.08256 0.30283,1.48999c0.20535,0.40405 0.4901,0.71216 0.85368,0.92429c0.36358,0.2089 0.78612,0.3132 1.26763,0.3132c0.3132,0 0.59619,-0.04385 0.84865,-0.13127c0.25602,-0.09097 0.47647,-0.2257 0.66167,-0.40417c0.1852,-0.18182 0.32832,-0.40743 0.42936,-0.67681l1.15148,0.32325c-0.12119,0.3906 -0.32476,0.73403 -0.611,1.03035c-0.28624,0.29306 -0.63974,0.52181 -1.06081,0.68686c-0.42077,0.16179 -0.89398,0.24239 -1.41935,0.24239zM329.47521,192.65404c-0.49159,0 -0.93784,-0.09275 -1.33845,-0.27794c-0.40062,-0.18846 -0.71886,-0.45958 -0.95473,-0.81309c-0.23557,-0.35697 -0.3535,-0.78799 -0.3535,-1.29306c0,-0.44447 0.08771,-0.80476 0.26283,-1.08087c0.17512,-0.27948 0.40891,-0.49837 0.70197,-0.65663c0.29306,-0.15823 0.61633,-0.27611 0.96984,-0.35353c0.35676,-0.08083 0.7153,-0.14481 1.07562,-0.19195c0.47144,-0.0606 0.85368,-0.10605 1.14674,-0.13636c0.29631,-0.03366 0.51174,-0.08922 0.64656,-0.16668c0.13779,-0.07746 0.20683,-0.21213 0.20683,-0.40405v-0.04042c0,-0.49834 -0.1363,-0.88557 -0.40891,-1.16167c-0.26935,-0.27614 -0.67856,-0.41419 -1.22734,-0.41419c-0.56922,0 -1.01517,0.1246 -1.33845,0.37377c-0.32328,0.24917 -0.55055,0.51517 -0.68212,0.79803l-1.13133,-0.40408c0.20209,-0.47141 0.47144,-0.83842 0.80835,-1.10108c0.33987,-0.266 0.71027,-0.4512 1.11118,-0.55559c0.40388,-0.10774 0.80123,-0.16161 1.19178,-0.16161c0.2492,0 0.53544,0.03028 0.85872,0.09091c0.32654,0.05725 0.64152,0.17678 0.94465,0.3586c0.30639,0.18185 0.56063,0.45627 0.76242,0.82328c0.20209,0.36704 0.30313,0.85866 0.30313,1.47485v5.11143h-1.19207v-1.05044h-0.06045c-0.08089,0.16831 -0.21542,0.34847 -0.40417,0.54018c-0.18846,0.19201 -0.43943,0.35528 -0.75264,0.4901c-0.31291,0.13453 -0.69515,0.20209 -1.14644,0.20209zM329.65715,191.58316c0.47144,0 0.86879,-0.09245 1.19178,-0.27794c0.32684,-0.18505 0.57248,-0.42412 0.73753,-0.71708c0.16831,-0.29294 0.25246,-0.60104 0.25246,-0.92429v-1.09097c-0.05037,0.06063 -0.16149,0.11618 -0.33335,0.16668c-0.16831,0.04714 -0.36358,0.08922 -0.58581,0.12626c-0.21898,0.03369 -0.43262,0.064 -0.64152,0.09094c-0.20535,0.02356 -0.37187,0.04377 -0.49988,0.0606c-0.30995,0.04042 -0.59944,0.10608 -0.86879,0.19699c-0.26609,0.08753 -0.48151,0.22055 -0.64656,0.39902c-0.16149,0.17509 -0.24239,0.41416 -0.24239,0.7172c0,0.41419 0.15319,0.72733 0.45958,0.93947c0.30995,0.20884 0.70197,0.31315 1.17696,0.31315zM338.35843,192.63359c-0.72745,0 -1.35357,-0.17157 -1.87893,-0.51499c-0.52537,-0.34343 -0.92924,-0.81664 -1.21222,-1.41935c-0.28298,-0.6027 -0.42432,-1.29131 -0.42432,-2.06576c0,-0.78793 0.1449,-1.48326 0.4344,-2.086c0.29306,-0.60611 0.70049,-1.07921 1.2223,-1.41929c0.52537,-0.34346 1.13814,-0.51517 1.83863,-0.51517c0.54552,0 1.0371,0.10101 1.47476,0.30304c0.43766,0.20203 0.7962,0.48489 1.07592,0.84853c0.27942,0.36367 0.45277,0.78793 0.52003,1.27282h-1.19178c-0.09097,-0.35356 -0.29306,-0.66671 -0.60626,-0.93947c-0.30965,-0.27611 -0.72716,-0.41416 -1.25252,-0.41416c-0.46462,0 -0.87205,0.12122 -1.2223,0.36367c-0.34698,0.23907 -0.61782,0.57746 -0.81338,1.0152c-0.19172,0.43437 -0.28772,0.9445 -0.28772,1.53041c0,0.59936 0.09423,1.12128 0.28268,1.56576c0.19201,0.44447 0.46136,0.78962 0.80835,1.03541c0.35024,0.24579 0.76094,0.36876 1.23237,0.36876c0.30965,0 0.59085,-0.05393 0.84331,-0.16179c0.25276,-0.10756 0.4664,-0.26253 0.64152,-0.46456c0.17512,-0.20203 0.29987,-0.44447 0.37395,-0.72733h1.19178c-0.06726,0.45795 -0.23409,0.87042 -0.49988,1.23753c-0.26283,0.36358 -0.6113,0.65308 -1.04569,0.86879c-0.43084,0.21216 -0.9325,0.31795 -1.50498,0.31795zM344.34369,187.80514v4.66696h-1.19207v-10.34408h1.19207v3.79822h0.10104c0.18164,-0.40071 0.45455,-0.71889 0.81812,-0.95461c0.36713,-0.23907 0.85516,-0.3586 1.46468,-0.3586c0.52863,0 0.99177,0.10605 1.38912,0.31818c0.39736,0.20878 0.70523,0.53034 0.92421,0.96471c0.22224,0.43102 0.33335,0.97985 0.33335,1.64656v4.92961h-1.19207v-4.84877c0,-0.61622 -0.16001,-1.09266 -0.47973,-1.42939c-0.31646,-0.34008 -0.7559,-0.51014 -1.3183,-0.51014c-0.39054,0 -0.74079,0.08249 -1.05044,0.24748c-0.30669,0.16502 -0.54907,0.40577 -0.72745,0.72227c-0.17512,0.31652 -0.26253,0.7004 -0.26253,1.1516zM353.11045,189.56282v-0.0606c0.00682,-0.64315 0.07408,-1.15498 0.20209,-1.53544c0.12801,-0.3805 0.30995,-0.68861 0.54552,-0.92432c0.23557,-0.23569 0.51855,-0.45289 0.84865,-0.65154c0.19853,-0.12122 0.37691,-0.26434 0.53544,-0.42933c0.15823,-0.16837 0.28268,-0.36198 0.37365,-0.58084c0.09423,-0.21889 0.14134,-0.4613 0.14134,-0.72733c0,-0.32998 -0.07734,-0.61619 -0.23231,-0.85863c-0.15497,-0.24244 -0.3621,-0.42933 -0.62137,-0.56063c-0.25928,-0.13133 -0.547,-0.19699 -0.86346,-0.19699c-0.27617,0 -0.54226,0.05725 -0.79798,0.17171c-0.25602,0.1145 -0.46996,0.29466 -0.64152,0.54045c-0.17186,0.24579 -0.27113,0.56738 -0.29809,0.96471h-1.27267c0.02667,-0.57242 0.17483,-1.06235 0.44447,-1.46978c0.27261,-0.40743 0.63115,-0.71892 1.07562,-0.93443c0.44803,-0.21548 0.94465,-0.32325 1.49017,-0.32325c0.59263,0 1.10762,0.11787 1.54558,0.35356c0.44092,0.23572 0.78109,0.55897 1.02021,0.96975c0.24239,0.41081 0.36358,0.87887 0.36358,1.40415c0,0.37039 -0.05719,0.70544 -0.17157,1.0051c-0.11141,0.29969 -0.27291,0.56738 -0.48507,0.8031c-0.20861,0.23569 -0.46136,0.44447 -0.75768,0.62629c-0.29631,0.1852 -0.53366,0.3805 -0.71204,0.5859c-0.17838,0.20203 -0.30817,0.44278 -0.38906,0.72227c-0.0806,0.27945 -0.12445,0.62798 -0.13127,1.04552v0.0606zM353.75701,192.55299c-0.2492,0 -0.46284,-0.08919 -0.64152,-0.26787c-0.17838,-0.17838 -0.26757,-0.39232 -0.26757,-0.64122c0,-0.2492 0.08919,-0.46314 0.26757,-0.64158c0.17868,-0.17847 0.39232,-0.26769 0.64152,-0.26769c0.2492,0 0.46314,0.08922 0.64152,0.26769c0.17838,0.17844 0.26757,0.39238 0.26757,0.64158c0,0.16475 -0.04208,0.31646 -0.12623,0.45455c-0.08089,0.13808 -0.19023,0.2492 -0.32832,0.33335c-0.13453,0.0806 -0.28624,0.12119 -0.45455,0.12119z"/></g></g></svg>