<svg xmlns="http://www.w3.org/2000/svg" fill="none" viewBox="0 0 139 164" height="164" width="139">
<path fill="#43D059" d="M0 20C0 8.95431 8.95431 0 20 0H119C130.046 0 139 8.95431 139 20V144C139 155.046 130.046 164 119 164H20C8.95431 164 0 155.046 0 144V20Z"></path>
<path fill="black" d="M36.2102 135.455V150H34.5341V135.455H36.2102ZM43.854 150.227C42.8029 150.227 41.8962 149.995 41.1339 149.531C40.3763 149.062 39.7915 148.409 39.3796 147.571C38.9724 146.728 38.7688 145.748 38.7688 144.631C38.7688 143.513 38.9724 142.528 39.3796 141.676C39.7915 140.819 40.3645 140.152 41.0984 139.673C41.837 139.19 42.6987 138.949 43.6836 138.949C44.2518 138.949 44.8129 139.044 45.3668 139.233C45.9208 139.422 46.4251 139.73 46.8796 140.156C47.3342 140.578 47.6964 141.136 47.9663 141.832C48.2362 142.528 48.3711 143.385 48.3711 144.403V145.114H39.962V143.665H46.6665C46.6665 143.049 46.5434 142.5 46.2972 142.017C46.0558 141.534 45.7101 141.153 45.2603 140.874C44.8152 140.594 44.2897 140.455 43.6836 140.455C43.016 140.455 42.4383 140.62 41.9506 140.952C41.4677 141.278 41.096 141.705 40.8356 142.23C40.5752 142.756 40.445 143.319 40.445 143.92V144.886C40.445 145.71 40.587 146.409 40.8711 146.982C41.1599 147.55 41.56 147.983 42.0714 148.281C42.5827 148.575 43.177 148.722 43.854 148.722C44.2944 148.722 44.6921 148.66 45.0472 148.537C45.4071 148.409 45.7172 148.22 45.9776 147.969C46.238 147.713 46.4393 147.396 46.5813 147.017L48.2006 147.472C48.0302 148.021 47.7437 148.504 47.3413 148.92C46.9388 149.332 46.4416 149.654 45.8498 149.886C45.2579 150.114 44.5927 150.227 43.854 150.227ZM55.6651 139.091V140.511H50.0117V139.091H55.6651ZM51.6594 136.477H53.3356V146.875C53.3356 147.348 53.4042 147.704 53.5415 147.94C53.6836 148.172 53.8635 148.329 54.0813 148.409C54.3039 148.485 54.5382 148.523 54.7844 148.523C54.9691 148.523 55.1206 148.513 55.239 148.494C55.3574 148.471 55.4521 148.452 55.5231 148.438L55.864 149.943C55.7504 149.986 55.5917 150.028 55.3881 150.071C55.1845 150.118 54.9265 150.142 54.614 150.142C54.1405 150.142 53.6765 150.04 53.2219 149.837C52.7721 149.633 52.3981 149.323 52.0998 148.906C51.8062 148.49 51.6594 147.964 51.6594 147.33V136.477ZM62.9308 139.091V140.511H57.2773V139.091H62.9308ZM58.9251 136.477H60.6012V146.875C60.6012 147.348 60.6699 147.704 60.8072 147.94C60.9492 148.172 61.1291 148.329 61.3469 148.409C61.5695 148.485 61.8039 148.523 62.0501 148.523C62.2347 148.523 62.3862 148.513 62.5046 148.494C62.623 148.471 62.7177 148.452 62.7887 148.438L63.1296 149.943C63.016 149.986 62.8574 150.028 62.6538 150.071C62.4502 150.118 62.1921 150.142 61.8796 150.142C61.4061 150.142 60.9421 150.04 60.4876 149.837C60.0378 149.633 59.6637 149.323 59.3654 148.906C59.0719 148.49 58.9251 147.964 58.9251 147.33V136.477ZM69.9087 150.227C68.8576 150.227 67.9509 149.995 67.1886 149.531C66.431 149.062 65.8462 148.409 65.4343 147.571C65.0271 146.728 64.8235 145.748 64.8235 144.631C64.8235 143.513 65.0271 142.528 65.4343 141.676C65.8462 140.819 66.4192 140.152 67.1531 139.673C67.8917 139.19 68.7534 138.949 69.7383 138.949C70.3065 138.949 70.8675 139.044 71.4215 139.233C71.9755 139.422 72.4798 139.73 72.9343 140.156C73.3888 140.578 73.7511 141.136 74.021 141.832C74.2908 142.528 74.4258 143.385 74.4258 144.403V145.114H66.0167V143.665H72.7212C72.7212 143.049 72.5981 142.5 72.3519 142.017C72.1104 141.534 71.7648 141.153 71.315 140.874C70.8699 140.594 70.3443 140.455 69.7383 140.455C69.0707 140.455 68.493 140.62 68.0053 140.952C67.5224 141.278 67.1507 141.705 66.8903 142.23C66.6299 142.756 66.4996 143.319 66.4996 143.92V144.886C66.4996 145.71 66.6417 146.409 66.9258 146.982C67.2146 147.55 67.6147 147.983 68.1261 148.281C68.6374 148.575 69.2317 148.722 69.9087 148.722C70.3491 148.722 70.7468 148.66 71.1019 148.537C71.4618 148.409 71.7719 148.22 72.0323 147.969C72.2927 147.713 72.494 147.396 72.636 147.017L74.2553 147.472C74.0849 148.021 73.7984 148.504 73.396 148.92C72.9935 149.332 72.4963 149.654 71.9045 149.886C71.3126 150.114 70.6474 150.227 69.9087 150.227ZM76.9755 150V139.091H78.5948V140.739H78.7085C78.9073 140.199 79.2672 139.761 79.788 139.425C80.3088 139.089 80.896 138.92 81.5494 138.92C81.6725 138.92 81.8263 138.923 82.011 138.928C82.1957 138.932 82.3353 138.939 82.43 138.949V140.653C82.3732 140.639 82.243 140.618 82.0394 140.589C81.8406 140.556 81.6299 140.54 81.4073 140.54C80.877 140.54 80.4035 140.651 79.9869 140.874C79.5749 141.091 79.2482 141.394 79.0067 141.783C78.77 142.166 78.6516 142.604 78.6516 143.097V150H76.9755ZM90.2692 150V135.455H95.3544C96.3677 135.455 97.2034 135.63 97.8615 135.98C98.5197 136.326 99.0097 136.792 99.3317 137.379C99.6536 137.962 99.8146 138.608 99.8146 139.318C99.8146 139.943 99.7034 140.459 99.4808 140.866C99.263 141.274 98.9742 141.596 98.6143 141.832C98.2592 142.069 97.8733 142.244 97.4567 142.358V142.5C97.9018 142.528 98.3492 142.685 98.799 142.969C99.2488 143.253 99.6252 143.66 99.9283 144.19C100.231 144.721 100.383 145.369 100.383 146.136C100.383 146.866 100.217 147.521 99.8857 148.104C99.5542 148.686 99.031 149.148 98.3161 149.489C97.6011 149.83 96.6707 150 95.5249 150H90.2692ZM92.0305 148.438H95.5249C96.6754 148.438 97.4922 148.215 97.9751 147.77C98.4628 147.32 98.7067 146.776 98.7067 146.136C98.7067 145.644 98.5812 145.189 98.3303 144.773C98.0793 144.351 97.7218 144.015 97.2578 143.764C96.7938 143.509 96.2446 143.381 95.6101 143.381H92.0305V148.438ZM92.0305 141.847H95.2976C95.8279 141.847 96.3061 141.742 96.7322 141.534C97.1631 141.326 97.504 141.032 97.755 140.653C98.0107 140.275 98.1385 139.83 98.1385 139.318C98.1385 138.679 97.916 138.137 97.4709 137.692C97.0258 137.242 96.3203 137.017 95.3544 137.017H92.0305V141.847Z"></path>
<path fill="black" d="M19.4496 35.5455H21.9723L27.9041 50.0341H28.1087L34.0405 35.5455H36.5632V53H34.5859V39.7386H34.4155L28.9609 53H27.0518L21.5973 39.7386H21.4268V53H19.4496V35.5455ZM44.3807 53.3068C43.5511 53.3068 42.7983 53.1506 42.1222 52.8381C41.446 52.5199 40.9091 52.0625 40.5114 51.4659C40.1136 50.8636 39.9148 50.1364 39.9148 49.2841C39.9148 48.5341 40.0625 47.9261 40.358 47.4602C40.6534 46.9886 41.0483 46.6193 41.5426 46.3523C42.0369 46.0852 42.5824 45.8864 43.179 45.7557C43.7813 45.6193 44.3864 45.5114 44.9943 45.4318C45.7898 45.3295 46.4347 45.2528 46.929 45.2017C47.429 45.1449 47.7926 45.0511 48.0199 44.9205C48.2528 44.7898 48.3693 44.5625 48.3693 44.2386V44.1705C48.3693 43.3295 48.1392 42.6761 47.679 42.2102C47.2244 41.7443 46.5341 41.5114 45.608 41.5114C44.6477 41.5114 43.8949 41.7216 43.3494 42.142C42.804 42.5625 42.4205 43.0114 42.1989 43.4886L40.2898 42.8068C40.6307 42.0114 41.0852 41.392 41.6534 40.9489C42.2273 40.5 42.8523 40.1875 43.5284 40.0114C44.2102 39.8295 44.8807 39.7386 45.5398 39.7386C45.9602 39.7386 46.4432 39.7898 46.9886 39.892C47.5398 39.9886 48.071 40.1903 48.5824 40.4972C49.0994 40.804 49.5284 41.267 49.8693 41.8864C50.2102 42.5057 50.3807 43.3352 50.3807 44.375V53H48.3693V51.2273H48.267C48.1307 51.5114 47.9034 51.8153 47.5852 52.1392C47.267 52.4631 46.8438 52.7386 46.3153 52.9659C45.7869 53.1932 45.142 53.3068 44.3807 53.3068ZM44.6875 51.5C45.483 51.5 46.1534 51.3438 46.6989 51.0312C47.25 50.7188 47.6648 50.3153 47.9432 49.821C48.2273 49.3267 48.3693 48.8068 48.3693 48.2614V46.4205C48.2841 46.5227 48.0966 46.6165 47.8068 46.7017C47.5227 46.7812 47.1932 46.8523 46.8182 46.9148C46.4489 46.9716 46.0881 47.0227 45.7358 47.0682C45.3892 47.108 45.108 47.142 44.892 47.1705C44.3693 47.2386 43.8807 47.3494 43.4261 47.5028C42.9773 47.6506 42.6136 47.875 42.3352 48.1761C42.0625 48.4716 41.9261 48.875 41.9261 49.3864C41.9261 50.0852 42.1847 50.6136 42.7017 50.9716C43.2244 51.3239 43.8864 51.5 44.6875 51.5ZM59.3359 58.1818C58.3643 58.1818 57.5291 58.0568 56.8303 57.8068C56.1314 57.5625 55.549 57.2386 55.0831 56.8352C54.6229 56.4375 54.2564 56.0114 53.9837 55.5568L55.5859 54.4318C55.7678 54.6705 55.9979 54.9432 56.2763 55.25C56.5547 55.5625 56.9354 55.8324 57.4183 56.0597C57.907 56.2926 58.5462 56.4091 59.3359 56.4091C60.3928 56.4091 61.2649 56.1534 61.9524 55.642C62.6399 55.1307 62.9837 54.3295 62.9837 53.2386V50.5795H62.8132C62.6655 50.8182 62.4553 51.1136 62.1825 51.4659C61.9155 51.8125 61.5291 52.1222 61.0234 52.3949C60.5234 52.6619 59.8473 52.7955 58.995 52.7955C57.9382 52.7955 56.9893 52.5455 56.1484 52.0455C55.3132 51.5455 54.6513 50.8182 54.1626 49.8636C53.6797 48.9091 53.4382 47.75 53.4382 46.3864C53.4382 45.0455 53.674 43.8778 54.1456 42.8835C54.6172 41.8835 55.2734 41.1108 56.1143 40.5653C56.9553 40.0142 57.9268 39.7386 59.0291 39.7386C59.8814 39.7386 60.5575 39.8807 61.0575 40.1648C61.5632 40.4432 61.9496 40.7614 62.2166 41.1193C62.4893 41.4716 62.6996 41.7614 62.8473 41.9886H63.0518V39.9091H64.995V53.375C64.995 54.5 64.7393 55.4148 64.228 56.1193C63.7223 56.8295 63.0405 57.3494 62.1825 57.679C61.3303 58.0142 60.3814 58.1818 59.3359 58.1818ZM59.2678 50.9886C60.0746 50.9886 60.7564 50.804 61.3132 50.4347C61.87 50.0653 62.2933 49.5341 62.5831 48.8409C62.8729 48.1477 63.0178 47.3182 63.0178 46.3523C63.0178 45.4091 62.8757 44.5767 62.5916 43.8551C62.3075 43.1335 61.8871 42.5682 61.3303 42.1591C60.7734 41.75 60.0859 41.5455 59.2678 41.5455C58.4155 41.5455 57.7053 41.7614 57.1371 42.1932C56.5746 42.625 56.1513 43.2045 55.8672 43.9318C55.5888 44.6591 55.4496 45.4659 55.4496 46.3523C55.4496 47.2614 55.5916 48.0653 55.8757 48.7642C56.1655 49.4574 56.5916 50.0028 57.1541 50.4006C57.7223 50.7926 58.4268 50.9886 59.2678 50.9886ZM70.6882 45.125V53H68.6768V39.9091H70.62V41.9545H70.7905C71.0973 41.2898 71.5632 40.7557 72.1882 40.3523C72.8132 39.9432 73.62 39.7386 74.6087 39.7386C75.495 39.7386 76.2706 39.9205 76.9354 40.2841C77.6001 40.642 78.1172 41.1875 78.4865 41.9205C78.8558 42.6477 79.0405 43.5682 79.0405 44.6818V53H77.0291V44.8182C77.0291 43.7898 76.7621 42.9886 76.228 42.4148C75.6939 41.8352 74.9609 41.5455 74.0291 41.5455C73.3871 41.5455 72.8132 41.6847 72.3075 41.9631C71.8075 42.2415 71.4126 42.6477 71.1229 43.1818C70.8331 43.7159 70.6882 44.3636 70.6882 45.125ZM88.2045 53.2727C86.9432 53.2727 85.8551 52.9943 84.9403 52.4375C84.0312 51.875 83.3295 51.0909 82.8352 50.0852C82.3466 49.0739 82.1023 47.8977 82.1023 46.5568C82.1023 45.2159 82.3466 44.0341 82.8352 43.0114C83.3295 41.983 84.017 41.1818 84.8977 40.608C85.7841 40.0284 86.8182 39.7386 88 39.7386C88.6818 39.7386 89.3551 39.8523 90.0199 40.0795C90.6847 40.3068 91.2898 40.6761 91.8352 41.1875C92.3807 41.6932 92.8153 42.3636 93.1392 43.1989C93.4631 44.0341 93.625 45.0625 93.625 46.2841V47.1364H83.5341V45.3977H91.5795C91.5795 44.6591 91.4318 44 91.1364 43.4205C90.8466 42.8409 90.4318 42.3835 89.892 42.0483C89.358 41.7131 88.7273 41.5455 88 41.5455C87.1989 41.5455 86.5057 41.7443 85.9205 42.142C85.3409 42.5341 84.8949 43.0455 84.5824 43.6761C84.2699 44.3068 84.1136 44.983 84.1136 45.7045V46.8636C84.1136 47.8523 84.2841 48.6903 84.625 49.3778C84.9716 50.0597 85.4517 50.5795 86.0653 50.9375C86.679 51.2898 87.392 51.4659 88.2045 51.4659C88.733 51.4659 89.2102 51.392 89.6364 51.2443C90.0682 51.0909 90.4403 50.8636 90.7528 50.5625C91.0653 50.2557 91.3068 49.875 91.4773 49.4205L93.4205 49.9659C93.2159 50.625 92.8722 51.2045 92.3892 51.7045C91.9063 52.1989 91.3097 52.5852 90.5994 52.8636C89.8892 53.1364 89.0909 53.2727 88.2045 53.2727ZM102.378 39.9091V41.6136H95.5938V39.9091H102.378ZM97.571 36.7727H99.5824V49.25C99.5824 49.8182 99.6648 50.2443 99.8295 50.5284C100 50.8068 100.216 50.9943 100.477 51.0909C100.744 51.1818 101.026 51.2273 101.321 51.2273C101.543 51.2273 101.724 51.2159 101.866 51.1932C102.009 51.1648 102.122 51.142 102.207 51.125L102.616 52.9318C102.48 52.983 102.29 53.0341 102.045 53.0852C101.801 53.142 101.491 53.1705 101.116 53.1705C100.548 53.1705 99.9915 53.0483 99.446 52.804C98.9063 52.5597 98.4574 52.1875 98.0994 51.6875C97.7472 51.1875 97.571 50.5568 97.571 49.7955V36.7727ZM105.403 53V39.9091H107.415V53H105.403ZM106.426 37.7273C106.034 37.7273 105.696 37.5938 105.412 37.3267C105.134 37.0597 104.994 36.7386 104.994 36.3636C104.994 35.9886 105.134 35.6676 105.412 35.4006C105.696 35.1335 106.034 35 106.426 35C106.818 35 107.153 35.1335 107.432 35.4006C107.716 35.6676 107.858 35.9886 107.858 36.3636C107.858 36.7386 107.716 37.0597 107.432 37.3267C107.153 37.5938 106.818 37.7273 106.426 37.7273ZM116.417 53.2727C115.19 53.2727 114.133 52.983 113.246 52.4034C112.36 51.8239 111.678 51.0256 111.201 50.0085C110.724 48.9915 110.485 47.8295 110.485 46.5227C110.485 45.1932 110.729 44.0199 111.218 43.0028C111.712 41.9801 112.4 41.1818 113.281 40.608C114.167 40.0284 115.201 39.7386 116.383 39.7386C117.303 39.7386 118.133 39.9091 118.871 40.25C119.61 40.5909 120.215 41.0682 120.687 41.6818C121.158 42.2955 121.451 43.0114 121.565 43.8295H119.553C119.4 43.233 119.059 42.7045 118.531 42.2443C118.008 41.7784 117.303 41.5455 116.417 41.5455C115.633 41.5455 114.945 41.75 114.354 42.1591C113.769 42.5625 113.312 43.1335 112.982 43.8722C112.658 44.6051 112.496 45.4659 112.496 46.4545C112.496 47.4659 112.656 48.3466 112.974 49.0966C113.298 49.8466 113.752 50.429 114.337 50.8438C114.928 51.2585 115.621 51.4659 116.417 51.4659C116.94 51.4659 117.414 51.375 117.84 51.1932C118.266 51.0114 118.627 50.75 118.923 50.4091C119.218 50.0682 119.428 49.6591 119.553 49.1818H121.565C121.451 49.9545 121.17 50.6506 120.721 51.2699C120.278 51.8835 119.69 52.3722 118.957 52.7358C118.229 53.0938 117.383 53.2727 116.417 53.2727ZM48.5025 68.9091V70.6136H41.4457V68.9091H48.5025ZM43.5593 82V67.1023C43.5593 66.3523 43.7354 65.7273 44.0877 65.2273C44.44 64.7273 44.8974 64.3523 45.4599 64.1023C46.0224 63.8523 46.6161 63.7273 47.2411 63.7273C47.7354 63.7273 48.1388 63.767 48.4513 63.8466C48.7638 63.9261 48.9968 64 49.1502 64.0682L48.5707 65.8068C48.4684 65.7727 48.3263 65.7301 48.1445 65.679C47.9684 65.6278 47.7354 65.6023 47.4457 65.6023C46.7809 65.6023 46.3008 65.7699 46.0053 66.1051C45.7156 66.4403 45.5707 66.9318 45.5707 67.5795V82H43.5593ZM56.1005 82.2727C54.9187 82.2727 53.8817 81.9915 52.9897 81.429C52.1033 80.8665 51.4102 80.0795 50.9102 79.0682C50.4158 78.0568 50.1687 76.875 50.1687 75.5227C50.1687 74.1591 50.4158 72.9687 50.9102 71.9517C51.4102 70.9347 52.1033 70.1449 52.9897 69.5824C53.8817 69.0199 54.9187 68.7386 56.1005 68.7386C57.2823 68.7386 58.3164 69.0199 59.2028 69.5824C60.0948 70.1449 60.788 70.9347 61.2823 71.9517C61.7823 72.9687 62.0323 74.1591 62.0323 75.5227C62.0323 76.875 61.7823 78.0568 61.2823 79.0682C60.788 80.0795 60.0948 80.8665 59.2028 81.429C58.3164 81.9915 57.2823 82.2727 56.1005 82.2727ZM56.1005 80.4659C56.9982 80.4659 57.7369 80.2358 58.3164 79.7756C58.896 79.3153 59.3249 78.7102 59.6033 77.9602C59.8817 77.2102 60.021 76.3977 60.021 75.5227C60.021 74.6477 59.8817 73.8324 59.6033 73.0767C59.3249 72.321 58.896 71.7102 58.3164 71.2443C57.7369 70.7784 56.9982 70.5455 56.1005 70.5455C55.2028 70.5455 54.4641 70.7784 53.8846 71.2443C53.305 71.7102 52.8761 72.321 52.5977 73.0767C52.3192 73.8324 52.18 74.6477 52.18 75.5227C52.18 76.3977 52.3192 77.2102 52.5977 77.9602C52.8761 78.7102 53.305 79.3153 53.8846 79.7756C54.4641 80.2358 55.2028 80.4659 56.1005 80.4659ZM65.1026 82V68.9091H67.0458V70.8864H67.1822C67.4208 70.2386 67.8526 69.7131 68.4776 69.3097C69.1026 68.9062 69.8072 68.7045 70.5913 68.7045C70.739 68.7045 70.9237 68.7074 71.1452 68.7131C71.3668 68.7187 71.5344 68.7273 71.6481 68.7386V70.7841C71.5799 70.767 71.4237 70.7415 71.1793 70.7074C70.9407 70.6676 70.6879 70.6477 70.4208 70.6477C69.7844 70.6477 69.2163 70.7812 68.7163 71.0483C68.2219 71.3097 67.8299 71.6733 67.5401 72.1392C67.256 72.5994 67.114 73.125 67.114 73.7159V82H65.1026ZM78.9521 82.2727C77.7248 82.2727 76.668 81.983 75.7816 81.4034C74.8952 80.8239 74.2134 80.0256 73.7362 79.0085C73.2589 77.9915 73.0202 76.8295 73.0202 75.5227C73.0202 74.1932 73.2646 73.0199 73.7532 72.0028C74.2475 70.9801 74.935 70.1818 75.8157 69.608C76.7021 69.0284 77.7362 68.7386 78.918 68.7386C79.8384 68.7386 80.668 68.9091 81.4066 69.25C82.1452 69.5909 82.7504 70.0682 83.2219 70.6818C83.6935 71.2955 83.9862 72.0114 84.0998 72.8295H82.0884C81.935 72.233 81.5941 71.7045 81.0657 71.2443C80.543 70.7784 79.8384 70.5455 78.9521 70.5455C78.168 70.5455 77.4805 70.75 76.8896 71.1591C76.3043 71.5625 75.8469 72.1335 75.5174 72.8722C75.1935 73.6051 75.0316 74.4659 75.0316 75.4545C75.0316 76.4659 75.1907 77.3466 75.5089 78.0966C75.8327 78.8466 76.2873 79.429 76.8725 79.8438C77.4634 80.2585 78.1566 80.4659 78.9521 80.4659C79.4748 80.4659 79.9492 80.375 80.3754 80.1932C80.8015 80.0114 81.1623 79.75 81.4577 79.4091C81.7532 79.0682 81.9634 78.6591 82.0884 78.1818H84.0998C83.9862 78.9545 83.7049 79.6506 83.256 80.2699C82.8129 80.8835 82.2248 81.3722 81.4918 81.7358C80.7646 82.0938 79.918 82.2727 78.9521 82.2727ZM92.5288 82.2727C91.2674 82.2727 90.1793 81.9943 89.2646 81.4375C88.3555 80.875 87.6538 80.0909 87.1594 79.0852C86.6708 78.0739 86.4265 76.8977 86.4265 75.5568C86.4265 74.2159 86.6708 73.0341 87.1594 72.0114C87.6538 70.983 88.3413 70.1818 89.2219 69.608C90.1083 69.0284 91.1424 68.7386 92.3242 68.7386C93.006 68.7386 93.6793 68.8523 94.3441 69.0795C95.0089 69.3068 95.614 69.6761 96.1594 70.1875C96.7049 70.6932 97.1396 71.3636 97.4634 72.1989C97.7873 73.0341 97.9492 74.0625 97.9492 75.2841V76.1364H87.8583V74.3977H95.9038C95.9038 73.6591 95.756 73 95.4606 72.4205C95.1708 71.8409 94.756 71.3835 94.2163 71.0483C93.6822 70.7131 93.0515 70.5455 92.3242 70.5455C91.5231 70.5455 90.8299 70.7443 90.2447 71.142C89.6651 71.5341 89.2191 72.0455 88.9066 72.6761C88.5941 73.3068 88.4379 73.983 88.4379 74.7045V75.8636C88.4379 76.8523 88.6083 77.6903 88.9492 78.3778C89.2958 79.0597 89.7759 79.5795 90.3896 79.9375C91.0032 80.2898 91.7163 80.4659 92.5288 80.4659C93.0572 80.4659 93.5344 80.392 93.9606 80.2443C94.3924 80.0909 94.7646 79.8636 95.0771 79.5625C95.3896 79.2557 95.631 78.875 95.8015 78.4205L97.7447 78.9659C97.5401 79.625 97.1964 80.2045 96.7134 80.7045C96.2305 81.1989 95.6339 81.5852 94.9237 81.8636C94.2134 82.1364 93.4151 82.2727 92.5288 82.2727Z"></path>
</svg>
