<svg xmlns="http://www.w3.org/2000/svg" fill="none" viewBox="0 0 139 164" height="164" width="139">
<path fill="#EE6338" d="M0 20C0 8.95431 8.95431 0 20 0H119C130.046 0 139 8.95431 139 20V144C139 155.046 130.046 164 119 164H20C8.95431 164 0 155.046 0 144V20Z"></path>
<path fill="black" d="M36.2102 135.455V150H34.5341V135.455H36.2102ZM43.854 150.227C42.8029 150.227 41.8962 149.995 41.1339 149.531C40.3763 149.062 39.7915 148.409 39.3796 147.571C38.9724 146.728 38.7688 145.748 38.7688 144.631C38.7688 143.513 38.9724 142.528 39.3796 141.676C39.7915 140.819 40.3645 140.152 41.0984 139.673C41.837 139.19 42.6987 138.949 43.6836 138.949C44.2518 138.949 44.8129 139.044 45.3668 139.233C45.9208 139.422 46.4251 139.73 46.8796 140.156C47.3342 140.578 47.6964 141.136 47.9663 141.832C48.2362 142.528 48.3711 143.385 48.3711 144.403V145.114H39.962V143.665H46.6665C46.6665 143.049 46.5434 142.5 46.2972 142.017C46.0558 141.534 45.7101 141.153 45.2603 140.874C44.8152 140.594 44.2897 140.455 43.6836 140.455C43.016 140.455 42.4383 140.62 41.9506 140.952C41.4677 141.278 41.096 141.705 40.8356 142.23C40.5752 142.756 40.445 143.319 40.445 143.92V144.886C40.445 145.71 40.587 146.409 40.8711 146.982C41.1599 147.55 41.56 147.983 42.0714 148.281C42.5827 148.575 43.177 148.722 43.854 148.722C44.2944 148.722 44.6921 148.66 45.0472 148.537C45.4071 148.409 45.7172 148.22 45.9776 147.969C46.238 147.713 46.4393 147.396 46.5813 147.017L48.2006 147.472C48.0302 148.021 47.7437 148.504 47.3413 148.92C46.9388 149.332 46.4416 149.654 45.8498 149.886C45.2579 150.114 44.5927 150.227 43.854 150.227ZM55.6651 139.091V140.511H50.0117V139.091H55.6651ZM51.6594 136.477H53.3356V146.875C53.3356 147.348 53.4042 147.704 53.5415 147.94C53.6836 148.172 53.8635 148.329 54.0813 148.409C54.3039 148.485 54.5382 148.523 54.7844 148.523C54.9691 148.523 55.1206 148.513 55.239 148.494C55.3574 148.471 55.4521 148.452 55.5231 148.438L55.864 149.943C55.7504 149.986 55.5917 150.028 55.3881 150.071C55.1845 150.118 54.9265 150.142 54.614 150.142C54.1405 150.142 53.6765 150.04 53.2219 149.837C52.7721 149.633 52.3981 149.323 52.0998 148.906C51.8062 148.49 51.6594 147.964 51.6594 147.33V136.477ZM62.9308 139.091V140.511H57.2773V139.091H62.9308ZM58.9251 136.477H60.6012V146.875C60.6012 147.348 60.6699 147.704 60.8072 147.94C60.9492 148.172 61.1291 148.329 61.3469 148.409C61.5695 148.485 61.8039 148.523 62.0501 148.523C62.2347 148.523 62.3862 148.513 62.5046 148.494C62.623 148.471 62.7177 148.452 62.7887 148.438L63.1296 149.943C63.016 149.986 62.8574 150.028 62.6538 150.071C62.4502 150.118 62.1921 150.142 61.8796 150.142C61.4061 150.142 60.9421 150.04 60.4876 149.837C60.0378 149.633 59.6637 149.323 59.3654 148.906C59.0719 148.49 58.9251 147.964 58.9251 147.33V136.477ZM69.9087 150.227C68.8576 150.227 67.9509 149.995 67.1886 149.531C66.431 149.062 65.8462 148.409 65.4343 147.571C65.0271 146.728 64.8235 145.748 64.8235 144.631C64.8235 143.513 65.0271 142.528 65.4343 141.676C65.8462 140.819 66.4192 140.152 67.1531 139.673C67.8917 139.19 68.7534 138.949 69.7383 138.949C70.3065 138.949 70.8675 139.044 71.4215 139.233C71.9755 139.422 72.4798 139.73 72.9343 140.156C73.3888 140.578 73.7511 141.136 74.021 141.832C74.2908 142.528 74.4258 143.385 74.4258 144.403V145.114H66.0167V143.665H72.7212C72.7212 143.049 72.5981 142.5 72.3519 142.017C72.1104 141.534 71.7648 141.153 71.315 140.874C70.8699 140.594 70.3443 140.455 69.7383 140.455C69.0707 140.455 68.493 140.62 68.0053 140.952C67.5224 141.278 67.1507 141.705 66.8903 142.23C66.6299 142.756 66.4996 143.319 66.4996 143.92V144.886C66.4996 145.71 66.6417 146.409 66.9258 146.982C67.2146 147.55 67.6147 147.983 68.1261 148.281C68.6374 148.575 69.2317 148.722 69.9087 148.722C70.3491 148.722 70.7468 148.66 71.1019 148.537C71.4618 148.409 71.7719 148.22 72.0323 147.969C72.2927 147.713 72.494 147.396 72.636 147.017L74.2553 147.472C74.0849 148.021 73.7984 148.504 73.396 148.92C72.9935 149.332 72.4963 149.654 71.9045 149.886C71.3126 150.114 70.6474 150.227 69.9087 150.227ZM76.9755 150V139.091H78.5948V140.739H78.7085C78.9073 140.199 79.2672 139.761 79.788 139.425C80.3088 139.089 80.896 138.92 81.5494 138.92C81.6725 138.92 81.8263 138.923 82.011 138.928C82.1957 138.932 82.3353 138.939 82.43 138.949V140.653C82.3732 140.639 82.243 140.618 82.0394 140.589C81.8406 140.556 81.6299 140.54 81.4073 140.54C80.877 140.54 80.4035 140.651 79.9869 140.874C79.5749 141.091 79.2482 141.394 79.0067 141.783C78.77 142.166 78.6516 142.604 78.6516 143.097V150H76.9755ZM90.8658 150H89.0192L94.3601 135.455H96.1783L101.519 150H99.6726L95.326 137.756H95.2124L90.8658 150ZM91.5476 144.318H98.9908V145.881H91.5476V144.318Z"></path>
<path fill="black" d="M12.3519 59V41.5455H22.886V43.4205H14.4656V49.3182H22.3406V51.1932H14.4656V57.125H23.0224V59H12.3519ZM35.3548 63.9091V56.9886H35.1843C35.0366 57.2273 34.8263 57.5284 34.5536 57.892C34.2809 58.25 33.8917 58.571 33.386 58.8551C32.8803 59.1335 32.207 59.2727 31.3661 59.2727C30.2752 59.2727 29.3121 58.9972 28.4769 58.446C27.6417 57.8892 26.9883 57.1051 26.5167 56.0938C26.0451 55.0767 25.8093 53.875 25.8093 52.4886C25.8093 51.1136 26.0451 49.9205 26.5167 48.9091C26.9883 47.8977 27.6445 47.1165 28.4854 46.5653C29.3263 46.0142 30.2979 45.7386 31.4002 45.7386C32.2525 45.7386 32.9258 45.8807 33.4201 46.1648C33.9201 46.4432 34.3008 46.7614 34.5621 47.1193C34.8292 47.4716 35.0366 47.7614 35.1843 47.9886H35.4229V45.9091H37.3661V63.9091H35.3548ZM31.6388 57.4659C32.4457 57.4659 33.1275 57.2557 33.6843 56.8352C34.2411 56.4091 34.6644 55.821 34.9542 55.071C35.244 54.3153 35.3888 53.4432 35.3888 52.4545C35.3888 51.4773 35.2468 50.6222 34.9627 49.8892C34.6786 49.1506 34.2582 48.5767 33.7013 48.1676C33.1445 47.7528 32.457 47.5455 31.6388 47.5455C30.7866 47.5455 30.0763 47.7642 29.5082 48.2017C28.9457 48.6335 28.5224 49.2216 28.2383 49.9659C27.9599 50.7045 27.8207 51.5341 27.8207 52.4545C27.8207 53.3864 27.9627 54.233 28.2468 54.9943C28.5366 55.75 28.9627 56.3523 29.5252 56.8011C30.0934 57.2443 30.7979 57.4659 31.6388 57.4659ZM49.2979 53.6477V45.9091H51.3093V59H49.2979V56.7841H49.1616C48.8548 57.4489 48.3775 58.0142 47.7298 58.4801C47.082 58.9403 46.2638 59.1705 45.2752 59.1705C44.457 59.1705 43.7298 58.9915 43.0934 58.6335C42.457 58.2699 41.957 57.7244 41.5934 56.9972C41.2298 56.2642 41.0479 55.3409 41.0479 54.2273V45.9091H43.0593V54.0909C43.0593 55.0455 43.3263 55.8068 43.8604 56.375C44.4002 56.9432 45.0877 57.2273 45.9229 57.2273C46.4229 57.2273 46.9315 57.0994 47.4485 56.8438C47.9712 56.5881 48.4087 56.196 48.761 55.6676C49.119 55.1392 49.2979 54.4659 49.2979 53.6477ZM54.9933 59V45.9091H57.0046V59H54.9933ZM56.016 43.7273C55.6239 43.7273 55.2859 43.5938 55.0018 43.3267C54.7234 43.0597 54.5842 42.7386 54.5842 42.3636C54.5842 41.9886 54.7234 41.6676 55.0018 41.4006C55.2859 41.1335 55.6239 41 56.016 41C56.408 41 56.7433 41.1335 57.0217 41.4006C57.3058 41.6676 57.4478 41.9886 57.4478 42.3636C57.4478 42.7386 57.3058 43.0597 57.0217 43.3267C56.7433 43.5938 56.408 43.7273 56.016 43.7273ZM62.6999 41.5455V59H60.6886V41.5455H62.6999ZM70.2362 59.3068C69.4066 59.3068 68.6538 59.1506 67.9776 58.8381C67.3015 58.5199 66.7646 58.0625 66.3668 57.4659C65.9691 56.8636 65.7702 56.1364 65.7702 55.2841C65.7702 54.5341 65.918 53.9261 66.2134 53.4602C66.5089 52.9886 66.9038 52.6193 67.3981 52.3523C67.8924 52.0852 68.4379 51.8864 69.0344 51.7557C69.6367 51.6193 70.2418 51.5114 70.8498 51.4318C71.6452 51.3295 72.2901 51.2528 72.7844 51.2017C73.2844 51.1449 73.6481 51.0511 73.8754 50.9205C74.1083 50.7898 74.2248 50.5625 74.2248 50.2386V50.1705C74.2248 49.3295 73.9947 48.6761 73.5344 48.2102C73.0799 47.7443 72.3896 47.5114 71.4634 47.5114C70.5032 47.5114 69.7504 47.7216 69.2049 48.142C68.6594 48.5625 68.2759 49.0114 68.0543 49.4886L66.1452 48.8068C66.4862 48.0114 66.9407 47.392 67.5089 46.9489C68.0827 46.5 68.7077 46.1875 69.3839 46.0114C70.0657 45.8295 70.7362 45.7386 71.3952 45.7386C71.8157 45.7386 72.2987 45.7898 72.8441 45.892C73.3952 45.9886 73.9265 46.1903 74.4379 46.4972C74.9549 46.804 75.3839 47.267 75.7248 47.8864C76.0657 48.5057 76.2362 49.3352 76.2362 50.375V59H74.2248V57.2273H74.1225C73.9862 57.5114 73.7589 57.8153 73.4407 58.1392C73.1225 58.4631 72.6992 58.7386 72.1708 58.9659C71.6424 59.1932 70.9975 59.3068 70.2362 59.3068ZM70.543 57.5C71.3384 57.5 72.0089 57.3438 72.5543 57.0312C73.1055 56.7188 73.5202 56.3153 73.7987 55.821C74.0827 55.3267 74.2248 54.8068 74.2248 54.2614V52.4205C74.1396 52.5227 73.9521 52.6165 73.6623 52.7017C73.3782 52.7812 73.0487 52.8523 72.6737 52.9148C72.3043 52.9716 71.9435 53.0227 71.5913 53.0682C71.2447 53.108 70.9634 53.142 70.7475 53.1705C70.2248 53.2386 69.7362 53.3494 69.2816 53.5028C68.8327 53.6506 68.4691 53.875 68.1907 54.1761C67.918 54.4716 67.7816 54.875 67.7816 55.3864C67.7816 56.0852 68.0401 56.6136 68.5572 56.9716C69.0799 57.3239 69.7418 57.5 70.543 57.5ZM85.6005 45.9091V47.6136H78.8164V45.9091H85.6005ZM80.7937 42.7727H82.805V55.25C82.805 55.8182 82.8874 56.2443 83.0522 56.5284C83.2227 56.8068 83.4386 56.9943 83.6999 57.0909C83.967 57.1818 84.2482 57.2273 84.5437 57.2273C84.7653 57.2273 84.9471 57.2159 85.0891 57.1932C85.2312 57.1648 85.3448 57.142 85.43 57.125L85.8391 58.9318C85.7028 58.983 85.5124 59.0341 85.2681 59.0852C85.0238 59.142 84.7141 59.1705 84.3391 59.1705C83.771 59.1705 83.2141 59.0483 82.6687 58.804C82.1289 58.5597 81.68 58.1875 81.3221 57.6875C80.9698 57.1875 80.7937 56.5568 80.7937 55.7955V42.7727ZM93.9741 59.2727C92.7127 59.2727 91.6246 58.9943 90.7099 58.4375C89.8008 57.875 89.0991 57.0909 88.6048 56.0852C88.1161 55.0739 87.8718 53.8977 87.8718 52.5568C87.8718 51.2159 88.1161 50.0341 88.6048 49.0114C89.0991 47.983 89.7866 47.1818 90.6673 46.608C91.5536 46.0284 92.5877 45.7386 93.7695 45.7386C94.4513 45.7386 95.1246 45.8523 95.7894 46.0795C96.4542 46.3068 97.0593 46.6761 97.6048 47.1875C98.1502 47.6932 98.5849 48.3636 98.9087 49.1989C99.2326 50.0341 99.3945 51.0625 99.3945 52.2841V53.1364H89.3036V51.3977H97.3491C97.3491 50.6591 97.2013 50 96.9059 49.4205C96.6161 48.8409 96.2013 48.3835 95.6616 48.0483C95.1275 47.7131 94.4968 47.5455 93.7695 47.5455C92.9684 47.5455 92.2752 47.7443 91.69 48.142C91.1104 48.5341 90.6644 49.0455 90.3519 49.6761C90.0394 50.3068 89.8832 50.983 89.8832 51.7045V52.8636C89.8832 53.8523 90.0536 54.6903 90.3945 55.3778C90.7411 56.0597 91.2212 56.5795 91.8349 56.9375C92.4485 57.2898 93.1616 57.4659 93.9741 57.4659C94.5025 57.4659 94.9798 57.392 95.4059 57.2443C95.8377 57.0909 96.2099 56.8636 96.5224 56.5625C96.8349 56.2557 97.0763 55.875 97.2468 55.4205L99.19 55.9659C98.9854 56.625 98.6417 57.2045 98.1587 57.7045C97.6758 58.1989 97.0792 58.5852 96.369 58.8636C95.6587 59.1364 94.8604 59.2727 93.9741 59.2727ZM102.454 59V45.9091H104.397V47.8864H104.534C104.772 47.2386 105.204 46.7131 105.829 46.3097C106.454 45.9062 107.159 45.7045 107.943 45.7045C108.091 45.7045 108.275 45.7074 108.497 45.7131C108.718 45.7187 108.886 45.7273 109 45.7386V47.7841C108.931 47.767 108.775 47.7415 108.531 47.7074C108.292 47.6676 108.039 47.6477 107.772 47.6477C107.136 47.6477 106.568 47.7812 106.068 48.0483C105.574 48.3097 105.181 48.6733 104.892 49.1392C104.608 49.5994 104.466 50.125 104.466 50.7159V59H102.454ZM115.236 59.3068C114.407 59.3068 113.654 59.1506 112.978 58.8381C112.301 58.5199 111.765 58.0625 111.367 57.4659C110.969 56.8636 110.77 56.1364 110.77 55.2841C110.77 54.5341 110.918 53.9261 111.213 53.4602C111.509 52.9886 111.904 52.6193 112.398 52.3523C112.892 52.0852 113.438 51.8864 114.034 51.7557C114.637 51.6193 115.242 51.5114 115.85 51.4318C116.645 51.3295 117.29 51.2528 117.784 51.2017C118.284 51.1449 118.648 51.0511 118.875 50.9205C119.108 50.7898 119.225 50.5625 119.225 50.2386V50.1705C119.225 49.3295 118.995 48.6761 118.534 48.2102C118.08 47.7443 117.39 47.5114 116.463 47.5114C115.503 47.5114 114.75 47.7216 114.205 48.142C113.659 48.5625 113.276 49.0114 113.054 49.4886L111.145 48.8068C111.486 48.0114 111.941 47.392 112.509 46.9489C113.083 46.5 113.708 46.1875 114.384 46.0114C115.066 45.8295 115.736 45.7386 116.395 45.7386C116.816 45.7386 117.299 45.7898 117.844 45.892C118.395 45.9886 118.926 46.1903 119.438 46.4972C119.955 46.804 120.384 47.267 120.725 47.8864C121.066 48.5057 121.236 49.3352 121.236 50.375V59H119.225V57.2273H119.123C118.986 57.5114 118.759 57.8153 118.441 58.1392C118.123 58.4631 117.699 58.7386 117.171 58.9659C116.642 59.1932 115.998 59.3068 115.236 59.3068ZM115.543 57.5C116.338 57.5 117.009 57.3438 117.554 57.0312C118.105 56.7188 118.52 56.3153 118.799 55.821C119.083 55.3267 119.225 54.8068 119.225 54.2614V52.4205C119.14 52.5227 118.952 52.6165 118.662 52.7017C118.378 52.7812 118.049 52.8523 117.674 52.9148C117.304 52.9716 116.944 53.0227 116.591 53.0682C116.245 53.108 115.963 53.142 115.748 53.1705C115.225 53.2386 114.736 53.3494 114.282 53.5028C113.833 53.6506 113.469 53.875 113.191 54.1761C112.918 54.4716 112.782 54.875 112.782 55.3864C112.782 56.0852 113.04 56.6136 113.557 56.9716C114.08 57.3239 114.742 57.5 115.543 57.5ZM126.919 41.5455V59H124.907V41.5455H126.919Z"></path>
</svg>
