<svg xmlns="http://www.w3.org/2000/svg" fill="none" viewBox="0 0 139 164" height="164" width="139">
<path fill="#43D059" d="M0 20C0 8.95431 8.95431 0 20 0H119C130.046 0 139 8.95431 139 20V144C139 155.046 130.046 164 119 164H20C8.95431 164 0 155.046 0 144V20Z"></path>
<path fill="black" d="M36.2102 135.455V150H34.5341V135.455H36.2102ZM43.854 150.227C42.8029 150.227 41.8962 149.995 41.1339 149.531C40.3763 149.062 39.7915 148.409 39.3796 147.571C38.9724 146.728 38.7688 145.748 38.7688 144.631C38.7688 143.513 38.9724 142.528 39.3796 141.676C39.7915 140.819 40.3645 140.152 41.0984 139.673C41.837 139.19 42.6987 138.949 43.6836 138.949C44.2518 138.949 44.8129 139.044 45.3668 139.233C45.9208 139.422 46.4251 139.73 46.8796 140.156C47.3342 140.578 47.6964 141.136 47.9663 141.832C48.2362 142.528 48.3711 143.385 48.3711 144.403V145.114H39.962V143.665H46.6665C46.6665 143.049 46.5434 142.5 46.2972 142.017C46.0558 141.534 45.7101 141.153 45.2603 140.874C44.8152 140.594 44.2897 140.455 43.6836 140.455C43.016 140.455 42.4383 140.62 41.9506 140.952C41.4677 141.278 41.096 141.705 40.8356 142.23C40.5752 142.756 40.445 143.319 40.445 143.92V144.886C40.445 145.71 40.587 146.409 40.8711 146.982C41.1599 147.55 41.56 147.983 42.0714 148.281C42.5827 148.575 43.177 148.722 43.854 148.722C44.2944 148.722 44.6921 148.66 45.0472 148.537C45.4071 148.409 45.7172 148.22 45.9776 147.969C46.238 147.713 46.4393 147.396 46.5813 147.017L48.2006 147.472C48.0302 148.021 47.7437 148.504 47.3413 148.92C46.9388 149.332 46.4416 149.654 45.8498 149.886C45.2579 150.114 44.5927 150.227 43.854 150.227ZM55.6651 139.091V140.511H50.0117V139.091H55.6651ZM51.6594 136.477H53.3356V146.875C53.3356 147.348 53.4042 147.704 53.5415 147.94C53.6836 148.172 53.8635 148.329 54.0813 148.409C54.3039 148.485 54.5382 148.523 54.7844 148.523C54.9691 148.523 55.1206 148.513 55.239 148.494C55.3574 148.471 55.4521 148.452 55.5231 148.438L55.864 149.943C55.7504 149.986 55.5917 150.028 55.3881 150.071C55.1845 150.118 54.9265 150.142 54.614 150.142C54.1405 150.142 53.6765 150.04 53.2219 149.837C52.7721 149.633 52.3981 149.323 52.0998 148.906C51.8062 148.49 51.6594 147.964 51.6594 147.33V136.477ZM62.9308 139.091V140.511H57.2773V139.091H62.9308ZM58.9251 136.477H60.6012V146.875C60.6012 147.348 60.6699 147.704 60.8072 147.94C60.9492 148.172 61.1291 148.329 61.3469 148.409C61.5695 148.485 61.8039 148.523 62.0501 148.523C62.2347 148.523 62.3862 148.513 62.5046 148.494C62.623 148.471 62.7177 148.452 62.7887 148.438L63.1296 149.943C63.016 149.986 62.8574 150.028 62.6538 150.071C62.4502 150.118 62.1921 150.142 61.8796 150.142C61.4061 150.142 60.9421 150.04 60.4876 149.837C60.0378 149.633 59.6637 149.323 59.3654 148.906C59.0719 148.49 58.9251 147.964 58.9251 147.33V136.477ZM69.9087 150.227C68.8576 150.227 67.9509 149.995 67.1886 149.531C66.431 149.062 65.8462 148.409 65.4343 147.571C65.0271 146.728 64.8235 145.748 64.8235 144.631C64.8235 143.513 65.0271 142.528 65.4343 141.676C65.8462 140.819 66.4192 140.152 67.1531 139.673C67.8917 139.19 68.7534 138.949 69.7383 138.949C70.3065 138.949 70.8675 139.044 71.4215 139.233C71.9755 139.422 72.4798 139.73 72.9343 140.156C73.3888 140.578 73.7511 141.136 74.021 141.832C74.2908 142.528 74.4258 143.385 74.4258 144.403V145.114H66.0167V143.665H72.7212C72.7212 143.049 72.5981 142.5 72.3519 142.017C72.1104 141.534 71.7648 141.153 71.315 140.874C70.8699 140.594 70.3443 140.455 69.7383 140.455C69.0707 140.455 68.493 140.62 68.0053 140.952C67.5224 141.278 67.1507 141.705 66.8903 142.23C66.6299 142.756 66.4996 143.319 66.4996 143.92V144.886C66.4996 145.71 66.6417 146.409 66.9258 146.982C67.2146 147.55 67.6147 147.983 68.1261 148.281C68.6374 148.575 69.2317 148.722 69.9087 148.722C70.3491 148.722 70.7468 148.66 71.1019 148.537C71.4618 148.409 71.7719 148.22 72.0323 147.969C72.2927 147.713 72.494 147.396 72.636 147.017L74.2553 147.472C74.0849 148.021 73.7984 148.504 73.396 148.92C72.9935 149.332 72.4963 149.654 71.9045 149.886C71.3126 150.114 70.6474 150.227 69.9087 150.227ZM76.9755 150V139.091H78.5948V140.739H78.7085C78.9073 140.199 79.2672 139.761 79.788 139.425C80.3088 139.089 80.896 138.92 81.5494 138.92C81.6725 138.92 81.8263 138.923 82.011 138.928C82.1957 138.932 82.3353 138.939 82.43 138.949V140.653C82.3732 140.639 82.243 140.618 82.0394 140.589C81.8406 140.556 81.6299 140.54 81.4073 140.54C80.877 140.54 80.4035 140.651 79.9869 140.874C79.5749 141.091 79.2482 141.394 79.0067 141.783C78.77 142.166 78.6516 142.604 78.6516 143.097V150H76.9755ZM90.8658 150H89.0192L94.3601 135.455H96.1783L101.519 150H99.6726L95.326 137.756H95.2124L90.8658 150ZM91.5476 144.318H98.9908V145.881H91.5476V144.318Z"></path>
<path fill="black" d="M36.019 82V60.1818H43.6468C45.1667 60.1818 46.4203 60.4446 47.4075 60.9702C48.3947 61.4886 49.1298 62.1882 49.6127 63.0689C50.0957 63.9425 50.3372 64.9119 50.3372 65.9773C50.3372 66.9148 50.1703 67.6889 49.8365 68.2997C49.5098 68.9105 49.0765 69.3935 48.5368 69.7486C48.0041 70.1037 47.4252 70.3665 46.8002 70.5369V70.75C47.4679 70.7926 48.139 71.027 48.8137 71.4531C49.4885 71.8793 50.0531 72.4901 50.5076 73.2855C50.9622 74.081 51.1895 75.054 51.1895 76.2045C51.1895 77.2983 50.9409 78.282 50.4437 79.1555C49.9466 80.0291 49.1618 80.7216 48.0893 81.233C47.0169 81.7443 45.6213 82 43.9025 82H36.019ZM38.661 79.6562H43.9025C45.6284 79.6562 46.8535 79.3224 47.5779 78.6548C48.3095 77.9801 48.6752 77.1634 48.6752 76.2045C48.6752 75.4659 48.487 74.7841 48.1106 74.1591C47.7342 73.527 47.198 73.0227 46.502 72.6463C45.8059 72.2628 44.9821 72.071 44.0304 72.071H38.661V79.6562ZM38.661 69.7699H43.5616C44.3571 69.7699 45.0744 69.6136 45.7136 69.3011C46.3599 68.9886 46.8713 68.5483 47.2477 67.9801C47.6312 67.4119 47.823 66.7443 47.823 65.9773C47.823 65.0185 47.4892 64.2053 46.8216 63.5376C46.1539 62.8629 45.0957 62.5256 43.6468 62.5256H38.661V69.7699ZM55.1898 82V65.6364H57.6188V68.108H57.7892C58.0875 67.2983 58.6273 66.6413 59.4086 66.1371C60.1898 65.6328 61.0705 65.3807 62.0506 65.3807C62.2353 65.3807 62.4661 65.3842 62.7431 65.3913C63.0201 65.3984 63.2296 65.4091 63.3716 65.4233V67.9801C63.2864 67.9588 63.0911 67.9268 62.7857 67.8842C62.4874 67.8345 62.1713 67.8097 61.8375 67.8097C61.0421 67.8097 60.3319 67.9766 59.7069 68.3104C59.089 68.6371 58.5989 69.0916 58.2367 69.674C57.8816 70.2493 57.704 70.9062 57.704 71.6449V82H55.1898ZM71.1673 82.3835C70.1303 82.3835 69.1893 82.1882 68.3441 81.7976C67.4989 81.3999 66.8278 80.8281 66.3306 80.0824C65.8335 79.3295 65.5849 78.4205 65.5849 77.3551C65.5849 76.4176 65.7695 75.6577 66.1388 75.0753C66.5082 74.4858 67.0018 74.0241 67.6197 73.6903C68.2376 73.3565 68.9194 73.108 69.6651 72.9446C70.418 72.7741 71.1744 72.6392 71.9343 72.5398C72.9286 72.4119 73.7347 72.3161 74.3526 72.2521C74.9776 72.1811 75.4322 72.0639 75.7163 71.9006C76.0075 71.7372 76.1531 71.4531 76.1531 71.0483V70.9631C76.1531 69.9119 75.8654 69.0952 75.2901 68.5128C74.7219 67.9304 73.859 67.6392 72.7013 67.6392C71.5011 67.6392 70.56 67.902 69.8782 68.4276C69.1964 68.9531 68.717 69.5142 68.44 70.1108L66.0536 69.2585C66.4798 68.2642 67.0479 67.4901 67.7582 66.9361C68.4755 66.375 69.2567 65.9844 70.1019 65.7642C70.9542 65.5369 71.7923 65.4233 72.6161 65.4233C73.1417 65.4233 73.7454 65.4872 74.4272 65.6151C75.1161 65.7358 75.7802 65.9879 76.4194 66.3714C77.0657 66.755 77.6019 67.3338 78.0281 68.108C78.4542 68.8821 78.6673 69.919 78.6673 71.2188V82H76.1531V79.7841H76.0252C75.8548 80.1392 75.5707 80.5192 75.1729 80.924C74.7752 81.3288 74.2461 81.6733 73.5856 81.9574C72.9251 82.2415 72.119 82.3835 71.1673 82.3835ZM71.5508 80.125C72.5451 80.125 73.3832 79.9297 74.065 79.5391C74.7539 79.1484 75.2724 78.6442 75.6204 78.0263C75.9755 77.4084 76.1531 76.7585 76.1531 76.0767V73.7756C76.0465 73.9034 75.8121 74.0206 75.4499 74.1271C75.0948 74.2266 74.6829 74.3153 74.2141 74.3935C73.7525 74.4645 73.3015 74.5284 72.8612 74.5852C72.4279 74.6349 72.0763 74.6776 71.8065 74.7131C71.1531 74.7983 70.5423 74.9368 69.9741 75.1286C69.413 75.3132 68.9585 75.5937 68.6104 75.9702C68.2695 76.3395 68.0991 76.8437 68.0991 77.483C68.0991 78.3565 68.4222 79.017 69.0685 79.4645C69.7219 79.9048 70.5494 80.125 71.5508 80.125ZM83.2562 82V65.6364H85.7704V82H83.2562ZM84.5346 62.9091C84.0446 62.9091 83.622 62.7422 83.2669 62.4084C82.9189 62.0746 82.7449 61.6733 82.7449 61.2045C82.7449 60.7358 82.9189 60.3345 83.2669 60.0007C83.622 59.6669 84.0446 59.5 84.5346 59.5C85.0247 59.5 85.4437 59.6669 85.7917 60.0007C86.1468 60.3345 86.3244 60.7358 86.3244 61.2045C86.3244 61.6733 86.1468 62.0746 85.7917 62.4084C85.4437 62.7422 85.0247 62.9091 84.5346 62.9091ZM92.8896 72.1562V82H90.3754V65.6364H92.8043V68.1932H93.0174C93.4009 67.3622 93.9833 66.6946 94.7646 66.1903C95.5458 65.679 96.5543 65.4233 97.7901 65.4233C98.8981 65.4233 99.8675 65.6506 100.699 66.1051C101.529 66.5526 102.176 67.2344 102.637 68.1506C103.099 69.0597 103.33 70.2102 103.33 71.6023V82H100.816V71.7727C100.816 70.4872 100.482 69.4858 99.8143 68.7685C99.1467 68.044 98.2305 67.6818 97.0657 67.6818C96.2631 67.6818 95.5458 67.8558 94.9137 68.2038C94.2887 68.5518 93.7951 69.0597 93.4329 69.7273C93.0707 70.3949 92.8896 71.2045 92.8896 72.1562Z"></path>
</svg>
