<svg xmlns="http://www.w3.org/2000/svg" fill="none" viewBox="0 0 139 164" height="164" width="139">
<path fill="#EEC638" d="M0 20C0 8.95431 8.95431 0 20 0H119C130.046 0 139 8.95431 139 20V144C139 155.046 130.046 164 119 164H20C8.95431 164 0 155.046 0 144V20Z"></path>
<path fill="black" d="M36.2102 135.455V150H34.5341V135.455H36.2102ZM43.854 150.227C42.8029 150.227 41.8962 149.995 41.1339 149.531C40.3763 149.062 39.7915 148.409 39.3796 147.571C38.9724 146.728 38.7688 145.748 38.7688 144.631C38.7688 143.513 38.9724 142.528 39.3796 141.676C39.7915 140.819 40.3645 140.152 41.0984 139.673C41.837 139.19 42.6987 138.949 43.6836 138.949C44.2518 138.949 44.8129 139.044 45.3668 139.233C45.9208 139.422 46.4251 139.73 46.8796 140.156C47.3342 140.578 47.6964 141.136 47.9663 141.832C48.2362 142.528 48.3711 143.385 48.3711 144.403V145.114H39.962V143.665H46.6665C46.6665 143.049 46.5434 142.5 46.2972 142.017C46.0558 141.534 45.7101 141.153 45.2603 140.874C44.8152 140.594 44.2897 140.455 43.6836 140.455C43.016 140.455 42.4383 140.62 41.9506 140.952C41.4677 141.278 41.096 141.705 40.8356 142.23C40.5752 142.756 40.445 143.319 40.445 143.92V144.886C40.445 145.71 40.587 146.409 40.8711 146.982C41.1599 147.55 41.56 147.983 42.0714 148.281C42.5827 148.575 43.177 148.722 43.854 148.722C44.2944 148.722 44.6921 148.66 45.0472 148.537C45.4071 148.409 45.7172 148.22 45.9776 147.969C46.238 147.713 46.4393 147.396 46.5813 147.017L48.2006 147.472C48.0302 148.021 47.7437 148.504 47.3413 148.92C46.9388 149.332 46.4416 149.654 45.8498 149.886C45.2579 150.114 44.5927 150.227 43.854 150.227ZM55.6651 139.091V140.511H50.0117V139.091H55.6651ZM51.6594 136.477H53.3356V146.875C53.3356 147.348 53.4042 147.704 53.5415 147.94C53.6836 148.172 53.8635 148.329 54.0813 148.409C54.3039 148.485 54.5382 148.523 54.7844 148.523C54.9691 148.523 55.1206 148.513 55.239 148.494C55.3574 148.471 55.4521 148.452 55.5231 148.438L55.864 149.943C55.7504 149.986 55.5917 150.028 55.3881 150.071C55.1845 150.118 54.9265 150.142 54.614 150.142C54.1405 150.142 53.6765 150.04 53.2219 149.837C52.7721 149.633 52.3981 149.323 52.0998 148.906C51.8062 148.49 51.6594 147.964 51.6594 147.33V136.477ZM62.9308 139.091V140.511H57.2773V139.091H62.9308ZM58.9251 136.477H60.6012V146.875C60.6012 147.348 60.6699 147.704 60.8072 147.94C60.9492 148.172 61.1291 148.329 61.3469 148.409C61.5695 148.485 61.8039 148.523 62.0501 148.523C62.2347 148.523 62.3862 148.513 62.5046 148.494C62.623 148.471 62.7177 148.452 62.7887 148.438L63.1296 149.943C63.016 149.986 62.8574 150.028 62.6538 150.071C62.4502 150.118 62.1921 150.142 61.8796 150.142C61.4061 150.142 60.9421 150.04 60.4876 149.837C60.0378 149.633 59.6637 149.323 59.3654 148.906C59.0719 148.49 58.9251 147.964 58.9251 147.33V136.477ZM69.9087 150.227C68.8576 150.227 67.9509 149.995 67.1886 149.531C66.431 149.062 65.8462 148.409 65.4343 147.571C65.0271 146.728 64.8235 145.748 64.8235 144.631C64.8235 143.513 65.0271 142.528 65.4343 141.676C65.8462 140.819 66.4192 140.152 67.1531 139.673C67.8917 139.19 68.7534 138.949 69.7383 138.949C70.3065 138.949 70.8675 139.044 71.4215 139.233C71.9755 139.422 72.4798 139.73 72.9343 140.156C73.3888 140.578 73.7511 141.136 74.021 141.832C74.2908 142.528 74.4258 143.385 74.4258 144.403V145.114H66.0167V143.665H72.7212C72.7212 143.049 72.5981 142.5 72.3519 142.017C72.1104 141.534 71.7648 141.153 71.315 140.874C70.8699 140.594 70.3443 140.455 69.7383 140.455C69.0707 140.455 68.493 140.62 68.0053 140.952C67.5224 141.278 67.1507 141.705 66.8903 142.23C66.6299 142.756 66.4996 143.319 66.4996 143.92V144.886C66.4996 145.71 66.6417 146.409 66.9258 146.982C67.2146 147.55 67.6147 147.983 68.1261 148.281C68.6374 148.575 69.2317 148.722 69.9087 148.722C70.3491 148.722 70.7468 148.66 71.1019 148.537C71.4618 148.409 71.7719 148.22 72.0323 147.969C72.2927 147.713 72.494 147.396 72.636 147.017L74.2553 147.472C74.0849 148.021 73.7984 148.504 73.396 148.92C72.9935 149.332 72.4963 149.654 71.9045 149.886C71.3126 150.114 70.6474 150.227 69.9087 150.227ZM76.9755 150V139.091H78.5948V140.739H78.7085C78.9073 140.199 79.2672 139.761 79.788 139.425C80.3088 139.089 80.896 138.92 81.5494 138.92C81.6725 138.92 81.8263 138.923 82.011 138.928C82.1957 138.932 82.3353 138.939 82.43 138.949V140.653C82.3732 140.639 82.243 140.618 82.0394 140.589C81.8406 140.556 81.6299 140.54 81.4073 140.54C80.877 140.54 80.4035 140.651 79.9869 140.874C79.5749 141.091 79.2482 141.394 79.0067 141.783C78.77 142.166 78.6516 142.604 78.6516 143.097V150H76.9755ZM94.7578 150H90.2692V135.455H94.9567C96.3677 135.455 97.575 135.746 98.5788 136.328C99.5826 136.906 100.352 137.737 100.887 138.821C101.422 139.901 101.69 141.193 101.69 142.699C101.69 144.214 101.42 145.518 100.88 146.612C100.34 147.701 99.5542 148.539 98.522 149.126C97.4898 149.709 96.2351 150 94.7578 150ZM92.0305 148.438H94.6442C95.8468 148.438 96.8435 148.205 97.6342 147.741C98.425 147.277 99.0144 146.617 99.4027 145.76C99.791 144.903 99.9851 143.883 99.9851 142.699C99.9851 141.525 99.7933 140.514 99.4098 139.666C99.0263 138.814 98.4534 138.161 97.6911 137.706C96.9287 137.247 95.9794 137.017 94.843 137.017H92.0305V148.438Z"></path>
<path fill="black" d="M28.9197 68.1818H31.8175L34.2464 71.3778L34.8857 72.2301L38.5078 77.0455H35.6101L33.2237 73.8494L32.6271 73.0398L28.9197 68.1818ZM39.4027 64.0909C39.4027 66.392 38.9872 68.3807 38.1562 70.0568C37.3253 71.733 36.1854 73.0256 34.7365 73.9347C33.2876 74.8438 31.6328 75.2983 29.772 75.2983C27.9112 75.2983 26.2564 74.8438 24.8075 73.9347C23.3587 73.0256 22.2188 71.733 21.3878 70.0568C20.5568 68.3807 20.1413 66.392 20.1413 64.0909C20.1413 61.7898 20.5568 59.8011 21.3878 58.125C22.2188 56.4489 23.3587 55.1562 24.8075 54.2472C26.2564 53.3381 27.9112 52.8835 29.772 52.8835C31.6328 52.8835 33.2876 53.3381 34.7365 54.2472C36.1854 55.1562 37.3253 56.4489 38.1562 58.125C38.9872 59.8011 39.4027 61.7898 39.4027 64.0909ZM36.8459 64.0909C36.8459 62.2017 36.5298 60.6072 35.8977 59.3075C35.2727 58.0078 34.424 57.0241 33.3516 56.3565C32.2862 55.6889 31.093 55.3551 29.772 55.3551C28.451 55.3551 27.2543 55.6889 26.1818 56.3565C25.1165 57.0241 24.2678 58.0078 23.6357 59.3075C23.0107 60.6072 22.6982 62.2017 22.6982 64.0909C22.6982 65.9801 23.0107 67.5746 23.6357 68.8743C24.2678 70.174 25.1165 71.1577 26.1818 71.8253C27.2543 72.4929 28.451 72.8267 29.772 72.8267C31.093 72.8267 32.2862 72.4929 33.3516 71.8253C34.424 71.1577 35.2727 70.174 35.8977 68.8743C36.5298 67.5746 36.8459 65.9801 36.8459 64.0909ZM53.8168 68.3097V58.6364H56.331V75H53.8168V72.2301H53.6463C53.2628 73.0611 52.6662 73.7678 51.8565 74.3501C51.0469 74.9254 50.0241 75.2131 48.7884 75.2131C47.7656 75.2131 46.8565 74.9893 46.0611 74.5419C45.2656 74.0874 44.6406 73.4055 44.1861 72.4964C43.7315 71.5803 43.5043 70.4261 43.5043 69.0341V58.6364H46.0185V68.8636C46.0185 70.0568 46.3523 71.0085 47.0199 71.7188C47.6946 72.429 48.554 72.7841 49.598 72.7841C50.223 72.7841 50.8587 72.6243 51.505 72.3047C52.1584 71.9851 52.7053 71.495 53.1456 70.8345C53.593 70.174 53.8168 69.3324 53.8168 68.3097ZM60.9359 75V58.6364H63.4501V75H60.9359ZM62.2143 55.9091C61.7243 55.9091 61.3017 55.7422 60.9466 55.4084C60.5985 55.0746 60.4245 54.6733 60.4245 54.2045C60.4245 53.7358 60.5985 53.3345 60.9466 53.0007C61.3017 52.6669 61.7243 52.5 62.2143 52.5C62.7044 52.5 63.1234 52.6669 63.4714 53.0007C63.8265 53.3345 64.0041 53.7358 64.0041 54.2045C64.0041 54.6733 63.8265 55.0746 63.4714 55.4084C63.1234 55.7422 62.7044 55.9091 62.2143 55.9091ZM74.7028 75.3409C73.1687 75.3409 71.8477 74.9787 70.7397 74.2543C69.6317 73.5298 68.7795 72.532 68.1829 71.2607C67.5863 69.9893 67.288 68.5369 67.288 66.9034C67.288 65.2415 67.5934 63.7749 68.2042 62.5036C68.8221 61.2251 69.6815 60.2273 70.7823 59.5099C71.8903 58.7855 73.1829 58.4233 74.6602 58.4233C75.8107 58.4233 76.8477 58.6364 77.771 59.0625C78.6942 59.4886 79.4506 60.0852 80.0401 60.8523C80.6296 61.6193 80.9954 62.5142 81.1374 63.5369H78.6232C78.4315 62.7912 78.0053 62.1307 77.3448 61.5554C76.6914 60.973 75.8107 60.6818 74.7028 60.6818C73.7227 60.6818 72.8633 60.9375 72.1246 61.4489C71.3931 61.9531 70.8214 62.6669 70.4094 63.5902C70.0046 64.5064 69.8022 65.5824 69.8022 66.8182C69.8022 68.0824 70.0011 69.1832 70.3988 70.1207C70.8036 71.0582 71.3718 71.7862 72.1033 72.3047C72.842 72.8232 73.7085 73.0824 74.7028 73.0824C75.3562 73.0824 75.9492 72.9688 76.4819 72.7415C77.0146 72.5142 77.4656 72.1875 77.8349 71.7614C78.2042 71.3352 78.467 70.8239 78.6232 70.2273H81.1374C80.9954 71.1932 80.6438 72.0632 80.0827 72.8374C79.5288 73.6044 78.7937 74.2152 77.8775 74.6697C76.9684 75.1172 75.9102 75.3409 74.7028 75.3409ZM87.1566 69.0341L87.114 65.9233H87.6254L94.7844 58.6364H97.8952L90.2674 66.3494H90.0543L87.1566 69.0341ZM84.8129 75V53.1818H87.3271V75H84.8129ZM95.2106 75L88.8185 66.9034L90.6083 65.1562L98.4066 75H95.2106ZM103.645 53.1818V75H101.131V53.1818H103.645ZM109.87 81.1364C109.444 81.1364 109.064 81.1009 108.73 81.0298C108.396 80.9659 108.165 80.902 108.037 80.8381L108.676 78.6222C109.287 78.7784 109.827 78.8352 110.296 78.7926C110.765 78.75 111.18 78.5405 111.542 78.1641C111.912 77.7947 112.249 77.1946 112.554 76.3636L113.023 75.0852L106.972 58.6364H109.699L114.216 71.6761H114.387L118.904 58.6364H121.631L114.685 77.3864C114.373 78.2315 113.985 78.9311 113.524 79.4851C113.062 80.0462 112.526 80.4616 111.915 80.7315C111.311 81.0014 110.63 81.1364 109.87 81.1364Z"></path>
</svg>
