<svg xmlns="http://www.w3.org/2000/svg" fill="none" viewBox="0 0 139 164" height="164" width="139">
<path fill="#EEC638" d="M0 20C0 8.95431 8.95431 0 20 0H119C130.046 0 139 8.95431 139 20V144C139 155.046 130.046 164 119 164H20C8.95431 164 0 155.046 0 144V20Z"></path>
<path fill="black" d="M36.2102 135.455V150H34.5341V135.455H36.2102ZM43.854 150.227C42.8029 150.227 41.8962 149.995 41.1339 149.531C40.3763 149.062 39.7915 148.409 39.3796 147.571C38.9724 146.728 38.7688 145.748 38.7688 144.631C38.7688 143.513 38.9724 142.528 39.3796 141.676C39.7915 140.819 40.3645 140.152 41.0984 139.673C41.837 139.19 42.6987 138.949 43.6836 138.949C44.2518 138.949 44.8129 139.044 45.3668 139.233C45.9208 139.422 46.4251 139.73 46.8796 140.156C47.3342 140.578 47.6964 141.136 47.9663 141.832C48.2362 142.528 48.3711 143.385 48.3711 144.403V145.114H39.962V143.665H46.6665C46.6665 143.049 46.5434 142.5 46.2972 142.017C46.0558 141.534 45.7101 141.153 45.2603 140.874C44.8152 140.594 44.2897 140.455 43.6836 140.455C43.016 140.455 42.4383 140.62 41.9506 140.952C41.4677 141.278 41.096 141.705 40.8356 142.23C40.5752 142.756 40.445 143.319 40.445 143.92V144.886C40.445 145.71 40.587 146.409 40.8711 146.982C41.1599 147.55 41.56 147.983 42.0714 148.281C42.5827 148.575 43.177 148.722 43.854 148.722C44.2944 148.722 44.6921 148.66 45.0472 148.537C45.4071 148.409 45.7172 148.22 45.9776 147.969C46.238 147.713 46.4393 147.396 46.5813 147.017L48.2006 147.472C48.0302 148.021 47.7437 148.504 47.3413 148.92C46.9388 149.332 46.4416 149.654 45.8498 149.886C45.2579 150.114 44.5927 150.227 43.854 150.227ZM55.6651 139.091V140.511H50.0117V139.091H55.6651ZM51.6594 136.477H53.3356V146.875C53.3356 147.348 53.4042 147.704 53.5415 147.94C53.6836 148.172 53.8635 148.329 54.0813 148.409C54.3039 148.485 54.5382 148.523 54.7844 148.523C54.9691 148.523 55.1206 148.513 55.239 148.494C55.3574 148.471 55.4521 148.452 55.5231 148.438L55.864 149.943C55.7504 149.986 55.5917 150.028 55.3881 150.071C55.1845 150.118 54.9265 150.142 54.614 150.142C54.1405 150.142 53.6765 150.04 53.2219 149.837C52.7721 149.633 52.3981 149.323 52.0998 148.906C51.8062 148.49 51.6594 147.964 51.6594 147.33V136.477ZM62.9308 139.091V140.511H57.2773V139.091H62.9308ZM58.9251 136.477H60.6012V146.875C60.6012 147.348 60.6699 147.704 60.8072 147.94C60.9492 148.172 61.1291 148.329 61.3469 148.409C61.5695 148.485 61.8039 148.523 62.0501 148.523C62.2347 148.523 62.3862 148.513 62.5046 148.494C62.623 148.471 62.7177 148.452 62.7887 148.438L63.1296 149.943C63.016 149.986 62.8574 150.028 62.6538 150.071C62.4502 150.118 62.1921 150.142 61.8796 150.142C61.4061 150.142 60.9421 150.04 60.4876 149.837C60.0378 149.633 59.6637 149.323 59.3654 148.906C59.0719 148.49 58.9251 147.964 58.9251 147.33V136.477ZM69.9087 150.227C68.8576 150.227 67.9509 149.995 67.1886 149.531C66.431 149.062 65.8462 148.409 65.4343 147.571C65.0271 146.728 64.8235 145.748 64.8235 144.631C64.8235 143.513 65.0271 142.528 65.4343 141.676C65.8462 140.819 66.4192 140.152 67.1531 139.673C67.8917 139.19 68.7534 138.949 69.7383 138.949C70.3065 138.949 70.8675 139.044 71.4215 139.233C71.9755 139.422 72.4798 139.73 72.9343 140.156C73.3888 140.578 73.7511 141.136 74.021 141.832C74.2908 142.528 74.4258 143.385 74.4258 144.403V145.114H66.0167V143.665H72.7212C72.7212 143.049 72.5981 142.5 72.3519 142.017C72.1104 141.534 71.7648 141.153 71.315 140.874C70.8699 140.594 70.3443 140.455 69.7383 140.455C69.0707 140.455 68.493 140.62 68.0053 140.952C67.5224 141.278 67.1507 141.705 66.8903 142.23C66.6299 142.756 66.4996 143.319 66.4996 143.92V144.886C66.4996 145.71 66.6417 146.409 66.9258 146.982C67.2146 147.55 67.6147 147.983 68.1261 148.281C68.6374 148.575 69.2317 148.722 69.9087 148.722C70.3491 148.722 70.7468 148.66 71.1019 148.537C71.4618 148.409 71.7719 148.22 72.0323 147.969C72.2927 147.713 72.494 147.396 72.636 147.017L74.2553 147.472C74.0849 148.021 73.7984 148.504 73.396 148.92C72.9935 149.332 72.4963 149.654 71.9045 149.886C71.3126 150.114 70.6474 150.227 69.9087 150.227ZM76.9755 150V139.091H78.5948V140.739H78.7085C78.9073 140.199 79.2672 139.761 79.788 139.425C80.3088 139.089 80.896 138.92 81.5494 138.92C81.6725 138.92 81.8263 138.923 82.011 138.928C82.1957 138.932 82.3353 138.939 82.43 138.949V140.653C82.3732 140.639 82.243 140.618 82.0394 140.589C81.8406 140.556 81.6299 140.54 81.4073 140.54C80.877 140.54 80.4035 140.651 79.9869 140.874C79.5749 141.091 79.2482 141.394 79.0067 141.783C78.77 142.166 78.6516 142.604 78.6516 143.097V150H76.9755ZM94.7578 150H90.2692V135.455H94.9567C96.3677 135.455 97.575 135.746 98.5788 136.328C99.5826 136.906 100.352 137.737 100.887 138.821C101.422 139.901 101.69 141.193 101.69 142.699C101.69 144.214 101.42 145.518 100.88 146.612C100.34 147.701 99.5542 148.539 98.522 149.126C97.4898 149.709 96.2351 150 94.7578 150ZM92.0305 148.438H94.6442C95.8468 148.438 96.8435 148.205 97.6342 147.741C98.425 147.277 99.0144 146.617 99.4027 145.76C99.791 144.903 99.9851 143.883 99.9851 142.699C99.9851 141.525 99.7933 140.514 99.4098 139.666C99.0263 138.814 98.4534 138.161 97.6911 137.706C96.9287 137.247 95.9794 137.017 94.843 137.017H92.0305V148.438Z"></path>
<path fill="black" d="M26.3317 60H23.6896C23.5334 59.2401 23.2599 58.5724 22.8693 57.9972C22.4858 57.4219 22.017 56.9389 21.4631 56.5483C20.9162 56.1506 20.3089 55.8523 19.6413 55.6534C18.9737 55.4545 18.2777 55.3551 17.5533 55.3551C16.2322 55.3551 15.0355 55.6889 13.9631 56.3565C12.8977 57.0241 12.049 58.0078 11.4169 59.3075C10.7919 60.6072 10.4794 62.2017 10.4794 64.0909C10.4794 65.9801 10.7919 67.5746 11.4169 68.8743C12.049 70.174 12.8977 71.1577 13.9631 71.8253C15.0355 72.4929 16.2322 72.8267 17.5533 72.8267C18.2777 72.8267 18.9737 72.7273 19.6413 72.5284C20.3089 72.3295 20.9162 72.0348 21.4631 71.6442C22.017 71.2464 22.4858 70.7599 22.8693 70.1847C23.2599 69.6023 23.5334 68.9347 23.6896 68.1818H26.3317C26.1328 69.2969 25.7706 70.2947 25.245 71.1754C24.7195 72.0561 24.0661 72.8054 23.2848 73.4233C22.5036 74.0341 21.6264 74.4993 20.6534 74.8189C19.6875 75.1385 18.6541 75.2983 17.5533 75.2983C15.6925 75.2983 14.0376 74.8438 12.5888 73.9347C11.1399 73.0256 10 71.733 9.16903 70.0568C8.33807 68.3807 7.92259 66.392 7.92259 64.0909C7.92259 61.7898 8.33807 59.8011 9.16903 58.125C10 56.4489 11.1399 55.1562 12.5888 54.2472C14.0376 53.3381 15.6925 52.8835 17.5533 52.8835C18.6541 52.8835 19.6875 53.0433 20.6534 53.3629C21.6264 53.6825 22.5036 54.1513 23.2848 54.7692C24.0661 55.38 24.7195 56.1257 25.245 57.0064C25.7706 57.88 26.1328 58.8778 26.3317 60ZM36.9078 75.3409C35.4306 75.3409 34.1344 74.9893 33.0194 74.2862C31.9114 73.5831 31.0449 72.5994 30.4199 71.3352C29.802 70.071 29.4931 68.5937 29.4931 66.9034C29.4931 65.1989 29.802 63.7109 30.4199 62.4396C31.0449 61.1683 31.9114 60.1811 33.0194 59.478C34.1344 58.7749 35.4306 58.4233 36.9078 58.4233C38.3851 58.4233 39.6777 58.7749 40.7857 59.478C41.9007 60.1811 42.7672 61.1683 43.3851 62.4396C44.0101 63.7109 44.3226 65.1989 44.3226 66.9034C44.3226 68.5937 44.0101 70.071 43.3851 71.3352C42.7672 72.5994 41.9007 73.5831 40.7857 74.2862C39.6777 74.9893 38.3851 75.3409 36.9078 75.3409ZM36.9078 73.0824C38.03 73.0824 38.9533 72.7947 39.6777 72.2195C40.4022 71.6442 40.9384 70.8878 41.2864 69.9503C41.6344 69.0128 41.8084 67.9972 41.8084 66.9034C41.8084 65.8097 41.6344 64.7905 41.2864 63.8459C40.9384 62.9013 40.4022 62.1378 39.6777 61.5554C38.9533 60.973 38.03 60.6818 36.9078 60.6818C35.7857 60.6818 34.8624 60.973 34.138 61.5554C33.4135 62.1378 32.8773 62.9013 32.5293 63.8459C32.1813 64.7905 32.0073 65.8097 32.0073 66.9034C32.0073 67.9972 32.1813 69.0128 32.5293 69.9503C32.8773 70.8878 33.4135 71.6442 34.138 72.2195C34.8624 72.7947 35.7857 73.0824 36.9078 73.0824ZM50.6747 65.1562V75H48.1605V58.6364H50.5895V61.1932H50.8026C51.1861 60.3622 51.7685 59.6946 52.5497 59.1903C53.331 58.679 54.3395 58.4233 55.5753 58.4233C56.6832 58.4233 57.6527 58.6506 58.4837 59.1051C59.3146 59.5526 59.9609 60.2344 60.4226 61.1506C60.8842 62.0597 61.1151 63.2102 61.1151 64.6023V75H58.6009V64.7727C58.6009 63.4872 58.267 62.4858 57.5994 61.7685C56.9318 61.044 56.0156 60.6818 54.8509 60.6818C54.0483 60.6818 53.331 60.8558 52.6989 61.2038C52.0739 61.5518 51.5803 62.0597 51.218 62.7273C50.8558 63.3949 50.6747 64.2045 50.6747 65.1562ZM72.8258 58.6364V60.767H64.3457V58.6364H72.8258ZM66.8173 54.7159H69.3315V70.3125C69.3315 71.0227 69.4345 71.5554 69.6404 71.9105C69.8535 72.2585 70.1234 72.4929 70.4501 72.6136C70.7839 72.7273 71.1355 72.7841 71.5048 72.7841C71.7818 72.7841 72.0091 72.7699 72.1866 72.7415C72.3642 72.706 72.5062 72.6776 72.6127 72.6562L73.1241 74.9148C72.9537 74.9787 72.7157 75.0426 72.4103 75.1065C72.1049 75.1776 71.7179 75.2131 71.2491 75.2131C70.5389 75.2131 69.8429 75.0604 69.161 74.755C68.4863 74.4496 67.9252 73.9844 67.4778 73.3594C67.0375 72.7344 66.8173 71.946 66.8173 70.9943V54.7159ZM76.6078 75V58.6364H79.122V75H76.6078ZM77.8862 55.9091C77.3961 55.9091 76.9735 55.7422 76.6184 55.4084C76.2704 55.0746 76.0964 54.6733 76.0964 54.2045C76.0964 53.7358 76.2704 53.3345 76.6184 53.0007C76.9735 52.6669 77.3961 52.5 77.8862 52.5C78.3762 52.5 78.7953 52.6669 79.1433 53.0007C79.4984 53.3345 79.676 53.7358 79.676 54.2045C79.676 54.6733 79.4984 55.0746 79.1433 55.4084C78.7953 55.7422 78.3762 55.9091 77.8862 55.9091ZM86.2411 65.1562V75H83.7269V58.6364H86.1559V61.1932H86.369C86.7525 60.3622 87.3349 59.6946 88.1161 59.1903C88.8974 58.679 89.9059 58.4233 91.1417 58.4233C92.2496 58.4233 93.2191 58.6506 94.0501 59.1051C94.881 59.5526 95.5273 60.2344 95.989 61.1506C96.4506 62.0597 96.6815 63.2102 96.6815 64.6023V75H94.1673V64.7727C94.1673 63.4872 93.8335 62.4858 93.1658 61.7685C92.4982 61.044 91.582 60.6818 90.4173 60.6818C89.6147 60.6818 88.8974 60.8558 88.2653 61.2038C87.6403 61.5518 87.1467 62.0597 86.7844 62.7273C86.4222 63.3949 86.2411 64.2045 86.2411 65.1562ZM111.588 68.3097V58.6364H114.102V75H111.588V72.2301H111.418C111.034 73.0611 110.438 73.7678 109.628 74.3501C108.818 74.9254 107.796 75.2131 106.56 75.2131C105.537 75.2131 104.628 74.9893 103.833 74.5419C103.037 74.0874 102.412 73.4055 101.958 72.4964C101.503 71.5803 101.276 70.4261 101.276 69.0341V58.6364H103.79V68.8636C103.79 70.0568 104.124 71.0085 104.791 71.7188C105.466 72.429 106.325 72.7841 107.369 72.7841C107.994 72.7841 108.63 72.6243 109.276 72.3047C109.93 71.9851 110.477 71.495 110.917 70.8345C111.365 70.174 111.588 69.3324 111.588 68.3097ZM125.568 75.3409C123.991 75.3409 122.631 74.9929 121.488 74.2969C120.352 73.5938 119.474 72.6136 118.857 71.3565C118.246 70.0923 117.94 68.6222 117.94 66.946C117.94 65.2699 118.246 63.7926 118.857 62.5142C119.474 61.2287 120.334 60.2273 121.435 59.5099C122.543 58.7855 123.835 58.4233 125.312 58.4233C126.165 58.4233 127.006 58.5653 127.837 58.8494C128.668 59.1335 129.425 59.5952 130.107 60.2344C130.788 60.8665 131.332 61.7045 131.737 62.7486C132.141 63.7926 132.344 65.0781 132.344 66.6051V67.6705H119.73V65.4972H129.787C129.787 64.5739 129.602 63.75 129.233 63.0256C128.871 62.3011 128.352 61.7294 127.678 61.3104C127.01 60.8913 126.222 60.6818 125.312 60.6818C124.311 60.6818 123.445 60.9304 122.713 61.4276C121.989 61.9176 121.431 62.5568 121.04 63.3452C120.65 64.1335 120.455 64.9787 120.455 65.8807V67.3295C120.455 68.5653 120.668 69.6129 121.094 70.4723C121.527 71.3246 122.127 71.9744 122.894 72.4219C123.661 72.8622 124.553 73.0824 125.568 73.0824C126.229 73.0824 126.825 72.9901 127.358 72.8054C127.898 72.6136 128.363 72.3295 128.754 71.9531C129.144 71.5696 129.446 71.0937 129.659 70.5256L132.088 71.2074C131.832 72.0312 131.403 72.7557 130.799 73.3807C130.195 73.9986 129.45 74.4815 128.562 74.8295C127.674 75.1705 126.676 75.3409 125.568 75.3409Z"></path>
</svg>
