<svg xmlns="http://www.w3.org/2000/svg" fill="none" viewBox="0 0 139 164" height="164" width="139">
<path fill="#43D059" d="M0 20C0 8.95431 8.95431 0 20 0H119C130.046 0 139 8.95431 139 20V144C139 155.046 130.046 164 119 164H20C8.95431 164 0 155.046 0 144V20Z"></path>
<path fill="black" d="M36.2102 135.455V150H34.5341V135.455H36.2102ZM43.854 150.227C42.8029 150.227 41.8962 149.995 41.1339 149.531C40.3763 149.062 39.7915 148.409 39.3796 147.571C38.9724 146.728 38.7688 145.748 38.7688 144.631C38.7688 143.513 38.9724 142.528 39.3796 141.676C39.7915 140.819 40.3645 140.152 41.0984 139.673C41.837 139.19 42.6987 138.949 43.6836 138.949C44.2518 138.949 44.8129 139.044 45.3668 139.233C45.9208 139.422 46.4251 139.73 46.8796 140.156C47.3342 140.578 47.6964 141.136 47.9663 141.832C48.2362 142.528 48.3711 143.385 48.3711 144.403V145.114H39.962V143.665H46.6665C46.6665 143.049 46.5434 142.5 46.2972 142.017C46.0558 141.534 45.7101 141.153 45.2603 140.874C44.8152 140.594 44.2897 140.455 43.6836 140.455C43.016 140.455 42.4383 140.62 41.9506 140.952C41.4677 141.278 41.096 141.705 40.8356 142.23C40.5752 142.756 40.445 143.319 40.445 143.92V144.886C40.445 145.71 40.587 146.409 40.8711 146.982C41.1599 147.55 41.56 147.983 42.0714 148.281C42.5827 148.575 43.177 148.722 43.854 148.722C44.2944 148.722 44.6921 148.66 45.0472 148.537C45.4071 148.409 45.7172 148.22 45.9776 147.969C46.238 147.713 46.4393 147.396 46.5813 147.017L48.2006 147.472C48.0302 148.021 47.7437 148.504 47.3413 148.92C46.9388 149.332 46.4416 149.654 45.8498 149.886C45.2579 150.114 44.5927 150.227 43.854 150.227ZM55.6651 139.091V140.511H50.0117V139.091H55.6651ZM51.6594 136.477H53.3356V146.875C53.3356 147.348 53.4042 147.704 53.5415 147.94C53.6836 148.172 53.8635 148.329 54.0813 148.409C54.3039 148.485 54.5382 148.523 54.7844 148.523C54.9691 148.523 55.1206 148.513 55.239 148.494C55.3574 148.471 55.4521 148.452 55.5231 148.438L55.864 149.943C55.7504 149.986 55.5917 150.028 55.3881 150.071C55.1845 150.118 54.9265 150.142 54.614 150.142C54.1405 150.142 53.6765 150.04 53.2219 149.837C52.7721 149.633 52.3981 149.323 52.0998 148.906C51.8062 148.49 51.6594 147.964 51.6594 147.33V136.477ZM62.9308 139.091V140.511H57.2773V139.091H62.9308ZM58.9251 136.477H60.6012V146.875C60.6012 147.348 60.6699 147.704 60.8072 147.94C60.9492 148.172 61.1291 148.329 61.3469 148.409C61.5695 148.485 61.8039 148.523 62.0501 148.523C62.2347 148.523 62.3862 148.513 62.5046 148.494C62.623 148.471 62.7177 148.452 62.7887 148.438L63.1296 149.943C63.016 149.986 62.8574 150.028 62.6538 150.071C62.4502 150.118 62.1921 150.142 61.8796 150.142C61.4061 150.142 60.9421 150.04 60.4876 149.837C60.0378 149.633 59.6637 149.323 59.3654 148.906C59.0719 148.49 58.9251 147.964 58.9251 147.33V136.477ZM69.9087 150.227C68.8576 150.227 67.9509 149.995 67.1886 149.531C66.431 149.062 65.8462 148.409 65.4343 147.571C65.0271 146.728 64.8235 145.748 64.8235 144.631C64.8235 143.513 65.0271 142.528 65.4343 141.676C65.8462 140.819 66.4192 140.152 67.1531 139.673C67.8917 139.19 68.7534 138.949 69.7383 138.949C70.3065 138.949 70.8675 139.044 71.4215 139.233C71.9755 139.422 72.4798 139.73 72.9343 140.156C73.3888 140.578 73.7511 141.136 74.021 141.832C74.2908 142.528 74.4258 143.385 74.4258 144.403V145.114H66.0167V143.665H72.7212C72.7212 143.049 72.5981 142.5 72.3519 142.017C72.1104 141.534 71.7648 141.153 71.315 140.874C70.8699 140.594 70.3443 140.455 69.7383 140.455C69.0707 140.455 68.493 140.62 68.0053 140.952C67.5224 141.278 67.1507 141.705 66.8903 142.23C66.6299 142.756 66.4996 143.319 66.4996 143.92V144.886C66.4996 145.71 66.6417 146.409 66.9258 146.982C67.2146 147.55 67.6147 147.983 68.1261 148.281C68.6374 148.575 69.2317 148.722 69.9087 148.722C70.3491 148.722 70.7468 148.66 71.1019 148.537C71.4618 148.409 71.7719 148.22 72.0323 147.969C72.2927 147.713 72.494 147.396 72.636 147.017L74.2553 147.472C74.0849 148.021 73.7984 148.504 73.396 148.92C72.9935 149.332 72.4963 149.654 71.9045 149.886C71.3126 150.114 70.6474 150.227 69.9087 150.227ZM76.9755 150V139.091H78.5948V140.739H78.7085C78.9073 140.199 79.2672 139.761 79.788 139.425C80.3088 139.089 80.896 138.92 81.5494 138.92C81.6725 138.92 81.8263 138.923 82.011 138.928C82.1957 138.932 82.3353 138.939 82.43 138.949V140.653C82.3732 140.639 82.243 140.618 82.0394 140.589C81.8406 140.556 81.6299 140.54 81.4073 140.54C80.877 140.54 80.4035 140.651 79.9869 140.874C79.5749 141.091 79.2482 141.394 79.0067 141.783C78.77 142.166 78.6516 142.604 78.6516 143.097V150H76.9755ZM101.974 140H100.212C100.108 139.493 99.9259 139.048 99.6655 138.665C99.4098 138.281 99.0973 137.959 98.728 137.699C98.3634 137.434 97.9586 137.235 97.5135 137.102C97.0684 136.97 96.6044 136.903 96.1214 136.903C95.2408 136.903 94.4429 137.126 93.728 137.571C93.0178 138.016 92.4519 138.672 92.0305 139.538C91.6139 140.405 91.4055 141.468 91.4055 142.727C91.4055 143.987 91.6139 145.05 92.0305 145.916C92.4519 146.783 93.0178 147.438 93.728 147.884C94.4429 148.329 95.2408 148.551 96.1214 148.551C96.6044 148.551 97.0684 148.485 97.5135 148.352C97.9586 148.22 98.3634 148.023 98.728 147.763C99.0973 147.498 99.4098 147.173 99.6655 146.79C99.9259 146.402 100.108 145.956 100.212 145.455H101.974C101.841 146.198 101.6 146.863 101.249 147.45C100.899 148.037 100.463 148.537 99.9425 148.949C99.4216 149.356 98.8369 149.666 98.1882 149.879C97.5443 150.092 96.8554 150.199 96.1214 150.199C94.8809 150.199 93.7777 149.896 92.8118 149.29C91.8459 148.684 91.0859 147.822 90.532 146.705C89.978 145.587 89.701 144.261 89.701 142.727C89.701 141.193 89.978 139.867 90.532 138.75C91.0859 137.633 91.8459 136.771 92.8118 136.165C93.7777 135.559 94.8809 135.256 96.1214 135.256C96.8554 135.256 97.5443 135.362 98.1882 135.575C98.8369 135.788 99.4216 136.101 99.9425 136.513C100.463 136.92 100.899 137.417 101.249 138.004C101.6 138.587 101.841 139.252 101.974 140Z"></path>
<path fill="black" d="M25.2397 60.1818H28.2653L34.3164 70.3665H34.5721L40.6232 60.1818H43.6488L35.7653 73.0085V82H33.1232V73.0085L25.2397 60.1818ZM51.2713 82.3409C49.6946 82.3409 48.3345 81.9929 47.1911 81.2969C46.0547 80.5938 45.1776 79.6136 44.5597 78.3565C43.9489 77.0923 43.6435 75.6222 43.6435 73.946C43.6435 72.2699 43.9489 70.7926 44.5597 69.5142C45.1776 68.2287 46.0369 67.2273 47.1378 66.5099C48.2457 65.7855 49.5384 65.4233 51.0156 65.4233C51.8679 65.4233 52.7095 65.5653 53.5405 65.8494C54.3714 66.1335 55.1278 66.5952 55.8097 67.2344C56.4915 67.8665 57.0348 68.7045 57.4396 69.7486C57.8445 70.7926 58.0469 72.0781 58.0469 73.6051V74.6705H45.4332V72.4972H55.4901C55.4901 71.5739 55.3054 70.75 54.9361 70.0256C54.5739 69.3011 54.0554 68.7294 53.3807 68.3104C52.7131 67.8913 51.9247 67.6818 51.0156 67.6818C50.0142 67.6818 49.1477 67.9304 48.4162 68.4276C47.6918 68.9176 47.1342 69.5568 46.7436 70.3452C46.353 71.1335 46.1577 71.9787 46.1577 72.8807V74.3295C46.1577 75.5653 46.3707 76.6129 46.7969 77.4723C47.2301 78.3246 47.8303 78.9744 48.5973 79.4219C49.3643 79.8622 50.2557 80.0824 51.2713 80.0824C51.9318 80.0824 52.5284 79.9901 53.0611 79.8054C53.6009 79.6136 54.0661 79.3295 54.4567 78.9531C54.8473 78.5696 55.1491 78.0937 55.3622 77.5256L57.7912 78.2074C57.5355 79.0312 57.1058 79.7557 56.5021 80.3807C55.8984 80.9986 55.1527 81.4815 54.2649 81.8295C53.3771 82.1705 52.3793 82.3409 51.2713 82.3409ZM64.3857 60.1818V82H61.8714V60.1818H64.3857ZM71.5048 60.1818V82H68.9906V60.1818H71.5048ZM82.7575 82.3409C81.2802 82.3409 79.984 81.9893 78.869 81.2862C77.761 80.5831 76.8945 79.5994 76.2695 78.3352C75.6516 77.071 75.3427 75.5937 75.3427 73.9034C75.3427 72.1989 75.6516 70.7109 76.2695 69.4396C76.8945 68.1683 77.761 67.1811 78.869 66.478C79.984 65.7749 81.2802 65.4233 82.7575 65.4233C84.2347 65.4233 85.5273 65.7749 86.6353 66.478C87.7504 67.1811 88.6168 68.1683 89.2347 69.4396C89.8597 70.7109 90.1722 72.1989 90.1722 73.9034C90.1722 75.5937 89.8597 77.071 89.2347 78.3352C88.6168 79.5994 87.7504 80.5831 86.6353 81.2862C85.5273 81.9893 84.2347 82.3409 82.7575 82.3409ZM82.7575 80.0824C83.8796 80.0824 84.8029 79.7947 85.5273 79.2195C86.2518 78.6442 86.788 77.8878 87.136 76.9503C87.484 76.0128 87.658 74.9972 87.658 73.9034C87.658 72.8097 87.484 71.7905 87.136 70.8459C86.788 69.9013 86.2518 69.1378 85.5273 68.5554C84.8029 67.973 83.8796 67.6818 82.7575 67.6818C81.6353 67.6818 80.712 67.973 79.9876 68.5554C79.2631 69.1378 78.7269 69.9013 78.3789 70.8459C78.0309 71.7905 77.8569 72.8097 77.8569 73.9034C77.8569 74.9972 78.0309 76.0128 78.3789 76.9503C78.7269 77.8878 79.2631 78.6442 79.9876 79.2195C80.712 79.7947 81.6353 80.0824 82.7575 80.0824ZM97.1609 82L92.1751 65.6364H94.8171L98.354 78.1648H98.5245L102.019 65.6364H104.703L108.155 78.1222H108.326L111.863 65.6364H114.505L109.519 82H107.047L103.468 69.429H103.212L99.6325 82H97.1609Z"></path>
</svg>
