<svg xmlns="http://www.w3.org/2000/svg" fill="none" viewBox="0 0 139 164" height="164" width="139">
<path fill="#43D059" d="M0 20C0 8.95431 8.95431 0 20 0H119C130.046 0 139 8.95431 139 20V144C139 155.046 130.046 164 119 164H20C8.95431 164 0 155.046 0 144V20Z"></path>
<path fill="black" d="M36.2102 135.455V150H34.5341V135.455H36.2102ZM43.854 150.227C42.8029 150.227 41.8962 149.995 41.1339 149.531C40.3763 149.062 39.7915 148.409 39.3796 147.571C38.9724 146.728 38.7688 145.748 38.7688 144.631C38.7688 143.513 38.9724 142.528 39.3796 141.676C39.7915 140.819 40.3645 140.152 41.0984 139.673C41.837 139.19 42.6987 138.949 43.6836 138.949C44.2518 138.949 44.8129 139.044 45.3668 139.233C45.9208 139.422 46.4251 139.73 46.8796 140.156C47.3342 140.578 47.6964 141.136 47.9663 141.832C48.2362 142.528 48.3711 143.385 48.3711 144.403V145.114H39.962V143.665H46.6665C46.6665 143.049 46.5434 142.5 46.2972 142.017C46.0558 141.534 45.7101 141.153 45.2603 140.874C44.8152 140.594 44.2897 140.455 43.6836 140.455C43.016 140.455 42.4383 140.62 41.9506 140.952C41.4677 141.278 41.096 141.705 40.8356 142.23C40.5752 142.756 40.445 143.319 40.445 143.92V144.886C40.445 145.71 40.587 146.409 40.8711 146.982C41.1599 147.55 41.56 147.983 42.0714 148.281C42.5827 148.575 43.177 148.722 43.854 148.722C44.2944 148.722 44.6921 148.66 45.0472 148.537C45.4071 148.409 45.7172 148.22 45.9776 147.969C46.238 147.713 46.4393 147.396 46.5813 147.017L48.2006 147.472C48.0302 148.021 47.7437 148.504 47.3413 148.92C46.9388 149.332 46.4416 149.654 45.8498 149.886C45.2579 150.114 44.5927 150.227 43.854 150.227ZM55.6651 139.091V140.511H50.0117V139.091H55.6651ZM51.6594 136.477H53.3356V146.875C53.3356 147.348 53.4042 147.704 53.5415 147.94C53.6836 148.172 53.8635 148.329 54.0813 148.409C54.3039 148.485 54.5382 148.523 54.7844 148.523C54.9691 148.523 55.1206 148.513 55.239 148.494C55.3574 148.471 55.4521 148.452 55.5231 148.438L55.864 149.943C55.7504 149.986 55.5917 150.028 55.3881 150.071C55.1845 150.118 54.9265 150.142 54.614 150.142C54.1405 150.142 53.6765 150.04 53.2219 149.837C52.7721 149.633 52.3981 149.323 52.0998 148.906C51.8062 148.49 51.6594 147.964 51.6594 147.33V136.477ZM62.9308 139.091V140.511H57.2773V139.091H62.9308ZM58.9251 136.477H60.6012V146.875C60.6012 147.348 60.6699 147.704 60.8072 147.94C60.9492 148.172 61.1291 148.329 61.3469 148.409C61.5695 148.485 61.8039 148.523 62.0501 148.523C62.2347 148.523 62.3862 148.513 62.5046 148.494C62.623 148.471 62.7177 148.452 62.7887 148.438L63.1296 149.943C63.016 149.986 62.8574 150.028 62.6538 150.071C62.4502 150.118 62.1921 150.142 61.8796 150.142C61.4061 150.142 60.9421 150.04 60.4876 149.837C60.0378 149.633 59.6637 149.323 59.3654 148.906C59.0719 148.49 58.9251 147.964 58.9251 147.33V136.477ZM69.9087 150.227C68.8576 150.227 67.9509 149.995 67.1886 149.531C66.431 149.062 65.8462 148.409 65.4343 147.571C65.0271 146.728 64.8235 145.748 64.8235 144.631C64.8235 143.513 65.0271 142.528 65.4343 141.676C65.8462 140.819 66.4192 140.152 67.1531 139.673C67.8917 139.19 68.7534 138.949 69.7383 138.949C70.3065 138.949 70.8675 139.044 71.4215 139.233C71.9755 139.422 72.4798 139.73 72.9343 140.156C73.3888 140.578 73.7511 141.136 74.021 141.832C74.2908 142.528 74.4258 143.385 74.4258 144.403V145.114H66.0167V143.665H72.7212C72.7212 143.049 72.5981 142.5 72.3519 142.017C72.1104 141.534 71.7648 141.153 71.315 140.874C70.8699 140.594 70.3443 140.455 69.7383 140.455C69.0707 140.455 68.493 140.62 68.0053 140.952C67.5224 141.278 67.1507 141.705 66.8903 142.23C66.6299 142.756 66.4996 143.319 66.4996 143.92V144.886C66.4996 145.71 66.6417 146.409 66.9258 146.982C67.2146 147.55 67.6147 147.983 68.1261 148.281C68.6374 148.575 69.2317 148.722 69.9087 148.722C70.3491 148.722 70.7468 148.66 71.1019 148.537C71.4618 148.409 71.7719 148.22 72.0323 147.969C72.2927 147.713 72.494 147.396 72.636 147.017L74.2553 147.472C74.0849 148.021 73.7984 148.504 73.396 148.92C72.9935 149.332 72.4963 149.654 71.9045 149.886C71.3126 150.114 70.6474 150.227 69.9087 150.227ZM76.9755 150V139.091H78.5948V140.739H78.7085C78.9073 140.199 79.2672 139.761 79.788 139.425C80.3088 139.089 80.896 138.92 81.5494 138.92C81.6725 138.92 81.8263 138.923 82.011 138.928C82.1957 138.932 82.3353 138.939 82.43 138.949V140.653C82.3732 140.639 82.243 140.618 82.0394 140.589C81.8406 140.556 81.6299 140.54 81.4073 140.54C80.877 140.54 80.4035 140.651 79.9869 140.874C79.5749 141.091 79.2482 141.394 79.0067 141.783C78.77 142.166 78.6516 142.604 78.6516 143.097V150H76.9755ZM101.974 140H100.212C100.108 139.493 99.9259 139.048 99.6655 138.665C99.4098 138.281 99.0973 137.959 98.728 137.699C98.3634 137.434 97.9586 137.235 97.5135 137.102C97.0684 136.97 96.6044 136.903 96.1214 136.903C95.2408 136.903 94.4429 137.126 93.728 137.571C93.0178 138.016 92.4519 138.672 92.0305 139.538C91.6139 140.405 91.4055 141.468 91.4055 142.727C91.4055 143.987 91.6139 145.05 92.0305 145.916C92.4519 146.783 93.0178 147.438 93.728 147.884C94.4429 148.329 95.2408 148.551 96.1214 148.551C96.6044 148.551 97.0684 148.485 97.5135 148.352C97.9586 148.22 98.3634 148.023 98.728 147.763C99.0973 147.498 99.4098 147.173 99.6655 146.79C99.9259 146.402 100.108 145.956 100.212 145.455H101.974C101.841 146.198 101.6 146.863 101.249 147.45C100.899 148.037 100.463 148.537 99.9425 148.949C99.4216 149.356 98.8369 149.666 98.1882 149.879C97.5443 150.092 96.8554 150.199 96.1214 150.199C94.8809 150.199 93.7777 149.896 92.8118 149.29C91.8459 148.684 91.0859 147.822 90.532 146.705C89.978 145.587 89.701 144.261 89.701 142.727C89.701 141.193 89.978 139.867 90.532 138.75C91.0859 137.633 91.8459 136.771 92.8118 136.165C93.7777 135.559 94.8809 135.256 96.1214 135.256C96.8554 135.256 97.5443 135.362 98.1882 135.575C98.8369 135.788 99.4216 136.101 99.9425 136.513C100.463 136.92 100.899 137.417 101.249 138.004C101.6 138.587 101.841 139.252 101.974 140Z"></path>
<path fill="black" d="M32.2609 60.1818H34.903V75.7784C34.903 77.1705 34.6473 78.353 34.1359 79.326C33.6246 80.299 32.9037 81.0376 31.9733 81.5419C31.0429 82.0462 29.9456 82.2983 28.6814 82.2983C27.4882 82.2983 26.4264 82.0817 25.496 81.6484C24.5656 81.2081 23.8341 80.5831 23.3014 79.7734C22.7687 78.9638 22.5024 78.0014 22.5024 76.8864H25.1018C25.1018 77.5043 25.2545 78.044 25.5599 78.5057C25.8724 78.9602 26.2986 79.3153 26.8383 79.571C27.3781 79.8267 27.9925 79.9545 28.6814 79.9545C29.4413 79.9545 30.0876 79.7947 30.6203 79.4751C31.153 79.1555 31.5578 78.6868 31.8348 78.0689C32.1189 77.4439 32.2609 76.6804 32.2609 75.7784V60.1818ZM50.1693 75.3097V65.6364H52.6835V82H50.1693V79.2301H49.9988C49.6153 80.0611 49.0187 80.7678 48.2091 81.3501C47.3994 81.9254 46.3767 82.2131 45.1409 82.2131C44.1182 82.2131 43.2091 81.9893 42.4136 81.5419C41.6182 81.0874 40.9932 80.4055 40.5386 79.4964C40.0841 78.5803 39.8568 77.4261 39.8568 76.0341V65.6364H42.371V75.8636C42.371 77.0568 42.7048 78.0085 43.3724 78.7188C44.0471 79.429 44.9065 79.7841 45.9506 79.7841C46.5756 79.7841 47.2112 79.6243 47.8575 79.3047C48.5109 78.9851 49.0578 78.495 49.4981 77.8345C49.9456 77.174 50.1693 76.3324 50.1693 75.3097ZM57.2884 88.1364V65.6364H59.7174V68.2358H60.0157C60.2004 67.9517 60.4561 67.5895 60.7828 67.1491C61.1166 66.7017 61.5924 66.304 62.2103 65.956C62.8353 65.6009 63.6805 65.4233 64.7458 65.4233C66.1237 65.4233 67.3382 65.7678 68.3893 66.4567C69.4404 67.1456 70.2607 68.1222 70.8502 69.3864C71.4397 70.6506 71.7345 72.142 71.7345 73.8608C71.7345 75.5938 71.4397 77.0959 70.8502 78.3672C70.2607 79.6314 69.444 80.6115 68.3999 81.3075C67.3559 81.9964 66.1521 82.3409 64.7884 82.3409C63.7373 82.3409 62.8957 82.1669 62.2636 81.8189C61.6315 81.4638 61.145 81.0625 60.8041 80.6151C60.4632 80.1605 60.2004 79.7841 60.0157 79.4858H59.8026V88.1364H57.2884ZM59.76 73.8182C59.76 75.054 59.9411 76.1442 60.3034 77.0888C60.6656 78.0263 61.1947 78.7614 61.8907 79.294C62.5867 79.8196 63.439 80.0824 64.4475 80.0824C65.4987 80.0824 66.3758 79.8054 67.0789 79.2514C67.7892 78.6903 68.3218 77.9375 68.6769 76.9929C69.0392 76.0412 69.2203 74.983 69.2203 73.8182C69.2203 72.6676 69.0427 71.6307 68.6876 70.7074C68.3396 69.777 67.8105 69.0419 67.1002 68.5021C66.3971 67.9553 65.5129 67.6818 64.4475 67.6818C63.4248 67.6818 62.5654 67.9411 61.8694 68.4595C61.1734 68.9709 60.6478 69.6882 60.2927 70.6115C59.9376 71.5277 59.76 72.5966 59.76 73.8182ZM75.5697 82V65.6364H78.0839V82H75.5697ZM76.8481 62.9091C76.358 62.9091 75.9355 62.7422 75.5803 62.4084C75.2323 62.0746 75.0583 61.6733 75.0583 61.2045C75.0583 60.7358 75.2323 60.3345 75.5803 60.0007C75.9355 59.6669 76.358 59.5 76.8481 59.5C77.3382 59.5 77.7572 59.6669 78.1052 60.0007C78.4603 60.3345 78.6379 60.7358 78.6379 61.2045C78.6379 61.6733 78.4603 62.0746 78.1052 62.4084C77.7572 62.7422 77.3382 62.9091 76.8481 62.9091ZM89.8053 65.6364V67.767H81.3252V65.6364H89.8053ZM83.7968 61.7159H86.311V77.3125C86.311 78.0227 86.414 78.5554 86.6199 78.9105C86.833 79.2585 87.1029 79.4929 87.4296 79.6136C87.7634 79.7273 88.115 79.7841 88.4843 79.7841C88.7613 79.7841 88.9885 79.7699 89.1661 79.7415C89.3437 79.706 89.4857 79.6776 89.5922 79.6562L90.1036 81.9148C89.9331 81.9787 89.6952 82.0426 89.3898 82.1065C89.0844 82.1776 88.6974 82.2131 88.2286 82.2131C87.5184 82.2131 86.8224 82.0604 86.1405 81.755C85.4658 81.4496 84.9047 80.9844 84.4573 80.3594C84.017 79.7344 83.7968 78.946 83.7968 77.9943V61.7159ZM100.272 82.3409C98.6956 82.3409 97.3355 81.9929 96.192 81.2969C95.0557 80.5938 94.1785 79.6136 93.5606 78.3565C92.9498 77.0923 92.6444 75.6222 92.6444 73.946C92.6444 72.2699 92.9498 70.7926 93.5606 69.5142C94.1785 68.2287 95.0379 67.2273 96.1388 66.5099C97.2467 65.7855 98.5393 65.4233 100.017 65.4233C100.869 65.4233 101.71 65.5653 102.541 65.8494C103.372 66.1335 104.129 66.5952 104.811 67.2344C105.492 67.8665 106.036 68.7045 106.441 69.7486C106.845 70.7926 107.048 72.0781 107.048 73.6051V74.6705H94.4342V72.4972H104.491C104.491 71.5739 104.306 70.75 103.937 70.0256C103.575 69.3011 103.056 68.7294 102.382 68.3104C101.714 67.8913 100.926 67.6818 100.017 67.6818C99.0152 67.6818 98.1487 67.9304 97.4172 68.4276C96.6927 68.9176 96.1352 69.5568 95.7446 70.3452C95.354 71.1335 95.1586 71.9787 95.1586 72.8807V74.3295C95.1586 75.5653 95.3717 76.6129 95.7979 77.4723C96.2311 78.3246 96.8312 78.9744 97.5983 79.4219C98.3653 79.8622 99.2567 80.0824 100.272 80.0824C100.933 80.0824 101.529 79.9901 102.062 79.8054C102.602 79.6136 103.067 79.3295 103.458 78.9531C103.848 78.5696 104.15 78.0937 104.363 77.5256L106.792 78.2074C106.536 79.0312 106.107 79.7557 105.503 80.3807C104.899 80.9986 104.154 81.4815 103.266 81.8295C102.378 82.1705 101.38 82.3409 100.272 82.3409ZM110.872 82V65.6364H113.301V68.108H113.472C113.77 67.2983 114.31 66.6413 115.091 66.1371C115.872 65.6328 116.753 65.3807 117.733 65.3807C117.918 65.3807 118.149 65.3842 118.426 65.3913C118.703 65.3984 118.912 65.4091 119.054 65.4233V67.9801C118.969 67.9588 118.774 67.9268 118.468 67.8842C118.17 67.8345 117.854 67.8097 117.52 67.8097C116.725 67.8097 116.014 67.9766 115.389 68.3104C114.772 68.6371 114.282 69.0916 113.919 69.674C113.564 70.2493 113.387 70.9062 113.387 71.6449V82H110.872Z"></path>
</svg>
