<svg xmlns="http://www.w3.org/2000/svg" fill="none" viewBox="0 0 139 164" height="164" width="139">
<path fill="#EE6338" d="M0 20C0 8.95431 8.95431 0 20 0H119C130.046 0 139 8.95431 139 20V144C139 155.046 130.046 164 119 164H20C8.95431 164 0 155.046 0 144V20Z"></path>
<path fill="black" d="M36.2102 134.455V149H34.5341V134.455H36.2102ZM43.854 149.227C42.8029 149.227 41.8962 148.995 41.1339 148.531C40.3763 148.062 39.7915 147.409 39.3796 146.571C38.9724 145.728 38.7688 144.748 38.7688 143.631C38.7688 142.513 38.9724 141.528 39.3796 140.676C39.7915 139.819 40.3645 139.152 41.0984 138.673C41.837 138.19 42.6987 137.949 43.6836 137.949C44.2518 137.949 44.8129 138.044 45.3668 138.233C45.9208 138.422 46.4251 138.73 46.8796 139.156C47.3342 139.578 47.6964 140.136 47.9663 140.832C48.2362 141.528 48.3711 142.385 48.3711 143.403V144.114H39.962V142.665H46.6665C46.6665 142.049 46.5434 141.5 46.2972 141.017C46.0558 140.534 45.7101 140.153 45.2603 139.874C44.8152 139.594 44.2897 139.455 43.6836 139.455C43.016 139.455 42.4383 139.62 41.9506 139.952C41.4677 140.278 41.096 140.705 40.8356 141.23C40.5752 141.756 40.445 142.319 40.445 142.92V143.886C40.445 144.71 40.587 145.409 40.8711 145.982C41.1599 146.55 41.56 146.983 42.0714 147.281C42.5827 147.575 43.177 147.722 43.854 147.722C44.2944 147.722 44.6921 147.66 45.0472 147.537C45.4071 147.409 45.7172 147.22 45.9776 146.969C46.238 146.713 46.4393 146.396 46.5813 146.017L48.2006 146.472C48.0302 147.021 47.7437 147.504 47.3413 147.92C46.9388 148.332 46.4416 148.654 45.8498 148.886C45.2579 149.114 44.5927 149.227 43.854 149.227ZM55.6651 138.091V139.511H50.0117V138.091H55.6651ZM51.6594 135.477H53.3356V145.875C53.3356 146.348 53.4042 146.704 53.5415 146.94C53.6836 147.172 53.8635 147.329 54.0813 147.409C54.3039 147.485 54.5382 147.523 54.7844 147.523C54.9691 147.523 55.1206 147.513 55.239 147.494C55.3574 147.471 55.4521 147.452 55.5231 147.438L55.864 148.943C55.7504 148.986 55.5917 149.028 55.3881 149.071C55.1845 149.118 54.9265 149.142 54.614 149.142C54.1405 149.142 53.6765 149.04 53.2219 148.837C52.7721 148.633 52.3981 148.323 52.0998 147.906C51.8062 147.49 51.6594 146.964 51.6594 146.33V135.477ZM62.9308 138.091V139.511H57.2773V138.091H62.9308ZM58.9251 135.477H60.6012V145.875C60.6012 146.348 60.6699 146.704 60.8072 146.94C60.9492 147.172 61.1291 147.329 61.3469 147.409C61.5695 147.485 61.8039 147.523 62.0501 147.523C62.2347 147.523 62.3862 147.513 62.5046 147.494C62.623 147.471 62.7177 147.452 62.7887 147.438L63.1296 148.943C63.016 148.986 62.8574 149.028 62.6538 149.071C62.4502 149.118 62.1921 149.142 61.8796 149.142C61.4061 149.142 60.9421 149.04 60.4876 148.837C60.0378 148.633 59.6637 148.323 59.3654 147.906C59.0719 147.49 58.9251 146.964 58.9251 146.33V135.477ZM69.9087 149.227C68.8576 149.227 67.9509 148.995 67.1886 148.531C66.431 148.062 65.8462 147.409 65.4343 146.571C65.0271 145.728 64.8235 144.748 64.8235 143.631C64.8235 142.513 65.0271 141.528 65.4343 140.676C65.8462 139.819 66.4192 139.152 67.1531 138.673C67.8917 138.19 68.7534 137.949 69.7383 137.949C70.3065 137.949 70.8675 138.044 71.4215 138.233C71.9755 138.422 72.4798 138.73 72.9343 139.156C73.3888 139.578 73.7511 140.136 74.021 140.832C74.2908 141.528 74.4258 142.385 74.4258 143.403V144.114H66.0167V142.665H72.7212C72.7212 142.049 72.5981 141.5 72.3519 141.017C72.1104 140.534 71.7648 140.153 71.315 139.874C70.8699 139.594 70.3443 139.455 69.7383 139.455C69.0707 139.455 68.493 139.62 68.0053 139.952C67.5224 140.278 67.1507 140.705 66.8903 141.23C66.6299 141.756 66.4996 142.319 66.4996 142.92V143.886C66.4996 144.71 66.6417 145.409 66.9258 145.982C67.2146 146.55 67.6147 146.983 68.1261 147.281C68.6374 147.575 69.2317 147.722 69.9087 147.722C70.3491 147.722 70.7468 147.66 71.1019 147.537C71.4618 147.409 71.7719 147.22 72.0323 146.969C72.2927 146.713 72.494 146.396 72.636 146.017L74.2553 146.472C74.0849 147.021 73.7984 147.504 73.396 147.92C72.9935 148.332 72.4963 148.654 71.9045 148.886C71.3126 149.114 70.6474 149.227 69.9087 149.227ZM76.9755 149V138.091H78.5948V139.739H78.7085C78.9073 139.199 79.2672 138.761 79.788 138.425C80.3088 138.089 80.896 137.92 81.5494 137.92C81.6725 137.92 81.8263 137.923 82.011 137.928C82.1957 137.932 82.3353 137.939 82.43 137.949V139.653C82.3732 139.639 82.243 139.618 82.0394 139.589C81.8406 139.556 81.6299 139.54 81.4073 139.54C80.877 139.54 80.4035 139.651 79.9869 139.874C79.5749 140.091 79.2482 140.394 79.0067 140.783C78.77 141.166 78.6516 141.604 78.6516 142.097V149H76.9755ZM94.7578 149H90.2692V134.455H94.9567C96.3677 134.455 97.575 134.746 98.5788 135.328C99.5826 135.906 100.352 136.737 100.887 137.821C101.422 138.901 101.69 140.193 101.69 141.699C101.69 143.214 101.42 144.518 100.88 145.612C100.34 146.701 99.5542 147.539 98.522 148.126C97.4898 148.709 96.2351 149 94.7578 149ZM92.0305 147.438H94.6442C95.8468 147.438 96.8435 147.205 97.6342 146.741C98.425 146.277 99.0144 145.617 99.4027 144.76C99.791 143.903 99.9851 142.883 99.9851 141.699C99.9851 140.525 99.7933 139.514 99.4098 138.666C99.0263 137.814 98.4534 137.161 97.6911 136.706C96.9287 136.247 95.9794 136.017 94.843 136.017H92.0305V147.438Z"></path>
<path fill="black" d="M43.3285 59V41.5455H49.2262C50.5898 41.5455 51.7092 41.7784 52.5842 42.2443C53.4592 42.7045 54.1069 43.3381 54.5273 44.1449C54.9478 44.9517 55.158 45.8693 55.158 46.8977C55.158 47.9261 54.9478 48.8381 54.5273 49.6335C54.1069 50.429 53.462 51.054 52.5927 51.5085C51.7234 51.9574 50.6126 52.1818 49.2603 52.1818H44.4876V50.2727H49.1921C50.1239 50.2727 50.8739 50.1364 51.4421 49.8636C52.016 49.5909 52.4308 49.2045 52.6864 48.7045C52.9478 48.1989 53.0785 47.5966 53.0785 46.8977C53.0785 46.1989 52.9478 45.5881 52.6864 45.0653C52.4251 44.5426 52.0075 44.1392 51.4336 43.8551C50.8597 43.5653 50.1012 43.4205 49.158 43.4205H45.4421V59H43.3285ZM51.5444 51.1591L55.8398 59H53.3853L49.158 51.1591H51.5444ZM58.4073 59V45.9091H60.4187V59H58.4073ZM59.43 43.7273C59.038 43.7273 58.6999 43.5938 58.4158 43.3267C58.1374 43.0597 57.9982 42.7386 57.9982 42.3636C57.9982 41.9886 58.1374 41.6676 58.4158 41.4006C58.6999 41.1335 59.038 41 59.43 41C59.8221 41 60.1573 41.1335 60.4357 41.4006C60.7198 41.6676 60.8619 41.9886 60.8619 42.3636C60.8619 42.7386 60.7198 43.0597 60.4357 43.3267C60.1573 43.5938 59.8221 43.7273 59.43 43.7273ZM69.3867 64.1818C68.4151 64.1818 67.5799 64.0568 66.881 63.8068C66.1822 63.5625 65.5998 63.2386 65.1339 62.8352C64.6737 62.4375 64.3072 62.0114 64.0344 61.5568L65.6367 60.4318C65.8185 60.6705 66.0487 60.9432 66.3271 61.25C66.6055 61.5625 66.9862 61.8324 67.4691 62.0597C67.9577 62.2926 68.5969 62.4091 69.3867 62.4091C70.4435 62.4091 71.3157 62.1534 72.0032 61.642C72.6907 61.1307 73.0344 60.3295 73.0344 59.2386V56.5795H72.864C72.7163 56.8182 72.506 57.1136 72.2333 57.4659C71.9663 57.8125 71.5799 58.1222 71.0742 58.3949C70.5742 58.6619 69.8981 58.7955 69.0458 58.7955C67.989 58.7955 67.0401 58.5455 66.1992 58.0455C65.364 57.5455 64.7021 56.8182 64.2134 55.8636C63.7305 54.9091 63.489 53.75 63.489 52.3864C63.489 51.0455 63.7248 49.8778 64.1964 48.8835C64.668 47.8835 65.3242 47.1108 66.1651 46.5653C67.006 46.0142 67.9776 45.7386 69.0799 45.7386C69.9322 45.7386 70.6083 45.8807 71.1083 46.1648C71.614 46.4432 72.0004 46.7614 72.2674 47.1193C72.5401 47.4716 72.7504 47.7614 72.8981 47.9886H73.1026V45.9091H75.0458V59.375C75.0458 60.5 74.7901 61.4148 74.2788 62.1193C73.7731 62.8295 73.0913 63.3494 72.2333 63.679C71.381 64.0142 70.4322 64.1818 69.3867 64.1818ZM69.3185 56.9886C70.1254 56.9886 70.8072 56.804 71.364 56.4347C71.9208 56.0653 72.3441 55.5341 72.6339 54.8409C72.9237 54.1477 73.0685 53.3182 73.0685 52.3523C73.0685 51.4091 72.9265 50.5767 72.6424 49.8551C72.3583 49.1335 71.9379 48.5682 71.381 48.1591C70.8242 47.75 70.1367 47.5455 69.3185 47.5455C68.4663 47.5455 67.756 47.7614 67.1879 48.1932C66.6254 48.625 66.2021 49.2045 65.918 49.9318C65.6396 50.6591 65.5004 51.4659 65.5004 52.3523C65.5004 53.2614 65.6424 54.0653 65.9265 54.7642C66.2163 55.4574 66.6424 56.0028 67.2049 56.4006C67.7731 56.7926 68.4776 56.9886 69.3185 56.9886ZM80.739 51.125V59H78.7276V41.5455H80.739V47.9545H80.9094C81.2163 47.2784 81.6765 46.7415 82.2901 46.3438C82.9094 45.9403 83.7333 45.7386 84.7617 45.7386C85.6538 45.7386 86.435 45.9176 87.1055 46.2756C87.7759 46.6278 88.2958 47.1705 88.6651 47.9034C89.0401 48.6307 89.2276 49.5568 89.2276 50.6818V59H87.2163V50.8182C87.2163 49.7784 86.9464 48.9744 86.4066 48.4062C85.8725 47.8324 85.131 47.5455 84.1822 47.5455C83.5231 47.5455 82.9322 47.6847 82.4094 47.9631C81.8924 48.2415 81.4833 48.6477 81.1822 49.1818C80.8867 49.7159 80.739 50.3636 80.739 51.125ZM98.6005 45.9091V47.6136H91.8164V45.9091H98.6005ZM93.7937 42.7727H95.805V55.25C95.805 55.8182 95.8874 56.2443 96.0522 56.5284C96.2227 56.8068 96.4386 56.9943 96.6999 57.0909C96.967 57.1818 97.2482 57.2273 97.5437 57.2273C97.7653 57.2273 97.9471 57.2159 98.0891 57.1932C98.2312 57.1648 98.3448 57.142 98.43 57.125L98.8391 58.9318C98.7028 58.983 98.5124 59.0341 98.2681 59.0852C98.0238 59.142 97.7141 59.1705 97.3391 59.1705C96.771 59.1705 96.2141 59.0483 95.6687 58.804C95.1289 58.5597 94.68 58.1875 94.3221 57.6875C93.9698 57.1875 93.7937 56.5568 93.7937 55.7955V42.7727Z"></path>
</svg>
