<svg xmlns="http://www.w3.org/2000/svg" fill="none" viewBox="0 0 139 164" height="164" width="139">
<path fill="#EE6338" d="M0 20C0 8.95431 8.95431 0 20 0H119C130.046 0 139 8.95431 139 20V144C139 155.046 130.046 164 119 164H20C8.95431 164 0 155.046 0 144V20Z"></path>
<path fill="black" d="M36.2102 134.455V149H34.5341V134.455H36.2102ZM43.854 149.227C42.8029 149.227 41.8962 148.995 41.1339 148.531C40.3763 148.062 39.7915 147.409 39.3796 146.571C38.9724 145.728 38.7688 144.748 38.7688 143.631C38.7688 142.513 38.9724 141.528 39.3796 140.676C39.7915 139.819 40.3645 139.152 41.0984 138.673C41.837 138.19 42.6987 137.949 43.6836 137.949C44.2518 137.949 44.8129 138.044 45.3668 138.233C45.9208 138.422 46.4251 138.73 46.8796 139.156C47.3342 139.578 47.6964 140.136 47.9663 140.832C48.2362 141.528 48.3711 142.385 48.3711 143.403V144.114H39.962V142.665H46.6665C46.6665 142.049 46.5434 141.5 46.2972 141.017C46.0558 140.534 45.7101 140.153 45.2603 139.874C44.8152 139.594 44.2897 139.455 43.6836 139.455C43.016 139.455 42.4383 139.62 41.9506 139.952C41.4677 140.278 41.096 140.705 40.8356 141.23C40.5752 141.756 40.445 142.319 40.445 142.92V143.886C40.445 144.71 40.587 145.409 40.8711 145.982C41.1599 146.55 41.56 146.983 42.0714 147.281C42.5827 147.575 43.177 147.722 43.854 147.722C44.2944 147.722 44.6921 147.66 45.0472 147.537C45.4071 147.409 45.7172 147.22 45.9776 146.969C46.238 146.713 46.4393 146.396 46.5813 146.017L48.2006 146.472C48.0302 147.021 47.7437 147.504 47.3413 147.92C46.9388 148.332 46.4416 148.654 45.8498 148.886C45.2579 149.114 44.5927 149.227 43.854 149.227ZM55.6651 138.091V139.511H50.0117V138.091H55.6651ZM51.6594 135.477H53.3356V145.875C53.3356 146.348 53.4042 146.704 53.5415 146.94C53.6836 147.172 53.8635 147.329 54.0813 147.409C54.3039 147.485 54.5382 147.523 54.7844 147.523C54.9691 147.523 55.1206 147.513 55.239 147.494C55.3574 147.471 55.4521 147.452 55.5231 147.438L55.864 148.943C55.7504 148.986 55.5917 149.028 55.3881 149.071C55.1845 149.118 54.9265 149.142 54.614 149.142C54.1405 149.142 53.6765 149.04 53.2219 148.837C52.7721 148.633 52.3981 148.323 52.0998 147.906C51.8062 147.49 51.6594 146.964 51.6594 146.33V135.477ZM62.9308 138.091V139.511H57.2773V138.091H62.9308ZM58.9251 135.477H60.6012V145.875C60.6012 146.348 60.6699 146.704 60.8072 146.94C60.9492 147.172 61.1291 147.329 61.3469 147.409C61.5695 147.485 61.8039 147.523 62.0501 147.523C62.2347 147.523 62.3862 147.513 62.5046 147.494C62.623 147.471 62.7177 147.452 62.7887 147.438L63.1296 148.943C63.016 148.986 62.8574 149.028 62.6538 149.071C62.4502 149.118 62.1921 149.142 61.8796 149.142C61.4061 149.142 60.9421 149.04 60.4876 148.837C60.0378 148.633 59.6637 148.323 59.3654 147.906C59.0719 147.49 58.9251 146.964 58.9251 146.33V135.477ZM69.9087 149.227C68.8576 149.227 67.9509 148.995 67.1886 148.531C66.431 148.062 65.8462 147.409 65.4343 146.571C65.0271 145.728 64.8235 144.748 64.8235 143.631C64.8235 142.513 65.0271 141.528 65.4343 140.676C65.8462 139.819 66.4192 139.152 67.1531 138.673C67.8917 138.19 68.7534 137.949 69.7383 137.949C70.3065 137.949 70.8675 138.044 71.4215 138.233C71.9755 138.422 72.4798 138.73 72.9343 139.156C73.3888 139.578 73.7511 140.136 74.021 140.832C74.2908 141.528 74.4258 142.385 74.4258 143.403V144.114H66.0167V142.665H72.7212C72.7212 142.049 72.5981 141.5 72.3519 141.017C72.1104 140.534 71.7648 140.153 71.315 139.874C70.8699 139.594 70.3443 139.455 69.7383 139.455C69.0707 139.455 68.493 139.62 68.0053 139.952C67.5224 140.278 67.1507 140.705 66.8903 141.23C66.6299 141.756 66.4996 142.319 66.4996 142.92V143.886C66.4996 144.71 66.6417 145.409 66.9258 145.982C67.2146 146.55 67.6147 146.983 68.1261 147.281C68.6374 147.575 69.2317 147.722 69.9087 147.722C70.3491 147.722 70.7468 147.66 71.1019 147.537C71.4618 147.409 71.7719 147.22 72.0323 146.969C72.2927 146.713 72.494 146.396 72.636 146.017L74.2553 146.472C74.0849 147.021 73.7984 147.504 73.396 147.92C72.9935 148.332 72.4963 148.654 71.9045 148.886C71.3126 149.114 70.6474 149.227 69.9087 149.227ZM76.9755 149V138.091H78.5948V139.739H78.7085C78.9073 139.199 79.2672 138.761 79.788 138.425C80.3088 138.089 80.896 137.92 81.5494 137.92C81.6725 137.92 81.8263 137.923 82.011 137.928C82.1957 137.932 82.3353 137.939 82.43 137.949V139.653C82.3732 139.639 82.243 139.618 82.0394 139.589C81.8406 139.556 81.6299 139.54 81.4073 139.54C80.877 139.54 80.4035 139.651 79.9869 139.874C79.5749 140.091 79.2482 140.394 79.0067 140.783C78.77 141.166 78.6516 141.604 78.6516 142.097V149H76.9755ZM94.7578 149H90.2692V134.455H94.9567C96.3677 134.455 97.575 134.746 98.5788 135.328C99.5826 135.906 100.352 136.737 100.887 137.821C101.422 138.901 101.69 140.193 101.69 141.699C101.69 143.214 101.42 144.518 100.88 145.612C100.34 146.701 99.5542 147.539 98.522 148.126C97.4898 148.709 96.2351 149 94.7578 149ZM92.0305 147.438H94.6442C95.8468 147.438 96.8435 147.205 97.6342 146.741C98.425 146.277 99.0144 145.617 99.4027 144.76C99.791 143.903 99.9851 142.883 99.9851 141.699C99.9851 140.525 99.7933 139.514 99.4098 138.666C99.0263 137.814 98.4534 137.161 97.6911 136.706C96.9287 136.247 95.9794 136.017 94.843 136.017H92.0305V147.438Z"></path>
<path fill="black" d="M55.5263 82.4773C53.2763 82.4773 51.2706 82.0909 49.5092 81.3182C47.7592 80.5455 46.3672 79.4716 45.3331 78.0966C44.3104 76.7102 43.7536 75.1023 43.6626 73.2727H47.9581C48.049 74.3977 48.4354 75.3693 49.1172 76.1875C49.799 76.9943 50.6911 77.6193 51.7933 78.0625C52.8956 78.5057 54.1172 78.7273 55.4581 78.7273C56.9581 78.7273 58.2876 78.4659 59.4467 77.9432C60.6058 77.4205 61.5149 76.6932 62.174 75.7614C62.8331 74.8295 63.1626 73.75 63.1626 72.5227C63.1626 71.2386 62.8445 70.108 62.2081 69.1307C61.5717 68.142 60.6399 67.3693 59.4126 66.8125C58.1854 66.2557 56.6854 65.9773 54.9126 65.9773H52.1172V62.2273H54.9126C56.299 62.2273 57.5149 61.9773 58.5604 61.4773C59.6172 60.9773 60.4411 60.2727 61.032 59.3636C61.6342 58.4545 61.9354 57.3864 61.9354 56.1591C61.9354 54.9773 61.674 53.9489 61.1513 53.0739C60.6286 52.1989 59.8899 51.517 58.9354 51.0284C57.9922 50.5398 56.8786 50.2955 55.5945 50.2955C54.3899 50.2955 53.2536 50.517 52.1854 50.9602C51.1286 51.392 50.2649 52.0227 49.5945 52.8523C48.924 53.6705 48.5604 54.6591 48.5036 55.8182H44.4126C44.4808 53.9886 45.032 52.3864 46.0661 51.0114C47.1001 49.625 48.4524 48.5455 50.1229 47.7727C51.8047 47 53.6513 46.6136 55.6626 46.6136C57.8217 46.6136 59.674 47.0511 61.2195 47.9261C62.7649 48.7898 63.9524 49.9318 64.782 51.3523C65.6115 52.7727 66.0263 54.3068 66.0263 55.9545C66.0263 57.9205 65.5092 59.5966 64.4751 60.983C63.4524 62.3693 62.0604 63.3295 60.299 63.8636V64.1364C62.5036 64.5 64.2251 65.4375 65.4638 66.9489C66.7024 68.4489 67.3217 70.3068 67.3217 72.5227C67.3217 74.4205 66.8047 76.125 65.7706 77.6364C64.7479 79.1364 63.3501 80.3182 61.5774 81.1818C59.8047 82.0455 57.7876 82.4773 55.5263 82.4773ZM85.2024 82.4773C83.2024 82.4773 81.4013 82.0795 79.799 81.2841C78.1967 80.4886 76.9126 79.3977 75.9467 78.0114C74.9808 76.625 74.4524 75.0455 74.3615 73.2727H78.4524C78.6115 74.8523 79.3274 76.1591 80.6001 77.1932C81.8842 78.2159 83.4183 78.7273 85.2024 78.7273C86.6342 78.7273 87.907 78.392 89.0206 77.7216C90.1456 77.0511 91.0263 76.1307 91.6626 74.9602C92.3104 73.7784 92.6342 72.4432 92.6342 70.9545C92.6342 69.4318 92.299 68.0739 91.6286 66.8807C90.9695 65.6761 90.0604 64.7273 88.9013 64.0341C87.7422 63.3409 86.4183 62.9886 84.9297 62.9773C83.8615 62.9659 82.7649 63.1307 81.6399 63.4716C80.5149 63.8011 79.5888 64.2273 78.8615 64.75L74.907 64.2727L77.0206 47.0909H95.157V50.8409H80.5661L79.3388 61.1364H79.5433C80.2592 60.5682 81.157 60.0966 82.2365 59.7216C83.3161 59.3466 84.4411 59.1591 85.6115 59.1591C87.7479 59.1591 89.6513 59.6705 91.3217 60.6932C93.0036 61.7045 94.3217 63.0909 95.2763 64.8523C96.2422 66.6136 96.7251 68.625 96.7251 70.8864C96.7251 73.1136 96.2251 75.1023 95.2251 76.8523C94.2365 78.5909 92.8729 79.9659 91.1342 80.9773C89.3956 81.9773 87.4183 82.4773 85.2024 82.4773Z"></path>
</svg>
