<svg version="1.1" xmlns="http://www.w3.org/2000/svg" xmlns:xlink="http://www.w3.org/1999/xlink" width="241.20155" height="13.62515" viewBox="0,0,241.20155,13.62515"><g transform="translate(-119.39922,-173.18742)"><g data-paper-data="{&quot;isPaintingLayer&quot;:true}" fill="#ffffff" fill-rule="nonzero" stroke="none" stroke-width="1" stroke-linecap="butt" stroke-linejoin="miter" stroke-miterlimit="10" stroke-dasharray="" stroke-dashoffset="0" style="mix-blend-mode: normal"><path d="M122.2044,183.92725l-2.80518,-10.25894h1.26233l2.14395,8.35541h0.10018l2.18406,-8.35541h1.40258l2.18403,8.35541h0.10018l2.14397,-8.35541h1.26231l-2.80516,10.25894h-1.28239l-2.26417,-8.17509h-0.08014l-2.26419,8.17509zM134.75255,179.2987v4.62854h-1.18217v-10.25894h1.18217v3.76696h0.10021c0.18032,-0.39741 0.4508,-0.71297 0.81148,-0.94675c0.36402,-0.2371 0.84824,-0.35565 1.45269,-0.35565c0.5243,0 0.98348,0.10518 1.37754,0.31556c0.39406,0.20706 0.69963,0.52598 0.91669,0.95677c0.22041,0.42747 0.33061,0.97179 0.33061,1.63301v4.88904h-1.18217v-4.80887c0,-0.61114 -0.15864,-1.08367 -0.47587,-1.41763c-0.31392,-0.33728 -0.74974,-0.50594 -1.30742,-0.50594c-0.38739,0 -0.73469,0.08181 -1.04191,0.24544c-0.3039,0.16366 -0.54435,0.40243 -0.72135,0.71632c-0.17365,0.31392 -0.26049,0.69464 -0.26049,1.14212zM144.16868,184.10757c-0.48757,0 -0.93003,-0.09184 -1.32744,-0.27551c-0.39741,-0.18699 -0.71297,-0.45583 -0.94675,-0.80648c-0.23378,-0.35397 -0.35065,-0.78144 -0.35065,-1.28236c0,-0.44081 0.08684,-0.79814 0.26049,-1.07197c0.17365,-0.27718 0.40575,-0.49427 0.69628,-0.65123c0.29053,-0.15693 0.61111,-0.27383 0.96177,-0.35062c0.354,-0.08017 0.70965,-0.14362 1.06697,-0.19037c0.46753,-0.0601 0.84657,-0.10518 1.13709,-0.13524c0.29388,-0.03338 0.50761,-0.08849 0.64118,-0.16531c0.13695,-0.07682 0.20539,-0.21039 0.20539,-0.40073v-0.04009c0,-0.49424 -0.13524,-0.87828 -0.40576,-1.15211c-0.26716,-0.27386 -0.67288,-0.41078 -1.21723,-0.41078c-0.56439,0 -1.00688,0.12358 -1.32747,0.3707c-0.32059,0.24712 -0.54599,0.51093 -0.67624,0.79146l-1.12208,-0.40076c0.20036,-0.46753 0.46753,-0.83152 0.80149,-1.09202c0.33728,-0.26381 0.70463,-0.44748 1.10204,-0.55102c0.40073,-0.10685 0.79479,-0.16028 1.18217,-0.16028c0.24712,0 0.53097,0.03003 0.85156,0.09016c0.32394,0.05678 0.63618,0.17533 0.93673,0.35565c0.3039,0.18035 0.55604,0.45251 0.75641,0.81651c0.20036,0.36402 0.30055,0.85159 0.30055,1.46271v5.06936h-1.18217v-1.04194h-0.0601c-0.08017,0.16698 -0.21374,0.34566 -0.40076,0.536c-0.18699,0.19034 -0.43579,0.35233 -0.74636,0.48589c-0.3106,0.13359 -0.68961,0.20036 -1.13712,0.20036zM144.34903,183.04562c0.46753,0 0.86158,-0.09184 1.18217,-0.27551c0.32394,-0.18367 0.56771,-0.42077 0.73134,-0.71133c0.16698,-0.29053 0.25047,-0.5961 0.25047,-0.91669v-1.08199c-0.05008,0.06013 -0.16028,0.11523 -0.33061,0.16531c-0.16698,0.04676 -0.36067,0.08849 -0.58108,0.12522c-0.21706,0.03341 -0.42912,0.06348 -0.63615,0.09019c-0.20372,0.02336 -0.36902,0.0434 -0.49592,0.0601c-0.30725,0.04008 -0.59445,0.10521 -0.86161,0.19537c-0.26381,0.08681 -0.47755,0.21873 -0.64118,0.39573c-0.16028,0.17365 -0.24045,0.41075 -0.24045,0.7113c0,0.41078 0.15196,0.72135 0.45586,0.93173c0.30722,0.20704 0.69628,0.31057 1.16716,0.31057zM153.19913,176.23305v1.00185h-3.98731v-1.00185zM150.37381,174.38964h1.18226v7.33354c0,0.33396 0.04849,0.5844 0.14518,0.75138c0.10021,0.16363 0.22716,0.27383 0.38086,0.33061c0.15693,0.05343 0.32209,0.08014 0.49577,0.08014c0.13019,0 0.23716,-0.00667 0.32062,-0.02001c0.08346,-0.01672 0.15046,-0.03007 0.20042,-0.04009l0.24039,1.06195c-0.08023,0.03006 -0.1919,0.06013 -0.33561,0.09019c-0.14341,0.03338 -0.32561,0.05008 -0.54602,0.05008c-0.33384,0 -0.66122,-0.07179 -0.98184,-0.21538c-0.31709,-0.14362 -0.58099,-0.36235 -0.79141,-0.65622c-0.20689,-0.29388 -0.31063,-0.66457 -0.31063,-1.11205zM162.37099,176.23305v1.00185h-4.14747v-1.00185zM159.46574,183.92725v-8.75616c0,-0.44082 0.10345,-0.80816 0.31063,-1.10204c0.20689,-0.29388 0.47578,-0.51428 0.80639,-0.66122c0.33061,-0.14694 0.67944,-0.22041 1.04678,-0.22041c0.29064,0 0.5278,0.02338 0.71147,0.07013c0.18367,0.04675 0.32062,0.09017 0.41084,0.13024l-0.3406,1.02189c-0.06025,-0.02004 -0.14371,-0.04509 -0.25068,-0.07514c-0.10345,-0.03005 -0.24039,-0.04508 -0.41054,-0.04508c-0.39085,0 -0.67298,0.09852 -0.84666,0.29555c-0.17045,0.19703 -0.25538,0.4859 -0.25538,0.8666v8.47564zM166.83673,184.08756c-0.69443,0 -1.30392,-0.16531 -1.8282,-0.49592c-0.52104,-0.33061 -0.92865,-0.79314 -1.22252,-1.38756c-0.29035,-0.59445 -0.43552,-1.28906 -0.43552,-2.08384c0,-0.80149 0.14517,-1.50112 0.43552,-2.09889c0.29388,-0.59777 0.70148,-1.06195 1.22252,-1.39256c0.52427,-0.33061 1.13377,-0.49591 1.8282,-0.49591c0.69472,0 1.30246,0.1653 1.8235,0.49591c0.52427,0.33061 0.93159,0.79479 1.22223,1.39256c0.29388,0.59777 0.44081,1.2974 0.44081,2.09889c0,0.79479 -0.14694,1.48939 -0.44081,2.08384c-0.29064,0.59442 -0.69796,1.05695 -1.22223,1.38756c-0.52104,0.33061 -1.12878,0.49592 -1.8235,0.49592zM166.83673,183.02558c0.5278,0 0.96186,-0.13524 1.30246,-0.40575c0.3406,-0.27048 0.59275,-0.62613 0.75644,-1.06695c0.16369,-0.44081 0.24539,-0.91836 0.24539,-1.43264c0,-0.51428 -0.0817,-0.99351 -0.24539,-1.43767c-0.16369,-0.44416 -0.41583,-0.80313 -0.75644,-1.07699c-0.3406,-0.27383 -0.77466,-0.41075 -1.30246,-0.41075c-0.52751,0 -0.96185,0.13692 -1.30246,0.41075c-0.3406,0.27386 -0.59275,0.63283 -0.75614,1.07699c-0.16369,0.44416 -0.24568,0.92339 -0.24568,1.43767c0,0.51428 0.08199,0.99183 0.24568,1.43264c0.16339,0.44081 0.41554,0.79646 0.75614,1.06695c0.3406,0.27051 0.77495,0.40575 1.30246,0.40575zM172.12767,183.92725v-7.6942h1.1423v1.16213h0.08023c0.14018,-0.38069 0.39379,-0.68961 0.76114,-0.92671c0.36735,-0.2371 0.78171,-0.35565 1.24251,-0.35565c0.08669,0 0.19513,0.00168 0.32561,0.005c0.13019,0.00335 0.22863,0.00835 0.29534,0.01505v1.20222c-0.03997,-0.01002 -0.13195,-0.02504 -0.27536,-0.04508c-0.14018,-0.02339 -0.28888,-0.03506 -0.44581,-0.03506c-0.3741,0 -0.70795,0.07846 -1.00182,0.23542c-0.29064,0.15361 -0.52104,0.36735 -0.69149,0.64118c-0.16692,0.27051 -0.25038,0.5794 -0.25038,0.92671v4.86899zM180.26773,184.08756c-0.72117,0 -1.34242,-0.17033 -1.86347,-0.51096c-0.52075,-0.34063 -0.9216,-0.80983 -1.20225,-1.40761c-0.28036,-0.59774 -0.42053,-1.28068 -0.42053,-2.04875c0,-0.78145 0.14341,-1.47105 0.43082,-2.06883c0.29035,-0.60112 0.69443,-1.07033 1.21224,-1.40761c0.52075,-0.34063 1.12848,-0.51093 1.82321,-0.51093c0.54103,0 1.02856,0.10018 1.46262,0.30055c0.43435,0.20036 0.78994,0.4809 1.06706,0.84154c0.27712,0.36067 0.44904,0.78144 0.51604,1.26234h-1.18226c-0.09022,-0.35065 -0.29064,-0.66122 -0.60098,-0.93173c-0.30739,-0.27383 -0.72147,-0.41075 -1.24251,-0.41075c-0.4608,0 -0.86488,0.12023 -1.21224,0.36067c-0.34383,0.2371 -0.61273,0.5727 -0.80639,1.00685c-0.19043,0.43079 -0.28565,0.93673 -0.28565,1.51781c0,0.59442 0.09375,1.11205 0.28065,1.55287c0.19043,0.44081 0.45756,0.78312 0.8014,1.02689c0.34736,0.24377 0.75467,0.36567 1.22223,0.36567c0.30739,0 0.58628,-0.05343 0.83666,-0.16028c0.25038,-0.10688 0.46256,-0.26049 0.63624,-0.46086c0.17368,-0.20036 0.29711,-0.44081 0.37058,-0.72135h1.18226c-0.067,0.45418 -0.23216,0.86326 -0.49606,1.22729c-0.26037,0.36065 -0.60597,0.64785 -1.03679,0.86159c-0.42759,0.21039 -0.92512,0.31559 -1.49289,0.31559zM188.24764,184.08756c-0.74145,0 -1.38092,-0.16366 -1.91871,-0.49092c-0.53427,-0.33061 -0.94657,-0.79147 -1.23722,-1.38254c-0.28712,-0.59445 -0.43082,-1.28571 -0.43082,-2.07385c0,-0.78812 0.14371,-1.48272 0.43082,-2.08384c0.29064,-0.60444 0.69472,-1.07532 1.21224,-1.4126c0.52104,-0.34063 1.12878,-0.51093 1.8235,-0.51093c0.40055,0 0.7964,0.06677 1.18696,0.20036c0.39085,0.13357 0.74645,0.35065 1.06706,0.6512c0.32062,0.29723 0.576,0.69128 0.76643,1.18217c0.19043,0.49092 0.28565,1.09536 0.28565,1.81336v0.50091h-5.931v-1.02186h4.72875c0,-0.43414 -0.08698,-0.82153 -0.26067,-1.16216c-0.17015,-0.34063 -0.41407,-0.60947 -0.73116,-0.80648c-0.31386,-0.19704 -0.68473,-0.29555 -1.11203,-0.29555c-0.47108,0 -0.8784,0.11687 -1.22223,0.35065c-0.34089,0.23043 -0.60303,0.53097 -0.78671,0.90167c-0.18367,0.37067 -0.27536,0.76807 -0.27536,1.1922v0.68126c0,0.58105 0.10021,1.07364 0.30063,1.47772c0.20366,0.40073 0.48578,0.7063 0.84636,0.91669c0.36088,0.20704 0.77995,0.31057 1.25749,0.31057c0.31063,0 0.59099,-0.04341 0.84137,-0.13025c0.25391,-0.09016 0.47255,-0.22373 0.65622,-0.40073c0.18367,-0.18032 0.32561,-0.40408 0.42583,-0.67124l1.1423,0.32059c-0.12049,0.38739 -0.32238,0.72802 -0.60627,1.02189c-0.28388,0.29053 -0.63448,0.51763 -1.05208,0.68126c-0.4173,0.16028 -0.88662,0.24045 -1.40737,0.24045zM198.30113,181.12206l-0.01998,-1.46268h0.24039l3.36605,-3.42633h1.46291l-3.58675,3.62669h-0.10021zM197.19909,183.92725v-10.25894h1.18226v10.25894zM202.08801,183.92725l-3.00547,-3.80701l0.84166,-0.82153l3.66669,4.62854zM207.78097,184.08756c-0.74116,0 -1.38063,-0.16366 -1.91842,-0.49092c-0.53427,-0.33061 -0.94687,-0.79147 -1.23722,-1.38254c-0.28712,-0.59445 -0.43082,-1.28571 -0.43082,-2.07385c0,-0.78812 0.14371,-1.48272 0.43082,-2.08384c0.29035,-0.60444 0.69443,-1.07532 1.21224,-1.4126c0.52104,-0.34063 1.12878,-0.51093 1.82321,-0.51093c0.40085,0 0.79669,0.06677 1.18726,0.20036c0.39085,0.13357 0.74645,0.35065 1.06706,0.6512c0.32062,0.29723 0.576,0.69128 0.76643,1.18217c0.19043,0.49092 0.28535,1.09536 0.28535,1.81336v0.50091h-5.93071v-1.02186h4.72846c0,-0.43414 -0.08669,-0.82153 -0.26037,-1.16216c-0.17015,-0.34063 -0.41407,-0.60947 -0.73146,-0.80648c-0.31386,-0.19704 -0.68443,-0.29555 -1.11202,-0.29555c-0.47079,0 -0.8781,0.11687 -1.22223,0.35065c-0.3406,0.23043 -0.60274,0.53097 -0.78641,0.90167c-0.18367,0.37067 -0.27536,0.76807 -0.27536,1.1922v0.68126c0,0.58105 0.10021,1.07364 0.30034,1.47772c0.20395,0.40073 0.48607,0.7063 0.84665,0.91669c0.36059,0.20704 0.77966,0.31057 1.2572,0.31057c0.31063,0 0.59128,-0.04341 0.84166,-0.13025c0.25391,-0.09016 0.47255,-0.22373 0.65622,-0.40073c0.18367,-0.18032 0.32562,-0.40408 0.42583,-0.67124l1.142,0.32059c-0.12019,0.38739 -0.32209,0.72802 -0.60597,1.02189c-0.28388,0.29053 -0.63448,0.51763 -1.05207,0.68126c-0.4173,0.16028 -0.88662,0.24045 -1.40766,0.24045zM215.99127,184.08756c-0.74145,0 -1.38092,-0.16366 -1.91842,-0.49092c-0.53456,-0.33061 -0.94687,-0.79147 -1.23751,-1.38254c-0.28712,-0.59445 -0.43082,-1.28571 -0.43082,-2.07385c0,-0.78812 0.14371,-1.48272 0.43082,-2.08384c0.29064,-0.60444 0.69472,-1.07532 1.21224,-1.4126c0.52104,-0.34063 1.12878,-0.51093 1.8235,-0.51093c0.40085,0 0.7964,0.06677 1.18726,0.20036c0.39056,0.13357 0.74615,0.35065 1.06677,0.6512c0.32062,0.29723 0.57629,0.69128 0.76643,1.18217c0.19043,0.49092 0.28565,1.09536 0.28565,1.81336v0.50091h-5.931v-1.02186h4.72876c0,-0.43414 -0.08669,-0.82153 -0.26037,-1.16216c-0.17045,-0.34063 -0.41407,-0.60947 -0.73146,-0.80648c-0.31386,-0.19704 -0.68473,-0.29555 -1.11203,-0.29555c-0.47079,0 -0.87839,0.11687 -1.22223,0.35065c-0.3406,0.23043 -0.60274,0.53097 -0.78641,0.90167c-0.18367,0.37067 -0.27566,0.76807 -0.27566,1.1922v0.68126c0,0.58105 0.10021,1.07364 0.30063,1.47772c0.20366,0.40073 0.48577,0.7063 0.84665,0.91669c0.36059,0.20704 0.77966,0.31057 1.2572,0.31057c0.31063,0 0.59098,-0.04341 0.84166,-0.13025c0.25362,-0.09016 0.47255,-0.22373 0.65622,-0.40073c0.18367,-0.18032 0.32562,-0.40408 0.42553,-0.67124l1.14229,0.32059c-0.12019,0.38739 -0.32238,0.72802 -0.60627,1.02189c-0.28388,0.29053 -0.63448,0.51763 -1.05178,0.68126c-0.4176,0.16028 -0.88662,0.24045 -1.40766,0.24045zM220.9754,186.81258v-10.57953h1.1423v1.22226h0.14018c0.08669,-0.13359 0.20689,-0.3039 0.36058,-0.51096c0.15693,-0.21039 0.38086,-0.39738 0.67121,-0.56104c0.29388,-0.16695 0.69119,-0.25044 1.19225,-0.25044c0.648,0 1.219,0.16195 1.7133,0.48589c0.494,0.32394 0.87986,0.78312 1.15699,1.37754c0.27712,0.59442 0.41583,1.29573 0.41583,2.10389c0,0.81483 -0.13871,1.52113 -0.41583,2.1189c-0.27712,0.59442 -0.66122,1.05528 -1.15199,1.38254c-0.49107,0.32394 -1.05707,0.48593 -1.69831,0.48593c-0.4943,0 -0.88986,-0.08185 -1.18726,-0.24548c-0.29711,-0.16698 -0.52574,-0.35565 -0.6862,-0.56603c-0.16016,-0.21374 -0.28388,-0.39074 -0.37058,-0.53097h-0.10021v4.0675zM222.13768,180.08015c0,0.58108 0.08523,1.09369 0.25538,1.53782c0.17045,0.44081 0.41907,0.78647 0.74645,1.03694c0.32708,0.24712 0.72793,0.37067 1.20224,0.37067c0.4943,0 0.90661,-0.13025 1.23722,-0.39071c0.33384,-0.26384 0.58452,-0.61781 0.75144,-1.06198c0.17015,-0.44748 0.25538,-0.94508 0.25538,-1.49274c0,-0.541 -0.08346,-1.02856 -0.25038,-1.46271c-0.16369,-0.43746 -0.4126,-0.78312 -0.74644,-1.03691c-0.33061,-0.25714 -0.74645,-0.38571 -1.24721,-0.38571c-0.48107,0 -0.88516,0.1219 -1.21224,0.36567c-0.32738,0.24045 -0.57453,0.57773 -0.74145,1.01187c-0.16692,0.43079 -0.25038,0.93338 -0.25038,1.50779zM235.02149,177.95622l-1.06207,0.30055c-0.06671,-0.17697 -0.16516,-0.34898 -0.29564,-0.51593c-0.12666,-0.17033 -0.30034,-0.3106 -0.52075,-0.4208c-0.22041,-0.1102 -0.50282,-0.16531 -0.84666,-0.16531c-0.47079,0 -0.86341,0.10856 -1.17727,0.32561c-0.31063,0.21374 -0.46579,0.48589 -0.46579,0.81651c0,0.29388 0.10697,0.52598 0.32062,0.69628c0.21365,0.17033 0.54779,0.31224 1.00182,0.42579l1.142,0.28051c0.68796,0.16698 1.20078,0.42245 1.53785,0.76643c0.33737,0.34063 0.50605,0.77977 0.50605,1.31741c0,0.44081 -0.12695,0.8349 -0.38086,1.1822c-0.25038,0.3473 -0.60098,0.62114 -1.05178,0.8215c-0.4508,0.20036 -0.97508,0.30058 -1.57282,0.30058c-0.78494,0 -1.43441,-0.17033 -1.94869,-0.51096c-0.51428,-0.34063 -0.8399,-0.83822 -0.97684,-1.49274l1.12202,-0.28053c0.10697,0.4141 0.30886,0.72467 0.60627,0.93173c0.30063,0.20704 0.69296,0.31057 1.17697,0.31057c0.55102,0 0.9886,-0.11687 1.31245,-0.35065c0.32738,-0.2371 0.49107,-0.52095 0.49107,-0.85156c0,-0.26716 -0.09345,-0.49092 -0.28065,-0.67124c-0.18691,-0.18367 -0.47402,-0.32059 -0.86164,-0.41075l-1.28218,-0.30058c-0.70471,-0.16695 -1.22223,-0.42577 -1.55284,-0.77642c-0.32738,-0.35397 -0.49107,-0.79646 -0.49107,-1.32744c0,-0.43414 0.12196,-0.81818 0.36587,-1.15214c0.24715,-0.33396 0.58276,-0.5961 1.00682,-0.78644c0.42729,-0.19037 0.9116,-0.28553 1.45263,-0.28553c0.76143,0 1.35917,0.16698 1.79323,0.50091c0.43758,0.33396 0.74821,0.77477 0.93188,1.32244zM244.03437,184.08756c-0.69472,0 -1.30422,-0.16531 -1.8285,-0.49592c-0.52104,-0.33061 -0.92835,-0.79314 -1.22223,-1.38756c-0.29064,-0.59445 -0.43582,-1.28906 -0.43582,-2.08384c0,-0.80149 0.14518,-1.50112 0.43582,-2.09889c0.29388,-0.59777 0.70119,-1.06195 1.22223,-1.39256c0.52427,-0.33061 1.13377,-0.49591 1.8285,-0.49591c0.69443,0 1.30246,0.1653 1.82321,0.49591c0.52427,0.33061 0.93188,0.79479 1.22223,1.39256c0.29388,0.59777 0.44081,1.2974 0.44081,2.09889c0,0.79479 -0.14694,1.48939 -0.44081,2.08384c-0.29035,0.59442 -0.69795,1.05695 -1.22223,1.38756c-0.52075,0.33061 -1.12878,0.49592 -1.82321,0.49592zM244.03437,183.02558c0.52751,0 0.96156,-0.13524 1.30216,-0.40575c0.34089,-0.27048 0.59304,-0.62613 0.75644,-1.06695c0.16369,-0.44081 0.24568,-0.91836 0.24568,-1.43264c0,-0.51428 -0.08199,-0.99351 -0.24568,-1.43767c-0.16339,-0.44416 -0.41554,-0.80313 -0.75644,-1.07699c-0.3406,-0.27383 -0.77465,-0.41075 -1.30216,-0.41075c-0.5278,0 -0.96186,0.13692 -1.30246,0.41075c-0.3406,0.27386 -0.59275,0.63283 -0.75644,1.07699c-0.16369,0.44416 -0.24539,0.92339 -0.24539,1.43767c0,0.51428 0.0817,0.99183 0.24539,1.43264c0.16369,0.44081 0.41583,0.79646 0.75644,1.06695c0.3406,0.27051 0.77466,0.40575 1.30246,0.40575zM249.48547,183.92725v-10.25894h1.18226v3.787h0.10021c0.08669,-0.13359 0.20718,-0.3039 0.36059,-0.51096c0.15693,-0.21039 0.38086,-0.39738 0.67121,-0.56104c0.29388,-0.16695 0.69149,-0.25044 1.19225,-0.25044c0.648,0 1.219,0.16195 1.7133,0.48589c0.4943,0.32394 0.87986,0.78312 1.15699,1.37754c0.27712,0.59442 0.41584,1.29573 0.41584,2.10389c0,0.81483 -0.13871,1.52113 -0.41584,2.1189c-0.27712,0.59442 -0.66122,1.05528 -1.15199,1.38254c-0.49107,0.32394 -1.05707,0.48593 -1.69831,0.48593c-0.494,0 -0.88985,-0.08185 -1.18696,-0.24548c-0.2974,-0.16698 -0.52604,-0.35565 -0.68649,-0.56603c-0.16016,-0.21374 -0.28388,-0.39074 -0.37058,-0.53097h-0.14018v1.18217zM250.64775,180.08015c0,0.58108 0.08522,1.09369 0.25538,1.53782c0.17045,0.44081 0.41907,0.78647 0.74645,1.03694c0.32738,0.24712 0.72793,0.37067 1.20224,0.37067c0.4943,0 0.90661,-0.13025 1.23722,-0.39071c0.33414,-0.26384 0.58452,-0.61781 0.75144,-1.06198c0.17045,-0.44748 0.25538,-0.94508 0.25538,-1.49274c0,-0.541 -0.08346,-1.02856 -0.25038,-1.46271c-0.16369,-0.43746 -0.41231,-0.78312 -0.74644,-1.03691c-0.33061,-0.25714 -0.74645,-0.38571 -1.24721,-0.38571c-0.48078,0 -0.88486,0.1219 -1.21224,0.36567c-0.32738,0.24045 -0.57452,0.57773 -0.74145,1.01187c-0.16692,0.43079 -0.25038,0.93338 -0.25038,1.50779zM258.08633,176.23305h1.18226v8.25524c0,0.4742 -0.0817,0.88498 -0.24539,1.23228c-0.16046,0.3473 -0.40408,0.61614 -0.73146,0.80648c-0.32385,0.19034 -0.73293,0.28553 -1.22723,0.28553c-0.03997,0 -0.08023,0 -0.12019,0c-0.03997,0 -0.08023,0 -0.12019,0v-1.10203c0.03997,0 0.0767,0 0.1102,0c0.0335,0 0.07024,0 0.1102,0c0.36059,0 0.62449,-0.10688 0.79141,-0.32059c0.16692,-0.21039 0.25038,-0.51096 0.25038,-0.90167zM258.66762,174.95068c-0.2304,0 -0.42935,-0.07848 -0.59627,-0.23544c-0.16369,-0.15696 -0.24539,-0.34564 -0.24539,-0.56605c0,-0.22041 0.0817,-0.40908 0.24539,-0.56604c0.16692,-0.15696 0.36587,-0.23544 0.59627,-0.23544c0.2304,0 0.4273,0.07848 0.59099,0.23544c0.16692,0.15696 0.25038,0.34564 0.25038,0.56604c0,0.22041 -0.08346,0.40909 -0.25038,0.56605c-0.16369,0.15696 -0.36059,0.23544 -0.59099,0.23544zM264.65974,184.08756c-0.74116,0 -1.38092,-0.16366 -1.91842,-0.49092c-0.53427,-0.33061 -0.94687,-0.79147 -1.23722,-1.38254c-0.28741,-0.59445 -0.43082,-1.28571 -0.43082,-2.07385c0,-0.78812 0.14341,-1.48272 0.43082,-2.08384c0.29035,-0.60444 0.69443,-1.07532 1.21224,-1.4126c0.52075,-0.34063 1.12878,-0.51093 1.82321,-0.51093c0.40085,0 0.7964,0.06677 1.18726,0.20036c0.39085,0.13357 0.74645,0.35065 1.06706,0.6512c0.32062,0.29723 0.576,0.69128 0.76643,1.18217c0.19014,0.49092 0.28535,1.09536 0.28535,1.81336v0.50091h-5.931v-1.02186h4.72876c0,-0.43414 -0.08669,-0.82153 -0.26037,-1.16216c-0.17045,-0.34063 -0.41407,-0.60947 -0.73146,-0.80648c-0.31386,-0.19704 -0.68444,-0.29555 -1.11203,-0.29555c-0.47079,0 -0.8781,0.11687 -1.22223,0.35065c-0.3406,0.23043 -0.60274,0.53097 -0.78641,0.90167c-0.18367,0.37067 -0.27536,0.76807 -0.27536,1.1922v0.68126c0,0.58105 0.09992,1.07364 0.30034,1.47772c0.20366,0.40073 0.48607,0.7063 0.84665,0.91669c0.36059,0.20704 0.77965,0.31057 1.2572,0.31057c0.31063,0 0.59128,-0.04341 0.84166,-0.13025c0.25391,-0.09016 0.47255,-0.22373 0.65622,-0.40073c0.18367,-0.18032 0.32561,-0.40408 0.42583,-0.67124l1.142,0.32059c-0.12019,0.38739 -0.32209,0.72802 -0.60597,1.02189c-0.28388,0.29053 -0.63448,0.51763 -1.05207,0.68126c-0.4173,0.16028 -0.88663,0.24045 -1.40767,0.24045zM272.76983,184.08756c-0.72146,0 -1.34242,-0.17033 -1.86347,-0.51096c-0.52104,-0.34063 -0.92159,-0.80983 -1.20224,-1.40761c-0.28036,-0.59774 -0.42083,-1.28068 -0.42083,-2.04875c0,-0.78145 0.14371,-1.47105 0.43082,-2.06883c0.29064,-0.60112 0.69472,-1.07033 1.21224,-1.40761c0.52104,-0.34063 1.12878,-0.51093 1.8235,-0.51093c0.54103,0 1.02856,0.10018 1.46262,0.30055c0.43406,0.20036 0.78994,0.4809 1.06706,0.84154c0.27712,0.36067 0.44904,0.78144 0.51575,1.26234h-1.18197c-0.09022,-0.35065 -0.29064,-0.66122 -0.60127,-0.93173c-0.3071,-0.27383 -0.72117,-0.41075 -1.24221,-0.41075c-0.4608,0 -0.86488,0.12023 -1.21224,0.36067c-0.34413,0.2371 -0.61273,0.5727 -0.80639,1.00685c-0.19043,0.43079 -0.28565,0.93673 -0.28565,1.51781c0,0.59442 0.09345,1.11205 0.28065,1.55287c0.19014,0.44081 0.45727,0.78312 0.8014,1.02689c0.34736,0.24377 0.75467,0.36567 1.22223,0.36567c0.3071,0 0.58599,-0.05343 0.83666,-0.16028c0.25038,-0.10688 0.46227,-0.26049 0.63595,-0.46086c0.17368,-0.20036 0.2974,-0.44081 0.37087,-0.72135h1.18197c-0.06671,0.45418 -0.23187,0.86326 -0.49577,1.22729c-0.26037,0.36065 -0.60627,0.64785 -1.03709,0.86159c-0.42729,0.21039 -0.92483,0.31559 -1.4926,0.31559zM280.86964,176.23305v1.00185h-3.98731v-1.00185zM278.04461,174.38964h1.18226v7.33354c0,0.33396 0.0482,0.5844 0.14518,0.75138c0.10021,0.16363 0.22717,0.27383 0.38057,0.33061c0.15693,0.05343 0.32238,0.08014 0.49606,0.08014c0.13019,0 0.23716,-0.00667 0.32062,-0.02001c0.08346,-0.01672 0.15017,-0.03007 0.20042,-0.04009l0.24039,1.06195c-0.08023,0.03006 -0.1922,0.06013 -0.33561,0.09019c-0.14371,0.03338 -0.32561,0.05008 -0.54602,0.05008c-0.33414,0 -0.66122,-0.07179 -0.98184,-0.21538c-0.31739,-0.14362 -0.58099,-0.36235 -0.79141,-0.65622c-0.20718,-0.29388 -0.31063,-0.66457 -0.31063,-1.11205zM287.96027,177.95622l-1.06177,0.30055c-0.067,-0.17697 -0.16545,-0.34898 -0.29564,-0.51593c-0.12695,-0.17033 -0.30063,-0.3106 -0.52104,-0.4208c-0.22041,-0.1102 -0.50253,-0.16531 -0.84636,-0.16531c-0.47108,0 -0.86341,0.10856 -1.17727,0.32561c-0.31063,0.21374 -0.46579,0.48589 -0.46579,0.81651c0,0.29388 0.10668,0.52598 0.32062,0.69628c0.21365,0.17033 0.54749,0.31224 1.00182,0.42579l1.142,0.28051c0.68796,0.16698 1.20048,0.42245 1.53785,0.76643c0.33737,0.34063 0.50605,0.77977 0.50605,1.31741c0,0.44081 -0.12695,0.8349 -0.38086,1.1822c-0.25038,0.3473 -0.60098,0.62114 -1.05178,0.8215c-0.4511,0.20036 -0.97537,0.30058 -1.57312,0.30058c-0.78465,0 -1.43411,-0.17033 -1.9484,-0.51096c-0.51428,-0.34063 -0.8399,-0.83822 -0.97684,-1.49274l1.12202,-0.28053c0.10697,0.4141 0.30886,0.72467 0.60597,0.93173c0.30063,0.20704 0.69296,0.31057 1.17727,0.31057c0.55102,0 0.9886,-0.11687 1.31245,-0.35065c0.32738,-0.2371 0.49077,-0.52095 0.49077,-0.85156c0,-0.26716 -0.09345,-0.49092 -0.28036,-0.67124c-0.18691,-0.18367 -0.47432,-0.32059 -0.86164,-0.41075l-1.28247,-0.30058c-0.70442,-0.16695 -1.22223,-0.42577 -1.55284,-0.77642c-0.32708,-0.35397 -0.49077,-0.79646 -0.49077,-1.32744c0,-0.43414 0.12196,-0.81818 0.36558,-1.15214c0.24715,-0.33396 0.58275,-0.5961 1.00682,-0.78644c0.42759,-0.19037 0.9119,-0.28553 1.45292,-0.28553c0.76114,0 1.35917,0.16698 1.79323,0.50091c0.43729,0.33396 0.74791,0.77477 0.93159,1.32244zM293.84748,183.92725v-7.6942h1.18226v7.6942zM294.44846,174.95068c-0.2304,0 -0.42906,-0.07848 -0.59598,-0.23544c-0.16369,-0.15696 -0.24539,-0.34564 -0.24539,-0.56605c0,-0.22041 0.0817,-0.40908 0.24539,-0.56604c0.16692,-0.15696 0.36558,-0.23544 0.59598,-0.23544c0.2304,0 0.42759,0.07848 0.59128,0.23544c0.16692,0.15696 0.25038,0.34564 0.25038,0.56604c0,0.22041 -0.08346,0.40909 -0.25038,0.56605c-0.16369,0.15696 -0.36088,0.23544 -0.59128,0.23544zM298.37699,179.2987v4.62854h-1.18197v-7.6942h1.142v1.20222h0.10021c0.18015,-0.39074 0.45404,-0.70463 0.82138,-0.94176c0.36735,-0.24042 0.84166,-0.36064 1.42265,-0.36064c0.52104,0 0.97684,0.10685 1.3677,0.32059c0.39056,0.21039 0.69443,0.53098 0.9116,0.96177c0.21718,0.42747 0.32561,0.96847 0.32561,1.62299v4.88904h-1.18226v-4.80887c0,-0.60447 -0.15693,-1.07532 -0.47079,-1.41263c-0.31386,-0.3406 -0.74468,-0.51093 -1.29246,-0.51093c-0.37734,0 -0.7147,0.08181 -1.01181,0.24544c-0.29388,0.16366 -0.52604,0.40243 -0.69619,0.71632c-0.17045,0.31392 -0.25567,0.69464 -0.25567,1.14212zM309.41379,183.92725v-7.6942h1.142v1.20222h0.10021c0.16016,-0.41075 0.41907,-0.72969 0.77642,-0.95677c0.35735,-0.23043 0.78641,-0.34562 1.28747,-0.34562c0.50752,0 0.92982,0.1152 1.26719,0.34562c0.3406,0.22708 0.60626,0.54602 0.7964,0.95677h0.08023c0.19719,-0.39741 0.49254,-0.71297 0.88662,-0.94675c0.39409,-0.2371 0.86664,-0.35565 1.41766,-0.35565c0.68796,0 1.25073,0.21538 1.68802,0.64617c0.43758,0.42747 0.65622,1.09369 0.65622,1.99871v5.1495h-1.18197v-5.1495c0,-0.56771 -0.15546,-0.97346 -0.46609,-1.21726c-0.31033,-0.24377 -0.67621,-0.36567 -1.09704,-0.36567c-0.54073,0 -0.96009,0.16363 -1.2572,0.49092c-0.29711,0.32391 -0.44581,0.73469 -0.44581,1.23225v5.00926h-1.20224v-5.26972c0,-0.43749 -0.14194,-0.78979 -0.42583,-1.05695c-0.28388,-0.27051 -0.64947,-0.40575 -1.09704,-0.40575c-0.3071,0 -0.59422,0.08181 -0.86164,0.24544c-0.26361,0.16366 -0.47755,0.39074 -0.64094,0.68126c-0.16046,0.2872 -0.24068,0.61949 -0.24068,0.99686v4.80887zM324.79966,184.08756c-0.69472,0 -1.30422,-0.16531 -1.8285,-0.49592c-0.52104,-0.33061 -0.92835,-0.79314 -1.22223,-1.38756c-0.29064,-0.59445 -0.43582,-1.28906 -0.43582,-2.08384c0,-0.80149 0.14518,-1.50112 0.43582,-2.09889c0.29388,-0.59777 0.70119,-1.06195 1.22223,-1.39256c0.52427,-0.33061 1.13377,-0.49591 1.8285,-0.49591c0.69443,0 1.30246,0.1653 1.82321,0.49591c0.52427,0.33061 0.93188,0.79479 1.22223,1.39256c0.29388,0.59777 0.44081,1.2974 0.44081,2.09889c0,0.79479 -0.14694,1.48939 -0.44081,2.08384c-0.29035,0.59442 -0.69795,1.05695 -1.22223,1.38756c-0.52075,0.33061 -1.12878,0.49592 -1.82321,0.49592zM324.79966,183.02558c0.52751,0 0.96185,-0.13524 1.30246,-0.40575c0.3406,-0.27048 0.59275,-0.62613 0.75614,-1.06695c0.16369,-0.44081 0.24568,-0.91836 0.24568,-1.43264c0,-0.51428 -0.08199,-0.99351 -0.24568,-1.43767c-0.16339,-0.44416 -0.41554,-0.80313 -0.75614,-1.07699c-0.3406,-0.27383 -0.77495,-0.41075 -1.30246,-0.41075c-0.5278,0 -0.96186,0.13692 -1.30246,0.41075c-0.3406,0.27386 -0.59275,0.63283 -0.75644,1.07699c-0.16369,0.44416 -0.24539,0.92339 -0.24539,1.43767c0,0.51428 0.0817,0.99183 0.24539,1.43264c0.16369,0.44081 0.41583,0.79646 0.75644,1.06695c0.3406,0.27051 0.77466,0.40575 1.30246,0.40575zM333.43666,176.23305v1.00185h-3.98731v-1.00185zM330.61164,174.38964h1.18226v7.33354c0,0.33396 0.0482,0.5844 0.14518,0.75138c0.10021,0.16363 0.22717,0.27383 0.38057,0.33061c0.15693,0.05343 0.32238,0.08014 0.49606,0.08014c0.13019,0 0.23716,-0.00667 0.32062,-0.02001c0.08346,-0.01672 0.15017,-0.03007 0.20042,-0.04009l0.24039,1.06195c-0.08023,0.03006 -0.1922,0.06013 -0.33561,0.09019c-0.14371,0.03338 -0.32561,0.05008 -0.54602,0.05008c-0.33414,0 -0.66122,-0.07179 -0.98184,-0.21538c-0.31739,-0.14362 -0.58099,-0.36235 -0.79141,-0.65622c-0.20718,-0.29388 -0.31063,-0.66457 -0.31063,-1.11205zM335.2152,183.92725v-7.6942h1.18197v7.6942zM335.81618,174.95068c-0.2304,0 -0.42906,-0.07848 -0.59598,-0.23544c-0.16369,-0.15696 -0.24568,-0.34564 -0.24568,-0.56605c0,-0.22041 0.08199,-0.40908 0.24568,-0.56604c0.16692,-0.15696 0.36558,-0.23544 0.59598,-0.23544c0.2304,0 0.42759,0.07848 0.59099,0.23544c0.16722,0.15696 0.25068,0.34564 0.25068,0.56604c0,0.22041 -0.08346,0.40909 -0.25068,0.56605c-0.16339,0.15696 -0.36059,0.23544 -0.59099,0.23544zM341.6884,184.08756c-0.69472,0 -1.30422,-0.16531 -1.8285,-0.49592c-0.52104,-0.33061 -0.92835,-0.79314 -1.22223,-1.38756c-0.29064,-0.59445 -0.43582,-1.28906 -0.43582,-2.08384c0,-0.80149 0.14518,-1.50112 0.43582,-2.09889c0.29388,-0.59777 0.70119,-1.06195 1.22223,-1.39256c0.52427,-0.33061 1.13377,-0.49591 1.8285,-0.49591c0.69443,0 1.30216,0.1653 1.82321,0.49591c0.52427,0.33061 0.93188,0.79479 1.22223,1.39256c0.29388,0.59777 0.44081,1.2974 0.44081,2.09889c0,0.79479 -0.14694,1.48939 -0.44081,2.08384c-0.29035,0.59442 -0.69795,1.05695 -1.22223,1.38756c-0.52104,0.33061 -1.12878,0.49592 -1.82321,0.49592zM341.6884,183.02558c0.52751,0 0.96156,-0.13524 1.30216,-0.40575c0.3406,-0.27048 0.59275,-0.62613 0.75644,-1.06695c0.16369,-0.44081 0.24539,-0.91836 0.24539,-1.43264c0,-0.51428 -0.0817,-0.99351 -0.24539,-1.43767c-0.16369,-0.44416 -0.41583,-0.80313 -0.75644,-1.07699c-0.3406,-0.27383 -0.77466,-0.41075 -1.30216,-0.41075c-0.5278,0 -0.96185,0.13692 -1.30246,0.41075c-0.3406,0.27386 -0.59275,0.63283 -0.75644,1.07699c-0.16369,0.44416 -0.24539,0.92339 -0.24539,1.43767c0,0.51428 0.0817,0.99183 0.24539,1.43264c0.16369,0.44081 0.41583,0.79646 0.75644,1.06695c0.3406,0.27051 0.77466,0.40575 1.30246,0.40575zM348.1616,179.2987v4.62854h-1.18226v-7.6942h1.142v1.20222h0.10021c0.18044,-0.39074 0.45433,-0.70463 0.82168,-0.94176c0.36735,-0.24042 0.84137,-0.36064 1.42236,-0.36064c0.52104,0 0.97684,0.10685 1.3677,0.32059c0.39056,0.21039 0.69472,0.53098 0.9116,0.96177c0.21718,0.42747 0.32561,0.96847 0.32561,1.62299v4.88904h-1.18226v-4.80887c0,-0.60447 -0.15693,-1.07532 -0.47079,-1.41263c-0.31386,-0.3406 -0.74468,-0.51093 -1.29246,-0.51093c-0.37734,0 -0.71441,0.08181 -1.01181,0.24544c-0.29388,0.16366 -0.52604,0.40243 -0.69619,0.71632c-0.17045,0.31392 -0.25538,0.69464 -0.25538,1.14212zM356.77363,181.04192v-0.0601c0.00676,-0.63786 0.07347,-1.14547 0.20042,-1.52281c0.12695,-0.37737 0.3071,-0.68294 0.54102,-0.91672c0.23363,-0.23375 0.51428,-0.44916 0.84137,-0.64617c0.19719,-0.12023 0.3741,-0.26217 0.53103,-0.4258c0.15693,-0.16698 0.28065,-0.359 0.37058,-0.57605c0.09375,-0.21709 0.14047,-0.45751 0.14047,-0.72135c0,-0.32726 -0.07699,-0.61112 -0.2304,-0.85156c-0.1537,-0.24044 -0.35912,-0.42579 -0.61626,-0.55603c-0.25714,-0.13024 -0.54279,-0.19536 -0.85665,-0.19536c-0.27389,0 -0.5375,0.05677 -0.79141,0.17032c-0.25391,0.11354 -0.46579,0.29221 -0.63624,0.53599c-0.17015,0.24378 -0.2686,0.5627 -0.29535,0.95677h-1.26249c0.02674,-0.56772 0.17368,-1.05362 0.44081,-1.4577c0.27066,-0.40408 0.62625,-0.71298 1.06706,-0.92671c0.44405,-0.21373 0.93658,-0.32059 1.47761,-0.32059c0.58775,0 1.0988,0.11688 1.53286,0.35065c0.43758,0.23376 0.77495,0.55436 1.01181,0.96177c0.24068,0.40742 0.36088,0.87161 0.36088,1.39258c0,0.36735 -0.05701,0.69963 -0.17045,0.99683c-0.1102,0.29723 -0.27036,0.56271 -0.48078,0.79649c-0.20718,0.23375 -0.45756,0.44081 -0.75144,0.62113c-0.29388,0.18367 -0.52927,0.37737 -0.70618,0.58108c-0.17721,0.20036 -0.30563,0.43914 -0.38586,0.71632c-0.08023,0.27715 -0.12343,0.62281 -0.13019,1.03691v0.0601zM357.41487,184.00739c-0.24715,0 -0.45933,-0.08849 -0.63624,-0.26549c-0.17691,-0.177 -0.26537,-0.38903 -0.26537,-0.63618c0,-0.24712 0.08846,-0.45918 0.26537,-0.63615c0.17691,-0.177 0.38909,-0.26549 0.63624,-0.26549c0.24715,0 0.45904,0.08848 0.63624,0.26549c0.17691,0.17697 0.26537,0.38903 0.26537,0.63615c0,0.16366 -0.04173,0.31392 -0.12519,0.45083c-0.08023,0.13692 -0.18867,0.24712 -0.32561,0.33061c-0.13371,0.08017 -0.28389,0.12023 -0.45081,0.12023z"/></g></g></svg>