<svg version="1.1" xmlns="http://www.w3.org/2000/svg" xmlns:xlink="http://www.w3.org/1999/xlink" width="240.98111" height="32.91658" viewBox="0,0,240.98111,32.91658"><g transform="translate(-119.50945,-163.54171)"><g data-paper-data="{&quot;isPaintingLayer&quot;:true}" fill="#ffffff" fill-rule="nonzero" stroke="none" stroke-width="1" stroke-linecap="butt" stroke-linejoin="miter" stroke-miterlimit="10" stroke-dasharray="" stroke-dashoffset="0" style="mix-blend-mode: normal"><path d="M122.52012,175.06827l-3.01067,-11.01044h1.3548l2.301,8.96748h0.10752l2.34405,-8.96748h1.50533l2.34401,8.96748h0.10752l2.30102,-8.96748h1.35478l-3.01065,11.01044h-1.37633l-2.43002,-8.77395h-0.08601l-2.43006,8.77395zM135.98746,170.10067v4.9676h-1.26877v-11.01044h1.26877v4.0429h0.10755c0.19353,-0.42652 0.48383,-0.7652 0.87092,-1.0161c0.39069,-0.25447 0.91038,-0.3817 1.5591,-0.3817c0.56271,0 1.05553,0.11288 1.47845,0.33868c0.42292,0.22223 0.75088,0.56451 0.98384,1.02686c0.23655,0.45879 0.35483,1.04298 0.35483,1.75263v5.24717h-1.26877v-5.16113c0,-0.65591 -0.17025,-1.16305 -0.51073,-1.52147c-0.33691,-0.36199 -0.80466,-0.543 -1.4032,-0.543c-0.41576,0 -0.78851,0.08781 -1.11823,0.26342c-0.32616,0.17565 -0.58422,0.43191 -0.77419,0.7688c-0.18637,0.33691 -0.27957,0.74552 -0.27957,1.22578zM143.66333,175.06827v-8.25783h1.26877v8.25783zM144.30846,165.43412c-0.24728,0 -0.46055,-0.08421 -0.63976,-0.25267c-0.17562,-0.16846 -0.26342,-0.37095 -0.26342,-0.6075c0,-0.23655 0.08781,-0.43907 0.26342,-0.60753c0.17921,-0.16846 0.39249,-0.25267 0.63976,-0.25267c0.24731,0 0.45879,0.08421 0.6344,0.25267c0.17921,0.16846 0.26882,0.37098 0.26882,0.60753c0,0.23655 -0.08961,0.43904 -0.26882,0.6075c-0.17562,0.16846 -0.38709,0.25267 -0.6344,0.25267zM150.61072,175.24032c-0.77419,0 -1.44083,-0.18281 -1.99994,-0.54839c-0.55915,-0.36558 -0.98923,-0.86916 -1.29028,-1.51072c-0.30108,-0.64153 -0.45163,-1.3745 -0.45163,-2.19883c0,-0.83869 0.15414,-1.57881 0.46238,-2.22038c0.31181,-0.64516 0.74549,-1.14873 1.30104,-1.51072c0.55912,-0.36558 1.21143,-0.54836 1.95692,-0.54836c0.5805,0 1.10375,0.10752 1.56992,0.32256c0.46585,0.21504 0.84749,0.51613 1.14491,0.90319c0.29774,0.38709 0.48225,0.83869 0.55385,1.35481h-1.26887c-0.09651,-0.37634 -0.31162,-0.70966 -0.645,-0.99999c-0.3296,-0.29389 -0.77431,-0.44084 -1.3333,-0.44084c-0.49462,0 -0.92829,0.12903 -1.30104,0.38709c-0.36918,0.25447 -0.65768,0.61466 -0.86556,1.0806c-0.20432,0.46235 -0.30645,1.00535 -0.30645,1.62899c0,0.63797 0.10036,1.19352 0.30105,1.66662c0.20429,0.4731 0.49102,0.84049 0.8602,1.10211c0.37274,0.26163 0.81002,0.39246 1.31179,0.39246c0.32969,0 0.62901,-0.05734 0.89773,-0.17202c0.26904,-0.11471 0.49644,-0.27957 0.68285,-0.49462c0.1864,-0.21504 0.31887,-0.4731 0.39772,-0.77419h1.26887c-0.0716,0.48746 -0.24917,0.9265 -0.53209,1.31719c-0.27976,0.38706 -0.65068,0.69531 -1.11306,0.9247c-0.4586,0.2258 -0.99257,0.33871 -1.60203,0.33871zM156.98165,170.10067v4.9676h-1.26887v-11.01044h1.26887v4.0429h0.10724c0.19366,-0.42652 0.48414,-0.7652 0.87114,-1.0161c0.39047,-0.25447 0.91025,-0.3817 1.55904,-0.3817c0.56268,0 1.05565,0.11288 1.4783,0.33868c0.42296,0.22223 0.75098,0.56451 0.98406,1.02686c0.23655,0.45879 0.35483,1.04298 0.35483,1.75263v5.24717h-1.26887v-5.16113c0,-0.65591 -0.17032,-1.16305 -0.51064,-1.52147c-0.33685,-0.36199 -0.80459,-0.543 -1.40323,-0.543c-0.4157,0 -0.78851,0.08781 -1.11842,0.26342c-0.32613,0.17565 -0.58413,0.43191 -0.774,0.7688c-0.1864,0.33691 -0.27945,0.74552 -0.27945,1.22578zM172.27019,175.24032c-0.74561,0 -1.39976,-0.17741 -1.96244,-0.53224c-0.55921,-0.35483 -0.99636,-0.85124 -1.31176,-1.48921c-0.31193,-0.638 -0.46774,-1.38348 -0.46774,-2.23649c0,-0.8602 0.15581,-1.61108 0.46774,-2.25264c0.3154,-0.64156 0.75255,-1.13974 1.31176,-1.49457c0.56268,-0.35483 1.21683,-0.53224 1.96244,-0.53224c0.7453,0 1.39755,0.17741 1.95676,0.53224c0.56268,0.35483 1.00014,0.85301 1.31176,1.49457c0.3154,0.64156 0.4731,1.39244 0.4731,2.25264c0,0.85301 -0.1577,1.5985 -0.4731,2.23649c-0.31162,0.63797 -0.74908,1.13438 -1.31176,1.48921c-0.55921,0.35483 -1.21146,0.53224 -1.95676,0.53224zM172.27019,174.10055c0.56615,0 1.032,-0.14515 1.39755,-0.43548c0.36555,-0.2903 0.63617,-0.672 0.81185,-1.1451c0.17568,-0.4731 0.26336,-0.98564 0.26336,-1.53759c0,-0.55196 -0.08768,-1.06628 -0.26336,-1.54298c-0.17568,-0.4767 -0.4463,-0.86197 -0.81185,-1.15589c-0.36555,-0.29389 -0.8314,-0.44084 -1.39755,-0.44084c-0.56646,0 -1.03231,0.14695 -1.39787,0.44084c-0.36555,0.29392 -0.63617,0.67919 -0.81185,1.15589c-0.17568,0.4767 -0.26336,0.99103 -0.26336,1.54298c0,0.55196 0.08768,1.06449 0.26336,1.53759c0.17568,0.4731 0.4463,0.85481 0.81185,1.1451c0.36555,0.29033 0.8314,0.43548 1.39787,0.43548zM181.626,166.81044v1.07524h-4.4516v-1.07524zM178.50792,175.06827v-9.3976c0,-0.4731 0.11102,-0.86736 0.33307,-1.18276c0.22236,-0.3154 0.51095,-0.55196 0.86578,-0.70966c0.35483,-0.15769 0.72921,-0.23654 1.12347,-0.23654c0.31193,0 0.56646,0.02509 0.76359,0.07527c0.19713,0.05018 0.3441,0.09677 0.44062,0.13979l-0.36555,1.09672c-0.06434,-0.02148 -0.15392,-0.04838 -0.26872,-0.08062c-0.11102,-0.03227 -0.258,-0.04841 -0.44093,-0.04841c-0.41917,0 -0.72196,0.10575 -0.90836,0.3172c-0.18293,0.21148 -0.2744,0.52149 -0.2744,0.93009v9.09651zM191.25337,166.81044v1.07524h-4.27939v-1.07524zM188.22108,164.83201h1.26887v7.87073c0,0.35842 0.05204,0.62721 0.15581,0.80642c0.10755,0.17562 0.24381,0.29389 0.40876,0.35483c0.16843,0.05734 0.346,0.08601 0.53209,0.08601c0.14004,0 0.25453,-0.00716 0.3441,-0.02148c0.08957,-0.01795 0.16149,-0.03227 0.21511,-0.04302l0.258,1.13974c-0.08579,0.03227 -0.20596,0.06453 -0.36019,0.0968c-0.15392,0.03583 -0.34947,0.05374 -0.58602,0.05374c-0.3583,0 -0.70966,-0.07705 -1.05376,-0.23116c-0.34032,-0.15414 -0.62355,-0.38889 -0.84938,-0.7043c-0.22204,-0.3154 -0.33338,-0.71325 -0.33338,-1.19352zM194.60799,170.10067v4.9676h-1.26855v-11.01044h1.26855v4.0429h0.10755c0.19366,-0.42652 0.48383,-0.7652 0.87114,-1.0161c0.39047,-0.25447 0.91025,-0.3817 1.55904,-0.3817c0.56268,0 1.05534,0.11288 1.4783,0.33868c0.42296,0.22223 0.75098,0.56451 0.98406,1.02686c0.23655,0.45879 0.35483,1.04298 0.35483,1.75263v5.24717h-1.26887v-5.16113c0,-0.65591 -0.17032,-1.16305 -0.51064,-1.52147c-0.33717,-0.36199 -0.80459,-0.543 -1.40323,-0.543c-0.4157,0 -0.78851,0.08781 -1.11842,0.26342c-0.32613,0.17565 -0.58413,0.43191 -0.774,0.7688c-0.1864,0.33691 -0.27976,0.74552 -0.27976,1.22578zM205.74614,175.24032c-0.79545,0 -1.48208,-0.17565 -2.05895,-0.52688c-0.5734,-0.35483 -1.01623,-0.84944 -1.32785,-1.48381c-0.30846,-0.638 -0.46238,-1.37989 -0.46238,-2.22577c0,-0.84585 0.15392,-1.59134 0.46238,-2.23649c0.31162,-0.64872 0.7453,-1.15409 1.30104,-1.51608c0.55889,-0.36558 1.21146,-0.54836 1.95676,-0.54836c0.43021,0 0.85474,0.07166 1.27423,0.21504c0.41949,0.14335 0.80112,0.37634 1.14523,0.6989c0.3441,0.319 0.61819,0.74192 0.82257,1.26877c0.20407,0.52688 0.30626,1.1756 0.30626,1.9462v0.5376h-6.36547v-1.09672h5.07515c0,-0.46595 -0.09304,-0.88171 -0.27945,-1.24729c-0.18293,-0.36558 -0.4444,-0.65411 -0.78504,-0.86556c-0.33685,-0.21148 -0.73457,-0.3172 -1.19349,-0.3172c-0.50528,0 -0.94242,0.12544 -1.31176,0.37634c-0.36555,0.24731 -0.64689,0.56987 -0.84402,0.96772c-0.19713,0.39782 -0.29553,0.82434 -0.29553,1.27953v0.73117c0,0.62362 0.10724,1.15229 0.32234,1.58597c0.21857,0.43008 0.52168,0.75804 0.90868,0.98384c0.387,0.2222 0.83676,0.33332 1.3493,0.33332c0.33338,0 0.63459,-0.04659 0.90331,-0.13979c0.27251,-0.09677 0.50717,-0.24012 0.7043,-0.43008c0.19713,-0.19353 0.34947,-0.43368 0.45702,-0.72041l1.22566,0.34407c-0.129,0.41576 -0.34568,0.78135 -0.65036,1.09675c-0.30468,0.31181 -0.68096,0.55555 -1.12914,0.73117c-0.44787,0.17202 -0.95157,0.25806 -1.51078,0.25806zM219.03093,166.81044v1.07524h-4.4516v-1.07524zM215.91254,175.06827v-9.3976c0,-0.4731 0.11134,-0.86736 0.33338,-1.18276c0.22236,-0.3154 0.51064,-0.55196 0.86547,-0.70966c0.35483,-0.15769 0.72953,-0.23654 1.12378,-0.23654c0.31193,0 0.56615,0.02509 0.76328,0.07527c0.19713,0.05018 0.3441,0.09677 0.44093,0.13979l-0.36555,1.09672c-0.06466,-0.02148 -0.15423,-0.04838 -0.26872,-0.08062c-0.11134,-0.03227 -0.258,-0.04841 -0.44093,-0.04841c-0.41949,0 -0.72227,0.10575 -0.90868,0.3172c-0.18262,0.21148 -0.27409,0.52149 -0.27409,0.93009v9.09651zM223.8238,175.24032c-0.74561,0 -1.39976,-0.17741 -1.96244,-0.53224c-0.55921,-0.35483 -0.99636,-0.85124 -1.31176,-1.48921c-0.31193,-0.638 -0.46774,-1.38348 -0.46774,-2.23649c0,-0.8602 0.15581,-1.61108 0.46774,-2.25264c0.3154,-0.64156 0.75255,-1.13974 1.31176,-1.49457c0.56268,-0.35483 1.21683,-0.53224 1.96244,-0.53224c0.7453,0 1.39787,0.17741 1.95676,0.53224c0.56268,0.35483 1.00014,0.85301 1.31176,1.49457c0.3154,0.64156 0.4731,1.39244 0.4731,2.25264c0,0.85301 -0.1577,1.5985 -0.4731,2.23649c-0.31162,0.63797 -0.74908,1.13438 -1.31176,1.48921c-0.55889,0.35483 -1.21146,0.53224 -1.95676,0.53224zM223.8238,174.10055c0.56615,0 1.032,-0.14515 1.39787,-0.43548c0.36555,-0.2903 0.63617,-0.672 0.81153,-1.1451c0.17568,-0.4731 0.26368,-0.98564 0.26368,-1.53759c0,-0.55196 -0.088,-1.06628 -0.26368,-1.54298c-0.17536,-0.4767 -0.44598,-0.86197 -0.81153,-1.15589c-0.36587,-0.29389 -0.83172,-0.44084 -1.39787,-0.44084c-0.56646,0 -1.03231,0.14695 -1.39787,0.44084c-0.36555,0.29392 -0.63617,0.67919 -0.81185,1.15589c-0.17568,0.4767 -0.26336,0.99103 -0.26336,1.54298c0,0.55196 0.08768,1.06449 0.26336,1.53759c0.17568,0.4731 0.4463,0.85481 0.81185,1.1451c0.36555,0.29033 0.8314,0.43548 1.39787,0.43548zM230.77119,164.05783v11.01044h-1.26887v-11.01044zM234.36363,164.05783v11.01044h-1.26855v-11.01044zM240.04246,175.24032c-0.74561,0 -1.39976,-0.17741 -1.96244,-0.53224c-0.55921,-0.35483 -0.99636,-0.85124 -1.31176,-1.48921c-0.31193,-0.638 -0.46774,-1.38348 -0.46774,-2.23649c0,-0.8602 0.15581,-1.61108 0.46774,-2.25264c0.3154,-0.64156 0.75255,-1.13974 1.31176,-1.49457c0.56268,-0.35483 1.21683,-0.53224 1.96244,-0.53224c0.7453,0 1.39755,0.17741 1.95676,0.53224c0.56268,0.35483 1.00014,0.85301 1.31176,1.49457c0.3154,0.64156 0.4731,1.39244 0.4731,2.25264c0,0.85301 -0.1577,1.5985 -0.4731,2.23649c-0.31162,0.63797 -0.74908,1.13438 -1.31176,1.48921c-0.55921,0.35483 -1.21146,0.53224 -1.95676,0.53224zM240.04246,174.10055c0.56615,0 1.032,-0.14515 1.39755,-0.43548c0.36555,-0.2903 0.63617,-0.672 0.81185,-1.1451c0.17568,-0.4731 0.26336,-0.98564 0.26336,-1.53759c0,-0.55196 -0.08768,-1.06628 -0.26336,-1.54298c-0.17568,-0.4767 -0.4463,-0.86197 -0.81185,-1.15589c-0.36555,-0.29389 -0.8314,-0.44084 -1.39755,-0.44084c-0.56646,0 -1.03231,0.14695 -1.39787,0.44084c-0.36555,0.29392 -0.63617,0.67919 -0.81185,1.15589c-0.17568,0.4767 -0.26336,0.99103 -0.26336,1.54298c0,0.55196 0.08768,1.06449 0.26336,1.53759c0.17568,0.4731 0.4463,0.85481 0.81185,1.1451c0.36555,0.29033 0.8314,0.43548 1.39787,0.43548zM247.31093,175.06827l-2.51597,-8.25783h1.33321l1.78487,6.32238h0.08611l1.76342,-6.32238h1.35466l1.74197,6.30091h0.08611l1.78487,-6.30091h1.33321l-2.51597,8.25783h-1.24742l-1.80631,-6.34389h-0.129l-1.80631,6.34389zM257.74069,175.06827v-8.25783h1.26887v8.25783zM258.386,165.43412c-0.24728,0 -0.4608,-0.08421 -0.63995,-0.25267c-0.17568,-0.16846 -0.26336,-0.37095 -0.26336,-0.6075c0,-0.23655 0.08768,-0.43907 0.26336,-0.60753c0.17915,-0.16846 0.39268,-0.25267 0.63995,-0.25267c0.24728,0 0.4586,0.08421 0.63428,0.25267c0.17915,0.16846 0.26872,0.37098 0.26872,0.60753c0,0.23655 -0.08957,0.43904 -0.26872,0.6075c-0.17568,0.16846 -0.387,0.25267 -0.63428,0.25267zM262.60231,170.10067v4.9676h-1.26887v-8.25783h1.22566v1.29028h0.10755c0.19366,-0.41936 0.48761,-0.75624 0.88187,-1.01074c0.39425,-0.25803 0.903,-0.38706 1.52655,-0.38706c0.55921,0 1.0484,0.11468 1.46789,0.34407c0.41917,0.2258 0.74561,0.56987 0.97838,1.03222c0.23308,0.45879 0.34947,1.03941 0.34947,1.74188v5.24717h-1.26887v-5.16113c0,-0.64875 -0.16843,-1.15409 -0.50528,-1.51611c-0.33685,-0.36555 -0.79923,-0.54836 -1.38714,-0.54836c-0.40498,0 -0.76675,0.08781 -1.08593,0.26342c-0.3154,0.17565 -0.56457,0.43191 -0.74719,0.7688c-0.18293,0.33691 -0.27409,0.74552 -0.27409,1.22578zM273.52252,178.33698c-0.61283,0 -1.13987,-0.07885 -1.58049,-0.23655c-0.44093,-0.15411 -0.80838,-0.35839 -1.10233,-0.61286c-0.29017,-0.2509 -0.52136,-0.51972 -0.69326,-0.80645l1.01055,-0.70966c0.11481,0.15054 0.25989,0.32259 0.43557,0.51613c0.17568,0.19713 0.4157,0.36738 0.72038,0.51073c0.30815,0.14695 0.71155,0.22044 1.20957,0.22044c0.66676,0 1.21683,-0.1613 1.65051,-0.48386c0.43368,-0.32256 0.65068,-0.82793 0.65068,-1.51608v-1.67738h-0.10755c-0.09336,0.15054 -0.22583,0.33691 -0.39804,0.55912c-0.16843,0.21864 -0.41223,0.41397 -0.7311,0.58602c-0.3154,0.16846 -0.74183,0.25267 -1.27959,0.25267c-0.66645,0 -1.26508,-0.1577 -1.79559,-0.4731c-0.52672,-0.3154 -0.94432,-0.77416 -1.25247,-1.37629c-0.30468,-0.60214 -0.45702,-1.3333 -0.45702,-2.1935c0,-0.84585 0.14855,-1.58238 0.44598,-2.20962c0.29774,-0.63081 0.71155,-1.11823 1.24206,-1.4623c0.53051,-0.34767 1.14334,-0.52149 1.83849,-0.52149c0.53776,0 0.96419,0.08961 1.27959,0.26879c0.31919,0.17565 0.56268,0.37634 0.7311,0.60214c0.17221,0.22223 0.30468,0.40501 0.39804,0.54839h0.129v-1.31179h1.22566v8.49438c0,0.70966 -0.16117,1.28669 -0.48383,1.73112c-0.31887,0.44803 -0.74908,0.77599 -1.29031,0.98387c-0.53745,0.21145 -1.13608,0.31717 -1.79559,0.31717zM273.47963,173.7995c0.50875,0 0.93896,-0.11648 1.29031,-0.34947c0.35104,-0.23296 0.61819,-0.56807 0.80081,-1.00535c0.18293,-0.43724 0.2744,-0.96053 0.2744,-1.56986c0,-0.59495 -0.08957,-1.12003 -0.26904,-1.57522c-0.17915,-0.45519 -0.4444,-0.81178 -0.79545,-1.06985c-0.35136,-0.25806 -0.78504,-0.38709 -1.30104,-0.38709c-0.53776,0 -0.98564,0.13619 -1.34425,0.4086c-0.35483,0.27238 -0.62166,0.63797 -0.80081,1.09672c-0.17568,0.45879 -0.26368,0.96772 -0.26368,1.52684c0,0.57347 0.08957,1.08063 0.26904,1.52147c0.18262,0.43728 0.45134,0.78135 0.80617,1.03222c0.35861,0.24731 0.80302,0.37098 1.33352,0.37098zM287.35011,166.81044v1.07524h-4.4516v-1.07524zM284.23204,175.06827v-9.3976c0,-0.4731 0.11102,-0.86736 0.33307,-1.18276c0.22236,-0.3154 0.51095,-0.55196 0.86578,-0.70966c0.35483,-0.15769 0.72921,-0.23654 1.12347,-0.23654c0.31193,0 0.56646,0.02509 0.76359,0.07527c0.19713,0.05018 0.3441,0.09677 0.44062,0.13979l-0.36555,1.09672c-0.06434,-0.02148 -0.15392,-0.04838 -0.26872,-0.08062c-0.11102,-0.03227 -0.258,-0.04841 -0.44093,-0.04841c-0.41917,0 -0.72196,0.10575 -0.90836,0.3172c-0.18293,0.21148 -0.2744,0.52149 -0.2744,0.93009v9.09651zM289.12836,175.06827v-8.25783h1.22566v1.24726h0.08611c0.15045,-0.40857 0.42296,-0.74013 0.81721,-0.99459c0.39425,-0.25447 0.83866,-0.3817 1.33321,-0.3817c0.09336,0 0.20974,0.0018 0.34947,0.00536c0.13972,0.0036 0.24538,0.00896 0.3173,0.01615v1.29028c-0.04321,-0.01076 -0.14162,-0.02687 -0.29585,-0.04838c-0.15045,-0.02511 -0.31004,-0.03763 -0.47847,-0.03763c-0.40151,0 -0.75981,0.08421 -1.07521,0.25267c-0.31193,0.16486 -0.55921,0.39425 -0.74183,0.68815c-0.17915,0.29033 -0.26872,0.62185 -0.26872,0.99459v5.22566zM297.19133,175.2618c-0.52325,0 -0.99825,-0.09856 -1.42468,-0.29569c-0.42674,-0.20069 -0.76517,-0.48922 -1.01623,-0.86556c-0.25075,-0.3799 -0.37628,-0.83869 -0.37628,-1.37629c0,-0.4731 0.09304,-0.8566 0.27945,-1.1505c0.1864,-0.29749 0.43557,-0.53048 0.74751,-0.69893c0.31162,-0.16843 0.65572,-0.29389 1.032,-0.37631c0.38006,-0.08604 0.7617,-0.15414 1.14523,-0.20432c0.50181,-0.0645 0.90868,-0.11288 1.2203,-0.14515c0.3154,-0.03583 0.54502,-0.09497 0.68821,-0.17741c0.14698,-0.08245 0.22047,-0.2258 0.22047,-0.43008v-0.04302c0,-0.53045 -0.14509,-0.94261 -0.43557,-1.23651c-0.2867,-0.29392 -0.72196,-0.44087 -1.3064,-0.44087c-0.60557,0 -1.08057,0.13263 -1.42468,0.39785c-0.3441,0.26522 -0.58602,0.54836 -0.72574,0.84944l-1.20421,-0.43012c0.21511,-0.50178 0.50181,-0.89243 0.8601,-1.17201c0.36208,-0.28314 0.75634,-0.48026 1.18276,-0.59138c0.43021,-0.11468 0.85317,-0.17202 1.26887,-0.17202c0.26525,0 0.56993,0.03223 0.91404,0.09677c0.34757,0.06094 0.68253,0.18817 1.00519,0.3817c0.32613,0.19356 0.59674,0.48566 0.81185,0.87632c0.21511,0.39069 0.32266,0.91398 0.32266,1.56986v5.44071h-1.26887v-1.11826h-0.06466c-0.08579,0.17921 -0.2293,0.37098 -0.42989,0.57526c-0.20091,0.20429 -0.46774,0.37814 -0.80112,0.52149c-0.33338,0.14338 -0.74025,0.21504 -1.2203,0.21504zM297.38467,174.12206c0.50181,0 0.92476,-0.09856 1.26887,-0.29569c0.34757,-0.19713 0.60936,-0.45159 0.78504,-0.76343c0.17915,-0.31181 0.26872,-0.63976 0.26872,-0.98384v-1.16125c-0.05362,0.06453 -0.17189,0.12367 -0.35483,0.17741c-0.17915,0.05018 -0.387,0.09497 -0.62355,0.13439c-0.23308,0.03586 -0.46049,0.06813 -0.68285,0.0968c-0.21857,0.02507 -0.39615,0.04659 -0.5324,0.0645c-0.3296,0.04302 -0.63775,0.11291 -0.92445,0.20968c-0.28323,0.09317 -0.51253,0.23475 -0.68821,0.42472c-0.17221,0.18637 -0.258,0.44084 -0.258,0.7634c0,0.44087 0.16306,0.77419 0.48919,0.99999c0.3296,0.2222 0.74719,0.33332 1.25247,0.33332zM306.64649,175.24032c-0.774,0 -1.44076,-0.18281 -1.99966,-0.54839c-0.55921,-0.36558 -0.98942,-0.86916 -1.29031,-1.51072c-0.30121,-0.64153 -0.45166,-1.3745 -0.45166,-2.19883c0,-0.83869 0.15392,-1.57881 0.46238,-2.22038c0.31162,-0.64516 0.7453,-1.14873 1.30104,-1.51072c0.55889,-0.36558 1.21146,-0.54836 1.95676,-0.54836c0.58066,0 1.10391,0.10752 1.57008,0.32256c0.46585,0.21504 0.84749,0.51613 1.14491,0.90319c0.29743,0.38709 0.48225,0.83869 0.55385,1.35481h-1.26887c-0.09683,-0.37634 -0.31162,-0.70966 -0.645,-0.99999c-0.32991,-0.29389 -0.77431,-0.44084 -1.33352,-0.44084c-0.49455,0 -0.92823,0.12903 -1.30104,0.38709c-0.36902,0.25447 -0.65762,0.61466 -0.86547,1.0806c-0.20438,0.46235 -0.30626,1.00535 -0.30626,1.62899c0,0.63797 0.1003,1.19352 0.30089,1.66662c0.20438,0.4731 0.49108,0.84049 0.8601,1.10211c0.37281,0.26163 0.81027,0.39246 1.31176,0.39246c0.32991,0 0.62923,-0.05734 0.89795,-0.17202c0.26872,-0.11471 0.49644,-0.27957 0.68285,-0.49462c0.1864,-0.21504 0.31887,-0.4731 0.39772,-0.77419h1.26887c-0.0716,0.48746 -0.24917,0.9265 -0.5324,1.31719c-0.27945,0.38706 -0.65036,0.69531 -1.11274,0.9247c-0.45891,0.2258 -0.99289,0.33871 -1.60225,0.33871zM315.33995,166.81044v1.07524h-4.27939v-1.07524zM312.30766,164.83201h1.26887v7.87073c0,0.35842 0.05204,0.62721 0.15581,0.80642c0.10755,0.17562 0.24381,0.29389 0.40876,0.35483c0.16843,0.05734 0.34568,0.08601 0.53209,0.08601c0.13972,0 0.25453,-0.00716 0.3441,-0.02148c0.08957,-0.01795 0.16149,-0.03227 0.21511,-0.04302l0.258,1.13974c-0.08611,0.03227 -0.20596,0.06453 -0.36019,0.0968c-0.15392,0.03583 -0.34947,0.05374 -0.58602,0.05374c-0.3583,0 -0.70966,-0.07705 -1.05376,-0.23116c-0.34032,-0.15414 -0.62355,-0.38889 -0.84938,-0.7043c-0.22204,-0.3154 -0.33338,-0.71325 -0.33338,-1.19352zM317.24845,175.06827v-8.25783h1.26887v8.25783zM317.89377,165.43412c-0.24759,0 -0.4608,-0.08421 -0.63995,-0.25267c-0.17568,-0.16846 -0.26336,-0.37095 -0.26336,-0.6075c0,-0.23655 0.08768,-0.43907 0.26336,-0.60753c0.17915,-0.16846 0.39236,-0.25267 0.63995,-0.25267c0.24728,0 0.4586,0.08421 0.63428,0.25267c0.17915,0.16846 0.26872,0.37098 0.26872,0.60753c0,0.23655 -0.08957,0.43904 -0.26872,0.6075c-0.17568,0.16846 -0.387,0.25267 -0.63428,0.25267zM324.19584,175.24032c-0.74561,0 -1.39944,-0.17741 -1.96244,-0.53224c-0.55889,-0.35483 -0.99636,-0.85124 -1.31176,-1.48921c-0.31162,-0.638 -0.46774,-1.38348 -0.46774,-2.23649c0,-0.8602 0.15612,-1.61108 0.46774,-2.25264c0.3154,-0.64156 0.75287,-1.13974 1.31176,-1.49457c0.56299,-0.35483 1.21683,-0.53224 1.96244,-0.53224c0.74561,0 1.39787,0.17741 1.95708,0.53224c0.56268,0.35483 0.99983,0.85301 1.31176,1.49457c0.3154,0.64156 0.4731,1.39244 0.4731,2.25264c0,0.85301 -0.1577,1.5985 -0.4731,2.23649c-0.31193,0.63797 -0.74908,1.13438 -1.31176,1.48921c-0.55921,0.35483 -1.21146,0.53224 -1.95708,0.53224zM324.19584,174.10055c0.56646,0 1.03231,-0.14515 1.39787,-0.43548c0.36555,-0.2903 0.63617,-0.672 0.81185,-1.1451c0.17568,-0.4731 0.26336,-0.98564 0.26336,-1.53759c0,-0.55196 -0.08768,-1.06628 -0.26336,-1.54298c-0.17568,-0.4767 -0.4463,-0.86197 -0.81185,-1.15589c-0.36555,-0.29389 -0.8314,-0.44084 -1.39787,-0.44084c-0.56615,0 -1.03231,0.14695 -1.39787,0.44084c-0.36555,0.29392 -0.63617,0.67919 -0.81185,1.15589c-0.17536,0.4767 -0.26336,0.99103 -0.26336,1.54298c0,0.55196 0.088,1.06449 0.26336,1.53759c0.17568,0.4731 0.4463,0.85481 0.81185,1.1451c0.36555,0.29033 0.83172,0.43548 1.39787,0.43548zM331.14323,170.10067v4.9676h-1.26887v-8.25783h1.22597v1.29028h0.10755c0.19334,-0.41936 0.4873,-0.75624 0.88155,-1.01074c0.39425,-0.25803 0.90331,-0.38706 1.52687,-0.38706c0.55921,0 1.0484,0.11468 1.46757,0.34407c0.41949,0.2258 0.74561,0.56987 0.9787,1.03222c0.23277,0.45879 0.34947,1.03941 0.34947,1.74188v5.24717h-1.26887v-5.16113c0,-0.64875 -0.16843,-1.15409 -0.50528,-1.51611c-0.33717,-0.36555 -0.79923,-0.54836 -1.38714,-0.54836c-0.40498,0 -0.76706,0.08781 -1.08593,0.26342c-0.3154,0.17565 -0.56457,0.43191 -0.74751,0.7688c-0.18262,0.33691 -0.27409,0.74552 -0.27409,1.22578zM344.57972,168.65984l-1.13987,0.32256c-0.0716,-0.18994 -0.17726,-0.37454 -0.31698,-0.55372c-0.13625,-0.18281 -0.32266,-0.33335 -0.55921,-0.45163c-0.23655,-0.11828 -0.53934,-0.17741 -0.90868,-0.17741c-0.50528,0 -0.92634,0.11651 -1.26351,0.34947c-0.33307,0.22939 -0.49991,0.52149 -0.49991,0.87632c0,0.3154 0.11481,0.56451 0.3441,0.74728c0.2293,0.18281 0.58791,0.33512 1.07521,0.45699l1.22597,0.30105c0.73836,0.17921 1.28842,0.45339 1.65051,0.82257c0.36177,0.36558 0.54281,0.83689 0.54281,1.41392c0,0.4731 -0.13625,0.89606 -0.40845,1.2688c-0.26904,0.37274 -0.64532,0.66664 -1.12914,0.88168c-0.48383,0.21504 -1.04651,0.32259 -1.68804,0.32259c-0.84244,0 -1.53948,-0.18281 -2.09144,-0.54839c-0.55196,-0.36558 -0.90142,-0.89962 -1.0484,-1.60209l1.20453,-0.30108c0.11449,0.44443 0.33149,0.77775 0.65036,0.99999c0.32266,0.2222 0.74372,0.33332 1.26351,0.33332c0.59138,0 1.0607,-0.12544 1.40859,-0.37634c0.35104,-0.25447 0.52672,-0.55912 0.52672,-0.91394c0,-0.28673 -0.1003,-0.52688 -0.30089,-0.72041c-0.20091,-0.19713 -0.50906,-0.34407 -0.92476,-0.44084l-1.37642,-0.32259c-0.75634,-0.17918 -1.31176,-0.45696 -1.66659,-0.8333c-0.35136,-0.3799 -0.52672,-0.85481 -0.52672,-1.42468c0,-0.46595 0.13058,-0.87811 0.39236,-1.23654c0.26525,-0.35842 0.62544,-0.63976 1.08057,-0.84405c0.45891,-0.20432 0.97838,-0.30645 1.55904,-0.30645c0.81721,0 1.45874,0.17921 1.92459,0.5376c0.46964,0.35842 0.80302,0.83153 1.00014,1.41931zM350.89819,175.06827v-8.25783h1.26855v8.25783zM351.54319,165.43412c-0.24728,0 -0.46049,-0.08421 -0.63964,-0.25267c-0.17568,-0.16846 -0.26368,-0.37095 -0.26368,-0.6075c0,-0.23655 0.088,-0.43907 0.26368,-0.60753c0.17915,-0.16846 0.39236,-0.25267 0.63964,-0.25267c0.24728,0 0.45891,0.08421 0.63428,0.25267c0.17946,0.16846 0.26904,0.37098 0.26904,0.60753c0,0.23655 -0.08957,0.43904 -0.26904,0.6075c-0.17536,0.16846 -0.387,0.25267 -0.63428,0.25267zM360.34011,168.65984l-1.13987,0.32256c-0.0716,-0.18994 -0.17726,-0.37454 -0.3173,-0.55372c-0.13594,-0.18281 -0.32234,-0.33335 -0.55889,-0.45163c-0.23655,-0.11828 -0.53965,-0.17741 -0.90868,-0.17741c-0.50528,0 -0.92665,0.11651 -1.26351,0.34947c-0.33338,0.22939 -0.49991,0.52149 -0.49991,0.87632c0,0.3154 0.11481,0.56451 0.3441,0.74728c0.2293,0.18281 0.58791,0.33512 1.07521,0.45699l1.22566,0.30105c0.73836,0.17921 1.28874,0.45339 1.65051,0.82257c0.36208,0.36558 0.54312,0.83689 0.54312,1.41392c0,0.4731 -0.13625,0.89606 -0.40876,1.2688c-0.26872,0.37274 -0.645,0.66664 -1.12883,0.88168c-0.48383,0.21504 -1.04651,0.32259 -1.68804,0.32259c-0.84244,0 -1.53948,-0.18281 -2.09144,-0.54839c-0.55196,-0.36558 -0.90142,-0.89962 -1.0484,-1.60209l1.20421,-0.30108c0.11481,0.44443 0.33149,0.77775 0.65068,0.99999c0.32266,0.2222 0.74372,0.33332 1.26319,0.33332c0.59138,0 1.06102,-0.12544 1.40859,-0.37634c0.35136,-0.25447 0.52704,-0.55912 0.52704,-0.91394c0,-0.28673 -0.1003,-0.52688 -0.30121,-0.72041c-0.2006,-0.19713 -0.50875,-0.34407 -0.92476,-0.44084l-1.3761,-0.32259c-0.75634,-0.17918 -1.31176,-0.45696 -1.66659,-0.8333c-0.35136,-0.3799 -0.52704,-0.85481 -0.52704,-1.42468c0,-0.46595 0.13089,-0.87811 0.39268,-1.23654c0.26525,-0.35842 0.62544,-0.63976 1.08057,-0.84405c0.4586,-0.20432 0.97838,-0.30645 1.55904,-0.30645c0.81721,0 1.45874,0.17921 1.92459,0.5376c0.46964,0.35842 0.80302,0.83153 1.00014,1.41931zM123.8104,193.53355c-0.79567,0 -1.48204,-0.17536 -2.05908,-0.52672c-0.57346,-0.35483 -1.0161,-0.84938 -1.32792,-1.48381c-0.30823,-0.638 -0.46235,-1.37989 -0.46235,-2.22577c0,-0.84585 0.15412,-1.59134 0.46235,-2.23649c0.31182,-0.64872 0.7455,-1.15409 1.30104,-1.51608c0.55912,-0.36558 1.21145,-0.54836 1.95694,-0.54836c0.43008,0 0.85481,0.07166 1.27417,0.21504c0.41933,0.14335 0.80103,0.37634 1.14513,0.6989c0.34407,0.319 0.61825,0.74192 0.82254,1.26877c0.20429,0.52688 0.30645,1.1756 0.30645,1.9462v0.5376h-6.36541v-1.09672h5.07513c0,-0.46595 -0.0932,-0.88171 -0.27957,-1.24729c-0.18278,-0.36558 -0.44443,-0.65411 -0.78491,-0.86556c-0.33691,-0.21148 -0.73476,-0.3172 -1.19352,-0.3172c-0.50537,0 -0.94261,0.12544 -1.31179,0.37634c-0.36558,0.24731 -0.64693,0.56987 -0.84406,0.96772c-0.19713,0.39782 -0.29569,0.82434 -0.29569,1.27953v0.73117c0,0.62362 0.10752,1.15229 0.32257,1.58597c0.21863,0.43008 0.52149,0.75804 0.90858,0.98384c0.38709,0.22236 0.83689,0.33338 1.34942,0.33338c0.33332,0 0.6344,-0.04668 0.90319,-0.13972c0.27241,-0.09683 0.50717,-0.24024 0.7043,-0.43021c0.19713,-0.19353 0.34944,-0.43368 0.45696,-0.72041l1.22578,0.34407c-0.12903,0.41576 -0.34587,0.78132 -0.65052,1.09672c-0.30465,0.31193 -0.68099,0.55543 -1.12899,0.7311c-0.44803,0.17221 -0.9516,0.258 -1.51072,0.258zM134.79397,196.45829v-4.3654h-0.10755c-0.09317,0.15067 -0.2258,0.34054 -0.39782,0.56984c-0.17205,0.22583 -0.41756,0.42832 -0.73653,0.60747c-0.319,0.17568 -0.74372,0.26336 -1.27417,0.26336c-0.68815,0 -1.29568,-0.17379 -1.82253,-0.52136c-0.52688,-0.35136 -0.93905,-0.84591 -1.23654,-1.48381c-0.29749,-0.64156 -0.44623,-1.3996 -0.44623,-2.27412c0,-0.86736 0.14874,-1.62004 0.44623,-2.258c0.29749,-0.63797 0.71146,-1.13078 1.2419,-1.47845c0.53045,-0.34767 1.14334,-0.52149 1.83867,-0.52149c0.5376,0 0.96233,0.08961 1.27413,0.26879c0.3154,0.17565 0.55555,0.37634 0.72041,0.60214c0.16846,0.22223 0.29929,0.40501 0.39246,0.54839h0.15054v-1.31179h1.22578v11.35445zM132.44993,192.394c0.50897,0 0.93905,-0.13278 1.29028,-0.39788c0.35126,-0.26882 0.61829,-0.6398 0.80106,-1.1129c0.18281,-0.47667 0.27418,-1.02683 0.27418,-1.65047c0,-0.61649 -0.08961,-1.15589 -0.26879,-1.61824c-0.17921,-0.46595 -0.44443,-0.82793 -0.7957,-1.086c-0.35123,-0.26163 -0.78491,-0.39246 -1.30104,-0.39246c-0.5376,0 -0.98564,0.13799 -1.34403,0.41397c-0.35483,0.27238 -0.62185,0.64336 -0.80106,1.11287c-0.17562,0.46595 -0.26342,0.98923 -0.26342,1.56986c0,0.58779 0.08961,1.12183 0.26879,1.60209c0.18281,0.4767 0.45163,0.8566 0.80645,1.13977c0.35839,0.27967 0.80283,0.41939 1.33327,0.41939zM143.5894,189.98542v-4.88159h1.26877v8.25783h-1.26877v-1.3978h-0.08601c-0.19353,0.41942 -0.49462,0.77583 -0.90319,1.06978c-0.4086,0.29049 -0.92473,0.43557 -1.54835,0.43557c-0.51613,0 -0.97488,-0.11291 -1.37633,-0.33874c-0.40141,-0.2293 -0.71682,-0.5734 -0.94621,-1.03222c-0.22936,-0.46235 -0.34407,-1.04477 -0.34407,-1.74727v-5.24714h1.26877v5.16113c0,0.60214 0.16846,1.0824 0.50537,1.44083c0.34051,0.35842 0.77419,0.53776 1.30104,0.53776c0.3154,0 0.6362,-0.08074 0.96236,-0.24207c0.32972,-0.1613 0.6057,-0.4086 0.82793,-0.74192c0.2258,-0.33332 0.33868,-0.75804 0.33868,-1.27413zM147.18204,193.36166v-8.25783h1.2688v8.25783zM147.82719,183.72751c-0.24731,0 -0.46055,-0.08421 -0.63976,-0.25267c-0.17562,-0.16846 -0.26342,-0.37095 -0.26342,-0.6075c0,-0.23655 0.08781,-0.43907 0.26342,-0.60753c0.17921,-0.16846 0.39246,-0.25267 0.63976,-0.25267c0.24731,0 0.45875,0.08421 0.6344,0.25267c0.17918,0.16846 0.26879,0.37098 0.26879,0.60753c0,0.23655 -0.08961,0.43904 -0.26879,0.6075c-0.17565,0.16846 -0.38709,0.25267 -0.6344,0.25267zM157.52729,185.10383l-3.05373,8.25783h-1.29031l-3.0537,-8.25783h1.37639l2.27942,6.58045h0.08611l2.27942,-6.58045zM161.38058,193.55532c-0.52325,0 -0.99825,-0.09872 -1.42468,-0.29585c-0.42643,-0.2006 -0.76517,-0.48919 -1.01623,-0.86547c-0.25075,-0.37997 -0.37628,-0.83875 -0.37628,-1.37636c0,-0.4731 0.09336,-0.8566 0.27976,-1.1505c0.18609,-0.29749 0.43526,-0.53048 0.74719,-0.69893c0.31162,-0.16843 0.65572,-0.29389 1.03231,-0.37631c0.37975,-0.08604 0.76138,-0.15414 1.14491,-0.20432c0.50181,-0.0645 0.90868,-0.11288 1.22061,-0.14515c0.3154,-0.03583 0.5447,-0.09497 0.68789,-0.17741c0.14698,-0.08245 0.22047,-0.2258 0.22047,-0.43008v-0.04302c0,-0.53045 -0.14509,-0.94261 -0.43526,-1.23651c-0.28702,-0.29392 -0.72227,-0.44087 -1.3064,-0.44087c-0.60589,0 -1.08089,0.13263 -1.42499,0.39785c-0.34379,0.26522 -0.5857,0.54836 -0.72574,0.84944l-1.20421,-0.43012c0.21511,-0.50178 0.50181,-0.89243 0.8601,-1.17201c0.36208,-0.28314 0.75634,-0.48026 1.18276,-0.59138c0.43021,-0.11468 0.85317,-0.17202 1.26887,-0.17202c0.26525,0 0.56993,0.03223 0.91404,0.09677c0.34757,0.06094 0.68285,0.18817 1.00519,0.3817c0.32613,0.19356 0.59674,0.48566 0.81185,0.87632c0.21511,0.39069 0.32266,0.91398 0.32266,1.56986v5.44071h-1.26887v-1.1181h-0.06434c-0.08611,0.17915 -0.22961,0.37091 -0.43021,0.57498c-0.2006,0.20438 -0.46774,0.37817 -0.80112,0.52168c-0.33338,0.14319 -0.73994,0.21511 -1.2203,0.21511zM161.57423,192.41545c0.50181,0 0.92445,-0.09841 1.26855,-0.29585c0.34789,-0.19697 0.60936,-0.45144 0.78504,-0.76328c0.17915,-0.31181 0.26872,-0.63976 0.26872,-0.98384v-1.16125c-0.05362,0.06453 -0.17189,0.12367 -0.35483,0.17741c-0.17915,0.05018 -0.387,0.09497 -0.62355,0.13439c-0.23308,0.03586 -0.46049,0.06813 -0.68285,0.0968c-0.21857,0.02507 -0.39583,0.04659 -0.53209,0.0645c-0.32991,0.04302 -0.63806,0.11291 -0.92476,0.20968c-0.28323,0.09317 -0.51253,0.23475 -0.68821,0.42472c-0.17189,0.18637 -0.258,0.44084 -0.258,0.7634c0,0.44087 0.16306,0.77419 0.48919,0.99999c0.3296,0.2223 0.74719,0.33332 1.25278,0.33332zM168.74997,182.35121v11.01044h-1.26887v-11.01044zM174.53605,193.53355c-0.79576,0 -1.48208,-0.17536 -2.05895,-0.52672c-0.5734,-0.35483 -1.01623,-0.84938 -1.32785,-1.48381c-0.30846,-0.638 -0.46238,-1.37989 -0.46238,-2.22577c0,-0.84585 0.15392,-1.59134 0.46238,-2.23649c0.31162,-0.64872 0.7453,-1.15409 1.30104,-1.51608c0.55889,-0.36558 1.21115,-0.54836 1.95676,-0.54836c0.43021,0 0.85474,0.07166 1.27423,0.21504c0.41917,0.14335 0.80112,0.37634 1.14523,0.6989c0.34379,0.319 0.61819,0.74192 0.82257,1.26877c0.20407,0.52688 0.30626,1.1756 0.30626,1.9462v0.5376h-6.36547v-1.09672h5.07515c0,-0.46595 -0.09304,-0.88171 -0.27945,-1.24729c-0.18293,-0.36558 -0.4444,-0.65411 -0.78504,-0.86556c-0.33685,-0.21148 -0.73457,-0.3172 -1.19349,-0.3172c-0.50528,0 -0.94274,0.12544 -1.31176,0.37634c-0.36555,0.24731 -0.64689,0.56987 -0.84402,0.96772c-0.19713,0.39782 -0.29585,0.82434 -0.29585,1.27953v0.73117c0,0.62362 0.10755,1.15229 0.32266,1.58597c0.21857,0.43008 0.52168,0.75804 0.90868,0.98384c0.387,0.22236 0.83676,0.33338 1.3493,0.33338c0.33338,0 0.63459,-0.04668 0.90331,-0.13972c0.27219,-0.09683 0.50717,-0.24024 0.7043,-0.43021c0.19713,-0.19353 0.34947,-0.43368 0.45702,-0.72041l1.22566,0.34407c-0.129,0.41576 -0.346,0.78132 -0.65036,1.09672c-0.30468,0.31193 -0.68127,0.55543 -1.12914,0.7311c-0.44787,0.17221 -0.95157,0.258 -1.51078,0.258zM181.15415,188.39406v4.9676h-1.26887v-8.25783h1.22597v1.29028h0.10755c0.19334,-0.41936 0.4873,-0.75624 0.88155,-1.01074c0.39425,-0.25803 0.90331,-0.38706 1.52687,-0.38706c0.55921,0 1.0484,0.11468 1.46757,0.34407c0.41949,0.2258 0.74561,0.56987 0.9787,1.03222c0.23277,0.45879 0.34947,1.03941 0.34947,1.74188v5.24717h-1.26887v-5.16113c0,-0.64875 -0.16843,-1.15409 -0.50528,-1.51611c-0.33685,-0.36555 -0.79923,-0.54836 -1.38714,-0.54836c-0.40498,0 -0.76706,0.08781 -1.08593,0.26342c-0.3154,0.17565 -0.56457,0.43191 -0.74751,0.7688c-0.18262,0.33691 -0.27409,0.74552 -0.27409,1.22578zM192.33268,185.10383v1.07524h-4.27939v-1.07524zM189.30039,183.1254h1.26887v7.87073c0,0.35842 0.05204,0.62721 0.15581,0.80642c0.10755,0.17562 0.24381,0.29389 0.40876,0.35489c0.16843,0.0574 0.34568,0.08611 0.53209,0.08611c0.13972,0 0.25453,-0.00725 0.3441,-0.02176c0.08957,-0.01766 0.16149,-0.03217 0.21511,-0.04289l0.258,1.13987c-0.08611,0.03217 -0.20596,0.06434 -0.36019,0.09651c-0.15392,0.03596 -0.34947,0.05393 -0.58602,0.05393c-0.3583,0 -0.70966,-0.07696 -1.05376,-0.23119c-0.34032,-0.15423 -0.62355,-0.38889 -0.84938,-0.7043c-0.22204,-0.3154 -0.33338,-0.71325 -0.33338,-1.19352zM202.09031,185.10383v1.07524h-4.27939v-1.07524zM199.05833,183.1254h1.26887v7.87073c0,0.35842 0.05173,0.62721 0.15581,0.80642c0.10755,0.17562 0.24381,0.29389 0.40845,0.35489c0.16843,0.0574 0.346,0.08611 0.5324,0.08611c0.13972,0 0.25453,-0.00725 0.3441,-0.02176c0.08957,-0.01766 0.16117,-0.03217 0.21511,-0.04289l0.258,1.13987c-0.08611,0.03217 -0.20627,0.06434 -0.36019,0.09651c-0.15423,0.03596 -0.34947,0.05393 -0.58602,0.05393c-0.35861,0 -0.70966,-0.07696 -1.05376,-0.23119c-0.34064,-0.15423 -0.62355,-0.38889 -0.84938,-0.7043c-0.22236,-0.3154 -0.33338,-0.71325 -0.33338,-1.19352zM207.26513,193.53355c-0.74561,0 -1.39976,-0.17726 -1.96244,-0.53209c-0.55921,-0.35483 -0.99636,-0.85127 -1.31176,-1.48921c-0.31193,-0.638 -0.46774,-1.38348 -0.46774,-2.23649c0,-0.8602 0.15581,-1.61108 0.46774,-2.25264c0.3154,-0.64156 0.75255,-1.13974 1.31176,-1.49457c0.56268,-0.35483 1.21683,-0.53224 1.96244,-0.53224c0.7453,0 1.39787,0.17741 1.95676,0.53224c0.56268,0.35483 1.00014,0.85301 1.31176,1.49457c0.3154,0.64156 0.4731,1.39244 0.4731,2.25264c0,0.85301 -0.1577,1.5985 -0.4731,2.23649c-0.31162,0.63793 -0.74908,1.13438 -1.31176,1.48921c-0.55889,0.35483 -1.21146,0.53209 -1.95676,0.53209zM207.26513,192.394c0.56615,0 1.032,-0.14509 1.39787,-0.43554c0.36555,-0.2903 0.63617,-0.672 0.81153,-1.1451c0.17568,-0.4731 0.26368,-0.98564 0.26368,-1.53759c0,-0.55196 -0.088,-1.06628 -0.26368,-1.54298c-0.17536,-0.4767 -0.44598,-0.86197 -0.81153,-1.15589c-0.36587,-0.29389 -0.83172,-0.44084 -1.39787,-0.44084c-0.56646,0 -1.03231,0.14695 -1.39787,0.44084c-0.36555,0.29392 -0.63617,0.67919 -0.81185,1.15589c-0.17568,0.4767 -0.26336,0.99103 -0.26336,1.54298c0,0.55196 0.08768,1.06449 0.26336,1.53759c0.17568,0.4731 0.4463,0.85481 0.81185,1.1451c0.36555,0.29045 0.8314,0.43554 1.39787,0.43554zM220.90033,193.51211c-0.70966,0 -1.34204,-0.12175 -1.89778,-0.36555c-0.55196,-0.24381 -0.991,-0.58223 -1.31712,-1.01591c-0.32266,-0.4374 -0.49834,-0.94454 -0.52672,-1.5216h1.35466c0.0287,0.35483 0.15045,0.66127 0.36555,0.91934c0.21511,0.25447 0.49644,0.45159 0.84402,0.59122c0.34789,0.14004 0.733,0.20974 1.15595,0.20974c0.4731,0 0.89259,-0.08232 1.25814,-0.24721c0.36555,-0.16486 0.65225,-0.39425 0.8601,-0.68815c0.20785,-0.29392 0.31193,-0.6344 0.31193,-1.0215c0,-0.40501 -0.10061,-0.7616 -0.30121,-1.06985c-0.2006,-0.31184 -0.49455,-0.55555 -0.88155,-0.73117c-0.38732,-0.17562 -0.86042,-0.26342 -1.41931,-0.26342h-0.88187v-1.18276h0.88187c0.43715,0 0.82068,-0.07885 1.15028,-0.23655c0.33338,-0.1577 0.59327,-0.37993 0.77968,-0.66667c0.18987,-0.28673 0.28481,-0.62362 0.28481,-1.01071c0,-0.37274 -0.08232,-0.6971 -0.24728,-0.97308c-0.16496,-0.27598 -0.39772,-0.49105 -0.69893,-0.64516c-0.29743,-0.15411 -0.64878,-0.23116 -1.05376,-0.23116c-0.37975,0 -0.73836,0.06986 -1.07521,0.20965c-0.33338,0.13619 -0.60557,0.33512 -0.81721,0.59677c-0.21132,0.25806 -0.32613,0.56987 -0.3441,0.93545h-1.29c0.02145,-0.57706 0.19523,-1.0824 0.52136,-1.51608c0.32613,-0.43728 0.75255,-0.77775 1.27959,-1.0215c0.53051,-0.24371 1.11274,-0.36558 1.74733,-0.36558c0.68096,0 1.26508,0.13799 1.75238,0.41397c0.48761,0.27241 0.862,0.6326 1.12378,1.08063c0.26147,0.448 0.39236,0.93186 0.39236,1.45155c0,0.62008 -0.16306,1.14873 -0.48919,1.58601c-0.32266,0.43724 -0.7617,0.74009 -1.31712,0.90855v0.08604c0.69515,0.11468 1.23827,0.41037 1.62906,0.88707c0.39047,0.4731 0.58602,1.05909 0.58602,1.75799c0,0.59857 -0.16306,1.13618 -0.48919,1.61288c-0.32266,0.47298 -0.76359,0.84579 -1.3228,1.11829c-0.55889,0.27219 -1.19506,0.40845 -1.90851,0.40845zM230.73334,181.83509l-3.54829,13.18244h-1.161l3.54829,-13.18244zM231.95773,191.10365v-1.09675l4.8386,-7.65569h0.79576v1.69889h-0.53745l-3.65584,5.78478v0.08601h6.51592v1.18276zM237.14044,193.36166v-2.59132v-0.51073v-7.90839h1.26887v11.01044zM243.60684,190.26497v-0.0645c0.00694,-0.68458 0.07885,-1.22938 0.21511,-1.63436c0.13594,-0.40501 0.3296,-0.73297 0.58034,-0.98387c0.25106,-0.25087 0.55196,-0.48206 0.90331,-0.69351c0.21164,-0.12903 0.40151,-0.28137 0.56993,-0.45699c0.16843,-0.17921 0.30089,-0.3853 0.39772,-0.61825c0.1003,-0.23299 0.15076,-0.49102 0.15076,-0.77419c0,-0.35123 -0.08264,-0.65588 -0.24759,-0.91394c-0.16464,-0.25806 -0.38511,-0.45699 -0.66109,-0.59674c-0.27598,-0.13979 -0.58255,-0.20968 -0.9194,-0.20968c-0.29396,0 -0.57687,0.06094 -0.84938,0.18278c-0.27251,0.12187 -0.49991,0.31364 -0.68285,0.57526c-0.18262,0.26163 -0.28859,0.60393 -0.3173,1.02686h-1.35466c0.0287,-0.6093 0.1864,-1.13078 0.4731,-1.56446c0.29017,-0.43368 0.67212,-0.76523 1.14523,-0.99462c0.47657,-0.22936 1.00519,-0.34407 1.58585,-0.34407c0.63081,0 1.17929,0.12547 1.64514,0.37634c0.46964,0.2509 0.8314,0.59498 1.08593,1.03222c0.258,0.43728 0.387,0.93549 0.387,1.4946c0,0.39425 -0.06087,0.75088 -0.18262,1.06985c-0.11828,0.319 -0.29049,0.60393 -0.516,0.85484c-0.22236,0.25087 -0.49108,0.4731 -0.80649,0.66664c-0.3154,0.19713 -0.56804,0.40501 -0.75823,0.62365c-0.18987,0.21504 -0.3277,0.47131 -0.41381,0.7688c-0.08611,0.29746 -0.13278,0.66843 -0.13972,1.11287v0.0645zM244.29505,193.44776c-0.26525,0 -0.49298,-0.09494 -0.68285,-0.28512c-0.19019,-0.18987 -0.28512,-0.41759 -0.28512,-0.68253c0,-0.26525 0.09494,-0.49298 0.28512,-0.68291c0.18987,-0.18997 0.41759,-0.28494 0.68285,-0.28494c0.26494,0 0.49266,0.09497 0.68253,0.28494c0.19019,0.18994 0.28512,0.41766 0.28512,0.68291c0,0.17536 -0.04479,0.33685 -0.13436,0.48383c-0.08611,0.14698 -0.20249,0.26525 -0.34947,0.35483c-0.14351,0.08579 -0.30468,0.129 -0.48383,0.129z"/></g></g></svg>