<svg xmlns="http://www.w3.org/2000/svg" fill="none" viewBox="0 0 139 164" height="164" width="139">
<path fill="#EEC638" d="M0 20C0 8.95431 8.95431 0 20 0H119C130.046 0 139 8.95431 139 20V144C139 155.046 130.046 164 119 164H20C8.95431 164 0 155.046 0 144V20Z"></path>
<path fill="black" d="M36.2102 135.455V150H34.5341V135.455H36.2102ZM43.854 150.227C42.8029 150.227 41.8962 149.995 41.1339 149.531C40.3763 149.062 39.7915 148.409 39.3796 147.571C38.9724 146.728 38.7688 145.748 38.7688 144.631C38.7688 143.513 38.9724 142.528 39.3796 141.676C39.7915 140.819 40.3645 140.152 41.0984 139.673C41.837 139.19 42.6987 138.949 43.6836 138.949C44.2518 138.949 44.8129 139.044 45.3668 139.233C45.9208 139.422 46.4251 139.73 46.8796 140.156C47.3342 140.578 47.6964 141.136 47.9663 141.832C48.2362 142.528 48.3711 143.385 48.3711 144.403V145.114H39.962V143.665H46.6665C46.6665 143.049 46.5434 142.5 46.2972 142.017C46.0558 141.534 45.7101 141.153 45.2603 140.874C44.8152 140.594 44.2897 140.455 43.6836 140.455C43.016 140.455 42.4383 140.62 41.9506 140.952C41.4677 141.278 41.096 141.705 40.8356 142.23C40.5752 142.756 40.445 143.319 40.445 143.92V144.886C40.445 145.71 40.587 146.409 40.8711 146.982C41.1599 147.55 41.56 147.983 42.0714 148.281C42.5827 148.575 43.177 148.722 43.854 148.722C44.2944 148.722 44.6921 148.66 45.0472 148.537C45.4071 148.409 45.7172 148.22 45.9776 147.969C46.238 147.713 46.4393 147.396 46.5813 147.017L48.2006 147.472C48.0302 148.021 47.7437 148.504 47.3413 148.92C46.9388 149.332 46.4416 149.654 45.8498 149.886C45.2579 150.114 44.5927 150.227 43.854 150.227ZM55.6651 139.091V140.511H50.0117V139.091H55.6651ZM51.6594 136.477H53.3356V146.875C53.3356 147.348 53.4042 147.704 53.5415 147.94C53.6836 148.172 53.8635 148.329 54.0813 148.409C54.3039 148.485 54.5382 148.523 54.7844 148.523C54.9691 148.523 55.1206 148.513 55.239 148.494C55.3574 148.471 55.4521 148.452 55.5231 148.438L55.864 149.943C55.7504 149.986 55.5917 150.028 55.3881 150.071C55.1845 150.118 54.9265 150.142 54.614 150.142C54.1405 150.142 53.6765 150.04 53.2219 149.837C52.7721 149.633 52.3981 149.323 52.0998 148.906C51.8062 148.49 51.6594 147.964 51.6594 147.33V136.477ZM62.9308 139.091V140.511H57.2773V139.091H62.9308ZM58.9251 136.477H60.6012V146.875C60.6012 147.348 60.6699 147.704 60.8072 147.94C60.9492 148.172 61.1291 148.329 61.3469 148.409C61.5695 148.485 61.8039 148.523 62.0501 148.523C62.2347 148.523 62.3862 148.513 62.5046 148.494C62.623 148.471 62.7177 148.452 62.7887 148.438L63.1296 149.943C63.016 149.986 62.8574 150.028 62.6538 150.071C62.4502 150.118 62.1921 150.142 61.8796 150.142C61.4061 150.142 60.9421 150.04 60.4876 149.837C60.0378 149.633 59.6637 149.323 59.3654 148.906C59.0719 148.49 58.9251 147.964 58.9251 147.33V136.477ZM69.9087 150.227C68.8576 150.227 67.9509 149.995 67.1886 149.531C66.431 149.062 65.8462 148.409 65.4343 147.571C65.0271 146.728 64.8235 145.748 64.8235 144.631C64.8235 143.513 65.0271 142.528 65.4343 141.676C65.8462 140.819 66.4192 140.152 67.1531 139.673C67.8917 139.19 68.7534 138.949 69.7383 138.949C70.3065 138.949 70.8675 139.044 71.4215 139.233C71.9755 139.422 72.4798 139.73 72.9343 140.156C73.3888 140.578 73.7511 141.136 74.021 141.832C74.2908 142.528 74.4258 143.385 74.4258 144.403V145.114H66.0167V143.665H72.7212C72.7212 143.049 72.5981 142.5 72.3519 142.017C72.1104 141.534 71.7648 141.153 71.315 140.874C70.8699 140.594 70.3443 140.455 69.7383 140.455C69.0707 140.455 68.493 140.62 68.0053 140.952C67.5224 141.278 67.1507 141.705 66.8903 142.23C66.6299 142.756 66.4996 143.319 66.4996 143.92V144.886C66.4996 145.71 66.6417 146.409 66.9258 146.982C67.2146 147.55 67.6147 147.983 68.1261 148.281C68.6374 148.575 69.2317 148.722 69.9087 148.722C70.3491 148.722 70.7468 148.66 71.1019 148.537C71.4618 148.409 71.7719 148.22 72.0323 147.969C72.2927 147.713 72.494 147.396 72.636 147.017L74.2553 147.472C74.0849 148.021 73.7984 148.504 73.396 148.92C72.9935 149.332 72.4963 149.654 71.9045 149.886C71.3126 150.114 70.6474 150.227 69.9087 150.227ZM76.9755 150V139.091H78.5948V140.739H78.7085C78.9073 140.199 79.2672 139.761 79.788 139.425C80.3088 139.089 80.896 138.92 81.5494 138.92C81.6725 138.92 81.8263 138.923 82.011 138.928C82.1957 138.932 82.3353 138.939 82.43 138.949V140.653C82.3732 140.639 82.243 140.618 82.0394 140.589C81.8406 140.556 81.6299 140.54 81.4073 140.54C80.877 140.54 80.4035 140.651 79.9869 140.874C79.5749 141.091 79.2482 141.394 79.0067 141.783C78.77 142.166 78.6516 142.604 78.6516 143.097V150H76.9755ZM90.2692 150V135.455H95.3544C96.3677 135.455 97.2034 135.63 97.8615 135.98C98.5197 136.326 99.0097 136.792 99.3317 137.379C99.6536 137.962 99.8146 138.608 99.8146 139.318C99.8146 139.943 99.7034 140.459 99.4808 140.866C99.263 141.274 98.9742 141.596 98.6143 141.832C98.2592 142.069 97.8733 142.244 97.4567 142.358V142.5C97.9018 142.528 98.3492 142.685 98.799 142.969C99.2488 143.253 99.6252 143.66 99.9283 144.19C100.231 144.721 100.383 145.369 100.383 146.136C100.383 146.866 100.217 147.521 99.8857 148.104C99.5542 148.686 99.031 149.148 98.3161 149.489C97.6011 149.83 96.6707 150 95.5249 150H90.2692ZM92.0305 148.438H95.5249C96.6754 148.438 97.4922 148.215 97.9751 147.77C98.4628 147.32 98.7067 146.776 98.7067 146.136C98.7067 145.644 98.5812 145.189 98.3303 144.773C98.0793 144.351 97.7218 144.015 97.2578 143.764C96.7938 143.509 96.2446 143.381 95.6101 143.381H92.0305V148.438ZM92.0305 141.847H95.2976C95.8279 141.847 96.3061 141.742 96.7322 141.534C97.1631 141.326 97.504 141.032 97.755 140.653C98.0107 140.275 98.1385 139.83 98.1385 139.318C98.1385 138.679 97.916 138.137 97.4709 137.692C97.0258 137.242 96.3203 137.017 95.3544 137.017H92.0305V141.847Z"></path>
<path fill="black" d="M30.651 60H28.009C27.8527 59.2401 27.5793 58.5724 27.1887 57.9972C26.8051 57.4219 26.3364 56.9389 25.7824 56.5483C25.2355 56.1506 24.6283 55.8523 23.9607 55.6534C23.2931 55.4545 22.597 55.3551 21.8726 55.3551C20.5516 55.3551 19.3548 55.6889 18.2824 56.3565C17.2171 57.0241 16.3683 58.0078 15.7362 59.3075C15.1112 60.6072 14.7987 62.2017 14.7987 64.0909C14.7987 65.9801 15.1112 67.5746 15.7362 68.8743C16.3683 70.174 17.2171 71.1577 18.2824 71.8253C19.3548 72.4929 20.5516 72.8267 21.8726 72.8267C22.597 72.8267 23.2931 72.7273 23.9607 72.5284C24.6283 72.3295 25.2355 72.0348 25.7824 71.6442C26.3364 71.2464 26.8051 70.7599 27.1887 70.1847C27.5793 69.6023 27.8527 68.9347 28.009 68.1818H30.651C30.4521 69.2969 30.0899 70.2947 29.5644 71.1754C29.0388 72.0561 28.3854 72.8054 27.6041 73.4233C26.8229 74.0341 25.9458 74.4993 24.9727 74.8189C24.0068 75.1385 22.9735 75.2983 21.8726 75.2983C20.0118 75.2983 18.357 74.8438 16.9081 73.9347C15.4593 73.0256 14.3193 71.733 13.4884 70.0568C12.6574 68.3807 12.2419 66.392 12.2419 64.0909C12.2419 61.7898 12.6574 59.8011 13.4884 58.125C14.3193 56.4489 15.4593 55.1562 16.9081 54.2472C18.357 53.3381 20.0118 52.8835 21.8726 52.8835C22.9735 52.8835 24.0068 53.0433 24.9727 53.3629C25.9458 53.6825 26.8229 54.1513 27.6041 54.7692C28.3854 55.38 29.0388 56.1257 29.5644 57.0064C30.0899 57.88 30.4521 58.8778 30.651 60ZM37.0937 65.1562V75H34.5795V53.1818H37.0937V61.1932H37.3067C37.6903 60.348 38.2655 59.6768 39.0326 59.1797C39.8067 58.6754 40.8366 58.4233 42.1221 58.4233C43.2371 58.4233 44.2137 58.647 45.0518 59.0945C45.8898 59.5348 46.5397 60.2131 47.0013 61.1293C47.4701 62.0384 47.7045 63.196 47.7045 64.6023V75H45.1903V64.7727C45.1903 63.473 44.8529 62.468 44.1782 61.7578C43.5106 61.0405 42.5837 60.6818 41.3976 60.6818C40.5738 60.6818 39.8351 60.8558 39.1817 61.2038C38.5354 61.5518 38.0241 62.0597 37.6476 62.7273C37.2783 63.3949 37.0937 64.2045 37.0937 65.1562ZM52.3041 75V58.6364H54.8183V75H52.3041ZM53.5825 55.9091C53.0924 55.9091 52.6698 55.7422 52.3147 55.4084C51.9667 55.0746 51.7927 54.6733 51.7927 54.2045C51.7927 53.7358 51.9667 53.3345 52.3147 53.0007C52.6698 52.6669 53.0924 52.5 53.5825 52.5C54.0725 52.5 54.4916 52.6669 54.8396 53.0007C55.1947 53.3345 55.3722 53.7358 55.3722 54.2045C55.3722 54.6733 55.1947 55.0746 54.8396 55.4084C54.4916 55.7422 54.0725 55.9091 53.5825 55.9091ZM61.9374 53.1818V75H59.4232V53.1818H61.9374ZM72.7213 75.3409C71.3577 75.3409 70.1539 74.9964 69.1098 74.3075C68.0658 73.6115 67.249 72.6314 66.6595 71.3672C66.07 70.0959 65.7753 68.5938 65.7753 66.8608C65.7753 65.142 66.07 63.6506 66.6595 62.3864C67.249 61.1222 68.0693 60.1456 69.1205 59.4567C70.1716 58.7678 71.3861 58.4233 72.7639 58.4233C73.8293 58.4233 74.6709 58.6009 75.2888 58.956C75.9138 59.304 76.3896 59.7017 76.7164 60.1491C77.0502 60.5895 77.3094 60.9517 77.4941 61.2358H77.7071V53.1818H80.2213V75H77.7923V72.4858H77.4941C77.3094 72.7841 77.0466 73.1605 76.7057 73.6151C76.3648 74.0625 75.8783 74.4638 75.2462 74.8189C74.6141 75.1669 73.7725 75.3409 72.7213 75.3409ZM73.0622 73.0824C74.0708 73.0824 74.923 72.8196 75.6191 72.294C76.3151 71.7614 76.8442 71.0263 77.2064 70.0888C77.5686 69.1442 77.7497 68.054 77.7497 66.8182C77.7497 65.5966 77.5722 64.5277 77.2171 63.6115C76.862 62.6882 76.3364 61.9709 75.6404 61.4595C74.9443 60.9411 74.085 60.6818 73.0622 60.6818C71.9969 60.6818 71.1091 60.9553 70.3989 61.5021C69.6958 62.0419 69.1666 62.777 68.8115 63.7074C68.4635 64.6307 68.2895 65.6676 68.2895 66.8182C68.2895 67.983 68.4671 69.0412 68.8222 69.9929C69.1844 70.9375 69.7171 71.6903 70.4202 72.2514C71.1304 72.8054 72.0111 73.0824 73.0622 73.0824ZM85.1752 75V58.6364H87.6041V61.108H87.7746C88.0729 60.2983 88.6127 59.6413 89.3939 59.1371C90.1752 58.6328 91.0558 58.3807 92.036 58.3807C92.2206 58.3807 92.4514 58.3842 92.7284 58.3913C93.0054 58.3984 93.2149 58.4091 93.357 58.4233V60.9801C93.2718 60.9588 93.0764 60.9268 92.771 60.8842C92.4727 60.8345 92.1567 60.8097 91.8229 60.8097C91.0274 60.8097 90.3172 60.9766 89.6922 61.3104C89.0743 61.6371 88.5843 62.0916 88.222 62.674C87.8669 63.2493 87.6894 63.9062 87.6894 64.6449V75H85.1752ZM102.7 75.3409C101.123 75.3409 99.7632 74.9929 98.6198 74.2969C97.4834 73.5938 96.6063 72.6136 95.9884 71.3565C95.3776 70.0923 95.0722 68.6222 95.0722 66.946C95.0722 65.2699 95.3776 63.7926 95.9884 62.5142C96.6063 61.2287 97.4656 60.2273 98.5665 59.5099C99.6744 58.7855 100.967 58.4233 102.444 58.4233C103.297 58.4233 104.138 58.5653 104.969 58.8494C105.8 59.1335 106.557 59.5952 107.238 60.2344C107.92 60.8665 108.464 61.7045 108.868 62.7486C109.273 63.7926 109.476 65.0781 109.476 66.6051V67.6705H96.8619V65.4972H106.919C106.919 64.5739 106.734 63.75 106.365 63.0256C106.003 62.3011 105.484 61.7294 104.809 61.3104C104.142 60.8913 103.353 60.6818 102.444 60.6818C101.443 60.6818 100.576 60.9304 99.8449 61.4276C99.1205 61.9176 98.5629 62.5568 98.1723 63.3452C97.7817 64.1335 97.5864 64.9787 97.5864 65.8807V67.3295C97.5864 68.5653 97.7994 69.6129 98.2256 70.4723C98.6588 71.3246 99.259 71.9744 100.026 72.4219C100.793 72.8622 101.684 73.0824 102.7 73.0824C103.361 73.0824 103.957 72.9901 104.49 72.8054C105.03 72.6136 105.495 72.3295 105.885 71.9531C106.276 71.5696 106.578 71.0937 106.791 70.5256L109.22 71.2074C108.964 72.0312 108.535 72.7557 107.931 73.3807C107.327 73.9986 106.581 74.4815 105.694 74.8295C104.806 75.1705 103.808 75.3409 102.7 75.3409ZM115.814 65.1562V75H113.3V58.6364H115.729V61.1932H115.942C116.326 60.3622 116.908 59.6946 117.689 59.1903C118.471 58.679 119.479 58.4233 120.715 58.4233C121.823 58.4233 122.792 58.6506 123.623 59.1051C124.454 59.5526 125.101 60.2344 125.562 61.1506C126.024 62.0597 126.255 63.2102 126.255 64.6023V75H123.741V64.7727C123.741 63.4872 123.407 62.4858 122.739 61.7685C122.071 61.044 121.155 60.6818 119.991 60.6818C119.188 60.6818 118.471 60.8558 117.839 61.2038C117.214 61.5518 116.72 62.0597 116.358 62.7273C115.995 63.3949 115.814 64.2045 115.814 65.1562Z"></path>
</svg>
