<svg version="1.1" xmlns="http://www.w3.org/2000/svg" xmlns:xlink="http://www.w3.org/1999/xlink" width="241.67875" height="14.73972" viewBox="0,0,241.67875,14.73972"><g transform="translate(-119.16062,-172.63014)"><g data-paper-data="{&quot;isPaintingLayer&quot;:true}" fill="#ffffff" fill-rule="nonzero" stroke="none" stroke-width="1" stroke-linecap="butt" stroke-linejoin="miter" stroke-miterlimit="10" stroke-dasharray="" stroke-dashoffset="0" style="mix-blend-mode: normal"><path d="M122.19528,184.07511l-3.03466,-11.09815h1.3656l2.31933,9.03892h0.10838l2.36272,-9.03892h1.51732l2.36268,9.03892h0.10838l2.31936,-9.03892h1.36558l-3.03463,11.09815h-1.38729l-2.44938,-8.84384h-0.08669l-2.44941,8.84384zM135.76991,179.06794v5.00717h-1.27888v-11.09815h1.27888v4.07511h0.10841c0.19507,-0.42992 0.48768,-0.7713 0.87786,-1.0242c0.3938,-0.25649 0.91763,-0.38474 1.57152,-0.38474c0.56719,0 1.06394,0.11378 1.49023,0.34138c0.42629,0.22401 0.75686,0.56901 0.99168,1.03504c0.23844,0.46244 0.35766,1.05128 0.35766,1.76659v5.28897h-1.27888v-5.20225c0,-0.66114 -0.17161,-1.17232 -0.5148,-1.5336c-0.3396,-0.36487 -0.81107,-0.54732 -1.41438,-0.54732c-0.41907,0 -0.79479,0.08851 -1.12714,0.26553c-0.32876,0.17705 -0.58887,0.43535 -0.78035,0.77492c-0.18786,0.3396 -0.2818,0.75146 -0.2818,1.23555zM145.95631,184.27018c-0.52745,0 -1.00611,-0.09935 -1.43602,-0.29805c-0.42992,-0.20229 -0.7713,-0.49312 -1.0242,-0.87246c-0.2529,-0.38293 -0.37934,-0.84537 -0.37934,-1.38726c0,-0.47687 0.09394,-0.86342 0.2818,-1.15966c0.18786,-0.29986 0.43895,-0.53471 0.75324,-0.7045c0.31429,-0.16977 0.6611,-0.29623 1.04044,-0.37931c0.38296,-0.08673 0.7677,-0.15536 1.15426,-0.20594c0.50577,-0.06502 0.91582,-0.11378 1.23011,-0.14631c0.31792,-0.03612 0.54914,-0.09572 0.69363,-0.17883c0.14815,-0.0831 0.22219,-0.2276 0.22219,-0.43351v-0.04336c0,-0.53467 -0.1463,-0.95012 -0.43894,-1.24636c-0.28902,-0.29627 -0.72793,-0.44438 -1.31681,-0.44438c-0.61056,0 -1.08924,0.13368 -1.43605,0.40102c-0.34682,0.26734 -0.59066,0.55273 -0.73156,0.85621l-1.21386,-0.43354c0.21675,-0.50577 0.50577,-0.89954 0.86705,-1.18134c0.36487,-0.28539 0.76227,-0.48409 1.19219,-0.59609c0.43351,-0.11559 0.85981,-0.17339 1.27888,-0.17339c0.26734,0 0.57441,0.03249 0.92122,0.09753c0.35044,0.06142 0.68823,0.18967 1.01336,0.38474c0.32876,0.19511 0.60153,0.48953 0.81828,0.8833c0.21675,0.3938 0.32513,0.92125 0.32513,1.58236v5.48405h-1.27888v-1.12717h-0.06501c-0.08673,0.18064 -0.23122,0.37394 -0.43354,0.57985c-0.20229,0.20591 -0.47144,0.38115 -0.80741,0.52564c-0.33601,0.14453 -0.74602,0.21676 -1.23014,0.21676zM146.15142,183.12136c0.50577,0 0.93206,-0.09935 1.27888,-0.29805c0.35044,-0.1987 0.61415,-0.45519 0.79117,-0.76951c0.18064,-0.31429 0.27096,-0.64486 0.27096,-0.99168v-1.1705c-0.05417,0.06505 -0.17339,0.12465 -0.35765,0.17883c-0.18064,0.05058 -0.39018,0.09572 -0.62862,0.13546c-0.23481,0.03615 -0.46422,0.06867 -0.68819,0.09757c-0.22038,0.02528 -0.39921,0.04696 -0.53649,0.06502c-0.33238,0.04336 -0.64308,0.11381 -0.93209,0.21135c-0.28539,0.09391 -0.51662,0.23662 -0.69363,0.42811c-0.17339,0.18786 -0.26012,0.44435 -0.26012,0.76948c0,0.44438 0.16439,0.78036 0.49315,1.00795c0.33235,0.22397 0.75324,0.33597 1.26264,0.33597zM155.72548,175.7515v1.0838h-4.31348v-1.0838zM152.66904,173.75731h1.27898v7.93343c0,0.36128 0.05245,0.6322 0.15705,0.81285c0.10841,0.17701 0.24575,0.29623 0.41202,0.35766c0.16977,0.0578 0.34844,0.08669 0.53633,0.08669c0.14084,0 0.25656,-0.00722 0.34685,-0.02165c0.09029,-0.01809 0.16277,-0.03252 0.21682,-0.04336l0.26006,1.14882c-0.08679,0.03252 -0.2076,0.06504 -0.36306,0.09756c-0.15514,0.03612 -0.35225,0.05417 -0.59069,0.05417c-0.36115,0 -0.71531,-0.07767 -1.06216,-0.233c-0.34303,-0.15537 -0.62852,-0.39199 -0.85615,-0.70991c-0.22381,-0.31792 -0.33604,-0.71893 -0.33604,-1.20302zM161.94106,184.07511v-8.3236h1.27897v8.3236zM162.59151,174.36421c-0.24957,0 -0.46447,-0.08489 -0.64505,-0.25468c-0.17708,-0.1698 -0.26546,-0.3739 -0.26546,-0.61234c0,-0.23844 0.08838,-0.44257 0.26546,-0.61237c0.18058,-0.1698 0.39548,-0.25468 0.64505,-0.25468c0.24925,0 0.46225,0.08488 0.63933,0.25468c0.18058,0.1698 0.27086,0.37393 0.27086,0.61237c0,0.23844 -0.09029,0.44254 -0.27086,0.61234c-0.17708,0.1698 -0.39008,0.25468 -0.63933,0.25468zM171.45818,177.61563l-1.14863,0.32513c-0.07249,-0.19145 -0.17899,-0.37752 -0.31982,-0.55813c-0.13734,-0.18427 -0.32523,-0.33601 -0.56367,-0.45523c-0.23844,-0.11922 -0.54364,-0.17883 -0.91592,-0.17883c-0.5093,0 -0.93372,0.11744 -1.27325,0.35225c-0.33604,0.23122 -0.50389,0.52564 -0.50389,0.88329c0,0.31792 0.1154,0.56901 0.34653,0.75324c0.23144,0.18427 0.59259,0.33779 1.08409,0.46063l1.23542,0.30345c0.74424,0.18064 1.29868,0.457 1.66365,0.82912c0.36497,0.3685 0.54713,0.84355 0.54713,1.42518c0,0.47687 -0.13702,0.9032 -0.4117,1.27891c-0.27086,0.37571 -0.65014,0.67195 -1.13814,0.8887c-0.48768,0.21675 -1.05485,0.32516 -1.70148,0.32516c-0.84884,0 -1.55175,-0.18426 -2.1081,-0.55276c-0.55635,-0.3685 -0.90829,-0.90679 -1.05644,-1.61486l1.2138,-0.30348c0.1154,0.44797 0.33413,0.78395 0.65554,1.00795c0.32523,0.22397 0.74964,0.33597 1.27357,0.33597c0.59609,0 1.06947,-0.12644 1.41982,-0.37934c0.35416,-0.25649 0.53092,-0.56357 0.53092,-0.92122c0,-0.28902 -0.1011,-0.53108 -0.30329,-0.72615c-0.20251,-0.1987 -0.51312,-0.34682 -0.93213,-0.44435l-1.38738,-0.32516c-0.76204,-0.18061 -1.32221,-0.4606 -1.67987,-0.83993c-0.35384,-0.38293 -0.53092,-0.86162 -0.53092,-1.43603c0,-0.46966 0.13193,-0.88511 0.39548,-1.24639c0.26737,-0.36128 0.63043,-0.64486 1.08918,-0.85077c0.46257,-0.20595 0.98649,-0.30889 1.57145,-0.30889c0.82372,0 1.47036,0.18063 1.94024,0.54188c0.47306,0.36128 0.8091,0.83815 1.0078,1.43062zM181.44678,175.7515v1.0838h-4.31348v-1.0838zM178.39066,173.75731h1.27866v7.93343c0,0.36128 0.05245,0.6322 0.15737,0.81285c0.10841,0.17701 0.24543,0.29623 0.4117,0.35766c0.16977,0.0578 0.34875,0.08669 0.53664,0.08669c0.14084,0 0.25624,-0.00722 0.34653,-0.02165c0.09061,-0.01809 0.16277,-0.03252 0.21682,-0.04336l0.26006,1.14882c-0.08647,0.03252 -0.2076,0.06504 -0.36306,0.09756c-0.15514,0.03612 -0.35225,0.05417 -0.59069,0.05417c-0.36115,0 -0.71531,-0.07767 -1.06184,-0.233c-0.34335,-0.15537 -0.62884,-0.39199 -0.85647,-0.70991c-0.22381,-0.31792 -0.33572,-0.71893 -0.33572,-1.20302zM184.82845,179.06794v5.00717h-1.27897v-11.09815h1.27897v4.07511h0.10809c0.1952,-0.42992 0.488,-0.7713 0.87808,-1.0242c0.39358,-0.25649 0.91751,-0.38474 1.57146,-0.38474c0.56716,0 1.06406,0.11378 1.49007,0.34138c0.42633,0.22401 0.75696,0.56901 0.9919,1.03504c0.23844,0.46244 0.35765,1.05128 0.35765,1.76659v5.28897h-1.27897v-5.20225c0,-0.66114 -0.17167,-1.17232 -0.5147,-1.5336c-0.33953,-0.36487 -0.811,-0.54732 -1.41441,-0.54732c-0.41901,0 -0.79479,0.08851 -1.12733,0.26553c-0.32873,0.17705 -0.58878,0.43535 -0.78017,0.77492c-0.18789,0.3396 -0.28167,0.75146 -0.28167,1.23555zM196.05501,184.24853c-0.80178,0 -1.49357,-0.17705 -2.07535,-0.53108c-0.57797,-0.35766 -1.02433,-0.85621 -1.33843,-1.49564c-0.3106,-0.64308 -0.46606,-1.39088 -0.46606,-2.2435c0,-0.85259 0.15546,-1.60401 0.46606,-2.25431c0.3141,-0.65389 0.75124,-1.16328 1.31141,-1.52816c0.56367,-0.3685 1.22112,-0.55273 1.97235,-0.55273c0.43364,0 0.86187,0.07223 1.28438,0.21675c0.42283,0.14449 0.80751,0.37933 1.15435,0.70447c0.34685,0.32154 0.62311,0.74784 0.82912,1.27888c0.20601,0.53108 0.3087,1.18497 0.3087,1.9617v0.54189h-6.41586v-1.10546h5.11527c0,-0.46966 -0.09378,-0.88873 -0.28167,-1.25723c-0.18407,-0.3685 -0.44795,-0.65933 -0.7913,-0.87246c-0.33953,-0.21317 -0.74043,-0.31973 -1.20299,-0.31973c-0.5093,0 -0.94993,0.12644 -1.32221,0.37934c-0.36847,0.24928 -0.65205,0.57441 -0.85074,0.97543c-0.1987,0.40099 -0.29789,0.83091 -0.29789,1.28972v0.73699c0,0.62858 0.10841,1.16147 0.32491,1.59861c0.22064,0.43351 0.52583,0.76408 0.91591,0.99167c0.39008,0.22397 0.84343,0.33597 1.36004,0.33597c0.33604,0 0.63965,-0.04696 0.91051,-0.1409c0.27468,-0.09753 0.51121,-0.24203 0.7099,-0.43351c0.1987,-0.19507 0.35225,-0.43714 0.46066,-0.72615l1.23542,0.34682c-0.13003,0.41907 -0.34844,0.78757 -0.65554,1.10549c-0.30711,0.31429 -0.68638,0.55998 -1.13814,0.73699c-0.45144,0.17339 -0.95915,0.26012 -1.52282,0.26012zM205.91231,184.07511v-11.09815h6.69785v1.19219h-5.35402v3.74998h5.00718v1.19218h-5.00718v3.77163h5.44081v1.19218zM217.30864,184.27018c-0.52742,0 -1.0062,-0.09935 -1.43602,-0.29805c-0.43014,-0.20229 -0.77126,-0.49312 -1.02433,-0.87246c-0.25274,-0.38293 -0.37928,-0.84537 -0.37928,-1.38726c0,-0.47687 0.09379,-0.86342 0.28168,-1.15966c0.18789,-0.29986 0.43904,-0.53471 0.75346,-0.7045c0.3141,-0.16977 0.66095,-0.29623 1.04022,-0.37931c0.38309,-0.08673 0.76777,-0.15536 1.15435,-0.20594c0.50581,-0.06502 0.91591,-0.11378 1.23001,-0.14631c0.31792,-0.03612 0.54936,-0.09572 0.6937,-0.17883c0.14815,-0.0831 0.22222,-0.2276 0.22222,-0.43351v-0.04336c0,-0.53467 -0.14625,-0.95012 -0.43904,-1.24636c-0.28898,-0.29627 -0.72771,-0.44438 -1.31681,-0.44438c-0.6104,0 -1.08918,0.13368 -1.43603,0.40102c-0.34685,0.26734 -0.59069,0.55273 -0.73152,0.85621l-1.2138,-0.43354c0.21682,-0.50577 0.5058,-0.89954 0.86696,-1.18134c0.36497,-0.28539 0.76237,-0.48409 1.19219,-0.59609c0.43364,-0.11559 0.85996,-0.17339 1.27897,-0.17339c0.26737,0 0.57447,0.03249 0.92132,0.09753c0.35034,0.06142 0.68797,0.18967 1.0132,0.38474c0.32873,0.19511 0.60149,0.48953 0.81831,0.8833c0.21682,0.3938 0.32523,0.92125 0.32523,1.58236v5.48405h-1.27897v-1.12717h-0.06518c-0.08647,0.18064 -0.23112,0.37394 -0.43332,0.57985c-0.20251,0.20591 -0.47147,0.38115 -0.80751,0.52564c-0.33604,0.14453 -0.74615,0.21676 -1.23002,0.21676zM217.50353,183.12136c0.50581,0 0.93213,-0.09935 1.27897,-0.29805c0.35034,-0.1987 0.61421,-0.45519 0.79129,-0.76951c0.18058,-0.31429 0.27087,-0.64486 0.27087,-0.99168v-1.1705c-0.05405,0.06505 -0.17326,0.12465 -0.35766,0.17883c-0.18058,0.05058 -0.39008,0.09572 -0.62852,0.13546c-0.23494,0.03615 -0.46415,0.06867 -0.68829,0.09757c-0.22032,0.02528 -0.3993,0.04696 -0.53664,0.06502c-0.33222,0.04336 -0.64283,0.11381 -0.93181,0.21135c-0.28549,0.09391 -0.51661,0.23662 -0.69369,0.42811c-0.17358,0.18786 -0.26006,0.44435 -0.26006,0.76948c0,0.44438 0.16436,0.78036 0.49309,1.00795c0.33222,0.22397 0.75314,0.33597 1.26244,0.33597zM223.45777,184.07511v-8.3236h1.23542v1.2572h0.08679c0.15165,-0.41183 0.42633,-0.74602 0.82372,-1.00252c0.3974,-0.25649 0.84534,-0.38474 1.34383,-0.38474c0.0941,0 0.21141,0.00181 0.35225,0.00541c0.14084,0.00362 0.24766,0.00903 0.31982,0.01628v1.30056c-0.04324,-0.01084 -0.14275,-0.02709 -0.29821,-0.04877c-0.15165,-0.02531 -0.31219,-0.03793 -0.48228,-0.03793c-0.40439,0 -0.76586,0.08489 -1.08378,0.25468c-0.3141,0.16617 -0.56334,0.3974 -0.74774,0.69363c-0.18058,0.29264 -0.27087,0.6268 -0.27087,1.00251v5.26729zM233.27692,175.7515v1.0838h-4.31348v-1.0838zM230.22079,173.75731h1.27897v7.93343c0,0.36128 0.05214,0.6322 0.15705,0.81285c0.10841,0.17701 0.24575,0.29623 0.4117,0.35766c0.16977,0.0578 0.34875,0.08669 0.53664,0.08669c0.14084,0 0.25656,-0.00722 0.34685,-0.02165c0.09029,-0.01809 0.16245,-0.03252 0.21682,-0.04336l0.26005,1.14882c-0.08679,0.03252 -0.20791,0.06504 -0.36306,0.09756c-0.15546,0.03612 -0.35225,0.05417 -0.59069,0.05417c-0.36147,0 -0.71531,-0.07767 -1.06216,-0.233c-0.34335,-0.15537 -0.62852,-0.39199 -0.85615,-0.70991c-0.22413,-0.31792 -0.33604,-0.71893 -0.33604,-1.20302zM236.65859,179.06794v5.00717h-1.27897v-11.09815h1.27897v4.07511h0.10841c0.19488,-0.42992 0.48768,-0.7713 0.87777,-1.0242c0.3939,-0.25649 0.9175,-0.38474 1.57145,-0.38474c0.56716,0 1.06406,0.11378 1.49039,0.34138c0.42633,0.22401 0.75664,0.56901 0.99158,1.03504c0.23844,0.46244 0.35766,1.05128 0.35766,1.76659v5.28897h-1.27897v-5.20225c0,-0.66114 -0.17136,-1.17232 -0.51471,-1.5336c-0.33953,-0.36487 -0.811,-0.54732 -1.41441,-0.54732c-0.41901,0 -0.79479,0.08851 -1.12701,0.26553c-0.32873,0.17705 -0.58909,0.43535 -0.78048,0.77492c-0.18789,0.3396 -0.28167,0.75146 -0.28167,1.23555zM245.5011,172.97695v3.81499h-1.19219v-3.81499zM253.6744,177.61563l-1.14895,0.32513c-0.07217,-0.19145 -0.17899,-0.37752 -0.31982,-0.55813c-0.13734,-0.18427 -0.32523,-0.33601 -0.56367,-0.45523c-0.23844,-0.11922 -0.54363,-0.17883 -0.9156,-0.17883c-0.5093,0 -0.93404,0.11744 -1.27357,0.35225c-0.33604,0.23122 -0.5039,0.52564 -0.5039,0.88329c0,0.31792 0.11572,0.56901 0.34685,0.75324c0.23113,0.18427 0.59228,0.33779 1.08378,0.46063l1.23542,0.30345c0.74424,0.18064 1.29868,0.457 1.66365,0.82912c0.36497,0.3685 0.54745,0.84355 0.54745,1.42518c0,0.47687 -0.13734,0.9032 -0.41202,1.27891c-0.27086,0.37571 -0.65014,0.67195 -1.13782,0.8887c-0.48768,0.21675 -1.05485,0.32516 -1.70149,0.32516c-0.84916,0 -1.55175,-0.18426 -2.1081,-0.55276c-0.55635,-0.3685 -0.9086,-0.90679 -1.05675,-1.61486l1.2138,-0.30348c0.11572,0.44797 0.33413,0.78395 0.65586,1.00795c0.32491,0.22397 0.74965,0.33597 1.27325,0.33597c0.59609,0 1.06947,-0.12644 1.41981,-0.37934c0.35416,-0.25649 0.53124,-0.56357 0.53124,-0.92122c0,-0.28902 -0.1011,-0.53108 -0.30361,-0.72615c-0.20219,-0.1987 -0.5128,-0.34682 -0.93213,-0.44435l-1.38707,-0.32516c-0.76236,-0.18061 -1.32221,-0.4606 -1.67987,-0.83993c-0.35416,-0.38293 -0.53124,-0.86162 -0.53124,-1.43603c0,-0.46966 0.13194,-0.88511 0.39549,-1.24639c0.26737,-0.36128 0.63043,-0.64486 1.0895,-0.85077c0.46225,-0.20595 0.98617,-0.30889 1.57145,-0.30889c0.82372,0 1.47037,0.18063 1.93993,0.54188c0.47338,0.36128 0.80942,0.83815 1.00811,1.43062zM261.32186,172.97695v11.09815h-1.27897v-11.09815zM266.11349,184.27018c-0.52742,0 -1.00589,-0.09935 -1.43603,-0.29805c-0.42982,-0.20229 -0.77126,-0.49312 -1.024,-0.87246c-0.25306,-0.38293 -0.37928,-0.84537 -0.37928,-1.38726c0,-0.47687 0.09379,-0.86342 0.28168,-1.15966c0.18789,-0.29986 0.43904,-0.53471 0.75314,-0.7045c0.31442,-0.16977 0.66127,-0.29623 1.04054,-0.37931c0.38309,-0.08673 0.76777,-0.15536 1.15435,-0.20594c0.50581,-0.06502 0.91559,-0.11378 1.23001,-0.14631c0.31792,-0.03612 0.54904,-0.09572 0.69369,-0.17883c0.14815,-0.0831 0.22222,-0.2276 0.22222,-0.43351v-0.04336c0,-0.53467 -0.14656,-0.95012 -0.43904,-1.24636c-0.28898,-0.29627 -0.72803,-0.44438 -1.31681,-0.44438c-0.61071,0 -1.08918,0.13368 -1.43602,0.40102c-0.34685,0.26734 -0.59069,0.55273 -0.73152,0.85621l-1.2138,-0.43354c0.2165,-0.50577 0.50548,-0.89954 0.86696,-1.18134c0.36497,-0.28539 0.76236,-0.48409 1.19218,-0.59609c0.43332,-0.11559 0.85965,-0.17339 1.27898,-0.17339c0.26705,0 0.57415,0.03249 0.921,0.09753c0.35066,0.06142 0.68829,0.18967 1.01352,0.38474c0.32873,0.19511 0.6015,0.48953 0.81832,0.8833c0.2165,0.3938 0.32491,0.92125 0.32491,1.58236v5.48405h-1.27866v-1.12717h-0.06517c-0.08679,0.18064 -0.23112,0.37394 -0.43364,0.57985c-0.20219,0.20591 -0.47115,0.38115 -0.80719,0.52564c-0.33604,0.14453 -0.74615,0.21676 -1.23034,0.21676zM266.30869,183.12136c0.50581,0 0.93213,-0.09935 1.27897,-0.29805c0.35034,-0.1987 0.61422,-0.45519 0.79098,-0.76951c0.1809,-0.31429 0.27118,-0.64486 0.27118,-0.99168v-1.1705c-0.05437,0.06505 -0.17358,0.12465 -0.35766,0.17883c-0.1809,0.05058 -0.3904,0.09572 -0.62883,0.13546c-0.23462,0.03615 -0.46416,0.06867 -0.68797,0.09757c-0.22064,0.02528 -0.3993,0.04696 -0.53664,0.06502c-0.33222,0.04336 -0.64314,0.11381 -0.93212,0.21135c-0.28517,0.09391 -0.51662,0.23662 -0.6937,0.42811c-0.17326,0.18786 -0.26005,0.44435 -0.26005,0.76948c0,0.44438 0.16436,0.78036 0.49309,1.00795c0.33254,0.22397 0.75346,0.33597 1.26276,0.33597zM272.26294,184.07511v-8.3236h1.23542v1.2572h0.08679c0.15165,-0.41183 0.42632,-0.74602 0.82372,-1.00252c0.3974,-0.25649 0.84534,-0.38474 1.34383,-0.38474c0.09378,0 0.21141,0.00181 0.35225,0.00541c0.14084,0.00362 0.24734,0.00903 0.31982,0.01628v1.30056c-0.04356,-0.01084 -0.14274,-0.02709 -0.2982,-0.04877c-0.15165,-0.02531 -0.31252,-0.03793 -0.48228,-0.03793c-0.40471,0 -0.76586,0.08489 -1.08377,0.25468c-0.31442,0.16617 -0.56367,0.3974 -0.74774,0.69363c-0.18058,0.29264 -0.27118,0.6268 -0.27118,1.00251v5.26729zM281.04695,187.36986c-0.61771,0 -1.14863,-0.07948 -1.59308,-0.23843c-0.44445,-0.15533 -0.8145,-0.36125 -1.1108,-0.61774c-0.2928,-0.2529 -0.52583,-0.52386 -0.6991,-0.81288l1.0186,-0.71531c0.11572,0.15174 0.26196,0.32517 0.43904,0.52024c0.17708,0.1987 0.41902,0.37031 0.72612,0.5148c0.3106,0.14812 0.71722,0.22219 1.21921,0.22219c0.67208,0 1.22652,-0.16258 1.66365,-0.48772c0.43713,-0.32513 0.65586,-0.83453 0.65586,-1.52816v-1.69074h-0.10841c-0.0941,0.15174 -0.22763,0.3396 -0.40089,0.56357c-0.17009,0.22038 -0.41551,0.41726 -0.73724,0.59069c-0.31792,0.1698 -0.74774,0.25468 -1.28947,0.25468c-0.67208,0 -1.27548,-0.15896 -1.81021,-0.47687c-0.53092,-0.31792 -0.95184,-0.78033 -1.26244,-1.38726c-0.30711,-0.60693 -0.46066,-1.34392 -0.46066,-2.21097c0,-0.85259 0.15006,-1.59499 0.44985,-2.22723c0.29979,-0.63583 0.7169,-1.12714 1.25163,-1.47395c0.53474,-0.35044 1.15245,-0.52564 1.85345,-0.52564c0.54173,0 0.97187,0.09032 1.28978,0.27093c0.32141,0.17705 0.56716,0.37933 0.73693,0.60693c0.17326,0.22401 0.30711,0.40824 0.40089,0.55276h0.13003v-1.32224h1.23574v8.56204c0,0.71531 -0.16277,1.29694 -0.488,1.74491c-0.32141,0.4516 -0.75505,0.78217 -1.30028,0.99171c-0.54205,0.21313 -1.14545,0.31969 -1.81021,0.31969zM281.00372,182.79623c0.51312,0 0.94643,-0.11741 1.30059,-0.35225c0.35416,-0.23481 0.62311,-0.5726 0.80751,-1.01336c0.18407,-0.44073 0.27627,-0.96818 0.27627,-1.58236c0,-0.59968 -0.09029,-1.12896 -0.27086,-1.58777c-0.18058,-0.45881 -0.44794,-0.81825 -0.8021,-1.07837c-0.35416,-0.26012 -0.79129,-0.39018 -1.3114,-0.39018c-0.54205,0 -0.99349,0.13728 -1.35464,0.41186c-0.35766,0.27455 -0.62693,0.64305 -0.80751,1.10546c-0.17708,0.46244 -0.26546,0.97543 -0.26546,1.539c0,0.57803 0.09029,1.08924 0.27087,1.53359c0.18407,0.44076 0.45525,0.78757 0.81291,1.04044c0.36115,0.24928 0.8091,0.37393 1.34383,0.37393zM290.47602,184.24853c-0.80178,0 -1.49357,-0.17705 -2.07535,-0.53108c-0.57797,-0.35766 -1.02432,-0.85621 -1.33842,-1.49564c-0.3106,-0.64308 -0.46607,-1.39088 -0.46607,-2.2435c0,-0.85259 0.15546,-1.60401 0.46607,-2.25431c0.3141,-0.65389 0.75123,-1.16328 1.3114,-1.52816c0.56367,-0.3685 1.22112,-0.55273 1.97235,-0.55273c0.43364,0 0.86187,0.07223 1.28438,0.21675c0.42283,0.14449 0.80751,0.37933 1.15435,0.70447c0.34685,0.32154 0.62311,0.74784 0.82912,1.27888c0.20601,0.53108 0.3087,1.18497 0.3087,1.9617v0.54189h-6.41586v-1.10546h5.11527c0,-0.46966 -0.09378,-0.88873 -0.28167,-1.25723c-0.18407,-0.3685 -0.44794,-0.65933 -0.79129,-0.87246c-0.33953,-0.21317 -0.74043,-0.31973 -1.203,-0.31973c-0.5093,0 -0.94993,0.12644 -1.32221,0.37934c-0.36847,0.24928 -0.65205,0.57441 -0.85074,0.97543c-0.1987,0.40099 -0.29789,0.83091 -0.29789,1.28972v0.73699c0,0.62858 0.10841,1.16147 0.32491,1.59861c0.22064,0.43351 0.52583,0.76408 0.91592,0.99167c0.39008,0.22397 0.84343,0.33597 1.36004,0.33597c0.33604,0 0.63965,-0.04696 0.91052,-0.1409c0.27468,-0.09753 0.51121,-0.24203 0.7099,-0.43351c0.1987,-0.19507 0.35225,-0.43714 0.46066,-0.72615l1.23542,0.34682c-0.13003,0.41907 -0.34844,0.78757 -0.65554,1.10549c-0.30711,0.31429 -0.68638,0.55998 -1.13814,0.73699c-0.45144,0.17339 -0.95915,0.26012 -1.52282,0.26012zM301.76394,177.61563l-1.14863,0.32513c-0.07249,-0.19145 -0.17898,-0.37752 -0.31982,-0.55813c-0.13734,-0.18427 -0.32523,-0.33601 -0.56367,-0.45523c-0.23844,-0.11922 -0.54363,-0.17883 -0.91591,-0.17883c-0.5093,0 -0.93372,0.11744 -1.27325,0.35225c-0.33604,0.23122 -0.50389,0.52564 -0.50389,0.88329c0,0.31792 0.1154,0.56901 0.34653,0.75324c0.23144,0.18427 0.5926,0.33779 1.08409,0.46063l1.23542,0.30345c0.74424,0.18064 1.29868,0.457 1.66365,0.82912c0.36497,0.3685 0.54714,0.84355 0.54714,1.42518c0,0.47687 -0.13702,0.9032 -0.4117,1.27891c-0.27086,0.37571 -0.65014,0.67195 -1.13814,0.8887c-0.48768,0.21675 -1.05485,0.32516 -1.70148,0.32516c-0.84884,0 -1.55175,-0.18426 -2.1081,-0.55276c-0.55635,-0.3685 -0.90829,-0.90679 -1.05644,-1.61486l1.2138,-0.30348c0.1154,0.44797 0.33413,0.78395 0.65554,1.00795c0.32523,0.22397 0.74965,0.33597 1.27357,0.33597c0.59609,0 1.06947,-0.12644 1.41981,-0.37934c0.35416,-0.25649 0.53092,-0.56357 0.53092,-0.92122c0,-0.28902 -0.1011,-0.53108 -0.30329,-0.72615c-0.20251,-0.1987 -0.51312,-0.34682 -0.93213,-0.44435l-1.38738,-0.32516c-0.76204,-0.18061 -1.32221,-0.4606 -1.67987,-0.83993c-0.35384,-0.38293 -0.53092,-0.86162 -0.53092,-1.43603c0,-0.46966 0.13194,-0.88511 0.39549,-1.24639c0.26737,-0.36128 0.63043,-0.64486 1.08918,-0.85077c0.46257,-0.20595 0.98649,-0.30889 1.57146,-0.30889c0.82372,0 1.47036,0.18063 1.94024,0.54188c0.47306,0.36128 0.8091,0.83815 1.00779,1.43062zM307.46067,175.7515v1.0838h-4.31348v-1.0838zM304.40455,173.75731h1.27866v7.93343c0,0.36128 0.05245,0.6322 0.15737,0.81285c0.10841,0.17701 0.24543,0.29623 0.4117,0.35766c0.16977,0.0578 0.34875,0.08669 0.53664,0.08669c0.14084,0 0.25624,-0.00722 0.34653,-0.02165c0.09061,-0.01809 0.16277,-0.03252 0.21682,-0.04336l0.26005,1.14882c-0.08647,0.03252 -0.2076,0.06504 -0.36306,0.09756c-0.15514,0.03612 -0.35225,0.05417 -0.59069,0.05417c-0.36115,0 -0.71531,-0.07767 -1.06184,-0.233c-0.34335,-0.15537 -0.62883,-0.39199 -0.85646,-0.70991c-0.22381,-0.31792 -0.33572,-0.71893 -0.33572,-1.20302zM317.05792,184.24853c-0.75155,0 -1.41091,-0.17883 -1.97807,-0.53648c-0.56367,-0.35766 -1.0043,-0.85802 -1.32221,-1.50107c-0.31442,-0.64308 -0.47147,-1.39451 -0.47147,-2.25431c0,-0.86705 0.15705,-1.62391 0.47147,-2.27059c0.31792,-0.64667 0.75855,-1.14882 1.32221,-1.50647c0.56716,-0.35766 1.22652,-0.53648 1.97807,-0.53648c0.75123,0 1.409,0.17883 1.97235,0.53648c0.56716,0.35766 1.00811,0.8598 1.32221,1.50647c0.31792,0.64667 0.47687,1.40353 0.47687,2.27059c0,0.8598 -0.15896,1.61123 -0.47687,2.25431c-0.3141,0.64305 -0.75505,1.14342 -1.32221,1.50107c-0.56335,0.35766 -1.22112,0.53648 -1.97235,0.53648zM317.05792,183.09968c0.57066,0 1.04022,-0.1463 1.409,-0.43894c0.36847,-0.29261 0.64124,-0.67735 0.818,-1.15423c0.17708,-0.47687 0.26578,-0.99349 0.26578,-1.54984c0,-0.55635 -0.0887,-1.07478 -0.26578,-1.55527c-0.17676,-0.4805 -0.44953,-0.86883 -0.818,-1.1651c-0.36878,-0.29623 -0.83834,-0.44435 -1.409,-0.44435c-0.57098,0 -1.04053,0.14812 -1.409,0.44435c-0.36847,0.29627 -0.64124,0.6846 -0.81832,1.1651c-0.17708,0.4805 -0.26546,0.99892 -0.26546,1.55527c0,0.55635 0.08838,1.07297 0.26546,1.54984c0.17708,0.47687 0.44985,0.86162 0.81832,1.15423c0.36847,0.29264 0.83802,0.43894 1.409,0.43894zM322.78167,184.07511v-8.3236h1.23542v1.2572h0.08679c0.15165,-0.41183 0.42633,-0.74602 0.82372,-1.00252c0.3974,-0.25649 0.84534,-0.38474 1.34383,-0.38474c0.0941,0 0.21141,0.00181 0.35225,0.00541c0.14084,0.00362 0.24766,0.00903 0.31982,0.01628v1.30056c-0.04356,-0.01084 -0.14274,-0.02709 -0.2982,-0.04877c-0.15165,-0.02531 -0.31251,-0.03793 -0.48228,-0.03793c-0.40439,0 -0.76586,0.08489 -1.08378,0.25468c-0.3141,0.16617 -0.56366,0.3974 -0.74774,0.69363c-0.18058,0.29264 -0.27086,0.6268 -0.27086,1.00251v5.26729zM331.566,187.36986c-0.61803,0 -1.14895,-0.07948 -1.59339,-0.23843c-0.44413,-0.15533 -0.8145,-0.36125 -1.1108,-0.61774c-0.2928,-0.2529 -0.52551,-0.52386 -0.6991,-0.81288l1.01892,-0.71531c0.1154,0.15174 0.26164,0.32517 0.43872,0.52024c0.17708,0.1987 0.41901,0.37031 0.72612,0.5148c0.31092,0.14812 0.71722,0.22219 1.21953,0.22219c0.67176,0 1.22652,-0.16258 1.66365,-0.48772c0.43713,-0.32513 0.65554,-0.83453 0.65554,-1.52816v-1.69074h-0.10841c-0.09378,0.15174 -0.22763,0.3396 -0.40089,0.56357c-0.16977,0.22038 -0.41552,0.41726 -0.73693,0.59069c-0.31792,0.1698 -0.74805,0.25468 -1.28978,0.25468c-0.67208,0 -1.27548,-0.15896 -1.80989,-0.47687c-0.53124,-0.31792 -0.95216,-0.78033 -1.26276,-1.38726c-0.30711,-0.60693 -0.46066,-1.34392 -0.46066,-2.21097c0,-0.85259 0.15006,-1.59499 0.44985,-2.22723c0.29979,-0.63583 0.71722,-1.12714 1.25163,-1.47395c0.53474,-0.35044 1.15244,-0.52564 1.85345,-0.52564c0.54205,0 0.97187,0.09032 1.28979,0.27093c0.32141,0.17705 0.56716,0.37933 0.73693,0.60693c0.17326,0.22401 0.30711,0.40824 0.40089,0.55276h0.13003v-1.32224h1.23573v8.56204c0,0.71531 -0.16277,1.29694 -0.48768,1.74491c-0.32173,0.4516 -0.75505,0.78217 -1.30059,0.99171c-0.54205,0.21313 -1.14513,0.31969 -1.80989,0.31969zM331.52245,182.79623c0.51312,0 0.94675,-0.11741 1.3006,-0.35225c0.35416,-0.23481 0.62311,-0.5726 0.80751,-1.01336c0.18407,-0.44073 0.27627,-0.96818 0.27627,-1.58236c0,-0.59968 -0.09029,-1.12896 -0.27086,-1.58777c-0.18058,-0.45881 -0.44795,-0.81825 -0.80211,-1.07837c-0.35384,-0.26012 -0.79097,-0.39018 -1.3114,-0.39018c-0.54173,0 -0.99349,0.13728 -1.35464,0.41186c-0.35766,0.27455 -0.62693,0.64305 -0.80751,1.10546c-0.17708,0.46244 -0.26546,0.97543 -0.26546,1.539c0,0.57803 0.09029,1.08924 0.27086,1.53359c0.18439,0.44076 0.45526,0.78757 0.81291,1.04044c0.36115,0.24928 0.80909,0.37393 1.34383,0.37393zM339.95453,184.27018c-0.52742,0 -1.00621,-0.09935 -1.43603,-0.29805c-0.42982,-0.20229 -0.77126,-0.49312 -1.02432,-0.87246c-0.25274,-0.38293 -0.37927,-0.84537 -0.37927,-1.38726c0,-0.47687 0.0941,-0.86342 0.28199,-1.15966c0.18757,-0.29986 0.43872,-0.53471 0.75314,-0.7045c0.3141,-0.16977 0.66095,-0.29623 1.04054,-0.37931c0.38277,-0.08673 0.76745,-0.15536 1.15403,-0.20594c0.50581,-0.06502 0.91591,-0.11378 1.23033,-0.14631c0.31792,-0.03612 0.54904,-0.09572 0.69337,-0.17883c0.14815,-0.0831 0.22222,-0.2276 0.22222,-0.43351v-0.04336c0,-0.53467 -0.14624,-0.95012 -0.43872,-1.24636c-0.2893,-0.29627 -0.72803,-0.44438 -1.31681,-0.44438c-0.61071,0 -1.0895,0.13368 -1.43634,0.40102c-0.34653,0.26734 -0.59037,0.55273 -0.73152,0.85621l-1.2138,-0.43354c0.21682,-0.50577 0.5058,-0.89954 0.86696,-1.18134c0.36497,-0.28539 0.76237,-0.48409 1.19219,-0.59609c0.43364,-0.11559 0.85996,-0.17339 1.27897,-0.17339c0.26737,0 0.57447,0.03249 0.92132,0.09753c0.35034,0.06142 0.68829,0.18967 1.0132,0.38474c0.32873,0.19511 0.6015,0.48953 0.81832,0.8833c0.21682,0.3938 0.32523,0.92125 0.32523,1.58236v5.48405h-1.27897v-1.12717h-0.06485c-0.08679,0.18064 -0.23144,0.37394 -0.43364,0.57985c-0.20219,0.20591 -0.47147,0.38115 -0.80751,0.52564c-0.33604,0.14453 -0.74583,0.21676 -1.23002,0.21676zM340.14973,183.12136c0.50581,0 0.93181,-0.09935 1.27866,-0.29805c0.35066,-0.1987 0.61421,-0.45519 0.79129,-0.76951c0.18058,-0.31429 0.27086,-0.64486 0.27086,-0.99168v-1.1705c-0.05405,0.06505 -0.17326,0.12465 -0.35765,0.17883c-0.18058,0.05058 -0.39008,0.09572 -0.62852,0.13546c-0.23494,0.03615 -0.46416,0.06867 -0.68829,0.09757c-0.22032,0.02528 -0.39899,0.04696 -0.53633,0.06502c-0.33254,0.04336 -0.64314,0.11381 -0.93212,0.21135c-0.28549,0.09391 -0.51662,0.23662 -0.6937,0.42811c-0.17326,0.18786 -0.26005,0.44435 -0.26005,0.76948c0,0.44438 0.16436,0.78036 0.49309,1.00795c0.33222,0.22397 0.75314,0.33597 1.26276,0.33597zM347.38263,179.06794v5.00717h-1.27897v-8.3236h1.23574v1.30056h0.10841c0.19488,-0.4227 0.49118,-0.76227 0.88857,-1.01879c0.3974,-0.26009 0.91051,-0.39014 1.53903,-0.39014c0.56367,0 1.05675,0.11559 1.47926,0.34681c0.42283,0.2276 0.75156,0.57441 0.98649,1.04045c0.23462,0.46244 0.35225,1.04769 0.35225,1.75575v5.28897h-1.27897v-5.20225c0,-0.65392 -0.16977,-1.16329 -0.5093,-1.52819c-0.33985,-0.36847 -0.8056,-0.55273 -1.39819,-0.55273c-0.4082,0 -0.77317,0.08851 -1.09458,0.26553c-0.31792,0.17705 -0.56907,0.43535 -0.75346,0.77492c-0.18407,0.3396 -0.27627,0.75146 -0.27627,1.23555zM356.69916,180.95375v-0.06501c0.00731,-0.69004 0.07948,-1.23917 0.21682,-1.64738c0.13734,-0.40824 0.33254,-0.73881 0.58529,-0.99171c0.25306,-0.25287 0.55635,-0.4859 0.91051,-0.69903c0.213,-0.13006 0.40471,-0.28361 0.57448,-0.46063c0.16977,-0.18064 0.30329,-0.38837 0.40089,-0.62318c0.1011,-0.23484 0.15165,-0.49493 0.15165,-0.78036c0,-0.35403 -0.08297,-0.6611 -0.24924,-0.92122c-0.16627,-0.26012 -0.38818,-0.46063 -0.66635,-0.6015c-0.27818,-0.1409 -0.58719,-0.21135 -0.92673,-0.21135c-0.2963,0 -0.58179,0.06142 -0.85615,0.18423c-0.27468,0.12284 -0.50421,0.31614 -0.68829,0.57985c-0.18439,0.26371 -0.29089,0.60875 -0.31982,1.03504h-1.36545c0.02893,-0.61415 0.18789,-1.1398 0.47687,-1.57693c0.29248,-0.43713 0.67716,-0.77133 1.15403,-1.00255c0.48069,-0.23119 1.01352,-0.34681 1.5988,-0.34681c0.63583,0 1.18837,0.12646 1.65825,0.37933c0.47306,0.2529 0.83803,0.59972 1.09458,1.04045c0.26005,0.44076 0.39008,0.94294 0.39008,1.50651c0,0.3974 -0.06136,0.75686 -0.18407,1.07837c-0.11922,0.32154 -0.2928,0.60875 -0.52043,0.86165c-0.22381,0.25287 -0.49499,0.47688 -0.81291,0.67195c-0.31792,0.1987 -0.57257,0.40823 -0.76396,0.62862c-0.19139,0.21675 -0.33063,0.47506 -0.41711,0.77492c-0.08679,0.29983 -0.13384,0.67376 -0.14115,1.12173v0.06501zM357.39285,184.1618c-0.26737,0 -0.49658,-0.09572 -0.68829,-0.28721c-0.19139,-0.19148 -0.28708,-0.42086 -0.28708,-0.68822c0,-0.26734 0.09569,-0.49675 0.28708,-0.68819c0.19171,-0.19148 0.42092,-0.28721 0.68829,-0.28721c0.26737,0 0.4969,0.09572 0.68829,0.28721c0.19139,0.19145 0.28708,0.42086 0.28708,0.68819c0,0.17705 -0.04515,0.3396 -0.13543,0.48771c-0.08647,0.14812 -0.2041,0.26734 -0.35225,0.35766c-0.14433,0.08673 -0.30711,0.13006 -0.48768,0.13006z"/></g></g></svg>