<svg version="1.1" xmlns="http://www.w3.org/2000/svg" xmlns:xlink="http://www.w3.org/1999/xlink" width="245.06823" height="25.68179" viewBox="0,0,245.06823,25.68179"><g transform="translate(-117.46588,-167.15911)"><g data-paper-data="{&quot;isPaintingLayer&quot;:true}" fill="#ffffff" fill-rule="nonzero" stroke="none" stroke-width="1" stroke-linecap="butt" stroke-linejoin="miter" stroke-miterlimit="10" stroke-dasharray="" stroke-dashoffset="0" style="mix-blend-mode: normal"><path d="M119.82718,176.06454l-2.36129,-8.63558h1.06258l1.80469,7.03327h0.08433l1.83845,-7.03327h1.18064l1.83843,7.03327h0.08433l1.80471,-7.03327h1.06257l-2.36128,8.63558h-1.07946l-1.90589,-6.88148h-0.06746l-1.90591,6.88148zM130.38971,172.16841v3.89613h-0.99511v-8.63558h0.99511v3.17088h0.08435c0.15179,-0.33452 0.37947,-0.60015 0.68307,-0.79694c0.30642,-0.19958 0.71402,-0.29937 1.22282,-0.29937c0.44134,0 0.82786,0.08853 1.15956,0.26563c0.3317,0.1743 0.58892,0.44275 0.77163,0.80537c0.18553,0.35983 0.27829,0.81801 0.27829,1.3746v4.1154h-0.99511v-4.04792c0,-0.51444 -0.13353,-0.91219 -0.40057,-1.1933c-0.26424,-0.28391 -0.6311,-0.42588 -1.10054,-0.42588c-0.32609,0 -0.61843,0.06887 -0.87704,0.20661c-0.25581,0.13776 -0.45821,0.33875 -0.6072,0.60297c-0.14617,0.26424 -0.21927,0.58472 -0.21927,0.96139zM138.31585,176.21633c-0.41042,0 -0.78286,-0.0773 -1.11738,-0.23191c-0.33452,-0.1574 -0.60015,-0.3837 -0.79694,-0.67887c-0.19679,-0.29796 -0.29517,-0.65779 -0.29517,-1.07944c0,-0.37106 0.0731,-0.67184 0.21927,-0.90234c0.14617,-0.23332 0.34155,-0.41606 0.5861,-0.54818c0.24455,-0.1321 0.51441,-0.2305 0.80958,-0.29514c0.29799,-0.06748 0.59736,-0.12089 0.89814,-0.16025c0.39355,-0.05059 0.71261,-0.08853 0.95716,-0.11384c0.24737,-0.0281 0.42729,-0.07448 0.53972,-0.13915c0.11528,-0.06466 0.17289,-0.17709 0.17289,-0.33732v-0.03374c0,-0.41603 -0.11384,-0.7393 -0.34155,-0.9698c-0.22489,-0.23053 -0.56641,-0.34578 -1.02462,-0.34578c-0.47508,0 -0.84755,0.10402 -1.11741,0.31204c-0.26986,0.20802 -0.45959,0.43008 -0.56923,0.66623l-0.94452,-0.33734c0.16866,-0.39355 0.39355,-0.69994 0.67466,-0.91921c0.28391,-0.22207 0.59313,-0.37668 0.92765,-0.46382c0.33732,-0.08994 0.66902,-0.13492 0.99511,-0.13492c0.20802,0 0.44695,0.02528 0.71681,0.07589c0.27268,0.04779 0.53551,0.14758 0.7885,0.29937c0.25581,0.15181 0.46805,0.38091 0.63671,0.6873c0.16866,0.30642 0.25299,0.71684 0.25299,1.23125v4.26719h-0.99511v-0.87706h-0.05059c-0.06748,0.14056 -0.17991,0.29096 -0.33734,0.45118c-0.1574,0.16022 -0.36683,0.29658 -0.62825,0.40901c-0.26145,0.11246 -0.58049,0.16866 -0.95719,0.16866zM138.46766,175.32242c0.39355,0 0.72525,-0.0773 0.99511,-0.23191c0.27268,-0.15461 0.47788,-0.35419 0.61561,-0.59877c0.14056,-0.24455 0.21084,-0.50177 0.21084,-0.77163v-0.91078c-0.04215,0.05061 -0.13492,0.097 -0.27829,0.13915c-0.14056,0.03936 -0.3036,0.07448 -0.48913,0.10541c-0.18271,0.02813 -0.36121,0.05343 -0.53549,0.07592c-0.17148,0.01967 -0.31063,0.03654 -0.41744,0.05059c-0.25863,0.03374 -0.50039,0.08856 -0.72527,0.16445c-0.22207,0.07307 -0.40198,0.18412 -0.53972,0.33311c-0.13492,0.14617 -0.2024,0.34575 -0.2024,0.59874c0,0.34578 0.12792,0.6072 0.38373,0.7843c0.2586,0.17427 0.5861,0.26142 0.98247,0.26142zM145.91733,169.58786v0.84332h-3.35636v-0.84332zM143.53908,168.03617h0.99518v6.17307c0,0.28111 0.04082,0.49193 0.1222,0.63248c0.08435,0.13774 0.19122,0.2305 0.3206,0.27829c0.1321,0.04497 0.27112,0.06746 0.41732,0.06746c0.10959,0 0.19963,-0.00562 0.26988,-0.01685c0.07025,-0.01408 0.12666,-0.02531 0.16871,-0.03374l0.20235,0.89391c-0.06753,0.02531 -0.16153,0.05061 -0.2825,0.07592c-0.12072,0.0281 -0.27409,0.04215 -0.45962,0.04215c-0.28102,0 -0.55659,-0.06043 -0.82647,-0.1813c-0.26692,-0.12089 -0.48906,-0.30501 -0.66618,-0.55238c-0.17415,-0.24737 -0.26147,-0.55941 -0.26147,-0.93608zM150.75372,176.06454v-6.47668h0.99518v6.47668zM151.25985,168.5084c-0.19419,0 -0.36141,-0.06605 -0.50192,-0.19817c-0.13779,-0.13212 -0.20656,-0.29094 -0.20656,-0.47647c0,-0.18553 0.06877,-0.34437 0.20656,-0.47649c0.14051,-0.13212 0.30773,-0.19817 0.50192,-0.19817c0.19394,0 0.35968,0.06605 0.49747,0.19817c0.14051,0.13212 0.21076,0.29096 0.21076,0.47649c0,0.18553 -0.07025,0.34434 -0.21076,0.47647c-0.13779,0.13212 -0.30353,0.19817 -0.49747,0.19817zM158.15909,171.03836l-0.89376,0.25299c-0.0564,-0.14897 -0.13927,-0.29376 -0.24886,-0.43429c-0.10687,-0.14338 -0.25306,-0.26145 -0.43859,-0.35421c-0.18553,-0.09276 -0.42301,-0.13915 -0.71268,-0.13915c-0.39629,0 -0.72654,0.09138 -0.99073,0.27409c-0.26147,0.17991 -0.39209,0.40901 -0.39209,0.6873c0,0.24737 0.0898,0.44275 0.26964,0.5861c0.18009,0.14338 0.4611,0.26283 0.84354,0.35842l0.96129,0.23612c0.5791,0.14056 1.01052,0.3556 1.2945,0.64515c0.28398,0.28673 0.42573,0.65638 0.42573,1.10895c0,0.37106 -0.10662,0.70279 -0.32035,0.99513c-0.21076,0.29235 -0.50588,0.52285 -0.8856,0.69151c-0.37947,0.16866 -0.82078,0.25301 -1.32394,0.25301c-0.66049,0 -1.20743,-0.14338 -1.64033,-0.43011c-0.4329,-0.28673 -0.70675,-0.70558 -0.82202,-1.25653l0.94447,-0.23614c0.0898,0.34857 0.25999,0.61 0.51008,0.7843c0.25306,0.17427 0.58331,0.26142 0.99098,0.26142c0.46382,0 0.83216,-0.09838 1.10477,-0.29517c0.27557,-0.19958 0.41311,-0.43852 0.41311,-0.71681c0,-0.22489 -0.07866,-0.41324 -0.23599,-0.56503c-0.15758,-0.15461 -0.39926,-0.26986 -0.7253,-0.34575l-1.07954,-0.25301c-0.59295,-0.14053 -1.02883,-0.35839 -1.30712,-0.65356c-0.27533,-0.29796 -0.41311,-0.67043 -0.41311,-1.11738c0,-0.36544 0.10266,-0.68871 0.30773,-0.96983c0.20804,-0.28111 0.49054,-0.50177 0.8475,-0.662c0.35993,-0.16025 0.7676,-0.24035 1.22277,-0.24035c0.64094,0 1.1441,0.14056 1.50972,0.42165c0.36809,0.28111 0.62956,0.65217 0.78417,1.11318zM165.93131,169.58786v0.84332h-3.35636v-0.84332zM163.55331,168.03617h0.99493v6.17307c0,0.28111 0.04082,0.49193 0.12245,0.63248c0.08435,0.13774 0.19097,0.2305 0.32035,0.27829c0.1321,0.04497 0.27137,0.06746 0.41757,0.06746c0.10959,0 0.19938,-0.00562 0.26964,-0.01685c0.0705,-0.01408 0.12666,-0.02531 0.16871,-0.03374l0.20235,0.89391c-0.06729,0.02531 -0.16153,0.05061 -0.2825,0.07592c-0.12072,0.0281 -0.27409,0.04215 -0.45962,0.04215c-0.28102,0 -0.55659,-0.06043 -0.82623,-0.1813c-0.26716,-0.12089 -0.4893,-0.30501 -0.66642,-0.55238c-0.17415,-0.24737 -0.26123,-0.55941 -0.26123,-0.93608zM168.56261,172.16841v3.89613h-0.99518v-8.63558h0.99518v3.17088h0.08411c0.15189,-0.33452 0.37972,-0.60015 0.68324,-0.79694c0.30625,-0.19958 0.71392,-0.29937 1.22277,-0.29937c0.44131,0 0.82796,0.08853 1.15944,0.26563c0.33173,0.1743 0.589,0.44275 0.7718,0.80537c0.18553,0.35983 0.27829,0.81801 0.27829,1.3746v4.1154h-0.99518v-4.04792c0,-0.51444 -0.13358,-0.91219 -0.4005,-1.1933c-0.26419,-0.28391 -0.63105,-0.42588 -1.10056,-0.42588c-0.32604,0 -0.61843,0.06887 -0.87719,0.20661c-0.25578,0.13776 -0.45814,0.33875 -0.60705,0.60297c-0.1462,0.26424 -0.21917,0.58472 -0.21917,0.96139zM177.2981,176.19948c-0.62388,0 -1.16216,-0.13776 -1.61485,-0.41324c-0.44972,-0.27829 -0.79704,-0.66623 -1.04144,-1.16377c-0.24168,-0.50039 -0.36265,-1.08226 -0.36265,-1.74569c0,-0.66341 0.12097,-1.2481 0.36265,-1.7541c0.2444,-0.5088 0.58454,-0.90516 1.02041,-1.18907c0.43859,-0.28673 0.95016,-0.43008 1.5347,-0.43008c0.33742,0 0.67063,0.0562 0.99939,0.16866c0.32901,0.11243 0.62833,0.29517 0.89821,0.54815c0.26988,0.25019 0.48485,0.5819 0.64515,0.99511c0.1603,0.41324 0.2402,0.92203 0.2402,1.52642v0.42165h-4.99224v-0.86017h3.98023c0,-0.36544 -0.07298,-0.69153 -0.21917,-0.97826c-0.14323,-0.28673 -0.34855,-0.51303 -0.61571,-0.67887c-0.26419,-0.16586 -0.57613,-0.24878 -0.93606,-0.24878c-0.39629,0 -0.73915,0.09838 -1.02883,0.29517c-0.28671,0.19397 -0.50736,0.44695 -0.66197,0.75899c-0.15461,0.31201 -0.23179,0.64653 -0.23179,1.00354v0.57346c0,0.48911 0.08435,0.90375 0.25282,1.24389c0.17168,0.33732 0.40916,0.59454 0.71268,0.77163c0.30353,0.17427 0.65628,0.26142 1.05826,0.26142c0.26147,0 0.49771,-0.03654 0.70848,-0.10964c0.21373,-0.07589 0.39778,-0.18833 0.55238,-0.33732c0.15461,-0.15179 0.27409,-0.34014 0.35844,-0.56503l0.96129,0.26986c-0.10118,0.32609 -0.27112,0.61282 -0.51008,0.86019c-0.23896,0.24455 -0.53408,0.43572 -0.8856,0.57346c-0.35127,0.13492 -0.74632,0.2024 -1.18492,0.2024zM184.83334,178.4933v-8.90543h0.96129v1.02885h0.118c0.07322,-0.11246 0.1744,-0.25581 0.30377,-0.43011c0.1321,-0.17709 0.32035,-0.3345 0.565,-0.47226c0.24737,-0.14053 0.58182,-0.21081 1.00359,-0.21081c0.54521,0 1.02586,0.13633 1.44194,0.40901c0.41608,0.27268 0.74064,0.6592 0.97416,1.15956c0.23327,0.50036 0.34979,1.09069 0.34979,1.77097c0,0.68589 -0.11651,1.28043 -0.34979,1.78361c-0.23352,0.50036 -0.55659,0.88829 -0.96995,1.16377c-0.41311,0.27268 -0.88955,0.40903 -1.42932,0.40903c-0.41608,0 -0.74929,-0.06889 -0.99939,-0.20663c-0.25009,-0.14056 -0.4428,-0.29937 -0.57762,-0.47647c-0.13507,-0.17991 -0.23896,-0.32891 -0.31218,-0.44695h-0.08435v3.42387zM185.81145,172.8262c0,0.48913 0.07174,0.92062 0.21521,1.29448c0.14323,0.37106 0.35275,0.66202 0.62808,0.87286c0.27557,0.20802 0.61299,0.31201 1.012,0.31201c0.41608,0 0.76315,-0.10964 1.04144,-0.32888c0.28126,-0.22209 0.49203,-0.52005 0.63253,-0.89393c0.14348,-0.37668 0.21521,-0.79553 0.21521,-1.25653c0,-0.45539 -0.07025,-0.86581 -0.21101,-1.23125c-0.13754,-0.36824 -0.34706,-0.6592 -0.62808,-0.87283c-0.27829,-0.21645 -0.62833,-0.32468 -1.0501,-0.32468c-0.4047,0 -0.74484,0.10261 -1.02041,0.30781c-0.27533,0.2024 -0.48337,0.48631 -0.62388,0.85176c-0.14076,0.36262 -0.21101,0.78568 -0.21101,1.2692zM192.069,176.06454v-6.47668h0.96129v0.97824h0.06753c0.118,-0.32045 0.33173,-0.58049 0.64094,-0.78007c0.30922,-0.19958 0.65777,-0.29937 1.04565,-0.29937c0.07298,0 0.1645,0.00141 0.27409,0.00421c0.10959,0.00282 0.19246,0.00703 0.24886,0.01267v1.01198c-0.03389,-0.00844 -0.11107,-0.02108 -0.23204,-0.03795c-0.118,-0.01969 -0.24317,-0.02951 -0.37527,-0.02951c-0.31491,0 -0.59592,0.06605 -0.8433,0.19817c-0.24465,0.1293 -0.43859,0.30922 -0.58182,0.53972c-0.14051,0.22771 -0.21101,0.48772 -0.21101,0.78007v4.09853zM198.92099,176.19948c-0.58479,0 -1.09784,-0.13915 -1.53916,-0.41744c-0.43859,-0.27829 -0.78145,-0.66764 -1.02883,-1.168c-0.24465,-0.50039 -0.36685,-1.08508 -0.36685,-1.7541c0,-0.67466 0.1222,-1.26358 0.36685,-1.76676c0.24737,-0.50318 0.59023,-0.89391 1.02883,-1.1722c0.44131,-0.27829 0.95437,-0.41744 1.53916,-0.41744c0.58454,0 1.09611,0.13915 1.5347,0.41744c0.44131,0.27829 0.78442,0.66902 1.02883,1.1722c0.24737,0.50318 0.37106,1.0921 0.37106,1.76676c0,0.66902 -0.12369,1.25371 -0.37106,1.7541c-0.2444,0.50036 -0.58751,0.8897 -1.02883,1.168c-0.43859,0.27829 -0.95016,0.41744 -1.5347,0.41744zM198.92099,175.30555c0.44403,0 0.80941,-0.11384 1.09611,-0.34155c0.28671,-0.22768 0.49895,-0.52705 0.63674,-0.89811c0.13779,-0.37106 0.20656,-0.77304 0.20656,-1.20594c0,-0.4329 -0.06877,-0.83629 -0.20656,-1.21017c-0.13779,-0.37388 -0.35003,-0.67605 -0.63674,-0.90657c-0.28671,-0.2305 -0.65208,-0.34575 -1.09611,-0.34575c-0.44428,0 -0.80965,0.11525 -1.09636,0.34575c-0.28671,0.23053 -0.49895,0.53269 -0.63674,0.90657c-0.13779,0.37388 -0.20656,0.77727 -0.20656,1.21017c0,0.4329 0.06877,0.83488 0.20656,1.20594c0.13779,0.37106 0.35003,0.67043 0.63674,0.89811c0.28671,0.22771 0.65208,0.34155 1.09636,0.34155zM206.00576,176.19948c-0.60705,0 -1.13,-0.14338 -1.56859,-0.43011c-0.43835,-0.28673 -0.77576,-0.68169 -1.012,-1.18487c-0.23599,-0.50316 -0.35399,-1.07803 -0.35399,-1.72456c0,-0.65779 0.12072,-1.23828 0.3624,-1.74146c0.24465,-0.506 0.58479,-0.90096 1.02041,-1.18487c0.43859,-0.28673 0.95016,-0.43008 1.53495,-0.43008c0.45541,0 0.86581,0.08433 1.23118,0.25299c0.36562,0.16866 0.66494,0.4048 0.89821,0.70838c0.23327,0.3036 0.37799,0.65779 0.43439,1.06259h-0.99518c-0.07594,-0.29517 -0.24465,-0.55659 -0.50613,-0.7843c-0.2585,-0.2305 -0.60705,-0.34575 -1.04565,-0.34575c-0.38788,0 -0.72802,0.1012 -1.02041,0.3036c-0.28943,0.19958 -0.51577,0.48208 -0.67879,0.84753c-0.1603,0.36262 -0.24045,0.7885 -0.24045,1.27763c0,0.50036 0.07866,0.93608 0.23624,1.30714c0.1603,0.37106 0.38516,0.6592 0.67459,0.8644c0.2924,0.2052 0.63525,0.30781 1.02883,0.30781c0.25875,0 0.49351,-0.04497 0.70427,-0.13492c0.21076,-0.08997 0.38937,-0.21927 0.53556,-0.38793c0.14595,-0.16866 0.25009,-0.37106 0.31194,-0.6072h0.99518c-0.0564,0.38232 -0.19542,0.72666 -0.41757,1.03308c-0.21917,0.30358 -0.51008,0.54533 -0.87273,0.72525c-0.35993,0.17709 -0.77873,0.26565 -1.25666,0.26565zM212.72293,176.19948c-0.62412,0 -1.16241,-0.13776 -1.6151,-0.41324c-0.44972,-0.27829 -0.79679,-0.66623 -1.04144,-1.16377c-0.24168,-0.50039 -0.36265,-1.08226 -0.36265,-1.74569c0,-0.66341 0.12097,-1.2481 0.36265,-1.7541c0.24465,-0.5088 0.58479,-0.90516 1.02041,-1.18907c0.43859,-0.28673 0.95016,-0.43008 1.53495,-0.43008c0.33717,0 0.67038,0.0562 0.99914,0.16866c0.32901,0.11243 0.62833,0.29517 0.89821,0.54815c0.26988,0.25019 0.48485,0.5819 0.64515,0.99511c0.1603,0.41324 0.24045,0.92203 0.24045,1.52642v0.42165h-4.99249v-0.86017h3.98048c0,-0.36544 -0.07322,-0.69153 -0.21942,-0.97826c-0.14323,-0.28673 -0.34855,-0.51303 -0.61546,-0.67887c-0.26444,-0.16586 -0.57638,-0.24878 -0.93606,-0.24878c-0.39654,0 -0.7394,0.09838 -1.02907,0.29517c-0.28671,0.19397 -0.50736,0.44695 -0.66197,0.75899c-0.15461,0.31201 -0.23179,0.64653 -0.23179,1.00354v0.57346c0,0.48911 0.08435,0.90375 0.25306,1.24389c0.17143,0.33732 0.40891,0.59454 0.71243,0.77163c0.30353,0.17427 0.65653,0.26142 1.05851,0.26142c0.26123,0 0.49747,-0.03654 0.70823,-0.10964c0.21373,-0.07589 0.39778,-0.18833 0.55238,-0.33732c0.15461,-0.15179 0.27409,-0.34014 0.35844,-0.56503l0.96129,0.26986c-0.10118,0.32609 -0.27112,0.61282 -0.51008,0.86019c-0.23896,0.24455 -0.53408,0.43572 -0.8856,0.57346c-0.35127,0.13492 -0.74632,0.2024 -1.18467,0.2024zM221.50592,171.03836l-0.89376,0.25299c-0.0564,-0.14897 -0.13927,-0.29376 -0.24886,-0.43429c-0.10687,-0.14338 -0.25306,-0.26145 -0.43859,-0.35421c-0.18553,-0.09276 -0.42301,-0.13915 -0.71243,-0.13915c-0.39654,0 -0.72678,0.09138 -0.99098,0.27409c-0.26147,0.17991 -0.39209,0.40901 -0.39209,0.6873c0,0.24737 0.0898,0.44275 0.26988,0.5861c0.17984,0.14338 0.46086,0.26283 0.8433,0.35842l0.96129,0.23612c0.5791,0.14056 1.01052,0.3556 1.2945,0.64515c0.28398,0.28673 0.42598,0.65638 0.42598,1.10895c0,0.37106 -0.10687,0.70279 -0.3206,0.99513c-0.21076,0.29235 -0.50588,0.52285 -0.88535,0.69151c-0.37972,0.16866 -0.82103,0.25301 -1.32419,0.25301c-0.66049,0 -1.20718,-0.14338 -1.64008,-0.43011c-0.4329,-0.28673 -0.70699,-0.70558 -0.82227,-1.25653l0.94447,-0.23614c0.09004,0.34857 0.25999,0.61 0.51008,0.7843c0.25306,0.17427 0.58331,0.26142 0.99098,0.26142c0.46382,0 0.83216,-0.09838 1.10477,-0.29517c0.27557,-0.19958 0.41311,-0.43852 0.41311,-0.71681c0,-0.22489 -0.07866,-0.41324 -0.23599,-0.56503c-0.15733,-0.15461 -0.39926,-0.26986 -0.7253,-0.34575l-1.07954,-0.25301c-0.59295,-0.14053 -1.02883,-0.35839 -1.30712,-0.65356c-0.27533,-0.29796 -0.41311,-0.67043 -0.41311,-1.11738c0,-0.36544 0.10266,-0.68871 0.30773,-0.96983c0.20804,-0.28111 0.49054,-0.50177 0.8475,-0.662c0.35993,-0.16025 0.7676,-0.24035 1.22301,-0.24035c0.6407,0 1.1441,0.14056 1.50947,0.42165c0.36809,0.28111 0.62956,0.65217 0.78417,1.11318zM227.70954,171.03836l-0.89376,0.25299c-0.0564,-0.14897 -0.13927,-0.29376 -0.24886,-0.43429c-0.10687,-0.14338 -0.25306,-0.26145 -0.43859,-0.35421c-0.18553,-0.09276 -0.42301,-0.13915 -0.71243,-0.13915c-0.39654,0 -0.72678,0.09138 -0.99098,0.27409c-0.26147,0.17991 -0.39209,0.40901 -0.39209,0.6873c0,0.24737 0.0898,0.44275 0.26988,0.5861c0.17984,0.14338 0.46086,0.26283 0.8433,0.35842l0.96129,0.23612c0.5791,0.14056 1.01052,0.3556 1.2945,0.64515c0.28398,0.28673 0.42598,0.65638 0.42598,1.10895c0,0.37106 -0.10687,0.70279 -0.3206,0.99513c-0.21076,0.29235 -0.50588,0.52285 -0.88535,0.69151c-0.37947,0.16866 -0.82103,0.25301 -1.32419,0.25301c-0.66049,0 -1.20718,-0.14338 -1.64008,-0.43011c-0.4329,-0.28673 -0.70699,-0.70558 -0.82227,-1.25653l0.94447,-0.23614c0.09004,0.34857 0.25999,0.61 0.51033,0.7843c0.25282,0.17427 0.58306,0.26142 0.99073,0.26142c0.46382,0 0.83216,-0.09838 1.10477,-0.29517c0.27557,-0.19958 0.41336,-0.43852 0.41336,-0.71681c0,-0.22489 -0.07891,-0.41324 -0.23624,-0.56503c-0.15733,-0.15461 -0.39926,-0.26986 -0.7253,-0.34575l-1.07929,-0.25301c-0.5932,-0.14053 -1.02907,-0.35839 -1.30737,-0.65356c-0.27533,-0.29796 -0.41311,-0.67043 -0.41311,-1.11738c0,-0.36544 0.10266,-0.68871 0.30773,-0.96983c0.20804,-0.28111 0.49054,-0.50177 0.8475,-0.662c0.35993,-0.16025 0.7676,-0.24035 1.22301,-0.24035c0.64094,0 1.1441,0.14056 1.50947,0.42165c0.36834,0.28111 0.62956,0.65217 0.78417,1.11318zM232.80024,176.06454v-8.63558h0.99493v3.18775h0.08435c0.07322,-0.11246 0.1744,-0.25581 0.30353,-0.43011c0.13234,-0.17709 0.3206,-0.3345 0.56525,-0.47226c0.24737,-0.14053 0.58182,-0.21081 1.00335,-0.21081c0.54546,0 1.0261,0.13633 1.44219,0.40901c0.41608,0.27268 0.74064,0.6592 0.97391,1.15956c0.23352,0.50036 0.35003,1.09069 0.35003,1.77097c0,0.68589 -0.11651,1.28043 -0.35003,1.78361c-0.23327,0.50036 -0.55659,0.88829 -0.9697,1.16377c-0.41336,0.27268 -0.8898,0.40903 -1.42932,0.40903c-0.41608,0 -0.74929,-0.06889 -0.99939,-0.20663c-0.25034,-0.14056 -0.4428,-0.29937 -0.57762,-0.47647c-0.13507,-0.17991 -0.23896,-0.32891 -0.31218,-0.44695h-0.118v0.99511zM233.77835,172.8262c0,0.48913 0.07174,0.92062 0.21497,1.29448c0.14348,0.37106 0.353,0.66202 0.62833,0.87286c0.27557,0.20802 0.61274,0.31201 1.012,0.31201c0.41608,0 0.76315,-0.10964 1.04144,-0.32888c0.28126,-0.22209 0.49203,-0.52005 0.63253,-0.89393c0.14348,-0.37668 0.21497,-0.79553 0.21497,-1.25653c0,-0.45539 -0.07025,-0.86581 -0.21076,-1.23125c-0.13779,-0.36824 -0.34706,-0.6592 -0.62833,-0.87283c-0.27829,-0.21645 -0.62808,-0.32468 -1.04985,-0.32468c-0.4047,0 -0.74484,0.10261 -1.02041,0.30781c-0.27557,0.2024 -0.48337,0.48631 -0.62412,0.85176c-0.14051,0.36262 -0.21076,0.78568 -0.21076,1.2692zM240.44902,178.4933c-0.16871,0 -0.31911,-0.01405 -0.45121,-0.04218c-0.1321,-0.02528 -0.22338,-0.05059 -0.27409,-0.07589l0.25306,-0.87704c0.24168,0.06184 0.45541,0.08433 0.64094,0.06746c0.18553,-0.01687 0.35003,-0.09979 0.49326,-0.24878c0.1462,-0.14617 0.27978,-0.3837 0.4005,-0.71261l0.18553,-0.50598l-2.39482,-6.51042h1.07929l1.78801,5.1611h0.06729l1.78801,-5.1611h1.07929l-2.74906,7.4212c-0.12369,0.33452 -0.27706,0.61141 -0.45962,0.83065c-0.18281,0.22209 -0.39505,0.38652 -0.63674,0.49336c-0.23896,0.10682 -0.50885,0.16022 -0.80965,0.16022zM251.22459,176.06454l-1.97354,-6.47668h1.04589l1.39988,4.95869h0.06729l1.38306,-4.95869h1.06272l1.36624,4.94185h0.06729l1.39988,-4.94185h1.04589l-1.97354,6.47668h-0.97811l-1.41671,-4.97557h-0.10142l-1.41671,4.97557zM260.39991,172.16841v3.89613h-0.99518v-8.63558h0.99518v3.17088h0.08411c0.15189,-0.33452 0.37972,-0.60015 0.68324,-0.79694c0.30625,-0.19958 0.71392,-0.29937 1.22277,-0.29937c0.44131,0 0.82796,0.08853 1.15944,0.26563c0.33173,0.1743 0.589,0.44275 0.7718,0.80537c0.18553,0.35983 0.27829,0.81801 0.27829,1.3746v4.1154h-0.99518v-4.04792c0,-0.51444 -0.13358,-0.91219 -0.4005,-1.1933c-0.26419,-0.28391 -0.63105,-0.42588 -1.10056,-0.42588c-0.32604,0 -0.61843,0.06887 -0.87719,0.20661c-0.25578,0.13776 -0.45814,0.33875 -0.60705,0.60297c-0.1462,0.26424 -0.21917,0.58472 -0.21917,0.96139zM266.41998,176.06454v-6.47668h0.99518v6.47668zM266.92611,168.5084c-0.19394,0 -0.36141,-0.06605 -0.50192,-0.19817c-0.13779,-0.13212 -0.20656,-0.29094 -0.20656,-0.47647c0,-0.18553 0.06877,-0.34437 0.20656,-0.47649c0.14051,-0.13212 0.30798,-0.19817 0.50192,-0.19817c0.19394,0 0.35968,0.06605 0.49747,0.19817c0.14051,0.13212 0.21076,0.29096 0.21076,0.47649c0,0.18553 -0.07025,0.34434 -0.21076,0.47647c-0.13779,0.13212 -0.30353,0.19817 -0.49747,0.19817zM271.86887,176.19948c-0.60705,0 -1.13,-0.14338 -1.56859,-0.43011c-0.43835,-0.28673 -0.77576,-0.68169 -1.012,-1.18487c-0.23599,-0.50316 -0.35399,-1.07803 -0.35399,-1.72456c0,-0.65779 0.12072,-1.23828 0.3624,-1.74146c0.24465,-0.506 0.58479,-0.90096 1.02041,-1.18487c0.43859,-0.28673 0.95016,-0.43008 1.53495,-0.43008c0.45541,0 0.86581,0.08433 1.23118,0.25299c0.36562,0.16866 0.66494,0.4048 0.89821,0.70838c0.23327,0.3036 0.37799,0.65779 0.43439,1.06259h-0.99518c-0.07594,-0.29517 -0.24465,-0.55659 -0.50613,-0.7843c-0.2585,-0.2305 -0.60705,-0.34575 -1.04565,-0.34575c-0.38788,0 -0.72802,0.1012 -1.02041,0.3036c-0.28943,0.19958 -0.51577,0.48208 -0.67879,0.84753c-0.1603,0.36262 -0.24045,0.7885 -0.24045,1.27763c0,0.50036 0.07866,0.93608 0.23624,1.30714c0.1603,0.37106 0.38516,0.6592 0.67459,0.8644c0.2924,0.2052 0.63525,0.30781 1.02883,0.30781c0.25875,0 0.49351,-0.04497 0.70427,-0.13492c0.21076,-0.08997 0.38937,-0.21927 0.53556,-0.38793c0.14595,-0.16866 0.25009,-0.37106 0.31194,-0.6072h0.99518c-0.0564,0.38232 -0.19542,0.72666 -0.41757,1.03308c-0.21917,0.30358 -0.51008,0.54533 -0.87273,0.72525c-0.35993,0.17709 -0.77873,0.26565 -1.25666,0.26565zM276.86557,172.16841v3.89613h-0.99518v-8.63558h0.99518v3.17088h0.08435c0.15189,-0.33452 0.37947,-0.60015 0.683,-0.79694c0.3065,-0.19958 0.71417,-0.29937 1.22301,-0.29937c0.44131,0 0.82771,0.08853 1.15944,0.26563c0.33173,0.1743 0.589,0.44275 0.77156,0.80537c0.18553,0.35983 0.27829,0.81801 0.27829,1.3746v4.1154h-0.99493v-4.04792c0,-0.51444 -0.13358,-0.91219 -0.40074,-1.1933c-0.26419,-0.28391 -0.63105,-0.42588 -1.10056,-0.42588c-0.32604,0 -0.61843,0.06887 -0.87694,0.20661c-0.25578,0.13776 -0.45814,0.33875 -0.6073,0.60297c-0.14595,0.26424 -0.21917,0.58472 -0.21917,0.96139zM287.22036,167.42896v8.63558h-0.99493v-8.63558zM289.04301,176.06454v-6.47668h0.99518v6.47668zM289.54913,168.5084c-0.19394,0 -0.36116,-0.06605 -0.50192,-0.19817c-0.13754,-0.13212 -0.20656,-0.29094 -0.20656,-0.47647c0,-0.18553 0.06902,-0.34437 0.20656,-0.47649c0.14076,-0.13212 0.30798,-0.19817 0.50192,-0.19817c0.19394,0 0.35968,0.06605 0.49747,0.19817c0.14051,0.13212 0.21076,0.29096 0.21076,0.47649c0,0.18553 -0.07025,0.34434 -0.21076,0.47647c-0.13779,0.13212 -0.30353,0.19817 -0.49747,0.19817zM296.27991,178.4933v-3.42387h-0.08435c-0.07322,0.11805 -0.17712,0.26704 -0.31218,0.44695c-0.13482,0.17709 -0.32752,0.33591 -0.57762,0.47647c-0.25009,0.13774 -0.58331,0.20663 -0.99939,0.20663c-0.53977,0 -1.01621,-0.13635 -1.42932,-0.40903c-0.41336,-0.27547 -0.73643,-0.66341 -0.96995,-1.16377c-0.23327,-0.50318 -0.34979,-1.09772 -0.34979,-1.78361c0,-0.68028 0.11651,-1.27061 0.34979,-1.77097c0.23352,-0.50036 0.55807,-0.88688 0.97416,-1.15956c0.41608,-0.27268 0.89673,-0.40901 1.44194,-0.40901c0.42177,0 0.75498,0.07028 0.99939,0.21081c0.24737,0.13776 0.43587,0.29517 0.565,0.47226c0.1321,0.1743 0.23476,0.31765 0.30798,0.43011h0.118v-1.02885h0.96129v8.90543zM294.44143,175.30555c0.39901,0 0.73643,-0.104 1.012,-0.31201c0.27533,-0.21084 0.48485,-0.5018 0.62808,-0.87286c0.14348,-0.37386 0.21521,-0.80535 0.21521,-1.29448c0,-0.48352 -0.07025,-0.90657 -0.21101,-1.2692c-0.14051,-0.36544 -0.34855,-0.64935 -0.62388,-0.85176c-0.27557,-0.2052 -0.61571,-0.30781 -1.02041,-0.30781c-0.42177,0 -0.77304,0.10823 -1.0543,0.32468c-0.27829,0.21363 -0.48757,0.50459 -0.62808,0.87283c-0.13779,0.36544 -0.2068,0.77586 -0.2068,1.23125c0,0.461 0.07025,0.87986 0.21101,1.25653c0.14323,0.37388 0.35399,0.67184 0.63229,0.89393c0.28126,0.21925 0.62981,0.32888 1.04589,0.32888zM303.17816,173.41653v-3.82867h0.99518v6.47668h-0.99518v-1.09631h-0.06753c-0.15164,0.32888 -0.38788,0.60859 -0.70823,0.83909c-0.3206,0.22771 -0.7253,0.34155 -1.2146,0.34155c-0.4047,0 -0.76438,-0.08853 -1.07929,-0.26565c-0.31491,-0.17989 -0.56228,-0.44975 -0.74212,-0.80958c-0.17984,-0.36262 -0.26988,-0.81942 -0.26988,-1.3704v-4.11537h0.99518v4.04792c0,0.47226 0.1321,0.84894 0.39629,1.13005c0.26692,0.28111 0.60705,0.42165 1.02041,0.42165c0.24737,0 0.49895,-0.06323 0.75474,-0.18974c0.25875,-0.12651 0.4752,-0.32047 0.64935,-0.5819c0.17712,-0.26142 0.26568,-0.59454 0.26568,-0.99931zM305.99599,176.06454v-6.47668h0.99493v6.47668zM306.50186,168.5084c-0.19394,0 -0.36116,-0.06605 -0.50167,-0.19817c-0.13779,-0.13212 -0.2068,-0.29094 -0.2068,-0.47647c0,-0.18553 0.06902,-0.34437 0.2068,-0.47649c0.14051,-0.13212 0.30773,-0.19817 0.50167,-0.19817c0.19394,0 0.35993,0.06605 0.49747,0.19817c0.14076,0.13212 0.21101,0.29096 0.21101,0.47649c0,0.18553 -0.07025,0.34434 -0.21101,0.47647c-0.13754,0.13212 -0.30353,0.19817 -0.49747,0.19817zM311.25934,176.19948c-0.53977,0 -1.01621,-0.13635 -1.42957,-0.40903c-0.41311,-0.27547 -0.73643,-0.66341 -0.9697,-1.16377c-0.23327,-0.50318 -0.35003,-1.09772 -0.35003,-1.78361c0,-0.68028 0.11676,-1.27061 0.35003,-1.77097c0.23327,-0.50036 0.55783,-0.88688 0.97391,-1.15956c0.41608,-0.27268 0.89673,-0.40901 1.44219,-0.40901c0.42152,0 0.75474,0.07028 0.99939,0.21081c0.24737,0.13776 0.43562,0.29517 0.565,0.47226c0.1321,0.1743 0.23451,0.31765 0.30773,0.43011h0.08435v-3.18775h0.99518v8.63558h-0.96154v-0.99511h-0.118c-0.07322,0.11805 -0.17712,0.26704 -0.31194,0.44695c-0.13507,0.17709 -0.32752,0.33591 -0.57786,0.47647c-0.25009,0.13774 -0.58331,0.20663 -0.99914,0.20663zM311.39416,175.30555c0.39926,0 0.73643,-0.104 1.012,-0.31201c0.27557,-0.21084 0.48485,-0.5018 0.62833,-0.87286c0.14323,-0.37386 0.21497,-0.80535 0.21497,-1.29448c0,-0.48352 -0.07025,-0.90657 -0.21076,-1.2692c-0.14051,-0.36544 -0.34855,-0.64935 -0.62412,-0.85176c-0.27557,-0.2052 -0.61571,-0.30781 -1.02041,-0.30781c-0.42177,0 -0.77304,0.10823 -1.05406,0.32468c-0.27829,0.21363 -0.48782,0.50459 -0.62833,0.87283c-0.13779,0.36544 -0.20656,0.77586 -0.20656,1.23125c0,0.461 0.07025,0.87986 0.21076,1.25653c0.14323,0.37388 0.35424,0.67184 0.63253,0.89393c0.28102,0.21925 0.62956,0.32888 1.04565,0.32888zM320.99546,176.06454l-1.97354,-6.47668h1.04589l1.39988,4.95869h0.06729l1.38306,-4.95869h1.06272l1.36599,4.94185h0.06753l1.39988,-4.94185h1.04589l-1.97354,6.47668h-0.97811l-1.41695,-4.97557h-0.10118l-1.41671,4.97557zM331.08136,176.21633c-0.41039,0 -0.78294,-0.0773 -1.11738,-0.23191c-0.33445,-0.1574 -0.60013,-0.3837 -0.79679,-0.67887c-0.19691,-0.29796 -0.29536,-0.65779 -0.29536,-1.07944c0,-0.37106 0.07322,-0.67184 0.21942,-0.90234c0.1462,-0.23332 0.34138,-0.41606 0.58603,-0.54818c0.24465,-0.1321 0.51454,-0.2305 0.80965,-0.29514c0.29784,-0.06748 0.59741,-0.12089 0.89821,-0.16025c0.39332,-0.05059 0.71243,-0.08853 0.95709,-0.11384c0.24737,-0.0281 0.42721,-0.07448 0.53977,-0.13915c0.11528,-0.06466 0.17291,-0.17709 0.17291,-0.33732v-0.03374c0,-0.41603 -0.11404,-0.7393 -0.34162,-0.9698c-0.22486,-0.23053 -0.56648,-0.34578 -1.02462,-0.34578c-0.4752,0 -0.8475,0.10402 -1.11738,0.31204c-0.26988,0.20802 -0.45962,0.43008 -0.56921,0.66623l-0.94472,-0.33734c0.16871,-0.39355 0.39357,-0.69994 0.67483,-0.91921c0.28374,-0.22207 0.59295,-0.37668 0.92765,-0.46382c0.33717,-0.08994 0.6689,-0.13492 0.99493,-0.13492c0.20804,0 0.447,0.02528 0.71689,0.07589c0.27261,0.04779 0.53556,0.14758 0.78863,0.29937c0.25578,0.15181 0.46803,0.38091 0.63674,0.6873c0.16846,0.30642 0.25282,0.71684 0.25282,1.23125v4.26719h-0.99493v-0.87706h-0.05071c-0.06753,0.14056 -0.17984,0.29096 -0.33742,0.45118c-0.15733,0.16022 -0.36685,0.29658 -0.62808,0.40901c-0.26147,0.11246 -0.58058,0.16866 -0.95733,0.16866zM331.23325,175.32242c0.39357,0 0.7253,-0.0773 0.99518,-0.23191c0.27261,-0.15461 0.47768,-0.35419 0.61546,-0.59877c0.14051,-0.24455 0.21101,-0.50177 0.21101,-0.77163v-0.91078c-0.0423,0.05061 -0.13507,0.097 -0.27829,0.13915c-0.14076,0.03936 -0.30377,0.07448 -0.4893,0.10541c-0.18256,0.02813 -0.36116,0.05343 -0.53556,0.07592c-0.17143,0.01967 -0.31045,0.03654 -0.41732,0.05059c-0.2585,0.03374 -0.50044,0.08856 -0.7253,0.16445c-0.22214,0.07307 -0.40198,0.18412 -0.53977,0.33311c-0.13482,0.14617 -0.20235,0.34575 -0.20235,0.59874c0,0.34578 0.12789,0.6072 0.38368,0.7843c0.25875,0.17427 0.58627,0.26142 0.98257,0.26142zM338.68289,169.58786v0.84332h-3.35636v-0.84332zM336.30464,168.03617h0.99518v6.17307c0,0.28111 0.04082,0.49193 0.1222,0.63248c0.08435,0.13774 0.19122,0.2305 0.3206,0.27829c0.1321,0.04497 0.27112,0.06746 0.41732,0.06746c0.10959,0 0.19963,-0.00562 0.26988,-0.01685c0.07025,-0.01408 0.12666,-0.02531 0.16871,-0.03374l0.20235,0.89391c-0.06753,0.02531 -0.16153,0.05061 -0.2825,0.07592c-0.12072,0.0281 -0.27409,0.04215 -0.45962,0.04215c-0.28102,0 -0.55659,-0.06043 -0.82647,-0.1813c-0.26692,-0.12089 -0.48906,-0.30501 -0.66618,-0.55238c-0.17415,-0.24737 -0.26147,-0.55941 -0.26147,-0.93608zM342.82565,176.19948c-0.62412,0 -1.16241,-0.13776 -1.61485,-0.41324c-0.44972,-0.27829 -0.79704,-0.66623 -1.04169,-1.16377c-0.24168,-0.50039 -0.3624,-1.08226 -0.3624,-1.74569c0,-0.66341 0.12072,-1.2481 0.3624,-1.7541c0.24465,-0.5088 0.58479,-0.90516 1.02041,-1.18907c0.43859,-0.28673 0.95016,-0.43008 1.53495,-0.43008c0.33742,0 0.67038,0.0562 0.99939,0.16866c0.32876,0.11243 0.62833,0.29517 0.89796,0.54815c0.26988,0.25019 0.4851,0.5819 0.64515,0.99511c0.1603,0.41324 0.24045,0.92203 0.24045,1.52642v0.42165h-4.99249v-0.86017h3.98048c0,-0.36544 -0.07298,-0.69153 -0.21917,-0.97826c-0.14348,-0.28673 -0.34855,-0.51303 -0.61571,-0.67887c-0.26419,-0.16586 -0.57613,-0.24878 -0.93606,-0.24878c-0.39629,0 -0.7394,0.09838 -1.02883,0.29517c-0.28671,0.19397 -0.50736,0.44695 -0.66197,0.75899c-0.15461,0.31201 -0.23204,0.64653 -0.23204,1.00354v0.57346c0,0.48911 0.08435,0.90375 0.25306,1.24389c0.17143,0.33732 0.40891,0.59454 0.71268,0.77163c0.30353,0.17427 0.65628,0.26142 1.05826,0.26142c0.26147,0 0.49747,-0.03654 0.70848,-0.10964c0.21348,-0.07589 0.39778,-0.18833 0.55238,-0.33732c0.15461,-0.15179 0.27409,-0.34014 0.35844,-0.56503l0.96129,0.26986c-0.10118,0.32609 -0.27137,0.61282 -0.51033,0.86019c-0.23872,0.24455 -0.53408,0.43572 -0.88535,0.57346c-0.35152,0.13492 -0.74632,0.2024 -1.18492,0.2024zM347.0211,176.06454v-6.47668h0.96154v0.97824h0.06729c0.11824,-0.32045 0.33173,-0.58049 0.64094,-0.78007c0.30922,-0.19958 0.65777,-0.29937 1.04589,-0.29937c0.07298,0 0.16426,0.00141 0.27409,0.00421c0.10959,0.00282 0.19246,0.00703 0.24861,0.01267v1.01198c-0.03364,-0.00844 -0.11107,-0.02108 -0.23179,-0.03795c-0.11824,-0.01969 -0.24317,-0.02951 -0.37527,-0.02951c-0.31491,0 -0.59592,0.06605 -0.8433,0.19817c-0.24465,0.1293 -0.43859,0.30922 -0.58207,0.53972c-0.14051,0.22771 -0.21076,0.48772 -0.21076,0.78007v4.09853zM120.94036,183.93551v0.84332h-3.35641v-0.84332zM118.5622,182.38381h0.99511v6.17307c0,0.28111 0.04076,0.49193 0.12228,0.63248c0.08433,0.13774 0.19115,0.2305 0.32045,0.27834c0.13212,0.04502 0.27127,0.06753 0.41744,0.06753c0.10964,0 0.19961,-0.00569 0.26988,-0.01707c0.07025,-0.01385 0.12648,-0.02523 0.16866,-0.03364l0.2024,0.89401c-0.06748,0.02523 -0.16166,0.05046 -0.28252,0.0757c-0.12087,0.0282 -0.27406,0.0423 -0.45959,0.0423c-0.28111,0 -0.55659,-0.06036 -0.82646,-0.18132c-0.26705,-0.12097 -0.48913,-0.30501 -0.66622,-0.55238c-0.17428,-0.24737 -0.26143,-0.55941 -0.26143,-0.93608zM126.51889,187.76418v-3.82867h0.99511v6.47668h-0.99511v-1.09631h-0.06746c-0.15179,0.32896 -0.38793,0.60849 -0.70838,0.83904c-0.32047,0.22783 -0.72527,0.34162 -1.21438,0.34162c-0.4048,0 -0.76461,-0.08856 -1.07946,-0.26568c-0.31483,-0.17984 -0.56221,-0.44972 -0.74212,-0.80958c-0.17989,-0.36262 -0.26986,-0.81942 -0.26986,-1.3704v-4.11537h0.99511v4.04792c0,0.47226 0.13212,0.84894 0.39637,1.13005c0.26706,0.28111 0.6072,0.42177 1.02041,0.42177c0.24737,0 0.49898,-0.06333 0.75479,-0.18986c0.2586,-0.12651 0.47506,-0.32047 0.64935,-0.5819c0.17709,-0.26142 0.26563,-0.59454 0.26563,-0.99931zM129.33662,190.41219v-6.47668h0.96139v0.97824h0.06746c0.11807,-0.32045 0.3317,-0.58049 0.64092,-0.78007c0.30922,-0.19958 0.65779,-0.29937 1.04572,-0.29937c0.0731,0 0.16445,0.00141 0.27409,0.00421c0.10964,0.00282 0.19256,0.00703 0.24878,0.01267v1.01198c-0.03374,-0.00844 -0.11105,-0.02108 -0.23191,-0.03795c-0.11807,-0.01969 -0.24317,-0.02951 -0.37529,-0.02951c-0.31483,0 -0.59595,0.06605 -0.84332,0.19817c-0.24455,0.1293 -0.43852,0.30922 -0.5819,0.53972c-0.14053,0.22771 -0.21081,0.48772 -0.21081,0.78007v4.09853zM134.74967,186.51606v3.89613h-0.99511v-6.47668h0.96139v1.01198h0.08433c0.15179,-0.32891 0.38229,-0.59313 0.69151,-0.79273c0.30922,-0.20238 0.7084,-0.30358 1.19753,-0.30358c0.43852,0 0.82222,0.08994 1.15113,0.26986c0.32888,0.17709 0.58469,0.44695 0.7674,0.80958c0.18273,0.35983 0.27409,0.81522 0.27409,1.36617v4.1154h-0.99511v-4.04792c0,-0.50882 -0.13212,-0.90516 -0.39637,-1.1891c-0.26424,-0.28671 -0.62687,-0.43008 -1.08787,-0.43008c-0.31765,0 -0.60159,0.06887 -0.85176,0.20661c-0.24737,0.13776 -0.44275,0.33875 -0.5861,0.60297c-0.14338,0.26424 -0.21507,0.58472 -0.21507,0.96139zM145.28801,185.38601l-0.89401,0.25299c-0.05615,-0.14897 -0.13902,-0.29376 -0.24861,-0.43429c-0.10687,-0.14338 -0.25306,-0.26145 -0.43859,-0.35421c-0.18553,-0.09276 -0.42301,-0.13915 -0.71268,-0.13915c-0.39629,0 -0.72654,0.09138 -0.99098,0.27409c-0.2613,0.17991 -0.39201,0.40901 -0.39201,0.6873c0,0.24737 0.08994,0.44275 0.26986,0.5861c0.17979,0.14338 0.46105,0.26283 0.84325,0.35842l0.96154,0.23612c0.5791,0.14056 1.01052,0.3556 1.2945,0.64515c0.28374,0.28673 0.42573,0.65638 0.42573,1.10895c0,0.37106 -0.10687,0.70279 -0.32035,0.99506c-0.21101,0.2924 -0.50613,0.52295 -0.8856,0.69166c-0.37947,0.16871 -0.82078,0.25282 -1.32394,0.25282c-0.66073,0 -1.20738,-0.14323 -1.64028,-0.42993c-0.4329,-0.28671 -0.70697,-0.70563 -0.82222,-1.25658l0.9445,-0.23614c0.08997,0.34857 0.26004,0.61 0.51021,0.7843c0.25306,0.17435 0.58331,0.26142 0.99098,0.26142c0.46382,0 0.83192,-0.09845 1.10477,-0.29517c0.27533,-0.19958 0.41311,-0.43852 0.41311,-0.71681c0,-0.22489 -0.07866,-0.41324 -0.23599,-0.56503c-0.15758,-0.15461 -0.39926,-0.26986 -0.7253,-0.34575l-1.07954,-0.25301c-0.5931,-0.14053 -1.02883,-0.35839 -1.30712,-0.65356c-0.27547,-0.29796 -0.41324,-0.67043 -0.41324,-1.11738c0,-0.36544 0.10261,-0.68871 0.30783,-0.96983c0.20802,-0.28111 0.49052,-0.50177 0.84753,-0.662c0.35993,-0.16025 0.76735,-0.24035 1.22277,-0.24035c0.64094,0 1.1441,0.14056 1.50947,0.42165c0.36834,0.28111 0.62981,0.65217 0.78442,1.11318zM150.24364,190.41219v-6.47668h0.99493v6.47668zM150.74952,182.85605c-0.19394,0 -0.36116,-0.06605 -0.50167,-0.19817c-0.13779,-0.13212 -0.2068,-0.29094 -0.2068,-0.47647c0,-0.18553 0.06902,-0.34437 0.2068,-0.47649c0.14051,-0.13212 0.30773,-0.19817 0.50167,-0.19817c0.19394,0 0.35993,0.06605 0.49747,0.19817c0.14076,0.13212 0.21101,0.29096 0.21101,0.47649c0,0.18553 -0.07025,0.34434 -0.21101,0.47647c-0.13754,0.13212 -0.30353,0.19817 -0.49747,0.19817zM154.0564,186.51606v3.89613h-0.99518v-6.47668h0.96154v1.01198h0.08411c0.15189,-0.32891 0.38244,-0.59313 0.69166,-0.79273c0.30922,-0.20238 0.70848,-0.30358 1.19753,-0.30358c0.43859,0 0.82227,0.08994 1.15103,0.26986c0.32901,0.17709 0.58479,0.44695 0.7676,0.80958c0.18256,0.35983 0.27384,0.81522 0.27384,1.36617v4.1154h-0.99493v-4.04792c0,-0.50882 -0.1321,-0.90516 -0.39654,-1.1891c-0.26419,-0.28671 -0.62684,-0.43008 -1.0877,-0.43008c-0.31763,0 -0.60161,0.06887 -0.85171,0.20661c-0.24737,0.13776 -0.4428,0.33875 -0.58627,0.60297c-0.14323,0.26424 -0.21497,0.58472 -0.21497,0.96139zM162.8238,183.93551v0.84332h-3.35661v-0.84332zM160.44556,182.38381h0.99518v6.17307c0,0.28111 0.04082,0.49193 0.1222,0.63248c0.08435,0.13774 0.19122,0.2305 0.3206,0.27834c0.1321,0.04502 0.27112,0.06753 0.41732,0.06753c0.10959,0 0.19963,-0.00569 0.26988,-0.01707c0.07025,-0.01385 0.12641,-0.02523 0.16871,-0.03364l0.20235,0.89401c-0.06753,0.02523 -0.16153,0.05046 -0.2825,0.0757c-0.12097,0.0282 -0.27409,0.0423 -0.45962,0.0423c-0.28102,0 -0.55659,-0.06036 -0.82647,-0.18132c-0.26692,-0.12097 -0.48906,-0.30501 -0.66618,-0.55238c-0.1744,-0.24737 -0.26147,-0.55941 -0.26147,-0.93608zM166.88221,190.547c-0.58479,0 -1.09784,-0.13902 -1.53916,-0.41732c-0.43835,-0.27829 -0.78145,-0.66766 -1.02883,-1.168c-0.2444,-0.50039 -0.36685,-1.08508 -0.36685,-1.7541c0,-0.67466 0.12245,-1.26358 0.36685,-1.76676c0.24737,-0.50318 0.59048,-0.89391 1.02883,-1.1722c0.44131,-0.27829 0.95437,-0.41744 1.53916,-0.41744c0.58479,0 1.09636,0.13915 1.5347,0.41744c0.44156,0.27829 0.78442,0.66902 1.02907,1.1722c0.24737,0.50318 0.37106,1.0921 0.37106,1.76676c0,0.66902 -0.12369,1.25371 -0.37106,1.7541c-0.24465,0.50034 -0.58751,0.8897 -1.02907,1.168c-0.43835,0.27829 -0.94991,0.41732 -1.5347,0.41732zM166.88221,189.65324c0.44403,0 0.80965,-0.11379 1.09636,-0.3416c0.28671,-0.22768 0.49895,-0.52705 0.63674,-0.89811c0.13754,-0.37106 0.20656,-0.77304 0.20656,-1.20594c0,-0.4329 -0.06902,-0.83629 -0.20656,-1.21017c-0.13779,-0.37388 -0.35003,-0.67605 -0.63674,-0.90657c-0.28671,-0.2305 -0.65232,-0.34575 -1.09636,-0.34575c-0.44428,0 -0.80965,0.11525 -1.09636,0.34575c-0.28671,0.23053 -0.49895,0.53269 -0.63674,0.90657c-0.13779,0.37388 -0.20656,0.77727 -0.20656,1.21017c0,0.4329 0.06877,0.83488 0.20656,1.20594c0.13779,0.37106 0.35003,0.67043 0.63674,0.89811c0.28671,0.22781 0.65208,0.3416 1.09636,0.3416zM179.97147,183.93551l-2.39507,6.47668h-1.01176l-2.39507,-6.47668h1.07929l1.78801,5.1611h0.06729l1.78801,-5.1611zM182.99387,190.56407c-0.41039,0 -0.78294,-0.07743 -1.11738,-0.23204c-0.3347,-0.15733 -0.60037,-0.38368 -0.79704,-0.67879c-0.19666,-0.29801 -0.29512,-0.65784 -0.29512,-1.07949c0,-0.37106 0.07298,-0.67184 0.21917,-0.90234c0.1462,-0.23332 0.34162,-0.41606 0.58603,-0.54818c0.24465,-0.1321 0.51454,-0.2305 0.80965,-0.29514c0.29808,-0.06748 0.59741,-0.12089 0.89821,-0.16025c0.39357,-0.05059 0.71268,-0.08853 0.95709,-0.11384c0.24737,-0.0281 0.42721,-0.07448 0.53977,-0.13915c0.11528,-0.06466 0.17291,-0.17709 0.17291,-0.33732v-0.03374c0,-0.41603 -0.11379,-0.7393 -0.34162,-0.9698c-0.22486,-0.23053 -0.56648,-0.34578 -1.02462,-0.34578c-0.47496,0 -0.8475,0.10402 -1.11738,0.31204c-0.26988,0.20802 -0.45962,0.43008 -0.56921,0.66623l-0.94447,-0.33734c0.16871,-0.39355 0.39357,-0.69994 0.67459,-0.91921c0.28398,-0.22207 0.5932,-0.37668 0.92765,-0.46382c0.33742,-0.08994 0.66914,-0.13492 0.99518,-0.13492c0.20804,0 0.447,0.02528 0.71689,0.07589c0.27261,0.04779 0.53532,0.14758 0.78838,0.29937c0.25578,0.15181 0.46803,0.38091 0.63674,0.6873c0.16871,0.30642 0.25306,0.71684 0.25306,1.23125v4.26719h-0.99518v-0.87694h-0.05071c-0.06729,0.14051 -0.17984,0.29091 -0.33717,0.45096c-0.15758,0.1603 -0.36685,0.2966 -0.62833,0.40916c-0.26147,0.11231 -0.58058,0.16871 -0.95709,0.16871zM183.14551,189.67007c0.39357,0 0.7253,-0.07718 0.99518,-0.23204c0.27261,-0.15448 0.47793,-0.35407 0.61571,-0.59864c0.14051,-0.24455 0.21076,-0.50177 0.21076,-0.77163v-0.91078c-0.0423,0.05061 -0.13507,0.097 -0.27829,0.13915c-0.14051,0.03936 -0.30353,0.07448 -0.48906,0.10541c-0.18281,0.02813 -0.36141,0.05343 -0.53556,0.07592c-0.17143,0.01967 -0.3107,0.03654 -0.41757,0.05059c-0.2585,0.03374 -0.50019,0.08856 -0.72505,0.16445c-0.22214,0.07307 -0.40198,0.18412 -0.53977,0.33311c-0.13507,0.14617 -0.20235,0.34575 -0.20235,0.59874c0,0.34578 0.12789,0.6072 0.38368,0.7843c0.2585,0.17435 0.58603,0.26142 0.98232,0.26142zM187.77856,192.84089v-8.90539h0.96129v1.02885h0.11824c0.07298,-0.11246 0.17415,-0.25581 0.30353,-0.43011c0.1321,-0.17709 0.32035,-0.3345 0.565,-0.47226c0.24737,-0.14053 0.58182,-0.21081 1.00359,-0.21081c0.54521,0 1.02586,0.13633 1.44194,0.40901c0.41608,0.27268 0.74088,0.6592 0.97416,1.15956c0.23327,0.50036 0.35003,1.09069 0.35003,1.77097c0,0.68589 -0.11676,1.28043 -0.35003,1.78361c-0.23327,0.50031 -0.55659,0.88819 -0.96995,1.16377c-0.41311,0.27261 -0.88955,0.40891 -1.42932,0.40891c-0.41608,0 -0.74905,-0.06877 -0.99939,-0.20656c-0.25009,-0.14051 -0.4428,-0.29932 -0.57762,-0.47644c-0.13507,-0.17984 -0.23896,-0.32876 -0.31194,-0.44693h-0.08435v3.42382zM188.75668,187.17385c0,0.48913 0.07174,0.92062 0.21521,1.29448c0.14323,0.37106 0.35275,0.66202 0.62833,0.87286c0.27533,0.20792 0.61274,0.31206 1.01176,0.31206c0.41608,0 0.76339,-0.10959 1.04169,-0.32893c0.28102,-0.22209 0.49178,-0.52005 0.63253,-0.89393c0.14323,-0.37668 0.21497,-0.79553 0.21497,-1.25653c0,-0.45539 -0.07025,-0.86581 -0.21076,-1.23125c-0.13779,-0.36824 -0.34731,-0.6592 -0.62833,-0.87283c-0.27829,-0.21645 -0.62833,-0.32468 -1.0501,-0.32468c-0.4047,0 -0.74484,0.10261 -1.02041,0.30781c-0.27533,0.2024 -0.48337,0.48631 -0.62388,0.85176c-0.14051,0.36262 -0.21101,0.78568 -0.21101,1.2692zM197.64529,190.547c-0.58454,0 -1.09759,-0.13902 -1.53891,-0.41732c-0.43859,-0.27829 -0.78145,-0.66766 -1.02883,-1.168c-0.24465,-0.50039 -0.36685,-1.08508 -0.36685,-1.7541c0,-0.67466 0.1222,-1.26358 0.36685,-1.76676c0.24737,-0.50318 0.59023,-0.89391 1.02883,-1.1722c0.44131,-0.27829 0.95437,-0.41744 1.53891,-0.41744c0.58479,0 1.09636,0.13915 1.53495,0.41744c0.44131,0.27829 0.78417,0.66902 1.02883,1.1722c0.24737,0.50318 0.37106,1.0921 0.37106,1.76676c0,0.66902 -0.12369,1.25371 -0.37106,1.7541c-0.24465,0.50034 -0.58751,0.8897 -1.02883,1.168c-0.43859,0.27829 -0.95016,0.41732 -1.53495,0.41732zM197.64529,189.65324c0.44428,0 0.80965,-0.11379 1.09636,-0.3416c0.28671,-0.22768 0.49895,-0.52705 0.63674,-0.89811c0.13779,-0.37106 0.20656,-0.77304 0.20656,-1.20594c0,-0.4329 -0.06877,-0.83629 -0.20656,-1.21017c-0.13779,-0.37388 -0.35003,-0.67605 -0.63674,-0.90657c-0.28671,-0.2305 -0.65208,-0.34575 -1.09636,-0.34575c-0.44403,0 -0.80941,0.11525 -1.09636,0.34575c-0.28671,0.23053 -0.49895,0.53269 -0.63649,0.90657c-0.13779,0.37388 -0.2068,0.77727 -0.2068,1.21017c0,0.4329 0.06902,0.83488 0.2068,1.20594c0.13754,0.37106 0.34979,0.67043 0.63649,0.89811c0.28695,0.22781 0.65232,0.3416 1.09636,0.3416zM202.09924,190.41219v-6.47668h0.96129v0.97824h0.06753c0.118,-0.32045 0.33173,-0.58049 0.64094,-0.78007c0.30922,-0.19958 0.65777,-0.29937 1.04565,-0.29937c0.07298,0 0.1645,0.00141 0.27409,0.00421c0.10959,0.00282 0.19246,0.00703 0.24861,0.01267v1.01198c-0.03364,-0.00844 -0.11082,-0.02108 -0.23179,-0.03795c-0.118,-0.01969 -0.24317,-0.02951 -0.37527,-0.02951c-0.31491,0 -0.59592,0.06605 -0.8433,0.19817c-0.24465,0.1293 -0.43859,0.30922 -0.58182,0.53972c-0.14076,0.22771 -0.21101,0.48772 -0.21101,0.78007v4.09853zM211.76238,190.56407c-0.41039,0 -0.78269,-0.07743 -1.11738,-0.23204c-0.33445,-0.15733 -0.60013,-0.38368 -0.79679,-0.67879c-0.19691,-0.29801 -0.29512,-0.65784 -0.29512,-1.07949c0,-0.37106 0.07298,-0.67184 0.21917,-0.90234c0.1462,-0.23332 0.34162,-0.41606 0.58603,-0.54818c0.24465,-0.1321 0.51454,-0.2305 0.80965,-0.29514c0.29808,-0.06748 0.59741,-0.12089 0.89821,-0.16025c0.39357,-0.05059 0.71243,-0.08853 0.95709,-0.11384c0.24737,-0.0281 0.42721,-0.07448 0.53977,-0.13915c0.11528,-0.06466 0.17291,-0.17709 0.17291,-0.33732v-0.03374c0,-0.41603 -0.11379,-0.7393 -0.34162,-0.9698c-0.22486,-0.23053 -0.56648,-0.34578 -1.02462,-0.34578c-0.47496,0 -0.8475,0.10402 -1.11738,0.31204c-0.26988,0.20802 -0.45962,0.43008 -0.56921,0.66623l-0.94447,-0.33734c0.16846,-0.39355 0.39357,-0.69994 0.67459,-0.91921c0.28398,-0.22207 0.5932,-0.37668 0.92765,-0.46382c0.33742,-0.08994 0.6689,-0.13492 0.99518,-0.13492c0.20804,0 0.44676,0.02528 0.71664,0.07589c0.27285,0.04779 0.53556,0.14758 0.78863,0.29937c0.25578,0.15181 0.46803,0.38091 0.63674,0.6873c0.16871,0.30642 0.25282,0.71684 0.25282,1.23125v4.26719h-0.99493v-0.87694h-0.05071c-0.06753,0.14051 -0.17984,0.29091 -0.33717,0.45096c-0.15758,0.1603 -0.36685,0.2966 -0.62833,0.40916c-0.26147,0.11231 -0.58058,0.16871 -0.95733,0.16871zM211.91427,189.67007c0.39357,0 0.7253,-0.07718 0.99518,-0.23204c0.27261,-0.15448 0.47793,-0.35407 0.61546,-0.59864c0.14076,-0.24455 0.21101,-0.50177 0.21101,-0.77163v-0.91078c-0.0423,0.05061 -0.13507,0.097 -0.27829,0.13915c-0.14051,0.03936 -0.30377,0.07448 -0.4893,0.10541c-0.18256,0.02813 -0.36116,0.05343 -0.53532,0.07592c-0.17143,0.01967 -0.3107,0.03654 -0.41757,0.05059c-0.2585,0.03374 -0.50044,0.08856 -0.7253,0.16445c-0.22189,0.07307 -0.40198,0.18412 -0.53952,0.33311c-0.13507,0.14617 -0.2026,0.34575 -0.2026,0.59874c0,0.34578 0.12789,0.6072 0.38392,0.7843c0.2585,0.17435 0.58603,0.26142 0.98232,0.26142zM219.36391,183.93551v0.84332h-3.35636v-0.84332zM216.98592,182.38381h0.99493v6.17307c0,0.28111 0.04082,0.49193 0.12245,0.63248c0.08435,0.13774 0.19097,0.2305 0.32035,0.27834c0.1321,0.04502 0.27137,0.06753 0.41757,0.06753c0.10959,0 0.19938,-0.00569 0.26964,-0.01707c0.0705,-0.01385 0.12666,-0.02523 0.16871,-0.03364l0.20235,0.89401c-0.06729,0.02523 -0.16153,0.05046 -0.2825,0.0757c-0.12072,0.0282 -0.27409,0.0423 -0.45962,0.0423c-0.28102,0 -0.55659,-0.06036 -0.82623,-0.18132c-0.26716,-0.12097 -0.4893,-0.30501 -0.66642,-0.55238c-0.17415,-0.24737 -0.26123,-0.55941 -0.26123,-0.93608zM227.01715,183.93551v0.84332h-3.35661v-0.84332zM224.6389,182.38381h0.99518v6.17307c0,0.28111 0.04082,0.49193 0.1222,0.63248c0.08435,0.13774 0.19122,0.2305 0.3206,0.27834c0.1321,0.04502 0.27112,0.06753 0.41732,0.06753c0.10959,0 0.19963,-0.00569 0.26988,-0.01707c0.07025,-0.01385 0.12641,-0.02523 0.16871,-0.03364l0.20235,0.89401c-0.06753,0.02523 -0.16153,0.05046 -0.2825,0.0757c-0.12097,0.0282 -0.27409,0.0423 -0.45962,0.0423c-0.28102,0 -0.55659,-0.06036 -0.82647,-0.18132c-0.26692,-0.12097 -0.48906,-0.30501 -0.66618,-0.55238c-0.1744,-0.24737 -0.26147,-0.55941 -0.26147,-0.93608zM229.64821,186.51606v3.89613h-0.99518v-8.63558h0.99518v3.17088h0.08435c0.15189,-0.33452 0.37947,-0.60015 0.683,-0.79694c0.3065,-0.19958 0.71417,-0.29937 1.22277,-0.29937c0.44156,0 0.82796,0.08853 1.15969,0.26563c0.33173,0.1743 0.589,0.44275 0.77156,0.80537c0.18553,0.35983 0.27829,0.81801 0.27829,1.3746v4.1154h-0.99493v-4.04792c0,-0.51444 -0.13358,-0.91219 -0.40074,-1.1933c-0.26419,-0.28391 -0.63105,-0.42588 -1.10056,-0.42588c-0.32604,0 -0.61843,0.06887 -0.87694,0.20661c-0.25578,0.13776 -0.45814,0.33875 -0.6073,0.60297c-0.14595,0.26424 -0.21917,0.58472 -0.21917,0.96139zM238.38394,190.547c-0.62412,0 -1.16241,-0.13754 -1.61485,-0.41311c-0.44997,-0.27829 -0.79704,-0.66618 -1.04169,-1.16377c-0.24168,-0.50039 -0.36265,-1.08226 -0.36265,-1.74569c0,-0.66341 0.12097,-1.2481 0.36265,-1.7541c0.24465,-0.5088 0.58479,-0.90516 1.02041,-1.18907c0.43859,-0.28673 0.95016,-0.43008 1.53495,-0.43008c0.33742,0 0.67038,0.0562 0.99939,0.16866c0.32876,0.11243 0.62808,0.29517 0.89796,0.54815c0.26988,0.25019 0.4851,0.5819 0.64515,0.99511c0.1603,0.41324 0.24045,0.92203 0.24045,1.52642v0.42165h-4.99249v-0.86017h3.98048c0,-0.36544 -0.07298,-0.69153 -0.21917,-0.97826c-0.14348,-0.28673 -0.34855,-0.51303 -0.61571,-0.67887c-0.26419,-0.16586 -0.57638,-0.24878 -0.93606,-0.24878c-0.39629,0 -0.7394,0.09838 -1.02883,0.29517c-0.28671,0.19397 -0.50736,0.44695 -0.66197,0.75899c-0.15461,0.31201 -0.23204,0.64653 -0.23204,1.00354v0.57346c0,0.48911 0.08435,0.90375 0.25306,1.24389c0.17143,0.33732 0.40891,0.59454 0.71268,0.77163c0.30353,0.1744 0.65628,0.26147 1.05826,0.26147c0.26147,0 0.49747,-0.03661 0.70848,-0.10959c0.21348,-0.07594 0.39778,-0.18842 0.55238,-0.33742c0.15461,-0.15179 0.27409,-0.34014 0.3582,-0.56503l0.96154,0.26986c-0.10118,0.32609 -0.27137,0.61279 -0.51033,0.86017c-0.23896,0.24465 -0.53408,0.43562 -0.88535,0.57341c-0.35152,0.13507 -0.74632,0.20235 -1.18492,0.20235zM250.50671,185.38601l-0.89401,0.25299c-0.05615,-0.14897 -0.13902,-0.29376 -0.24886,-0.43429c-0.10662,-0.14338 -0.25282,-0.26145 -0.43835,-0.35421c-0.18553,-0.09276 -0.42326,-0.13915 -0.71268,-0.13915c-0.39629,0 -0.72678,0.09138 -0.99098,0.27409c-0.26147,0.17991 -0.39209,0.40901 -0.39209,0.6873c0,0.24737 0.09004,0.44275 0.26988,0.5861c0.17984,0.14338 0.4611,0.26283 0.8433,0.35842l0.96129,0.23612c0.5791,0.14056 1.01077,0.3556 1.2945,0.64515c0.28398,0.28673 0.42598,0.65638 0.42598,1.10895c0,0.37106 -0.10687,0.70279 -0.3206,0.99506c-0.21076,0.2924 -0.50588,0.52295 -0.88535,0.69166c-0.37947,0.16871 -0.82078,0.25282 -1.32394,0.25282c-0.66073,0 -1.20743,-0.14323 -1.64033,-0.42993c-0.4329,-0.28671 -0.70699,-0.70563 -0.82227,-1.25658l0.94447,-0.23614c0.09004,0.34857 0.25999,0.61 0.51033,0.7843c0.25306,0.17435 0.58331,0.26142 0.99073,0.26142c0.46382,0 0.83216,-0.09845 1.10477,-0.29517c0.27557,-0.19958 0.41336,-0.43852 0.41336,-0.71681c0,-0.22489 -0.07866,-0.41324 -0.23624,-0.56503c-0.15733,-0.15461 -0.39901,-0.26986 -0.7253,-0.34575l-1.07929,-0.25301c-0.5932,-0.14053 -1.02883,-0.35839 -1.30712,-0.65356c-0.27557,-0.29796 -0.41336,-0.67043 -0.41336,-1.11738c0,-0.36544 0.10266,-0.68871 0.30798,-0.96983c0.20804,-0.28111 0.49054,-0.50177 0.8475,-0.662c0.35968,-0.16025 0.76735,-0.24035 1.22277,-0.24035c0.64094,0 1.1441,0.14056 1.50947,0.42165c0.36834,0.28111 0.62981,0.65217 0.78442,1.11318zM256.20421,187.76418v-3.82867h0.99518v6.47668h-0.99518v-1.09631h-0.06729c-0.15189,0.32896 -0.38813,0.60849 -0.70848,0.83904c-0.32035,0.22783 -0.7253,0.34162 -1.21435,0.34162c-0.4047,0 -0.76463,-0.08856 -1.07954,-0.26568c-0.31466,-0.17984 -0.56203,-0.44972 -0.74212,-0.80958c-0.17984,-0.36262 -0.26988,-0.81942 -0.26988,-1.3704v-4.11537h0.99518v4.04792c0,0.47226 0.1321,0.84894 0.39629,1.13005c0.26716,0.28111 0.6073,0.42177 1.02041,0.42177c0.24737,0 0.49895,-0.06333 0.75474,-0.18986c0.25875,-0.12651 0.4752,-0.32047 0.64935,-0.5819c0.17712,-0.26142 0.26568,-0.59454 0.26568,-0.99931zM259.02204,190.41219v-6.47668h0.96129v0.97824h0.06753c0.118,-0.32045 0.33173,-0.58049 0.64094,-0.78007c0.30922,-0.19958 0.65777,-0.29937 1.04565,-0.29937c0.07322,0 0.1645,0.00141 0.27409,0.00421c0.10959,0.00282 0.1927,0.00703 0.24886,0.01267v1.01198c-0.03389,-0.00844 -0.11107,-0.02108 -0.23204,-0.03795c-0.118,-0.01969 -0.24317,-0.02951 -0.37527,-0.02951c-0.31466,0 -0.59592,0.06605 -0.8433,0.19817c-0.2444,0.1293 -0.43859,0.30922 -0.58182,0.53972c-0.14051,0.22771 -0.21076,0.48772 -0.21076,0.78007v4.09853zM266.72994,183.93551v0.84332h-3.49143v-0.84332zM264.28441,190.41219v-7.37061c0,-0.37106 0.08708,-0.68028 0.26123,-0.92765c0.1744,-0.24737 0.40074,-0.4329 0.67904,-0.55659c0.27829,-0.12369 0.57193,-0.18553 0.88114,-0.18553c0.24465,0 0.44428,0.01969 0.59889,0.05905c0.15461,0.03936 0.26988,0.07589 0.34558,0.10964l-0.28671,0.86017c-0.05046,-0.01685 -0.12072,-0.03795 -0.21076,-0.06323c-0.08708,-0.02531 -0.20235,-0.03797 -0.34583,-0.03797c-0.32876,0 -0.56624,0.08294 -0.71243,0.24878c-0.14348,0.16586 -0.21521,0.40901 -0.21521,0.72948v7.13447zM269.84487,190.56407c-0.41039,0 -0.78269,-0.07743 -1.11738,-0.23204c-0.33445,-0.15733 -0.60013,-0.38368 -0.79679,-0.67879c-0.19691,-0.29801 -0.29512,-0.65784 -0.29512,-1.07949c0,-0.37106 0.07298,-0.67184 0.21917,-0.90234c0.1462,-0.23332 0.34162,-0.41606 0.58603,-0.54818c0.24465,-0.1321 0.51454,-0.2305 0.80965,-0.29514c0.29808,-0.06748 0.59741,-0.12089 0.89821,-0.16025c0.39357,-0.05059 0.71243,-0.08853 0.95709,-0.11384c0.24737,-0.0281 0.42721,-0.07448 0.53977,-0.13915c0.11528,-0.06466 0.17291,-0.17709 0.17291,-0.33732v-0.03374c0,-0.41603 -0.11404,-0.7393 -0.34162,-0.9698c-0.22486,-0.23053 -0.56648,-0.34578 -1.02462,-0.34578c-0.4752,0 -0.8475,0.10402 -1.11738,0.31204c-0.26988,0.20802 -0.45962,0.43008 -0.56921,0.66623l-0.94447,-0.33734c0.16846,-0.39355 0.39332,-0.69994 0.67459,-0.91921c0.28398,-0.22207 0.5932,-0.37668 0.92765,-0.46382c0.33717,-0.08994 0.6689,-0.13492 0.99518,-0.13492c0.20779,0 0.44676,0.02528 0.71664,0.07589c0.27285,0.04779 0.53556,0.14758 0.78863,0.29937c0.25578,0.15181 0.46803,0.38091 0.63674,0.6873c0.16846,0.30642 0.25282,0.71684 0.25282,1.23125v4.26719h-0.99493v-0.87694h-0.05071c-0.06753,0.14051 -0.17984,0.29091 -0.33742,0.45096c-0.15733,0.1603 -0.36661,0.2966 -0.62808,0.40916c-0.26147,0.11231 -0.58058,0.16871 -0.95733,0.16871zM269.99675,189.67007c0.39357,0 0.7253,-0.07718 0.99518,-0.23204c0.27261,-0.15448 0.47793,-0.35407 0.61546,-0.59864c0.14076,-0.24455 0.21101,-0.50177 0.21101,-0.77163v-0.91078c-0.0423,0.05061 -0.13507,0.097 -0.27829,0.13915c-0.14076,0.03936 -0.30377,0.07448 -0.4893,0.10541c-0.18256,0.02813 -0.36116,0.05343 -0.53532,0.07592c-0.17168,0.01967 -0.3107,0.03654 -0.41757,0.05059c-0.2585,0.03374 -0.50044,0.08856 -0.7253,0.16445c-0.22189,0.07307 -0.40198,0.18412 -0.53977,0.33311c-0.13482,0.14617 -0.20235,0.34575 -0.20235,0.59874c0,0.34578 0.12789,0.6072 0.38368,0.7843c0.25875,0.17435 0.58627,0.26142 0.98257,0.26142zM277.26087,190.547c-0.60705,0 -1.13,-0.14323 -1.56859,-0.42993c-0.43859,-0.28671 -0.77576,-0.68176 -1.012,-1.18492c-0.23599,-0.50316 -0.35424,-1.07803 -0.35424,-1.72456c0,-0.65779 0.12097,-1.23828 0.36265,-1.74146c0.24465,-0.506 0.58479,-0.90096 1.02041,-1.18487c0.43859,-0.28673 0.95016,-0.43008 1.53495,-0.43008c0.45541,0 0.86581,0.08433 1.23118,0.25299c0.36537,0.16866 0.66494,0.4048 0.89821,0.70838c0.23327,0.3036 0.37799,0.65779 0.43439,1.06259h-0.99518c-0.07594,-0.29517 -0.24465,-0.55659 -0.50613,-0.7843c-0.2585,-0.2305 -0.60705,-0.34575 -1.04565,-0.34575c-0.38788,0 -0.72802,0.1012 -1.02041,0.3036c-0.28943,0.19958 -0.51577,0.48208 -0.67879,0.84753c-0.1603,0.36262 -0.24045,0.7885 -0.24045,1.27763c0,0.50036 0.07866,0.93608 0.23624,1.30714c0.16005,0.37106 0.38516,0.6592 0.67459,0.8644c0.2924,0.2052 0.63525,0.30786 1.02883,0.30786c0.25875,0 0.49326,-0.04502 0.70427,-0.13507c0.21076,-0.0898 0.38937,-0.21917 0.53532,-0.38783c0.1462,-0.16866 0.25034,-0.37106 0.31218,-0.6072h0.99518c-0.0564,0.38232 -0.19542,0.72666 -0.41757,1.03313c-0.21917,0.30353 -0.51008,0.54521 -0.87273,0.7253c-0.35993,0.17712 -0.77873,0.26543 -1.25666,0.26543zM283.97779,190.547c-0.62388,0 -1.16216,-0.13754 -1.61485,-0.41311c-0.44972,-0.27829 -0.79704,-0.66618 -1.04144,-1.16377c-0.24168,-0.50039 -0.36265,-1.08226 -0.36265,-1.74569c0,-0.66341 0.12097,-1.2481 0.36265,-1.7541c0.2444,-0.5088 0.58454,-0.90516 1.02041,-1.18907c0.43859,-0.28673 0.95016,-0.43008 1.5347,-0.43008c0.33742,0 0.67063,0.0562 0.99939,0.16866c0.32901,0.11243 0.62833,0.29517 0.89821,0.54815c0.26988,0.25019 0.48485,0.5819 0.64515,0.99511c0.1603,0.41324 0.2402,0.92203 0.2402,1.52642v0.42165h-4.99224v-0.86017h3.98023c0,-0.36544 -0.07298,-0.69153 -0.21917,-0.97826c-0.14323,-0.28673 -0.34855,-0.51303 -0.61571,-0.67887c-0.26419,-0.16586 -0.57613,-0.24878 -0.93606,-0.24878c-0.39629,0 -0.73915,0.09838 -1.02883,0.29517c-0.28671,0.19397 -0.50736,0.44695 -0.66197,0.75899c-0.15461,0.31201 -0.23179,0.64653 -0.23179,1.00354v0.57346c0,0.48911 0.08435,0.90375 0.25282,1.24389c0.17168,0.33732 0.40916,0.59454 0.71268,0.77163c0.30353,0.1744 0.65628,0.26147 1.05826,0.26147c0.26147,0 0.49771,-0.03661 0.70848,-0.10959c0.21373,-0.07594 0.39778,-0.18842 0.55238,-0.33742c0.15461,-0.15179 0.27409,-0.34014 0.35844,-0.56503l0.96129,0.26986c-0.10118,0.32609 -0.27112,0.61279 -0.51008,0.86017c-0.23896,0.24465 -0.53408,0.43562 -0.8856,0.57341c-0.35127,0.13507 -0.74632,0.20235 -1.18492,0.20235zM294.14409,190.547c-0.58479,0 -1.09759,-0.13902 -1.53916,-0.41732c-0.43835,-0.27829 -0.78145,-0.66766 -1.02883,-1.168c-0.2444,-0.50039 -0.36685,-1.08508 -0.36685,-1.7541c0,-0.67466 0.12245,-1.26358 0.36685,-1.76676c0.24737,-0.50318 0.59048,-0.89391 1.02883,-1.1722c0.44156,-0.27829 0.95437,-0.41744 1.53916,-0.41744c0.58479,0 1.09636,0.13915 1.53495,0.41744c0.44131,0.27829 0.78417,0.66902 1.02883,1.1722c0.24737,0.50318 0.37106,1.0921 0.37106,1.76676c0,0.66902 -0.12369,1.25371 -0.37106,1.7541c-0.24465,0.50034 -0.58751,0.8897 -1.02883,1.168c-0.43859,0.27829 -0.95016,0.41732 -1.53495,0.41732zM294.14409,189.65324c0.44428,0 0.80965,-0.11379 1.09636,-0.3416c0.28671,-0.22768 0.49895,-0.52705 0.63674,-0.89811c0.13779,-0.37106 0.20656,-0.77304 0.20656,-1.20594c0,-0.4329 -0.06877,-0.83629 -0.20656,-1.21017c-0.13779,-0.37388 -0.35003,-0.67605 -0.63674,-0.90657c-0.28671,-0.2305 -0.65208,-0.34575 -1.09636,-0.34575c-0.44403,0 -0.80965,0.11525 -1.09636,0.34575c-0.28671,0.23053 -0.49895,0.53269 -0.63674,0.90657c-0.13754,0.37388 -0.20656,0.77727 -0.20656,1.21017c0,0.4329 0.06902,0.83488 0.20656,1.20594c0.13779,0.37106 0.35003,0.67043 0.63674,0.89811c0.28671,0.22781 0.65232,0.3416 1.09636,0.3416zM301.48192,183.93551v0.84332h-3.49118v-0.84332zM299.03639,190.41219v-7.37061c0,-0.37106 0.08708,-0.68028 0.26147,-0.92765c0.17415,-0.24737 0.4005,-0.4329 0.67879,-0.55659c0.27829,-0.12369 0.57217,-0.18553 0.88139,-0.18553c0.2444,0 0.44403,0.01969 0.59864,0.05905c0.15461,0.03936 0.26988,0.07589 0.34583,0.10964l-0.28671,0.86017c-0.05071,-0.01685 -0.12097,-0.03795 -0.21076,-0.06323c-0.08732,-0.02531 -0.2026,-0.03797 -0.34583,-0.03797c-0.32901,0 -0.56648,0.08294 -0.71268,0.24878c-0.14323,0.16586 -0.21497,0.40901 -0.21497,0.72948v7.13447zM309.03299,183.93551v0.84332h-3.35661v-0.84332zM306.65474,182.38381h0.99518v6.17307c0,0.28111 0.04057,0.49193 0.1222,0.63248c0.08435,0.13774 0.19122,0.2305 0.32035,0.27834c0.13234,0.04502 0.27137,0.06753 0.41757,0.06753c0.10959,0 0.19963,-0.00569 0.26988,-0.01707c0.07025,-0.01385 0.12641,-0.02523 0.16871,-0.03364l0.20235,0.89401c-0.06753,0.02523 -0.16178,0.05046 -0.2825,0.0757c-0.12097,0.0282 -0.27409,0.0423 -0.45962,0.0423c-0.28126,0 -0.55659,-0.06036 -0.82647,-0.18132c-0.26716,-0.12097 -0.48906,-0.30501 -0.66618,-0.55238c-0.1744,-0.24737 -0.26147,-0.55941 -0.26147,-0.93608zM311.66405,186.51606v3.89613h-0.99518v-8.63558h0.99518v3.17088h0.08435c0.15164,-0.33452 0.37947,-0.60015 0.683,-0.79694c0.3065,-0.19958 0.71417,-0.29937 1.22277,-0.29937c0.44131,0 0.82796,0.08853 1.15969,0.26563c0.33173,0.1743 0.589,0.44275 0.77156,0.80537c0.18553,0.35983 0.27829,0.81801 0.27829,1.3746v4.1154h-0.99518v-4.04792c0,-0.51444 -0.13333,-0.91219 -0.4005,-1.1933c-0.26419,-0.28391 -0.63105,-0.42588 -1.10056,-0.42588c-0.32604,0 -0.61843,0.06887 -0.87694,0.20661c-0.25578,0.13776 -0.45814,0.33875 -0.6073,0.60297c-0.1462,0.26424 -0.21917,0.58472 -0.21917,0.96139zM320.39978,190.547c-0.62412,0 -1.16241,-0.13754 -1.6151,-0.41311c-0.44972,-0.27829 -0.79679,-0.66618 -1.04144,-1.16377c-0.24168,-0.50039 -0.36265,-1.08226 -0.36265,-1.74569c0,-0.66341 0.12097,-1.2481 0.36265,-1.7541c0.24465,-0.5088 0.58479,-0.90516 1.02041,-1.18907c0.43859,-0.28673 0.95016,-0.43008 1.53495,-0.43008c0.33717,0 0.67038,0.0562 0.99939,0.16866c0.32876,0.11243 0.62808,0.29517 0.89796,0.54815c0.26988,0.25019 0.48485,0.5819 0.64515,0.99511c0.1603,0.41324 0.24045,0.92203 0.24045,1.52642v0.42165h-4.99249v-0.86017h3.98048c0,-0.36544 -0.07322,-0.69153 -0.21942,-0.97826c-0.14323,-0.28673 -0.34855,-0.51303 -0.61546,-0.67887c-0.26419,-0.16586 -0.57638,-0.24878 -0.93606,-0.24878c-0.39654,0 -0.7394,0.09838 -1.02883,0.29517c-0.28671,0.19397 -0.50736,0.44695 -0.66197,0.75899c-0.15461,0.31201 -0.23204,0.64653 -0.23204,1.00354v0.57346c0,0.48911 0.08435,0.90375 0.25306,1.24389c0.17143,0.33732 0.40891,0.59454 0.71243,0.77163c0.30377,0.1744 0.65653,0.26147 1.05851,0.26147c0.26147,0 0.49747,-0.03661 0.70823,-0.10959c0.21373,-0.07594 0.39778,-0.18842 0.55238,-0.33742c0.15461,-0.15179 0.27409,-0.34014 0.35844,-0.56503l0.96154,0.26986c-0.10118,0.32609 -0.27137,0.61279 -0.51033,0.86017c-0.23896,0.24465 -0.53408,0.43562 -0.88535,0.57341c-0.35152,0.13507 -0.74632,0.20235 -1.18492,0.20235zM328.06984,190.41219v-8.63558h5.21166v0.92765h-4.16601v2.91789h3.89613v0.92765h-3.89613v2.93474h4.2333v0.92765zM336.93718,190.56407c-0.41039,0 -0.78294,-0.07743 -1.11738,-0.23204c-0.33445,-0.15733 -0.60013,-0.38368 -0.79704,-0.67879c-0.19666,-0.29801 -0.29512,-0.65784 -0.29512,-1.07949c0,-0.37106 0.07322,-0.67184 0.21942,-0.90234c0.1462,-0.23332 0.34138,-0.41606 0.58603,-0.54818c0.24465,-0.1321 0.51454,-0.2305 0.80965,-0.29514c0.29784,-0.06748 0.59716,-0.12089 0.89796,-0.16025c0.39357,-0.05059 0.71268,-0.08853 0.95733,-0.11384c0.24737,-0.0281 0.42721,-0.07448 0.53977,-0.13915c0.11503,-0.06466 0.17267,-0.17709 0.17267,-0.33732v-0.03374c0,-0.41603 -0.11379,-0.7393 -0.34138,-0.9698c-0.22486,-0.23053 -0.56648,-0.34578 -1.02462,-0.34578c-0.4752,0 -0.8475,0.10402 -1.11738,0.31204c-0.26988,0.20802 -0.45962,0.43008 -0.56945,0.66623l-0.94447,-0.33734c0.16871,-0.39355 0.39357,-0.69994 0.67483,-0.91921c0.28374,-0.22207 0.59295,-0.37668 0.92765,-0.46382c0.33717,-0.08994 0.6689,-0.13492 0.99493,-0.13492c0.20804,0 0.447,0.02528 0.71689,0.07589c0.27261,0.04779 0.53556,0.14758 0.78863,0.29937c0.25578,0.15181 0.46803,0.38091 0.63649,0.6873c0.16871,0.30642 0.25306,0.71684 0.25306,1.23125v4.26719h-0.99518v-0.87694h-0.05046c-0.06753,0.14051 -0.17984,0.29091 -0.33742,0.45096c-0.15733,0.1603 -0.36685,0.2966 -0.62833,0.40916c-0.26123,0.11231 -0.58034,0.16871 -0.95709,0.16871zM337.08906,189.67007c0.39357,0 0.7253,-0.07718 0.99493,-0.23204c0.27285,-0.15448 0.47793,-0.35407 0.61571,-0.59864c0.14051,-0.24455 0.21076,-0.50177 0.21076,-0.77163v-0.91078c-0.04205,0.05061 -0.13482,0.097 -0.27829,0.13915c-0.14051,0.03936 -0.30353,0.07448 -0.48906,0.10541c-0.18281,0.02813 -0.36116,0.05343 -0.53556,0.07592c-0.17143,0.01967 -0.31045,0.03654 -0.41732,0.05059c-0.25875,0.03374 -0.50044,0.08856 -0.7253,0.16445c-0.22214,0.07307 -0.40198,0.18412 -0.53977,0.33311c-0.13482,0.14617 -0.20235,0.34575 -0.20235,0.59874c0,0.34578 0.12789,0.6072 0.38368,0.7843c0.25875,0.17435 0.58603,0.26142 0.98257,0.26142zM341.72187,190.41219v-6.47668h0.96154v0.97824h0.06753c0.118,-0.32045 0.33148,-0.58049 0.6407,-0.78007c0.30922,-0.19958 0.65801,-0.29937 1.04589,-0.29937c0.07298,0 0.16426,0.00141 0.27409,0.00421c0.10959,0.00282 0.19246,0.00703 0.24861,0.01267v1.01198c-0.03364,-0.00844 -0.11107,-0.02108 -0.23179,-0.03795c-0.118,-0.01969 -0.24317,-0.02951 -0.37527,-0.02951c-0.31491,0 -0.59592,0.06605 -0.8433,0.19817c-0.24465,0.1293 -0.43859,0.30922 -0.58207,0.53972c-0.14051,0.22771 -0.21076,0.48772 -0.21076,0.78007v4.09853zM349.36248,183.93551v0.84332h-3.35636v-0.84332zM346.98424,182.38381h0.99518v6.17307c0,0.28111 0.04082,0.49193 0.1222,0.63248c0.08435,0.13774 0.19122,0.2305 0.3206,0.27834c0.1321,0.04502 0.27112,0.06753 0.41732,0.06753c0.10959,0 0.19963,-0.00569 0.26988,-0.01707c0.07025,-0.01385 0.12641,-0.02523 0.16871,-0.03364l0.20235,0.89401c-0.06753,0.02523 -0.16153,0.05046 -0.2825,0.0757c-0.12097,0.0282 -0.27409,0.0423 -0.45962,0.0423c-0.28102,0 -0.55659,-0.06036 -0.82647,-0.18132c-0.26692,-0.12097 -0.48906,-0.30501 -0.66618,-0.55238c-0.1744,-0.24737 -0.26147,-0.55941 -0.26147,-0.93608zM351.99355,186.51606v3.89613h-0.99518v-8.63558h0.99518v3.17088h0.08435c0.15189,-0.33452 0.37947,-0.60015 0.683,-0.79694c0.3065,-0.19958 0.71417,-0.29937 1.22301,-0.29937c0.44131,0 0.82771,0.08853 1.15944,0.26563c0.33173,0.1743 0.589,0.44275 0.77156,0.80537c0.18553,0.35983 0.27829,0.81801 0.27829,1.3746v4.1154h-0.99493v-4.04792c0,-0.51444 -0.13358,-0.91219 -0.40074,-1.1933c-0.26419,-0.28391 -0.63105,-0.42588 -1.10032,-0.42588c-0.32629,0 -0.61843,0.06887 -0.87719,0.20661c-0.25578,0.13776 -0.45814,0.33875 -0.60705,0.60297c-0.1462,0.26424 -0.21942,0.58472 -0.21942,0.96139zM359.31258,187.98343v-0.05059c0.00569,-0.53692 0.06184,-0.96421 0.16871,-1.28184c0.10662,-0.31765 0.2585,-0.57487 0.45541,-0.77166c0.19666,-0.19676 0.4329,-0.37809 0.70823,-0.54392c0.16599,-0.1012 0.31491,-0.22068 0.447,-0.35842c0.1321,-0.14056 0.23624,-0.30219 0.31194,-0.4849c0.07891,-0.18273 0.11824,-0.38511 0.11824,-0.6072c0,-0.27547 -0.06481,-0.51441 -0.19394,-0.71681c-0.12938,-0.2024 -0.30229,-0.35842 -0.51874,-0.46803c-0.21645,-0.10964 -0.4569,-0.16445 -0.72109,-0.16445c-0.23055,0 -0.45245,0.04779 -0.66618,0.14335c-0.21373,0.09559 -0.39209,0.24599 -0.53556,0.45118c-0.14323,0.2052 -0.22635,0.47367 -0.24861,0.80537h-1.06272c0.02251,-0.47788 0.1462,-0.88688 0.37106,-1.22702c0.22783,-0.34014 0.52715,-0.60018 0.89821,-0.78009c0.37378,-0.17989 0.78838,-0.26986 1.24379,-0.26986c0.49475,0 0.92493,0.09841 1.2903,0.29517c0.36834,0.19679 0.65208,0.46664 0.85171,0.80958c0.20235,0.34296 0.30377,0.73371 0.30377,1.17223c0,0.30922 -0.04799,0.58892 -0.14348,0.83909c-0.09276,0.25019 -0.22758,0.47367 -0.4047,0.67046c-0.1744,0.19676 -0.38516,0.37106 -0.63253,0.52285c-0.24737,0.15461 -0.44552,0.31765 -0.59469,0.48913c-0.14892,0.16866 -0.25702,0.36965 -0.32455,0.60297c-0.06753,0.2333 -0.10414,0.52426 -0.10959,0.87283v0.05059zM359.85234,190.47972c-0.20804,0 -0.38664,-0.07446 -0.53556,-0.22363c-0.14892,-0.14892 -0.22363,-0.32752 -0.22363,-0.53532c0,-0.20804 0.07471,-0.38664 0.22363,-0.53561c0.14892,-0.14899 0.32752,-0.22348 0.53556,-0.22348c0.20804,0 0.3864,0.07448 0.53532,0.22348c0.14917,0.14897 0.22363,0.32757 0.22363,0.53561c0,0.13754 -0.03513,0.26419 -0.10538,0.37947c-0.06753,0.11528 -0.15881,0.20804 -0.27409,0.27829c-0.11255,0.06729 -0.23896,0.10118 -0.37947,0.10118z"/></g></g></svg>