<svg xmlns="http://www.w3.org/2000/svg" fill="none" viewBox="0 0 139 164" height="164" width="139">
<path fill="#43D059" d="M0 20C0 8.95431 8.95431 0 20 0H119C130.046 0 139 8.95431 139 20V144C139 155.046 130.046 164 119 164H20C8.95431 164 0 155.046 0 144V20Z"></path>
<path fill="black" d="M36.2102 135.455V150H34.5341V135.455H36.2102ZM43.854 150.227C42.8029 150.227 41.8962 149.995 41.1339 149.531C40.3763 149.062 39.7915 148.409 39.3796 147.571C38.9724 146.728 38.7688 145.748 38.7688 144.631C38.7688 143.513 38.9724 142.528 39.3796 141.676C39.7915 140.819 40.3645 140.152 41.0984 139.673C41.837 139.19 42.6987 138.949 43.6836 138.949C44.2518 138.949 44.8129 139.044 45.3668 139.233C45.9208 139.422 46.4251 139.73 46.8796 140.156C47.3342 140.578 47.6964 141.136 47.9663 141.832C48.2362 142.528 48.3711 143.385 48.3711 144.403V145.114H39.962V143.665H46.6665C46.6665 143.049 46.5434 142.5 46.2972 142.017C46.0558 141.534 45.7101 141.153 45.2603 140.874C44.8152 140.594 44.2897 140.455 43.6836 140.455C43.016 140.455 42.4383 140.62 41.9506 140.952C41.4677 141.278 41.096 141.705 40.8356 142.23C40.5752 142.756 40.445 143.319 40.445 143.92V144.886C40.445 145.71 40.587 146.409 40.8711 146.982C41.1599 147.55 41.56 147.983 42.0714 148.281C42.5827 148.575 43.177 148.722 43.854 148.722C44.2944 148.722 44.6921 148.66 45.0472 148.537C45.4071 148.409 45.7172 148.22 45.9776 147.969C46.238 147.713 46.4393 147.396 46.5813 147.017L48.2006 147.472C48.0302 148.021 47.7437 148.504 47.3413 148.92C46.9388 149.332 46.4416 149.654 45.8498 149.886C45.2579 150.114 44.5927 150.227 43.854 150.227ZM55.6651 139.091V140.511H50.0117V139.091H55.6651ZM51.6594 136.477H53.3356V146.875C53.3356 147.348 53.4042 147.704 53.5415 147.94C53.6836 148.172 53.8635 148.329 54.0813 148.409C54.3039 148.485 54.5382 148.523 54.7844 148.523C54.9691 148.523 55.1206 148.513 55.239 148.494C55.3574 148.471 55.4521 148.452 55.5231 148.438L55.864 149.943C55.7504 149.986 55.5917 150.028 55.3881 150.071C55.1845 150.118 54.9265 150.142 54.614 150.142C54.1405 150.142 53.6765 150.04 53.2219 149.837C52.7721 149.633 52.3981 149.323 52.0998 148.906C51.8062 148.49 51.6594 147.964 51.6594 147.33V136.477ZM62.9308 139.091V140.511H57.2773V139.091H62.9308ZM58.9251 136.477H60.6012V146.875C60.6012 147.348 60.6699 147.704 60.8072 147.94C60.9492 148.172 61.1291 148.329 61.3469 148.409C61.5695 148.485 61.8039 148.523 62.0501 148.523C62.2347 148.523 62.3862 148.513 62.5046 148.494C62.623 148.471 62.7177 148.452 62.7887 148.438L63.1296 149.943C63.016 149.986 62.8574 150.028 62.6538 150.071C62.4502 150.118 62.1921 150.142 61.8796 150.142C61.4061 150.142 60.9421 150.04 60.4876 149.837C60.0378 149.633 59.6637 149.323 59.3654 148.906C59.0719 148.49 58.9251 147.964 58.9251 147.33V136.477ZM69.9087 150.227C68.8576 150.227 67.9509 149.995 67.1886 149.531C66.431 149.062 65.8462 148.409 65.4343 147.571C65.0271 146.728 64.8235 145.748 64.8235 144.631C64.8235 143.513 65.0271 142.528 65.4343 141.676C65.8462 140.819 66.4192 140.152 67.1531 139.673C67.8917 139.19 68.7534 138.949 69.7383 138.949C70.3065 138.949 70.8675 139.044 71.4215 139.233C71.9755 139.422 72.4798 139.73 72.9343 140.156C73.3888 140.578 73.7511 141.136 74.021 141.832C74.2908 142.528 74.4258 143.385 74.4258 144.403V145.114H66.0167V143.665H72.7212C72.7212 143.049 72.5981 142.5 72.3519 142.017C72.1104 141.534 71.7648 141.153 71.315 140.874C70.8699 140.594 70.3443 140.455 69.7383 140.455C69.0707 140.455 68.493 140.62 68.0053 140.952C67.5224 141.278 67.1507 141.705 66.8903 142.23C66.6299 142.756 66.4996 143.319 66.4996 143.92V144.886C66.4996 145.71 66.6417 146.409 66.9258 146.982C67.2146 147.55 67.6147 147.983 68.1261 148.281C68.6374 148.575 69.2317 148.722 69.9087 148.722C70.3491 148.722 70.7468 148.66 71.1019 148.537C71.4618 148.409 71.7719 148.22 72.0323 147.969C72.2927 147.713 72.494 147.396 72.636 147.017L74.2553 147.472C74.0849 148.021 73.7984 148.504 73.396 148.92C72.9935 149.332 72.4963 149.654 71.9045 149.886C71.3126 150.114 70.6474 150.227 69.9087 150.227ZM76.9755 150V139.091H78.5948V140.739H78.7085C78.9073 140.199 79.2672 139.761 79.788 139.425C80.3088 139.089 80.896 138.92 81.5494 138.92C81.6725 138.92 81.8263 138.923 82.011 138.928C82.1957 138.932 82.3353 138.939 82.43 138.949V140.653C82.3732 140.639 82.243 140.618 82.0394 140.589C81.8406 140.556 81.6299 140.54 81.4073 140.54C80.877 140.54 80.4035 140.651 79.9869 140.874C79.5749 141.091 79.2482 141.394 79.0067 141.783C78.77 142.166 78.6516 142.604 78.6516 143.097V150H76.9755ZM90.8658 150H89.0192L94.3601 135.455H96.1783L101.519 150H99.6726L95.326 137.756H95.2124L90.8658 150ZM91.5476 144.318H98.9908V145.881H91.5476V144.318Z"></path>
<path fill="black" d="M36.3226 71.0909C36.3226 73.392 35.9071 75.3807 35.0762 77.0568C34.2452 78.733 33.1053 80.0256 31.6564 80.9347C30.2076 81.8438 28.5527 82.2983 26.6919 82.2983C24.8311 82.2983 23.1763 81.8438 21.7275 80.9347C20.2786 80.0256 19.1387 78.733 18.3077 77.0568C17.4767 75.3807 17.0613 73.392 17.0613 71.0909C17.0613 68.7898 17.4767 66.8011 18.3077 65.125C19.1387 63.4489 20.2786 62.1562 21.7275 61.2472C23.1763 60.3381 24.8311 59.8835 26.6919 59.8835C28.5527 59.8835 30.2076 60.3381 31.6564 61.2472C33.1053 62.1562 34.2452 63.4489 35.0762 65.125C35.9071 66.8011 36.3226 68.7898 36.3226 71.0909ZM33.7658 71.0909C33.7658 69.2017 33.4498 67.6072 32.8176 66.3075C32.1926 65.0078 31.3439 64.0241 30.2715 63.3565C29.2061 62.6889 28.013 62.3551 26.6919 62.3551C25.3709 62.3551 24.1742 62.6889 23.1017 63.3565C22.0364 64.0241 21.1877 65.0078 20.5556 66.3075C19.9306 67.6072 19.6181 69.2017 19.6181 71.0909C19.6181 72.9801 19.9306 74.5746 20.5556 75.8743C21.1877 77.174 22.0364 78.1577 23.1017 78.8253C24.1742 79.4929 25.3709 79.8267 26.6919 79.8267C28.013 79.8267 29.2061 79.4929 30.2715 78.8253C31.3439 78.1577 32.1926 77.174 32.8176 75.8743C33.4498 74.5746 33.7658 72.9801 33.7658 71.0909ZM42.2992 65.6364L46.2196 72.3267L50.1401 65.6364H53.0378L47.7537 73.8182L53.0378 82H50.1401L46.2196 75.6506L42.2992 82H39.4015L44.6003 73.8182L39.4015 65.6364H42.2992ZM58.2447 88.1364C57.8185 88.1364 57.4386 88.1009 57.1048 88.0298C56.771 87.9659 56.5401 87.902 56.4123 87.8381L57.0515 85.6222C57.6623 85.7784 58.2021 85.8352 58.6708 85.7926C59.1396 85.75 59.555 85.5405 59.9173 85.1641C60.2866 84.7947 60.6239 84.1946 60.9293 83.3636L61.3981 82.0852L55.3469 65.6364H58.0742L62.5913 78.6761H62.7617L67.2788 65.6364H70.006L63.06 84.3864C62.7475 85.2315 62.3604 85.9311 61.8988 86.4851C61.4371 87.0462 60.9009 87.4616 60.2901 87.7315C59.6864 88.0014 59.0046 88.1364 58.2447 88.1364ZM79.3438 88.4773C78.1293 88.4773 77.0852 88.321 76.2116 88.0085C75.3381 87.7031 74.6101 87.2983 74.0277 86.794C73.4524 86.2969 72.9943 85.7642 72.6534 85.196L74.6562 83.7898C74.8835 84.0881 75.1712 84.429 75.5192 84.8125C75.8672 85.2031 76.343 85.5405 76.9467 85.8246C77.5575 86.1158 78.3565 86.2614 79.3438 86.2614C80.6648 86.2614 81.755 85.9418 82.6143 85.3026C83.4737 84.6634 83.9034 83.6619 83.9034 82.2983V78.9744H83.6903C83.5057 79.2727 83.2429 79.642 82.902 80.0824C82.5682 80.5156 82.0852 80.9027 81.4531 81.2436C80.8281 81.5774 79.983 81.7443 78.9176 81.7443C77.5966 81.7443 76.4105 81.4318 75.3594 80.8068C74.3153 80.1818 73.4879 79.2727 72.8771 78.0795C72.2734 76.8864 71.9716 75.4375 71.9716 73.733C71.9716 72.0568 72.2663 70.5973 72.8558 69.3544C73.4453 68.1044 74.2656 67.1385 75.3168 66.4567C76.3679 65.7678 77.5824 65.4233 78.9602 65.4233C80.0256 65.4233 80.8707 65.6009 81.4957 65.956C82.1278 66.304 82.6108 66.7017 82.9446 67.1491C83.2855 67.5895 83.5483 67.9517 83.733 68.2358H83.9886V65.6364H86.4176V82.4688C86.4176 83.875 86.098 85.0185 85.4588 85.8991C84.8267 86.7869 83.9744 87.4368 82.902 87.8487C81.8366 88.2678 80.6506 88.4773 79.3438 88.4773ZM79.2585 79.4858C80.267 79.4858 81.1193 79.255 81.8153 78.7933C82.5114 78.3317 83.0405 77.6676 83.4027 76.8011C83.7649 75.9347 83.946 74.8977 83.946 73.6903C83.946 72.5114 83.7685 71.4709 83.4134 70.5689C83.0582 69.6669 82.5327 68.9602 81.8366 68.4489C81.1406 67.9375 80.2813 67.6818 79.2585 67.6818C78.1932 67.6818 77.3054 67.9517 76.5952 68.4915C75.892 69.0312 75.3629 69.7557 75.0078 70.6648C74.6598 71.5739 74.4858 72.5824 74.4858 73.6903C74.4858 74.8267 74.6634 75.8317 75.0185 76.7053C75.3807 77.5717 75.9134 78.2536 76.6165 78.7507C77.3267 79.2408 78.2074 79.4858 79.2585 79.4858ZM97.8807 82.3409C96.304 82.3409 94.9439 81.9929 93.8004 81.2969C92.6641 80.5938 91.7869 79.6136 91.169 78.3565C90.5582 77.0923 90.2528 75.6222 90.2528 73.946C90.2528 72.2699 90.5582 70.7926 91.169 69.5142C91.7869 68.2287 92.6463 67.2273 93.7472 66.5099C94.8551 65.7855 96.1477 65.4233 97.625 65.4233C98.4773 65.4233 99.3189 65.5653 100.15 65.8494C100.981 66.1335 101.737 66.5952 102.419 67.2344C103.101 67.8665 103.644 68.7045 104.049 69.7486C104.454 70.7926 104.656 72.0781 104.656 73.6051V74.6705H92.0426V72.4972H102.099C102.099 71.5739 101.915 70.75 101.545 70.0256C101.183 69.3011 100.665 68.7294 99.9901 68.3104C99.3224 67.8913 98.5341 67.6818 97.625 67.6818C96.6236 67.6818 95.7571 67.9304 95.0256 68.4276C94.3011 68.9176 93.7436 69.5568 93.353 70.3452C92.9624 71.1335 92.767 71.9787 92.767 72.8807V74.3295C92.767 75.5653 92.9801 76.6129 93.4062 77.4723C93.8395 78.3246 94.4396 78.9744 95.2067 79.4219C95.9737 79.8622 96.8651 80.0824 97.8807 80.0824C98.5412 80.0824 99.1378 79.9901 99.6705 79.8054C100.21 79.6136 100.675 79.3295 101.066 78.9531C101.457 78.5696 101.759 78.0937 101.972 77.5256L104.401 78.2074C104.145 79.0312 103.715 79.7557 103.112 80.3807C102.508 80.9986 101.762 81.4815 100.874 81.8295C99.9865 82.1705 98.9886 82.3409 97.8807 82.3409ZM110.995 72.1562V82H108.481V65.6364H110.91V68.1932H111.123C111.506 67.3622 112.089 66.6946 112.87 66.1903C113.651 65.679 114.66 65.4233 115.896 65.4233C117.004 65.4233 117.973 65.6506 118.804 66.1051C119.635 66.5526 120.281 67.2344 120.743 68.1506C121.205 69.0597 121.435 70.2102 121.435 71.6023V82H118.921V71.7727C118.921 70.4872 118.587 69.4858 117.92 68.7685C117.252 68.044 116.336 67.6818 115.171 67.6818C114.369 67.6818 113.651 67.8558 113.019 68.2038C112.394 68.5518 111.901 69.0597 111.538 69.7273C111.176 70.3949 110.995 71.2045 110.995 72.1562Z"></path>
</svg>
