<svg xmlns="http://www.w3.org/2000/svg" fill="none" viewBox="0 0 139 164" height="164" width="139">
<path fill="#EEC638" d="M0 20C0 8.95431 8.95431 0 20 0H119C130.046 0 139 8.95431 139 20V144C139 155.046 130.046 164 119 164H20C8.95431 164 0 155.046 0 144V20Z"></path>
<path fill="black" d="M36.2102 135.455V150H34.5341V135.455H36.2102ZM43.854 150.227C42.8029 150.227 41.8962 149.995 41.1339 149.531C40.3763 149.062 39.7915 148.409 39.3796 147.571C38.9724 146.728 38.7688 145.748 38.7688 144.631C38.7688 143.513 38.9724 142.528 39.3796 141.676C39.7915 140.819 40.3645 140.152 41.0984 139.673C41.837 139.19 42.6987 138.949 43.6836 138.949C44.2518 138.949 44.8129 139.044 45.3668 139.233C45.9208 139.422 46.4251 139.73 46.8796 140.156C47.3342 140.578 47.6964 141.136 47.9663 141.832C48.2362 142.528 48.3711 143.385 48.3711 144.403V145.114H39.962V143.665H46.6665C46.6665 143.049 46.5434 142.5 46.2972 142.017C46.0558 141.534 45.7101 141.153 45.2603 140.874C44.8152 140.594 44.2897 140.455 43.6836 140.455C43.016 140.455 42.4383 140.62 41.9506 140.952C41.4677 141.278 41.096 141.705 40.8356 142.23C40.5752 142.756 40.445 143.319 40.445 143.92V144.886C40.445 145.71 40.587 146.409 40.8711 146.982C41.1599 147.55 41.56 147.983 42.0714 148.281C42.5827 148.575 43.177 148.722 43.854 148.722C44.2944 148.722 44.6921 148.66 45.0472 148.537C45.4071 148.409 45.7172 148.22 45.9776 147.969C46.238 147.713 46.4393 147.396 46.5813 147.017L48.2006 147.472C48.0302 148.021 47.7437 148.504 47.3413 148.92C46.9388 149.332 46.4416 149.654 45.8498 149.886C45.2579 150.114 44.5927 150.227 43.854 150.227ZM55.6651 139.091V140.511H50.0117V139.091H55.6651ZM51.6594 136.477H53.3356V146.875C53.3356 147.348 53.4042 147.704 53.5415 147.94C53.6836 148.172 53.8635 148.329 54.0813 148.409C54.3039 148.485 54.5382 148.523 54.7844 148.523C54.9691 148.523 55.1206 148.513 55.239 148.494C55.3574 148.471 55.4521 148.452 55.5231 148.438L55.864 149.943C55.7504 149.986 55.5917 150.028 55.3881 150.071C55.1845 150.118 54.9265 150.142 54.614 150.142C54.1405 150.142 53.6765 150.04 53.2219 149.837C52.7721 149.633 52.3981 149.323 52.0998 148.906C51.8062 148.49 51.6594 147.964 51.6594 147.33V136.477ZM62.9308 139.091V140.511H57.2773V139.091H62.9308ZM58.9251 136.477H60.6012V146.875C60.6012 147.348 60.6699 147.704 60.8072 147.94C60.9492 148.172 61.1291 148.329 61.3469 148.409C61.5695 148.485 61.8039 148.523 62.0501 148.523C62.2347 148.523 62.3862 148.513 62.5046 148.494C62.623 148.471 62.7177 148.452 62.7887 148.438L63.1296 149.943C63.016 149.986 62.8574 150.028 62.6538 150.071C62.4502 150.118 62.1921 150.142 61.8796 150.142C61.4061 150.142 60.9421 150.04 60.4876 149.837C60.0378 149.633 59.6637 149.323 59.3654 148.906C59.0719 148.49 58.9251 147.964 58.9251 147.33V136.477ZM69.9087 150.227C68.8576 150.227 67.9509 149.995 67.1886 149.531C66.431 149.062 65.8462 148.409 65.4343 147.571C65.0271 146.728 64.8235 145.748 64.8235 144.631C64.8235 143.513 65.0271 142.528 65.4343 141.676C65.8462 140.819 66.4192 140.152 67.1531 139.673C67.8917 139.19 68.7534 138.949 69.7383 138.949C70.3065 138.949 70.8675 139.044 71.4215 139.233C71.9755 139.422 72.4798 139.73 72.9343 140.156C73.3888 140.578 73.7511 141.136 74.021 141.832C74.2908 142.528 74.4258 143.385 74.4258 144.403V145.114H66.0167V143.665H72.7212C72.7212 143.049 72.5981 142.5 72.3519 142.017C72.1104 141.534 71.7648 141.153 71.315 140.874C70.8699 140.594 70.3443 140.455 69.7383 140.455C69.0707 140.455 68.493 140.62 68.0053 140.952C67.5224 141.278 67.1507 141.705 66.8903 142.23C66.6299 142.756 66.4996 143.319 66.4996 143.92V144.886C66.4996 145.71 66.6417 146.409 66.9258 146.982C67.2146 147.55 67.6147 147.983 68.1261 148.281C68.6374 148.575 69.2317 148.722 69.9087 148.722C70.3491 148.722 70.7468 148.66 71.1019 148.537C71.4618 148.409 71.7719 148.22 72.0323 147.969C72.2927 147.713 72.494 147.396 72.636 147.017L74.2553 147.472C74.0849 148.021 73.7984 148.504 73.396 148.92C72.9935 149.332 72.4963 149.654 71.9045 149.886C71.3126 150.114 70.6474 150.227 69.9087 150.227ZM76.9755 150V139.091H78.5948V140.739H78.7085C78.9073 140.199 79.2672 139.761 79.788 139.425C80.3088 139.089 80.896 138.92 81.5494 138.92C81.6725 138.92 81.8263 138.923 82.011 138.928C82.1957 138.932 82.3353 138.939 82.43 138.949V140.653C82.3732 140.639 82.243 140.618 82.0394 140.589C81.8406 140.556 81.6299 140.54 81.4073 140.54C80.877 140.54 80.4035 140.651 79.9869 140.874C79.5749 141.091 79.2482 141.394 79.0067 141.783C78.77 142.166 78.6516 142.604 78.6516 143.097V150H76.9755ZM101.974 140H100.212C100.108 139.493 99.9259 139.048 99.6655 138.665C99.4098 138.281 99.0973 137.959 98.728 137.699C98.3634 137.434 97.9586 137.235 97.5135 137.102C97.0684 136.97 96.6044 136.903 96.1214 136.903C95.2408 136.903 94.4429 137.126 93.728 137.571C93.0178 138.016 92.4519 138.672 92.0305 139.538C91.6139 140.405 91.4055 141.468 91.4055 142.727C91.4055 143.987 91.6139 145.05 92.0305 145.916C92.4519 146.783 93.0178 147.438 93.728 147.884C94.4429 148.329 95.2408 148.551 96.1214 148.551C96.6044 148.551 97.0684 148.485 97.5135 148.352C97.9586 148.22 98.3634 148.023 98.728 147.763C99.0973 147.498 99.4098 147.173 99.6655 146.79C99.9259 146.402 100.108 145.956 100.212 145.455H101.974C101.841 146.198 101.6 146.863 101.249 147.45C100.899 148.037 100.463 148.537 99.9425 148.949C99.4216 149.356 98.8369 149.666 98.1882 149.879C97.5443 150.092 96.8554 150.199 96.1214 150.199C94.8809 150.199 93.7777 149.896 92.8118 149.29C91.8459 148.684 91.0859 147.822 90.532 146.705C89.978 145.587 89.701 144.261 89.701 142.727C89.701 141.193 89.978 139.867 90.532 138.75C91.0859 137.633 91.8459 136.771 92.8118 136.165C93.7777 135.559 94.8809 135.256 96.1214 135.256C96.8554 135.256 97.5443 135.362 98.1882 135.575C98.8369 135.788 99.4216 136.101 99.9425 136.513C100.463 136.92 100.899 137.417 101.249 138.004C101.6 138.587 101.841 139.252 101.974 140Z"></path>
<path fill="black" d="M10.7777 73H8.19247L15.6697 52.6364H18.2152L25.6925 73H23.1072L17.022 55.858H16.8629L10.7777 73ZM11.7322 65.0455H22.1527V67.233H11.7322V65.0455ZM34.3132 73.3182C33.0405 73.3182 31.9169 72.9967 30.9425 72.3537C29.968 71.7041 29.2057 70.7893 28.6555 69.6094C28.1054 68.4228 27.8303 67.0208 27.8303 65.4034C27.8303 63.7992 28.1054 62.4072 28.6555 61.2273C29.2057 60.0473 29.9714 59.1359 30.9524 58.4929C31.9335 57.8499 33.067 57.5284 34.353 57.5284C35.3473 57.5284 36.1328 57.6941 36.7095 58.0256C37.2929 58.3504 37.737 58.7216 38.0419 59.1392C38.3535 59.5502 38.5954 59.8883 38.7678 60.1534H38.9666V52.6364H41.3132V73H39.0462V70.6534H38.7678C38.5954 70.9318 38.3501 71.2831 38.032 71.7074C37.7138 72.125 37.2597 72.4995 36.6697 72.831C36.0798 73.1558 35.2943 73.3182 34.3132 73.3182ZM34.6314 71.2102C35.5727 71.2102 36.3681 70.965 37.0178 70.4744C37.6674 69.9773 38.1612 69.2912 38.4993 68.4162C38.8374 67.5346 39.0064 66.517 39.0064 65.3636C39.0064 64.2235 38.8407 63.2259 38.5092 62.3707C38.1778 61.509 37.6873 60.8395 37.0376 60.3622C36.388 59.8783 35.5859 59.6364 34.6314 59.6364C33.6371 59.6364 32.8085 59.8916 32.1456 60.402C31.4893 60.9058 30.9955 61.5919 30.6641 62.4602C30.3393 63.322 30.1768 64.2898 30.1768 65.3636C30.1768 66.4508 30.3426 67.4384 30.674 68.3267C31.0121 69.2083 31.5092 69.911 32.1655 70.4347C32.8284 70.9517 33.6503 71.2102 34.6314 71.2102ZM45.9368 57.7273H48.2834V74.1136C48.2834 75.0549 48.121 75.8703 47.7962 76.5597C47.478 77.2491 46.9941 77.7827 46.3445 78.1605C45.7015 78.5384 44.8894 78.7273 43.9084 78.7273C43.8288 78.7273 43.7493 78.7273 43.6697 78.7273C43.5902 78.7273 43.5107 78.7273 43.4311 78.7273V76.5398C43.5107 76.5398 43.5836 76.5398 43.6499 76.5398C43.7161 76.5398 43.7891 76.5398 43.8686 76.5398C44.5845 76.5398 45.1082 76.3277 45.4396 75.9034C45.7711 75.4858 45.9368 74.8892 45.9368 74.1136V57.7273ZM47.0902 55.1818C46.6328 55.1818 46.2384 55.026 45.907 54.7145C45.5821 54.4029 45.4197 54.0284 45.4197 53.5909C45.4197 53.1534 45.5821 52.7789 45.907 52.4673C46.2384 52.1558 46.6328 52 47.0902 52C47.5476 52 47.9387 52.1558 48.2635 52.4673C48.5949 52.7789 48.7607 53.1534 48.7607 53.5909C48.7607 54.0284 48.5949 54.4029 48.2635 54.7145C47.9387 55.026 47.5476 55.1818 47.0902 55.1818ZM58.9847 73.3182C57.5131 73.3182 56.2437 72.9934 55.1765 72.3438C54.1159 71.6875 53.2972 70.7727 52.7205 69.5994C52.1504 68.4195 51.8654 67.0473 51.8654 65.483C51.8654 63.9186 52.1504 62.5398 52.7205 61.3466C53.2972 60.1468 54.0993 59.2121 55.1268 58.5426C56.1609 57.8665 57.3673 57.5284 58.7461 57.5284C59.5415 57.5284 60.3271 57.661 61.1026 57.9261C61.8782 58.1913 62.5842 58.6222 63.2205 59.2188C63.8569 59.8087 64.364 60.5909 64.7418 61.5653C65.1197 62.5398 65.3086 63.7396 65.3086 65.1648V66.1591H53.5359V64.1307H62.9222C62.9222 63.2689 62.7499 62.5 62.4052 61.8239C62.0671 61.1477 61.5832 60.6141 60.9535 60.223C60.3304 59.8319 59.5946 59.6364 58.7461 59.6364C57.8114 59.6364 57.0027 59.8684 56.32 60.3324C55.6438 60.7898 55.1235 61.3864 54.7589 62.1222C54.3943 62.858 54.212 63.6468 54.212 64.4886V65.8409C54.212 66.9943 54.4109 67.9721 54.8086 68.7741C55.2129 69.5696 55.7731 70.1761 56.489 70.5938C57.2049 71.0047 58.0368 71.2102 58.9847 71.2102C59.6012 71.2102 60.158 71.1241 60.6552 70.9517C61.159 70.7727 61.5932 70.5076 61.9577 70.1562C62.3223 69.7983 62.604 69.3542 62.8029 68.8239L65.07 69.4602C64.8313 70.2292 64.4303 70.9053 63.8668 71.4886C63.3034 72.0653 62.6074 72.5161 61.7788 72.8409C60.9502 73.1591 60.0188 73.3182 58.9847 73.3182ZM75.0827 73.3182C73.6509 73.3182 72.418 72.9801 71.3839 72.304C70.3498 71.6278 69.5543 70.6965 68.9975 69.5099C68.4407 68.3234 68.1623 66.9678 68.1623 65.4432C68.1623 63.892 68.4473 62.5232 69.0174 61.3366C69.5941 60.1435 70.3962 59.2121 71.4237 58.5426C72.4577 57.8665 73.6642 57.5284 75.043 57.5284C76.1168 57.5284 77.0846 57.7273 77.9464 58.125C78.8081 58.5227 79.5141 59.0795 80.0643 59.7955C80.6145 60.5114 80.9558 61.3466 81.0884 62.3011H78.7418C78.5629 61.6051 78.1651 60.9886 77.5487 60.4517C76.9388 59.9081 76.1168 59.6364 75.0827 59.6364C74.168 59.6364 73.3659 59.875 72.6765 60.3523C71.9937 60.8229 71.4601 61.4891 71.0756 62.3509C70.6978 63.206 70.5089 64.2102 70.5089 65.3636C70.5089 66.5436 70.6945 67.571 71.0657 68.446C71.4435 69.321 71.9738 70.0005 72.6566 70.4844C73.346 70.9683 74.1547 71.2102 75.0827 71.2102C75.6926 71.2102 76.2461 71.1042 76.7433 70.892C77.2404 70.6799 77.6613 70.375 78.006 69.9773C78.3507 69.5795 78.596 69.1023 78.7418 68.5455H81.0884C80.9558 69.447 80.6277 70.259 80.104 70.9815C79.587 71.6974 78.9009 72.2675 78.0458 72.6918C77.1973 73.1094 76.2096 73.3182 75.0827 73.3182ZM91.1609 57.7273V59.7159H83.2461V57.7273H91.1609ZM85.5529 54.0682H87.8995V68.625C87.8995 69.2879 87.9956 69.785 88.1879 70.1165C88.3867 70.4413 88.6386 70.66 88.9435 70.7727C89.2551 70.8788 89.5832 70.9318 89.9279 70.9318C90.1864 70.9318 90.3986 70.9186 90.5643 70.892C90.73 70.8589 90.8626 70.8324 90.962 70.8125L91.4393 72.9205C91.2802 72.9801 91.0581 73.0398 90.7731 73.0994C90.488 73.1657 90.1268 73.1989 89.6893 73.1989C89.0264 73.1989 88.3768 73.0563 87.7404 72.7713C87.1107 72.4863 86.587 72.0521 86.1694 71.4688C85.7584 70.8854 85.5529 70.1496 85.5529 69.2614V54.0682ZM94.6907 73V57.7273H97.0373V73H94.6907ZM95.8839 55.1818C95.4265 55.1818 95.0321 55.026 94.7006 54.7145C94.3758 54.4029 94.2134 54.0284 94.2134 53.5909C94.2134 53.1534 94.3758 52.7789 94.7006 52.4673C95.0321 52.1558 95.4265 52 95.8839 52C96.3413 52 96.7324 52.1558 97.0572 52.4673C97.3886 52.7789 97.5543 53.1534 97.5543 53.5909C97.5543 54.0284 97.3886 54.4029 97.0572 54.7145C96.7324 55.026 96.3413 55.1818 95.8839 55.1818ZM113.824 57.7273L108.176 73H105.79L100.142 57.7273H102.688L106.903 69.8977H107.062L111.278 57.7273H113.824ZM122.778 73.3182C121.306 73.3182 120.037 72.9934 118.969 72.3438C117.909 71.6875 117.09 70.7727 116.513 69.5994C115.943 68.4195 115.658 67.0473 115.658 65.483C115.658 63.9186 115.943 62.5398 116.513 61.3466C117.09 60.1468 117.892 59.2121 118.92 58.5426C119.954 57.8665 121.16 57.5284 122.539 57.5284C123.335 57.5284 124.12 57.661 124.896 57.9261C125.671 58.1913 126.377 58.6222 127.013 59.2188C127.65 59.8087 128.157 60.5909 128.535 61.5653C128.913 62.5398 129.102 63.7396 129.102 65.1648V66.1591H117.329V64.1307H126.715C126.715 63.2689 126.543 62.5 126.198 61.8239C125.86 61.1477 125.376 60.6141 124.746 60.223C124.123 59.8319 123.388 59.6364 122.539 59.6364C121.604 59.6364 120.796 59.8684 120.113 60.3324C119.437 60.7898 118.916 61.3864 118.552 62.1222C118.187 62.858 118.005 63.6468 118.005 64.4886V65.8409C118.005 66.9943 118.204 67.9721 118.602 68.7741C119.006 69.5696 119.566 70.1761 120.282 70.5938C120.998 71.0047 121.83 71.2102 122.778 71.2102C123.394 71.2102 123.951 71.1241 124.448 70.9517C124.952 70.7727 125.386 70.5076 125.751 70.1562C126.115 69.7983 126.397 69.3542 126.596 68.8239L128.863 69.4602C128.624 70.2292 128.223 70.9053 127.66 71.4886C127.096 72.0653 126.4 72.5161 125.572 72.8409C124.743 73.1591 123.812 73.3182 122.778 73.3182Z"></path>
</svg>
