<svg xmlns="http://www.w3.org/2000/svg" fill="none" viewBox="0 0 139 164" height="164" width="139">
<path fill="#43D059" d="M0 20C0 8.95431 8.95431 0 20 0H119C130.046 0 139 8.95431 139 20V144C139 155.046 130.046 164 119 164H20C8.95431 164 0 155.046 0 144V20Z"></path>
<path fill="black" d="M36.2102 135.455V150H34.5341V135.455H36.2102ZM43.854 150.227C42.8029 150.227 41.8962 149.995 41.1339 149.531C40.3763 149.062 39.7915 148.409 39.3796 147.571C38.9724 146.728 38.7688 145.748 38.7688 144.631C38.7688 143.513 38.9724 142.528 39.3796 141.676C39.7915 140.819 40.3645 140.152 41.0984 139.673C41.837 139.19 42.6987 138.949 43.6836 138.949C44.2518 138.949 44.8129 139.044 45.3668 139.233C45.9208 139.422 46.4251 139.73 46.8796 140.156C47.3342 140.578 47.6964 141.136 47.9663 141.832C48.2362 142.528 48.3711 143.385 48.3711 144.403V145.114H39.962V143.665H46.6665C46.6665 143.049 46.5434 142.5 46.2972 142.017C46.0558 141.534 45.7101 141.153 45.2603 140.874C44.8152 140.594 44.2897 140.455 43.6836 140.455C43.016 140.455 42.4383 140.62 41.9506 140.952C41.4677 141.278 41.096 141.705 40.8356 142.23C40.5752 142.756 40.445 143.319 40.445 143.92V144.886C40.445 145.71 40.587 146.409 40.8711 146.982C41.1599 147.55 41.56 147.983 42.0714 148.281C42.5827 148.575 43.177 148.722 43.854 148.722C44.2944 148.722 44.6921 148.66 45.0472 148.537C45.4071 148.409 45.7172 148.22 45.9776 147.969C46.238 147.713 46.4393 147.396 46.5813 147.017L48.2006 147.472C48.0302 148.021 47.7437 148.504 47.3413 148.92C46.9388 149.332 46.4416 149.654 45.8498 149.886C45.2579 150.114 44.5927 150.227 43.854 150.227ZM55.6651 139.091V140.511H50.0117V139.091H55.6651ZM51.6594 136.477H53.3356V146.875C53.3356 147.348 53.4042 147.704 53.5415 147.94C53.6836 148.172 53.8635 148.329 54.0813 148.409C54.3039 148.485 54.5382 148.523 54.7844 148.523C54.9691 148.523 55.1206 148.513 55.239 148.494C55.3574 148.471 55.4521 148.452 55.5231 148.438L55.864 149.943C55.7504 149.986 55.5917 150.028 55.3881 150.071C55.1845 150.118 54.9265 150.142 54.614 150.142C54.1405 150.142 53.6765 150.04 53.2219 149.837C52.7721 149.633 52.3981 149.323 52.0998 148.906C51.8062 148.49 51.6594 147.964 51.6594 147.33V136.477ZM62.9308 139.091V140.511H57.2773V139.091H62.9308ZM58.9251 136.477H60.6012V146.875C60.6012 147.348 60.6699 147.704 60.8072 147.94C60.9492 148.172 61.1291 148.329 61.3469 148.409C61.5695 148.485 61.8039 148.523 62.0501 148.523C62.2347 148.523 62.3862 148.513 62.5046 148.494C62.623 148.471 62.7177 148.452 62.7887 148.438L63.1296 149.943C63.016 149.986 62.8574 150.028 62.6538 150.071C62.4502 150.118 62.1921 150.142 61.8796 150.142C61.4061 150.142 60.9421 150.04 60.4876 149.837C60.0378 149.633 59.6637 149.323 59.3654 148.906C59.0719 148.49 58.9251 147.964 58.9251 147.33V136.477ZM69.9087 150.227C68.8576 150.227 67.9509 149.995 67.1886 149.531C66.431 149.062 65.8462 148.409 65.4343 147.571C65.0271 146.728 64.8235 145.748 64.8235 144.631C64.8235 143.513 65.0271 142.528 65.4343 141.676C65.8462 140.819 66.4192 140.152 67.1531 139.673C67.8917 139.19 68.7534 138.949 69.7383 138.949C70.3065 138.949 70.8675 139.044 71.4215 139.233C71.9755 139.422 72.4798 139.73 72.9343 140.156C73.3888 140.578 73.7511 141.136 74.021 141.832C74.2908 142.528 74.4258 143.385 74.4258 144.403V145.114H66.0167V143.665H72.7212C72.7212 143.049 72.5981 142.5 72.3519 142.017C72.1104 141.534 71.7648 141.153 71.315 140.874C70.8699 140.594 70.3443 140.455 69.7383 140.455C69.0707 140.455 68.493 140.62 68.0053 140.952C67.5224 141.278 67.1507 141.705 66.8903 142.23C66.6299 142.756 66.4996 143.319 66.4996 143.92V144.886C66.4996 145.71 66.6417 146.409 66.9258 146.982C67.2146 147.55 67.6147 147.983 68.1261 148.281C68.6374 148.575 69.2317 148.722 69.9087 148.722C70.3491 148.722 70.7468 148.66 71.1019 148.537C71.4618 148.409 71.7719 148.22 72.0323 147.969C72.2927 147.713 72.494 147.396 72.636 147.017L74.2553 147.472C74.0849 148.021 73.7984 148.504 73.396 148.92C72.9935 149.332 72.4963 149.654 71.9045 149.886C71.3126 150.114 70.6474 150.227 69.9087 150.227ZM76.9755 150V139.091H78.5948V140.739H78.7085C78.9073 140.199 79.2672 139.761 79.788 139.425C80.3088 139.089 80.896 138.92 81.5494 138.92C81.6725 138.92 81.8263 138.923 82.011 138.928C82.1957 138.932 82.3353 138.939 82.43 138.949V140.653C82.3732 140.639 82.243 140.618 82.0394 140.589C81.8406 140.556 81.6299 140.54 81.4073 140.54C80.877 140.54 80.4035 140.651 79.9869 140.874C79.5749 141.091 79.2482 141.394 79.0067 141.783C78.77 142.166 78.6516 142.604 78.6516 143.097V150H76.9755ZM101.974 140H100.212C100.108 139.493 99.9259 139.048 99.6655 138.665C99.4098 138.281 99.0973 137.959 98.728 137.699C98.3634 137.434 97.9586 137.235 97.5135 137.102C97.0684 136.97 96.6044 136.903 96.1214 136.903C95.2408 136.903 94.4429 137.126 93.728 137.571C93.0178 138.016 92.4519 138.672 92.0305 139.538C91.6139 140.405 91.4055 141.468 91.4055 142.727C91.4055 143.987 91.6139 145.05 92.0305 145.916C92.4519 146.783 93.0178 147.438 93.728 147.884C94.4429 148.329 95.2408 148.551 96.1214 148.551C96.6044 148.551 97.0684 148.485 97.5135 148.352C97.9586 148.22 98.3634 148.023 98.728 147.763C99.0973 147.498 99.4098 147.173 99.6655 146.79C99.9259 146.402 100.108 145.956 100.212 145.455H101.974C101.841 146.198 101.6 146.863 101.249 147.45C100.899 148.037 100.463 148.537 99.9425 148.949C99.4216 149.356 98.8369 149.666 98.1882 149.879C97.5443 150.092 96.8554 150.199 96.1214 150.199C94.8809 150.199 93.7777 149.896 92.8118 149.29C91.8459 148.684 91.0859 147.822 90.532 146.705C89.978 145.587 89.701 144.261 89.701 142.727C89.701 141.193 89.978 139.867 90.532 138.75C91.0859 137.633 91.8459 136.771 92.8118 136.165C93.7777 135.559 94.8809 135.256 96.1214 135.256C96.8554 135.256 97.5443 135.362 98.1882 135.575C98.8369 135.788 99.4216 136.101 99.9425 136.513C100.463 136.92 100.899 137.417 101.249 138.004C101.6 138.587 101.841 139.252 101.974 140Z"></path>
<path fill="black" d="M20.1293 53V35.5455H30.5952V37.4205H22.2429V43.3182H29.8111V45.1932H22.2429V53H20.1293ZM33.8018 53V39.9091H35.745V41.8864H35.8814C36.12 41.2386 36.5518 40.7131 37.1768 40.3097C37.8018 39.9062 38.5064 39.7045 39.2905 39.7045C39.4382 39.7045 39.6229 39.7074 39.8445 39.7131C40.0661 39.7187 40.2337 39.7273 40.3473 39.7386V41.7841C40.2791 41.767 40.1229 41.7415 39.8786 41.7074C39.6399 41.6676 39.3871 41.6477 39.12 41.6477C38.4837 41.6477 37.9155 41.7812 37.4155 42.0483C36.9212 42.3097 36.5291 42.6733 36.2393 43.1392C35.9553 43.5994 35.8132 44.125 35.8132 44.7159V53H33.8018ZM42.7315 53V39.9091H44.7429V53H42.7315ZM43.7543 37.7273C43.3622 37.7273 43.0241 37.5938 42.7401 37.3267C42.4616 37.0597 42.3224 36.7386 42.3224 36.3636C42.3224 35.9886 42.4616 35.6676 42.7401 35.4006C43.0241 35.1335 43.3622 35 43.7543 35C44.1463 35 44.4815 35.1335 44.7599 35.4006C45.044 35.6676 45.1861 35.9886 45.1861 36.3636C45.1861 36.7386 45.044 37.0597 44.7599 37.3267C44.4815 37.5938 44.1463 37.7273 43.7543 37.7273ZM53.745 53.2727C52.5178 53.2727 51.4609 52.983 50.5746 52.4034C49.6882 51.8239 49.0064 51.0256 48.5291 50.0085C48.0518 48.9915 47.8132 47.8295 47.8132 46.5227C47.8132 45.1932 48.0575 44.0199 48.5462 43.0028C49.0405 41.9801 49.728 41.1818 50.6087 40.608C51.495 40.0284 52.5291 39.7386 53.7109 39.7386C54.6314 39.7386 55.4609 39.9091 56.1996 40.25C56.9382 40.5909 57.5433 41.0682 58.0149 41.6818C58.4865 42.2955 58.7791 43.0114 58.8928 43.8295H56.8814C56.728 43.233 56.3871 42.7045 55.8587 42.2443C55.3359 41.7784 54.6314 41.5455 53.745 41.5455C52.9609 41.5455 52.2734 41.75 51.6825 42.1591C51.0973 42.5625 50.6399 43.1335 50.3104 43.8722C49.9865 44.6051 49.8246 45.4659 49.8246 46.4545C49.8246 47.4659 49.9837 48.3466 50.3018 49.0966C50.6257 49.8466 51.0803 50.429 51.6655 50.8438C52.2564 51.2585 52.9496 51.4659 53.745 51.4659C54.2678 51.4659 54.7422 51.375 55.1683 51.1932C55.5945 51.0114 55.9553 50.75 56.2507 50.4091C56.5462 50.0682 56.7564 49.6591 56.8814 49.1818H58.8928C58.7791 49.9545 58.4979 50.6506 58.049 51.2699C57.6058 51.8835 57.0178 52.3722 56.2848 52.7358C55.5575 53.0938 54.7109 53.2727 53.745 53.2727ZM67.5263 39.9091V41.6136H60.7422V39.9091H67.5263ZM62.7195 36.7727H64.7308V49.25C64.7308 49.8182 64.8132 50.2443 64.978 50.5284C65.1484 50.8068 65.3643 50.9943 65.6257 51.0909C65.8928 51.1818 66.174 51.2273 66.4695 51.2273C66.6911 51.2273 66.8729 51.2159 67.0149 51.1932C67.157 51.1648 67.2706 51.142 67.3558 51.125L67.7649 52.9318C67.6286 52.983 67.4382 53.0341 67.1939 53.0852C66.9496 53.142 66.6399 53.1705 66.2649 53.1705C65.6967 53.1705 65.1399 53.0483 64.5945 52.804C64.0547 52.5597 63.6058 52.1875 63.2479 51.6875C62.8956 51.1875 62.7195 50.5568 62.7195 49.7955V36.7727ZM70.5518 53V39.9091H72.5632V53H70.5518ZM71.5746 37.7273C71.1825 37.7273 70.8445 37.5938 70.5604 37.3267C70.282 37.0597 70.1428 36.7386 70.1428 36.3636C70.1428 35.9886 70.282 35.6676 70.5604 35.4006C70.8445 35.1335 71.1825 35 71.5746 35C71.9666 35 72.3018 35.1335 72.5803 35.4006C72.8643 35.6676 73.0064 35.9886 73.0064 36.3636C73.0064 36.7386 72.8643 37.0597 72.5803 37.3267C72.3018 37.5938 71.9666 37.7273 71.5746 37.7273ZM81.5653 53.2727C80.3835 53.2727 79.3466 52.9915 78.4545 52.429C77.5682 51.8665 76.875 51.0795 76.375 50.0682C75.8807 49.0568 75.6335 47.875 75.6335 46.5227C75.6335 45.1591 75.8807 43.9687 76.375 42.9517C76.875 41.9347 77.5682 41.1449 78.4545 40.5824C79.3466 40.0199 80.3835 39.7386 81.5653 39.7386C82.7472 39.7386 83.7813 40.0199 84.6676 40.5824C85.5597 41.1449 86.2528 41.9347 86.7472 42.9517C87.2472 43.9687 87.4972 45.1591 87.4972 46.5227C87.4972 47.875 87.2472 49.0568 86.7472 50.0682C86.2528 51.0795 85.5597 51.8665 84.6676 52.429C83.7813 52.9915 82.7472 53.2727 81.5653 53.2727ZM81.5653 51.4659C82.4631 51.4659 83.2017 51.2358 83.7812 50.7756C84.3608 50.3153 84.7898 49.7102 85.0682 48.9602C85.3466 48.2102 85.4858 47.3977 85.4858 46.5227C85.4858 45.6477 85.3466 44.8324 85.0682 44.0767C84.7898 43.321 84.3608 42.7102 83.7812 42.2443C83.2017 41.7784 82.4631 41.5455 81.5653 41.5455C80.6676 41.5455 79.929 41.7784 79.3494 42.2443C78.7699 42.7102 78.3409 43.321 78.0625 44.0767C77.7841 44.8324 77.6449 45.6477 77.6449 46.5227C77.6449 47.3977 77.7841 48.2102 78.0625 48.9602C78.3409 49.7102 78.7699 50.3153 79.3494 50.7756C79.929 51.2358 80.6676 51.4659 81.5653 51.4659ZM92.5788 45.125V53H90.5675V39.9091H92.5107V41.9545H92.6811C92.9879 41.2898 93.4538 40.7557 94.0788 40.3523C94.7038 39.9432 95.5107 39.7386 96.4993 39.7386C97.3857 39.7386 98.1612 39.9205 98.826 40.2841C99.4908 40.642 100.008 41.1875 100.377 41.9205C100.746 42.6477 100.931 43.5682 100.931 44.6818V53H98.9197V44.8182C98.9197 43.7898 98.6527 42.9886 98.1186 42.4148C97.5845 41.8352 96.8516 41.5455 95.9197 41.5455C95.2777 41.5455 94.7038 41.6847 94.1982 41.9631C93.6982 42.2415 93.3033 42.6477 93.0135 43.1818C92.7237 43.7159 92.5788 44.3636 92.5788 45.125ZM108.459 53.3068C107.629 53.3068 106.876 53.1506 106.2 52.8381C105.524 52.5199 104.987 52.0625 104.589 51.4659C104.192 50.8636 103.993 50.1364 103.993 49.2841C103.993 48.5341 104.141 47.9261 104.436 47.4602C104.732 46.9886 105.126 46.6193 105.621 46.3523C106.115 46.0852 106.661 45.8864 107.257 45.7557C107.859 45.6193 108.464 45.5114 109.072 45.4318C109.868 45.3295 110.513 45.2528 111.007 45.2017C111.507 45.1449 111.871 45.0511 112.098 44.9205C112.331 44.7898 112.447 44.5625 112.447 44.2386V44.1705C112.447 43.3295 112.217 42.6761 111.757 42.2102C111.303 41.7443 110.612 41.5114 109.686 41.5114C108.726 41.5114 107.973 41.7216 107.428 42.142C106.882 42.5625 106.499 43.0114 106.277 43.4886L104.368 42.8068C104.709 42.0114 105.163 41.392 105.732 40.9489C106.305 40.5 106.93 40.1875 107.607 40.0114C108.288 39.8295 108.959 39.7386 109.618 39.7386C110.038 39.7386 110.521 39.7898 111.067 39.892C111.618 39.9886 112.149 40.1903 112.661 40.4972C113.178 40.804 113.607 41.267 113.947 41.8864C114.288 42.5057 114.459 43.3352 114.459 44.375V53H112.447V51.2273H112.345C112.209 51.5114 111.982 51.8153 111.663 52.1392C111.345 52.4631 110.922 52.7386 110.393 52.9659C109.865 53.1932 109.22 53.3068 108.459 53.3068ZM108.766 51.5C109.561 51.5 110.232 51.3438 110.777 51.0312C111.328 50.7188 111.743 50.3153 112.021 49.821C112.305 49.3267 112.447 48.8068 112.447 48.2614V46.4205C112.362 46.5227 112.175 46.6165 111.885 46.7017C111.601 46.7812 111.271 46.8523 110.896 46.9148C110.527 46.9716 110.166 47.0227 109.814 47.0682C109.467 47.108 109.186 47.142 108.97 47.1705C108.447 47.2386 107.959 47.3494 107.504 47.5028C107.055 47.6506 106.692 47.875 106.413 48.1761C106.141 48.4716 106.004 48.875 106.004 49.3864C106.004 50.0852 106.263 50.6136 106.78 50.9716C107.303 51.3239 107.964 51.5 108.766 51.5ZM120.141 35.5455V53H118.13V35.5455H120.141ZM48.5025 68.9091V70.6136H41.4457V68.9091H48.5025ZM43.5593 82V67.1023C43.5593 66.3523 43.7354 65.7273 44.0877 65.2273C44.44 64.7273 44.8974 64.3523 45.4599 64.1023C46.0224 63.8523 46.6161 63.7273 47.2411 63.7273C47.7354 63.7273 48.1388 63.767 48.4513 63.8466C48.7638 63.9261 48.9968 64 49.1502 64.0682L48.5707 65.8068C48.4684 65.7727 48.3263 65.7301 48.1445 65.679C47.9684 65.6278 47.7354 65.6023 47.4457 65.6023C46.7809 65.6023 46.3008 65.7699 46.0053 66.1051C45.7156 66.4403 45.5707 66.9318 45.5707 67.5795V82H43.5593ZM56.1005 82.2727C54.9187 82.2727 53.8817 81.9915 52.9897 81.429C52.1033 80.8665 51.4102 80.0795 50.9102 79.0682C50.4158 78.0568 50.1687 76.875 50.1687 75.5227C50.1687 74.1591 50.4158 72.9687 50.9102 71.9517C51.4102 70.9347 52.1033 70.1449 52.9897 69.5824C53.8817 69.0199 54.9187 68.7386 56.1005 68.7386C57.2823 68.7386 58.3164 69.0199 59.2028 69.5824C60.0948 70.1449 60.788 70.9347 61.2823 71.9517C61.7823 72.9687 62.0323 74.1591 62.0323 75.5227C62.0323 76.875 61.7823 78.0568 61.2823 79.0682C60.788 80.0795 60.0948 80.8665 59.2028 81.429C58.3164 81.9915 57.2823 82.2727 56.1005 82.2727ZM56.1005 80.4659C56.9982 80.4659 57.7369 80.2358 58.3164 79.7756C58.896 79.3153 59.3249 78.7102 59.6033 77.9602C59.8817 77.2102 60.021 76.3977 60.021 75.5227C60.021 74.6477 59.8817 73.8324 59.6033 73.0767C59.3249 72.321 58.896 71.7102 58.3164 71.2443C57.7369 70.7784 56.9982 70.5455 56.1005 70.5455C55.2028 70.5455 54.4641 70.7784 53.8846 71.2443C53.305 71.7102 52.8761 72.321 52.5977 73.0767C52.3192 73.8324 52.18 74.6477 52.18 75.5227C52.18 76.3977 52.3192 77.2102 52.5977 77.9602C52.8761 78.7102 53.305 79.3153 53.8846 79.7756C54.4641 80.2358 55.2028 80.4659 56.1005 80.4659ZM65.1026 82V68.9091H67.0458V70.8864H67.1822C67.4208 70.2386 67.8526 69.7131 68.4776 69.3097C69.1026 68.9062 69.8072 68.7045 70.5913 68.7045C70.739 68.7045 70.9237 68.7074 71.1452 68.7131C71.3668 68.7187 71.5344 68.7273 71.6481 68.7386V70.7841C71.5799 70.767 71.4237 70.7415 71.1793 70.7074C70.9407 70.6676 70.6879 70.6477 70.4208 70.6477C69.7844 70.6477 69.2163 70.7812 68.7163 71.0483C68.2219 71.3097 67.8299 71.6733 67.5401 72.1392C67.256 72.5994 67.114 73.125 67.114 73.7159V82H65.1026ZM78.9521 82.2727C77.7248 82.2727 76.668 81.983 75.7816 81.4034C74.8952 80.8239 74.2134 80.0256 73.7362 79.0085C73.2589 77.9915 73.0202 76.8295 73.0202 75.5227C73.0202 74.1932 73.2646 73.0199 73.7532 72.0028C74.2475 70.9801 74.935 70.1818 75.8157 69.608C76.7021 69.0284 77.7362 68.7386 78.918 68.7386C79.8384 68.7386 80.668 68.9091 81.4066 69.25C82.1452 69.5909 82.7504 70.0682 83.2219 70.6818C83.6935 71.2955 83.9862 72.0114 84.0998 72.8295H82.0884C81.935 72.233 81.5941 71.7045 81.0657 71.2443C80.543 70.7784 79.8384 70.5455 78.9521 70.5455C78.168 70.5455 77.4805 70.75 76.8896 71.1591C76.3043 71.5625 75.8469 72.1335 75.5174 72.8722C75.1935 73.6051 75.0316 74.4659 75.0316 75.4545C75.0316 76.4659 75.1907 77.3466 75.5089 78.0966C75.8327 78.8466 76.2873 79.429 76.8725 79.8438C77.4634 80.2585 78.1566 80.4659 78.9521 80.4659C79.4748 80.4659 79.9492 80.375 80.3754 80.1932C80.8015 80.0114 81.1623 79.75 81.4577 79.4091C81.7532 79.0682 81.9634 78.6591 82.0884 78.1818H84.0998C83.9862 78.9545 83.7049 79.6506 83.256 80.2699C82.8129 80.8835 82.2248 81.3722 81.4918 81.7358C80.7646 82.0938 79.918 82.2727 78.9521 82.2727ZM92.5288 82.2727C91.2674 82.2727 90.1793 81.9943 89.2646 81.4375C88.3555 80.875 87.6538 80.0909 87.1594 79.0852C86.6708 78.0739 86.4265 76.8977 86.4265 75.5568C86.4265 74.2159 86.6708 73.0341 87.1594 72.0114C87.6538 70.983 88.3413 70.1818 89.2219 69.608C90.1083 69.0284 91.1424 68.7386 92.3242 68.7386C93.006 68.7386 93.6793 68.8523 94.3441 69.0795C95.0089 69.3068 95.614 69.6761 96.1594 70.1875C96.7049 70.6932 97.1396 71.3636 97.4634 72.1989C97.7873 73.0341 97.9492 74.0625 97.9492 75.2841V76.1364H87.8583V74.3977H95.9038C95.9038 73.6591 95.756 73 95.4606 72.4205C95.1708 71.8409 94.756 71.3835 94.2163 71.0483C93.6822 70.7131 93.0515 70.5455 92.3242 70.5455C91.5231 70.5455 90.8299 70.7443 90.2447 71.142C89.6651 71.5341 89.2191 72.0455 88.9066 72.6761C88.5941 73.3068 88.4379 73.983 88.4379 74.7045V75.8636C88.4379 76.8523 88.6083 77.6903 88.9492 78.3778C89.2958 79.0597 89.7759 79.5795 90.3896 79.9375C91.0032 80.2898 91.7163 80.4659 92.5288 80.4659C93.0572 80.4659 93.5344 80.392 93.9606 80.2443C94.3924 80.0909 94.7646 79.8636 95.0771 79.5625C95.3896 79.2557 95.631 78.875 95.8015 78.4205L97.7447 78.9659C97.5401 79.625 97.1964 80.2045 96.7134 80.7045C96.2305 81.1989 95.6339 81.5852 94.9237 81.8636C94.2134 82.1364 93.4151 82.2727 92.5288 82.2727Z"></path>
</svg>
