<svg xmlns="http://www.w3.org/2000/svg" fill="none" viewBox="0 0 139 164" height="164" width="139">
<path fill="#43D059" d="M0 20C0 8.95431 8.95431 0 20 0H119C130.046 0 139 8.95431 139 20V144C139 155.046 130.046 164 119 164H20C8.95431 164 0 155.046 0 144V20Z"></path>
<path fill="black" d="M36.2102 135.455V150H34.5341V135.455H36.2102ZM43.854 150.227C42.8029 150.227 41.8962 149.995 41.1339 149.531C40.3763 149.062 39.7915 148.409 39.3796 147.571C38.9724 146.728 38.7688 145.748 38.7688 144.631C38.7688 143.513 38.9724 142.528 39.3796 141.676C39.7915 140.819 40.3645 140.152 41.0984 139.673C41.837 139.19 42.6987 138.949 43.6836 138.949C44.2518 138.949 44.8129 139.044 45.3668 139.233C45.9208 139.422 46.4251 139.73 46.8796 140.156C47.3342 140.578 47.6964 141.136 47.9663 141.832C48.2362 142.528 48.3711 143.385 48.3711 144.403V145.114H39.962V143.665H46.6665C46.6665 143.049 46.5434 142.5 46.2972 142.017C46.0558 141.534 45.7101 141.153 45.2603 140.874C44.8152 140.594 44.2897 140.455 43.6836 140.455C43.016 140.455 42.4383 140.62 41.9506 140.952C41.4677 141.278 41.096 141.705 40.8356 142.23C40.5752 142.756 40.445 143.319 40.445 143.92V144.886C40.445 145.71 40.587 146.409 40.8711 146.982C41.1599 147.55 41.56 147.983 42.0714 148.281C42.5827 148.575 43.177 148.722 43.854 148.722C44.2944 148.722 44.6921 148.66 45.0472 148.537C45.4071 148.409 45.7172 148.22 45.9776 147.969C46.238 147.713 46.4393 147.396 46.5813 147.017L48.2006 147.472C48.0302 148.021 47.7437 148.504 47.3413 148.92C46.9388 149.332 46.4416 149.654 45.8498 149.886C45.2579 150.114 44.5927 150.227 43.854 150.227ZM55.6651 139.091V140.511H50.0117V139.091H55.6651ZM51.6594 136.477H53.3356V146.875C53.3356 147.348 53.4042 147.704 53.5415 147.94C53.6836 148.172 53.8635 148.329 54.0813 148.409C54.3039 148.485 54.5382 148.523 54.7844 148.523C54.9691 148.523 55.1206 148.513 55.239 148.494C55.3574 148.471 55.4521 148.452 55.5231 148.438L55.864 149.943C55.7504 149.986 55.5917 150.028 55.3881 150.071C55.1845 150.118 54.9265 150.142 54.614 150.142C54.1405 150.142 53.6765 150.04 53.2219 149.837C52.7721 149.633 52.3981 149.323 52.0998 148.906C51.8062 148.49 51.6594 147.964 51.6594 147.33V136.477ZM62.9308 139.091V140.511H57.2773V139.091H62.9308ZM58.9251 136.477H60.6012V146.875C60.6012 147.348 60.6699 147.704 60.8072 147.94C60.9492 148.172 61.1291 148.329 61.3469 148.409C61.5695 148.485 61.8039 148.523 62.0501 148.523C62.2347 148.523 62.3862 148.513 62.5046 148.494C62.623 148.471 62.7177 148.452 62.7887 148.438L63.1296 149.943C63.016 149.986 62.8574 150.028 62.6538 150.071C62.4502 150.118 62.1921 150.142 61.8796 150.142C61.4061 150.142 60.9421 150.04 60.4876 149.837C60.0378 149.633 59.6637 149.323 59.3654 148.906C59.0719 148.49 58.9251 147.964 58.9251 147.33V136.477ZM69.9087 150.227C68.8576 150.227 67.9509 149.995 67.1886 149.531C66.431 149.062 65.8462 148.409 65.4343 147.571C65.0271 146.728 64.8235 145.748 64.8235 144.631C64.8235 143.513 65.0271 142.528 65.4343 141.676C65.8462 140.819 66.4192 140.152 67.1531 139.673C67.8917 139.19 68.7534 138.949 69.7383 138.949C70.3065 138.949 70.8675 139.044 71.4215 139.233C71.9755 139.422 72.4798 139.73 72.9343 140.156C73.3888 140.578 73.7511 141.136 74.021 141.832C74.2908 142.528 74.4258 143.385 74.4258 144.403V145.114H66.0167V143.665H72.7212C72.7212 143.049 72.5981 142.5 72.3519 142.017C72.1104 141.534 71.7648 141.153 71.315 140.874C70.8699 140.594 70.3443 140.455 69.7383 140.455C69.0707 140.455 68.493 140.62 68.0053 140.952C67.5224 141.278 67.1507 141.705 66.8903 142.23C66.6299 142.756 66.4996 143.319 66.4996 143.92V144.886C66.4996 145.71 66.6417 146.409 66.9258 146.982C67.2146 147.55 67.6147 147.983 68.1261 148.281C68.6374 148.575 69.2317 148.722 69.9087 148.722C70.3491 148.722 70.7468 148.66 71.1019 148.537C71.4618 148.409 71.7719 148.22 72.0323 147.969C72.2927 147.713 72.494 147.396 72.636 147.017L74.2553 147.472C74.0849 148.021 73.7984 148.504 73.396 148.92C72.9935 149.332 72.4963 149.654 71.9045 149.886C71.3126 150.114 70.6474 150.227 69.9087 150.227ZM76.9755 150V139.091H78.5948V140.739H78.7085C78.9073 140.199 79.2672 139.761 79.788 139.425C80.3088 139.089 80.896 138.92 81.5494 138.92C81.6725 138.92 81.8263 138.923 82.011 138.928C82.1957 138.932 82.3353 138.939 82.43 138.949V140.653C82.3732 140.639 82.243 140.618 82.0394 140.589C81.8406 140.556 81.6299 140.54 81.4073 140.54C80.877 140.54 80.4035 140.651 79.9869 140.874C79.5749 141.091 79.2482 141.394 79.0067 141.783C78.77 142.166 78.6516 142.604 78.6516 143.097V150H76.9755ZM90.8658 150H89.0192L94.3601 135.455H96.1783L101.519 150H99.6726L95.326 137.756H95.2124L90.8658 150ZM91.5476 144.318H98.9908V145.881H91.5476V144.318Z"></path>
<path fill="black" d="M44.0883 82V60.1818H51.4605C53.165 60.1818 54.5642 60.473 55.6579 61.0554C56.7517 61.6307 57.5613 62.4226 58.0869 63.4311C58.6125 64.4396 58.8753 65.5866 58.8753 66.8722C58.8753 68.1577 58.6125 69.2976 58.0869 70.2919C57.5613 71.2862 56.7552 72.0675 55.6686 72.6357C54.5819 73.1967 53.1934 73.4773 51.5031 73.4773H45.5372V71.0909H51.4179C52.5827 71.0909 53.5202 70.9205 54.2304 70.5795C54.9477 70.2386 55.4662 69.7557 55.7858 69.1307C56.1125 68.4986 56.2758 67.7457 56.2758 66.8722C56.2758 65.9986 56.1125 65.2351 55.7858 64.5817C55.4591 63.9283 54.9371 63.424 54.2197 63.0689C53.5024 62.7067 52.5542 62.5256 51.3753 62.5256H46.7304V82H44.0883ZM54.3582 72.1989L59.7275 82H56.6594L51.3753 72.1989H54.3582ZM69.6219 82.3409C68.0452 82.3409 66.6851 81.9929 65.5416 81.2969C64.4053 80.5938 63.5281 79.6136 62.9102 78.3565C62.2994 77.0923 61.9941 75.6222 61.9941 73.946C61.9941 72.2699 62.2994 70.7926 62.9102 69.5142C63.5281 68.2287 64.3875 67.2273 65.4884 66.5099C66.5963 65.7855 67.8889 65.4233 69.3662 65.4233C70.2185 65.4233 71.0601 65.5653 71.8911 65.8494C72.722 66.1335 73.4784 66.5952 74.1602 67.2344C74.8421 67.8665 75.3854 68.7045 75.7902 69.7486C76.195 70.7926 76.3975 72.0781 76.3975 73.6051V74.6705H63.7838V72.4972H73.8406C73.8406 71.5739 73.656 70.75 73.2867 70.0256C72.9244 69.3011 72.406 68.7294 71.7313 68.3104C71.0637 67.8913 70.2753 67.6818 69.3662 67.6818C68.3648 67.6818 67.4983 67.9304 66.7668 68.4276C66.0423 68.9176 65.4848 69.5568 65.0942 70.3452C64.7036 71.1335 64.5083 71.9787 64.5083 72.8807V74.3295C64.5083 75.5653 64.7213 76.6129 65.1475 77.4723C65.5807 78.3246 66.1808 78.9744 66.9479 79.4219C67.7149 79.8622 68.6063 80.0824 69.6219 80.0824C70.2824 80.0824 70.879 79.9901 71.4117 79.8054C71.9514 79.6136 72.4166 79.3295 72.8073 78.9531C73.1979 78.5696 73.4997 78.0937 73.7128 77.5256L76.1418 78.2074C75.8861 79.0312 75.4564 79.7557 74.8527 80.3807C74.249 80.9986 73.5033 81.4815 72.6155 81.8295C71.7277 82.1705 70.7298 82.3409 69.6219 82.3409ZM86.401 82.3409C85.0374 82.3409 83.8335 81.9964 82.7895 81.3075C81.7455 80.6115 80.9287 79.6314 80.3392 78.3672C79.7497 77.0959 79.455 75.5938 79.455 73.8608C79.455 72.142 79.7497 70.6506 80.3392 69.3864C80.9287 68.1222 81.749 67.1456 82.8002 66.4567C83.8513 65.7678 85.0658 65.4233 86.4436 65.4233C87.509 65.4233 88.3506 65.6009 88.9685 65.956C89.5935 66.304 90.0693 66.7017 90.396 67.1491C90.7298 67.5895 90.9891 67.9517 91.1737 68.2358H91.3868V60.1818H93.901V82H91.472V79.4858H91.1737C90.9891 79.7841 90.7263 80.1605 90.3854 80.6151C90.0445 81.0625 89.558 81.4638 88.9259 81.8189C88.2938 82.1669 87.4521 82.3409 86.401 82.3409ZM86.7419 80.0824C87.7504 80.0824 88.6027 79.8196 89.2987 79.294C89.9948 78.7614 90.5239 78.0263 90.8861 77.0888C91.2483 76.1442 91.4294 75.054 91.4294 73.8182C91.4294 72.5966 91.2519 71.5277 90.8968 70.6115C90.5416 69.6882 90.0161 68.9709 89.32 68.4595C88.624 67.9411 87.7646 67.6818 86.7419 67.6818C85.6766 67.6818 84.7888 67.9553 84.0786 68.5021C83.3754 69.0419 82.8463 69.777 82.4912 70.7074C82.1432 71.6307 81.9692 72.6676 81.9692 73.8182C81.9692 74.983 82.1468 76.0412 82.5019 76.9929C82.8641 77.9375 83.3968 78.6903 84.0999 79.2514C84.8101 79.8054 85.6908 80.0824 86.7419 80.0824Z"></path>
</svg>
