<svg version="1.1" xmlns="http://www.w3.org/2000/svg" xmlns:xlink="http://www.w3.org/1999/xlink" width="243.58438" height="13.52115" viewBox="0,0,243.58438,13.52115"><g transform="translate(-125.71532,-172.72669)"><g data-paper-data="{&quot;isPaintingLayer&quot;:true}" fill="#ffffff" fill-rule="nonzero" stroke="none" stroke-width="1" stroke-linecap="butt" stroke-linejoin="miter" stroke-miterlimit="10" stroke-dasharray="" stroke-dashoffset="0" style="mix-blend-mode: normal"><path d="M128.49908,183.38453l-2.78376,-10.18063h1.25269l2.12758,8.29163h0.09942l2.16738,-8.29163h1.39187l2.16735,8.29163h0.09942l2.1276,-8.29163h1.25268l-2.78375,10.18063h-1.2726l-2.24688,-8.11269h-0.07953l-2.24691,8.11269zM140.95145,178.79132v4.59321h-1.17315v-10.18063h1.17315v3.7382h0.09945c0.17895,-0.39437 0.44736,-0.70753 0.80528,-0.93952c0.36125,-0.23529 0.84177,-0.35293 1.4416,-0.35293c0.5203,0 0.97598,0.10438 1.36703,0.31315c0.39105,0.20548 0.69429,0.52196 0.90969,0.94947c0.21872,0.42421 0.32809,0.96437 0.32809,1.62054v4.85172h-1.17315v-4.77216c0,-0.60648 -0.15742,-1.07539 -0.47224,-1.40681c-0.31152,-0.33471 -0.74401,-0.50207 -1.29744,-0.50207c-0.38443,0 -0.72908,0.08119 -1.03395,0.24357c-0.30158,0.16241 -0.54019,0.39936 -0.71584,0.71085c-0.17233,0.31152 -0.2585,0.68933 -0.2585,1.1334zM150.2957,183.56348c-0.48385,0 -0.92293,-0.09114 -1.3173,-0.27341c-0.39437,-0.18557 -0.70753,-0.45235 -0.93952,-0.80033c-0.23199,-0.35127 -0.34798,-0.77548 -0.34798,-1.27257c0,-0.43745 0.08618,-0.79204 0.2585,-1.06379c0.17233,-0.27507 0.40266,-0.4905 0.69096,-0.64626c0.28831,-0.15573 0.60645,-0.27174 0.95443,-0.34795c0.3513,-0.07956 0.70423,-0.14252 1.05883,-0.18892c0.46396,-0.05964 0.84011,-0.10438 1.12841,-0.13421c0.29163,-0.03313 0.50374,-0.08781 0.63628,-0.16404c0.1359,-0.07623 0.20382,-0.20878 0.20382,-0.39767v-0.03978c0,-0.49047 -0.13421,-0.87157 -0.40266,-1.14332c-0.26512,-0.27177 -0.66775,-0.40764 -1.20794,-0.40764c-0.56008,0 -0.99919,0.12263 -1.31733,0.36787c-0.31814,0.24523 -0.54182,0.50703 -0.67108,0.78542l-1.11351,-0.3977c0.19884,-0.46396 0.46396,-0.82517 0.79537,-1.08368c0.33471,-0.2618 0.69925,-0.44407 1.09362,-0.54681c0.39767,-0.10604 0.78872,-0.15906 1.17315,-0.15906c0.24523,0 0.52692,0.0298 0.84506,0.08947c0.32147,0.05634 0.63133,0.17399 0.92958,0.35293c0.30158,0.17897 0.5518,0.44906 0.75063,0.81027c0.19884,0.36125 0.29825,0.84509 0.29825,1.45154v5.03066h-1.17315v-1.03398h-0.05964c-0.07956,0.16571 -0.2121,0.34302 -0.3977,0.53191c-0.18557,0.18889 -0.43246,0.34964 -0.74066,0.48219c-0.30823,0.13258 -0.68434,0.19884 -1.12844,0.19884zM150.47468,182.50964c0.46396,0 0.85501,-0.09114 1.17315,-0.27341c0.32147,-0.18227 0.56338,-0.41756 0.72576,-0.7059c0.16571,-0.28831 0.24856,-0.59155 0.24856,-0.90969v-1.07373c-0.04969,0.05967 -0.15906,0.11435 -0.32809,0.16404c-0.16571,0.0464 -0.35792,0.08781 -0.57664,0.12426c-0.2154,0.03316 -0.42584,0.06299 -0.6313,0.0895c-0.20216,0.02318 -0.3662,0.04307 -0.49213,0.05964c-0.3049,0.03978 -0.58991,0.1044 -0.85504,0.19388c-0.2618,0.08615 -0.4739,0.21706 -0.63628,0.39271c-0.15906,0.17233 -0.23861,0.40761 -0.23861,0.70587c0,0.40764 0.1508,0.71584 0.45238,0.92462c0.30487,0.20546 0.69096,0.3082 1.15825,0.3082zM159.25722,175.74907v0.9942h-3.95687v-0.9942zM156.45346,173.91973h1.17324v7.27756c0,0.33141 0.04812,0.57994 0.14407,0.74565c0.09945,0.16238 0.22543,0.27174 0.37796,0.32809c0.15573,0.05302 0.31963,0.07953 0.49198,0.07953c0.12919,0 0.23535,-0.00662 0.31817,-0.01986c0.08282,-0.01659 0.14932,-0.02983 0.19889,-0.03978l0.23856,1.05384c-0.07962,0.02983 -0.19044,0.05967 -0.33304,0.0895c-0.14232,0.03313 -0.32313,0.04969 -0.54185,0.04969c-0.33129,0 -0.65617,-0.07125 -0.97434,-0.21374c-0.31467,-0.14252 -0.57656,-0.35958 -0.78537,-0.65122c-0.20531,-0.29163 -0.30826,-0.6595 -0.30826,-1.10357zM164.95892,183.38453v-7.63546h1.17324v7.63546zM165.5556,174.47649c-0.22893,0 -0.42608,-0.07788 -0.59172,-0.23364c-0.16244,-0.15576 -0.24351,-0.343 -0.24351,-0.56173c0,-0.21872 0.08107,-0.40596 0.24351,-0.56172c0.16565,-0.15576 0.36279,-0.23364 0.59172,-0.23364c0.22864,0 0.42403,0.07788 0.58647,0.23364c0.16565,0.15576 0.24847,0.343 0.24847,0.56172c0,0.21872 -0.08282,0.40597 -0.24847,0.56173c-0.16244,0.15576 -0.35783,0.23364 -0.58647,0.23364zM173.68924,177.45909l-1.05367,0.29825c-0.06649,-0.17562 -0.16419,-0.34631 -0.29338,-0.51199c-0.12599,-0.16903 -0.29834,-0.30823 -0.51706,-0.41759c-0.21872,-0.10936 -0.49869,-0.16404 -0.84019,-0.16404c-0.4672,0 -0.85652,0.10773 -1.16799,0.32313c-0.30826,0.2121 -0.46224,0.48219 -0.46224,0.81027c0,0.29163 0.10586,0.52196 0.31788,0.69096c0.21231,0.16903 0.5436,0.30986 0.99447,0.42255l1.13328,0.27836c0.68271,0.16571 1.19132,0.41922 1.52611,0.76058c0.33479,0.33803 0.5019,0.77382 0.5019,1.30736c0,0.43745 -0.12569,0.82853 -0.37766,1.17318c-0.24847,0.34465 -0.59639,0.61639 -1.04404,0.81523c-0.44736,0.19884 -0.96764,0.29828 -1.56082,0.29828c-0.77866,0 -1.42346,-0.16903 -1.93382,-0.50706c-0.51036,-0.33803 -0.83319,-0.83182 -0.96909,-1.48135l1.11345,-0.27839c0.10586,0.41094 0.30651,0.71914 0.60135,0.92462c0.29834,0.20546 0.68767,0.3082 1.16828,0.3082c0.54681,0 0.98105,-0.11598 1.30243,-0.34798c0.32488,-0.23529 0.48703,-0.51698 0.48703,-0.84506c0,-0.26512 -0.09274,-0.48717 -0.27822,-0.66612c-0.18577,-0.18227 -0.47069,-0.31814 -0.85507,-0.40761l-1.27268,-0.29828c-0.69904,-0.16568 -1.2129,-0.42252 -1.54099,-0.77049c-0.32459,-0.35127 -0.48703,-0.79038 -0.48703,-1.3173c0,-0.43083 0.12103,-0.81193 0.36279,-1.14335c0.24526,-0.33141 0.57831,-0.59155 0.99913,-0.78044c0.42433,-0.18892 0.90494,-0.28335 1.44154,-0.28335c0.75562,0 1.3488,0.16571 1.77983,0.49709c0.43395,0.33141 0.7422,0.76886 0.92448,1.31235zM182.85204,175.74907v0.9942h-3.95687v-0.9942zM180.04857,173.91973h1.17295v7.27756c0,0.33141 0.04812,0.57994 0.14436,0.74565c0.09945,0.16238 0.22514,0.27174 0.37766,0.32809c0.15573,0.05302 0.31992,0.07953 0.49228,0.07953c0.12919,0 0.23506,-0.00662 0.31788,-0.01986c0.08312,-0.01659 0.14932,-0.02983 0.19889,-0.03978l0.23856,1.05384c-0.07932,0.02983 -0.19044,0.05967 -0.33304,0.0895c-0.14232,0.03313 -0.32313,0.04969 -0.54185,0.04969c-0.33129,0 -0.65617,-0.07125 -0.97405,-0.21374c-0.31496,-0.14252 -0.57685,-0.35958 -0.78566,-0.65122c-0.20531,-0.29163 -0.30796,-0.6595 -0.30796,-1.10357zM185.95413,178.79132v4.59321h-1.17324v-10.18063h1.17324v3.7382h0.09916c0.17906,-0.39437 0.44766,-0.70753 0.80549,-0.93952c0.36104,-0.23529 0.84165,-0.35293 1.44154,-0.35293c0.52027,0 0.97609,0.10438 1.36688,0.31315c0.39108,0.20548 0.69438,0.52196 0.90989,0.94947c0.21872,0.42421 0.32809,0.96437 0.32809,1.62054v4.85172h-1.17324v-4.77216c0,-0.60648 -0.15748,-1.07539 -0.47215,-1.40681c-0.31146,-0.33471 -0.74395,-0.50207 -1.29747,-0.50207c-0.38437,0 -0.72908,0.08119 -1.03413,0.24357c-0.30155,0.16241 -0.5401,0.39936 -0.71567,0.71085c-0.17235,0.31152 -0.25839,0.68933 -0.25839,1.1334zM196.25255,183.54362c-0.7355,0 -1.37009,-0.16241 -1.90378,-0.48717c-0.53019,-0.32809 -0.93964,-0.78542 -1.22777,-1.37199c-0.28492,-0.58991 -0.42753,-1.27589 -0.42753,-2.05802c0,-0.7821 0.14261,-1.4714 0.42753,-2.06794c0.28813,-0.59983 0.68913,-1.06711 1.20298,-1.40182c0.51706,-0.33803 1.12016,-0.50703 1.80929,-0.50703c0.39779,0 0.79062,0.06626 1.1782,0.19884c0.38787,0.13255 0.74075,0.34798 1.05892,0.64623c0.31817,0.29496 0.5716,0.68601 0.76058,1.17315c0.18898,0.48717 0.28318,1.087 0.28318,1.79952v0.49709h-5.88544v-1.01406h4.69237c0,-0.43083 -0.08603,-0.81526 -0.25839,-1.15329c-0.16886,-0.33803 -0.41091,-0.60482 -0.72587,-0.80033c-0.31146,-0.19554 -0.67921,-0.29329 -1.10354,-0.29329c-0.4672,0 -0.8714,0.11598 -1.2129,0.34798c-0.338,0.22867 -0.59814,0.52692 -0.78041,0.89479c-0.18227,0.36784 -0.27326,0.76221 -0.27326,1.18309v0.67606c0,0.57662 0.09945,1.06545 0.29805,1.46644c0.20239,0.39767 0.48236,0.70091 0.84019,0.90969c0.35783,0.20546 0.7737,0.3082 1.2476,0.3082c0.30826,0 0.58676,-0.04307 0.83524,-0.12925c0.25197,-0.08947 0.46895,-0.22202 0.65122,-0.39767c0.18227,-0.17895 0.32313,-0.40099 0.42258,-0.66612l1.13328,0.31814c-0.11928,0.38443 -0.31963,0.72246 -0.60135,1.01409c-0.28172,0.28831 -0.62963,0.51368 -1.04404,0.67606c-0.41412,0.15906 -0.87986,0.23861 -1.39692,0.23861zM205.13597,183.38453v-7.63546h1.13328v1.15326h0.07962c0.13911,-0.37778 0.39108,-0.68434 0.75562,-0.91963c0.36454,-0.23529 0.77545,-0.35293 1.23273,-0.35293c0.08603,0 0.19394,0.00166 0.32313,0.00496c0.12919,0.00332 0.22689,0.00828 0.29338,0.01493v1.19304c-0.03995,-0.00994 -0.13094,-0.02485 -0.27355,-0.04474c-0.13911,-0.02321 -0.28667,-0.03479 -0.44241,-0.03479c-0.37125,0 -0.70254,0.07787 -0.99418,0.23363c-0.28842,0.15244 -0.51706,0.36454 -0.68592,0.63628c-0.16565,0.26845 -0.24876,0.57498 -0.24876,0.91963v4.83183zM213.31305,183.54362c-0.7355,0 -1.37009,-0.16241 -1.90378,-0.48717c-0.53019,-0.32809 -0.93964,-0.78542 -1.22777,-1.37199c-0.28492,-0.58991 -0.42753,-1.27589 -0.42753,-2.05802c0,-0.7821 0.14261,-1.4714 0.42753,-2.06794c0.28813,-0.59983 0.68913,-1.06711 1.20298,-1.40182c0.51706,-0.33803 1.12016,-0.50703 1.80929,-0.50703c0.39779,0 0.79062,0.06626 1.1782,0.19884c0.38787,0.13255 0.74075,0.34798 1.05892,0.64623c0.31817,0.29496 0.5716,0.68601 0.76058,1.17315c0.18898,0.48717 0.28318,1.087 0.28318,1.79952v0.49709h-5.88544v-1.01406h4.69237c0,-0.43083 -0.08603,-0.81526 -0.25839,-1.15329c-0.16886,-0.33803 -0.41091,-0.60482 -0.72587,-0.80033c-0.31146,-0.19554 -0.67921,-0.29329 -1.10354,-0.29329c-0.4672,0 -0.8714,0.11598 -1.2129,0.34798c-0.338,0.22867 -0.59814,0.52692 -0.78041,0.89479c-0.18227,0.36784 -0.27326,0.76221 -0.27326,1.18309v0.67606c0,0.57662 0.09945,1.06545 0.29805,1.46644c0.20239,0.39767 0.48236,0.70091 0.84019,0.90969c0.35783,0.20546 0.7737,0.3082 1.2476,0.3082c0.30826,0 0.58676,-0.04307 0.83524,-0.12925c0.25197,-0.08947 0.46895,-0.22202 0.65122,-0.39767c0.18227,-0.17895 0.32313,-0.40099 0.42258,-0.66612l1.13328,0.31814c-0.11928,0.38443 -0.31963,0.72246 -0.60135,1.01409c-0.28172,0.28831 -0.62963,0.51368 -1.04404,0.67606c-0.41412,0.15906 -0.87986,0.23861 -1.39692,0.23861zM223.66776,177.45909l-1.05367,0.29825c-0.06649,-0.17562 -0.16419,-0.34631 -0.29338,-0.51199c-0.12599,-0.16903 -0.29834,-0.30823 -0.51706,-0.41759c-0.21872,-0.10936 -0.49869,-0.16404 -0.84019,-0.16404c-0.4672,0 -0.85652,0.10773 -1.16799,0.32313c-0.30826,0.2121 -0.46224,0.48219 -0.46224,0.81027c0,0.29163 0.10586,0.52196 0.31788,0.69096c0.21231,0.16903 0.5436,0.30986 0.99447,0.42255l1.13328,0.27836c0.68271,0.16571 1.19132,0.41922 1.52611,0.76058c0.33479,0.33803 0.5019,0.77382 0.5019,1.30736c0,0.43745 -0.12569,0.82853 -0.37766,1.17318c-0.24847,0.34465 -0.59639,0.61639 -1.04404,0.81523c-0.44736,0.19884 -0.96764,0.29828 -1.56082,0.29828c-0.77866,0 -1.42346,-0.16903 -1.93382,-0.50706c-0.51036,-0.33803 -0.83319,-0.83182 -0.96909,-1.48135l1.11345,-0.27839c0.10586,0.41094 0.30651,0.71914 0.60135,0.92462c0.29834,0.20546 0.68767,0.3082 1.16828,0.3082c0.54681,0 0.98105,-0.11598 1.30243,-0.34798c0.32488,-0.23529 0.48703,-0.51698 0.48703,-0.84506c0,-0.26512 -0.09274,-0.48717 -0.27822,-0.66612c-0.18577,-0.18227 -0.47069,-0.31814 -0.85507,-0.40761l-1.27268,-0.29828c-0.69904,-0.16568 -1.2129,-0.42252 -1.54099,-0.77049c-0.32459,-0.35127 -0.48703,-0.79038 -0.48703,-1.3173c0,-0.43083 0.12103,-0.81193 0.36279,-1.14335c0.24526,-0.33141 0.57831,-0.59155 0.99913,-0.78044c0.42433,-0.18892 0.90494,-0.28335 1.44154,-0.28335c0.75562,0 1.3488,0.16571 1.77983,0.49709c0.43395,0.33141 0.7422,0.76886 0.92448,1.31235zM230.38493,180.26275v-4.51368h1.17324v7.63546h-1.17324v-1.29246h-0.07962c-0.17906,0.38773 -0.45728,0.71747 -0.83524,0.98922c-0.37766,0.26845 -0.85477,0.40266 -1.43162,0.40266c-0.47711,0 -0.90144,-0.10438 -1.27239,-0.31318c-0.37125,-0.21208 -0.66288,-0.53022 -0.8749,-0.95443c-0.21231,-0.4275 -0.31817,-0.96603 -0.31817,-1.61559v-4.85169h1.17324v4.77216c0,0.55676 0.15573,1.00082 0.4672,1.33224c0.31467,0.33141 0.71567,0.49709 1.20298,0.49709c0.29163,0 0.58822,-0.07454 0.88977,-0.22368c0.30476,-0.14914 0.55993,-0.37781 0.76554,-0.68601c0.20881,-0.3082 0.31321,-0.70091 0.31321,-1.17811zM234.87986,173.20391v10.18063h-1.17324v-10.18063zM240.34914,175.74907v0.9942h-3.95687v-0.9942zM237.54567,173.91973h1.17324v7.27756c0,0.33141 0.04783,0.57994 0.14407,0.74565c0.09945,0.16238 0.22543,0.27174 0.37766,0.32809c0.15573,0.05302 0.31992,0.07953 0.49228,0.07953c0.12919,0 0.23535,-0.00662 0.31817,-0.01986c0.08282,-0.01659 0.14902,-0.02983 0.19889,-0.03978l0.23856,1.05384c-0.07962,0.02983 -0.19073,0.05967 -0.33304,0.0895c-0.14261,0.03313 -0.32313,0.04969 -0.54185,0.04969c-0.33159,0 -0.65617,-0.07125 -0.97434,-0.21374c-0.31496,-0.14252 -0.57656,-0.35958 -0.78537,-0.65122c-0.2056,-0.29163 -0.30826,-0.6595 -0.30826,-1.10357zM249.15294,183.54362c-0.68942,0 -1.29427,-0.16404 -1.81454,-0.49213c-0.51677,-0.32809 -0.92127,-0.78709 -1.2129,-1.37697c-0.28813,-0.58991 -0.43249,-1.27922 -0.43249,-2.06794c0,-0.79537 0.14436,-1.48966 0.43249,-2.08287c0.29163,-0.59321 0.69613,-1.05384 1.2129,-1.38193c0.52027,-0.32809 1.12512,-0.49213 1.81454,-0.49213c0.68942,0 1.29252,0.16404 1.80929,0.49213c0.52056,0.32809 0.92477,0.78872 1.21319,1.38193c0.29163,0.59321 0.43745,1.2875 0.43745,2.08287c0,0.78872 -0.14582,1.47802 -0.43745,2.06794c-0.28842,0.58989 -0.69263,1.04889 -1.21319,1.37697c-0.51677,0.32809 -1.11987,0.49213 -1.80929,0.49213zM249.15294,182.48975c0.52348,0 0.95451,-0.13421 1.29252,-0.40266c0.338,-0.26842 0.58822,-0.62135 0.75066,-1.0588c0.16215,-0.43745 0.24351,-0.91135 0.24351,-1.42171c0,-0.51036 -0.08137,-0.98592 -0.24351,-1.4267c-0.16244,-0.44077 -0.41266,-0.797 -0.75066,-1.06877c-0.338,-0.27174 -0.76903,-0.40761 -1.29252,-0.40761c-0.52377,0 -0.95451,0.13587 -1.29252,0.40761c-0.338,0.27177 -0.58822,0.628 -0.75066,1.06877c-0.16244,0.44077 -0.24351,0.91634 -0.24351,1.4267c0,0.51036 0.08107,0.98426 0.24351,1.42171c0.16244,0.43745 0.41266,0.79038 0.75066,1.0588c0.338,0.26845 0.76874,0.40266 1.29252,0.40266zM257.80363,175.74907v0.9942h-4.11581v-0.9942zM254.92055,183.38453v-8.68932c0,-0.43745 0.10265,-0.80199 0.30826,-1.09362c0.20531,-0.29163 0.47215,-0.51036 0.80024,-0.65617c0.32809,-0.14581 0.67455,-0.21872 1.03909,-0.21872c0.28813,0 0.52348,0.0232 0.70575,0.06959c0.18227,0.0464 0.31817,0.08948 0.4077,0.12925l-0.338,1.01409c-0.05978,-0.01989 -0.14261,-0.04474 -0.24876,-0.07457c-0.10265,-0.02983 -0.23856,-0.04474 -0.40741,-0.04474c-0.38787,0 -0.66784,0.09776 -0.84019,0.29329c-0.16915,0.19553 -0.25343,0.48219 -0.25343,0.85998v8.41095zM266.94427,173.20391v10.18063h-1.23302v-8.88816h-0.05949l-2.48558,1.65037v-1.25269l2.54508,-1.69014zM269.87197,183.38453v-0.89479l3.36048,-3.67854c0.39429,-0.43083 0.71917,-0.80531 0.97434,-1.12346c0.25518,-0.32147 0.44416,-0.62304 0.56664,-0.90473c0.12599,-0.28498 0.18898,-0.58327 0.18898,-0.89476c0,-0.35792 -0.08632,-0.66779 -0.25839,-0.92959c-0.16915,-0.2618 -0.40099,-0.46396 -0.69613,-0.60646c-0.29484,-0.1425 -0.62643,-0.21375 -0.99418,-0.21375c-0.39108,0 -0.73229,0.08119 -1.02392,0.24358c-0.28842,0.15907 -0.51211,0.38277 -0.67105,0.67109c-0.15573,0.28832 -0.23389,0.62633 -0.23389,1.01409h-1.17295c0,-0.59652 0.13736,-1.12014 0.41266,-1.57084c0.27501,-0.45071 0.64947,-0.80199 1.12337,-1.05385c0.47711,-0.25187 1.01226,-0.3778 1.60544,-0.3778c0.59668,0 1.12512,0.12593 1.5859,0.3778c0.46078,0.25187 0.82182,0.59155 1.08371,1.01906c0.26189,0.42751 0.39254,0.90307 0.39254,1.42669c0,0.37446 -0.06766,0.74066 -0.20356,1.09858c-0.13269,0.3546 -0.36454,0.75063 -0.69613,1.18808c-0.32809,0.43412 -0.78362,0.96437 -1.36688,1.59071l-2.28669,2.44575v0.07953h4.73232v1.09362zM285.18763,183.54362c-0.63605,0 -1.19803,-0.16075 -1.68505,-0.48221c-0.48703,-0.32476 -0.86819,-0.7821 -1.1432,-1.37199c-0.2753,-0.59321 -0.41266,-1.29412 -0.41266,-2.10273c0,-0.80199 0.13736,-1.49794 0.41266,-2.08783c0.27501,-0.58989 0.65763,-1.04556 1.14816,-1.36703c0.49053,-0.32147 1.05717,-0.48219 1.70022,-0.48219c0.49694,0 0.88977,0.08285 1.1779,0.24853c0.29163,0.16241 0.51386,0.34798 0.66609,0.55676c0.15602,0.20548 0.27676,0.37449 0.36308,0.50706h0.09945v-3.75809h1.17295v10.18063h-1.13328v-1.17315h-0.13911c-0.08632,0.13917 -0.20881,0.31482 -0.36804,0.52692c-0.15894,0.20878 -0.38583,0.39601 -0.68096,0.56171c-0.29484,0.16238 -0.68767,0.2436 -1.1782,0.2436zM285.34686,182.48975c0.47069,0 0.86819,-0.1226 1.19307,-0.36784c0.32459,-0.24856 0.5716,-0.59158 0.74075,-1.02903c0.16886,-0.44074 0.25343,-0.94944 0.25343,-1.52608c0,-0.57002 -0.08282,-1.06877 -0.24847,-1.49628c-0.16594,-0.43083 -0.41091,-0.76554 -0.73579,-1.00415c-0.32488,-0.24191 -0.72587,-0.36288 -1.20298,-0.36288c-0.49723,0 -0.91135,0.12759 -1.24265,0.38277c-0.32809,0.25185 -0.5751,0.59487 -0.74075,1.029c-0.16244,0.43083 -0.24351,0.91468 -0.24351,1.45154c0,0.54349 0.08282,1.03728 0.24847,1.48135c0.16886,0.44077 0.41762,0.79204 0.7457,1.05387c0.33129,0.25847 0.7422,0.38773 1.23273,0.38773zM290.99899,183.38453v-7.63546h1.17295v7.63546zM291.59538,174.47649c-0.22864,0 -0.42578,-0.07788 -0.59143,-0.23364c-0.16244,-0.15576 -0.2438,-0.343 -0.2438,-0.56173c0,-0.21872 0.08137,-0.40596 0.2438,-0.56172c0.16565,-0.15576 0.36279,-0.23364 0.59143,-0.23364c0.22864,0 0.42433,0.07788 0.58647,0.23364c0.16594,0.15576 0.24876,0.343 0.24876,0.56172c0,0.21872 -0.08282,0.40597 -0.24876,0.56173c-0.16215,0.15576 -0.35783,0.23364 -0.58647,0.23364zM300.56425,175.74907l-2.82359,7.63546h-1.19278l-2.82359,-7.63546h1.27239l2.10792,6.0845h0.07932l2.10792,-6.0845zM302.11282,183.38453v-7.63546h1.17324v7.63546zM302.70921,174.47649c-0.22864,0 -0.42578,-0.07788 -0.59143,-0.23364c-0.16244,-0.15576 -0.24351,-0.343 -0.24351,-0.56173c0,-0.21872 0.08107,-0.40596 0.24351,-0.56172c0.16565,-0.15576 0.36279,-0.23364 0.59143,-0.23364c0.22864,0 0.42433,0.07788 0.58676,0.23364c0.16565,0.15576 0.24847,0.343 0.24847,0.56172c0,0.21872 -0.08282,0.40597 -0.24847,0.56173c-0.16244,0.15576 -0.35812,0.23364 -0.58676,0.23364zM308.31788,183.54362c-0.63634,0 -1.19803,-0.16075 -1.68505,-0.48221c-0.48732,-0.32476 -0.86848,-0.7821 -1.14349,-1.37199c-0.27501,-0.59321 -0.41266,-1.29412 -0.41266,-2.10273c0,-0.80199 0.13765,-1.49794 0.41266,-2.08783c0.27501,-0.58989 0.65792,-1.04556 1.14845,-1.36703c0.49023,-0.32147 1.05717,-0.48219 1.69993,-0.48219c0.49723,0 0.88977,0.08285 1.1782,0.24853c0.29163,0.16241 0.51356,0.34798 0.66609,0.55676c0.15573,0.20548 0.27676,0.37449 0.36279,0.50706h0.09945v-3.75809h1.17324v10.18063h-1.13328v-1.17315h-0.1394c-0.08603,0.13917 -0.20881,0.31482 -0.36775,0.52692c-0.15923,0.20878 -0.38612,0.39601 -0.68096,0.56171c-0.29513,0.16238 -0.68767,0.2436 -1.1782,0.2436zM308.47682,182.48975c0.47069,0 0.86848,-0.1226 1.19307,-0.36784c0.32488,-0.24856 0.57189,-0.59158 0.74075,-1.02903c0.16915,-0.44074 0.25343,-0.94944 0.25343,-1.52608c0,-0.57002 -0.08282,-1.06877 -0.24847,-1.49628c-0.16565,-0.43083 -0.41091,-0.76554 -0.73579,-1.00415c-0.32459,-0.24191 -0.72558,-0.36288 -1.20298,-0.36288c-0.49694,0 -0.91135,0.12759 -1.24265,0.38277c-0.32809,0.25185 -0.5751,0.59487 -0.74075,1.029c-0.16244,0.43083 -0.24351,0.91468 -0.24351,1.45154c0,0.54349 0.08282,1.03728 0.24847,1.48135c0.16915,0.44077 0.41762,0.79204 0.7457,1.05387c0.33129,0.25847 0.7425,0.38773 1.23273,0.38773zM317.3302,183.54362c-0.7355,0 -1.37038,-0.16241 -1.90378,-0.48717c-0.53019,-0.32809 -0.93964,-0.78542 -1.22777,-1.37199c-0.28522,-0.58991 -0.42753,-1.27589 -0.42753,-2.05802c0,-0.7821 0.14232,-1.4714 0.42753,-2.06794c0.28813,-0.59983 0.68913,-1.06711 1.20298,-1.40182c0.51677,-0.33803 1.12016,-0.50703 1.80929,-0.50703c0.39779,0 0.79032,0.06626 1.1782,0.19884c0.38787,0.13255 0.74075,0.34798 1.05892,0.64623c0.31817,0.29496 0.5716,0.68601 0.76058,1.17315c0.18869,0.48717 0.28318,1.087 0.28318,1.79952v0.49709h-5.88573v-1.01406h4.69266c0,-0.43083 -0.08603,-0.81526 -0.25839,-1.15329c-0.16915,-0.33803 -0.41091,-0.60482 -0.72587,-0.80033c-0.31146,-0.19554 -0.67921,-0.29329 -1.10354,-0.29329c-0.4672,0 -0.8714,0.11598 -1.2129,0.34798c-0.338,0.22867 -0.59814,0.52692 -0.78041,0.89479c-0.18227,0.36784 -0.27326,0.76221 -0.27326,1.18309v0.67606c0,0.57662 0.09916,1.06545 0.29805,1.46644c0.2021,0.39767 0.48236,0.70091 0.84019,0.90969c0.35783,0.20546 0.7737,0.3082 1.2476,0.3082c0.30826,0 0.58676,-0.04307 0.83524,-0.12925c0.25197,-0.08947 0.46895,-0.22202 0.65122,-0.39767c0.18227,-0.17895 0.32313,-0.40099 0.42258,-0.66612l1.13328,0.31814c-0.11928,0.38443 -0.31963,0.72246 -0.60135,1.01409c-0.28172,0.28831 -0.62963,0.51368 -1.04404,0.67606c-0.41412,0.15906 -0.87986,0.23861 -1.39692,0.23861zM325.15966,183.54362c-0.63634,0 -1.19803,-0.16075 -1.68505,-0.48221c-0.48732,-0.32476 -0.86848,-0.7821 -1.14349,-1.37199c-0.27501,-0.59321 -0.41266,-1.29412 -0.41266,-2.10273c0,-0.80199 0.13765,-1.49794 0.41266,-2.08783c0.27501,-0.58989 0.65792,-1.04556 1.14845,-1.36703c0.49023,-0.32147 1.05717,-0.48219 1.69993,-0.48219c0.49723,0 0.88977,0.08285 1.1782,0.24853c0.29163,0.16241 0.51356,0.34798 0.66609,0.55676c0.15573,0.20548 0.27676,0.37449 0.36279,0.50706h0.09945v-3.75809h1.17324v10.18063h-1.13328v-1.17315h-0.1394c-0.08603,0.13917 -0.20881,0.31482 -0.36775,0.52692c-0.15923,0.20878 -0.38612,0.39601 -0.68096,0.56171c-0.29513,0.16238 -0.68767,0.2436 -1.1782,0.2436zM325.3186,182.48975c0.47069,0 0.86848,-0.1226 1.19307,-0.36784c0.32488,-0.24856 0.57189,-0.59158 0.74075,-1.02903c0.16915,-0.44074 0.25343,-0.94944 0.25343,-1.52608c0,-0.57002 -0.08282,-1.06877 -0.24847,-1.49628c-0.16565,-0.43083 -0.41091,-0.76554 -0.73579,-1.00415c-0.32459,-0.24191 -0.72558,-0.36288 -1.20298,-0.36288c-0.49694,0 -0.91135,0.12759 -1.24265,0.38277c-0.32809,0.25185 -0.5751,0.59487 -0.74075,1.029c-0.16244,0.43083 -0.24351,0.91468 -0.24351,1.45154c0,0.54349 0.08282,1.03728 0.24847,1.48135c0.16915,0.44077 0.41762,0.79204 0.7457,1.05387c0.33129,0.25847 0.7425,0.38773 1.23273,0.38773zM335.067,183.38453v-10.18063h1.17295v3.75809h0.09945c0.08632,-0.13258 0.2056,-0.30158 0.35783,-0.50706c0.15602,-0.20878 0.37796,-0.39435 0.66638,-0.55676c0.29163,-0.16568 0.68592,-0.24853 1.18286,-0.24853c0.64305,0 1.20969,0.16072 1.70022,0.48219c0.49053,0.32147 0.87315,0.77714 1.14816,1.36703c0.2753,0.58989 0.41266,1.28584 0.41266,2.08783c0,0.80861 -0.13736,1.50952 -0.41266,2.10273c-0.27501,0.58989 -0.65617,1.04722 -1.1432,1.37199c-0.48732,0.32147 -1.049,0.48221 -1.68505,0.48221c-0.49053,0 -0.88335,-0.08122 -1.1782,-0.2436c-0.29513,-0.16571 -0.52202,-0.35293 -0.68096,-0.56171c-0.15923,-0.2121 -0.28172,-0.38775 -0.36804,-0.52692h-0.13911v1.17315zM336.22011,179.5668c0,0.57664 0.08457,1.08534 0.25343,1.52608c0.16915,0.43745 0.41616,0.78047 0.74075,1.02903c0.32488,0.24523 0.72237,0.36784 1.19307,0.36784c0.49053,0 0.89969,-0.12925 1.22777,-0.38773c0.33159,-0.26183 0.58006,-0.6131 0.7457,-1.05387c0.16915,-0.44407 0.25343,-0.93786 0.25343,-1.48135c0,-0.53687 -0.08282,-1.02071 -0.24847,-1.45154c-0.16244,-0.43412 -0.40916,-0.77714 -0.74075,-1.029c-0.32809,-0.25518 -0.74045,-0.38277 -1.23769,-0.38277c-0.47711,0 -0.87811,0.12097 -1.20298,0.36288c-0.32488,0.23861 -0.56985,0.57332 -0.73579,1.00415c-0.16565,0.4275 -0.24847,0.92625 -0.24847,1.49628zM344.08428,186.24784c-0.19889,0 -0.37621,-0.01656 -0.53194,-0.04972c-0.15573,-0.0298 -0.26334,-0.05964 -0.32313,-0.08947l0.29834,-1.03395c0.28492,0.07291 0.5369,0.09942 0.75562,0.07953c0.21872,-0.01989 0.41266,-0.11764 0.58152,-0.29329c0.17235,-0.17233 0.32984,-0.45235 0.47215,-0.84011l0.21872,-0.59651l-2.82329,-7.67524h1.27239l2.10792,6.0845h0.07932l2.10792,-6.0845h1.27239l-3.24091,8.74898c-0.14582,0.39437 -0.32663,0.7208 -0.54185,0.97927c-0.21552,0.26183 -0.46574,0.45568 -0.75066,0.58163c-0.28172,0.12593 -0.59989,0.18889 -0.95451,0.18889zM358.4778,183.52373c-0.65617,0 -1.24119,-0.11269 -1.75475,-0.33803c-0.51036,-0.22534 -0.91631,-0.53853 -1.21786,-0.93952c-0.29834,-0.40432 -0.46078,-0.87324 -0.48732,-1.40681h1.25285c0.02654,0.32809 0.13911,0.61144 0.338,0.85005c0.19889,0.23529 0.45903,0.41756 0.78041,0.54681c0.32138,0.12925 0.67775,0.19388 1.06883,0.19388c0.43745,0 0.82503,-0.07623 1.16332,-0.22867c0.338,-0.15244 0.6031,-0.36454 0.79528,-0.63628c0.19219,-0.27177 0.28813,-0.58659 0.28813,-0.94451c0,-0.37449 -0.09274,-0.70421 -0.27822,-0.98922c-0.18548,-0.28834 -0.45728,-0.51368 -0.8154,-0.67606c-0.35783,-0.16238 -0.79528,-0.24357 -1.31235,-0.24357h-0.81511v-1.09362h0.81511c0.40449,0 0.75912,-0.07291 1.06388,-0.21872c0.30826,-0.14582 0.54856,-0.3513 0.72092,-0.61642c0.17556,-0.26512 0.26334,-0.57662 0.26334,-0.93454c0,-0.34466 -0.07612,-0.64458 -0.22864,-0.89976c-0.15252,-0.25518 -0.36775,-0.45402 -0.64626,-0.59652c-0.27501,-0.1425 -0.59989,-0.21375 -0.97434,-0.21375c-0.35113,0 -0.68271,0.06463 -0.99418,0.19387c-0.30826,0.12593 -0.55993,0.30986 -0.75562,0.55178c-0.19539,0.23861 -0.30155,0.52693 -0.31817,0.86496h-1.19307c0.02012,-0.53356 0.18081,-1.00084 0.48236,-1.40183c0.30155,-0.40431 0.69584,-0.71914 1.18315,-0.94449c0.49053,-0.22535 1.02888,-0.33803 1.61535,-0.33803c0.62993,0 1.17003,0.12759 1.6206,0.38277c0.45086,0.25186 0.79703,0.58492 1.03909,0.99917c0.24176,0.41425 0.36279,0.86164 0.36279,1.34216c0,0.57335 -0.15077,1.06215 -0.45232,1.46647c-0.29834,0.40429 -0.70429,0.68432 -1.21786,0.84008v0.07956c0.64276,0.10604 1.14495,0.37944 1.50628,0.82022c0.36104,0.43745 0.54185,0.97927 0.54185,1.6255c0,0.55346 -0.15077,1.05055 -0.45261,1.49132c-0.29805,0.43745 -0.70575,0.7821 -1.22282,1.03395c-0.51677,0.25188 -1.10529,0.37781 -1.76467,0.37781zM365.50177,180.52123v-0.05964c0.00671,-0.63299 0.07291,-1.13673 0.19889,-1.51118c0.12599,-0.37449 0.30505,-0.67772 0.5369,-0.90972c0.23185,-0.23196 0.51036,-0.44573 0.83524,-0.64124c0.19539,-0.11931 0.37096,-0.26017 0.52698,-0.42255c0.15573,-0.16571 0.27822,-0.35626 0.36775,-0.57166c0.09274,-0.21543 0.13911,-0.45401 0.13911,-0.71584c0,-0.32476 -0.07612,-0.60645 -0.22864,-0.84506c-0.15252,-0.23861 -0.35637,-0.42254 -0.61155,-0.55178c-0.25518,-0.12925 -0.53835,-0.19387 -0.84982,-0.19387c-0.2718,0 -0.53369,0.05634 -0.78537,0.16902c-0.25197,0.11268 -0.46253,0.28997 -0.63138,0.5319c-0.16915,0.24192 -0.26684,0.55841 -0.29338,0.94947h-1.25256c0.02625,-0.56339 0.17206,-1.04558 0.43745,-1.44657c0.2683,-0.40099 0.62118,-0.70754 1.05863,-0.91964c0.44095,-0.2121 0.92972,-0.31814 1.46662,-0.31814c0.58327,0 1.09012,0.11599 1.52116,0.34797c0.43395,0.23198 0.76874,0.55012 1.00409,0.95443c0.23856,0.40431 0.35783,0.86496 0.35783,1.38195c0,0.36454 -0.05629,0.69429 -0.16886,0.98922c-0.10965,0.29496 -0.26859,0.55842 -0.4774,0.79041c-0.20531,0.23196 -0.45407,0.43745 -0.7457,0.61639c-0.29163,0.18227 -0.52523,0.37449 -0.70079,0.57664c-0.17556,0.19884 -0.3033,0.43579 -0.38291,0.71085c-0.07932,0.27504 -0.12249,0.61806 -0.12919,1.029v0.05964zM366.13811,183.46406c-0.24526,0 -0.45553,-0.08781 -0.63138,-0.26346c-0.17556,-0.17565 -0.26334,-0.38606 -0.26334,-0.63133c0,-0.24523 0.08778,-0.45568 0.26334,-0.6313c0.17585,-0.17565 0.38612,-0.26346 0.63138,-0.26346c0.24526,0 0.45582,0.08781 0.63138,0.26346c0.17556,0.17562 0.26334,0.38606 0.26334,0.6313c0,0.16241 -0.04141,0.31152 -0.12424,0.44739c-0.07962,0.13587 -0.18723,0.24523 -0.32313,0.32809c-0.1324,0.07956 -0.28172,0.11931 -0.44736,0.11931z"/></g></g></svg>