<svg version="1.1" xmlns="http://www.w3.org/2000/svg" xmlns:xlink="http://www.w3.org/1999/xlink" width="236.3566" height="15.2702" viewBox="0,0,236.3566,15.2702"><g transform="translate(-121.8217,-172.3649)"><g data-paper-data="{&quot;isPaintingLayer&quot;:true}" fill="#ffffff" fill-rule="nonzero" stroke="none" stroke-width="1" stroke-linecap="butt" stroke-linejoin="miter" stroke-miterlimit="10" stroke-dasharray="" stroke-dashoffset="0" style="mix-blend-mode: normal"><path d="M124.92901,184.26146l-3.10731,-11.36388h1.39829l2.37486,9.25534h0.11097l2.41929,-9.25534h1.55365l2.41926,9.25534h0.11097l2.37489,-9.25534h1.39827l-3.10729,11.36388h-1.42051l-2.50803,-9.05559h-0.08877l-2.50806,9.05559zM138.82865,179.1344v5.12706h-1.3095v-11.36388h1.3095v4.17268h0.111c0.19974,-0.44021 0.49936,-0.78976 0.89888,-1.04872c0.40323,-0.26264 0.9396,-0.39395 1.60915,-0.39395c0.58077,0 1.08941,0.11651 1.52591,0.34955c0.4365,0.22937 0.77498,0.58263 1.01542,1.05982c0.24415,0.47351 0.36622,1.07645 0.36622,1.80889v5.41561h-1.3095v-5.3268c0,-0.67697 -0.17572,-1.20038 -0.52713,-1.57031c-0.34773,-0.37361 -0.83049,-0.56043 -1.44824,-0.56043c-0.42911,0 -0.81382,0.09063 -1.15413,0.27188c-0.33663,0.18129 -0.60297,0.44578 -0.79904,0.79347c-0.19235,0.34773 -0.28855,0.76945 -0.28855,1.26513zM149.25895,184.4612c-0.54008,0 -1.0302,-0.10173 -1.47041,-0.30518c-0.44021,-0.20713 -0.78976,-0.50493 -1.04872,-0.89335c-0.25896,-0.3921 -0.38842,-0.86561 -0.38842,-1.42047c0,-0.48829 0.09619,-0.8841 0.28855,-1.18743c0.19235,-0.30704 0.44946,-0.5475 0.77127,-0.72137c0.32182,-0.17383 0.67693,-0.30333 1.06535,-0.38839c0.39213,-0.0888 0.78608,-0.15909 1.18189,-0.21088c0.51788,-0.06657 0.93775,-0.11651 1.25956,-0.14981c0.32553,-0.03698 0.56228,-0.09802 0.71024,-0.18311c0.1517,-0.08509 0.22751,-0.23305 0.22751,-0.44389v-0.0444c0,-0.54747 -0.14981,-0.97287 -0.44946,-1.2762c-0.29594,-0.30336 -0.74536,-0.45502 -1.34834,-0.45502c-0.62518,0 -1.11532,0.13688 -1.47044,0.41062c-0.35512,0.27374 -0.6048,0.56596 -0.74907,0.87671l-1.24293,-0.44392c0.22194,-0.51788 0.51788,-0.92108 0.88781,-1.20963c0.37361,-0.29223 0.78052,-0.49568 1.22073,-0.61036c0.44389,-0.11836 0.88039,-0.17754 1.3095,-0.17754c0.27374,0 0.58816,0.03327 0.94328,0.09987c0.35883,0.06289 0.7047,0.19421 1.03762,0.39395c0.33663,0.19978 0.61593,0.50125 0.83788,0.90445c0.22194,0.40323 0.33292,0.94331 0.33292,1.62025v5.61535h-1.3095v-1.15416h-0.06657c-0.0888,0.18496 -0.23676,0.38289 -0.44392,0.59373c-0.20713,0.21084 -0.48272,0.39028 -0.82674,0.53823c-0.34405,0.14798 -0.76388,0.22194 -1.2596,0.22194zM149.45873,183.28488c0.51788,0 0.95438,-0.10173 1.3095,-0.30518c0.35883,-0.20345 0.62885,-0.46609 0.81011,-0.78794c0.18496,-0.32182 0.27745,-0.6603 0.27745,-1.01542v-1.19853c-0.05547,0.0666 -0.17754,0.12764 -0.36622,0.18311c-0.18496,0.05179 -0.39952,0.09802 -0.64367,0.13871c-0.24043,0.03701 -0.47534,0.07031 -0.70467,0.0999c-0.22566,0.02588 -0.40877,0.04808 -0.54933,0.06657c-0.34034,0.0444 -0.65848,0.11654 -0.95441,0.21641c-0.29223,0.09616 -0.52898,0.24229 -0.71024,0.43836c-0.17754,0.19235 -0.26635,0.45499 -0.26635,0.78791c0,0.45502 0.16833,0.79904 0.50496,1.03209c0.34031,0.22933 0.77127,0.34402 1.29287,0.34402zM159.26202,175.73856v1.10976h-4.41676v-1.10976zM156.1324,173.69662h1.3096v8.12338c0,0.36993 0.05371,0.64734 0.16081,0.83231c0.111,0.18125 0.25163,0.30333 0.42188,0.36622c0.17383,0.05918 0.35678,0.08877 0.54917,0.08877c0.14421,0 0.2627,-0.00739 0.35515,-0.02217c0.09245,-0.01852 0.16667,-0.0333 0.22201,-0.0444l0.26628,1.17633c-0.08887,0.0333 -0.21257,0.0666 -0.37175,0.0999c-0.15886,0.03698 -0.36068,0.05547 -0.60483,0.05547c-0.3698,0 -0.73244,-0.07953 -1.08759,-0.23858c-0.35124,-0.15909 -0.64357,-0.40138 -0.87665,-0.7269c-0.22917,-0.32553 -0.34408,-0.73615 -0.34408,-1.23183zM165.62642,184.26146v-8.5229h1.3096v8.5229zM166.29245,174.31805c-0.25554,0 -0.4756,-0.08692 -0.6605,-0.26078c-0.18132,-0.17386 -0.27182,-0.38285 -0.27182,-0.627c0,-0.24415 0.0905,-0.45317 0.27182,-0.62703c0.1849,-0.17386 0.40496,-0.26078 0.6605,-0.26078c0.25521,0 0.47332,0.08692 0.65464,0.26078c0.1849,0.17386 0.27735,0.38289 0.27735,0.62703c0,0.24415 -0.09245,0.45313 -0.27735,0.627c-0.18132,0.17386 -0.39942,0.26078 -0.65464,0.26078zM175.37141,177.64732l-1.17613,0.33292c-0.07422,-0.19603 -0.18327,-0.38656 -0.32748,-0.5715c-0.14063,-0.18868 -0.33301,-0.34405 -0.57716,-0.46612c-0.24415,-0.12207 -0.55665,-0.18311 -0.93785,-0.18311c-0.5215,0 -0.95607,0.12025 -1.30374,0.36068c-0.34408,0.23676 -0.51596,0.53823 -0.51596,0.90445c0,0.32553 0.11817,0.58263 0.35483,0.77127c0.23698,0.18868 0.60678,0.34587 1.11005,0.47166l1.265,0.31072c0.76206,0.18496 1.32978,0.46795 1.70349,0.84898c0.37371,0.37732 0.56023,0.86376 0.56023,1.45931c0,0.48829 -0.1403,0.92482 -0.42156,1.30953c-0.27735,0.38471 -0.6657,0.68804 -1.16539,0.90998c-0.49936,0.22194 -1.0801,0.33295 -1.74222,0.33295c-0.86916,0 -1.5889,-0.18868 -2.15857,-0.56599c-0.56967,-0.37732 -0.93003,-0.9285 -1.08173,-1.65352l1.24286,-0.31075c0.11817,0.4587 0.34213,0.80272 0.67124,1.03209c0.33301,0.22933 0.76759,0.34402 1.30406,0.34402c0.61036,0 1.09508,-0.12946 1.45381,-0.38842c0.36264,-0.26264 0.54363,-0.57706 0.54363,-0.94328c0,-0.29594 -0.10352,-0.54379 -0.31055,-0.74354c-0.20736,-0.20345 -0.5254,-0.35512 -0.95445,-0.45499l-1.4206,-0.33295c-0.78029,-0.18493 -1.35387,-0.47162 -1.72009,-0.86004c-0.36231,-0.3921 -0.54363,-0.88225 -0.54363,-1.47041c0,-0.4809 0.13509,-0.9063 0.40496,-1.27623c0.27377,-0.36993 0.64552,-0.6603 1.11526,-0.87114c0.47364,-0.21088 1.01011,-0.31628 1.60908,-0.31628c0.84344,0 1.50557,0.18496 1.9867,0.55486c0.48439,0.36993 0.82847,0.85822 1.03192,1.46487zM185.59916,175.73856v1.10976h-4.41676v-1.10976zM182.46987,173.69662h1.30927v8.12338c0,0.36993 0.05371,0.64734 0.16114,0.83231c0.111,0.18125 0.25131,0.30333 0.42156,0.36622c0.17383,0.05918 0.3571,0.08877 0.54949,0.08877c0.14421,0 0.26238,-0.00739 0.35483,-0.02217c0.09278,-0.01852 0.16667,-0.0333 0.22201,-0.0444l0.26628,1.17633c-0.08854,0.0333 -0.21257,0.0666 -0.37175,0.0999c-0.15886,0.03698 -0.36068,0.05547 -0.60483,0.05547c-0.3698,0 -0.73244,-0.07953 -1.08726,-0.23858c-0.35157,-0.15909 -0.64389,-0.40138 -0.87697,-0.7269c-0.22917,-0.32553 -0.34376,-0.73615 -0.34376,-1.23183zM189.0618,179.1344v5.12706h-1.3096v-11.36388h1.3096v4.17268h0.11068c0.19987,-0.44021 0.49968,-0.78976 0.89911,-1.04872c0.403,-0.26264 0.93947,-0.39395 1.60908,-0.39395c0.58074,0 1.08954,0.11651 1.52575,0.34955c0.43653,0.22937 0.77508,0.58263 1.01565,1.05982c0.24415,0.47351 0.36622,1.07645 0.36622,1.80889v5.41561h-1.3096v-5.3268c0,-0.67697 -0.17578,-1.20038 -0.52703,-1.57031c-0.34766,-0.37361 -0.83042,-0.56043 -1.44827,-0.56043c-0.42905,0 -0.81382,0.09063 -1.15432,0.27188c-0.3366,0.18129 -0.60288,0.44578 -0.79884,0.79347c-0.19239,0.34773 -0.28842,0.76945 -0.28842,1.26513zM200.55716,184.43904c-0.82098,0 -1.52933,-0.18129 -2.12504,-0.54379c-0.59181,-0.36622 -1.04885,-0.87671 -1.37047,-1.53144c-0.31804,-0.65848 -0.47722,-1.42418 -0.47722,-2.29722c0,-0.873 0.15918,-1.64242 0.47722,-2.30828c0.32162,-0.66955 0.76922,-1.19114 1.3428,-1.56475c0.57716,-0.37732 1.25035,-0.56596 2.01957,-0.56596c0.44402,0 0.88251,0.07396 1.31513,0.22194c0.43295,0.14795 0.82684,0.38842 1.18199,0.72134c0.35515,0.32924 0.63803,0.76574 0.84898,1.3095c0.21094,0.54379 0.31609,1.21334 0.31609,2.00867v0.55486h-6.56947v-1.13192h5.23774c0,-0.4809 -0.09603,-0.91001 -0.28842,-1.28733c-0.18848,-0.37732 -0.45867,-0.67511 -0.81024,-0.89335c-0.34766,-0.21827 -0.75815,-0.32738 -1.2318,-0.32738c-0.5215,0 -0.97268,0.12946 -1.35387,0.38842c-0.37729,0.25525 -0.66766,0.58816 -0.87111,0.99878c-0.20345,0.41059 -0.30502,0.8508 -0.30502,1.3206v0.75464c0,0.64363 0.111,1.18928 0.33269,1.63688c0.22592,0.44389 0.53842,0.78237 0.93785,1.01542c0.39942,0.22933 0.86362,0.34402 1.39261,0.34402c0.34408,0 0.65496,-0.04808 0.93231,-0.14427c0.28126,-0.09987 0.52345,-0.24782 0.7269,-0.44389c0.20345,-0.19974 0.36068,-0.4476 0.47169,-0.74354l1.265,0.35512c-0.13314,0.42911 -0.35678,0.80643 -0.67124,1.13196c-0.31446,0.32182 -0.70281,0.57338 -1.16539,0.75464c-0.46225,0.17754 -0.98212,0.26635 -1.55928,0.26635zM213.93537,184.43904c-0.76955,0 -1.44437,-0.18311 -2.02543,-0.54933c-0.57684,-0.36622 -1.02834,-0.87857 -1.35387,-1.53701c-0.32162,-0.65848 -0.48276,-1.42789 -0.48276,-2.30828c0,-0.88781 0.16114,-1.6628 0.48276,-2.32495c0.32553,-0.66216 0.77703,-1.17633 1.35387,-1.54255c0.58107,-0.36622 1.25589,-0.54933 2.02543,-0.54933c0.76955,0 1.44274,0.18311 2.0199,0.54933c0.58074,0.36622 1.03192,0.88039 1.35387,1.54255c0.32553,0.66216 0.48829,1.43714 0.48829,2.32495c0,0.88039 -0.16276,1.64981 -0.48829,2.30828c-0.32195,0.65844 -0.77313,1.17079 -1.35387,1.53701c-0.57716,0.36622 -1.25035,0.54933 -2.0199,0.54933zM213.93537,183.26268c0.58465,0 1.06545,-0.14981 1.44274,-0.44946c0.37729,-0.29962 0.65659,-0.69357 0.83791,-1.18186c0.18132,-0.48829 0.27182,-1.01727 0.27182,-1.58695c0,-0.56967 -0.0905,-1.10051 -0.27182,-1.59251c-0.18132,-0.492 -0.46062,-0.88963 -0.83791,-1.19299c-0.37729,-0.30333 -0.85809,-0.45499 -1.44274,-0.45499c-0.58432,0 -1.06545,0.15166 -1.44274,0.45499c-0.37729,0.30336 -0.65659,0.70099 -0.83791,1.19299c-0.18099,0.492 -0.27182,1.02284 -0.27182,1.59251c0,0.56967 0.09082,1.09866 0.27182,1.58695c0.18132,0.48829 0.46062,0.88225 0.83791,1.18186c0.37729,0.29965 0.85842,0.44946 1.44274,0.44946zM219.79617,187.45756v-11.719h1.26533v1.3539h0.15528c0.09603,-0.14798 0.2295,-0.33663 0.39942,-0.56599c0.17383,-0.23305 0.42188,-0.44018 0.74351,-0.62146c0.32553,-0.18493 0.76597,-0.27741 1.32067,-0.27741c0.71779,0 1.35029,0.1794 1.89783,0.53823c0.54754,0.35883 0.97463,0.86747 1.2816,1.52591c0.30697,0.65844 0.46062,1.43528 0.46062,2.33049c0,0.90259 -0.15365,1.68496 -0.46062,2.34712c-0.30697,0.65844 -0.73244,1.16894 -1.27607,1.53144c-0.54396,0.35883 -1.17092,0.53826 -1.88122,0.53826c-0.54721,0 -0.9857,-0.09066 -1.31481,-0.27191c-0.32943,-0.18496 -0.58269,-0.39395 -0.76043,-0.627c-0.17741,-0.23676 -0.31446,-0.43282 -0.41049,-0.58816h-0.111v4.5056zM221.08363,180.00001c0,0.64367 0.0944,1.21148 0.28288,1.70345c0.18881,0.48829 0.4642,0.87118 0.82684,1.14862c0.36264,0.27374 0.80633,0.41059 1.33173,0.41059c0.54754,0 1.00425,-0.14427 1.37047,-0.43279c0.3698,-0.29226 0.64747,-0.68436 0.83237,-1.17636c0.18848,-0.49568 0.28288,-1.04686 0.28288,-1.65352c0,-0.59926 -0.09245,-1.13935 -0.27735,-1.62025c-0.18132,-0.48458 -0.45672,-0.86747 -0.82684,-1.14859c-0.36622,-0.28484 -0.82684,-0.42726 -1.38154,-0.42726c-0.53256,0 -0.98016,0.13503 -1.3428,0.40505c-0.36264,0.26635 -0.63641,0.63995 -0.82131,1.12086c-0.1849,0.47719 -0.27735,1.03391 -0.27735,1.67018zM229.31785,187.45756v-11.719h1.26533v1.3539h0.15528c0.09603,-0.14798 0.2295,-0.33663 0.39942,-0.56599c0.17383,-0.23305 0.42188,-0.44018 0.74351,-0.62146c0.32553,-0.18493 0.76597,-0.27741 1.32067,-0.27741c0.71779,0 1.35029,0.1794 1.89783,0.53823c0.54754,0.35883 0.97463,0.86747 1.2816,1.52591c0.30697,0.65844 0.46062,1.43528 0.46062,2.33049c0,0.90259 -0.15365,1.68496 -0.46062,2.34712c-0.30697,0.65844 -0.73244,1.16894 -1.27607,1.53144c-0.54396,0.35883 -1.17092,0.53826 -1.88122,0.53826c-0.54721,0 -0.9857,-0.09066 -1.31481,-0.27191c-0.32943,-0.18496 -0.58269,-0.39395 -0.76043,-0.627c-0.17741,-0.23676 -0.31446,-0.43282 -0.41049,-0.58816h-0.111v4.5056zM230.60532,180.00001c0,0.64367 0.0944,1.21148 0.28288,1.70345c0.18881,0.48829 0.4642,0.87118 0.82684,1.14862c0.36264,0.27374 0.80633,0.41059 1.33173,0.41059c0.54754,0 1.00425,-0.14427 1.37047,-0.43279c0.3698,-0.29226 0.64747,-0.68436 0.83237,-1.17636c0.18848,-0.49568 0.28288,-1.04686 0.28288,-1.65352c0,-0.59926 -0.09245,-1.13935 -0.27735,-1.62025c-0.18132,-0.48458 -0.45672,-0.86747 -0.82684,-1.14859c-0.36622,-0.28484 -0.82684,-0.42726 -1.38154,-0.42726c-0.53256,0 -0.98016,0.13503 -1.3428,0.40505c-0.36264,0.26635 -0.63641,0.63995 -0.82131,1.12086c-0.1849,0.47719 -0.27735,1.03391 -0.27735,1.67018zM242.30218,184.43904c-0.76955,0 -1.44469,-0.18311 -2.02543,-0.54933c-0.57716,-0.36622 -1.02834,-0.87857 -1.35387,-1.53701c-0.32195,-0.65848 -0.48276,-1.42789 -0.48276,-2.30828c0,-0.88781 0.16081,-1.6628 0.48276,-2.32495c0.32553,-0.66216 0.77671,-1.17633 1.35387,-1.54255c0.58074,-0.36622 1.25589,-0.54933 2.02543,-0.54933c0.76922,0 1.44274,0.18311 2.01957,0.54933c0.58074,0.36622 1.03225,0.88039 1.35387,1.54255c0.32553,0.66216 0.48829,1.43714 0.48829,2.32495c0,0.88039 -0.16276,1.64981 -0.48829,2.30828c-0.32162,0.65844 -0.77313,1.17079 -1.35387,1.53701c-0.57684,0.36622 -1.25035,0.54933 -2.01957,0.54933zM242.30218,183.26268c0.58432,0 1.06513,-0.14981 1.44241,-0.44946c0.37761,-0.29962 0.65691,-0.69357 0.83791,-1.18186c0.18132,-0.48829 0.27214,-1.01727 0.27214,-1.58695c0,-0.56967 -0.09082,-1.10051 -0.27214,-1.59251c-0.18099,-0.492 -0.4603,-0.88963 -0.83791,-1.19299c-0.37729,-0.30333 -0.85809,-0.45499 -1.44241,-0.45499c-0.58465,0 -1.06545,0.15166 -1.44274,0.45499c-0.37729,0.30336 -0.65659,0.70099 -0.83791,1.19299c-0.18132,0.492 -0.27182,1.02284 -0.27182,1.59251c0,0.56967 0.0905,1.09866 0.27182,1.58695c0.18132,0.48829 0.46062,0.88225 0.83791,1.18186c0.37729,0.29965 0.85809,0.44946 1.44274,0.44946zM254.19989,177.64732l-1.17613,0.33292c-0.07422,-0.19603 -0.18327,-0.38656 -0.32748,-0.5715c-0.14063,-0.18868 -0.33301,-0.34405 -0.57716,-0.46612c-0.24415,-0.12207 -0.55665,-0.18311 -0.93752,-0.18311c-0.52182,0 -0.9564,0.12025 -1.30406,0.36068c-0.34408,0.23676 -0.51596,0.53823 -0.51596,0.90445c0,0.32553 0.11817,0.58263 0.35515,0.77127c0.23666,0.18868 0.60646,0.34587 1.10972,0.47166l1.265,0.31072c0.76206,0.18496 1.32978,0.46795 1.70349,0.84898c0.37371,0.37732 0.56056,0.86376 0.56056,1.45931c0,0.48829 -0.14063,0.92482 -0.42188,1.30953c-0.27735,0.38471 -0.6657,0.68804 -1.16506,0.90998c-0.49936,0.22194 -1.08043,0.33295 -1.74255,0.33295c-0.86916,0 -1.58857,-0.18868 -2.15825,-0.56599c-0.56967,-0.37732 -0.93036,-0.9285 -1.08205,-1.65352l1.24286,-0.31075c0.11849,0.4587 0.34213,0.80272 0.67156,1.03209c0.33269,0.22933 0.76727,0.34402 1.30374,0.34402c0.61036,0 1.09508,-0.12946 1.45381,-0.38842c0.36264,-0.26264 0.54396,-0.57706 0.54396,-0.94328c0,-0.29594 -0.10384,-0.54379 -0.31088,-0.74354c-0.20704,-0.20345 -0.5254,-0.35512 -0.95445,-0.45499l-1.42028,-0.33295c-0.78062,-0.18493 -1.3542,-0.47162 -1.72041,-0.86004c-0.36231,-0.3921 -0.54363,-0.88225 -0.54363,-1.47041c0,-0.4809 0.13509,-0.9063 0.40496,-1.27623c0.27377,-0.36993 0.64552,-0.6603 1.11526,-0.87114c0.47364,-0.21088 1.01011,-0.31628 1.60941,-0.31628c0.84344,0 1.50557,0.18496 1.98637,0.55486c0.48471,0.36993 0.82847,0.85822 1.03192,1.46487zM256.32656,184.26146v-8.5229h1.3096v8.5229zM256.99259,174.31805c-0.25554,0 -0.4756,-0.08692 -0.6605,-0.26078c-0.18132,-0.17386 -0.27182,-0.38285 -0.27182,-0.627c0,-0.24415 0.0905,-0.45317 0.27182,-0.62703c0.1849,-0.17386 0.40496,-0.26078 0.6605,-0.26078c0.25521,0 0.47332,0.08692 0.65464,0.26078c0.1849,0.17386 0.27735,0.38289 0.27735,0.62703c0,0.24415 -0.09245,0.45313 -0.27735,0.627c-0.18132,0.17386 -0.39942,0.26078 -0.65464,0.26078zM263.7411,175.73856v1.10976h-4.41676v-1.10976zM260.61148,173.69662h1.3096v8.12338c0,0.36993 0.05371,0.64734 0.16081,0.83231c0.111,0.18125 0.25163,0.30333 0.42188,0.36622c0.17383,0.05918 0.3571,0.08877 0.54917,0.08877c0.14453,0 0.2627,-0.00739 0.35515,-0.02217c0.09245,-0.01852 0.16667,-0.0333 0.22201,-0.0444l0.26628,1.17633c-0.08854,0.0333 -0.21257,0.0666 -0.37175,0.0999c-0.15886,0.03698 -0.36068,0.05547 -0.60483,0.05547c-0.3698,0 -0.73244,-0.07953 -1.08759,-0.23858c-0.35124,-0.15909 -0.64357,-0.40138 -0.87665,-0.7269c-0.22917,-0.32553 -0.34408,-0.73615 -0.34408,-1.23183zM269.19271,184.43904c-0.82131,0 -1.52965,-0.18129 -2.12504,-0.54379c-0.59181,-0.36622 -1.04885,-0.87671 -1.37047,-1.53144c-0.31837,-0.65848 -0.47722,-1.42418 -0.47722,-2.29722c0,-0.873 0.15886,-1.64242 0.47722,-2.30828c0.32162,-0.66955 0.76922,-1.19114 1.3428,-1.56475c0.57684,-0.37732 1.25003,-0.56596 2.01957,-0.56596c0.44402,0 0.88218,0.07396 1.31513,0.22194c0.43263,0.14795 0.82684,0.38842 1.18199,0.72134c0.35483,0.32924 0.63803,0.76574 0.84898,1.3095c0.21062,0.54379 0.31609,1.21334 0.31609,2.00867v0.55486h-6.5698v-1.13192h5.23807c0,-0.4809 -0.09603,-0.91001 -0.28842,-1.28733c-0.18881,-0.37732 -0.45867,-0.67511 -0.81024,-0.89335c-0.34766,-0.21827 -0.75815,-0.32738 -1.2318,-0.32738c-0.5215,0 -0.973,0.12946 -1.35387,0.38842c-0.37729,0.25525 -0.66766,0.58816 -0.87111,0.99878c-0.20345,0.41059 -0.30534,0.8508 -0.30534,1.3206v0.75464c0,0.64363 0.111,1.18928 0.33301,1.63688c0.22559,0.44389 0.53842,0.78237 0.93785,1.01542c0.39942,0.22933 0.86362,0.34402 1.39261,0.34402c0.34408,0 0.65496,-0.04808 0.93231,-0.14427c0.28093,-0.09987 0.52345,-0.24782 0.7269,-0.44389c0.20345,-0.19974 0.36068,-0.4476 0.47169,-0.74354l1.265,0.35512c-0.13314,0.42911 -0.3571,0.80643 -0.67124,1.13196c-0.31446,0.32182 -0.70314,0.57338 -1.16539,0.75464c-0.46225,0.17754 -0.98212,0.26635 -1.55928,0.26635zM282.57092,184.43904c-0.76955,0 -1.44469,-0.18311 -2.02543,-0.54933c-0.57716,-0.36622 -1.02834,-0.87857 -1.35387,-1.53701c-0.32195,-0.65848 -0.48276,-1.42789 -0.48276,-2.30828c0,-0.88781 0.16081,-1.6628 0.48276,-2.32495c0.32553,-0.66216 0.77671,-1.17633 1.35387,-1.54255c0.58074,-0.36622 1.25589,-0.54933 2.02543,-0.54933c0.76922,0 1.44274,0.18311 2.01957,0.54933c0.58074,0.36622 1.03225,0.88039 1.35387,1.54255c0.32553,0.66216 0.48829,1.43714 0.48829,2.32495c0,0.88039 -0.16276,1.64981 -0.48829,2.30828c-0.32162,0.65844 -0.77313,1.17079 -1.35387,1.53701c-0.57684,0.36622 -1.25035,0.54933 -2.01957,0.54933zM282.57092,183.26268c0.58432,0 1.06545,-0.14981 1.44274,-0.44946c0.37729,-0.29962 0.65659,-0.69357 0.83758,-1.18186c0.18132,-0.48829 0.27214,-1.01727 0.27214,-1.58695c0,-0.56967 -0.09082,-1.10051 -0.27214,-1.59251c-0.18099,-0.492 -0.4603,-0.88963 -0.83758,-1.19299c-0.37729,-0.30333 -0.85842,-0.45499 -1.44274,-0.45499c-0.58465,0 -1.06545,0.15166 -1.44274,0.45499c-0.37729,0.30336 -0.65659,0.70099 -0.83791,1.19299c-0.18132,0.492 -0.27182,1.02284 -0.27182,1.59251c0,0.56967 0.0905,1.09866 0.27182,1.58695c0.18132,0.48829 0.46062,0.88225 0.83791,1.18186c0.37729,0.29965 0.85809,0.44946 1.44274,0.44946zM292.22705,175.73856v1.10976h-4.59417v-1.10976zM289.00888,184.26146v-9.69926c0,-0.48829 0.11459,-0.8952 0.34408,-1.22073c0.22917,-0.32553 0.52703,-0.56967 0.89325,-0.73244c0.36622,-0.16275 0.75262,-0.24413 1.15953,-0.24413c0.32195,0 0.58465,0.0259 0.7881,0.07768c0.20345,0.05179 0.35515,0.09988 0.45509,0.14428l-0.37729,1.13192c-0.06673,-0.02217 -0.15918,-0.04994 -0.27768,-0.0832c-0.11459,-0.0333 -0.26628,-0.04997 -0.45476,-0.04997c-0.43295,0 -0.74546,0.10915 -0.93785,0.32738c-0.18881,0.21827 -0.28288,0.53823 -0.28288,0.95995v9.38851zM299.58886,172.89758v3.90633h-1.22073v-3.90633zM302.42974,172.89758v3.90633h-1.22073v-3.90633zM304.93663,184.26146v-11.36388h1.30927v4.19488h0.111c0.09636,-0.14798 0.2295,-0.33663 0.39975,-0.56599c0.17383,-0.23305 0.42156,-0.44018 0.74351,-0.62146c0.32553,-0.18493 0.76564,-0.27741 1.32067,-0.27741c0.71746,0 1.34996,0.1794 1.8975,0.53823c0.54754,0.35883 0.97463,0.86747 1.28193,1.52591c0.30697,0.65844 0.4603,1.43528 0.4603,2.33049c0,0.90259 -0.15332,1.68496 -0.4603,2.34712c-0.3073,0.65844 -0.73244,1.16894 -1.27639,1.53144c-0.54363,0.35883 -1.1706,0.53826 -1.8809,0.53826c-0.54754,0 -0.98602,-0.09066 -1.31513,-0.27191c-0.32911,-0.18496 -0.58269,-0.39395 -0.76011,-0.627c-0.17774,-0.23676 -0.31446,-0.43282 -0.41082,-0.58816h-0.15528v1.3095zM306.22376,180.00001c0,0.64367 0.0944,1.21148 0.28321,1.70345c0.18848,0.48829 0.4642,0.87118 0.82651,1.14862c0.36264,0.27374 0.80666,0.41059 1.33173,0.41059c0.54754,0 1.00458,-0.14427 1.3708,-0.43279c0.3698,-0.29226 0.64715,-0.68436 0.83205,-1.17636c0.18881,-0.49568 0.28321,-1.04686 0.28321,-1.65352c0,-0.59926 -0.09245,-1.13935 -0.27768,-1.62025c-0.18099,-0.48458 -0.45672,-0.86747 -0.82651,-1.14859c-0.36622,-0.28484 -0.82684,-0.42726 -1.38186,-0.42726c-0.53256,0 -0.98016,0.13503 -1.3428,0.40505c-0.36231,0.26635 -0.63608,0.63995 -0.82098,1.12086c-0.18523,0.47719 -0.27768,1.03391 -0.27768,1.67018zM318.03716,184.43904c-0.82131,0 -1.52965,-0.18129 -2.12504,-0.54379c-0.59181,-0.36622 -1.04885,-0.87671 -1.3708,-1.53144c-0.31804,-0.65848 -0.4769,-1.42418 -0.4769,-2.29722c0,-0.873 0.15886,-1.64242 0.4769,-2.30828c0.32195,-0.66955 0.76955,-1.19114 1.3428,-1.56475c0.57716,-0.37732 1.25035,-0.56596 2.0199,-0.56596c0.44402,0 0.88218,0.07396 1.31513,0.22194c0.43263,0.14795 0.82684,0.38842 1.18167,0.72134c0.35515,0.32924 0.63836,0.76574 0.84898,1.3095c0.21094,0.54379 0.31641,1.21334 0.31641,2.00867v0.55486h-6.5698v-1.13192h5.23807c0,-0.4809 -0.09603,-0.91001 -0.28842,-1.28733c-0.18881,-0.37732 -0.45867,-0.67511 -0.81024,-0.89335c-0.34766,-0.21827 -0.75815,-0.32738 -1.2318,-0.32738c-0.5215,0 -0.973,0.12946 -1.35387,0.38842c-0.37729,0.25525 -0.66766,0.58816 -0.87111,0.99878c-0.20345,0.41059 -0.30534,0.8508 -0.30534,1.3206v0.75464c0,0.64363 0.111,1.18928 0.33301,1.63688c0.22559,0.44389 0.5381,0.78237 0.93785,1.01542c0.39942,0.22933 0.86362,0.34402 1.39261,0.34402c0.34408,0 0.65464,-0.04808 0.93231,-0.14427c0.28093,-0.09987 0.52345,-0.24782 0.7269,-0.44389c0.20345,-0.19974 0.36068,-0.4476 0.47169,-0.74354l1.265,0.35512c-0.13314,0.42911 -0.3571,0.80643 -0.67156,1.13196c-0.31413,0.32182 -0.70281,0.57338 -1.16506,0.75464c-0.46257,0.17754 -0.98212,0.26635 -1.55928,0.26635zM326.99829,187.6351c-0.6325,0 -1.17613,-0.08138 -1.63122,-0.24415c-0.45509,-0.15905 -0.834,-0.3699 -1.13739,-0.63253c-0.29981,-0.25896 -0.53842,-0.5364 -0.71584,-0.83234l1.04299,-0.73244c0.11849,0.15537 0.26823,0.33295 0.44955,0.53269c0.18132,0.20345 0.42905,0.37917 0.74351,0.52713c0.31837,0.15166 0.73439,0.22751 1.2484,0.22751c0.68817,0 1.25589,-0.16647 1.70349,-0.49939c0.4476,-0.33292 0.67156,-0.85451 0.67156,-1.56475v-1.73122h-0.111c-0.09603,0.15537 -0.23308,0.34773 -0.41049,0.57706c-0.17383,0.22566 -0.42546,0.42726 -0.75457,0.60483c-0.32553,0.17386 -0.76597,0.26078 -1.32067,0.26078c-0.68817,0 -1.30602,-0.16276 -1.85323,-0.48829c-0.54396,-0.32553 -0.97496,-0.79901 -1.293,-1.42047c-0.31446,-0.62146 -0.47169,-1.3761 -0.47169,-2.26391c0,-0.873 0.15365,-1.63317 0.46062,-2.28055c0.30697,-0.65106 0.73439,-1.15413 1.2816,-1.50924c0.54754,-0.35883 1.18004,-0.53823 1.89783,-0.53823c0.5547,0 0.99514,0.09248 1.32067,0.27741c0.32911,0.18129 0.58074,0.38842 0.75457,0.62146c0.17741,0.22937 0.31446,0.41801 0.41049,0.56599h0.13314v-1.3539h1.26533v8.76705c0,0.73244 -0.16667,1.32799 -0.49936,1.78669c-0.32943,0.46241 -0.77313,0.8009 -1.33173,1.01545c-0.55502,0.21823 -1.17288,0.32735 -1.85355,0.32735zM326.95401,182.95196c0.5254,0 0.9691,-0.12022 1.33173,-0.36068c0.36264,-0.24043 0.63803,-0.58631 0.82684,-1.03762c0.18848,-0.45128 0.28288,-0.99136 0.28288,-1.62025c0,-0.61404 -0.09245,-1.15598 -0.27735,-1.62578c-0.1849,-0.4698 -0.45867,-0.83784 -0.82131,-1.10419c-0.36231,-0.26635 -0.80991,-0.39952 -1.3428,-0.39952c-0.5547,0 -1.01727,0.14056 -1.38707,0.42172c-0.36622,0.28113 -0.64194,0.65844 -0.82684,1.13192c-0.18132,0.47351 -0.27182,0.99878 -0.27182,1.57585c0,0.59187 0.09245,1.11532 0.27735,1.57031c0.18881,0.45131 0.46616,0.80643 0.83237,1.06535c0.3698,0.25525 0.82847,0.38289 1.37601,0.38289zM333.07979,184.26146v-8.5229h1.3096v8.5229zM333.74582,174.31805c-0.25521,0 -0.47527,-0.08692 -0.6605,-0.26078c-0.18099,-0.17386 -0.27182,-0.38285 -0.27182,-0.627c0,-0.24415 0.09082,-0.45317 0.27182,-0.62703c0.18523,-0.17386 0.40528,-0.26078 0.6605,-0.26078c0.25521,0 0.47332,0.08692 0.65464,0.26078c0.1849,0.17386 0.27735,0.38289 0.27735,0.62703c0,0.24415 -0.09245,0.45313 -0.27735,0.627c-0.18132,0.17386 -0.39942,0.26078 -0.65464,0.26078zM338.09748,179.1344v5.12706h-1.3096v-8.5229h1.265v1.3317h0.111c0.19987,-0.43282 0.50327,-0.78052 0.91018,-1.04319c0.40691,-0.26631 0.93199,-0.39949 1.57588,-0.39949c0.57684,0 1.08173,0.11836 1.51468,0.35512c0.43295,0.23305 0.76955,0.58816 1.00979,1.06535c0.24056,0.47351 0.36068,1.07278 0.36068,1.79779v5.41561h-1.3096v-5.3268c0,-0.66958 -0.17383,-1.19114 -0.5215,-1.56478c-0.34766,-0.37729 -0.82489,-0.56596 -1.43167,-0.56596c-0.41798,0 -0.79136,0.09063 -1.12079,0.27188c-0.32553,0.18129 -0.58237,0.44578 -0.77118,0.79347c-0.18881,0.34773 -0.28288,0.76945 -0.28288,1.26513zM347.0599,172.89758v3.90633h-1.22073v-3.90633zM349.90111,172.89758v3.90633h-1.22073v-3.90633zM353.93895,181.06536v-0.06657c0.00749,-0.70656 0.08138,-1.26884 0.22201,-1.68682c0.14063,-0.41801 0.3405,-0.75649 0.5993,-1.01545c0.25912,-0.25892 0.56967,-0.49754 0.93231,-0.71577c0.2181,-0.13317 0.4144,-0.2904 0.58823,-0.47166c0.17383,-0.18496 0.31055,-0.39766 0.41049,-0.6381c0.10352,-0.24047 0.15528,-0.50678 0.15528,-0.79904c0,-0.36251 -0.08496,-0.67693 -0.25521,-0.94328c-0.17025,-0.26635 -0.39747,-0.47166 -0.68231,-0.6159c-0.28484,-0.14427 -0.60125,-0.21641 -0.94891,-0.21641c-0.30339,0 -0.59572,0.06289 -0.87665,0.18864c-0.28126,0.12578 -0.51629,0.3237 -0.70477,0.59373c-0.18881,0.27003 -0.29786,0.62332 -0.32748,1.05982h-1.39814c0.02962,-0.62885 0.19239,-1.16708 0.48829,-1.61468c0.29949,-0.4476 0.69337,-0.7898 1.18167,-1.02655c0.4922,-0.23672 1.03778,-0.35512 1.63708,-0.35512c0.65106,0 1.21682,0.12949 1.69795,0.38842c0.48439,0.25896 0.85809,0.61408 1.12079,1.06535c0.26628,0.45131 0.39942,0.96552 0.39942,1.54258c0,0.40691 -0.06283,0.77498 -0.18848,1.10419c-0.12207,0.32924 -0.29981,0.62332 -0.53289,0.88228c-0.22917,0.25892 -0.50685,0.48829 -0.83237,0.68804c-0.32553,0.20345 -0.58628,0.41801 -0.78224,0.64367c-0.19597,0.22194 -0.33855,0.48644 -0.42709,0.79347c-0.08887,0.30701 -0.13705,0.68989 -0.14453,1.14859v0.06657zM354.64926,184.35023c-0.27377,0 -0.50847,-0.09802 -0.70477,-0.29408c-0.19597,-0.19607 -0.29395,-0.43093 -0.29395,-0.7047c0,-0.27374 0.09798,-0.50864 0.29395,-0.70467c0.19629,-0.19607 0.431,-0.29408 0.70477,-0.29408c0.27377,0 0.5088,0.09802 0.70477,0.29408c0.19597,0.19603 0.29395,0.43093 0.29395,0.70467c0,0.18129 -0.04622,0.34773 -0.13867,0.49939c-0.08854,0.15166 -0.20899,0.27374 -0.36068,0.36622c-0.14779,0.0888 -0.31446,0.13317 -0.49936,0.13317z"/></g></g></svg>