<svg xmlns="http://www.w3.org/2000/svg" fill="none" viewBox="0 0 139 164" height="164" width="139">
<path fill="#43D059" d="M0 20C0 8.95431 8.95431 0 20 0H119C130.046 0 139 8.95431 139 20V144C139 155.046 130.046 164 119 164H20C8.95431 164 0 155.046 0 144V20Z"></path>
<path fill="black" d="M36.2102 135.455V150H34.5341V135.455H36.2102ZM43.854 150.227C42.8029 150.227 41.8962 149.995 41.1339 149.531C40.3763 149.062 39.7915 148.409 39.3796 147.571C38.9724 146.728 38.7688 145.748 38.7688 144.631C38.7688 143.513 38.9724 142.528 39.3796 141.676C39.7915 140.819 40.3645 140.152 41.0984 139.673C41.837 139.19 42.6987 138.949 43.6836 138.949C44.2518 138.949 44.8129 139.044 45.3668 139.233C45.9208 139.422 46.4251 139.73 46.8796 140.156C47.3342 140.578 47.6964 141.136 47.9663 141.832C48.2362 142.528 48.3711 143.385 48.3711 144.403V145.114H39.962V143.665H46.6665C46.6665 143.049 46.5434 142.5 46.2972 142.017C46.0558 141.534 45.7101 141.153 45.2603 140.874C44.8152 140.594 44.2897 140.455 43.6836 140.455C43.016 140.455 42.4383 140.62 41.9506 140.952C41.4677 141.278 41.096 141.705 40.8356 142.23C40.5752 142.756 40.445 143.319 40.445 143.92V144.886C40.445 145.71 40.587 146.409 40.8711 146.982C41.1599 147.55 41.56 147.983 42.0714 148.281C42.5827 148.575 43.177 148.722 43.854 148.722C44.2944 148.722 44.6921 148.66 45.0472 148.537C45.4071 148.409 45.7172 148.22 45.9776 147.969C46.238 147.713 46.4393 147.396 46.5813 147.017L48.2006 147.472C48.0302 148.021 47.7437 148.504 47.3413 148.92C46.9388 149.332 46.4416 149.654 45.8498 149.886C45.2579 150.114 44.5927 150.227 43.854 150.227ZM55.6651 139.091V140.511H50.0117V139.091H55.6651ZM51.6594 136.477H53.3356V146.875C53.3356 147.348 53.4042 147.704 53.5415 147.94C53.6836 148.172 53.8635 148.329 54.0813 148.409C54.3039 148.485 54.5382 148.523 54.7844 148.523C54.9691 148.523 55.1206 148.513 55.239 148.494C55.3574 148.471 55.4521 148.452 55.5231 148.438L55.864 149.943C55.7504 149.986 55.5917 150.028 55.3881 150.071C55.1845 150.118 54.9265 150.142 54.614 150.142C54.1405 150.142 53.6765 150.04 53.2219 149.837C52.7721 149.633 52.3981 149.323 52.0998 148.906C51.8062 148.49 51.6594 147.964 51.6594 147.33V136.477ZM62.9308 139.091V140.511H57.2773V139.091H62.9308ZM58.9251 136.477H60.6012V146.875C60.6012 147.348 60.6699 147.704 60.8072 147.94C60.9492 148.172 61.1291 148.329 61.3469 148.409C61.5695 148.485 61.8039 148.523 62.0501 148.523C62.2347 148.523 62.3862 148.513 62.5046 148.494C62.623 148.471 62.7177 148.452 62.7887 148.438L63.1296 149.943C63.016 149.986 62.8574 150.028 62.6538 150.071C62.4502 150.118 62.1921 150.142 61.8796 150.142C61.4061 150.142 60.9421 150.04 60.4876 149.837C60.0378 149.633 59.6637 149.323 59.3654 148.906C59.0719 148.49 58.9251 147.964 58.9251 147.33V136.477ZM69.9087 150.227C68.8576 150.227 67.9509 149.995 67.1886 149.531C66.431 149.062 65.8462 148.409 65.4343 147.571C65.0271 146.728 64.8235 145.748 64.8235 144.631C64.8235 143.513 65.0271 142.528 65.4343 141.676C65.8462 140.819 66.4192 140.152 67.1531 139.673C67.8917 139.19 68.7534 138.949 69.7383 138.949C70.3065 138.949 70.8675 139.044 71.4215 139.233C71.9755 139.422 72.4798 139.73 72.9343 140.156C73.3888 140.578 73.7511 141.136 74.021 141.832C74.2908 142.528 74.4258 143.385 74.4258 144.403V145.114H66.0167V143.665H72.7212C72.7212 143.049 72.5981 142.5 72.3519 142.017C72.1104 141.534 71.7648 141.153 71.315 140.874C70.8699 140.594 70.3443 140.455 69.7383 140.455C69.0707 140.455 68.493 140.62 68.0053 140.952C67.5224 141.278 67.1507 141.705 66.8903 142.23C66.6299 142.756 66.4996 143.319 66.4996 143.92V144.886C66.4996 145.71 66.6417 146.409 66.9258 146.982C67.2146 147.55 67.6147 147.983 68.1261 148.281C68.6374 148.575 69.2317 148.722 69.9087 148.722C70.3491 148.722 70.7468 148.66 71.1019 148.537C71.4618 148.409 71.7719 148.22 72.0323 147.969C72.2927 147.713 72.494 147.396 72.636 147.017L74.2553 147.472C74.0849 148.021 73.7984 148.504 73.396 148.92C72.9935 149.332 72.4963 149.654 71.9045 149.886C71.3126 150.114 70.6474 150.227 69.9087 150.227ZM76.9755 150V139.091H78.5948V140.739H78.7085C78.9073 140.199 79.2672 139.761 79.788 139.425C80.3088 139.089 80.896 138.92 81.5494 138.92C81.6725 138.92 81.8263 138.923 82.011 138.928C82.1957 138.932 82.3353 138.939 82.43 138.949V140.653C82.3732 140.639 82.243 140.618 82.0394 140.589C81.8406 140.556 81.6299 140.54 81.4073 140.54C80.877 140.54 80.4035 140.651 79.9869 140.874C79.5749 141.091 79.2482 141.394 79.0067 141.783C78.77 142.166 78.6516 142.604 78.6516 143.097V150H76.9755ZM94.7578 150H90.2692V135.455H94.9567C96.3677 135.455 97.575 135.746 98.5788 136.328C99.5826 136.906 100.352 137.737 100.887 138.821C101.422 139.901 101.69 141.193 101.69 142.699C101.69 144.214 101.42 145.518 100.88 146.612C100.34 147.701 99.5542 148.539 98.522 149.126C97.4898 149.709 96.2351 150 94.7578 150ZM92.0305 148.438H94.6442C95.8468 148.438 96.8435 148.205 97.6342 147.741C98.425 147.277 99.0144 146.617 99.4027 145.76C99.791 144.903 99.9851 143.883 99.9851 142.699C99.9851 141.525 99.7933 140.514 99.4098 139.666C99.0263 138.814 98.4534 138.161 97.6911 137.706C96.9287 137.247 95.9794 137.017 94.843 137.017H92.0305V148.438Z"></path>
<path fill="black" d="M30.8794 82V60.1818H38.5072C40.0271 60.1818 41.2806 60.4446 42.2678 60.9702C43.2551 61.4886 43.9901 62.1882 44.4731 63.0689C44.9561 63.9425 45.1975 64.9119 45.1975 65.9773C45.1975 66.9148 45.0306 67.6889 44.6968 68.2997C44.3701 68.9105 43.9369 69.3935 43.3971 69.7486C42.8644 70.1037 42.2856 70.3665 41.6606 70.5369V70.75C42.3282 70.7926 42.9994 71.027 43.6741 71.4531C44.3488 71.8793 44.9134 72.4901 45.368 73.2855C45.8225 74.081 46.0498 75.054 46.0498 76.2045C46.0498 77.2983 45.8012 78.282 45.3041 79.1555C44.8069 80.0291 44.0221 80.7216 42.9497 81.233C41.8772 81.7443 40.4816 82 38.7629 82H30.8794ZM33.5214 79.6562H38.7629C40.4887 79.6562 41.7139 79.3224 42.4383 78.6548C43.1698 77.9801 43.5356 77.1634 43.5356 76.2045C43.5356 75.4659 43.3474 74.7841 42.971 74.1591C42.5945 73.527 42.0583 73.0227 41.3623 72.6463C40.6663 72.2628 39.8424 72.071 38.8907 72.071H33.5214V79.6562ZM33.5214 69.7699H38.422C39.2174 69.7699 39.9347 69.6136 40.574 69.3011C41.2203 68.9886 41.7316 68.5483 42.108 67.9801C42.4916 67.4119 42.6833 66.7443 42.6833 65.9773C42.6833 65.0185 42.3495 64.2053 41.6819 63.5376C41.0143 62.8629 39.9561 62.5256 38.5072 62.5256H33.5214V69.7699ZM56.6979 82.3409C55.2206 82.3409 53.9244 81.9893 52.8094 81.2862C51.7014 80.5831 50.835 79.5994 50.21 78.3352C49.5921 77.071 49.2831 75.5937 49.2831 73.9034C49.2831 72.1989 49.5921 70.7109 50.21 69.4396C50.835 68.1683 51.7014 67.1811 52.8094 66.478C53.9244 65.7749 55.2206 65.4233 56.6979 65.4233C58.1752 65.4233 59.4678 65.7749 60.5757 66.478C61.6908 67.1811 62.5573 68.1683 63.1752 69.4396C63.8002 70.7109 64.1127 72.1989 64.1127 73.9034C64.1127 75.5937 63.8002 77.071 63.1752 78.3352C62.5573 79.5994 61.6908 80.5831 60.5757 81.2862C59.4678 81.9893 58.1752 82.3409 56.6979 82.3409ZM56.6979 80.0824C57.82 80.0824 58.7433 79.7947 59.4678 79.2195C60.1922 78.6442 60.7284 77.8878 61.0764 76.9503C61.4245 76.0128 61.5985 74.9972 61.5985 73.9034C61.5985 72.8097 61.4245 71.7905 61.0764 70.8459C60.7284 69.9013 60.1922 69.1378 59.4678 68.5554C58.7433 67.973 57.82 67.6818 56.6979 67.6818C55.5757 67.6818 54.6524 67.973 53.928 68.5554C53.2036 69.1378 52.6673 69.9013 52.3193 70.8459C51.9713 71.7905 51.7973 72.8097 51.7973 73.9034C51.7973 74.9972 51.9713 76.0128 52.3193 76.9503C52.6673 77.8878 53.2036 78.6442 53.928 79.2195C54.6524 79.7947 55.5757 80.0824 56.6979 80.0824ZM67.9506 82V65.6364H70.3795V68.108H70.55C70.8483 67.2983 71.3881 66.6413 72.1693 66.1371C72.9506 65.6328 73.8312 65.3807 74.8113 65.3807C74.996 65.3807 75.2268 65.3842 75.5038 65.3913C75.7808 65.3984 75.9903 65.4091 76.1324 65.4233V67.9801C76.0471 67.9588 75.8518 67.9268 75.5464 67.8842C75.2481 67.8345 74.9321 67.8097 74.5983 67.8097C73.8028 67.8097 73.0926 67.9766 72.4676 68.3104C71.8497 68.6371 71.3596 69.0916 70.9974 69.674C70.6423 70.2493 70.4648 70.9062 70.4648 71.6449V82H67.9506ZM85.2623 82.3409C83.7851 82.3409 82.4889 81.9893 81.3738 81.2862C80.2659 80.5831 79.3994 79.5994 78.7744 78.3352C78.1565 77.071 77.8476 75.5937 77.8476 73.9034C77.8476 72.1989 78.1565 70.7109 78.7744 69.4396C79.3994 68.1683 80.2659 67.1811 81.3738 66.478C82.4889 65.7749 83.7851 65.4233 85.2623 65.4233C86.7396 65.4233 88.0322 65.7749 89.1402 66.478C90.2552 67.1811 91.1217 68.1683 91.7396 69.4396C92.3646 70.7109 92.6771 72.1989 92.6771 73.9034C92.6771 75.5937 92.3646 77.071 91.7396 78.3352C91.1217 79.5994 90.2552 80.5831 89.1402 81.2862C88.0322 81.9893 86.7396 82.3409 85.2623 82.3409ZM85.2623 80.0824C86.3845 80.0824 87.3078 79.7947 88.0322 79.2195C88.7567 78.6442 89.2929 77.8878 89.6409 76.9503C89.9889 76.0128 90.1629 74.9972 90.1629 73.9034C90.1629 72.8097 89.9889 71.7905 89.6409 70.8459C89.2929 69.9013 88.7567 69.1378 88.0322 68.5554C87.3078 67.973 86.3845 67.6818 85.2623 67.6818C84.1402 67.6818 83.2169 67.973 82.4925 68.5554C81.768 69.1378 81.2318 69.9013 80.8838 70.8459C80.5358 71.7905 80.3618 72.8097 80.3618 73.9034C80.3618 74.9972 80.5358 76.0128 80.8838 76.9503C81.2318 77.8878 81.768 78.6442 82.4925 79.2195C83.2169 79.7947 84.1402 80.0824 85.2623 80.0824ZM99.0292 72.1562V82H96.515V65.6364H98.944V68.1932H99.157C99.5406 67.3622 100.123 66.6946 100.904 66.1903C101.685 65.679 102.694 65.4233 103.93 65.4233C105.038 65.4233 106.007 65.6506 106.838 66.1051C107.669 66.5526 108.315 67.2344 108.777 68.1506C109.239 69.0597 109.47 70.2102 109.47 71.6023V82H106.955V71.7727C106.955 70.4872 106.622 69.4858 105.954 68.7685C105.286 68.044 104.37 67.6818 103.205 67.6818C102.403 67.6818 101.685 67.8558 101.053 68.2038C100.428 68.5518 99.9347 69.0597 99.5725 69.7273C99.2103 70.3949 99.0292 71.2045 99.0292 72.1562Z"></path>
</svg>
