<svg xmlns="http://www.w3.org/2000/svg" fill="none" viewBox="0 0 139 164" height="164" width="139">
<path fill="#43D059" d="M0 20C0 8.95431 8.95431 0 20 0H119C130.046 0 139 8.95431 139 20V144C139 155.046 130.046 164 119 164H20C8.95431 164 0 155.046 0 144V20Z"></path>
<path fill="black" d="M36.2102 135.455V150H34.5341V135.455H36.2102ZM43.854 150.227C42.8029 150.227 41.8962 149.995 41.1339 149.531C40.3763 149.062 39.7915 148.409 39.3796 147.571C38.9724 146.728 38.7688 145.748 38.7688 144.631C38.7688 143.513 38.9724 142.528 39.3796 141.676C39.7915 140.819 40.3645 140.152 41.0984 139.673C41.837 139.19 42.6987 138.949 43.6836 138.949C44.2518 138.949 44.8129 139.044 45.3668 139.233C45.9208 139.422 46.4251 139.73 46.8796 140.156C47.3342 140.578 47.6964 141.136 47.9663 141.832C48.2362 142.528 48.3711 143.385 48.3711 144.403V145.114H39.962V143.665H46.6665C46.6665 143.049 46.5434 142.5 46.2972 142.017C46.0558 141.534 45.7101 141.153 45.2603 140.874C44.8152 140.594 44.2897 140.455 43.6836 140.455C43.016 140.455 42.4383 140.62 41.9506 140.952C41.4677 141.278 41.096 141.705 40.8356 142.23C40.5752 142.756 40.445 143.319 40.445 143.92V144.886C40.445 145.71 40.587 146.409 40.8711 146.982C41.1599 147.55 41.56 147.983 42.0714 148.281C42.5827 148.575 43.177 148.722 43.854 148.722C44.2944 148.722 44.6921 148.66 45.0472 148.537C45.4071 148.409 45.7172 148.22 45.9776 147.969C46.238 147.713 46.4393 147.396 46.5813 147.017L48.2006 147.472C48.0302 148.021 47.7437 148.504 47.3413 148.92C46.9388 149.332 46.4416 149.654 45.8498 149.886C45.2579 150.114 44.5927 150.227 43.854 150.227ZM55.6651 139.091V140.511H50.0117V139.091H55.6651ZM51.6594 136.477H53.3356V146.875C53.3356 147.348 53.4042 147.704 53.5415 147.94C53.6836 148.172 53.8635 148.329 54.0813 148.409C54.3039 148.485 54.5382 148.523 54.7844 148.523C54.9691 148.523 55.1206 148.513 55.239 148.494C55.3574 148.471 55.4521 148.452 55.5231 148.438L55.864 149.943C55.7504 149.986 55.5917 150.028 55.3881 150.071C55.1845 150.118 54.9265 150.142 54.614 150.142C54.1405 150.142 53.6765 150.04 53.2219 149.837C52.7721 149.633 52.3981 149.323 52.0998 148.906C51.8062 148.49 51.6594 147.964 51.6594 147.33V136.477ZM62.9308 139.091V140.511H57.2773V139.091H62.9308ZM58.9251 136.477H60.6012V146.875C60.6012 147.348 60.6699 147.704 60.8072 147.94C60.9492 148.172 61.1291 148.329 61.3469 148.409C61.5695 148.485 61.8039 148.523 62.0501 148.523C62.2347 148.523 62.3862 148.513 62.5046 148.494C62.623 148.471 62.7177 148.452 62.7887 148.438L63.1296 149.943C63.016 149.986 62.8574 150.028 62.6538 150.071C62.4502 150.118 62.1921 150.142 61.8796 150.142C61.4061 150.142 60.9421 150.04 60.4876 149.837C60.0378 149.633 59.6637 149.323 59.3654 148.906C59.0719 148.49 58.9251 147.964 58.9251 147.33V136.477ZM69.9087 150.227C68.8576 150.227 67.9509 149.995 67.1886 149.531C66.431 149.062 65.8462 148.409 65.4343 147.571C65.0271 146.728 64.8235 145.748 64.8235 144.631C64.8235 143.513 65.0271 142.528 65.4343 141.676C65.8462 140.819 66.4192 140.152 67.1531 139.673C67.8917 139.19 68.7534 138.949 69.7383 138.949C70.3065 138.949 70.8675 139.044 71.4215 139.233C71.9755 139.422 72.4798 139.73 72.9343 140.156C73.3888 140.578 73.7511 141.136 74.021 141.832C74.2908 142.528 74.4258 143.385 74.4258 144.403V145.114H66.0167V143.665H72.7212C72.7212 143.049 72.5981 142.5 72.3519 142.017C72.1104 141.534 71.7648 141.153 71.315 140.874C70.8699 140.594 70.3443 140.455 69.7383 140.455C69.0707 140.455 68.493 140.62 68.0053 140.952C67.5224 141.278 67.1507 141.705 66.8903 142.23C66.6299 142.756 66.4996 143.319 66.4996 143.92V144.886C66.4996 145.71 66.6417 146.409 66.9258 146.982C67.2146 147.55 67.6147 147.983 68.1261 148.281C68.6374 148.575 69.2317 148.722 69.9087 148.722C70.3491 148.722 70.7468 148.66 71.1019 148.537C71.4618 148.409 71.7719 148.22 72.0323 147.969C72.2927 147.713 72.494 147.396 72.636 147.017L74.2553 147.472C74.0849 148.021 73.7984 148.504 73.396 148.92C72.9935 149.332 72.4963 149.654 71.9045 149.886C71.3126 150.114 70.6474 150.227 69.9087 150.227ZM76.9755 150V139.091H78.5948V140.739H78.7085C78.9073 140.199 79.2672 139.761 79.788 139.425C80.3088 139.089 80.896 138.92 81.5494 138.92C81.6725 138.92 81.8263 138.923 82.011 138.928C82.1957 138.932 82.3353 138.939 82.43 138.949V140.653C82.3732 140.639 82.243 140.618 82.0394 140.589C81.8406 140.556 81.6299 140.54 81.4073 140.54C80.877 140.54 80.4035 140.651 79.9869 140.874C79.5749 141.091 79.2482 141.394 79.0067 141.783C78.77 142.166 78.6516 142.604 78.6516 143.097V150H76.9755ZM90.8658 150H89.0192L94.3601 135.455H96.1783L101.519 150H99.6726L95.326 137.756H95.2124L90.8658 150ZM91.5476 144.318H98.9908V145.881H91.5476V144.318Z"></path>
<path fill="black" d="M72.3119 71.0909C72.3119 73.392 71.8964 75.3807 71.0654 77.0568C70.2345 78.733 69.0946 80.0256 67.6457 80.9347C66.1968 81.8438 64.542 82.2983 62.6812 82.2983C60.8204 82.2983 59.1656 81.8438 57.7167 80.9347C56.2678 80.0256 55.1279 78.733 54.297 77.0568C53.466 75.3807 53.0505 73.392 53.0505 71.0909C53.0505 68.7898 53.466 66.8011 54.297 65.125C55.1279 63.4489 56.2678 62.1562 57.7167 61.2472C59.1656 60.3381 60.8204 59.8835 62.6812 59.8835C64.542 59.8835 66.1968 60.3381 67.6457 61.2472C69.0946 62.1562 70.2345 63.4489 71.0654 65.125C71.8964 66.8011 72.3119 68.7898 72.3119 71.0909ZM69.7551 71.0909C69.7551 69.2017 69.439 67.6072 68.8069 66.3075C68.1819 65.0078 67.3332 64.0241 66.2607 63.3565C65.1954 62.6889 64.0022 62.3551 62.6812 62.3551C61.3602 62.3551 60.1634 62.6889 59.091 63.3565C58.0257 64.0241 57.1769 65.0078 56.5448 66.3075C55.9198 67.6072 55.6073 69.2017 55.6073 71.0909C55.6073 72.9801 55.9198 74.5746 56.5448 75.8743C57.1769 77.174 58.0257 78.1577 59.091 78.8253C60.1634 79.4929 61.3602 79.8267 62.6812 79.8267C64.0022 79.8267 65.1954 79.4929 66.2607 78.8253C67.3332 78.1577 68.1819 77.174 68.8069 75.8743C69.439 74.5746 69.7551 72.9801 69.7551 71.0909ZM75.6038 85.75V84.0881L80.5896 79.6562C81.0867 79.2159 81.5022 78.8217 81.836 78.4737C82.1698 78.1257 82.422 77.7884 82.5924 77.4616C82.7629 77.1349 82.8481 76.7869 82.8481 76.4176C82.8481 75.7784 82.6031 75.2706 82.113 74.8942C81.623 74.5178 81.0157 74.3295 80.2913 74.3295C79.5242 74.3295 78.9063 74.5355 78.4376 74.9474C77.9688 75.3523 77.7345 75.8849 77.7345 76.5455H75.5186C75.5186 75.331 75.9695 74.3544 76.8715 73.6158C77.7735 72.87 78.9276 72.4972 80.3339 72.4972C81.2714 72.4972 82.0953 72.6676 82.8055 73.0085C83.5157 73.3423 84.0697 73.804 84.4674 74.3935C84.8651 74.9759 85.064 75.6364 85.064 76.375C85.064 76.9574 84.9468 77.4972 84.7124 77.9943C84.4781 78.4915 84.1123 79.0064 83.6151 79.5391C83.118 80.0717 82.4788 80.679 81.6975 81.3608L78.9276 83.7898V83.875H85.4475V85.75H75.6038Z"></path>
</svg>
