<svg xmlns="http://www.w3.org/2000/svg" fill="none" viewBox="0 0 139 164" height="164" width="139">
<path fill="#43D059" d="M0 20C0 8.95431 8.95431 0 20 0H119C130.046 0 139 8.95431 139 20V144C139 155.046 130.046 164 119 164H20C8.95431 164 0 155.046 0 144V20Z"></path>
<path fill="black" d="M36.2102 135.455V150H34.5341V135.455H36.2102ZM43.854 150.227C42.8029 150.227 41.8962 149.995 41.1339 149.531C40.3763 149.062 39.7915 148.409 39.3796 147.571C38.9724 146.728 38.7688 145.748 38.7688 144.631C38.7688 143.513 38.9724 142.528 39.3796 141.676C39.7915 140.819 40.3645 140.152 41.0984 139.673C41.837 139.19 42.6987 138.949 43.6836 138.949C44.2518 138.949 44.8129 139.044 45.3668 139.233C45.9208 139.422 46.4251 139.73 46.8796 140.156C47.3342 140.578 47.6964 141.136 47.9663 141.832C48.2362 142.528 48.3711 143.385 48.3711 144.403V145.114H39.962V143.665H46.6665C46.6665 143.049 46.5434 142.5 46.2972 142.017C46.0558 141.534 45.7101 141.153 45.2603 140.874C44.8152 140.594 44.2897 140.455 43.6836 140.455C43.016 140.455 42.4383 140.62 41.9506 140.952C41.4677 141.278 41.096 141.705 40.8356 142.23C40.5752 142.756 40.445 143.319 40.445 143.92V144.886C40.445 145.71 40.587 146.409 40.8711 146.982C41.1599 147.55 41.56 147.983 42.0714 148.281C42.5827 148.575 43.177 148.722 43.854 148.722C44.2944 148.722 44.6921 148.66 45.0472 148.537C45.4071 148.409 45.7172 148.22 45.9776 147.969C46.238 147.713 46.4393 147.396 46.5813 147.017L48.2006 147.472C48.0302 148.021 47.7437 148.504 47.3413 148.92C46.9388 149.332 46.4416 149.654 45.8498 149.886C45.2579 150.114 44.5927 150.227 43.854 150.227ZM55.6651 139.091V140.511H50.0117V139.091H55.6651ZM51.6594 136.477H53.3356V146.875C53.3356 147.348 53.4042 147.704 53.5415 147.94C53.6836 148.172 53.8635 148.329 54.0813 148.409C54.3039 148.485 54.5382 148.523 54.7844 148.523C54.9691 148.523 55.1206 148.513 55.239 148.494C55.3574 148.471 55.4521 148.452 55.5231 148.438L55.864 149.943C55.7504 149.986 55.5917 150.028 55.3881 150.071C55.1845 150.118 54.9265 150.142 54.614 150.142C54.1405 150.142 53.6765 150.04 53.2219 149.837C52.7721 149.633 52.3981 149.323 52.0998 148.906C51.8062 148.49 51.6594 147.964 51.6594 147.33V136.477ZM62.9308 139.091V140.511H57.2773V139.091H62.9308ZM58.9251 136.477H60.6012V146.875C60.6012 147.348 60.6699 147.704 60.8072 147.94C60.9492 148.172 61.1291 148.329 61.3469 148.409C61.5695 148.485 61.8039 148.523 62.0501 148.523C62.2347 148.523 62.3862 148.513 62.5046 148.494C62.623 148.471 62.7177 148.452 62.7887 148.438L63.1296 149.943C63.016 149.986 62.8574 150.028 62.6538 150.071C62.4502 150.118 62.1921 150.142 61.8796 150.142C61.4061 150.142 60.9421 150.04 60.4876 149.837C60.0378 149.633 59.6637 149.323 59.3654 148.906C59.0719 148.49 58.9251 147.964 58.9251 147.33V136.477ZM69.9087 150.227C68.8576 150.227 67.9509 149.995 67.1886 149.531C66.431 149.062 65.8462 148.409 65.4343 147.571C65.0271 146.728 64.8235 145.748 64.8235 144.631C64.8235 143.513 65.0271 142.528 65.4343 141.676C65.8462 140.819 66.4192 140.152 67.1531 139.673C67.8917 139.19 68.7534 138.949 69.7383 138.949C70.3065 138.949 70.8675 139.044 71.4215 139.233C71.9755 139.422 72.4798 139.73 72.9343 140.156C73.3888 140.578 73.7511 141.136 74.021 141.832C74.2908 142.528 74.4258 143.385 74.4258 144.403V145.114H66.0167V143.665H72.7212C72.7212 143.049 72.5981 142.5 72.3519 142.017C72.1104 141.534 71.7648 141.153 71.315 140.874C70.8699 140.594 70.3443 140.455 69.7383 140.455C69.0707 140.455 68.493 140.62 68.0053 140.952C67.5224 141.278 67.1507 141.705 66.8903 142.23C66.6299 142.756 66.4996 143.319 66.4996 143.92V144.886C66.4996 145.71 66.6417 146.409 66.9258 146.982C67.2146 147.55 67.6147 147.983 68.1261 148.281C68.6374 148.575 69.2317 148.722 69.9087 148.722C70.3491 148.722 70.7468 148.66 71.1019 148.537C71.4618 148.409 71.7719 148.22 72.0323 147.969C72.2927 147.713 72.494 147.396 72.636 147.017L74.2553 147.472C74.0849 148.021 73.7984 148.504 73.396 148.92C72.9935 149.332 72.4963 149.654 71.9045 149.886C71.3126 150.114 70.6474 150.227 69.9087 150.227ZM76.9755 150V139.091H78.5948V140.739H78.7085C78.9073 140.199 79.2672 139.761 79.788 139.425C80.3088 139.089 80.896 138.92 81.5494 138.92C81.6725 138.92 81.8263 138.923 82.011 138.928C82.1957 138.932 82.3353 138.939 82.43 138.949V140.653C82.3732 140.639 82.243 140.618 82.0394 140.589C81.8406 140.556 81.6299 140.54 81.4073 140.54C80.877 140.54 80.4035 140.651 79.9869 140.874C79.5749 141.091 79.2482 141.394 79.0067 141.783C78.77 142.166 78.6516 142.604 78.6516 143.097V150H76.9755ZM101.974 140H100.212C100.108 139.493 99.9259 139.048 99.6655 138.665C99.4098 138.281 99.0973 137.959 98.728 137.699C98.3634 137.434 97.9586 137.235 97.5135 137.102C97.0684 136.97 96.6044 136.903 96.1214 136.903C95.2408 136.903 94.4429 137.126 93.728 137.571C93.0178 138.016 92.4519 138.672 92.0305 139.538C91.6139 140.405 91.4055 141.468 91.4055 142.727C91.4055 143.987 91.6139 145.05 92.0305 145.916C92.4519 146.783 93.0178 147.438 93.728 147.884C94.4429 148.329 95.2408 148.551 96.1214 148.551C96.6044 148.551 97.0684 148.485 97.5135 148.352C97.9586 148.22 98.3634 148.023 98.728 147.763C99.0973 147.498 99.4098 147.173 99.6655 146.79C99.9259 146.402 100.108 145.956 100.212 145.455H101.974C101.841 146.198 101.6 146.863 101.249 147.45C100.899 148.037 100.463 148.537 99.9425 148.949C99.4216 149.356 98.8369 149.666 98.1882 149.879C97.5443 150.092 96.8554 150.199 96.1214 150.199C94.8809 150.199 93.7777 149.896 92.8118 149.29C91.8459 148.684 91.0859 147.822 90.532 146.705C89.978 145.587 89.701 144.261 89.701 142.727C89.701 141.193 89.978 139.867 90.532 138.75C91.0859 137.633 91.8459 136.771 92.8118 136.165C93.7777 135.559 94.8809 135.256 96.1214 135.256C96.8554 135.256 97.5443 135.362 98.1882 135.575C98.8369 135.788 99.4216 136.101 99.9425 136.513C100.463 136.92 100.899 137.417 101.249 138.004C101.6 138.587 101.841 139.252 101.974 140Z"></path>
<path fill="black" d="M61.5465 67H58.9045C58.7482 66.2401 58.4748 65.5724 58.0842 64.9972C57.7006 64.4219 57.2319 63.9389 56.6779 63.5483C56.131 63.1506 55.5238 62.8523 54.8562 62.6534C54.1886 62.4545 53.4925 62.3551 52.7681 62.3551C51.4471 62.3551 50.2504 62.6889 49.1779 63.3565C48.1126 64.0241 47.2638 65.0078 46.6317 66.3075C46.0067 67.6072 45.6942 69.2017 45.6942 71.0909C45.6942 72.9801 46.0067 74.5746 46.6317 75.8743C47.2638 77.174 48.1126 78.1577 49.1779 78.8253C50.2504 79.4929 51.4471 79.8267 52.7681 79.8267C53.4925 79.8267 54.1886 79.7273 54.8562 79.5284C55.5238 79.3295 56.131 79.0348 56.6779 78.6442C57.2319 78.2464 57.7006 77.7599 58.0842 77.1847C58.4748 76.6023 58.7482 75.9347 58.9045 75.1818H61.5465C61.3477 76.2969 60.9854 77.2947 60.4599 78.1754C59.9343 79.0561 59.2809 79.8054 58.4996 80.4233C57.7184 81.0341 56.8413 81.4993 55.8683 81.8189C54.9023 82.1385 53.869 82.2983 52.7681 82.2983C50.9073 82.2983 49.2525 81.8438 47.8036 80.9347C46.3548 80.0256 45.2148 78.733 44.3839 77.0568C43.5529 75.3807 43.1374 73.392 43.1374 71.0909C43.1374 68.7898 43.5529 66.8011 44.3839 65.125C45.2148 63.4489 46.3548 62.1562 47.8036 61.2472C49.2525 60.3381 50.9073 59.8835 52.7681 59.8835C53.869 59.8835 54.9023 60.0433 55.8683 60.3629C56.8413 60.6825 57.7184 61.1513 58.4996 61.7692C59.2809 62.38 59.9343 63.1257 60.4599 64.0064C60.9854 64.88 61.3477 65.8778 61.5465 67ZM84.225 71.0909C84.225 73.392 83.8095 75.3807 82.9785 77.0568C82.1476 78.733 81.0076 80.0256 79.5588 80.9347C78.1099 81.8438 76.4551 82.2983 74.5943 82.2983C72.7335 82.2983 71.0787 81.8438 69.6298 80.9347C68.1809 80.0256 67.041 78.733 66.21 77.0568C65.3791 75.3807 64.9636 73.392 64.9636 71.0909C64.9636 68.7898 65.3791 66.8011 66.21 65.125C67.041 63.4489 68.1809 62.1562 69.6298 61.2472C71.0787 60.3381 72.7335 59.8835 74.5943 59.8835C76.4551 59.8835 78.1099 60.3381 79.5588 61.2472C81.0076 62.1562 82.1476 63.4489 82.9785 65.125C83.8095 66.8011 84.225 68.7898 84.225 71.0909ZM81.6681 71.0909C81.6681 69.2017 81.3521 67.6072 80.72 66.3075C80.095 65.0078 79.2463 64.0241 78.1738 63.3565C77.1085 62.6889 75.9153 62.3551 74.5943 62.3551C73.2733 62.3551 72.0765 62.6889 71.0041 63.3565C69.9387 64.0241 69.09 65.0078 68.4579 66.3075C67.8329 67.6072 67.5204 69.2017 67.5204 71.0909C67.5204 72.9801 67.8329 74.5746 68.4579 75.8743C69.09 77.174 69.9387 78.1577 71.0041 78.8253C72.0765 79.4929 73.2733 79.8267 74.5943 79.8267C75.9153 79.8267 77.1085 79.4929 78.1738 78.8253C79.2463 78.1577 80.095 77.174 80.72 75.8743C81.3521 74.5746 81.6681 72.9801 81.6681 71.0909ZM87.5169 85.75V84.0881L92.5027 79.6562C92.9998 79.2159 93.4153 78.8217 93.7491 78.4737C94.0829 78.1257 94.3351 77.7884 94.5055 77.4616C94.676 77.1349 94.7612 76.7869 94.7612 76.4176C94.7612 75.7784 94.5162 75.2706 94.0261 74.8942C93.536 74.5178 92.9288 74.3295 92.2044 74.3295C91.4373 74.3295 90.8194 74.5355 90.3507 74.9474C89.8819 75.3523 89.6475 75.8849 89.6475 76.5455H87.4316C87.4316 75.331 87.8826 74.3544 88.7846 73.6158C89.6866 72.87 90.8407 72.4972 92.247 72.4972C93.1845 72.4972 94.0083 72.6676 94.7186 73.0085C95.4288 73.3423 95.9828 73.804 96.3805 74.3935C96.7782 74.9759 96.9771 75.6364 96.9771 76.375C96.9771 76.9574 96.8599 77.4972 96.6255 77.9943C96.3912 78.4915 96.0254 79.0064 95.5282 79.5391C95.0311 80.0717 94.3919 80.679 93.6106 81.3608L90.8407 83.7898V83.875H97.3606V85.75H87.5169Z"></path>
</svg>
