<svg xmlns="http://www.w3.org/2000/svg" fill="none" viewBox="0 0 139 164" height="164" width="139">
<path fill="#EEC638" d="M0 20C0 8.95431 8.95431 0 20 0H119C130.046 0 139 8.95431 139 20V144C139 155.046 130.046 164 119 164H20C8.95431 164 0 155.046 0 144V20Z"></path>
<path fill="black" d="M36.2102 135.455V150H34.5341V135.455H36.2102ZM43.854 150.227C42.8029 150.227 41.8962 149.995 41.1339 149.531C40.3763 149.062 39.7915 148.409 39.3796 147.571C38.9724 146.728 38.7688 145.748 38.7688 144.631C38.7688 143.513 38.9724 142.528 39.3796 141.676C39.7915 140.819 40.3645 140.152 41.0984 139.673C41.837 139.19 42.6987 138.949 43.6836 138.949C44.2518 138.949 44.8129 139.044 45.3668 139.233C45.9208 139.422 46.4251 139.73 46.8796 140.156C47.3342 140.578 47.6964 141.136 47.9663 141.832C48.2362 142.528 48.3711 143.385 48.3711 144.403V145.114H39.962V143.665H46.6665C46.6665 143.049 46.5434 142.5 46.2972 142.017C46.0558 141.534 45.7101 141.153 45.2603 140.874C44.8152 140.594 44.2897 140.455 43.6836 140.455C43.016 140.455 42.4383 140.62 41.9506 140.952C41.4677 141.278 41.096 141.705 40.8356 142.23C40.5752 142.756 40.445 143.319 40.445 143.92V144.886C40.445 145.71 40.587 146.409 40.8711 146.982C41.1599 147.55 41.56 147.983 42.0714 148.281C42.5827 148.575 43.177 148.722 43.854 148.722C44.2944 148.722 44.6921 148.66 45.0472 148.537C45.4071 148.409 45.7172 148.22 45.9776 147.969C46.238 147.713 46.4393 147.396 46.5813 147.017L48.2006 147.472C48.0302 148.021 47.7437 148.504 47.3413 148.92C46.9388 149.332 46.4416 149.654 45.8498 149.886C45.2579 150.114 44.5927 150.227 43.854 150.227ZM55.6651 139.091V140.511H50.0117V139.091H55.6651ZM51.6594 136.477H53.3356V146.875C53.3356 147.348 53.4042 147.704 53.5415 147.94C53.6836 148.172 53.8635 148.329 54.0813 148.409C54.3039 148.485 54.5382 148.523 54.7844 148.523C54.9691 148.523 55.1206 148.513 55.239 148.494C55.3574 148.471 55.4521 148.452 55.5231 148.438L55.864 149.943C55.7504 149.986 55.5917 150.028 55.3881 150.071C55.1845 150.118 54.9265 150.142 54.614 150.142C54.1405 150.142 53.6765 150.04 53.2219 149.837C52.7721 149.633 52.3981 149.323 52.0998 148.906C51.8062 148.49 51.6594 147.964 51.6594 147.33V136.477ZM62.9308 139.091V140.511H57.2773V139.091H62.9308ZM58.9251 136.477H60.6012V146.875C60.6012 147.348 60.6699 147.704 60.8072 147.94C60.9492 148.172 61.1291 148.329 61.3469 148.409C61.5695 148.485 61.8039 148.523 62.0501 148.523C62.2347 148.523 62.3862 148.513 62.5046 148.494C62.623 148.471 62.7177 148.452 62.7887 148.438L63.1296 149.943C63.016 149.986 62.8574 150.028 62.6538 150.071C62.4502 150.118 62.1921 150.142 61.8796 150.142C61.4061 150.142 60.9421 150.04 60.4876 149.837C60.0378 149.633 59.6637 149.323 59.3654 148.906C59.0719 148.49 58.9251 147.964 58.9251 147.33V136.477ZM69.9087 150.227C68.8576 150.227 67.9509 149.995 67.1886 149.531C66.431 149.062 65.8462 148.409 65.4343 147.571C65.0271 146.728 64.8235 145.748 64.8235 144.631C64.8235 143.513 65.0271 142.528 65.4343 141.676C65.8462 140.819 66.4192 140.152 67.1531 139.673C67.8917 139.19 68.7534 138.949 69.7383 138.949C70.3065 138.949 70.8675 139.044 71.4215 139.233C71.9755 139.422 72.4798 139.73 72.9343 140.156C73.3888 140.578 73.7511 141.136 74.021 141.832C74.2908 142.528 74.4258 143.385 74.4258 144.403V145.114H66.0167V143.665H72.7212C72.7212 143.049 72.5981 142.5 72.3519 142.017C72.1104 141.534 71.7648 141.153 71.315 140.874C70.8699 140.594 70.3443 140.455 69.7383 140.455C69.0707 140.455 68.493 140.62 68.0053 140.952C67.5224 141.278 67.1507 141.705 66.8903 142.23C66.6299 142.756 66.4996 143.319 66.4996 143.92V144.886C66.4996 145.71 66.6417 146.409 66.9258 146.982C67.2146 147.55 67.6147 147.983 68.1261 148.281C68.6374 148.575 69.2317 148.722 69.9087 148.722C70.3491 148.722 70.7468 148.66 71.1019 148.537C71.4618 148.409 71.7719 148.22 72.0323 147.969C72.2927 147.713 72.494 147.396 72.636 147.017L74.2553 147.472C74.0849 148.021 73.7984 148.504 73.396 148.92C72.9935 149.332 72.4963 149.654 71.9045 149.886C71.3126 150.114 70.6474 150.227 69.9087 150.227ZM76.9755 150V139.091H78.5948V140.739H78.7085C78.9073 140.199 79.2672 139.761 79.788 139.425C80.3088 139.089 80.896 138.92 81.5494 138.92C81.6725 138.92 81.8263 138.923 82.011 138.928C82.1957 138.932 82.3353 138.939 82.43 138.949V140.653C82.3732 140.639 82.243 140.618 82.0394 140.589C81.8406 140.556 81.6299 140.54 81.4073 140.54C80.877 140.54 80.4035 140.651 79.9869 140.874C79.5749 141.091 79.2482 141.394 79.0067 141.783C78.77 142.166 78.6516 142.604 78.6516 143.097V150H76.9755ZM94.7578 150H90.2692V135.455H94.9567C96.3677 135.455 97.575 135.746 98.5788 136.328C99.5826 136.906 100.352 137.737 100.887 138.821C101.422 139.901 101.69 141.193 101.69 142.699C101.69 144.214 101.42 145.518 100.88 146.612C100.34 147.701 99.5542 148.539 98.522 149.126C97.4898 149.709 96.2351 150 94.7578 150ZM92.0305 148.438H94.6442C95.8468 148.438 96.8435 148.205 97.6342 147.741C98.425 147.277 99.0144 146.617 99.4027 145.76C99.791 144.903 99.9851 143.883 99.9851 142.699C99.9851 141.525 99.7933 140.514 99.4098 139.666C99.0263 138.814 98.4534 138.161 97.6911 137.706C96.9287 137.247 95.9794 137.017 94.843 137.017H92.0305V148.438Z"></path>
<path fill="black" d="M31.8055 75H29.0356L37.047 53.1818H39.7742L47.7856 75H45.0157L38.4958 56.6335H38.3254L31.8055 75ZM32.8282 66.4773H43.993V68.821H32.8282V66.4773ZM53.3573 65.1562V75H50.8431V58.6364H53.2721V61.1932H53.4852C53.8687 60.3622 54.4511 59.6946 55.2323 59.1903C56.0136 58.679 57.0221 58.4233 58.2579 58.4233C59.3659 58.4233 60.3353 58.6506 61.1663 59.1051C61.9972 59.5526 62.6436 60.2344 63.1052 61.1506C63.5669 62.0597 63.7977 63.2102 63.7977 64.6023V75H61.2835V64.7727C61.2835 63.4872 60.9497 62.4858 60.282 61.7685C59.6144 61.044 58.6982 60.6818 57.5335 60.6818C56.7309 60.6818 56.0136 60.8558 55.3815 61.2038C54.7565 61.5518 54.2629 62.0597 53.9007 62.7273C53.5384 63.3949 53.3573 64.2045 53.3573 65.1562ZM74.9971 81.4773C73.7826 81.4773 72.7385 81.321 71.865 81.0085C70.9914 80.7031 70.2634 80.2983 69.681 79.794C69.1057 79.2969 68.6476 78.7642 68.3067 78.196L70.3096 76.7898C70.5368 77.0881 70.8245 77.429 71.1725 77.8125C71.5205 78.2031 71.9964 78.5405 72.6001 78.8246C73.2108 79.1158 74.0099 79.2614 74.9971 79.2614C76.3181 79.2614 77.4083 78.9418 78.2677 78.3026C79.127 77.6634 79.5567 76.6619 79.5567 75.2983V71.9744H79.3437C79.159 72.2727 78.8962 72.642 78.5553 73.0824C78.2215 73.5156 77.7385 73.9027 77.1064 74.2436C76.4814 74.5774 75.6363 74.7443 74.5709 74.7443C73.2499 74.7443 72.0638 74.4318 71.0127 73.8068C69.9687 73.1818 69.1412 72.2727 68.5305 71.0795C67.9268 69.8864 67.6249 68.4375 67.6249 66.733C67.6249 65.0568 67.9197 63.5973 68.5091 62.3544C69.0986 61.1044 69.9189 60.1385 70.9701 59.4567C72.0212 58.7678 73.2357 58.4233 74.6135 58.4233C75.6789 58.4233 76.5241 58.6009 77.1491 58.956C77.7812 59.304 78.2641 59.7017 78.5979 60.1491C78.9388 60.5895 79.2016 60.9517 79.3863 61.2358H79.642V58.6364H82.0709V75.4688C82.0709 76.875 81.7513 78.0185 81.1121 78.8991C80.48 79.7869 79.6278 80.4368 78.5553 80.8487C77.49 81.2678 76.3039 81.4773 74.9971 81.4773ZM74.9118 72.4858C75.9204 72.4858 76.7726 72.255 77.4687 71.7933C78.1647 71.3317 78.6938 70.6676 79.056 69.8011C79.4182 68.9347 79.5993 67.8977 79.5993 66.6903C79.5993 65.5114 79.4218 64.4709 79.0667 63.5689C78.7116 62.6669 78.186 61.9602 77.49 61.4489C76.7939 60.9375 75.9346 60.6818 74.9118 60.6818C73.8465 60.6818 72.9587 60.9517 72.2485 61.4915C71.5454 62.0312 71.0162 62.7557 70.6611 63.6648C70.3131 64.5739 70.1391 65.5824 70.1391 66.6903C70.1391 67.8267 70.3167 68.8317 70.6718 69.7053C71.034 70.5717 71.5667 71.2536 72.2698 71.7507C72.98 72.2408 73.8607 72.4858 74.9118 72.4858ZM86.6732 75V58.6364H89.1022V61.108H89.2726C89.5709 60.2983 90.1107 59.6413 90.892 59.1371C91.6732 58.6328 92.5539 58.3807 93.534 58.3807C93.7187 58.3807 93.9495 58.3842 94.2265 58.3913C94.5035 58.3984 94.713 58.4091 94.855 58.4233V60.9801C94.7698 60.9588 94.5745 60.9268 94.2691 60.8842C93.9708 60.8345 93.6547 60.8097 93.3209 60.8097C92.5255 60.8097 91.8153 60.9766 91.1903 61.3104C90.5724 61.6371 90.0823 62.0916 89.7201 62.674C89.365 63.2493 89.1874 63.9062 89.1874 64.6449V75H86.6732ZM99.9527 81.1364C99.5265 81.1364 99.1466 81.1009 98.8128 81.0298C98.479 80.9659 98.2481 80.902 98.1203 80.8381L98.7595 78.6222C99.3703 78.7784 99.9101 78.8352 100.379 78.7926C100.848 78.75 101.263 78.5405 101.625 78.1641C101.995 77.7947 102.332 77.1946 102.637 76.3636L103.106 75.0852L97.055 58.6364H99.7822L104.299 71.6761H104.47L108.987 58.6364H111.714L104.768 77.3864C104.456 78.2315 104.068 78.9311 103.607 79.4851C103.145 80.0462 102.609 80.4616 101.998 80.7315C101.394 81.0014 100.713 81.1364 99.9527 81.1364Z"></path>
</svg>
