<svg xmlns="http://www.w3.org/2000/svg" fill="none" viewBox="0 0 139 164" height="164" width="139">
<path fill="#EEC638" d="M0 20C0 8.95431 8.95431 0 20 0H119C130.046 0 139 8.95431 139 20V144C139 155.046 130.046 164 119 164H20C8.95431 164 0 155.046 0 144V20Z"></path>
<path fill="black" d="M36.2102 135.455V150H34.5341V135.455H36.2102ZM43.854 150.227C42.8029 150.227 41.8962 149.995 41.1339 149.531C40.3763 149.062 39.7915 148.409 39.3796 147.571C38.9724 146.728 38.7688 145.748 38.7688 144.631C38.7688 143.513 38.9724 142.528 39.3796 141.676C39.7915 140.819 40.3645 140.152 41.0984 139.673C41.837 139.19 42.6987 138.949 43.6836 138.949C44.2518 138.949 44.8129 139.044 45.3668 139.233C45.9208 139.422 46.4251 139.73 46.8796 140.156C47.3342 140.578 47.6964 141.136 47.9663 141.832C48.2362 142.528 48.3711 143.385 48.3711 144.403V145.114H39.962V143.665H46.6665C46.6665 143.049 46.5434 142.5 46.2972 142.017C46.0558 141.534 45.7101 141.153 45.2603 140.874C44.8152 140.594 44.2897 140.455 43.6836 140.455C43.016 140.455 42.4383 140.62 41.9506 140.952C41.4677 141.278 41.096 141.705 40.8356 142.23C40.5752 142.756 40.445 143.319 40.445 143.92V144.886C40.445 145.71 40.587 146.409 40.8711 146.982C41.1599 147.55 41.56 147.983 42.0714 148.281C42.5827 148.575 43.177 148.722 43.854 148.722C44.2944 148.722 44.6921 148.66 45.0472 148.537C45.4071 148.409 45.7172 148.22 45.9776 147.969C46.238 147.713 46.4393 147.396 46.5813 147.017L48.2006 147.472C48.0302 148.021 47.7437 148.504 47.3413 148.92C46.9388 149.332 46.4416 149.654 45.8498 149.886C45.2579 150.114 44.5927 150.227 43.854 150.227ZM55.6651 139.091V140.511H50.0117V139.091H55.6651ZM51.6594 136.477H53.3356V146.875C53.3356 147.348 53.4042 147.704 53.5415 147.94C53.6836 148.172 53.8635 148.329 54.0813 148.409C54.3039 148.485 54.5382 148.523 54.7844 148.523C54.9691 148.523 55.1206 148.513 55.239 148.494C55.3574 148.471 55.4521 148.452 55.5231 148.438L55.864 149.943C55.7504 149.986 55.5917 150.028 55.3881 150.071C55.1845 150.118 54.9265 150.142 54.614 150.142C54.1405 150.142 53.6765 150.04 53.2219 149.837C52.7721 149.633 52.3981 149.323 52.0998 148.906C51.8062 148.49 51.6594 147.964 51.6594 147.33V136.477ZM62.9308 139.091V140.511H57.2773V139.091H62.9308ZM58.9251 136.477H60.6012V146.875C60.6012 147.348 60.6699 147.704 60.8072 147.94C60.9492 148.172 61.1291 148.329 61.3469 148.409C61.5695 148.485 61.8039 148.523 62.0501 148.523C62.2347 148.523 62.3862 148.513 62.5046 148.494C62.623 148.471 62.7177 148.452 62.7887 148.438L63.1296 149.943C63.016 149.986 62.8574 150.028 62.6538 150.071C62.4502 150.118 62.1921 150.142 61.8796 150.142C61.4061 150.142 60.9421 150.04 60.4876 149.837C60.0378 149.633 59.6637 149.323 59.3654 148.906C59.0719 148.49 58.9251 147.964 58.9251 147.33V136.477ZM69.9087 150.227C68.8576 150.227 67.9509 149.995 67.1886 149.531C66.431 149.062 65.8462 148.409 65.4343 147.571C65.0271 146.728 64.8235 145.748 64.8235 144.631C64.8235 143.513 65.0271 142.528 65.4343 141.676C65.8462 140.819 66.4192 140.152 67.1531 139.673C67.8917 139.19 68.7534 138.949 69.7383 138.949C70.3065 138.949 70.8675 139.044 71.4215 139.233C71.9755 139.422 72.4798 139.73 72.9343 140.156C73.3888 140.578 73.7511 141.136 74.021 141.832C74.2908 142.528 74.4258 143.385 74.4258 144.403V145.114H66.0167V143.665H72.7212C72.7212 143.049 72.5981 142.5 72.3519 142.017C72.1104 141.534 71.7648 141.153 71.315 140.874C70.8699 140.594 70.3443 140.455 69.7383 140.455C69.0707 140.455 68.493 140.62 68.0053 140.952C67.5224 141.278 67.1507 141.705 66.8903 142.23C66.6299 142.756 66.4996 143.319 66.4996 143.92V144.886C66.4996 145.71 66.6417 146.409 66.9258 146.982C67.2146 147.55 67.6147 147.983 68.1261 148.281C68.6374 148.575 69.2317 148.722 69.9087 148.722C70.3491 148.722 70.7468 148.66 71.1019 148.537C71.4618 148.409 71.7719 148.22 72.0323 147.969C72.2927 147.713 72.494 147.396 72.636 147.017L74.2553 147.472C74.0849 148.021 73.7984 148.504 73.396 148.92C72.9935 149.332 72.4963 149.654 71.9045 149.886C71.3126 150.114 70.6474 150.227 69.9087 150.227ZM76.9755 150V139.091H78.5948V140.739H78.7085C78.9073 140.199 79.2672 139.761 79.788 139.425C80.3088 139.089 80.896 138.92 81.5494 138.92C81.6725 138.92 81.8263 138.923 82.011 138.928C82.1957 138.932 82.3353 138.939 82.43 138.949V140.653C82.3732 140.639 82.243 140.618 82.0394 140.589C81.8406 140.556 81.6299 140.54 81.4073 140.54C80.877 140.54 80.4035 140.651 79.9869 140.874C79.5749 141.091 79.2482 141.394 79.0067 141.783C78.77 142.166 78.6516 142.604 78.6516 143.097V150H76.9755ZM90.2692 150V135.455H95.3544C96.3677 135.455 97.2034 135.63 97.8615 135.98C98.5197 136.326 99.0097 136.792 99.3317 137.379C99.6536 137.962 99.8146 138.608 99.8146 139.318C99.8146 139.943 99.7034 140.459 99.4808 140.866C99.263 141.274 98.9742 141.596 98.6143 141.832C98.2592 142.069 97.8733 142.244 97.4567 142.358V142.5C97.9018 142.528 98.3492 142.685 98.799 142.969C99.2488 143.253 99.6252 143.66 99.9283 144.19C100.231 144.721 100.383 145.369 100.383 146.136C100.383 146.866 100.217 147.521 99.8857 148.104C99.5542 148.686 99.031 149.148 98.3161 149.489C97.6011 149.83 96.6707 150 95.5249 150H90.2692ZM92.0305 148.438H95.5249C96.6754 148.438 97.4922 148.215 97.9751 147.77C98.4628 147.32 98.7067 146.776 98.7067 146.136C98.7067 145.644 98.5812 145.189 98.3303 144.773C98.0793 144.351 97.7218 144.015 97.2578 143.764C96.7938 143.509 96.2446 143.381 95.6101 143.381H92.0305V148.438ZM92.0305 141.847H95.2976C95.8279 141.847 96.3061 141.742 96.7322 141.534C97.1631 141.326 97.504 141.032 97.755 140.653C98.0107 140.275 98.1385 139.83 98.1385 139.318C98.1385 138.679 97.916 138.137 97.4709 137.692C97.0258 137.242 96.3203 137.017 95.3544 137.017H92.0305V141.847Z"></path>
<path fill="black" d="M45.0864 75V53.1818H58.254V55.5256H47.7284V62.8977H57.5722V65.2415H47.7284V72.6562H58.4245V75H45.0864ZM65.1894 65.1562V75H62.6752V58.6364H65.1041V61.1932H65.3172C65.7007 60.3622 66.2831 59.6946 67.0644 59.1903C67.8456 58.679 68.8541 58.4233 70.0899 58.4233C71.1979 58.4233 72.1673 58.6506 72.9983 59.1051C73.8293 59.5526 74.4756 60.2344 74.9372 61.1506C75.3989 62.0597 75.6297 63.2102 75.6297 64.6023V75H73.1155V64.7727C73.1155 63.4872 72.7817 62.4858 72.1141 61.7685C71.4465 61.044 70.5303 60.6818 69.3655 60.6818C68.5629 60.6818 67.8456 60.8558 67.2135 61.2038C66.5885 61.5518 66.0949 62.0597 65.7327 62.7273C65.3705 63.3949 65.1894 64.2045 65.1894 65.1562ZM86.403 75.3409C85.0393 75.3409 83.8355 74.9964 82.7915 74.3075C81.7474 73.6115 80.9307 72.6314 80.3412 71.3672C79.7517 70.0959 79.4569 68.5938 79.4569 66.8608C79.4569 65.142 79.7517 63.6506 80.3412 62.3864C80.9307 61.1222 81.751 60.1456 82.8021 59.4567C83.8532 58.7678 85.0677 58.4233 86.4456 58.4233C87.5109 58.4233 88.3525 58.6009 88.9704 58.956C89.5954 59.304 90.0713 59.7017 90.398 60.1491C90.7318 60.5895 90.991 60.9517 91.1757 61.2358H91.3888V53.1818H93.903V75H91.474V72.4858H91.1757C90.991 72.7841 90.7282 73.1605 90.3873 73.6151C90.0464 74.0625 89.5599 74.4638 88.9278 74.8189C88.2957 75.1669 87.4541 75.3409 86.403 75.3409ZM86.7439 73.0824C87.7524 73.0824 88.6047 72.8196 89.3007 72.294C89.9967 71.7614 90.5258 71.0263 90.8881 70.0888C91.2503 69.1442 91.4314 68.054 91.4314 66.8182C91.4314 65.5966 91.2538 64.5277 90.8987 63.6115C90.5436 62.6882 90.018 61.9709 89.322 61.4595C88.626 60.9411 87.7666 60.6818 86.7439 60.6818C85.6785 60.6818 84.7907 60.9553 84.0805 61.5021C83.3774 62.0419 82.8483 62.777 82.4932 63.7074C82.1452 64.6307 81.9711 65.6676 81.9711 66.8182C81.9711 67.983 82.1487 69.0412 82.5038 69.9929C82.866 70.9375 83.3987 71.6903 84.1018 72.2514C84.8121 72.8054 85.6927 73.0824 86.7439 73.0824Z"></path>
</svg>
