<svg version="1.1" xmlns="http://www.w3.org/2000/svg" xmlns:xlink="http://www.w3.org/1999/xlink" width="246.55832" height="16.36532" viewBox="0,0,246.55832,16.36532"><g transform="translate(-116.72084,-171.81734)"><g data-paper-data="{&quot;isPaintingLayer&quot;:true}" fill="#ffffff" fill-rule="nonzero" stroke="none" stroke-width="1" stroke-linecap="butt" stroke-linejoin="miter" stroke-miterlimit="10" stroke-dasharray="" stroke-dashoffset="0" style="mix-blend-mode: normal"><path d="M120.09018,184.71706l-3.36933,-12.32212h1.5162l2.57512,10.03578h0.12033l2.62329,-10.03578h1.68466l2.62326,10.03578h0.12033l2.57515,-10.03578h1.51618l-3.36931,12.32212h-1.54029l-2.71951,-9.8192h-0.09626l-2.71955,9.8192zM135.16189,179.15767v5.55939h-1.41992v-12.32212h1.41992v4.52453h0.12037c0.21659,-0.47733 0.54147,-0.85636 0.97468,-1.13715c0.43723,-0.28478 1.01883,-0.42717 1.74484,-0.42717c0.62975,0 1.18127,0.12633 1.65458,0.37903c0.47331,0.24871 0.84033,0.63176 1.10104,1.14919c0.26473,0.51344 0.3971,1.16723 0.3971,1.96142v5.87227h-1.41992v-5.77598c0,-0.73405 -0.19054,-1.3016 -0.57158,-1.70273c-0.37705,-0.40511 -0.90052,-0.60769 -1.57036,-0.60769c-0.46529,0 -0.88244,0.09827 -1.25145,0.29481c-0.36501,0.19657 -0.65382,0.48337 -0.86642,0.86038c-0.20857,0.37705 -0.31288,0.83433 -0.31288,1.37181zM146.4717,184.93365c-0.58562,0 -1.11707,-0.11031 -1.5944,-0.33092c-0.47733,-0.2246 -0.85636,-0.5475 -1.13715,-0.96868c-0.28079,-0.42516 -0.42117,-0.9386 -0.42117,-1.54025c0,-0.52947 0.1043,-0.95865 0.31288,-1.28756c0.20857,-0.33293 0.48736,-0.59367 0.83631,-0.7822c0.34895,-0.18849 0.73402,-0.3289 1.15519,-0.42114c0.4252,-0.09629 0.85237,-0.1725 1.28155,-0.22866c0.56155,-0.07218 1.01682,-0.12633 1.36578,-0.16244c0.35298,-0.0401 0.6097,-0.10628 0.77013,-0.19855c0.16449,-0.09227 0.2467,-0.2527 0.2467,-0.48132v-0.04815c0,-0.59364 -0.16244,-1.05491 -0.48736,-1.38381c-0.32089,-0.32894 -0.80821,-0.49339 -1.46203,-0.49339c-0.67789,0 -1.20937,0.14843 -1.59443,0.44525c-0.38506,0.29682 -0.6558,0.61369 -0.81224,0.95064l-1.34774,-0.48136c0.24066,-0.56155 0.56155,-0.99875 0.96268,-1.31163c0.40511,-0.31687 0.84633,-0.53748 1.32367,-0.66183c0.48132,-0.12834 0.95463,-0.19251 1.41992,-0.19251c0.29682,0 0.63776,0.03607 1.02282,0.10829c0.38909,0.0682 0.76413,0.21059 1.12512,0.42717c0.36501,0.21662 0.66787,0.54351 0.90853,0.98071c0.24066,0.43723 0.36099,1.02286 0.36099,1.75687v6.08886h-1.41992v-1.25148h-0.07218c-0.09629,0.20056 -0.25672,0.41517 -0.48136,0.6438c-0.2246,0.22862 -0.52343,0.42318 -0.89646,0.58361c-0.37306,0.16046 -0.8283,0.24066 -1.36581,0.24066zM146.68833,183.65813c0.56155,0 1.03486,-0.11031 1.41992,-0.33092c0.38909,-0.22061 0.68188,-0.50539 0.87842,-0.85438c0.20056,-0.34895 0.30084,-0.71598 0.30084,-1.10104v-1.29959c-0.06015,0.07222 -0.19251,0.1384 -0.3971,0.19855c-0.20056,0.05616 -0.43321,0.10628 -0.69794,0.1504c-0.26071,0.04013 -0.51542,0.07624 -0.76409,0.10833c-0.24468,0.02806 -0.44323,0.05213 -0.59565,0.07218c-0.36904,0.04815 -0.714,0.12637 -1.03489,0.23466c-0.31687,0.10427 -0.57359,0.26272 -0.77013,0.47532c-0.19251,0.20857 -0.28881,0.49336 -0.28881,0.85435c0,0.49339 0.18252,0.86642 0.54754,1.11911c0.369,0.24867 0.83631,0.37303 1.40188,0.37303zM157.31828,175.47548v1.20334h-4.7892v-1.20334zM153.92475,173.26135h1.42003v8.80837c0,0.40112 0.05824,0.70193 0.17437,0.90249c0.12037,0.19654 0.27285,0.3289 0.45746,0.3971c0.18849,0.06417 0.38686,0.09626 0.59547,0.09626c0.15637,0 0.28485,-0.00801 0.3851,-0.02404c0.10025,-0.02008 0.18072,-0.03611 0.24073,-0.04815l0.28874,1.27552c-0.09636,0.03611 -0.23049,0.07222 -0.4031,0.10833c-0.17225,0.0401 -0.3911,0.06015 -0.65583,0.06015c-0.40098,0 -0.7942,-0.08623 -1.1793,-0.2587c-0.38086,-0.1725 -0.69784,-0.43522 -0.95057,-0.7882c-0.2485,-0.35298 -0.3731,-0.79822 -0.3731,-1.3357zM164.21934,184.71706v-9.24158h1.42003v9.24158zM164.94153,173.93519c-0.27709,0 -0.5157,-0.09424 -0.71619,-0.28277c-0.19661,-0.18853 -0.29474,-0.41514 -0.29474,-0.67987c0,-0.26473 0.09813,-0.49138 0.29474,-0.67991c0.20049,-0.18853 0.4391,-0.28277 0.71619,-0.28277c0.27673,0 0.51323,0.09424 0.70984,0.28277c0.20049,0.18853 0.30074,0.41517 0.30074,0.67991c0,0.26473 -0.10025,0.49134 -0.30074,0.67987c-0.19661,0.18853 -0.4331,0.28277 -0.70984,0.28277zM174.78607,177.54519l-1.27531,0.36099c-0.08048,-0.21256 -0.19873,-0.41916 -0.3551,-0.61969c-0.15249,-0.20459 -0.3611,-0.37306 -0.62583,-0.50543c-0.26473,-0.13237 -0.60359,-0.19855 -1.01693,-0.19855c-0.56547,0 -1.03669,0.13039 -1.41367,0.3911c-0.3731,0.25672 -0.55947,0.58361 -0.55947,0.98071c0,0.35298 0.12813,0.63176 0.38475,0.83631c0.25697,0.20459 0.65795,0.37504 1.20365,0.51143l1.37167,0.33692c0.82632,0.20056 1.44191,0.5074 1.84713,0.92056c0.40522,0.40914 0.60747,0.93659 0.60747,1.58236c0,0.52947 -0.15213,1.00281 -0.45711,1.41996c-0.30074,0.41715 -0.72184,0.74605 -1.26366,0.98671c-0.54147,0.24066 -1.17118,0.36103 -1.88913,0.36103c-0.94245,0 -1.72288,-0.20459 -2.34059,-0.61372c-0.61771,-0.40914 -1.00846,-1.0068 -1.17294,-1.79295l1.34767,-0.33695c0.12813,0.49738 0.37098,0.87041 0.72784,1.11911c0.3611,0.24867 0.83232,0.37303 1.41403,0.37303c0.66183,0 1.18742,-0.14038 1.5764,-0.42117c0.39322,-0.28478 0.58947,-0.62572 0.58947,-1.02282c0,-0.32089 -0.11225,-0.58965 -0.33674,-0.80624c-0.22485,-0.22061 -0.56971,-0.38506 -1.03493,-0.49336l-1.54039,-0.36103c-0.84609,-0.20053 -1.46803,-0.51139 -1.86513,-0.93257c-0.39286,-0.42516 -0.58947,-0.95664 -0.58947,-1.5944c0,-0.52145 0.14649,-0.98272 0.4391,-1.38385c0.29685,-0.40112 0.69995,-0.71598 1.2093,-0.9446c0.51358,-0.22866 1.09529,-0.34295 1.74477,-0.34295c0.91456,0 1.63252,0.20056 2.15422,0.60165c0.52523,0.40112 0.89833,0.93059 1.11894,1.5884zM185.87626,175.47548v1.20334h-4.7892v-1.20334zM182.48309,173.26135h1.41967v8.80837c0,0.40112 0.05824,0.70193 0.17472,0.90249c0.12037,0.19654 0.2725,0.3289 0.45711,0.3971c0.18849,0.06417 0.38722,0.09626 0.59583,0.09626c0.15637,0 0.2845,-0.00801 0.38475,-0.02404c0.1006,-0.02008 0.18072,-0.03611 0.24073,-0.04815l0.28874,1.27552c-0.09601,0.03611 -0.23049,0.07222 -0.4031,0.10833c-0.17225,0.0401 -0.3911,0.06015 -0.65583,0.06015c-0.40098,0 -0.7942,-0.08623 -1.17894,-0.2587c-0.38122,-0.1725 -0.69819,-0.43522 -0.95092,-0.7882c-0.2485,-0.35298 -0.37274,-0.79822 -0.37274,-1.3357zM189.63088,179.15767v5.55939h-1.42003v-12.32212h1.42003v4.52453h0.12001c0.21673,-0.47733 0.54182,-0.85636 0.97492,-1.13715c0.43699,-0.28478 1.01869,-0.42717 1.74477,-0.42717c0.62971,0 1.18142,0.12633 1.6544,0.37903c0.47334,0.24871 0.84044,0.63176 1.10129,1.14919c0.26473,0.51344 0.3971,1.16723 0.3971,1.96142v5.87227h-1.42003v-5.77598c0,-0.73405 -0.19061,-1.3016 -0.57147,-1.70273c-0.37698,-0.40511 -0.90045,-0.60769 -1.5704,-0.60769c-0.46522,0 -0.88244,0.09827 -1.25166,0.29481c-0.36498,0.19657 -0.65371,0.48337 -0.86621,0.86038c-0.20861,0.37705 -0.31274,0.83433 -0.31274,1.37181zM202.09557,184.90961c-0.89021,0 -1.65829,-0.19657 -2.30424,-0.58965c-0.64171,-0.3971 -1.13729,-0.95064 -1.48603,-1.66058c-0.34486,-0.714 -0.51746,-1.54428 -0.51746,-2.49093c0,-0.94661 0.17261,-1.78091 0.51746,-2.50293c0.34874,-0.726 0.83409,-1.29158 1.45603,-1.69669c0.62583,-0.40914 1.35579,-0.61369 2.18987,-0.61369c0.48146,0 0.95692,0.0802 1.42603,0.24066c0.46946,0.16043 0.89656,0.42117 1.28166,0.78216c0.3851,0.357 0.69184,0.83031 0.92056,1.41992c0.22873,0.58965 0.34274,1.31565 0.34274,2.17805v0.60165h-7.12344v-1.22737h5.67941c0,-0.52145 -0.10413,-0.98675 -0.31274,-1.39588c-0.20437,-0.40914 -0.49735,-0.73204 -0.87856,-0.96868c-0.37698,-0.23667 -0.82208,-0.35499 -1.33567,-0.35499c-0.56547,0 -1.0547,0.14038 -1.46803,0.42117c-0.4091,0.27677 -0.72396,0.63776 -0.94457,1.08301c-0.22061,0.44521 -0.33074,0.92254 -0.33074,1.43196v0.81827c0,0.69791 0.12037,1.28957 0.36074,1.77491c0.24497,0.48132 0.58382,0.84835 1.01693,1.10104c0.4331,0.24867 0.93645,0.37303 1.51004,0.37303c0.3731,0 0.71019,-0.05213 1.01093,-0.15644c0.30497,-0.10829 0.56759,-0.26872 0.7882,-0.48132c0.22061,-0.21659 0.3911,-0.48534 0.51146,-0.80624l1.37167,0.38506c-0.14437,0.46529 -0.38686,0.87443 -0.72784,1.22741c-0.34098,0.34895 -0.76208,0.62173 -1.26366,0.81827c-0.50123,0.19251 -1.06493,0.28881 -1.69076,0.28881zM212.84762,188.18266v-12.70719h1.37167v1.46807h0.16837c0.10448,-0.16046 0.24885,-0.36501 0.43346,-0.61372c0.18849,-0.2527 0.45711,-0.4773 0.8062,-0.67387c0.35298,-0.20053 0.8302,-0.30081 1.43203,-0.30081c0.77796,0 1.4638,0.19453 2.05751,0.58361c0.59371,0.38909 1.05681,0.94061 1.39002,1.65458c0.33286,0.71397 0.49911,1.55631 0.49911,2.527c0,0.9787 -0.16625,1.82705 -0.49911,2.54504c-0.33321,0.71397 -0.7942,1.26751 -1.38402,1.66058c-0.58947,0.38909 -1.26931,0.58365 -2.0395,0.58365c-0.59371,0 -1.06917,-0.0983 -1.42603,-0.29484c-0.35686,-0.20056 -0.63183,-0.42717 -0.8242,-0.67987c-0.19273,-0.25672 -0.34098,-0.46932 -0.44546,-0.63776h-0.12037v4.88552zM214.24329,180.09627c0,0.69794 0.10236,1.31364 0.30709,1.8471c0.20437,0.52947 0.50335,0.94464 0.89621,1.24548c0.39322,0.29682 0.87468,0.44521 1.44403,0.44521c0.59371,0 1.08894,-0.15644 1.48603,-0.46928c0.40134,-0.3169 0.70207,-0.74206 0.90256,-1.27555c0.20473,-0.53748 0.30709,-1.13514 0.30709,-1.79295c0,-0.6498 -0.10025,-1.23542 -0.30109,-1.75687c-0.19626,-0.52544 -0.49523,-0.94061 -0.89621,-1.24545c-0.3971,-0.30886 -0.89656,-0.46328 -1.49839,-0.46328c-0.57747,0 -1.06281,0.14642 -1.45603,0.43921c-0.39286,0.28881 -0.68972,0.69392 -0.89021,1.21537c-0.20084,0.51743 -0.30109,1.12109 -0.30109,1.81102zM224.59188,172.39494v12.32212h-1.41967v-12.32212zM233.01674,180.93861v-5.46314h1.42003v9.24158h-1.42003v-1.56433h-0.09601c-0.21673,0.46928 -0.55382,0.86839 -1.01093,1.1973c-0.45711,0.32492 -1.03493,0.48736 -1.73277,0.48736c-0.57782,0 -1.09105,-0.12633 -1.54039,-0.37906c-0.44899,-0.25669 -0.80196,-0.64175 -1.05893,-1.15519c-0.25661,-0.51743 -0.3851,-1.16924 -0.3851,-1.95542v-5.87224h1.42003v5.77598c0,0.67387 0.18849,1.21135 0.56547,1.61247c0.38122,0.40112 0.86656,0.60165 1.45603,0.60165c0.35298,0 0.71196,-0.09022 1.07693,-0.27073c0.36921,-0.18051 0.67807,-0.45728 0.92657,-0.83031c0.25273,-0.37303 0.3791,-0.84835 0.3791,-1.42592zM237.03751,184.71706v-9.24158h1.37167v1.39585h0.09636c0.16837,-0.45725 0.47334,-0.8283 0.91456,-1.11308c0.44122,-0.28478 0.93857,-0.42717 1.49204,-0.42717c0.10448,0 0.23473,0.00201 0.3911,0.006c0.15637,0.00402 0.27497,0.01002 0.3551,0.01807v1.444c-0.04836,-0.01204 -0.15849,-0.03007 -0.33109,-0.05415c-0.16837,-0.0281 -0.34698,-0.04211 -0.53547,-0.04211c-0.44899,0 -0.85032,0.09424 -1.2033,0.28277c-0.34874,0.1845 -0.62583,0.44122 -0.8302,0.77013c-0.20049,0.32492 -0.30074,0.69593 -0.30074,1.11308v5.8482zM246.06102,184.93365c-0.58559,0 -1.11717,-0.11031 -1.5944,-0.33092c-0.47723,-0.2246 -0.85632,-0.5475 -1.13729,-0.96868c-0.28062,-0.42516 -0.4211,-0.9386 -0.4211,-1.54025c0,-0.52947 0.10448,-0.95865 0.31274,-1.28756c0.20861,-0.33293 0.48746,-0.59367 0.83656,-0.7822c0.34874,-0.18849 0.73384,-0.3289 1.15494,-0.42114c0.42534,-0.09629 0.85244,-0.1725 1.28166,-0.22866c0.56159,-0.07218 1.01693,-0.12633 1.36567,-0.16244c0.35298,-0.0401 0.60994,-0.10628 0.7702,-0.19855c0.16449,-0.09227 0.24673,-0.2527 0.24673,-0.48132v-0.04815c0,-0.59364 -0.16237,-1.05491 -0.48746,-1.38381c-0.32086,-0.32894 -0.80797,-0.49339 -1.46203,-0.49339c-0.67772,0 -1.2093,0.14843 -1.5944,0.44525c-0.3851,0.29682 -0.65583,0.61369 -0.8122,0.95064l-1.34767,-0.48136c0.24073,-0.56155 0.56159,-0.99875 0.96257,-1.31163c0.40522,-0.31687 0.84644,-0.53748 1.32367,-0.66183c0.48146,-0.12834 0.9548,-0.19251 1.42003,-0.19251c0.29685,0 0.63783,0.03607 1.02293,0.10829c0.38898,0.0682 0.7642,0.21059 1.12494,0.42717c0.36498,0.21662 0.66783,0.54351 0.90856,0.98071c0.24073,0.43723 0.3611,1.02286 0.3611,1.75687v6.08886h-1.42003v-1.25148h-0.07201c-0.09636,0.20056 -0.25697,0.41517 -0.48146,0.6438c-0.22449,0.22862 -0.52347,0.42318 -0.89656,0.58361c-0.3731,0.16046 -0.82808,0.24066 -1.36567,0.24066zM246.2774,183.65813c0.56159,0 1.03493,-0.11031 1.42003,-0.33092c0.38933,-0.22061 0.68195,-0.50539 0.87856,-0.85438c0.20049,-0.34895 0.30074,-0.71598 0.30074,-1.10104v-1.29959c-0.06001,0.07222 -0.19237,0.1384 -0.3971,0.19855c-0.20049,0.05616 -0.4331,0.10628 -0.69784,0.1504c-0.26085,0.04013 -0.51535,0.07624 -0.7642,0.10833c-0.24461,0.02806 -0.44334,0.05213 -0.59547,0.07218c-0.36921,0.04815 -0.71407,0.12637 -1.03493,0.23466c-0.31697,0.10427 -0.57359,0.26272 -0.7702,0.47532c-0.19237,0.20857 -0.28874,0.49336 -0.28874,0.85435c0,0.49339 0.18249,0.86642 0.54747,1.11911c0.36886,0.24867 0.8362,0.37303 1.40167,0.37303zM254.30834,172.39494v12.32212h-1.42003v-12.32212zM265.78963,175.47548v1.20334h-4.98192v-1.20334zM262.3001,184.71706v-10.51714c0,-0.52947 0.12425,-0.97069 0.37274,-1.32367c0.24885,-0.35298 0.57182,-0.61771 0.96892,-0.7942c0.3971,-0.17647 0.81608,-0.26472 1.25731,-0.26472c0.34909,0 0.63395,0.02808 0.85456,0.08423c0.22061,0.05616 0.3851,0.1083 0.49311,0.15645l-0.4091,1.22737c-0.07201,-0.02404 -0.17225,-0.05415 -0.30074,-0.09022c-0.12425,-0.03611 -0.28874,-0.05418 -0.49346,-0.05418c-0.46911,0 -0.80797,0.11835 -1.01657,0.35499c-0.20473,0.23667 -0.30709,0.58361 -0.30709,1.04089v10.18019zM271.15348,184.90961c-0.83444,0 -1.56651,-0.19855 -2.19623,-0.59565c-0.62548,-0.3971 -1.11506,-0.95265 -1.46803,-1.66662c-0.34874,-0.714 -0.52347,-1.5483 -0.52347,-2.50293c0,-0.96268 0.17472,-1.80301 0.52347,-2.521c0.35298,-0.71799 0.84256,-1.27552 1.46803,-1.67262c0.62971,-0.3971 1.36179,-0.59565 2.19623,-0.59565c0.83444,0 1.5644,0.19855 2.18987,0.59565c0.63006,0.3971 1.11929,0.95463 1.46839,1.67262c0.35298,0.71799 0.52947,1.55832 0.52947,2.521c0,0.95463 -0.17649,1.78892 -0.52947,2.50293c-0.34909,0.71397 -0.83832,1.26952 -1.46839,1.66662c-0.62548,0.3971 -1.35543,0.59565 -2.18987,0.59565zM271.15348,183.63405c0.63359,0 1.15529,-0.16244 1.5644,-0.48736c0.4091,-0.32488 0.71196,-0.75205 0.90856,-1.28152c0.19626,-0.52947 0.29474,-1.10305 0.29474,-1.72076c0,-0.61771 -0.09848,-1.19331 -0.29474,-1.7268c-0.19661,-0.53349 -0.49946,-0.96465 -0.90856,-1.29359c-0.4091,-0.3289 -0.9308,-0.49336 -1.5644,-0.49336c-0.63395,0 -1.15529,0.16445 -1.5644,0.49336c-0.4091,0.32894 -0.71196,0.7601 -0.90856,1.29359c-0.19661,0.53349 -0.29474,1.10909 -0.29474,1.7268c0,0.61771 0.09813,1.1913 0.29474,1.72076c0.19661,0.52947 0.49946,0.95664 0.90856,1.28152c0.4091,0.32492 0.93045,0.48736 1.5644,0.48736zM277.50848,184.71706v-9.24158h1.37202v1.39585h0.09601c0.16872,-0.45725 0.47334,-0.8283 0.91456,-1.11308c0.44122,-0.28478 0.93857,-0.42717 1.49204,-0.42717c0.10448,0 0.23473,0.00201 0.3911,0.006c0.15672,0.00402 0.27497,0.01002 0.3551,0.01807v1.444c-0.048,-0.01204 -0.15849,-0.03007 -0.33074,-0.05415c-0.16872,-0.0281 -0.34698,-0.04211 -0.53547,-0.04211c-0.44934,0 -0.85068,0.09424 -1.20365,0.28277c-0.34874,0.1845 -0.62548,0.44122 -0.8302,0.77013c-0.20049,0.32492 -0.30074,0.69593 -0.30074,1.11308v5.8482zM283.81266,184.71706v-9.24158h1.37167v1.444h0.12037c0.19237,-0.49336 0.50335,-0.87644 0.93257,-1.14919c0.42922,-0.27677 0.94457,-0.41514 1.54639,-0.41514c0.60959,0 1.11682,0.13837 1.52204,0.41514c0.4091,0.27275 0.72819,0.65583 0.95657,1.14919h0.09636c0.23649,-0.47733 0.59159,-0.85636 1.06493,-1.13715c0.47334,-0.28478 1.04093,-0.42717 1.70276,-0.42717c0.82632,0 1.50227,0.2587 2.0275,0.77613c0.52558,0.51344 0.7882,1.31364 0.7882,2.40067v6.18512h-1.42003v-6.18512c0,-0.68188 -0.18637,-1.16924 -0.55947,-1.46207c-0.3731,-0.29279 -0.8122,-0.43921 -1.31766,-0.43921c-0.64983,0 -1.15318,0.19654 -1.51004,0.58965c-0.35686,0.38905 -0.53547,0.88244 -0.53547,1.48007v6.01668h-1.44403v-6.32952c0,-0.52548 -0.17049,-0.94863 -0.51146,-1.26952c-0.34098,-0.32492 -0.78008,-0.48736 -1.31766,-0.48736c-0.36886,0 -0.71407,0.09827 -1.03493,0.29481c-0.31662,0.19657 -0.57359,0.46932 -0.7702,0.81827c-0.19237,0.34496 -0.28874,0.74408 -0.28874,1.19733v5.77598zM307.05798,184.90961c-0.83444,0 -1.56651,-0.19855 -2.19623,-0.59565c-0.62583,-0.3971 -1.11506,-0.95265 -1.46803,-1.66662c-0.34909,-0.714 -0.52347,-1.5483 -0.52347,-2.50293c0,-0.96268 0.17437,-1.80301 0.52347,-2.521c0.35298,-0.71799 0.8422,-1.27552 1.46803,-1.67262c0.62971,-0.3971 1.36179,-0.59565 2.19623,-0.59565c0.83409,0 1.5644,0.19855 2.18987,0.59565c0.62971,0.3971 1.11929,0.95463 1.46803,1.67262c0.35298,0.71799 0.52947,1.55832 0.52947,2.521c0,0.95463 -0.17649,1.78892 -0.52947,2.50293c-0.34874,0.71397 -0.83832,1.26952 -1.46803,1.66662c-0.62548,0.3971 -1.35579,0.59565 -2.18987,0.59565zM307.05798,183.63405c0.63359,0 1.15494,-0.16244 1.5644,-0.48736c0.4091,-0.32488 0.71196,-0.75205 0.90821,-1.28152c0.19661,-0.52947 0.29509,-1.10305 0.29509,-1.72076c0,-0.61771 -0.09848,-1.19331 -0.29509,-1.7268c-0.19626,-0.53349 -0.49911,-0.96465 -0.90821,-1.29359c-0.40945,-0.3289 -0.9308,-0.49336 -1.5644,-0.49336c-0.63395,0 -1.15529,0.16445 -1.5644,0.49336c-0.4091,0.32894 -0.71196,0.7601 -0.90856,1.29359c-0.19661,0.53349 -0.29474,1.10909 -0.29474,1.7268c0,0.61771 0.09813,1.1913 0.29474,1.72076c0.19661,0.52947 0.49946,0.95664 0.90856,1.28152c0.4091,0.32492 0.93045,0.48736 1.5644,0.48736zM317.52835,175.47548v1.20334h-4.98192v-1.20334zM314.03882,184.71706v-10.51714c0,-0.52947 0.12425,-0.97069 0.37274,-1.32367c0.24885,-0.35298 0.57182,-0.61771 0.96892,-0.7942c0.3971,-0.17647 0.81608,-0.26472 1.25731,-0.26472c0.34909,0 0.63395,0.02808 0.85456,0.08423c0.22061,0.05616 0.3851,0.1083 0.49311,0.15645l-0.4091,1.22737c-0.07201,-0.02404 -0.17225,-0.05415 -0.30074,-0.09022c-0.12425,-0.03611 -0.28874,-0.05418 -0.49346,-0.05418c-0.46911,0 -0.80797,0.11835 -1.01657,0.35499c-0.20473,0.23667 -0.30709,0.58361 -0.30709,1.04089v10.18019zM325.51093,172.39494v4.23573h-1.32367v-4.23573zM328.59137,172.39494v4.23573h-1.32367v-4.23573zM334.87154,184.90961c-0.83444,0 -1.56651,-0.19855 -2.19623,-0.59565c-0.62583,-0.3971 -1.11506,-0.95265 -1.46803,-1.66662c-0.34909,-0.714 -0.52347,-1.5483 -0.52347,-2.50293c0,-0.96268 0.17437,-1.80301 0.52347,-2.521c0.35298,-0.71799 0.8422,-1.27552 1.46803,-1.67262c0.62971,-0.3971 1.36179,-0.59565 2.19623,-0.59565c0.83409,0 1.56404,0.19855 2.18987,0.59565c0.62971,0.3971 1.11929,0.95463 1.46803,1.67262c0.35298,0.71799 0.52947,1.55832 0.52947,2.521c0,0.95463 -0.17649,1.78892 -0.52947,2.50293c-0.34874,0.71397 -0.83832,1.26952 -1.46803,1.66662c-0.62583,0.3971 -1.35579,0.59565 -2.18987,0.59565zM334.87154,183.63405c0.63359,0 1.15494,-0.16244 1.56404,-0.48736c0.4091,-0.32488 0.71196,-0.75205 0.90856,-1.28152c0.19661,-0.52947 0.29474,-1.10305 0.29474,-1.72076c0,-0.61771 -0.09813,-1.19331 -0.29474,-1.7268c-0.19661,-0.53349 -0.49946,-0.96465 -0.90856,-1.29359c-0.4091,-0.3289 -0.93045,-0.49336 -1.56404,-0.49336c-0.63395,0 -1.15529,0.16445 -1.5644,0.49336c-0.4091,0.32894 -0.71196,0.7601 -0.90856,1.29359c-0.19661,0.53349 -0.29474,1.10909 -0.29474,1.7268c0,0.61771 0.09813,1.1913 0.29474,1.72076c0.19661,0.52947 0.49946,0.95664 0.90856,1.28152c0.4091,0.32492 0.93045,0.48736 1.5644,0.48736zM341.90497,175.47548l2.21387,3.77845l2.21423,-3.77845h1.63676l-2.98442,4.62079l2.98442,4.62079h-1.63676l-2.21423,-3.58593l-2.21387,3.58593h-1.63676l2.93642,-4.62079l-2.93642,-4.62079zM351.22322,172.39494v4.23573h-1.32367v-4.23573zM354.30365,172.39494v4.23573h-1.32367v-4.23573zM358.68233,181.25146v-0.07218c0.00812,-0.76614 0.08824,-1.37584 0.24073,-1.82906c0.15249,-0.45326 0.36886,-0.82028 0.64983,-1.10108c0.28062,-0.28076 0.61771,-0.53949 1.01057,-0.77613c0.23685,-0.1444 0.44934,-0.31489 0.63783,-0.51143c0.18849,-0.20056 0.33709,-0.4312 0.4451,-0.69191c0.1126,-0.26074 0.16872,-0.54952 0.16872,-0.86642c0,-0.39308 -0.09248,-0.73402 -0.27673,-1.02282c-0.18461,-0.28881 -0.43134,-0.51143 -0.74019,-0.66783c-0.30886,-0.15644 -0.65195,-0.23466 -1.02893,-0.23466c-0.32897,0 -0.6456,0.0682 -0.95057,0.20455c-0.30497,0.13639 -0.55947,0.351 -0.7642,0.6438c-0.20437,0.29279 -0.32262,0.67588 -0.35474,1.14919h-1.51639c0.03212,-0.68188 0.20861,-1.26549 0.52947,-1.75084c0.32509,-0.48534 0.75219,-0.85639 1.28166,-1.11311c0.53335,-0.25669 1.12494,-0.38506 1.77477,-0.38506c0.70595,0 1.31978,0.14041 1.84113,0.42117c0.52558,0.28079 0.9308,0.66586 1.2153,1.15519c0.28909,0.48937 0.43346,1.04693 0.43346,1.67265c0,0.44122 -0.06848,0.84033 -0.20473,1.1973c-0.13237,0.357 -0.32474,0.67588 -0.57747,0.95667c-0.24885,0.28076 -0.54959,0.52947 -0.90256,0.74605c-0.35298,0.22061 -0.63571,0.45326 -0.8482,0.69794c-0.21285,0.24066 -0.3671,0.52745 -0.46346,0.86038c-0.09636,0.33289 -0.14825,0.74806 -0.15637,1.24545v0.07218zM359.45253,184.81332c-0.29685,0 -0.5517,-0.10628 -0.7642,-0.31888c-0.21249,-0.2126 -0.31874,-0.46727 -0.31874,-0.76413c0,-0.29682 0.10625,-0.55153 0.31874,-0.76409c0.21249,-0.2126 0.46734,-0.31888 0.7642,-0.31888c0.29685,0 0.55135,0.10628 0.7642,0.31888c0.21249,0.21256 0.31874,0.46727 0.31874,0.76409c0,0.19657 -0.05012,0.37705 -0.15037,0.5415c-0.09636,0.16445 -0.22661,0.29682 -0.3911,0.3971c-0.1606,0.09629 -0.34098,0.1444 -0.54147,0.1444z"/></g></g></svg>