<svg xmlns="http://www.w3.org/2000/svg" fill="none" viewBox="0 0 139 164" height="164" width="139">
<path fill="#EEC638" d="M0 20C0 8.95431 8.95431 0 20 0H119C130.046 0 139 8.95431 139 20V144C139 155.046 130.046 164 119 164H20C8.95431 164 0 155.046 0 144V20Z"></path>
<path fill="black" d="M36.2102 135.455V150H34.5341V135.455H36.2102ZM43.854 150.227C42.8029 150.227 41.8962 149.995 41.1339 149.531C40.3763 149.062 39.7915 148.409 39.3796 147.571C38.9724 146.728 38.7688 145.748 38.7688 144.631C38.7688 143.513 38.9724 142.528 39.3796 141.676C39.7915 140.819 40.3645 140.152 41.0984 139.673C41.837 139.19 42.6987 138.949 43.6836 138.949C44.2518 138.949 44.8129 139.044 45.3668 139.233C45.9208 139.422 46.4251 139.73 46.8796 140.156C47.3342 140.578 47.6964 141.136 47.9663 141.832C48.2362 142.528 48.3711 143.385 48.3711 144.403V145.114H39.962V143.665H46.6665C46.6665 143.049 46.5434 142.5 46.2972 142.017C46.0558 141.534 45.7101 141.153 45.2603 140.874C44.8152 140.594 44.2897 140.455 43.6836 140.455C43.016 140.455 42.4383 140.62 41.9506 140.952C41.4677 141.278 41.096 141.705 40.8356 142.23C40.5752 142.756 40.445 143.319 40.445 143.92V144.886C40.445 145.71 40.587 146.409 40.8711 146.982C41.1599 147.55 41.56 147.983 42.0714 148.281C42.5827 148.575 43.177 148.722 43.854 148.722C44.2944 148.722 44.6921 148.66 45.0472 148.537C45.4071 148.409 45.7172 148.22 45.9776 147.969C46.238 147.713 46.4393 147.396 46.5813 147.017L48.2006 147.472C48.0302 148.021 47.7437 148.504 47.3413 148.92C46.9388 149.332 46.4416 149.654 45.8498 149.886C45.2579 150.114 44.5927 150.227 43.854 150.227ZM55.6651 139.091V140.511H50.0117V139.091H55.6651ZM51.6594 136.477H53.3356V146.875C53.3356 147.348 53.4042 147.704 53.5415 147.94C53.6836 148.172 53.8635 148.329 54.0813 148.409C54.3039 148.485 54.5382 148.523 54.7844 148.523C54.9691 148.523 55.1206 148.513 55.239 148.494C55.3574 148.471 55.4521 148.452 55.5231 148.438L55.864 149.943C55.7504 149.986 55.5917 150.028 55.3881 150.071C55.1845 150.118 54.9265 150.142 54.614 150.142C54.1405 150.142 53.6765 150.04 53.2219 149.837C52.7721 149.633 52.3981 149.323 52.0998 148.906C51.8062 148.49 51.6594 147.964 51.6594 147.33V136.477ZM62.9308 139.091V140.511H57.2773V139.091H62.9308ZM58.9251 136.477H60.6012V146.875C60.6012 147.348 60.6699 147.704 60.8072 147.94C60.9492 148.172 61.1291 148.329 61.3469 148.409C61.5695 148.485 61.8039 148.523 62.0501 148.523C62.2347 148.523 62.3862 148.513 62.5046 148.494C62.623 148.471 62.7177 148.452 62.7887 148.438L63.1296 149.943C63.016 149.986 62.8574 150.028 62.6538 150.071C62.4502 150.118 62.1921 150.142 61.8796 150.142C61.4061 150.142 60.9421 150.04 60.4876 149.837C60.0378 149.633 59.6637 149.323 59.3654 148.906C59.0719 148.49 58.9251 147.964 58.9251 147.33V136.477ZM69.9087 150.227C68.8576 150.227 67.9509 149.995 67.1886 149.531C66.431 149.062 65.8462 148.409 65.4343 147.571C65.0271 146.728 64.8235 145.748 64.8235 144.631C64.8235 143.513 65.0271 142.528 65.4343 141.676C65.8462 140.819 66.4192 140.152 67.1531 139.673C67.8917 139.19 68.7534 138.949 69.7383 138.949C70.3065 138.949 70.8675 139.044 71.4215 139.233C71.9755 139.422 72.4798 139.73 72.9343 140.156C73.3888 140.578 73.7511 141.136 74.021 141.832C74.2908 142.528 74.4258 143.385 74.4258 144.403V145.114H66.0167V143.665H72.7212C72.7212 143.049 72.5981 142.5 72.3519 142.017C72.1104 141.534 71.7648 141.153 71.315 140.874C70.8699 140.594 70.3443 140.455 69.7383 140.455C69.0707 140.455 68.493 140.62 68.0053 140.952C67.5224 141.278 67.1507 141.705 66.8903 142.23C66.6299 142.756 66.4996 143.319 66.4996 143.92V144.886C66.4996 145.71 66.6417 146.409 66.9258 146.982C67.2146 147.55 67.6147 147.983 68.1261 148.281C68.6374 148.575 69.2317 148.722 69.9087 148.722C70.3491 148.722 70.7468 148.66 71.1019 148.537C71.4618 148.409 71.7719 148.22 72.0323 147.969C72.2927 147.713 72.494 147.396 72.636 147.017L74.2553 147.472C74.0849 148.021 73.7984 148.504 73.396 148.92C72.9935 149.332 72.4963 149.654 71.9045 149.886C71.3126 150.114 70.6474 150.227 69.9087 150.227ZM76.9755 150V139.091H78.5948V140.739H78.7085C78.9073 140.199 79.2672 139.761 79.788 139.425C80.3088 139.089 80.896 138.92 81.5494 138.92C81.6725 138.92 81.8263 138.923 82.011 138.928C82.1957 138.932 82.3353 138.939 82.43 138.949V140.653C82.3732 140.639 82.243 140.618 82.0394 140.589C81.8406 140.556 81.6299 140.54 81.4073 140.54C80.877 140.54 80.4035 140.651 79.9869 140.874C79.5749 141.091 79.2482 141.394 79.0067 141.783C78.77 142.166 78.6516 142.604 78.6516 143.097V150H76.9755ZM94.7578 150H90.2692V135.455H94.9567C96.3677 135.455 97.575 135.746 98.5788 136.328C99.5826 136.906 100.352 137.737 100.887 138.821C101.422 139.901 101.69 141.193 101.69 142.699C101.69 144.214 101.42 145.518 100.88 146.612C100.34 147.701 99.5542 148.539 98.522 149.126C97.4898 149.709 96.2351 150 94.7578 150ZM92.0305 148.438H94.6442C95.8468 148.438 96.8435 148.205 97.6342 147.741C98.425 147.277 99.0144 146.617 99.4027 145.76C99.791 144.903 99.9851 143.883 99.9851 142.699C99.9851 141.525 99.7933 140.514 99.4098 139.666C99.0263 138.814 98.4534 138.161 97.6911 137.706C96.9287 137.247 95.9794 137.017 94.843 137.017H92.0305V148.438Z"></path>
<path fill="black" d="M49.8211 75H47.0512L55.0626 53.1818H57.7899L65.8012 75H63.0313L56.5115 56.6335H56.341L49.8211 75ZM50.8438 66.4773H62.0086V68.821H50.8438V66.4773ZM74.9498 58.6364V60.767H66.4697V58.6364H74.9498ZM68.9413 54.7159H71.4555V70.3125C71.4555 71.0227 71.5585 71.5554 71.7645 71.9105C71.9775 72.2585 72.2474 72.4929 72.5741 72.6136C72.9079 72.7273 73.2595 72.7841 73.6288 72.7841C73.9058 72.7841 74.1331 72.7699 74.3106 72.7415C74.4882 72.706 74.6302 72.6776 74.7368 72.6562L75.2481 74.9148C75.0777 74.9787 74.8398 75.0426 74.5344 75.1065C74.229 75.1776 73.8419 75.2131 73.3731 75.2131C72.6629 75.2131 71.9669 75.0604 71.2851 74.755C70.6104 74.4496 70.0493 73.9844 69.6018 73.3594C69.1615 72.7344 68.9413 71.946 68.9413 70.9943V54.7159ZM85.4168 75.3409C83.8401 75.3409 82.48 74.9929 81.3366 74.2969C80.2002 73.5938 79.3231 72.6136 78.7052 71.3565C78.0944 70.0923 77.789 68.6222 77.789 66.946C77.789 65.2699 78.0944 63.7926 78.7052 62.5142C79.3231 61.2287 80.1824 60.2273 81.2833 59.5099C82.3912 58.7855 83.6839 58.4233 85.1611 58.4233C86.0134 58.4233 86.855 58.5653 87.686 58.8494C88.517 59.1335 89.2733 59.5952 89.9552 60.2344C90.637 60.8665 91.1803 61.7045 91.5851 62.7486C91.99 63.7926 92.1924 65.0781 92.1924 66.6051V67.6705H79.5787V65.4972H89.6356C89.6356 64.5739 89.4509 63.75 89.0816 63.0256C88.7194 62.3011 88.2009 61.7294 87.5262 61.3104C86.8586 60.8913 86.0702 60.6818 85.1611 60.6818C84.1597 60.6818 83.2932 60.9304 82.5617 61.4276C81.8373 61.9176 81.2797 62.5568 80.8891 63.3452C80.4985 64.1335 80.3032 64.9787 80.3032 65.8807V67.3295C80.3032 68.5653 80.5162 69.6129 80.9424 70.4723C81.3756 71.3246 81.9758 71.9744 82.7428 72.4219C83.5099 72.8622 84.4012 73.0824 85.4168 73.0824C86.0773 73.0824 86.6739 72.9901 87.2066 72.8054C87.7464 72.6136 88.2116 72.3295 88.6022 71.9531C88.9928 71.5696 89.2947 71.0937 89.5077 70.5256L91.9367 71.2074C91.681 72.0312 91.2513 72.7557 90.6476 73.3807C90.0439 73.9986 89.2982 74.4815 88.4104 74.8295C87.5226 75.1705 86.5248 75.3409 85.4168 75.3409Z"></path>
</svg>
