<svg xmlns="http://www.w3.org/2000/svg" fill="none" viewBox="0 0 139 164" height="164" width="139">
<path fill="#43D059" d="M0 20C0 8.95431 8.95431 0 20 0H119C130.046 0 139 8.95431 139 20V144C139 155.046 130.046 164 119 164H20C8.95431 164 0 155.046 0 144V20Z"></path>
<path fill="black" d="M36.2102 135.455V150H34.5341V135.455H36.2102ZM43.854 150.227C42.8029 150.227 41.8962 149.995 41.1339 149.531C40.3763 149.062 39.7915 148.409 39.3796 147.571C38.9724 146.728 38.7688 145.748 38.7688 144.631C38.7688 143.513 38.9724 142.528 39.3796 141.676C39.7915 140.819 40.3645 140.152 41.0984 139.673C41.837 139.19 42.6987 138.949 43.6836 138.949C44.2518 138.949 44.8129 139.044 45.3668 139.233C45.9208 139.422 46.4251 139.73 46.8796 140.156C47.3342 140.578 47.6964 141.136 47.9663 141.832C48.2362 142.528 48.3711 143.385 48.3711 144.403V145.114H39.962V143.665H46.6665C46.6665 143.049 46.5434 142.5 46.2972 142.017C46.0558 141.534 45.7101 141.153 45.2603 140.874C44.8152 140.594 44.2897 140.455 43.6836 140.455C43.016 140.455 42.4383 140.62 41.9506 140.952C41.4677 141.278 41.096 141.705 40.8356 142.23C40.5752 142.756 40.445 143.319 40.445 143.92V144.886C40.445 145.71 40.587 146.409 40.8711 146.982C41.1599 147.55 41.56 147.983 42.0714 148.281C42.5827 148.575 43.177 148.722 43.854 148.722C44.2944 148.722 44.6921 148.66 45.0472 148.537C45.4071 148.409 45.7172 148.22 45.9776 147.969C46.238 147.713 46.4393 147.396 46.5813 147.017L48.2006 147.472C48.0302 148.021 47.7437 148.504 47.3413 148.92C46.9388 149.332 46.4416 149.654 45.8498 149.886C45.2579 150.114 44.5927 150.227 43.854 150.227ZM55.6651 139.091V140.511H50.0117V139.091H55.6651ZM51.6594 136.477H53.3356V146.875C53.3356 147.348 53.4042 147.704 53.5415 147.94C53.6836 148.172 53.8635 148.329 54.0813 148.409C54.3039 148.485 54.5382 148.523 54.7844 148.523C54.9691 148.523 55.1206 148.513 55.239 148.494C55.3574 148.471 55.4521 148.452 55.5231 148.438L55.864 149.943C55.7504 149.986 55.5917 150.028 55.3881 150.071C55.1845 150.118 54.9265 150.142 54.614 150.142C54.1405 150.142 53.6765 150.04 53.2219 149.837C52.7721 149.633 52.3981 149.323 52.0998 148.906C51.8062 148.49 51.6594 147.964 51.6594 147.33V136.477ZM62.9308 139.091V140.511H57.2773V139.091H62.9308ZM58.9251 136.477H60.6012V146.875C60.6012 147.348 60.6699 147.704 60.8072 147.94C60.9492 148.172 61.1291 148.329 61.3469 148.409C61.5695 148.485 61.8039 148.523 62.0501 148.523C62.2347 148.523 62.3862 148.513 62.5046 148.494C62.623 148.471 62.7177 148.452 62.7887 148.438L63.1296 149.943C63.016 149.986 62.8574 150.028 62.6538 150.071C62.4502 150.118 62.1921 150.142 61.8796 150.142C61.4061 150.142 60.9421 150.04 60.4876 149.837C60.0378 149.633 59.6637 149.323 59.3654 148.906C59.0719 148.49 58.9251 147.964 58.9251 147.33V136.477ZM69.9087 150.227C68.8576 150.227 67.9509 149.995 67.1886 149.531C66.431 149.062 65.8462 148.409 65.4343 147.571C65.0271 146.728 64.8235 145.748 64.8235 144.631C64.8235 143.513 65.0271 142.528 65.4343 141.676C65.8462 140.819 66.4192 140.152 67.1531 139.673C67.8917 139.19 68.7534 138.949 69.7383 138.949C70.3065 138.949 70.8675 139.044 71.4215 139.233C71.9755 139.422 72.4798 139.73 72.9343 140.156C73.3888 140.578 73.7511 141.136 74.021 141.832C74.2908 142.528 74.4258 143.385 74.4258 144.403V145.114H66.0167V143.665H72.7212C72.7212 143.049 72.5981 142.5 72.3519 142.017C72.1104 141.534 71.7648 141.153 71.315 140.874C70.8699 140.594 70.3443 140.455 69.7383 140.455C69.0707 140.455 68.493 140.62 68.0053 140.952C67.5224 141.278 67.1507 141.705 66.8903 142.23C66.6299 142.756 66.4996 143.319 66.4996 143.92V144.886C66.4996 145.71 66.6417 146.409 66.9258 146.982C67.2146 147.55 67.6147 147.983 68.1261 148.281C68.6374 148.575 69.2317 148.722 69.9087 148.722C70.3491 148.722 70.7468 148.66 71.1019 148.537C71.4618 148.409 71.7719 148.22 72.0323 147.969C72.2927 147.713 72.494 147.396 72.636 147.017L74.2553 147.472C74.0849 148.021 73.7984 148.504 73.396 148.92C72.9935 149.332 72.4963 149.654 71.9045 149.886C71.3126 150.114 70.6474 150.227 69.9087 150.227ZM76.9755 150V139.091H78.5948V140.739H78.7085C78.9073 140.199 79.2672 139.761 79.788 139.425C80.3088 139.089 80.896 138.92 81.5494 138.92C81.6725 138.92 81.8263 138.923 82.011 138.928C82.1957 138.932 82.3353 138.939 82.43 138.949V140.653C82.3732 140.639 82.243 140.618 82.0394 140.589C81.8406 140.556 81.6299 140.54 81.4073 140.54C80.877 140.54 80.4035 140.651 79.9869 140.874C79.5749 141.091 79.2482 141.394 79.0067 141.783C78.77 142.166 78.6516 142.604 78.6516 143.097V150H76.9755ZM101.974 140H100.212C100.108 139.493 99.9259 139.048 99.6655 138.665C99.4098 138.281 99.0973 137.959 98.728 137.699C98.3634 137.434 97.9586 137.235 97.5135 137.102C97.0684 136.97 96.6044 136.903 96.1214 136.903C95.2408 136.903 94.4429 137.126 93.728 137.571C93.0178 138.016 92.4519 138.672 92.0305 139.538C91.6139 140.405 91.4055 141.468 91.4055 142.727C91.4055 143.987 91.6139 145.05 92.0305 145.916C92.4519 146.783 93.0178 147.438 93.728 147.884C94.4429 148.329 95.2408 148.551 96.1214 148.551C96.6044 148.551 97.0684 148.485 97.5135 148.352C97.9586 148.22 98.3634 148.023 98.728 147.763C99.0973 147.498 99.4098 147.173 99.6655 146.79C99.9259 146.402 100.108 145.956 100.212 145.455H101.974C101.841 146.198 101.6 146.863 101.249 147.45C100.899 148.037 100.463 148.537 99.9425 148.949C99.4216 149.356 98.8369 149.666 98.1882 149.879C97.5443 150.092 96.8554 150.199 96.1214 150.199C94.8809 150.199 93.7777 149.896 92.8118 149.29C91.8459 148.684 91.0859 147.822 90.532 146.705C89.978 145.587 89.701 144.261 89.701 142.727C89.701 141.193 89.978 139.867 90.532 138.75C91.0859 137.633 91.8459 136.771 92.8118 136.165C93.7777 135.559 94.8809 135.256 96.1214 135.256C96.8554 135.256 97.5443 135.362 98.1882 135.575C98.8369 135.788 99.4216 136.101 99.9425 136.513C100.463 136.92 100.899 137.417 101.249 138.004C101.6 138.587 101.841 139.252 101.974 140Z"></path>
<path fill="black" d="M63.4362 67H60.7941C60.6379 66.2401 60.3644 65.5724 59.9738 64.9972C59.5903 64.4219 59.1215 63.9389 58.5676 63.5483C58.0207 63.1506 57.4134 62.8523 56.7458 62.6534C56.0782 62.4545 55.3822 62.3551 54.6578 62.3551C53.3367 62.3551 52.14 62.6889 51.0676 63.3565C50.0022 64.0241 49.1535 65.0078 48.5214 66.3075C47.8964 67.6072 47.5839 69.2017 47.5839 71.0909C47.5839 72.9801 47.8964 74.5746 48.5214 75.8743C49.1535 77.174 50.0022 78.1577 51.0676 78.8253C52.14 79.4929 53.3367 79.8267 54.6578 79.8267C55.3822 79.8267 56.0782 79.7273 56.7458 79.5284C57.4134 79.3295 58.0207 79.0348 58.5676 78.6442C59.1215 78.2464 59.5903 77.7599 59.9738 77.1847C60.3644 76.6023 60.6379 75.9347 60.7941 75.1818H63.4362C63.2373 76.2969 62.8751 77.2947 62.3495 78.1754C61.824 79.0561 61.1705 79.8054 60.3893 80.4233C59.608 81.0341 58.7309 81.4993 57.7579 81.8189C56.792 82.1385 55.7586 82.2983 54.6578 82.2983C52.797 82.2983 51.1421 81.8438 49.6933 80.9347C48.2444 80.0256 47.1045 78.733 46.2735 77.0568C45.4426 75.3807 45.0271 73.392 45.0271 71.0909C45.0271 68.7898 45.4426 66.8011 46.2735 65.125C47.1045 63.4489 48.2444 62.1562 49.6933 61.2472C51.1421 60.3381 52.797 59.8835 54.6578 59.8835C55.7586 59.8835 56.792 60.0433 57.7579 60.3629C58.7309 60.6825 59.608 61.1513 60.3893 61.7692C61.1705 62.38 61.824 63.1257 62.3495 64.0064C62.8751 64.88 63.2373 65.8778 63.4362 67ZM74.2254 82.3409C72.6487 82.3409 71.2886 81.9929 70.1452 81.2969C69.0088 80.5938 68.1317 79.6136 67.5138 78.3565C66.903 77.0923 66.5976 75.6222 66.5976 73.946C66.5976 72.2699 66.903 70.7926 67.5138 69.5142C68.1317 68.2287 68.991 67.2273 70.0919 66.5099C71.1998 65.7855 72.4925 65.4233 73.9697 65.4233C74.822 65.4233 75.6636 65.5653 76.4946 65.8494C77.3256 66.1335 78.0819 66.5952 78.7638 67.2344C79.4456 67.8665 79.9889 68.7045 80.3937 69.7486C80.7986 70.7926 81.001 72.0781 81.001 73.6051V74.6705H68.3873V72.4972H78.4442C78.4442 71.5739 78.2595 70.75 77.8902 70.0256C77.528 69.3011 77.0095 68.7294 76.3348 68.3104C75.6672 67.8913 74.8788 67.6818 73.9697 67.6818C72.9683 67.6818 72.1018 67.9304 71.3703 68.4276C70.6459 68.9176 70.0883 69.5568 69.6977 70.3452C69.3071 71.1335 69.1118 71.9787 69.1118 72.8807V74.3295C69.1118 75.5653 69.3248 76.6129 69.751 77.4723C70.1842 78.3246 70.7844 78.9744 71.5514 79.4219C72.3184 79.8622 73.2098 80.0824 74.2254 80.0824C74.8859 80.0824 75.4825 79.9901 76.0152 79.8054C76.555 79.6136 77.0202 79.3295 77.4108 78.9531C77.8014 78.5696 78.1032 78.0937 78.3163 77.5256L80.7453 78.2074C80.4896 79.0312 80.0599 79.7557 79.4562 80.3807C78.8525 80.9986 78.1068 81.4815 77.219 81.8295C76.3312 82.1705 75.3334 82.3409 74.2254 82.3409ZM87.3398 60.1818V82H84.8256V60.1818H87.3398ZM94.4589 60.1818V82H91.9447V60.1818H94.4589Z"></path>
</svg>
