<svg version="1.1" xmlns="http://www.w3.org/2000/svg" xmlns:xlink="http://www.w3.org/1999/xlink" width="238.5031" height="40.10387" viewBox="0,0,238.5031,40.10387"><g transform="translate(-120.74845,-159.94806)"><g data-paper-data="{&quot;isPaintingLayer&quot;:true}" fill="#ffffff" fill-rule="nonzero" stroke="none" stroke-width="1" stroke-linecap="butt" stroke-linejoin="miter" stroke-miterlimit="10" stroke-dasharray="" stroke-dashoffset="0" style="mix-blend-mode: normal"><path d="M124.77128,175.34974l-4.02283,-14.71204h1.81027l3.07457,11.98225h0.14367l3.13209,-11.98225h2.0114l3.13205,11.98225h0.14367l3.0746,-11.98225h1.81025l-4.0228,14.71204h-1.83903l-3.24697,-11.72366h-0.11493l-3.24701,11.72366zM142.76619,168.71209v6.63766h-1.69532v-14.71204h1.69532v5.40208h0.14371c0.25859,-0.56991 0.64649,-1.02245 1.16372,-1.35771c0.52204,-0.34002 1.21644,-0.51002 2.08325,-0.51002c0.75189,0 1.41039,0.15083 1.97549,0.45254c0.56511,0.29695 1.00332,0.75429 1.31459,1.37208c0.31608,0.61302 0.47412,1.39361 0.47412,2.34185v7.01122h-1.69532v-6.89625c0,-0.87642 -0.22749,-1.55405 -0.68244,-2.03298c-0.45018,-0.48368 -1.07517,-0.72555 -1.87494,-0.72555c-0.55554,0 -1.0536,0.11733 -1.49417,0.35199c-0.43581,0.2347 -0.78063,0.57712 -1.03446,1.02726c-0.24903,0.45018 -0.37356,0.99615 -0.37356,1.63788zM156.26959,175.60851c-0.69921,0 -1.33373,-0.13191 -1.90364,-0.39531c-0.56991,-0.26803 -1.02245,-0.65365 -1.35771,-1.15643c-0.33525,-0.50771 -0.50286,-1.12073 -0.50286,-1.83907c0,-0.63216 0.12454,-1.14458 0.37356,-1.53728c0.24903,-0.3975 0.58188,-0.70882 0.99851,-0.93391c0.41663,-0.22505 0.87638,-0.3927 1.37924,-0.50282c0.50766,-0.11497 1.01769,-0.20596 1.53012,-0.27301c0.67047,-0.08618 1.21404,-0.15083 1.63067,-0.19395c0.42144,-0.04788 0.72795,-0.1269 0.91949,-0.23706c0.19639,-0.11016 0.29454,-0.30171 0.29454,-0.57467v-0.05748c0,-0.70878 -0.19395,-1.25951 -0.58188,-1.65221c-0.38313,-0.39274 -0.96497,-0.58909 -1.7456,-0.58909c-0.80937,0 -1.44393,0.17721 -1.90368,0.5316c-0.45975,0.35439 -0.78299,0.73271 -0.96977,1.13502l-1.60914,-0.57472c0.28734,-0.67047 0.67047,-1.19246 1.14939,-1.56602c0.48368,-0.37833 1.01048,-0.64172 1.58039,-0.7902c0.57467,-0.15324 1.13978,-0.22985 1.69532,-0.22985c0.35439,0 0.76146,0.04307 1.2212,0.1293c0.46455,0.08142 0.91233,0.25143 1.34334,0.51002c0.43581,0.25864 0.7974,0.64893 1.08474,1.17092c0.28734,0.52204 0.43101,1.22124 0.43101,2.09763v7.26981h-1.69532v-1.494h-0.08618c-0.11497,0.23938 -0.30651,0.49561 -0.57472,0.76828c-0.26816,0.27309 -0.62495,0.5053 -1.07033,0.69706c-0.44542,0.19133 -0.98895,0.28742 -1.63071,0.28742zM156.52823,174.08543c0.67047,0 1.23557,-0.13149 1.69532,-0.39531c0.46455,-0.26319 0.81413,-0.6032 1.04879,-1.01988c0.23946,-0.41663 0.35919,-0.85485 0.35919,-1.31459v-1.55165c-0.07181,0.08623 -0.22985,0.16525 -0.47412,0.23706c-0.23946,0.06705 -0.51723,0.1269 -0.83331,0.17957c-0.31127,0.04792 -0.61538,0.09103 -0.91229,0.12934c-0.29214,0.0335 -0.5292,0.06225 -0.71118,0.08618c-0.44061,0.05748 -0.85249,0.15087 -1.23562,0.28017c-0.37833,0.12449 -0.68484,0.31368 -0.91949,0.56751c-0.22985,0.24903 -0.34482,0.58904 -0.34482,1.02005c0,0.58909 0.21793,1.03446 0.65374,1.33617c0.44057,0.29703 0.99851,0.44538 1.67379,0.44538zM169.21989,164.31572v1.43673h-5.71808v-1.43673zM165.16818,161.67217h1.69545v10.51679c0,0.47892 0.06954,0.83807 0.20819,1.07753c0.14371,0.23466 0.32577,0.3927 0.54618,0.4742c0.22505,0.0767 0.4619,0.11505 0.71097,0.11505c0.1867,0 0.3401,-0.00969 0.45979,-0.02908c0.11969,-0.0236 0.21578,-0.04299 0.28742,-0.05732l0.34474,1.52308c-0.11505,0.04299 -0.2752,0.08597 -0.48128,0.12896c-0.20566,0.04804 -0.46695,0.07207 -0.78303,0.07207c-0.47875,0 -0.94824,-0.10283 -1.40803,-0.30891c-0.45473,-0.20608 -0.83318,-0.51963 -1.13493,-0.94107c-0.29669,-0.42144 -0.44546,-0.95304 -0.44546,-1.59477zM177.45943,175.34974v-11.03402h1.69545v11.03402zM178.32169,162.47669c-0.33083,0 -0.61572,-0.11252 -0.8551,-0.33761c-0.23474,-0.22509 -0.3519,-0.49565 -0.3519,-0.81173c0,-0.31608 0.11716,-0.58668 0.3519,-0.81177c0.23938,-0.22509 0.52427,-0.33761 0.8551,-0.33761c0.33041,0 0.61277,0.11252 0.84751,0.33761c0.23938,0.22509 0.35907,0.4957 0.35907,0.81177c0,0.31608 -0.11969,0.58664 -0.35907,0.81173c-0.23474,0.22509 -0.51711,0.33761 -0.84751,0.33761zM190.07561,166.78687l-1.52266,0.43101c-0.09609,-0.25379 -0.23727,-0.50046 -0.42397,-0.73988c-0.18206,-0.24427 -0.43113,-0.44542 -0.74721,-0.60346c-0.31608,-0.15804 -0.72066,-0.23706 -1.21416,-0.23706c-0.67514,0 -1.23776,0.15568 -1.68786,0.46695c-0.44546,0.30651 -0.66798,0.69681 -0.66798,1.17092c0,0.42144 0.15298,0.75429 0.45937,0.99851c0.30681,0.24427 0.78556,0.44778 1.43711,0.61062l1.63771,0.40226c0.98659,0.23946 1.72158,0.60582 2.20539,1.09911c0.48381,0.48849 0.7253,1.11824 0.7253,1.88927c0,0.63216 -0.18164,1.19731 -0.54576,1.69524c-0.35907,0.49814 -0.86184,0.89092 -1.50875,1.17834c-0.64649,0.28742 -1.39833,0.43071 -2.25554,0.43071c-1.12524,0 -2.05704,-0.24401 -2.79456,-0.73246c-0.73752,-0.48845 -1.20405,-1.20215 -1.40044,-2.14078l1.60905,-0.40231c0.15298,0.59385 0.44293,1.03923 0.86901,1.33617c0.43113,0.29703 0.99375,0.44538 1.68828,0.44538c0.7902,0 1.41772,-0.16773 1.88214,-0.50286c0.46948,-0.34002 0.7038,-0.74708 0.7038,-1.2212c0,-0.38313 -0.13402,-0.70401 -0.40205,-0.96261c-0.26846,-0.2634 -0.6802,-0.45975 -1.23566,-0.58904l-1.83916,-0.43105c-1.01019,-0.23942 -1.75276,-0.61058 -2.22688,-1.11344c-0.46906,-0.50762 -0.7038,-1.14218 -0.7038,-1.90364c0,-0.62259 0.1749,-1.17333 0.52427,-1.65225c0.35443,-0.47892 0.83571,-0.85485 1.44385,-1.12781c0.61319,-0.27301 1.30772,-0.40947 2.08317,-0.40947c1.09195,0 1.94915,0.23946 2.57204,0.71834c0.6271,0.47892 1.07256,1.11108 1.33596,1.89647zM203.31679,164.31572v1.43673h-5.71808v-1.43673zM199.2655,161.67217h1.69503v10.51679c0,0.47892 0.06954,0.83807 0.20861,1.07753c0.14371,0.23466 0.32535,0.3927 0.54576,0.4742c0.22505,0.0767 0.46232,0.11505 0.71139,0.11505c0.1867,0 0.33968,-0.00969 0.45937,-0.02908c0.12011,-0.0236 0.21578,-0.04299 0.28742,-0.05732l0.34474,1.52308c-0.11463,0.04299 -0.2752,0.08597 -0.48128,0.12896c-0.20566,0.04804 -0.46695,0.07207 -0.78303,0.07207c-0.47875,0 -0.94824,-0.10283 -1.4076,-0.30891c-0.45515,-0.20608 -0.83361,-0.51963 -1.13536,-0.94107c-0.29669,-0.42144 -0.44504,-0.95304 -0.44504,-1.59477zM207.79963,168.71209v6.63766h-1.69545v-14.71204h1.69545v5.40208h0.14329c0.25876,-0.56991 0.64691,-1.02245 1.16401,-1.35771c0.52174,-0.34002 1.21627,-0.51002 2.08317,-0.51002c0.75185,0 1.41055,0.15083 1.97528,0.45254c0.56515,0.29695 1.00345,0.75429 1.31489,1.37208c0.31608,0.61302 0.47412,1.39361 0.47412,2.34185v7.01122h-1.69545v-6.89625c0,-0.87642 -0.22758,-1.55405 -0.68231,-2.03298c-0.4501,-0.48368 -1.07509,-0.72555 -1.87498,-0.72555c-0.55546,0 -1.0536,0.11733 -1.49442,0.35199c-0.43577,0.2347 -0.7805,0.57712 -1.03421,1.02726c-0.24907,0.45018 -0.37339,0.99615 -0.37339,1.63788zM222.68189,175.57943c-1.06287,0 -1.97992,-0.23432 -2.75115,-0.7038c-0.76618,-0.47412 -1.35787,-1.13493 -1.77426,-1.98266c-0.41175,-0.85249 -0.61783,-1.84379 -0.61783,-2.97405c0,-1.13021 0.20608,-2.12633 0.61783,-2.98838c0.41638,-0.86681 0.99586,-1.54209 1.73843,-2.02577c0.74721,-0.48849 1.61875,-0.73271 2.6146,-0.73271c0.57484,0 1.14252,0.09575 1.70261,0.28734c0.56051,0.19154 1.07045,0.50286 1.53024,0.93387c0.45979,0.42624 0.82602,0.99135 1.09911,1.69532c0.27309,0.70401 0.40922,1.57083 0.40922,2.60049v0.71834h-8.50505v-1.46543h6.78095c0,-0.62259 -0.12432,-1.17813 -0.37339,-1.66662c-0.24401,-0.48849 -0.59381,-0.87402 -1.04896,-1.15655c-0.4501,-0.28257 -0.98153,-0.42384 -1.59472,-0.42384c-0.67514,0 -1.25926,0.16761 -1.75276,0.50286c-0.48845,0.33045 -0.86437,0.76146 -1.12777,1.29306c-0.2634,0.53156 -0.39489,1.10147 -0.39489,1.70969v0.97698c0,0.83327 0.14371,1.53968 0.43071,2.11916c0.29248,0.57467 0.69706,1.01289 1.21416,1.31459c0.51711,0.29711 1.11808,0.44546 1.80291,0.44546c0.44546,0 0.84793,-0.06237 1.207,-0.1867c0.36412,-0.12938 0.67767,-0.32101 0.94107,-0.57484c0.2634,-0.25859 0.46695,-0.57948 0.61066,-0.96261l1.63771,0.45975c-0.17237,0.55554 -0.4619,1.04399 -0.86901,1.46543c-0.40711,0.4168 -0.90989,0.74215 -1.50875,0.97689c-0.59844,0.23011 -1.27148,0.34474 -2.01869,0.34474zM235.51932,179.48743v-15.1717h1.63771v1.7528h0.20103c0.12475,-0.19159 0.29711,-0.43581 0.51753,-0.73276c0.22505,-0.30171 0.54576,-0.56987 0.96257,-0.80457c0.42144,-0.23942 0.99122,-0.35915 1.70978,-0.35915c0.92885,0 1.74771,0.23225 2.45656,0.69681c0.70886,0.46455 1.26179,1.12305 1.65962,1.97549c0.39742,0.85244 0.59591,1.85816 0.59591,3.01712c0,1.16852 -0.1985,2.18141 -0.59591,3.03866c-0.39784,0.85236 -0.94824,1.51317 -1.65246,1.98266c-0.7038,0.46443 -1.51549,0.69664 -2.43507,0.69664c-0.70886,0 -1.27654,-0.11716 -1.70261,-0.3519c-0.42607,-0.23938 -0.75437,-0.50994 -0.98406,-0.81169c-0.23011,-0.30639 -0.40711,-0.56009 -0.53186,-0.76141h-0.14371v5.833zM237.18569,169.83273c0,0.83331 0.12222,1.56843 0.36665,2.20535c0.24401,0.63216 0.60097,1.12785 1.07003,1.48705c0.46948,0.35422 1.04432,0.53164 1.7241,0.53164c0.70886,0 1.30014,-0.1867 1.77426,-0.56039c0.47918,-0.37837 0.83824,-0.88599 1.07762,-1.52295c0.24443,-0.64172 0.36665,-1.3553 0.36665,-2.1407c0,-0.77583 -0.11969,-1.47503 -0.35949,-2.09763c-0.23432,-0.62735 -0.59128,-1.12305 -1.07003,-1.487c-0.47412,-0.36876 -1.07045,-0.55314 -1.78901,-0.55314c-0.68947,0 -1.26895,0.17481 -1.73843,0.5244c-0.46906,0.34482 -0.82349,0.82851 -1.06287,1.4511c-0.2398,0.61779 -0.35949,1.33853 -0.35949,2.16227zM251.09316,175.60851c-0.69917,0 -1.33385,-0.13191 -1.90364,-0.39531c-0.56978,-0.26803 -1.02241,-0.65365 -1.35745,-1.15643c-0.33547,-0.50771 -0.5032,-1.12073 -0.5032,-1.83907c0,-0.63216 0.12475,-1.14458 0.37382,-1.53728c0.24907,-0.3975 0.58159,-0.70882 0.99839,-0.93391c0.4168,-0.22505 0.87659,-0.3927 1.37937,-0.50282c0.50741,-0.11497 1.01777,-0.20596 1.53024,-0.27301c0.67009,-0.08618 1.21374,-0.15083 1.63055,-0.19395c0.42144,-0.04788 0.72782,-0.1269 0.91958,-0.23706c0.19639,-0.11016 0.29459,-0.30171 0.29459,-0.57467v-0.05748c0,-0.70878 -0.19428,-1.25951 -0.58201,-1.65221c-0.38309,-0.39274 -0.96509,-0.58909 -1.7456,-0.58909c-0.80958,0 -1.44385,0.17721 -1.90364,0.5316c-0.45979,0.35439 -0.78303,0.73271 -0.96973,1.13502l-1.60947,-0.57472c0.28742,-0.67047 0.67051,-1.19246 1.14968,-1.56602c0.48339,-0.37833 1.01019,-0.64172 1.58039,-0.7902c0.57442,-0.15324 1.13957,-0.22985 1.69503,-0.22985c0.35443,0 0.76154,0.04307 1.22133,0.1293c0.46443,0.08142 0.91241,0.25143 1.34355,0.51002c0.43577,0.25864 0.79736,0.64893 1.08478,1.17092c0.287,0.52204 0.43071,1.22124 0.43071,2.09763v7.26981h-1.69503v-1.494h-0.08639c-0.11505,0.23938 -0.30639,0.49561 -0.57484,0.76828c-0.26803,0.27309 -0.62499,0.5053 -1.07003,0.69706c-0.44546,0.19133 -0.98912,0.28742 -1.63097,0.28742zM251.35192,174.08543c0.67051,0 1.23566,-0.13149 1.69545,-0.39531c0.46443,-0.26319 0.8138,-0.6032 1.04854,-1.01988c0.23938,-0.41663 0.35949,-0.85485 0.35949,-1.31459v-1.55165c-0.07207,0.08623 -0.23011,0.16525 -0.47412,0.23706c-0.2398,0.06705 -0.51753,0.1269 -0.83361,0.17957c-0.31102,0.04792 -0.6153,0.09103 -0.91241,0.12934c-0.29206,0.0335 -0.52891,0.06225 -0.71097,0.08618c-0.4404,0.05748 -0.85257,0.15087 -1.23566,0.28017c-0.37845,0.12449 -0.68484,0.31368 -0.91958,0.56751c-0.22968,0.24903 -0.34474,0.58904 -0.34474,1.02005c0,0.58909 0.21788,1.03446 0.65365,1.33617c0.44082,0.29703 0.99881,0.44538 1.67395,0.44538zM267.06062,166.78687l-1.52308,0.43101c-0.09567,-0.25379 -0.23685,-0.50046 -0.42355,-0.73988c-0.18206,-0.24427 -0.43113,-0.44542 -0.74721,-0.60346c-0.31608,-0.15804 -0.72066,-0.23706 -1.21416,-0.23706c-0.67514,0 -1.23776,0.15568 -1.68786,0.46695c-0.44546,0.30651 -0.6684,0.69681 -0.6684,1.17092c0,0.42144 0.1534,0.75429 0.45979,0.99851c0.30681,0.24427 0.78556,0.44778 1.43668,0.61062l1.63813,0.40226c0.98659,0.23946 1.72158,0.60582 2.20539,1.09911c0.48339,0.48849 0.7253,1.11824 0.7253,1.88927c0,0.63216 -0.18206,1.19731 -0.54576,1.69524c-0.35907,0.49814 -0.86226,0.89092 -1.50875,1.17834c-0.64649,0.28742 -1.39833,0.43071 -2.25554,0.43071c-1.12524,0 -2.05704,-0.24401 -2.79456,-0.73246c-0.73752,-0.48845 -1.20447,-1.20215 -1.40086,-2.14078l1.60947,-0.40231c0.15298,0.59385 0.44293,1.03923 0.86901,1.33617c0.43113,0.29703 0.99375,0.44538 1.68828,0.44538c0.7902,0 1.4173,-0.16773 1.88214,-0.50286c0.46906,-0.34002 0.7038,-0.74708 0.7038,-1.2212c0,-0.38313 -0.13402,-0.70401 -0.40205,-0.96261c-0.26846,-0.2634 -0.6802,-0.45975 -1.23566,-0.58904l-1.83916,-0.43105c-1.01061,-0.23942 -1.75276,-0.61058 -2.22688,-1.11344c-0.46948,-0.50762 -0.7038,-1.14218 -0.7038,-1.90364c0,-0.62259 0.17448,-1.17333 0.52427,-1.65225c0.35443,-0.47892 0.83571,-0.85485 1.44385,-1.12781c0.61319,-0.27301 1.3073,-0.40947 2.08317,-0.40947c1.09195,0 1.94915,0.23946 2.57204,0.71834c0.6271,0.47892 1.07256,1.11108 1.33596,1.89647zM274.61238,164.31572v1.43673h-5.71808v-1.43673zM270.56067,161.67217h1.69545v10.51679c0,0.47892 0.06954,0.83807 0.20819,1.07753c0.14371,0.23466 0.32577,0.3927 0.54618,0.4742c0.22505,0.0767 0.46232,0.11505 0.71097,0.11505c0.18712,0 0.3401,-0.00969 0.45979,-0.02908c0.11969,-0.0236 0.21578,-0.04299 0.28742,-0.05732l0.34474,1.52308c-0.11463,0.04299 -0.2752,0.08597 -0.48128,0.12896c-0.20566,0.04804 -0.46695,0.07207 -0.78303,0.07207c-0.47875,0 -0.94824,-0.10283 -1.40803,-0.30891c-0.45473,-0.20608 -0.83318,-0.51963 -1.13493,-0.94107c-0.29669,-0.42144 -0.44546,-0.95304 -0.44546,-1.59477zM287.65084,164.31572v1.43673h-5.7185v-1.43673zM283.59913,161.67217h1.69545v10.51679c0,0.47892 0.06912,0.83807 0.20819,1.07753c0.14371,0.23466 0.32577,0.3927 0.54576,0.4742c0.22547,0.0767 0.46232,0.11505 0.71139,0.11505c0.1867,0 0.3401,-0.00969 0.45979,-0.02908c0.11969,-0.0236 0.21536,-0.04299 0.28742,-0.05732l0.34474,1.52308c-0.11505,0.04299 -0.27562,0.08597 -0.48128,0.12896c-0.20608,0.04804 -0.46695,0.07207 -0.78303,0.07207c-0.47918,0 -0.94824,-0.10283 -1.40803,-0.30891c-0.45515,-0.20608 -0.83318,-0.51963 -1.13493,-0.94107c-0.29711,-0.42144 -0.44546,-0.95304 -0.44546,-1.59477zM294.70867,175.57943c-1.06329,0 -1.98034,-0.23432 -2.75157,-0.7038c-0.76618,-0.47412 -1.35745,-1.13493 -1.77426,-1.98266c-0.41175,-0.85249 -0.61783,-1.84379 -0.61783,-2.97405c0,-1.13021 0.20608,-2.12633 0.61783,-2.98838c0.4168,-0.86681 0.99628,-1.54209 1.73843,-2.02577c0.74721,-0.48849 1.61875,-0.73271 2.61503,-0.73271c0.57442,0 1.1421,0.09575 1.70219,0.28734c0.56051,0.19154 1.07045,0.50286 1.53024,0.93387c0.45979,0.42624 0.82602,0.99135 1.09911,1.69532c0.27309,0.70401 0.40964,1.57083 0.40964,2.60049v0.71834h-8.50547v-1.46543h6.78137c0,-0.62259 -0.12475,-1.17813 -0.37382,-1.66662c-0.24401,-0.48849 -0.59381,-0.87402 -1.04854,-1.15655c-0.4501,-0.28257 -0.98195,-0.42384 -1.59472,-0.42384c-0.67557,0 -1.25968,0.16761 -1.75276,0.50286c-0.48887,0.33045 -0.86479,0.76146 -1.12819,1.29306c-0.2634,0.53156 -0.39489,1.10147 -0.39489,1.70969v0.97698c0,0.83327 0.14371,1.53968 0.43113,2.11916c0.29206,0.57467 0.69664,1.01289 1.21374,1.31459c0.51753,0.29711 1.1185,0.44546 1.80334,0.44546c0.44546,0 0.84751,-0.06237 1.20658,-0.1867c0.36412,-0.12938 0.67767,-0.32101 0.94107,-0.57484c0.2634,-0.25859 0.46695,-0.57948 0.61066,-0.96261l1.63813,0.45975c-0.17279,0.55554 -0.46232,1.04399 -0.86943,1.46543c-0.40711,0.4168 -0.90989,0.74215 -1.50875,0.97689c-0.59844,0.23011 -1.27148,0.34474 -2.01827,0.34474zM303.55171,168.71209v6.63766h-1.69545v-11.03402h1.63771v1.72406h0.14371c0.25876,-0.56034 0.65154,-1.01048 1.17834,-1.35054c0.5268,-0.34478 1.20658,-0.51719 2.04018,-0.51719c0.74679,0 1.40044,0.15324 1.96095,0.45975c0.56051,0.30171 0.99628,0.76146 1.3073,1.37924c0.31144,0.61302 0.46695,1.38885 0.46695,2.32748v7.01122h-1.69545v-6.89625c0,-0.86686 -0.22505,-1.54209 -0.67514,-2.02581c-0.4501,-0.48845 -1.06793,-0.73271 -1.85349,-0.73271c-0.54113,0 -1.02452,0.11733 -1.45101,0.35199c-0.42144,0.2347 -0.75395,0.57712 -0.99839,1.02726c-0.24443,0.45018 -0.36623,0.99615 -0.36623,1.63788zM321.50541,166.78687l-1.52308,0.43101c-0.09567,-0.25379 -0.23727,-0.50046 -0.42397,-0.73988c-0.18206,-0.24427 -0.43113,-0.44542 -0.74721,-0.60346c-0.31608,-0.15804 -0.72066,-0.23706 -1.21374,-0.23706c-0.67514,0 -1.23819,0.15568 -1.68828,0.46695c-0.44546,0.30651 -0.66798,0.69681 -0.66798,1.17092c0,0.42144 0.1534,0.75429 0.45979,0.99851c0.30639,0.24427 0.78514,0.44778 1.43668,0.61062l1.63771,0.40226c0.98659,0.23946 1.72158,0.60582 2.20539,1.09911c0.48381,0.48849 0.72572,1.11824 0.72572,1.88927c0,0.63216 -0.18206,1.19731 -0.54618,1.69524c-0.35907,0.49814 -0.86184,0.89092 -1.50833,1.17834c-0.64649,0.28742 -1.39833,0.43071 -2.25554,0.43071c-1.12566,0 -2.05704,-0.24401 -2.79456,-0.73246c-0.73752,-0.48845 -1.20447,-1.20215 -1.40086,-2.14078l1.60905,-0.40231c0.1534,0.59385 0.44293,1.03923 0.86943,1.33617c0.43071,0.29703 0.99375,0.44538 1.68786,0.44538c0.7902,0 1.41772,-0.16773 1.88214,-0.50286c0.46948,-0.34002 0.70422,-0.74708 0.70422,-1.2212c0,-0.38313 -0.13402,-0.70401 -0.40247,-0.96261c-0.26803,-0.2634 -0.67978,-0.45975 -1.23566,-0.58904l-1.83874,-0.43105c-1.01061,-0.23942 -1.75276,-0.61058 -2.22688,-1.11344c-0.46948,-0.50762 -0.70422,-1.14218 -0.70422,-1.90364c0,-0.62259 0.1749,-1.17333 0.52427,-1.65225c0.35443,-0.47892 0.83571,-0.85485 1.44427,-1.12781c0.61277,-0.27301 1.3073,-0.40947 2.08317,-0.40947c1.09195,0 1.94915,0.23946 2.57162,0.71834c0.62752,0.47892 1.07298,1.11108 1.33638,1.89647zM328.88438,175.57943c-1.06287,0 -1.97992,-0.23432 -2.75115,-0.7038c-0.76618,-0.47412 -1.35787,-1.13493 -1.77426,-1.98266c-0.41175,-0.85249 -0.61783,-1.84379 -0.61783,-2.97405c0,-1.13021 0.20608,-2.12633 0.61783,-2.98838c0.41638,-0.86681 0.99586,-1.54209 1.73843,-2.02577c0.74721,-0.48849 1.61875,-0.73271 2.6146,-0.73271c0.57484,0 1.14252,0.09575 1.70261,0.28734c0.56051,0.19154 1.07045,0.50286 1.53024,0.93387c0.45979,0.42624 0.82602,0.99135 1.09911,1.69532c0.27309,0.70401 0.40922,1.57083 0.40922,2.60049v0.71834h-8.50505v-1.46543h6.78095c0,-0.62259 -0.12432,-1.17813 -0.37339,-1.66662c-0.24401,-0.48849 -0.59381,-0.87402 -1.04896,-1.15655c-0.4501,-0.28257 -0.98153,-0.42384 -1.59472,-0.42384c-0.67514,0 -1.25926,0.16761 -1.75276,0.50286c-0.48845,0.33045 -0.86437,0.76146 -1.12777,1.29306c-0.2634,0.53156 -0.39489,1.10147 -0.39489,1.70969v0.97698c0,0.83327 0.14371,1.53968 0.43071,2.11916c0.29248,0.57467 0.69706,1.01289 1.21416,1.31459c0.51711,0.29711 1.11808,0.44546 1.80291,0.44546c0.44546,0 0.84793,-0.06237 1.207,-0.1867c0.36412,-0.12938 0.67767,-0.32101 0.94107,-0.57484c0.2634,-0.25859 0.46695,-0.57948 0.61066,-0.96261l1.63771,0.45975c-0.17237,0.55554 -0.4619,1.04399 -0.86901,1.46543c-0.40711,0.4168 -0.90989,0.74215 -1.50875,0.97689c-0.59844,0.23011 -1.27148,0.34474 -2.01869,0.34474zM346.20424,175.57943c-0.99628,0 -1.86992,-0.23685 -2.62219,-0.71097c-0.74679,-0.47412 -1.33132,-1.13746 -1.75276,-1.98986c-0.41638,-0.85249 -0.62499,-1.8486 -0.62499,-2.98838c0,-1.14939 0.20861,-2.15271 0.62499,-3.00996c0.42144,-0.85725 1.00597,-1.52291 1.75276,-1.99703c0.75227,-0.47412 1.62591,-0.71118 2.62219,-0.71118c0.99628,0 1.86782,0.23706 2.61503,0.71118c0.75185,0.47412 1.33596,1.13978 1.75276,1.99703c0.42144,0.85725 0.63216,1.86057 0.63216,3.00996c0,1.13978 -0.21072,2.13589 -0.63216,2.98838c-0.4168,0.8524 -1.00092,1.51575 -1.75276,1.98986c-0.74721,0.47412 -1.61875,0.71097 -2.61503,0.71097zM346.20424,174.05677c0.7569,0 1.37937,-0.19386 1.86782,-0.58196c0.48845,-0.38789 0.85004,-0.89792 1.08478,-1.53007c0.23474,-0.63216 0.3519,-1.317 0.3519,-2.05451c0,-0.73752 -0.11716,-1.42476 -0.3519,-2.06172c-0.23474,-0.63696 -0.59634,-1.15175 -1.08478,-1.54449c-0.48845,-0.3927 -1.11091,-0.58904 -1.86782,-0.58904c-0.75648,0 -1.37937,0.19635 -1.86782,0.58904c-0.48845,0.39274 -0.85004,0.90753 -1.08478,1.54449c-0.23432,0.63696 -0.3519,1.3242 -0.3519,2.06172c0,0.73752 0.11758,1.42235 0.3519,2.05451c0.23474,0.63216 0.59634,1.14218 1.08478,1.53007c0.48845,0.3881 1.11133,0.58196 1.86782,0.58196zM358.70537,164.31572v1.43673h-5.94776v-1.43673zM354.53903,175.34974v-12.55697c0,-0.63216 0.14835,-1.15896 0.44546,-1.58039c0.29669,-0.42144 0.68231,-0.73752 1.15643,-0.94824c0.47412,-0.21072 0.97479,-0.31608 1.50159,-0.31608c0.41638,0 0.75648,0.03355 1.01988,0.1006c0.2634,0.06705 0.45979,0.1293 0.58917,0.18678l-0.48845,1.46543c-0.08639,-0.0287 -0.20608,-0.06465 -0.35907,-0.10772c-0.14877,-0.04311 -0.34516,-0.06469 -0.58917,-0.06469c-0.56051,0 -0.96509,0.14131 -1.21416,0.42384c-0.24401,0.28257 -0.36623,0.69681 -0.36623,1.24278v12.15466zM126.66775,188.75907v1.43668h-5.71816v-1.43668zM122.61619,186.11539h1.69533v10.517c0,0.47875 0.06944,0.83824 0.20833,1.07762c0.14367,0.23474 0.32565,0.39278 0.54594,0.47412c0.22509,0.0767 0.46215,0.11505 0.71118,0.11505c0.18678,0 0.34006,-0.00969 0.45979,-0.02908c0.11969,-0.0236 0.21548,-0.04299 0.28734,-0.05732l0.34482,1.52308c-0.11497,0.04299 -0.27541,0.08597 -0.48132,0.12896c-0.20591,0.04804 -0.46691,0.07207 -0.78299,0.07207c-0.47892,0 -0.94824,-0.10283 -1.408,-0.30891c-0.45496,-0.20608 -0.8333,-0.51963 -1.13501,-0.94107c-0.29692,-0.42144 -0.44538,-0.95287 -0.44538,-1.59472zM131.1503,193.15552v6.63766h-1.69532v-14.712h1.69532v5.402h0.14371c0.25859,-0.56978 0.64649,-1.02241 1.16372,-1.35745c0.52204,-0.3401 1.21644,-0.51036 2.08325,-0.51036c0.75189,0 1.41039,0.15087 1.97549,0.45262c0.56511,0.29711 1.00332,0.75437 1.31459,1.3722c0.31608,0.61277 0.47412,1.3937 0.47412,2.34193v7.01105h-1.69532v-6.89642c0,-0.87617 -0.22749,-1.55384 -0.68244,-2.03302c-0.45018,-0.48339 -1.07517,-0.7253 -1.87494,-0.7253c-0.55554,0 -1.0536,0.11716 -1.49417,0.3519c-0.43581,0.23474 -0.78063,0.57695 -1.03446,1.02747c-0.24903,0.4501 -0.37356,0.99586 -0.37356,1.63771zM146.03297,200.02286c-1.0632,0 -1.9803,-0.23432 -2.75132,-0.7038c-0.76626,-0.47412 -1.35771,-1.13493 -1.77438,-1.98287c-0.41183,-0.85215 -0.61779,-1.84379 -0.61779,-2.97367c0,-1.1303 0.20596,-2.12658 0.61779,-2.98842c0.41668,-0.8669 0.99615,-1.54204 1.73843,-2.02585c0.74713,-0.48845 1.6187,-0.73288 2.61486,-0.73288c0.57467,0 1.14218,0.09609 1.70248,0.28742c0.56034,0.19175 1.07037,0.50278 1.53012,0.93391c0.45975,0.42607 0.82615,0.99122 1.09911,1.69545c0.27297,0.7038 0.40947,1.5707 0.40947,2.60028v0.71855h-8.50539v-1.46576h6.78132c0,-0.62246 -0.12454,-1.17792 -0.37356,-1.66637c-0.24422,-0.48845 -0.59385,-0.87406 -1.04879,-1.15643c-0.45018,-0.28279 -0.98178,-0.42397 -1.59477,-0.42397c-0.67527,0 -1.25955,0.16773 -1.7528,0.50278c-0.48849,0.33041 -0.86445,0.76154 -1.12785,1.29297c-0.2634,0.53186 -0.3951,1.10164 -0.3951,1.70978v0.97689c0,0.83361 0.14371,1.53994 0.43105,2.11941c0.29214,0.57442 0.69681,1.01272 1.21404,1.31447c0.51719,0.29711 1.11824,0.44546 1.80308,0.44546c0.44538,0 0.84764,-0.06237 1.20683,-0.1867c0.36395,-0.12938 0.67767,-0.32114 0.94107,-0.57484c0.2634,-0.25876 0.46691,-0.57948 0.61058,-0.96257l1.63788,0.45979c-0.17241,0.55546 -0.46215,1.0439 -0.86922,1.46534c-0.40707,0.4168 -0.90993,0.74215 -1.50858,0.97689c-0.59861,0.23011 -1.27148,0.34474 -2.01856,0.34474zM167.89278,188.75907l-4.08037,11.0341h-1.72406l-4.08033,-11.0341h1.83903l3.04578,8.79289h0.11505l3.04574,-8.79289zM174.36144,200.02286c-1.06329,0 -1.98034,-0.23432 -2.75115,-0.7038c-0.76618,-0.47412 -1.35787,-1.13493 -1.77426,-1.98287c-0.41217,-0.85215 -0.61783,-1.84379 -0.61783,-2.97367c0,-1.1303 0.20566,-2.12658 0.61783,-2.98842c0.41638,-0.8669 0.99586,-1.54204 1.73843,-2.02585c0.74679,-0.48845 1.61832,-0.73288 2.6146,-0.73288c0.57484,0 1.1421,0.09609 1.70261,0.28742c0.56009,0.19175 1.07045,0.50278 1.53024,0.93391c0.45937,0.42607 0.82602,0.99122 1.09911,1.69545c0.27267,0.7038 0.40922,1.5707 0.40922,2.60028v0.71855h-8.50547v-1.46576h6.78137c0,-0.62246 -0.12432,-1.17792 -0.37339,-1.66637c-0.24443,-0.48845 -0.59381,-0.87406 -1.04896,-1.15643c-0.4501,-0.28279 -0.98153,-0.42397 -1.59472,-0.42397c-0.67514,0 -1.25968,0.16773 -1.75276,0.50278c-0.48845,0.33041 -0.86437,0.76154 -1.12777,1.29297c-0.2634,0.53186 -0.39531,1.10164 -0.39531,1.70978v0.97689c0,0.83361 0.14371,1.53994 0.43113,2.11941c0.29206,0.57442 0.69706,1.01272 1.21416,1.31447c0.51711,0.29711 1.11808,0.44546 1.80291,0.44546c0.44546,0 0.84793,-0.06237 1.207,-0.1867c0.3637,-0.12938 0.67767,-0.32114 0.94107,-0.57484c0.2634,-0.25876 0.46695,-0.57948 0.61066,-0.96257l1.63771,0.45979c-0.17237,0.55546 -0.46232,1.0439 -0.86901,1.46534c-0.40711,0.4168 -0.91031,0.74215 -1.50875,0.97689c-0.59844,0.23011 -1.27148,0.34474 -2.01869,0.34474zM181.50903,199.79317v-11.0341h1.63813v1.66679h0.11505c0.20103,-0.54618 0.56473,-0.98912 1.09153,-1.32922c0.5268,-0.3401 1.12103,-0.50994 1.78184,-0.50994c0.12432,0 0.27984,0.00253 0.46695,0.00716c0.1867,0.00464 0.32788,0.01222 0.42355,0.02149v1.7241c-0.05732,-0.01433 -0.18923,-0.03582 -0.39489,-0.06448c-0.20103,-0.03372 -0.41427,-0.05057 -0.63932,-0.05057c-0.53649,0 -1.01525,0.11252 -1.43668,0.33799c-0.4168,0.21999 -0.74721,0.5268 -0.99164,0.91916c-0.23938,0.38814 -0.35907,0.83108 -0.35907,1.32922v6.98239zM189.26561,199.79317v-14.712h1.69545v5.43066h0.14371c0.12432,-0.19133 0.29669,-0.43577 0.51711,-0.73246c0.22505,-0.30175 0.54618,-0.57021 0.96257,-0.80453c0.42144,-0.2398 0.99164,-0.35949 1.70978,-0.35949c0.92927,0 1.74813,0.23221 2.45699,0.69706c0.70844,0.46443 1.26179,1.12271 1.6592,1.97528c0.39742,0.85257 0.59634,1.85812 0.59634,3.01708c0,1.16865 -0.19892,2.18137 -0.59634,3.03899c-0.39742,0.85215 -0.94824,1.51296 -1.65204,1.98245c-0.70422,0.46443 -1.51591,0.69664 -2.43549,0.69664c-0.70886,0 -1.27612,-0.11716 -1.70261,-0.3519c-0.42607,-0.23938 -0.75395,-0.50994 -0.98406,-0.81169c-0.22968,-0.30639 -0.40711,-0.56009 -0.53143,-0.76154h-0.20103v1.69545zM190.9324,194.27612c0,0.83318 0.12222,1.56859 0.36623,2.20539c0.24443,0.63216 0.60097,1.12777 1.07045,1.48683c0.46948,0.35443 1.0439,0.53186 1.7241,0.53186c0.70886,0 1.30014,-0.1867 1.77426,-0.56051c0.47875,-0.37803 0.83824,-0.88586 1.07762,-1.52266c0.24401,-0.64185 0.36623,-1.35535 0.36623,-2.14091c0,-0.77587 -0.11969,-1.47503 -0.35907,-2.0975c-0.23474,-0.62752 -0.59128,-1.12313 -1.07045,-1.48726c-0.47412,-0.36876 -1.07045,-0.55293 -1.78858,-0.55293c-0.68989,0 -1.26937,0.1749 -1.73843,0.52427c-0.46948,0.34474 -0.82391,0.82855 -1.06329,1.45101c-0.23938,0.61783 -0.35907,1.33891 -0.35907,2.1624zM208.75503,185.08118v5.05726h-1.58039v-5.05726zM212.43292,185.08118v5.05726h-1.58039v-5.05726zM220.07445,200.02286c-1.06329,0 -1.98034,-0.23432 -2.75115,-0.7038c-0.7666,-0.47412 -1.35787,-1.13493 -1.77468,-1.98287c-0.41175,-0.85215 -0.61783,-1.84379 -0.61783,-2.97367c0,-1.1303 0.20608,-2.12658 0.61783,-2.98842c0.4168,-0.8669 0.99628,-1.54204 1.73843,-2.02585c0.74721,-0.48845 1.61875,-0.73288 2.61503,-0.73288c0.57484,0 1.1421,0.09609 1.70261,0.28742c0.56009,0.19175 1.07003,0.50278 1.52982,0.93391c0.45979,0.42607 0.82644,0.99122 1.09911,1.69545c0.27309,0.7038 0.40964,1.5707 0.40964,2.60028v0.71855h-8.50547v-1.46576h6.78137c0,-0.62246 -0.12432,-1.17792 -0.37339,-1.66637c-0.24443,-0.48845 -0.59381,-0.87406 -1.04896,-1.15643c-0.4501,-0.28279 -0.98195,-0.42397 -1.59472,-0.42397c-0.67514,0 -1.25968,0.16773 -1.75276,0.50278c-0.48845,0.33041 -0.86437,0.76154 -1.12777,1.29297c-0.2634,0.53186 -0.39531,1.10164 -0.39531,1.70978v0.97689c0,0.83361 0.14371,1.53994 0.43113,2.11941c0.29206,0.57442 0.69664,1.01272 1.21416,1.31447c0.51711,0.29711 1.11808,0.44546 1.80291,0.44546c0.44546,0 0.84751,-0.06237 1.207,-0.1867c0.3637,-0.12938 0.67767,-0.32114 0.94107,-0.57484c0.2634,-0.25876 0.46695,-0.57948 0.61024,-0.96257l1.63813,0.45979c-0.17237,0.55546 -0.46232,1.0439 -0.86943,1.46534c-0.40711,0.4168 -0.90989,0.74215 -1.50833,0.97689c-0.59886,0.23011 -1.27148,0.34474 -2.01869,0.34474zM230.46923,200.05194c-0.69917,0 -1.33385,-0.13191 -1.90364,-0.39531c-0.57021,-0.26803 -1.02241,-0.65365 -1.35787,-1.15643c-0.33504,-0.50783 -0.50278,-1.1206 -0.50278,-1.83916c0,-0.63216 0.12432,-1.14463 0.37339,-1.53741c0.24907,-0.39742 0.58201,-0.70844 0.99881,-0.93349c0.41638,-0.22547 0.87617,-0.39278 1.37895,-0.5032c0.50783,-0.11463 1.01777,-0.20566 1.53024,-0.27267c0.67051,-0.08639 1.21416,-0.15087 1.63055,-0.19428c0.42144,-0.04762 0.72825,-0.12685 0.91958,-0.23685c0.19639,-0.11 0.29459,-0.30175 0.29459,-0.57484v-0.05732c0,-0.70886 -0.19386,-1.25968 -0.58201,-1.65246c-0.38309,-0.39236 -0.96467,-0.58875 -1.7456,-0.58875c-0.80916,0 -1.44385,0.177 -1.90364,0.53143c-0.45979,0.35443 -0.78303,0.73288 -0.96973,1.13493l-1.60905,-0.57442c0.28742,-0.67051 0.67051,-1.19267 1.14926,-1.56607c0.48381,-0.37845 1.01061,-0.64185 1.58039,-0.7902c0.57484,-0.1534 1.13999,-0.23011 1.69545,-0.23011c0.35443,0 0.76154,0.04341 1.22133,0.12938c0.46443,0.08134 0.91199,0.2516 1.34312,0.50994c0.43577,0.25876 0.79736,0.64902 1.08478,1.17118c0.28742,0.52174 0.43113,1.22091 0.43113,2.0975v7.26981h-1.69545v-1.494h-0.08639c-0.11463,0.23938 -0.30639,0.49561 -0.57442,0.76828c-0.26846,0.27309 -0.62499,0.5053 -1.07045,0.69706c-0.44546,0.19133 -0.98912,0.28742 -1.63055,0.28742zM230.72757,198.52886c0.67051,0 1.23566,-0.13149 1.69545,-0.39531c0.46443,-0.26298 0.81422,-0.60308 1.04896,-1.01988c0.23938,-0.4168 0.35907,-0.85468 0.35907,-1.31447v-1.55174c-0.07164,0.08597 -0.22968,0.1652 -0.47412,0.23685c-0.23938,0.06701 -0.51711,0.12727 -0.83318,0.17995c-0.31144,0.04762 -0.6153,0.09061 -0.91241,0.12896c-0.29206,0.03372 -0.52933,0.06237 -0.71139,0.08639c-0.4404,0.05732 -0.85215,0.15087 -1.23524,0.28026c-0.37845,0.12432 -0.68484,0.31355 -0.91958,0.56726c-0.23011,0.24907 -0.34474,0.58917 -0.34474,1.0203c0,0.58875 0.21788,1.03421 0.65365,1.33596c0.4404,0.29711 0.99839,0.44546 1.67353,0.44546zM243.41919,188.75907v1.43668h-5.71808v-1.43668zM239.3679,186.11539h1.69545v10.517c0,0.47875 0.06912,0.83824 0.20819,1.07762c0.14371,0.23474 0.32577,0.39278 0.54576,0.47412c0.22505,0.0767 0.46232,0.11505 0.71139,0.11505c0.1867,0 0.3401,-0.00969 0.45979,-0.02908c0.11969,-0.0236 0.21536,-0.04299 0.28742,-0.05732l0.34474,1.52308c-0.11505,0.04299 -0.27562,0.08597 -0.48128,0.12896c-0.20608,0.04804 -0.46695,0.07207 -0.78303,0.07207c-0.47918,0 -0.94824,-0.10283 -1.40803,-0.30891c-0.45515,-0.20608 -0.83318,-0.51963 -1.13493,-0.94107c-0.29711,-0.42144 -0.44546,-0.95287 -0.44546,-1.59472zM247.43507,185.08118v5.05726h-1.58039v-5.05726zM251.11297,185.08118v5.05726h-1.58039v-5.05726zM256.34091,195.65549v-0.08639c0.00969,-0.91452 0.10536,-1.64235 0.28742,-2.18389c0.18206,-0.54113 0.4404,-0.979 0.77587,-1.31447c0.33504,-0.33504 0.73752,-0.64396 1.20658,-0.92674c0.28279,-0.17237 0.53649,-0.37592 0.76154,-0.61066c0.22505,-0.23938 0.40247,-0.51458 0.53143,-0.82602c0.13444,-0.31102 0.20145,-0.65618 0.20145,-1.03421c0,-0.46948 -0.11042,-0.87659 -0.33041,-1.22133c-0.22041,-0.34474 -0.515,-0.61066 -0.88376,-0.79736c-0.36876,-0.1867 -0.7784,-0.28026 -1.22849,-0.28026c-0.39278,0 -0.77081,0.08134 -1.13493,0.24443c-0.36412,0.16268 -0.66798,0.41891 -0.91241,0.76828c-0.24401,0.34979 -0.38519,0.80705 -0.42355,1.3722h-1.8105c0.03835,-0.81422 0.24907,-1.51086 0.63216,-2.09033c0.38814,-0.57948 0.89809,-1.02241 1.53024,-1.3288c0.63679,-0.30681 1.34312,-0.45979 2.11899,-0.45979c0.84288,0 1.57576,0.16731 2.19822,0.50278c0.62752,0.33504 1.11133,0.79483 1.45101,1.37937c0.34516,0.58411 0.51753,1.24957 0.51753,1.99678c0,0.5268 -0.08176,1.00345 -0.24443,1.42952c-0.15804,0.4265 -0.38772,0.80705 -0.68947,1.1421c-0.29711,0.33547 -0.65618,0.63216 -1.07762,0.89092c-0.42144,0.2634 -0.75901,0.54113 -1.01272,0.83318c-0.25413,0.28742 -0.4383,0.63005 -0.55335,1.02747c-0.11505,0.39742 -0.177,0.89303 -0.1867,1.48683v0.08639zM257.26049,199.90823c-0.35443,0 -0.65871,-0.12685 -0.91241,-0.38098c-0.25371,-0.25371 -0.38056,-0.55798 -0.38056,-0.91199c0,-0.35443 0.12685,-0.65871 0.38056,-0.91241c0.25371,-0.25413 0.55798,-0.38098 0.91241,-0.38098c0.35443,0 0.65829,0.12685 0.91241,0.38098c0.25371,0.25371 0.38056,0.55798 0.38056,0.91241c0,0.23432 -0.05984,0.4501 -0.17953,0.64649c-0.11505,0.19639 -0.27056,0.35443 -0.46695,0.47412c-0.19175,0.11463 -0.40711,0.17237 -0.64649,0.17237z"/></g></g></svg>