<svg xmlns="http://www.w3.org/2000/svg" fill="none" viewBox="0 0 139 164" height="164" width="139">
<path fill="#43D059" d="M0 20C0 8.95431 8.95431 0 20 0H119C130.046 0 139 8.95431 139 20V144C139 155.046 130.046 164 119 164H20C8.95431 164 0 155.046 0 144V20Z"></path>
<path fill="black" d="M36.2102 135.455V150H34.5341V135.455H36.2102ZM43.854 150.227C42.8029 150.227 41.8962 149.995 41.1339 149.531C40.3763 149.062 39.7915 148.409 39.3796 147.571C38.9724 146.728 38.7688 145.748 38.7688 144.631C38.7688 143.513 38.9724 142.528 39.3796 141.676C39.7915 140.819 40.3645 140.152 41.0984 139.673C41.837 139.19 42.6987 138.949 43.6836 138.949C44.2518 138.949 44.8129 139.044 45.3668 139.233C45.9208 139.422 46.4251 139.73 46.8796 140.156C47.3342 140.578 47.6964 141.136 47.9663 141.832C48.2362 142.528 48.3711 143.385 48.3711 144.403V145.114H39.962V143.665H46.6665C46.6665 143.049 46.5434 142.5 46.2972 142.017C46.0558 141.534 45.7101 141.153 45.2603 140.874C44.8152 140.594 44.2897 140.455 43.6836 140.455C43.016 140.455 42.4383 140.62 41.9506 140.952C41.4677 141.278 41.096 141.705 40.8356 142.23C40.5752 142.756 40.445 143.319 40.445 143.92V144.886C40.445 145.71 40.587 146.409 40.8711 146.982C41.1599 147.55 41.56 147.983 42.0714 148.281C42.5827 148.575 43.177 148.722 43.854 148.722C44.2944 148.722 44.6921 148.66 45.0472 148.537C45.4071 148.409 45.7172 148.22 45.9776 147.969C46.238 147.713 46.4393 147.396 46.5813 147.017L48.2006 147.472C48.0302 148.021 47.7437 148.504 47.3413 148.92C46.9388 149.332 46.4416 149.654 45.8498 149.886C45.2579 150.114 44.5927 150.227 43.854 150.227ZM55.6651 139.091V140.511H50.0117V139.091H55.6651ZM51.6594 136.477H53.3356V146.875C53.3356 147.348 53.4042 147.704 53.5415 147.94C53.6836 148.172 53.8635 148.329 54.0813 148.409C54.3039 148.485 54.5382 148.523 54.7844 148.523C54.9691 148.523 55.1206 148.513 55.239 148.494C55.3574 148.471 55.4521 148.452 55.5231 148.438L55.864 149.943C55.7504 149.986 55.5917 150.028 55.3881 150.071C55.1845 150.118 54.9265 150.142 54.614 150.142C54.1405 150.142 53.6765 150.04 53.2219 149.837C52.7721 149.633 52.3981 149.323 52.0998 148.906C51.8062 148.49 51.6594 147.964 51.6594 147.33V136.477ZM62.9308 139.091V140.511H57.2773V139.091H62.9308ZM58.9251 136.477H60.6012V146.875C60.6012 147.348 60.6699 147.704 60.8072 147.94C60.9492 148.172 61.1291 148.329 61.3469 148.409C61.5695 148.485 61.8039 148.523 62.0501 148.523C62.2347 148.523 62.3862 148.513 62.5046 148.494C62.623 148.471 62.7177 148.452 62.7887 148.438L63.1296 149.943C63.016 149.986 62.8574 150.028 62.6538 150.071C62.4502 150.118 62.1921 150.142 61.8796 150.142C61.4061 150.142 60.9421 150.04 60.4876 149.837C60.0378 149.633 59.6637 149.323 59.3654 148.906C59.0719 148.49 58.9251 147.964 58.9251 147.33V136.477ZM69.9087 150.227C68.8576 150.227 67.9509 149.995 67.1886 149.531C66.431 149.062 65.8462 148.409 65.4343 147.571C65.0271 146.728 64.8235 145.748 64.8235 144.631C64.8235 143.513 65.0271 142.528 65.4343 141.676C65.8462 140.819 66.4192 140.152 67.1531 139.673C67.8917 139.19 68.7534 138.949 69.7383 138.949C70.3065 138.949 70.8675 139.044 71.4215 139.233C71.9755 139.422 72.4798 139.73 72.9343 140.156C73.3888 140.578 73.7511 141.136 74.021 141.832C74.2908 142.528 74.4258 143.385 74.4258 144.403V145.114H66.0167V143.665H72.7212C72.7212 143.049 72.5981 142.5 72.3519 142.017C72.1104 141.534 71.7648 141.153 71.315 140.874C70.8699 140.594 70.3443 140.455 69.7383 140.455C69.0707 140.455 68.493 140.62 68.0053 140.952C67.5224 141.278 67.1507 141.705 66.8903 142.23C66.6299 142.756 66.4996 143.319 66.4996 143.92V144.886C66.4996 145.71 66.6417 146.409 66.9258 146.982C67.2146 147.55 67.6147 147.983 68.1261 148.281C68.6374 148.575 69.2317 148.722 69.9087 148.722C70.3491 148.722 70.7468 148.66 71.1019 148.537C71.4618 148.409 71.7719 148.22 72.0323 147.969C72.2927 147.713 72.494 147.396 72.636 147.017L74.2553 147.472C74.0849 148.021 73.7984 148.504 73.396 148.92C72.9935 149.332 72.4963 149.654 71.9045 149.886C71.3126 150.114 70.6474 150.227 69.9087 150.227ZM76.9755 150V139.091H78.5948V140.739H78.7085C78.9073 140.199 79.2672 139.761 79.788 139.425C80.3088 139.089 80.896 138.92 81.5494 138.92C81.6725 138.92 81.8263 138.923 82.011 138.928C82.1957 138.932 82.3353 138.939 82.43 138.949V140.653C82.3732 140.639 82.243 140.618 82.0394 140.589C81.8406 140.556 81.6299 140.54 81.4073 140.54C80.877 140.54 80.4035 140.651 79.9869 140.874C79.5749 141.091 79.2482 141.394 79.0067 141.783C78.77 142.166 78.6516 142.604 78.6516 143.097V150H76.9755ZM94.7578 150H90.2692V135.455H94.9567C96.3677 135.455 97.575 135.746 98.5788 136.328C99.5826 136.906 100.352 137.737 100.887 138.821C101.422 139.901 101.69 141.193 101.69 142.699C101.69 144.214 101.42 145.518 100.88 146.612C100.34 147.701 99.5542 148.539 98.522 149.126C97.4898 149.709 96.2351 150 94.7578 150ZM92.0305 148.438H94.6442C95.8468 148.438 96.8435 148.205 97.6342 147.741C98.425 147.277 99.0144 146.617 99.4027 145.76C99.791 144.903 99.9851 143.883 99.9851 142.699C99.9851 141.525 99.7933 140.514 99.4098 139.666C99.0263 138.814 98.4534 138.161 97.6911 137.706C96.9287 137.247 95.9794 137.017 94.843 137.017H92.0305V148.438Z"></path>
<path fill="black" d="M24.9229 61.0909C24.8377 60.3712 24.4921 59.8125 23.886 59.4148C23.2799 59.017 22.5366 58.8182 21.6559 58.8182C21.012 58.8182 20.4485 58.9223 19.9656 59.1307C19.4873 59.339 19.1133 59.6255 18.8434 59.9901C18.5782 60.3546 18.4457 60.7689 18.4457 61.233C18.4457 61.6212 18.538 61.955 18.7227 62.2344C18.9121 62.509 19.1535 62.7386 19.4471 62.9233C19.7406 63.1032 20.0484 63.2524 20.3704 63.3707C20.6924 63.4844 20.9883 63.5767 21.2582 63.6477L22.7354 64.0455C23.1142 64.1449 23.5356 64.2822 23.9996 64.4574C24.4684 64.6326 24.9158 64.8717 25.342 65.1747C25.7728 65.473 26.128 65.8565 26.4073 66.3253C26.6867 66.794 26.8263 67.3693 26.8263 68.0511C26.8263 68.8371 26.6204 69.5473 26.2085 70.1818C25.8013 70.8163 25.2047 71.3205 24.4187 71.6946C23.6374 72.0687 22.6881 72.2557 21.5707 72.2557C20.529 72.2557 19.627 72.0876 18.8647 71.7514C18.1071 71.4152 17.5105 70.9465 17.0749 70.3452C16.6441 69.7438 16.4002 69.0455 16.3434 68.25H18.1616C18.2089 68.7992 18.3936 69.2538 18.7156 69.6136C19.0423 69.9687 19.4542 70.2339 19.9513 70.4091C20.4532 70.5795 20.993 70.6648 21.5707 70.6648C22.243 70.6648 22.8467 70.5559 23.3817 70.3381C23.9168 70.1155 24.3406 69.8078 24.6531 69.4148C24.9656 69.017 25.1218 68.553 25.1218 68.0227C25.1218 67.5398 24.9869 67.1468 24.717 66.8438C24.4471 66.5407 24.092 66.2945 23.6516 66.1051C23.2113 65.9157 22.7354 65.75 22.2241 65.608L20.4343 65.0966C19.2979 64.7699 18.3983 64.3035 17.7354 63.6974C17.0726 63.0914 16.7411 62.2983 16.7411 61.3182C16.7411 60.5038 16.9613 59.7936 17.4016 59.1875C17.8467 58.5767 18.4433 58.1032 19.1914 57.767C19.9442 57.4261 20.7847 57.2557 21.7127 57.2557C22.6502 57.2557 23.4835 57.4238 24.2127 57.7599C24.9419 58.0914 25.5195 58.5459 25.9457 59.1236C26.3765 59.7012 26.6038 60.357 26.6275 61.0909H24.9229ZM36.37 67.5398V61.0909H38.0462V72H36.37V70.1534H36.2564C36.0007 70.7074 35.603 71.1785 35.0632 71.5668C34.5234 71.9503 33.8416 72.142 33.0178 72.142C32.3359 72.142 31.7299 71.9929 31.1996 71.6946C30.6693 71.3916 30.2526 70.937 29.9496 70.331C29.6465 69.7202 29.495 68.9508 29.495 68.0227V61.0909H31.1712V67.9091C31.1712 68.7045 31.3937 69.339 31.8388 69.8125C32.2886 70.286 32.8615 70.5227 33.5575 70.5227C33.9742 70.5227 34.398 70.4162 34.8288 70.2031C35.2644 69.9901 35.629 69.6634 35.9226 69.223C36.2209 68.7827 36.37 68.2216 36.37 67.5398ZM41.3434 72V57.4545H43.0195V62.8239H43.1616C43.2847 62.6345 43.4551 62.393 43.6729 62.0994C43.8955 61.8011 44.2127 61.536 44.6246 61.304C45.0413 61.0672 45.6048 60.9489 46.315 60.9489C47.2335 60.9489 48.0432 61.1785 48.744 61.6378C49.4447 62.0971 49.9916 62.7481 50.3846 63.5909C50.7776 64.4337 50.9741 65.428 50.9741 66.5739C50.9741 67.7292 50.7776 68.7306 50.3846 69.5781C49.9916 70.4209 49.4471 71.0743 48.7511 71.5384C48.055 71.9976 47.2525 72.2273 46.3434 72.2273C45.6426 72.2273 45.0816 72.1113 44.6602 71.8793C44.2388 71.6425 43.9144 71.375 43.6871 71.0767C43.4599 70.7737 43.2847 70.5227 43.1616 70.3239H42.9627V72H41.3434ZM42.9911 66.5455C42.9911 67.3693 43.1119 68.0961 43.3533 68.7259C43.5948 69.3509 43.9476 69.8409 44.4116 70.196C44.8756 70.5464 45.4438 70.7216 46.1161 70.7216C46.8169 70.7216 47.4016 70.5369 47.8704 70.1676C48.3439 69.7936 48.699 69.2917 48.9357 68.6619C49.1772 68.0275 49.2979 67.322 49.2979 66.5455C49.2979 65.7784 49.1796 65.0871 48.9428 64.4716C48.7108 63.8513 48.3581 63.3613 47.8846 63.0014C47.4158 62.6368 46.8263 62.4545 46.1161 62.4545C45.4343 62.4545 44.8614 62.6274 44.3974 62.973C43.9334 63.3139 43.583 63.7921 43.3462 64.4077C43.1095 65.0185 42.9911 65.7311 42.9911 66.5455ZM55.2141 57.4545V72H53.538V57.4545H55.2141ZM58.2841 72V61.0909H59.9602V72H58.2841ZM59.1364 59.2727C58.8097 59.2727 58.5279 59.1615 58.2912 58.9389C58.0592 58.7164 57.9432 58.4489 57.9432 58.1364C57.9432 57.8239 58.0592 57.5563 58.2912 57.3338C58.5279 57.1113 58.8097 57 59.1364 57C59.4631 57 59.7424 57.1113 59.9744 57.3338C60.2112 57.5563 60.3295 57.8239 60.3295 58.1364C60.3295 58.4489 60.2112 58.7164 59.9744 58.9389C59.7424 59.1615 59.4631 59.2727 59.1364 59.2727ZM63.0302 72V61.0909H64.6495V62.7955H64.7915C65.0188 62.2131 65.3858 61.7609 65.8924 61.4389C66.399 61.1122 67.0075 60.9489 67.7177 60.9489C68.4374 60.9489 69.0363 61.1122 69.5146 61.4389C69.9975 61.7609 70.3739 62.2131 70.6438 62.7955H70.7575C71.0368 62.232 71.4558 61.7846 72.0146 61.4531C72.5733 61.117 73.2433 60.9489 74.0245 60.9489C74.9999 60.9489 75.7977 61.2543 76.418 61.8651C77.0382 62.4711 77.3484 63.4157 77.3484 64.6989V72H75.6722V64.6989C75.6722 63.8939 75.4521 63.3187 75.0117 62.973C74.5714 62.6274 74.0529 62.4545 73.4563 62.4545C72.6893 62.4545 72.0951 62.6866 71.6737 63.1506C71.2522 63.6098 71.0415 64.1922 71.0415 64.8977V72H69.337V64.5284C69.337 63.9081 69.1358 63.4086 68.7333 63.0298C68.3308 62.6463 67.8124 62.4545 67.1779 62.4545C66.7423 62.4545 66.3351 62.5705 65.9563 62.8026C65.5823 63.0346 65.2792 63.3565 65.0472 63.7685C64.82 64.1757 64.7063 64.6468 64.7063 65.1818V72H63.0302ZM83.6232 72.2557C82.9319 72.2557 82.3046 72.1255 81.7411 71.8651C81.1777 71.5999 80.7302 71.2188 80.3988 70.7216C80.0674 70.2197 79.9016 69.6136 79.9016 68.9034C79.9016 68.2784 80.0247 67.7718 80.271 67.3835C80.5172 66.9905 80.8462 66.6828 81.2582 66.4602C81.6701 66.2377 82.1246 66.072 82.6218 65.9631C83.1237 65.8494 83.628 65.7595 84.1346 65.6932C84.7975 65.608 85.3349 65.544 85.7468 65.5014C86.1635 65.4541 86.4665 65.3759 86.6559 65.267C86.85 65.1581 86.9471 64.9687 86.9471 64.6989V64.642C86.9471 63.9413 86.7553 63.3968 86.3718 63.0085C85.993 62.6203 85.4177 62.4261 84.646 62.4261C83.8458 62.4261 83.2184 62.6013 82.7638 62.9517C82.3093 63.3021 81.9897 63.6761 81.805 64.0739L80.2141 63.5057C80.4982 62.8428 80.877 62.3267 81.3505 61.9574C81.8287 61.5833 82.3496 61.3229 82.913 61.1761C83.4812 61.0246 84.0399 60.9489 84.5891 60.9489C84.9395 60.9489 85.342 60.9915 85.7965 61.0767C86.2558 61.1572 86.6985 61.3253 87.1246 61.581C87.5555 61.8366 87.913 62.2225 88.1971 62.7386C88.4812 63.2547 88.6232 63.946 88.6232 64.8125V72H86.9471V70.5227H86.8619C86.7482 70.7595 86.5588 71.0128 86.2937 71.2827C86.0285 71.5526 85.6758 71.7822 85.2354 71.9716C84.7951 72.161 84.2577 72.2557 83.6232 72.2557ZM83.8789 70.75C84.5418 70.75 85.1005 70.6198 85.555 70.3594C86.0143 70.099 86.36 69.7628 86.592 69.3509C86.8287 68.9389 86.9471 68.5057 86.9471 68.0511V66.517C86.8761 66.6023 86.7198 66.6804 86.4783 66.7514C86.2416 66.8177 85.967 66.8769 85.6545 66.929C85.3467 66.9763 85.046 67.0189 84.7525 67.0568C84.4637 67.09 84.2293 67.1184 84.0494 67.142C83.6138 67.1989 83.2066 67.2912 82.8278 67.419C82.4537 67.5421 82.1507 67.7292 81.9187 67.9801C81.6914 68.2263 81.5778 68.5625 81.5778 68.9886C81.5778 69.571 81.7932 70.0114 82.2241 70.3097C82.6597 70.6032 83.2113 70.75 83.8789 70.75ZM96.4268 61.0909V62.5114H90.7734V61.0909H96.4268ZM92.4212 58.4773H94.0973V68.875C94.0973 69.3485 94.166 69.7036 94.3033 69.9403C94.4453 70.1723 94.6252 70.3286 94.843 70.4091C95.0656 70.4848 95.3 70.5227 95.5462 70.5227C95.7308 70.5227 95.8823 70.5133 96.0007 70.4943C96.1191 70.4706 96.2138 70.4517 96.2848 70.4375L96.6257 71.9432C96.5121 71.9858 96.3535 72.0284 96.1499 72.071C95.9463 72.1184 95.6882 72.142 95.3757 72.142C94.9022 72.142 94.4382 72.0402 93.9837 71.8366C93.5339 71.633 93.1598 71.3229 92.8615 70.9062C92.5679 70.4896 92.4212 69.964 92.4212 69.3295V58.4773ZM98.9482 72V61.0909H100.624V72H98.9482ZM99.8004 59.2727C99.4737 59.2727 99.192 59.1615 98.9553 58.9389C98.7232 58.7164 98.6072 58.4489 98.6072 58.1364C98.6072 57.8239 98.7232 57.5563 98.9553 57.3338C99.192 57.1113 99.4737 57 99.8004 57C100.127 57 100.406 57.1113 100.638 57.3338C100.875 57.5563 100.994 57.8239 100.994 58.1364C100.994 58.4489 100.875 58.7164 100.638 58.9389C100.406 59.1615 100.127 59.2727 99.8004 59.2727ZM108.126 72.2273C107.141 72.2273 106.277 71.9929 105.534 71.5241C104.795 71.0554 104.217 70.3996 103.801 69.5568C103.389 68.714 103.183 67.7292 103.183 66.6023C103.183 65.4659 103.389 64.474 103.801 63.6264C104.217 62.7789 104.795 62.1207 105.534 61.652C106.277 61.1832 107.141 60.9489 108.126 60.9489C109.111 60.9489 109.973 61.1832 110.711 61.652C111.455 62.1207 112.032 62.7789 112.444 63.6264C112.861 64.474 113.069 65.4659 113.069 66.6023C113.069 67.7292 112.861 68.714 112.444 69.5568C112.032 70.3996 111.455 71.0554 110.711 71.5241C109.973 71.9929 109.111 72.2273 108.126 72.2273ZM108.126 70.7216C108.874 70.7216 109.49 70.5298 109.973 70.1463C110.456 69.7628 110.813 69.2585 111.045 68.6335C111.277 68.0085 111.393 67.3314 111.393 66.6023C111.393 65.8731 111.277 65.1937 111.045 64.5639C110.813 63.9342 110.456 63.4252 109.973 63.0369C109.49 62.6487 108.874 62.4545 108.126 62.4545C107.378 62.4545 106.762 62.6487 106.279 63.0369C105.797 63.4252 105.439 63.9342 105.207 64.5639C104.975 65.1937 104.859 65.8731 104.859 66.6023C104.859 67.3314 104.975 68.0085 105.207 68.6335C105.439 69.2585 105.797 69.7628 106.279 70.1463C106.762 70.5298 107.378 70.7216 108.126 70.7216ZM117.304 65.4375V72H115.628V61.0909H117.247V62.7955H117.389C117.645 62.2415 118.033 61.7964 118.554 61.4602C119.075 61.1193 119.747 60.9489 120.571 60.9489C121.31 60.9489 121.956 61.1004 122.51 61.4034C123.064 61.7017 123.495 62.1562 123.803 62.767C124.11 63.3731 124.264 64.1402 124.264 65.0682V72H122.588V65.1818C122.588 64.3248 122.366 63.6572 121.92 63.179C121.475 62.696 120.865 62.4545 120.088 62.4545C119.553 62.4545 119.075 62.5705 118.653 62.8026C118.237 63.0346 117.908 63.3731 117.666 63.8182C117.425 64.2633 117.304 64.803 117.304 65.4375Z"></path>
</svg>
