<svg version="1.1" xmlns="http://www.w3.org/2000/svg" xmlns:xlink="http://www.w3.org/1999/xlink" width="207.13031" height="38.79164" viewBox="0,0,207.13031,38.79164"><g transform="translate(-136.43484,-160.60418)"><g data-paper-data="{&quot;isPaintingLayer&quot;:true}" fill="#ffffff" fill-rule="nonzero" stroke="none" stroke-width="1" stroke-linecap="butt" stroke-linejoin="miter" stroke-miterlimit="10" stroke-dasharray="" stroke-dashoffset="0" style="mix-blend-mode: normal"><path d="M140.32887,175.5127l-3.89402,-14.24098h1.75231l2.97613,11.5986h0.13907l3.0318,-11.5986h1.947l3.03176,11.5986h0.13907l2.97616,-11.5986h1.75229l-3.89399,14.24098h-1.78015l-3.14301,-11.34828h-0.11125l-3.14305,11.34828zM157.74761,169.08758v6.42513h-1.64104v-14.24098h1.64104v5.22912h0.13911c0.25031,-0.55166 0.62579,-0.98971 1.12646,-1.31423c0.50532,-0.32913 1.17749,-0.49369 2.01655,-0.49369c0.72781,0 1.36523,0.146 1.91224,0.43805c0.54701,0.28744 0.97119,0.73014 1.2725,1.32815c0.30596,0.5934 0.45894,1.34899 0.45894,2.26687v6.78673h-1.64104v-6.67544c0,-0.84836 -0.22021,-1.5043 -0.66058,-1.96788c-0.43577,-0.4682 -1.04075,-0.70232 -1.8149,-0.70232c-0.53775,0 -1.01986,0.11357 -1.44633,0.34072c-0.42186,0.22718 -0.75564,0.55864 -1.00134,0.99436c-0.24105,0.43577 -0.3616,0.96426 -0.3616,1.58544zM170.81865,175.76302c-0.67682,0 -1.29102,-0.12748 -1.84269,-0.38245c-0.55166,-0.25958 -0.98971,-0.63276 -1.31423,-1.11952c-0.32452,-0.49137 -0.48676,-1.08477 -0.48676,-1.78011c0,-0.61192 0.12055,-1.10794 0.3616,-1.48806c0.24105,-0.38477 0.56325,-0.68612 0.96654,-0.90401c0.40329,-0.21784 0.84832,-0.38012 1.33508,-0.48672c0.49141,-0.11129 0.9851,-0.19936 1.48112,-0.26427c0.649,-0.08342 1.17517,-0.146 1.57846,-0.18774c0.40794,-0.04634 0.70464,-0.12283 0.89005,-0.22947c0.1901,-0.10664 0.28511,-0.29205 0.28511,-0.55627v-0.05564c0,-0.68608 -0.18774,-1.21918 -0.56325,-1.59931c-0.37086,-0.38016 -0.93407,-0.57022 -1.68971,-0.57022c-0.78346,0 -1.3977,0.17154 -1.84273,0.51458c-0.44503,0.34304 -0.75792,0.70925 -0.93872,1.09868l-1.55761,-0.55631c0.27814,-0.649 0.649,-1.15428 1.11259,-1.51588c0.4682,-0.36621 0.97813,-0.62118 1.52979,-0.7649c0.55627,-0.14833 1.10329,-0.22249 1.64104,-0.22249c0.34304,0 0.73707,0.04169 1.1821,0.12516c0.44968,0.07881 0.88312,0.24338 1.30032,0.49369c0.42186,0.25036 0.77187,0.62815 1.05001,1.13343c0.27814,0.50532 0.4172,1.18214 0.4172,2.03046v7.03704h-1.64104v-1.44637h-0.08342c-0.11129,0.23179 -0.2967,0.47982 -0.55631,0.74405c-0.25958,0.26423 -0.60494,0.48908 -1.03606,0.6745c-0.43116,0.18545 -0.95728,0.27814 -1.5785,0.27814zM171.069,174.28887c0.649,0 1.19601,-0.12748 1.64104,-0.38245c0.44968,-0.25497 0.78807,-0.5841 1.01521,-0.98743c0.23179,-0.40329 0.34769,-0.82747 0.34769,-1.2725v-1.50197c-0.06951,0.08347 -0.22249,0.15996 -0.45894,0.22947c-0.23179,0.0649 -0.50067,0.12283 -0.80663,0.17383c-0.30131,0.04638 -0.59568,0.08812 -0.88308,0.1252c-0.28279,0.03243 -0.51226,0.06025 -0.68841,0.08342c-0.42651,0.05564 -0.82519,0.14604 -1.19605,0.2712c-0.36621,0.12051 -0.66291,0.30363 -0.89005,0.54934c-0.22249,0.24105 -0.33378,0.57018 -0.33378,0.98739c0,0.57022 0.21095,1.00134 0.6328,1.29339c0.42647,0.2874 0.96654,0.43112 1.62019,0.43112zM183.35429,164.83198v1.39072h-5.53499v-1.39072zM179.43231,162.27306h1.64116v10.18005c0,0.46359 0.06731,0.81124 0.20152,1.04303c0.13911,0.22714 0.31534,0.38012 0.5287,0.45894c0.21784,0.07416 0.44711,0.11125 0.6882,0.11125c0.18072,0 0.32921,-0.00926 0.44507,-0.02778c0.11586,-0.02321 0.20887,-0.04173 0.27822,-0.05564l0.3337,1.47415c-0.11137,0.04173 -0.26639,0.08347 -0.46587,0.1252c-0.19908,0.04634 -0.452,0.06951 -0.75796,0.06951c-0.46343,0 -0.91788,-0.09966 -1.36294,-0.29898c-0.44017,-0.19936 -0.80651,-0.503 -1.09859,-0.91094c-0.28719,-0.40794 -0.4312,-0.92253 -0.4312,-1.5437zM191.33002,175.5127v-10.68072h1.64116v10.68072zM192.16467,163.05183c-0.32024,0 -0.59601,-0.10892 -0.82772,-0.3268c-0.22723,-0.21788 -0.34063,-0.47978 -0.34063,-0.78574c0,-0.30596 0.11341,-0.5679 0.34063,-0.78578c0.23171,-0.21788 0.50748,-0.3268 0.82772,-0.3268c0.31983,0 0.59315,0.10892 0.82038,0.3268c0.23171,0.21788 0.34757,0.47982 0.34757,0.78578c0,0.30596 -0.11586,0.56786 -0.34757,0.78574c-0.22723,0.21788 -0.50055,0.3268 -0.82038,0.3268zM203.54225,167.224l-1.4739,0.4172c-0.09301,-0.24566 -0.22967,-0.48443 -0.41039,-0.71619c-0.17623,-0.23644 -0.41733,-0.43116 -0.72329,-0.58414c-0.30596,-0.15298 -0.69759,-0.22947 -1.17529,-0.22947c-0.65353,0 -1.19813,0.15069 -1.63382,0.452c-0.4312,0.2967 -0.64659,0.6745 -0.64659,1.13343c0,0.40794 0.14808,0.73014 0.44466,0.96654c0.29698,0.23644 0.76041,0.43344 1.39109,0.59107l1.58527,0.38938c0.955,0.23179 1.66645,0.58642 2.13477,1.06392c0.46832,0.47285 0.70207,1.08244 0.70207,1.82877c0,0.61192 -0.17582,1.15897 -0.52829,1.64108c-0.34757,0.48211 -0.83425,0.86223 -1.46044,1.14037c-0.62579,0.27814 -1.35356,0.41725 -2.18332,0.41725c-1.08921,0 -1.99118,-0.23644 -2.70508,-0.70929c-0.7139,-0.47285 -1.1655,-1.16358 -1.3556,-2.07215l1.55753,-0.38942c0.14808,0.57483 0.42875,1.00595 0.84118,1.29339c0.41733,0.2874 0.96193,0.43112 1.63423,0.43112c0.7649,0 1.37233,-0.16224 1.82188,-0.48676c0.45445,-0.32913 0.68127,-0.72316 0.68127,-1.1821c0,-0.37086 -0.12973,-0.68147 -0.38918,-0.93179c-0.25986,-0.25497 -0.65842,-0.44503 -1.19609,-0.57018l-1.78027,-0.41725c-0.97784,-0.23175 -1.69664,-0.59103 -2.15558,-1.07779c-0.45404,-0.49137 -0.68127,-1.10561 -0.68127,-1.84269c0,-0.60266 0.1693,-1.13576 0.50748,-1.59935c0.34308,-0.46359 0.80895,-0.82747 1.39762,-1.0917c0.59356,-0.26427 1.26585,-0.39636 2.01647,-0.39636c1.05698,0 1.88674,0.23179 2.48969,0.69534c0.60702,0.46359 1.03822,1.07551 1.29318,1.83575zM216.35946,164.83198v1.39072h-5.53499v-1.39072zM212.43789,162.27306h1.64075v10.18005c0,0.46359 0.06731,0.81124 0.20193,1.04303c0.13911,0.22714 0.31493,0.38012 0.52829,0.45894c0.21784,0.07416 0.44752,0.11125 0.68861,0.11125c0.18072,0 0.3288,-0.00926 0.44466,-0.02778c0.11626,-0.02321 0.20887,-0.04173 0.27822,-0.05564l0.3337,1.47415c-0.11096,0.04173 -0.26639,0.08347 -0.46587,0.1252c-0.19908,0.04634 -0.452,0.06951 -0.75796,0.06951c-0.46343,0 -0.91788,-0.09966 -1.36253,-0.29898c-0.44058,-0.19936 -0.80691,-0.503 -1.099,-0.91094c-0.28719,-0.40794 -0.43079,-0.92253 -0.43079,-1.5437zM220.69877,169.08758v6.42513h-1.64116v-14.24098h1.64116v5.22912h0.1387c0.25048,-0.55166 0.62619,-0.98971 1.12674,-1.31423c0.50504,-0.32913 1.17733,-0.49369 2.01647,-0.49369c0.72777,0 1.36539,0.146 1.91204,0.43805c0.54705,0.28744 0.97132,0.73014 1.27279,1.32815c0.30596,0.5934 0.45894,1.34899 0.45894,2.26687v6.78673h-1.64116v-6.67544c0,-0.84836 -0.22029,-1.5043 -0.66046,-1.96788c-0.43568,-0.4682 -1.04067,-0.70232 -1.81495,-0.70232c-0.53767,0 -1.01986,0.11357 -1.44657,0.34072c-0.42181,0.22718 -0.75551,0.55864 -1.0011,0.99436c-0.2411,0.43577 -0.36144,0.96426 -0.36144,1.58544zM235.10452,175.73524c-1.02884,0 -1.91652,-0.22718 -2.66306,-0.68147c-0.74164,-0.45894 -1.3144,-1.09868 -1.71745,-1.91918c-0.39856,-0.82519 -0.59805,-1.78476 -0.59805,-2.87882c0,-1.09403 0.19948,-2.05824 0.59805,-2.89269c0.40305,-0.83906 0.96397,-1.49271 1.68277,-1.96091c0.72329,-0.47285 1.56692,-0.70925 2.53089,-0.70925c0.55644,0 1.10594,0.09269 1.6481,0.27814c0.54257,0.18541 1.03618,0.48676 1.48125,0.90396c0.44507,0.4126 0.79957,0.95961 1.06392,1.64104c0.26435,0.68147 0.39611,1.52053 0.39611,2.51722v0.69534h-8.23273v-1.4185h6.56383c0,-0.60266 -0.12034,-1.14041 -0.36144,-1.61326c-0.2362,-0.47285 -0.57479,-0.84604 -1.01537,-1.11952c-0.43568,-0.27353 -0.9501,-0.41027 -1.54366,-0.41027c-0.65353,0 -1.21894,0.16224 -1.69664,0.48676c-0.47281,0.31987 -0.83669,0.73707 -1.09166,1.25166c-0.25497,0.51454 -0.38224,1.0662 -0.38224,1.65495v0.9457c0,0.80659 0.13911,1.49038 0.41692,2.05131c0.28311,0.55627 0.67474,0.98045 1.17529,1.2725c0.50055,0.2874 1.08228,0.43112 1.74519,0.43112c0.4312,0 0.82078,-0.06025 1.16835,-0.1808c0.35246,-0.12516 0.65597,-0.31057 0.91094,-0.55627c0.25497,-0.25031 0.452,-0.56092 0.59111,-0.93179l1.58527,0.44503c-0.16685,0.53775 -0.44711,1.0106 -0.84118,1.41855c-0.39407,0.40329 -0.88075,0.71855 -1.46044,0.9457c-0.57928,0.22249 -1.23077,0.33378 -1.95405,0.33378zM247.53092,179.51798v-14.68601h1.58527v1.69668h0.19459c0.12075,-0.18545 0.2876,-0.42186 0.50096,-0.70929c0.21784,-0.29205 0.52829,-0.55162 0.93175,-0.77881c0.40794,-0.23175 0.95949,-0.34765 1.65503,-0.34765c0.89911,0 1.69175,0.22482 2.37791,0.6745c0.68616,0.44968 1.22139,1.08709 1.60649,1.91224c0.38469,0.82515 0.57683,1.79867 0.57683,2.92052c0,1.13111 -0.19214,2.11156 -0.57683,2.94136c-0.3851,0.82515 -0.91788,1.46489 -1.59955,1.91918c-0.68127,0.44968 -1.46697,0.67454 -2.3571,0.67454c-0.68616,0 -1.23566,-0.11361 -1.6481,-0.34076c-0.41243,-0.23179 -0.73022,-0.49369 -0.95255,-0.78574c-0.22274,-0.2967 -0.39407,-0.5424 -0.51483,-0.73707h-0.13911v5.64632zM249.14393,170.17234c0,0.80663 0.1183,1.51821 0.35491,2.13473c0.2362,0.61192 0.58173,1.09174 1.03577,1.43943c0.45445,0.34304 1.01089,0.51454 1.6689,0.51454c0.68616,0 1.25851,-0.1808 1.71745,-0.54236c0.46383,-0.36625 0.8114,-0.85762 1.04311,-1.47419c0.23661,-0.62118 0.35491,-1.31191 0.35491,-2.07215c0,-0.75099 -0.11586,-1.42781 -0.34798,-2.03046c-0.22682,-0.60727 -0.57235,-1.08709 -1.03577,-1.43939c-0.45894,-0.35695 -1.03618,-0.53543 -1.73172,-0.53543c-0.6674,0 -1.22832,0.16922 -1.68277,0.50761c-0.45404,0.33378 -0.79712,0.80198 -1.02884,1.40463c-0.23212,0.59801 -0.34798,1.29567 -0.34798,2.09304zM261.10405,161.27172v14.24098h-1.64075v-14.24098zM270.84087,171.14586v-6.31388h1.64116v10.68072h-1.64116v-1.80793h-0.11096c-0.25048,0.54236 -0.64007,1.00363 -1.16835,1.38375c-0.52829,0.37551 -1.19609,0.56325 -2.0026,0.56325c-0.66781,0 -1.26096,-0.146 -1.78027,-0.43809c-0.51891,-0.29666 -0.92685,-0.74168 -1.22383,-1.33508c-0.29658,-0.59801 -0.44507,-1.35132 -0.44507,-2.25993v-6.78669h1.64116v6.67544c0,0.77881 0.21784,1.39998 0.65353,1.86357c0.44058,0.46359 1.0015,0.69534 1.68277,0.69534c0.40794,0 0.82282,-0.10427 1.24464,-0.31289c0.42671,-0.20862 0.78366,-0.52849 1.07085,-0.95961c0.29209,-0.43112 0.43813,-0.98045 0.43813,-1.64797zM275.48777,175.5127v-10.68072h1.58527v1.61322h0.11137c0.19459,-0.52845 0.54705,-0.95728 1.05698,-1.28641c0.50993,-0.32913 1.08472,-0.49369 1.72438,-0.49369c0.12075,0 0.27128,0.00233 0.452,0.00694c0.18072,0.00465 0.31779,0.01159 0.41039,0.02089v1.66886c-0.05589,-0.01391 -0.18317,-0.03476 -0.38265,-0.06258c-0.19459,-0.03247 -0.40101,-0.04867 -0.61885,-0.04867c-0.51891,0 -0.98274,0.10892 -1.39068,0.3268c-0.40305,0.21323 -0.72329,0.50993 -0.95949,0.89005c-0.23171,0.37551 -0.34757,0.8043 -0.34757,1.28641v6.75891zM285.91646,175.76302c-0.67678,0 -1.29114,-0.12748 -1.84269,-0.38245c-0.55154,-0.25958 -0.98967,-0.63276 -1.3144,-1.11952c-0.32432,-0.49137 -0.48668,-1.08477 -0.48668,-1.78011c0,-0.61192 0.12075,-1.10794 0.36144,-1.48806c0.2411,-0.38477 0.56337,-0.68612 0.96683,-0.90401c0.40305,-0.21784 0.84812,-0.38012 1.33479,-0.48672c0.49157,-0.11129 0.98519,-0.19936 1.48125,-0.26427c0.64904,-0.08342 1.17529,-0.146 1.57834,-0.18774c0.40794,-0.04634 0.70493,-0.12283 0.89014,-0.22947c0.1901,-0.10664 0.28515,-0.29205 0.28515,-0.55627v-0.05564c0,-0.68608 -0.18765,-1.21918 -0.56337,-1.59931c-0.37082,-0.38016 -0.93379,-0.57022 -1.68971,-0.57022c-0.78325,0 -1.39762,0.17154 -1.84269,0.51458c-0.44507,0.34304 -0.75796,0.70925 -0.93868,1.09868l-1.55753,-0.55631c0.27822,-0.649 0.64904,-1.15428 1.11246,-1.51588c0.46832,-0.36621 0.97825,-0.62118 1.52979,-0.7649c0.55644,-0.14833 1.10349,-0.22249 1.64116,-0.22249c0.34308,0 0.73716,0.04169 1.18222,0.12516c0.44955,0.07881 0.8832,0.24338 1.30012,0.49369c0.42181,0.25036 0.77183,0.62815 1.05005,1.13343c0.27822,0.50532 0.41733,1.18214 0.41733,2.03046v7.03704h-1.64116v-1.44637h-0.08322c-0.11137,0.23179 -0.29698,0.47982 -0.55644,0.74405c-0.25945,0.26423 -0.60498,0.48908 -1.03618,0.6745c-0.4312,0.18545 -0.95704,0.27814 -1.57834,0.27814zM286.16653,174.28887c0.64904,0 1.19609,-0.12748 1.64116,-0.38245c0.44996,-0.25497 0.78815,-0.5841 1.01537,-0.98743c0.23171,-0.40329 0.34757,-0.82747 0.34757,-1.2725v-1.50197c-0.06935,0.08347 -0.22233,0.15996 -0.45894,0.22947c-0.23171,0.0649 -0.50055,0.12283 -0.80651,0.17383c-0.30147,0.04638 -0.5956,0.08812 -0.8832,0.1252c-0.28271,0.03243 -0.51238,0.06025 -0.6882,0.08342c-0.42671,0.05564 -0.82527,0.14604 -1.19609,0.2712c-0.36633,0.12051 -0.66291,0.30363 -0.89014,0.54934c-0.22233,0.24105 -0.3337,0.57018 -0.3337,0.98739c0,0.57022 0.21091,1.00134 0.63272,1.29339c0.4263,0.2874 0.96642,0.43112 1.61995,0.43112zM295.44809,161.27172v14.24098h-1.64116v-14.24098zM308.7173,164.83198v1.39072h-5.75773v-1.39072zM304.68436,175.5127v-12.15491c0,-0.61192 0.1436,-1.12185 0.43079,-1.52979c0.2876,-0.40794 0.66087,-0.7139 1.11981,-0.91788c0.45894,-0.20396 0.94317,-0.30594 1.4531,-0.30594c0.40346,0 0.73267,0.03245 0.98763,0.09735c0.25497,0.0649 0.44507,0.12517 0.5699,0.18081l-0.47281,1.4185c-0.08322,-0.02778 -0.19908,-0.06258 -0.34757,-0.10427c-0.1436,-0.04173 -0.3337,-0.06262 -0.57031,-0.06262c-0.54216,0 -0.93379,0.13678 -1.17488,0.41027c-0.23661,0.27353 -0.35491,0.6745 -0.35491,1.20299v11.76549zM314.91643,175.73524c-0.96438,0 -1.81046,-0.22947 -2.53823,-0.68841c-0.72288,-0.45894 -1.2887,-1.101 -1.69664,-1.92615c-0.40305,-0.82519 -0.60498,-1.78941 -0.60498,-2.89269c0,-1.11259 0.20193,-2.08378 0.60498,-2.91358c0.40794,-0.8298 0.97376,-1.47415 1.69664,-1.93309c0.72777,-0.45894 1.57385,-0.68841 2.53823,-0.68841c0.96438,0 1.80801,0.22947 2.53089,0.68841c0.72818,0.45894 1.29359,1.10329 1.69705,1.93309c0.40794,0.8298 0.61192,1.80099 0.61192,2.91358c0,1.10329 -0.20397,2.0675 -0.61192,2.89269c-0.40346,0.82515 -0.96887,1.46721 -1.69705,1.92615c-0.72288,0.45894 -1.56651,0.68841 -2.53089,0.68841zM314.91643,174.26105c0.73226,0 1.3352,-0.18774 1.80801,-0.56325c0.47281,-0.37547 0.82282,-0.86917 1.05005,-1.48108c0.22682,-0.61192 0.34063,-1.27483 0.34063,-1.98873c0,-0.7139 -0.11382,-1.37914 -0.34063,-1.99571c-0.22723,-0.61657 -0.57724,-1.11487 -1.05005,-1.49504c-0.47281,-0.38012 -1.07575,-0.57018 -1.80801,-0.57018c-0.73267,0 -1.3352,0.19006 -1.80801,0.57018c-0.47281,0.38016 -0.82282,0.87847 -1.05005,1.49504c-0.22723,0.61657 -0.34063,1.2818 -0.34063,1.99571c0,0.7139 0.11341,1.37681 0.34063,1.98873c0.22723,0.61192 0.57724,1.10561 1.05005,1.48108c0.47281,0.37551 1.07534,0.56325 1.80801,0.56325zM322.26107,175.5127v-10.68072h1.58568v1.61322h0.11096c0.195,-0.52845 0.54705,-0.95728 1.05698,-1.28641c0.50993,-0.32913 1.08472,-0.49369 1.72438,-0.49369c0.12075,0 0.27128,0.00233 0.452,0.00694c0.18113,0.00465 0.31779,0.01159 0.41039,0.02089v1.66886c-0.05548,-0.01391 -0.18317,-0.03476 -0.38224,-0.06258c-0.195,-0.03247 -0.40101,-0.04867 -0.61885,-0.04867c-0.51931,0 -0.98315,0.10892 -1.39109,0.3268c-0.40305,0.21323 -0.72288,0.50993 -0.95949,0.89005c-0.23171,0.37551 -0.34757,0.8043 -0.34757,1.28641v6.75891zM329.54696,175.5127v-10.68072h1.58527v1.66886h0.13911c0.22233,-0.57018 0.58173,-1.01293 1.07779,-1.32815c0.49606,-0.31987 1.09166,-0.47978 1.78721,-0.47978c0.70452,0 1.29074,0.15991 1.75906,0.47978c0.47281,0.31522 0.84159,0.75796 1.10553,1.32815h0.11137c0.27332,-0.55166 0.68372,-0.98971 1.23077,-1.31423c0.54705,-0.32913 1.20303,-0.49369 1.96792,-0.49369c0.955,0 1.73621,0.29898 2.34323,0.89699c0.60743,0.5934 0.91094,1.51821 0.91094,2.77451v7.14829h-1.64116v-7.14829c0,-0.78807 -0.21539,-1.35132 -0.64659,-1.68975c-0.4312,-0.33839 -0.93868,-0.50761 -1.52286,-0.50761c-0.75103,0 -1.33276,0.22714 -1.74519,0.68147c-0.41243,0.44964 -0.61885,1.01986 -0.61885,1.71055v6.95362h-1.6689v-7.31518c0,-0.60731 -0.19704,-1.09635 -0.59111,-1.46721c-0.39407,-0.37551 -0.90156,-0.56325 -1.52286,-0.56325c-0.4263,0 -0.82527,0.11357 -1.19609,0.34072c-0.36593,0.22718 -0.66291,0.5424 -0.89014,0.9457c-0.22233,0.39868 -0.3337,0.85995 -0.3337,1.38379v6.67544zM141.85866,199.39582c-0.96426,0 -1.81026,-0.22926 -2.53807,-0.6882c-0.72318,-0.45894 -1.28873,-1.10104 -1.69668,-1.92615c-0.40331,-0.82519 -0.60496,-1.78941 -0.60496,-2.89269c0,-1.11259 0.20165,-2.08378 0.60496,-2.91358c0.40794,-0.8298 0.9735,-1.47415 1.69668,-1.93309c0.72781,-0.45894 1.57381,-0.68841 2.53807,-0.68841c0.96422,0 1.80793,0.22947 2.53109,0.68841c0.72781,0.45894 1.29339,1.10329 1.69668,1.93309c0.40794,0.8298 0.61192,1.80099 0.61192,2.91358c0,1.10329 -0.20397,2.0675 -0.61192,2.89269c-0.40329,0.82511 -0.96887,1.46721 -1.69668,1.92615c-0.72316,0.45894 -1.56687,0.6882 -2.53109,0.6882zM141.85866,197.92192c0.73242,0 1.33508,-0.18765 1.80793,-0.56333c0.47285,-0.37547 0.82282,-0.86917 1.05001,-1.48108c0.22714,-0.61192 0.34072,-1.27483 0.34072,-1.98873c0,-0.7139 -0.11357,-1.37914 -0.34072,-1.99571c-0.22718,-0.61657 -0.57716,-1.11487 -1.05001,-1.49504c-0.47285,-0.38012 -1.07551,-0.57018 -1.80793,-0.57018c-0.73246,0 -1.33508,0.19006 -1.80795,0.57018c-0.47284,0.38016 -0.82284,0.87847 -1.04999,1.49504c-0.22715,0.61657 -0.34073,1.2818 -0.34073,1.99571c0,0.7139 0.11358,1.37681 0.34073,1.98873c0.22715,0.61192 0.57715,1.10561 1.04999,1.48108c0.47286,0.37568 1.07548,0.56333 1.80795,0.56333zM153.95964,188.49277v1.39072h-5.75757v-1.39072zM149.92658,199.17349v-12.15491c0,-0.61192 0.14368,-1.12185 0.43112,-1.52979c0.2874,-0.40794 0.66058,-0.7139 1.11952,-0.91788c0.45894,-0.20397 0.94337,-0.30596 1.4533,-0.30596c0.40329,0 0.73246,0.03247 0.98743,0.09738c0.25497,0.0649 0.44503,0.12516 0.57018,0.1808l-0.47285,1.4185c-0.08342,-0.02778 -0.19932,-0.06258 -0.34769,-0.10427c-0.14368,-0.04173 -0.33378,-0.06262 -0.57018,-0.06262c-0.54236,0 -0.93411,0.13678 -1.17517,0.41027c-0.2364,0.27353 -0.35463,0.6745 -0.35463,1.20299v11.76549zM163.18535,184.93251v4.89534h-1.52979v-4.89534zM166.7456,184.93251v4.89534h-1.52979v-4.89534zM174.00343,199.39582c-1.00134,0 -1.86357,-0.2362 -2.58678,-0.70901c-0.72316,-0.47281 -1.27944,-1.1243 -1.66886,-1.95405c-0.38938,-0.82976 -0.5841,-1.77778 -0.5841,-2.84399c0,-1.08477 0.19936,-2.04205 0.59801,-2.87185c0.40333,-0.83445 0.96426,-1.48578 1.68277,-1.95397c0.7232,-0.47285 1.56687,-0.70925 2.53113,-0.70925c0.75099,0 1.42781,0.13907 2.03042,0.4172c0.60266,0.27814 1.09651,0.66756 1.48121,1.16819c0.38469,0.50067 0.62334,1.08477 0.71635,1.75233h-1.64124c-0.12516,-0.48676 -0.40333,-0.91788 -0.83445,-1.29339c-0.42647,-0.38012 -1.0013,-0.57018 -1.72446,-0.57018c-0.63974,0 -1.20066,0.16689 -1.68277,0.50067c-0.4775,0.32913 -0.85069,0.795 -1.11956,1.39766c-0.26423,0.59801 -0.39636,1.30032 -0.39636,2.10695c0,0.82515 0.12981,1.5437 0.38942,2.15562c0.26423,0.61192 0.63509,1.08709 1.11259,1.42548c0.48211,0.33839 1.04764,0.50769 1.69668,0.50769c0.42647,0 0.81356,-0.07425 1.16121,-0.22274c0.34769,-0.14808 0.64206,-0.36144 0.88312,-0.63958c0.24105,-0.27814 0.4126,-0.61192 0.51458,-1.00134h1.64124c-0.09301,0.63048 -0.32228,1.19834 -0.68861,1.70374c-0.36144,0.50055 -0.84139,0.89911 -1.43939,1.19609c-0.59336,0.29209 -1.28409,0.43772 -2.07215,0.43772zM182.24346,192.74836v6.42513h-1.64116v-14.24098h1.64116v5.22912h0.13911c0.25007,-0.55166 0.62579,-0.98971 1.12634,-1.31423c0.50544,-0.32913 1.17774,-0.49369 2.01647,-0.49369c0.72777,0 1.36539,0.146 1.91244,0.43805c0.54705,0.28744 0.97132,0.73014 1.27238,1.32815c0.30596,0.5934 0.45894,1.34899 0.45894,2.26687v6.78673h-1.64116v-6.67544c0,-0.84836 -0.21988,-1.5043 -0.66046,-1.96788c-0.43568,-0.4682 -1.04067,-0.70232 -1.81495,-0.70232c-0.53767,0 -1.01986,0.11357 -1.44616,0.34072c-0.42181,0.22718 -0.75551,0.55864 -1.0015,0.99436c-0.2411,0.43577 -0.36144,0.96426 -0.36144,1.58544zM192.17161,199.17349v-10.68072h1.64075v10.68072zM193.00586,186.71262c-0.31983,0 -0.5956,-0.10892 -0.82731,-0.3268c-0.22723,-0.21788 -0.34104,-0.47978 -0.34104,-0.78574c0,-0.30596 0.11382,-0.5679 0.34104,-0.78578c0.23171,-0.21788 0.50748,-0.3268 0.82731,-0.3268c0.31983,0 0.59356,0.10892 0.82038,0.3268c0.23212,0.21788 0.34798,0.47982 0.34798,0.78578c0,0.30596 -0.11586,0.56786 -0.34798,0.78574c-0.22682,0.21788 -0.50055,0.3268 -0.82038,0.3268zM198.45926,184.93251v14.24098h-1.64116v-14.24098zM205.49794,199.39582c-0.89014,0 -1.67584,-0.22478 -2.3571,-0.67433c-0.68168,-0.45445 -1.21445,-1.09411 -1.59955,-1.91918c-0.38469,-0.8298 -0.57683,-1.81025 -0.57683,-2.94136c0,-1.12185 0.19214,-2.09537 0.57683,-2.92052c0.3851,-0.82515 0.92032,-1.46256 1.60649,-1.91224c0.68616,-0.44968 1.4788,-0.6745 2.37791,-0.6745c0.69555,0 1.24505,0.1159 1.6481,0.34765c0.40794,0.22718 0.7188,0.48676 0.93175,0.77881c0.21784,0.28744 0.38714,0.52384 0.50789,0.70929h0.1387v-5.25694h1.64116v14.24098h-1.58527v-1.64104h-0.19459c-0.12075,0.19488 -0.29209,0.44046 -0.51483,0.73703c-0.22233,0.29209 -0.54012,0.55399 -0.95255,0.7857c-0.41243,0.22723 -0.96193,0.34063 -1.6481,0.34063zM205.72067,197.92192c0.65801,0 1.21445,-0.17174 1.6689,-0.51462c0.45404,-0.34769 0.79957,-0.82752 1.03577,-1.43943c0.23661,-0.61653 0.35491,-1.3281 0.35491,-2.13473c0,-0.79737 -0.11586,-1.49504 -0.34798,-2.09304c-0.23171,-0.60266 -0.57479,-1.07085 -1.02884,-1.40463c-0.45445,-0.33839 -1.01537,-0.50761 -1.68277,-0.50761c-0.69555,0 -1.27483,0.17848 -1.73866,0.53543c-0.45894,0.3523 -0.80406,0.83213 -1.03618,1.43939c-0.22682,0.60266 -0.34063,1.27948 -0.34063,2.03046c0,0.76025 0.11586,1.45098 0.34798,2.07215c0.2362,0.61657 0.58377,1.10794 1.04271,1.47419c0.46383,0.36172 1.03863,0.54244 1.72479,0.54244zM215.04547,184.93251v4.89534h-1.52979v-4.89534zM218.6056,184.93251v4.89534h-1.52979v-4.89534zM223.66616,195.16821v-0.08342c0.00897,-0.88544 0.10199,-1.59009 0.27822,-2.11389c0.17582,-0.52384 0.4263,-0.94802 0.75062,-1.27254c0.32472,-0.32448 0.7139,-0.6235 1.16835,-0.89699c0.27373,-0.16689 0.51931,-0.36393 0.73716,-0.59107c0.21784,-0.23179 0.38918,-0.49835 0.51442,-0.79965c0.12973,-0.30135 0.195,-0.63509 0.195,-1.00134c0,-0.45429 -0.10688,-0.84832 -0.32024,-1.1821c-0.21295,-0.33378 -0.4981,-0.59107 -0.85505,-0.77183c-0.35695,-0.1808 -0.75347,-0.2712 -1.18916,-0.2712c-0.3802,0 -0.74613,0.07881 -1.09859,0.2364c-0.35246,0.15763 -0.64659,0.40566 -0.8832,0.74405c-0.2362,0.33839 -0.37327,0.78113 -0.41039,1.32815h-1.75212c0.03712,-0.78807 0.2411,-1.46256 0.61192,-2.02349c0.37531,-0.56092 0.86933,-0.98976 1.48125,-1.28645c0.6164,-0.29666 1.30012,-0.44503 2.05115,-0.44503c0.81589,0 1.5253,0.16228 2.12784,0.48676c0.60743,0.32452 1.07534,0.76955 1.40455,1.33508c0.3337,0.56557 0.50055,1.20996 0.50055,1.93313c0,0.50993 -0.07873,0.97119 -0.2362,1.38375c-0.15298,0.4126 -0.37572,0.78113 -0.6674,1.10565c-0.2876,0.32448 -0.63517,0.61192 -1.04311,0.86223c-0.40794,0.25497 -0.73471,0.52384 -0.9807,0.80663c-0.24558,0.27814 -0.42385,0.60959 -0.53522,0.99436c-0.11137,0.38473 -0.17174,0.86456 -0.18072,1.43939v0.08342zM224.55629,199.28486c-0.34308,0 -0.63762,-0.12279 -0.8832,-0.36878c-0.24599,-0.24558 -0.36878,-0.54012 -0.36878,-0.88279c0,-0.34308 0.12279,-0.63762 0.36878,-0.88328c0.24558,-0.24571 0.54012,-0.36854 0.8832,-0.36854c0.34267,0 0.63721,0.12283 0.88279,0.36854c0.24599,0.24566 0.36878,0.5402 0.36878,0.88328c0,0.22682 -0.05793,0.43568 -0.17378,0.62579c-0.11137,0.1901 -0.2619,0.34308 -0.452,0.45894c-0.18561,0.11096 -0.39407,0.16685 -0.62579,0.16685z"/></g></g></svg>