<svg version="1.1" xmlns="http://www.w3.org/2000/svg" xmlns:xlink="http://www.w3.org/1999/xlink" width="240.37026" height="12.83216" viewBox="0,0,240.37026,12.83216"><g transform="translate(-119.81487,-173.58392)"><g data-paper-data="{&quot;isPaintingLayer&quot;:true}" fill="#ffffff" fill-rule="nonzero" stroke="none" stroke-width="1" stroke-linecap="butt" stroke-linejoin="miter" stroke-miterlimit="10" stroke-dasharray="" stroke-dashoffset="0" style="mix-blend-mode: normal"><path d="M122.45679,183.69868l-2.64192,-9.66185h1.18886l2.01917,7.86912h0.09435l2.05694,-7.86912h1.32095l2.05691,7.86912h0.09435l2.01919,-7.86912h1.18885l-2.6419,9.66185h-1.20775l-2.13239,-7.69929h-0.07548l-2.13242,7.69929zM134.27461,179.33953v4.35916h-1.11337v-9.66185h1.11337v3.54772h0.09438c0.16983,-0.37428 0.42457,-0.67148 0.76425,-0.89165c0.34284,-0.2233 0.79887,-0.33495 1.36814,-0.33495c0.49379,0 0.92624,0.09906 1.29737,0.2972c0.37112,0.19501 0.65891,0.49537 0.86333,0.90109c0.20758,0.40259 0.31137,0.91523 0.31137,1.53797v4.60449h-1.11337v-4.52898c0,-0.57557 -0.1494,-1.0206 -0.44818,-1.33512c-0.29565,-0.31765 -0.7061,-0.47649 -1.23133,-0.47649c-0.36484,0 -0.69193,0.07705 -0.98127,0.23116c-0.28621,0.15413 -0.51266,0.37901 -0.67936,0.67463c-0.16354,0.29565 -0.24533,0.65421 -0.24533,1.07565zM141.01032,183.69868v-7.24638h1.11337v7.24638zM141.57643,175.24455c-0.21699,0 -0.40414,-0.0739 -0.5614,-0.22172c-0.15411,-0.14782 -0.23116,-0.32551 -0.23116,-0.53309c0,-0.20758 0.07705,-0.38529 0.23116,-0.53312c0.15726,-0.14782 0.34441,-0.22172 0.5614,-0.22172c0.21702,0 0.40259,0.0739 0.5567,0.22172c0.15726,0.14782 0.23589,0.32554 0.23589,0.53312c0,0.20758 -0.07863,0.38527 -0.23589,0.53309c-0.15411,0.14782 -0.33968,0.22172 -0.5567,0.22172zM147.10677,183.84966c-0.67936,0 -1.26435,-0.16042 -1.75498,-0.48122c-0.49066,-0.32081 -0.86807,-0.7627 -1.13225,-1.32568c-0.26421,-0.56295 -0.39631,-1.20614 -0.39631,-1.92951c0,-0.73596 0.13526,-1.38544 0.40575,-1.94842c0.27362,-0.56614 0.65418,-1.00803 1.14168,-1.32568c0.49063,-0.32081 1.06305,-0.4812 1.71723,-0.4812c0.5094,0 0.96856,0.09435 1.37763,0.28305c0.40879,0.1887 0.74369,0.45291 1.00468,0.79256c0.26127,0.33968 0.42318,0.73596 0.48601,1.18887h-1.11345c-0.08469,-0.33024 -0.27345,-0.62274 -0.566,-0.8775c-0.28923,-0.2579 -0.67947,-0.38684 -1.17,-0.38684c-0.43403,0 -0.81459,0.11323 -1.14168,0.33968c-0.32396,0.2233 -0.57712,0.53937 -0.75954,0.94825c-0.17929,0.40572 -0.26891,0.88221 -0.26891,1.42947c0,0.55983 0.08807,1.04733 0.26418,1.46249c0.17927,0.41516 0.43088,0.73754 0.75484,0.96712c0.32709,0.22958 0.71081,0.34439 1.15112,0.34439c0.28931,0 0.55197,-0.05032 0.78778,-0.15095c0.23609,-0.10066 0.43564,-0.24533 0.59921,-0.43403c0.16357,-0.1887 0.27982,-0.41516 0.34901,-0.67936h1.11345c-0.06283,0.42775 -0.21865,0.81302 -0.46691,1.15585c-0.2455,0.33965 -0.57098,0.61014 -0.97673,0.81144c-0.40243,0.19814 -0.871,0.29723 -1.40581,0.29723zM152.69737,179.33953v4.35916h-1.11345v-9.66185h1.11345v3.54772h0.0941c0.16994,-0.37428 0.42484,-0.67148 0.76444,-0.89165c0.34264,-0.2233 0.79876,-0.33495 1.36808,-0.33495c0.49376,0 0.92636,0.09906 1.29723,0.2972c0.37115,0.19501 0.65899,0.49537 0.86353,0.90109c0.20758,0.40259 0.31137,0.91523 0.31137,1.53797v4.60449h-1.11345v-4.52898c0,-0.57557 -0.14946,-1.0206 -0.44809,-1.33512c-0.29559,-0.31765 -0.70604,-0.47649 -1.23136,-0.47649c-0.36479,0 -0.69193,0.07705 -0.98143,0.23116c-0.28618,0.15413 -0.51258,0.37901 -0.6792,0.67463c-0.16357,0.29565 -0.24522,0.65421 -0.24522,1.07565zM164.81111,183.69868l-2.20781,-7.24638h1.16991l1.56625,5.548h0.07556l1.54743,-5.548h1.18873l1.52861,5.52915h0.07556l1.56625,-5.52915h1.16991l-2.20781,7.24638h-1.09463l-1.58507,-5.56688h-0.1132l-1.58507,5.56688zM176.66082,183.84966c-0.65429,0 -1.22831,-0.15568 -1.72207,-0.46705c-0.49044,-0.31137 -0.87432,-0.74698 -1.15109,-1.30681c-0.27345,-0.55985 -0.41045,-1.21403 -0.41045,-1.96256c0,-0.75484 0.137,-1.41375 0.41045,-1.97673c0.27677,-0.56298 0.66065,-1.00014 1.15109,-1.31151c0.49376,-0.31137 1.06779,-0.46705 1.72207,-0.46705c0.65429,0 1.22665,0.15568 1.71709,0.46705c0.49404,0.31137 0.87764,0.74853 1.15137,1.31151c0.27677,0.56298 0.41516,1.22189 0.41516,1.97673c0,0.74853 -0.13839,1.40271 -0.41516,1.96256c-0.27373,0.55983 -0.65733,0.99544 -1.15137,1.30681c-0.49044,0.31137 -1.0628,0.46705 -1.71709,0.46705zM176.66082,182.84949c0.49681,0 0.90587,-0.12737 1.22665,-0.38214c0.32078,-0.25474 0.55825,-0.58969 0.71241,-1.00485c0.15389,-0.41516 0.2311,-0.86491 0.2311,-1.34926c0,-0.48435 -0.07722,-0.93568 -0.2311,-1.354c-0.15416,-0.41831 -0.39163,-0.75639 -0.71241,-1.01431c-0.32078,-0.2579 -0.72985,-0.38684 -1.22665,-0.38684c-0.49708,0 -0.90587,0.12895 -1.22665,0.38684c-0.32078,0.25792 -0.55825,0.596 -0.71241,1.01431c-0.15416,0.41831 -0.2311,0.86964 -0.2311,1.354c0,0.48435 0.07694,0.9341 0.2311,1.34926c0.15416,0.41516 0.39163,0.75011 0.71241,1.00485c0.32078,0.25477 0.72957,0.38214 1.22665,0.38214zM181.64382,183.69868v-7.24638h1.07581v1.09449h0.07528c0.1323,-0.35853 0.37115,-0.64947 0.71712,-0.87277c0.34596,-0.2233 0.73594,-0.33495 1.16991,-0.33495c0.08192,0 0.18405,0.00158 0.30666,0.00471c0.12289,0.00316 0.21561,0.00786 0.27843,0.01417v1.13225c-0.03764,-0.00944 -0.12427,-0.02358 -0.25934,-0.04246c-0.1323,-0.02203 -0.27207,-0.03302 -0.41986,-0.03302c-0.35233,0 -0.66702,0.0739 -0.94379,0.22172c-0.27345,0.14467 -0.49044,0.34596 -0.65097,0.60386c-0.15721,0.25477 -0.23581,0.54568 -0.23581,0.87277v4.58561zM189.10254,183.84966c-0.60392,0 -1.13698,-0.15256 -1.59919,-0.45764c-0.46249,-0.30821 -0.82423,-0.74225 -1.08522,-1.30207c-0.261,-0.56298 -0.39163,-1.22817 -0.39163,-1.99558c0,-0.76112 0.13064,-1.42161 0.39163,-1.98144c0.261,-0.55983 0.6244,-0.99228 1.08993,-1.29737c0.46553,-0.30509 1.0033,-0.45761 1.6133,-0.45761c0.4719,0 0.84443,0.07863 1.11816,0.23586c0.27677,0.15413 0.4874,0.33024 0.63215,0.52838c0.1478,0.19501 0.26266,0.3554 0.3443,0.48122h0.09438v-3.56659h1.11345v9.66185h-1.07554v-1.11337h-0.1323c-0.08165,0.13208 -0.19789,0.29878 -0.34901,0.50007c-0.15084,0.19814 -0.36645,0.37583 -0.64626,0.53309c-0.28009,0.15411 -0.65263,0.23119 -1.11816,0.23119zM189.25366,182.84949c0.44643,0 0.82395,-0.11635 1.132,-0.34909c0.30832,-0.23589 0.54275,-0.56143 0.703,-0.97659c0.16053,-0.41829 0.24079,-0.90106 0.24079,-1.44832c0,-0.54098 -0.07888,-1.01431 -0.23609,-1.42003c-0.15721,-0.40887 -0.38997,-0.72653 -0.69802,-0.95298c-0.30832,-0.22958 -0.68888,-0.34439 -1.14168,-0.34439c-0.4719,0 -0.86491,0.12109 -1.1796,0.36326c-0.31137,0.23902 -0.54552,0.56456 -0.703,0.97656c-0.15389,0.40887 -0.2311,0.86807 -0.2311,1.37758c0,0.51579 0.0786,0.98442 0.23581,1.40586c0.16053,0.41831 0.39634,0.75168 0.70771,1.00017c0.31469,0.2453 0.70466,0.36797 1.17019,0.36797zM198.35391,183.69868v-7.24638h1.11345v7.24638zM198.92019,175.24455c-0.21699,0 -0.40436,-0.0739 -0.56157,-0.22172c-0.15416,-0.14782 -0.2311,-0.32551 -0.2311,-0.53309c0,-0.20758 0.07694,-0.38529 0.2311,-0.53312c0.15721,-0.14782 0.34458,-0.22172 0.56157,-0.22172c0.21699,0 0.40243,0.0739 0.55659,0.22172c0.15721,0.14782 0.23581,0.32554 0.23581,0.53312c0,0.20758 -0.0786,0.38527 -0.23581,0.53309c-0.15416,0.14782 -0.3396,0.22172 -0.55659,0.22172zM206.63935,178.07518l-0.99998,0.28305c-0.0631,-0.16667 -0.15582,-0.32867 -0.27843,-0.4859c-0.11957,-0.16042 -0.28314,-0.29252 -0.49072,-0.39631c-0.20758,-0.10379 -0.47328,-0.15568 -0.7971,-0.15568c-0.44367,0 -0.81316,0.10224 -1.10875,0.30666c-0.29255,0.2013 -0.43868,0.45761 -0.43868,0.76898c0,0.27677 0.10047,0.49537 0.30196,0.65576c0.20121,0.16042 0.51563,0.29407 0.94351,0.40101l1.07554,0.26418c0.64792,0.15726 1.13061,0.39786 1.44835,0.72182c0.31773,0.32081 0.4766,0.73439 0.4766,1.24074c0,0.41516 -0.11957,0.78631 -0.3587,1.1134c-0.23581,0.32709 -0.566,0.58498 -0.99057,0.77369c-0.42484,0.1887 -0.91861,0.28308 -1.48156,0.28308c-0.73898,0 -1.35065,-0.16042 -1.835,-0.48122c-0.48435,-0.32081 -0.79101,-0.78944 -0.91999,-1.40586l1.05671,-0.26421c0.10074,0.39 0.29089,0.68249 0.5707,0.8775c0.28314,0.19499 0.65263,0.29249 1.10875,0.29249c0.51895,0 0.93106,-0.11007 1.23606,-0.33024c0.30832,-0.2233 0.46221,-0.49063 0.46221,-0.802c0,-0.25161 -0.08801,-0.46235 -0.26404,-0.63217c-0.17603,-0.17298 -0.44671,-0.30193 -0.81149,-0.38684l-1.20783,-0.28308c-0.66342,-0.15723 -1.15109,-0.40099 -1.46246,-0.73123c-0.30805,-0.33337 -0.46221,-0.75011 -0.46221,-1.25018c0,-0.40887 0.11486,-0.77056 0.3443,-1.08508c0.23277,-0.31452 0.54884,-0.5614 0.94822,-0.74067c0.4027,-0.17929 0.85882,-0.26891 1.36836,-0.26891c0.71684,0 1.28007,0.15726 1.68886,0.47176c0.41184,0.31452 0.70438,0.72968 0.87737,1.24547zM214.31617,183.86851c-0.45916,0 -0.87571,-0.08649 -1.25018,-0.25947c-0.3742,-0.17611 -0.67145,-0.4293 -0.89148,-0.75954c-0.22031,-0.33337 -0.33019,-0.73596 -0.33019,-1.20772c0,-0.41516 0.08165,-0.75168 0.24522,-1.00958c0.16357,-0.26105 0.38222,-0.4655 0.65567,-0.61333c0.27373,-0.1478 0.57569,-0.2579 0.90587,-0.33022c0.33351,-0.0755 0.6684,-0.13526 1.00496,-0.17929c0.44034,-0.0566 0.7971,-0.09906 1.07083,-0.12737c0.27677,-0.03144 0.47798,-0.08334 0.60392,-0.15568c0.12898,-0.07235 0.19346,-0.19814 0.19346,-0.37741v-0.03775c0,-0.46547 -0.12732,-0.82716 -0.38222,-1.08506c-0.25159,-0.25792 -0.63381,-0.38687 -1.14639,-0.38687c-0.5314,0 -0.94822,0.11638 -1.25018,0.34912c-0.30196,0.23274 -0.51424,0.4812 -0.63685,0.7454l-1.05671,-0.37743c0.18848,-0.44032 0.44034,-0.78313 0.75476,-1.02846c0.31773,-0.24846 0.6637,-0.42144 1.03789,-0.51895c0.37752,-0.10063 0.74839,-0.15095 1.11345,-0.15095c0.23277,0 0.49985,0.02829 0.80181,0.08491c0.30528,0.05347 0.59921,0.16512 0.88235,0.33495c0.28618,0.16985 0.52365,0.42617 0.71241,0.76898c0.18876,0.34284 0.28286,0.80203 0.28286,1.37758v4.77431h-1.11318v-0.98129h-0.05674c-0.07556,0.15726 -0.20121,0.32554 -0.37724,0.5048c-0.1763,0.17927 -0.41045,0.33182 -0.703,0.45761c-0.29255,0.12582 -0.64958,0.1887 -1.07111,0.1887zM214.48611,182.86837c0.44034,0 0.81149,-0.08649 1.11345,-0.25947c0.305,-0.17298 0.53472,-0.39628 0.68861,-0.66993c0.15748,-0.27362 0.23609,-0.5614 0.23609,-0.86333v-1.01902c-0.04733,0.05663 -0.15112,0.10852 -0.31137,0.15568c-0.15721,0.04403 -0.33988,0.08334 -0.54745,0.11793c-0.20426,0.03147 -0.40409,0.05978 -0.59893,0.08494c-0.1918,0.022 -0.34763,0.04088 -0.46719,0.0566c-0.28923,0.03775 -0.55991,0.09908 -0.81149,0.184c-0.24826,0.08176 -0.44975,0.206 -0.60364,0.3727c-0.15112,0.16354 -0.22668,0.38684 -0.22668,0.6699c0,0.38687 0.14309,0.67936 0.42955,0.8775c0.28923,0.19499 0.65567,0.29249 1.09906,0.29249zM220.78322,179.33953v4.35916h-1.11345v-7.24638h1.07554v1.13225h0.09438c0.16994,-0.368 0.42789,-0.66362 0.77385,-0.88694c0.34596,-0.22643 0.7924,-0.33965 1.33958,-0.33965c0.49072,0 0.91999,0.10063 1.2881,0.30193c0.36783,0.19814 0.65429,0.50007 0.85855,0.90579c0.20453,0.40259 0.30666,0.9121 0.30666,1.52853v4.60449h-1.11345v-4.52898c0,-0.56929 -0.1478,-1.01274 -0.44339,-1.33041c-0.29559,-0.32078 -0.70134,-0.4812 -1.21724,-0.4812c-0.35537,0 -0.67283,0.07705 -0.95293,0.23116c-0.27677,0.15413 -0.49542,0.37901 -0.65567,0.67463c-0.16053,0.29565 -0.24051,0.65421 -0.24051,1.07565zM233.30963,183.86851c-0.45916,0 -0.87571,-0.08649 -1.25018,-0.25947c-0.3742,-0.17611 -0.67145,-0.4293 -0.89148,-0.75954c-0.22031,-0.33337 -0.33019,-0.73596 -0.33019,-1.20772c0,-0.41516 0.08165,-0.75168 0.24522,-1.00958c0.16357,-0.26105 0.38222,-0.4655 0.65567,-0.61333c0.27373,-0.1478 0.57569,-0.2579 0.90587,-0.33022c0.33351,-0.0755 0.6684,-0.13526 1.00496,-0.17929c0.44034,-0.0566 0.7971,-0.09906 1.07083,-0.12737c0.27677,-0.03144 0.47798,-0.08334 0.60392,-0.15568c0.12898,-0.07235 0.19346,-0.19814 0.19346,-0.37741v-0.03775c0,-0.46547 -0.12732,-0.82716 -0.38222,-1.08506c-0.25159,-0.25792 -0.63381,-0.38687 -1.14639,-0.38687c-0.5314,0 -0.94822,0.11638 -1.25018,0.34912c-0.30196,0.23274 -0.51424,0.4812 -0.63685,0.7454l-1.05671,-0.37743c0.18848,-0.44032 0.44034,-0.78313 0.75476,-1.02846c0.31773,-0.24846 0.6637,-0.42144 1.03789,-0.51895c0.37752,-0.10063 0.74839,-0.15095 1.11345,-0.15095c0.23277,0 0.49985,0.02829 0.80181,0.08491c0.30528,0.05347 0.59921,0.16512 0.88235,0.33495c0.28618,0.16985 0.52365,0.42617 0.71241,0.76898c0.18876,0.34284 0.28286,0.80203 0.28286,1.37758v4.77431h-1.11318v-0.98129h-0.05674c-0.07556,0.15726 -0.20121,0.32554 -0.37724,0.5048c-0.1763,0.17927 -0.41045,0.33182 -0.703,0.45761c-0.29255,0.12582 -0.64958,0.1887 -1.07111,0.1887zM233.47957,182.86837c0.44034,0 0.81149,-0.08649 1.11345,-0.25947c0.305,-0.17298 0.53472,-0.39628 0.68861,-0.66993c0.15748,-0.27362 0.23609,-0.5614 0.23609,-0.86333v-1.01902c-0.04733,0.05663 -0.15112,0.10852 -0.31137,0.15568c-0.15721,0.04403 -0.33988,0.08334 -0.54745,0.11793c-0.20426,0.03147 -0.40409,0.05978 -0.59893,0.08494c-0.1918,0.022 -0.34763,0.04088 -0.46719,0.0566c-0.28923,0.03775 -0.55991,0.09908 -0.81149,0.184c-0.24826,0.08176 -0.44975,0.206 -0.60364,0.3727c-0.15112,0.16354 -0.22668,0.38684 -0.22668,0.6699c0,0.38687 0.14309,0.67936 0.42955,0.8775c0.28923,0.19499 0.65567,0.29249 1.09906,0.29249zM239.77668,179.33953v4.35916h-1.11345v-7.24638h1.07554v1.13225h0.09438c0.16994,-0.368 0.42789,-0.66362 0.77385,-0.88694c0.34596,-0.22643 0.7924,-0.33965 1.33958,-0.33965c0.49072,0 0.91999,0.10063 1.2881,0.30193c0.36783,0.19814 0.65429,0.50007 0.85855,0.90579c0.20453,0.40259 0.30666,0.9121 0.30666,1.52853v4.60449h-1.11345v-4.52898c0,-0.56929 -0.1478,-1.01274 -0.44339,-1.33041c-0.29559,-0.32078 -0.70134,-0.4812 -1.21724,-0.4812c-0.35537,0 -0.67283,0.07705 -0.95293,0.23116c-0.27677,0.15413 -0.49542,0.37901 -0.65567,0.67463c-0.16053,0.29565 -0.24051,0.65421 -0.24051,1.07565zM249.58575,176.4523v0.94354h-3.75524v-0.94354zM246.92514,174.71619h1.11318v6.9067c0,0.31452 0.04567,0.55039 0.137,0.70765c0.09438,0.15411 0.21367,0.2579 0.35842,0.31137c0.1478,0.05032 0.30362,0.07548 0.46719,0.07548c0.12261,0 0.22308,-0.00628 0.30196,-0.01885c0.0786,-0.01575 0.14143,-0.02831 0.18848,-0.03775l0.22668,1.00014c-0.07556,0.02831 -0.18101,0.05663 -0.31607,0.08494c-0.13534,0.03144 -0.30666,0.04716 -0.51424,0.04716c-0.31469,0 -0.62274,-0.06762 -0.92469,-0.20285c-0.29891,-0.13526 -0.54745,-0.34126 -0.74562,-0.61803c-0.19485,-0.27677 -0.29227,-0.62589 -0.29227,-1.04733zM254.12674,183.84966c-0.65429,0 -1.22831,-0.15568 -1.72207,-0.46705c-0.49072,-0.31137 -0.87432,-0.74698 -1.15109,-1.30681c-0.27373,-0.55985 -0.41045,-1.21403 -0.41045,-1.96256c0,-0.75484 0.13673,-1.41375 0.41045,-1.97673c0.27677,-0.56298 0.66038,-1.00014 1.15109,-1.31151c0.49376,-0.31137 1.06779,-0.46705 1.72207,-0.46705c0.65401,0 1.22638,0.15568 1.71709,0.46705c0.49376,0.31137 0.87764,0.74853 1.15109,1.31151c0.27677,0.56298 0.41516,1.22189 0.41516,1.97673c0,0.74853 -0.13839,1.40271 -0.41516,1.96256c-0.27345,0.55983 -0.65733,0.99544 -1.15109,1.30681c-0.49072,0.31137 -1.06308,0.46705 -1.71709,0.46705zM254.12674,182.84949c0.49681,0 0.9056,-0.12737 1.22638,-0.38214c0.32078,-0.25474 0.55825,-0.58969 0.71241,-1.00485c0.15416,-0.41516 0.2311,-0.86491 0.2311,-1.34926c0,-0.48435 -0.07694,-0.93568 -0.2311,-1.354c-0.15416,-0.41831 -0.39163,-0.75639 -0.71241,-1.01431c-0.32078,-0.2579 -0.72957,-0.38684 -1.22638,-0.38684c-0.49708,0 -0.90587,0.12895 -1.22665,0.38684c-0.32078,0.25792 -0.55825,0.596 -0.71241,1.01431c-0.15416,0.41831 -0.2311,0.86964 -0.2311,1.354c0,0.48435 0.07694,0.9341 0.2311,1.34926c0.15416,0.41516 0.39163,0.75011 0.71241,1.00485c0.32078,0.25477 0.72957,0.38214 1.22665,0.38214zM260.2232,179.33953v4.35916h-1.11345v-7.24638h1.07554v1.13225h0.09438c0.16994,-0.368 0.42789,-0.66362 0.77385,-0.88694c0.34596,-0.22643 0.7924,-0.33965 1.33958,-0.33965c0.49072,0 0.91999,0.10063 1.2881,0.30193c0.36783,0.19814 0.65429,0.50007 0.85855,0.90579c0.20453,0.40259 0.30666,0.9121 0.30666,1.52853v4.60449h-1.11345v-4.52898c0,-0.56929 -0.1478,-1.01274 -0.44339,-1.33041c-0.29559,-0.32078 -0.70134,-0.4812 -1.21724,-0.4812c-0.35537,0 -0.67283,0.07705 -0.95293,0.23116c-0.27677,0.15413 -0.49542,0.37901 -0.65567,0.67463c-0.16053,0.29565 -0.24051,0.65421 -0.24051,1.07565zM267.33844,186.41608c-0.18848,0 -0.35676,-0.01572 -0.50483,-0.04719c-0.1478,-0.02829 -0.24992,-0.0566 -0.30639,-0.08491l0.28286,-0.98127c0.27068,0.06919 0.50954,0.09435 0.71712,0.07548c0.20758,-0.01888 0.39163,-0.11165 0.55188,-0.27835c0.16357,-0.16354 0.31303,-0.4293 0.44837,-0.7973l0.20758,-0.56611l-2.6797,-7.28413h1.20783l2.00023,5.77446h0.07556l2.00023,-5.77446h1.20783l-3.07604,8.30315c-0.13839,0.37428 -0.30971,0.68407 -0.51424,0.92937c-0.20453,0.24849 -0.442,0.43246 -0.71241,0.55199c-0.26736,0.11951 -0.56932,0.17927 -0.90587,0.17927zM274.01639,183.69868v-7.24638h1.07581v1.13225h0.0941c0.15112,-0.38684 0.39495,-0.68722 0.73151,-0.90109c0.33628,-0.21702 0.74064,-0.32551 1.21226,-0.32551c0.47798,0 0.87598,0.10849 1.19372,0.32551c0.32078,0.21386 0.5707,0.51424 0.75005,0.90109h0.07556c0.18544,-0.37428 0.46387,-0.67148 0.83502,-0.89165c0.37115,-0.2233 0.8162,-0.33495 1.33515,-0.33495c0.64765,0 1.17766,0.20285 1.58978,0.60857c0.41211,0.40259 0.61803,1.03003 0.61803,1.88238v4.84979h-1.11345v-4.84979c0,-0.53467 -0.14614,-0.91681 -0.43868,-1.14642c-0.29255,-0.22958 -0.63685,-0.34439 -1.03319,-0.34439c-0.50954,0 -0.90421,0.15411 -1.18403,0.46235c-0.28009,0.30506 -0.42014,0.69193 -0.42014,1.16053v4.71771h-1.132v-4.96302c0,-0.41203 -0.13368,-0.74382 -0.40104,-0.99544c-0.26736,-0.25477 -0.61194,-0.38214 -1.03319,-0.38214c-0.2895,0 -0.55991,0.07705 -0.81149,0.23116c-0.24854,0.15413 -0.44975,0.368 -0.60392,0.64161c-0.15084,0.27049 -0.2264,0.58343 -0.2264,0.93884v4.52898zM292.2432,183.84966c-0.65401,0 -1.22804,-0.15568 -1.7218,-0.46705c-0.49072,-0.31137 -0.87432,-0.74698 -1.15109,-1.30681c-0.27373,-0.55985 -0.41045,-1.21403 -0.41045,-1.96256c0,-0.75484 0.13673,-1.41375 0.41045,-1.97673c0.27677,-0.56298 0.66038,-1.00014 1.15109,-1.31151c0.49376,-0.31137 1.06779,-0.46705 1.7218,-0.46705c0.65429,0 1.22665,0.15568 1.71737,0.46705c0.49376,0.31137 0.87737,0.74853 1.15109,1.31151c0.27677,0.56298 0.41516,1.22189 0.41516,1.97673c0,0.74853 -0.13839,1.40271 -0.41516,1.96256c-0.27373,0.55983 -0.65733,0.99544 -1.15109,1.30681c-0.49072,0.31137 -1.06308,0.46705 -1.71737,0.46705zM292.2432,182.84949c0.49708,0 0.90587,-0.12737 1.22665,-0.38214c0.32078,-0.25474 0.55825,-0.58969 0.71241,-1.00485c0.15416,-0.41516 0.2311,-0.86491 0.2311,-1.34926c0,-0.48435 -0.07694,-0.93568 -0.2311,-1.354c-0.15416,-0.41831 -0.39163,-0.75639 -0.71241,-1.01431c-0.32078,-0.2579 -0.72957,-0.38684 -1.22665,-0.38684c-0.49681,0 -0.9056,0.12895 -1.22665,0.38684c-0.32078,0.25792 -0.55825,0.596 -0.71213,1.01431c-0.15416,0.41831 -0.23138,0.86964 -0.23138,1.354c0,0.48435 0.07722,0.9341 0.23138,1.34926c0.15389,0.41516 0.39136,0.75011 0.71213,1.00485c0.32106,0.25477 0.72985,0.38214 1.22665,0.38214zM300.45336,176.4523v0.94354h-3.90636v-0.94354zM297.71691,183.69868v-8.24655c0,-0.41516 0.0977,-0.76112 0.29255,-1.03789c0.19512,-0.27677 0.44809,-0.48435 0.75946,-0.62274c0.31137,-0.13839 0.64017,-0.20758 0.98614,-0.20758c0.27373,0 0.49681,0.02203 0.66979,0.06607c0.17298,0.04403 0.30196,0.08491 0.38693,0.12267l-0.32078,0.96239c-0.05674,-0.01885 -0.13534,-0.04246 -0.23581,-0.07074c-0.0977,-0.02831 -0.2264,-0.04248 -0.38693,-0.04248c-0.36811,0 -0.63381,0.0928 -0.79738,0.27835c-0.16025,0.18558 -0.24051,0.45761 -0.24051,0.81617v7.98235zM306.71255,174.03683v3.32126h-1.03789v-3.32126zM309.12794,174.03683v3.32126h-1.03789v-3.32126zM312.22169,179.33953v4.35916h-1.11345v-9.66185h1.11345v3.54772h0.0941c0.16994,-0.37428 0.42484,-0.67148 0.76444,-0.89165c0.34264,-0.2233 0.79876,-0.33495 1.36808,-0.33495c0.49376,0 0.92636,0.09906 1.29751,0.2972c0.37087,0.19501 0.65872,0.49537 0.86325,0.90109c0.20758,0.40259 0.31137,0.91523 0.31137,1.53797v4.60449h-1.11345v-4.52898c0,-0.57557 -0.14946,-1.0206 -0.44809,-1.33512c-0.29559,-0.31765 -0.70604,-0.47649 -1.23136,-0.47649c-0.36479,0 -0.69193,0.07705 -0.98143,0.23116c-0.28618,0.15413 -0.51258,0.37901 -0.6792,0.67463c-0.16357,0.29565 -0.24522,0.65421 -0.24522,1.07565zM321.08973,183.86851c-0.45916,0 -0.87598,-0.08649 -1.25018,-0.25947c-0.37447,-0.17611 -0.67145,-0.4293 -0.89176,-0.75954c-0.22003,-0.33337 -0.33019,-0.73596 -0.33019,-1.20772c0,-0.41516 0.08165,-0.75168 0.24522,-1.00958c0.16357,-0.26105 0.38222,-0.4655 0.65595,-0.61333c0.27345,-0.1478 0.57541,-0.2579 0.9056,-0.33022c0.33351,-0.0755 0.6684,-0.13526 1.00496,-0.17929c0.44034,-0.0566 0.79738,-0.09906 1.07083,-0.12737c0.27677,-0.03144 0.47826,-0.08334 0.60392,-0.15568c0.12898,-0.07235 0.19346,-0.19814 0.19346,-0.37741v-0.03775c0,-0.46547 -0.12732,-0.82716 -0.38222,-1.08506c-0.25159,-0.25792 -0.63353,-0.38687 -1.14639,-0.38687c-0.5314,0 -0.94822,0.11638 -1.25018,0.34912c-0.30196,0.23274 -0.51424,0.4812 -0.63685,0.7454l-1.05671,-0.37743c0.18876,-0.44032 0.44034,-0.78313 0.75476,-1.02846c0.31773,-0.24846 0.6637,-0.42144 1.03789,-0.51895c0.37752,-0.10063 0.74867,-0.15095 1.11345,-0.15095c0.23277,0 0.50013,0.02829 0.80208,0.08491c0.305,0.05347 0.59893,0.16512 0.88207,0.33495c0.28618,0.16985 0.52365,0.42617 0.71241,0.76898c0.18876,0.34284 0.28314,0.80203 0.28314,1.37758v4.77431h-1.11345v-0.98129h-0.05674c-0.07528,0.15726 -0.20121,0.32554 -0.37724,0.5048c-0.1763,0.17927 -0.41045,0.33182 -0.703,0.45761c-0.29255,0.12582 -0.64958,0.1887 -1.07083,0.1887zM321.2594,182.86837c0.44034,0 0.81149,-0.08649 1.11345,-0.25947c0.305,-0.17298 0.53472,-0.39628 0.68888,-0.66993c0.15721,-0.27362 0.23581,-0.5614 0.23581,-0.86333v-1.01902c-0.04705,0.05663 -0.15084,0.10852 -0.31137,0.15568c-0.15721,0.04403 -0.3396,0.08334 -0.54718,0.11793c-0.20453,0.03147 -0.40409,0.05978 -0.59921,0.08494c-0.1918,0.022 -0.34763,0.04088 -0.46719,0.0566c-0.28923,0.03775 -0.55963,0.09908 -0.81122,0.184c-0.24854,0.08176 -0.44975,0.206 -0.60392,0.3727c-0.15112,0.16354 -0.2264,0.38684 -0.2264,0.6699c0,0.38687 0.14309,0.67936 0.42927,0.8775c0.28923,0.19499 0.65567,0.29249 1.09906,0.29249zM326.44305,186.41608v-9.96378h1.07554v1.15112h0.1323c0.08165,-0.12582 0.19485,-0.28621 0.3396,-0.48122c0.1478,-0.19814 0.35842,-0.37425 0.63215,-0.52838c0.27677,-0.15723 0.65097,-0.23586 1.12286,-0.23586c0.61,0 1.14805,0.15253 1.6133,0.45761c0.46553,0.30509 0.82893,0.73754 1.08993,1.29737c0.261,0.55983 0.39163,1.22031 0.39163,1.98144c0,0.76741 -0.13064,1.4326 -0.39163,1.99558c-0.261,0.55983 -0.62274,0.99386 -1.08522,1.30207c-0.46221,0.30509 -0.99527,0.45764 -1.59919,0.45764c-0.46553,0 -0.83806,-0.07708 -1.11816,-0.23119c-0.27982,-0.15726 -0.49514,-0.33495 -0.64626,-0.53309c-0.15084,-0.2013 -0.26736,-0.368 -0.34901,-0.50007h-0.09438v3.83077zM327.53769,180.07549c0,0.54726 0.07999,1.03003 0.24051,1.44832c0.16025,0.41516 0.39468,0.7407 0.703,0.97659c0.30805,0.23274 0.68556,0.34909 1.13227,0.34909c0.46525,0 0.85384,-0.12267 1.16521,-0.36797c0.31441,-0.24849 0.55022,-0.58186 0.70771,-1.00017c0.16025,-0.42144 0.24051,-0.89007 0.24051,-1.40586c0,-0.50951 -0.0786,-0.9687 -0.23581,-1.37758c-0.15416,-0.412 -0.38859,-0.73754 -0.703,-0.97656c-0.31137,-0.24218 -0.703,-0.36326 -1.17462,-0.36326c-0.45308,0 -0.83364,0.1148 -1.14168,0.34439c-0.30832,0.22645 -0.54109,0.54411 -0.6983,0.95298c-0.15721,0.40572 -0.23581,0.87905 -0.23581,1.42003zM334.53863,186.41608v-9.96378h1.07554v1.15112h0.1323c0.08165,-0.12582 0.19485,-0.28621 0.3396,-0.48122c0.1478,-0.19814 0.35842,-0.37425 0.63215,-0.52838c0.27677,-0.15723 0.65097,-0.23586 1.12286,-0.23586c0.61,0 1.14805,0.15253 1.6133,0.45761c0.46553,0.30509 0.82893,0.73754 1.08993,1.29737c0.261,0.55983 0.39163,1.22031 0.39163,1.98144c0,0.76741 -0.13064,1.4326 -0.39163,1.99558c-0.261,0.55983 -0.62274,0.99386 -1.08522,1.30207c-0.46221,0.30509 -0.99527,0.45764 -1.59919,0.45764c-0.46553,0 -0.83806,-0.07708 -1.11816,-0.23119c-0.27982,-0.15726 -0.49514,-0.33495 -0.64626,-0.53309c-0.15084,-0.2013 -0.26736,-0.368 -0.34901,-0.50007h-0.09438v3.83077zM335.63326,180.07549c0,0.54726 0.07999,1.03003 0.24051,1.44832c0.16025,0.41516 0.39468,0.7407 0.703,0.97659c0.30805,0.23274 0.68556,0.34909 1.13227,0.34909c0.46525,0 0.85384,-0.12267 1.16521,-0.36797c0.31441,-0.24849 0.55022,-0.58186 0.70771,-1.00017c0.16025,-0.42144 0.24051,-0.89007 0.24051,-1.40586c0,-0.50951 -0.0786,-0.9687 -0.23581,-1.37758c-0.15416,-0.412 -0.38859,-0.73754 -0.703,-0.97656c-0.31137,-0.24218 -0.703,-0.36326 -1.17462,-0.36326c-0.45308,0 -0.83364,0.1148 -1.14168,0.34439c-0.30832,0.22645 -0.54109,0.54411 -0.6983,0.95298c-0.15721,0.40572 -0.23581,0.87905 -0.23581,1.42003zM343.09171,186.41608c-0.18848,0 -0.35676,-0.01572 -0.50455,-0.04719c-0.1478,-0.02829 -0.2502,-0.0566 -0.30666,-0.08491l0.28286,-0.98127c0.27068,0.06919 0.50954,0.09435 0.71712,0.07548c0.20758,-0.01888 0.39163,-0.11165 0.55216,-0.27835c0.16357,-0.16354 0.31275,-0.4293 0.44809,-0.7973l0.20758,-0.56611l-2.6797,-7.28413h1.20783l2.00023,5.77446h0.07556l2.00023,-5.77446h1.20783l-3.07604,8.30315c-0.13839,0.37428 -0.30971,0.68407 -0.51424,0.92937c-0.20453,0.24849 -0.442,0.43246 -0.71241,0.55199c-0.26736,0.11951 -0.56932,0.17927 -0.90587,0.17927zM350.73227,174.03683v3.32126h-1.03789v-3.32126zM353.14765,174.03683v3.32126h-1.03789v-3.32126zM356.58101,180.98128v-0.0566c0.00609,-0.60073 0.06919,-1.0788 0.18876,-1.43418c0.11929,-0.3554 0.28923,-0.64319 0.50926,-0.86336c0.22031,-0.22014 0.48435,-0.42302 0.79267,-0.60857c0.18571,-0.11323 0.35233,-0.24691 0.50013,-0.40101c0.1478,-0.15726 0.26404,-0.3381 0.34901,-0.54253c0.08801,-0.20445 0.1323,-0.43088 0.1323,-0.67936c0,-0.30821 -0.07251,-0.57555 -0.21727,-0.802c-0.14447,-0.22645 -0.33794,-0.40101 -0.58011,-0.52365c-0.24218,-0.12267 -0.5112,-0.184 -0.80679,-0.184c-0.25795,0 -0.50622,0.05347 -0.74535,0.16039c-0.23913,0.10694 -0.43868,0.27522 -0.59921,0.5048c-0.16025,0.22958 -0.25325,0.52996 -0.27843,0.90109h-1.18873c0.02519,-0.53467 0.16357,-0.99228 0.41516,-1.37284c0.25463,-0.38056 0.5898,-0.6715 1.00496,-0.8728c0.4182,-0.20127 0.88207,-0.30193 1.39161,-0.30193c0.55354,0 1.03485,0.1101 1.44364,0.33024c0.41211,0.22017 0.72957,0.5221 0.95293,0.90579c0.2264,0.38372 0.3396,0.82091 0.3396,1.31154c0,0.34596 -0.05342,0.65891 -0.16025,0.93881c-0.10379,0.27993 -0.25491,0.52996 -0.4528,0.75013c-0.19512,0.22014 -0.43093,0.41516 -0.70771,0.58498c-0.27677,0.17298 -0.49847,0.3554 -0.66536,0.54726c-0.16662,0.1887 -0.28757,0.41358 -0.36312,0.67463c-0.07556,0.26102 -0.11652,0.58656 -0.12261,0.97656v0.0566zM357.18492,183.77416c-0.23277,0 -0.43259,-0.08334 -0.59921,-0.25004c-0.16689,-0.1667 -0.2502,-0.36639 -0.2502,-0.59916c0,-0.23274 0.08331,-0.43246 0.2502,-0.59913c0.16662,-0.1667 0.36645,-0.25004 0.59921,-0.25004c0.23249,0 0.43232,0.08334 0.59893,0.25004c0.16689,0.16667 0.2502,0.36639 0.2502,0.59913c0,0.15413 -0.0393,0.29565 -0.1179,0.4246c-0.07556,0.12895 -0.17769,0.23274 -0.30666,0.31137c-0.12593,0.0755 -0.26736,0.11323 -0.42457,0.11323z"/></g></g></svg>