<svg xmlns="http://www.w3.org/2000/svg" fill="none" viewBox="0 0 127 127" height="127" width="127">
<circle fill="#D9D9D9" r="63" cy="63.5" cx="63.5"></circle>
<circle stroke="black" r="63" cy="63.5" cx="63.5"></circle>
<circle stroke-opacity="0.2" stroke="black" r="63" cy="63.5" cx="63.5"></circle>
<path fill="black" d="M58.3466 92V52.7273H69.2386V92H58.3466ZM63.8182 47.6648C62.1989 47.6648 60.8097 47.1278 59.6506 46.054C58.5085 44.9631 57.9375 43.6591 57.9375 42.142C57.9375 40.642 58.5085 39.3551 59.6506 38.2812C60.8097 37.1903 62.1989 36.6449 63.8182 36.6449C65.4375 36.6449 66.8182 37.1903 67.9602 38.2812C69.1193 39.3551 69.6989 40.642 69.6989 42.142C69.6989 43.6591 69.1193 44.9631 67.9602 46.054C66.8182 47.1278 65.4375 47.6648 63.8182 47.6648Z"></path>
</svg>
