<svg xmlns="http://www.w3.org/2000/svg" fill="none" viewBox="0 0 139 164" height="164" width="139">
<path fill="#EE6338" d="M0 20C0 8.95431 8.95431 0 20 0H119C130.046 0 139 8.95431 139 20V144C139 155.046 130.046 164 119 164H20C8.95431 164 0 155.046 0 144V20Z"></path>
<path fill="black" d="M36.2102 135.455V150H34.5341V135.455H36.2102ZM43.854 150.227C42.8029 150.227 41.8962 149.995 41.1339 149.531C40.3763 149.062 39.7915 148.409 39.3796 147.571C38.9724 146.728 38.7688 145.748 38.7688 144.631C38.7688 143.513 38.9724 142.528 39.3796 141.676C39.7915 140.819 40.3645 140.152 41.0984 139.673C41.837 139.19 42.6987 138.949 43.6836 138.949C44.2518 138.949 44.8129 139.044 45.3668 139.233C45.9208 139.422 46.4251 139.73 46.8796 140.156C47.3342 140.578 47.6964 141.136 47.9663 141.832C48.2362 142.528 48.3711 143.385 48.3711 144.403V145.114H39.962V143.665H46.6665C46.6665 143.049 46.5434 142.5 46.2972 142.017C46.0558 141.534 45.7101 141.153 45.2603 140.874C44.8152 140.594 44.2897 140.455 43.6836 140.455C43.016 140.455 42.4383 140.62 41.9506 140.952C41.4677 141.278 41.096 141.705 40.8356 142.23C40.5752 142.756 40.445 143.319 40.445 143.92V144.886C40.445 145.71 40.587 146.409 40.8711 146.982C41.1599 147.55 41.56 147.983 42.0714 148.281C42.5827 148.575 43.177 148.722 43.854 148.722C44.2944 148.722 44.6921 148.66 45.0472 148.537C45.4071 148.409 45.7172 148.22 45.9776 147.969C46.238 147.713 46.4393 147.396 46.5813 147.017L48.2006 147.472C48.0302 148.021 47.7437 148.504 47.3413 148.92C46.9388 149.332 46.4416 149.654 45.8498 149.886C45.2579 150.114 44.5927 150.227 43.854 150.227ZM55.6651 139.091V140.511H50.0117V139.091H55.6651ZM51.6594 136.477H53.3356V146.875C53.3356 147.348 53.4042 147.704 53.5415 147.94C53.6836 148.172 53.8635 148.329 54.0813 148.409C54.3039 148.485 54.5382 148.523 54.7844 148.523C54.9691 148.523 55.1206 148.513 55.239 148.494C55.3574 148.471 55.4521 148.452 55.5231 148.438L55.864 149.943C55.7504 149.986 55.5917 150.028 55.3881 150.071C55.1845 150.118 54.9265 150.142 54.614 150.142C54.1405 150.142 53.6765 150.04 53.2219 149.837C52.7721 149.633 52.3981 149.323 52.0998 148.906C51.8062 148.49 51.6594 147.964 51.6594 147.33V136.477ZM62.9308 139.091V140.511H57.2773V139.091H62.9308ZM58.9251 136.477H60.6012V146.875C60.6012 147.348 60.6699 147.704 60.8072 147.94C60.9492 148.172 61.1291 148.329 61.3469 148.409C61.5695 148.485 61.8039 148.523 62.0501 148.523C62.2347 148.523 62.3862 148.513 62.5046 148.494C62.623 148.471 62.7177 148.452 62.7887 148.438L63.1296 149.943C63.016 149.986 62.8574 150.028 62.6538 150.071C62.4502 150.118 62.1921 150.142 61.8796 150.142C61.4061 150.142 60.9421 150.04 60.4876 149.837C60.0378 149.633 59.6637 149.323 59.3654 148.906C59.0719 148.49 58.9251 147.964 58.9251 147.33V136.477ZM69.9087 150.227C68.8576 150.227 67.9509 149.995 67.1886 149.531C66.431 149.062 65.8462 148.409 65.4343 147.571C65.0271 146.728 64.8235 145.748 64.8235 144.631C64.8235 143.513 65.0271 142.528 65.4343 141.676C65.8462 140.819 66.4192 140.152 67.1531 139.673C67.8917 139.19 68.7534 138.949 69.7383 138.949C70.3065 138.949 70.8675 139.044 71.4215 139.233C71.9755 139.422 72.4798 139.73 72.9343 140.156C73.3888 140.578 73.7511 141.136 74.021 141.832C74.2908 142.528 74.4258 143.385 74.4258 144.403V145.114H66.0167V143.665H72.7212C72.7212 143.049 72.5981 142.5 72.3519 142.017C72.1104 141.534 71.7648 141.153 71.315 140.874C70.8699 140.594 70.3443 140.455 69.7383 140.455C69.0707 140.455 68.493 140.62 68.0053 140.952C67.5224 141.278 67.1507 141.705 66.8903 142.23C66.6299 142.756 66.4996 143.319 66.4996 143.92V144.886C66.4996 145.71 66.6417 146.409 66.9258 146.982C67.2146 147.55 67.6147 147.983 68.1261 148.281C68.6374 148.575 69.2317 148.722 69.9087 148.722C70.3491 148.722 70.7468 148.66 71.1019 148.537C71.4618 148.409 71.7719 148.22 72.0323 147.969C72.2927 147.713 72.494 147.396 72.636 147.017L74.2553 147.472C74.0849 148.021 73.7984 148.504 73.396 148.92C72.9935 149.332 72.4963 149.654 71.9045 149.886C71.3126 150.114 70.6474 150.227 69.9087 150.227ZM76.9755 150V139.091H78.5948V140.739H78.7085C78.9073 140.199 79.2672 139.761 79.788 139.425C80.3088 139.089 80.896 138.92 81.5494 138.92C81.6725 138.92 81.8263 138.923 82.011 138.928C82.1957 138.932 82.3353 138.939 82.43 138.949V140.653C82.3732 140.639 82.243 140.618 82.0394 140.589C81.8406 140.556 81.6299 140.54 81.4073 140.54C80.877 140.54 80.4035 140.651 79.9869 140.874C79.5749 141.091 79.2482 141.394 79.0067 141.783C78.77 142.166 78.6516 142.604 78.6516 143.097V150H76.9755ZM90.2692 150V135.455H95.3544C96.3677 135.455 97.2034 135.63 97.8615 135.98C98.5197 136.326 99.0097 136.792 99.3317 137.379C99.6536 137.962 99.8146 138.608 99.8146 139.318C99.8146 139.943 99.7034 140.459 99.4808 140.866C99.263 141.274 98.9742 141.596 98.6143 141.832C98.2592 142.069 97.8733 142.244 97.4567 142.358V142.5C97.9018 142.528 98.3492 142.685 98.799 142.969C99.2488 143.253 99.6252 143.66 99.9283 144.19C100.231 144.721 100.383 145.369 100.383 146.136C100.383 146.866 100.217 147.521 99.8857 148.104C99.5542 148.686 99.031 149.148 98.3161 149.489C97.6011 149.83 96.6707 150 95.5249 150H90.2692ZM92.0305 148.438H95.5249C96.6754 148.438 97.4922 148.215 97.9751 147.77C98.4628 147.32 98.7067 146.776 98.7067 146.136C98.7067 145.644 98.5812 145.189 98.3303 144.773C98.0793 144.351 97.7218 144.015 97.2578 143.764C96.7938 143.509 96.2446 143.381 95.6101 143.381H92.0305V148.438ZM92.0305 141.847H95.2976C95.8279 141.847 96.3061 141.742 96.7322 141.534C97.1631 141.326 97.504 141.032 97.755 140.653C98.0107 140.275 98.1385 139.83 98.1385 139.318C98.1385 138.679 97.916 138.137 97.4709 137.692C97.0258 137.242 96.3203 137.017 95.3544 137.017H92.0305V141.847Z"></path>
<path fill="black" d="M20.5632 41.5455V59H18.4496V41.5455H20.5632ZM33.8011 48.8409L31.9943 49.3523C31.8807 49.0511 31.7131 48.7585 31.4915 48.4744C31.2756 48.1847 30.9801 47.946 30.6051 47.7585C30.2301 47.571 29.75 47.4773 29.1648 47.4773C28.3636 47.4773 27.696 47.6619 27.1619 48.0312C26.6335 48.3949 26.3693 48.858 26.3693 49.4205C26.3693 49.9205 26.5511 50.3153 26.9148 50.6051C27.2784 50.8949 27.8466 51.1364 28.6193 51.3295L30.5625 51.8068C31.733 52.0909 32.6051 52.5256 33.179 53.1108C33.7528 53.6903 34.0398 54.4375 34.0398 55.3523C34.0398 56.1023 33.8239 56.7727 33.392 57.3636C32.9659 57.9545 32.3693 58.4205 31.6023 58.7614C30.8352 59.1023 29.9432 59.2727 28.9261 59.2727C27.5909 59.2727 26.4858 58.983 25.6108 58.4034C24.7358 57.8239 24.1818 56.9773 23.9489 55.8636L25.858 55.3864C26.0398 56.0909 26.3835 56.6193 26.8892 56.9716C27.4006 57.3239 28.0682 57.5 28.892 57.5C29.8295 57.5 30.5739 57.3011 31.125 56.9034C31.6818 56.5 31.9602 56.017 31.9602 55.4545C31.9602 55 31.8011 54.6193 31.483 54.3125C31.1648 54 30.6761 53.767 30.017 53.6136L27.8352 53.1023C26.6364 52.8182 25.7557 52.3778 25.1932 51.7812C24.6364 51.179 24.358 50.4261 24.358 49.5227C24.358 48.7841 24.5653 48.1307 24.9801 47.5625C25.4006 46.9943 25.9716 46.5483 26.6932 46.2244C27.4205 45.9006 28.2443 45.7386 29.1648 45.7386C30.4602 45.7386 31.4773 46.0227 32.2159 46.5909C32.9602 47.1591 33.4886 47.9091 33.8011 48.8409ZM42.3857 59.2727C41.2038 59.2727 40.1669 58.9915 39.2749 58.429C38.3885 57.8665 37.6953 57.0795 37.1953 56.0682C36.701 55.0568 36.4538 53.875 36.4538 52.5227C36.4538 51.1591 36.701 49.9687 37.1953 48.9517C37.6953 47.9347 38.3885 47.1449 39.2749 46.5824C40.1669 46.0199 41.2038 45.7386 42.3857 45.7386C43.5675 45.7386 44.6016 46.0199 45.4879 46.5824C46.38 47.1449 47.0732 47.9347 47.5675 48.9517C48.0675 49.9687 48.3175 51.1591 48.3175 52.5227C48.3175 53.875 48.0675 55.0568 47.5675 56.0682C47.0732 57.0795 46.38 57.8665 45.4879 58.429C44.6016 58.9915 43.5675 59.2727 42.3857 59.2727ZM42.3857 57.4659C43.2834 57.4659 44.022 57.2358 44.6016 56.7756C45.1811 56.3153 45.6101 55.7102 45.8885 54.9602C46.1669 54.2102 46.3061 53.3977 46.3061 52.5227C46.3061 51.6477 46.1669 50.8324 45.8885 50.0767C45.6101 49.321 45.1811 48.7102 44.6016 48.2443C44.022 47.7784 43.2834 47.5455 42.3857 47.5455C41.4879 47.5455 40.7493 47.7784 40.1697 48.2443C39.5902 48.7102 39.1612 49.321 38.8828 50.0767C38.6044 50.8324 38.4652 51.6477 38.4652 52.5227C38.4652 53.3977 38.6044 54.2102 38.8828 54.9602C39.1612 55.7102 39.5902 56.3153 40.1697 56.7756C40.7493 57.2358 41.4879 57.4659 42.3857 57.4659ZM60.6605 48.8409L58.8537 49.3523C58.7401 49.0511 58.5724 48.7585 58.3509 48.4744C58.1349 48.1847 57.8395 47.946 57.4645 47.7585C57.0895 47.571 56.6094 47.4773 56.0241 47.4773C55.223 47.4773 54.5554 47.6619 54.0213 48.0312C53.4929 48.3949 53.2287 48.858 53.2287 49.4205C53.2287 49.9205 53.4105 50.3153 53.7741 50.6051C54.1378 50.8949 54.706 51.1364 55.4787 51.3295L57.4219 51.8068C58.5923 52.0909 59.4645 52.5256 60.0384 53.1108C60.6122 53.6903 60.8991 54.4375 60.8991 55.3523C60.8991 56.1023 60.6832 56.7727 60.2514 57.3636C59.8253 57.9545 59.2287 58.4205 58.4616 58.7614C57.6946 59.1023 56.8026 59.2727 55.7855 59.2727C54.4503 59.2727 53.3452 58.983 52.4702 58.4034C51.5952 57.8239 51.0412 56.9773 50.8082 55.8636L52.7173 55.3864C52.8991 56.0909 53.2429 56.6193 53.7486 56.9716C54.2599 57.3239 54.9276 57.5 55.7514 57.5C56.6889 57.5 57.4332 57.3011 57.9844 56.9034C58.5412 56.5 58.8196 56.017 58.8196 55.4545C58.8196 55 58.6605 54.6193 58.3423 54.3125C58.0241 54 57.5355 53.767 56.8764 53.6136L54.6946 53.1023C53.4957 52.8182 52.6151 52.3778 52.0526 51.7812C51.4957 51.179 51.2173 50.4261 51.2173 49.5227C51.2173 48.7841 51.4247 48.1307 51.8395 47.5625C52.2599 46.9943 52.831 46.5483 53.5526 46.2244C54.2798 45.9006 55.1037 45.7386 56.0241 45.7386C57.3196 45.7386 58.3366 46.0227 59.0753 46.5909C59.8196 47.1591 60.348 47.9091 60.6605 48.8409ZM69.245 59.2727C68.0178 59.2727 66.9609 58.983 66.0746 58.4034C65.1882 57.8239 64.5064 57.0256 64.0291 56.0085C63.5518 54.9915 63.3132 53.8295 63.3132 52.5227C63.3132 51.1932 63.5575 50.0199 64.0462 49.0028C64.5405 47.9801 65.228 47.1818 66.1087 46.608C66.995 46.0284 68.0291 45.7386 69.2109 45.7386C70.1314 45.7386 70.9609 45.9091 71.6996 46.25C72.4382 46.5909 73.0433 47.0682 73.5149 47.6818C73.9865 48.2955 74.2791 49.0114 74.3928 49.8295H72.3814C72.228 49.233 71.8871 48.7045 71.3587 48.2443C70.8359 47.7784 70.1314 47.5455 69.245 47.5455C68.4609 47.5455 67.7734 47.75 67.1825 48.1591C66.5973 48.5625 66.1399 49.1335 65.8104 49.8722C65.4865 50.6051 65.3246 51.4659 65.3246 52.4545C65.3246 53.4659 65.4837 54.3466 65.8018 55.0966C66.1257 55.8466 66.5803 56.429 67.1655 56.8438C67.7564 57.2585 68.4496 57.4659 69.245 57.4659C69.7678 57.4659 70.2422 57.375 70.6683 57.1932C71.0945 57.0114 71.4553 56.75 71.7507 56.4091C72.0462 56.0682 72.2564 55.6591 72.3814 55.1818H74.3928C74.2791 55.9545 73.9979 56.6506 73.549 57.2699C73.1058 57.8835 72.5178 58.3722 71.7848 58.7358C71.0575 59.0938 70.2109 59.2727 69.245 59.2727ZM82.8217 59.2727C81.5604 59.2727 80.4723 58.9943 79.5575 58.4375C78.6484 57.875 77.9467 57.0909 77.4524 56.0852C76.9638 55.0739 76.7195 53.8977 76.7195 52.5568C76.7195 51.2159 76.9638 50.0341 77.4524 49.0114C77.9467 47.983 78.6342 47.1818 79.5149 46.608C80.4013 46.0284 81.4354 45.7386 82.6172 45.7386C83.299 45.7386 83.9723 45.8523 84.6371 46.0795C85.3018 46.3068 85.907 46.6761 86.4524 47.1875C86.9979 47.6932 87.4325 48.3636 87.7564 49.1989C88.0803 50.0341 88.2422 51.0625 88.2422 52.2841V53.1364H78.1513V51.3977H86.1967C86.1967 50.6591 86.049 50 85.7536 49.4205C85.4638 48.8409 85.049 48.3835 84.5092 48.0483C83.9751 47.7131 83.3445 47.5455 82.6172 47.5455C81.8161 47.5455 81.1229 47.7443 80.5376 48.142C79.9581 48.5341 79.5121 49.0455 79.1996 49.6761C78.8871 50.3068 78.7308 50.983 78.7308 51.7045V52.8636C78.7308 53.8523 78.9013 54.6903 79.2422 55.3778C79.5888 56.0597 80.0689 56.5795 80.6825 56.9375C81.2962 57.2898 82.0092 57.4659 82.8217 57.4659C83.3501 57.4659 83.8274 57.392 84.2536 57.2443C84.6854 57.0909 85.0575 56.8636 85.37 56.5625C85.6825 56.2557 85.924 55.875 86.0945 55.4205L88.0376 55.9659C87.8331 56.625 87.4893 57.2045 87.0064 57.7045C86.5234 58.1989 85.9268 58.5852 85.2166 58.8636C84.5064 59.1364 83.7081 59.2727 82.8217 59.2727ZM93.3132 41.5455V59H91.3018V41.5455H93.3132ZM102.486 59.2727C101.224 59.2727 100.136 58.9943 99.2216 58.4375C98.3125 57.875 97.6108 57.0909 97.1165 56.0852C96.6278 55.0739 96.3835 53.8977 96.3835 52.5568C96.3835 51.2159 96.6278 50.0341 97.1165 49.0114C97.6108 47.983 98.2983 47.1818 99.179 46.608C100.065 46.0284 101.099 45.7386 102.281 45.7386C102.963 45.7386 103.636 45.8523 104.301 46.0795C104.966 46.3068 105.571 46.6761 106.116 47.1875C106.662 47.6932 107.097 48.3636 107.42 49.1989C107.744 50.0341 107.906 51.0625 107.906 52.2841V53.1364H97.8153V51.3977H105.861C105.861 50.6591 105.713 50 105.418 49.4205C105.128 48.8409 104.713 48.3835 104.173 48.0483C103.639 47.7131 103.009 47.5455 102.281 47.5455C101.48 47.5455 100.787 47.7443 100.202 48.142C99.6222 48.5341 99.1761 49.0455 98.8636 49.6761C98.5511 50.3068 98.3949 50.983 98.3949 51.7045V52.8636C98.3949 53.8523 98.5653 54.6903 98.9062 55.3778C99.2528 56.0597 99.733 56.5795 100.347 56.9375C100.96 57.2898 101.673 57.4659 102.486 57.4659C103.014 57.4659 103.491 57.392 103.918 57.2443C104.349 57.0909 104.722 56.8636 105.034 56.5625C105.347 56.2557 105.588 55.875 105.759 55.4205L107.702 55.9659C107.497 56.625 107.153 57.2045 106.67 57.7045C106.188 58.1989 105.591 58.5852 104.881 58.8636C104.17 59.1364 103.372 59.2727 102.486 59.2727ZM120.239 48.8409L118.432 49.3523C118.318 49.0511 118.151 48.7585 117.929 48.4744C117.713 48.1847 117.418 47.946 117.043 47.7585C116.668 47.571 116.188 47.4773 115.602 47.4773C114.801 47.4773 114.134 47.6619 113.599 48.0312C113.071 48.3949 112.807 48.858 112.807 49.4205C112.807 49.9205 112.989 50.3153 113.352 50.6051C113.716 50.8949 114.284 51.1364 115.057 51.3295L117 51.8068C118.17 52.0909 119.043 52.5256 119.616 53.1108C120.19 53.6903 120.477 54.4375 120.477 55.3523C120.477 56.1023 120.261 56.7727 119.83 57.3636C119.403 57.9545 118.807 58.4205 118.04 58.7614C117.273 59.1023 116.381 59.2727 115.364 59.2727C114.028 59.2727 112.923 58.983 112.048 58.4034C111.173 57.8239 110.619 56.9773 110.386 55.8636L112.295 55.3864C112.477 56.0909 112.821 56.6193 113.327 56.9716C113.838 57.3239 114.506 57.5 115.33 57.5C116.267 57.5 117.011 57.3011 117.562 56.9034C118.119 56.5 118.398 56.017 118.398 55.4545C118.398 55 118.239 54.6193 117.92 54.3125C117.602 54 117.114 53.767 116.455 53.6136L114.273 53.1023C113.074 52.8182 112.193 52.3778 111.631 51.7812C111.074 51.179 110.795 50.4261 110.795 49.5227C110.795 48.7841 111.003 48.1307 111.418 47.5625C111.838 46.9943 112.409 46.5483 113.131 46.2244C113.858 45.9006 114.682 45.7386 115.602 45.7386C116.898 45.7386 117.915 46.0227 118.653 46.5909C119.398 47.1591 119.926 47.9091 120.239 48.8409Z"></path>
</svg>
