<svg xmlns="http://www.w3.org/2000/svg" fill="none" viewBox="0 0 139 164" height="164" width="139">
<path fill="#43D059" d="M0 20C0 8.95431 8.95431 0 20 0H119C130.046 0 139 8.95431 139 20V144C139 155.046 130.046 164 119 164H20C8.95431 164 0 155.046 0 144V20Z"></path>
<path fill="black" d="M36.2102 135.455V150H34.5341V135.455H36.2102ZM43.854 150.227C42.8029 150.227 41.8962 149.995 41.1339 149.531C40.3763 149.062 39.7915 148.409 39.3796 147.571C38.9724 146.728 38.7688 145.748 38.7688 144.631C38.7688 143.513 38.9724 142.528 39.3796 141.676C39.7915 140.819 40.3645 140.152 41.0984 139.673C41.837 139.19 42.6987 138.949 43.6836 138.949C44.2518 138.949 44.8129 139.044 45.3668 139.233C45.9208 139.422 46.4251 139.73 46.8796 140.156C47.3342 140.578 47.6964 141.136 47.9663 141.832C48.2362 142.528 48.3711 143.385 48.3711 144.403V145.114H39.962V143.665H46.6665C46.6665 143.049 46.5434 142.5 46.2972 142.017C46.0558 141.534 45.7101 141.153 45.2603 140.874C44.8152 140.594 44.2897 140.455 43.6836 140.455C43.016 140.455 42.4383 140.62 41.9506 140.952C41.4677 141.278 41.096 141.705 40.8356 142.23C40.5752 142.756 40.445 143.319 40.445 143.92V144.886C40.445 145.71 40.587 146.409 40.8711 146.982C41.1599 147.55 41.56 147.983 42.0714 148.281C42.5827 148.575 43.177 148.722 43.854 148.722C44.2944 148.722 44.6921 148.66 45.0472 148.537C45.4071 148.409 45.7172 148.22 45.9776 147.969C46.238 147.713 46.4393 147.396 46.5813 147.017L48.2006 147.472C48.0302 148.021 47.7437 148.504 47.3413 148.92C46.9388 149.332 46.4416 149.654 45.8498 149.886C45.2579 150.114 44.5927 150.227 43.854 150.227ZM55.6651 139.091V140.511H50.0117V139.091H55.6651ZM51.6594 136.477H53.3356V146.875C53.3356 147.348 53.4042 147.704 53.5415 147.94C53.6836 148.172 53.8635 148.329 54.0813 148.409C54.3039 148.485 54.5382 148.523 54.7844 148.523C54.9691 148.523 55.1206 148.513 55.239 148.494C55.3574 148.471 55.4521 148.452 55.5231 148.438L55.864 149.943C55.7504 149.986 55.5917 150.028 55.3881 150.071C55.1845 150.118 54.9265 150.142 54.614 150.142C54.1405 150.142 53.6765 150.04 53.2219 149.837C52.7721 149.633 52.3981 149.323 52.0998 148.906C51.8062 148.49 51.6594 147.964 51.6594 147.33V136.477ZM62.9308 139.091V140.511H57.2773V139.091H62.9308ZM58.9251 136.477H60.6012V146.875C60.6012 147.348 60.6699 147.704 60.8072 147.94C60.9492 148.172 61.1291 148.329 61.3469 148.409C61.5695 148.485 61.8039 148.523 62.0501 148.523C62.2347 148.523 62.3862 148.513 62.5046 148.494C62.623 148.471 62.7177 148.452 62.7887 148.438L63.1296 149.943C63.016 149.986 62.8574 150.028 62.6538 150.071C62.4502 150.118 62.1921 150.142 61.8796 150.142C61.4061 150.142 60.9421 150.04 60.4876 149.837C60.0378 149.633 59.6637 149.323 59.3654 148.906C59.0719 148.49 58.9251 147.964 58.9251 147.33V136.477ZM69.9087 150.227C68.8576 150.227 67.9509 149.995 67.1886 149.531C66.431 149.062 65.8462 148.409 65.4343 147.571C65.0271 146.728 64.8235 145.748 64.8235 144.631C64.8235 143.513 65.0271 142.528 65.4343 141.676C65.8462 140.819 66.4192 140.152 67.1531 139.673C67.8917 139.19 68.7534 138.949 69.7383 138.949C70.3065 138.949 70.8675 139.044 71.4215 139.233C71.9755 139.422 72.4798 139.73 72.9343 140.156C73.3888 140.578 73.7511 141.136 74.021 141.832C74.2908 142.528 74.4258 143.385 74.4258 144.403V145.114H66.0167V143.665H72.7212C72.7212 143.049 72.5981 142.5 72.3519 142.017C72.1104 141.534 71.7648 141.153 71.315 140.874C70.8699 140.594 70.3443 140.455 69.7383 140.455C69.0707 140.455 68.493 140.62 68.0053 140.952C67.5224 141.278 67.1507 141.705 66.8903 142.23C66.6299 142.756 66.4996 143.319 66.4996 143.92V144.886C66.4996 145.71 66.6417 146.409 66.9258 146.982C67.2146 147.55 67.6147 147.983 68.1261 148.281C68.6374 148.575 69.2317 148.722 69.9087 148.722C70.3491 148.722 70.7468 148.66 71.1019 148.537C71.4618 148.409 71.7719 148.22 72.0323 147.969C72.2927 147.713 72.494 147.396 72.636 147.017L74.2553 147.472C74.0849 148.021 73.7984 148.504 73.396 148.92C72.9935 149.332 72.4963 149.654 71.9045 149.886C71.3126 150.114 70.6474 150.227 69.9087 150.227ZM76.9755 150V139.091H78.5948V140.739H78.7085C78.9073 140.199 79.2672 139.761 79.788 139.425C80.3088 139.089 80.896 138.92 81.5494 138.92C81.6725 138.92 81.8263 138.923 82.011 138.928C82.1957 138.932 82.3353 138.939 82.43 138.949V140.653C82.3732 140.639 82.243 140.618 82.0394 140.589C81.8406 140.556 81.6299 140.54 81.4073 140.54C80.877 140.54 80.4035 140.651 79.9869 140.874C79.5749 141.091 79.2482 141.394 79.0067 141.783C78.77 142.166 78.6516 142.604 78.6516 143.097V150H76.9755ZM90.8658 150H89.0192L94.3601 135.455H96.1783L101.519 150H99.6726L95.326 137.756H95.2124L90.8658 150ZM91.5476 144.318H98.9908V145.881H91.5476V144.318Z"></path>
<path fill="black" d="M16.8116 62H15.0502C14.9461 61.4934 14.7638 61.0483 14.5034 60.6648C14.2477 60.2812 13.9352 59.9593 13.5659 59.6989C13.2013 59.4337 12.7965 59.2348 12.3514 59.1023C11.9063 58.9697 11.4423 58.9034 10.9593 58.9034C10.0787 58.9034 9.28084 59.1259 8.56587 59.571C7.85565 60.0161 7.28983 60.6719 6.86843 61.5384C6.45176 62.4048 6.24343 63.4678 6.24343 64.7273C6.24343 65.9867 6.45176 67.0497 6.86843 67.9162C7.28983 68.7827 7.85565 69.4384 8.56587 69.8835C9.28084 70.3286 10.0787 70.5511 10.9593 70.5511C11.4423 70.5511 11.9063 70.4848 12.3514 70.3523C12.7965 70.2197 13.2013 70.0232 13.5659 69.7628C13.9352 69.4976 14.2477 69.1733 14.5034 68.7898C14.7638 68.4015 14.9461 67.9564 15.0502 67.4545H16.8116C16.679 68.1979 16.4376 68.8632 16.0872 69.4503C15.7368 70.0374 15.3012 70.5369 14.7804 70.9489C14.2595 71.3561 13.6748 71.6662 13.0261 71.8793C12.3822 72.0923 11.6932 72.1989 10.9593 72.1989C9.71881 72.1989 8.61559 71.8958 7.64968 71.2898C6.68377 70.6837 5.92383 69.822 5.36985 68.7045C4.81587 67.5871 4.53888 66.2614 4.53888 64.7273C4.53888 63.1932 4.81587 61.8674 5.36985 60.75C5.92383 59.6326 6.68377 58.7708 7.64968 58.1648C8.61559 57.5587 9.71881 57.2557 10.9593 57.2557C11.6932 57.2557 12.3822 57.3622 13.0261 57.5753C13.6748 57.7884 14.2595 58.1009 14.7804 58.5128C15.3012 58.92 15.7368 59.4171 16.0872 60.0043C16.4376 60.5866 16.679 61.2519 16.8116 62ZM23.8624 72.2273C22.8775 72.2273 22.0134 71.9929 21.2701 71.5241C20.5314 71.0554 19.9538 70.3996 19.5371 69.5568C19.1252 68.714 18.9192 67.7292 18.9192 66.6023C18.9192 65.4659 19.1252 64.474 19.5371 63.6264C19.9538 62.7789 20.5314 62.1207 21.2701 61.652C22.0134 61.1832 22.8775 60.9489 23.8624 60.9489C24.8472 60.9489 25.709 61.1832 26.4476 61.652C27.191 62.1207 27.7686 62.7789 28.1806 63.6264C28.5972 64.474 28.8056 65.4659 28.8056 66.6023C28.8056 67.7292 28.5972 68.714 28.1806 69.5568C27.7686 70.3996 27.191 71.0554 26.4476 71.5241C25.709 71.9929 24.8472 72.2273 23.8624 72.2273ZM23.8624 70.7216C24.6105 70.7216 25.226 70.5298 25.709 70.1463C26.1919 69.7628 26.5494 69.2585 26.7814 68.6335C27.0134 68.0085 27.1294 67.3314 27.1294 66.6023C27.1294 65.8731 27.0134 65.1937 26.7814 64.5639C26.5494 63.9342 26.1919 63.4252 25.709 63.0369C25.226 62.6487 24.6105 62.4545 23.8624 62.4545C23.1143 62.4545 22.4988 62.6487 22.0158 63.0369C21.5328 63.4252 21.1754 63.9342 20.9434 64.5639C20.7114 65.1937 20.5953 65.8731 20.5953 66.6023C20.5953 67.3314 20.7114 68.0085 20.9434 68.6335C21.1754 69.2585 21.5328 69.7628 22.0158 70.1463C22.4988 70.5298 23.1143 70.7216 23.8624 70.7216ZM33.0403 65.4375V72H31.3642V61.0909H32.9835V62.7955H33.1255C33.3812 62.2415 33.7695 61.7964 34.2903 61.4602C34.8111 61.1193 35.4835 60.9489 36.3074 60.9489C37.046 60.9489 37.6923 61.1004 38.2463 61.4034C38.8002 61.7017 39.2311 62.1562 39.5389 62.767C39.8467 63.3731 40.0005 64.1402 40.0005 65.0682V72H38.3244V65.1818C38.3244 64.3248 38.1019 63.6572 37.6568 63.179C37.2117 62.696 36.6009 62.4545 35.8244 62.4545C35.2894 62.4545 34.8111 62.5705 34.3897 62.8026C33.9731 63.0346 33.644 63.3731 33.4025 63.8182C33.161 64.2633 33.0403 64.803 33.0403 65.4375ZM47.1827 72.2273C46.2736 72.2273 45.4711 71.9976 44.775 71.5384C44.079 71.0743 43.5345 70.4209 43.1415 69.5781C42.7485 68.7306 42.552 67.7292 42.552 66.5739C42.552 65.428 42.7485 64.4337 43.1415 63.5909C43.5345 62.7481 44.0814 62.0971 44.7821 61.6378C45.4829 61.1785 46.2926 60.9489 47.2111 60.9489C47.9213 60.9489 48.4824 61.0672 48.8944 61.304C49.311 61.536 49.6283 61.8011 49.8461 62.0994C50.0686 62.393 50.2414 62.6345 50.3645 62.8239H50.5066V57.4545H52.1827V72H50.5634V70.3239H50.3645C50.2414 70.5227 50.0662 70.7737 49.839 71.0767C49.6117 71.375 49.2873 71.6425 48.8659 71.8793C48.4445 72.1113 47.8835 72.2273 47.1827 72.2273ZM47.41 70.7216C48.0823 70.7216 48.6505 70.5464 49.1145 70.196C49.5785 69.8409 49.9313 69.3509 50.1728 68.7259C50.4142 68.0961 50.535 67.3693 50.535 66.5455C50.535 65.7311 50.4166 65.0185 50.1799 64.4077C49.9431 63.7921 49.5927 63.3139 49.1287 62.973C48.6647 62.6274 48.0918 62.4545 47.41 62.4545C46.6998 62.4545 46.1079 62.6368 45.6344 63.0014C45.1657 63.3613 44.8129 63.8513 44.5762 64.4716C44.3442 65.0871 44.2282 65.7784 44.2282 66.5455C44.2282 67.322 44.3465 68.0275 44.5833 68.6619C44.8248 69.2917 45.1799 69.7936 45.6486 70.1676C46.1221 70.5369 46.7092 70.7216 47.41 70.7216ZM60.0591 72.2273C59.008 72.2273 58.1013 71.9953 57.339 71.5312C56.5814 71.0625 55.9966 70.4091 55.5847 69.571C55.1775 68.7282 54.9739 67.7481 54.9739 66.6307C54.9739 65.5133 55.1775 64.5284 55.5847 63.6761C55.9966 62.8191 56.5695 62.1515 57.3034 61.6733C58.0421 61.1903 58.9038 60.9489 59.8887 60.9489C60.4569 60.9489 61.0179 61.0436 61.5719 61.233C62.1259 61.4223 62.6301 61.7301 63.0847 62.1562C63.5392 62.5777 63.9015 63.1364 64.1713 63.8324C64.4412 64.5284 64.5762 65.3854 64.5762 66.4034V67.1136H56.1671V65.6648H62.8716C62.8716 65.0492 62.7485 64.5 62.5023 64.017C62.2608 63.5341 61.9152 63.1529 61.4654 62.8736C61.0203 62.5942 60.4947 62.4545 59.8887 62.4545C59.2211 62.4545 58.6434 62.6203 58.1557 62.9517C57.6728 63.2784 57.3011 63.7045 57.0407 64.2301C56.7802 64.7557 56.65 65.3191 56.65 65.9205V66.8864C56.65 67.7102 56.7921 68.4086 57.0762 68.9815C57.365 69.5497 57.7651 69.983 58.2765 70.2812C58.7878 70.5748 59.382 70.7216 60.0591 70.7216C60.4995 70.7216 60.8972 70.66 61.2523 70.5369C61.6122 70.4091 61.9223 70.2197 62.1827 69.9688C62.4431 69.7131 62.6444 69.3958 62.7864 69.017L64.4057 69.4716C64.2353 70.0208 63.9488 70.5038 63.5463 70.9205C63.1439 71.3324 62.6467 71.6544 62.0549 71.8864C61.463 72.1136 60.7978 72.2273 60.0591 72.2273ZM68.802 65.4375V72H67.1259V61.0909H68.7452V62.7955H68.8873C69.1429 62.2415 69.5312 61.7964 70.052 61.4602C70.5729 61.1193 71.2452 60.9489 72.0691 60.9489C72.8077 60.9489 73.454 61.1004 74.008 61.4034C74.562 61.7017 74.9928 62.1562 75.3006 62.767C75.6084 63.3731 75.7623 64.1402 75.7623 65.0682V72H74.0861V65.1818C74.0861 64.3248 73.8636 63.6572 73.4185 63.179C72.9734 62.696 72.3626 62.4545 71.5861 62.4545C71.0511 62.4545 70.5729 62.5705 70.1515 62.8026C69.7348 63.0346 69.4057 63.3731 69.1642 63.8182C68.9228 64.2633 68.802 64.803 68.802 65.4375ZM86.5524 63.5341L85.0467 63.9602C84.952 63.7093 84.8123 63.4654 84.6277 63.2287C84.4477 62.9872 84.2015 62.7884 83.889 62.6321C83.5765 62.4759 83.1764 62.3977 82.6887 62.3977C82.0211 62.3977 81.4648 62.5516 81.0197 62.8594C80.5794 63.1624 80.3592 63.5483 80.3592 64.017C80.3592 64.4337 80.5107 64.7628 80.8137 65.0043C81.1168 65.2457 81.5903 65.447 82.2342 65.608L83.8535 66.0057C84.8289 66.2424 85.5557 66.6046 86.0339 67.0923C86.5121 67.5753 86.7512 68.1979 86.7512 68.9602C86.7512 69.5852 86.5713 70.1439 86.2115 70.6364C85.8564 71.1288 85.3592 71.517 84.72 71.8011C84.0808 72.0852 83.3374 72.2273 82.4899 72.2273C81.3772 72.2273 80.4563 71.9858 79.7271 71.5028C78.9979 71.0199 78.5363 70.3144 78.3422 69.3864L79.9331 68.9886C80.0846 69.5758 80.371 70.0161 80.7924 70.3097C81.2186 70.6032 81.7749 70.75 82.4615 70.75C83.2427 70.75 83.863 70.5843 84.3223 70.2528C84.7863 69.9167 85.0183 69.5142 85.0183 69.0455C85.0183 68.6667 84.8857 68.3494 84.6206 68.0938C84.3554 67.8333 83.9482 67.6392 83.399 67.5114L81.5808 67.0852C80.5817 66.8485 79.8478 66.4815 79.3791 65.9844C78.9151 65.4825 78.6831 64.8551 78.6831 64.1023C78.6831 63.4867 78.8559 62.9422 79.2015 62.4688C79.5519 61.9953 80.0278 61.6236 80.6291 61.3537C81.2351 61.0838 81.9217 60.9489 82.6887 60.9489C83.7683 60.9489 84.6158 61.1856 85.2314 61.6591C85.8516 62.1326 86.292 62.7576 86.5524 63.5341ZM92.4846 72.2557C91.7933 72.2557 91.1659 72.1255 90.6025 71.8651C90.039 71.5999 89.5916 71.2188 89.2601 70.7216C88.9287 70.2197 88.763 69.6136 88.763 68.9034C88.763 68.2784 88.8861 67.7718 89.1323 67.3835C89.3785 66.9905 89.7076 66.6828 90.1195 66.4602C90.5314 66.2377 90.986 66.072 91.4831 65.9631C91.985 65.8494 92.4893 65.7595 92.9959 65.6932C93.6588 65.608 94.1962 65.544 94.6081 65.5014C95.0248 65.4541 95.3278 65.3759 95.5172 65.267C95.7114 65.1581 95.8084 64.9687 95.8084 64.6989V64.642C95.8084 63.9413 95.6167 63.3968 95.2331 63.0085C94.8543 62.6203 94.2791 62.4261 93.5073 62.4261C92.7071 62.4261 92.0797 62.6013 91.6252 62.9517C91.1706 63.3021 90.851 63.6761 90.6664 64.0739L89.0755 63.5057C89.3596 62.8428 89.7383 62.3267 90.2118 61.9574C90.69 61.5833 91.2109 61.3229 91.7743 61.1761C92.3425 61.0246 92.9012 60.9489 93.4505 60.9489C93.8008 60.9489 94.2033 60.9915 94.6578 61.0767C95.1171 61.1572 95.5598 61.3253 95.986 61.581C96.4168 61.8366 96.7743 62.2225 97.0584 62.7386C97.3425 63.2547 97.4846 63.946 97.4846 64.8125V72H95.8084V70.5227H95.7232C95.6096 70.7595 95.4202 71.0128 95.155 71.2827C94.8899 71.5526 94.5371 71.7822 94.0968 71.9716C93.6564 72.161 93.119 72.2557 92.4846 72.2557ZM92.7402 70.75C93.4031 70.75 93.9618 70.6198 94.4164 70.3594C94.8757 70.099 95.2213 69.7628 95.4533 69.3509C95.69 68.9389 95.8084 68.5057 95.8084 68.0511V66.517C95.7374 66.6023 95.5811 66.6804 95.3397 66.7514C95.1029 66.8177 94.8283 66.8769 94.5158 66.929C94.208 66.9763 93.9074 67.0189 93.6138 67.0568C93.325 67.09 93.0906 67.1184 92.9107 67.142C92.4751 67.1989 92.0679 67.2912 91.6891 67.419C91.315 67.5421 91.012 67.7292 90.78 67.9801C90.5527 68.2263 90.4391 68.5625 90.4391 68.9886C90.4391 69.571 90.6545 70.0114 91.0854 70.3097C91.521 70.6032 92.0726 70.75 92.7402 70.75ZM105.288 61.0909V62.5114H99.6348V61.0909H105.288ZM101.282 58.4773H102.959V68.875C102.959 69.3485 103.027 69.7036 103.165 69.9403C103.307 70.1723 103.487 70.3286 103.704 70.4091C103.927 70.4848 104.161 70.5227 104.407 70.5227C104.592 70.5227 104.744 70.5133 104.862 70.4943C104.98 70.4706 105.075 70.4517 105.146 70.4375L105.487 71.9432C105.373 71.9858 105.215 72.0284 105.011 72.071C104.808 72.1184 104.55 72.142 104.237 72.142C103.764 72.142 103.3 72.0402 102.845 71.8366C102.395 71.633 102.021 71.3229 101.723 70.9062C101.429 70.4896 101.282 69.964 101.282 69.3295V58.4773ZM107.809 72V61.0909H109.486V72H107.809ZM108.662 59.2727C108.335 59.2727 108.053 59.1615 107.817 58.9389C107.585 58.7164 107.469 58.4489 107.469 58.1364C107.469 57.8239 107.585 57.5563 107.817 57.3338C108.053 57.1113 108.335 57 108.662 57C108.988 57 109.268 57.1113 109.5 57.3338C109.737 57.5563 109.855 57.8239 109.855 58.1364C109.855 58.4489 109.737 58.7164 109.5 58.9389C109.268 59.1615 108.988 59.2727 108.662 59.2727ZM116.987 72.2273C116.003 72.2273 115.138 71.9929 114.395 71.5241C113.656 71.0554 113.079 70.3996 112.662 69.5568C112.25 68.714 112.044 67.7292 112.044 66.6023C112.044 65.4659 112.25 64.474 112.662 63.6264C113.079 62.7789 113.656 62.1207 114.395 61.652C115.138 61.1832 116.003 60.9489 116.987 60.9489C117.972 60.9489 118.834 61.1832 119.573 61.652C120.316 62.1207 120.894 62.7789 121.306 63.6264C121.722 64.474 121.931 65.4659 121.931 66.6023C121.931 67.7292 121.722 68.714 121.306 69.5568C120.894 70.3996 120.316 71.0554 119.573 71.5241C118.834 71.9929 117.972 72.2273 116.987 72.2273ZM116.987 70.7216C117.735 70.7216 118.351 70.5298 118.834 70.1463C119.317 69.7628 119.674 69.2585 119.906 68.6335C120.138 68.0085 120.254 67.3314 120.254 66.6023C120.254 65.8731 120.138 65.1937 119.906 64.5639C119.674 63.9342 119.317 63.4252 118.834 63.0369C118.351 62.6487 117.735 62.4545 116.987 62.4545C116.239 62.4545 115.624 62.6487 115.141 63.0369C114.658 63.4252 114.3 63.9342 114.068 64.5639C113.836 65.1937 113.72 65.8731 113.72 66.6023C113.72 67.3314 113.836 68.0085 114.068 68.6335C114.3 69.2585 114.658 69.7628 115.141 70.1463C115.624 70.5298 116.239 70.7216 116.987 70.7216ZM126.165 65.4375V72H124.489V61.0909H126.108V62.7955H126.251C126.506 62.2415 126.894 61.7964 127.415 61.4602C127.936 61.1193 128.608 60.9489 129.432 60.9489C130.171 60.9489 130.817 61.1004 131.371 61.4034C131.925 61.7017 132.356 62.1562 132.664 62.767C132.972 63.3731 133.126 64.1402 133.126 65.0682V72H131.449V65.1818C131.449 64.3248 131.227 63.6572 130.782 63.179C130.337 62.696 129.726 62.4545 128.949 62.4545C128.414 62.4545 127.936 62.5705 127.515 62.8026C127.098 63.0346 126.769 63.3731 126.528 63.8182C126.286 64.2633 126.165 64.803 126.165 65.4375Z"></path>
</svg>
