<svg xmlns="http://www.w3.org/2000/svg" fill="none" viewBox="0 0 139 164" height="164" width="139">
<path fill="#43D059" d="M0 20C0 8.95431 8.95431 0 20 0H119C130.046 0 139 8.95431 139 20V144C139 155.046 130.046 164 119 164H20C8.95431 164 0 155.046 0 144V20Z"></path>
<path fill="black" d="M36.2102 135.455V150H34.5341V135.455H36.2102ZM43.854 150.227C42.8029 150.227 41.8962 149.995 41.1339 149.531C40.3763 149.062 39.7915 148.409 39.3796 147.571C38.9724 146.728 38.7688 145.748 38.7688 144.631C38.7688 143.513 38.9724 142.528 39.3796 141.676C39.7915 140.819 40.3645 140.152 41.0984 139.673C41.837 139.19 42.6987 138.949 43.6836 138.949C44.2518 138.949 44.8129 139.044 45.3668 139.233C45.9208 139.422 46.4251 139.73 46.8796 140.156C47.3342 140.578 47.6964 141.136 47.9663 141.832C48.2362 142.528 48.3711 143.385 48.3711 144.403V145.114H39.962V143.665H46.6665C46.6665 143.049 46.5434 142.5 46.2972 142.017C46.0558 141.534 45.7101 141.153 45.2603 140.874C44.8152 140.594 44.2897 140.455 43.6836 140.455C43.016 140.455 42.4383 140.62 41.9506 140.952C41.4677 141.278 41.096 141.705 40.8356 142.23C40.5752 142.756 40.445 143.319 40.445 143.92V144.886C40.445 145.71 40.587 146.409 40.8711 146.982C41.1599 147.55 41.56 147.983 42.0714 148.281C42.5827 148.575 43.177 148.722 43.854 148.722C44.2944 148.722 44.6921 148.66 45.0472 148.537C45.4071 148.409 45.7172 148.22 45.9776 147.969C46.238 147.713 46.4393 147.396 46.5813 147.017L48.2006 147.472C48.0302 148.021 47.7437 148.504 47.3413 148.92C46.9388 149.332 46.4416 149.654 45.8498 149.886C45.2579 150.114 44.5927 150.227 43.854 150.227ZM55.6651 139.091V140.511H50.0117V139.091H55.6651ZM51.6594 136.477H53.3356V146.875C53.3356 147.348 53.4042 147.704 53.5415 147.94C53.6836 148.172 53.8635 148.329 54.0813 148.409C54.3039 148.485 54.5382 148.523 54.7844 148.523C54.9691 148.523 55.1206 148.513 55.239 148.494C55.3574 148.471 55.4521 148.452 55.5231 148.438L55.864 149.943C55.7504 149.986 55.5917 150.028 55.3881 150.071C55.1845 150.118 54.9265 150.142 54.614 150.142C54.1405 150.142 53.6765 150.04 53.2219 149.837C52.7721 149.633 52.3981 149.323 52.0998 148.906C51.8062 148.49 51.6594 147.964 51.6594 147.33V136.477ZM62.9308 139.091V140.511H57.2773V139.091H62.9308ZM58.9251 136.477H60.6012V146.875C60.6012 147.348 60.6699 147.704 60.8072 147.94C60.9492 148.172 61.1291 148.329 61.3469 148.409C61.5695 148.485 61.8039 148.523 62.0501 148.523C62.2347 148.523 62.3862 148.513 62.5046 148.494C62.623 148.471 62.7177 148.452 62.7887 148.438L63.1296 149.943C63.016 149.986 62.8574 150.028 62.6538 150.071C62.4502 150.118 62.1921 150.142 61.8796 150.142C61.4061 150.142 60.9421 150.04 60.4876 149.837C60.0378 149.633 59.6637 149.323 59.3654 148.906C59.0719 148.49 58.9251 147.964 58.9251 147.33V136.477ZM69.9087 150.227C68.8576 150.227 67.9509 149.995 67.1886 149.531C66.431 149.062 65.8462 148.409 65.4343 147.571C65.0271 146.728 64.8235 145.748 64.8235 144.631C64.8235 143.513 65.0271 142.528 65.4343 141.676C65.8462 140.819 66.4192 140.152 67.1531 139.673C67.8917 139.19 68.7534 138.949 69.7383 138.949C70.3065 138.949 70.8675 139.044 71.4215 139.233C71.9755 139.422 72.4798 139.73 72.9343 140.156C73.3888 140.578 73.7511 141.136 74.021 141.832C74.2908 142.528 74.4258 143.385 74.4258 144.403V145.114H66.0167V143.665H72.7212C72.7212 143.049 72.5981 142.5 72.3519 142.017C72.1104 141.534 71.7648 141.153 71.315 140.874C70.8699 140.594 70.3443 140.455 69.7383 140.455C69.0707 140.455 68.493 140.62 68.0053 140.952C67.5224 141.278 67.1507 141.705 66.8903 142.23C66.6299 142.756 66.4996 143.319 66.4996 143.92V144.886C66.4996 145.71 66.6417 146.409 66.9258 146.982C67.2146 147.55 67.6147 147.983 68.1261 148.281C68.6374 148.575 69.2317 148.722 69.9087 148.722C70.3491 148.722 70.7468 148.66 71.1019 148.537C71.4618 148.409 71.7719 148.22 72.0323 147.969C72.2927 147.713 72.494 147.396 72.636 147.017L74.2553 147.472C74.0849 148.021 73.7984 148.504 73.396 148.92C72.9935 149.332 72.4963 149.654 71.9045 149.886C71.3126 150.114 70.6474 150.227 69.9087 150.227ZM76.9755 150V139.091H78.5948V140.739H78.7085C78.9073 140.199 79.2672 139.761 79.788 139.425C80.3088 139.089 80.896 138.92 81.5494 138.92C81.6725 138.92 81.8263 138.923 82.011 138.928C82.1957 138.932 82.3353 138.939 82.43 138.949V140.653C82.3732 140.639 82.243 140.618 82.0394 140.589C81.8406 140.556 81.6299 140.54 81.4073 140.54C80.877 140.54 80.4035 140.651 79.9869 140.874C79.5749 141.091 79.2482 141.394 79.0067 141.783C78.77 142.166 78.6516 142.604 78.6516 143.097V150H76.9755ZM101.974 140H100.212C100.108 139.493 99.9259 139.048 99.6655 138.665C99.4098 138.281 99.0973 137.959 98.728 137.699C98.3634 137.434 97.9586 137.235 97.5135 137.102C97.0684 136.97 96.6044 136.903 96.1214 136.903C95.2408 136.903 94.4429 137.126 93.728 137.571C93.0178 138.016 92.4519 138.672 92.0305 139.538C91.6139 140.405 91.4055 141.468 91.4055 142.727C91.4055 143.987 91.6139 145.05 92.0305 145.916C92.4519 146.783 93.0178 147.438 93.728 147.884C94.4429 148.329 95.2408 148.551 96.1214 148.551C96.6044 148.551 97.0684 148.485 97.5135 148.352C97.9586 148.22 98.3634 148.023 98.728 147.763C99.0973 147.498 99.4098 147.173 99.6655 146.79C99.9259 146.402 100.108 145.956 100.212 145.455H101.974C101.841 146.198 101.6 146.863 101.249 147.45C100.899 148.037 100.463 148.537 99.9425 148.949C99.4216 149.356 98.8369 149.666 98.1882 149.879C97.5443 150.092 96.8554 150.199 96.1214 150.199C94.8809 150.199 93.7777 149.896 92.8118 149.29C91.8459 148.684 91.0859 147.822 90.532 146.705C89.978 145.587 89.701 144.261 89.701 142.727C89.701 141.193 89.978 139.867 90.532 138.75C91.0859 137.633 91.8459 136.771 92.8118 136.165C93.7777 135.559 94.8809 135.256 96.1214 135.256C96.8554 135.256 97.5443 135.362 98.1882 135.575C98.8369 135.788 99.4216 136.101 99.9425 136.513C100.463 136.92 100.899 137.417 101.249 138.004C101.6 138.587 101.841 139.252 101.974 140Z"></path>
<path fill="black" d="M55.0153 65.6364C54.8874 64.5568 54.369 63.7188 53.4599 63.1222C52.5508 62.5256 51.4357 62.2273 50.1147 62.2273C49.1488 62.2273 48.3036 62.3835 47.5792 62.696C46.8619 63.0085 46.3008 63.4382 45.896 63.9851C45.4982 64.532 45.2994 65.1534 45.2994 65.8494C45.2994 66.4318 45.4379 66.9325 45.7148 67.3516C45.9989 67.7635 46.3612 68.108 46.8015 68.3849C47.2418 68.6548 47.7035 68.8786 48.1864 69.0561C48.6694 69.2266 49.1133 69.3651 49.5181 69.4716L51.734 70.0682C52.3022 70.2173 52.9343 70.4233 53.6303 70.6861C54.3335 70.9489 55.0046 71.3075 55.6438 71.7621C56.2901 72.2095 56.8228 72.7848 57.2418 73.4879C57.6609 74.1911 57.8704 75.054 57.8704 76.0767C57.8704 77.2557 57.5614 78.321 56.9435 79.2727C56.3327 80.2244 55.4379 80.9808 54.2589 81.5419C53.087 82.103 51.663 82.3835 49.9869 82.3835C48.4244 82.3835 47.0714 82.1314 45.9279 81.6271C44.7915 81.1229 43.8967 80.4197 43.2433 79.5178C42.5969 78.6158 42.2312 77.5682 42.146 76.375H44.8732C44.9442 77.1989 45.2212 77.8807 45.7042 78.4205C46.1942 78.9531 46.8121 79.3509 47.5579 79.6136C48.3107 79.8693 49.1204 79.9972 49.9869 79.9972C50.9954 79.9972 51.9009 79.8338 52.7035 79.5071C53.506 79.1733 54.1417 78.7116 54.6104 78.1222C55.0792 77.5256 55.3136 76.8295 55.3136 76.0341C55.3136 75.3097 55.1112 74.7202 54.7063 74.2656C54.3015 73.8111 53.7688 73.4418 53.1083 73.1577C52.4478 72.8736 51.734 72.625 50.967 72.4119L48.2823 71.6449C46.5778 71.1548 45.2283 70.4553 44.234 69.5462C43.2397 68.6371 42.7425 67.4474 42.7425 65.9773C42.7425 64.7557 43.0728 63.6903 43.7333 62.7812C44.4009 61.8651 45.2958 61.1548 46.418 60.6506C47.5472 60.1392 48.8079 59.8835 50.1999 59.8835C51.6062 59.8835 52.8562 60.1357 53.9499 60.6399C55.0437 61.1371 55.9102 61.8189 56.5494 62.6854C57.1957 63.5518 57.5366 64.5355 57.5721 65.6364H55.0153ZM64.2172 76.0341L64.1745 72.9233H64.6859L71.845 65.6364H74.9558L67.3279 73.3494H67.1149L64.2172 76.0341ZM61.8734 82V60.1818H64.3876V82H61.8734ZM72.2711 82L65.8791 73.9034L67.6689 72.1562L75.4672 82H72.2711ZM78.1918 82V65.6364H80.706V82H78.1918ZM79.4702 62.9091C78.9801 62.9091 78.5575 62.7422 78.2024 62.4084C77.8544 62.0746 77.6804 61.6733 77.6804 61.2045C77.6804 60.7358 77.8544 60.3345 78.2024 60.0007C78.5575 59.6669 78.9801 59.5 79.4702 59.5C79.9602 59.5 80.3793 59.6669 80.7273 60.0007C81.0824 60.3345 81.2599 60.7358 81.2599 61.2045C81.2599 61.6733 81.0824 62.0746 80.7273 62.4084C80.3793 62.7422 79.9602 62.9091 79.4702 62.9091ZM87.8251 72.1562V82H85.3109V65.6364H87.7399V68.1932H87.9529C88.3365 67.3622 88.9189 66.6946 89.7001 66.1903C90.4814 65.679 91.4899 65.4233 92.7257 65.4233C93.8336 65.4233 94.8031 65.6506 95.6341 66.1051C96.465 66.5526 97.1113 67.2344 97.573 68.1506C98.0346 69.0597 98.2654 70.2102 98.2654 71.6023V82H95.7512V71.7727C95.7512 70.4872 95.4174 69.4858 94.7498 68.7685C94.0822 68.044 93.166 67.6818 92.0012 67.6818C91.1987 67.6818 90.4814 67.8558 89.8493 68.2038C89.2243 68.5518 88.7306 69.0597 88.3684 69.7273C88.0062 70.3949 87.8251 71.2045 87.8251 72.1562Z"></path>
</svg>
