<svg version="1.1" xmlns="http://www.w3.org/2000/svg" xmlns:xlink="http://www.w3.org/1999/xlink" width="240.14392" height="32.36833" viewBox="0,0,240.14392,32.36833"><g transform="translate(-119.92804,-163.81583)"><g data-paper-data="{&quot;isPaintingLayer&quot;:true}" fill="#ffffff" fill-rule="nonzero" stroke="none" stroke-width="1" stroke-linecap="butt" stroke-linejoin="miter" stroke-miterlimit="10" stroke-dasharray="" stroke-dashoffset="0" style="mix-blend-mode: normal"><path d="M122.87315,175.09142l-2.94511,-10.7707h1.3253l2.2509,8.77223h0.10518l2.293,-8.77223h1.47255l2.29298,8.77223h0.10518l2.25092,-8.77223h1.32528l-2.94509,10.7707h-1.34636l-2.37711,-8.5829h-0.08414l-2.37714,8.5829zM136.04727,170.23199v4.85944h-1.24115v-10.7707h1.24115v3.95487h0.10521c0.18932,-0.41723 0.4733,-0.74854 0.85196,-0.99398c0.38218,-0.24893 0.89056,-0.37339 1.52515,-0.37339c0.55046,0 1.03255,0.11043 1.44626,0.3313c0.41372,0.2174 0.73453,0.55221 0.96242,1.0045c0.2314,0.4488 0.3471,1.02026 0.3471,1.71447v5.13292h-1.24115v-5.04876c0,-0.64163 -0.16655,-1.13773 -0.49961,-1.48835c-0.32958,-0.35411 -0.78714,-0.53117 -1.37264,-0.53117c-0.40671,0 -0.77134,0.0859 -1.09388,0.25769c-0.31906,0.17183 -0.5715,0.42251 -0.75733,0.75206c-0.18232,0.32958 -0.27348,0.72929 -0.27348,1.19909zM143.55601,175.09142v-8.07802h1.24115v8.07802zM144.18708,165.66706c-0.24189,0 -0.45052,-0.0824 -0.62584,-0.24718c-0.17179,-0.16479 -0.25769,-0.36288 -0.25769,-0.59428c0,-0.2314 0.0859,-0.42949 0.25769,-0.59428c0.17531,-0.16479 0.38394,-0.24718 0.62584,-0.24718c0.24192,0 0.4488,0.0824 0.62059,0.24718c0.17531,0.16479 0.26297,0.36288 0.26297,0.59428c0,0.2314 -0.08765,0.42949 -0.26297,0.59428c-0.17179,0.16479 -0.37866,0.24718 -0.62059,0.24718zM150.35212,175.25973c-0.75733,0 -1.40945,-0.17883 -1.9564,-0.53645c-0.54697,-0.35762 -0.96769,-0.85023 -1.26219,-1.47782c-0.29453,-0.62756 -0.44179,-1.34456 -0.44179,-2.15095c0,-0.82043 0.15078,-1.54443 0.45231,-2.17203c0.30502,-0.63111 0.72925,-1.12372 1.27271,-1.47782c0.54694,-0.35762 1.18505,-0.53642 1.91431,-0.53642c0.56786,0 1.07972,0.10518 1.53573,0.31554c0.45571,0.21036 0.82903,0.50489 1.11999,0.88353c0.29126,0.37866 0.47175,0.82043 0.54179,1.32531h-1.24124c-0.09441,-0.36815 -0.30483,-0.69421 -0.63096,-0.97822c-0.32242,-0.28749 -0.75746,-0.43124 -1.30427,-0.43124c-0.48385,0 -0.90808,0.12622 -1.27271,0.37866c-0.36114,0.24893 -0.64336,0.60127 -0.84671,1.05708c-0.19987,0.45228 -0.29977,0.98346 -0.29977,1.59353c0,0.62407 0.09818,1.16753 0.2945,1.63033c0.19984,0.4628 0.48033,0.82218 0.84147,1.07812c0.36463,0.25593 0.79238,0.38391 1.28323,0.38391c0.32254,0 0.61531,-0.05609 0.87819,-0.16828c0.26318,-0.11222 0.48564,-0.27348 0.66798,-0.48385c0.18234,-0.21036 0.31193,-0.4628 0.38906,-0.75733h1.24124c-0.07004,0.47684 -0.24374,0.90632 -0.5205,1.28851c-0.27367,0.37863 -0.63651,0.68017 -1.08882,0.90457c-0.44861,0.22088 -0.97096,0.33134 -1.56715,0.33134zM156.58433,170.23199v4.85944h-1.24124v-10.7707h1.24124v3.95487h0.1049c0.18944,-0.41723 0.4736,-0.74854 0.85217,-0.99398c0.38197,-0.24893 0.89044,-0.37339 1.52509,-0.37339c0.55043,0 1.03267,0.11043 1.4461,0.3313c0.41374,0.2174 0.73463,0.55221 0.96263,1.0045c0.2314,0.4488 0.3471,1.02026 0.3471,1.71447v5.13292h-1.24124v-5.04876c0,-0.64163 -0.16661,-1.13773 -0.49952,-1.48835c-0.32952,-0.35411 -0.78707,-0.53117 -1.37268,-0.53117c-0.40665,0 -0.77134,0.0859 -1.09406,0.25769c-0.31903,0.17183 -0.5714,0.42251 -0.75714,0.75206c-0.18234,0.32958 -0.27337,0.72929 -0.27337,1.19909zM171.53998,175.25973c-0.72938,0 -1.36928,-0.17355 -1.91971,-0.52066c-0.54704,-0.3471 -0.97467,-0.83271 -1.2832,-1.45678c-0.30514,-0.62411 -0.45756,-1.35336 -0.45756,-2.1878c0,-0.84147 0.15241,-1.576 0.45756,-2.2036c0.30854,-0.62759 0.73617,-1.11493 1.2832,-1.46203c0.55043,-0.3471 1.19033,-0.52066 1.91971,-0.52066c0.72907,0 1.36712,0.17355 1.91415,0.52066c0.55043,0.3471 0.97837,0.83443 1.2832,1.46203c0.30854,0.62759 0.4628,1.36213 0.4628,2.2036c0,0.83443 -0.15426,1.56369 -0.4628,2.1878c-0.30483,0.62407 -0.73278,1.10968 -1.2832,1.45678c-0.54704,0.3471 -1.18509,0.52066 -1.91415,0.52066zM171.53998,174.14477c0.55382,0 1.00953,-0.14199 1.36712,-0.42599c0.35759,-0.28398 0.62231,-0.65737 0.79417,-1.12017c0.17185,-0.4628 0.25763,-0.96418 0.25763,-1.50411c0,-0.53994 -0.08577,-1.04307 -0.25763,-1.50939c-0.17185,-0.46632 -0.43658,-0.8432 -0.79417,-1.13072c-0.35759,-0.28749 -0.8133,-0.43124 -1.36712,-0.43124c-0.55413,0 -1.00984,0.14375 -1.36743,0.43124c-0.35759,0.28752 -0.62231,0.6644 -0.79417,1.13072c-0.17185,0.46632 -0.25763,0.96945 -0.25763,1.50939c0,0.53994 0.08577,1.0413 0.25763,1.50411c0.17185,0.4628 0.43658,0.83619 0.79417,1.12017c0.35759,0.28401 0.8133,0.42599 1.36743,0.42599zM180.69207,167.0134v1.05183h-4.35468v-1.05183zM177.64189,175.09142v-9.19296c0,-0.46281 0.1086,-0.84848 0.32581,-1.15702c0.21752,-0.30854 0.49983,-0.53994 0.84693,-0.69421c0.3471,-0.15426 0.71334,-0.2314 1.09901,-0.2314c0.30514,0 0.55413,0.02454 0.74697,0.07363c0.19283,0.04909 0.33661,0.09466 0.43103,0.13674l-0.35759,1.07286c-0.06294,-0.02104 -0.15056,-0.04733 -0.26288,-0.07889c-0.1086,-0.03155 -0.25238,-0.04733 -0.43133,-0.04733c-0.41004,0 -0.70624,0.10343 -0.88859,0.31029c-0.17895,0.20686 -0.26843,0.51014 -0.26843,0.90983v8.89845zM190.10982,167.0134v1.05183h-4.18621v-1.05183zM187.14355,165.07804h1.24124v7.69937c0,0.35062 0.05091,0.61356 0.15241,0.78886c0.10521,0.17179 0.2385,0.28749 0.39986,0.3471c0.16476,0.05609 0.33847,0.08414 0.5205,0.08414c0.13699,0 0.24899,-0.007 0.33661,-0.02101c0.08763,-0.01755 0.15797,-0.03157 0.21042,-0.04208l0.25238,1.11493c-0.08392,0.03157 -0.20147,0.06312 -0.35235,0.09469c-0.15056,0.03505 -0.34186,0.05257 -0.57326,0.05257c-0.35049,0 -0.69421,-0.07537 -1.03082,-0.22612c-0.33291,-0.15078 -0.60997,-0.38042 -0.83088,-0.68896c-0.21721,-0.30854 -0.32612,-0.69772 -0.32612,-1.16753zM193.3914,170.23199v4.85944h-1.24093v-10.7707h1.24093v3.95487h0.10521c0.18944,-0.41723 0.4733,-0.74854 0.85217,-0.99398c0.38197,-0.24893 0.89044,-0.37339 1.52509,-0.37339c0.55043,0 1.03236,0.11043 1.4461,0.3313c0.41374,0.2174 0.73463,0.55221 0.96263,1.0045c0.2314,0.4488 0.3471,1.02026 0.3471,1.71447v5.13292h-1.24124v-5.04876c0,-0.64163 -0.16661,-1.13773 -0.49952,-1.48835c-0.32983,-0.35411 -0.78707,-0.53117 -1.37268,-0.53117c-0.40665,0 -0.77134,0.0859 -1.09406,0.25769c-0.31903,0.17183 -0.5714,0.42251 -0.75714,0.75206c-0.18234,0.32958 -0.27367,0.72929 -0.27367,1.19909zM204.28703,175.25973c-0.77812,0 -1.44981,-0.17183 -2.01412,-0.51541c-0.56092,-0.3471 -0.99411,-0.83095 -1.29893,-1.45151c-0.30175,-0.62411 -0.45231,-1.34984 -0.45231,-2.17731c0,-0.82743 0.15056,-1.55668 0.45231,-2.1878c0.30483,-0.6346 0.72907,-1.12896 1.27271,-1.48307c0.54672,-0.35762 1.18509,-0.53642 1.91415,-0.53642c0.42084,0 0.83613,0.0701 1.24648,0.21036c0.41035,0.14023 0.78368,0.36815 1.12029,0.68368c0.33661,0.31205 0.60473,0.72577 0.80466,1.24115c0.19962,0.51541 0.29959,1.15001 0.29959,1.90382v0.5259h-6.22687v-1.07284h4.96465c0,-0.4558 -0.09102,-0.86251 -0.27337,-1.22013c-0.17895,-0.35762 -0.43473,-0.63987 -0.76795,-0.84671c-0.32952,-0.20687 -0.71858,-0.3103 -1.1675,-0.3103c-0.49428,0 -0.92191,0.12271 -1.2832,0.36815c-0.35759,0.24192 -0.63281,0.55746 -0.82564,0.94665c-0.19283,0.38916 -0.2891,0.80639 -0.2891,1.25167v0.71525c0,0.61004 0.1049,1.1272 0.31532,1.55144c0.21382,0.42072 0.51032,0.74153 0.88889,0.96242c0.37857,0.21736 0.81854,0.32606 1.31992,0.32606c0.32612,0 0.62077,-0.04557 0.88364,-0.13675c0.26658,-0.09466 0.49613,-0.23489 0.68896,-0.42072c0.19283,-0.18932 0.34186,-0.42424 0.44707,-0.70473l1.19897,0.33658c-0.12619,0.40671 -0.33815,0.76433 -0.6362,1.07287c-0.29805,0.30502 -0.66613,0.54346 -1.10456,0.71525c-0.43812,0.16828 -0.93085,0.25244 -1.47789,0.25244zM217.28256,167.0134v1.05183h-4.35468v-1.05183zM214.23207,175.09142v-9.19296c0,-0.46281 0.10892,-0.84848 0.32612,-1.15702c0.21752,-0.30854 0.49952,-0.53994 0.84662,-0.69421c0.3471,-0.15426 0.71364,-0.2314 1.09931,-0.2314c0.30514,0 0.55382,0.02454 0.74666,0.07363c0.19283,0.04909 0.33661,0.09466 0.43133,0.13674l-0.35759,1.07286c-0.06325,-0.02104 -0.15087,-0.04733 -0.26288,-0.07889c-0.10892,-0.03155 -0.25238,-0.04733 -0.43133,-0.04733c-0.41035,0 -0.70655,0.10343 -0.88889,0.31029c-0.17864,0.20686 -0.26812,0.51014 -0.26812,0.90983v8.89845zM221.97107,175.25973c-0.72938,0 -1.36928,-0.17355 -1.91971,-0.52066c-0.54704,-0.3471 -0.97467,-0.83271 -1.2832,-1.45678c-0.30514,-0.62411 -0.45756,-1.35336 -0.45756,-2.1878c0,-0.84147 0.15241,-1.576 0.45756,-2.2036c0.30854,-0.62759 0.73617,-1.11493 1.2832,-1.46203c0.55043,-0.3471 1.19033,-0.52066 1.91971,-0.52066c0.72907,0 1.36743,0.17355 1.91415,0.52066c0.55043,0.3471 0.97837,0.83443 1.2832,1.46203c0.30854,0.62759 0.4628,1.36213 0.4628,2.2036c0,0.83443 -0.15426,1.56369 -0.4628,2.1878c-0.30483,0.62407 -0.73278,1.10968 -1.2832,1.45678c-0.54672,0.3471 -1.18509,0.52066 -1.91415,0.52066zM221.97107,174.14477c0.55382,0 1.00953,-0.14199 1.36743,-0.42599c0.35759,-0.28398 0.62231,-0.65737 0.79386,-1.12017c0.17185,-0.4628 0.25793,-0.96418 0.25793,-1.50411c0,-0.53994 -0.08608,-1.04307 -0.25793,-1.50939c-0.17155,-0.46632 -0.43627,-0.8432 -0.79386,-1.13072c-0.3579,-0.28749 -0.81361,-0.43124 -1.36743,-0.43124c-0.55413,0 -1.00984,0.14375 -1.36743,0.43124c-0.35759,0.28752 -0.62231,0.6644 -0.79417,1.13072c-0.17185,0.46632 -0.25763,0.96945 -0.25763,1.50939c0,0.53994 0.08577,1.0413 0.25763,1.50411c0.17185,0.4628 0.43658,0.83619 0.79417,1.12017c0.35759,0.28401 0.8133,0.42599 1.36743,0.42599zM228.76718,164.32073v10.7707h-1.24124v-10.7707zM232.28141,164.32073v10.7707h-1.24093v-10.7707zM237.83659,175.25973c-0.72938,0 -1.36928,-0.17355 -1.91971,-0.52066c-0.54704,-0.3471 -0.97467,-0.83271 -1.2832,-1.45678c-0.30514,-0.62411 -0.45756,-1.35336 -0.45756,-2.1878c0,-0.84147 0.15241,-1.576 0.45756,-2.2036c0.30854,-0.62759 0.73617,-1.11493 1.2832,-1.46203c0.55043,-0.3471 1.19033,-0.52066 1.91971,-0.52066c0.72907,0 1.36712,0.17355 1.91415,0.52066c0.55043,0.3471 0.97837,0.83443 1.2832,1.46203c0.30854,0.62759 0.4628,1.36213 0.4628,2.2036c0,0.83443 -0.15426,1.56369 -0.4628,2.1878c-0.30483,0.62407 -0.73278,1.10968 -1.2832,1.45678c-0.54704,0.3471 -1.18509,0.52066 -1.91415,0.52066zM237.83659,174.14477c0.55382,0 1.00953,-0.14199 1.36712,-0.42599c0.35759,-0.28398 0.62231,-0.65737 0.79417,-1.12017c0.17185,-0.4628 0.25763,-0.96418 0.25763,-1.50411c0,-0.53994 -0.08577,-1.04307 -0.25763,-1.50939c-0.17185,-0.46632 -0.43658,-0.8432 -0.79417,-1.13072c-0.35759,-0.28749 -0.8133,-0.43124 -1.36712,-0.43124c-0.55413,0 -1.00984,0.14375 -1.36743,0.43124c-0.35759,0.28752 -0.62231,0.6644 -0.79417,1.13072c-0.17185,0.46632 -0.25763,0.96945 -0.25763,1.50939c0,0.53994 0.08577,1.0413 0.25763,1.50411c0.17185,0.4628 0.43658,0.83619 0.79417,1.12017c0.35759,0.28401 0.8133,0.42599 1.36743,0.42599zM244.9468,175.09142l-2.46119,-8.07802h1.30418l1.746,6.18472h0.08423l1.72502,-6.18472h1.32516l1.70404,6.16371h0.08423l1.746,-6.16371h1.30418l-2.46119,8.07802h-1.22026l-1.76698,-6.20577h-0.12619l-1.76698,6.20577zM255.14946,175.09142v-8.07802h1.24124v8.07802zM255.78072,165.66706c-0.24189,0 -0.45077,-0.0824 -0.62602,-0.24718c-0.17185,-0.16479 -0.25763,-0.36288 -0.25763,-0.59428c0,-0.2314 0.08577,-0.42949 0.25763,-0.59428c0.17525,-0.16479 0.38413,-0.24718 0.62602,-0.24718c0.24189,0 0.44861,0.0824 0.62046,0.24718c0.17525,0.16479 0.26288,0.36288 0.26288,0.59428c0,0.2314 -0.08763,0.42949 -0.26288,0.59428c-0.17185,0.16479 -0.37857,0.24718 -0.62046,0.24718zM259.90522,170.23199v4.85944h-1.24124v-8.07802h1.19897v1.26219h0.10521c0.18944,-0.41023 0.477,-0.73978 0.86266,-0.98873c0.38567,-0.25241 0.88334,-0.37863 1.49331,-0.37863c0.54704,0 1.02557,0.11218 1.43593,0.33658c0.41004,0.22088 0.72938,0.55746 0.95708,1.00975c0.22801,0.4488 0.34186,1.01678 0.34186,1.70395v5.13292h-1.24124v-5.04876c0,-0.63463 -0.16476,-1.12896 -0.49428,-1.4831c-0.32952,-0.35759 -0.78183,-0.53642 -1.35694,-0.53642c-0.39616,0 -0.75005,0.0859 -1.06229,0.25769c-0.30854,0.17183 -0.55228,0.42251 -0.73092,0.75206c-0.17895,0.32958 -0.26812,0.72929 -0.26812,1.19909zM270.58766,178.28896c-0.59948,0 -1.11505,-0.07714 -1.54607,-0.2314c-0.43133,-0.15075 -0.79078,-0.35059 -1.07833,-0.59952c-0.28385,-0.24544 -0.51001,-0.50841 -0.67816,-0.7889l0.98855,-0.69421c0.11231,0.14726 0.25423,0.31557 0.42609,0.50489c0.17185,0.19283 0.40665,0.35938 0.7047,0.49961c0.30144,0.14375 0.69606,0.21563 1.18324,0.21563c0.65224,0 1.19033,-0.15779 1.61457,-0.47332c0.42424,-0.31554 0.63651,-0.8099 0.63651,-1.48307v-1.64086h-0.10521c-0.09133,0.14726 -0.22091,0.32958 -0.38937,0.54694c-0.16476,0.21387 -0.40325,0.40495 -0.71519,0.57326c-0.30854,0.16479 -0.72568,0.24717 -1.25173,0.24717c-0.65194,0 -1.23753,-0.15426 -1.75649,-0.4628c-0.51526,-0.30854 -0.92376,-0.7573 -1.22519,-1.34633c-0.29805,-0.58903 -0.44707,-1.30427 -0.44707,-2.14574c0,-0.82743 0.14532,-1.54792 0.43627,-2.16151c0.29126,-0.61707 0.69606,-1.09388 1.21502,-1.43046c0.51896,-0.3401 1.11844,-0.51013 1.79846,-0.51013c0.52606,0 0.9432,0.08765 1.25173,0.26293c0.31224,0.17183 0.55043,0.36815 0.71519,0.58903c0.16846,0.2174 0.29805,0.39619 0.38937,0.53645h0.12619v-1.28323h1.19897v8.30942c0,0.69421 -0.15766,1.25867 -0.4733,1.69343c-0.31193,0.43827 -0.73278,0.75909 -1.26222,0.96245c-0.52574,0.20684 -1.11135,0.31026 -1.75649,0.31026zM270.54569,173.85028c0.49767,0 0.91851,-0.11394 1.26222,-0.34186c0.3434,-0.22789 0.60473,-0.5557 0.78337,-0.98346c0.17895,-0.42772 0.26843,-0.93961 0.26843,-1.53568c0,-0.58199 -0.08763,-1.09564 -0.26318,-1.54092c-0.17525,-0.44528 -0.43473,-0.79411 -0.77812,-1.04655c-0.34371,-0.25244 -0.76795,-0.37866 -1.27271,-0.37866c-0.52606,0 -0.96418,0.13322 -1.31498,0.39971c-0.3471,0.26645 -0.60812,0.62407 -0.78337,1.07284c-0.17185,0.4488 -0.25793,0.94665 -0.25793,1.49359c0,0.56098 0.08763,1.0571 0.26318,1.48835c0.17864,0.42775 0.44152,0.76433 0.78862,1.00975c0.35081,0.24192 0.78554,0.3629 1.30449,0.3629zM280.51695,175.09142v-8.07802h1.24124v8.07802zM281.1479,165.66706c-0.24189,0 -0.45046,-0.0824 -0.62571,-0.24718c-0.17185,-0.16479 -0.25763,-0.36288 -0.25763,-0.59428c0,-0.2314 0.08577,-0.42949 0.25763,-0.59428c0.17525,-0.16479 0.38382,-0.24718 0.62571,-0.24718c0.24189,0 0.44892,0.0824 0.62077,0.24718c0.17525,0.16479 0.26288,0.36288 0.26288,0.59428c0,0.2314 -0.08763,0.42949 -0.26288,0.59428c-0.17185,0.16479 -0.37888,0.24718 -0.62077,0.24718zM289.75328,168.82254l-1.11505,0.31554c-0.07004,-0.1858 -0.1734,-0.36638 -0.31008,-0.54166c-0.13329,-0.17883 -0.31564,-0.32609 -0.54704,-0.44179c-0.2314,-0.1157 -0.5276,-0.17355 -0.88889,-0.17355c-0.49428,0 -0.90617,0.11397 -1.23568,0.34186c-0.32612,0.2244 -0.48934,0.51013 -0.48934,0.85724c0,0.30854 0.11231,0.55221 0.33661,0.73101c0.22461,0.17883 0.57511,0.32782 1.0518,0.44704l1.19928,0.2945c0.72228,0.17531 1.26037,0.44352 1.61457,0.80466c0.35389,0.35762 0.53099,0.81867 0.53099,1.38313c0,0.4628 -0.13329,0.87655 -0.39955,1.24117c-0.26288,0.36463 -0.63126,0.65212 -1.10456,0.86248c-0.4733,0.21036 -1.02372,0.31557 -1.65128,0.31557c-0.82379,0 -1.50596,-0.17883 -2.0459,-0.53645c-0.53994,-0.35762 -0.88179,-0.88004 -1.02557,-1.56721l1.1783,-0.29453c0.112,0.43476 0.32427,0.76082 0.6362,0.97822c0.31564,0.21736 0.72753,0.32606 1.236,0.32606c0.5785,0 1.0376,-0.12271 1.37792,-0.36815c0.3434,-0.24893 0.51526,-0.54694 0.51526,-0.89404c0,-0.28049 -0.09811,-0.51541 -0.29434,-0.70473c-0.19653,-0.19283 -0.49798,-0.33658 -0.90463,-0.43124l-1.34645,-0.31557c-0.73987,-0.17528 -1.2832,-0.44701 -1.63031,-0.81515c-0.34371,-0.37163 -0.51526,-0.83619 -0.51526,-1.39366c0,-0.4558 0.12773,-0.859 0.38382,-1.20962c0.25948,-0.35062 0.61182,-0.62584 1.05704,-0.82567c0.44892,-0.19987 0.95708,-0.29977 1.52509,-0.29977c0.79941,0 1.42698,0.17531 1.883,0.5259c0.4591,0.35062 0.78522,0.81343 0.97806,1.38841zM298.31113,175.28074c-0.51186,0 -0.97652,-0.09642 -1.39366,-0.28926c-0.41714,-0.19632 -0.74851,-0.47857 -0.99379,-0.84671c-0.24559,-0.37163 -0.36839,-0.82043 -0.36839,-1.34633c0,-0.4628 0.09133,-0.83796 0.27367,-1.12544c0.18234,-0.29101 0.42578,-0.51893 0.73092,-0.68372c0.30514,-0.16476 0.64175,-0.28749 1.00984,-0.36811c0.37148,-0.08417 0.74512,-0.15078 1.12029,-0.19987c0.49057,-0.0631 0.88859,-0.11043 1.19373,-0.14199c0.30854,-0.03505 0.53284,-0.0929 0.67322,-0.17355c0.14378,-0.08065 0.21567,-0.22088 0.21567,-0.42072v-0.04208c0,-0.51889 -0.14224,-0.92209 -0.42609,-1.20958c-0.28046,-0.28752 -0.70655,-0.43127 -1.27795,-0.43127c-0.5927,0 -1.05704,0.12974 -1.39366,0.38919c-0.33661,0.25945 -0.57326,0.53642 -0.70994,0.83095l-1.1783,-0.42075c0.21042,-0.49085 0.49088,-0.873 0.84169,-1.14649c0.35389,-0.27697 0.73956,-0.46981 1.15701,-0.5785c0.42054,-0.11218 0.83428,-0.16828 1.24093,-0.16828c0.25948,0 0.55753,0.03153 0.89414,0.09466c0.34,0.05961 0.66798,0.18407 0.98361,0.37339c0.31903,0.18935 0.58375,0.47509 0.79417,0.85724c0.21012,0.38218 0.31532,0.89408 0.31532,1.53568v5.32224h-1.24093v-1.09391h-0.06325c-0.08423,0.17531 -0.22431,0.3629 -0.42084,0.56274c-0.19623,0.19984 -0.45756,0.36991 -0.78337,0.51013c-0.32612,0.14026 -0.72413,0.21036 -1.19403,0.21036zM298.50057,174.16582c0.49088,0 0.90463,-0.09642 1.24124,-0.28926c0.34,-0.19283 0.59578,-0.44176 0.76763,-0.74681c0.17525,-0.30502 0.26318,-0.62584 0.26318,-0.96242v-1.13597c-0.05276,0.06312 -0.16846,0.12098 -0.3471,0.17355c-0.17556,0.04909 -0.37888,0.0929 -0.61028,0.13147c-0.2277,0.03508 -0.45046,0.06665 -0.66798,0.09469c-0.21382,0.02453 -0.38721,0.04557 -0.5205,0.0631c-0.32242,0.04208 -0.62416,0.11046 -0.90463,0.20512c-0.27707,0.09114 -0.50137,0.22965 -0.67322,0.41548c-0.16815,0.18232 -0.25238,0.43124 -0.25238,0.74678c0,0.43127 0.15951,0.75733 0.47854,0.97822c0.32273,0.21736 0.73123,0.32606 1.22551,0.32606zM308.44437,178.12069v-11.10728h1.19897v1.28323h0.14717c0.09133,-0.14026 0.21752,-0.31906 0.37857,-0.53645c0.16507,-0.22088 0.39986,-0.4172 0.705,-0.58903c0.30854,-0.17528 0.72568,-0.26293 1.25142,-0.26293c0.68032,0 1.2798,0.17004 1.79876,0.51013c0.51896,0.3401 0.92376,0.82218 1.2147,1.44626c0.29126,0.62407 0.43658,1.36037 0.43658,2.20884c0,0.85547 -0.14532,1.59701 -0.43658,2.2246c-0.29095,0.62407 -0.69421,1.10792 -1.20946,1.45151c-0.51526,0.3401 -1.1098,0.51017 -1.78272,0.51017c-0.51896,0 -0.93455,-0.08593 -1.24648,-0.25772c-0.31224,-0.17531 -0.55228,-0.37339 -0.72043,-0.59427c-0.16846,-0.2244 -0.29805,-0.41023 -0.38937,-0.55746h-0.10521v4.27041zM309.66432,171.05242c0,0.61007 0.08948,1.14825 0.26812,1.61454c0.17895,0.4628 0.44028,0.8257 0.78368,1.08867c0.34371,0.25945 0.76424,0.38916 1.26222,0.38916c0.51896,0 0.95184,-0.13675 1.29893,-0.4102c0.35081,-0.27701 0.61367,-0.64864 0.78893,-1.11495c0.17895,-0.46981 0.26812,-0.99222 0.26812,-1.56721c0,-0.56798 -0.08763,-1.07987 -0.26288,-1.53568c-0.17185,-0.45929 -0.43288,-0.82218 -0.78368,-1.08864c-0.3471,-0.26997 -0.78337,-0.40495 -1.30943,-0.40495c-0.50477,0 -0.929,0.12798 -1.27271,0.38391c-0.34371,0.25244 -0.60288,0.60655 -0.77844,1.06235c-0.17525,0.45228 -0.26288,0.97994 -0.26288,1.583zM317.46904,175.09142v-8.07802h1.19897v1.2201h0.08423c0.14717,-0.39968 0.41374,-0.72401 0.79941,-0.97294c0.38567,-0.24893 0.82039,-0.37339 1.30418,-0.37339c0.09102,0 0.20517,0.00176 0.34186,0.00525c0.13668,0.00351 0.24004,0.00876 0.31008,0.0158v1.26219c-0.04196,-0.01052 -0.13822,-0.02629 -0.2891,-0.04733c-0.14717,-0.02456 -0.30329,-0.03681 -0.46805,-0.03681c-0.39276,0 -0.74327,0.08238 -1.0518,0.24717c-0.30514,0.16127 -0.54704,0.38567 -0.72568,0.67317c-0.17556,0.28401 -0.26318,0.60831 -0.26318,0.97294v5.11188zM322.97918,175.09142v-8.07802h1.24124v8.07802zM323.61013,165.66706c-0.24189,0 -0.45046,-0.0824 -0.62571,-0.24718c-0.17185,-0.16479 -0.25763,-0.36288 -0.25763,-0.59428c0,-0.2314 0.08577,-0.42949 0.25763,-0.59428c0.17525,-0.16479 0.38382,-0.24718 0.62571,-0.24718c0.24189,0 0.44892,0.0824 0.62077,0.24718c0.17525,0.16479 0.26288,0.36288 0.26288,0.59428c0,0.2314 -0.08763,0.42949 -0.26288,0.59428c-0.17185,0.16479 -0.37888,0.24718 -0.62077,0.24718zM326.49371,175.09142v-8.07802h1.19897v1.26219h0.10521c0.16815,-0.43124 0.43997,-0.7661 0.81515,-1.0045c0.37518,-0.24192 0.82564,-0.36287 1.35169,-0.36287c0.53284,0 0.9762,0.12094 1.33041,0.36287c0.35759,0.2384 0.63651,0.57326 0.83613,1.0045h0.08423c0.20672,-0.41723 0.51711,-0.74854 0.93085,-0.99398c0.41374,-0.24893 0.90987,-0.37339 1.48837,-0.37339c0.72228,0 1.31313,0.22612 1.77223,0.67841c0.45941,0.4488 0.68896,1.14825 0.68896,2.09841v5.40638h-1.24124v-5.40638c0,-0.59603 -0.16291,-1.02202 -0.48903,-1.27799c-0.32612,-0.25593 -0.70994,-0.38391 -1.15177,-0.38391c-0.56801,0 -1.00799,0.17179 -1.31992,0.51541c-0.31193,0.34007 -0.46805,0.77134 -0.46805,1.29372v5.25914h-1.26222v-5.5326c0,-0.45932 -0.14902,-0.82919 -0.44707,-1.10968c-0.29805,-0.28401 -0.68187,-0.42599 -1.15177,-0.42599c-0.32242,0 -0.62416,0.0859 -0.90463,0.25769c-0.27676,0.17183 -0.50137,0.41023 -0.67322,0.71525c-0.16815,0.30153 -0.25238,0.65039 -0.25238,1.04658v5.04876zM341.74247,175.28074c-0.51186,0 -0.97652,-0.09642 -1.39366,-0.28926c-0.41714,-0.19632 -0.74851,-0.47857 -0.99411,-0.84671c-0.24529,-0.37163 -0.36808,-0.82043 -0.36808,-1.34633c0,-0.4628 0.09133,-0.83796 0.27337,-1.12544c0.18234,-0.29101 0.42609,-0.51893 0.73123,-0.68372c0.30483,-0.16476 0.64145,-0.28749 1.00953,-0.36811c0.37179,-0.08417 0.74512,-0.15078 1.12029,-0.19987c0.49088,-0.0631 0.88889,-0.11043 1.19373,-0.14199c0.30854,-0.03505 0.53315,-0.0929 0.67322,-0.17355c0.14378,-0.08065 0.21567,-0.22088 0.21567,-0.42072v-0.04208c0,-0.51889 -0.14192,-0.92209 -0.42609,-1.20958c-0.28046,-0.28752 -0.70624,-0.43127 -1.27795,-0.43127c-0.59239,0 -1.05704,0.12974 -1.39366,0.38919c-0.33661,0.25945 -0.57326,0.53642 -0.70994,0.83095l-1.17799,-0.42075c0.21042,-0.49085 0.49088,-0.873 0.84138,-1.14649c0.3542,-0.27697 0.73987,-0.46981 1.15701,-0.5785c0.42084,-0.11218 0.83459,-0.16828 1.24124,-0.16828c0.25948,0 0.55753,0.03153 0.89414,0.09466c0.34,0.05961 0.66798,0.18407 0.9833,0.37339c0.31903,0.18935 0.58375,0.47509 0.79417,0.85724c0.21042,0.38218 0.31564,0.89408 0.31564,1.53568v5.32224h-1.24124v-1.09391h-0.06294c-0.08423,0.17531 -0.22461,0.3629 -0.42084,0.56274c-0.19623,0.19984 -0.45756,0.36991 -0.78368,0.51013c-0.32612,0.14026 -0.72383,0.21036 -1.19373,0.21036zM341.93161,174.16582c0.49088,0 0.90463,-0.09642 1.24124,-0.28926c0.34032,-0.19283 0.59609,-0.44176 0.76795,-0.74681c0.17525,-0.30502 0.26288,-0.62584 0.26288,-0.96242v-1.13597c-0.05245,0.06312 -0.16815,0.12098 -0.3471,0.17355c-0.17525,0.04909 -0.37857,0.0929 -0.60997,0.13147c-0.22801,0.03508 -0.45046,0.06665 -0.66798,0.09469c-0.21382,0.02453 -0.38752,0.04557 -0.5205,0.0631c-0.32273,0.04208 -0.62416,0.11046 -0.90463,0.20512c-0.27707,0.09114 -0.50137,0.22965 -0.67322,0.41548c-0.16815,0.18232 -0.25238,0.43124 -0.25238,0.74678c0,0.43127 0.15951,0.75733 0.47854,0.97822c0.32242,0.21736 0.73092,0.32606 1.22519,0.32606zM347.71016,175.09142v-8.07802h1.19928v1.2201h0.08392c0.14748,-0.39968 0.41374,-0.72401 0.79941,-0.97294c0.38567,-0.24893 0.82039,-0.37339 1.30418,-0.37339c0.09133,0 0.20517,0.00176 0.34186,0.00525c0.13699,0.00351 0.24035,0.00876 0.31039,0.0158v1.26219c-0.04196,-0.01052 -0.13853,-0.02629 -0.2891,-0.04733c-0.14748,-0.02456 -0.30329,-0.03681 -0.46805,-0.03681c-0.39276,0 -0.74357,0.08238 -1.05211,0.24717c-0.30483,0.16127 -0.54672,0.38567 -0.72568,0.67317c-0.17525,0.28401 -0.26288,0.60831 -0.26288,0.97294v5.11188zM354.26563,178.12069c-0.21012,0 -0.3977,-0.01753 -0.56277,-0.05261c-0.16476,-0.03153 -0.27861,-0.0631 -0.34155,-0.09466l0.31532,-1.09388c0.30175,0.07714 0.56801,0.10518 0.79941,0.08414c0.2314,-0.02104 0.43658,-0.12446 0.61522,-0.3103c0.18234,-0.18232 0.34896,-0.47857 0.49983,-0.8888l0.2314,-0.63108l-2.98725,-8.12011h1.34645l2.22979,6.43717h0.08423l2.22979,-6.43717h1.34645l-3.42907,9.25607c-0.15426,0.41723 -0.34525,0.76257 -0.57326,1.03603c-0.22801,0.27701 -0.49273,0.48209 -0.79417,0.61535c-0.29805,0.13322 -0.63466,0.19984 -1.00984,0.19984zM124.03017,193.1548c-0.75733,0 -1.40945,-0.17883 -1.9564,-0.53645c-0.54695,-0.35762 -0.96768,-0.85023 -1.26219,-1.47782c-0.29451,-0.62756 -0.44177,-1.34456 -0.44177,-2.15095c0,-0.82043 0.15076,-1.54443 0.45228,-2.17203c0.30503,-0.63111 0.72927,-1.12372 1.27271,-1.47782c0.54695,-0.35762 1.18507,-0.53642 1.91433,-0.53642c0.56798,0 1.07987,0.10518 1.53568,0.31554c0.45577,0.21036 0.82919,0.50489 1.1202,0.88353c0.29098,0.37866 0.47156,0.82043 0.54166,1.32531h-1.24115c-0.09466,-0.36815 -0.30502,-0.69421 -0.63108,-0.97822c-0.32258,-0.28749 -0.75733,-0.43124 -1.30427,-0.43124c-0.48385,0 -0.90808,0.12622 -1.27272,0.37866c-0.36112,0.24893 -0.64337,0.60127 -0.84672,1.05708c-0.19984,0.45228 -0.29977,0.98346 -0.29977,1.59353c0,0.62407 0.09817,1.16753 0.29451,1.63033c0.19985,0.4628 0.48033,0.82218 0.84146,1.07812c0.36463,0.25593 0.79238,0.38391 1.28324,0.38391c0.32254,0 0.61531,-0.05609 0.87828,-0.16828c0.26293,-0.11222 0.48558,-0.27348 0.66789,-0.48385c0.18234,-0.21036 0.31205,-0.4628 0.38919,-0.75733h1.24115c-0.0701,0.47684 -0.24365,0.90632 -0.52066,1.28851c-0.27346,0.37863 -0.63635,0.68017 -1.08864,0.90457c-0.44877,0.22088 -0.97118,0.33134 -1.56721,0.33134zM132.30278,193.1548c-0.72929,0 -1.36913,-0.17355 -1.91959,-0.52066c-0.54694,-0.3471 -0.97469,-0.83271 -1.28323,-1.45678c-0.30502,-0.62411 -0.45756,-1.35336 -0.45756,-2.1878c0,-0.84147 0.15254,-1.576 0.45756,-2.2036c0.30854,-0.62759 0.73629,-1.11493 1.28323,-1.46203c0.55046,-0.3471 1.1903,-0.52066 1.91959,-0.52066c0.72925,0 1.36737,0.17355 1.91431,0.52066c0.55046,0.3471 0.97822,0.83443 1.28323,1.46203c0.30854,0.62759 0.4628,1.36213 0.4628,2.2036c0,0.83443 -0.15426,1.56369 -0.4628,2.1878c-0.30502,0.62407 -0.73278,1.10968 -1.28323,1.45678c-0.54694,0.3471 -1.18505,0.52066 -1.91431,0.52066zM132.30278,192.03985c0.55395,0 1.00975,-0.14199 1.36737,-0.42599c0.35762,-0.28398 0.62231,-0.65737 0.79414,-1.12017c0.17179,-0.4628 0.25769,-0.96418 0.25769,-1.50411c0,-0.53994 -0.0859,-1.04307 -0.25769,-1.50939c-0.17183,-0.46632 -0.43652,-0.8432 -0.79414,-1.13072c-0.35762,-0.28749 -0.81343,-0.43124 -1.36737,-0.43124c-0.55398,0 -1.00975,0.14375 -1.36737,0.43124c-0.35762,0.28752 -0.62235,0.6644 -0.79414,1.13072c-0.17179,0.46632 -0.25769,0.96945 -0.25769,1.50939c0,0.53994 0.0859,1.0413 0.25769,1.50411c0.17179,0.4628 0.43652,0.83619 0.79414,1.12017c0.35762,0.28401 0.81339,0.42599 1.36737,0.42599zM139.0989,182.21579v10.7707h-1.24117v-10.7707zM144.65384,193.1548c-0.72925,0 -1.36913,-0.17355 -1.91959,-0.52066c-0.54694,-0.3471 -0.97469,-0.83271 -1.28323,-1.45678c-0.30502,-0.62411 -0.45752,-1.35336 -0.45752,-2.1878c0,-0.84147 0.15251,-1.576 0.45752,-2.2036c0.30854,-0.62759 0.73629,-1.11493 1.28323,-1.46203c0.55046,-0.3471 1.19033,-0.52066 1.91959,-0.52066c0.72929,0 1.3674,0.17355 1.91434,0.52066c0.55046,0.3471 0.97818,0.83443 1.28323,1.46203c0.30854,0.62759 0.4628,1.36213 0.4628,2.2036c0,0.83443 -0.15426,1.56369 -0.4628,2.1878c-0.30505,0.62407 -0.73278,1.10968 -1.28323,1.45678c-0.54694,0.3471 -1.18505,0.52066 -1.91434,0.52066zM144.65384,192.03985c0.55398,0 1.00977,-0.14199 1.3674,-0.42599c0.35759,-0.28398 0.62231,-0.65737 0.79411,-1.12017c0.17179,-0.4628 0.25769,-0.96418 0.25769,-1.50411c0,-0.53994 -0.0859,-1.04307 -0.25769,-1.50939c-0.17179,-0.46632 -0.43652,-0.8432 -0.79411,-1.13072c-0.35762,-0.28749 -0.81343,-0.43124 -1.3674,-0.43124c-0.55395,0 -1.00975,0.14375 -1.36737,0.43124c-0.35762,0.28752 -0.62231,0.6644 -0.79414,1.13072c-0.17179,0.46632 -0.25769,0.96945 -0.25769,1.50939c0,0.53994 0.0859,1.0413 0.25769,1.50411c0.17183,0.4628 0.43652,0.83619 0.79414,1.12017c0.35762,0.28401 0.81343,0.42599 1.36737,0.42599zM150.20881,192.9865v-8.07802h1.19922v1.2201h0.08392c0.14748,-0.39968 0.41374,-0.72401 0.79941,-0.97294c0.38567,-0.24893 0.82039,-0.37339 1.30418,-0.37339c0.09133,0 0.20517,0.00176 0.34186,0.00525c0.13699,0.00351 0.24035,0.00876 0.31039,0.0158v1.26219c-0.04196,-0.01052 -0.13853,-0.02629 -0.2891,-0.04733c-0.14748,-0.02456 -0.30329,-0.03681 -0.46805,-0.03681c-0.39276,0 -0.74357,0.08238 -1.05211,0.24717c-0.30483,0.16127 -0.54672,0.38567 -0.72568,0.67317c-0.17525,0.28401 -0.26288,0.60831 -0.26288,0.97294v5.11188zM163.16601,193.1548c-0.72938,0 -1.36928,-0.17355 -1.91971,-0.52066c-0.54672,-0.3471 -0.97467,-0.83271 -1.2832,-1.45678c-0.30483,-0.62411 -0.45756,-1.35336 -0.45756,-2.1878c0,-0.84147 0.15273,-1.576 0.45756,-2.2036c0.30854,-0.62759 0.73648,-1.11493 1.2832,-1.46203c0.55043,-0.3471 1.19033,-0.52066 1.91971,-0.52066c0.72938,0 1.36743,0.17355 1.91415,0.52066c0.55074,0.3471 0.97837,0.83443 1.28351,1.46203c0.30854,0.62759 0.4628,1.36213 0.4628,2.2036c0,0.83443 -0.15426,1.56369 -0.4628,2.1878c-0.30514,0.62407 -0.73278,1.10968 -1.28351,1.45678c-0.54672,0.3471 -1.18477,0.52066 -1.91415,0.52066zM163.16601,192.03985c0.55382,0 1.00984,-0.14199 1.36743,-0.42599c0.35759,-0.28398 0.62231,-0.65737 0.79417,-1.12017c0.17155,-0.4628 0.25763,-0.96418 0.25763,-1.50411c0,-0.53994 -0.08608,-1.04307 -0.25763,-1.50939c-0.17185,-0.46632 -0.43658,-0.8432 -0.79417,-1.13072c-0.35759,-0.28749 -0.81361,-0.43124 -1.36743,-0.43124c-0.55413,0 -1.00984,0.14375 -1.36743,0.43124c-0.35759,0.28752 -0.62231,0.6644 -0.79417,1.13072c-0.17185,0.46632 -0.25763,0.96945 -0.25763,1.50939c0,0.53994 0.08577,1.0413 0.25763,1.50411c0.17185,0.4628 0.43658,0.83619 0.79417,1.12017c0.35759,0.28401 0.8133,0.42599 1.36743,0.42599zM172.31811,184.90847v1.05183h-4.35436v-1.05183zM169.26792,192.9865v-9.19298c0,-0.4628 0.1086,-0.84847 0.32612,-1.15701c0.21721,-0.30854 0.49952,-0.53994 0.84662,-0.69421c0.3471,-0.15426 0.71364,-0.2314 1.09931,-0.2314c0.30483,0 0.55382,0.02456 0.74666,0.07365c0.19283,0.04909 0.33661,0.09466 0.43133,0.13675l-0.35759,1.07284c-0.06325,-0.02101 -0.15087,-0.04733 -0.26318,-0.07886c-0.1086,-0.03157 -0.25238,-0.04736 -0.43103,-0.04736c-0.41035,0 -0.70655,0.10345 -0.88889,0.3103c-0.17895,0.20687 -0.26812,0.51013 -0.26812,0.90984v8.89845zM179.4641,182.21579v10.7707h-1.24124v-10.7707zM181.73739,192.9865v-8.07802h1.24093v8.07802zM182.36835,183.56212c-0.24189,0 -0.45046,-0.08238 -0.62571,-0.24717c-0.17185,-0.16479 -0.25763,-0.36287 -0.25763,-0.59427c0,-0.2314 0.08577,-0.42952 0.25763,-0.5943c0.17525,-0.16479 0.38382,-0.24717 0.62571,-0.24717c0.24189,0 0.44892,0.08238 0.62077,0.24717c0.17525,0.16479 0.26288,0.3629 0.26288,0.5943c0,0.2314 -0.08763,0.42948 -0.26288,0.59427c-0.17185,0.16479 -0.37888,0.24717 -0.62077,0.24717zM188.51222,196.18416c-0.59948,0 -1.11474,-0.07714 -1.54607,-0.2314c-0.43133,-0.15087 -0.79047,-0.35081 -1.07802,-0.5998c-0.28416,-0.24529 -0.51032,-0.50816 -0.67847,-0.78862l0.98855,-0.69433c0.11231,0.14726 0.25423,0.31557 0.42609,0.50489c0.17185,0.19283 0.40665,0.35944 0.7047,0.49952c0.30175,0.14378 0.69606,0.21567 1.18324,0.21567c0.65224,0 1.19033,-0.15766 1.61457,-0.4733c0.42424,-0.31551 0.63651,-0.80988 0.63651,-1.48304v-1.64086h-0.10521c-0.09102,0.14726 -0.22091,0.32958 -0.38906,0.54694c-0.16476,0.21387 -0.40325,0.40495 -0.71519,0.57326c-0.30854,0.16479 -0.72598,0.24717 -1.25173,0.24717c-0.65224,0 -1.23785,-0.15426 -1.75649,-0.4628c-0.51556,-0.30854 -0.92406,-0.7573 -1.22551,-1.34633c-0.29805,-0.58903 -0.44707,-1.30427 -0.44707,-2.14574c0,-0.82743 0.14563,-1.54792 0.43658,-2.16151c0.29095,-0.61707 0.69606,-1.09388 1.2147,-1.43046c0.51896,-0.3401 1.11844,-0.51013 1.79876,-0.51013c0.52574,0 0.9432,0.08765 1.25173,0.26293c0.31193,0.17183 0.55043,0.36815 0.71519,0.58903c0.16815,0.2174 0.29805,0.39619 0.38906,0.53645h0.12619v-1.28323h1.19928v8.30942c0,0.69421 -0.15797,1.25867 -0.4733,1.69355c-0.31224,0.43812 -0.73278,0.759 -1.26222,0.96232c-0.52606,0.20672 -1.11165,0.31039 -1.7568,0.31039zM188.47026,191.74535c0.49798,0 0.91851,-0.11394 1.26222,-0.34186c0.34371,-0.22789 0.60473,-0.5557 0.78368,-0.98346c0.17864,-0.42772 0.26812,-0.93961 0.26812,-1.53568c0,-0.58199 -0.08763,-1.09564 -0.26288,-1.54092c-0.17525,-0.44528 -0.43473,-0.79411 -0.77844,-1.04655c-0.3434,-0.25244 -0.76763,-0.37866 -1.27271,-0.37866c-0.52574,0 -0.96418,0.13322 -1.31467,0.39971c-0.3471,0.26645 -0.60843,0.62407 -0.78368,1.07284c-0.17185,0.4488 -0.25763,0.94665 -0.25763,1.49359c0,0.56098 0.08763,1.0571 0.26288,1.48835c0.17895,0.42775 0.44182,0.76433 0.78893,1.00975c0.35049,0.24192 0.78522,0.3629 1.30418,0.3629zM195.51752,188.12706v4.85944h-1.24124v-10.7707h1.24124v3.95487h0.10521c0.18944,-0.41723 0.4733,-0.74854 0.85187,-0.99398c0.38227,-0.24893 0.89074,-0.37339 1.52509,-0.37339c0.55074,0 1.03267,0.11043 1.44642,0.3313c0.41374,0.2174 0.73463,0.55221 0.96232,1.0045c0.2314,0.4488 0.3471,1.02026 0.3471,1.71447v5.13292h-1.24093v-5.04876c0,-0.64163 -0.16661,-1.13773 -0.49983,-1.48835c-0.32952,-0.35411 -0.78707,-0.53117 -1.37268,-0.53117c-0.40665,0 -0.77134,0.0859 -1.09376,0.25769c-0.31903,0.17183 -0.5714,0.42251 -0.75746,0.75206c-0.18204,0.32958 -0.27337,0.72929 -0.27337,1.19909zM206.53935,184.90847v1.05183h-4.18621v-1.05183zM203.57308,182.97313h1.24124v7.69935c0,0.35062 0.05091,0.61356 0.15241,0.78886c0.10521,0.17179 0.2385,0.28749 0.39986,0.3471c0.16476,0.05609 0.33847,0.08414 0.5205,0.08414c0.13699,0 0.24899,-0.007 0.33661,-0.02101c0.08763,-0.01755 0.15797,-0.03157 0.21042,-0.04208l0.25238,1.11493c-0.08392,0.03157 -0.20147,0.06312 -0.35235,0.09469c-0.15056,0.03505 -0.34186,0.05257 -0.57326,0.05257c-0.35049,0 -0.69421,-0.07537 -1.03082,-0.22612c-0.33291,-0.15078 -0.60997,-0.38042 -0.83088,-0.68896c-0.21721,-0.30854 -0.32612,-0.69772 -0.32612,-1.16753zM210.02611,189.95723v-0.0631c0.0071,-0.66968 0.07714,-1.20261 0.21042,-1.59877c0.13329,-0.39619 0.32242,-0.717 0.56801,-0.96245c0.24529,-0.24541 0.53994,-0.47156 0.88364,-0.67841c0.20672,-0.12622 0.39246,-0.27524 0.55721,-0.44704c0.16476,-0.17531 0.29465,-0.37691 0.38937,-0.60479c0.09811,-0.22791 0.14717,-0.48033 0.14717,-0.75733c0,-0.34358 -0.08053,-0.6416 -0.24189,-0.89404c-0.16136,-0.25244 -0.37703,-0.44704 -0.647,-0.58375c-0.26997,-0.13675 -0.56955,-0.20512 -0.89908,-0.20512c-0.28756,0 -0.56462,0.05961 -0.8312,0.17879c-0.26627,0.11922 -0.48903,0.30681 -0.66767,0.56274c-0.17895,0.25593 -0.28231,0.59078 -0.31039,1.0045h-1.32547c0.02808,-0.59603 0.18234,-1.10616 0.4628,-1.5304c0.28416,-0.42424 0.65749,-0.74857 1.12029,-0.97297c0.4665,-0.22437 0.98361,-0.33658 1.55162,-0.33658c0.61707,0 1.15331,0.12273 1.60901,0.36815c0.45941,0.24544 0.81361,0.58202 1.0626,1.00975c0.25238,0.42775 0.37857,0.91512 0.37857,1.46206c0,0.38567 -0.05955,0.73453 -0.17895,1.04655c-0.1157,0.31205 -0.28385,0.59078 -0.50477,0.83622c-0.21752,0.24541 -0.48039,0.4628 -0.78893,0.65212c-0.30854,0.19283 -0.55567,0.39619 -0.74141,0.61007c-0.18574,0.21036 -0.32088,0.46105 -0.4051,0.75206c-0.08392,0.29098 -0.12958,0.65388 -0.13668,1.08864v0.0631zM210.69933,193.07064c-0.25948,0 -0.48194,-0.0929 -0.66798,-0.27873c-0.18574,-0.18583 -0.27861,-0.40844 -0.27861,-0.66792c0,-0.25945 0.09287,-0.48209 0.27861,-0.66789c0.18605,-0.18583 0.4085,-0.27873 0.66798,-0.27873c0.25948,0 0.48224,0.0929 0.66798,0.27873c0.18574,0.1858 0.27861,0.40844 0.27861,0.66789c0,0.17183 -0.04381,0.32958 -0.13143,0.47332c-0.08423,0.14375 -0.19808,0.25945 -0.34186,0.3471c-0.14007,0.08417 -0.29805,0.12622 -0.4733,0.12622z"/></g></g></svg>