<svg xmlns="http://www.w3.org/2000/svg" fill="none" viewBox="0 0 163 28" height="28" width="163">
<path fill="white" d="M7.92614 27L0.767045 0.818181H3.98864L9.46023 22.142H9.71591L15.2898 0.818181H18.8693L24.4432 22.142H24.6989L30.1705 0.818181H33.392L26.233 27H22.9602L17.1818 6.13636H16.9773L11.1989 27H7.92614ZM43.3381 27.4091C41.446 27.4091 39.8139 26.9915 38.4418 26.1562C37.0781 25.3125 36.0256 24.1364 35.2841 22.6278C34.5511 21.1108 34.1847 19.3466 34.1847 17.3352C34.1847 15.3239 34.5511 13.5511 35.2841 12.017C36.0256 10.4744 37.0568 9.27273 38.3778 8.41193C39.7074 7.54261 41.2585 7.10795 43.0312 7.10795C44.054 7.10795 45.0639 7.27841 46.0611 7.61932C47.0582 7.96023 47.9659 8.5142 48.7841 9.28125C49.6023 10.0398 50.2543 11.0455 50.7401 12.2983C51.2259 13.5511 51.4688 15.0937 51.4688 16.9261V18.2045H36.3324V15.5966H48.4006C48.4006 14.4886 48.179 13.5 47.7358 12.6307C47.3011 11.7614 46.679 11.0753 45.8693 10.5724C45.0682 10.0696 44.1222 9.81818 43.0312 9.81818C41.8295 9.81818 40.7898 10.1165 39.9119 10.7131C39.0426 11.3011 38.3736 12.0682 37.9048 13.0142C37.4361 13.9602 37.2017 14.9744 37.2017 16.0568V17.7955C37.2017 19.2784 37.4574 20.5355 37.9688 21.5668C38.4886 22.5895 39.2088 23.3693 40.1293 23.9062C41.0497 24.4347 42.1193 24.6989 43.3381 24.6989C44.1307 24.6989 44.8466 24.5881 45.4858 24.3665C46.1335 24.1364 46.6918 23.7955 47.1605 23.3438C47.6293 22.8835 47.9915 22.3125 48.2472 21.6307L51.1619 22.4489C50.8551 23.4375 50.3395 24.3068 49.6151 25.0568C48.8906 25.7983 47.9957 26.3778 46.9304 26.7955C45.8651 27.2045 44.6676 27.4091 43.3381 27.4091ZM59.0753 0.818181V27H56.0582V0.818181H59.0753ZM72.5785 27.4091C70.7376 27.4091 69.1523 26.9744 67.8228 26.1051C66.4933 25.2358 65.4705 24.0384 64.7546 22.5128C64.0387 20.9872 63.6808 19.2443 63.6808 17.2841C63.6808 15.2898 64.0472 13.5298 64.7802 12.0043C65.5217 10.4702 66.5529 9.27273 67.8739 8.41193C69.2035 7.54261 70.7546 7.10795 72.5273 7.10795C73.908 7.10795 75.1523 7.36364 76.2603 7.875C77.3683 8.38636 78.2759 9.10227 78.9833 10.0227C79.6907 10.9432 80.1296 12.017 80.3001 13.2443H77.283C77.0529 12.3494 76.5415 11.5568 75.7489 10.8665C74.9648 10.1676 73.908 9.81818 72.5785 9.81818C71.4023 9.81818 70.3711 10.125 69.4847 10.7386C68.6069 11.3437 67.9208 12.2003 67.4265 13.3082C66.9407 14.4077 66.6978 15.6989 66.6978 17.1818C66.6978 18.6989 66.9364 20.0199 67.4137 21.1449C67.8995 22.2699 68.5813 23.1435 69.4592 23.7656C70.3455 24.3878 71.3853 24.6989 72.5785 24.6989C73.3626 24.6989 74.0742 24.5625 74.7134 24.2898C75.3526 24.017 75.8938 23.625 76.337 23.1136C76.7802 22.6023 77.0955 21.9886 77.283 21.2727H80.3001C80.1296 22.4318 79.7077 23.4759 79.0344 24.4048C78.3697 25.3253 77.4876 26.0582 76.3881 26.6037C75.2972 27.1406 74.0273 27.4091 72.5785 27.4091ZM92.6879 27.4091C90.9151 27.4091 89.3597 26.9872 88.0217 26.1435C86.6921 25.2997 85.6523 24.1193 84.9023 22.6023C84.1609 21.0852 83.7901 19.3125 83.7901 17.2841C83.7901 15.2386 84.1609 13.4531 84.9023 11.9276C85.6523 10.402 86.6921 9.21733 88.0217 8.37358C89.3597 7.52983 90.9151 7.10795 92.6879 7.10795C94.4606 7.10795 96.0117 7.52983 97.3413 8.37358C98.6793 9.21733 99.7191 10.402 100.461 11.9276C101.211 13.4531 101.586 15.2386 101.586 17.2841C101.586 19.3125 101.211 21.0852 100.461 22.6023C99.7191 24.1193 98.6793 25.2997 97.3413 26.1435C96.0117 26.9872 94.4606 27.4091 92.6879 27.4091ZM92.6879 24.6989C94.0344 24.6989 95.1424 24.3537 96.0117 23.6634C96.881 22.973 97.5245 22.0653 97.9421 20.9403C98.3597 19.8153 98.5685 18.5966 98.5685 17.2841C98.5685 15.9716 98.3597 14.7486 97.9421 13.6151C97.5245 12.4815 96.881 11.5653 96.0117 10.8665C95.1424 10.1676 94.0344 9.81818 92.6879 9.81818C91.3413 9.81818 90.2333 10.1676 89.364 10.8665C88.4947 11.5653 87.8512 12.4815 87.4336 13.6151C87.016 14.7486 86.8072 15.9716 86.8072 17.2841C86.8072 18.5966 87.016 19.8153 87.4336 20.9403C87.8512 22.0653 88.4947 22.973 89.364 23.6634C90.2333 24.3537 91.3413 24.6989 92.6879 24.6989ZM106.191 27V7.36364H109.106V10.4318H109.362C109.771 9.38352 110.431 8.5696 111.343 7.99006C112.255 7.40199 113.35 7.10795 114.629 7.10795C115.924 7.10795 117.002 7.40199 117.863 7.99006C118.732 8.5696 119.41 9.38352 119.896 10.4318H120.1C120.603 9.41761 121.357 8.61222 122.363 8.01562C123.369 7.41051 124.575 7.10795 125.981 7.10795C127.737 7.10795 129.173 7.65767 130.289 8.7571C131.406 9.84801 131.964 11.5483 131.964 13.858V27H128.947V13.858C128.947 12.4091 128.55 11.3736 127.758 10.7514C126.965 10.1293 126.032 9.81818 124.958 9.81818C123.577 9.81818 122.508 10.2358 121.749 11.071C120.991 11.8977 120.612 12.946 120.612 14.2159V27H117.543V13.5511C117.543 12.4347 117.181 11.5355 116.457 10.8537C115.732 10.1634 114.799 9.81818 113.657 9.81818C112.873 9.81818 112.14 10.027 111.458 10.4446C110.785 10.8622 110.239 11.4418 109.822 12.1832C109.413 12.9162 109.208 13.7642 109.208 14.7273V27H106.191ZM145.713 27.4091C143.821 27.4091 142.189 26.9915 140.817 26.1562C139.453 25.3125 138.401 24.1364 137.659 22.6278C136.926 21.1108 136.56 19.3466 136.56 17.3352C136.56 15.3239 136.926 13.5511 137.659 12.017C138.401 10.4744 139.432 9.27273 140.753 8.41193C142.082 7.54261 143.634 7.10795 145.406 7.10795C146.429 7.10795 147.439 7.27841 148.436 7.61932C149.433 7.96023 150.341 8.5142 151.159 9.28125C151.977 10.0398 152.629 11.0455 153.115 12.2983C153.601 13.5511 153.844 15.0937 153.844 16.9261V18.2045H138.707V15.5966H150.776C150.776 14.4886 150.554 13.5 150.111 12.6307C149.676 11.7614 149.054 11.0753 148.244 10.5724C147.443 10.0696 146.497 9.81818 145.406 9.81818C144.205 9.81818 143.165 10.1165 142.287 10.7131C141.418 11.3011 140.749 12.0682 140.28 13.0142C139.811 13.9602 139.577 14.9744 139.577 16.0568V17.7955C139.577 19.2784 139.832 20.5355 140.344 21.5668C140.864 22.5895 141.584 23.3693 142.504 23.9062C143.425 24.4347 144.494 24.6989 145.713 24.6989C146.506 24.6989 147.222 24.5881 147.861 24.3665C148.509 24.1364 149.067 23.7955 149.536 23.3438C150.004 22.8835 150.366 22.3125 150.622 21.6307L153.537 22.4489C153.23 23.4375 152.714 24.3068 151.99 25.0568C151.266 25.7983 150.371 26.3778 149.305 26.7955C148.24 27.2045 147.043 27.4091 145.713 27.4091ZM162.422 0.818181L162.166 19.6364H159.2L158.945 0.818181H162.422ZM160.683 27.2045C160.053 27.2045 159.511 26.9787 159.06 26.527C158.608 26.0753 158.382 25.5341 158.382 24.9034C158.382 24.2727 158.608 23.7315 159.06 23.2798C159.511 22.8281 160.053 22.6023 160.683 22.6023C161.314 22.6023 161.855 22.8281 162.307 23.2798C162.759 23.7315 162.984 24.2727 162.984 24.9034C162.984 25.321 162.878 25.7045 162.665 26.054C162.46 26.4034 162.183 26.6847 161.834 26.8977C161.493 27.1023 161.109 27.2045 160.683 27.2045Z"></path>
</svg>
