<svg xmlns="http://www.w3.org/2000/svg" fill="none" viewBox="0 0 139 164" height="164" width="139">
<path fill="#EEC638" d="M0 20C0 8.95431 8.95431 0 20 0H119C130.046 0 139 8.95431 139 20V144C139 155.046 130.046 164 119 164H20C8.95431 164 0 155.046 0 144V20Z"></path>
<path fill="black" d="M36.2102 135.455V150H34.5341V135.455H36.2102ZM43.854 150.227C42.8029 150.227 41.8962 149.995 41.1339 149.531C40.3763 149.062 39.7915 148.409 39.3796 147.571C38.9724 146.728 38.7688 145.748 38.7688 144.631C38.7688 143.513 38.9724 142.528 39.3796 141.676C39.7915 140.819 40.3645 140.152 41.0984 139.673C41.837 139.19 42.6987 138.949 43.6836 138.949C44.2518 138.949 44.8129 139.044 45.3668 139.233C45.9208 139.422 46.4251 139.73 46.8796 140.156C47.3342 140.578 47.6964 141.136 47.9663 141.832C48.2362 142.528 48.3711 143.385 48.3711 144.403V145.114H39.962V143.665H46.6665C46.6665 143.049 46.5434 142.5 46.2972 142.017C46.0558 141.534 45.7101 141.153 45.2603 140.874C44.8152 140.594 44.2897 140.455 43.6836 140.455C43.016 140.455 42.4383 140.62 41.9506 140.952C41.4677 141.278 41.096 141.705 40.8356 142.23C40.5752 142.756 40.445 143.319 40.445 143.92V144.886C40.445 145.71 40.587 146.409 40.8711 146.982C41.1599 147.55 41.56 147.983 42.0714 148.281C42.5827 148.575 43.177 148.722 43.854 148.722C44.2944 148.722 44.6921 148.66 45.0472 148.537C45.4071 148.409 45.7172 148.22 45.9776 147.969C46.238 147.713 46.4393 147.396 46.5813 147.017L48.2006 147.472C48.0302 148.021 47.7437 148.504 47.3413 148.92C46.9388 149.332 46.4416 149.654 45.8498 149.886C45.2579 150.114 44.5927 150.227 43.854 150.227ZM55.6651 139.091V140.511H50.0117V139.091H55.6651ZM51.6594 136.477H53.3356V146.875C53.3356 147.348 53.4042 147.704 53.5415 147.94C53.6836 148.172 53.8635 148.329 54.0813 148.409C54.3039 148.485 54.5382 148.523 54.7844 148.523C54.9691 148.523 55.1206 148.513 55.239 148.494C55.3574 148.471 55.4521 148.452 55.5231 148.438L55.864 149.943C55.7504 149.986 55.5917 150.028 55.3881 150.071C55.1845 150.118 54.9265 150.142 54.614 150.142C54.1405 150.142 53.6765 150.04 53.2219 149.837C52.7721 149.633 52.3981 149.323 52.0998 148.906C51.8062 148.49 51.6594 147.964 51.6594 147.33V136.477ZM62.9308 139.091V140.511H57.2773V139.091H62.9308ZM58.9251 136.477H60.6012V146.875C60.6012 147.348 60.6699 147.704 60.8072 147.94C60.9492 148.172 61.1291 148.329 61.3469 148.409C61.5695 148.485 61.8039 148.523 62.0501 148.523C62.2347 148.523 62.3862 148.513 62.5046 148.494C62.623 148.471 62.7177 148.452 62.7887 148.438L63.1296 149.943C63.016 149.986 62.8574 150.028 62.6538 150.071C62.4502 150.118 62.1921 150.142 61.8796 150.142C61.4061 150.142 60.9421 150.04 60.4876 149.837C60.0378 149.633 59.6637 149.323 59.3654 148.906C59.0719 148.49 58.9251 147.964 58.9251 147.33V136.477ZM69.9087 150.227C68.8576 150.227 67.9509 149.995 67.1886 149.531C66.431 149.062 65.8462 148.409 65.4343 147.571C65.0271 146.728 64.8235 145.748 64.8235 144.631C64.8235 143.513 65.0271 142.528 65.4343 141.676C65.8462 140.819 66.4192 140.152 67.1531 139.673C67.8917 139.19 68.7534 138.949 69.7383 138.949C70.3065 138.949 70.8675 139.044 71.4215 139.233C71.9755 139.422 72.4798 139.73 72.9343 140.156C73.3888 140.578 73.7511 141.136 74.021 141.832C74.2908 142.528 74.4258 143.385 74.4258 144.403V145.114H66.0167V143.665H72.7212C72.7212 143.049 72.5981 142.5 72.3519 142.017C72.1104 141.534 71.7648 141.153 71.315 140.874C70.8699 140.594 70.3443 140.455 69.7383 140.455C69.0707 140.455 68.493 140.62 68.0053 140.952C67.5224 141.278 67.1507 141.705 66.8903 142.23C66.6299 142.756 66.4996 143.319 66.4996 143.92V144.886C66.4996 145.71 66.6417 146.409 66.9258 146.982C67.2146 147.55 67.6147 147.983 68.1261 148.281C68.6374 148.575 69.2317 148.722 69.9087 148.722C70.3491 148.722 70.7468 148.66 71.1019 148.537C71.4618 148.409 71.7719 148.22 72.0323 147.969C72.2927 147.713 72.494 147.396 72.636 147.017L74.2553 147.472C74.0849 148.021 73.7984 148.504 73.396 148.92C72.9935 149.332 72.4963 149.654 71.9045 149.886C71.3126 150.114 70.6474 150.227 69.9087 150.227ZM76.9755 150V139.091H78.5948V140.739H78.7085C78.9073 140.199 79.2672 139.761 79.788 139.425C80.3088 139.089 80.896 138.92 81.5494 138.92C81.6725 138.92 81.8263 138.923 82.011 138.928C82.1957 138.932 82.3353 138.939 82.43 138.949V140.653C82.3732 140.639 82.243 140.618 82.0394 140.589C81.8406 140.556 81.6299 140.54 81.4073 140.54C80.877 140.54 80.4035 140.651 79.9869 140.874C79.5749 141.091 79.2482 141.394 79.0067 141.783C78.77 142.166 78.6516 142.604 78.6516 143.097V150H76.9755ZM94.7578 150H90.2692V135.455H94.9567C96.3677 135.455 97.575 135.746 98.5788 136.328C99.5826 136.906 100.352 137.737 100.887 138.821C101.422 139.901 101.69 141.193 101.69 142.699C101.69 144.214 101.42 145.518 100.88 146.612C100.34 147.701 99.5542 148.539 98.522 149.126C97.4898 149.709 96.2351 150 94.7578 150ZM92.0305 148.438H94.6442C95.8468 148.438 96.8435 148.205 97.6342 147.741C98.425 147.277 99.0144 146.617 99.4027 145.76C99.791 144.903 99.9851 143.883 99.9851 142.699C99.9851 141.525 99.7933 140.514 99.4098 139.666C99.0263 138.814 98.4534 138.161 97.6911 137.706C96.9287 137.247 95.9794 137.017 94.843 137.017H92.0305V148.438Z"></path>
<path fill="black" d="M57.7399 58.6364C57.612 57.5568 57.0936 56.7188 56.1845 56.1222C55.2754 55.5256 54.1603 55.2273 52.8393 55.2273C51.8734 55.2273 51.0282 55.3835 50.3038 55.696C49.5865 56.0085 49.0254 56.4382 48.6206 56.9851C48.2228 57.532 48.024 58.1534 48.024 58.8494C48.024 59.4318 48.1625 59.9325 48.4395 60.3516C48.7235 60.7635 49.0858 61.108 49.5261 61.3849C49.9664 61.6548 50.4281 61.8786 50.911 62.0561C51.394 62.2266 51.8379 62.3651 52.2427 62.4716L54.4586 63.0682C55.0268 63.2173 55.6589 63.4233 56.3549 63.6861C57.0581 63.9489 57.7292 64.3075 58.3684 64.7621C59.0147 65.2095 59.5474 65.7848 59.9664 66.4879C60.3855 67.1911 60.595 68.054 60.595 69.0767C60.595 70.2557 60.286 71.321 59.6681 72.2727C59.0574 73.2244 58.1625 73.9808 56.9835 74.5419C55.8116 75.103 54.3876 75.3835 52.7115 75.3835C51.149 75.3835 49.796 75.1314 48.6525 74.6271C47.5162 74.1229 46.6213 73.4197 45.9679 72.5178C45.3216 71.6158 44.9558 70.5682 44.8706 69.375H47.5978C47.6689 70.1989 47.9458 70.8807 48.4288 71.4205C48.9189 71.9531 49.5368 72.3509 50.2825 72.6136C51.0353 72.8693 51.845 72.9972 52.7115 72.9972C53.72 72.9972 54.6255 72.8338 55.4281 72.5071C56.2306 72.1733 56.8663 71.7116 57.3351 71.1222C57.8038 70.5256 58.0382 69.8295 58.0382 69.0341C58.0382 68.3097 57.8358 67.7202 57.4309 67.2656C57.0261 66.8111 56.4934 66.4418 55.8329 66.1577C55.1724 65.8736 54.4586 65.625 53.6916 65.4119L51.0069 64.6449C49.3024 64.1548 47.9529 63.4553 46.9586 62.5462C45.9643 61.6371 45.4672 60.4474 45.4672 58.9773C45.4672 57.7557 45.7974 56.6903 46.4579 55.7812C47.1255 54.8651 48.0204 54.1548 49.1426 53.6506C50.2718 53.1392 51.5325 52.8835 52.9245 52.8835C54.3308 52.8835 55.5808 53.1357 56.6745 53.6399C57.7683 54.1371 58.6348 54.8189 59.274 55.6854C59.9203 56.5518 60.2612 57.5355 60.2967 58.6364H57.7399ZM69.4134 75.3835C68.3764 75.3835 67.4354 75.1882 66.5902 74.7976C65.745 74.3999 65.0739 73.8281 64.5767 73.0824C64.0795 72.3295 63.831 71.4205 63.831 70.3551C63.831 69.4176 64.0156 68.6577 64.3849 68.0753C64.7543 67.4858 65.2479 67.0241 65.8658 66.6903C66.4837 66.3565 67.1655 66.108 67.9112 65.9446C68.6641 65.7741 69.4205 65.6392 70.1804 65.5398C71.1747 65.4119 71.9808 65.3161 72.5987 65.2521C73.2237 65.1811 73.6783 65.0639 73.9624 64.9006C74.2536 64.7372 74.3991 64.4531 74.3991 64.0483V63.9631C74.3991 62.9119 74.1115 62.0952 73.5362 61.5128C72.968 60.9304 72.1051 60.6392 70.9474 60.6392C69.7472 60.6392 68.8061 60.902 68.1243 61.4276C67.4425 61.9531 66.9631 62.5142 66.6861 63.1108L64.2997 62.2585C64.7259 61.2642 65.294 60.4901 66.0043 59.9361C66.7216 59.375 67.5028 58.9844 68.348 58.7642C69.2003 58.5369 70.0384 58.4233 70.8622 58.4233C71.3878 58.4233 71.9915 58.4872 72.6733 58.6151C73.3622 58.7358 74.0263 58.9879 74.6655 59.3714C75.3118 59.755 75.848 60.3338 76.2741 61.108C76.7003 61.8821 76.9134 62.919 76.9134 64.2188V75H74.3991V72.7841H74.2713C74.1009 73.1392 73.8168 73.5192 73.419 73.924C73.0213 74.3288 72.4922 74.6733 71.8317 74.9574C71.1712 75.2415 70.3651 75.3835 69.4134 75.3835ZM69.7969 73.125C70.7912 73.125 71.6293 72.9297 72.3111 72.5391C73 72.1484 73.5185 71.6442 73.8665 71.0263C74.2216 70.4084 74.3991 69.7585 74.3991 69.0767V66.7756C74.2926 66.9034 74.0582 67.0206 73.696 67.1271C73.3409 67.2266 72.929 67.3153 72.4602 67.3935C71.9986 67.4645 71.5476 67.5284 71.1072 67.5852C70.674 67.6349 70.3224 67.6776 70.0526 67.7131C69.3991 67.7983 68.7884 67.9368 68.2202 68.1286C67.6591 68.3132 67.2045 68.5937 66.8565 68.9702C66.5156 69.3395 66.3452 69.8437 66.3452 70.483C66.3452 71.3565 66.6683 72.017 67.3146 72.4645C67.968 72.9048 68.7955 73.125 69.7969 73.125ZM87.6813 75.3409C86.3176 75.3409 85.1138 74.9964 84.0698 74.3075C83.0257 73.6115 82.209 72.6314 81.6195 71.3672C81.03 70.0959 80.7353 68.5938 80.7353 66.8608C80.7353 65.142 81.03 63.6506 81.6195 62.3864C82.209 61.1222 83.0293 60.1456 84.0804 59.4567C85.1316 58.7678 86.3461 58.4233 87.7239 58.4233C88.7892 58.4233 89.6309 58.6009 90.2488 58.956C90.8738 59.304 91.3496 59.7017 91.6763 60.1491C92.0101 60.5895 92.2694 60.9517 92.454 61.2358H92.6671V53.1818H95.1813V75H92.7523V72.4858H92.454C92.2694 72.7841 92.0066 73.1605 91.6657 73.6151C91.3248 74.0625 90.8382 74.4638 90.2061 74.8189C89.574 75.1669 88.7324 75.3409 87.6813 75.3409ZM88.0222 73.0824C89.0307 73.0824 89.883 72.8196 90.579 72.294C91.275 71.7614 91.8042 71.0263 92.1664 70.0888C92.5286 69.1442 92.7097 68.054 92.7097 66.8182C92.7097 65.5966 92.5321 64.5277 92.177 63.6115C91.8219 62.6882 91.2963 61.9709 90.6003 61.4595C89.9043 60.9411 89.0449 60.6818 88.0222 60.6818C86.9569 60.6818 86.0691 60.9553 85.3588 61.5021C84.6557 62.0419 84.1266 62.777 83.7715 63.7074C83.4235 64.6307 83.2495 65.6676 83.2495 66.8182C83.2495 67.983 83.427 69.0412 83.7821 69.9929C84.1444 70.9375 84.677 71.6903 85.3801 72.2514C86.0904 72.8054 86.9711 73.0824 88.0222 73.0824Z"></path>
</svg>
