<svg xmlns="http://www.w3.org/2000/svg" fill="none" viewBox="0 0 139 164" height="164" width="139">
<path fill="#43D059" d="M0 20C0 8.95431 8.95431 0 20 0H119C130.046 0 139 8.95431 139 20V144C139 155.046 130.046 164 119 164H20C8.95431 164 0 155.046 0 144V20Z"></path>
<path fill="black" d="M36.2102 135.455V150H34.5341V135.455H36.2102ZM43.854 150.227C42.8029 150.227 41.8962 149.995 41.1339 149.531C40.3763 149.062 39.7915 148.409 39.3796 147.571C38.9724 146.728 38.7688 145.748 38.7688 144.631C38.7688 143.513 38.9724 142.528 39.3796 141.676C39.7915 140.819 40.3645 140.152 41.0984 139.673C41.837 139.19 42.6987 138.949 43.6836 138.949C44.2518 138.949 44.8129 139.044 45.3668 139.233C45.9208 139.422 46.4251 139.73 46.8796 140.156C47.3342 140.578 47.6964 141.136 47.9663 141.832C48.2362 142.528 48.3711 143.385 48.3711 144.403V145.114H39.962V143.665H46.6665C46.6665 143.049 46.5434 142.5 46.2972 142.017C46.0558 141.534 45.7101 141.153 45.2603 140.874C44.8152 140.594 44.2897 140.455 43.6836 140.455C43.016 140.455 42.4383 140.62 41.9506 140.952C41.4677 141.278 41.096 141.705 40.8356 142.23C40.5752 142.756 40.445 143.319 40.445 143.92V144.886C40.445 145.71 40.587 146.409 40.8711 146.982C41.1599 147.55 41.56 147.983 42.0714 148.281C42.5827 148.575 43.177 148.722 43.854 148.722C44.2944 148.722 44.6921 148.66 45.0472 148.537C45.4071 148.409 45.7172 148.22 45.9776 147.969C46.238 147.713 46.4393 147.396 46.5813 147.017L48.2006 147.472C48.0302 148.021 47.7437 148.504 47.3413 148.92C46.9388 149.332 46.4416 149.654 45.8498 149.886C45.2579 150.114 44.5927 150.227 43.854 150.227ZM55.6651 139.091V140.511H50.0117V139.091H55.6651ZM51.6594 136.477H53.3356V146.875C53.3356 147.348 53.4042 147.704 53.5415 147.94C53.6836 148.172 53.8635 148.329 54.0813 148.409C54.3039 148.485 54.5382 148.523 54.7844 148.523C54.9691 148.523 55.1206 148.513 55.239 148.494C55.3574 148.471 55.4521 148.452 55.5231 148.438L55.864 149.943C55.7504 149.986 55.5917 150.028 55.3881 150.071C55.1845 150.118 54.9265 150.142 54.614 150.142C54.1405 150.142 53.6765 150.04 53.2219 149.837C52.7721 149.633 52.3981 149.323 52.0998 148.906C51.8062 148.49 51.6594 147.964 51.6594 147.33V136.477ZM62.9308 139.091V140.511H57.2773V139.091H62.9308ZM58.9251 136.477H60.6012V146.875C60.6012 147.348 60.6699 147.704 60.8072 147.94C60.9492 148.172 61.1291 148.329 61.3469 148.409C61.5695 148.485 61.8039 148.523 62.0501 148.523C62.2347 148.523 62.3862 148.513 62.5046 148.494C62.623 148.471 62.7177 148.452 62.7887 148.438L63.1296 149.943C63.016 149.986 62.8574 150.028 62.6538 150.071C62.4502 150.118 62.1921 150.142 61.8796 150.142C61.4061 150.142 60.9421 150.04 60.4876 149.837C60.0378 149.633 59.6637 149.323 59.3654 148.906C59.0719 148.49 58.9251 147.964 58.9251 147.33V136.477ZM69.9087 150.227C68.8576 150.227 67.9509 149.995 67.1886 149.531C66.431 149.062 65.8462 148.409 65.4343 147.571C65.0271 146.728 64.8235 145.748 64.8235 144.631C64.8235 143.513 65.0271 142.528 65.4343 141.676C65.8462 140.819 66.4192 140.152 67.1531 139.673C67.8917 139.19 68.7534 138.949 69.7383 138.949C70.3065 138.949 70.8675 139.044 71.4215 139.233C71.9755 139.422 72.4798 139.73 72.9343 140.156C73.3888 140.578 73.7511 141.136 74.021 141.832C74.2908 142.528 74.4258 143.385 74.4258 144.403V145.114H66.0167V143.665H72.7212C72.7212 143.049 72.5981 142.5 72.3519 142.017C72.1104 141.534 71.7648 141.153 71.315 140.874C70.8699 140.594 70.3443 140.455 69.7383 140.455C69.0707 140.455 68.493 140.62 68.0053 140.952C67.5224 141.278 67.1507 141.705 66.8903 142.23C66.6299 142.756 66.4996 143.319 66.4996 143.92V144.886C66.4996 145.71 66.6417 146.409 66.9258 146.982C67.2146 147.55 67.6147 147.983 68.1261 148.281C68.6374 148.575 69.2317 148.722 69.9087 148.722C70.3491 148.722 70.7468 148.66 71.1019 148.537C71.4618 148.409 71.7719 148.22 72.0323 147.969C72.2927 147.713 72.494 147.396 72.636 147.017L74.2553 147.472C74.0849 148.021 73.7984 148.504 73.396 148.92C72.9935 149.332 72.4963 149.654 71.9045 149.886C71.3126 150.114 70.6474 150.227 69.9087 150.227ZM76.9755 150V139.091H78.5948V140.739H78.7085C78.9073 140.199 79.2672 139.761 79.788 139.425C80.3088 139.089 80.896 138.92 81.5494 138.92C81.6725 138.92 81.8263 138.923 82.011 138.928C82.1957 138.932 82.3353 138.939 82.43 138.949V140.653C82.3732 140.639 82.243 140.618 82.0394 140.589C81.8406 140.556 81.6299 140.54 81.4073 140.54C80.877 140.54 80.4035 140.651 79.9869 140.874C79.5749 141.091 79.2482 141.394 79.0067 141.783C78.77 142.166 78.6516 142.604 78.6516 143.097V150H76.9755ZM90.2692 150V135.455H95.3544C96.3677 135.455 97.2034 135.63 97.8615 135.98C98.5197 136.326 99.0097 136.792 99.3317 137.379C99.6536 137.962 99.8146 138.608 99.8146 139.318C99.8146 139.943 99.7034 140.459 99.4808 140.866C99.263 141.274 98.9742 141.596 98.6143 141.832C98.2592 142.069 97.8733 142.244 97.4567 142.358V142.5C97.9018 142.528 98.3492 142.685 98.799 142.969C99.2488 143.253 99.6252 143.66 99.9283 144.19C100.231 144.721 100.383 145.369 100.383 146.136C100.383 146.866 100.217 147.521 99.8857 148.104C99.5542 148.686 99.031 149.148 98.3161 149.489C97.6011 149.83 96.6707 150 95.5249 150H90.2692ZM92.0305 148.438H95.5249C96.6754 148.438 97.4922 148.215 97.9751 147.77C98.4628 147.32 98.7067 146.776 98.7067 146.136C98.7067 145.644 98.5812 145.189 98.3303 144.773C98.0793 144.351 97.7218 144.015 97.2578 143.764C96.7938 143.509 96.2446 143.381 95.6101 143.381H92.0305V148.438ZM92.0305 141.847H95.2976C95.8279 141.847 96.3061 141.742 96.7322 141.534C97.1631 141.326 97.504 141.032 97.755 140.653C98.0107 140.275 98.1385 139.83 98.1385 139.318C98.1385 138.679 97.916 138.137 97.4709 137.692C97.0258 137.242 96.3203 137.017 95.3544 137.017H92.0305V141.847Z"></path>
<path fill="black" d="M37.9272 60.1818H41.0806L48.4954 78.2926H48.7511L56.1658 60.1818H59.3192V82H56.8477V65.4233H56.6346L49.8164 82H47.43L40.6119 65.4233H40.3988V82H37.9272V60.1818ZM69.0911 82.3835C68.0542 82.3835 67.1131 82.1882 66.2679 81.7976C65.4228 81.3999 64.7516 80.8281 64.2544 80.0824C63.7573 79.3295 63.5087 78.4205 63.5087 77.3551C63.5087 76.4176 63.6934 75.6577 64.0627 75.0753C64.432 74.4858 64.9256 74.0241 65.5435 73.6903C66.1614 73.3565 66.8432 73.108 67.589 72.9446C68.3418 72.7741 69.0982 72.6392 69.8581 72.5398C70.8525 72.4119 71.6586 72.3161 72.2765 72.2521C72.9015 72.1811 73.356 72.0639 73.6401 71.9006C73.9313 71.7372 74.0769 71.4531 74.0769 71.0483V70.9631C74.0769 69.9119 73.7892 69.0952 73.214 68.5128C72.6458 67.9304 71.7828 67.6392 70.6252 67.6392C69.4249 67.6392 68.4838 67.902 67.802 68.4276C67.1202 68.9531 66.6408 69.5142 66.3638 70.1108L63.9775 69.2585C64.4036 68.2642 64.9718 67.4901 65.682 66.9361C66.3993 66.375 67.1806 65.9844 68.0257 65.7642C68.878 65.5369 69.7161 65.4233 70.54 65.4233C71.0655 65.4233 71.6692 65.4872 72.351 65.6151C73.04 65.7358 73.704 65.9879 74.3432 66.3714C74.9895 66.755 75.5257 67.3338 75.9519 68.108C76.378 68.8821 76.5911 69.919 76.5911 71.2188V82H74.0769V79.7841H73.949C73.7786 80.1392 73.4945 80.5192 73.0968 80.924C72.699 81.3288 72.1699 81.6733 71.5094 81.9574C70.8489 82.2415 70.0428 82.3835 69.0911 82.3835ZM69.4746 80.125C70.4689 80.125 71.307 79.9297 71.9888 79.5391C72.6777 79.1484 73.1962 78.6442 73.5442 78.0263C73.8993 77.4084 74.0769 76.7585 74.0769 76.0767V73.7756C73.9703 73.9034 73.736 74.0206 73.3738 74.1271C73.0186 74.2266 72.6067 74.3153 72.138 74.3935C71.6763 74.4645 71.2253 74.5284 70.785 74.5852C70.3517 74.6349 70.0002 74.6776 69.7303 74.7131C69.0769 74.7983 68.4661 74.9368 67.8979 75.1286C67.3368 75.3132 66.8823 75.5937 66.5343 75.9702C66.1934 76.3395 66.0229 76.8437 66.0229 77.483C66.0229 78.3565 66.3461 79.017 66.9924 79.4645C67.6458 79.9048 68.4732 80.125 69.4746 80.125ZM81.18 82V65.6364H83.609V68.108H83.7795C84.0778 67.2983 84.6175 66.6413 85.3988 66.1371C86.18 65.6328 87.0607 65.3807 88.0408 65.3807C88.2255 65.3807 88.4563 65.3842 88.7333 65.3913C89.0103 65.3984 89.2198 65.4091 89.3619 65.4233V67.9801C89.2766 67.9588 89.0813 67.9268 88.7759 67.8842C88.4776 67.8345 88.1616 67.8097 87.8278 67.8097C87.0323 67.8097 86.3221 67.9766 85.6971 68.3104C85.0792 68.6371 84.5891 69.0916 84.2269 69.674C83.8718 70.2493 83.6942 70.9062 83.6942 71.6449V82H81.18ZM103.933 69.3011L101.675 69.9403C101.532 69.5639 101.323 69.1982 101.046 68.843C100.776 68.4808 100.407 68.1825 99.938 67.9482C99.4693 67.7138 98.8691 67.5966 98.1376 67.5966C97.1362 67.5966 96.3017 67.8274 95.6341 68.2891C94.9735 68.7436 94.6433 69.3224 94.6433 70.0256C94.6433 70.6506 94.8706 71.1442 95.3251 71.5064C95.7797 71.8686 96.4899 72.1705 97.4558 72.4119L99.8848 73.0085C101.348 73.3636 102.438 73.907 103.155 74.6385C103.873 75.3629 104.231 76.2969 104.231 77.4403C104.231 78.3778 103.961 79.2159 103.422 79.9545C102.889 80.6932 102.143 81.2756 101.184 81.7017C100.226 82.1278 99.1106 82.3409 97.8393 82.3409C96.1703 82.3409 94.7889 81.9787 93.6951 81.2543C92.6014 80.5298 91.9089 79.4716 91.6177 78.0795L94.0041 77.483C94.2314 78.3636 94.661 79.0241 95.2931 79.4645C95.9324 79.9048 96.7669 80.125 97.7967 80.125C98.9686 80.125 99.899 79.8764 100.588 79.3793C101.284 78.875 101.632 78.2713 101.632 77.5682C101.632 77 101.433 76.5241 101.035 76.1406C100.638 75.75 100.027 75.4588 99.2029 75.267L96.4757 74.6278C94.9771 74.2727 93.8762 73.7223 93.1731 72.9766C92.4771 72.2237 92.1291 71.2827 92.1291 70.1534C92.1291 69.2301 92.3883 68.4134 92.9068 67.7031C93.4324 66.9929 94.1461 66.4354 95.0481 66.0305C95.9572 65.6257 96.987 65.4233 98.1376 65.4233C99.7569 65.4233 101.028 65.7784 101.952 66.4886C102.882 67.1989 103.542 68.1364 103.933 69.3011Z"></path>
</svg>
