<svg xmlns="http://www.w3.org/2000/svg" fill="none" viewBox="0 0 139 164" height="164" width="139">
<path fill="#43D059" d="M0 20C0 8.95431 8.95431 0 20 0H119C130.046 0 139 8.95431 139 20V144C139 155.046 130.046 164 119 164H20C8.95431 164 0 155.046 0 144V20Z"></path>
<path fill="black" d="M36.2102 135.455V150H34.5341V135.455H36.2102ZM43.854 150.227C42.8029 150.227 41.8962 149.995 41.1339 149.531C40.3763 149.062 39.7915 148.409 39.3796 147.571C38.9724 146.728 38.7688 145.748 38.7688 144.631C38.7688 143.513 38.9724 142.528 39.3796 141.676C39.7915 140.819 40.3645 140.152 41.0984 139.673C41.837 139.19 42.6987 138.949 43.6836 138.949C44.2518 138.949 44.8129 139.044 45.3668 139.233C45.9208 139.422 46.4251 139.73 46.8796 140.156C47.3342 140.578 47.6964 141.136 47.9663 141.832C48.2362 142.528 48.3711 143.385 48.3711 144.403V145.114H39.962V143.665H46.6665C46.6665 143.049 46.5434 142.5 46.2972 142.017C46.0558 141.534 45.7101 141.153 45.2603 140.874C44.8152 140.594 44.2897 140.455 43.6836 140.455C43.016 140.455 42.4383 140.62 41.9506 140.952C41.4677 141.278 41.096 141.705 40.8356 142.23C40.5752 142.756 40.445 143.319 40.445 143.92V144.886C40.445 145.71 40.587 146.409 40.8711 146.982C41.1599 147.55 41.56 147.983 42.0714 148.281C42.5827 148.575 43.177 148.722 43.854 148.722C44.2944 148.722 44.6921 148.66 45.0472 148.537C45.4071 148.409 45.7172 148.22 45.9776 147.969C46.238 147.713 46.4393 147.396 46.5813 147.017L48.2006 147.472C48.0302 148.021 47.7437 148.504 47.3413 148.92C46.9388 149.332 46.4416 149.654 45.8498 149.886C45.2579 150.114 44.5927 150.227 43.854 150.227ZM55.6651 139.091V140.511H50.0117V139.091H55.6651ZM51.6594 136.477H53.3356V146.875C53.3356 147.348 53.4042 147.704 53.5415 147.94C53.6836 148.172 53.8635 148.329 54.0813 148.409C54.3039 148.485 54.5382 148.523 54.7844 148.523C54.9691 148.523 55.1206 148.513 55.239 148.494C55.3574 148.471 55.4521 148.452 55.5231 148.438L55.864 149.943C55.7504 149.986 55.5917 150.028 55.3881 150.071C55.1845 150.118 54.9265 150.142 54.614 150.142C54.1405 150.142 53.6765 150.04 53.2219 149.837C52.7721 149.633 52.3981 149.323 52.0998 148.906C51.8062 148.49 51.6594 147.964 51.6594 147.33V136.477ZM62.9308 139.091V140.511H57.2773V139.091H62.9308ZM58.9251 136.477H60.6012V146.875C60.6012 147.348 60.6699 147.704 60.8072 147.94C60.9492 148.172 61.1291 148.329 61.3469 148.409C61.5695 148.485 61.8039 148.523 62.0501 148.523C62.2347 148.523 62.3862 148.513 62.5046 148.494C62.623 148.471 62.7177 148.452 62.7887 148.438L63.1296 149.943C63.016 149.986 62.8574 150.028 62.6538 150.071C62.4502 150.118 62.1921 150.142 61.8796 150.142C61.4061 150.142 60.9421 150.04 60.4876 149.837C60.0378 149.633 59.6637 149.323 59.3654 148.906C59.0719 148.49 58.9251 147.964 58.9251 147.33V136.477ZM69.9087 150.227C68.8576 150.227 67.9509 149.995 67.1886 149.531C66.431 149.062 65.8462 148.409 65.4343 147.571C65.0271 146.728 64.8235 145.748 64.8235 144.631C64.8235 143.513 65.0271 142.528 65.4343 141.676C65.8462 140.819 66.4192 140.152 67.1531 139.673C67.8917 139.19 68.7534 138.949 69.7383 138.949C70.3065 138.949 70.8675 139.044 71.4215 139.233C71.9755 139.422 72.4798 139.73 72.9343 140.156C73.3888 140.578 73.7511 141.136 74.021 141.832C74.2908 142.528 74.4258 143.385 74.4258 144.403V145.114H66.0167V143.665H72.7212C72.7212 143.049 72.5981 142.5 72.3519 142.017C72.1104 141.534 71.7648 141.153 71.315 140.874C70.8699 140.594 70.3443 140.455 69.7383 140.455C69.0707 140.455 68.493 140.62 68.0053 140.952C67.5224 141.278 67.1507 141.705 66.8903 142.23C66.6299 142.756 66.4996 143.319 66.4996 143.92V144.886C66.4996 145.71 66.6417 146.409 66.9258 146.982C67.2146 147.55 67.6147 147.983 68.1261 148.281C68.6374 148.575 69.2317 148.722 69.9087 148.722C70.3491 148.722 70.7468 148.66 71.1019 148.537C71.4618 148.409 71.7719 148.22 72.0323 147.969C72.2927 147.713 72.494 147.396 72.636 147.017L74.2553 147.472C74.0849 148.021 73.7984 148.504 73.396 148.92C72.9935 149.332 72.4963 149.654 71.9045 149.886C71.3126 150.114 70.6474 150.227 69.9087 150.227ZM76.9755 150V139.091H78.5948V140.739H78.7085C78.9073 140.199 79.2672 139.761 79.788 139.425C80.3088 139.089 80.896 138.92 81.5494 138.92C81.6725 138.92 81.8263 138.923 82.011 138.928C82.1957 138.932 82.3353 138.939 82.43 138.949V140.653C82.3732 140.639 82.243 140.618 82.0394 140.589C81.8406 140.556 81.6299 140.54 81.4073 140.54C80.877 140.54 80.4035 140.651 79.9869 140.874C79.5749 141.091 79.2482 141.394 79.0067 141.783C78.77 142.166 78.6516 142.604 78.6516 143.097V150H76.9755ZM94.7578 150H90.2692V135.455H94.9567C96.3677 135.455 97.575 135.746 98.5788 136.328C99.5826 136.906 100.352 137.737 100.887 138.821C101.422 139.901 101.69 141.193 101.69 142.699C101.69 144.214 101.42 145.518 100.88 146.612C100.34 147.701 99.5542 148.539 98.522 149.126C97.4898 149.709 96.2351 150 94.7578 150ZM92.0305 148.438H94.6442C95.8468 148.438 96.8435 148.205 97.6342 147.741C98.425 147.277 99.0144 146.617 99.4027 145.76C99.791 144.903 99.9851 143.883 99.9851 142.699C99.9851 141.525 99.7933 140.514 99.4098 139.666C99.0263 138.814 98.4534 138.161 97.6911 137.706C96.9287 137.247 95.9794 137.017 94.843 137.017H92.0305V148.438Z"></path>
<path fill="black" d="M38.0358 65.6364C37.9079 64.5568 37.3895 63.7188 36.4804 63.1222C35.5713 62.5256 34.4562 62.2273 33.1352 62.2273C32.1693 62.2273 31.3241 62.3835 30.5997 62.696C29.8824 63.0085 29.3213 63.4382 28.9165 63.9851C28.5187 64.532 28.3199 65.1534 28.3199 65.8494C28.3199 66.4318 28.4584 66.9325 28.7354 67.3516C29.0194 67.7635 29.3817 68.108 29.822 68.3849C30.2623 68.6548 30.724 68.8786 31.2069 69.0561C31.6899 69.2266 32.1338 69.3651 32.5386 69.4716L34.7545 70.0682C35.3227 70.2173 35.9548 70.4233 36.6508 70.6861C37.354 70.9489 38.0251 71.3075 38.6643 71.7621C39.3106 72.2095 39.8433 72.7848 40.2623 73.4879C40.6814 74.1911 40.8909 75.054 40.8909 76.0767C40.8909 77.2557 40.5819 78.321 39.964 79.2727C39.3532 80.2244 38.4584 80.9808 37.2794 81.5419C36.1075 82.103 34.6835 82.3835 33.0074 82.3835C31.4449 82.3835 30.0919 82.1314 28.9484 81.6271C27.8121 81.1229 26.9172 80.4197 26.2638 79.5178C25.6175 78.6158 25.2517 77.5682 25.1665 76.375H27.8937C27.9648 77.1989 28.2417 77.8807 28.7247 78.4205C29.2148 78.9531 29.8327 79.3509 30.5784 79.6136C31.3312 79.8693 32.1409 79.9972 33.0074 79.9972C34.0159 79.9972 34.9214 79.8338 35.724 79.5071C36.5265 79.1733 37.1622 78.7116 37.6309 78.1222C38.0997 77.5256 38.3341 76.8295 38.3341 76.0341C38.3341 75.3097 38.1317 74.7202 37.7268 74.2656C37.322 73.8111 36.7893 73.4418 36.1288 73.1577C35.4683 72.8736 34.7545 72.625 33.9875 72.4119L31.3028 71.6449C29.5983 71.1548 28.2488 70.4553 27.2545 69.5462C26.2602 68.6371 25.7631 67.4474 25.7631 65.9773C25.7631 64.7557 26.0933 63.6903 26.7538 62.7812C27.4214 61.8651 28.3163 61.1548 29.4385 60.6506C30.5677 60.1392 31.8284 59.8835 33.2204 59.8835C34.6267 59.8835 35.8767 60.1357 36.9704 60.6399C38.0642 61.1371 38.9307 61.8189 39.5699 62.6854C40.2162 63.5518 40.5571 64.5355 40.5926 65.6364H38.0358ZM49.7093 82.3835C48.6723 82.3835 47.7313 82.1882 46.8861 81.7976C46.0409 81.3999 45.3698 80.8281 44.8726 80.0824C44.3754 79.3295 44.1269 78.4205 44.1269 77.3551C44.1269 76.4176 44.3115 75.6577 44.6808 75.0753C45.0502 74.4858 45.5438 74.0241 46.1617 73.6903C46.7796 73.3565 47.4614 73.108 48.2071 72.9446C48.96 72.7741 49.7164 72.6392 50.4763 72.5398C51.4706 72.4119 52.2767 72.3161 52.8946 72.2521C53.5196 72.1811 53.9742 72.0639 54.2583 71.9006C54.5494 71.7372 54.695 71.4531 54.695 71.0483V70.9631C54.695 69.9119 54.4074 69.0952 53.8321 68.5128C53.2639 67.9304 52.401 67.6392 51.2433 67.6392C50.0431 67.6392 49.102 67.902 48.4202 68.4276C47.7384 68.9531 47.259 69.5142 46.982 70.1108L44.5956 69.2585C45.0218 68.2642 45.5899 67.4901 46.3002 66.9361C47.0175 66.375 47.7987 65.9844 48.6439 65.7642C49.4962 65.5369 50.3343 65.4233 51.1581 65.4233C51.6837 65.4233 52.2874 65.4872 52.9692 65.6151C53.6581 65.7358 54.3222 65.9879 54.9614 66.3714C55.6077 66.755 56.1439 67.3338 56.57 68.108C56.9962 68.8821 57.2093 69.919 57.2093 71.2188V82H54.695V79.7841H54.5672C54.3968 80.1392 54.1127 80.5192 53.7149 80.924C53.3172 81.3288 52.7881 81.6733 52.1276 81.9574C51.4671 82.2415 50.661 82.3835 49.7093 82.3835ZM50.0928 80.125C51.0871 80.125 51.9252 79.9297 52.607 79.5391C53.2959 79.1484 53.8144 78.6442 54.1624 78.0263C54.5175 77.4084 54.695 76.7585 54.695 76.0767V73.7756C54.5885 73.9034 54.3541 74.0206 53.9919 74.1271C53.6368 74.2266 53.2249 74.3153 52.7561 74.3935C52.2945 74.4645 51.8435 74.5284 51.4031 74.5852C50.9699 74.6349 50.6183 74.6776 50.3485 74.7131C49.695 74.7983 49.0843 74.9368 48.5161 75.1286C47.955 75.3132 47.5004 75.5937 47.1524 75.9702C46.8115 76.3395 46.6411 76.8437 46.6411 77.483C46.6411 78.3565 46.9642 79.017 47.6105 79.4645C48.2639 79.9048 49.0914 80.125 50.0928 80.125ZM68.9147 65.6364V67.767H60.4346V65.6364H68.9147ZM62.9062 61.7159H65.4204V77.3125C65.4204 78.0227 65.5233 78.5554 65.7293 78.9105C65.9424 79.2585 66.2123 79.4929 66.539 79.6136C66.8728 79.7273 67.2243 79.7841 67.5937 79.7841C67.8707 79.7841 68.0979 79.7699 68.2755 79.7415C68.453 79.706 68.5951 79.6776 68.7016 79.6562L69.213 81.9148C69.0425 81.9787 68.8046 82.0426 68.4992 82.1065C68.1938 82.1776 67.8067 82.2131 67.338 82.2131C66.6278 82.2131 65.9317 82.0604 65.2499 81.755C64.5752 81.4496 64.0141 80.9844 63.5667 80.3594C63.1263 79.7344 62.9062 78.946 62.9062 77.9943V61.7159ZM83.0091 75.3097V65.6364H85.5233V82H83.0091V79.2301H82.8387C82.4552 80.0611 81.8586 80.7678 81.0489 81.3501C80.2393 81.9254 79.2165 82.2131 77.9807 82.2131C76.958 82.2131 76.0489 81.9893 75.2535 81.5419C74.458 81.0874 73.833 80.4055 73.3785 79.4964C72.9239 78.5803 72.6966 77.4261 72.6966 76.0341V65.6364H75.2108V75.8636C75.2108 77.0568 75.5447 78.0085 76.2123 78.7188C76.887 79.429 77.7464 79.7841 78.7904 79.7841C79.4154 79.7841 80.051 79.6243 80.6974 79.3047C81.3508 78.9851 81.8976 78.495 82.338 77.8345C82.7854 77.174 83.0091 76.3324 83.0091 75.3097ZM90.1283 82V65.6364H92.5573V68.108H92.7277C93.026 67.2983 93.5658 66.6413 94.347 66.1371C95.1283 65.6328 96.009 65.3807 96.9891 65.3807C97.1737 65.3807 97.4046 65.3842 97.6816 65.3913C97.9585 65.3984 98.1681 65.4091 98.3101 65.4233V67.9801C98.2249 67.9588 98.0296 67.9268 97.7242 67.8842C97.4259 67.8345 97.1098 67.8097 96.776 67.8097C95.9806 67.8097 95.2703 67.9766 94.6453 68.3104C94.0274 68.6371 93.5374 69.0916 93.1752 69.674C92.82 70.2493 92.6425 70.9062 92.6425 71.6449V82H90.1283ZM103.805 72.1562V82H101.29V65.6364H103.719V68.1932H103.932C104.316 67.3622 104.898 66.6946 105.68 66.1903C106.461 65.679 107.469 65.4233 108.705 65.4233C109.813 65.4233 110.783 65.6506 111.614 66.1051C112.445 66.5526 113.091 67.2344 113.552 68.1506C114.014 69.0597 114.245 70.2102 114.245 71.6023V82H111.731V71.7727C111.731 70.4872 111.397 69.4858 110.729 68.7685C110.062 68.044 109.146 67.6818 107.981 67.6818C107.178 67.6818 106.461 67.8558 105.829 68.2038C105.204 68.5518 104.71 69.0597 104.348 69.7273C103.986 70.3949 103.805 71.2045 103.805 72.1562Z"></path>
</svg>
