<svg xmlns="http://www.w3.org/2000/svg" fill="none" viewBox="0 0 139 164" height="164" width="139">
<path fill="#EEC638" d="M0 20C0 8.95431 8.95431 0 20 0H119C130.046 0 139 8.95431 139 20V144C139 155.046 130.046 164 119 164H20C8.95431 164 0 155.046 0 144V20Z"></path>
<path fill="black" d="M36.2102 135.455V150H34.5341V135.455H36.2102ZM43.854 150.227C42.8029 150.227 41.8962 149.995 41.1339 149.531C40.3763 149.062 39.7915 148.409 39.3796 147.571C38.9724 146.728 38.7688 145.748 38.7688 144.631C38.7688 143.513 38.9724 142.528 39.3796 141.676C39.7915 140.819 40.3645 140.152 41.0984 139.673C41.837 139.19 42.6987 138.949 43.6836 138.949C44.2518 138.949 44.8129 139.044 45.3668 139.233C45.9208 139.422 46.4251 139.73 46.8796 140.156C47.3342 140.578 47.6964 141.136 47.9663 141.832C48.2362 142.528 48.3711 143.385 48.3711 144.403V145.114H39.962V143.665H46.6665C46.6665 143.049 46.5434 142.5 46.2972 142.017C46.0558 141.534 45.7101 141.153 45.2603 140.874C44.8152 140.594 44.2897 140.455 43.6836 140.455C43.016 140.455 42.4383 140.62 41.9506 140.952C41.4677 141.278 41.096 141.705 40.8356 142.23C40.5752 142.756 40.445 143.319 40.445 143.92V144.886C40.445 145.71 40.587 146.409 40.8711 146.982C41.1599 147.55 41.56 147.983 42.0714 148.281C42.5827 148.575 43.177 148.722 43.854 148.722C44.2944 148.722 44.6921 148.66 45.0472 148.537C45.4071 148.409 45.7172 148.22 45.9776 147.969C46.238 147.713 46.4393 147.396 46.5813 147.017L48.2006 147.472C48.0302 148.021 47.7437 148.504 47.3413 148.92C46.9388 149.332 46.4416 149.654 45.8498 149.886C45.2579 150.114 44.5927 150.227 43.854 150.227ZM55.6651 139.091V140.511H50.0117V139.091H55.6651ZM51.6594 136.477H53.3356V146.875C53.3356 147.348 53.4042 147.704 53.5415 147.94C53.6836 148.172 53.8635 148.329 54.0813 148.409C54.3039 148.485 54.5382 148.523 54.7844 148.523C54.9691 148.523 55.1206 148.513 55.239 148.494C55.3574 148.471 55.4521 148.452 55.5231 148.438L55.864 149.943C55.7504 149.986 55.5917 150.028 55.3881 150.071C55.1845 150.118 54.9265 150.142 54.614 150.142C54.1405 150.142 53.6765 150.04 53.2219 149.837C52.7721 149.633 52.3981 149.323 52.0998 148.906C51.8062 148.49 51.6594 147.964 51.6594 147.33V136.477ZM62.9308 139.091V140.511H57.2773V139.091H62.9308ZM58.9251 136.477H60.6012V146.875C60.6012 147.348 60.6699 147.704 60.8072 147.94C60.9492 148.172 61.1291 148.329 61.3469 148.409C61.5695 148.485 61.8039 148.523 62.0501 148.523C62.2347 148.523 62.3862 148.513 62.5046 148.494C62.623 148.471 62.7177 148.452 62.7887 148.438L63.1296 149.943C63.016 149.986 62.8574 150.028 62.6538 150.071C62.4502 150.118 62.1921 150.142 61.8796 150.142C61.4061 150.142 60.9421 150.04 60.4876 149.837C60.0378 149.633 59.6637 149.323 59.3654 148.906C59.0719 148.49 58.9251 147.964 58.9251 147.33V136.477ZM69.9087 150.227C68.8576 150.227 67.9509 149.995 67.1886 149.531C66.431 149.062 65.8462 148.409 65.4343 147.571C65.0271 146.728 64.8235 145.748 64.8235 144.631C64.8235 143.513 65.0271 142.528 65.4343 141.676C65.8462 140.819 66.4192 140.152 67.1531 139.673C67.8917 139.19 68.7534 138.949 69.7383 138.949C70.3065 138.949 70.8675 139.044 71.4215 139.233C71.9755 139.422 72.4798 139.73 72.9343 140.156C73.3888 140.578 73.7511 141.136 74.021 141.832C74.2908 142.528 74.4258 143.385 74.4258 144.403V145.114H66.0167V143.665H72.7212C72.7212 143.049 72.5981 142.5 72.3519 142.017C72.1104 141.534 71.7648 141.153 71.315 140.874C70.8699 140.594 70.3443 140.455 69.7383 140.455C69.0707 140.455 68.493 140.62 68.0053 140.952C67.5224 141.278 67.1507 141.705 66.8903 142.23C66.6299 142.756 66.4996 143.319 66.4996 143.92V144.886C66.4996 145.71 66.6417 146.409 66.9258 146.982C67.2146 147.55 67.6147 147.983 68.1261 148.281C68.6374 148.575 69.2317 148.722 69.9087 148.722C70.3491 148.722 70.7468 148.66 71.1019 148.537C71.4618 148.409 71.7719 148.22 72.0323 147.969C72.2927 147.713 72.494 147.396 72.636 147.017L74.2553 147.472C74.0849 148.021 73.7984 148.504 73.396 148.92C72.9935 149.332 72.4963 149.654 71.9045 149.886C71.3126 150.114 70.6474 150.227 69.9087 150.227ZM76.9755 150V139.091H78.5948V140.739H78.7085C78.9073 140.199 79.2672 139.761 79.788 139.425C80.3088 139.089 80.896 138.92 81.5494 138.92C81.6725 138.92 81.8263 138.923 82.011 138.928C82.1957 138.932 82.3353 138.939 82.43 138.949V140.653C82.3732 140.639 82.243 140.618 82.0394 140.589C81.8406 140.556 81.6299 140.54 81.4073 140.54C80.877 140.54 80.4035 140.651 79.9869 140.874C79.5749 141.091 79.2482 141.394 79.0067 141.783C78.77 142.166 78.6516 142.604 78.6516 143.097V150H76.9755ZM94.7578 150H90.2692V135.455H94.9567C96.3677 135.455 97.575 135.746 98.5788 136.328C99.5826 136.906 100.352 137.737 100.887 138.821C101.422 139.901 101.69 141.193 101.69 142.699C101.69 144.214 101.42 145.518 100.88 146.612C100.34 147.701 99.5542 148.539 98.522 149.126C97.4898 149.709 96.2351 150 94.7578 150ZM92.0305 148.438H94.6442C95.8468 148.438 96.8435 148.205 97.6342 147.741C98.425 147.277 99.0144 146.617 99.4027 145.76C99.791 144.903 99.9851 143.883 99.9851 142.699C99.9851 141.525 99.7933 140.514 99.4098 139.666C99.0263 138.814 98.4534 138.161 97.6911 137.706C96.9287 137.247 95.9794 137.017 94.843 137.017H92.0305V148.438Z"></path>
<path fill="black" d="M31.8169 75V53.1818H44.9845V55.5256H34.4589V62.8977H44.3026V65.2415H34.4589V72.6562H45.1549V75H31.8169ZM54.221 75.3835C53.184 75.3835 52.243 75.1882 51.3978 74.7976C50.5526 74.3999 49.8815 73.8281 49.3843 73.0824C48.8872 72.3295 48.6386 71.4205 48.6386 70.3551C48.6386 69.4176 48.8232 68.6577 49.1926 68.0753C49.5619 67.4858 50.0555 67.0241 50.6734 66.6903C51.2913 66.3565 51.9731 66.108 52.7188 65.9446C53.4717 65.7741 54.2281 65.6392 54.988 65.5398C55.9823 65.4119 56.7884 65.3161 57.4063 65.2521C58.0313 65.1811 58.4859 65.0639 58.77 64.9006C59.0612 64.7372 59.2068 64.4531 59.2068 64.0483V63.9631C59.2068 62.9119 58.9191 62.0952 58.3438 61.5128C57.7757 60.9304 56.9127 60.6392 55.7551 60.6392C54.5548 60.6392 53.6137 60.902 52.9319 61.4276C52.2501 61.9531 51.7707 62.5142 51.4937 63.1108L49.1073 62.2585C49.5335 61.2642 50.1017 60.4901 50.8119 59.9361C51.5292 59.375 52.3105 58.9844 53.1556 58.7642C54.0079 58.5369 54.846 58.4233 55.6698 58.4233C56.1954 58.4233 56.7991 58.4872 57.4809 58.6151C58.1698 58.7358 58.8339 58.9879 59.4731 59.3714C60.1194 59.755 60.6556 60.3338 61.0818 61.108C61.5079 61.8821 61.721 62.919 61.721 64.2188V75H59.2068V72.7841H59.0789C58.9085 73.1392 58.6244 73.5192 58.2267 73.924C57.8289 74.3288 57.2998 74.6733 56.6393 74.9574C55.9788 75.2415 55.1727 75.3835 54.221 75.3835ZM54.6045 73.125C55.5988 73.125 56.4369 72.9297 57.1187 72.5391C57.8076 72.1484 58.3261 71.6442 58.6741 71.0263C59.0292 70.4084 59.2068 69.7585 59.2068 69.0767V66.7756C59.1002 66.9034 58.8659 67.0206 58.5036 67.1271C58.1485 67.2266 57.7366 67.3153 57.2678 67.3935C56.8062 67.4645 56.3552 67.5284 55.9149 67.5852C55.4816 67.6349 55.1301 67.6776 54.8602 67.7131C54.2068 67.7983 53.596 67.9368 53.0278 68.1286C52.4667 68.3132 52.0122 68.5937 51.6642 68.9702C51.3232 69.3395 51.1528 69.8437 51.1528 70.483C51.1528 71.3565 51.4759 72.017 52.1222 72.4645C52.7757 72.9048 53.6031 73.125 54.6045 73.125ZM73.4264 58.6364V60.767H64.9463V58.6364H73.4264ZM67.4179 54.7159H69.9321V70.3125C69.9321 71.0227 70.0351 71.5554 70.241 71.9105C70.4541 72.2585 70.724 72.4929 71.0507 72.6136C71.3845 72.7273 71.7361 72.7841 72.1054 72.7841C72.3824 72.7841 72.6096 72.7699 72.7872 72.7415C72.9648 72.706 73.1068 72.6776 73.2133 72.6562L73.7247 74.9148C73.5542 74.9787 73.3163 75.0426 73.0109 75.1065C72.7055 75.1776 72.3184 75.2131 71.8497 75.2131C71.1395 75.2131 70.4434 75.0604 69.7616 74.755C69.0869 74.4496 68.5258 73.9844 68.0784 73.3594C67.6381 72.7344 67.4179 71.946 67.4179 70.9943V54.7159ZM83.8934 75.3409C82.3167 75.3409 80.9566 74.9929 79.8131 74.2969C78.6768 73.5938 77.7996 72.6136 77.1817 71.3565C76.5709 70.0923 76.2655 68.6222 76.2655 66.946C76.2655 65.2699 76.5709 63.7926 77.1817 62.5142C77.7996 61.2287 78.659 60.2273 79.7599 59.5099C80.8678 58.7855 82.1604 58.4233 83.6377 58.4233C84.49 58.4233 85.3316 58.5653 86.1626 58.8494C86.9935 59.1335 87.7499 59.5952 88.4317 60.2344C89.1135 60.8665 89.6569 61.7045 90.0617 62.7486C90.4665 63.7926 90.6689 65.0781 90.6689 66.6051V67.6705H78.0553V65.4972H88.1121C88.1121 64.5739 87.9275 63.75 87.5582 63.0256C87.1959 62.3011 86.6775 61.7294 86.0028 61.3104C85.3351 60.8913 84.5468 60.6818 83.6377 60.6818C82.6363 60.6818 81.7698 60.9304 81.0383 61.4276C80.3138 61.9176 79.7563 62.5568 79.3657 63.3452C78.9751 64.1335 78.7797 64.9787 78.7797 65.8807V67.3295C78.7797 68.5653 78.9928 69.6129 79.4189 70.4723C79.8522 71.3246 80.4523 71.9744 81.2194 72.4219C81.9864 72.8622 82.8778 73.0824 83.8934 73.0824C84.5539 73.0824 85.1505 72.9901 85.6832 72.8054C86.2229 72.6136 86.6881 72.3295 87.0787 71.9531C87.4694 71.5696 87.7712 71.0937 87.9843 70.5256L90.4133 71.2074C90.1576 72.0312 89.7279 72.7557 89.1242 73.3807C88.5205 73.9986 87.7748 74.4815 86.887 74.8295C85.9992 75.1705 85.0013 75.3409 83.8934 75.3409ZM100.672 75.3409C99.3089 75.3409 98.105 74.9964 97.061 74.3075C96.017 73.6115 95.2002 72.6314 94.6107 71.3672C94.0212 70.0959 93.7265 68.5938 93.7265 66.8608C93.7265 65.142 94.0212 63.6506 94.6107 62.3864C95.2002 61.1222 96.0205 60.1456 97.0716 59.4567C98.1228 58.7678 99.3373 58.4233 100.715 58.4233C101.78 58.4233 102.622 58.6009 103.24 58.956C103.865 59.304 104.341 59.7017 104.668 60.1491C105.001 60.5895 105.261 60.9517 105.445 61.2358H105.658V53.1818H108.172V75H105.744V72.4858H105.445C105.261 72.7841 104.998 73.1605 104.657 73.6151C104.316 74.0625 103.829 74.4638 103.197 74.8189C102.565 75.1669 101.724 75.3409 100.672 75.3409ZM101.013 73.0824C102.022 73.0824 102.874 72.8196 103.57 72.294C104.266 71.7614 104.795 71.0263 105.158 70.0888C105.52 69.1442 105.701 68.054 105.701 66.8182C105.701 65.5966 105.523 64.5277 105.168 63.6115C104.813 62.6882 104.288 61.9709 103.592 61.4595C102.896 60.9411 102.036 60.6818 101.013 60.6818C99.9481 60.6818 99.0603 60.9553 98.3501 61.5021C97.6469 62.0419 97.1178 62.777 96.7627 63.7074C96.4147 64.6307 96.2407 65.6676 96.2407 66.8182C96.2407 67.983 96.4182 69.0412 96.7733 69.9929C97.1356 70.9375 97.6682 71.6903 98.3714 72.2514C99.0816 72.8054 99.9623 73.0824 101.013 73.0824Z"></path>
</svg>
