<svg xmlns="http://www.w3.org/2000/svg" fill="none" viewBox="0 0 139 164" height="164" width="139">
<path fill="#EEC638" d="M0 20C0 8.95431 8.95431 0 20 0H119C130.046 0 139 8.95431 139 20V144C139 155.046 130.046 164 119 164H20C8.95431 164 0 155.046 0 144V20Z"></path>
<path fill="black" d="M36.2102 135.455V150H34.5341V135.455H36.2102ZM43.854 150.227C42.8029 150.227 41.8962 149.995 41.1339 149.531C40.3763 149.062 39.7915 148.409 39.3796 147.571C38.9724 146.728 38.7688 145.748 38.7688 144.631C38.7688 143.513 38.9724 142.528 39.3796 141.676C39.7915 140.819 40.3645 140.152 41.0984 139.673C41.837 139.19 42.6987 138.949 43.6836 138.949C44.2518 138.949 44.8129 139.044 45.3668 139.233C45.9208 139.422 46.4251 139.73 46.8796 140.156C47.3342 140.578 47.6964 141.136 47.9663 141.832C48.2362 142.528 48.3711 143.385 48.3711 144.403V145.114H39.962V143.665H46.6665C46.6665 143.049 46.5434 142.5 46.2972 142.017C46.0558 141.534 45.7101 141.153 45.2603 140.874C44.8152 140.594 44.2897 140.455 43.6836 140.455C43.016 140.455 42.4383 140.62 41.9506 140.952C41.4677 141.278 41.096 141.705 40.8356 142.23C40.5752 142.756 40.445 143.319 40.445 143.92V144.886C40.445 145.71 40.587 146.409 40.8711 146.982C41.1599 147.55 41.56 147.983 42.0714 148.281C42.5827 148.575 43.177 148.722 43.854 148.722C44.2944 148.722 44.6921 148.66 45.0472 148.537C45.4071 148.409 45.7172 148.22 45.9776 147.969C46.238 147.713 46.4393 147.396 46.5813 147.017L48.2006 147.472C48.0302 148.021 47.7437 148.504 47.3413 148.92C46.9388 149.332 46.4416 149.654 45.8498 149.886C45.2579 150.114 44.5927 150.227 43.854 150.227ZM55.6651 139.091V140.511H50.0117V139.091H55.6651ZM51.6594 136.477H53.3356V146.875C53.3356 147.348 53.4042 147.704 53.5415 147.94C53.6836 148.172 53.8635 148.329 54.0813 148.409C54.3039 148.485 54.5382 148.523 54.7844 148.523C54.9691 148.523 55.1206 148.513 55.239 148.494C55.3574 148.471 55.4521 148.452 55.5231 148.438L55.864 149.943C55.7504 149.986 55.5917 150.028 55.3881 150.071C55.1845 150.118 54.9265 150.142 54.614 150.142C54.1405 150.142 53.6765 150.04 53.2219 149.837C52.7721 149.633 52.3981 149.323 52.0998 148.906C51.8062 148.49 51.6594 147.964 51.6594 147.33V136.477ZM62.9308 139.091V140.511H57.2773V139.091H62.9308ZM58.9251 136.477H60.6012V146.875C60.6012 147.348 60.6699 147.704 60.8072 147.94C60.9492 148.172 61.1291 148.329 61.3469 148.409C61.5695 148.485 61.8039 148.523 62.0501 148.523C62.2347 148.523 62.3862 148.513 62.5046 148.494C62.623 148.471 62.7177 148.452 62.7887 148.438L63.1296 149.943C63.016 149.986 62.8574 150.028 62.6538 150.071C62.4502 150.118 62.1921 150.142 61.8796 150.142C61.4061 150.142 60.9421 150.04 60.4876 149.837C60.0378 149.633 59.6637 149.323 59.3654 148.906C59.0719 148.49 58.9251 147.964 58.9251 147.33V136.477ZM69.9087 150.227C68.8576 150.227 67.9509 149.995 67.1886 149.531C66.431 149.062 65.8462 148.409 65.4343 147.571C65.0271 146.728 64.8235 145.748 64.8235 144.631C64.8235 143.513 65.0271 142.528 65.4343 141.676C65.8462 140.819 66.4192 140.152 67.1531 139.673C67.8917 139.19 68.7534 138.949 69.7383 138.949C70.3065 138.949 70.8675 139.044 71.4215 139.233C71.9755 139.422 72.4798 139.73 72.9343 140.156C73.3888 140.578 73.7511 141.136 74.021 141.832C74.2908 142.528 74.4258 143.385 74.4258 144.403V145.114H66.0167V143.665H72.7212C72.7212 143.049 72.5981 142.5 72.3519 142.017C72.1104 141.534 71.7648 141.153 71.315 140.874C70.8699 140.594 70.3443 140.455 69.7383 140.455C69.0707 140.455 68.493 140.62 68.0053 140.952C67.5224 141.278 67.1507 141.705 66.8903 142.23C66.6299 142.756 66.4996 143.319 66.4996 143.92V144.886C66.4996 145.71 66.6417 146.409 66.9258 146.982C67.2146 147.55 67.6147 147.983 68.1261 148.281C68.6374 148.575 69.2317 148.722 69.9087 148.722C70.3491 148.722 70.7468 148.66 71.1019 148.537C71.4618 148.409 71.7719 148.22 72.0323 147.969C72.2927 147.713 72.494 147.396 72.636 147.017L74.2553 147.472C74.0849 148.021 73.7984 148.504 73.396 148.92C72.9935 149.332 72.4963 149.654 71.9045 149.886C71.3126 150.114 70.6474 150.227 69.9087 150.227ZM76.9755 150V139.091H78.5948V140.739H78.7085C78.9073 140.199 79.2672 139.761 79.788 139.425C80.3088 139.089 80.896 138.92 81.5494 138.92C81.6725 138.92 81.8263 138.923 82.011 138.928C82.1957 138.932 82.3353 138.939 82.43 138.949V140.653C82.3732 140.639 82.243 140.618 82.0394 140.589C81.8406 140.556 81.6299 140.54 81.4073 140.54C80.877 140.54 80.4035 140.651 79.9869 140.874C79.5749 141.091 79.2482 141.394 79.0067 141.783C78.77 142.166 78.6516 142.604 78.6516 143.097V150H76.9755ZM101.974 140H100.212C100.108 139.493 99.9259 139.048 99.6655 138.665C99.4098 138.281 99.0973 137.959 98.728 137.699C98.3634 137.434 97.9586 137.235 97.5135 137.102C97.0684 136.97 96.6044 136.903 96.1214 136.903C95.2408 136.903 94.4429 137.126 93.728 137.571C93.0178 138.016 92.4519 138.672 92.0305 139.538C91.6139 140.405 91.4055 141.468 91.4055 142.727C91.4055 143.987 91.6139 145.05 92.0305 145.916C92.4519 146.783 93.0178 147.438 93.728 147.884C94.4429 148.329 95.2408 148.551 96.1214 148.551C96.6044 148.551 97.0684 148.485 97.5135 148.352C97.9586 148.22 98.3634 148.023 98.728 147.763C99.0973 147.498 99.4098 147.173 99.6655 146.79C99.9259 146.402 100.108 145.956 100.212 145.455H101.974C101.841 146.198 101.6 146.863 101.249 147.45C100.899 148.037 100.463 148.537 99.9425 148.949C99.4216 149.356 98.8369 149.666 98.1882 149.879C97.5443 150.092 96.8554 150.199 96.1214 150.199C94.8809 150.199 93.7777 149.896 92.8118 149.29C91.8459 148.684 91.0859 147.822 90.532 146.705C89.978 145.587 89.701 144.261 89.701 142.727C89.701 141.193 89.978 139.867 90.532 138.75C91.0859 137.633 91.8459 136.771 92.8118 136.165C93.7777 135.559 94.8809 135.256 96.1214 135.256C96.8554 135.256 97.5443 135.362 98.1882 135.575C98.8369 135.788 99.4216 136.101 99.9425 136.513C100.463 136.92 100.899 137.417 101.249 138.004C101.6 138.587 101.841 139.252 101.974 140Z"></path>
<path fill="black" d="M30.8055 75H28.0356L36.047 53.1818H38.7742L46.7856 75H44.0157L37.4958 56.6335H37.3254L30.8055 75ZM31.8282 66.4773H42.993V68.821H31.8282V66.4773ZM52.3573 65.1562V75H49.8431V58.6364H52.2721V61.1932H52.4852C52.8687 60.3622 53.4511 59.6946 54.2323 59.1903C55.0136 58.679 56.0221 58.4233 57.2579 58.4233C58.3659 58.4233 59.3353 58.6506 60.1663 59.1051C60.9972 59.5526 61.6436 60.2344 62.1052 61.1506C62.5669 62.0597 62.7977 63.2102 62.7977 64.6023V75H60.2835V64.7727C60.2835 63.4872 59.9497 62.4858 59.282 61.7685C58.6144 61.044 57.6982 60.6818 56.5335 60.6818C55.7309 60.6818 55.0136 60.8558 54.3815 61.2038C53.7565 61.5518 53.2629 62.0597 52.9007 62.7273C52.5384 63.3949 52.3573 64.2045 52.3573 65.1562ZM73.9971 81.4773C72.7826 81.4773 71.7385 81.321 70.865 81.0085C69.9914 80.7031 69.2634 80.2983 68.681 79.794C68.1057 79.2969 67.6476 78.7642 67.3067 78.196L69.3096 76.7898C69.5368 77.0881 69.8245 77.429 70.1725 77.8125C70.5205 78.2031 70.9964 78.5405 71.6001 78.8246C72.2108 79.1158 73.0099 79.2614 73.9971 79.2614C75.3181 79.2614 76.4083 78.9418 77.2677 78.3026C78.127 77.6634 78.5567 76.6619 78.5567 75.2983V71.9744H78.3437C78.159 72.2727 77.8962 72.642 77.5553 73.0824C77.2215 73.5156 76.7385 73.9027 76.1064 74.2436C75.4814 74.5774 74.6363 74.7443 73.5709 74.7443C72.2499 74.7443 71.0638 74.4318 70.0127 73.8068C68.9687 73.1818 68.1412 72.2727 67.5305 71.0795C66.9268 69.8864 66.6249 68.4375 66.6249 66.733C66.6249 65.0568 66.9197 63.5973 67.5091 62.3544C68.0986 61.1044 68.9189 60.1385 69.9701 59.4567C71.0212 58.7678 72.2357 58.4233 73.6135 58.4233C74.6789 58.4233 75.5241 58.6009 76.1491 58.956C76.7812 59.304 77.2641 59.7017 77.5979 60.1491C77.9388 60.5895 78.2016 60.9517 78.3863 61.2358H78.642V58.6364H81.0709V75.4688C81.0709 76.875 80.7513 78.0185 80.1121 78.8991C79.48 79.7869 78.6278 80.4368 77.5553 80.8487C76.49 81.2678 75.3039 81.4773 73.9971 81.4773ZM73.9118 72.4858C74.9204 72.4858 75.7726 72.255 76.4687 71.7933C77.1647 71.3317 77.6938 70.6676 78.056 69.8011C78.4182 68.9347 78.5993 67.8977 78.5993 66.6903C78.5993 65.5114 78.4218 64.4709 78.0667 63.5689C77.7116 62.6669 77.186 61.9602 76.49 61.4489C75.7939 60.9375 74.9346 60.6818 73.9118 60.6818C72.8465 60.6818 71.9587 60.9517 71.2485 61.4915C70.5454 62.0312 70.0162 62.7557 69.6611 63.6648C69.3131 64.5739 69.1391 65.5824 69.1391 66.6903C69.1391 67.8267 69.3167 68.8317 69.6718 69.7053C70.034 70.5717 70.5667 71.2536 71.2698 71.7507C71.98 72.2408 72.8607 72.4858 73.9118 72.4858ZM85.6732 75V58.6364H88.1022V61.108H88.2726C88.5709 60.2983 89.1107 59.6413 89.892 59.1371C90.6732 58.6328 91.5539 58.3807 92.534 58.3807C92.7187 58.3807 92.9495 58.3842 93.2265 58.3913C93.5035 58.3984 93.713 58.4091 93.855 58.4233V60.9801C93.7698 60.9588 93.5745 60.9268 93.2691 60.8842C92.9708 60.8345 92.6547 60.8097 92.3209 60.8097C91.5255 60.8097 90.8153 60.9766 90.1903 61.3104C89.5724 61.6371 89.0823 62.0916 88.7201 62.674C88.365 63.2493 88.1874 63.9062 88.1874 64.6449V75H85.6732ZM98.9527 81.1364C98.5265 81.1364 98.1466 81.1009 97.8128 81.0298C97.479 80.9659 97.2481 80.902 97.1203 80.8381L97.7595 78.6222C98.3703 78.7784 98.9101 78.8352 99.3788 78.7926C99.8476 78.75 100.263 78.5405 100.625 78.1641C100.995 77.7947 101.332 77.1946 101.637 76.3636L102.106 75.0852L96.055 58.6364H98.7822L103.299 71.6761H103.47L107.987 58.6364H110.714L103.768 77.3864C103.456 78.2315 103.068 78.9311 102.607 79.4851C102.145 80.0462 101.609 80.4616 100.998 80.7315C100.394 81.0014 99.7126 81.1364 98.9527 81.1364Z"></path>
</svg>
