<svg version="1.1" xmlns="http://www.w3.org/2000/svg" xmlns:xlink="http://www.w3.org/1999/xlink" width="237.76503" height="34.1578" viewBox="0,0,237.76503,34.1578"><g transform="translate(-121.11748,-162.9211)"><g data-paper-data="{&quot;isPaintingLayer&quot;:true}" fill="#ffffff" fill-rule="nonzero" stroke="none" stroke-width="1" stroke-linecap="butt" stroke-linejoin="miter" stroke-miterlimit="10" stroke-dasharray="" stroke-dashoffset="0" style="mix-blend-mode: normal"><path d="M124.24168,174.8823l-3.1242,-11.42563h1.40588l2.38776,9.30563h0.11157l2.43243,-9.30563h1.56208l2.4324,9.30563h0.11157l2.38779,-9.30563h1.40587l-3.12418,11.42563h-1.42822l-2.52166,-9.1048h-0.08925l-2.52169,9.1048zM138.21685,169.72738v5.15492h-1.31662v-11.42563h1.31662v4.19535h0.1116c0.20083,-0.44261 0.50207,-0.79405 0.90376,-1.05442c0.40542,-0.26407 0.94471,-0.39609 1.61789,-0.39609c0.58393,0 1.09533,0.11714 1.5342,0.35145c0.43887,0.23061 0.77919,0.5858 1.02093,1.06558c0.24547,0.47608 0.36821,1.0823 0.36821,1.81872v5.44504h-1.31662v-5.35575c0,-0.68065 -0.17667,-1.2069 -0.52999,-1.57885c-0.34962,-0.37564 -0.835,-0.56347 -1.45611,-0.56347c-0.43145,0 -0.81824,0.09112 -1.1604,0.27336c-0.33846,0.18228 -0.60625,0.4482 -0.80338,0.79779c-0.19339,0.34962 -0.29011,0.77363 -0.29011,1.272zM148.70383,175.08313c-0.54302,0 -1.0358,-0.10228 -1.47839,-0.30684c-0.44261,-0.20826 -0.79405,-0.50767 -1.05442,-0.8982c-0.26036,-0.39423 -0.39053,-0.87032 -0.39053,-1.42819c0,-0.49094 0.09672,-0.88891 0.29011,-1.19388c0.19339,-0.3087 0.4519,-0.55048 0.77547,-0.72529c0.32357,-0.17477 0.68061,-0.30498 1.07114,-0.3905c0.39426,-0.08928 0.79035,-0.15995 1.18831,-0.21203c0.52069,-0.06694 0.94285,-0.11714 1.26641,-0.15063c0.3273,-0.03718 0.56534,-0.09855 0.7141,-0.1841c0.15252,-0.08556 0.22875,-0.23432 0.22875,-0.4463v-0.04465c0,-0.55044 -0.15063,-0.97816 -0.4519,-1.28313c-0.29755,-0.30501 -0.74941,-0.45749 -1.35566,-0.45749c-0.62857,0 -1.12139,0.13763 -1.47843,0.41285c-0.35705,0.27523 -0.60809,0.56904 -0.75314,0.88148l-1.24968,-0.44633c0.22315,-0.52069 0.52069,-0.92608 0.89264,-1.21621c0.37564,-0.29382 0.78476,-0.49837 1.22736,-0.61368c0.4463,-0.11901 0.88517,-0.17851 1.31662,-0.17851c0.27523,0 0.59136,0.03345 0.94841,0.10041c0.36077,0.06323 0.70853,0.19526 1.04326,0.39609c0.33846,0.20086 0.61928,0.50397 0.84243,0.90936c0.22315,0.40542 0.33473,0.94844 0.33473,1.62905v5.64586h-1.31662v-1.16043h-0.06694c-0.08928,0.18597 -0.23804,0.38496 -0.44633,0.59696c-0.20826,0.21199 -0.48535,0.39239 -0.83123,0.54115c-0.34592,0.14879 -0.76803,0.22315 -1.26644,0.22315zM148.90469,173.90041c0.52069,0 0.95957,-0.10228 1.31662,-0.30684c0.36077,-0.20456 0.63227,-0.46862 0.81451,-0.79222c0.18597,-0.32357 0.27895,-0.66388 0.27895,-1.02093v-1.20504c-0.05577,0.06697 -0.17851,0.12834 -0.36821,0.1841c-0.18597,0.05207 -0.4017,0.09855 -0.64716,0.13946c-0.24174,0.03721 -0.47792,0.07069 -0.7085,0.10044c-0.22688,0.02602 -0.41099,0.04834 -0.55231,0.06694c-0.34219,0.04465 -0.66206,0.11717 -0.9596,0.21759c-0.29382,0.09669 -0.53186,0.24361 -0.7141,0.44074c-0.17851,0.19339 -0.26779,0.45746 -0.26779,0.79219c0,0.45749 0.16925,0.80338 0.5077,1.0377c0.34215,0.23058 0.77547,0.34589 1.2999,0.34589zM158.76126,166.31308v1.11579h-4.44076v-1.11579zM155.61464,164.26006h1.31671v8.16752c0,0.37194 0.05401,0.65087 0.16169,0.83683c0.1116,0.18224 0.253,0.30498 0.42417,0.36821c0.17477,0.0595 0.35872,0.08925 0.55215,0.08925c0.14499,0 0.26413,-0.00743 0.35708,-0.02229c0.09295,-0.01862 0.16758,-0.03348 0.22322,-0.04465l0.26772,1.18272c-0.08935,0.03348 -0.21373,0.06697 -0.37377,0.10044c-0.15972,0.03718 -0.36264,0.05577 -0.60812,0.05577c-0.3718,0 -0.73641,-0.07996 -1.09349,-0.23988c-0.35315,-0.15995 -0.64706,-0.40355 -0.88141,-0.73085c-0.23042,-0.3273 -0.34595,-0.74015 -0.34595,-1.23852zM165.16024,174.8823v-8.56922h1.31671v8.56922zM165.82989,164.88486c-0.25692,0 -0.47818,-0.08739 -0.66408,-0.2622c-0.18231,-0.17481 -0.27329,-0.38493 -0.27329,-0.63041c0,-0.24547 0.09099,-0.45563 0.27329,-0.63044c0.1859,-0.17481 0.40716,-0.2622 0.66408,-0.2622c0.2566,0 0.47588,0.08739 0.65819,0.2622c0.1859,0.17481 0.27885,0.38496 0.27885,0.63044c0,0.24547 -0.09295,0.45559 -0.27885,0.63041c-0.18231,0.17481 -0.4016,0.2622 -0.65819,0.2622zM174.95819,168.23223l-1.18252,0.33473c-0.07463,-0.1971 -0.18426,-0.38867 -0.32926,-0.5746c-0.14139,-0.1897 -0.33482,-0.34592 -0.58029,-0.46865c-0.24547,-0.12273 -0.55967,-0.1841 -0.94294,-0.1841c-0.52433,0 -0.96127,0.1209 -1.31083,0.36264c-0.34595,0.23804 -0.51876,0.54115 -0.51876,0.90936c0,0.3273 0.11881,0.5858 0.35675,0.77547c0.23827,0.1897 0.61008,0.34776 1.11608,0.47422l1.27187,0.3124c0.7662,0.18597 1.33701,0.47049 1.71274,0.85359c0.37574,0.37937 0.56328,0.86845 0.56328,1.46724c0,0.49094 -0.14106,0.92985 -0.42384,1.31665c-0.27885,0.3868 -0.66932,0.69178 -1.17172,0.91492c-0.50207,0.22315 -1.08597,0.33476 -1.75169,0.33476c-0.87388,0 -1.59753,-0.1897 -2.1703,-0.56908c-0.57277,-0.37937 -0.93508,-0.93355 -1.08761,-1.6625l1.24961,-0.31244c0.11881,0.4612 0.34399,0.80708 0.67488,1.0377c0.33482,0.23058 0.77176,0.34589 1.31115,0.34589c0.61368,0 1.10103,-0.13017 1.46171,-0.39053c0.36461,-0.26407 0.54659,-0.58019 0.54659,-0.94841c0,-0.29755 -0.10408,-0.54675 -0.31224,-0.74757c-0.20849,-0.20456 -0.52825,-0.35705 -0.95963,-0.45746l-1.42832,-0.33476c-0.78453,-0.18594 -1.36123,-0.47419 -1.72943,-0.86472c-0.36428,-0.39423 -0.54659,-0.88704 -0.54659,-1.47839c0,-0.48352 0.13583,-0.91123 0.40716,-1.28316c0.27526,-0.37194 0.64903,-0.66388 1.12132,-0.87588c0.47621,-0.21203 1.0156,-0.31801 1.61783,-0.31801c0.84803,0 1.51375,0.18597 1.99749,0.55788c0.48701,0.37194 0.83297,0.86288 1.03753,1.47283zM185.24152,166.31308v1.11579h-4.44076v-1.11579zM182.09522,164.26006h1.31639v8.16752c0,0.37194 0.05401,0.65087 0.16201,0.83683c0.1116,0.18224 0.25267,0.30498 0.42384,0.36821c0.17477,0.0595 0.35905,0.08925 0.55248,0.08925c0.14499,0 0.2638,-0.00743 0.35675,-0.02229c0.09328,-0.01862 0.16758,-0.03348 0.22322,-0.04465l0.26772,1.18272c-0.08902,0.03348 -0.21373,0.06697 -0.37377,0.10044c-0.15972,0.03718 -0.36264,0.05577 -0.60812,0.05577c-0.3718,0 -0.73641,-0.07996 -1.09317,-0.23988c-0.35348,-0.15995 -0.64739,-0.40355 -0.88174,-0.73085c-0.23042,-0.3273 -0.34563,-0.74015 -0.34563,-1.23852zM188.72298,169.72738v5.15492h-1.31671v-11.42563h1.31671v4.19535h0.11128c0.20096,-0.44261 0.5024,-0.79405 0.90399,-1.05442c0.40519,-0.26407 0.94458,-0.39609 1.61783,-0.39609c0.5839,0 1.09546,0.11714 1.53404,0.35145c0.4389,0.23061 0.77929,0.5858 1.02116,1.06558c0.24547,0.47608 0.36821,1.0823 0.36821,1.81872v5.44504h-1.31671v-5.35575c0,-0.68065 -0.17674,-1.2069 -0.52989,-1.57885c-0.34956,-0.37564 -0.83493,-0.56347 -1.45615,-0.56347c-0.43138,0 -0.81824,0.09112 -1.16059,0.27336c-0.33843,0.18228 -0.60615,0.4482 -0.80318,0.79779c-0.19343,0.34962 -0.28998,0.77363 -0.28998,1.272zM200.28081,175.06084c-0.82544,0 -1.53764,-0.18228 -2.13659,-0.54675c-0.59502,-0.36821 -1.05455,-0.88148 -1.37792,-1.53977c-0.31976,-0.66206 -0.47982,-1.43192 -0.47982,-2.3097c0,-0.87774 0.16005,-1.65134 0.47982,-2.32083c0.32337,-0.67319 0.7734,-1.19761 1.3501,-1.57325c0.58029,-0.37937 1.25715,-0.56904 2.03055,-0.56904c0.44643,0 0.8873,0.07436 1.32227,0.22315c0.4353,0.14876 0.83133,0.39053 1.18841,0.72526c0.35708,0.33102 0.64151,0.7699 0.85359,1.31662c0.21209,0.54675 0.31781,1.21993 0.31781,2.01959v0.55788h-6.60518v-1.13808h5.2662c0,-0.48352 -0.09655,-0.91495 -0.28998,-1.29433c-0.18951,-0.37937 -0.46116,-0.67878 -0.81464,-0.8982c-0.34956,-0.21945 -0.76227,-0.32916 -1.23849,-0.32916c-0.52433,0 -0.97796,0.13017 -1.36123,0.39053c-0.37934,0.25663 -0.67129,0.59136 -0.87584,1.00421c-0.20456,0.41281 -0.30668,0.85542 -0.30668,1.32778v0.75874c0,0.64713 0.1116,1.19575 0.3345,1.64577c0.22714,0.4463 0.54135,0.78663 0.94294,1.02093c0.4016,0.23058 0.86832,0.34589 1.40018,0.34589c0.34595,0 0.65852,-0.04834 0.93737,-0.14506c0.28278,-0.10041 0.5263,-0.24917 0.73085,-0.4463c0.20456,-0.20083 0.36264,-0.45003 0.47426,-0.74757l1.27187,0.35705c-0.13386,0.43145 -0.35872,0.81081 -0.67488,1.13811c-0.31617,0.32357 -0.70663,0.5765 -1.17172,0.75874c-0.46477,0.17851 -0.98745,0.26779 -1.56775,0.26779zM210.25058,174.8823v-8.56922h1.27187v1.29429h0.08935c0.15612,-0.42398 0.4389,-0.76803 0.84803,-1.0321c0.40912,-0.26407 0.87028,-0.39609 1.38349,-0.39609c0.09655,0 0.21765,0.00187 0.36264,0.00556c0.14499,0.00373 0.25464,0.00929 0.32926,0.01675v1.33894c-0.04484,-0.01116 -0.14696,-0.02788 -0.30701,-0.05021c-0.15612,-0.02606 -0.32173,-0.03904 -0.4965,-0.03904c-0.41665,0 -0.78846,0.08739 -1.11575,0.2622c-0.3237,0.17108 -0.58029,0.40912 -0.7698,0.7141c-0.1859,0.30127 -0.27918,0.6453 -0.27918,1.0321v5.42272zM219.42766,175.06084c-0.82544,0 -1.53764,-0.18228 -2.13659,-0.54675c-0.59502,-0.36821 -1.05455,-0.88148 -1.37792,-1.53977c-0.31976,-0.66206 -0.47982,-1.43192 -0.47982,-2.3097c0,-0.87774 0.16005,-1.65134 0.47982,-2.32083c0.32337,-0.67319 0.7734,-1.19761 1.3501,-1.57325c0.58029,-0.37937 1.25715,-0.56904 2.03055,-0.56904c0.44643,0 0.8873,0.07436 1.32227,0.22315c0.4353,0.14876 0.83133,0.39053 1.18841,0.72526c0.35708,0.33102 0.64151,0.7699 0.85359,1.31662c0.21209,0.54675 0.31781,1.21993 0.31781,2.01959v0.55788h-6.60518v-1.13808h5.2662c0,-0.48352 -0.09655,-0.91495 -0.28998,-1.29433c-0.18951,-0.37937 -0.46116,-0.67878 -0.81464,-0.8982c-0.34956,-0.21945 -0.76227,-0.32916 -1.23849,-0.32916c-0.52433,0 -0.97796,0.13017 -1.36123,0.39053c-0.37934,0.25663 -0.67129,0.59136 -0.87584,1.00421c-0.20456,0.41281 -0.30668,0.85542 -0.30668,1.32778v0.75874c0,0.64713 0.1116,1.19575 0.3345,1.64577c0.22714,0.4463 0.54135,0.78663 0.94294,1.02093c0.4016,0.23058 0.86832,0.34589 1.40018,0.34589c0.34595,0 0.65852,-0.04834 0.93737,-0.14506c0.28278,-0.10041 0.5263,-0.24917 0.73085,-0.4463c0.20456,-0.20083 0.36264,-0.45003 0.47426,-0.74757l1.27187,0.35705c-0.13386,0.43145 -0.35872,0.81081 -0.67488,1.13811c-0.31617,0.32357 -0.70663,0.5765 -1.17172,0.75874c-0.46477,0.17851 -0.98745,0.26779 -1.56775,0.26779zM231.04865,168.23223l-1.18252,0.33473c-0.07463,-0.1971 -0.18426,-0.38867 -0.32926,-0.5746c-0.14139,-0.1897 -0.33482,-0.34592 -0.58029,-0.46865c-0.24547,-0.12273 -0.55967,-0.1841 -0.94294,-0.1841c-0.52433,0 -0.96127,0.1209 -1.31083,0.36264c-0.34595,0.23804 -0.51876,0.54115 -0.51876,0.90936c0,0.3273 0.11881,0.5858 0.35675,0.77547c0.23827,0.1897 0.61008,0.34776 1.11608,0.47422l1.27187,0.3124c0.7662,0.18597 1.33701,0.47049 1.71274,0.85359c0.37574,0.37937 0.56328,0.86845 0.56328,1.46724c0,0.49094 -0.14106,0.92985 -0.42384,1.31665c-0.27885,0.3868 -0.66932,0.69178 -1.17172,0.91492c-0.50207,0.22315 -1.08597,0.33476 -1.75169,0.33476c-0.87388,0 -1.59753,-0.1897 -2.1703,-0.56908c-0.57277,-0.37937 -0.93508,-0.93355 -1.08761,-1.6625l1.24961,-0.31244c0.11881,0.4612 0.34399,0.80708 0.67488,1.0377c0.33482,0.23058 0.77176,0.34589 1.31115,0.34589c0.61368,0 1.10103,-0.13017 1.46171,-0.39053c0.36461,-0.26407 0.54659,-0.58019 0.54659,-0.94841c0,-0.29755 -0.10408,-0.54675 -0.31224,-0.74757c-0.20849,-0.20456 -0.52825,-0.35705 -0.95963,-0.45746l-1.42832,-0.33476c-0.78453,-0.18594 -1.36123,-0.47419 -1.72943,-0.86472c-0.36428,-0.39423 -0.54659,-0.88704 -0.54659,-1.47839c0,-0.48352 0.13583,-0.91123 0.40716,-1.28316c0.27526,-0.37194 0.64903,-0.66388 1.12132,-0.87588c0.47621,-0.21203 1.0156,-0.31801 1.61783,-0.31801c0.84803,0 1.51375,0.18597 1.99749,0.55788c0.48701,0.37194 0.83297,0.86288 1.03753,1.47283zM238.58727,171.37875v-5.06567h1.31671v8.56922h-1.31671v-1.45051h-0.08935c-0.20096,0.43514 -0.5132,0.80522 -0.93737,1.11019c-0.42384,0.30127 -0.9593,0.4519 -1.6067,0.4519c-0.53546,0 -1.01167,-0.11714 -1.42799,-0.35148c-0.41665,-0.23801 -0.74395,-0.59506 -0.98189,-1.07114c-0.23827,-0.47978 -0.35708,-1.08417 -0.35708,-1.81315v-5.44501h1.31671v5.35575c0,0.62484 0.17477,1.12321 0.52433,1.49516c0.35315,0.37194 0.80318,0.55788 1.3501,0.55788c0.3273,0 0.66016,-0.08366 0.99858,-0.25104c0.34202,-0.16738 0.62841,-0.42401 0.85916,-0.7699c0.23435,-0.34589 0.35151,-0.78663 0.35151,-1.32218zM243.63189,163.45667v11.42563h-1.31671v-11.42563zM249.77001,166.31308v1.11579h-4.44076v-1.11579zM246.62371,164.26006h1.31671v8.16752c0,0.37194 0.05368,0.65087 0.16169,0.83683c0.1116,0.18224 0.253,0.30498 0.42384,0.36821c0.17477,0.0595 0.35905,0.08925 0.55248,0.08925c0.14499,0 0.26413,-0.00743 0.35708,-0.02229c0.09295,-0.01862 0.16725,-0.03348 0.22322,-0.04465l0.26772,1.18272c-0.08935,0.03348 -0.21406,0.06697 -0.37377,0.10044c-0.16005,0.03718 -0.36264,0.05577 -0.60812,0.05577c-0.37213,0 -0.73641,-0.07996 -1.09349,-0.23988c-0.35348,-0.15995 -0.64706,-0.40355 -0.88141,-0.73085c-0.23075,-0.3273 -0.34595,-0.74015 -0.34595,-1.23852zM259.65044,175.06084c-0.77373,0 -1.45254,-0.1841 -2.03644,-0.55231c-0.57996,-0.36821 -1.03393,-0.88334 -1.36123,-1.54536c-0.32337,-0.66206 -0.48539,-1.43566 -0.48539,-2.32083c0,-0.89264 0.16201,-1.67183 0.48539,-2.33758c0.3273,-0.66575 0.78125,-1.18272 1.36123,-1.55093c0.5839,-0.36821 1.26271,-0.55231 2.03644,-0.55231c0.77373,0 1.45058,0.1841 2.03055,0.55231c0.58422,0.36821 1.03786,0.88517 1.36156,1.55093c0.3273,0.66575 0.49094,1.44495 0.49094,2.33758c0,0.88517 -0.16364,1.65877 -0.49094,2.32083c-0.3237,0.66203 -0.77733,1.17715 -1.36156,1.54536c-0.57996,0.36821 -1.25682,0.55231 -2.03055,0.55231zM259.65044,173.87809c0.5875,0 1.07124,-0.15063 1.45058,-0.4519c0.37934,-0.30124 0.66016,-0.69734 0.84246,-1.18828c0.18198,-0.49094 0.27329,-1.0228 0.27329,-1.59557c0,-0.57277 -0.09131,-1.10649 -0.27329,-1.60117c-0.18231,-0.49468 -0.46313,-0.89447 -0.84246,-1.19947c-0.37934,-0.30498 -0.86308,-0.45746 -1.45058,-0.45746c-0.58783,0 -1.07124,0.15248 -1.45058,0.45746c-0.37934,0.30501 -0.66016,0.70481 -0.84246,1.19947c-0.18231,0.49468 -0.27329,1.0284 -0.27329,1.60117c0,0.57277 0.09099,1.10462 0.27329,1.59557c0.18231,0.49094 0.46313,0.88704 0.84246,1.18828c0.37934,0.30127 0.86275,0.4519 1.45058,0.4519zM269.35904,166.31308v1.11579h-4.61914v-1.11579zM266.12339,174.8823v-9.75196c0,-0.49094 0.11521,-0.90007 0.34595,-1.22736c0.23042,-0.3273 0.52989,-0.57277 0.8981,-0.73641c0.36821,-0.16363 0.75704,-0.24546 1.16615,-0.24546c0.32337,0 0.5875,0.02604 0.79206,0.07811c0.20456,0.05207 0.35708,0.10042 0.45756,0.14506l-0.37934,1.13808c-0.0671,-0.02229 -0.16005,-0.05021 -0.27918,-0.08366c-0.11521,-0.03348 -0.26772,-0.05024 -0.45723,-0.05024c-0.4353,0 -0.74951,0.10974 -0.94294,0.32916c-0.18983,0.21945 -0.28442,0.54115 -0.28442,0.96517v9.43953zM279.17107,175.03852c-0.65459,0 -1.24406,-0.1302 -1.76839,-0.39053c-0.52466,-0.26036 -0.94491,-0.61741 -1.26107,-1.07114c-0.31617,-0.45377 -0.48898,-0.97073 -0.51876,-1.55097h1.33897c0.05204,0.517 0.28639,0.94471 0.70304,1.28316c0.42025,0.33473 0.92232,0.50211 1.50622,0.50211c0.46869,0 0.88533,-0.10974 1.24961,-0.32916c0.36821,-0.21945 0.65656,-0.52069 0.86472,-0.90379c0.21209,-0.3868 0.31814,-0.8238 0.31814,-1.31105c0,-0.49837 -0.10965,-0.94281 -0.32926,-1.33334c-0.21568,-0.39426 -0.5132,-0.70481 -0.89254,-0.93168c-0.37934,-0.22688 -0.81268,-0.34219 -1.30003,-0.34589c-0.34956,-0.00373 -0.7086,0.05021 -1.07681,0.16179c-0.36821,0.10785 -0.67129,0.24733 -0.90923,0.41842l-1.29413,-0.15622l0.69158,-5.62355h5.93618v1.22736h-4.77559l-0.40193,3.36968h0.0671c0.23435,-0.18597 0.52825,-0.34032 0.88141,-0.46306c0.35348,-0.12273 0.72169,-0.1841 1.10462,-0.1841c0.6991,0 1.32227,0.16738 1.86886,0.50211c0.55051,0.33099 0.98189,0.78476 1.29446,1.36126c0.31617,0.57647 0.47426,1.23479 0.47426,1.97494c0,0.72895 -0.16364,1.37985 -0.49094,1.95262c-0.3237,0.56904 -0.77013,1.01907 -1.33897,1.3501c-0.56917,0.3273 -1.21624,0.49094 -1.94152,0.49094zM289.59939,174.8823v-8.56922h1.2722v1.33894h0.11128c0.17871,-0.45746 0.46705,-0.81268 0.86504,-1.06558c0.39767,-0.25663 0.87584,-0.38493 1.43356,-0.38493c0.56524,0 1.0359,0.1283 1.41163,0.38493c0.37934,0.2529 0.67488,0.60812 0.88697,1.06558h0.08935c0.21929,-0.44261 0.54854,-0.79405 0.98745,-1.05442c0.4389,-0.26407 0.9652,-0.39609 1.57888,-0.39609c0.76588,0 1.39265,0.23988 1.87999,0.71966c0.48734,0.47608 0.73085,1.21806 0.73085,2.22601v5.73512h-1.31671v-5.73512c0,-0.63227 -0.17281,-1.08417 -0.51876,-1.35569c-0.34595,-0.27149 -0.75311,-0.40726 -1.2218,-0.40726c-0.60255,0 -1.06928,0.18224 -1.40018,0.54675c-0.33122,0.36074 -0.49683,0.81824 -0.49683,1.37239v5.57894h-1.33864v-5.86902c0,-0.48724 -0.15809,-0.87961 -0.47426,-1.17715c-0.31617,-0.30127 -0.72366,-0.4519 -1.2218,-0.4519c-0.34235,0 -0.66212,0.09112 -0.95963,0.27336c-0.29391,0.18228 -0.53186,0.43517 -0.71416,0.75874c-0.17838,0.31986 -0.26772,0.68994 -0.26772,1.11023v5.35575zM308.65427,171.37875v-5.06567h1.31671v8.56922h-1.31671v-1.45051h-0.08935c-0.20063,0.43514 -0.5132,0.80522 -0.93705,1.11019c-0.42417,0.30127 -0.95963,0.4519 -1.60702,0.4519c-0.53546,0 -1.01134,-0.11714 -1.42799,-0.35148c-0.41665,-0.23801 -0.74395,-0.59506 -0.98189,-1.07114c-0.23794,-0.47978 -0.35708,-1.08417 -0.35708,-1.81315v-5.44501h1.31671v5.35575c0,0.62484 0.17477,1.12321 0.52433,1.49516c0.35315,0.37194 0.80318,0.55788 1.3501,0.55788c0.3273,0 0.66016,-0.08366 0.99858,-0.25104c0.34235,-0.16738 0.62874,-0.42401 0.85916,-0.7699c0.23435,-0.34589 0.35151,-0.78663 0.35151,-1.32218zM313.69889,163.45667v11.42563h-1.31639v-11.42563zM319.83734,166.31308v1.11579h-4.44109v-1.11579zM316.69071,164.26006h1.31671v8.16752c0,0.37194 0.05368,0.65087 0.16169,0.83683c0.1116,0.18224 0.253,0.30498 0.42384,0.36821c0.1751,0.0595 0.35905,0.08925 0.55248,0.08925c0.14499,0 0.26413,-0.00743 0.35708,-0.02229c0.09295,-0.01862 0.16725,-0.03348 0.22322,-0.04465l0.26772,1.18272c-0.08935,0.03348 -0.21406,0.06697 -0.37377,0.10044c-0.16005,0.03718 -0.36264,0.05577 -0.60812,0.05577c-0.37213,0 -0.73641,-0.07996 -1.09349,-0.23988c-0.35348,-0.15995 -0.64706,-0.40355 -0.88141,-0.73085c-0.23075,-0.3273 -0.34595,-0.74015 -0.34595,-1.23852zM321.81781,174.8823v-8.56922h1.31639v8.56922zM322.48713,164.88486c-0.2566,0 -0.47785,-0.08739 -0.66375,-0.2622c-0.18231,-0.17481 -0.27329,-0.38493 -0.27329,-0.63041c0,-0.24547 0.09099,-0.45563 0.27329,-0.63044c0.1859,-0.17481 0.40716,-0.2622 0.66375,-0.2622c0.2566,0 0.47621,0.08739 0.65852,0.2622c0.1859,0.17481 0.27885,0.38496 0.27885,0.63044c0,0.24547 -0.09295,0.45559 -0.27885,0.63041c-0.18231,0.17481 -0.40193,0.2622 -0.65852,0.2622zM325.54572,178.09576v-11.78268h1.2722v1.36126h0.15612c0.09655,-0.14879 0.23075,-0.33846 0.4016,-0.56908c0.17477,-0.23432 0.42417,-0.44257 0.74754,-0.62484c0.3273,-0.18594 0.77013,-0.27892 1.32784,-0.27892c0.72169,0 1.35763,0.18038 1.90814,0.54115c0.55051,0.36077 0.97992,0.87218 1.28857,1.5342c0.30864,0.66203 0.46313,1.44309 0.46313,2.34315c0,0.90749 -0.15448,1.69412 -0.46313,2.35987c-0.30864,0.66203 -0.73641,1.17528 -1.283,1.53977c-0.54692,0.36077 -1.17728,0.54118 -1.89145,0.54118c-0.55018,0 -0.99105,-0.09115 -1.32195,-0.27339c-0.33122,-0.18597 -0.58586,-0.39609 -0.76457,-0.63041c-0.17838,-0.23804 -0.31617,-0.43517 -0.41272,-0.59136h-0.1116v4.53008zM326.84018,170.59769c0,0.64716 0.09492,1.21806 0.28442,1.71271c0.18983,0.49094 0.46672,0.87591 0.83133,1.15486c0.36461,0.27523 0.81071,0.41281 1.33897,0.41281c0.55051,0 1.00971,-0.14506 1.37792,-0.43514c0.3718,-0.29385 0.651,-0.68807 0.8369,-1.18275c0.18951,-0.49837 0.28442,-1.05255 0.28442,-1.6625c0,-0.60252 -0.09295,-1.14553 -0.27885,-1.62905c-0.18231,-0.48721 -0.4592,-0.87218 -0.83133,-1.15483c-0.36821,-0.28639 -0.83133,-0.42958 -1.38905,-0.42958c-0.53546,0 -0.98549,0.13576 -1.3501,0.40726c-0.36461,0.26779 -0.63987,0.64343 -0.82577,1.12695c-0.1859,0.47978 -0.27885,1.03952 -0.27885,1.67926zM336.43587,163.45667v11.42563h-1.31671v-11.42563zM338.84739,174.8823v-8.56922h1.31671v8.56922zM339.51671,164.88486c-0.2566,0 -0.47785,-0.08739 -0.66375,-0.2622c-0.18231,-0.17481 -0.27329,-0.38493 -0.27329,-0.63041c0,-0.24547 0.09099,-0.45563 0.27329,-0.63044c0.1859,-0.17481 0.40716,-0.2622 0.66375,-0.2622c0.2566,0 0.47621,0.08739 0.65852,0.2622c0.1859,0.17481 0.27885,0.38496 0.27885,0.63044c0,0.24547 -0.09295,0.45559 -0.27885,0.63041c-0.18231,0.17481 -0.40193,0.2622 -0.65852,0.2622zM346.16836,175.06084c-0.82577,0 -1.53797,-0.18228 -2.13692,-0.54675c-0.59502,-0.36821 -1.05422,-0.88148 -1.37792,-1.53977c-0.31976,-0.66206 -0.47982,-1.43192 -0.47982,-2.3097c0,-0.87774 0.16005,-1.65134 0.47982,-2.32083c0.3237,-0.67319 0.77373,-1.19761 1.3501,-1.57325c0.58029,-0.37937 1.25715,-0.56904 2.03088,-0.56904c0.4461,0 0.88697,0.07436 1.32227,0.22315c0.43497,0.14876 0.831,0.39053 1.18808,0.72526c0.35708,0.33102 0.64151,0.7699 0.85359,1.31662c0.21209,0.54675 0.31814,1.21993 0.31814,2.01959v0.55788h-6.6055v-1.13808h5.26653c0,-0.48352 -0.09688,-0.91495 -0.29031,-1.29433c-0.18951,-0.37937 -0.46116,-0.67878 -0.81431,-0.8982c-0.34956,-0.21945 -0.7626,-0.32916 -1.23849,-0.32916c-0.52466,0 -0.97829,0.13017 -1.36123,0.39053c-0.37934,0.25663 -0.67129,0.59136 -0.87584,1.00421c-0.20456,0.41281 -0.30701,0.85542 -0.30701,1.32778v0.75874c0,0.64713 0.1116,1.19575 0.33482,1.64577c0.22681,0.4463 0.54102,0.78663 0.94262,1.02093c0.40193,0.23058 0.86865,0.34589 1.4005,0.34589c0.34595,0 0.65819,-0.04834 0.93705,-0.14506c0.28278,-0.10041 0.5263,-0.24917 0.73085,-0.4463c0.20456,-0.20083 0.36264,-0.45003 0.47426,-0.74757l1.2722,0.35705c-0.13386,0.43145 -0.35905,0.81081 -0.67521,1.13811c-0.31617,0.32357 -0.70663,0.5765 -1.1714,0.75874c-0.46508,0.17851 -0.98745,0.26779 -1.56775,0.26779zM354.95496,175.06084c-0.71384,0 -1.34453,-0.18041 -1.89112,-0.54118c-0.54659,-0.36448 -0.97436,-0.87774 -1.283,-1.53977c-0.30896,-0.66575 -0.46313,-1.45238 -0.46313,-2.35987c0,-0.90007 0.15415,-1.68113 0.46313,-2.34315c0.30864,-0.66203 0.73805,-1.17343 1.28857,-1.5342c0.55051,-0.36077 1.18645,-0.54115 1.90814,-0.54115c0.55772,0 0.99858,0.09298 1.32195,0.27892c0.3273,0.18228 0.5767,0.39053 0.74754,0.62484c0.1751,0.23061 0.3106,0.42028 0.40748,0.56908h0.1116v-4.21767h1.31639v11.42563h-1.27187v-1.31662h-0.15612c-0.09688,0.15619 -0.23435,0.35331 -0.41304,0.59136c-0.17838,0.23432 -0.43302,0.44443 -0.76424,0.63041c-0.33089,0.18224 -0.77176,0.27339 -1.32227,0.27339zM355.13367,173.87809c0.52825,0 0.97436,-0.1376 1.33897,-0.41281c0.36428,-0.27895 0.64151,-0.66392 0.83133,-1.15486c0.18951,-0.49465 0.28442,-1.06555 0.28442,-1.71271c0,-0.63974 -0.09295,-1.19947 -0.27885,-1.67926c-0.18623,-0.48352 -0.46116,-0.85916 -0.82577,-1.12695c-0.36461,-0.27149 -0.81464,-0.40726 -1.3501,-0.40726c-0.55804,0 -1.0228,0.14319 -1.39461,0.42958c-0.36821,0.28265 -0.64543,0.66762 -0.83133,1.15483c-0.18231,0.48352 -0.27329,1.02654 -0.27329,1.62905c0,0.60995 0.09295,1.16413 0.27885,1.6625c0.18951,0.49468 0.46869,0.88891 0.8369,1.18275c0.3718,0.29008 0.83297,0.43514 1.38349,0.43514zM122.16632,193.86551v-11.42563h1.31663v4.21767h0.11158c0.0967,-0.14879 0.23059,-0.33846 0.40169,-0.56908c0.17481,-0.23432 0.42398,-0.44257 0.74758,-0.62484c0.3273,-0.18594 0.76986,-0.27892 1.32778,-0.27892c0.72153,0 1.35753,0.18038 1.90797,0.54115c0.55048,0.36077 0.98006,0.87218 1.28873,1.5342c0.3087,0.66203 0.46306,1.44309 0.46306,2.34315c0,0.90749 -0.15435,1.69412 -0.46306,2.35987c-0.30867,0.66196 -0.73641,1.17515 -1.28313,1.53977c-0.54675,0.36068 -1.17715,0.54102 -1.89125,0.54102c-0.55044,0 -0.99118,-0.09099 -1.32221,-0.27329c-0.33102,-0.1859 -0.5858,-0.39603 -0.76431,-0.63038c-0.17852,-0.23794 -0.31614,-0.43497 -0.41283,-0.59132h-0.15621v1.31662zM123.46063,189.5809c0,0.64716 0.09484,1.21806 0.28453,1.71271c0.18968,0.49094 0.46677,0.87591 0.83125,1.15486c0.36448,0.2751 0.81081,0.41288 1.33894,0.41288c0.55044,0 1.00977,-0.14499 1.37798,-0.4352c0.37194,-0.29385 0.6509,-0.68807 0.83687,-1.18275c0.18967,-0.49837 0.28452,-1.05255 0.28452,-1.6625c0,-0.60252 -0.09298,-1.14553 -0.27895,-1.62905c-0.18224,-0.48721 -0.45933,-0.87218 -0.83126,-1.15483c-0.36821,-0.28639 -0.83123,-0.42958 -1.38914,-0.42958c-0.53556,0 -0.98559,0.13576 -1.3501,0.40726c-0.36448,0.26779 -0.63971,0.64343 -0.82567,1.12695c-0.18596,0.47978 -0.27894,1.03952 -0.27894,1.67926zM132.28647,197.0789c-0.22315,0 -0.42212,-0.01865 -0.59693,-0.05564c-0.17481,-0.03371 -0.29568,-0.0671 -0.36264,-0.10048l0.33473,-1.16059c0.31986,0.08182 0.60252,0.1116 0.84799,0.08935c0.24547,-0.02226 0.46306,-0.1319 0.65277,-0.32926c0.19339,-0.19311 0.37005,-0.50763 0.52999,-0.94262l0.24547,-0.66965l-3.16882,-8.61372h1.42819l2.36548,6.82858h0.08925l2.36548,-6.82858h1.42819l-3.63745,9.81883c-0.16364,0.44251 -0.36634,0.80908 -0.60812,1.09906c-0.24174,0.29391 -0.52256,0.51156 -0.84239,0.65263c-0.31617,0.14139 -0.67322,0.21209 -1.07117,0.21209zM144.93668,193.86551l5.11028,-10.10901v-0.08925h-5.89134v-1.22736h7.31956v1.29433l-5.08799,10.1313zM155.29519,190.65204v-0.06694c0.00753,-0.7104 0.08182,-1.27574 0.22322,-1.69599c0.14139,-0.42028 0.34235,-0.7606 0.60255,-1.02097c0.26053,-0.26033 0.57277,-0.50024 0.93737,-0.71966c0.21929,-0.1339 0.41665,-0.29198 0.59142,-0.47422c0.17477,-0.18597 0.31224,-0.39983 0.41272,-0.64157c0.10408,-0.24178 0.15612,-0.50953 0.15612,-0.80338c0,-0.36448 -0.08543,-0.68061 -0.2566,-0.94841c-0.17118,-0.26779 -0.39963,-0.47422 -0.68601,-0.61925c-0.28639,-0.14506 -0.60452,-0.21759 -0.95407,-0.21759c-0.30504,0 -0.59896,0.06323 -0.88141,0.18967c-0.28278,0.12647 -0.51909,0.32547 -0.7086,0.59696c-0.18983,0.27149 -0.29947,0.62671 -0.32926,1.06558h-1.40583c0.02975,-0.63227 0.19339,-1.17343 0.49094,-1.62346c0.30121,-0.45003 0.69724,-0.79409 1.18818,-1.03213c0.49488,-0.23801 1.04342,-0.35705 1.64597,-0.35705c0.65459,0 1.22344,0.1302 1.70718,0.39053c0.48701,0.26036 0.86275,0.61741 1.12688,1.07114c0.26772,0.45377 0.4016,0.97076 0.4016,1.55097c0,0.40912 -0.06317,0.77919 -0.18951,1.11019c-0.12273,0.33102 -0.30144,0.62671 -0.53579,0.88707c-0.23042,0.26033 -0.5096,0.49094 -0.8369,0.69178c-0.3273,0.20456 -0.58947,0.42028 -0.7865,0.64716c-0.19703,0.22315 -0.34038,0.48908 -0.42941,0.79779c-0.08935,0.30867 -0.13779,0.69364 -0.14532,1.15483v0.06694zM156.00935,193.95486c-0.27526,0 -0.51124,-0.09852 -0.7086,-0.29588c-0.19703,-0.19703 -0.29555,-0.43335 -0.29555,-0.70827c0,-0.27526 0.09852,-0.51156 0.29555,-0.70866c0.19736,-0.19713 0.43335,-0.29568 0.7086,-0.29568c0.27526,0 0.51156,0.09855 0.7086,0.29568c0.19703,0.1971 0.29555,0.43341 0.29555,0.70866c0,0.18198 -0.04648,0.34956 -0.13943,0.50207c-0.08902,0.15252 -0.21013,0.27526 -0.36264,0.36821c-0.14859,0.08902 -0.31617,0.13386 -0.50207,0.13386z"/></g></g></svg>