<svg version="1.1" xmlns="http://www.w3.org/2000/svg" xmlns:xlink="http://www.w3.org/1999/xlink" width="217.7879" height="38.51343" viewBox="0,0,217.7879,38.51343"><g transform="translate(-131.10605,-160.74329)"><g data-paper-data="{&quot;isPaintingLayer&quot;:true}" fill="#ffffff" fill-rule="nonzero" stroke="none" stroke-width="1" stroke-linecap="butt" stroke-linejoin="miter" stroke-miterlimit="10" stroke-dasharray="" stroke-dashoffset="0" style="mix-blend-mode: normal"><path d="M134.62862,174.22972l-3.52257,-12.88256h1.58515l2.69224,10.49223h0.12581l2.74261,-10.49223h1.76128l2.74257,10.49223h0.12581l2.69228,-10.49223h1.58514l-3.52255,12.88256h-1.61035l-2.84321,-10.26579h-0.10063l-2.84324,10.26579zM150.38584,168.41746v5.81225h-1.4845v-12.88256h1.4845v4.73032h0.12584c0.22644,-0.49904 0.56609,-0.8953 1.01901,-1.18888c0.45712,-0.29773 1.06517,-0.4466 1.82419,-0.4466c0.65839,0 1.235,0.13207 1.72984,0.39627c0.49483,0.26002 0.87855,0.66049 1.15112,1.20146c0.27678,0.53679 0.41516,1.22032 0.41516,2.05063v6.13936h-1.4845v-6.03869c0,-0.76744 -0.19921,-1.3608 -0.59757,-1.78017c-0.3942,-0.42354 -0.94147,-0.63533 -1.64179,-0.63533c-0.48646,0 -0.92258,0.10274 -1.30837,0.30821c-0.38162,0.20551 -0.68355,0.50535 -0.90583,0.89951c-0.21806,0.3942 -0.32711,0.87228 -0.32711,1.4342zM159.36685,174.22972v-9.66192h1.4845v9.66192zM160.12167,162.95747c-0.28932,0 -0.53886,-0.09855 -0.74854,-0.29565c-0.20547,-0.19709 -0.30821,-0.43404 -0.30821,-0.7108c0,-0.27678 0.10274,-0.5137 0.30821,-0.7108c0.20968,-0.19709 0.45922,-0.29565 0.74854,-0.29565c0.28936,0 0.53679,0.09855 0.74228,0.29565c0.20968,0.19709 0.31453,0.43403 0.31453,0.7108c0,0.27678 -0.10484,0.51371 -0.31453,0.7108c-0.20547,0.19709 -0.45291,0.29565 -0.74228,0.29565zM167.49552,174.43102c-0.90583,0 -1.68581,-0.21389 -2.33999,-0.64163c-0.65422,-0.42774 -1.15743,-1.01694 -1.50967,-1.76759c-0.35227,-0.75061 -0.52842,-1.60821 -0.52842,-2.57271c0,-0.9813 0.18035,-1.84726 0.541,-2.59791c0.36483,-0.75486 0.87224,-1.34405 1.52226,-1.76759c0.65418,-0.42774 1.41742,-0.6416 2.28965,-0.6416c0.6792,0 1.29142,0.12581 1.83685,0.37741c0.54506,0.2516 0.99159,0.60389 1.33958,1.05676c0.34836,0.45291 0.56425,0.9813 0.64802,1.58517h-1.48462c-0.11292,-0.44033 -0.3646,-0.83032 -0.75467,-1.17002c-0.38564,-0.34386 -0.90597,-0.5158 -1.56001,-0.5158c-0.57871,0 -1.08614,0.15097 -1.52226,0.45291c-0.43195,0.29773 -0.76951,0.71917 -1.01274,1.26434c-0.23906,0.54096 -0.35855,1.17629 -0.35855,1.90598c0,0.74644 0.11742,1.39645 0.35225,1.95c0.23902,0.55355 0.57451,0.98339 1.00646,1.28951c0.43612,0.30612 0.94775,0.45918 1.53484,0.45918c0.38578,0 0.73596,-0.06709 1.05037,-0.20127c0.31479,-0.13422 0.58085,-0.32711 0.79896,-0.57871c0.21809,-0.2516 0.37309,-0.55355 0.46535,-0.90583h1.48462c-0.08377,0.57034 -0.29153,1.08403 -0.62256,1.54115c-0.32733,0.45288 -0.76131,0.81353 -1.30231,1.08193c-0.53658,0.26419 -1.16134,0.39631 -1.87442,0.39631zM174.9497,168.41746v5.81225h-1.48462v-12.88256h1.48462v4.73032h0.12547c0.22659,-0.49904 0.56647,-0.8953 1.01927,-1.18888c0.45686,-0.29773 1.06502,-0.4466 1.82413,-0.4466c0.65835,0 1.23515,0.13207 1.72965,0.39627c0.49487,0.26002 0.87866,0.66049 1.15138,1.20146c0.27678,0.53679 0.41516,1.22032 0.41516,2.05063v6.13936h-1.48462v-6.03869c0,-0.76744 -0.19928,-1.3608 -0.59746,-1.78017c-0.39413,-0.42354 -0.9414,-0.63533 -1.64183,-0.63533c-0.48639,0 -0.92258,0.10274 -1.30858,0.30821c-0.38158,0.20551 -0.68345,0.50535 -0.9056,0.89951c-0.21809,0.3942 -0.32696,0.87228 -0.32696,1.4342zM192.83778,174.43102c-0.87239,0 -1.63777,-0.20758 -2.29612,-0.62274c-0.65429,-0.41516 -1.16577,-0.99598 -1.53481,-1.74242c-0.36497,-0.74648 -0.54728,-1.61872 -0.54728,-2.61677c0,-1.00646 0.1823,-1.88501 0.54728,-2.63566c0.36903,-0.75065 0.88051,-1.33353 1.53481,-1.74869c0.65835,-0.41516 1.42372,-0.62274 2.29612,-0.62274c0.87202,0 1.63518,0.20758 2.28948,0.62274c0.65835,0.41516 1.1702,0.99805 1.53481,1.74869c0.36903,0.75065 0.55355,1.6292 0.55355,2.63566c0,0.99805 -0.18452,1.87029 -0.55355,2.61677c-0.3646,0.74644 -0.87645,1.32726 -1.53481,1.74242c-0.65429,0.41516 -1.41745,0.62274 -2.28948,0.62274zM192.83778,173.09745c0.66241,0 1.20747,-0.16983 1.63518,-0.50952c0.42771,-0.33965 0.74433,-0.78626 0.94989,-1.33981c0.20555,-0.55355 0.30815,-1.15322 0.30815,-1.79903c0,-0.64581 -0.10259,-1.24759 -0.30815,-1.80534c-0.20555,-0.55776 -0.52218,-1.00853 -0.94989,-1.35243c-0.42771,-0.34386 -0.97276,-0.5158 -1.63518,-0.5158c-0.66279,0 -1.20784,0.17194 -1.63555,0.5158c-0.42771,0.3439 -0.74433,0.79467 -0.94989,1.35243c-0.20555,0.55776 -0.30815,1.15954 -0.30815,1.80534c0,0.64581 0.10259,1.24548 0.30815,1.79903c0.20555,0.55355 0.52218,1.00015 0.94989,1.33981c0.42771,0.33969 0.97276,0.50952 1.63555,0.50952zM203.78437,164.5678v1.25806h-5.20852v-1.25806zM200.13612,174.22972v-10.99547c0,-0.55356 0.12989,-1.01484 0.38969,-1.38387c0.26016,-0.36903 0.59783,-0.64581 1.01299,-0.83032c0.41516,-0.18452 0.8532,-0.27677 1.31449,-0.27677c0.36497,0 0.66279,0.02936 0.89342,0.08807c0.23065,0.05871 0.40261,0.11322 0.51554,0.16354l-0.42771,1.28323c-0.07528,-0.02517 -0.18008,-0.05662 -0.31441,-0.09435c-0.12989,-0.03774 -0.30187,-0.05662 -0.5159,-0.05662c-0.49045,0 -0.84471,0.12371 -1.06282,0.37113c-0.21403,0.24742 -0.32106,0.61016 -0.32106,1.08822v10.64321zM215.0487,164.5678v1.25806h-5.00702v-1.25806zM211.50083,162.25295h1.48462v9.20902c0,0.41937 0.06089,0.73386 0.1823,0.94354c0.12584,0.20547 0.28526,0.34386 0.47827,0.41516c0.19706,0.06709 0.40483,0.10063 0.62256,0.10063c0.16385,0 0.29781,-0.00837 0.40261,-0.02513c0.1048,-0.021 0.18894,-0.03775 0.25168,-0.05034l0.30187,1.33353c-0.10038,0.03775 -0.24098,0.0755 -0.42143,0.11325c-0.18008,0.04192 -0.40889,0.06288 -0.68566,0.06288c-0.41922,0 -0.83032,-0.09015 -1.23294,-0.27046c-0.39819,-0.18035 -0.72958,-0.45502 -0.9938,-0.82405c-0.2598,-0.36903 -0.39007,-0.83453 -0.39007,-1.39645zM218.97372,168.41746v5.81225h-1.48424v-12.88256h1.48424v4.73032h0.12584c0.22659,-0.49904 0.56609,-0.8953 1.01927,-1.18888c0.45686,-0.29773 1.06502,-0.4466 1.82413,-0.4466c0.65835,0 1.23478,0.13207 1.72965,0.39627c0.49487,0.26002 0.87866,0.66049 1.15138,1.20146c0.27678,0.53679 0.41516,1.22032 0.41516,2.05063v6.13936h-1.48462v-6.03869c0,-0.76744 -0.19928,-1.3608 -0.59746,-1.78017c-0.39449,-0.42354 -0.9414,-0.63533 -1.64183,-0.63533c-0.48639,0 -0.92258,0.10274 -1.30858,0.30821c-0.38158,0.20551 -0.68345,0.50535 -0.9056,0.89951c-0.21809,0.3942 -0.32733,0.87228 -0.32733,1.4342zM232.0057,174.43102c-0.93069,0 -1.73408,-0.20551 -2.40904,-0.61647c-0.6709,-0.41516 -1.18902,-0.99388 -1.55363,-1.73611c-0.36092,-0.74648 -0.541,-1.61451 -0.541,-2.60422c0,-0.98967 0.18008,-1.86191 0.541,-2.61677c0.3646,-0.75902 0.87202,-1.35032 1.52226,-1.77386c0.65393,-0.42774 1.41745,-0.6416 2.28948,-0.6416c0.50336,0 1.00007,0.08384 1.49089,0.2516c0.49081,0.16773 0.93734,0.44033 1.33996,0.81774c0.40261,0.37324 0.7233,0.86807 0.96244,1.4845c0.23876,0.61647 0.35833,1.37549 0.35833,2.27711v0.62901h-7.4478v-1.2832h5.93809c0,-0.54517 -0.10886,-1.03163 -0.32696,-1.45938c-0.21403,-0.42774 -0.51996,-0.76534 -0.91852,-1.01274c-0.39413,-0.24743 -0.85947,-0.37113 -1.39642,-0.37113c-0.59119,0 -1.10267,0.14676 -1.53481,0.44033c-0.42771,0.28936 -0.75689,0.66677 -0.98753,1.13227c-0.23065,0.46546 -0.34578,0.9645 -0.34578,1.49709v0.85549c0,0.72965 0.12547,1.34822 0.37715,1.85564c0.25574,0.50321 0.61038,0.88693 1.06318,1.15112c0.4528,0.25999 0.97904,0.38999 1.57872,0.38999c0.39007,0 0.74249,-0.0545 1.0569,-0.16355c0.31885,-0.11321 0.5934,-0.28094 0.82405,-0.50321c0.23065,-0.22644 0.40889,-0.50742 0.53472,-0.84291l1.43406,0.40258c-0.15093,0.48646 -0.40446,0.9142 -0.76095,1.28323c-0.35648,0.36483 -0.79674,0.65002 -1.32114,0.85549c-0.52402,0.20127 -1.11337,0.30194 -1.76766,0.30194zM247.54932,164.5678v1.25806h-5.20852v-1.25806zM243.9007,174.22972v-10.99547c0,-0.55356 0.13027,-1.01484 0.39007,-1.38387c0.26016,-0.36903 0.59746,-0.64581 1.01263,-0.83032c0.41516,-0.18452 0.85357,-0.27677 1.31486,-0.27677c0.36497,0 0.66241,0.02936 0.89306,0.08807c0.23065,0.05871 0.40261,0.11322 0.5159,0.16354l-0.42771,1.28323c-0.07565,-0.02517 -0.18046,-0.05662 -0.31441,-0.09435c-0.13027,-0.03774 -0.30187,-0.05662 -0.5159,-0.05662c-0.49081,0 -0.84509,0.12371 -1.06318,0.37113c-0.21367,0.24742 -0.32069,0.61016 -0.32069,1.08822v10.64321zM253.15713,174.43102c-0.87239,0 -1.63777,-0.20758 -2.29612,-0.62274c-0.65429,-0.41516 -1.16577,-0.99598 -1.53481,-1.74242c-0.36497,-0.74648 -0.54728,-1.61872 -0.54728,-2.61677c0,-1.00646 0.1823,-1.88501 0.54728,-2.63566c0.36903,-0.75065 0.88051,-1.33353 1.53481,-1.74869c0.65835,-0.41516 1.42372,-0.62274 2.29612,-0.62274c0.87202,0 1.63555,0.20758 2.28948,0.62274c0.65835,0.41516 1.1702,0.99805 1.53481,1.74869c0.36903,0.75065 0.55355,1.6292 0.55355,2.63566c0,0.99805 -0.18452,1.87029 -0.55355,2.61677c-0.3646,0.74644 -0.87645,1.32726 -1.53481,1.74242c-0.65393,0.41516 -1.41745,0.62274 -2.28948,0.62274zM253.15713,173.09745c0.66241,0 1.20747,-0.16983 1.63555,-0.50952c0.42771,-0.33965 0.74433,-0.78626 0.94952,-1.33981c0.20555,-0.55355 0.30851,-1.15322 0.30851,-1.79903c0,-0.64581 -0.10296,-1.24759 -0.30851,-1.80534c-0.20518,-0.55776 -0.52181,-1.00853 -0.94952,-1.35243c-0.42808,-0.34386 -0.97314,-0.5158 -1.63555,-0.5158c-0.66279,0 -1.20784,0.17194 -1.63555,0.5158c-0.42771,0.3439 -0.74433,0.79467 -0.94989,1.35243c-0.20555,0.55776 -0.30815,1.15954 -0.30815,1.80534c0,0.64581 0.10259,1.24548 0.30815,1.79903c0.20555,0.55355 0.52218,1.00015 0.94989,1.33981c0.42771,0.33969 0.97276,0.50952 1.63555,0.50952zM261.2858,161.34715v12.88256h-1.48462v-12.88256zM265.48907,161.34715v12.88256h-1.48424v-12.88256zM272.13348,174.43102c-0.87239,0 -1.63777,-0.20758 -2.29612,-0.62274c-0.65429,-0.41516 -1.16577,-0.99598 -1.53481,-1.74242c-0.36497,-0.74648 -0.54728,-1.61872 -0.54728,-2.61677c0,-1.00646 0.1823,-1.88501 0.54728,-2.63566c0.36903,-0.75065 0.88051,-1.33353 1.53481,-1.74869c0.65835,-0.41516 1.42372,-0.62274 2.29612,-0.62274c0.87202,0 1.63518,0.20758 2.28948,0.62274c0.65835,0.41516 1.1702,0.99805 1.53481,1.74869c0.36903,0.75065 0.55355,1.6292 0.55355,2.63566c0,0.99805 -0.18452,1.87029 -0.55355,2.61677c-0.3646,0.74644 -0.87645,1.32726 -1.53481,1.74242c-0.65429,0.41516 -1.41745,0.62274 -2.28948,0.62274zM272.13348,173.09745c0.66241,0 1.20747,-0.16983 1.63518,-0.50952c0.42771,-0.33965 0.74433,-0.78626 0.94989,-1.33981c0.20555,-0.55355 0.30815,-1.15322 0.30815,-1.79903c0,-0.64581 -0.10259,-1.24759 -0.30815,-1.80534c-0.20555,-0.55776 -0.52218,-1.00853 -0.94989,-1.35243c-0.42771,-0.34386 -0.97276,-0.5158 -1.63518,-0.5158c-0.66279,0 -1.20784,0.17194 -1.63555,0.5158c-0.42771,0.3439 -0.74433,0.79467 -0.94989,1.35243c-0.20555,0.55776 -0.30815,1.15954 -0.30815,1.80534c0,0.64581 0.10259,1.24548 0.30815,1.79903c0.20555,0.55355 0.52218,1.00015 0.94989,1.33981c0.42771,0.33969 0.97276,0.50952 1.63555,0.50952zM280.63782,174.22972l-2.94377,-9.66192h1.5599l2.08835,7.39739h0.10074l2.06325,-7.39739h1.585l2.03816,7.37226h0.10074l2.08835,-7.37226h1.5599l-2.94377,9.66192h-1.45952l-2.11344,-7.42255h-0.15093l-2.11344,7.42255zM292.84096,174.22972v-9.66192h1.48462v9.66192zM293.59601,162.95747c-0.28932,0 -0.53916,-0.09855 -0.74877,-0.29565c-0.20555,-0.19709 -0.30815,-0.43404 -0.30815,-0.7108c0,-0.27678 0.10259,-0.5137 0.30815,-0.7108c0.20961,-0.19709 0.45944,-0.29565 0.74877,-0.29565c0.28932,0 0.53658,0.09855 0.74213,0.29565c0.20961,0.19709 0.31441,0.43403 0.31441,0.7108c0,0.27678 -0.1048,0.51371 -0.31441,0.7108c-0.20555,0.19709 -0.4528,0.29565 -0.74213,0.29565zM298.52922,168.41746v5.81225h-1.48462v-9.66192h1.43406v1.50967h0.12584c0.22659,-0.49066 0.57053,-0.88483 1.03181,-1.1826c0.46129,-0.30191 1.05654,-0.45288 1.78611,-0.45288c0.65429,0 1.22666,0.13418 1.71747,0.40258c0.49045,0.26419 0.87239,0.66677 1.14474,1.20773c0.27272,0.53679 0.40889,1.21614 0.40889,2.03805v6.13936h-1.48462v-6.03869c0,-0.75906 -0.19706,-1.35032 -0.59119,-1.7739c-0.39413,-0.42771 -0.93513,-0.6416 -1.623,-0.6416c-0.47383,0 -0.89712,0.10274 -1.27057,0.30821c-0.36903,0.20551 -0.66057,0.50535 -0.87424,0.89951c-0.21403,0.3942 -0.32069,0.87228 -0.32069,1.4342zM311.30621,178.05421c-0.71703,0 -1.33368,-0.09226 -1.84922,-0.27678c-0.5159,-0.18031 -0.94583,-0.41933 -1.28977,-0.71706c-0.33951,-0.29356 -0.61001,-0.60809 -0.81113,-0.94358l1.18237,-0.83032c0.13433,0.17614 0.30409,0.37745 0.50963,0.60389c0.20555,0.23065 0.48639,0.42985 0.84287,0.59757c0.36054,0.17194 0.83253,0.25792 1.41524,0.25792c0.78013,0 1.42372,-0.18872 1.93114,-0.56613c0.50742,-0.37741 0.76131,-0.9687 0.76131,-1.77386v-1.96258h-0.12584c-0.10923,0.17614 -0.26422,0.3942 -0.46572,0.65418c-0.19706,0.25581 -0.48233,0.48436 -0.85541,0.68566c-0.36903,0.1971 -0.86796,0.29563 -1.49716,0.29563c-0.77976,0 -1.48019,-0.18452 -2.1009,-0.55355c-0.61628,-0.36903 -1.10489,-0.90579 -1.46543,-1.61031c-0.35648,-0.70452 -0.53472,-1.56001 -0.53472,-2.56647c0,-0.98967 0.17382,-1.85144 0.52181,-2.58533c0.34836,-0.73807 0.83253,-1.30837 1.45325,-1.71094c0.62072,-0.40678 1.33774,-0.61015 2.15109,-0.61015c0.6292,0 1.12813,0.10484 1.49716,0.31449c0.37346,0.20551 0.65835,0.44033 0.85541,0.70452c0.20149,0.26002 0.35648,0.47387 0.46572,0.64163h0.15093v-1.53484h1.43406v9.93869c0,0.83032 -0.18858,1.50547 -0.56609,2.02547c-0.37309,0.52421 -0.87645,0.90792 -1.50971,1.15116c-0.62883,0.2474 -1.32926,0.3711 -2.1009,0.3711zM311.25602,172.74521c0.59525,0 1.09861,-0.13628 1.50971,-0.40889c0.41073,-0.27257 0.7233,-0.66467 0.93697,-1.17629c0.21403,-0.51159 0.32106,-1.12385 0.32106,-1.83679c0,-0.69611 -0.1048,-1.31047 -0.31479,-1.84305c-0.20961,-0.53258 -0.51996,-0.94982 -0.93069,-1.25176c-0.4111,-0.30194 -0.91852,-0.45291 -1.52226,-0.45291c-0.6292,0 -1.15322,0.15934 -1.57281,0.47808c-0.41516,0.3187 -0.72736,0.74644 -0.93697,1.2832c-0.20555,0.53679 -0.30851,1.13227 -0.30851,1.78645c0,0.67097 0.1048,1.26438 0.31479,1.78017c0.21367,0.51163 0.52808,0.9142 0.94325,1.20773c0.41959,0.28936 0.93955,0.43405 1.56027,0.43405zM323.18239,174.22972v-9.66192h1.48462v9.66192zM323.93706,162.95747c-0.28932,0 -0.53878,-0.09855 -0.74839,-0.29565c-0.20555,-0.19709 -0.30815,-0.43404 -0.30815,-0.7108c0,-0.27678 0.10259,-0.5137 0.30815,-0.7108c0.20961,-0.19709 0.45908,-0.29565 0.74839,-0.29565c0.28932,0 0.53694,0.09855 0.74249,0.29565c0.20961,0.19709 0.31441,0.43403 0.31441,0.7108c0,0.27678 -0.1048,0.51371 -0.31441,0.7108c-0.20555,0.19709 -0.45317,0.29565 -0.74249,0.29565zM334.22972,166.73165l-1.33368,0.37741c-0.08377,-0.22223 -0.20739,-0.43823 -0.37088,-0.64787c-0.15942,-0.21389 -0.37752,-0.39003 -0.65429,-0.52842c-0.27678,-0.13839 -0.63104,-0.20758 -1.06318,-0.20758c-0.59119,0 -1.08385,0.13632 -1.47797,0.40889c-0.39007,0.2684 -0.58529,0.61015 -0.58529,1.02532c0,0.36903 0.13433,0.66049 0.40261,0.87435c0.26866,0.21389 0.68788,0.3921 1.25803,0.53469l1.43443,0.35225c0.8639,0.20968 1.5075,0.53049 1.93114,0.96244c0.42328,0.42774 0.6351,0.97919 0.6351,1.65433c0,0.55355 -0.15942,1.04842 -0.47789,1.48454c-0.31441,0.43612 -0.75504,0.77999 -1.32114,1.03159c-0.56609,0.2516 -1.22444,0.37745 -1.97506,0.37745c-0.98532,0 -1.80125,-0.21389 -2.44705,-0.64163c-0.64581,-0.42774 -1.0547,-1.05259 -1.22666,-1.8745l1.40934,-0.35227c0.13395,0.52 0.38785,0.90999 0.76095,1.17002c0.37752,0.25999 0.87018,0.38999 1.47834,0.38999c0.69194,0 1.24106,-0.14676 1.64809,-0.44033c0.41073,-0.29773 0.61628,-0.65418 0.61628,-1.06935c0,-0.33549 -0.11735,-0.61647 -0.35206,-0.84291c-0.23507,-0.23065 -0.59562,-0.40258 -1.082,-0.5158l-1.61045,-0.37745c-0.88494,-0.20965 -1.53481,-0.53465 -1.94996,-0.97498c-0.4111,-0.4445 -0.61628,-1.00015 -0.61628,-1.66692c0,-0.54517 0.15278,-1.02743 0.45908,-1.44679c0.31035,-0.41937 0.73179,-0.74854 1.2643,-0.98756c0.53694,-0.23906 1.14474,-0.35855 1.82413,-0.35855c0.95616,0 1.70677,0.20968 2.25221,0.62901c0.54912,0.41937 0.93919,0.97291 1.16983,1.66064zM344.46556,174.45616c-0.61222,0 -1.16799,-0.11532 -1.66692,-0.34597c-0.49893,-0.23481 -0.89527,-0.57241 -1.18865,-1.01274c-0.29375,-0.4445 -0.44062,-0.9813 -0.44062,-1.61031c0,-0.55355 0.10923,-1.00225 0.32733,-1.34611c0.21809,-0.34807 0.50926,-0.62068 0.87424,-0.81777c0.36497,-0.19706 0.76759,-0.34386 1.20784,-0.44029c0.44432,-0.10067 0.89121,-0.18035 1.33996,-0.23906c0.58676,-0.07547 1.06282,-0.13207 1.42778,-0.16983c0.36903,-0.04192 0.63732,-0.11112 0.80523,-0.20758c0.17196,-0.09647 0.25796,-0.26419 0.25796,-0.50321v-0.05034c0,-0.62064 -0.17012,-1.10289 -0.50963,-1.44676c-0.33545,-0.3439 -0.84509,-0.51584 -1.52853,-0.51584c-0.70891,0 -1.2643,0.15518 -1.66692,0.4655c-0.40261,0.31032 -0.68566,0.6416 -0.84914,0.99388l-1.40934,-0.50324c0.25168,-0.58709 0.58713,-1.04417 1.00672,-1.37129c0.42328,-0.33128 0.88457,-0.56193 1.38387,-0.69194c0.50299,-0.13418 0.99786,-0.20127 1.48424,-0.20127c0.31035,0 0.66684,0.03772 1.06946,0.11321c0.40667,0.07129 0.79896,0.22016 1.17647,0.4466c0.38158,0.22648 0.6982,0.56823 0.94989,1.02532c0.25131,0.45712 0.37715,1.06938 0.37715,1.83679v6.3658h-1.48424v-1.3084h-0.07565c-0.10074,0.20968 -0.26828,0.43405 -0.50336,0.67308c-0.23471,0.23902 -0.54728,0.44243 -0.93697,0.61015c-0.39007,0.16776 -0.86612,0.2516 -1.42815,0.2516zM344.69215,173.12261c0.58713,0 1.082,-0.11532 1.48462,-0.34597c0.40667,-0.23065 0.7126,-0.52838 0.91815,-0.89324c0.20961,-0.36483 0.31479,-0.74854 0.31479,-1.15112v-1.3587c-0.06311,0.0755 -0.20149,0.14469 -0.41516,0.20758c-0.20998,0.05871 -0.45317,0.11112 -0.72995,0.15725c-0.27234,0.04196 -0.53878,0.07971 -0.79896,0.11325c-0.25574,0.02934 -0.46313,0.0545 -0.62256,0.07547c-0.38564,0.05034 -0.74655,0.13211 -1.082,0.24534c-0.33139,0.10901 -0.59968,0.27467 -0.80523,0.49694c-0.20112,0.21806 -0.30187,0.5158 -0.30187,0.89321c0,0.51584 0.19079,0.90583 0.57237,1.17002c0.38601,0.25999 0.8746,0.38999 1.46579,0.38999zM132.08733,199.25671v-13.28507h1.43419v1.53484h0.17613c0.10903,-0.16776 0.26,-0.38162 0.45291,-0.64163c0.19709,-0.26419 0.47806,-0.49901 0.8429,-0.70452c0.36903,-0.20965 0.86807,-0.31449 1.49709,-0.31449c0.81357,0 1.53067,0.20337 2.15131,0.61015c0.62064,0.40678 1.10499,0.98339 1.45306,1.72984c0.34807,0.74644 0.5221,1.6271 0.5221,2.64194c0,1.02322 -0.17403,1.91015 -0.5221,2.6608c-0.34807,0.74644 -0.83032,1.32516 -1.44679,1.73611c-0.61643,0.40678 -1.32726,0.61019 -2.13241,0.61019c-0.62064,0 -1.11758,-0.10277 -1.49082,-0.30825c-0.37321,-0.20968 -0.66047,-0.4466 -0.86176,-0.7108c-0.20129,-0.2684 -0.35645,-0.49066 -0.46549,-0.66677h-0.12581v5.10766zM133.54668,190.8026c0,0.72968 0.10694,1.37338 0.3208,1.9311c0.21387,0.55355 0.5263,0.9876 0.93727,1.30213c0.41096,0.31032 0.91416,0.46546 1.50967,0.46546c0.62064,0 1.13854,-0.16355 1.55369,-0.49062c0.41937,-0.33132 0.73386,-0.77581 0.94354,-1.33357c0.21389,-0.56193 0.3208,-1.18677 0.3208,-1.8745c0,-0.67935 -0.10484,-1.29161 -0.31449,-1.83679c-0.20551,-0.54934 -0.51793,-0.98339 -0.93727,-1.30209c-0.41516,-0.3229 -0.93727,-0.48436 -1.56629,-0.48436c-0.60389,0 -1.1113,0.15308 -1.52226,0.45918c-0.41098,0.30194 -0.7213,0.72548 -0.93098,1.27065c-0.20968,0.54096 -0.31452,1.17208 -0.31452,1.89339zM142.8815,195.63356v-9.66192h1.4342v1.45934h0.10063c0.17614,-0.47804 0.49483,-0.86597 0.95612,-1.1637c0.46129,-0.29773 0.9813,-0.4466 1.56001,-0.4466c0.10901,0 0.24534,0.0021 0.40885,0.00628c0.16355,0.00421 0.28729,0.01048 0.37113,0.0189v1.50967c-0.0503,-0.01258 -0.16562,-0.03144 -0.34597,-0.05661c-0.1761,-0.02937 -0.36272,-0.04402 -0.55982,-0.04402c-0.46967,0 -0.88904,0.09853 -1.25806,0.29563c-0.36483,0.19289 -0.65418,0.46129 -0.86807,0.80515c-0.20968,0.33969 -0.31453,0.72759 -0.31453,1.1637v6.1142zM149.47219,195.63356v-9.66192h1.4845v9.66192zM150.22701,184.36129c-0.28932,0 -0.53886,-0.09853 -0.74854,-0.29563c-0.20547,-0.1971 -0.30821,-0.43402 -0.30821,-0.7108c0,-0.27678 0.10274,-0.51373 0.30821,-0.71083c0.20968,-0.1971 0.45922,-0.29563 0.74854,-0.29563c0.28936,0 0.53679,0.09853 0.74228,0.29563c0.20968,0.1971 0.31453,0.43405 0.31453,0.71083c0,0.27678 -0.10484,0.51369 -0.31453,0.7108c-0.20547,0.1971 -0.45291,0.29563 -0.74228,0.29563zM153.67568,195.63356v-9.66192h1.4342v1.50967h0.12581c0.20127,-0.5158 0.52628,-0.91631 0.97498,-1.20146c0.4487,-0.28936 0.9876,-0.43402 1.61662,-0.43402c0.63743,0 1.16791,0.14466 1.59145,0.43402c0.42774,0.28515 0.76113,0.68566 1.00015,1.20146h0.10067c0.2474,-0.49904 0.61854,-0.8953 1.11337,-1.18888c0.49483,-0.29773 1.08823,-0.4466 1.78017,-0.4466c0.86386,0 1.57049,0.27046 2.11983,0.81143c0.54934,0.53679 0.82405,1.37338 0.82405,2.50986v6.46643h-1.48454v-6.46643c0,-0.71289 -0.195,-1.22242 -0.58499,-1.52857c-0.38999,-0.30612 -0.84918,-0.45918 -1.37759,-0.45918c-0.67935,0 -1.20563,0.20547 -1.57887,0.61647c-0.3732,0.40675 -0.55982,0.92258 -0.55982,1.54739v6.29033h-1.50967v-6.6174c0,-0.54937 -0.17824,-0.99177 -0.53469,-1.32726c-0.35645,-0.33969 -0.81564,-0.50952 -1.37756,-0.50952c-0.38582,0 -0.74648,0.10274 -1.08197,0.30821c-0.33128,0.20551 -0.59968,0.49066 -0.80515,0.85549c-0.20127,0.36066 -0.30194,0.77792 -0.30194,1.2518v6.03869zM173.12225,195.83487c-0.93107,0 -1.73408,-0.20551 -2.40941,-0.61647c-0.6709,-0.41516 -1.18865,-0.99388 -1.55363,-1.73611c-0.36054,-0.74648 -0.541,-1.61451 -0.541,-2.60422c0,-0.98967 0.18046,-1.86191 0.541,-2.61677c0.36497,-0.75902 0.87239,-1.35032 1.52226,-1.77386c0.65429,-0.42774 1.41745,-0.6416 2.28984,-0.6416c0.50299,0 1.00007,0.08384 1.49089,0.2516c0.49045,0.16773 0.93697,0.44033 1.33958,0.81774c0.40261,0.37324 0.7233,0.86807 0.96244,1.4845c0.23913,0.61647 0.3587,1.37549 0.3587,2.27711v0.62901h-7.4478v-1.2832h5.93809c0,-0.54517 -0.10923,-1.03163 -0.32733,-1.45938c-0.21367,-0.42774 -0.51996,-0.76534 -0.91815,-1.01274c-0.39413,-0.24743 -0.85984,-0.37113 -1.39642,-0.37113c-0.59156,0 -1.10303,0.14676 -1.53481,0.44033c-0.42771,0.28936 -0.75689,0.66677 -0.98753,1.13227c-0.23065,0.46546 -0.34615,0.9645 -0.34615,1.49709v0.85549c0,0.72965 0.12584,1.34822 0.37752,1.85564c0.25574,0.50321 0.61001,0.88693 1.06282,1.15112c0.45317,0.25999 0.97941,0.38999 1.57908,0.38999c0.39007,0 0.74213,-0.0545 1.05654,-0.16355c0.31885,-0.11321 0.5934,-0.28094 0.82405,-0.50321c0.23065,-0.22644 0.40889,-0.50742 0.53472,-0.84291l1.43443,0.40258c-0.15093,0.48646 -0.40483,0.9142 -0.76131,1.28323c-0.35648,0.36483 -0.79674,0.65002 -1.32076,0.85549c-0.5244,0.20127 -1.11337,0.30194 -1.76766,0.30194zM185.84758,189.82131v5.81225h-1.48462v-9.66192h1.43406v1.50967h0.12584c0.22659,-0.49066 0.57053,-0.88483 1.03181,-1.1826c0.46129,-0.30191 1.05654,-0.45288 1.78648,-0.45288c0.65393,0 1.22666,0.13418 1.71711,0.40258c0.49081,0.26419 0.87239,0.66677 1.14474,1.20773c0.27272,0.53679 0.40889,1.21614 0.40889,2.03805v6.13936h-1.48424v-6.03869c0,-0.75906 -0.19706,-1.35032 -0.59156,-1.7739c-0.39413,-0.42771 -0.93513,-0.6416 -1.62263,-0.6416c-0.47383,0 -0.89748,0.10274 -1.27095,0.30821c-0.36903,0.20551 -0.66019,0.50535 -0.87424,0.89951c-0.21367,0.3942 -0.32069,0.87228 -0.32069,1.4342zM200.81366,191.68325v-5.71161h1.48462v9.66192h-1.48462v-1.63547h-0.10074c-0.22621,0.49062 -0.57865,0.9079 -1.05654,1.25176c-0.47827,0.33969 -1.082,0.50952 -1.81157,0.50952c-0.6041,0 -1.14068,-0.13207 -1.61045,-0.39631c-0.46978,-0.26836 -0.83881,-0.67093 -1.10709,-1.20773c-0.26828,-0.54096 -0.40261,-1.22242 -0.40261,-2.04436v-6.13932h1.48462v6.03869c0,0.70452 0.19706,1.26645 0.59119,1.68581c0.39855,0.41937 0.90597,0.62901 1.52226,0.62901c0.36903,0 0.74433,-0.09433 1.12592,-0.28305c0.38601,-0.18872 0.70891,-0.47808 0.9687,-0.86807c0.26422,-0.38999 0.39634,-0.88693 0.39634,-1.49078zM205.0173,195.63356v-9.66192h1.43406v1.50967h0.12584c0.20149,-0.5158 0.52624,-0.91631 0.97498,-1.20146c0.44874,-0.28936 0.98753,-0.43402 1.61673,-0.43402c0.63732,0 1.16799,0.14466 1.59126,0.43402c0.42771,0.28515 0.76131,0.68566 1.00045,1.20146h0.10038c0.24762,-0.49904 0.6185,-0.8953 1.11337,-1.18888c0.49487,-0.29773 1.08827,-0.4466 1.78021,-0.4466c0.8639,0 1.5706,0.27046 2.12008,0.81143c0.54912,0.53679 0.82368,1.37338 0.82368,2.50986v6.46643h-1.48424v-6.46643c0,-0.71289 -0.19522,-1.22242 -0.58529,-1.52857c-0.38969,-0.30612 -0.84914,-0.45918 -1.37723,-0.45918c-0.67939,0 -1.20563,0.20547 -1.57908,0.61647c-0.37309,0.40675 -0.55982,0.92258 -0.55982,1.54739v6.29033h-1.50971v-6.6174c0,-0.54937 -0.17824,-0.99177 -0.53472,-1.32726c-0.35648,-0.33969 -0.81556,-0.50952 -1.37759,-0.50952c-0.38564,0 -0.74619,0.10274 -1.08163,0.30821c-0.33139,0.20551 -0.59968,0.49066 -0.80523,0.85549c-0.20149,0.36066 -0.30187,0.77792 -0.30187,1.2518v6.03869zM220.61406,195.63356v-12.88256h1.48462v4.75549h0.12584c0.10886,-0.16776 0.2598,-0.38162 0.4528,-0.64163c0.19706,-0.26419 0.47789,-0.49901 0.84287,-0.70452c0.36903,-0.20965 0.86796,-0.31449 1.49716,-0.31449c0.81335,0 1.53075,0.20337 2.15109,0.61015c0.62072,0.40678 1.10525,0.98339 1.45325,1.72984c0.348,0.74644 0.52218,1.6271 0.52218,2.64194c0,1.02322 -0.17418,1.91015 -0.52218,2.6608c-0.348,0.74644 -0.83032,1.32516 -1.44697,1.73611c-0.61628,0.40678 -1.32704,0.61019 -2.13226,0.61019c-0.62072,0 -1.11743,-0.10277 -1.49089,-0.30825c-0.37309,-0.20968 -0.66057,-0.4466 -0.86169,-0.7108c-0.20112,-0.2684 -0.35648,-0.49066 -0.46535,-0.66677h-0.1764v1.4845zM222.07359,190.8026c0,0.72968 0.10665,1.37338 0.32069,1.9311c0.21367,0.55355 0.52624,0.9876 0.93734,1.30213c0.41073,0.31032 0.91409,0.46546 1.50971,0.46546c0.62034,0 1.13846,-0.16355 1.55363,-0.49062c0.41922,-0.33132 0.73363,-0.77581 0.94361,-1.33357c0.21367,-0.56193 0.32069,-1.18677 0.32069,-1.8745c0,-0.67935 -0.1048,-1.29161 -0.31441,-1.83679c-0.20555,-0.54934 -0.51812,-0.98339 -0.93734,-1.30209c-0.41516,-0.3229 -0.93734,-0.48436 -1.56617,-0.48436c-0.6041,0 -1.11153,0.15308 -1.52226,0.45918c-0.4111,0.30194 -0.72146,0.72548 -0.93107,1.27065c-0.20961,0.54096 -0.31441,1.17208 -0.31441,1.89339zM235.46538,195.83487c-0.93069,0 -1.73408,-0.20551 -2.40904,-0.61647c-0.6709,-0.41516 -1.18902,-0.99388 -1.55363,-1.73611c-0.36092,-0.74648 -0.541,-1.61451 -0.541,-2.60422c0,-0.98967 0.18008,-1.86191 0.541,-2.61677c0.3646,-0.75902 0.87202,-1.35032 1.52226,-1.77386c0.65393,-0.42774 1.41745,-0.6416 2.28948,-0.6416c0.50336,0 1.00007,0.08384 1.49089,0.2516c0.49081,0.16773 0.93734,0.44033 1.33996,0.81774c0.40261,0.37324 0.7233,0.86807 0.96244,1.4845c0.23876,0.61647 0.35833,1.37549 0.35833,2.27711v0.62901h-7.4478v-1.2832h5.93809c0,-0.54517 -0.10886,-1.03163 -0.32696,-1.45938c-0.21403,-0.42774 -0.51996,-0.76534 -0.91852,-1.01274c-0.39413,-0.24743 -0.85947,-0.37113 -1.39642,-0.37113c-0.59119,0 -1.10267,0.14676 -1.53481,0.44033c-0.42771,0.28936 -0.75689,0.66677 -0.98753,1.13227c-0.23065,0.46546 -0.34578,0.9645 -0.34578,1.49709v0.85549c0,0.72965 0.12547,1.34822 0.37715,1.85564c0.25574,0.50321 0.61038,0.88693 1.06318,1.15112c0.4528,0.25999 0.97904,0.38999 1.57872,0.38999c0.39007,0 0.74249,-0.0545 1.0569,-0.16355c0.31885,-0.11321 0.5934,-0.28094 0.82405,-0.50321c0.23065,-0.22644 0.40889,-0.50742 0.53472,-0.84291l1.43406,0.40258c-0.15093,0.48646 -0.40446,0.9142 -0.76095,1.28323c-0.35648,0.36483 -0.79674,0.65002 -1.32114,0.85549c-0.52402,0.20127 -1.11337,0.30194 -1.76766,0.30194zM241.72453,195.63356v-9.66192h1.43406v1.45934h0.10074c0.17602,-0.47804 0.49487,-0.86597 0.95616,-1.1637c0.46129,-0.29773 0.98126,-0.4466 1.5599,-0.4466c0.10886,0 0.24541,0.0021 0.40889,0.00628c0.16348,0.00421 0.28711,0.01048 0.37088,0.0189v1.50967c-0.05019,-0.01258 -0.16532,-0.03144 -0.34578,-0.05661c-0.17602,-0.02937 -0.36276,-0.04402 -0.55982,-0.04402c-0.46978,0 -0.889,0.09853 -1.25803,0.29563c-0.36497,0.19289 -0.65429,0.46129 -0.86796,0.80515c-0.20998,0.33969 -0.31479,0.72759 -0.31479,1.1637v6.1142zM250.25248,192.01033v-0.07547c0.00849,-0.80099 0.09226,-1.43841 0.25168,-1.91225c0.15942,-0.47387 0.38564,-0.85759 0.67939,-1.15116c0.29338,-0.29352 0.64581,-0.56402 1.05654,-0.81143c0.24762,-0.15097 0.46978,-0.32921 0.66684,-0.53469c0.19706,-0.20968 0.35242,-0.45081 0.46535,-0.72338c0.11772,-0.27261 0.1764,-0.57451 0.1764,-0.90583c0,-0.41096 -0.09668,-0.7674 -0.28932,-1.06935c-0.193,-0.30194 -0.45096,-0.53469 -0.77386,-0.6982c-0.3229,-0.16355 -0.6816,-0.24534 -1.07573,-0.24534c-0.34394,0 -0.67496,0.07129 -0.9938,0.21386c-0.31885,0.14259 -0.58491,0.36696 -0.79896,0.67308c-0.21367,0.30612 -0.3373,0.70662 -0.37088,1.20146h-1.58536c0.03358,-0.71289 0.21809,-1.32305 0.55355,-1.83047c0.33988,-0.50742 0.7864,-0.89534 1.33996,-1.16374c0.55761,-0.26836 1.17611,-0.40258 1.8555,-0.40258c0.73807,0 1.37981,0.1468 1.92487,0.44033c0.54949,0.29356 0.97314,0.69615 1.27057,1.20773c0.30223,0.51163 0.45317,1.09455 0.45317,1.74873c0,0.46129 -0.07159,0.87855 -0.21403,1.25176c-0.13839,0.37324 -0.33951,0.70662 -0.60374,1.00018c-0.26016,0.29352 -0.57459,0.55355 -0.94361,0.77999c-0.36903,0.23065 -0.66463,0.47387 -0.88678,0.72968c-0.22253,0.2516 -0.38379,0.55144 -0.48453,0.89951c-0.10074,0.34804 -0.15499,0.78209 -0.16348,1.30209v0.07547zM251.05771,195.73419c-0.31035,0 -0.57679,-0.11112 -0.79896,-0.33339c-0.22215,-0.22227 -0.33324,-0.48852 -0.33324,-0.79888c0,-0.31032 0.11108,-0.57662 0.33324,-0.79884c0.22215,-0.22227 0.48859,-0.33339 0.79896,-0.33339c0.31035,0 0.57643,0.11112 0.79896,0.33339c0.22215,0.22223 0.33324,0.48852 0.33324,0.79884c0,0.20551 -0.05241,0.3942 -0.15721,0.56613c-0.10074,0.17194 -0.23692,0.31032 -0.40889,0.41516c-0.16791,0.10067 -0.35648,0.15097 -0.56609,0.15097z"/></g></g></svg>