<svg xmlns="http://www.w3.org/2000/svg" fill="none" viewBox="0 0 139 164" height="164" width="139">
<path fill="#EEC638" d="M0 20C0 8.95431 8.95431 0 20 0H119C130.046 0 139 8.95431 139 20V144C139 155.046 130.046 164 119 164H20C8.95431 164 0 155.046 0 144V20Z"></path>
<path fill="black" d="M36.2102 135.455V150H34.5341V135.455H36.2102ZM43.854 150.227C42.8029 150.227 41.8962 149.995 41.1339 149.531C40.3763 149.062 39.7915 148.409 39.3796 147.571C38.9724 146.728 38.7688 145.748 38.7688 144.631C38.7688 143.513 38.9724 142.528 39.3796 141.676C39.7915 140.819 40.3645 140.152 41.0984 139.673C41.837 139.19 42.6987 138.949 43.6836 138.949C44.2518 138.949 44.8129 139.044 45.3668 139.233C45.9208 139.422 46.4251 139.73 46.8796 140.156C47.3342 140.578 47.6964 141.136 47.9663 141.832C48.2362 142.528 48.3711 143.385 48.3711 144.403V145.114H39.962V143.665H46.6665C46.6665 143.049 46.5434 142.5 46.2972 142.017C46.0558 141.534 45.7101 141.153 45.2603 140.874C44.8152 140.594 44.2897 140.455 43.6836 140.455C43.016 140.455 42.4383 140.62 41.9506 140.952C41.4677 141.278 41.096 141.705 40.8356 142.23C40.5752 142.756 40.445 143.319 40.445 143.92V144.886C40.445 145.71 40.587 146.409 40.8711 146.982C41.1599 147.55 41.56 147.983 42.0714 148.281C42.5827 148.575 43.177 148.722 43.854 148.722C44.2944 148.722 44.6921 148.66 45.0472 148.537C45.4071 148.409 45.7172 148.22 45.9776 147.969C46.238 147.713 46.4393 147.396 46.5813 147.017L48.2006 147.472C48.0302 148.021 47.7437 148.504 47.3413 148.92C46.9388 149.332 46.4416 149.654 45.8498 149.886C45.2579 150.114 44.5927 150.227 43.854 150.227ZM55.6651 139.091V140.511H50.0117V139.091H55.6651ZM51.6594 136.477H53.3356V146.875C53.3356 147.348 53.4042 147.704 53.5415 147.94C53.6836 148.172 53.8635 148.329 54.0813 148.409C54.3039 148.485 54.5382 148.523 54.7844 148.523C54.9691 148.523 55.1206 148.513 55.239 148.494C55.3574 148.471 55.4521 148.452 55.5231 148.438L55.864 149.943C55.7504 149.986 55.5917 150.028 55.3881 150.071C55.1845 150.118 54.9265 150.142 54.614 150.142C54.1405 150.142 53.6765 150.04 53.2219 149.837C52.7721 149.633 52.3981 149.323 52.0998 148.906C51.8062 148.49 51.6594 147.964 51.6594 147.33V136.477ZM62.9308 139.091V140.511H57.2773V139.091H62.9308ZM58.9251 136.477H60.6012V146.875C60.6012 147.348 60.6699 147.704 60.8072 147.94C60.9492 148.172 61.1291 148.329 61.3469 148.409C61.5695 148.485 61.8039 148.523 62.0501 148.523C62.2347 148.523 62.3862 148.513 62.5046 148.494C62.623 148.471 62.7177 148.452 62.7887 148.438L63.1296 149.943C63.016 149.986 62.8574 150.028 62.6538 150.071C62.4502 150.118 62.1921 150.142 61.8796 150.142C61.4061 150.142 60.9421 150.04 60.4876 149.837C60.0378 149.633 59.6637 149.323 59.3654 148.906C59.0719 148.49 58.9251 147.964 58.9251 147.33V136.477ZM69.9087 150.227C68.8576 150.227 67.9509 149.995 67.1886 149.531C66.431 149.062 65.8462 148.409 65.4343 147.571C65.0271 146.728 64.8235 145.748 64.8235 144.631C64.8235 143.513 65.0271 142.528 65.4343 141.676C65.8462 140.819 66.4192 140.152 67.1531 139.673C67.8917 139.19 68.7534 138.949 69.7383 138.949C70.3065 138.949 70.8675 139.044 71.4215 139.233C71.9755 139.422 72.4798 139.73 72.9343 140.156C73.3888 140.578 73.7511 141.136 74.021 141.832C74.2908 142.528 74.4258 143.385 74.4258 144.403V145.114H66.0167V143.665H72.7212C72.7212 143.049 72.5981 142.5 72.3519 142.017C72.1104 141.534 71.7648 141.153 71.315 140.874C70.8699 140.594 70.3443 140.455 69.7383 140.455C69.0707 140.455 68.493 140.62 68.0053 140.952C67.5224 141.278 67.1507 141.705 66.8903 142.23C66.6299 142.756 66.4996 143.319 66.4996 143.92V144.886C66.4996 145.71 66.6417 146.409 66.9258 146.982C67.2146 147.55 67.6147 147.983 68.1261 148.281C68.6374 148.575 69.2317 148.722 69.9087 148.722C70.3491 148.722 70.7468 148.66 71.1019 148.537C71.4618 148.409 71.7719 148.22 72.0323 147.969C72.2927 147.713 72.494 147.396 72.636 147.017L74.2553 147.472C74.0849 148.021 73.7984 148.504 73.396 148.92C72.9935 149.332 72.4963 149.654 71.9045 149.886C71.3126 150.114 70.6474 150.227 69.9087 150.227ZM76.9755 150V139.091H78.5948V140.739H78.7085C78.9073 140.199 79.2672 139.761 79.788 139.425C80.3088 139.089 80.896 138.92 81.5494 138.92C81.6725 138.92 81.8263 138.923 82.011 138.928C82.1957 138.932 82.3353 138.939 82.43 138.949V140.653C82.3732 140.639 82.243 140.618 82.0394 140.589C81.8406 140.556 81.6299 140.54 81.4073 140.54C80.877 140.54 80.4035 140.651 79.9869 140.874C79.5749 141.091 79.2482 141.394 79.0067 141.783C78.77 142.166 78.6516 142.604 78.6516 143.097V150H76.9755ZM101.974 140H100.212C100.108 139.493 99.9259 139.048 99.6655 138.665C99.4098 138.281 99.0973 137.959 98.728 137.699C98.3634 137.434 97.9586 137.235 97.5135 137.102C97.0684 136.97 96.6044 136.903 96.1214 136.903C95.2408 136.903 94.4429 137.126 93.728 137.571C93.0178 138.016 92.4519 138.672 92.0305 139.538C91.6139 140.405 91.4055 141.468 91.4055 142.727C91.4055 143.987 91.6139 145.05 92.0305 145.916C92.4519 146.783 93.0178 147.438 93.728 147.884C94.4429 148.329 95.2408 148.551 96.1214 148.551C96.6044 148.551 97.0684 148.485 97.5135 148.352C97.9586 148.22 98.3634 148.023 98.728 147.763C99.0973 147.498 99.4098 147.173 99.6655 146.79C99.9259 146.402 100.108 145.956 100.212 145.455H101.974C101.841 146.198 101.6 146.863 101.249 147.45C100.899 148.037 100.463 148.537 99.9425 148.949C99.4216 149.356 98.8369 149.666 98.1882 149.879C97.5443 150.092 96.8554 150.199 96.1214 150.199C94.8809 150.199 93.7777 149.896 92.8118 149.29C91.8459 148.684 91.0859 147.822 90.532 146.705C89.978 145.587 89.701 144.261 89.701 142.727C89.701 141.193 89.978 139.867 90.532 138.75C91.0859 137.633 91.8459 136.771 92.8118 136.165C93.7777 135.559 94.8809 135.256 96.1214 135.256C96.8554 135.256 97.5443 135.362 98.1882 135.575C98.8369 135.788 99.4216 136.101 99.9425 136.513C100.463 136.92 100.899 137.417 101.249 138.004C101.6 138.587 101.841 139.252 101.974 140Z"></path>
<path fill="black" d="M54.2943 64.0909C54.2943 66.392 53.8788 68.3807 53.0479 70.0568C52.2169 71.733 51.077 73.0256 49.6281 73.9347C48.1792 74.8438 46.5244 75.2983 44.6636 75.2983C42.8028 75.2983 41.148 74.8438 39.6991 73.9347C38.2503 73.0256 37.1104 71.733 36.2794 70.0568C35.4484 68.3807 35.0329 66.392 35.0329 64.0909C35.0329 61.7898 35.4484 59.8011 36.2794 58.125C37.1104 56.4489 38.2503 55.1562 39.6991 54.2472C41.148 53.3381 42.8028 52.8835 44.6636 52.8835C46.5244 52.8835 48.1792 53.3381 49.6281 54.2472C51.077 55.1562 52.2169 56.4489 53.0479 58.125C53.8788 59.8011 54.2943 61.7898 54.2943 64.0909ZM51.7375 64.0909C51.7375 62.2017 51.4214 60.6072 50.7893 59.3075C50.1643 58.0078 49.3156 57.0241 48.2432 56.3565C47.1778 55.6889 45.9846 55.3551 44.6636 55.3551C43.3426 55.3551 42.1459 55.6889 41.0734 56.3565C40.0081 57.0241 39.1594 58.0078 38.5273 59.3075C37.9023 60.6072 37.5898 62.2017 37.5898 64.0909C37.5898 65.9801 37.9023 67.5746 38.5273 68.8743C39.1594 70.174 40.0081 71.1577 41.0734 71.8253C42.1459 72.4929 43.3426 72.8267 44.6636 72.8267C45.9846 72.8267 47.1778 72.4929 48.2432 71.8253C49.3156 71.1577 50.1643 70.174 50.7893 68.8743C51.4214 67.5746 51.7375 65.9801 51.7375 64.0909ZM60.2709 58.6364L64.1913 65.3267L68.1118 58.6364H71.0095L65.7254 66.8182L71.0095 75H68.1118L64.1913 68.6506L60.2709 75H57.3731L62.572 66.8182L57.3731 58.6364H60.2709ZM80.784 75.3409C79.2073 75.3409 77.8472 74.9929 76.7037 74.2969C75.5674 73.5938 74.6903 72.6136 74.0724 71.3565C73.4616 70.0923 73.1562 68.6222 73.1562 66.946C73.1562 65.2699 73.4616 63.7926 74.0724 62.5142C74.6903 61.2287 75.5496 60.2273 76.6505 59.5099C77.7584 58.7855 79.051 58.4233 80.5283 58.4233C81.3806 58.4233 82.2222 58.5653 83.0532 58.8494C83.8841 59.1335 84.6405 59.5952 85.3224 60.2344C86.0042 60.8665 86.5475 61.7045 86.9523 62.7486C87.3572 63.7926 87.5596 65.0781 87.5596 66.6051V67.6705H74.9459V65.4972H85.0028C85.0028 64.5739 84.8181 63.75 84.4488 63.0256C84.0866 62.3011 83.5681 61.7294 82.8934 61.3104C82.2258 60.8913 81.4374 60.6818 80.5283 60.6818C79.5269 60.6818 78.6604 60.9304 77.9289 61.4276C77.2045 61.9176 76.6469 62.5568 76.2563 63.3452C75.8657 64.1335 75.6704 64.9787 75.6704 65.8807V67.3295C75.6704 68.5653 75.8834 69.6129 76.3096 70.4723C76.7428 71.3246 77.343 71.9744 78.11 72.4219C78.877 72.8622 79.7684 73.0824 80.784 73.0824C81.4445 73.0824 82.0411 72.9901 82.5738 72.8054C83.1135 72.6136 83.5787 72.3295 83.9694 71.9531C84.36 71.5696 84.6618 71.0937 84.8749 70.5256L87.3039 71.2074C87.0482 72.0312 86.6185 72.7557 86.0148 73.3807C85.4111 73.9986 84.6654 74.4815 83.7776 74.8295C82.8898 75.1705 81.892 75.3409 80.784 75.3409ZM102.975 62.3011L100.717 62.9403C100.574 62.5639 100.365 62.1982 100.088 61.843C99.8181 61.4808 99.4488 61.1825 98.98 60.9482C98.5113 60.7138 97.9111 60.5966 97.1796 60.5966C96.1782 60.5966 95.3437 60.8274 94.676 61.2891C94.0155 61.7436 93.6853 62.3224 93.6853 63.0256C93.6853 63.6506 93.9126 64.1442 94.3671 64.5064C94.8216 64.8686 95.5319 65.1705 96.4978 65.4119L98.9268 66.0085C100.39 66.3636 101.48 66.907 102.197 67.6385C102.915 68.3629 103.273 69.2969 103.273 70.4403C103.273 71.3778 103.003 72.2159 102.464 72.9545C101.931 73.6932 101.185 74.2756 100.226 74.7017C99.2677 75.1278 98.1526 75.3409 96.8813 75.3409C95.2123 75.3409 93.8309 74.9787 92.7371 74.2543C91.6434 73.5298 90.9509 72.4716 90.6597 71.0795L93.0461 70.483C93.2733 71.3636 93.703 72.0241 94.3351 72.4645C94.9743 72.9048 95.8089 73.125 96.8387 73.125C98.0106 73.125 98.941 72.8764 99.6299 72.3793C100.326 71.875 100.674 71.2713 100.674 70.5682C100.674 70 100.475 69.5241 100.077 69.1406C99.6796 68.75 99.0688 68.4588 98.2449 68.267L95.5177 67.6278C94.0191 67.2727 92.9182 66.7223 92.2151 65.9766C91.5191 65.2237 91.1711 64.2827 91.1711 63.1534C91.1711 62.2301 91.4303 61.4134 91.9488 60.7031C92.4743 59.9929 93.1881 59.4354 94.0901 59.0305C94.9992 58.6257 96.029 58.4233 97.1796 58.4233C98.7989 58.4233 100.07 58.7784 100.994 59.4886C101.924 60.1989 102.584 61.1364 102.975 62.3011Z"></path>
</svg>
