<svg version="1.1" xmlns="http://www.w3.org/2000/svg" xmlns:xlink="http://www.w3.org/1999/xlink" width="229.26042" height="37.41682" viewBox="0,0,229.26042,37.41682"><g transform="translate(-125.36979,-161.29159)"><g data-paper-data="{&quot;isPaintingLayer&quot;:true}" fill="#ffffff" fill-rule="nonzero" stroke="none" stroke-width="1" stroke-linecap="butt" stroke-linejoin="miter" stroke-miterlimit="10" stroke-dasharray="" stroke-dashoffset="0" style="mix-blend-mode: normal"><path d="M128.79207,174.39402l-3.42228,-12.51575h1.54002l2.61559,10.19348h0.12222l2.66451,-10.19348h1.71113l2.66448,10.19348h0.12222l2.61561,-10.19348h1.54001l-3.42225,12.51575h-1.56449l-2.76225,-9.97349h-0.09777l-2.76229,9.97349zM144.10061,168.74727v5.64675h-1.44224v-12.51575h1.44224v4.59563h0.12226c0.21999,-0.48483 0.54998,-0.86981 0.98999,-1.15502c0.4441,-0.28926 1.03484,-0.43388 1.77226,-0.43388c0.63965,0 1.19983,0.12832 1.68058,0.38499c0.48074,0.25262 0.85354,0.64168 1.11834,1.16725c0.26889,0.52151 0.40334,1.18557 0.40334,1.99225v5.96455h-1.44224v-5.86674c0,-0.74559 -0.19353,-1.32205 -0.58056,-1.72948c-0.38298,-0.41148 -0.91467,-0.61723 -1.59504,-0.61723c-0.4726,0 -0.89631,0.09981 -1.27111,0.29944c-0.37075,0.19966 -0.66409,0.49096 -0.88003,0.8739c-0.21185,0.38298 -0.3178,0.84745 -0.3178,1.39337zM155.58815,174.61401c-0.59483,0 -1.13462,-0.11204 -1.61945,-0.33612c-0.48483,-0.22813 -0.86981,-0.5561 -1.15502,-0.98389c-0.28521,-0.43184 -0.42779,-0.95335 -0.42779,-1.56446c0,-0.53779 0.10594,-0.97372 0.3178,-1.30779c0.21185,-0.33816 0.49501,-0.603 0.84945,-0.79449c0.35444,-0.19145 0.74555,-0.33407 1.17334,-0.42776c0.43188,-0.0978 0.86576,-0.17521 1.30169,-0.23225c0.57038,-0.07332 1.0328,-0.12832 1.38724,-0.16499c0.35852,-0.04073 0.61928,-0.10795 0.78223,-0.20167c0.16707,-0.09372 0.25057,-0.25666 0.25057,-0.48888v-0.0489c0,-0.60296 -0.16499,-1.07148 -0.49501,-1.40556c-0.32593,-0.33411 -0.82091,-0.50115 -1.48501,-0.50115c-0.68854,0 -1.22838,0.15076 -1.61949,0.45224c-0.39111,0.30149 -0.6661,0.62333 -0.825,0.96558l-1.36891,-0.48892c0.24444,-0.57038 0.57038,-1.01444 0.9778,-1.33224c0.41148,-0.32185 0.85963,-0.54593 1.34446,-0.67223c0.48888,-0.13036 0.96963,-0.19554 1.44224,-0.19554c0.30149,0 0.64778,0.03664 1.03889,0.11c0.3952,0.06927 0.77613,0.21389 1.1428,0.43388c0.37075,0.22002 0.67837,0.55206 0.92281,0.99612c0.24444,0.4441 0.36666,1.03893 0.36666,1.78448v6.18454h-1.44224v-1.27115h-0.07332c-0.0978,0.20371 -0.26075,0.4217 -0.48892,0.65391c-0.22813,0.23222 -0.53165,0.42983 -0.91054,0.59279c-0.37893,0.16299 -0.84131,0.24444 -1.38727,0.24444zM155.80817,173.31844c0.57038,0 1.05112,-0.11204 1.44224,-0.33612c0.3952,-0.22408 0.6926,-0.51334 0.89222,-0.86781c0.20371,-0.35444 0.30557,-0.72723 0.30557,-1.11834v-1.32002c-0.06109,0.07336 -0.19554,0.14058 -0.40334,0.20167c-0.20371,0.05704 -0.44002,0.10795 -0.70891,0.15277c-0.2648,0.04077 -0.52352,0.07744 -0.77609,0.11003c-0.24853,0.0285 -0.4502,0.05295 -0.60501,0.07332c-0.37484,0.0489 -0.72523,0.12835 -1.05116,0.23835c-0.32185,0.10591 -0.5826,0.26685 -0.78223,0.48279c-0.19554,0.21185 -0.29335,0.50111 -0.29335,0.86777c0,0.50115 0.18539,0.88003 0.55614,1.1367c0.3748,0.25258 0.84945,0.37889 1.42391,0.37889zM166.60516,165.00722v1.22224h-4.86445v-1.22224zM163.15831,162.7583h1.44234v8.94679c0,0.40743 0.05916,0.71296 0.17711,0.91667c0.12226,0.19963 0.27714,0.33407 0.46465,0.40334c0.19145,0.06518 0.39294,0.09777 0.60483,0.09777c0.15883,0 0.28933,-0.00814 0.39115,-0.02442c0.10182,-0.0204 0.18357,-0.03668 0.24452,-0.0489l0.29327,1.29556c-0.09788,0.03668 -0.23411,0.07336 -0.40943,0.11003c-0.17496,0.04073 -0.39724,0.06109 -0.66614,0.06109c-0.40728,0 -0.80668,-0.08759 -1.19783,-0.26276c-0.38685,-0.17521 -0.7088,-0.44206 -0.9655,-0.80059c-0.2524,-0.35852 -0.37896,-0.81076 -0.37896,-1.35669zM173.61466,174.39402v-9.3868h1.44234v9.3868zM174.34821,163.44273c-0.28144,0 -0.52381,-0.09572 -0.72745,-0.28721c-0.1997,-0.19149 -0.29937,-0.42166 -0.29937,-0.69055c0,-0.26889 0.09967,-0.4991 0.29937,-0.69059c0.20364,-0.19149 0.446,-0.28721 0.72745,-0.28721c0.28108,0 0.5213,0.09572 0.72099,0.28721c0.20364,0.19149 0.30546,0.4217 0.30546,0.69059c0,0.26889 -0.10182,0.49907 -0.30546,0.69055c-0.1997,0.19149 -0.43991,0.28721 -0.72099,0.28721zM184.34744,167.10946l-1.29535,0.36666c-0.08174,-0.21591 -0.20185,-0.42574 -0.36068,-0.62943c-0.15488,-0.2078 -0.36677,-0.37893 -0.63566,-0.51337c-0.26889,-0.13444 -0.61307,-0.20167 -1.03291,-0.20167c-0.57435,0 -1.05298,0.13244 -1.43589,0.39724c-0.37896,0.26075 -0.56826,0.59279 -0.56826,0.99612c0,0.35852 0.13014,0.64168 0.39079,0.84945c0.26101,0.2078 0.66829,0.38093 1.22257,0.51946l1.39322,0.34221c0.83931,0.20371 1.46457,0.51538 1.87616,0.93503c0.41159,0.41557 0.61702,0.95131 0.61702,1.60723c0,0.53779 -0.15453,1.01857 -0.46429,1.44227c-0.30546,0.42371 -0.73318,0.75778 -1.28352,1.00222c-0.54998,0.24444 -1.18958,0.3667 -1.91882,0.3667c-0.95726,0 -1.74995,-0.2078 -2.37737,-0.62337c-0.62742,-0.41557 -1.0243,-1.02262 -1.19137,-1.82112l1.36885,-0.34224c0.13014,0.5052 0.37681,0.88409 0.73928,1.1367c0.36677,0.25258 0.8454,0.37889 1.43625,0.37889c0.67223,0 1.20607,-0.14258 1.60117,-0.42779c0.3994,-0.28926 0.59874,-0.63556 0.59874,-1.03889c0,-0.32593 -0.11401,-0.59891 -0.34203,-0.8189c-0.22838,-0.22408 -0.57866,-0.39111 -1.05119,-0.50111l-1.5646,-0.3667c-0.85938,-0.20368 -1.4911,-0.51943 -1.89444,-0.94722c-0.39904,-0.43184 -0.59874,-0.97167 -0.59874,-1.61945c0,-0.52965 0.14879,-0.99817 0.446,-1.4056c0.30152,-0.40743 0.71095,-0.72723 1.2283,-0.95945c0.52165,-0.23225 1.1125,-0.34834 1.77218,-0.34834c0.92894,0 1.65818,0.20371 2.18807,0.6111c0.53349,0.40743 0.91245,0.94521 1.13652,1.61336zM195.61191,165.00722v1.22224h-4.86445v-1.22224zM192.16541,162.7583h1.44198v8.94679c0,0.40743 0.05916,0.71296 0.17747,0.91667c0.12226,0.19963 0.27678,0.33407 0.46429,0.40334c0.19145,0.06518 0.3933,0.09777 0.60519,0.09777c0.15883,0 0.28897,-0.00814 0.39079,-0.02442c0.10218,-0.0204 0.18357,-0.03668 0.24452,-0.0489l0.29327,1.29556c-0.09752,0.03668 -0.23411,0.07336 -0.40943,0.11003c-0.17496,0.04073 -0.39724,0.06109 -0.66614,0.06109c-0.40728,0 -0.80668,-0.08759 -1.19747,-0.26276c-0.38721,-0.17521 -0.70916,-0.44206 -0.96586,-0.80059c-0.2524,-0.35852 -0.3786,-0.81076 -0.3786,-1.35669zM199.42552,168.74727v5.64675h-1.44234v-12.51575h1.44234v4.59563h0.1219c0.22013,-0.48483 0.55034,-0.86981 0.99024,-1.15502c0.44385,-0.28926 1.0347,-0.43388 1.77218,-0.43388c0.63961,0 1.19998,0.12832 1.6804,0.38499c0.48078,0.25262 0.85364,0.64168 1.1186,1.16725c0.26889,0.52151 0.40334,1.18557 0.40334,1.99225v5.96455h-1.44234v-5.86674c0,-0.74559 -0.1936,-1.32205 -0.58045,-1.72948c-0.38291,-0.41148 -0.91459,-0.61723 -1.59507,-0.61723c-0.47254,0 -0.89631,0.09981 -1.27132,0.29944c-0.37071,0.19966 -0.66399,0.49096 -0.87982,0.8739c-0.21189,0.38298 -0.31765,0.84745 -0.31765,1.39337zM212.08609,174.5896c-0.9042,0 -1.68435,-0.19966 -2.34044,-0.59891c-0.65179,-0.40334 -1.15516,-0.96558 -1.50938,-1.68668c-0.35028,-0.72523 -0.5256,-1.56854 -0.5256,-2.53007c0,-0.96149 0.17532,-1.8089 0.5256,-2.54226c0.35422,-0.73741 0.84719,-1.31188 1.47891,-1.72335c0.63566,-0.41557 1.37709,-0.62333 2.22428,-0.62333c0.48903,0 0.97196,0.08146 1.44843,0.24444c0.47684,0.16295 0.91065,0.42779 1.3018,0.79445c0.39115,0.36261 0.70271,0.84336 0.93503,1.44224c0.23232,0.59891 0.34813,1.33633 0.34813,2.21227v0.6111h-7.23537v-1.24666h5.76865c0,-0.52965 -0.10576,-1.00225 -0.31765,-1.41782c-0.20758,-0.41557 -0.50516,-0.74354 -0.89236,-0.98389c-0.38291,-0.24039 -0.83501,-0.36057 -1.35666,-0.36057c-0.57435,0 -1.07127,0.14258 -1.4911,0.42779c-0.41553,0.28112 -0.73533,0.64778 -0.95941,1.10002c-0.22408,0.45221 -0.33594,0.93704 -0.33594,1.45446v0.83113c0,0.70887 0.12226,1.30983 0.36641,1.8028c0.24882,0.48888 0.593,0.86167 1.03291,1.11834c0.43991,0.25258 0.95117,0.37889 1.53377,0.37889c0.37896,0 0.72135,-0.05295 1.02681,-0.1589c0.30977,-0.11 0.57651,-0.27294 0.80059,-0.48888c0.22408,-0.21999 0.39724,-0.49297 0.5195,-0.8189l1.39322,0.39111c-0.14664,0.4726 -0.39294,0.88817 -0.73928,1.24669c-0.34633,0.35444 -0.77406,0.63151 -1.28352,0.83113c-0.5091,0.19554 -1.08167,0.29335 -1.71733,0.29335zM230.68273,165.00722l-3.47123,9.3868h-1.46672l-3.47123,-9.3868h1.5646l2.59105,7.4801h0.09788l2.59105,-7.4801zM235.06281,174.61401c-0.59479,0 -1.13473,-0.11204 -1.61945,-0.33612c-0.48472,-0.22813 -0.86978,-0.5561 -1.15516,-0.98389c-0.28503,-0.43184 -0.42772,-0.95335 -0.42772,-1.56446c0,-0.53779 0.10613,-0.97372 0.31801,-1.30779c0.21189,-0.33816 0.49477,-0.603 0.84934,-0.79449c0.35458,-0.19145 0.74573,-0.33407 1.17345,-0.42776c0.43166,-0.0978 0.86548,-0.17521 1.30144,-0.23225c0.57041,-0.07332 1.03291,-0.12832 1.38749,-0.16499c0.35852,-0.04073 0.61917,-0.10795 0.7823,-0.20167c0.16671,-0.09372 0.25025,-0.25666 0.25025,-0.48888v-0.0489c0,-0.60296 -0.16492,-1.07148 -0.49477,-1.40556c-0.3259,-0.33411 -0.82102,-0.50115 -1.48501,-0.50115c-0.68873,0 -1.2283,0.15076 -1.61945,0.45224c-0.39115,0.30149 -0.66614,0.62333 -0.82532,0.96558l-1.36885,-0.48892c0.24452,-0.57038 0.57041,-1.01444 0.97805,-1.33224c0.41122,-0.32185 0.85938,-0.54593 1.34446,-0.67223c0.48867,-0.13036 0.96945,-0.19554 1.44198,-0.19554c0.30152,0 0.64785,0.03664 1.039,0.11c0.3951,0.06927 0.7762,0.21389 1.14297,0.43388c0.37071,0.22002 0.67833,0.55206 0.92248,0.99612c0.24452,0.4441 0.36677,1.03893 0.36677,1.78448v6.18454h-1.44234v-1.27115h-0.07314c-0.09788,0.20371 -0.26065,0.4217 -0.48903,0.65391c-0.22802,0.23222 -0.53169,0.42983 -0.91065,0.59279c-0.3786,0.16299 -0.8411,0.24444 -1.38713,0.24444zM235.28295,173.31844c0.57041,0 1.05119,-0.11204 1.44198,-0.33612c0.39545,-0.22408 0.69267,-0.51334 0.89236,-0.86781c0.20364,-0.35444 0.30546,-0.72723 0.30546,-1.11834v-1.32002c-0.06095,0.07336 -0.19539,0.14058 -0.40334,0.20167c-0.20364,0.05704 -0.43991,0.10795 -0.7088,0.15277c-0.26495,0.04077 -0.52344,0.07744 -0.7762,0.11003c-0.24846,0.0285 -0.44995,0.05295 -0.60483,0.07332c-0.37501,0.0489 -0.72529,0.12835 -1.05119,0.23835c-0.32196,0.10591 -0.5826,0.26685 -0.7823,0.48279c-0.19539,0.21185 -0.29327,0.50111 -0.29327,0.86777c0,0.50115 0.18536,0.88003 0.55607,1.1367c0.37501,0.25258 0.84934,0.37889 1.42406,0.37889zM243.43973,161.87827v12.51575h-1.44234v-12.51575zM251.99698,170.5562v-5.54899h1.44234v9.3868h-1.44234v-1.58891h-0.09788c-0.21978,0.47666 -0.56216,0.88204 -1.02645,1.21611c-0.46465,0.33002 -1.05119,0.49501 -1.75999,0.49501c-0.5869,0 -1.1082,-0.12832 -1.5646,-0.38502c-0.4564,-0.26072 -0.81492,-0.65183 -1.07557,-1.17334c-0.26065,-0.52556 -0.39115,-1.18761 -0.39115,-1.98615v-5.96451h1.44234v5.86674c0,0.68446 0.19145,1.23038 0.57435,1.63781c0.38721,0.40743 0.88017,0.6111 1.47891,0.6111c0.35852,0 0.72314,-0.09164 1.09386,-0.27499c0.37501,-0.18335 0.68873,-0.46447 0.94112,-0.84336c0.2567,-0.37889 0.38505,-0.86167 0.38505,-1.44833zM260.01644,174.5896c-0.90456,0 -1.6847,-0.19966 -2.34044,-0.59891c-0.65216,-0.40334 -1.15516,-0.96558 -1.50974,-1.68668c-0.35028,-0.72523 -0.5256,-1.56854 -0.5256,-2.53007c0,-0.96149 0.17532,-1.8089 0.5256,-2.54226c0.35458,-0.73741 0.84755,-1.31188 1.47891,-1.72335c0.63566,-0.41557 1.37709,-0.62333 2.22464,-0.62333c0.48903,0 0.9716,0.08146 1.44843,0.24444c0.47648,0.16295 0.91029,0.42779 1.30144,0.79445c0.39115,0.36261 0.70306,0.84336 0.93503,1.44224c0.23232,0.59891 0.34849,1.33633 0.34849,2.21227v0.6111h-7.23573v-1.24666h5.76901c0,-0.52965 -0.10576,-1.00225 -0.31765,-1.41782c-0.20794,-0.41557 -0.50516,-0.74354 -0.89236,-0.98389c-0.38291,-0.24039 -0.83536,-0.36057 -1.35666,-0.36057c-0.57435,0 -1.07163,0.14258 -1.4911,0.42779c-0.41553,0.28112 -0.73533,0.64778 -0.95941,1.10002c-0.22408,0.45221 -0.33629,0.93704 -0.33629,1.45446v0.83113c0,0.70887 0.12226,1.30983 0.36677,1.8028c0.24846,0.48888 0.59264,0.86167 1.03291,1.11834c0.43991,0.25258 0.95117,0.37889 1.53377,0.37889c0.37896,0 0.72099,-0.05295 1.02681,-0.1589c0.30941,-0.11 0.57651,-0.27294 0.80059,-0.48888c0.22408,-0.21999 0.39724,-0.49297 0.51914,-0.8189l1.39358,0.39111c-0.14664,0.4726 -0.3933,0.88817 -0.73964,1.24669c-0.34633,0.35444 -0.77406,0.63151 -1.28316,0.83113c-0.50946,0.19554 -1.08167,0.29335 -1.71733,0.29335zM274.7507,174.5896c-0.84755,0 -1.59113,-0.20167 -2.23074,-0.60501c-0.63566,-0.40334 -1.13258,-0.96762 -1.4911,-1.69281c-0.35458,-0.72523 -0.53169,-1.57263 -0.53169,-2.54226c0,-0.9778 0.17711,-1.83134 0.53169,-2.56062c0.35852,-0.72927 0.85544,-1.29556 1.4911,-1.6989c0.63961,-0.40334 1.38319,-0.60501 2.23074,-0.60501c0.84719,0 1.58862,0.20167 2.22428,0.60501c0.63961,0.40334 1.13688,0.96963 1.4911,1.6989c0.35852,0.72927 0.53779,1.58281 0.53779,2.56062c0,0.96963 -0.17926,1.81704 -0.53779,2.54226c-0.35422,0.72519 -0.8515,1.28947 -1.4911,1.69281c-0.63566,0.40334 -1.37709,0.60501 -2.22428,0.60501zM274.7507,173.294c0.64355,0 1.17309,-0.16499 1.58862,-0.49501c0.41553,-0.32999 0.72314,-0.76387 0.92284,-1.30166c0.1997,-0.53779 0.29937,-1.12039 0.29937,-1.74781c0,-0.62742 -0.09967,-1.21206 -0.29937,-1.75393c-0.1997,-0.54187 -0.50731,-0.97981 -0.92284,-1.31392c-0.41553,-0.33407 -0.94507,-0.50111 -1.58862,-0.50111c-0.64391,0 -1.17345,0.16704 -1.58898,0.50111c-0.41553,0.33411 -0.72314,0.77204 -0.92284,1.31392c-0.1997,0.54187 -0.29937,1.12652 -0.29937,1.75393c0,0.62742 0.09967,1.21002 0.29937,1.74781c0.1997,0.53779 0.50731,0.97167 0.92284,1.30166c0.41553,0.33002 0.94507,0.49501 1.58898,0.49501zM285.3856,165.00722v1.22224h-5.06021v-1.22224zM281.84123,174.39402v-10.6824c0,-0.53779 0.1262,-0.98594 0.3786,-1.34446c0.25276,-0.35852 0.58081,-0.62742 0.98415,-0.80668c0.40334,-0.17925 0.8289,-0.26888 1.27706,-0.26888c0.35458,0 0.64391,0.02852 0.86799,0.08556c0.22408,0.05704 0.39115,0.11 0.50086,0.15891l-0.41553,1.24666c-0.07314,-0.02442 -0.17496,-0.055 -0.30546,-0.09164c-0.1262,-0.03668 -0.29327,-0.05503 -0.50121,-0.05503c-0.47648,0 -0.82066,0.12021 -1.03255,0.36057c-0.20794,0.24039 -0.31192,0.59279 -0.31192,1.05725v10.34015zM300.75373,165.00722v1.34446h-9.21586v-1.34446zM294.3738,165.00722v9.3868h-1.44234v-9.3868zM297.96692,165.00722h1.44234v7.06454c0,0.29335 0.05306,0.51334 0.15883,0.66001c0.11007,0.14667 0.24452,0.24448 0.40334,0.29335c0.16313,0.0489 0.3259,0.07336 0.48903,0.07336c0.13444,0 0.27069,-0.01427 0.40943,-0.04281c0.14269,-0.0285 0.25061,-0.055 0.32375,-0.07941v1.34446c-0.12226,0.03664 -0.28718,0.07741 -0.49477,0.12222c-0.20794,0.04886 -0.45855,0.07332 -0.75183,0.07332c-0.57435,0 -1.04904,-0.1813 -1.42406,-0.54388c-0.37071,-0.36261 -0.55607,-0.99612 -0.55607,-1.90061zM308.45698,169.11393c0,-1.54001 0.1997,-2.95578 0.59874,-4.24729c0.40334,-1.29556 0.9777,-2.48726 1.72342,-3.57504h1.27097c-0.29327,0.40333 -0.56826,0.90038 -0.82496,1.49112c-0.2524,0.58669 -0.47468,1.23243 -0.66614,1.93725c-0.19145,0.70077 -0.34203,1.42596 -0.4521,2.1756c-0.10576,0.74964 -0.15883,1.4891 -0.15883,2.21837c0,0.96967 0.09358,1.95356 0.28108,2.95173c0.18751,0.99817 0.43991,1.92503 0.75792,2.7806c0.31765,0.85555 0.67223,1.55223 1.06302,2.09002h-1.27097c-0.74573,-1.0878 -1.32008,-2.27745 -1.72342,-3.56893c-0.39904,-1.2956 -0.59874,-2.71338 -0.59874,-4.25342zM314.17866,177.91408v-12.90686h1.39322v1.49114h0.17102c0.10613,-0.16299 0.25276,-0.37075 0.43991,-0.62337c0.19181,-0.25666 0.46465,-0.4848 0.81922,-0.68446c0.35852,-0.20368 0.84325,-0.30553 1.45417,-0.30553c0.79055,0 1.48716,0.19758 2.09019,0.59279c0.60304,0.3952 1.07342,0.95539 1.41151,1.68058c0.33845,0.72519 0.50731,1.58077 0.50731,2.56671c0,0.99408 -0.16886,1.85576 -0.50731,2.58503c-0.33809,0.72519 -0.80668,1.28742 -1.40541,1.68668c-0.59874,0.3952 -1.28961,0.59282 -2.07155,0.59282c-0.60304,0 -1.08597,-0.09985 -1.44843,-0.29947c-0.36282,-0.20371 -0.64176,-0.43388 -0.83715,-0.69055c-0.19575,-0.26075 -0.34633,-0.47669 -0.45246,-0.64778h-0.12226v4.96229zM315.59626,169.70062c0,0.70891 0.10397,1.33428 0.31155,1.87612c0.20794,0.53779 0.51161,0.95948 0.91065,1.26505c0.3994,0.30149 0.88806,0.45221 1.46672,0.45221c0.60304,0 1.10605,-0.1589 1.50938,-0.47666c0.40764,-0.32188 0.71311,-0.75373 0.91675,-1.2956c0.20794,-0.54593 0.31155,-1.15297 0.31155,-1.82112c0,-0.66001 -0.10182,-1.25483 -0.30546,-1.78448c-0.1997,-0.5337 -0.50301,-0.95539 -0.91065,-1.26502c-0.40334,-0.31371 -0.91029,-0.47057 -1.52158,-0.47057c-0.58654,0 -1.07952,0.14872 -1.47891,0.44611c-0.3994,0.29335 -0.70056,0.70482 -0.90456,1.23447c-0.20364,0.52556 -0.30546,1.13871 -0.30546,1.83948zM324.66549,174.39402v-9.3868h1.44198v9.3868zM325.39867,163.44273c-0.28108,0 -0.52344,-0.09572 -0.72709,-0.28721c-0.1997,-0.19149 -0.29973,-0.42166 -0.29973,-0.69055c0,-0.26889 0.10003,-0.4991 0.29973,-0.69059c0.20364,-0.19149 0.446,-0.28721 0.72709,-0.28721c0.28108,0 0.52165,0.09572 0.72099,0.28721c0.204,0.19149 0.30582,0.4217 0.30582,0.69059c0,0.26889 -0.10182,0.49907 -0.30582,0.69055c-0.19934,0.19149 -0.43991,0.28721 -0.72099,0.28721zM332.4175,169.11393c0,1.54004 -0.20185,2.95782 -0.60519,4.25342c-0.39904,1.29147 -0.9716,2.48113 -1.71733,3.56893h-1.27097c0.29327,-0.40334 0.56647,-0.9004 0.81887,-1.49114c0.2567,-0.58665 0.48078,-1.23038 0.67223,-1.93112c0.19145,-0.70486 0.34024,-1.43209 0.446,-2.18172c0.11007,-0.75369 0.16528,-1.49315 0.16528,-2.21837c0,-0.96963 -0.09393,-1.95353 -0.28108,-2.95169c-0.18751,-0.99817 -0.44026,-1.92503 -0.75792,-2.7806c-0.31765,-0.85558 -0.67223,-1.55226 -1.06338,-2.09004h1.27097c0.74573,1.08779 1.31829,2.27948 1.71733,3.57504c0.40334,1.29151 0.60519,2.70729 0.60519,4.24729zM344.49473,165.00722v1.22224h-4.86445v-1.22224zM341.04788,162.7583h1.44234v8.94679c0,0.40743 0.05916,0.71296 0.17711,0.91667c0.12226,0.19963 0.27714,0.33407 0.46465,0.40334c0.19145,0.06518 0.39294,0.09777 0.60483,0.09777c0.15883,0 0.28933,-0.00814 0.39115,-0.02442c0.10182,-0.0204 0.18321,-0.03668 0.24452,-0.0489l0.29327,1.29556c-0.09788,0.03668 -0.23411,0.07336 -0.40943,0.11003c-0.17532,0.04073 -0.39724,0.06109 -0.66614,0.06109c-0.40728,0 -0.80668,-0.08759 -1.19783,-0.26276c-0.38685,-0.17521 -0.7088,-0.44206 -0.9655,-0.80059c-0.25276,-0.35852 -0.37896,-0.81076 -0.37896,-1.35669zM350.37668,174.5896c-0.84755,0 -1.59077,-0.20167 -2.23074,-0.60501c-0.6353,-0.40334 -1.13258,-0.96762 -1.4911,-1.69281c-0.35422,-0.72523 -0.53169,-1.57263 -0.53169,-2.54226c0,-0.9778 0.17747,-1.83134 0.53169,-2.56062c0.35852,-0.72927 0.8558,-1.29556 1.4911,-1.6989c0.63997,-0.40334 1.38319,-0.60501 2.23074,-0.60501c0.84755,0 1.58898,0.20167 2.22464,0.60501c0.63961,0.40334 1.13652,0.96963 1.4911,1.6989c0.35852,0.72927 0.53779,1.58281 0.53779,2.56062c0,0.96963 -0.17926,1.81704 -0.53779,2.54226c-0.35458,0.72519 -0.8515,1.28947 -1.4911,1.69281c-0.63566,0.40334 -1.37709,0.60501 -2.22464,0.60501zM350.37668,173.294c0.64391,0 1.17345,-0.16499 1.58898,-0.49501c0.41553,-0.32999 0.72314,-0.76387 0.92284,-1.30166c0.1997,-0.53779 0.29937,-1.12039 0.29937,-1.74781c0,-0.62742 -0.09967,-1.21206 -0.29937,-1.75393c-0.1997,-0.54187 -0.50731,-0.97981 -0.92284,-1.31392c-0.41553,-0.33407 -0.94507,-0.50111 -1.58898,-0.50111c-0.64355,0 -1.17345,0.16704 -1.58898,0.50111c-0.41553,0.33411 -0.72314,0.77204 -0.92284,1.31392c-0.19934,0.54187 -0.29937,1.12652 -0.29937,1.75393c0,0.62742 0.10003,1.21002 0.29937,1.74781c0.1997,0.53779 0.50731,0.97167 0.92284,1.30166c0.41553,0.33002 0.94543,0.49501 1.58898,0.49501zM130.40542,185.80161v1.22224h-4.86453v-1.22224zM126.9587,183.55269h1.44224v8.94679c0,0.40743 0.05908,0.71296 0.17723,0.91667c0.12223,0.19963 0.27703,0.33407 0.46444,0.40341c0.19149,0.06525 0.39316,0.09788 0.60501,0.09788c0.1589,0 0.28929,-0.00825 0.39115,-0.02474c0.10182,-0.02008 0.18331,-0.03657 0.24444,-0.04876l0.29335,1.29571c-0.0978,0.03657 -0.2343,0.07314 -0.40947,0.10971c-0.17517,0.04087 -0.39721,0.06131 -0.6661,0.06131c-0.40743,0 -0.80668,-0.08748 -1.19781,-0.2628c-0.38704,-0.17532 -0.7089,-0.44206 -0.96557,-0.80059c-0.25259,-0.35852 -0.37889,-0.81076 -0.37889,-1.35669zM134.70158,195.18841l-2.86002,-9.3868h1.51555l2.02892,7.18676h0.0978l2.00447,-7.18676h1.54001l1.98002,7.16234h0.0978l2.02892,-7.16234h1.51555l-2.86002,9.3868h-1.41782l-2.05337,-7.21121h-0.14664l-2.05337,7.21121zM150.05143,195.3838c-0.84745,0 -1.59095,-0.20149 -2.23059,-0.60483c-0.63559,-0.40334 -1.13261,-0.96766 -1.49114,-1.69281c-0.35447,-0.72523 -0.53169,-1.57263 -0.53169,-2.54226c0,-0.9778 0.17722,-1.83134 0.53169,-2.56062c0.35852,-0.72927 0.85555,-1.29556 1.49114,-1.6989c0.63965,-0.40334 1.38315,-0.60501 2.23059,-0.60501c0.84741,0 1.58891,0.20167 2.22446,0.60501c0.63965,0.40334 1.1367,0.96963 1.49114,1.6989c0.35852,0.72927 0.53779,1.58281 0.53779,2.56062c0,0.96963 -0.17926,1.81704 -0.53779,2.54226c-0.35444,0.72515 -0.8515,1.28947 -1.49114,1.69281c-0.63556,0.40334 -1.37705,0.60483 -2.22446,0.60483zM150.05143,194.08846c0.6437,0 1.17334,-0.16492 1.58891,-0.49509c0.41557,-0.32999 0.72314,-0.76387 0.92277,-1.30166c0.19966,-0.53779 0.29947,-1.12039 0.29947,-1.74781c0,-0.62742 -0.09981,-1.21206 -0.29947,-1.75393c-0.19963,-0.54187 -0.50721,-0.97981 -0.92277,-1.31392c-0.41557,-0.33407 -0.94521,-0.50111 -1.58891,-0.50111c-0.64373,0 -1.17338,0.16704 -1.58894,0.50111c-0.41557,0.33411 -0.72314,0.77204 -0.92277,1.31392c-0.19963,0.54187 -0.29947,1.12652 -0.29947,1.75393c0,0.62742 0.09985,1.21002 0.29947,1.74781c0.19963,0.53779 0.50721,0.97167 0.92277,1.30166c0.41557,0.33016 0.94521,0.49509 1.58894,0.49509zM164.89106,195.3838c-0.7823,0 -1.47282,-0.19755 -2.07191,-0.59264c-0.59874,-0.3994 -1.06733,-0.96156 -1.40541,-1.68668c-0.33809,-0.72927 -0.50731,-1.59095 -0.50731,-2.58503c0,-0.98594 0.16922,-1.84152 0.50731,-2.56671c0.33809,-0.72519 0.80883,-1.28538 1.41151,-1.68058c0.60304,-0.3952 1.29965,-0.59279 2.09019,-0.59279c0.61093,0 1.09386,0.10186 1.44843,0.30553c0.35852,0.19966 0.63136,0.42779 0.81887,0.68446c0.19145,0.25262 0.34024,0.46038 0.446,0.62337h0.12226v-4.62008h1.44234v12.51575h-1.39358v-1.44224h-0.17102c-0.10576,0.17127 -0.2567,0.3871 -0.4521,0.64774c-0.19575,0.2567 -0.47468,0.48688 -0.83751,0.69051c-0.36247,0.1997 -0.84504,0.29937 -1.44808,0.29937zM165.08646,194.08846c0.57866,0 1.06733,-0.15094 1.46672,-0.45228c0.3994,-0.30557 0.70271,-0.72726 0.91065,-1.26505c0.20758,-0.54184 0.31155,-1.16721 0.31155,-1.87612c0,-0.70077 -0.10182,-1.31392 -0.30546,-1.83948c-0.20364,-0.52965 -0.50516,-0.94112 -0.90456,-1.23447c-0.39904,-0.2974 -0.89201,-0.44611 -1.47891,-0.44611c-0.61093,0 -1.12039,0.15686 -1.52767,0.47057c-0.40334,0.30962 -0.70701,0.73132 -0.91065,1.26502c-0.1997,0.52965 -0.29937,1.12447 -0.29937,1.78448c0,0.66815 0.10182,1.2752 0.30546,1.82112c0.20794,0.54187 0.5134,0.97372 0.91675,1.2956c0.40728,0.3179 0.91245,0.47673 1.51548,0.47673zM175.97053,195.3838c-0.90456,0 -1.6847,-0.19934 -2.34044,-0.59874c-0.65216,-0.40334 -1.15516,-0.9655 -1.50974,-1.68668c-0.35028,-0.72523 -0.52524,-1.56854 -0.52524,-2.53007c0,-0.96149 0.17496,-1.8089 0.52524,-2.54226c0.35458,-0.73741 0.84755,-1.31188 1.47891,-1.72335c0.63566,-0.41557 1.37709,-0.62333 2.22464,-0.62333c0.48903,0 0.9716,0.08146 1.44843,0.24444c0.47648,0.16295 0.91065,0.42779 1.30144,0.79445c0.39115,0.36261 0.70306,0.84336 0.93503,1.44224c0.23232,0.59891 0.34849,1.33633 0.34849,2.21227v0.6111h-7.23573v-1.24666h5.76901c0,-0.52965 -0.10576,-1.00225 -0.31765,-1.41782c-0.20794,-0.41557 -0.50516,-0.74354 -0.89236,-0.98389c-0.38291,-0.24039 -0.83501,-0.36057 -1.35666,-0.36057c-0.57435,0 -1.07163,0.14258 -1.4911,0.42779c-0.41553,0.28112 -0.73533,0.64778 -0.95941,1.10002c-0.22408,0.45221 -0.33629,0.93704 -0.33629,1.45446v0.83113c0,0.70887 0.12226,1.30983 0.36677,1.8028c0.24846,0.48888 0.59264,0.86167 1.03291,1.11834c0.43991,0.25276 0.95117,0.37896 1.53377,0.37896c0.37896,0 0.72099,-0.05306 1.02681,-0.15883c0.30941,-0.11007 0.57651,-0.27309 0.80059,-0.48903c0.22408,-0.21999 0.39724,-0.49297 0.5195,-0.8189l1.39322,0.39111c-0.14664,0.4726 -0.3933,0.88814 -0.73964,1.24666c-0.34597,0.35458 -0.77406,0.63136 -1.28316,0.83106c-0.50946,0.19575 -1.08167,0.29327 -1.71733,0.29327zM185.86471,195.3838c-0.88017,0 -1.63774,-0.20758 -2.2734,-0.62311c-0.63566,-0.41553 -1.12469,-0.98809 -1.46672,-1.71733c-0.34239,-0.72924 -0.5134,-1.56241 -0.5134,-2.49945c0,-0.95335 0.17532,-1.79467 0.5256,-2.52394c0.35458,-0.73336 0.84755,-1.30578 1.47891,-1.71726c0.63566,-0.41557 1.37709,-0.62333 2.22464,-0.62333c0.65968,0 1.25483,0.12222 1.78437,0.36666c0.52954,0.24444 0.96335,0.58669 1.30144,1.02667c0.33845,0.44002 0.54818,0.95335 0.62957,1.54004h-1.44234c-0.10971,-0.42779 -0.35422,-0.80668 -0.73318,-1.1367c-0.37466,-0.33407 -0.88017,-0.50111 -1.51548,-0.50111c-0.56216,0 -1.05514,0.14667 -1.47891,0.44002c-0.41983,0.28926 -0.74788,0.69869 -0.98415,1.22834c-0.23197,0.52556 -0.34813,1.1428 -0.34813,1.8517c0,0.72519 0.11401,1.35669 0.34203,1.89448c0.23232,0.53779 0.55822,0.95539 0.97805,1.25279c0.42342,0.2974 0.92069,0.44618 1.4911,0.44618c0.37466,0 0.7149,-0.06525 1.02036,-0.19575c0.30582,-0.13014 0.56432,-0.31765 0.7762,-0.5621c0.21189,-0.24444 0.36247,-0.53779 0.4521,-0.88003h1.44234c-0.08139,0.5541 -0.28324,1.05317 -0.60483,1.49734c-0.31801,0.43991 -0.73964,0.79018 -1.26523,1.05119c-0.5213,0.2567 -1.12828,0.38469 -1.82094,0.38469zM191.6642,195.18841v-9.3868h1.44234v9.3868zM192.39738,184.23712c-0.28108,0 -0.52344,-0.09572 -0.72709,-0.28721c-0.1997,-0.19149 -0.29937,-0.42166 -0.29937,-0.69055c0,-0.26889 0.09967,-0.4991 0.29937,-0.69059c0.20364,-0.19149 0.446,-0.28721 0.72709,-0.28721c0.28108,0 0.52165,0.09572 0.72135,0.28721c0.20364,0.19149 0.30546,0.4217 0.30546,0.69059c0,0.26889 -0.10182,0.49907 -0.30546,0.69055c-0.1997,0.19149 -0.44026,0.28721 -0.72135,0.28721zM195.74778,195.18841v-9.3868h1.39358v1.46668h0.12226c0.19539,-0.50111 0.51126,-0.89022 0.94722,-1.16725c0.43596,-0.28112 0.95941,-0.42166 1.57033,-0.42166c0.61953,0 1.13473,0.14054 1.54631,0.42166c0.41553,0.27703 0.73928,0.66614 0.9716,1.16725h0.09788c0.24021,-0.48483 0.60089,-0.86981 1.08167,-1.15502c0.48078,-0.28926 1.05729,-0.43388 1.72952,-0.43388c0.83931,0 1.52552,0.26276 2.05936,0.78832c0.53384,0.52151 0.80059,1.33428 0.80059,2.43839v6.28231h-1.44234v-6.28231c0,-0.6926 -0.1893,-1.18761 -0.56826,-1.48504c-0.37896,-0.2974 -0.82496,-0.44611 -1.33837,-0.44611c-0.66004,0 -1.1713,0.19963 -1.53377,0.59891c-0.36282,0.39516 -0.54388,0.89631 -0.54388,1.50333v6.11122h-1.46672v-6.42898c0,-0.53373 -0.17317,-0.96353 -0.5195,-1.28947c-0.34633,-0.33002 -0.79234,-0.49501 -1.33837,-0.49501c-0.37466,0 -0.72529,0.09981 -1.05119,0.29944c-0.32196,0.19966 -0.5826,0.47669 -0.7823,0.83113c-0.19539,0.35038 -0.29327,0.75577 -0.29327,1.21615v5.86674zM213.46748,195.40854c-0.59479,0 -1.13473,-0.11222 -1.61945,-0.33629c-0.48509,-0.22802 -0.86978,-0.55607 -1.15516,-0.98379c-0.28503,-0.43191 -0.42772,-0.95342 -0.42772,-1.56453c0,-0.53779 0.10576,-0.97372 0.31765,-1.30779c0.21189,-0.33816 0.49512,-0.603 0.8497,-0.79449c0.35422,-0.19145 0.74537,-0.33407 1.17309,-0.42776c0.43202,-0.0978 0.86584,-0.17521 1.3018,-0.23225c0.57041,-0.07332 1.03291,-0.12832 1.38713,-0.16499c0.35852,-0.04073 0.61953,-0.10795 0.7823,-0.20167c0.16707,-0.09372 0.25061,-0.25666 0.25061,-0.48888v-0.0489c0,-0.60296 -0.16492,-1.07148 -0.49512,-1.40556c-0.3259,-0.33411 -0.82066,-0.50115 -1.48501,-0.50115c-0.68837,0 -1.2283,0.15076 -1.61945,0.45224c-0.39115,0.30149 -0.66614,0.62333 -0.82496,0.96558l-1.36885,-0.48892c0.24452,-0.57038 0.57041,-1.01444 0.9777,-1.33224c0.41159,-0.32185 0.85974,-0.54593 1.34446,-0.67223c0.48903,-0.13036 0.96981,-0.19554 1.44234,-0.19554c0.30152,0 0.64785,0.03664 1.039,0.11c0.3951,0.06927 0.77585,0.21389 1.14262,0.43388c0.37071,0.22002 0.67833,0.55206 0.92284,0.99612c0.24452,0.4441 0.36677,1.03893 0.36677,1.78448v6.18454h-1.44234v-1.27097h-0.0735c-0.09752,0.20364 -0.26065,0.42163 -0.48867,0.65359c-0.22838,0.23232 -0.53169,0.42987 -0.91065,0.593c-0.37896,0.16277 -0.84145,0.24452 -1.38713,0.24452zM213.68725,194.11284c0.57041,0 1.05119,-0.11186 1.44234,-0.33629c0.3951,-0.2239 0.69267,-0.51316 0.89236,-0.86763c0.20364,-0.35444 0.30546,-0.72723 0.30546,-1.11834v-1.32002c-0.06095,0.07336 -0.19539,0.14058 -0.40334,0.20167c-0.20364,0.05704 -0.43991,0.10795 -0.7088,0.15277c-0.26495,0.04077 -0.52344,0.07744 -0.7762,0.11003c-0.24846,0.0285 -0.45031,0.05295 -0.60519,0.07332c-0.37466,0.0489 -0.72493,0.12835 -1.05084,0.23835c-0.32196,0.10591 -0.5826,0.26685 -0.7823,0.48279c-0.19575,0.21185 -0.29327,0.50111 -0.29327,0.86777c0,0.50115 0.18536,0.88003 0.55607,1.1367c0.37466,0.25269 0.84934,0.37889 1.4237,0.37889zM221.84439,182.67266v12.51575h-1.44234v-12.51575zM229.32607,198.7084v-12.90679h1.39322v1.49114h0.17102c0.10613,-0.16299 0.25276,-0.37075 0.44026,-0.62337c0.19145,-0.25666 0.46429,-0.4848 0.81887,-0.68446c0.35852,-0.20368 0.84325,-0.30553 1.45453,-0.30553c0.79018,0 1.4868,0.19758 2.08984,0.59279c0.60304,0.3952 1.07342,0.95539 1.41187,1.68058c0.33809,0.72519 0.50695,1.58077 0.50695,2.56671c0,0.99408 -0.16886,1.85576 -0.50695,2.58503c-0.33845,0.72512 -0.80668,1.28728 -1.40577,1.68668c-0.59874,0.3951 -1.28925,0.59264 -2.07155,0.59264c-0.60304,0 -1.08597,-0.09967 -1.44843,-0.29937c-0.36247,-0.20364 -0.64176,-0.43382 -0.83715,-0.69051c-0.19575,-0.26065 -0.34633,-0.47648 -0.45246,-0.64774h-0.12226v4.96223zM230.74367,190.49501c0,0.70891 0.10397,1.33428 0.31192,1.87612c0.20758,0.53779 0.51126,0.95948 0.91029,1.26505c0.3994,0.30134 0.88842,0.45228 1.46672,0.45228c0.60304,0 1.10605,-0.15883 1.50938,-0.47673c0.40764,-0.32188 0.71311,-0.75373 0.91675,-1.2956c0.20794,-0.54593 0.31192,-1.15297 0.31192,-1.82112c0,-0.66001 -0.10182,-1.25483 -0.30582,-1.78448c-0.19934,-0.5337 -0.50301,-0.95539 -0.91029,-1.26502c-0.40334,-0.31371 -0.91065,-0.47057 -1.52193,-0.47057c-0.58654,0 -1.07952,0.14872 -1.47891,0.44611c-0.39904,0.29335 -0.70056,0.70482 -0.9042,1.23447c-0.204,0.52556 -0.30582,1.13871 -0.30582,1.83948zM241.25488,182.67266v12.51575h-1.44198v-12.51575zM246.65891,195.40854c-0.59479,0 -1.13473,-0.11222 -1.61945,-0.33629c-0.48472,-0.22802 -0.86978,-0.55607 -1.15516,-0.98379c-0.28503,-0.43191 -0.42772,-0.95342 -0.42772,-1.56453c0,-0.53779 0.10613,-0.97372 0.31765,-1.30779c0.21189,-0.33816 0.49512,-0.603 0.8497,-0.79449c0.35422,-0.19145 0.74537,-0.33407 1.17309,-0.42776c0.43202,-0.0978 0.86584,-0.17521 1.3018,-0.23225c0.57041,-0.07332 1.03291,-0.12832 1.38713,-0.16499c0.35852,-0.04073 0.61953,-0.10795 0.7823,-0.20167c0.16707,-0.09372 0.25061,-0.25666 0.25061,-0.48888v-0.0489c0,-0.60296 -0.16492,-1.07148 -0.49512,-1.40556c-0.3259,-0.33411 -0.82066,-0.50115 -1.48501,-0.50115c-0.68837,0 -1.2283,0.15076 -1.61945,0.45224c-0.39115,0.30149 -0.66614,0.62333 -0.82496,0.96558l-1.36885,-0.48892c0.24452,-0.57038 0.57041,-1.01444 0.9777,-1.33224c0.41159,-0.32185 0.85974,-0.54593 1.34446,-0.67223c0.48903,-0.13036 0.96981,-0.19554 1.44234,-0.19554c0.30152,0 0.64785,0.03664 1.039,0.11c0.3951,0.06927 0.7762,0.21389 1.14262,0.43388c0.37071,0.22002 0.67833,0.55206 0.92284,0.99612c0.24452,0.4441 0.36677,1.03893 0.36677,1.78448v6.18454h-1.44234v-1.27097h-0.07314c-0.09788,0.20364 -0.26101,0.42163 -0.48903,0.65359c-0.22802,0.23232 -0.53169,0.42987 -0.91065,0.593c-0.37896,0.16277 -0.8411,0.24452 -1.38713,0.24452zM246.87905,194.11284c0.57005,0 1.05084,-0.11186 1.44198,-0.33629c0.39545,-0.2239 0.69267,-0.51316 0.89236,-0.86763c0.20364,-0.35444 0.30546,-0.72723 0.30546,-1.11834v-1.32002c-0.06095,0.07336 -0.19539,0.14058 -0.40334,0.20167c-0.20364,0.05704 -0.43991,0.10795 -0.7088,0.15277c-0.26495,0.04077 -0.52344,0.07744 -0.7762,0.11003c-0.24846,0.0285 -0.45031,0.05295 -0.60483,0.07332c-0.37501,0.0489 -0.72529,0.12835 -1.05119,0.23835c-0.32196,0.10591 -0.5826,0.26685 -0.7823,0.48279c-0.19539,0.21185 -0.29327,0.50111 -0.29327,0.86777c0,0.50115 0.18536,0.88003 0.55607,1.1367c0.37466,0.25269 0.84934,0.37889 1.42406,0.37889zM257.4071,195.3838c-0.88017,0 -1.63809,-0.20758 -2.2734,-0.62311c-0.63566,-0.41553 -1.12469,-0.98809 -1.46672,-1.71733c-0.34239,-0.72924 -0.5134,-1.56241 -0.5134,-2.49945c0,-0.95335 0.17532,-1.79467 0.5256,-2.52394c0.35422,-0.73336 0.84719,-1.30578 1.47891,-1.71726c0.63566,-0.41557 1.37709,-0.62333 2.22428,-0.62333c0.66004,0 1.25483,0.12222 1.78473,0.36666c0.52954,0.24444 0.96335,0.58669 1.30144,1.02667c0.33845,0.44002 0.54818,0.95335 0.62957,1.54004h-1.44234c-0.11007,-0.42779 -0.35422,-0.80668 -0.73318,-1.1367c-0.37501,-0.33407 -0.88017,-0.50111 -1.51548,-0.50111c-0.56253,0 -1.05549,0.14667 -1.47891,0.44002c-0.41983,0.28926 -0.74788,0.69869 -0.98415,1.22834c-0.23197,0.52556 -0.34813,1.1428 -0.34813,1.8517c0,0.72519 0.11401,1.35669 0.34203,1.89448c0.23232,0.53779 0.55822,0.95539 0.9777,1.25279c0.42377,0.2974 0.92105,0.44618 1.49146,0.44618c0.37466,0 0.7149,-0.06525 1.02036,-0.19575c0.30546,-0.13014 0.56432,-0.31765 0.7762,-0.5621c0.21189,-0.24444 0.36247,-0.53779 0.4521,-0.88003h1.44234c-0.08139,0.5541 -0.28324,1.05317 -0.60483,1.49734c-0.31801,0.43991 -0.73964,0.79018 -1.26523,1.05119c-0.5213,0.2567 -1.12863,0.38469 -1.82094,0.38469zM267.1421,195.3838c-0.90456,0 -1.6847,-0.19934 -2.34044,-0.59874c-0.65216,-0.40334 -1.15516,-0.9655 -1.50974,-1.68668c-0.35028,-0.72523 -0.5256,-1.56854 -0.5256,-2.53007c0,-0.96149 0.17532,-1.8089 0.5256,-2.54226c0.35458,-0.73741 0.84755,-1.31188 1.47891,-1.72335c0.63566,-0.41557 1.37709,-0.62333 2.22464,-0.62333c0.48903,0 0.9716,0.08146 1.44843,0.24444c0.47648,0.16295 0.91029,0.42779 1.30144,0.79445c0.39115,0.36261 0.70306,0.84336 0.93503,1.44224c0.23232,0.59891 0.34849,1.33633 0.34849,2.21227v0.6111h-7.23573v-1.24666h5.76901c0,-0.52965 -0.10576,-1.00225 -0.31765,-1.41782c-0.20794,-0.41557 -0.50516,-0.74354 -0.89236,-0.98389c-0.38291,-0.24039 -0.83536,-0.36057 -1.35666,-0.36057c-0.57435,0 -1.07163,0.14258 -1.4911,0.42779c-0.41553,0.28112 -0.73533,0.64778 -0.95941,1.10002c-0.22408,0.45221 -0.33629,0.93704 -0.33629,1.45446v0.83113c0,0.70887 0.12226,1.30983 0.36677,1.8028c0.24846,0.48888 0.59264,0.86167 1.03291,1.11834c0.43991,0.25276 0.95117,0.37896 1.53377,0.37896c0.37896,0 0.72099,-0.05306 1.02681,-0.15883c0.30941,-0.11007 0.57651,-0.27309 0.80059,-0.48903c0.22408,-0.21999 0.39724,-0.49297 0.51914,-0.8189l1.39358,0.39111c-0.14664,0.4726 -0.3933,0.88814 -0.73964,1.24666c-0.34633,0.35458 -0.77406,0.63136 -1.28316,0.83106c-0.50946,0.19575 -1.08167,0.29327 -1.71733,0.29327zM279.87186,187.90385l-1.29571,0.36666c-0.08139,-0.21591 -0.20149,-0.42574 -0.36068,-0.62943c-0.15453,-0.2078 -0.36641,-0.37893 -0.6353,-0.51337c-0.26889,-0.13444 -0.61343,-0.20167 -1.03291,-0.20167c-0.57435,0 -1.05334,0.13244 -1.43625,0.39724c-0.37896,0.26075 -0.56826,0.59279 -0.56826,0.99612c0,0.35852 0.1305,0.64168 0.39115,0.84945c0.26065,0.2078 0.66829,0.38093 1.22221,0.51946l1.39322,0.34221c0.83931,0.20371 1.46493,0.51538 1.87616,0.93503c0.41159,0.41557 0.61738,0.95131 0.61738,1.60723c0,0.53779 -0.15488,1.01857 -0.46465,1.44216c-0.30546,0.42377 -0.73318,0.75792 -1.28316,1.00244c-0.54998,0.24452 -1.18958,0.36641 -1.91882,0.36641c-0.95762,0 -1.74995,-0.20758 -2.37737,-0.62311c-0.62742,-0.41553 -1.02466,-1.02269 -1.19174,-1.8212l1.36885,-0.34224c0.1305,0.5052 0.37681,0.88409 0.73964,1.1367c0.36677,0.25269 0.8454,0.37889 1.43589,0.37889c0.67223,0 1.20607,-0.14269 1.60117,-0.42779c0.3994,-0.28926 0.59909,-0.63556 0.59909,-1.03889c0,-0.32593 -0.11401,-0.59891 -0.34239,-0.8189c-0.22802,-0.22408 -0.5783,-0.39111 -1.05119,-0.50111l-1.56424,-0.3667c-0.85974,-0.20368 -1.4911,-0.51943 -1.89444,-0.94722c-0.3994,-0.43184 -0.59909,-0.97167 -0.59909,-1.61945c0,-0.52965 0.14879,-0.99817 0.44637,-1.4056c0.30152,-0.40743 0.71095,-0.72723 1.2283,-0.95945c0.5213,-0.23225 1.11214,-0.34834 1.77218,-0.34834c0.92894,0 1.65818,0.20371 2.18772,0.6111c0.53384,0.40743 0.9128,0.94521 1.13688,1.61336zM284.09599,191.66835v-0.07332c0.00825,-0.77818 0.08963,-1.39746 0.24452,-1.8578c0.15488,-0.46038 0.37501,-0.83317 0.66004,-1.11838c0.28503,-0.28517 0.62742,-0.54797 1.02681,-0.78832c0.24021,-0.14667 0.45605,-0.31984 0.64785,-0.51946c0.19145,-0.20371 0.34203,-0.43797 0.4521,-0.70278c0.11401,-0.26484 0.17102,-0.55815 0.17102,-0.88003c0,-0.39925 -0.09358,-0.74555 -0.28108,-1.03889c-0.18751,-0.29335 -0.43812,-0.51946 -0.75183,-0.67833c-0.31371,-0.1589 -0.66184,-0.23835 -1.04474,-0.23835c-0.33415,0 -0.6561,0.06927 -0.9655,0.20777c-0.30977,0.13853 -0.56862,0.35652 -0.7762,0.65391c-0.20794,0.2974 -0.32805,0.6865 -0.36068,1.16725h-1.53986c0.03226,-0.6926 0.21153,-1.28538 0.53779,-1.77835c0.32984,-0.49297 0.76365,-0.86985 1.30144,-1.13061c0.54209,-0.26072 1.14297,-0.39111 1.80302,-0.39111c0.71705,0 1.34016,0.14262 1.87006,0.42779c0.53349,0.28521 0.94507,0.67632 1.2344,1.17334c0.29327,0.49706 0.43991,1.06338 0.43991,1.69894c0,0.44815 -0.06919,0.85354 -0.20758,1.21611c-0.1348,0.36261 -0.3302,0.6865 -0.5869,0.97171c-0.2524,0.28517 -0.55822,0.53779 -0.91675,0.75778c-0.35852,0.22408 -0.6457,0.46038 -0.86153,0.70891c-0.21583,0.24444 -0.37287,0.53574 -0.47074,0.8739c-0.09752,0.33813 -0.15058,0.75982 -0.15883,1.26502v0.07332zM284.87829,195.28629c-0.30152,0 -0.56002,-0.10792 -0.7762,-0.3241c-0.21583,-0.21583 -0.32375,-0.47468 -0.32375,-0.77585c0,-0.30152 0.10792,-0.56037 0.32375,-0.77628c0.21619,-0.21594 0.47468,-0.32389 0.7762,-0.32389c0.30152,0 0.56037,0.10795 0.7762,0.32389c0.21583,0.21591 0.32375,0.47476 0.32375,0.77628c0,0.19934 -0.05091,0.38291 -0.15273,0.54998c-0.09788,0.16707 -0.23017,0.30152 -0.39724,0.40334c-0.16277,0.09752 -0.34633,0.14664 -0.54998,0.14664z"/></g></g></svg>