<svg xmlns="http://www.w3.org/2000/svg" fill="none" viewBox="0 0 139 164" height="164" width="139">
<path fill="#EEC638" d="M0 20C0 8.95431 8.95431 0 20 0H119C130.046 0 139 8.95431 139 20V144C139 155.046 130.046 164 119 164H20C8.95431 164 0 155.046 0 144V20Z"></path>
<path fill="black" d="M36.2102 135.455V150H34.5341V135.455H36.2102ZM43.854 150.227C42.8029 150.227 41.8962 149.995 41.1339 149.531C40.3763 149.062 39.7915 148.409 39.3796 147.571C38.9724 146.728 38.7688 145.748 38.7688 144.631C38.7688 143.513 38.9724 142.528 39.3796 141.676C39.7915 140.819 40.3645 140.152 41.0984 139.673C41.837 139.19 42.6987 138.949 43.6836 138.949C44.2518 138.949 44.8129 139.044 45.3668 139.233C45.9208 139.422 46.4251 139.73 46.8796 140.156C47.3342 140.578 47.6964 141.136 47.9663 141.832C48.2362 142.528 48.3711 143.385 48.3711 144.403V145.114H39.962V143.665H46.6665C46.6665 143.049 46.5434 142.5 46.2972 142.017C46.0558 141.534 45.7101 141.153 45.2603 140.874C44.8152 140.594 44.2897 140.455 43.6836 140.455C43.016 140.455 42.4383 140.62 41.9506 140.952C41.4677 141.278 41.096 141.705 40.8356 142.23C40.5752 142.756 40.445 143.319 40.445 143.92V144.886C40.445 145.71 40.587 146.409 40.8711 146.982C41.1599 147.55 41.56 147.983 42.0714 148.281C42.5827 148.575 43.177 148.722 43.854 148.722C44.2944 148.722 44.6921 148.66 45.0472 148.537C45.4071 148.409 45.7172 148.22 45.9776 147.969C46.238 147.713 46.4393 147.396 46.5813 147.017L48.2006 147.472C48.0302 148.021 47.7437 148.504 47.3413 148.92C46.9388 149.332 46.4416 149.654 45.8498 149.886C45.2579 150.114 44.5927 150.227 43.854 150.227ZM55.6651 139.091V140.511H50.0117V139.091H55.6651ZM51.6594 136.477H53.3356V146.875C53.3356 147.348 53.4042 147.704 53.5415 147.94C53.6836 148.172 53.8635 148.329 54.0813 148.409C54.3039 148.485 54.5382 148.523 54.7844 148.523C54.9691 148.523 55.1206 148.513 55.239 148.494C55.3574 148.471 55.4521 148.452 55.5231 148.438L55.864 149.943C55.7504 149.986 55.5917 150.028 55.3881 150.071C55.1845 150.118 54.9265 150.142 54.614 150.142C54.1405 150.142 53.6765 150.04 53.2219 149.837C52.7721 149.633 52.3981 149.323 52.0998 148.906C51.8062 148.49 51.6594 147.964 51.6594 147.33V136.477ZM62.9308 139.091V140.511H57.2773V139.091H62.9308ZM58.9251 136.477H60.6012V146.875C60.6012 147.348 60.6699 147.704 60.8072 147.94C60.9492 148.172 61.1291 148.329 61.3469 148.409C61.5695 148.485 61.8039 148.523 62.0501 148.523C62.2347 148.523 62.3862 148.513 62.5046 148.494C62.623 148.471 62.7177 148.452 62.7887 148.438L63.1296 149.943C63.016 149.986 62.8574 150.028 62.6538 150.071C62.4502 150.118 62.1921 150.142 61.8796 150.142C61.4061 150.142 60.9421 150.04 60.4876 149.837C60.0378 149.633 59.6637 149.323 59.3654 148.906C59.0719 148.49 58.9251 147.964 58.9251 147.33V136.477ZM69.9087 150.227C68.8576 150.227 67.9509 149.995 67.1886 149.531C66.431 149.062 65.8462 148.409 65.4343 147.571C65.0271 146.728 64.8235 145.748 64.8235 144.631C64.8235 143.513 65.0271 142.528 65.4343 141.676C65.8462 140.819 66.4192 140.152 67.1531 139.673C67.8917 139.19 68.7534 138.949 69.7383 138.949C70.3065 138.949 70.8675 139.044 71.4215 139.233C71.9755 139.422 72.4798 139.73 72.9343 140.156C73.3888 140.578 73.7511 141.136 74.021 141.832C74.2908 142.528 74.4258 143.385 74.4258 144.403V145.114H66.0167V143.665H72.7212C72.7212 143.049 72.5981 142.5 72.3519 142.017C72.1104 141.534 71.7648 141.153 71.315 140.874C70.8699 140.594 70.3443 140.455 69.7383 140.455C69.0707 140.455 68.493 140.62 68.0053 140.952C67.5224 141.278 67.1507 141.705 66.8903 142.23C66.6299 142.756 66.4996 143.319 66.4996 143.92V144.886C66.4996 145.71 66.6417 146.409 66.9258 146.982C67.2146 147.55 67.6147 147.983 68.1261 148.281C68.6374 148.575 69.2317 148.722 69.9087 148.722C70.3491 148.722 70.7468 148.66 71.1019 148.537C71.4618 148.409 71.7719 148.22 72.0323 147.969C72.2927 147.713 72.494 147.396 72.636 147.017L74.2553 147.472C74.0849 148.021 73.7984 148.504 73.396 148.92C72.9935 149.332 72.4963 149.654 71.9045 149.886C71.3126 150.114 70.6474 150.227 69.9087 150.227ZM76.9755 150V139.091H78.5948V140.739H78.7085C78.9073 140.199 79.2672 139.761 79.788 139.425C80.3088 139.089 80.896 138.92 81.5494 138.92C81.6725 138.92 81.8263 138.923 82.011 138.928C82.1957 138.932 82.3353 138.939 82.43 138.949V140.653C82.3732 140.639 82.243 140.618 82.0394 140.589C81.8406 140.556 81.6299 140.54 81.4073 140.54C80.877 140.54 80.4035 140.651 79.9869 140.874C79.5749 141.091 79.2482 141.394 79.0067 141.783C78.77 142.166 78.6516 142.604 78.6516 143.097V150H76.9755ZM101.974 140H100.212C100.108 139.493 99.9259 139.048 99.6655 138.665C99.4098 138.281 99.0973 137.959 98.728 137.699C98.3634 137.434 97.9586 137.235 97.5135 137.102C97.0684 136.97 96.6044 136.903 96.1214 136.903C95.2408 136.903 94.4429 137.126 93.728 137.571C93.0178 138.016 92.4519 138.672 92.0305 139.538C91.6139 140.405 91.4055 141.468 91.4055 142.727C91.4055 143.987 91.6139 145.05 92.0305 145.916C92.4519 146.783 93.0178 147.438 93.728 147.884C94.4429 148.329 95.2408 148.551 96.1214 148.551C96.6044 148.551 97.0684 148.485 97.5135 148.352C97.9586 148.22 98.3634 148.023 98.728 147.763C99.0973 147.498 99.4098 147.173 99.6655 146.79C99.9259 146.402 100.108 145.956 100.212 145.455H101.974C101.841 146.198 101.6 146.863 101.249 147.45C100.899 148.037 100.463 148.537 99.9425 148.949C99.4216 149.356 98.8369 149.666 98.1882 149.879C97.5443 150.092 96.8554 150.199 96.1214 150.199C94.8809 150.199 93.7777 149.896 92.8118 149.29C91.8459 148.684 91.0859 147.822 90.532 146.705C89.978 145.587 89.701 144.261 89.701 142.727C89.701 141.193 89.978 139.867 90.532 138.75C91.0859 137.633 91.8459 136.771 92.8118 136.165C93.7777 135.559 94.8809 135.256 96.1214 135.256C96.8554 135.256 97.5443 135.362 98.1882 135.575C98.8369 135.788 99.4216 136.101 99.9425 136.513C100.463 136.92 100.899 137.417 101.249 138.004C101.6 138.587 101.841 139.252 101.974 140Z"></path>
<path fill="black" d="M56.9157 58.6364C56.7878 57.5568 56.2694 56.7188 55.3603 56.1222C54.4512 55.5256 53.3361 55.2273 52.0151 55.2273C51.0492 55.2273 50.204 55.3835 49.4796 55.696C48.7623 56.0085 48.2012 56.4382 47.7963 56.9851C47.3986 57.532 47.1998 58.1534 47.1998 58.8494C47.1998 59.4318 47.3382 59.9325 47.6152 60.3516C47.8993 60.7635 48.2615 61.108 48.7019 61.3849C49.1422 61.6548 49.6039 61.8786 50.0868 62.0561C50.5698 62.2266 51.0137 62.3651 51.4185 62.4716L53.6344 63.0682C54.2026 63.2173 54.8347 63.4233 55.5307 63.6861C56.2338 63.9489 56.905 64.3075 57.5442 64.7621C58.1905 65.2095 58.7232 65.7848 59.1422 66.4879C59.5613 67.1911 59.7708 68.054 59.7708 69.0767C59.7708 70.2557 59.4618 71.321 58.8439 72.2727C58.2331 73.2244 57.3382 73.9808 56.1593 74.5419C54.9874 75.103 53.5634 75.3835 51.8873 75.3835C50.3248 75.3835 48.9718 75.1314 47.8283 74.6271C46.6919 74.1229 45.7971 73.4197 45.1436 72.5178C44.4973 71.6158 44.1316 70.5682 44.0463 69.375H46.7736C46.8446 70.1989 47.1216 70.8807 47.6046 71.4205C48.0946 71.9531 48.7125 72.3509 49.4583 72.6136C50.2111 72.8693 51.0208 72.9972 51.8873 72.9972C52.8958 72.9972 53.8013 72.8338 54.6039 72.5071C55.4064 72.1733 56.0421 71.7116 56.5108 71.1222C56.9796 70.5256 57.214 69.8295 57.214 69.0341C57.214 68.3097 57.0115 67.7202 56.6067 67.2656C56.2019 66.8111 55.6692 66.4418 55.0087 66.1577C54.3482 65.8736 53.6344 65.625 52.8674 65.4119L50.1827 64.6449C48.4782 64.1548 47.1287 63.4553 46.1344 62.5462C45.1401 61.6371 44.6429 60.4474 44.6429 58.9773C44.6429 57.7557 44.9732 56.6903 45.6337 55.7812C46.3013 54.8651 47.1962 54.1548 48.3184 53.6506C49.4476 53.1392 50.7083 52.8835 52.1003 52.8835C53.5066 52.8835 54.7566 53.1357 55.8503 53.6399C56.9441 54.1371 57.8105 54.8189 58.4498 55.6854C59.0961 56.5518 59.437 57.5355 59.4725 58.6364H56.9157ZM66.288 65.1562V75H63.7738V53.1818H66.288V61.1932H66.5011C66.8846 60.348 67.4599 59.6768 68.2269 59.1797C69.0011 58.6754 70.0309 58.4233 71.3164 58.4233C72.4315 58.4233 73.408 58.647 74.2461 59.0945C75.0842 59.5348 75.734 60.2131 76.1957 61.1293C76.6644 62.0384 76.8988 63.196 76.8988 64.6023V75H74.3846V64.7727C74.3846 63.473 74.0472 62.468 73.3725 61.7578C72.7049 61.0405 71.7781 60.6818 70.592 60.6818C69.7681 60.6818 69.0295 60.8558 68.3761 61.2038C67.7298 61.5518 67.2184 62.0597 66.842 62.7273C66.4727 63.3949 66.288 64.2045 66.288 65.1562ZM88.3592 75.3409C86.7825 75.3409 85.4224 74.9929 84.2789 74.2969C83.1426 73.5938 82.2654 72.6136 81.6475 71.3565C81.0368 70.0923 80.7314 68.6222 80.7314 66.946C80.7314 65.2699 81.0368 63.7926 81.6475 62.5142C82.2654 61.2287 83.1248 60.2273 84.2257 59.5099C85.3336 58.7855 86.6262 58.4233 88.1035 58.4233C88.9558 58.4233 89.7974 58.5653 90.6284 58.8494C91.4593 59.1335 92.2157 59.5952 92.8976 60.2344C93.5794 60.8665 94.1227 61.7045 94.5275 62.7486C94.9324 63.7926 95.1348 65.0781 95.1348 66.6051V67.6705H82.5211V65.4972H92.5779C92.5779 64.5739 92.3933 63.75 92.024 63.0256C91.6618 62.3011 91.1433 61.7294 90.4686 61.3104C89.801 60.8913 89.0126 60.6818 88.1035 60.6818C87.1021 60.6818 86.2356 60.9304 85.5041 61.4276C84.7797 61.9176 84.2221 62.5568 83.8315 63.3452C83.4409 64.1335 83.2456 64.9787 83.2456 65.8807V67.3295C83.2456 68.5653 83.4586 69.6129 83.8848 70.4723C84.318 71.3246 84.9181 71.9744 85.6852 72.4219C86.4522 72.8622 87.3436 73.0824 88.3592 73.0824C89.0197 73.0824 89.6163 72.9901 90.149 72.8054C90.6887 72.6136 91.1539 72.3295 91.5446 71.9531C91.9352 71.5696 92.237 71.0937 92.4501 70.5256L94.8791 71.2074C94.6234 72.0312 94.1937 72.7557 93.59 73.3807C92.9863 73.9986 92.2406 74.4815 91.3528 74.8295C90.465 75.1705 89.4672 75.3409 88.3592 75.3409Z"></path>
</svg>
