<svg xmlns="http://www.w3.org/2000/svg" fill="none" viewBox="0 0 139 164" height="164" width="139">
<path fill="#EEC638" d="M0 20C0 8.95431 8.95431 0 20 0H119C130.046 0 139 8.95431 139 20V144C139 155.046 130.046 164 119 164H20C8.95431 164 0 155.046 0 144V20Z"></path>
<path fill="black" d="M36.2102 135.455V150H34.5341V135.455H36.2102ZM43.854 150.227C42.8029 150.227 41.8962 149.995 41.1339 149.531C40.3763 149.062 39.7915 148.409 39.3796 147.571C38.9724 146.728 38.7688 145.748 38.7688 144.631C38.7688 143.513 38.9724 142.528 39.3796 141.676C39.7915 140.819 40.3645 140.152 41.0984 139.673C41.837 139.19 42.6987 138.949 43.6836 138.949C44.2518 138.949 44.8129 139.044 45.3668 139.233C45.9208 139.422 46.4251 139.73 46.8796 140.156C47.3342 140.578 47.6964 141.136 47.9663 141.832C48.2362 142.528 48.3711 143.385 48.3711 144.403V145.114H39.962V143.665H46.6665C46.6665 143.049 46.5434 142.5 46.2972 142.017C46.0558 141.534 45.7101 141.153 45.2603 140.874C44.8152 140.594 44.2897 140.455 43.6836 140.455C43.016 140.455 42.4383 140.62 41.9506 140.952C41.4677 141.278 41.096 141.705 40.8356 142.23C40.5752 142.756 40.445 143.319 40.445 143.92V144.886C40.445 145.71 40.587 146.409 40.8711 146.982C41.1599 147.55 41.56 147.983 42.0714 148.281C42.5827 148.575 43.177 148.722 43.854 148.722C44.2944 148.722 44.6921 148.66 45.0472 148.537C45.4071 148.409 45.7172 148.22 45.9776 147.969C46.238 147.713 46.4393 147.396 46.5813 147.017L48.2006 147.472C48.0302 148.021 47.7437 148.504 47.3413 148.92C46.9388 149.332 46.4416 149.654 45.8498 149.886C45.2579 150.114 44.5927 150.227 43.854 150.227ZM55.6651 139.091V140.511H50.0117V139.091H55.6651ZM51.6594 136.477H53.3356V146.875C53.3356 147.348 53.4042 147.704 53.5415 147.94C53.6836 148.172 53.8635 148.329 54.0813 148.409C54.3039 148.485 54.5382 148.523 54.7844 148.523C54.9691 148.523 55.1206 148.513 55.239 148.494C55.3574 148.471 55.4521 148.452 55.5231 148.438L55.864 149.943C55.7504 149.986 55.5917 150.028 55.3881 150.071C55.1845 150.118 54.9265 150.142 54.614 150.142C54.1405 150.142 53.6765 150.04 53.2219 149.837C52.7721 149.633 52.3981 149.323 52.0998 148.906C51.8062 148.49 51.6594 147.964 51.6594 147.33V136.477ZM62.9308 139.091V140.511H57.2773V139.091H62.9308ZM58.9251 136.477H60.6012V146.875C60.6012 147.348 60.6699 147.704 60.8072 147.94C60.9492 148.172 61.1291 148.329 61.3469 148.409C61.5695 148.485 61.8039 148.523 62.0501 148.523C62.2347 148.523 62.3862 148.513 62.5046 148.494C62.623 148.471 62.7177 148.452 62.7887 148.438L63.1296 149.943C63.016 149.986 62.8574 150.028 62.6538 150.071C62.4502 150.118 62.1921 150.142 61.8796 150.142C61.4061 150.142 60.9421 150.04 60.4876 149.837C60.0378 149.633 59.6637 149.323 59.3654 148.906C59.0719 148.49 58.9251 147.964 58.9251 147.33V136.477ZM69.9087 150.227C68.8576 150.227 67.9509 149.995 67.1886 149.531C66.431 149.062 65.8462 148.409 65.4343 147.571C65.0271 146.728 64.8235 145.748 64.8235 144.631C64.8235 143.513 65.0271 142.528 65.4343 141.676C65.8462 140.819 66.4192 140.152 67.1531 139.673C67.8917 139.19 68.7534 138.949 69.7383 138.949C70.3065 138.949 70.8675 139.044 71.4215 139.233C71.9755 139.422 72.4798 139.73 72.9343 140.156C73.3888 140.578 73.7511 141.136 74.021 141.832C74.2908 142.528 74.4258 143.385 74.4258 144.403V145.114H66.0167V143.665H72.7212C72.7212 143.049 72.5981 142.5 72.3519 142.017C72.1104 141.534 71.7648 141.153 71.315 140.874C70.8699 140.594 70.3443 140.455 69.7383 140.455C69.0707 140.455 68.493 140.62 68.0053 140.952C67.5224 141.278 67.1507 141.705 66.8903 142.23C66.6299 142.756 66.4996 143.319 66.4996 143.92V144.886C66.4996 145.71 66.6417 146.409 66.9258 146.982C67.2146 147.55 67.6147 147.983 68.1261 148.281C68.6374 148.575 69.2317 148.722 69.9087 148.722C70.3491 148.722 70.7468 148.66 71.1019 148.537C71.4618 148.409 71.7719 148.22 72.0323 147.969C72.2927 147.713 72.494 147.396 72.636 147.017L74.2553 147.472C74.0849 148.021 73.7984 148.504 73.396 148.92C72.9935 149.332 72.4963 149.654 71.9045 149.886C71.3126 150.114 70.6474 150.227 69.9087 150.227ZM76.9755 150V139.091H78.5948V140.739H78.7085C78.9073 140.199 79.2672 139.761 79.788 139.425C80.3088 139.089 80.896 138.92 81.5494 138.92C81.6725 138.92 81.8263 138.923 82.011 138.928C82.1957 138.932 82.3353 138.939 82.43 138.949V140.653C82.3732 140.639 82.243 140.618 82.0394 140.589C81.8406 140.556 81.6299 140.54 81.4073 140.54C80.877 140.54 80.4035 140.651 79.9869 140.874C79.5749 141.091 79.2482 141.394 79.0067 141.783C78.77 142.166 78.6516 142.604 78.6516 143.097V150H76.9755ZM90.2692 150V135.455H95.3544C96.3677 135.455 97.2034 135.63 97.8615 135.98C98.5197 136.326 99.0097 136.792 99.3317 137.379C99.6536 137.962 99.8146 138.608 99.8146 139.318C99.8146 139.943 99.7034 140.459 99.4808 140.866C99.263 141.274 98.9742 141.596 98.6143 141.832C98.2592 142.069 97.8733 142.244 97.4567 142.358V142.5C97.9018 142.528 98.3492 142.685 98.799 142.969C99.2488 143.253 99.6252 143.66 99.9283 144.19C100.231 144.721 100.383 145.369 100.383 146.136C100.383 146.866 100.217 147.521 99.8857 148.104C99.5542 148.686 99.031 149.148 98.3161 149.489C97.6011 149.83 96.6707 150 95.5249 150H90.2692ZM92.0305 148.438H95.5249C96.6754 148.438 97.4922 148.215 97.9751 147.77C98.4628 147.32 98.7067 146.776 98.7067 146.136C98.7067 145.644 98.5812 145.189 98.3303 144.773C98.0793 144.351 97.7218 144.015 97.2578 143.764C96.7938 143.509 96.2446 143.381 95.6101 143.381H92.0305V148.438ZM92.0305 141.847H95.2976C95.8279 141.847 96.3061 141.742 96.7322 141.534C97.1631 141.326 97.504 141.032 97.755 140.653C98.0107 140.275 98.1385 139.83 98.1385 139.318C98.1385 138.679 97.916 138.137 97.4709 137.692C97.0258 137.242 96.3203 137.017 95.3544 137.017H92.0305V141.847Z"></path>
<path fill="black" d="M31.8588 75V53.1818H45.0265V55.5256H34.5009V62.8977H44.3446V65.2415H34.5009V72.6562H45.1969V75H31.8588ZM54.263 75.3835C53.226 75.3835 52.285 75.1882 51.4398 74.7976C50.5946 74.3999 49.9235 73.8281 49.4263 73.0824C48.9292 72.3295 48.6806 71.4205 48.6806 70.3551C48.6806 69.4176 48.8652 68.6577 49.2346 68.0753C49.6039 67.4858 50.0975 67.0241 50.7154 66.6903C51.3333 66.3565 52.0151 66.108 52.7608 65.9446C53.5137 65.7741 54.2701 65.6392 55.03 65.5398C56.0243 65.4119 56.8304 65.3161 57.4483 65.2521C58.0733 65.1811 58.5279 65.0639 58.812 64.9006C59.1032 64.7372 59.2488 64.4531 59.2488 64.0483V63.9631C59.2488 62.9119 58.9611 62.0952 58.3858 61.5128C57.8176 60.9304 56.9547 60.6392 55.7971 60.6392C54.5968 60.6392 53.6557 60.902 52.9739 61.4276C52.2921 61.9531 51.8127 62.5142 51.5357 63.1108L49.1493 62.2585C49.5755 61.2642 50.1436 60.4901 50.8539 59.9361C51.5712 59.375 52.3525 58.9844 53.1976 58.7642C54.0499 58.5369 54.888 58.4233 55.7118 58.4233C56.2374 58.4233 56.8411 58.4872 57.5229 58.6151C58.2118 58.7358 58.8759 58.9879 59.5151 59.3714C60.1614 59.755 60.6976 60.3338 61.1238 61.108C61.5499 61.8821 61.763 62.919 61.763 64.2188V75H59.2488V72.7841H59.1209C58.9505 73.1392 58.6664 73.5192 58.2686 73.924C57.8709 74.3288 57.3418 74.6733 56.6813 74.9574C56.0208 75.2415 55.2147 75.3835 54.263 75.3835ZM54.6465 73.125C55.6408 73.125 56.4789 72.9297 57.1607 72.5391C57.8496 72.1484 58.3681 71.6442 58.7161 71.0263C59.0712 70.4084 59.2488 69.7585 59.2488 69.0767V66.7756C59.1422 66.9034 58.9078 67.0206 58.5456 67.1271C58.1905 67.2266 57.7786 67.3153 57.3098 67.3935C56.8482 67.4645 56.3972 67.5284 55.9569 67.5852C55.5236 67.6349 55.1721 67.6776 54.9022 67.7131C54.2488 67.7983 53.638 67.9368 53.0698 68.1286C52.5087 68.3132 52.0542 68.5937 51.7061 68.9702C51.3652 69.3395 51.1948 69.8437 51.1948 70.483C51.1948 71.3565 51.5179 72.017 52.1642 72.4645C52.8176 72.9048 53.6451 73.125 54.6465 73.125ZM73.4684 58.6364V60.767H64.9883V58.6364H73.4684ZM67.4599 54.7159H69.9741V70.3125C69.9741 71.0227 70.0771 71.5554 70.283 71.9105C70.4961 72.2585 70.766 72.4929 71.0927 72.6136C71.4265 72.7273 71.7781 72.7841 72.1474 72.7841C72.4244 72.7841 72.6516 72.7699 72.8292 72.7415C73.0067 72.706 73.1488 72.6776 73.2553 72.6562L73.7667 74.9148C73.5962 74.9787 73.3583 75.0426 73.0529 75.1065C72.7475 75.1776 72.3604 75.2131 71.8917 75.2131C71.1815 75.2131 70.4854 75.0604 69.8036 74.755C69.1289 74.4496 68.5678 73.9844 68.1204 73.3594C67.68 72.7344 67.4599 71.946 67.4599 70.9943V54.7159ZM83.9354 75.3409C82.3587 75.3409 80.9986 74.9929 79.8551 74.2969C78.7188 73.5938 77.8416 72.6136 77.2237 71.3565C76.6129 70.0923 76.3075 68.6222 76.3075 66.946C76.3075 65.2699 76.6129 63.7926 77.2237 62.5142C77.8416 61.2287 78.701 60.2273 79.8018 59.5099C80.9098 58.7855 82.2024 58.4233 83.6797 58.4233C84.532 58.4233 85.3736 58.5653 86.2045 58.8494C87.0355 59.1335 87.7919 59.5952 88.4737 60.2344C89.1555 60.8665 89.6989 61.7045 90.1037 62.7486C90.5085 63.7926 90.7109 65.0781 90.7109 66.6051V67.6705H78.0973V65.4972H88.1541C88.1541 64.5739 87.9695 63.75 87.6001 63.0256C87.2379 62.3011 86.7195 61.7294 86.0447 61.3104C85.3771 60.8913 84.5888 60.6818 83.6797 60.6818C82.6783 60.6818 81.8118 60.9304 81.0803 61.4276C80.3558 61.9176 79.7983 62.5568 79.4077 63.3452C79.017 64.1335 78.8217 64.9787 78.8217 65.8807V67.3295C78.8217 68.5653 79.0348 69.6129 79.4609 70.4723C79.8942 71.3246 80.4943 71.9744 81.2614 72.4219C82.0284 72.8622 82.9197 73.0824 83.9354 73.0824C84.5959 73.0824 85.1925 72.9901 85.7251 72.8054C86.2649 72.6136 86.7301 72.3295 87.1207 71.9531C87.5114 71.5696 87.8132 71.0937 88.0263 70.5256L90.4553 71.2074C90.1996 72.0312 89.7699 72.7557 89.1662 73.3807C88.5625 73.9986 87.8168 74.4815 86.929 74.8295C86.0412 75.1705 85.0433 75.3409 83.9354 75.3409ZM97.0497 65.1562V75H94.5355V58.6364H96.9645V61.1932H97.1776C97.5611 60.3622 98.1435 59.6946 98.9247 59.1903C99.706 58.679 100.714 58.4233 101.95 58.4233C103.058 58.4233 104.028 58.6506 104.859 59.1051C105.69 59.5526 106.336 60.2344 106.798 61.1506C107.259 62.0597 107.49 63.2102 107.49 64.6023V75H104.976V64.7727C104.976 63.4872 104.642 62.4858 103.974 61.7685C103.307 61.044 102.391 60.6818 101.226 60.6818C100.423 60.6818 99.706 60.8558 99.0739 61.2038C98.4489 61.5518 97.9553 62.0597 97.593 62.7273C97.2308 63.3949 97.0497 64.2045 97.0497 65.1562Z"></path>
</svg>
