<svg xmlns="http://www.w3.org/2000/svg" fill="none" viewBox="0 0 139 164" height="164" width="139">
<path fill="#43D059" d="M0 20C0 8.95431 8.95431 0 20 0H119C130.046 0 139 8.95431 139 20V144C139 155.046 130.046 164 119 164H20C8.95431 164 0 155.046 0 144V20Z"></path>
<path fill="black" d="M36.2102 135.455V150H34.5341V135.455H36.2102ZM43.854 150.227C42.8029 150.227 41.8962 149.995 41.1339 149.531C40.3763 149.062 39.7915 148.409 39.3796 147.571C38.9724 146.728 38.7688 145.748 38.7688 144.631C38.7688 143.513 38.9724 142.528 39.3796 141.676C39.7915 140.819 40.3645 140.152 41.0984 139.673C41.837 139.19 42.6987 138.949 43.6836 138.949C44.2518 138.949 44.8129 139.044 45.3668 139.233C45.9208 139.422 46.4251 139.73 46.8796 140.156C47.3342 140.578 47.6964 141.136 47.9663 141.832C48.2362 142.528 48.3711 143.385 48.3711 144.403V145.114H39.962V143.665H46.6665C46.6665 143.049 46.5434 142.5 46.2972 142.017C46.0558 141.534 45.7101 141.153 45.2603 140.874C44.8152 140.594 44.2897 140.455 43.6836 140.455C43.016 140.455 42.4383 140.62 41.9506 140.952C41.4677 141.278 41.096 141.705 40.8356 142.23C40.5752 142.756 40.445 143.319 40.445 143.92V144.886C40.445 145.71 40.587 146.409 40.8711 146.982C41.1599 147.55 41.56 147.983 42.0714 148.281C42.5827 148.575 43.177 148.722 43.854 148.722C44.2944 148.722 44.6921 148.66 45.0472 148.537C45.4071 148.409 45.7172 148.22 45.9776 147.969C46.238 147.713 46.4393 147.396 46.5813 147.017L48.2006 147.472C48.0302 148.021 47.7437 148.504 47.3413 148.92C46.9388 149.332 46.4416 149.654 45.8498 149.886C45.2579 150.114 44.5927 150.227 43.854 150.227ZM55.6651 139.091V140.511H50.0117V139.091H55.6651ZM51.6594 136.477H53.3356V146.875C53.3356 147.348 53.4042 147.704 53.5415 147.94C53.6836 148.172 53.8635 148.329 54.0813 148.409C54.3039 148.485 54.5382 148.523 54.7844 148.523C54.9691 148.523 55.1206 148.513 55.239 148.494C55.3574 148.471 55.4521 148.452 55.5231 148.438L55.864 149.943C55.7504 149.986 55.5917 150.028 55.3881 150.071C55.1845 150.118 54.9265 150.142 54.614 150.142C54.1405 150.142 53.6765 150.04 53.2219 149.837C52.7721 149.633 52.3981 149.323 52.0998 148.906C51.8062 148.49 51.6594 147.964 51.6594 147.33V136.477ZM62.9308 139.091V140.511H57.2773V139.091H62.9308ZM58.9251 136.477H60.6012V146.875C60.6012 147.348 60.6699 147.704 60.8072 147.94C60.9492 148.172 61.1291 148.329 61.3469 148.409C61.5695 148.485 61.8039 148.523 62.0501 148.523C62.2347 148.523 62.3862 148.513 62.5046 148.494C62.623 148.471 62.7177 148.452 62.7887 148.438L63.1296 149.943C63.016 149.986 62.8574 150.028 62.6538 150.071C62.4502 150.118 62.1921 150.142 61.8796 150.142C61.4061 150.142 60.9421 150.04 60.4876 149.837C60.0378 149.633 59.6637 149.323 59.3654 148.906C59.0719 148.49 58.9251 147.964 58.9251 147.33V136.477ZM69.9087 150.227C68.8576 150.227 67.9509 149.995 67.1886 149.531C66.431 149.062 65.8462 148.409 65.4343 147.571C65.0271 146.728 64.8235 145.748 64.8235 144.631C64.8235 143.513 65.0271 142.528 65.4343 141.676C65.8462 140.819 66.4192 140.152 67.1531 139.673C67.8917 139.19 68.7534 138.949 69.7383 138.949C70.3065 138.949 70.8675 139.044 71.4215 139.233C71.9755 139.422 72.4798 139.73 72.9343 140.156C73.3888 140.578 73.7511 141.136 74.021 141.832C74.2908 142.528 74.4258 143.385 74.4258 144.403V145.114H66.0167V143.665H72.7212C72.7212 143.049 72.5981 142.5 72.3519 142.017C72.1104 141.534 71.7648 141.153 71.315 140.874C70.8699 140.594 70.3443 140.455 69.7383 140.455C69.0707 140.455 68.493 140.62 68.0053 140.952C67.5224 141.278 67.1507 141.705 66.8903 142.23C66.6299 142.756 66.4996 143.319 66.4996 143.92V144.886C66.4996 145.71 66.6417 146.409 66.9258 146.982C67.2146 147.55 67.6147 147.983 68.1261 148.281C68.6374 148.575 69.2317 148.722 69.9087 148.722C70.3491 148.722 70.7468 148.66 71.1019 148.537C71.4618 148.409 71.7719 148.22 72.0323 147.969C72.2927 147.713 72.494 147.396 72.636 147.017L74.2553 147.472C74.0849 148.021 73.7984 148.504 73.396 148.92C72.9935 149.332 72.4963 149.654 71.9045 149.886C71.3126 150.114 70.6474 150.227 69.9087 150.227ZM76.9755 150V139.091H78.5948V140.739H78.7085C78.9073 140.199 79.2672 139.761 79.788 139.425C80.3088 139.089 80.896 138.92 81.5494 138.92C81.6725 138.92 81.8263 138.923 82.011 138.928C82.1957 138.932 82.3353 138.939 82.43 138.949V140.653C82.3732 140.639 82.243 140.618 82.0394 140.589C81.8406 140.556 81.6299 140.54 81.4073 140.54C80.877 140.54 80.4035 140.651 79.9869 140.874C79.5749 141.091 79.2482 141.394 79.0067 141.783C78.77 142.166 78.6516 142.604 78.6516 143.097V150H76.9755ZM90.8658 150H89.0192L94.3601 135.455H96.1783L101.519 150H99.6726L95.326 137.756H95.2124L90.8658 150ZM91.5476 144.318H98.9908V145.881H91.5476V144.318Z"></path>
<path fill="black" d="M35.5643 82H32.7944L40.8058 60.1818H43.533L51.5444 82H48.7745L42.2546 63.6335H42.0842L35.5643 82ZM36.587 73.4773H47.7518V75.821H36.587V73.4773ZM60.693 65.6364V67.767H52.2129V65.6364H60.693ZM54.6845 61.7159H57.1987V77.3125C57.1987 78.0227 57.3017 78.5554 57.5076 78.9105C57.7207 79.2585 57.9906 79.4929 58.3173 79.6136C58.6511 79.7273 59.0027 79.7841 59.372 79.7841C59.649 79.7841 59.8762 79.7699 60.0538 79.7415C60.2314 79.706 60.3734 79.6776 60.4799 79.6562L60.9913 81.9148C60.8208 81.9787 60.5829 82.0426 60.2775 82.1065C59.9721 82.1776 59.5851 82.2131 59.1163 82.2131C58.4061 82.2131 57.71 82.0604 57.0282 81.755C56.3535 81.4496 55.7924 80.9844 55.345 80.3594C54.9047 79.7344 54.6845 78.946 54.6845 77.9943V61.7159ZM70.9469 82.3409C69.4696 82.3409 68.1735 81.9893 67.0584 81.2862C65.9505 80.5831 65.084 79.5994 64.459 78.3352C63.8411 77.071 63.5321 75.5937 63.5321 73.9034C63.5321 72.1989 63.8411 70.7109 64.459 69.4396C65.084 68.1683 65.9505 67.1811 67.0584 66.478C68.1735 65.7749 69.4696 65.4233 70.9469 65.4233C72.4242 65.4233 73.7168 65.7749 74.8248 66.478C75.9398 67.1811 76.8063 68.1683 77.4242 69.4396C78.0492 70.7109 78.3617 72.1989 78.3617 73.9034C78.3617 75.5937 78.0492 77.071 77.4242 78.3352C76.8063 79.5994 75.9398 80.5831 74.8248 81.2862C73.7168 81.9893 72.4242 82.3409 70.9469 82.3409ZM70.9469 80.0824C72.0691 80.0824 72.9924 79.7947 73.7168 79.2195C74.4412 78.6442 74.9775 77.8878 75.3255 76.9503C75.6735 76.0128 75.8475 74.9972 75.8475 73.9034C75.8475 72.8097 75.6735 71.7905 75.3255 70.8459C74.9775 69.9013 74.4412 69.1378 73.7168 68.5554C72.9924 67.973 72.0691 67.6818 70.9469 67.6818C69.8248 67.6818 68.9015 67.973 68.177 68.5554C67.4526 69.1378 66.9164 69.9013 66.5684 70.8459C66.2203 71.7905 66.0463 72.8097 66.0463 73.9034C66.0463 74.9972 66.2203 76.0128 66.5684 76.9503C66.9164 77.8878 67.4526 78.6442 68.177 79.2195C68.9015 79.7947 69.8248 80.0824 70.9469 80.0824ZM82.1996 82V65.6364H84.6286V68.1932H84.8416C85.1825 67.3196 85.733 66.6413 86.4929 66.1584C87.2528 65.6683 88.1655 65.4233 89.2308 65.4233C90.3104 65.4233 91.2088 65.6683 91.9261 66.1584C92.6506 66.6413 93.2152 67.3196 93.62 68.1932H93.7905C94.2095 67.348 94.8381 66.6768 95.6761 66.1797C96.5142 65.6754 97.5192 65.4233 98.6911 65.4233C100.154 65.4233 101.351 65.8814 102.281 66.7976C103.212 67.7067 103.677 69.1236 103.677 71.0483V82H101.163V71.0483C101.163 69.8409 100.832 68.978 100.172 68.4595C99.5114 67.9411 98.7337 67.6818 97.8388 67.6818C96.6882 67.6818 95.7969 68.0298 95.1648 68.7259C94.5327 69.4148 94.2166 70.2884 94.2166 71.3466V82H91.6598V70.7926C91.6598 69.8622 91.358 69.1129 90.7543 68.5447C90.1506 67.9695 89.3729 67.6818 88.4212 67.6818C87.7678 67.6818 87.157 67.8558 86.5888 68.2038C86.0277 68.5518 85.5732 69.0348 85.2251 69.6527C84.8842 70.2635 84.7138 70.9702 84.7138 71.7727V82H82.1996Z"></path>
</svg>
