<svg version="1.1" xmlns="http://www.w3.org/2000/svg" xmlns:xlink="http://www.w3.org/1999/xlink" width="233.85642" height="41.35498" viewBox="0,0,233.85642,41.35498"><g transform="translate(-123.07179,-159.32251)"><g data-paper-data="{&quot;isPaintingLayer&quot;:true}" fill="#ffffff" fill-rule="nonzero" stroke="none" stroke-width="1" stroke-linecap="butt" stroke-linejoin="miter" stroke-miterlimit="10" stroke-dasharray="" stroke-dashoffset="0" style="mix-blend-mode: normal"><path d="M126.85427,173.80398l-3.78248,-13.83305h1.70211l2.89088,11.26636h0.13508l2.94496,-11.26636h1.89123l2.94492,11.26636h0.13508l2.89091,-11.26636h1.70209l-3.78245,13.83305h-1.72916l-3.05298,-11.02322h-0.10806l-3.05302,11.02322zM143.77406,167.5629v6.24108h-1.59403v-13.83305h1.59403v5.07933h0.13512c0.24314,-0.53586 0.60786,-0.96136 1.09419,-1.27659c0.49085,-0.3197 1.14376,-0.47955 1.95879,-0.47955c0.70697,0 1.32612,0.14182 1.85746,0.4255c0.53134,0.2792 0.94337,0.70922 1.23605,1.2901c0.29719,0.5764 0.44579,1.31035 0.44579,2.20193v6.59233h-1.59403v-6.48423c0,-0.82406 -0.2139,-1.46121 -0.64166,-1.91151c-0.42328,-0.45479 -1.01094,-0.6822 -1.76292,-0.6822c-0.52235,0 -0.99065,0.11032 -1.4049,0.33096c-0.40977,0.22068 -0.73399,0.54264 -0.97266,0.96588c-0.23415,0.42328 -0.35124,0.93664 -0.35124,1.54002zM153.4177,173.80398v-10.37478h1.59403v10.37478zM154.22821,161.70005c-0.31067,0 -0.57862,-0.1058 -0.80377,-0.31744c-0.22064,-0.21164 -0.33096,-0.46604 -0.33096,-0.76323c0,-0.29719 0.11032,-0.55163 0.33096,-0.76327c0.22515,-0.21164 0.4931,-0.31744 0.80377,-0.31744c0.31071,0 0.5764,0.1058 0.79704,0.31744c0.22515,0.21164 0.33773,0.46608 0.33773,0.76327c0,0.29719 -0.11258,0.55159 -0.33773,0.76323c-0.22064,0.21164 -0.48633,0.31744 -0.79704,0.31744zM162.1461,174.02014c-0.97266,0 -1.81019,-0.22967 -2.51264,-0.68898c-0.70249,-0.4593 -1.24283,-1.09197 -1.62106,-1.898c-0.37827,-0.80599 -0.5674,-1.72686 -0.5674,-2.76252c0,-1.05369 0.19365,-1.98355 0.58092,-2.78959c0.39174,-0.81055 0.9366,-1.44322 1.63457,-1.898c0.70245,-0.4593 1.52199,-0.68894 2.45859,-0.68894c0.72932,0 1.38671,0.13508 1.97238,0.40525c0.58527,0.27017 1.06475,0.64844 1.43842,1.13473c0.37407,0.48633 0.60588,1.05369 0.69583,1.70213h-1.59415c-0.12126,-0.47282 -0.3915,-0.89158 -0.81035,-1.25634c-0.41409,-0.36923 -0.97282,-0.55385 -1.67511,-0.55385c-0.62141,0 -1.16627,0.16211 -1.63457,0.48633c-0.46382,0.3197 -0.82628,0.77223 -1.08745,1.35762c-0.2567,0.58088 -0.38501,1.26308 -0.38501,2.0466c0,0.80151 0.12609,1.49948 0.37823,2.09387c0.25666,0.59439 0.6169,1.05595 1.08072,1.38465c0.4683,0.3287 1.01767,0.49307 1.64808,0.49307c0.41421,0 0.79026,-0.07204 1.12787,-0.21612c0.33801,-0.14412 0.62371,-0.35124 0.8579,-0.62141c0.23419,-0.27017 0.40062,-0.59439 0.49968,-0.97266h1.59415c-0.08995,0.61242 -0.31304,1.16401 -0.66849,1.65486c-0.35148,0.48629 -0.81748,0.87355 -1.3984,1.16175c-0.57616,0.28368 -1.24703,0.42554 -2.01272,0.42554zM170.15026,167.5629v6.24108h-1.59415v-13.83305h1.59415v5.07933h0.13473c0.2433,-0.53586 0.60826,-0.96136 1.09447,-1.27659c0.49057,-0.3197 1.1436,-0.47955 1.95871,-0.47955c0.70693,0 1.32628,0.14182 1.85727,0.4255c0.53138,0.2792 0.94349,0.70922 1.23633,1.2901c0.29719,0.5764 0.44579,1.31035 0.44579,2.20193v6.59233h-1.59415v-6.48423c0,-0.82406 -0.21398,-1.46121 -0.64154,-1.91151c-0.4232,-0.45479 -1.01086,-0.6822 -1.76296,-0.6822c-0.52227,0 -0.99065,0.11032 -1.40514,0.33096c-0.40973,0.22068 -0.73387,0.54264 -0.97242,0.96588c-0.23419,0.42328 -0.35109,0.93664 -0.35109,1.54002zM189.35813,174.02014c-0.93676,0 -1.7586,-0.2229 -2.46552,-0.66869c-0.70257,-0.44579 -1.25178,-1.06946 -1.64804,-1.87098c-0.3919,-0.80155 -0.58765,-1.73815 -0.58765,-2.80983c0,-1.08072 0.19575,-2.02409 0.58765,-2.83012c0.39626,-0.80603 0.94547,-1.43192 1.64804,-1.87771c0.70693,-0.44579 1.52877,-0.66869 2.46552,-0.66869c0.93636,0 1.75582,0.2229 2.45839,0.66869c0.70693,0.44579 1.25654,1.07168 1.64804,1.87771c0.39626,0.80603 0.59439,1.7494 0.59439,2.83012c0,1.07168 -0.19813,2.00828 -0.59439,2.80983c-0.3915,0.80151 -0.94112,1.42519 -1.64804,1.87098c-0.70257,0.44579 -1.52203,0.66869 -2.45839,0.66869zM189.35813,172.58818c0.71129,0 1.29656,-0.18236 1.75582,-0.54712c0.45926,-0.36472 0.79925,-0.84427 1.01997,-1.43866c0.22072,-0.59439 0.33088,-1.23831 0.33088,-1.93176c0,-0.69345 -0.11016,-1.33963 -0.33088,-1.93854c-0.22072,-0.59891 -0.56071,-1.08294 -1.01997,-1.45221c-0.45926,-0.36923 -1.04454,-0.55385 -1.75582,-0.55385c-0.71168,0 -1.29696,0.18462 -1.75622,0.55385c-0.45926,0.36927 -0.79925,0.8533 -1.01997,1.45221c-0.22072,0.59891 -0.33088,1.24509 -0.33088,1.93854c0,0.69345 0.11016,1.33737 0.33088,1.93176c0.22072,0.59439 0.56071,1.07394 1.01997,1.43866c0.45926,0.36476 1.04454,0.54712 1.75622,0.54712zM201.11237,163.42921v1.35089h-5.5928v-1.35089zM197.19495,173.80398v-11.80674c0,-0.59439 0.13948,-1.08971 0.41845,-1.48597c0.27936,-0.39626 0.64194,-0.69345 1.08773,-0.89158c0.44579,-0.19811 0.91615,-0.29718 1.41148,-0.29718c0.3919,0 0.71168,0.03152 0.95934,0.09456c0.24766,0.06304 0.43232,0.12158 0.55357,0.17563l-0.45926,1.37787c-0.08084,-0.02699 -0.19337,-0.06079 -0.33761,-0.10128c-0.13948,-0.04054 -0.32414,-0.06083 -0.55397,-0.06083c-0.52663,0 -0.90704,0.13287 -1.14123,0.39852c-0.22983,0.26569 -0.34475,0.65517 -0.34475,1.16853v11.42847zM213.20778,163.42921v1.35089h-5.37644v-1.35089zM209.39815,160.94359h1.59415v9.88845c0,0.45031 0.06538,0.788 0.19575,1.01316c0.13512,0.22064 0.30631,0.36923 0.51355,0.44579c0.2116,0.07204 0.4347,0.10806 0.66849,0.10806c0.17594,0 0.31978,-0.009 0.43232,-0.02699c0.11254,-0.02255 0.20288,-0.04054 0.27025,-0.05405l0.32414,1.43192c-0.10778,0.04054 -0.25876,0.08107 -0.45253,0.12161c-0.19337,0.04502 -0.43906,0.06752 -0.73625,0.06752c-0.45015,0 -0.89158,-0.09681 -1.3239,-0.29042c-0.42756,-0.19365 -0.7834,-0.48859 -1.06713,-0.88485c-0.27897,-0.39626 -0.41885,-0.8961 -0.41885,-1.49948zM217.42239,167.5629v6.24108h-1.59375v-13.83305h1.59375v5.07933h0.13512c0.2433,-0.53586 0.60786,-0.96136 1.09447,-1.27659c0.49057,-0.3197 1.1436,-0.47955 1.95871,-0.47955c0.70693,0 1.32588,0.14182 1.85727,0.4255c0.53138,0.2792 0.94349,0.70922 1.23633,1.2901c0.29719,0.5764 0.44579,1.31035 0.44579,2.20193v6.59233h-1.59415v-6.48423c0,-0.82406 -0.21398,-1.46121 -0.64154,-1.91151c-0.4236,-0.45479 -1.01086,-0.6822 -1.76296,-0.6822c-0.52227,0 -0.99065,0.11032 -1.40514,0.33096c-0.40973,0.22068 -0.73387,0.54264 -0.97242,0.96588c-0.23419,0.42328 -0.35148,0.93664 -0.35148,1.54002zM231.41589,174.02014c-0.99937,0 -1.86202,-0.22068 -2.58678,-0.66195c-0.7204,-0.44579 -1.27675,-1.06721 -1.66825,-1.8642c-0.38754,-0.80155 -0.58092,-1.73363 -0.58092,-2.79636c0,-1.06269 0.19337,-1.99929 0.58092,-2.80983c0.3915,-0.81503 0.93636,-1.44995 1.63457,-1.90474c0.70217,-0.4593 1.52203,-0.68894 2.45839,-0.68894c0.5405,0 1.07386,0.09003 1.60089,0.27017c0.52702,0.1801 1.0065,0.47282 1.43882,0.87807c0.43232,0.40078 0.77667,0.93212 1.03344,1.59403c0.25638,0.66195 0.38477,1.47698 0.38477,2.44512v0.67542h-7.9973v-1.37787h6.37621c0,-0.58539 -0.1169,-1.10774 -0.35109,-1.56705c-0.22983,-0.4593 -0.55833,-0.8218 -0.98629,-1.08745c-0.4232,-0.26569 -0.92289,-0.39852 -1.49944,-0.39852c-0.63481,0 -1.18402,0.15759 -1.64804,0.47282c-0.45926,0.31071 -0.81273,0.71596 -1.06039,1.2158c-0.24766,0.4998 -0.37129,1.03566 -0.37129,1.60754v0.91861c0,0.78348 0.13473,1.44769 0.40498,1.99255c0.27461,0.54034 0.65541,0.95237 1.14162,1.23605c0.48621,0.27916 1.05128,0.41877 1.6952,0.41877c0.41885,0 0.79727,-0.05853 1.13489,-0.17562c0.34237,-0.12157 0.63718,-0.30167 0.88485,-0.54034c0.24766,-0.24314 0.43906,-0.54486 0.57418,-0.9051l1.53986,0.43228c-0.16207,0.52235 -0.4343,0.98165 -0.81709,1.37791c-0.38279,0.39174 -0.85552,0.69797 -1.41861,0.91861c-0.56269,0.21612 -1.19551,0.32422 -1.89808,0.32422zM248.10633,163.42921v1.35089h-5.5928v-1.35089zM244.18851,173.80398v-11.80674c0,-0.59439 0.13988,-1.08971 0.41885,-1.48597c0.27936,-0.39626 0.64154,-0.69345 1.08734,-0.89158c0.44579,-0.19811 0.91655,-0.29718 1.41187,-0.29718c0.3919,0 0.71129,0.03152 0.95895,0.09456c0.24766,0.06304 0.43232,0.12158 0.55397,0.17563l-0.45926,1.37787c-0.08123,-0.02699 -0.19377,-0.06079 -0.33761,-0.10128c-0.13988,-0.04054 -0.32414,-0.06083 -0.55397,-0.06083c-0.52702,0 -0.90743,0.13287 -1.14162,0.39852c-0.22943,0.26569 -0.34435,0.65517 -0.34435,1.16853v11.42847zM254.12788,174.02014c-0.93676,0 -1.7586,-0.2229 -2.46552,-0.66869c-0.70257,-0.44579 -1.25178,-1.06946 -1.64804,-1.87098c-0.3919,-0.80155 -0.58765,-1.73815 -0.58765,-2.80983c0,-1.08072 0.19575,-2.02409 0.58765,-2.83012c0.39626,-0.80603 0.94547,-1.43192 1.64804,-1.87771c0.70693,-0.44579 1.52877,-0.66869 2.46552,-0.66869c0.93636,0 1.75622,0.2229 2.45839,0.66869c0.70693,0.44579 1.25654,1.07168 1.64804,1.87771c0.39626,0.80603 0.59439,1.7494 0.59439,2.83012c0,1.07168 -0.19813,2.00828 -0.59439,2.80983c-0.3915,0.80151 -0.94112,1.42519 -1.64804,1.87098c-0.70217,0.44579 -1.52203,0.66869 -2.45839,0.66869zM254.12788,172.58818c0.71129,0 1.29656,-0.18236 1.75622,-0.54712c0.45926,-0.36472 0.79925,-0.84427 1.01957,-1.43866c0.22072,-0.59439 0.33127,-1.23831 0.33127,-1.93176c0,-0.69345 -0.11056,-1.33963 -0.33127,-1.93854c-0.22032,-0.59891 -0.56031,-1.08294 -1.01957,-1.45221c-0.45966,-0.36923 -1.04494,-0.55385 -1.75622,-0.55385c-0.71168,0 -1.29696,0.18462 -1.75622,0.55385c-0.45926,0.36927 -0.79925,0.8533 -1.01997,1.45221c-0.22072,0.59891 -0.33088,1.24509 -0.33088,1.93854c0,0.69345 0.11016,1.33737 0.33088,1.93176c0.22072,0.59439 0.56071,1.07394 1.01997,1.43866c0.45926,0.36476 1.04454,0.54712 1.75622,0.54712zM262.85628,159.97093v13.83305h-1.59415v-13.83305zM267.36967,159.97093v13.83305h-1.59375v-13.83305zM274.50432,174.02014c-0.93676,0 -1.7586,-0.2229 -2.46552,-0.66869c-0.70257,-0.44579 -1.25178,-1.06946 -1.64804,-1.87098c-0.3919,-0.80155 -0.58765,-1.73815 -0.58765,-2.80983c0,-1.08072 0.19575,-2.02409 0.58765,-2.83012c0.39626,-0.80603 0.94547,-1.43192 1.64804,-1.87771c0.70693,-0.44579 1.52877,-0.66869 2.46552,-0.66869c0.93636,0 1.75582,0.2229 2.45839,0.66869c0.70693,0.44579 1.25654,1.07168 1.64804,1.87771c0.39626,0.80603 0.59439,1.7494 0.59439,2.83012c0,1.07168 -0.19813,2.00828 -0.59439,2.80983c-0.3915,0.80151 -0.94112,1.42519 -1.64804,1.87098c-0.70257,0.44579 -1.52203,0.66869 -2.45839,0.66869zM274.50432,172.58818c0.71129,0 1.29656,-0.18236 1.75582,-0.54712c0.45926,-0.36472 0.79925,-0.84427 1.01997,-1.43866c0.22072,-0.59439 0.33088,-1.23831 0.33088,-1.93176c0,-0.69345 -0.11016,-1.33963 -0.33088,-1.93854c-0.22072,-0.59891 -0.56071,-1.08294 -1.01997,-1.45221c-0.45926,-0.36923 -1.04454,-0.55385 -1.75582,-0.55385c-0.71168,0 -1.29696,0.18462 -1.75622,0.55385c-0.45926,0.36927 -0.79925,0.8533 -1.01997,1.45221c-0.22072,0.59891 -0.33088,1.24509 -0.33088,1.93854c0,0.69345 0.11016,1.33737 0.33088,1.93176c0.22072,0.59439 0.56071,1.07394 1.01997,1.43866c0.45926,0.36476 1.04454,0.54712 1.75622,0.54712zM283.63611,173.80398l-3.16096,-10.37478h1.67499l2.24243,7.94317h0.10818l2.21549,-7.94317h1.70193l2.18854,7.91619h0.10818l2.24243,-7.91619h1.67499l-3.16096,10.37478h-1.56721l-2.26938,-7.9702h-0.16207l-2.26938,7.9702zM296.73961,173.80398v-10.37478h1.59415v10.37478zM297.55036,161.70005c-0.31067,0 -0.57893,-0.1058 -0.80401,-0.31744c-0.22072,-0.21164 -0.33088,-0.46604 -0.33088,-0.76323c0,-0.29719 0.11016,-0.55163 0.33088,-0.76327c0.22508,-0.21164 0.49334,-0.31744 0.80401,-0.31744c0.31067,0 0.57616,0.1058 0.79688,0.31744c0.22508,0.21164 0.33761,0.46608 0.33761,0.76327c0,0.29719 -0.11254,0.55159 -0.33761,0.76323c-0.22072,0.21164 -0.48621,0.31744 -0.79688,0.31744zM302.84755,167.5629v6.24108h-1.59415v-10.37478h1.53986v1.62106h0.13512c0.2433,-0.52687 0.61262,-0.95011 1.10794,-1.26985c0.49532,-0.32418 1.13449,-0.48629 1.91789,-0.48629c0.70257,0 1.31717,0.14408 1.84419,0.43228c0.52663,0.28368 0.93676,0.71596 1.2292,1.29684c0.29284,0.5764 0.43906,1.30587 0.43906,2.18842v6.59233h-1.59415v-6.48423c0,-0.81507 -0.2116,-1.44995 -0.63481,-1.90478c-0.4232,-0.45926 -1.00412,-0.68894 -1.74275,-0.68894c-0.5088,0 -0.96331,0.11032 -1.36432,0.33096c-0.39626,0.22068 -0.7093,0.54264 -0.93874,0.96588c-0.22983,0.42328 -0.34435,0.93664 -0.34435,1.54002zM316.56723,177.91066c-0.76993,0 -1.43208,-0.09906 -1.98565,-0.29719c-0.55397,-0.19361 -1.01561,-0.45027 -1.38493,-0.76997c-0.36456,-0.31522 -0.65502,-0.65296 -0.87098,-1.0132l1.26961,-0.89158c0.14424,0.18913 0.32652,0.40529 0.54723,0.64844c0.22072,0.24766 0.52227,0.46156 0.90506,0.64166c0.38715,0.18462 0.89396,0.27695 1.51965,0.27695c0.83769,0 1.52877,-0.20265 2.07362,-0.6079c0.54486,-0.40525 0.81748,-1.04018 0.81748,-1.90474v-2.10739h-0.13512c-0.11729,0.18913 -0.28372,0.42328 -0.50008,0.70245c-0.2116,0.27469 -0.51791,0.52009 -0.91853,0.73625c-0.39626,0.21164 -0.932,0.31744 -1.60762,0.31744c-0.8373,0 -1.5894,-0.19813 -2.2559,-0.59439c-0.66175,-0.39626 -1.1864,-0.97262 -1.57355,-1.72912c-0.38279,-0.7565 -0.57418,-1.67511 -0.57418,-2.75582c0,-1.06269 0.18664,-1.98803 0.56031,-2.77607c0.37407,-0.79252 0.89396,-1.4049 1.56047,-1.83718c0.66651,-0.4368 1.43644,-0.65517 2.30979,-0.65517c0.67562,0 1.21136,0.11258 1.60762,0.33769c0.40101,0.22068 0.70693,0.47282 0.91853,0.7565c0.21636,0.2792 0.38279,0.50884 0.50008,0.68898h0.16207v-1.64808h1.53986v10.67197c0,0.89158 -0.20249,1.61654 -0.60786,2.17491c-0.40062,0.56289 -0.94112,0.97492 -1.6211,1.23609c-0.67523,0.26565 -1.42733,0.39848 -2.2559,0.39848zM316.51334,172.20995c0.63917,0 1.17966,-0.14634 1.6211,-0.43906c0.44104,-0.29268 0.77667,-0.7137 1.0061,-1.26308c0.22983,-0.54933 0.34475,-1.20677 0.34475,-1.9723c0,-0.74746 -0.11254,-1.40716 -0.33801,-1.97904c-0.22508,-0.57188 -0.55833,-1.01989 -0.99937,-1.34411c-0.44143,-0.32422 -0.98629,-0.48633 -1.63457,-0.48633c-0.67562,0 -1.23831,0.1711 -1.68886,0.51335c-0.44579,0.34221 -0.78103,0.80151 -1.0061,1.37787c-0.22072,0.5764 -0.33127,1.2158 -0.33127,1.91825c0,0.72048 0.11254,1.35766 0.33801,1.91151c0.22943,0.54937 0.56705,0.98165 1.01284,1.29684c0.45055,0.31071 1.00888,0.46608 1.67538,0.46608zM329.31964,173.80398v-10.37478h1.59415v10.37478zM330.12999,161.70005c-0.31067,0 -0.57854,-0.1058 -0.80361,-0.31744c-0.22072,-0.21164 -0.33088,-0.46604 -0.33088,-0.76323c0,-0.29719 0.11016,-0.55163 0.33088,-0.76327c0.22508,-0.21164 0.49295,-0.31744 0.80361,-0.31744c0.31067,0 0.57656,0.1058 0.79727,0.31744c0.22508,0.21164 0.33761,0.46608 0.33761,0.76327c0,0.29719 -0.11254,0.55159 -0.33761,0.76323c-0.22072,0.21164 -0.48661,0.31744 -0.79727,0.31744zM341.18206,165.75271l-1.43208,0.40525c-0.08995,-0.23863 -0.2227,-0.47056 -0.39824,-0.69567c-0.17118,-0.22967 -0.40537,-0.41881 -0.70257,-0.5674c-0.29719,-0.1486 -0.6776,-0.2229 -1.14162,-0.2229c-0.63481,0 -1.16381,0.14638 -1.58702,0.43906c-0.41885,0.2882 -0.62847,0.65517 -0.62847,1.10097c0,0.39626 0.14424,0.70922 0.43232,0.93886c0.28848,0.22967 0.73863,0.42103 1.35085,0.57414l1.54026,0.37823c0.92764,0.22515 1.61872,0.56962 2.07362,1.03344c0.45451,0.4593 0.68196,1.05143 0.68196,1.77639c0,0.59439 -0.17118,1.12577 -0.51316,1.59407c-0.33761,0.4683 -0.81075,0.83753 -1.41861,1.1077c-0.60786,0.27017 -1.31479,0.40529 -2.12078,0.40529c-1.05801,0 -1.93414,-0.22967 -2.62759,-0.68898c-0.69345,-0.4593 -1.13251,-1.13025 -1.31717,-2.0128l1.51331,-0.37827c0.14384,0.55837 0.41647,0.97714 0.81709,1.25634c0.40537,0.27916 0.93438,0.41877 1.58741,0.41877c0.74299,0 1.33262,-0.15759 1.76969,-0.47282c0.44104,-0.3197 0.66175,-0.70245 0.66175,-1.14824c0,-0.36024 -0.12601,-0.66195 -0.37803,-0.9051c-0.25242,-0.24766 -0.63956,-0.43228 -1.16183,-0.55385l-1.72928,-0.40529c-0.95023,-0.22511 -1.64804,-0.5741 -2.09383,-1.04692c-0.44143,-0.47729 -0.66175,-1.07394 -0.66175,-1.7899c0,-0.58539 0.16405,-1.10323 0.49295,-1.55353c0.33325,-0.45031 0.78578,-0.80377 1.35758,-1.06043c0.57656,-0.2567 1.2292,-0.38501 1.95871,-0.38501c1.02671,0 1.8327,0.22515 2.41837,0.67542c0.58963,0.45031 1.00848,1.0447 1.25614,1.78317zM352.1731,174.04713c-0.65739,0 -1.25416,-0.12383 -1.7899,-0.37149c-0.53574,-0.25214 -0.96132,-0.61464 -1.27635,-1.08745c-0.31542,-0.47729 -0.47313,-1.05369 -0.47313,-1.72912c0,-0.59439 0.11729,-1.0762 0.35148,-1.44543c0.23419,-0.37375 0.54684,-0.66647 0.93874,-0.87811c0.3919,-0.2116 0.82422,-0.36923 1.29696,-0.47278c0.4771,-0.1081 0.95697,-0.19365 1.43882,-0.2567c0.63005,-0.08104 1.14123,-0.14182 1.53313,-0.18236c0.39626,-0.04502 0.68434,-0.11931 0.86464,-0.2229c0.18466,-0.10358 0.27699,-0.28368 0.27699,-0.54034v-0.05405c0,-0.66643 -0.18268,-1.18426 -0.54723,-1.55349c-0.3602,-0.36927 -0.90743,-0.55389 -1.64131,-0.55389c-0.76121,0 -1.35758,0.16663 -1.7899,0.49984c-0.43232,0.33321 -0.73625,0.68894 -0.91179,1.06721l-1.51331,-0.54038c0.27025,-0.63041 0.63045,-1.12122 1.081,-1.47246c0.45451,-0.35572 0.94983,-0.60338 1.48597,-0.74299c0.5401,-0.14408 1.07148,-0.21612 1.59375,-0.21612c0.33325,0 0.71604,0.0405 1.14836,0.12157c0.43668,0.07656 0.8579,0.23641 1.26327,0.47955c0.40973,0.24318 0.74972,0.61016 1.01997,1.10097c0.26985,0.49085 0.40498,1.14828 0.40498,1.9723v6.83547h-1.59375v-1.40494h-0.08123c-0.10818,0.22515 -0.28808,0.46608 -0.5405,0.72274c-0.25202,0.25666 -0.58765,0.47508 -1.0061,0.65517c-0.41885,0.18014 -0.93002,0.27017 -1.53352,0.27017zM352.4164,172.61521c0.63045,0 1.16183,-0.12383 1.59415,-0.37149c0.43668,-0.24766 0.76518,-0.56736 0.98589,-0.95915c0.22508,-0.39174 0.33801,-0.80377 0.33801,-1.23605v-1.45895c-0.06776,0.08107 -0.21636,0.15537 -0.44579,0.2229c-0.22547,0.06304 -0.48661,0.11931 -0.7838,0.16885c-0.29244,0.04505 -0.57854,0.08559 -0.8579,0.12161c-0.27461,0.0315 -0.49731,0.05853 -0.66849,0.08104c-0.41409,0.05405 -0.80163,0.14186 -1.16183,0.26343c-0.35584,0.11705 -0.64392,0.29494 -0.86464,0.5336c-0.21596,0.23415 -0.32414,0.55385 -0.32414,0.95911c0,0.55389 0.20487,0.97266 0.6146,1.25634c0.41449,0.27916 0.93913,0.41877 1.57394,0.41877zM131.4743,188.73574l-1.43196,0.40525c-0.09003,-0.23863 -0.2229,-0.47056 -0.39848,-0.69567c-0.17114,-0.22967 -0.40529,-0.41881 -0.70249,-0.5674c-0.29719,-0.1486 -0.67768,-0.2229 -1.1415,-0.2229c-0.63489,0 -1.16401,0.14638 -1.58727,0.43906c-0.41877,0.2882 -0.62816,0.65517 -0.62816,1.10097c0,0.39626 0.14409,0.70922 0.43228,0.93886c0.28819,0.22967 0.73849,0.42103 1.35087,0.57414l1.54002,0.37823c0.9276,0.22515 1.6188,0.56962 2.07362,1.03344c0.45479,0.4593 0.68216,1.05143 0.68216,1.77639c0,0.59439 -0.1711,1.12577 -0.51331,1.59395c-0.33773,0.46838 -0.81055,0.83769 -1.41845,1.10794c-0.60786,0.27025 -1.31483,0.40498 -2.12086,0.40498c-1.0582,0 -1.93403,-0.22943 -2.62748,-0.6887c-0.69345,-0.45926 -1.13249,-1.13033 -1.31711,-2.01288l1.51299,-0.37827c0.1441,0.55837 0.41652,0.97714 0.81728,1.25634c0.40527,0.27928 0.93438,0.41877 1.58729,0.41877c0.74299,0 1.33286,-0.15771 1.76965,-0.47282c0.44127,-0.3197 0.66195,-0.70245 0.66195,-1.14824c0,-0.36024 -0.12609,-0.66195 -0.37827,-0.9051c-0.25218,-0.24766 -0.6394,-0.43228 -1.16175,-0.55385l-1.72912,-0.40529c-0.95014,-0.22511 -1.6481,-0.5741 -2.09389,-1.04692c-0.44129,-0.47729 -0.66193,-1.07394 -0.66193,-1.7899c0,-0.58539 0.16436,-1.10323 0.49307,-1.55353c0.33322,-0.45031 0.78576,-0.80377 1.35764,-1.06043c0.57638,-0.2567 1.22929,-0.38501 1.95876,-0.38501c1.02671,0 1.8327,0.22515 2.41809,0.67542c0.58991,0.45031 1.00868,1.0447 1.25634,1.78317zM135.08961,200.67749c-0.27021,0 -0.5111,-0.02259 -0.72274,-0.06736c-0.21164,-0.04081 -0.35798,-0.08123 -0.43906,-0.12165l0.40529,-1.40514c0.38722,0.09906 0.72947,0.13512 1.02667,0.10818c0.29719,-0.02695 0.56059,-0.15969 0.79026,-0.39864c0.23415,-0.23379 0.44805,-0.6146 0.64166,-1.14123l0.29719,-0.81075l-3.8365,-10.42867h1.72912l2.86388,8.26739h0.10806l2.86388,-8.26739h1.72912l-4.40387,11.8877c-0.19813,0.53574 -0.44353,0.97955 -0.73625,1.33064c-0.29268,0.35584 -0.63263,0.61935 -1.01989,0.79014c-0.38275,0.17118 -0.81503,0.25678 -1.29684,0.25678zM146.2445,190.54593v6.24108h-1.59403v-10.37478h1.54002v1.62106h0.13508c0.24314,-0.52687 0.61238,-0.95011 1.1077,-1.26985c0.49532,-0.32418 1.13477,-0.48629 1.91825,-0.48629c0.70249,0 1.31713,0.14408 1.84395,0.43228c0.52687,0.28368 0.93664,0.71596 1.22931,1.29684c0.29268,0.5764 0.43906,1.30587 0.43906,2.18842v6.59233h-1.59407v-6.48423c0,-0.81507 -0.21164,-1.44995 -0.63489,-1.90478c-0.42328,-0.45926 -1.00416,-0.68894 -1.74267,-0.68894c-0.50884,0 -0.96362,0.11032 -1.36436,0.33096c-0.39626,0.22068 -0.70922,0.54264 -0.9389,0.96588c-0.22963,0.42328 -0.34447,0.93664 -0.34447,1.54002zM159.99144,197.00298c-0.93664,0 -1.7584,-0.2227 -2.46537,-0.66849c-0.70245,-0.44579 -1.25182,-1.0695 -1.64808,-1.87098c-0.39174,-0.80155 -0.58765,-1.73815 -0.58765,-2.80983c0,-1.08072 0.19591,-2.02409 0.58765,-2.83012c0.39626,-0.80603 0.94563,-1.43192 1.64808,-1.87771c0.70697,-0.44579 1.52873,-0.66869 2.46537,-0.66869c0.9366,0 1.75614,0.2229 2.45871,0.66869c0.70693,0.44579 1.25614,1.07168 1.64804,1.87771c0.39626,0.80603 0.59439,1.7494 0.59439,2.83012c0,1.07168 -0.19813,2.00828 -0.59439,2.80983c-0.3919,0.80147 -0.94112,1.42519 -1.64804,1.87098c-0.70257,0.44579 -1.52211,0.66849 -2.45871,0.66849zM159.99144,195.57129c0.71144,0 1.29684,-0.18228 1.75614,-0.54719c0.4593,-0.36472 0.79925,-0.84427 1.01997,-1.43866c0.22072,-0.59439 0.33088,-1.23831 0.33088,-1.93176c0,-0.69345 -0.11016,-1.33963 -0.33088,-1.93854c-0.22072,-0.59891 -0.56067,-1.08294 -1.01997,-1.45221c-0.4593,-0.36923 -1.0447,-0.55385 -1.75614,-0.55385c-0.71148,0 -1.29684,0.18462 -1.75614,0.55385c-0.4593,0.36927 -0.79929,0.8533 -1.01993,1.45221c-0.22064,0.59891 -0.33096,1.24509 -0.33096,1.93854c0,0.69345 0.11032,1.33737 0.33096,1.93176c0.22064,0.59439 0.56063,1.07394 1.01993,1.43866c0.4593,0.36492 1.04466,0.54719 1.75614,0.54719zM168.71976,190.54593v6.24108h-1.59415v-10.37478h1.54026v1.62106h0.13512c0.24291,-0.52687 0.61222,-0.95011 1.10754,-1.26985c0.49532,-0.32418 1.13489,-0.48629 1.91829,-0.48629c0.70257,0 1.31717,0.14408 1.84379,0.43228c0.52702,0.28368 0.93676,0.71596 1.22959,1.29684c0.29244,0.5764 0.43906,1.30587 0.43906,2.18842v6.59233h-1.59415v-6.48423c0,-0.81507 -0.2116,-1.44995 -0.63481,-1.90478c-0.4232,-0.45926 -1.00412,-0.68894 -1.74275,-0.68894c-0.5088,0 -0.9637,0.11032 -1.36432,0.33096c-0.39626,0.22068 -0.7093,0.54264 -0.93913,0.96588c-0.22943,0.42328 -0.34435,0.93664 -0.34435,1.54002zM178.90719,200.67749c-0.27025,0 -0.51117,-0.02259 -0.72278,-0.06736c-0.2116,-0.04081 -0.35782,-0.08123 -0.43906,-0.12165l0.40537,-1.40514c0.38715,0.09906 0.72951,0.13512 1.02671,0.10818c0.29719,-0.02695 0.56071,-0.15969 0.79014,-0.39864c0.23419,-0.23379 0.44817,-0.6146 0.64154,-1.14123l0.29719,-0.81075l-3.83619,-10.42867h1.72888l2.86416,8.26739h0.10778l2.86416,-8.26739h1.72888l-4.40363,11.8877c-0.19813,0.53574 -0.44381,0.97955 -0.73625,1.33064c-0.29284,0.35584 -0.63283,0.61935 -1.01997,0.79014c-0.38279,0.17118 -0.81511,0.25678 -1.29696,0.25678zM188.46813,196.78702v-10.37478h1.53986v1.62106h0.13512c0.21636,-0.55385 0.56507,-0.98391 1.04692,-1.2901c0.48185,-0.31071 1.06039,-0.46604 1.73601,-0.46604c0.68434,0 1.25416,0.15533 1.70867,0.46604c0.45926,0.30619 0.81748,0.73625 1.07426,1.2901h0.10778c0.26589,-0.53586 0.66413,-0.96136 1.19551,-1.27659c0.53138,-0.3197 1.16857,-0.47955 1.91155,-0.47955c0.92764,0 1.68648,0.29042 2.27651,0.87129c0.58963,0.5764 0.88445,1.47472 0.88445,2.69504v6.94353h-1.59375v-6.94353c0,-0.76549 -0.20962,-1.31261 -0.62847,-1.64135c-0.41845,-0.3287 -0.91179,-0.49307 -1.47884,-0.49307c-0.72951,0 -1.29458,0.22064 -1.69559,0.66195c-0.40062,0.43676 -0.60113,0.99065 -0.60113,1.66155v6.75444h-1.6211v-7.10564c0,-0.58991 -0.19139,-1.06495 -0.57418,-1.42519c-0.38279,-0.36476 -0.87573,-0.54712 -1.47924,-0.54712c-0.41409,0 -0.80124,0.11032 -1.16144,0.33096c-0.35584,0.22068 -0.64392,0.52687 -0.86464,0.91861c-0.21636,0.38726 -0.32414,0.83531 -0.32414,1.34415v6.48423zM214.96915,186.41224v1.35089h-5.5928v-1.35089zM211.05134,196.78702v-11.80674c0,-0.59439 0.13988,-1.08971 0.41885,-1.48597c0.27936,-0.39626 0.64154,-0.69345 1.08734,-0.89158c0.44579,-0.19813 0.91655,-0.29719 1.41187,-0.29719c0.3919,0 0.71129,0.03154 0.95895,0.09459c0.24766,0.06304 0.43232,0.12157 0.55397,0.17562l-0.45926,1.37787c-0.08123,-0.02699 -0.19377,-0.06079 -0.33761,-0.10128c-0.13988,-0.04054 -0.32414,-0.06083 -0.55397,-0.06083c-0.52702,0 -0.90743,0.13287 -1.14162,0.39852c-0.22943,0.26569 -0.34435,0.65517 -0.34435,1.16853v11.42847zM220.99071,197.00298c-0.93676,0 -1.7586,-0.2227 -2.46552,-0.66849c-0.70257,-0.44579 -1.25178,-1.0695 -1.64804,-1.87098c-0.3919,-0.80155 -0.58765,-1.73815 -0.58765,-2.80983c0,-1.08072 0.19575,-2.02409 0.58765,-2.83012c0.39626,-0.80603 0.94547,-1.43192 1.64804,-1.87771c0.70693,-0.44579 1.52877,-0.66869 2.46552,-0.66869c0.93636,0 1.75622,0.2229 2.45839,0.66869c0.70693,0.44579 1.25654,1.07168 1.64804,1.87771c0.39626,0.80603 0.59439,1.7494 0.59439,2.83012c0,1.07168 -0.19813,2.00828 -0.59439,2.80983c-0.3915,0.80147 -0.94112,1.42519 -1.64804,1.87098c-0.70217,0.44579 -1.52203,0.66849 -2.45839,0.66849zM220.99071,195.57129c0.71129,0 1.29656,-0.18228 1.75582,-0.54719c0.45966,-0.36472 0.79965,-0.84427 1.01997,-1.43866c0.22072,-0.59439 0.33127,-1.23831 0.33127,-1.93176c0,-0.69345 -0.11056,-1.33963 -0.33127,-1.93854c-0.22032,-0.59891 -0.56031,-1.08294 -1.01997,-1.45221c-0.45926,-0.36923 -1.04454,-0.55385 -1.75582,-0.55385c-0.71168,0 -1.29696,0.18462 -1.75622,0.55385c-0.45926,0.36927 -0.79925,0.8533 -1.01997,1.45221c-0.22072,0.59891 -0.33088,1.24509 -0.33088,1.93854c0,0.69345 0.11016,1.33737 0.33088,1.93176c0.22072,0.59439 0.56071,1.07394 1.01997,1.43866c0.45926,0.36492 1.04454,0.54719 1.75622,0.54719zM228.12496,196.78702v-10.37478h1.53986v1.56701h0.10818c0.18902,-0.51331 0.53138,-0.92986 1.02671,-1.24956c0.49532,-0.3197 1.05365,-0.47955 1.67499,-0.47955c0.11729,0 0.26351,0.00226 0.43906,0.00674c0.17554,0.00452 0.30869,0.01125 0.39864,0.02029v1.62106c-0.05429,-0.01351 -0.17792,-0.03376 -0.37169,-0.06079c-0.18902,-0.03154 -0.38952,-0.04727 -0.60113,-0.04727c-0.50404,0 -0.95459,0.1058 -1.35085,0.31744c-0.3915,0.20712 -0.70257,0.49532 -0.932,0.86456c-0.22508,0.36476 -0.33761,0.78126 -0.33761,1.24956v6.5653zM241.92944,182.95397v4.75511h-1.48597v-4.75511zM245.38759,182.95397v4.75511h-1.48597v-4.75511zM249.81658,190.54593v6.24108h-1.59375v-13.83305h1.59375v5.07933h0.13512c0.2433,-0.53586 0.60786,-0.96136 1.09447,-1.27659c0.49057,-0.3197 1.1436,-0.47955 1.95871,-0.47955c0.70693,0 1.32588,0.14182 1.85727,0.4255c0.53138,0.2792 0.94349,0.70922 1.23633,1.2901c0.29719,0.5764 0.44579,1.31035 0.44579,2.20193v6.59233h-1.59415v-6.48423c0,-0.82406 -0.21398,-1.46121 -0.64154,-1.91151c-0.4236,-0.45479 -1.01086,-0.6822 -1.76296,-0.6822c-0.52227,0 -0.99065,0.11032 -1.40514,0.33096c-0.40973,0.22068 -0.73387,0.54264 -0.97242,0.96588c-0.23419,0.42328 -0.35148,0.93664 -0.35148,1.54002zM262.51352,197.03032c-0.65739,0 -1.25416,-0.12403 -1.7899,-0.37169c-0.53614,-0.25202 -0.96172,-0.6146 -1.27675,-1.08734c-0.31503,-0.47737 -0.47274,-1.05377 -0.47274,-1.7292c0,-0.59439 0.1169,-1.0762 0.35109,-1.44543c0.23419,-0.37375 0.54723,-0.66647 0.93874,-0.87811c0.3919,-0.2116 0.82422,-0.36923 1.29696,-0.47278c0.47749,-0.1081 0.95697,-0.19365 1.43882,-0.2567c0.63045,-0.08104 1.14162,-0.14182 1.53313,-0.18236c0.39626,-0.04502 0.68434,-0.11931 0.86464,-0.2229c0.18466,-0.10358 0.27699,-0.28368 0.27699,-0.54034v-0.05405c0,-0.66643 -0.18228,-1.18426 -0.54723,-1.55349c-0.3602,-0.36927 -0.90743,-0.55389 -1.64131,-0.55389c-0.76082,0 -1.35758,0.16663 -1.7899,0.49984c-0.43232,0.33321 -0.73625,0.68894 -0.91179,1.06721l-1.51292,-0.54038c0.27025,-0.63041 0.63045,-1.12122 1.0806,-1.47246c0.45491,-0.35572 0.95023,-0.60338 1.48597,-0.74299c0.5405,-0.14408 1.07188,-0.21612 1.59415,-0.21612c0.33325,0 0.71604,0.0405 1.14836,0.12157c0.43668,0.07656 0.8575,0.23641 1.26288,0.47955c0.40973,0.24318 0.74972,0.61016 1.01997,1.10097c0.27025,0.49085 0.40537,1.14828 0.40537,1.9723v6.83547h-1.59415v-1.40474h-0.08123c-0.10778,0.22508 -0.28808,0.466 -0.5401,0.72238c-0.25242,0.25678 -0.58765,0.47511 -1.0065,0.65541c-0.41885,0.1799 -0.93002,0.27025 -1.53313,0.27025zM262.75643,195.59824c0.63045,0 1.16183,-0.12363 1.59415,-0.37169c0.43668,-0.24746 0.76557,-0.56717 0.98629,-0.95895c0.22508,-0.39174 0.33761,-0.80377 0.33761,-1.23605v-1.45895c-0.06776,0.08107 -0.21636,0.15537 -0.44579,0.2229c-0.22508,0.06304 -0.48621,0.11931 -0.7834,0.16885c-0.29284,0.04505 -0.57893,0.08559 -0.8579,0.12161c-0.27461,0.0315 -0.4977,0.05853 -0.66889,0.08104c-0.41409,0.05405 -0.80124,0.14186 -1.16144,0.26343c-0.35584,0.11705 -0.64392,0.29494 -0.86464,0.5336c-0.21636,0.23415 -0.32414,0.55385 -0.32414,0.95911c0,0.55389 0.20487,0.97266 0.6146,1.25634c0.41409,0.27928 0.93874,0.41877 1.57355,0.41877zM270.17796,200.67749v-14.26525h1.53986v1.64808h0.18941c0.1169,-0.18014 0.27897,-0.40977 0.48621,-0.68898c0.2116,-0.28368 0.51316,-0.53582 0.90506,-0.7565c0.39626,-0.22511 0.932,-0.33769 1.60762,-0.33769c0.87336,0 1.64329,0.21838 2.30979,0.65517c0.66651,0.4368 1.1868,1.05595 1.56047,1.85746c0.37367,0.80151 0.56071,1.74715 0.56071,2.83686c0,1.09871 -0.18703,2.05108 -0.56071,2.85711c-0.37367,0.80143 -0.89158,1.42277 -1.55373,1.8642c-0.66175,0.43668 -1.42495,0.65502 -2.28959,0.65502c-0.66651,0 -1.19987,-0.11016 -1.60089,-0.33088c-0.40062,-0.22508 -0.7093,-0.47947 -0.92527,-0.7632c-0.21636,-0.28808 -0.38279,-0.52663 -0.49968,-0.71592h-0.13512v5.4845zM271.74477,191.59963c0,0.78352 0.11492,1.47472 0.34475,2.07358c0.22943,0.59439 0.56507,1.06047 1.0065,1.3982c0.44104,0.33306 0.98153,0.49988 1.6207,0.49988c0.66651,0 1.22286,-0.17554 1.66865,-0.52691c0.45015,-0.35576 0.78776,-0.83306 1.01323,-1.43196c0.22943,-0.60338 0.34435,-1.27433 0.34435,-2.0128c0,-0.72947 -0.11254,-1.38691 -0.33761,-1.9723c-0.22072,-0.58987 -0.55635,-1.05595 -1.0065,-1.39816c-0.44579,-0.34673 -1.0065,-0.52009 -1.68212,-0.52009c-0.64828,0 -1.19314,0.16437 -1.63457,0.49307c-0.44104,0.32422 -0.77429,0.77901 -0.99937,1.3644c-0.22508,0.58088 -0.33801,1.25856 -0.33801,2.03309zM281.76854,200.67749v-14.26525h1.53986v1.64808h0.18941c0.1169,-0.18014 0.27897,-0.40977 0.48621,-0.68898c0.2116,-0.28368 0.51316,-0.53582 0.90506,-0.7565c0.39626,-0.22511 0.932,-0.33769 1.60762,-0.33769c0.87336,0 1.64329,0.21838 2.30979,0.65517c0.66651,0.4368 1.1868,1.05595 1.56047,1.85746c0.37367,0.80151 0.56071,1.74715 0.56071,2.83686c0,1.09871 -0.18703,2.05108 -0.56071,2.85711c-0.37367,0.80143 -0.89158,1.42277 -1.55373,1.8642c-0.66175,0.43668 -1.42495,0.65502 -2.28959,0.65502c-0.66651,0 -1.19987,-0.11016 -1.60089,-0.33088c-0.40062,-0.22508 -0.7093,-0.47947 -0.92527,-0.7632c-0.21636,-0.28808 -0.38279,-0.52663 -0.49968,-0.71592h-0.13512v5.4845zM283.33535,191.59963c0,0.78352 0.11492,1.47472 0.34475,2.07358c0.22943,0.59439 0.56507,1.06047 1.0065,1.3982c0.44104,0.33306 0.98153,0.49988 1.6207,0.49988c0.66651,0 1.22286,-0.17554 1.66865,-0.52691c0.45015,-0.35576 0.78776,-0.83306 1.01323,-1.43196c0.22943,-0.60338 0.34435,-1.27433 0.34435,-2.0128c0,-0.72947 -0.11254,-1.38691 -0.33761,-1.9723c-0.22072,-0.58987 -0.55635,-1.05595 -1.0065,-1.39816c-0.44579,-0.34673 -1.0065,-0.52009 -1.68212,-0.52009c-0.64828,0 -1.19314,0.16437 -1.63457,0.49307c-0.44104,0.32422 -0.77429,0.77901 -0.99937,1.3644c-0.22508,0.58088 -0.33801,1.25856 -0.33801,2.03309zM294.01414,200.67749c-0.26985,0 -0.51078,-0.02259 -0.72278,-0.06736c-0.2116,-0.04081 -0.35782,-0.08123 -0.43866,-0.12165l0.40498,-1.40514c0.38754,0.09906 0.72951,0.13512 1.02671,0.10818c0.29719,-0.02695 0.56071,-0.15969 0.79014,-0.39864c0.23419,-0.23379 0.44817,-0.6146 0.64194,-1.14123l0.29719,-0.81075l-3.83658,-10.42867h1.72928l2.86377,8.26739h0.10818l2.86377,-8.26739h1.72928l-4.40402,11.8877c-0.19813,0.53574 -0.44341,0.97955 -0.73625,1.33064c-0.29284,0.35584 -0.63283,0.61935 -1.01997,0.79014c-0.38279,0.17118 -0.81511,0.25678 -1.29696,0.25678zM304.95288,182.95397v4.75511h-1.48597v-4.75511zM308.41143,182.95397v4.75511h-1.48597v-4.75511zM313.32702,192.89646v-0.08104c0.00872,-0.86008 0.09906,-1.54454 0.26985,-2.05334c0.17118,-0.50884 0.41449,-0.92087 0.72951,-1.23609c0.31542,-0.31518 0.69345,-0.60564 1.13489,-0.87129c0.26549,-0.16211 0.50444,-0.3535 0.71604,-0.57414c0.2116,-0.22515 0.37803,-0.48407 0.49968,-0.77675c0.12601,-0.29272 0.18902,-0.6169 0.18902,-0.97266c0,-0.44127 -0.10342,-0.82402 -0.31067,-1.14824c-0.20685,-0.32422 -0.48383,-0.57414 -0.83056,-0.74972c-0.34673,-0.17562 -0.73189,-0.26343 -1.1551,-0.26343c-0.36931,0 -0.72515,0.07656 -1.06713,0.22963c-0.34237,0.15311 -0.62807,0.39404 -0.8579,0.72274c-0.22983,0.3287 -0.36258,0.75876 -0.39864,1.2901h-1.70193c0.03606,-0.76549 0.23419,-1.42067 0.59439,-1.96552c0.36456,-0.54486 0.84443,-0.9614 1.43882,-1.2496c0.59875,-0.28816 1.26288,-0.43228 1.99239,-0.43228c0.79252,0 1.48161,0.15763 2.06689,0.47282c0.58963,0.31522 1.04454,0.7475 1.36432,1.29684c0.32414,0.54937 0.48621,1.1753 0.48621,1.87775c0,0.49532 -0.07648,0.94337 -0.22943,1.34411c-0.1486,0.40078 -0.36495,0.75876 -0.64868,1.07398c-0.27897,0.31518 -0.61658,0.59439 -1.01284,0.83753c-0.39626,0.24766 -0.71406,0.50884 -0.95261,0.78352c-0.23855,0.27017 -0.41211,0.59213 -0.51989,0.96588c-0.10818,0.37371 -0.16683,0.83979 -0.17594,1.39816v0.08104zM314.19126,196.8952c-0.33325,0 -0.61896,-0.11927 -0.8575,-0.35822c-0.23894,-0.23855 -0.35822,-0.52465 -0.35822,-0.8575c0,-0.33325 0.11927,-0.61935 0.35822,-0.85798c0.23855,-0.23867 0.52425,-0.35798 0.8575,-0.35798c0.33325,0 0.61935,0.11931 0.8579,0.35798c0.23855,0.23863 0.35822,0.52473 0.35822,0.85798c0,0.22032 -0.05627,0.4232 -0.1692,0.60786c-0.10778,0.18466 -0.2544,0.33325 -0.43906,0.44579c-0.1799,0.10778 -0.38239,0.16207 -0.60786,0.16207z"/></g></g></svg>