<svg version="1.1" xmlns="http://www.w3.org/2000/svg" xmlns:xlink="http://www.w3.org/1999/xlink" width="240.47742" height="41.98529" viewBox="0,0,240.47742,41.98529"><g transform="translate(-119.76129,-159.00735)"><g data-paper-data="{&quot;isPaintingLayer&quot;:true}" fill="#ffffff" fill-rule="nonzero" stroke="none" stroke-width="1" stroke-linecap="butt" stroke-linejoin="miter" stroke-miterlimit="10" stroke-dasharray="" stroke-dashoffset="0" style="mix-blend-mode: normal"><path d="M123.60142,173.70955l-3.84013,-14.04389h1.72805l2.93494,11.43808h0.13714l2.98984,-11.43808h1.92005l2.9898,11.43808h0.13714l2.93497,-11.43808h1.72803l-3.8401,14.04389h-1.75551l-3.09951,-11.19123h-0.10971l-3.09955,11.19123zM140.7791,167.37334v6.33621h-1.61833v-14.04389h1.61833v5.15675h0.13718c0.24685,-0.54403 0.61713,-0.97602 1.11087,-1.29605c0.49833,-0.32457 1.1612,-0.48686 1.98864,-0.48686c0.71774,0 1.34633,0.14398 1.88578,0.43199c0.53944,0.28346 0.95775,0.72003 1.25489,1.30976c0.30172,0.58518 0.45259,1.33032 0.45259,2.23549v6.6928h-1.61833v-6.58306c0,-0.83662 -0.21716,-1.48348 -0.65144,-1.94065c-0.42974,-0.46172 -1.02634,-0.6926 -1.78979,-0.6926c-0.53031,0 -1.00575,0.112 -1.42631,0.336c-0.41602,0.22404 -0.74518,0.55091 -0.98748,0.9806c-0.23772,0.42974 -0.3566,0.95091 -0.3566,1.56349zM153.66923,173.9564c-0.66745,0 -1.27315,-0.12572 -1.81718,-0.37716c-0.54403,-0.25598 -0.97602,-0.62401 -1.29605,-1.10403c-0.32003,-0.48457 -0.48002,-1.06975 -0.48002,-1.75547c0,-0.60345 0.11888,-1.0926 0.3566,-1.46747c0.23772,-0.37945 0.55545,-0.67663 0.95317,-0.89149c0.39771,-0.21483 0.83658,-0.37486 1.3166,-0.47998c0.48461,-0.10975 0.97147,-0.1966 1.46063,-0.26061c0.64002,-0.08227 1.1589,-0.14398 1.55661,-0.18514c0.4023,-0.0457 0.69489,-0.12113 0.87774,-0.22629c0.18747,-0.10516 0.28117,-0.28801 0.28117,-0.54857v-0.05487c0,-0.67659 -0.18514,-1.20231 -0.55545,-1.57717c-0.36573,-0.3749 -0.92114,-0.56233 -1.66632,-0.56233c-0.77261,0 -1.37836,0.16917 -1.81722,0.50746c-0.43887,0.33829 -0.74743,0.69944 -0.92573,1.08347l-1.53606,-0.54861c0.27429,-0.64002 0.64002,-1.1383 1.09719,-1.4949c0.46172,-0.36114 0.96459,-0.61258 1.50862,-0.75431c0.54857,-0.14628 1.08802,-0.21941 1.61833,-0.21941c0.33829,0 0.72687,0.04111 1.16574,0.12343c0.44345,0.07772 0.8709,0.24001 1.28233,0.48686c0.41602,0.24689 0.76119,0.61946 1.03548,1.11775c0.27429,0.49833 0.41143,1.16578 0.41143,2.00236v6.93965h-1.61833v-1.42635h-0.08227c-0.10975,0.22859 -0.29259,0.47318 -0.54861,0.73375c-0.25598,0.26057 -0.59657,0.48232 -1.02172,0.66516c-0.42519,0.18289 -0.94403,0.27429 -1.55665,0.27429zM153.91612,172.50265c0.64002,0 1.17946,-0.12572 1.61833,-0.37716c0.44345,-0.25144 0.77716,-0.57601 1.00116,-0.97376c0.22859,-0.39771 0.34288,-0.81602 0.34288,-1.25489v-1.48118c-0.06855,0.08231 -0.21941,0.15774 -0.45259,0.22629c-0.22859,0.06401 -0.49374,0.12113 -0.79547,0.17142c-0.29714,0.04574 -0.58744,0.0869 -0.87086,0.12347c-0.27887,0.03198 -0.50517,0.05942 -0.67888,0.08227c-0.4206,0.05487 -0.81377,0.14402 -1.1795,0.26745c-0.36114,0.11884 -0.65374,0.29943 -0.87774,0.54174c-0.21941,0.23772 -0.32916,0.56229 -0.32916,0.97372c0,0.56233 0.20803,0.98748 0.62405,1.27549c0.42056,0.28342 0.95317,0.42515 1.59777,0.42515zM166.03139,163.17664v1.37148h-5.45839v-1.37148zM162.16369,160.65314h1.61845v10.03916c0,0.45717 0.06638,0.80001 0.19874,1.0286c0.13718,0.224 0.31098,0.37486 0.52138,0.45259c0.21483,0.07314 0.44092,0.10971 0.67868,0.10971c0.17822,0 0.32466,-0.00913 0.43891,-0.0274c0.11425,-0.02289 0.20598,-0.04116 0.27437,-0.05487l0.32908,1.45375c-0.10983,0.04116 -0.2627,0.08231 -0.45943,0.12347c-0.19632,0.0457 -0.44575,0.06855 -0.74747,0.06855c-0.45701,0 -0.90517,-0.09828 -1.34408,-0.29484c-0.43408,-0.1966 -0.79534,-0.49603 -1.08339,-0.89833c-0.28322,-0.4023 -0.42523,-0.90976 -0.42523,-1.52234zM173.89673,177.6594v-14.48276h1.56333v1.6732h0.1923c0.11868,-0.18289 0.28322,-0.41602 0.49362,-0.69948c0.21483,-0.28801 0.52098,-0.54399 0.91885,-0.76803c0.4023,-0.22855 0.94621,-0.34284 1.63213,-0.34284c0.88667,0 1.66874,0.22171 2.345,0.66516c0.67667,0.44345 1.20488,1.07205 1.58425,1.88578c0.37937,0.81373 0.56925,1.77378 0.56925,2.8801c0,1.11545 -0.18989,2.08234 -0.56925,2.90065c-0.37937,0.81373 -0.90517,1.44461 -1.57741,1.89261c-0.67184,0.44345 -1.44667,0.6652 -2.32448,0.6652c-0.67667,0 -1.21816,-0.11204 -1.62529,-0.33604c-0.40672,-0.22859 -0.71971,-0.48686 -0.93937,-0.77487c-0.21925,-0.29259 -0.38862,-0.5349 -0.5073,-0.72687h-0.13718v5.56818zM175.48782,168.44309c0,0.79547 0.11626,1.4972 0.3496,2.10519c0.23293,0.60345 0.57368,1.07663 1.02184,1.41951c0.44776,0.33829 0.99649,0.50742 1.6458,0.50742c0.67626,0 1.24109,-0.1783 1.69368,-0.53486c0.45701,-0.36118 0.79977,-0.84575 1.02868,-1.45379c0.23293,-0.61258 0.3496,-1.29375 0.3496,-2.04348c0,-0.74059 -0.11425,-1.40805 -0.34276,-2.00236c-0.22408,-0.59886 -0.56483,-1.07205 -1.02184,-1.41947c-0.45259,-0.35201 -1.02184,-0.52802 -1.70736,-0.52802c-0.65856,0 -1.21172,0.16687 -1.65948,0.50058c-0.44816,0.32916 -0.78649,0.79088 -1.015,1.3852c-0.22851,0.58973 -0.34276,1.27774 -0.34276,2.06407zM188.76368,173.9564c-0.66741,0 -1.27328,-0.12572 -1.81718,-0.37716c-0.54431,-0.25598 -0.97638,-0.62401 -1.29621,-1.10403c-0.31983,-0.48457 -0.47994,-1.06975 -0.47994,-1.75547c0,-0.60345 0.11868,-1.0926 0.35644,-1.46747c0.23776,-0.37945 0.55557,-0.67663 0.95305,-0.89149c0.39787,-0.21483 0.83678,-0.37486 1.31672,-0.47998c0.48477,-0.10975 0.97155,-0.1966 1.46075,-0.26061c0.64006,-0.08227 1.15902,-0.14398 1.55649,-0.18514c0.4023,-0.0457 0.69477,-0.12113 0.87782,-0.22629c0.18747,-0.10516 0.28121,-0.28801 0.28121,-0.54857v-0.05487c0,-0.67659 -0.18506,-1.20231 -0.55557,-1.57717c-0.36569,-0.3749 -0.92126,-0.56233 -1.66632,-0.56233c-0.77241,0 -1.37828,0.16917 -1.81718,0.50746c-0.43891,0.33829 -0.74747,0.69944 -0.92569,1.08347l-1.53598,-0.54861c0.27437,-0.64002 0.64006,-1.1383 1.09707,-1.4949c0.46184,-0.36114 0.96471,-0.61258 1.50862,-0.75431c0.54874,-0.14628 1.08822,-0.21941 1.61845,-0.21941c0.33833,0 0.72695,0.04111 1.16586,0.12343c0.44333,0.07772 0.87057,0.24001 1.28213,0.48686c0.41598,0.24689 0.76115,0.61946 1.03552,1.11775c0.27437,0.49833 0.41155,1.16578 0.41155,2.00236v6.93965h-1.61845v-1.42635h-0.08247c-0.10943,0.22859 -0.29247,0.47318 -0.54833,0.73375c-0.25626,0.26057 -0.59661,0.48232 -1.02184,0.66516c-0.42523,0.18289 -0.9442,0.27429 -1.55649,0.27429zM189.01029,172.50265c0.64006,0 1.17954,-0.12572 1.61845,-0.37716c0.44333,-0.25144 0.77724,-0.57601 1.00132,-0.97376c0.22851,-0.39771 0.34276,-0.81602 0.34276,-1.25489v-1.48118c-0.06879,0.08231 -0.21966,0.15774 -0.45259,0.22629c-0.22851,0.06401 -0.49362,0.12113 -0.79534,0.17142c-0.2973,0.04574 -0.58776,0.0869 -0.87098,0.12347c-0.27879,0.03198 -0.50529,0.05942 -0.67908,0.08227c-0.4204,0.05487 -0.81345,0.14402 -1.17914,0.26745c-0.36126,0.11884 -0.65374,0.29943 -0.87782,0.54174c-0.21966,0.23772 -0.32908,0.56229 -0.32908,0.97372c0,0.56233 0.20799,0.98748 0.62397,1.27549c0.4204,0.28342 0.95305,0.42515 1.59753,0.42515zM196.54495,173.70955v-10.53291h1.56333v1.59089h0.10983c0.1919,-0.52114 0.53948,-0.94403 1.04236,-1.26861c0.50287,-0.32457 1.06971,-0.48686 1.70052,-0.48686c0.11908,0 0.26753,0.00229 0.44575,0.00684c0.17822,0.00459 0.31339,0.01143 0.40471,0.0206v1.64576c-0.05511,-0.01372 -0.18063,-0.03428 -0.37736,-0.06171c-0.1919,-0.03202 -0.39546,-0.04799 -0.61029,-0.04799c-0.51172,0 -0.96914,0.10741 -1.37144,0.32228c-0.39747,0.21028 -0.71328,0.50287 -0.94621,0.87774c-0.22851,0.37032 -0.34276,0.79317 -0.34276,1.26861v6.66537zM208.97035,163.17664v1.37148h-5.45839v-1.37148zM205.10305,160.65314h1.61805v10.03916c0,0.45717 0.06638,0.80001 0.19914,1.0286c0.13718,0.224 0.31057,0.37486 0.52098,0.45259c0.21483,0.07314 0.44132,0.10971 0.67908,0.10971c0.17822,0 0.32425,-0.00913 0.43891,-0.0274c0.11425,-0.02289 0.20557,-0.04116 0.27397,-0.05487l0.32948,1.45375c-0.10983,0.04116 -0.2631,0.08231 -0.45943,0.12347c-0.19672,0.0457 -0.44575,0.06855 -0.74747,0.06855c-0.45741,0 -0.90517,-0.09828 -1.34408,-0.29484c-0.43448,-0.1966 -0.79575,-0.49603 -1.08379,-0.89833c-0.28322,-0.4023 -0.42483,-0.90976 -0.42483,-1.52234zM221.11494,173.929c-0.95103,0 -1.7854,-0.22629 -2.5031,-0.67888c-0.71328,-0.45259 -1.27086,-1.08576 -1.67316,-1.89949c-0.39787,-0.81377 -0.59661,-1.76464 -0.59661,-2.85266c0,-1.09719 0.19874,-2.05494 0.59661,-2.87326c0.4023,-0.81832 0.95988,-1.45375 1.67316,-1.90633c0.7177,-0.45259 1.55207,-0.67888 2.5031,-0.67888c0.95063,0 1.78299,0.22629 2.49586,0.67888c0.7177,0.45259 1.27569,1.08802 1.67316,1.90633c0.4023,0.81832 0.60345,1.77607 0.60345,2.87326c0,1.08802 -0.20115,2.03889 -0.60345,2.85266c-0.39747,0.81373 -0.95546,1.44691 -1.67316,1.89949c-0.71287,0.45259 -1.54523,0.67888 -2.49586,0.67888zM221.11494,172.47521c0.72213,0 1.31672,-0.18514 1.78299,-0.55545c0.46626,-0.37028 0.81144,-0.85714 1.03511,-1.46059c0.22408,-0.60345 0.33632,-1.25718 0.33632,-1.96121c0,-0.70402 -0.11224,-1.36005 -0.33632,-1.96809c-0.22368,-0.60803 -0.56885,-1.09944 -1.03511,-1.47434c-0.46626,-0.37486 -1.06086,-0.56229 -1.78299,-0.56229c-0.72253,0 -1.31672,0.18743 -1.78299,0.56229c-0.46626,0.3749 -0.81144,0.86631 -1.03552,1.47434c-0.22408,0.60803 -0.33592,1.26406 -0.33592,1.96809c0,0.70402 0.11184,1.35776 0.33592,1.96121c0.22408,0.60345 0.56925,1.09031 1.03552,1.46059c0.46626,0.37032 1.06046,0.55545 1.78299,0.55545zM233.04833,163.17664v1.37148h-5.67764v-1.37148zM229.07121,173.70955v-11.98669c0,-0.60345 0.14161,-1.10632 0.42523,-1.50862c0.28322,-0.4023 0.65132,-0.70402 1.10391,-0.90517c0.45259,-0.20113 0.93011,-0.30171 1.43299,-0.30171c0.39787,0 0.72253,0.032 0.97397,0.096c0.25144,0.064 0.43891,0.12343 0.56241,0.17831l-0.46626,1.39887c-0.08247,-0.0274 -0.19672,-0.06171 -0.34316,-0.10283c-0.14161,-0.04116 -0.32908,-0.06175 -0.56201,-0.06175c-0.53506,0 -0.92126,0.13489 -1.15902,0.40459c-0.23333,0.26974 -0.3496,0.66516 -0.3496,1.18634v11.60266zM248.20816,165.53556l-1.45351,0.41143c-0.09172,-0.24226 -0.22649,-0.47773 -0.40471,-0.70628c-0.17379,-0.23317 -0.41155,-0.42519 -0.71328,-0.57605c-0.30172,-0.15086 -0.68793,-0.22629 -1.15862,-0.22629c-0.64488,0 -1.18195,0.14861 -1.61161,0.44575c-0.42523,0.29259 -0.63764,0.66516 -0.63764,1.11775c0,0.4023 0.14603,0.72003 0.43891,0.95317c0.29247,0.23317 0.74948,0.42744 1.37144,0.58289l1.56333,0.38399c0.94178,0.22859 1.64339,0.5783 2.10523,1.0492c0.46184,0.4663 0.69276,1.06746 0.69276,1.80347c0,0.60345 -0.17379,1.14293 -0.52138,1.61837c-0.34276,0.47544 -0.8227,0.8503 -1.43983,1.12459c-0.61713,0.27429 -1.33523,0.41147 -2.15351,0.41147c-1.07414,0 -1.96322,-0.23317 -2.66724,-0.69948c-0.70402,-0.4663 -1.14977,-1.14748 -1.33724,-2.04348l1.53598,-0.38403c0.14644,0.56688 0.42282,0.99203 0.82994,1.27549c0.41115,0.28342 0.94822,0.42515 1.61121,0.42515c0.75431,0 1.35333,-0.15999 1.79667,-0.48002c0.44816,-0.32457 0.67224,-0.71316 0.67224,-1.16574c0,-0.36573 -0.12833,-0.67204 -0.3842,-0.91889c-0.25586,-0.25144 -0.64931,-0.43887 -1.17954,-0.56229l-1.75523,-0.41147c-0.96471,-0.22855 -1.67356,-0.58285 -2.12615,-1.06287c-0.44776,-0.48457 -0.67184,-1.09031 -0.67184,-1.81718c0,-0.59432 0.16695,-1.12004 0.50046,-1.57721c0.33833,-0.45717 0.79776,-0.81602 1.37828,-1.07659c0.58534,-0.26061 1.24833,-0.39087 1.98897,-0.39087c1.04236,0 1.86063,0.22859 2.45483,0.68572c0.59902,0.45717 1.02385,1.06062 1.27529,1.81034zM250.83637,177.6594v-14.48276h1.56333v1.6732h0.1923c0.11868,-0.18289 0.28322,-0.41602 0.49362,-0.69948c0.21483,-0.28801 0.52098,-0.54399 0.91885,-0.76803c0.4023,-0.22855 0.94621,-0.34284 1.63213,-0.34284c0.88667,0 1.66874,0.22171 2.345,0.66516c0.67667,0.44345 1.20488,1.07205 1.58425,1.88578c0.37937,0.81373 0.56925,1.77378 0.56925,2.8801c0,1.11545 -0.18989,2.08234 -0.56925,2.90065c-0.37937,0.81373 -0.90517,1.44461 -1.57741,1.89261c-0.67184,0.44345 -1.44667,0.6652 -2.32448,0.6652c-0.67667,0 -1.21816,-0.11204 -1.62529,-0.33604c-0.40672,-0.22859 -0.71971,-0.48686 -0.93937,-0.77487c-0.21925,-0.29259 -0.38862,-0.5349 -0.5073,-0.72687h-0.13718v5.56818zM252.42747,168.44309c0,0.79547 0.11626,1.4972 0.3496,2.10519c0.23293,0.60345 0.57368,1.07663 1.02184,1.41951c0.44776,0.33829 0.99649,0.50742 1.6458,0.50742c0.67626,0 1.24109,-0.1783 1.69368,-0.53486c0.45701,-0.36118 0.79977,-0.84575 1.02868,-1.45379c0.23293,-0.61258 0.3496,-1.29375 0.3496,-2.04348c0,-0.74059 -0.11425,-1.40805 -0.34276,-2.00236c-0.22408,-0.59886 -0.56483,-1.07205 -1.02184,-1.41947c-0.45259,-0.35201 -1.02184,-0.52802 -1.70736,-0.52802c-0.65856,0 -1.21172,0.16687 -1.65948,0.50058c-0.44816,0.32916 -0.78649,0.79088 -1.015,1.3852c-0.22851,0.58973 -0.34276,1.27774 -0.34276,2.06407zM267.01965,173.929c-1.0146,0 -1.8904,-0.22404 -2.62621,-0.67204c-0.73138,-0.45259 -1.29621,-1.08347 -1.69368,-1.89261c-0.39345,-0.81377 -0.58977,-1.76006 -0.58977,-2.83898c0,-1.07888 0.19632,-2.02976 0.58977,-2.85266c0.39747,-0.82745 0.95063,-1.47205 1.65948,-1.93377c0.71287,-0.4663 1.54523,-0.69944 2.49586,-0.69944c0.54874,0 1.09023,0.0914 1.62529,0.27429c0.53506,0.18284 1.02184,0.48002 1.46075,0.89145c0.43891,0.40688 0.78851,0.94633 1.0492,1.61833c0.26029,0.67204 0.39063,1.49949 0.39063,2.48238v0.68572h-8.11919v-1.39887h6.47339c0,-0.59432 -0.11868,-1.12463 -0.35644,-1.59093c-0.23333,-0.4663 -0.56684,-0.83433 -1.00132,-1.10403c-0.42966,-0.26974 -0.93695,-0.40459 -1.5223,-0.40459c-0.64448,0 -1.20207,0.15999 -1.67316,0.48002c-0.46626,0.31544 -0.82511,0.72687 -1.07655,1.23433c-0.25144,0.50742 -0.37695,1.05145 -0.37695,1.63205v0.93261c0,0.79543 0.13678,1.46976 0.41115,2.02292c0.27879,0.54857 0.6654,0.96688 1.15902,1.25489c0.49362,0.28342 1.0673,0.42515 1.72103,0.42515c0.42523,0 0.80943,-0.05942 1.15218,-0.1783c0.34759,-0.12343 0.6469,-0.30627 0.89833,-0.54857c0.25144,-0.24685 0.44575,-0.55316 0.58293,-0.91889l1.56333,0.43887c-0.16454,0.53031 -0.44092,0.99661 -0.82954,1.39891c-0.38862,0.39771 -0.86856,0.70861 -1.44023,0.93261c-0.57126,0.21941 -1.21374,0.32916 -1.92701,0.32916zM278.25907,173.929c-1.015,0 -1.8904,-0.22404 -2.62661,-0.67204c-0.73138,-0.45259 -1.2958,-1.08347 -1.69368,-1.89261c-0.39305,-0.81377 -0.58977,-1.76006 -0.58977,-2.83898c0,-1.07888 0.19672,-2.02976 0.58977,-2.85266c0.39787,-0.82745 0.95103,-1.47205 1.65948,-1.93377c0.71328,-0.4663 1.54523,-0.69944 2.49626,-0.69944c0.54833,0 1.09023,0.0914 1.62529,0.27429c0.53466,0.18284 1.02144,0.48002 1.46034,0.89145c0.43891,0.40688 0.78851,0.94633 1.0492,1.61833c0.26069,0.67204 0.39103,1.49949 0.39103,2.48238v0.68572h-8.11919v-1.39887h6.47339c0,-0.59432 -0.11908,-1.12463 -0.35684,-1.59093c-0.23293,-0.4663 -0.56684,-0.83433 -1.00092,-1.10403c-0.42966,-0.26974 -0.93736,-0.40459 -1.5223,-0.40459c-0.64488,0 -1.20247,0.15999 -1.67316,0.48002c-0.46626,0.31544 -0.82511,0.72687 -1.07655,1.23433c-0.25144,0.50742 -0.37736,1.05145 -0.37736,1.63205v0.93261c0,0.79543 0.13718,1.46976 0.41155,2.02292c0.27879,0.54857 0.665,0.96688 1.15862,1.25489c0.49402,0.28342 1.0677,0.42515 1.72144,0.42515c0.42523,0 0.80902,-0.05942 1.15178,-0.1783c0.34759,-0.12343 0.6469,-0.30627 0.89833,-0.54857c0.25144,-0.24685 0.44575,-0.55316 0.58293,-0.91889l1.56374,0.43887c-0.16454,0.53031 -0.44132,0.99661 -0.82994,1.39891c-0.38862,0.39771 -0.86856,0.70861 -1.43983,0.93261c-0.57167,0.21941 -1.21374,0.32916 -1.92701,0.32916zM289.36091,173.929c-0.98724,0 -1.8377,-0.23317 -2.55057,-0.69948c-0.71328,-0.4663 -1.26201,-1.10861 -1.6458,-1.92693c-0.3842,-0.81828 -0.57609,-1.75318 -0.57609,-2.80463c0,-1.06975 0.19632,-2.01379 0.58977,-2.8321c0.39747,-0.8229 0.95063,-1.46521 1.65948,-1.92693c0.71287,-0.4663 1.54523,-0.69944 2.49586,-0.69944c0.74063,0 1.40805,0.13714 2.00264,0.41143c0.5942,0.27429 1.08098,0.65832 1.46034,1.15202c0.37937,0.49374 0.61511,1.06975 0.70644,1.72807h-1.61845c-0.12351,-0.48002 -0.39747,-0.90517 -0.8227,-1.27549c-0.4208,-0.37486 -0.98764,-0.56229 -1.70092,-0.56229c-0.6308,0 -1.18397,0.16458 -1.65948,0.49374c-0.47069,0.32457 -0.83879,0.784 -1.10391,1.37832c-0.26069,0.58973 -0.39063,1.28233 -0.39063,2.07779c0,0.81373 0.12793,1.52234 0.38379,2.12579c0.26069,0.60345 0.62638,1.07205 1.09707,1.40575c0.47552,0.33371 1.03351,0.50058 1.67316,0.50058c0.4208,0 0.80259,-0.07314 1.14534,-0.21941c0.34276,-0.14632 0.63322,-0.3566 0.87098,-0.63088c0.23776,-0.27429 0.40672,-0.60345 0.5073,-0.98748h1.61845c-0.09132,0.62175 -0.31782,1.18175 -0.67908,1.68008c-0.35644,0.4937 -0.82954,0.88687 -1.41931,1.17946c-0.58534,0.28801 -1.26644,0.43203 -2.04368,0.43203zM297.48694,167.37334v6.33621h-1.61805v-14.04389h1.61805v5.15675h0.13718c0.24701,-0.54403 0.61713,-0.97602 1.11115,-1.29605c0.49805,-0.32457 1.16103,-0.48686 1.98856,-0.48686c0.7177,0 1.34609,0.14398 1.88557,0.43199c0.53948,0.28346 0.95787,0.72003 1.25517,1.30976c0.30172,0.58518 0.45259,1.33032 0.45259,2.23549v6.6928h-1.61845v-6.58306c0,-0.83662 -0.21724,-1.48348 -0.65132,-1.94065c-0.43006,-0.46172 -1.02667,-0.6926 -1.78983,-0.6926c-0.53063,0 -1.00575,0.112 -1.42655,0.336c-0.41598,0.22404 -0.74506,0.55091 -0.98724,0.9806c-0.23776,0.42974 -0.35684,0.95091 -0.35684,1.56349zM312.70872,173.70955v-10.53291h1.61845v10.53291zM313.53142,161.42113c-0.3154,0 -0.58736,-0.10741 -0.81586,-0.32228c-0.22408,-0.21487 -0.33592,-0.47314 -0.33592,-0.77487c0,-0.30172 0.11184,-0.56004 0.33592,-0.77491c0.22851,-0.21487 0.50046,-0.32228 0.81586,-0.32228c0.3154,0 0.58534,0.10741 0.80943,0.32228c0.22851,0.21487 0.34276,0.47318 0.34276,0.77491c0,0.30172 -0.11425,0.56 -0.34276,0.77487c-0.22408,0.21487 -0.49402,0.32228 -0.80943,0.32228zM324.75194,165.53556l-1.45391,0.41143c-0.09132,-0.24226 -0.22609,-0.47773 -0.40431,-0.70628c-0.17379,-0.23317 -0.41155,-0.42519 -0.71328,-0.57605c-0.30172,-0.15086 -0.68793,-0.22629 -1.15902,-0.22629c-0.64448,0 -1.18155,0.14861 -1.61121,0.44575c-0.42523,0.29259 -0.63805,0.66516 -0.63805,1.11775c0,0.4023 0.14644,0.72003 0.43891,0.95317c0.29287,0.23317 0.74988,0.42744 1.37144,0.58289l1.56374,0.38399c0.94178,0.22859 1.64339,0.5783 2.10523,1.0492c0.46144,0.4663 0.69236,1.06746 0.69236,1.80347c0,0.60345 -0.17379,1.14293 -0.52098,1.61837c-0.34276,0.47544 -0.8231,0.8503 -1.44023,1.12459c-0.61713,0.27429 -1.33483,0.41147 -2.1531,0.41147c-1.07414,0 -1.96362,-0.23317 -2.66764,-0.69948c-0.70402,-0.4663 -1.14977,-1.14748 -1.33724,-2.04348l1.53638,-0.38403c0.14603,0.56688 0.42282,0.99203 0.82954,1.27549c0.41155,0.28342 0.94862,0.42515 1.61161,0.42515c0.75431,0 1.35293,-0.15999 1.79667,-0.48002c0.44776,-0.32457 0.67184,-0.71316 0.67184,-1.16574c0,-0.36573 -0.12793,-0.67204 -0.38379,-0.91889c-0.25626,-0.25144 -0.64931,-0.43887 -1.17954,-0.56229l-1.75563,-0.41147c-0.96471,-0.22855 -1.67316,-0.58285 -2.12575,-1.06287c-0.44816,-0.48457 -0.67184,-1.09031 -0.67184,-1.81718c0,-0.59432 0.16655,-1.12004 0.50046,-1.57721c0.33833,-0.45717 0.79776,-0.81602 1.37828,-1.07659c0.58534,-0.26061 1.24793,-0.39087 1.98856,-0.39087c1.04236,0 1.86063,0.22859 2.45523,0.68572c0.59862,0.45717 1.02385,1.06062 1.27529,1.81034zM337.39176,163.17664v1.37148h-5.45839v-1.37148zM333.52406,160.65314h1.61845v10.03916c0,0.45717 0.06638,0.80001 0.19874,1.0286c0.13718,0.224 0.31098,0.37486 0.52138,0.45259c0.21483,0.07314 0.44132,0.10971 0.67868,0.10971c0.17862,0 0.32466,-0.00913 0.43891,-0.0274c0.11425,-0.02289 0.20598,-0.04116 0.27437,-0.05487l0.32908,1.45375c-0.10943,0.04116 -0.2627,0.08231 -0.45943,0.12347c-0.19632,0.0457 -0.44575,0.06855 -0.74747,0.06855c-0.45701,0 -0.90517,-0.09828 -1.34408,-0.29484c-0.43408,-0.1966 -0.79534,-0.49603 -1.08339,-0.89833c-0.28322,-0.4023 -0.42523,-0.90976 -0.42523,-1.52234zM341.67061,167.37334v6.33621h-1.61805v-14.04389h1.61805v5.15675h0.13718c0.24701,-0.54403 0.61713,-0.97602 1.11115,-1.29605c0.49805,-0.32457 1.16103,-0.48686 1.98856,-0.48686c0.7177,0 1.34609,0.14398 1.88557,0.43199c0.53948,0.28346 0.95787,0.72003 1.25517,1.30976c0.30172,0.58518 0.45259,1.33032 0.45259,2.23549v6.6928h-1.61845v-6.58306c0,-0.83662 -0.21724,-1.48348 -0.65132,-1.94065c-0.43006,-0.46172 -1.02626,-0.6926 -1.78983,-0.6926c-0.53023,0 -1.00575,0.112 -1.42655,0.336c-0.41598,0.22404 -0.74506,0.55091 -0.98724,0.9806c-0.23776,0.42974 -0.35684,0.95091 -0.35684,1.56349zM355.87739,173.929c-1.0146,0 -1.8904,-0.22404 -2.62621,-0.67204c-0.73138,-0.45259 -1.29621,-1.08347 -1.69368,-1.89261c-0.39345,-0.81377 -0.58977,-1.76006 -0.58977,-2.83898c0,-1.07888 0.19632,-2.02976 0.58977,-2.85266c0.39747,-0.82745 0.95063,-1.47205 1.65948,-1.93377c0.71287,-0.4663 1.54523,-0.69944 2.49586,-0.69944c0.54874,0 1.09023,0.0914 1.62529,0.27429c0.53506,0.18284 1.02184,0.48002 1.46075,0.89145c0.43891,0.40688 0.78851,0.94633 1.0492,1.61833c0.26029,0.67204 0.39063,1.49949 0.39063,2.48238v0.68572h-8.11919v-1.39887h6.47339c0,-0.59432 -0.11868,-1.12463 -0.35644,-1.59093c-0.23333,-0.4663 -0.56684,-0.83433 -1.00132,-1.10403c-0.42966,-0.26974 -0.93695,-0.40459 -1.5223,-0.40459c-0.64448,0 -1.20207,0.15999 -1.67316,0.48002c-0.46626,0.31544 -0.82511,0.72687 -1.07655,1.23433c-0.25144,0.50742 -0.37695,1.05145 -0.37695,1.63205v0.93261c0,0.79543 0.13678,1.46976 0.41115,2.02292c0.27879,0.54857 0.6654,0.96688 1.15902,1.25489c0.49362,0.28342 1.0673,0.42515 1.72103,0.42515c0.42523,0 0.80943,-0.05942 1.15218,-0.1783c0.34759,-0.12343 0.6469,-0.30627 0.89833,-0.54857c0.25144,-0.24685 0.44575,-0.55316 0.58293,-0.91889l1.56333,0.43887c-0.16454,0.53031 -0.44092,0.99661 -0.82954,1.39891c-0.38862,0.39771 -0.86856,0.70861 -1.44023,0.93261c-0.57126,0.21941 -1.21374,0.32916 -1.92701,0.32916zM123.2174,197.04288l-3.20925,-10.53291h1.70063l2.27663,8.06424h0.10975l2.24921,-8.06424h1.72803l2.22178,8.03684h0.10975l2.27665,-8.03684h1.7006l-3.20922,10.53291h-1.59093l-2.30409,-8.09168h-0.16454l-2.30409,8.09168zM140.44141,197.26213c-0.95091,0 -1.7852,-0.22609 -2.50294,-0.67868c-0.7132,-0.45259 -1.2709,-1.0858 -1.6732,-1.89949c-0.39775,-0.81377 -0.59661,-1.76464 -0.59661,-2.85266c0,-1.09719 0.19886,-2.05494 0.59661,-2.87326c0.4023,-0.81832 0.96001,-1.45375 1.6732,-1.90633c0.71774,-0.45259 1.55203,-0.67888 2.50294,-0.67888c0.95087,0 1.78291,0.22629 2.49606,0.67888c0.71774,0.45259 1.27549,1.08802 1.6732,1.90633c0.4023,0.81832 0.60345,1.77607 0.60345,2.87326c0,1.08802 -0.20115,2.03889 -0.60345,2.85266c-0.39771,0.81369 -0.95546,1.44691 -1.6732,1.89949c-0.71316,0.45259 -1.54519,0.67868 -2.49606,0.67868zM140.44141,195.80862c0.72229,0 1.3166,-0.18506 1.78291,-0.55553c0.4663,-0.37028 0.81144,-0.85714 1.03544,-1.46059c0.22404,-0.60345 0.33604,-1.25718 0.33604,-1.96121c0,-0.70402 -0.112,-1.36005 -0.33604,-1.96809c-0.224,-0.60803 -0.56913,-1.09944 -1.03544,-1.47434c-0.4663,-0.37486 -1.06062,-0.56229 -1.78291,-0.56229c-0.72233,0 -1.31664,0.18743 -1.78295,0.56229c-0.4663,0.3749 -0.81144,0.86631 -1.03544,1.47434c-0.224,0.60803 -0.33604,1.26406 -0.33604,1.96809c0,0.70402 0.11204,1.35776 0.33604,1.96121c0.224,0.60345 0.56913,1.09031 1.03544,1.46059c0.4663,0.37048 1.06062,0.55553 1.78295,0.55553zM147.68447,197.04288v-10.53291h1.56349v1.59089h0.10971c0.19202,-0.52114 0.53944,-0.94403 1.04232,-1.26861c0.50287,-0.32457 1.06975,-0.48686 1.70064,-0.48686c0.11884,0 0.26745,0.00229 0.44571,0.00684c0.1783,0.00459 0.31319,0.01143 0.40459,0.0206v1.64576c-0.05483,-0.01372 -0.18055,-0.03428 -0.37716,-0.06171c-0.19198,-0.03202 -0.39542,-0.04799 -0.61029,-0.04799c-0.51201,0 -0.96918,0.10741 -1.37148,0.32228c-0.39771,0.21028 -0.71316,0.50287 -0.94633,0.87774c-0.22859,0.37032 -0.34288,0.79317 -0.34288,1.26861v6.66537zM158.52598,197.26213c-0.87774,0 -1.65264,-0.22167 -2.32464,-0.665c-0.67204,-0.44816 -1.19776,-1.07897 -1.57721,-1.89261c-0.37945,-0.81832 -0.56917,-1.7852 -0.56917,-2.90065c0,-1.10632 0.18972,-2.06637 0.56917,-2.8801c0.37945,-0.81373 0.90747,-1.44232 1.58405,-1.88578c0.67659,-0.44345 1.45833,-0.66516 2.34524,-0.66516c0.68572,0 1.22745,0.11429 1.62533,0.34284c0.4023,0.22404 0.70845,0.48002 0.91885,0.76803c0.21483,0.28346 0.38178,0.51659 0.50046,0.69948h0.13718v-5.18418h1.61845v14.04389h-1.56374v-1.61833h-0.1919c-0.11868,0.19218 -0.28805,0.43436 -0.5073,0.72683c-0.21966,0.28805 -0.53264,0.54632 -0.93977,0.77483c-0.40672,0.22408 -0.94842,0.33592 -1.62501,0.33592zM158.7454,195.80862c0.64919,0 1.1976,-0.16937 1.64576,-0.5075c0.44816,-0.34288 0.78851,-0.81606 1.02184,-1.41951c0.23293,-0.60799 0.3496,-1.30972 0.3496,-2.10519c0,-0.78633 -0.11425,-1.47434 -0.34276,-2.06407c-0.22851,-0.59432 -0.56684,-1.05603 -1.015,-1.3852c-0.44776,-0.33371 -1.00112,-0.50058 -1.65944,-0.50058c-0.68572,0 -1.25718,0.17601 -1.71432,0.52802c-0.45259,0.34743 -0.79317,0.82061 -1.02176,1.41947c-0.224,0.59432 -0.336,1.26177 -0.336,2.00236c0,0.74972 0.11429,1.4309 0.34284,2.04348c0.23317,0.60803 0.57605,1.0926 1.02864,1.45379c0.45713,0.35672 1.02401,0.53494 1.7006,0.53494zM173.37214,182.99899v4.82759h-1.50862v-4.82759zM176.883,182.99899v4.82759h-1.50862v-4.82759zM186.94811,200.99265v-5.5681h-0.13718c-0.11908,0.19218 -0.28805,0.43436 -0.5073,0.72683c-0.21966,0.28805 -0.53264,0.54632 -0.93977,0.77483c-0.40672,0.22408 -0.94862,0.33592 -1.62488,0.33592c-0.87782,0 -1.65264,-0.22167 -2.32488,-0.665c-0.67184,-0.44816 -1.19764,-1.07897 -1.57701,-1.89261c-0.37937,-0.81832 -0.56925,-1.7852 -0.56925,-2.90065c0,-1.10632 0.18989,-2.06637 0.56925,-2.8801c0.37937,-0.81373 0.90718,-1.44232 1.58385,-1.88578c0.67667,-0.44345 1.45833,-0.66516 2.3454,-0.66516c0.68552,0 1.22741,0.11429 1.62529,0.34284c0.4023,0.22404 0.70845,0.48002 0.91885,0.76803c0.21483,0.28346 0.38138,0.51659 0.50046,0.69948h0.1919v-1.6732h1.56374v14.48268zM183.95823,195.80862c0.64931,0 1.19764,-0.16937 1.6458,-0.5075c0.44816,-0.34288 0.78851,-0.81606 1.02184,-1.41951c0.23293,-0.60799 0.3496,-1.30972 0.3496,-2.10519c0,-0.78633 -0.11425,-1.47434 -0.34276,-2.06407c-0.22851,-0.59432 -0.56684,-1.05603 -1.015,-1.3852c-0.44816,-0.33371 -1.00132,-0.50058 -1.65948,-0.50058c-0.68592,0 -1.25718,0.17601 -1.7142,0.52802c-0.45259,0.34743 -0.79333,0.82061 -1.02184,1.41947c-0.22408,0.59432 -0.33592,1.26177 -0.33592,2.00236c0,0.74972 0.11425,1.4309 0.34276,2.04348c0.23293,0.60803 0.57609,1.0926 1.02868,1.45379c0.45701,0.35672 1.02385,0.53494 1.70052,0.53494zM198.16661,192.73647v-6.2265h1.61845v10.53291h-1.61845v-1.78291h-0.10983c-0.24661,0.53498 -0.6308,0.98957 -1.15178,1.36452c-0.52138,0.37052 -1.17954,0.55557 -1.97488,0.55557c-0.65856,0 -1.24351,-0.14402 -1.75563,-0.43207c-0.51213,-0.29247 -0.91443,-0.73138 -1.2069,-1.3166c-0.29247,-0.58973 -0.43891,-1.33261 -0.43891,-2.22865v-6.69276h1.61845v6.58306c0,0.76803 0.21483,1.38061 0.64448,1.83778c0.43448,0.45717 0.98764,0.68592 1.65948,0.68592c0.4023,0 0.81144,-0.10299 1.22741,-0.30876c0.4208,-0.20574 0.77282,-0.52118 1.05603,-0.94633c0.28805,-0.42515 0.43207,-0.96688 0.43207,-1.62517zM202.7492,197.04288v-10.53291h1.61845v10.53291zM203.5719,184.75446c-0.3154,0 -0.58736,-0.10741 -0.81586,-0.32228c-0.22408,-0.21487 -0.33592,-0.47314 -0.33592,-0.77487c0,-0.30172 0.11184,-0.56004 0.33592,-0.77491c0.22851,-0.21487 0.50046,-0.32228 0.81586,-0.32228c0.3154,0 0.58534,0.10741 0.80943,0.32228c0.22851,0.21487 0.34276,0.47318 0.34276,0.77491c0,0.30172 -0.11425,0.56 -0.34276,0.77487c-0.22408,0.21487 -0.49402,0.32228 -0.80943,0.32228zM211.61063,197.26213c-0.98764,0 -1.8377,-0.23293 -2.55098,-0.6992c-0.71328,-0.46626 -1.26161,-1.10874 -1.6458,-1.92701c-0.3842,-0.81828 -0.57609,-1.75318 -0.57609,-2.80463c0,-1.06975 0.19672,-2.01379 0.58977,-2.8321c0.39787,-0.8229 0.95103,-1.46521 1.65948,-1.92693c0.71328,-0.4663 1.54523,-0.69944 2.49626,-0.69944c0.74063,0 1.40805,0.13714 2.00224,0.41143c0.5942,0.27429 1.08098,0.65832 1.46075,1.15202c0.37937,0.49374 0.61471,1.06975 0.70603,1.72807h-1.61805c-0.12351,-0.48002 -0.39787,-0.90517 -0.8231,-1.27549c-0.4204,-0.37486 -0.98724,-0.56229 -1.70052,-0.56229c-0.6308,0 -1.18397,0.16458 -1.65948,0.49374c-0.47109,0.32457 -0.83879,0.784 -1.10431,1.37832c-0.26029,0.58973 -0.39063,1.28233 -0.39063,2.07779c0,0.81373 0.12793,1.52234 0.38379,2.12579c0.26069,0.60345 0.62638,1.07205 1.09747,1.40575c0.47552,0.33371 1.0331,0.50066 1.67316,0.50066c0.4204,0 0.80218,-0.07322 1.14494,-0.21966c0.34316,-0.14603 0.63322,-0.35644 0.87098,-0.63072c0.23776,-0.27429 0.40713,-0.60345 0.5077,-0.98748h1.61805c-0.09132,0.62175 -0.31782,1.18175 -0.67868,1.68016c-0.35684,0.49362 -0.82994,0.88667 -1.41971,1.17954c-0.58494,0.28805 -1.26603,0.43167 -2.04328,0.43167zM219.62684,193.20273l-0.02736,-2.00232h0.32908l4.60793,-4.69044h2.00264l-4.91006,4.96473h-0.13718zM218.11822,197.04288v-14.04389h1.61845v14.04389zM224.81086,197.04288l-4.11431,-5.21158l1.15218,-1.12463l5.01948,6.33621zM230.24029,182.99899v14.04389h-1.61845v-14.04389zM234.24678,200.99265c-0.27437,0 -0.51897,-0.02293 -0.73379,-0.06839c-0.21483,-0.04144 -0.36328,-0.08247 -0.44575,-0.12351l0.41155,-1.42655c0.39305,0.10057 0.74063,0.13718 1.04236,0.10983c0.30172,-0.02736 0.56885,-0.16213 0.80218,-0.40471c0.23776,-0.23736 0.455,-0.62397 0.65132,-1.15862l0.30172,-0.8231l-3.89506,-10.58762h1.75563l2.90741,8.3934h0.10983l2.90741,-8.3934h1.75563l-4.47115,12.06888c-0.20115,0.54391 -0.45017,0.99448 -0.74747,1.35092c-0.2969,0.36126 -0.64207,0.62879 -1.03511,0.80218c-0.38862,0.17379 -0.82753,0.26069 -1.31672,0.26069zM245.35224,182.99899v4.82759h-1.50862v-4.82759zM248.8631,182.99899v4.82759h-1.50862v-4.82759zM253.85362,193.09303v-0.08227c0.00925,-0.87319 0.10057,-1.56808 0.27437,-2.08463c0.17379,-0.51659 0.4204,-0.9349 0.74063,-1.25493c0.31983,-0.31999 0.70402,-0.61487 1.15178,-0.88457c0.26994,-0.16458 0.51213,-0.35889 0.72695,-0.58289c0.21483,-0.22859 0.3842,-0.49145 0.5077,-0.78859c0.12793,-0.29718 0.1919,-0.6263 0.1919,-0.98748c0,-0.448 -0.105,-0.83658 -0.3154,-1.16574c-0.2104,-0.32916 -0.49161,-0.58289 -0.84362,-0.76115c-0.35201,-0.1783 -0.74264,-0.26745 -1.1727,-0.26745c-0.37454,0 -0.7358,0.07772 -1.08339,0.23313c-0.34718,0.15545 -0.63764,0.40005 -0.87098,0.73375c-0.23293,0.33371 -0.3677,0.77032 -0.40431,1.30976h-1.72828c0.03661,-0.77716 0.23776,-1.44232 0.60345,-1.99548c0.37052,-0.55316 0.8573,-0.97606 1.46075,-1.26865c0.60787,-0.29255 1.28253,-0.43887 2.02276,-0.43887c0.8046,0 1.5042,0.16003 2.09839,0.48002c0.59902,0.32003 1.06086,0.7589 1.38552,1.3166c0.32908,0.55775 0.49362,1.19322 0.49362,1.90637c0,0.50287 -0.07764,0.95775 -0.23333,1.3646c-0.15086,0.40688 -0.37011,0.77032 -0.65816,1.09035c-0.28362,0.31999 -0.62638,0.60345 -1.02868,0.8503c-0.4023,0.25144 -0.72454,0.51659 -0.96672,0.79547c-0.24259,0.27429 -0.41839,0.60116 -0.52822,0.9806c-0.10983,0.37941 -0.16897,0.85259 -0.17822,1.41947v0.08227zM254.73143,197.1527c-0.33833,0 -0.62879,-0.12109 -0.87098,-0.36368c-0.24218,-0.24218 -0.36328,-0.53264 -0.36328,-0.87057c0,-0.33833 0.12109,-0.62879 0.36328,-0.87106c0.24218,-0.2423 0.53264,-0.36344 0.87098,-0.36344c0.33833,0 0.62839,0.12113 0.87098,0.36344c0.24218,0.24226 0.36328,0.53272 0.36328,0.87106c0,0.22368 -0.05713,0.42966 -0.17138,0.61713c-0.10983,0.18747 -0.25828,0.33833 -0.44575,0.45259c-0.18305,0.10943 -0.38862,0.16454 -0.61713,0.16454z"/></g></g></svg>