<svg version="1.1" xmlns="http://www.w3.org/2000/svg" xmlns:xlink="http://www.w3.org/1999/xlink" width="139" height="164" viewBox="0,0,139,164"><g transform="translate(-170.5,-98)"><g data-paper-data="{&quot;isPaintingLayer&quot;:true}" fill-rule="nonzero" stroke="none" stroke-width="1" stroke-linecap="butt" stroke-linejoin="miter" stroke-miterlimit="10" stroke-dasharray="" stroke-dashoffset="0" style="mix-blend-mode: normal"><path d="M170.5,118c0,-11.04569 8.9543,-20 20,-20h99c11.046,0 20,8.95431 20,20v124c0,11.046 -8.954,20 -20,20h-99c-11.0457,0 -20,-8.954 -20,-20z" fill="#43d059"/><path d="M206.7102,233.3474v14.545h-1.6761v-14.545zM214.354,248.1194c-1.0511,0 -1.9578,-0.232 -2.7201,-0.696c-0.7576,-0.469 -1.3424,-1.122 -1.7543,-1.96c-0.4072,-0.843 -0.6108,-1.823 -0.6108,-2.94c0,-1.118 0.2036,-2.103 0.6108,-2.955c0.4119,-0.857 0.9849,-1.524 1.7188,-2.003c0.7386,-0.483 1.6003,-0.724 2.5852,-0.724c0.5682,0 1.1293,0.095 1.6832,0.284c0.554,0.189 1.0583,0.497 1.5128,0.923c0.4546,0.422 0.8168,0.98 1.0867,1.676c0.2699,0.696 0.4048,1.553 0.4048,2.571v0.711h-8.4091v-1.449h6.7045c0,-0.616 -0.1231,-1.165 -0.3693,-1.648c-0.2414,-0.483 -0.5871,-0.864 -1.0369,-1.143c-0.4451,-0.28 -0.9706,-0.419 -1.5767,-0.419c-0.6676,0 -1.2453,0.165 -1.733,0.497c-0.4829,0.326 -0.8546,0.753 -1.115,1.278c-0.2604,0.526 -0.3906,1.089 -0.3906,1.69v0.966c0,0.824 0.142,1.523 0.4261,2.096c0.2888,0.568 0.6889,1.001 1.2003,1.299c0.5113,0.294 1.1056,0.441 1.7826,0.441c0.4404,0 0.8381,-0.062 1.1932,-0.185c0.3599,-0.128 0.67,-0.317 0.9304,-0.568c0.2604,-0.256 0.4617,-0.573 0.6037,-0.952l1.6193,0.455c-0.1704,0.549 -0.4569,1.032 -0.8593,1.448c-0.4025,0.412 -0.8997,0.734 -1.4915,0.966c-0.5919,0.228 -1.2571,0.341 -1.9958,0.341zM226.1651,236.9834v1.42h-5.6534v-1.42zM222.1594,234.3694h1.6762v10.398c0,0.473 0.0686,0.829 0.2059,1.065c0.1421,0.232 0.322,0.389 0.5398,0.469c0.2226,0.076 0.4569,0.114 0.7031,0.114c0.1847,0 0.3362,-0.01 0.4546,-0.029c0.1184,-0.023 0.2131,-0.042 0.2841,-0.056l0.3409,1.505c-0.1136,0.043 -0.2723,0.085 -0.4759,0.128c-0.2036,0.047 -0.4616,0.071 -0.7741,0.071c-0.4735,0 -0.9375,-0.102 -1.3921,-0.305c-0.4498,-0.204 -0.8238,-0.514 -1.1221,-0.931c-0.2936,-0.416 -0.4404,-0.942 -0.4404,-1.576zM233.4308,236.9834v1.42h-5.6535v-1.42zM229.4251,234.3694h1.6761v10.398c0,0.473 0.0687,0.829 0.206,1.065c0.142,0.232 0.3219,0.389 0.5397,0.469c0.2226,0.076 0.457,0.114 0.7032,0.114c0.1846,0 0.3361,-0.01 0.4545,-0.029c0.1184,-0.023 0.2131,-0.042 0.2841,-0.056l0.3409,1.505c-0.1136,0.043 -0.2722,0.085 -0.4758,0.128c-0.2036,0.047 -0.4617,0.071 -0.7742,0.071c-0.4735,0 -0.9375,-0.102 -1.392,-0.305c-0.4498,-0.204 -0.8239,-0.514 -1.1222,-0.931c-0.2935,-0.416 -0.4403,-0.942 -0.4403,-1.576zM240.4087,248.1194c-1.0511,0 -1.9578,-0.232 -2.7201,-0.696c-0.7576,-0.469 -1.3424,-1.122 -1.7543,-1.96c-0.4072,-0.843 -0.6108,-1.823 -0.6108,-2.94c0,-1.118 0.2036,-2.103 0.6108,-2.955c0.4119,-0.857 0.9849,-1.524 1.7188,-2.003c0.7386,-0.483 1.6003,-0.724 2.5852,-0.724c0.5682,0 1.1292,0.095 1.6832,0.284c0.554,0.189 1.0583,0.497 1.5128,0.923c0.4545,0.422 0.8168,0.98 1.0867,1.676c0.2698,0.696 0.4048,1.553 0.4048,2.571v0.711h-8.4091v-1.449h6.7045c0,-0.616 -0.1231,-1.165 -0.3693,-1.648c-0.2415,-0.483 -0.5871,-0.864 -1.0369,-1.143c-0.4451,-0.28 -0.9707,-0.419 -1.5767,-0.419c-0.6676,0 -1.2453,0.165 -1.733,0.497c-0.4829,0.326 -0.8546,0.753 -1.115,1.278c-0.2604,0.526 -0.3907,1.089 -0.3907,1.69v0.966c0,0.824 0.1421,1.523 0.4262,2.096c0.2888,0.568 0.6889,1.001 1.2003,1.299c0.5113,0.294 1.1056,0.441 1.7826,0.441c0.4404,0 0.8381,-0.062 1.1932,-0.185c0.3599,-0.128 0.67,-0.317 0.9304,-0.568c0.2604,-0.256 0.4617,-0.573 0.6037,-0.952l1.6193,0.455c-0.1704,0.549 -0.4569,1.032 -0.8593,1.448c-0.4025,0.412 -0.8997,0.734 -1.4915,0.966c-0.5919,0.228 -1.2571,0.341 -1.9958,0.341zM247.4755,247.8924v-10.909h1.6193v1.648h0.1137c0.1988,-0.54 0.5587,-0.978 1.0795,-1.314c0.5208,-0.336 1.108,-0.505 1.7614,-0.505c0.1231,0 0.2769,0.003 0.4616,0.008c0.1847,0.004 0.3243,0.011 0.419,0.021v1.704c-0.0568,-0.014 -0.187,-0.035 -0.3906,-0.064c-0.1988,-0.033 -0.4095,-0.049 -0.6321,-0.049c-0.5303,0 -1.0038,0.111 -1.4204,0.334c-0.412,0.217 -0.7387,0.52 -0.9802,0.909c-0.2367,0.383 -0.3551,0.821 -0.3551,1.314v6.903zM261.3658,247.8924h-1.8466l5.3409,-14.545h1.8179l5.341,14.545h-1.846l-4.347,-12.244h-0.1136zM262.0476,242.2104h7.4434v1.563h-7.4434z" fill="#000000"/><path d="M218.4655,159.6364c-0.1279,-1.0796 -0.6463,-1.9176 -1.5554,-2.5142c-0.9091,-0.5966 -2.0242,-0.8949 -3.3452,-0.8949c-0.9659,0 -1.8111,0.1562 -2.5355,0.4687c-0.7173,0.3125 -1.2784,0.7422 -1.6833,1.2891c-0.3977,0.5469 -0.5965,1.1683 -0.5965,1.8643c0,0.5824 0.1385,1.0831 0.4154,1.5022c0.2841,0.4119 0.6463,0.7564 1.0867,1.0333c0.4403,0.2699 0.902,0.4937 1.3849,0.6712c0.483,0.1705 0.9269,0.309 1.3317,0.4155l2.2159,0.5966c0.5682,0.1491 1.2003,0.3551 1.8963,0.6179c0.7031,0.2628 1.3743,0.6214 2.0135,1.076c0.6463,0.4474 1.179,1.0227 1.598,1.7258c0.4191,0.7032 0.6286,1.5661 0.6286,2.5888c0,1.179 -0.309,2.2443 -0.9269,3.196c-0.6108,0.9517 -1.5056,1.7081 -2.6846,2.2692c-1.1719,0.5611 -2.5959,0.8416 -4.272,0.8416c-1.5625,0 -2.9155,-0.2521 -4.059,-0.7564c-1.1364,-0.5042 -2.0312,-1.2074 -2.6847,-2.1093c-0.6463,-0.902 -1.012,-1.9496 -1.0973,-3.1428h2.7273c0.071,0.8239 0.348,1.5057 0.831,2.0455c0.49,0.5326 1.1079,0.9304 1.8537,1.1931c0.7528,0.2557 1.5625,0.3836 2.429,0.3836c1.0085,0 1.914,-0.1634 2.7166,-0.4901c0.8025,-0.3338 1.4382,-0.7955 1.9069,-1.3849c0.4688,-0.5966 0.7032,-1.2927 0.7032,-2.0881c0,-0.7244 -0.2025,-1.3139 -0.6073,-1.7685c-0.4048,-0.4545 -0.9375,-0.8238 -1.598,-1.1079c-0.6605,-0.2841 -1.3743,-0.5327 -2.1413,-0.7458l-2.6847,-0.767c-1.7045,-0.4901 -3.054,-1.1896 -4.0483,-2.0987c-0.9943,-0.9091 -1.4915,-2.0988 -1.4915,-3.5689c0,-1.2216 0.3303,-2.287 0.9908,-3.1961c0.6676,-0.9161 1.5625,-1.6264 2.6847,-2.1306c1.1292,-0.5114 2.3899,-0.7671 3.7819,-0.7671c1.4063,0 2.6563,0.2522 3.75,0.7564c1.0938,0.4972 1.9603,1.179 2.5995,2.0455c0.6463,0.8664 0.9872,1.8501 1.0227,2.951zM231.9713,176.3409c-1.4772,0 -2.7734,-0.3516 -3.8885,-1.0547c-1.1079,-0.7031 -1.9744,-1.6868 -2.5994,-2.951c-0.6179,-1.2642 -0.9268,-2.7415 -0.9268,-4.4318c0,-1.7045 0.3089,-3.1925 0.9268,-4.4638c0.625,-1.2713 1.4915,-2.2585 2.5994,-2.9616c1.1151,-0.7031 2.4113,-1.0547 3.8885,-1.0547c1.4773,0 2.7699,0.3516 3.8779,1.0547c1.115,0.7031 1.9815,1.6903 2.5994,2.9616c0.625,1.2713 0.9375,2.7593 0.9375,4.4638c0,1.6903 -0.3125,3.1676 -0.9375,4.4318c-0.6179,1.2642 -1.4844,2.2479 -2.5994,2.951c-1.108,0.7031 -2.4006,1.0547 -3.8779,1.0547zM231.9713,174.0824c1.1222,0 2.0455,-0.2877 2.7699,-0.8629c0.7244,-0.5753 1.2607,-1.3317 1.6087,-2.2692c0.348,-0.9375 0.522,-1.9531 0.522,-3.0469c0,-1.0937 -0.174,-2.1129 -0.522,-3.0575c-0.348,-0.9446 -0.8843,-1.7081 -1.6087,-2.2905c-0.7244,-0.5824 -1.6477,-0.8736 -2.7699,-0.8736c-1.1221,0 -2.0454,0.2912 -2.7699,0.8736c-0.7244,0.5824 -1.2606,1.3459 -1.6086,2.2905c-0.348,0.9446 -0.522,1.9638 -0.522,3.0575c0,1.0938 0.174,2.1094 0.522,3.0469c0.348,0.9375 0.8842,1.6939 1.6086,2.2692c0.7245,0.5752 1.6478,0.8629 2.7699,0.8629zM245.7382,154.1818v21.8182h-2.5142v-21.8182zM255.1585,176.3835c-1.037,0 -1.978,-0.1953 -2.8232,-0.5859c-0.8452,-0.3977 -1.5163,-0.9695 -2.0135,-1.7152c-0.4971,-0.7529 -0.7457,-1.6619 -0.7457,-2.7273c0,-0.9375 0.1846,-1.6974 0.554,-2.2798c0.3693,-0.5895 0.8629,-1.0512 1.4808,-1.385c0.6179,-0.3338 1.2997,-0.5823 2.0454,-0.7457c0.7529,-0.1705 1.5093,-0.3054 2.2692,-0.4048c0.9943,-0.1279 1.8004,-0.2237 2.4183,-0.2877c0.625,-0.071 1.0796,-0.1882 1.3637,-0.3515c0.2912,-0.1634 0.4368,-0.4475 0.4368,-0.8523v-0.0852c0,-1.0512 -0.2877,-1.8679 -0.863,-2.4503c-0.5681,-0.5824 -1.4311,-0.8736 -2.5887,-0.8736c-1.2003,0 -2.1414,0.2628 -2.8232,0.7884c-0.6818,0.5255 -1.1612,1.0866 -1.4382,1.6832l-2.3864,-0.8523c0.4262,-0.9943 0.9944,-1.7684 1.7046,-2.3224c0.7173,-0.5611 1.4986,-0.9517 2.3437,-1.1719c0.8523,-0.2273 1.6904,-0.3409 2.5142,-0.3409c0.5256,0 1.1293,0.0639 1.8111,0.1918c0.6889,0.1207 1.353,0.3728 1.9922,0.7563c0.6463,0.3836 1.1825,0.9624 1.6087,1.7366c0.4261,0.7741 0.6392,1.811 0.6392,3.1108v10.7812h-2.5142v-2.2159h-0.1279c-0.1704,0.3551 -0.4545,0.7351 -0.8522,1.1399c-0.3978,0.4048 -0.9269,0.7493 -1.5874,1.0334c-0.6605,0.2841 -1.4666,0.4261 -2.4183,0.4261zM255.542,174.125c0.9943,0 1.8324,-0.1953 2.5142,-0.5859c0.6889,-0.3907 1.2074,-0.8949 1.5554,-1.5128c0.3551,-0.6179 0.5327,-1.2678 0.5327,-1.9496v-2.3011c-0.1066,0.1278 -0.3409,0.245 -0.7032,0.3515c-0.3551,0.0995 -0.767,0.1882 -1.2358,0.2664c-0.4616,0.071 -0.9126,0.1349 -1.3529,0.1917c-0.4333,0.0497 -0.7848,0.0924 -1.0547,0.1279c-0.6534,0.0852 -1.2642,0.2237 -1.8324,0.4155c-0.5611,0.1846 -1.0156,0.4651 -1.3636,0.8416c-0.341,0.3693 -0.5114,0.8735 -0.5114,1.5128c0,0.8735 0.3231,1.534 0.9694,1.9815c0.6535,0.4403 1.4809,0.6605 2.4823,0.6605zM267.247,176v-16.3636h2.429v2.4716h0.171c0.298,-0.8097 0.838,-1.4667 1.619,-1.9709c0.781,-0.5043 1.662,-0.7564 2.642,-0.7564c0.185,0 0.416,0.0035 0.693,0.0106c0.277,0.0071 0.486,0.0178 0.628,0.032v2.5568c-0.085,-0.0213 -0.28,-0.0533 -0.586,-0.0959c-0.298,-0.0497 -0.614,-0.0745 -0.948,-0.0745c-0.795,0 -1.506,0.1669 -2.131,0.5007c-0.617,0.3267 -1.107,0.7812 -1.47,1.3636c-0.355,0.5753 -0.532,1.2322 -0.532,1.9709v10.3551z" fill="#000000"/></g></g></svg>