<svg xmlns="http://www.w3.org/2000/svg" fill="none" viewBox="0 0 139 164" height="164" width="139">
<path fill="#43D059" d="M0 20C0 8.95431 8.95431 0 20 0H119C130.046 0 139 8.95431 139 20V144C139 155.046 130.046 164 119 164H20C8.95431 164 0 155.046 0 144V20Z"></path>
<path fill="black" d="M36.2102 135.455V150H34.5341V135.455H36.2102ZM43.854 150.227C42.8029 150.227 41.8962 149.995 41.1339 149.531C40.3763 149.062 39.7915 148.409 39.3796 147.571C38.9724 146.728 38.7688 145.748 38.7688 144.631C38.7688 143.513 38.9724 142.528 39.3796 141.676C39.7915 140.819 40.3645 140.152 41.0984 139.673C41.837 139.19 42.6987 138.949 43.6836 138.949C44.2518 138.949 44.8129 139.044 45.3668 139.233C45.9208 139.422 46.4251 139.73 46.8796 140.156C47.3342 140.578 47.6964 141.136 47.9663 141.832C48.2362 142.528 48.3711 143.385 48.3711 144.403V145.114H39.962V143.665H46.6665C46.6665 143.049 46.5434 142.5 46.2972 142.017C46.0558 141.534 45.7101 141.153 45.2603 140.874C44.8152 140.594 44.2897 140.455 43.6836 140.455C43.016 140.455 42.4383 140.62 41.9506 140.952C41.4677 141.278 41.096 141.705 40.8356 142.23C40.5752 142.756 40.445 143.319 40.445 143.92V144.886C40.445 145.71 40.587 146.409 40.8711 146.982C41.1599 147.55 41.56 147.983 42.0714 148.281C42.5827 148.575 43.177 148.722 43.854 148.722C44.2944 148.722 44.6921 148.66 45.0472 148.537C45.4071 148.409 45.7172 148.22 45.9776 147.969C46.238 147.713 46.4393 147.396 46.5813 147.017L48.2006 147.472C48.0302 148.021 47.7437 148.504 47.3413 148.92C46.9388 149.332 46.4416 149.654 45.8498 149.886C45.2579 150.114 44.5927 150.227 43.854 150.227ZM55.6651 139.091V140.511H50.0117V139.091H55.6651ZM51.6594 136.477H53.3356V146.875C53.3356 147.348 53.4042 147.704 53.5415 147.94C53.6836 148.172 53.8635 148.329 54.0813 148.409C54.3039 148.485 54.5382 148.523 54.7844 148.523C54.9691 148.523 55.1206 148.513 55.239 148.494C55.3574 148.471 55.4521 148.452 55.5231 148.438L55.864 149.943C55.7504 149.986 55.5917 150.028 55.3881 150.071C55.1845 150.118 54.9265 150.142 54.614 150.142C54.1405 150.142 53.6765 150.04 53.2219 149.837C52.7721 149.633 52.3981 149.323 52.0998 148.906C51.8062 148.49 51.6594 147.964 51.6594 147.33V136.477ZM62.9308 139.091V140.511H57.2773V139.091H62.9308ZM58.9251 136.477H60.6012V146.875C60.6012 147.348 60.6699 147.704 60.8072 147.94C60.9492 148.172 61.1291 148.329 61.3469 148.409C61.5695 148.485 61.8039 148.523 62.0501 148.523C62.2347 148.523 62.3862 148.513 62.5046 148.494C62.623 148.471 62.7177 148.452 62.7887 148.438L63.1296 149.943C63.016 149.986 62.8574 150.028 62.6538 150.071C62.4502 150.118 62.1921 150.142 61.8796 150.142C61.4061 150.142 60.9421 150.04 60.4876 149.837C60.0378 149.633 59.6637 149.323 59.3654 148.906C59.0719 148.49 58.9251 147.964 58.9251 147.33V136.477ZM69.9087 150.227C68.8576 150.227 67.9509 149.995 67.1886 149.531C66.431 149.062 65.8462 148.409 65.4343 147.571C65.0271 146.728 64.8235 145.748 64.8235 144.631C64.8235 143.513 65.0271 142.528 65.4343 141.676C65.8462 140.819 66.4192 140.152 67.1531 139.673C67.8917 139.19 68.7534 138.949 69.7383 138.949C70.3065 138.949 70.8675 139.044 71.4215 139.233C71.9755 139.422 72.4798 139.73 72.9343 140.156C73.3888 140.578 73.7511 141.136 74.021 141.832C74.2908 142.528 74.4258 143.385 74.4258 144.403V145.114H66.0167V143.665H72.7212C72.7212 143.049 72.5981 142.5 72.3519 142.017C72.1104 141.534 71.7648 141.153 71.315 140.874C70.8699 140.594 70.3443 140.455 69.7383 140.455C69.0707 140.455 68.493 140.62 68.0053 140.952C67.5224 141.278 67.1507 141.705 66.8903 142.23C66.6299 142.756 66.4996 143.319 66.4996 143.92V144.886C66.4996 145.71 66.6417 146.409 66.9258 146.982C67.2146 147.55 67.6147 147.983 68.1261 148.281C68.6374 148.575 69.2317 148.722 69.9087 148.722C70.3491 148.722 70.7468 148.66 71.1019 148.537C71.4618 148.409 71.7719 148.22 72.0323 147.969C72.2927 147.713 72.494 147.396 72.636 147.017L74.2553 147.472C74.0849 148.021 73.7984 148.504 73.396 148.92C72.9935 149.332 72.4963 149.654 71.9045 149.886C71.3126 150.114 70.6474 150.227 69.9087 150.227ZM76.9755 150V139.091H78.5948V140.739H78.7085C78.9073 140.199 79.2672 139.761 79.788 139.425C80.3088 139.089 80.896 138.92 81.5494 138.92C81.6725 138.92 81.8263 138.923 82.011 138.928C82.1957 138.932 82.3353 138.939 82.43 138.949V140.653C82.3732 140.639 82.243 140.618 82.0394 140.589C81.8406 140.556 81.6299 140.54 81.4073 140.54C80.877 140.54 80.4035 140.651 79.9869 140.874C79.5749 141.091 79.2482 141.394 79.0067 141.783C78.77 142.166 78.6516 142.604 78.6516 143.097V150H76.9755ZM94.7578 150H90.2692V135.455H94.9567C96.3677 135.455 97.575 135.746 98.5788 136.328C99.5826 136.906 100.352 137.737 100.887 138.821C101.422 139.901 101.69 141.193 101.69 142.699C101.69 144.214 101.42 145.518 100.88 146.612C100.34 147.701 99.5542 148.539 98.522 149.126C97.4898 149.709 96.2351 150 94.7578 150ZM92.0305 148.438H94.6442C95.8468 148.438 96.8435 148.205 97.6342 147.741C98.425 147.277 99.0144 146.617 99.4027 145.76C99.791 144.903 99.9851 143.883 99.9851 142.699C99.9851 141.525 99.7933 140.514 99.4098 139.666C99.0263 138.814 98.4534 138.161 97.6911 137.706C96.9287 137.247 95.9794 137.017 94.843 137.017H92.0305V148.438Z"></path>
<path fill="black" d="M15.8075 39.9091C15.7053 39.0455 15.2905 38.375 14.5632 37.8977C13.8359 37.4205 12.9439 37.1818 11.8871 37.1818C11.1143 37.1818 10.4382 37.3068 9.85866 37.5568C9.2848 37.8068 8.83594 38.1506 8.51207 38.5881C8.19389 39.0256 8.0348 39.5227 8.0348 40.0795C8.0348 40.5455 8.1456 40.946 8.36719 41.2812C8.59446 41.6108 8.88423 41.8864 9.23651 42.108C9.58878 42.3239 9.9581 42.5028 10.3445 42.6449C10.7308 42.7812 11.0859 42.892 11.4098 42.9773L13.1825 43.4545C13.6371 43.5739 14.1428 43.7386 14.6996 43.9489C15.2621 44.1591 15.799 44.446 16.3104 44.8097C16.8274 45.1676 17.2536 45.6278 17.5888 46.1903C17.924 46.7528 18.0916 47.4432 18.0916 48.2614C18.0916 49.2045 17.8445 50.0568 17.3501 50.8182C16.8615 51.5795 16.1456 52.1847 15.2024 52.6335C14.2649 53.0824 13.1257 53.3068 11.7848 53.3068C10.5348 53.3068 9.45241 53.1051 8.53764 52.7017C7.62855 52.2983 6.91264 51.7358 6.38991 51.0142C5.87287 50.2926 5.58026 49.4545 5.51207 48.5H7.69389C7.75071 49.1591 7.9723 49.7045 8.35866 50.1364C8.75071 50.5625 9.24503 50.8807 9.84162 51.0909C10.4439 51.2955 11.0916 51.3977 11.7848 51.3977C12.5916 51.3977 13.3161 51.267 13.9581 51.0057C14.6001 50.7386 15.1087 50.3693 15.4837 49.8977C15.8587 49.4205 16.0462 48.8636 16.0462 48.2273C16.0462 47.6477 15.8842 47.1761 15.5604 46.8125C15.2365 46.4489 14.8104 46.1534 14.282 45.9261C13.7536 45.6989 13.1825 45.5 12.5689 45.3295L10.4212 44.7159C9.05753 44.3239 7.97798 43.7642 7.18253 43.0369C6.38707 42.3097 5.98935 41.358 5.98935 40.1818C5.98935 39.2045 6.25355 38.3523 6.78196 37.625C7.31605 36.892 8.03196 36.3239 8.92969 35.9205C9.8331 35.5114 10.8416 35.3068 11.9553 35.3068C13.0803 35.3068 14.0803 35.5085 14.9553 35.9119C15.8303 36.3097 16.5234 36.8551 17.0348 37.5483C17.5518 38.2415 17.8246 39.0284 17.853 39.9091H15.8075ZM29.544 47.6477V39.9091H31.5554V53H29.544V50.7841H29.4077C29.1009 51.4489 28.6236 52.0142 27.9759 52.4801C27.3281 52.9403 26.5099 53.1705 25.5213 53.1705C24.7031 53.1705 23.9759 52.9915 23.3395 52.6335C22.7031 52.2699 22.2031 51.7244 21.8395 50.9972C21.4759 50.2642 21.294 49.3409 21.294 48.2273V39.9091H23.3054V48.0909C23.3054 49.0455 23.5724 49.8068 24.1065 50.375C24.6463 50.9432 25.3338 51.2273 26.169 51.2273C26.669 51.2273 27.1776 51.0994 27.6946 50.8438C28.2173 50.5881 28.6548 50.196 29.0071 49.6676C29.3651 49.1392 29.544 48.4659 29.544 47.6477ZM35.5121 53V35.5455H37.5234V41.9886H37.6939C37.8416 41.7614 38.0462 41.4716 38.3075 41.1193C38.5746 40.7614 38.9553 40.4432 39.4496 40.1648C39.9496 39.8807 40.6257 39.7386 41.478 39.7386C42.5803 39.7386 43.5518 40.0142 44.3928 40.5653C45.2337 41.1165 45.8899 41.8977 46.3615 42.9091C46.8331 43.9205 47.0689 45.1136 47.0689 46.4886C47.0689 47.875 46.8331 49.0767 46.3615 50.0938C45.8899 51.1051 45.2365 51.8892 44.4013 52.446C43.5661 52.9972 42.603 53.2727 41.5121 53.2727C40.6712 53.2727 39.9979 53.1335 39.4922 52.8551C38.9865 52.571 38.5973 52.25 38.3246 51.892C38.0518 51.5284 37.8416 51.2273 37.6939 50.9886H37.4553V53H35.5121ZM37.4893 46.4545C37.4893 47.4432 37.6342 48.3153 37.924 49.071C38.2138 49.821 38.6371 50.4091 39.1939 50.8352C39.7507 51.2557 40.4325 51.4659 41.2393 51.4659C42.0803 51.4659 42.782 51.2443 43.3445 50.8011C43.9126 50.3523 44.3388 49.75 44.6229 48.9943C44.9126 48.233 45.0575 47.3864 45.0575 46.4545C45.0575 45.5341 44.9155 44.7045 44.6314 43.9659C44.353 43.2216 43.9297 42.6335 43.3615 42.2017C42.799 41.7642 42.0916 41.5455 41.2393 41.5455C40.4212 41.5455 39.7337 41.7528 39.1768 42.1676C38.62 42.5767 38.1996 43.1506 37.9155 43.8892C37.6314 44.6222 37.4893 45.4773 37.4893 46.4545ZM52.157 35.5455V53H50.1456V35.5455H52.157ZM55.8409 53V39.9091H57.8523V53H55.8409ZM56.8636 37.7273C56.4716 37.7273 56.1335 37.5938 55.8494 37.3267C55.571 37.0597 55.4318 36.7386 55.4318 36.3636C55.4318 35.9886 55.571 35.6676 55.8494 35.4006C56.1335 35.1335 56.4716 35 56.8636 35C57.2557 35 57.5909 35.1335 57.8693 35.4006C58.1534 35.6676 58.2955 35.9886 58.2955 36.3636C58.2955 36.7386 58.1534 37.0597 57.8693 37.3267C57.5909 37.5938 57.2557 37.7273 56.8636 37.7273ZM61.5362 53V39.9091H63.4794V41.9545H63.6499C63.9226 41.2557 64.3629 40.7131 64.9709 40.3267C65.5788 39.9347 66.3089 39.7386 67.1612 39.7386C68.0249 39.7386 68.7436 39.9347 69.3175 40.3267C69.897 40.7131 70.3487 41.2557 70.6726 41.9545H70.8089C71.1442 41.2784 71.647 40.7415 72.3175 40.3438C72.9879 39.9403 73.7919 39.7386 74.7294 39.7386C75.8999 39.7386 76.8572 40.1051 77.6016 40.8381C78.3459 41.5653 78.718 42.6989 78.718 44.2386V53H76.7067V44.2386C76.7067 43.2727 76.4425 42.5824 75.9141 42.1676C75.3857 41.7528 74.7635 41.5455 74.0476 41.5455C73.1271 41.5455 72.4141 41.8239 71.9084 42.3807C71.4027 42.9318 71.1499 43.6307 71.1499 44.4773V53H69.1044V44.0341C69.1044 43.2898 68.8629 42.6903 68.38 42.2358C67.897 41.7756 67.2749 41.5455 66.5135 41.5455C65.9908 41.5455 65.5021 41.6847 65.0476 41.9631C64.5987 42.2415 64.2351 42.6278 63.9567 43.1222C63.6839 43.6108 63.5476 44.1761 63.5476 44.8182V53H61.5362ZM86.2479 53.3068C85.4183 53.3068 84.6655 53.1506 83.9893 52.8381C83.3132 52.5199 82.7763 52.0625 82.3786 51.4659C81.9808 50.8636 81.782 50.1364 81.782 49.2841C81.782 48.5341 81.9297 47.9261 82.2251 47.4602C82.5206 46.9886 82.9155 46.6193 83.4098 46.3523C83.9041 46.0852 84.4496 45.8864 85.0462 45.7557C85.6484 45.6193 86.2536 45.5114 86.8615 45.4318C87.657 45.3295 88.3018 45.2528 88.7962 45.2017C89.2962 45.1449 89.6598 45.0511 89.8871 44.9205C90.12 44.7898 90.2365 44.5625 90.2365 44.2386V44.1705C90.2365 43.3295 90.0064 42.6761 89.5462 42.2102C89.0916 41.7443 88.4013 41.5114 87.4751 41.5114C86.5149 41.5114 85.7621 41.7216 85.2166 42.142C84.6712 42.5625 84.2876 43.0114 84.0661 43.4886L82.157 42.8068C82.4979 42.0114 82.9524 41.392 83.5206 40.9489C84.0945 40.5 84.7195 40.1875 85.3956 40.0114C86.0774 39.8295 86.7479 39.7386 87.407 39.7386C87.8274 39.7386 88.3104 39.7898 88.8558 39.892C89.407 39.9886 89.9382 40.1903 90.4496 40.4972C90.9666 40.804 91.3956 41.267 91.7365 41.8864C92.0774 42.5057 92.2479 43.3352 92.2479 44.375V53H90.2365V51.2273H90.1342C89.9979 51.5114 89.7706 51.8153 89.4524 52.1392C89.1342 52.4631 88.7109 52.7386 88.1825 52.9659C87.6541 53.1932 87.0092 53.3068 86.2479 53.3068ZM86.5547 51.5C87.3501 51.5 88.0206 51.3438 88.5661 51.0312C89.1172 50.7188 89.532 50.3153 89.8104 49.821C90.0945 49.3267 90.2365 48.8068 90.2365 48.2614V46.4205C90.1513 46.5227 89.9638 46.6165 89.674 46.7017C89.3899 46.7812 89.0604 46.8523 88.6854 46.9148C88.3161 46.9716 87.9553 47.0227 87.603 47.0682C87.2564 47.108 86.9751 47.142 86.7592 47.1705C86.2365 47.2386 85.7479 47.3494 85.2933 47.5028C84.8445 47.6506 84.4808 47.875 84.2024 48.1761C83.9297 48.4716 83.7933 48.875 83.7933 49.3864C83.7933 50.0852 84.0518 50.6136 84.5689 50.9716C85.0916 51.3239 85.7536 51.5 86.5547 51.5ZM101.612 39.9091V41.6136H94.8281V39.9091H101.612ZM96.8054 36.7727H98.8168V49.25C98.8168 49.8182 98.8991 50.2443 99.0639 50.5284C99.2344 50.8068 99.4503 50.9943 99.7116 51.0909C99.9787 51.1818 100.26 51.2273 100.555 51.2273C100.777 51.2273 100.959 51.2159 101.101 51.1932C101.243 51.1648 101.357 51.142 101.442 51.125L101.851 52.9318C101.714 52.983 101.524 53.0341 101.28 53.0852C101.036 53.142 100.726 53.1705 100.351 53.1705C99.7827 53.1705 99.2259 53.0483 98.6804 52.804C98.1406 52.5597 97.6918 52.1875 97.3338 51.6875C96.9815 51.1875 96.8054 50.5568 96.8054 49.7955V36.7727ZM104.638 53V39.9091H106.649V53H104.638ZM105.661 37.7273C105.268 37.7273 104.93 37.5938 104.646 37.3267C104.368 37.0597 104.229 36.7386 104.229 36.3636C104.229 35.9886 104.368 35.6676 104.646 35.4006C104.93 35.1335 105.268 35 105.661 35C106.053 35 106.388 35.1335 106.666 35.4006C106.95 35.6676 107.092 35.9886 107.092 36.3636C107.092 36.7386 106.95 37.0597 106.666 37.3267C106.388 37.5938 106.053 37.7273 105.661 37.7273ZM115.651 53.2727C114.469 53.2727 113.433 52.9915 112.54 52.429C111.654 51.8665 110.961 51.0795 110.461 50.0682C109.967 49.0568 109.719 47.875 109.719 46.5227C109.719 45.1591 109.967 43.9687 110.461 42.9517C110.961 41.9347 111.654 41.1449 112.54 40.5824C113.433 40.0199 114.469 39.7386 115.651 39.7386C116.833 39.7386 117.867 40.0199 118.754 40.5824C119.646 41.1449 120.339 41.9347 120.833 42.9517C121.333 43.9687 121.583 45.1591 121.583 46.5227C121.583 47.875 121.333 49.0568 120.833 50.0682C120.339 51.0795 119.646 51.8665 118.754 52.429C117.867 52.9915 116.833 53.2727 115.651 53.2727ZM115.651 51.4659C116.549 51.4659 117.288 51.2358 117.867 50.7756C118.447 50.3153 118.876 49.7102 119.154 48.9602C119.433 48.2102 119.572 47.3977 119.572 46.5227C119.572 45.6477 119.433 44.8324 119.154 44.0767C118.876 43.321 118.447 42.7102 117.867 42.2443C117.288 41.7784 116.549 41.5455 115.651 41.5455C114.754 41.5455 114.015 41.7784 113.435 42.2443C112.856 42.7102 112.427 43.321 112.148 44.0767C111.87 44.8324 111.731 45.6477 111.731 46.5227C111.731 47.3977 111.87 48.2102 112.148 48.9602C112.427 49.7102 112.856 50.3153 113.435 50.7756C114.015 51.2358 114.754 51.4659 115.651 51.4659ZM126.665 45.125V53H124.653V39.9091H126.597V41.9545H126.767C127.074 41.2898 127.54 40.7557 128.165 40.3523C128.79 39.9432 129.597 39.7386 130.585 39.7386C131.472 39.7386 132.247 39.9205 132.912 40.2841C133.577 40.642 134.094 41.1875 134.463 41.9205C134.832 42.6477 135.017 43.5682 135.017 44.6818V53H133.006V44.8182C133.006 43.7898 132.739 42.9886 132.205 42.4148C131.67 41.8352 130.938 41.5455 130.006 41.5455C129.364 41.5455 128.79 41.6847 128.284 41.9631C127.784 42.2415 127.389 42.6477 127.099 43.1818C126.81 43.7159 126.665 44.3636 126.665 45.125Z"></path>
</svg>
