<svg xmlns="http://www.w3.org/2000/svg" fill="none" viewBox="0 0 139 164" height="164" width="139">
<path fill="#EEC638" d="M0 20C0 8.95431 8.95431 0 20 0H119C130.046 0 139 8.95431 139 20V144C139 155.046 130.046 164 119 164H20C8.95431 164 0 155.046 0 144V20Z"></path>
<path fill="black" d="M36.2102 135.455V150H34.5341V135.455H36.2102ZM43.854 150.227C42.8029 150.227 41.8962 149.995 41.1339 149.531C40.3763 149.062 39.7915 148.409 39.3796 147.571C38.9724 146.728 38.7688 145.748 38.7688 144.631C38.7688 143.513 38.9724 142.528 39.3796 141.676C39.7915 140.819 40.3645 140.152 41.0984 139.673C41.837 139.19 42.6987 138.949 43.6836 138.949C44.2518 138.949 44.8129 139.044 45.3668 139.233C45.9208 139.422 46.4251 139.73 46.8796 140.156C47.3342 140.578 47.6964 141.136 47.9663 141.832C48.2362 142.528 48.3711 143.385 48.3711 144.403V145.114H39.962V143.665H46.6665C46.6665 143.049 46.5434 142.5 46.2972 142.017C46.0558 141.534 45.7101 141.153 45.2603 140.874C44.8152 140.594 44.2897 140.455 43.6836 140.455C43.016 140.455 42.4383 140.62 41.9506 140.952C41.4677 141.278 41.096 141.705 40.8356 142.23C40.5752 142.756 40.445 143.319 40.445 143.92V144.886C40.445 145.71 40.587 146.409 40.8711 146.982C41.1599 147.55 41.56 147.983 42.0714 148.281C42.5827 148.575 43.177 148.722 43.854 148.722C44.2944 148.722 44.6921 148.66 45.0472 148.537C45.4071 148.409 45.7172 148.22 45.9776 147.969C46.238 147.713 46.4393 147.396 46.5813 147.017L48.2006 147.472C48.0302 148.021 47.7437 148.504 47.3413 148.92C46.9388 149.332 46.4416 149.654 45.8498 149.886C45.2579 150.114 44.5927 150.227 43.854 150.227ZM55.6651 139.091V140.511H50.0117V139.091H55.6651ZM51.6594 136.477H53.3356V146.875C53.3356 147.348 53.4042 147.704 53.5415 147.94C53.6836 148.172 53.8635 148.329 54.0813 148.409C54.3039 148.485 54.5382 148.523 54.7844 148.523C54.9691 148.523 55.1206 148.513 55.239 148.494C55.3574 148.471 55.4521 148.452 55.5231 148.438L55.864 149.943C55.7504 149.986 55.5917 150.028 55.3881 150.071C55.1845 150.118 54.9265 150.142 54.614 150.142C54.1405 150.142 53.6765 150.04 53.2219 149.837C52.7721 149.633 52.3981 149.323 52.0998 148.906C51.8062 148.49 51.6594 147.964 51.6594 147.33V136.477ZM62.9308 139.091V140.511H57.2773V139.091H62.9308ZM58.9251 136.477H60.6012V146.875C60.6012 147.348 60.6699 147.704 60.8072 147.94C60.9492 148.172 61.1291 148.329 61.3469 148.409C61.5695 148.485 61.8039 148.523 62.0501 148.523C62.2347 148.523 62.3862 148.513 62.5046 148.494C62.623 148.471 62.7177 148.452 62.7887 148.438L63.1296 149.943C63.016 149.986 62.8574 150.028 62.6538 150.071C62.4502 150.118 62.1921 150.142 61.8796 150.142C61.4061 150.142 60.9421 150.04 60.4876 149.837C60.0378 149.633 59.6637 149.323 59.3654 148.906C59.0719 148.49 58.9251 147.964 58.9251 147.33V136.477ZM69.9087 150.227C68.8576 150.227 67.9509 149.995 67.1886 149.531C66.431 149.062 65.8462 148.409 65.4343 147.571C65.0271 146.728 64.8235 145.748 64.8235 144.631C64.8235 143.513 65.0271 142.528 65.4343 141.676C65.8462 140.819 66.4192 140.152 67.1531 139.673C67.8917 139.19 68.7534 138.949 69.7383 138.949C70.3065 138.949 70.8675 139.044 71.4215 139.233C71.9755 139.422 72.4798 139.73 72.9343 140.156C73.3888 140.578 73.7511 141.136 74.021 141.832C74.2908 142.528 74.4258 143.385 74.4258 144.403V145.114H66.0167V143.665H72.7212C72.7212 143.049 72.5981 142.5 72.3519 142.017C72.1104 141.534 71.7648 141.153 71.315 140.874C70.8699 140.594 70.3443 140.455 69.7383 140.455C69.0707 140.455 68.493 140.62 68.0053 140.952C67.5224 141.278 67.1507 141.705 66.8903 142.23C66.6299 142.756 66.4996 143.319 66.4996 143.92V144.886C66.4996 145.71 66.6417 146.409 66.9258 146.982C67.2146 147.55 67.6147 147.983 68.1261 148.281C68.6374 148.575 69.2317 148.722 69.9087 148.722C70.3491 148.722 70.7468 148.66 71.1019 148.537C71.4618 148.409 71.7719 148.22 72.0323 147.969C72.2927 147.713 72.494 147.396 72.636 147.017L74.2553 147.472C74.0849 148.021 73.7984 148.504 73.396 148.92C72.9935 149.332 72.4963 149.654 71.9045 149.886C71.3126 150.114 70.6474 150.227 69.9087 150.227ZM76.9755 150V139.091H78.5948V140.739H78.7085C78.9073 140.199 79.2672 139.761 79.788 139.425C80.3088 139.089 80.896 138.92 81.5494 138.92C81.6725 138.92 81.8263 138.923 82.011 138.928C82.1957 138.932 82.3353 138.939 82.43 138.949V140.653C82.3732 140.639 82.243 140.618 82.0394 140.589C81.8406 140.556 81.6299 140.54 81.4073 140.54C80.877 140.54 80.4035 140.651 79.9869 140.874C79.5749 141.091 79.2482 141.394 79.0067 141.783C78.77 142.166 78.6516 142.604 78.6516 143.097V150H76.9755ZM90.8658 150H89.0192L94.3601 135.455H96.1783L101.519 150H99.6726L95.326 137.756H95.2124L90.8658 150ZM91.5476 144.318H98.9908V145.881H91.5476V144.318Z"></path>
<path fill="black" d="M45.0571 75V53.1818H52.4292C54.1338 53.1818 55.5329 53.473 56.6267 54.0554C57.7204 54.6307 58.5301 55.4226 59.0557 56.4311C59.5812 57.4396 59.844 58.5866 59.844 59.8722C59.844 61.1577 59.5812 62.2976 59.0557 63.2919C58.5301 64.2862 57.724 65.0675 56.6373 65.6357C55.5507 66.1967 54.1622 66.4773 52.4719 66.4773H46.5059V64.0909H52.3866C53.5514 64.0909 54.4889 63.9205 55.1991 63.5795C55.9165 63.2386 56.4349 62.7557 56.7545 62.1307C57.0812 61.4986 57.2446 60.7457 57.2446 59.8722C57.2446 58.9986 57.0812 58.2351 56.7545 57.5817C56.4278 56.9283 55.9058 56.424 55.1885 56.0689C54.4711 55.7067 53.523 55.5256 52.344 55.5256H47.6991V75H45.0571ZM55.327 65.1989L60.6963 75H57.6281L52.344 65.1989H55.327ZM74.2181 68.3097V58.6364H76.7323V75H74.2181V72.2301H74.0477C73.6642 73.0611 73.0676 73.7678 72.2579 74.3501C71.4482 74.9254 70.4255 75.2131 69.1897 75.2131C68.167 75.2131 67.2579 74.9893 66.4624 74.5419C65.667 74.0874 65.042 73.4055 64.5874 72.4964C64.1329 71.5803 63.9056 70.4261 63.9056 69.0341V58.6364H66.4198V68.8636C66.4198 70.0568 66.7536 71.0085 67.4213 71.7188C68.096 72.429 68.9553 72.7841 69.9994 72.7841C70.6244 72.7841 71.26 72.6243 71.9063 72.3047C72.5597 71.9851 73.1066 71.495 73.547 70.8345C73.9944 70.174 74.2181 69.3324 74.2181 68.3097ZM83.8515 65.1562V75H81.3373V58.6364H83.7662V61.1932H83.9793C84.3628 60.3622 84.9452 59.6946 85.7265 59.1903C86.5077 58.679 87.5162 58.4233 88.752 58.4233C89.86 58.4233 90.8295 58.6506 91.6604 59.1051C92.4914 59.5526 93.1377 60.2344 93.5993 61.1506C94.061 62.0597 94.2918 63.2102 94.2918 64.6023V75H91.7776V64.7727C91.7776 63.4872 91.4438 62.4858 90.7762 61.7685C90.1086 61.044 89.1924 60.6818 88.0276 60.6818C87.2251 60.6818 86.5077 60.8558 85.8756 61.2038C85.2506 61.5518 84.757 62.0597 84.3948 62.7273C84.0326 63.3949 83.8515 64.2045 83.8515 65.1562Z"></path>
</svg>
