<svg xmlns="http://www.w3.org/2000/svg" fill="none" viewBox="0 0 139 164" height="164" width="139">
<path fill="#43D059" d="M0 20C0 8.95431 8.95431 0 20 0H119C130.046 0 139 8.95431 139 20V144C139 155.046 130.046 164 119 164H20C8.95431 164 0 155.046 0 144V20Z"></path>
<path fill="black" d="M36.2102 135.455V150H34.5341V135.455H36.2102ZM43.854 150.227C42.8029 150.227 41.8962 149.995 41.1339 149.531C40.3763 149.062 39.7915 148.409 39.3796 147.571C38.9724 146.728 38.7688 145.748 38.7688 144.631C38.7688 143.513 38.9724 142.528 39.3796 141.676C39.7915 140.819 40.3645 140.152 41.0984 139.673C41.837 139.19 42.6987 138.949 43.6836 138.949C44.2518 138.949 44.8129 139.044 45.3668 139.233C45.9208 139.422 46.4251 139.73 46.8796 140.156C47.3342 140.578 47.6964 141.136 47.9663 141.832C48.2362 142.528 48.3711 143.385 48.3711 144.403V145.114H39.962V143.665H46.6665C46.6665 143.049 46.5434 142.5 46.2972 142.017C46.0558 141.534 45.7101 141.153 45.2603 140.874C44.8152 140.594 44.2897 140.455 43.6836 140.455C43.016 140.455 42.4383 140.62 41.9506 140.952C41.4677 141.278 41.096 141.705 40.8356 142.23C40.5752 142.756 40.445 143.319 40.445 143.92V144.886C40.445 145.71 40.587 146.409 40.8711 146.982C41.1599 147.55 41.56 147.983 42.0714 148.281C42.5827 148.575 43.177 148.722 43.854 148.722C44.2944 148.722 44.6921 148.66 45.0472 148.537C45.4071 148.409 45.7172 148.22 45.9776 147.969C46.238 147.713 46.4393 147.396 46.5813 147.017L48.2006 147.472C48.0302 148.021 47.7437 148.504 47.3413 148.92C46.9388 149.332 46.4416 149.654 45.8498 149.886C45.2579 150.114 44.5927 150.227 43.854 150.227ZM55.6651 139.091V140.511H50.0117V139.091H55.6651ZM51.6594 136.477H53.3356V146.875C53.3356 147.348 53.4042 147.704 53.5415 147.94C53.6836 148.172 53.8635 148.329 54.0813 148.409C54.3039 148.485 54.5382 148.523 54.7844 148.523C54.9691 148.523 55.1206 148.513 55.239 148.494C55.3574 148.471 55.4521 148.452 55.5231 148.438L55.864 149.943C55.7504 149.986 55.5917 150.028 55.3881 150.071C55.1845 150.118 54.9265 150.142 54.614 150.142C54.1405 150.142 53.6765 150.04 53.2219 149.837C52.7721 149.633 52.3981 149.323 52.0998 148.906C51.8062 148.49 51.6594 147.964 51.6594 147.33V136.477ZM62.9308 139.091V140.511H57.2773V139.091H62.9308ZM58.9251 136.477H60.6012V146.875C60.6012 147.348 60.6699 147.704 60.8072 147.94C60.9492 148.172 61.1291 148.329 61.3469 148.409C61.5695 148.485 61.8039 148.523 62.0501 148.523C62.2347 148.523 62.3862 148.513 62.5046 148.494C62.623 148.471 62.7177 148.452 62.7887 148.438L63.1296 149.943C63.016 149.986 62.8574 150.028 62.6538 150.071C62.4502 150.118 62.1921 150.142 61.8796 150.142C61.4061 150.142 60.9421 150.04 60.4876 149.837C60.0378 149.633 59.6637 149.323 59.3654 148.906C59.0719 148.49 58.9251 147.964 58.9251 147.33V136.477ZM69.9087 150.227C68.8576 150.227 67.9509 149.995 67.1886 149.531C66.431 149.062 65.8462 148.409 65.4343 147.571C65.0271 146.728 64.8235 145.748 64.8235 144.631C64.8235 143.513 65.0271 142.528 65.4343 141.676C65.8462 140.819 66.4192 140.152 67.1531 139.673C67.8917 139.19 68.7534 138.949 69.7383 138.949C70.3065 138.949 70.8675 139.044 71.4215 139.233C71.9755 139.422 72.4798 139.73 72.9343 140.156C73.3888 140.578 73.7511 141.136 74.021 141.832C74.2908 142.528 74.4258 143.385 74.4258 144.403V145.114H66.0167V143.665H72.7212C72.7212 143.049 72.5981 142.5 72.3519 142.017C72.1104 141.534 71.7648 141.153 71.315 140.874C70.8699 140.594 70.3443 140.455 69.7383 140.455C69.0707 140.455 68.493 140.62 68.0053 140.952C67.5224 141.278 67.1507 141.705 66.8903 142.23C66.6299 142.756 66.4996 143.319 66.4996 143.92V144.886C66.4996 145.71 66.6417 146.409 66.9258 146.982C67.2146 147.55 67.6147 147.983 68.1261 148.281C68.6374 148.575 69.2317 148.722 69.9087 148.722C70.3491 148.722 70.7468 148.66 71.1019 148.537C71.4618 148.409 71.7719 148.22 72.0323 147.969C72.2927 147.713 72.494 147.396 72.636 147.017L74.2553 147.472C74.0849 148.021 73.7984 148.504 73.396 148.92C72.9935 149.332 72.4963 149.654 71.9045 149.886C71.3126 150.114 70.6474 150.227 69.9087 150.227ZM76.9755 150V139.091H78.5948V140.739H78.7085C78.9073 140.199 79.2672 139.761 79.788 139.425C80.3088 139.089 80.896 138.92 81.5494 138.92C81.6725 138.92 81.8263 138.923 82.011 138.928C82.1957 138.932 82.3353 138.939 82.43 138.949V140.653C82.3732 140.639 82.243 140.618 82.0394 140.589C81.8406 140.556 81.6299 140.54 81.4073 140.54C80.877 140.54 80.4035 140.651 79.9869 140.874C79.5749 141.091 79.2482 141.394 79.0067 141.783C78.77 142.166 78.6516 142.604 78.6516 143.097V150H76.9755ZM90.2692 150V135.455H95.3544C96.3677 135.455 97.2034 135.63 97.8615 135.98C98.5197 136.326 99.0097 136.792 99.3317 137.379C99.6536 137.962 99.8146 138.608 99.8146 139.318C99.8146 139.943 99.7034 140.459 99.4808 140.866C99.263 141.274 98.9742 141.596 98.6143 141.832C98.2592 142.069 97.8733 142.244 97.4567 142.358V142.5C97.9018 142.528 98.3492 142.685 98.799 142.969C99.2488 143.253 99.6252 143.66 99.9283 144.19C100.231 144.721 100.383 145.369 100.383 146.136C100.383 146.866 100.217 147.521 99.8857 148.104C99.5542 148.686 99.031 149.148 98.3161 149.489C97.6011 149.83 96.6707 150 95.5249 150H90.2692ZM92.0305 148.438H95.5249C96.6754 148.438 97.4922 148.215 97.9751 147.77C98.4628 147.32 98.7067 146.776 98.7067 146.136C98.7067 145.644 98.5812 145.189 98.3303 144.773C98.0793 144.351 97.7218 144.015 97.2578 143.764C96.7938 143.509 96.2446 143.381 95.6101 143.381H92.0305V148.438ZM92.0305 141.847H95.2976C95.8279 141.847 96.3061 141.742 96.7322 141.534C97.1631 141.326 97.504 141.032 97.755 140.653C98.0107 140.275 98.1385 139.83 98.1385 139.318C98.1385 138.679 97.916 138.137 97.4709 137.692C97.0258 137.242 96.3203 137.017 95.3544 137.017H92.0305V141.847Z"></path>
<path fill="black" d="M7.67232 60.1818H10.8257L18.2405 78.2926H18.4962L25.911 60.1818H29.0644V82H26.5928V65.4233H26.3797L19.5615 82H17.1752L10.357 65.4233H10.1439V82H7.67232V60.1818ZM40.6686 82.3409C39.1913 82.3409 37.8952 81.9893 36.7801 81.2862C35.6721 80.5831 34.8057 79.5994 34.1807 78.3352C33.5628 77.071 33.2538 75.5937 33.2538 73.9034C33.2538 72.1989 33.5628 70.7109 34.1807 69.4396C34.8057 68.1683 35.6721 67.1811 36.7801 66.478C37.8952 65.7749 39.1913 65.4233 40.6686 65.4233C42.1459 65.4233 43.4385 65.7749 44.5464 66.478C45.6615 67.1811 46.528 68.1683 47.1459 69.4396C47.7709 70.7109 48.0834 72.1989 48.0834 73.9034C48.0834 75.5937 47.7709 77.071 47.1459 78.3352C46.528 79.5994 45.6615 80.5831 44.5464 81.2862C43.4385 81.9893 42.1459 82.3409 40.6686 82.3409ZM40.6686 80.0824C41.7907 80.0824 42.714 79.7947 43.4385 79.2195C44.1629 78.6442 44.6991 77.8878 45.0471 76.9503C45.3952 76.0128 45.5692 74.9972 45.5692 73.9034C45.5692 72.8097 45.3952 71.7905 45.0471 70.8459C44.6991 69.9013 44.1629 69.1378 43.4385 68.5554C42.714 67.973 41.7907 67.6818 40.6686 67.6818C39.5464 67.6818 38.6231 67.973 37.8987 68.5554C37.1743 69.1378 36.6381 69.9013 36.29 70.8459C35.942 71.7905 35.768 72.8097 35.768 73.9034C35.768 74.9972 35.942 76.0128 36.29 76.9503C36.6381 77.8878 37.1743 78.6442 37.8987 79.2195C38.6231 79.7947 39.5464 80.0824 40.6686 80.0824ZM54.4355 60.1818V82H51.9213V60.1818H54.4355ZM65.9012 82.3409C64.3245 82.3409 62.9644 81.9929 61.8209 81.2969C60.6846 80.5938 59.8074 79.6136 59.1895 78.3565C58.5787 77.0923 58.2733 75.6222 58.2733 73.946C58.2733 72.2699 58.5787 70.7926 59.1895 69.5142C59.8074 68.2287 60.6668 67.2273 61.7677 66.5099C62.8756 65.7855 64.1682 65.4233 65.6455 65.4233C66.4978 65.4233 67.3394 65.5653 68.1704 65.8494C69.0013 66.1335 69.7577 66.5952 70.4395 67.2344C71.1214 67.8665 71.6647 68.7045 72.0695 69.7486C72.4743 70.7926 72.6768 72.0781 72.6768 73.6051V74.6705H60.0631V72.4972H70.1199C70.1199 71.5739 69.9353 70.75 69.566 70.0256C69.2037 69.3011 68.6853 68.7294 68.0106 68.3104C67.343 67.8913 66.5546 67.6818 65.6455 67.6818C64.6441 67.6818 63.7776 67.9304 63.0461 68.4276C62.3216 68.9176 61.7641 69.5568 61.3735 70.3452C60.9829 71.1335 60.7876 71.9787 60.7876 72.8807V74.3295C60.7876 75.5653 61.0006 76.6129 61.4268 77.4723C61.86 78.3246 62.4601 78.9744 63.2272 79.4219C63.9942 79.8622 64.8856 80.0824 65.9012 80.0824C66.5617 80.0824 67.1583 79.9901 67.691 79.8054C68.2307 79.6136 68.6959 79.3295 69.0866 78.9531C69.4772 78.5696 69.779 78.0937 69.9921 77.5256L72.4211 78.2074C72.1654 79.0312 71.7357 79.7557 71.132 80.3807C70.5283 80.9986 69.7826 81.4815 68.8948 81.8295C68.007 82.1705 67.0091 82.3409 65.9012 82.3409ZM83.1491 82.3409C81.615 82.3409 80.2939 81.9787 79.186 81.2543C78.078 80.5298 77.2258 79.532 76.6292 78.2607C76.0326 76.9893 75.7343 75.5369 75.7343 73.9034C75.7343 72.2415 76.0397 70.7749 76.6505 69.5036C77.2684 68.2251 78.1278 67.2273 79.2286 66.5099C80.3366 65.7855 81.6292 65.4233 83.1064 65.4233C84.257 65.4233 85.2939 65.6364 86.2172 66.0625C87.1405 66.4886 87.8969 67.0852 88.4864 67.8523C89.0759 68.6193 89.4417 69.5142 89.5837 70.5369H87.0695C86.8778 69.7912 86.4516 69.1307 85.7911 68.5554C85.1377 67.973 84.257 67.6818 83.1491 67.6818C82.1689 67.6818 81.3096 67.9375 80.5709 68.4489C79.8394 68.9531 79.2677 69.6669 78.8557 70.5902C78.4509 71.5064 78.2485 72.5824 78.2485 73.8182C78.2485 75.0824 78.4474 76.1832 78.8451 77.1207C79.2499 78.0582 79.8181 78.7862 80.5496 79.3047C81.2883 79.8232 82.1547 80.0824 83.1491 80.0824C83.8025 80.0824 84.3955 79.9688 84.9282 79.7415C85.4608 79.5142 85.9118 79.1875 86.2812 78.7614C86.6505 78.3352 86.9133 77.8239 87.0695 77.2273H89.5837C89.4417 78.1932 89.0901 79.0632 88.529 79.8374C87.9751 80.6044 87.24 81.2152 86.3238 81.6697C85.4147 82.1172 84.3564 82.3409 83.1491 82.3409ZM103.572 75.3097V65.6364H106.086V82H103.572V79.2301H103.401C103.018 80.0611 102.421 80.7678 101.611 81.3501C100.802 81.9254 99.779 82.2131 98.5432 82.2131C97.5205 82.2131 96.6114 81.9893 95.816 81.5419C95.0205 81.0874 94.3955 80.4055 93.941 79.4964C93.4864 78.5803 93.2591 77.4261 93.2591 76.0341V65.6364H95.7733V75.8636C95.7733 77.0568 96.1072 78.0085 96.7748 78.7188C97.4495 79.429 98.3089 79.7841 99.3529 79.7841C99.9779 79.7841 100.614 79.6243 101.26 79.3047C101.913 78.9851 102.46 78.495 102.9 77.8345C103.348 77.174 103.572 76.3324 103.572 75.3097ZM113.205 60.1818V82H110.691V60.1818H113.205ZM124.671 82.3409C123.094 82.3409 121.734 81.9929 120.59 81.2969C119.454 80.5938 118.577 79.6136 117.959 78.3565C117.348 77.0923 117.043 75.6222 117.043 73.946C117.043 72.2699 117.348 70.7926 117.959 69.5142C118.577 68.2287 119.436 67.2273 120.537 66.5099C121.645 65.7855 122.938 65.4233 124.415 65.4233C125.267 65.4233 126.109 65.5653 126.94 65.8494C127.771 66.1335 128.527 66.5952 129.209 67.2344C129.891 67.8665 130.434 68.7045 130.839 69.7486C131.244 70.7926 131.446 72.0781 131.446 73.6051V74.6705H118.833V72.4972H128.889C128.889 71.5739 128.705 70.75 128.335 70.0256C127.973 69.3011 127.455 68.7294 126.78 68.3104C126.112 67.8913 125.324 67.6818 124.415 67.6818C123.414 67.6818 122.547 67.9304 121.816 68.4276C121.091 68.9176 120.534 69.5568 120.143 70.3452C119.752 71.1335 119.557 71.9787 119.557 72.8807V74.3295C119.557 75.5653 119.77 76.6129 120.196 77.4723C120.63 78.3246 121.23 78.9744 121.997 79.4219C122.764 79.8622 123.655 80.0824 124.671 80.0824C125.331 80.0824 125.928 79.9901 126.46 79.8054C127 79.6136 127.465 79.3295 127.856 78.9531C128.247 78.5696 128.549 78.0937 128.762 77.5256L131.191 78.2074C130.935 79.0312 130.505 79.7557 129.902 80.3807C129.298 80.9986 128.552 81.4815 127.664 81.8295C126.777 82.1705 125.779 82.3409 124.671 82.3409Z"></path>
</svg>
