<svg xmlns="http://www.w3.org/2000/svg" fill="none" viewBox="0 0 139 164" height="164" width="139">
<path fill="#43D059" d="M0 20C0 8.95431 8.95431 0 20 0H119C130.046 0 139 8.95431 139 20V144C139 155.046 130.046 164 119 164H20C8.95431 164 0 155.046 0 144V20Z"></path>
<path fill="black" d="M36.2102 135.455V150H34.5341V135.455H36.2102ZM43.854 150.227C42.8029 150.227 41.8962 149.995 41.1339 149.531C40.3763 149.062 39.7915 148.409 39.3796 147.571C38.9724 146.728 38.7688 145.748 38.7688 144.631C38.7688 143.513 38.9724 142.528 39.3796 141.676C39.7915 140.819 40.3645 140.152 41.0984 139.673C41.837 139.19 42.6987 138.949 43.6836 138.949C44.2518 138.949 44.8129 139.044 45.3668 139.233C45.9208 139.422 46.4251 139.73 46.8796 140.156C47.3342 140.578 47.6964 141.136 47.9663 141.832C48.2362 142.528 48.3711 143.385 48.3711 144.403V145.114H39.962V143.665H46.6665C46.6665 143.049 46.5434 142.5 46.2972 142.017C46.0558 141.534 45.7101 141.153 45.2603 140.874C44.8152 140.594 44.2897 140.455 43.6836 140.455C43.016 140.455 42.4383 140.62 41.9506 140.952C41.4677 141.278 41.096 141.705 40.8356 142.23C40.5752 142.756 40.445 143.319 40.445 143.92V144.886C40.445 145.71 40.587 146.409 40.8711 146.982C41.1599 147.55 41.56 147.983 42.0714 148.281C42.5827 148.575 43.177 148.722 43.854 148.722C44.2944 148.722 44.6921 148.66 45.0472 148.537C45.4071 148.409 45.7172 148.22 45.9776 147.969C46.238 147.713 46.4393 147.396 46.5813 147.017L48.2006 147.472C48.0302 148.021 47.7437 148.504 47.3413 148.92C46.9388 149.332 46.4416 149.654 45.8498 149.886C45.2579 150.114 44.5927 150.227 43.854 150.227ZM55.6651 139.091V140.511H50.0117V139.091H55.6651ZM51.6594 136.477H53.3356V146.875C53.3356 147.348 53.4042 147.704 53.5415 147.94C53.6836 148.172 53.8635 148.329 54.0813 148.409C54.3039 148.485 54.5382 148.523 54.7844 148.523C54.9691 148.523 55.1206 148.513 55.239 148.494C55.3574 148.471 55.4521 148.452 55.5231 148.438L55.864 149.943C55.7504 149.986 55.5917 150.028 55.3881 150.071C55.1845 150.118 54.9265 150.142 54.614 150.142C54.1405 150.142 53.6765 150.04 53.2219 149.837C52.7721 149.633 52.3981 149.323 52.0998 148.906C51.8062 148.49 51.6594 147.964 51.6594 147.33V136.477ZM62.9308 139.091V140.511H57.2773V139.091H62.9308ZM58.9251 136.477H60.6012V146.875C60.6012 147.348 60.6699 147.704 60.8072 147.94C60.9492 148.172 61.1291 148.329 61.3469 148.409C61.5695 148.485 61.8039 148.523 62.0501 148.523C62.2347 148.523 62.3862 148.513 62.5046 148.494C62.623 148.471 62.7177 148.452 62.7887 148.438L63.1296 149.943C63.016 149.986 62.8574 150.028 62.6538 150.071C62.4502 150.118 62.1921 150.142 61.8796 150.142C61.4061 150.142 60.9421 150.04 60.4876 149.837C60.0378 149.633 59.6637 149.323 59.3654 148.906C59.0719 148.49 58.9251 147.964 58.9251 147.33V136.477ZM69.9087 150.227C68.8576 150.227 67.9509 149.995 67.1886 149.531C66.431 149.062 65.8462 148.409 65.4343 147.571C65.0271 146.728 64.8235 145.748 64.8235 144.631C64.8235 143.513 65.0271 142.528 65.4343 141.676C65.8462 140.819 66.4192 140.152 67.1531 139.673C67.8917 139.19 68.7534 138.949 69.7383 138.949C70.3065 138.949 70.8675 139.044 71.4215 139.233C71.9755 139.422 72.4798 139.73 72.9343 140.156C73.3888 140.578 73.7511 141.136 74.021 141.832C74.2908 142.528 74.4258 143.385 74.4258 144.403V145.114H66.0167V143.665H72.7212C72.7212 143.049 72.5981 142.5 72.3519 142.017C72.1104 141.534 71.7648 141.153 71.315 140.874C70.8699 140.594 70.3443 140.455 69.7383 140.455C69.0707 140.455 68.493 140.62 68.0053 140.952C67.5224 141.278 67.1507 141.705 66.8903 142.23C66.6299 142.756 66.4996 143.319 66.4996 143.92V144.886C66.4996 145.71 66.6417 146.409 66.9258 146.982C67.2146 147.55 67.6147 147.983 68.1261 148.281C68.6374 148.575 69.2317 148.722 69.9087 148.722C70.3491 148.722 70.7468 148.66 71.1019 148.537C71.4618 148.409 71.7719 148.22 72.0323 147.969C72.2927 147.713 72.494 147.396 72.636 147.017L74.2553 147.472C74.0849 148.021 73.7984 148.504 73.396 148.92C72.9935 149.332 72.4963 149.654 71.9045 149.886C71.3126 150.114 70.6474 150.227 69.9087 150.227ZM76.9755 150V139.091H78.5948V140.739H78.7085C78.9073 140.199 79.2672 139.761 79.788 139.425C80.3088 139.089 80.896 138.92 81.5494 138.92C81.6725 138.92 81.8263 138.923 82.011 138.928C82.1957 138.932 82.3353 138.939 82.43 138.949V140.653C82.3732 140.639 82.243 140.618 82.0394 140.589C81.8406 140.556 81.6299 140.54 81.4073 140.54C80.877 140.54 80.4035 140.651 79.9869 140.874C79.5749 141.091 79.2482 141.394 79.0067 141.783C78.77 142.166 78.6516 142.604 78.6516 143.097V150H76.9755ZM101.974 140H100.212C100.108 139.493 99.9259 139.048 99.6655 138.665C99.4098 138.281 99.0973 137.959 98.728 137.699C98.3634 137.434 97.9586 137.235 97.5135 137.102C97.0684 136.97 96.6044 136.903 96.1214 136.903C95.2408 136.903 94.4429 137.126 93.728 137.571C93.0178 138.016 92.4519 138.672 92.0305 139.538C91.6139 140.405 91.4055 141.468 91.4055 142.727C91.4055 143.987 91.6139 145.05 92.0305 145.916C92.4519 146.783 93.0178 147.438 93.728 147.884C94.4429 148.329 95.2408 148.551 96.1214 148.551C96.6044 148.551 97.0684 148.485 97.5135 148.352C97.9586 148.22 98.3634 148.023 98.728 147.763C99.0973 147.498 99.4098 147.173 99.6655 146.79C99.9259 146.402 100.108 145.956 100.212 145.455H101.974C101.841 146.198 101.6 146.863 101.249 147.45C100.899 148.037 100.463 148.537 99.9425 148.949C99.4216 149.356 98.8369 149.666 98.1882 149.879C97.5443 150.092 96.8554 150.199 96.1214 150.199C94.8809 150.199 93.7777 149.896 92.8118 149.29C91.8459 148.684 91.0859 147.822 90.532 146.705C89.978 145.587 89.701 144.261 89.701 142.727C89.701 141.193 89.978 139.867 90.532 138.75C91.0859 137.633 91.8459 136.771 92.8118 136.165C93.7777 135.559 94.8809 135.256 96.1214 135.256C96.8554 135.256 97.5443 135.362 98.1882 135.575C98.8369 135.788 99.4216 136.101 99.9425 136.513C100.463 136.92 100.899 137.417 101.249 138.004C101.6 138.587 101.841 139.252 101.974 140Z"></path>
<path fill="black" d="M29.2127 60.1818V82H26.6559L14.7667 64.8693H14.5536V82H11.9116V60.1818H14.4684L26.4002 77.3551H26.6133V60.1818H29.2127ZM34.1586 82V65.6364H36.6728V82H34.1586ZM35.437 62.9091C34.9469 62.9091 34.5243 62.7422 34.1692 62.4084C33.8212 62.0746 33.6472 61.6733 33.6472 61.2045C33.6472 60.7358 33.8212 60.3345 34.1692 60.0007C34.5243 59.6669 34.9469 59.5 35.437 59.5C35.927 59.5 36.3461 59.6669 36.6941 60.0007C37.0492 60.3345 37.2267 60.7358 37.2267 61.2045C37.2267 61.6733 37.0492 62.0746 36.6941 62.4084C36.3461 62.7422 35.927 62.9091 35.437 62.9091ZM48.3942 65.6364V67.767H39.9141V65.6364H48.3942ZM42.3857 61.7159H44.8999V77.3125C44.8999 78.0227 45.0028 78.5554 45.2088 78.9105C45.4219 79.2585 45.6918 79.4929 46.0185 79.6136C46.3523 79.7273 46.7038 79.7841 47.0732 79.7841C47.3501 79.7841 47.5774 79.7699 47.755 79.7415C47.9325 79.706 48.0746 79.6776 48.1811 79.6562L48.6925 81.9148C48.522 81.9787 48.2841 82.0426 47.9787 82.1065C47.6733 82.1776 47.2862 82.2131 46.8175 82.2131C46.1072 82.2131 45.4112 82.0604 44.7294 81.755C44.0547 81.4496 43.4936 80.9844 43.0462 80.3594C42.6058 79.7344 42.3857 78.946 42.3857 77.9943V61.7159ZM52.1761 82V65.6364H54.6051V68.108H54.7756C55.0739 67.2983 55.6136 66.6413 56.3949 66.1371C57.1761 65.6328 58.0568 65.3807 59.0369 65.3807C59.2216 65.3807 59.4524 65.3842 59.7294 65.3913C60.0064 65.3984 60.2159 65.4091 60.358 65.4233V67.9801C60.2727 67.9588 60.0774 67.9268 59.772 67.8842C59.4737 67.8345 59.1577 67.8097 58.8239 67.8097C58.0284 67.8097 57.3182 67.9766 56.6932 68.3104C56.0753 68.6371 55.5852 69.0916 55.223 69.674C54.8679 70.2493 54.6903 70.9062 54.6903 71.6449V82H52.1761ZM69.4879 82.3409C68.0107 82.3409 66.7145 81.9893 65.5994 81.2862C64.4915 80.5831 63.625 79.5994 63 78.3352C62.3821 77.071 62.0732 75.5937 62.0732 73.9034C62.0732 72.1989 62.3821 70.7109 63 69.4396C63.625 68.1683 64.4915 67.1811 65.5994 66.478C66.7145 65.7749 68.0107 65.4233 69.4879 65.4233C70.9652 65.4233 72.2578 65.7749 73.3658 66.478C74.4808 67.1811 75.3473 68.1683 75.9652 69.4396C76.5902 70.7109 76.9027 72.1989 76.9027 73.9034C76.9027 75.5937 76.5902 77.071 75.9652 78.3352C75.3473 79.5994 74.4808 80.5831 73.3658 81.2862C72.2578 81.9893 70.9652 82.3409 69.4879 82.3409ZM69.4879 80.0824C70.6101 80.0824 71.5334 79.7947 72.2578 79.2195C72.9822 78.6442 73.5185 77.8878 73.8665 76.9503C74.2145 76.0128 74.3885 74.9972 74.3885 73.9034C74.3885 72.8097 74.2145 71.7905 73.8665 70.8459C73.5185 69.9013 72.9822 69.1378 72.2578 68.5554C71.5334 67.973 70.6101 67.6818 69.4879 67.6818C68.3658 67.6818 67.4425 67.973 66.718 68.5554C65.9936 69.1378 65.4574 69.9013 65.1094 70.8459C64.7614 71.7905 64.5874 72.8097 64.5874 73.9034C64.5874 74.9972 64.7614 76.0128 65.1094 76.9503C65.4574 77.8878 65.9936 78.6442 66.718 79.2195C67.4425 79.7947 68.3658 80.0824 69.4879 80.0824ZM87.3457 88.4773C86.1312 88.4773 85.0872 88.321 84.2136 88.0085C83.34 87.7031 82.612 87.2983 82.0297 86.794C81.4544 86.2969 80.9963 85.7642 80.6554 85.196L82.6582 83.7898C82.8855 84.0881 83.1731 84.429 83.5211 84.8125C83.8691 85.2031 84.345 85.5405 84.9487 85.8246C85.5595 86.1158 86.3585 86.2614 87.3457 86.2614C88.6667 86.2614 89.7569 85.9418 90.6163 85.3026C91.4757 84.6634 91.9054 83.6619 91.9054 82.2983V78.9744H91.6923C91.5076 79.2727 91.2449 79.642 90.9039 80.0824C90.5701 80.5156 90.0872 80.9027 89.4551 81.2436C88.8301 81.5774 87.9849 81.7443 86.9196 81.7443C85.5985 81.7443 84.4125 81.4318 83.3613 80.8068C82.3173 80.1818 81.4899 79.2727 80.8791 78.0795C80.2754 76.8864 79.9735 75.4375 79.9735 73.733C79.9735 72.0568 80.2683 70.5973 80.8578 69.3544C81.4473 68.1044 82.2676 67.1385 83.3187 66.4567C84.3699 65.7678 85.5843 65.4233 86.9622 65.4233C88.0275 65.4233 88.8727 65.6009 89.4977 65.956C90.1298 66.304 90.6127 66.7017 90.9466 67.1491C91.2875 67.5895 91.5502 67.9517 91.7349 68.2358H91.9906V65.6364H94.4196V82.4688C94.4196 83.875 94.1 85.0185 93.4608 85.8991C92.8287 86.7869 91.9764 87.4368 90.9039 87.8487C89.8386 88.2678 88.6525 88.4773 87.3457 88.4773ZM87.2605 79.4858C88.269 79.4858 89.1213 79.255 89.8173 78.7933C90.5133 78.3317 91.0424 77.6676 91.4047 76.8011C91.7669 75.9347 91.948 74.8977 91.948 73.6903C91.948 72.5114 91.7704 71.4709 91.4153 70.5689C91.0602 69.6669 90.5346 68.9602 89.8386 68.4489C89.1426 67.9375 88.2832 67.6818 87.2605 67.6818C86.1951 67.6818 85.3074 67.9517 84.5971 68.4915C83.894 69.0312 83.3649 69.7557 83.0098 70.6648C82.6618 71.5739 82.4877 72.5824 82.4877 73.6903C82.4877 74.8267 82.6653 75.8317 83.0204 76.7053C83.3826 77.5717 83.9153 78.2536 84.6184 78.7507C85.3287 79.2408 86.2093 79.4858 87.2605 79.4858ZM105.883 82.3409C104.306 82.3409 102.946 81.9929 101.802 81.2969C100.666 80.5938 99.7889 79.6136 99.171 78.3565C98.5602 77.0923 98.2548 75.6222 98.2548 73.946C98.2548 72.2699 98.5602 70.7926 99.171 69.5142C99.7889 68.2287 100.648 67.2273 101.749 66.5099C102.857 65.7855 104.15 65.4233 105.627 65.4233C106.479 65.4233 107.321 65.5653 108.152 65.8494C108.983 66.1335 109.739 66.5952 110.421 67.2344C111.103 67.8665 111.646 68.7045 112.051 69.7486C112.456 70.7926 112.658 72.0781 112.658 73.6051V74.6705H100.045V72.4972H110.101C110.101 71.5739 109.917 70.75 109.547 70.0256C109.185 69.3011 108.667 68.7294 107.992 68.3104C107.324 67.8913 106.536 67.6818 105.627 67.6818C104.626 67.6818 103.759 67.9304 103.028 68.4276C102.303 68.9176 101.746 69.5568 101.355 70.3452C100.964 71.1335 100.769 71.9787 100.769 72.8807V74.3295C100.769 75.5653 100.982 76.6129 101.408 77.4723C101.841 78.3246 102.442 78.9744 103.209 79.4219C103.976 79.8622 104.867 80.0824 105.883 80.0824C106.543 80.0824 107.14 79.9901 107.672 79.8054C108.212 79.6136 108.677 79.3295 109.068 78.9531C109.459 78.5696 109.76 78.0937 109.974 77.5256L112.403 78.2074C112.147 79.0312 111.717 79.7557 111.113 80.3807C110.51 80.9986 109.764 81.4815 108.876 81.8295C107.988 82.1705 106.991 82.3409 105.883 82.3409ZM118.997 72.1562V82H116.483V65.6364H118.912V68.1932H119.125C119.508 67.3622 120.091 66.6946 120.872 66.1903C121.653 65.679 122.662 65.4233 123.898 65.4233C125.006 65.4233 125.975 65.6506 126.806 66.1051C127.637 66.5526 128.283 67.2344 128.745 68.1506C129.206 69.0597 129.437 70.2102 129.437 71.6023V82H126.923V71.7727C126.923 70.4872 126.589 69.4858 125.922 68.7685C125.254 68.044 124.338 67.6818 123.173 67.6818C122.371 67.6818 121.653 67.8558 121.021 68.2038C120.396 68.5518 119.903 69.0597 119.54 69.7273C119.178 70.3949 118.997 71.2045 118.997 72.1562Z"></path>
</svg>
