<svg xmlns="http://www.w3.org/2000/svg" fill="none" viewBox="0 0 139 164" height="164" width="139">
<path fill="#43D059" d="M0 20C0 8.95431 8.95431 0 20 0H119C130.046 0 139 8.95431 139 20V144C139 155.046 130.046 164 119 164H20C8.95431 164 0 155.046 0 144V20Z"></path>
<path fill="black" d="M36.2102 135.455V150H34.5341V135.455H36.2102ZM43.854 150.227C42.8029 150.227 41.8962 149.995 41.1339 149.531C40.3763 149.062 39.7915 148.409 39.3796 147.571C38.9724 146.728 38.7688 145.748 38.7688 144.631C38.7688 143.513 38.9724 142.528 39.3796 141.676C39.7915 140.819 40.3645 140.152 41.0984 139.673C41.837 139.19 42.6987 138.949 43.6836 138.949C44.2518 138.949 44.8129 139.044 45.3668 139.233C45.9208 139.422 46.4251 139.73 46.8796 140.156C47.3342 140.578 47.6964 141.136 47.9663 141.832C48.2362 142.528 48.3711 143.385 48.3711 144.403V145.114H39.962V143.665H46.6665C46.6665 143.049 46.5434 142.5 46.2972 142.017C46.0558 141.534 45.7101 141.153 45.2603 140.874C44.8152 140.594 44.2897 140.455 43.6836 140.455C43.016 140.455 42.4383 140.62 41.9506 140.952C41.4677 141.278 41.096 141.705 40.8356 142.23C40.5752 142.756 40.445 143.319 40.445 143.92V144.886C40.445 145.71 40.587 146.409 40.8711 146.982C41.1599 147.55 41.56 147.983 42.0714 148.281C42.5827 148.575 43.177 148.722 43.854 148.722C44.2944 148.722 44.6921 148.66 45.0472 148.537C45.4071 148.409 45.7172 148.22 45.9776 147.969C46.238 147.713 46.4393 147.396 46.5813 147.017L48.2006 147.472C48.0302 148.021 47.7437 148.504 47.3413 148.92C46.9388 149.332 46.4416 149.654 45.8498 149.886C45.2579 150.114 44.5927 150.227 43.854 150.227ZM55.6651 139.091V140.511H50.0117V139.091H55.6651ZM51.6594 136.477H53.3356V146.875C53.3356 147.348 53.4042 147.704 53.5415 147.94C53.6836 148.172 53.8635 148.329 54.0813 148.409C54.3039 148.485 54.5382 148.523 54.7844 148.523C54.9691 148.523 55.1206 148.513 55.239 148.494C55.3574 148.471 55.4521 148.452 55.5231 148.438L55.864 149.943C55.7504 149.986 55.5917 150.028 55.3881 150.071C55.1845 150.118 54.9265 150.142 54.614 150.142C54.1405 150.142 53.6765 150.04 53.2219 149.837C52.7721 149.633 52.3981 149.323 52.0998 148.906C51.8062 148.49 51.6594 147.964 51.6594 147.33V136.477ZM62.9308 139.091V140.511H57.2773V139.091H62.9308ZM58.9251 136.477H60.6012V146.875C60.6012 147.348 60.6699 147.704 60.8072 147.94C60.9492 148.172 61.1291 148.329 61.3469 148.409C61.5695 148.485 61.8039 148.523 62.0501 148.523C62.2347 148.523 62.3862 148.513 62.5046 148.494C62.623 148.471 62.7177 148.452 62.7887 148.438L63.1296 149.943C63.016 149.986 62.8574 150.028 62.6538 150.071C62.4502 150.118 62.1921 150.142 61.8796 150.142C61.4061 150.142 60.9421 150.04 60.4876 149.837C60.0378 149.633 59.6637 149.323 59.3654 148.906C59.0719 148.49 58.9251 147.964 58.9251 147.33V136.477ZM69.9087 150.227C68.8576 150.227 67.9509 149.995 67.1886 149.531C66.431 149.062 65.8462 148.409 65.4343 147.571C65.0271 146.728 64.8235 145.748 64.8235 144.631C64.8235 143.513 65.0271 142.528 65.4343 141.676C65.8462 140.819 66.4192 140.152 67.1531 139.673C67.8917 139.19 68.7534 138.949 69.7383 138.949C70.3065 138.949 70.8675 139.044 71.4215 139.233C71.9755 139.422 72.4798 139.73 72.9343 140.156C73.3888 140.578 73.7511 141.136 74.021 141.832C74.2908 142.528 74.4258 143.385 74.4258 144.403V145.114H66.0167V143.665H72.7212C72.7212 143.049 72.5981 142.5 72.3519 142.017C72.1104 141.534 71.7648 141.153 71.315 140.874C70.8699 140.594 70.3443 140.455 69.7383 140.455C69.0707 140.455 68.493 140.62 68.0053 140.952C67.5224 141.278 67.1507 141.705 66.8903 142.23C66.6299 142.756 66.4996 143.319 66.4996 143.92V144.886C66.4996 145.71 66.6417 146.409 66.9258 146.982C67.2146 147.55 67.6147 147.983 68.1261 148.281C68.6374 148.575 69.2317 148.722 69.9087 148.722C70.3491 148.722 70.7468 148.66 71.1019 148.537C71.4618 148.409 71.7719 148.22 72.0323 147.969C72.2927 147.713 72.494 147.396 72.636 147.017L74.2553 147.472C74.0849 148.021 73.7984 148.504 73.396 148.92C72.9935 149.332 72.4963 149.654 71.9045 149.886C71.3126 150.114 70.6474 150.227 69.9087 150.227ZM76.9755 150V139.091H78.5948V140.739H78.7085C78.9073 140.199 79.2672 139.761 79.788 139.425C80.3088 139.089 80.896 138.92 81.5494 138.92C81.6725 138.92 81.8263 138.923 82.011 138.928C82.1957 138.932 82.3353 138.939 82.43 138.949V140.653C82.3732 140.639 82.243 140.618 82.0394 140.589C81.8406 140.556 81.6299 140.54 81.4073 140.54C80.877 140.54 80.4035 140.651 79.9869 140.874C79.5749 141.091 79.2482 141.394 79.0067 141.783C78.77 142.166 78.6516 142.604 78.6516 143.097V150H76.9755ZM90.2692 150V135.455H95.3544C96.3677 135.455 97.2034 135.63 97.8615 135.98C98.5197 136.326 99.0097 136.792 99.3317 137.379C99.6536 137.962 99.8146 138.608 99.8146 139.318C99.8146 139.943 99.7034 140.459 99.4808 140.866C99.263 141.274 98.9742 141.596 98.6143 141.832C98.2592 142.069 97.8733 142.244 97.4567 142.358V142.5C97.9018 142.528 98.3492 142.685 98.799 142.969C99.2488 143.253 99.6252 143.66 99.9283 144.19C100.231 144.721 100.383 145.369 100.383 146.136C100.383 146.866 100.217 147.521 99.8857 148.104C99.5542 148.686 99.031 149.148 98.3161 149.489C97.6011 149.83 96.6707 150 95.5249 150H90.2692ZM92.0305 148.438H95.5249C96.6754 148.438 97.4922 148.215 97.9751 147.77C98.4628 147.32 98.7067 146.776 98.7067 146.136C98.7067 145.644 98.5812 145.189 98.3303 144.773C98.0793 144.351 97.7218 144.015 97.2578 143.764C96.7938 143.509 96.2446 143.381 95.6101 143.381H92.0305V148.438ZM92.0305 141.847H95.2976C95.8279 141.847 96.3061 141.742 96.7322 141.534C97.1631 141.326 97.504 141.032 97.755 140.653C98.0107 140.275 98.1385 139.83 98.1385 139.318C98.1385 138.679 97.916 138.137 97.4709 137.692C97.0258 137.242 96.3203 137.017 95.3544 137.017H92.0305V141.847Z"></path>
<path fill="black" d="M54.4586 67H51.8166C51.6603 66.2401 51.3869 65.5724 50.9963 64.9972C50.6127 64.4219 50.144 63.9389 49.59 63.5483C49.0431 63.1506 48.4359 62.8523 47.7683 62.6534C47.1007 62.4545 46.4047 62.3551 45.6802 62.3551C44.3592 62.3551 43.1625 62.6889 42.09 63.3565C41.0247 64.0241 40.176 65.0078 39.5439 66.3075C38.9189 67.6072 38.6064 69.2017 38.6064 71.0909C38.6064 72.9801 38.9189 74.5746 39.5439 75.8743C40.176 77.174 41.0247 78.1577 42.09 78.8253C43.1625 79.4929 44.3592 79.8267 45.6802 79.8267C46.4047 79.8267 47.1007 79.7273 47.7683 79.5284C48.4359 79.3295 49.0431 79.0348 49.59 78.6442C50.144 78.2464 50.6127 77.7599 50.9963 77.1847C51.3869 76.6023 51.6603 75.9347 51.8166 75.1818H54.4586C54.2598 76.2969 53.8976 77.2947 53.372 78.1754C52.8464 79.0561 52.193 79.8054 51.4118 80.4233C50.6305 81.0341 49.7534 81.4993 48.7804 81.8189C47.8145 82.1385 46.7811 82.2983 45.6802 82.2983C43.8194 82.2983 42.1646 81.8438 40.7157 80.9347C39.2669 80.0256 38.127 78.733 37.296 77.0568C36.465 75.3807 36.0495 73.392 36.0495 71.0909C36.0495 68.7898 36.465 66.8011 37.296 65.125C38.127 63.4489 39.2669 62.1562 40.7157 61.2472C42.1646 60.3381 43.8194 59.8835 45.6802 59.8835C46.7811 59.8835 47.8145 60.0433 48.7804 60.3629C49.7534 60.6825 50.6305 61.1513 51.4118 61.7692C52.193 62.38 52.8464 63.1257 53.372 64.0064C53.8976 64.88 54.2598 65.8778 54.4586 67ZM60.0064 88.1364C59.5803 88.1364 59.2003 88.1009 58.8665 88.0298C58.5327 87.9659 58.3018 87.902 58.174 87.8381L58.8132 85.6222C59.424 85.7784 59.9638 85.8352 60.4325 85.7926C60.9013 85.75 61.3168 85.5405 61.679 85.1641C62.0483 84.7947 62.3857 84.1946 62.6911 83.3636L63.1598 82.0852L57.1087 65.6364H59.8359L64.353 78.6761H64.5234L69.0405 65.6364H71.7678L64.8217 84.3864C64.5092 85.2315 64.1222 85.9311 63.6605 86.4851C63.1989 87.0462 62.6626 87.4616 62.0518 87.7315C61.4482 88.0014 60.7663 88.1364 60.0064 88.1364ZM79.4036 82.3835C78.3667 82.3835 77.4256 82.1882 76.5804 81.7976C75.7353 81.3999 75.0641 80.8281 74.5669 80.0824C74.0698 79.3295 73.8212 78.4205 73.8212 77.3551C73.8212 76.4176 74.0059 75.6577 74.3752 75.0753C74.7445 74.4858 75.2381 74.0241 75.856 73.6903C76.4739 73.3565 77.1557 73.108 77.9015 72.9446C78.6543 72.7741 79.4107 72.6392 80.1706 72.5398C81.165 72.4119 81.9711 72.3161 82.589 72.2521C83.214 72.1811 83.6685 72.0639 83.9526 71.9006C84.2438 71.7372 84.3894 71.4531 84.3894 71.0483V70.9631C84.3894 69.9119 84.1017 69.0952 83.5265 68.5128C82.9583 67.9304 82.0953 67.6392 80.9377 67.6392C79.7374 67.6392 78.7963 67.902 78.1145 68.4276C77.4327 68.9531 76.9533 69.5142 76.6763 70.1108L74.29 69.2585C74.7161 68.2642 75.2843 67.4901 75.9945 66.9361C76.7118 66.375 77.4931 65.9844 78.3382 65.7642C79.1905 65.5369 80.0286 65.4233 80.8525 65.4233C81.378 65.4233 81.9817 65.4872 82.6635 65.6151C83.3525 65.7358 84.0165 65.9879 84.6557 66.3714C85.302 66.755 85.8382 67.3338 86.2644 68.108C86.6905 68.8821 86.9036 69.919 86.9036 71.2188V82H84.3894V79.7841H84.2615C84.0911 80.1392 83.807 80.5192 83.4093 80.924C83.0115 81.3288 82.4824 81.6733 81.8219 81.9574C81.1614 82.2415 80.3553 82.3835 79.4036 82.3835ZM79.7871 80.125C80.7814 80.125 81.6195 79.9297 82.3013 79.5391C82.9902 79.1484 83.5087 78.6442 83.8567 78.0263C84.2118 77.4084 84.3894 76.7585 84.3894 76.0767V73.7756C84.2828 73.9034 84.0485 74.0206 83.6863 74.1271C83.3311 74.2266 82.9192 74.3153 82.4505 74.3935C81.9888 74.4645 81.5378 74.5284 81.0975 74.5852C80.6642 74.6349 80.3127 74.6776 80.0428 74.7131C79.3894 74.7983 78.7786 74.9368 78.2104 75.1286C77.6493 75.3132 77.1948 75.5937 76.8468 75.9702C76.5059 76.3395 76.3354 76.8437 76.3354 77.483C76.3354 78.3565 76.6586 79.017 77.3049 79.4645C77.9583 79.9048 78.7857 80.125 79.7871 80.125ZM94.0067 72.1562V82H91.4925V65.6364H93.9215V68.1932H94.1346C94.5181 67.3622 95.1005 66.6946 95.8817 66.1903C96.663 65.679 97.6715 65.4233 98.9073 65.4233C100.015 65.4233 100.985 65.6506 101.816 66.1051C102.647 66.5526 103.293 67.2344 103.755 68.1506C104.216 69.0597 104.447 70.2102 104.447 71.6023V82H101.933V71.7727C101.933 70.4872 101.599 69.4858 100.931 68.7685C100.264 68.044 99.3477 67.6818 98.1829 67.6818C97.3803 67.6818 96.663 67.8558 96.0309 68.2038C95.4059 68.5518 94.9123 69.0597 94.5501 69.7273C94.1879 70.3949 94.0067 71.2045 94.0067 72.1562Z"></path>
</svg>
