<svg xmlns="http://www.w3.org/2000/svg" fill="none" viewBox="0 0 139 164" height="164" width="139">
<path fill="#43D059" d="M0 20C0 8.95431 8.95431 0 20 0H119C130.046 0 139 8.95431 139 20V144C139 155.046 130.046 164 119 164H20C8.95431 164 0 155.046 0 144V20Z"></path>
<path fill="black" d="M36.2102 135.455V150H34.5341V135.455H36.2102ZM43.854 150.227C42.8029 150.227 41.8962 149.995 41.1339 149.531C40.3763 149.062 39.7915 148.409 39.3796 147.571C38.9724 146.728 38.7688 145.748 38.7688 144.631C38.7688 143.513 38.9724 142.528 39.3796 141.676C39.7915 140.819 40.3645 140.152 41.0984 139.673C41.837 139.19 42.6987 138.949 43.6836 138.949C44.2518 138.949 44.8129 139.044 45.3668 139.233C45.9208 139.422 46.4251 139.73 46.8796 140.156C47.3342 140.578 47.6964 141.136 47.9663 141.832C48.2362 142.528 48.3711 143.385 48.3711 144.403V145.114H39.962V143.665H46.6665C46.6665 143.049 46.5434 142.5 46.2972 142.017C46.0558 141.534 45.7101 141.153 45.2603 140.874C44.8152 140.594 44.2897 140.455 43.6836 140.455C43.016 140.455 42.4383 140.62 41.9506 140.952C41.4677 141.278 41.096 141.705 40.8356 142.23C40.5752 142.756 40.445 143.319 40.445 143.92V144.886C40.445 145.71 40.587 146.409 40.8711 146.982C41.1599 147.55 41.56 147.983 42.0714 148.281C42.5827 148.575 43.177 148.722 43.854 148.722C44.2944 148.722 44.6921 148.66 45.0472 148.537C45.4071 148.409 45.7172 148.22 45.9776 147.969C46.238 147.713 46.4393 147.396 46.5813 147.017L48.2006 147.472C48.0302 148.021 47.7437 148.504 47.3413 148.92C46.9388 149.332 46.4416 149.654 45.8498 149.886C45.2579 150.114 44.5927 150.227 43.854 150.227ZM55.6651 139.091V140.511H50.0117V139.091H55.6651ZM51.6594 136.477H53.3356V146.875C53.3356 147.348 53.4042 147.704 53.5415 147.94C53.6836 148.172 53.8635 148.329 54.0813 148.409C54.3039 148.485 54.5382 148.523 54.7844 148.523C54.9691 148.523 55.1206 148.513 55.239 148.494C55.3574 148.471 55.4521 148.452 55.5231 148.438L55.864 149.943C55.7504 149.986 55.5917 150.028 55.3881 150.071C55.1845 150.118 54.9265 150.142 54.614 150.142C54.1405 150.142 53.6765 150.04 53.2219 149.837C52.7721 149.633 52.3981 149.323 52.0998 148.906C51.8062 148.49 51.6594 147.964 51.6594 147.33V136.477ZM62.9308 139.091V140.511H57.2773V139.091H62.9308ZM58.9251 136.477H60.6012V146.875C60.6012 147.348 60.6699 147.704 60.8072 147.94C60.9492 148.172 61.1291 148.329 61.3469 148.409C61.5695 148.485 61.8039 148.523 62.0501 148.523C62.2347 148.523 62.3862 148.513 62.5046 148.494C62.623 148.471 62.7177 148.452 62.7887 148.438L63.1296 149.943C63.016 149.986 62.8574 150.028 62.6538 150.071C62.4502 150.118 62.1921 150.142 61.8796 150.142C61.4061 150.142 60.9421 150.04 60.4876 149.837C60.0378 149.633 59.6637 149.323 59.3654 148.906C59.0719 148.49 58.9251 147.964 58.9251 147.33V136.477ZM69.9087 150.227C68.8576 150.227 67.9509 149.995 67.1886 149.531C66.431 149.062 65.8462 148.409 65.4343 147.571C65.0271 146.728 64.8235 145.748 64.8235 144.631C64.8235 143.513 65.0271 142.528 65.4343 141.676C65.8462 140.819 66.4192 140.152 67.1531 139.673C67.8917 139.19 68.7534 138.949 69.7383 138.949C70.3065 138.949 70.8675 139.044 71.4215 139.233C71.9755 139.422 72.4798 139.73 72.9343 140.156C73.3888 140.578 73.7511 141.136 74.021 141.832C74.2908 142.528 74.4258 143.385 74.4258 144.403V145.114H66.0167V143.665H72.7212C72.7212 143.049 72.5981 142.5 72.3519 142.017C72.1104 141.534 71.7648 141.153 71.315 140.874C70.8699 140.594 70.3443 140.455 69.7383 140.455C69.0707 140.455 68.493 140.62 68.0053 140.952C67.5224 141.278 67.1507 141.705 66.8903 142.23C66.6299 142.756 66.4996 143.319 66.4996 143.92V144.886C66.4996 145.71 66.6417 146.409 66.9258 146.982C67.2146 147.55 67.6147 147.983 68.1261 148.281C68.6374 148.575 69.2317 148.722 69.9087 148.722C70.3491 148.722 70.7468 148.66 71.1019 148.537C71.4618 148.409 71.7719 148.22 72.0323 147.969C72.2927 147.713 72.494 147.396 72.636 147.017L74.2553 147.472C74.0849 148.021 73.7984 148.504 73.396 148.92C72.9935 149.332 72.4963 149.654 71.9045 149.886C71.3126 150.114 70.6474 150.227 69.9087 150.227ZM76.9755 150V139.091H78.5948V140.739H78.7085C78.9073 140.199 79.2672 139.761 79.788 139.425C80.3088 139.089 80.896 138.92 81.5494 138.92C81.6725 138.92 81.8263 138.923 82.011 138.928C82.1957 138.932 82.3353 138.939 82.43 138.949V140.653C82.3732 140.639 82.243 140.618 82.0394 140.589C81.8406 140.556 81.6299 140.54 81.4073 140.54C80.877 140.54 80.4035 140.651 79.9869 140.874C79.5749 141.091 79.2482 141.394 79.0067 141.783C78.77 142.166 78.6516 142.604 78.6516 143.097V150H76.9755ZM94.7578 150H90.2692V135.455H94.9567C96.3677 135.455 97.575 135.746 98.5788 136.328C99.5826 136.906 100.352 137.737 100.887 138.821C101.422 139.901 101.69 141.193 101.69 142.699C101.69 144.214 101.42 145.518 100.88 146.612C100.34 147.701 99.5542 148.539 98.522 149.126C97.4898 149.709 96.2351 150 94.7578 150ZM92.0305 148.438H94.6442C95.8468 148.438 96.8435 148.205 97.6342 147.741C98.425 147.277 99.0144 146.617 99.4027 145.76C99.791 144.903 99.9851 143.883 99.9851 142.699C99.9851 141.525 99.7933 140.514 99.4098 139.666C99.0263 138.814 98.4534 138.161 97.6911 137.706C96.9287 137.247 95.9794 137.017 94.843 137.017H92.0305V148.438Z"></path>
<path fill="black" d="M23.5341 41H21.4205C21.2955 40.392 21.0767 39.858 20.7642 39.3977C20.4574 38.9375 20.0824 38.5511 19.6392 38.2386C19.2017 37.9205 18.7159 37.6818 18.1818 37.5227C17.6477 37.3636 17.0909 37.2841 16.5114 37.2841C15.4545 37.2841 14.4972 37.5511 13.6392 38.0852C12.7869 38.6193 12.108 39.4062 11.6023 40.446C11.1023 41.4858 10.8523 42.7614 10.8523 44.2727C10.8523 45.7841 11.1023 47.0597 11.6023 48.0994C12.108 49.1392 12.7869 49.9261 13.6392 50.4602C14.4972 50.9943 15.4545 51.2614 16.5114 51.2614C17.0909 51.2614 17.6477 51.1818 18.1818 51.0227C18.7159 50.8636 19.2017 50.6278 19.6392 50.3153C20.0824 49.9972 20.4574 49.608 20.7642 49.1477C21.0767 48.6818 21.2955 48.1477 21.4205 47.5455H23.5341C23.375 48.4375 23.0852 49.2358 22.6648 49.9403C22.2443 50.6449 21.7216 51.2443 21.0966 51.7386C20.4716 52.2273 19.7699 52.5994 18.9915 52.8551C18.2188 53.1108 17.392 53.2386 16.5114 53.2386C15.0227 53.2386 13.6989 52.875 12.5398 52.1477C11.3807 51.4205 10.4688 50.3864 9.80398 49.0455C9.1392 47.7045 8.80682 46.1136 8.80682 44.2727C8.80682 42.4318 9.1392 40.8409 9.80398 39.5C10.4688 38.1591 11.3807 37.125 12.5398 36.3977C13.6989 35.6705 15.0227 35.3068 16.5114 35.3068C17.392 35.3068 18.2188 35.4347 18.9915 35.6903C19.7699 35.946 20.4716 36.321 21.0966 36.8153C21.7216 37.304 22.2443 37.9006 22.6648 38.6051C23.0852 39.304 23.375 40.1023 23.5341 41ZM32.1655 53.2727C30.9041 53.2727 29.8161 52.9943 28.9013 52.4375C27.9922 51.875 27.2905 51.0909 26.7962 50.0852C26.3075 49.0739 26.0632 47.8977 26.0632 46.5568C26.0632 45.2159 26.3075 44.0341 26.7962 43.0114C27.2905 41.983 27.978 41.1818 28.8587 40.608C29.745 40.0284 30.7791 39.7386 31.9609 39.7386C32.6428 39.7386 33.3161 39.8523 33.9808 40.0795C34.6456 40.3068 35.2507 40.6761 35.7962 41.1875C36.3416 41.6932 36.7763 42.3636 37.1001 43.1989C37.424 44.0341 37.5859 45.0625 37.5859 46.2841V47.1364H27.495V45.3977H35.5405C35.5405 44.6591 35.3928 44 35.0973 43.4205C34.8075 42.8409 34.3928 42.3835 33.853 42.0483C33.3189 41.7131 32.6882 41.5455 31.9609 41.5455C31.1598 41.5455 30.4666 41.7443 29.8814 42.142C29.3018 42.5341 28.8558 43.0455 28.5433 43.6761C28.2308 44.3068 28.0746 44.983 28.0746 45.7045V46.8636C28.0746 47.8523 28.245 48.6903 28.5859 49.3778C28.9325 50.0597 29.4126 50.5795 30.0263 50.9375C30.6399 51.2898 31.353 51.4659 32.1655 51.4659C32.6939 51.4659 33.1712 51.392 33.5973 51.2443C34.0291 51.0909 34.4013 50.8636 34.7138 50.5625C35.0263 50.2557 35.2678 49.875 35.4382 49.4205L37.3814 49.9659C37.1768 50.625 36.8331 51.2045 36.3501 51.7045C35.8672 52.1989 35.2706 52.5852 34.5604 52.8636C33.8501 53.1364 33.0518 53.2727 32.1655 53.2727ZM42.657 45.125V53H40.6456V39.9091H42.5888V41.9545H42.7592C43.0661 41.2898 43.532 40.7557 44.157 40.3523C44.782 39.9432 45.5888 39.7386 46.5774 39.7386C47.4638 39.7386 48.2393 39.9205 48.9041 40.2841C49.5689 40.642 50.0859 41.1875 50.4553 41.9205C50.8246 42.6477 51.0092 43.5682 51.0092 44.6818V53H48.9979V44.8182C48.9979 43.7898 48.7308 42.9886 48.1967 42.4148C47.6626 41.8352 46.9297 41.5455 45.9979 41.5455C45.3558 41.5455 44.782 41.6847 44.2763 41.9631C43.7763 42.2415 43.3814 42.6477 43.0916 43.1818C42.8018 43.7159 42.657 44.3636 42.657 45.125ZM60.3778 39.9091V41.6136H53.5938V39.9091H60.3778ZM55.571 36.7727H57.5824V49.25C57.5824 49.8182 57.6648 50.2443 57.8295 50.5284C58 50.8068 58.2159 50.9943 58.4773 51.0909C58.7443 51.1818 59.0256 51.2273 59.321 51.2273C59.5426 51.2273 59.7244 51.2159 59.8665 51.1932C60.0085 51.1648 60.1222 51.142 60.2074 51.125L60.6165 52.9318C60.4801 52.983 60.2898 53.0341 60.0455 53.0852C59.8011 53.142 59.4915 53.1705 59.1165 53.1705C58.5483 53.1705 57.9915 53.0483 57.446 52.804C56.9063 52.5597 56.4574 52.1875 56.0994 51.6875C55.7472 51.1875 55.571 50.5568 55.571 49.7955V36.7727ZM63.4034 53V39.9091H65.3466V41.8864H65.483C65.7216 41.2386 66.1534 40.7131 66.7784 40.3097C67.4034 39.9062 68.108 39.7045 68.892 39.7045C69.0398 39.7045 69.2244 39.7074 69.446 39.7131C69.6676 39.7187 69.8352 39.7273 69.9489 39.7386V41.7841C69.8807 41.767 69.7244 41.7415 69.4801 41.7074C69.2415 41.6676 68.9886 41.6477 68.7216 41.6477C68.0852 41.6477 67.517 41.7812 67.017 42.0483C66.5227 42.3097 66.1307 42.6733 65.8409 43.1392C65.5568 43.5994 65.4148 44.125 65.4148 44.7159V53H63.4034ZM72.3331 53V39.9091H74.3445V53H72.3331ZM73.3558 37.7273C72.9638 37.7273 72.6257 37.5938 72.3416 37.3267C72.0632 37.0597 71.924 36.7386 71.924 36.3636C71.924 35.9886 72.0632 35.6676 72.3416 35.4006C72.6257 35.1335 72.9638 35 73.3558 35C73.7479 35 74.0831 35.1335 74.3615 35.4006C74.6456 35.6676 74.7876 35.9886 74.7876 36.3636C74.7876 36.7386 74.6456 37.0597 74.3615 37.3267C74.0831 37.5938 73.7479 37.7273 73.3558 37.7273ZM83.858 39.9091V41.6136H76.8011V39.9091H83.858ZM78.9148 53V38.1023C78.9148 37.3523 79.0909 36.7273 79.4432 36.2273C79.7955 35.7273 80.2528 35.3523 80.8153 35.1023C81.3778 34.8523 81.9716 34.7273 82.5966 34.7273C83.0909 34.7273 83.4943 34.767 83.8068 34.8466C84.1193 34.9261 84.3523 35 84.5057 35.0682L83.9261 36.8068C83.8239 36.7727 83.6818 36.7301 83.5 36.679C83.3239 36.6278 83.0909 36.6023 82.8011 36.6023C82.1364 36.6023 81.6563 36.7699 81.3608 37.1051C81.071 37.4403 80.9261 37.9318 80.9261 38.5795V53H78.9148ZM94.9268 47.6477V39.9091H96.9382V53H94.9268V50.7841H94.7905C94.4837 51.4489 94.0064 52.0142 93.3587 52.4801C92.7109 52.9403 91.8928 53.1705 90.9041 53.1705C90.0859 53.1705 89.3587 52.9915 88.7223 52.6335C88.0859 52.2699 87.5859 51.7244 87.2223 50.9972C86.8587 50.2642 86.6768 49.3409 86.6768 48.2273V39.9091H88.6882V48.0909C88.6882 49.0455 88.9553 49.8068 89.4893 50.375C90.0291 50.9432 90.7166 51.2273 91.5518 51.2273C92.0518 51.2273 92.5604 51.0994 93.0774 50.8438C93.6001 50.5881 94.0376 50.196 94.3899 49.6676C94.7479 49.1392 94.9268 48.4659 94.9268 47.6477ZM105.906 58.1818C104.935 58.1818 104.099 58.0568 103.401 57.8068C102.702 57.5625 102.119 57.2386 101.653 56.8352C101.193 56.4375 100.827 56.0114 100.554 55.5568L102.156 54.4318C102.338 54.6705 102.568 54.9432 102.847 55.25C103.125 55.5625 103.506 55.8324 103.989 56.0597C104.477 56.2926 105.116 56.4091 105.906 56.4091C106.963 56.4091 107.835 56.1534 108.523 55.642C109.21 55.1307 109.554 54.3295 109.554 53.2386V50.5795H109.384C109.236 50.8182 109.026 51.1136 108.753 51.4659C108.486 51.8125 108.099 52.1222 107.594 52.3949C107.094 52.6619 106.418 52.7955 105.565 52.7955C104.509 52.7955 103.56 52.5455 102.719 52.0455C101.884 51.5455 101.222 50.8182 100.733 49.8636C100.25 48.9091 100.009 47.75 100.009 46.3864C100.009 45.0455 100.244 43.8778 100.716 42.8835C101.188 41.8835 101.844 41.1108 102.685 40.5653C103.526 40.0142 104.497 39.7386 105.599 39.7386C106.452 39.7386 107.128 39.8807 107.628 40.1648C108.134 40.4432 108.52 40.7614 108.787 41.1193C109.06 41.4716 109.27 41.7614 109.418 41.9886H109.622V39.9091H111.565V53.375C111.565 54.5 111.31 55.4148 110.798 56.1193C110.293 56.8295 109.611 57.3494 108.753 57.679C107.901 58.0142 106.952 58.1818 105.906 58.1818ZM105.838 50.9886C106.645 50.9886 107.327 50.804 107.884 50.4347C108.44 50.0653 108.864 49.5341 109.153 48.8409C109.443 48.1477 109.588 47.3182 109.588 46.3523C109.588 45.4091 109.446 44.5767 109.162 43.8551C108.878 43.1335 108.457 42.5682 107.901 42.1591C107.344 41.75 106.656 41.5455 105.838 41.5455C104.986 41.5455 104.276 41.7614 103.707 42.1932C103.145 42.625 102.722 43.2045 102.438 43.9318C102.159 44.6591 102.02 45.4659 102.02 46.3523C102.02 47.2614 102.162 48.0653 102.446 48.7642C102.736 49.4574 103.162 50.0028 103.724 50.4006C104.293 50.7926 104.997 50.9886 105.838 50.9886ZM119.099 53.3068C118.27 53.3068 117.517 53.1506 116.841 52.8381C116.165 52.5199 115.628 52.0625 115.23 51.4659C114.832 50.8636 114.634 50.1364 114.634 49.2841C114.634 48.5341 114.781 47.9261 115.077 47.4602C115.372 46.9886 115.767 46.6193 116.261 46.3523C116.756 46.0852 117.301 45.8864 117.898 45.7557C118.5 45.6193 119.105 45.5114 119.713 45.4318C120.509 45.3295 121.153 45.2528 121.648 45.2017C122.148 45.1449 122.511 45.0511 122.739 44.9205C122.972 44.7898 123.088 44.5625 123.088 44.2386V44.1705C123.088 43.3295 122.858 42.6761 122.398 42.2102C121.943 41.7443 121.253 41.5114 120.327 41.5114C119.366 41.5114 118.614 41.7216 118.068 42.142C117.523 42.5625 117.139 43.0114 116.918 43.4886L115.009 42.8068C115.349 42.0114 115.804 41.392 116.372 40.9489C116.946 40.5 117.571 40.1875 118.247 40.0114C118.929 39.8295 119.599 39.7386 120.259 39.7386C120.679 39.7386 121.162 39.7898 121.707 39.892C122.259 39.9886 122.79 40.1903 123.301 40.4972C123.818 40.804 124.247 41.267 124.588 41.8864C124.929 42.5057 125.099 43.3352 125.099 44.375V53H123.088V51.2273H122.986C122.849 51.5114 122.622 51.8153 122.304 52.1392C121.986 52.4631 121.563 52.7386 121.034 52.9659C120.506 53.1932 119.861 53.3068 119.099 53.3068ZM119.406 51.5C120.202 51.5 120.872 51.3438 121.418 51.0312C121.969 50.7188 122.384 50.3153 122.662 49.821C122.946 49.3267 123.088 48.8068 123.088 48.2614V46.4205C123.003 46.5227 122.815 46.6165 122.526 46.7017C122.241 46.7812 121.912 46.8523 121.537 46.9148C121.168 46.9716 120.807 47.0227 120.455 47.0682C120.108 47.108 119.827 47.142 119.611 47.1705C119.088 47.2386 118.599 47.3494 118.145 47.5028C117.696 47.6506 117.332 47.875 117.054 48.1761C116.781 48.4716 116.645 48.875 116.645 49.3864C116.645 50.0852 116.903 50.6136 117.42 50.9716C117.943 51.3239 118.605 51.5 119.406 51.5ZM130.782 35.5455V53H128.771V35.5455H130.782ZM48.5025 68.9091V70.6136H41.4457V68.9091H48.5025ZM43.5593 82V67.1023C43.5593 66.3523 43.7354 65.7273 44.0877 65.2273C44.44 64.7273 44.8974 64.3523 45.4599 64.1023C46.0224 63.8523 46.6161 63.7273 47.2411 63.7273C47.7354 63.7273 48.1388 63.767 48.4513 63.8466C48.7638 63.9261 48.9968 64 49.1502 64.0682L48.5707 65.8068C48.4684 65.7727 48.3263 65.7301 48.1445 65.679C47.9684 65.6278 47.7354 65.6023 47.4457 65.6023C46.7809 65.6023 46.3008 65.7699 46.0053 66.1051C45.7156 66.4403 45.5707 66.9318 45.5707 67.5795V82H43.5593ZM56.1005 82.2727C54.9187 82.2727 53.8817 81.9915 52.9897 81.429C52.1033 80.8665 51.4102 80.0795 50.9102 79.0682C50.4158 78.0568 50.1687 76.875 50.1687 75.5227C50.1687 74.1591 50.4158 72.9687 50.9102 71.9517C51.4102 70.9347 52.1033 70.1449 52.9897 69.5824C53.8817 69.0199 54.9187 68.7386 56.1005 68.7386C57.2823 68.7386 58.3164 69.0199 59.2028 69.5824C60.0948 70.1449 60.788 70.9347 61.2823 71.9517C61.7823 72.9687 62.0323 74.1591 62.0323 75.5227C62.0323 76.875 61.7823 78.0568 61.2823 79.0682C60.788 80.0795 60.0948 80.8665 59.2028 81.429C58.3164 81.9915 57.2823 82.2727 56.1005 82.2727ZM56.1005 80.4659C56.9982 80.4659 57.7369 80.2358 58.3164 79.7756C58.896 79.3153 59.3249 78.7102 59.6033 77.9602C59.8817 77.2102 60.021 76.3977 60.021 75.5227C60.021 74.6477 59.8817 73.8324 59.6033 73.0767C59.3249 72.321 58.896 71.7102 58.3164 71.2443C57.7369 70.7784 56.9982 70.5455 56.1005 70.5455C55.2028 70.5455 54.4641 70.7784 53.8846 71.2443C53.305 71.7102 52.8761 72.321 52.5977 73.0767C52.3192 73.8324 52.18 74.6477 52.18 75.5227C52.18 76.3977 52.3192 77.2102 52.5977 77.9602C52.8761 78.7102 53.305 79.3153 53.8846 79.7756C54.4641 80.2358 55.2028 80.4659 56.1005 80.4659ZM65.1026 82V68.9091H67.0458V70.8864H67.1822C67.4208 70.2386 67.8526 69.7131 68.4776 69.3097C69.1026 68.9062 69.8072 68.7045 70.5913 68.7045C70.739 68.7045 70.9237 68.7074 71.1452 68.7131C71.3668 68.7187 71.5344 68.7273 71.6481 68.7386V70.7841C71.5799 70.767 71.4237 70.7415 71.1793 70.7074C70.9407 70.6676 70.6879 70.6477 70.4208 70.6477C69.7844 70.6477 69.2163 70.7812 68.7163 71.0483C68.2219 71.3097 67.8299 71.6733 67.5401 72.1392C67.256 72.5994 67.114 73.125 67.114 73.7159V82H65.1026ZM78.9521 82.2727C77.7248 82.2727 76.668 81.983 75.7816 81.4034C74.8952 80.8239 74.2134 80.0256 73.7362 79.0085C73.2589 77.9915 73.0202 76.8295 73.0202 75.5227C73.0202 74.1932 73.2646 73.0199 73.7532 72.0028C74.2475 70.9801 74.935 70.1818 75.8157 69.608C76.7021 69.0284 77.7362 68.7386 78.918 68.7386C79.8384 68.7386 80.668 68.9091 81.4066 69.25C82.1452 69.5909 82.7504 70.0682 83.2219 70.6818C83.6935 71.2955 83.9862 72.0114 84.0998 72.8295H82.0884C81.935 72.233 81.5941 71.7045 81.0657 71.2443C80.543 70.7784 79.8384 70.5455 78.9521 70.5455C78.168 70.5455 77.4805 70.75 76.8896 71.1591C76.3043 71.5625 75.8469 72.1335 75.5174 72.8722C75.1935 73.6051 75.0316 74.4659 75.0316 75.4545C75.0316 76.4659 75.1907 77.3466 75.5089 78.0966C75.8327 78.8466 76.2873 79.429 76.8725 79.8438C77.4634 80.2585 78.1566 80.4659 78.9521 80.4659C79.4748 80.4659 79.9492 80.375 80.3754 80.1932C80.8015 80.0114 81.1623 79.75 81.4577 79.4091C81.7532 79.0682 81.9634 78.6591 82.0884 78.1818H84.0998C83.9862 78.9545 83.7049 79.6506 83.256 80.2699C82.8129 80.8835 82.2248 81.3722 81.4918 81.7358C80.7646 82.0938 79.918 82.2727 78.9521 82.2727ZM92.5288 82.2727C91.2674 82.2727 90.1793 81.9943 89.2646 81.4375C88.3555 80.875 87.6538 80.0909 87.1594 79.0852C86.6708 78.0739 86.4265 76.8977 86.4265 75.5568C86.4265 74.2159 86.6708 73.0341 87.1594 72.0114C87.6538 70.983 88.3413 70.1818 89.2219 69.608C90.1083 69.0284 91.1424 68.7386 92.3242 68.7386C93.006 68.7386 93.6793 68.8523 94.3441 69.0795C95.0089 69.3068 95.614 69.6761 96.1594 70.1875C96.7049 70.6932 97.1396 71.3636 97.4634 72.1989C97.7873 73.0341 97.9492 74.0625 97.9492 75.2841V76.1364H87.8583V74.3977H95.9038C95.9038 73.6591 95.756 73 95.4606 72.4205C95.1708 71.8409 94.756 71.3835 94.2163 71.0483C93.6822 70.7131 93.0515 70.5455 92.3242 70.5455C91.5231 70.5455 90.8299 70.7443 90.2447 71.142C89.6651 71.5341 89.2191 72.0455 88.9066 72.6761C88.5941 73.3068 88.4379 73.983 88.4379 74.7045V75.8636C88.4379 76.8523 88.6083 77.6903 88.9492 78.3778C89.2958 79.0597 89.7759 79.5795 90.3896 79.9375C91.0032 80.2898 91.7163 80.4659 92.5288 80.4659C93.0572 80.4659 93.5344 80.392 93.9606 80.2443C94.3924 80.0909 94.7646 79.8636 95.0771 79.5625C95.3896 79.2557 95.631 78.875 95.8015 78.4205L97.7447 78.9659C97.5401 79.625 97.1964 80.2045 96.7134 80.7045C96.2305 81.1989 95.6339 81.5852 94.9237 81.8636C94.2134 82.1364 93.4151 82.2727 92.5288 82.2727Z"></path>
</svg>
