<svg xmlns="http://www.w3.org/2000/svg" fill="none" viewBox="0 0 139 164" height="164" width="139">
<path fill="#EEC638" d="M0 20C0 8.95431 8.95431 0 20 0H119C130.046 0 139 8.95431 139 20V144C139 155.046 130.046 164 119 164H20C8.95431 164 0 155.046 0 144V20Z"></path>
<path fill="black" d="M36.2102 135.455V150H34.5341V135.455H36.2102ZM43.854 150.227C42.8029 150.227 41.8962 149.995 41.1339 149.531C40.3763 149.062 39.7915 148.409 39.3796 147.571C38.9724 146.728 38.7688 145.748 38.7688 144.631C38.7688 143.513 38.9724 142.528 39.3796 141.676C39.7915 140.819 40.3645 140.152 41.0984 139.673C41.837 139.19 42.6987 138.949 43.6836 138.949C44.2518 138.949 44.8129 139.044 45.3668 139.233C45.9208 139.422 46.4251 139.73 46.8796 140.156C47.3342 140.578 47.6964 141.136 47.9663 141.832C48.2362 142.528 48.3711 143.385 48.3711 144.403V145.114H39.962V143.665H46.6665C46.6665 143.049 46.5434 142.5 46.2972 142.017C46.0558 141.534 45.7101 141.153 45.2603 140.874C44.8152 140.594 44.2897 140.455 43.6836 140.455C43.016 140.455 42.4383 140.62 41.9506 140.952C41.4677 141.278 41.096 141.705 40.8356 142.23C40.5752 142.756 40.445 143.319 40.445 143.92V144.886C40.445 145.71 40.587 146.409 40.8711 146.982C41.1599 147.55 41.56 147.983 42.0714 148.281C42.5827 148.575 43.177 148.722 43.854 148.722C44.2944 148.722 44.6921 148.66 45.0472 148.537C45.4071 148.409 45.7172 148.22 45.9776 147.969C46.238 147.713 46.4393 147.396 46.5813 147.017L48.2006 147.472C48.0302 148.021 47.7437 148.504 47.3413 148.92C46.9388 149.332 46.4416 149.654 45.8498 149.886C45.2579 150.114 44.5927 150.227 43.854 150.227ZM55.6651 139.091V140.511H50.0117V139.091H55.6651ZM51.6594 136.477H53.3356V146.875C53.3356 147.348 53.4042 147.704 53.5415 147.94C53.6836 148.172 53.8635 148.329 54.0813 148.409C54.3039 148.485 54.5382 148.523 54.7844 148.523C54.9691 148.523 55.1206 148.513 55.239 148.494C55.3574 148.471 55.4521 148.452 55.5231 148.438L55.864 149.943C55.7504 149.986 55.5917 150.028 55.3881 150.071C55.1845 150.118 54.9265 150.142 54.614 150.142C54.1405 150.142 53.6765 150.04 53.2219 149.837C52.7721 149.633 52.3981 149.323 52.0998 148.906C51.8062 148.49 51.6594 147.964 51.6594 147.33V136.477ZM62.9308 139.091V140.511H57.2773V139.091H62.9308ZM58.9251 136.477H60.6012V146.875C60.6012 147.348 60.6699 147.704 60.8072 147.94C60.9492 148.172 61.1291 148.329 61.3469 148.409C61.5695 148.485 61.8039 148.523 62.0501 148.523C62.2347 148.523 62.3862 148.513 62.5046 148.494C62.623 148.471 62.7177 148.452 62.7887 148.438L63.1296 149.943C63.016 149.986 62.8574 150.028 62.6538 150.071C62.4502 150.118 62.1921 150.142 61.8796 150.142C61.4061 150.142 60.9421 150.04 60.4876 149.837C60.0378 149.633 59.6637 149.323 59.3654 148.906C59.0719 148.49 58.9251 147.964 58.9251 147.33V136.477ZM69.9087 150.227C68.8576 150.227 67.9509 149.995 67.1886 149.531C66.431 149.062 65.8462 148.409 65.4343 147.571C65.0271 146.728 64.8235 145.748 64.8235 144.631C64.8235 143.513 65.0271 142.528 65.4343 141.676C65.8462 140.819 66.4192 140.152 67.1531 139.673C67.8917 139.19 68.7534 138.949 69.7383 138.949C70.3065 138.949 70.8675 139.044 71.4215 139.233C71.9755 139.422 72.4798 139.73 72.9343 140.156C73.3888 140.578 73.7511 141.136 74.021 141.832C74.2908 142.528 74.4258 143.385 74.4258 144.403V145.114H66.0167V143.665H72.7212C72.7212 143.049 72.5981 142.5 72.3519 142.017C72.1104 141.534 71.7648 141.153 71.315 140.874C70.8699 140.594 70.3443 140.455 69.7383 140.455C69.0707 140.455 68.493 140.62 68.0053 140.952C67.5224 141.278 67.1507 141.705 66.8903 142.23C66.6299 142.756 66.4996 143.319 66.4996 143.92V144.886C66.4996 145.71 66.6417 146.409 66.9258 146.982C67.2146 147.55 67.6147 147.983 68.1261 148.281C68.6374 148.575 69.2317 148.722 69.9087 148.722C70.3491 148.722 70.7468 148.66 71.1019 148.537C71.4618 148.409 71.7719 148.22 72.0323 147.969C72.2927 147.713 72.494 147.396 72.636 147.017L74.2553 147.472C74.0849 148.021 73.7984 148.504 73.396 148.92C72.9935 149.332 72.4963 149.654 71.9045 149.886C71.3126 150.114 70.6474 150.227 69.9087 150.227ZM76.9755 150V139.091H78.5948V140.739H78.7085C78.9073 140.199 79.2672 139.761 79.788 139.425C80.3088 139.089 80.896 138.92 81.5494 138.92C81.6725 138.92 81.8263 138.923 82.011 138.928C82.1957 138.932 82.3353 138.939 82.43 138.949V140.653C82.3732 140.639 82.243 140.618 82.0394 140.589C81.8406 140.556 81.6299 140.54 81.4073 140.54C80.877 140.54 80.4035 140.651 79.9869 140.874C79.5749 141.091 79.2482 141.394 79.0067 141.783C78.77 142.166 78.6516 142.604 78.6516 143.097V150H76.9755ZM94.7578 150H90.2692V135.455H94.9567C96.3677 135.455 97.575 135.746 98.5788 136.328C99.5826 136.906 100.352 137.737 100.887 138.821C101.422 139.901 101.69 141.193 101.69 142.699C101.69 144.214 101.42 145.518 100.88 146.612C100.34 147.701 99.5542 148.539 98.522 149.126C97.4898 149.709 96.2351 150 94.7578 150ZM92.0305 148.438H94.6442C95.8468 148.438 96.8435 148.205 97.6342 147.741C98.425 147.277 99.0144 146.617 99.4027 145.76C99.791 144.903 99.9851 143.883 99.9851 142.699C99.9851 141.525 99.7933 140.514 99.4098 139.666C99.0263 138.814 98.4534 138.161 97.6911 137.706C96.9287 137.247 95.9794 137.017 94.843 137.017H92.0305V148.438Z"></path>
<path fill="black" d="M64.1879 64.0909C64.1879 66.392 63.7724 68.3807 62.9414 70.0568C62.1104 71.733 60.9705 73.0256 59.5217 73.9347C58.0728 74.8438 56.418 75.2983 54.5572 75.2983C52.6964 75.2983 51.0415 74.8438 49.5927 73.9347C48.1438 73.0256 47.0039 71.733 46.1729 70.0568C45.342 68.3807 44.9265 66.392 44.9265 64.0909C44.9265 61.7898 45.342 59.8011 46.1729 58.125C47.0039 56.4489 48.1438 55.1562 49.5927 54.2472C51.0415 53.3381 52.6964 52.8835 54.5572 52.8835C56.418 52.8835 58.0728 53.3381 59.5217 54.2472C60.9705 55.1562 62.1104 56.4489 62.9414 58.125C63.7724 59.8011 64.1879 61.7898 64.1879 64.0909ZM61.631 64.0909C61.631 62.2017 61.315 60.6072 60.6829 59.3075C60.0579 58.0078 59.2092 57.0241 58.1367 56.3565C57.0714 55.6889 55.8782 55.3551 54.5572 55.3551C53.2362 55.3551 52.0394 55.6889 50.967 56.3565C49.9016 57.0241 49.0529 58.0078 48.4208 59.3075C47.7958 60.6072 47.4833 62.2017 47.4833 64.0909C47.4833 65.9801 47.7958 67.5746 48.4208 68.8743C49.0529 70.174 49.9016 71.1577 50.967 71.8253C52.0394 72.4929 53.2362 72.8267 54.5572 72.8267C55.8782 72.8267 57.0714 72.4929 58.1367 71.8253C59.2092 71.1577 60.0579 70.174 60.6829 68.8743C61.315 67.5746 61.631 65.9801 61.631 64.0909ZM70.1644 58.6364L74.0849 65.3267L78.0053 58.6364H80.9031L75.619 66.8182L80.9031 75H78.0053L74.0849 68.6506L70.1644 75H67.2667L72.4656 66.8182L67.2667 58.6364H70.1644ZM96.0815 62.3011L93.823 62.9403C93.6809 62.5639 93.4714 62.1982 93.1944 61.843C92.9245 61.4808 92.5552 61.1825 92.0865 60.9482C91.6177 60.7138 91.0176 60.5966 90.286 60.5966C89.2846 60.5966 88.4501 60.8274 87.7825 61.2891C87.122 61.7436 86.7917 62.3224 86.7917 63.0256C86.7917 63.6506 87.019 64.1442 87.4735 64.5064C87.9281 64.8686 88.6383 65.1705 89.6042 65.4119L92.0332 66.0085C93.4963 66.3636 94.5865 66.907 95.3038 67.6385C96.0211 68.3629 96.3798 69.2969 96.3798 70.4403C96.3798 71.3778 96.1099 72.2159 95.5701 72.9545C95.0375 73.6932 94.2917 74.2756 93.3329 74.7017C92.3741 75.1278 91.2591 75.3409 89.9877 75.3409C88.3187 75.3409 86.9373 74.9787 85.8436 74.2543C84.7498 73.5298 84.0574 72.4716 83.7662 71.0795L86.1525 70.483C86.3798 71.3636 86.8095 72.0241 87.4416 72.4645C88.0808 72.9048 88.9153 73.125 89.9451 73.125C91.117 73.125 92.0474 72.8764 92.7363 72.3793C93.4324 71.875 93.7804 71.2713 93.7804 70.5682C93.7804 70 93.5815 69.5241 93.1838 69.1406C92.786 68.75 92.1752 68.4588 91.3514 68.267L88.6241 67.6278C87.1255 67.2727 86.0247 66.7223 85.3216 65.9766C84.6255 65.2237 84.2775 64.2827 84.2775 63.1534C84.2775 62.2301 84.5368 61.4134 85.0552 60.7031C85.5808 59.9929 86.2946 59.4354 87.1966 59.0305C88.1056 58.6257 89.1355 58.4233 90.286 58.4233C91.9054 58.4233 93.1767 58.7784 94.1 59.4886C95.0304 60.1989 95.6909 61.1364 96.0815 62.3011Z"></path>
</svg>
