<svg xmlns="http://www.w3.org/2000/svg" fill="none" viewBox="0 0 139 164" height="164" width="139">
<path fill="#43D059" d="M0 20C0 8.95431 8.95431 0 20 0H119C130.046 0 139 8.95431 139 20V144C139 155.046 130.046 164 119 164H20C8.95431 164 0 155.046 0 144V20Z"></path>
<path fill="black" d="M36.2102 135.455V150H34.5341V135.455H36.2102ZM43.854 150.227C42.8029 150.227 41.8962 149.995 41.1339 149.531C40.3763 149.062 39.7915 148.409 39.3796 147.571C38.9724 146.728 38.7688 145.748 38.7688 144.631C38.7688 143.513 38.9724 142.528 39.3796 141.676C39.7915 140.819 40.3645 140.152 41.0984 139.673C41.837 139.19 42.6987 138.949 43.6836 138.949C44.2518 138.949 44.8129 139.044 45.3668 139.233C45.9208 139.422 46.4251 139.73 46.8796 140.156C47.3342 140.578 47.6964 141.136 47.9663 141.832C48.2362 142.528 48.3711 143.385 48.3711 144.403V145.114H39.962V143.665H46.6665C46.6665 143.049 46.5434 142.5 46.2972 142.017C46.0558 141.534 45.7101 141.153 45.2603 140.874C44.8152 140.594 44.2897 140.455 43.6836 140.455C43.016 140.455 42.4383 140.62 41.9506 140.952C41.4677 141.278 41.096 141.705 40.8356 142.23C40.5752 142.756 40.445 143.319 40.445 143.92V144.886C40.445 145.71 40.587 146.409 40.8711 146.982C41.1599 147.55 41.56 147.983 42.0714 148.281C42.5827 148.575 43.177 148.722 43.854 148.722C44.2944 148.722 44.6921 148.66 45.0472 148.537C45.4071 148.409 45.7172 148.22 45.9776 147.969C46.238 147.713 46.4393 147.396 46.5813 147.017L48.2006 147.472C48.0302 148.021 47.7437 148.504 47.3413 148.92C46.9388 149.332 46.4416 149.654 45.8498 149.886C45.2579 150.114 44.5927 150.227 43.854 150.227ZM55.6651 139.091V140.511H50.0117V139.091H55.6651ZM51.6594 136.477H53.3356V146.875C53.3356 147.348 53.4042 147.704 53.5415 147.94C53.6836 148.172 53.8635 148.329 54.0813 148.409C54.3039 148.485 54.5382 148.523 54.7844 148.523C54.9691 148.523 55.1206 148.513 55.239 148.494C55.3574 148.471 55.4521 148.452 55.5231 148.438L55.864 149.943C55.7504 149.986 55.5917 150.028 55.3881 150.071C55.1845 150.118 54.9265 150.142 54.614 150.142C54.1405 150.142 53.6765 150.04 53.2219 149.837C52.7721 149.633 52.3981 149.323 52.0998 148.906C51.8062 148.49 51.6594 147.964 51.6594 147.33V136.477ZM62.9308 139.091V140.511H57.2773V139.091H62.9308ZM58.9251 136.477H60.6012V146.875C60.6012 147.348 60.6699 147.704 60.8072 147.94C60.9492 148.172 61.1291 148.329 61.3469 148.409C61.5695 148.485 61.8039 148.523 62.0501 148.523C62.2347 148.523 62.3862 148.513 62.5046 148.494C62.623 148.471 62.7177 148.452 62.7887 148.438L63.1296 149.943C63.016 149.986 62.8574 150.028 62.6538 150.071C62.4502 150.118 62.1921 150.142 61.8796 150.142C61.4061 150.142 60.9421 150.04 60.4876 149.837C60.0378 149.633 59.6637 149.323 59.3654 148.906C59.0719 148.49 58.9251 147.964 58.9251 147.33V136.477ZM69.9087 150.227C68.8576 150.227 67.9509 149.995 67.1886 149.531C66.431 149.062 65.8462 148.409 65.4343 147.571C65.0271 146.728 64.8235 145.748 64.8235 144.631C64.8235 143.513 65.0271 142.528 65.4343 141.676C65.8462 140.819 66.4192 140.152 67.1531 139.673C67.8917 139.19 68.7534 138.949 69.7383 138.949C70.3065 138.949 70.8675 139.044 71.4215 139.233C71.9755 139.422 72.4798 139.73 72.9343 140.156C73.3888 140.578 73.7511 141.136 74.021 141.832C74.2908 142.528 74.4258 143.385 74.4258 144.403V145.114H66.0167V143.665H72.7212C72.7212 143.049 72.5981 142.5 72.3519 142.017C72.1104 141.534 71.7648 141.153 71.315 140.874C70.8699 140.594 70.3443 140.455 69.7383 140.455C69.0707 140.455 68.493 140.62 68.0053 140.952C67.5224 141.278 67.1507 141.705 66.8903 142.23C66.6299 142.756 66.4996 143.319 66.4996 143.92V144.886C66.4996 145.71 66.6417 146.409 66.9258 146.982C67.2146 147.55 67.6147 147.983 68.1261 148.281C68.6374 148.575 69.2317 148.722 69.9087 148.722C70.3491 148.722 70.7468 148.66 71.1019 148.537C71.4618 148.409 71.7719 148.22 72.0323 147.969C72.2927 147.713 72.494 147.396 72.636 147.017L74.2553 147.472C74.0849 148.021 73.7984 148.504 73.396 148.92C72.9935 149.332 72.4963 149.654 71.9045 149.886C71.3126 150.114 70.6474 150.227 69.9087 150.227ZM76.9755 150V139.091H78.5948V140.739H78.7085C78.9073 140.199 79.2672 139.761 79.788 139.425C80.3088 139.089 80.896 138.92 81.5494 138.92C81.6725 138.92 81.8263 138.923 82.011 138.928C82.1957 138.932 82.3353 138.939 82.43 138.949V140.653C82.3732 140.639 82.243 140.618 82.0394 140.589C81.8406 140.556 81.6299 140.54 81.4073 140.54C80.877 140.54 80.4035 140.651 79.9869 140.874C79.5749 141.091 79.2482 141.394 79.0067 141.783C78.77 142.166 78.6516 142.604 78.6516 143.097V150H76.9755ZM90.2692 150V135.455H95.3544C96.3677 135.455 97.2034 135.63 97.8615 135.98C98.5197 136.326 99.0097 136.792 99.3317 137.379C99.6536 137.962 99.8146 138.608 99.8146 139.318C99.8146 139.943 99.7034 140.459 99.4808 140.866C99.263 141.274 98.9742 141.596 98.6143 141.832C98.2592 142.069 97.8733 142.244 97.4567 142.358V142.5C97.9018 142.528 98.3492 142.685 98.799 142.969C99.2488 143.253 99.6252 143.66 99.9283 144.19C100.231 144.721 100.383 145.369 100.383 146.136C100.383 146.866 100.217 147.521 99.8857 148.104C99.5542 148.686 99.031 149.148 98.3161 149.489C97.6011 149.83 96.6707 150 95.5249 150H90.2692ZM92.0305 148.438H95.5249C96.6754 148.438 97.4922 148.215 97.9751 147.77C98.4628 147.32 98.7067 146.776 98.7067 146.136C98.7067 145.644 98.5812 145.189 98.3303 144.773C98.0793 144.351 97.7218 144.015 97.2578 143.764C96.7938 143.509 96.2446 143.381 95.6101 143.381H92.0305V148.438ZM92.0305 141.847H95.2976C95.8279 141.847 96.3061 141.742 96.7322 141.534C97.1631 141.326 97.504 141.032 97.755 140.653C98.0107 140.275 98.1385 139.83 98.1385 139.318C98.1385 138.679 97.916 138.137 97.4709 137.692C97.0258 137.242 96.3203 137.017 95.3544 137.017H92.0305V141.847Z"></path>
<path fill="black" d="M38.2116 50H35.5695C35.4133 49.2401 35.1398 48.5724 34.7492 47.9972C34.3657 47.4219 33.8969 46.9389 33.343 46.5483C32.7961 46.1506 32.1888 45.8523 31.5212 45.6534C30.8536 45.4545 30.1576 45.3551 29.4332 45.3551C28.1121 45.3551 26.9154 45.6889 25.843 46.3565C24.7776 47.0241 23.9289 48.0078 23.2968 49.3075C22.6718 50.6072 22.3593 52.2017 22.3593 54.0909C22.3593 55.9801 22.6718 57.5746 23.2968 58.8743C23.9289 60.174 24.7776 61.1577 25.843 61.8253C26.9154 62.4929 28.1121 62.8267 29.4332 62.8267C30.1576 62.8267 30.8536 62.7273 31.5212 62.5284C32.1888 62.3295 32.7961 62.0348 33.343 61.6442C33.8969 61.2464 34.3657 60.7599 34.7492 60.1847C35.1398 59.6023 35.4133 58.9347 35.5695 58.1818H38.2116C38.0127 59.2969 37.6505 60.2947 37.1249 61.1754C36.5993 62.0561 35.9459 62.8054 35.1647 63.4233C34.3834 64.0341 33.5063 64.4993 32.5333 64.8189C31.5674 65.1385 30.534 65.2983 29.4332 65.2983C27.5724 65.2983 25.9175 64.8438 24.4687 63.9347C23.0198 63.0256 21.8799 61.733 21.0489 60.0568C20.218 58.3807 19.8025 56.392 19.8025 54.0909C19.8025 51.7898 20.218 49.8011 21.0489 48.125C21.8799 46.4489 23.0198 45.1562 24.4687 44.2472C25.9175 43.3381 27.5724 42.8835 29.4332 42.8835C30.534 42.8835 31.5674 43.0433 32.5333 43.3629C33.5063 43.6825 34.3834 44.1513 35.1647 44.7692C35.9459 45.38 36.5993 46.1257 37.1249 47.0064C37.6505 47.88 38.0127 48.8778 38.2116 50ZM46.9553 65.3835C45.9184 65.3835 44.9774 65.1882 44.1322 64.7976C43.287 64.3999 42.6159 63.8281 42.1187 63.0824C41.6215 62.3295 41.373 61.4205 41.373 60.3551C41.373 59.4176 41.5576 58.6577 41.9269 58.0753C42.2963 57.4858 42.7899 57.0241 43.4078 56.6903C44.0257 56.3565 44.7075 56.108 45.4532 55.9446C46.2061 55.7741 46.9624 55.6392 47.7224 55.5398C48.7167 55.4119 49.5228 55.3161 50.1407 55.2521C50.7657 55.1811 51.2203 55.0639 51.5044 54.9006C51.7955 54.7372 51.9411 54.4531 51.9411 54.0483V53.9631C51.9411 52.9119 51.6535 52.0952 51.0782 51.5128C50.51 50.9304 49.6471 50.6392 48.4894 50.6392C47.2892 50.6392 46.3481 50.902 45.6663 51.4276C44.9845 51.9531 44.5051 52.5142 44.2281 53.1108L41.8417 52.2585C42.2678 51.2642 42.836 50.4901 43.5463 49.9361C44.2636 49.375 45.0448 48.9844 45.89 48.7642C46.7423 48.5369 47.5803 48.4233 48.4042 48.4233C48.9298 48.4233 49.5335 48.4872 50.2153 48.6151C50.9042 48.7358 51.5683 48.9879 52.2075 49.3714C52.8538 49.755 53.39 50.3338 53.8161 51.108C54.2423 51.8821 54.4553 52.919 54.4553 54.2188V65H51.9411V62.7841H51.8133C51.6428 63.1392 51.3588 63.5192 50.961 63.924C50.5633 64.3288 50.0342 64.6733 49.3737 64.9574C48.7132 65.2415 47.907 65.3835 46.9553 65.3835ZM47.3389 63.125C48.3332 63.125 49.1713 62.9297 49.8531 62.5391C50.542 62.1484 51.0605 61.6442 51.4085 61.0263C51.7636 60.4084 51.9411 59.7585 51.9411 59.0767V56.7756C51.8346 56.9034 51.6002 57.0206 51.238 57.1271C50.8829 57.2266 50.471 57.3153 50.0022 57.3935C49.5406 57.4645 49.0896 57.5284 48.6492 57.5852C48.216 57.6349 47.8644 57.6776 47.5945 57.7131C46.9411 57.7983 46.3303 57.9368 45.7622 58.1286C45.2011 58.3132 44.7465 58.5937 44.3985 58.9702C44.0576 59.3395 43.8872 59.8437 43.8872 60.483C43.8872 61.3565 44.2103 62.017 44.8566 62.4645C45.51 62.9048 46.3374 63.125 47.3389 63.125ZM59.0443 65V48.6364H61.4733V51.108H61.6437C61.942 50.2983 62.4818 49.6413 63.2631 49.1371C64.0443 48.6328 64.925 48.3807 65.9051 48.3807C66.0898 48.3807 66.3206 48.3842 66.5976 48.3913C66.8746 48.3984 67.0841 48.4091 67.2261 48.4233V50.9801C67.1409 50.9588 66.9456 50.9268 66.6402 50.8842C66.3419 50.8345 66.0258 50.8097 65.692 50.8097C64.8966 50.8097 64.1863 50.9766 63.5613 51.3104C62.9434 51.6371 62.4534 52.0916 62.0912 52.674C61.7361 53.2493 61.5585 53.9062 61.5585 54.6449V65H59.0443ZM70.5473 65V43.1818H73.0615V51.2358H73.2746C73.4593 50.9517 73.7149 50.5895 74.0416 50.1491C74.3754 49.7017 74.8513 49.304 75.4692 48.956C76.0942 48.6009 76.9394 48.4233 78.0047 48.4233C79.3825 48.4233 80.597 48.7678 81.6482 49.4567C82.6993 50.1456 83.5196 51.1222 84.1091 52.3864C84.6986 53.6506 84.9933 55.142 84.9933 56.8608C84.9933 58.5938 84.6986 60.0959 84.1091 61.3672C83.5196 62.6314 82.7029 63.6115 81.6588 64.3075C80.6148 64.9964 79.411 65.3409 78.0473 65.3409C76.9962 65.3409 76.1546 65.1669 75.5225 64.8189C74.8904 64.4638 74.4039 64.0625 74.0629 63.6151C73.722 63.1605 73.4593 62.7841 73.2746 62.4858H72.9763V65H70.5473ZM73.0189 56.8182C73.0189 58.054 73.2 59.1442 73.5622 60.0888C73.9244 61.0263 74.4536 61.7614 75.1496 62.294C75.8456 62.8196 76.6979 63.0824 77.7064 63.0824C78.7575 63.0824 79.6347 62.8054 80.3378 62.2514C81.048 61.6903 81.5807 60.9375 81.9358 59.9929C82.298 59.0412 82.4791 57.983 82.4791 56.8182C82.4791 55.6676 82.3016 54.6307 81.9465 53.7074C81.5985 52.777 81.0693 52.0419 80.3591 51.5021C79.656 50.9553 78.7718 50.6818 77.7064 50.6818C76.6837 50.6818 75.8243 50.9411 75.1283 51.4595C74.4323 51.9709 73.9067 52.6882 73.5516 53.6115C73.1965 54.5277 73.0189 55.5966 73.0189 56.8182ZM95.4869 65.3409C94.0097 65.3409 92.7135 64.9893 91.5985 64.2862C90.4905 63.5831 89.624 62.5994 88.999 61.3352C88.3811 60.071 88.0722 58.5937 88.0722 56.9034C88.0722 55.1989 88.3811 53.7109 88.999 52.4396C89.624 51.1683 90.4905 50.1811 91.5985 49.478C92.7135 48.7749 94.0097 48.4233 95.4869 48.4233C96.9642 48.4233 98.2568 48.7749 99.3648 49.478C100.48 50.1811 101.346 51.1683 101.964 52.4396C102.589 53.7109 102.902 55.1989 102.902 56.9034C102.902 58.5937 102.589 60.071 101.964 61.3352C101.346 62.5994 100.48 63.5831 99.3648 64.2862C98.2568 64.9893 96.9642 65.3409 95.4869 65.3409ZM95.4869 63.0824C96.6091 63.0824 97.5324 62.7947 98.2568 62.2195C98.9813 61.6442 99.5175 60.8878 99.8655 59.9503C100.214 59.0128 100.388 57.9972 100.388 56.9034C100.388 55.8097 100.214 54.7905 99.8655 53.8459C99.5175 52.9013 98.9813 52.1378 98.2568 51.5554C97.5324 50.973 96.6091 50.6818 95.4869 50.6818C94.3648 50.6818 93.4415 50.973 92.7171 51.5554C91.9926 52.1378 91.4564 52.9013 91.1084 53.8459C90.7604 54.7905 90.5864 55.8097 90.5864 56.9034C90.5864 57.9972 90.7604 59.0128 91.1084 59.9503C91.4564 60.8878 91.9926 61.6442 92.7171 62.2195C93.4415 62.7947 94.3648 63.0824 95.4869 63.0824ZM109.254 55.1562V65H106.74V48.6364H109.169V51.1932H109.382C109.765 50.3622 110.348 49.6946 111.129 49.1903C111.91 48.679 112.919 48.4233 114.154 48.4233C115.262 48.4233 116.232 48.6506 117.063 49.1051C117.894 49.5526 118.54 50.2344 119.002 51.1506C119.463 52.0597 119.694 53.2102 119.694 54.6023V65H117.18V54.7727C117.18 53.4872 116.846 52.4858 116.179 51.7685C115.511 51.044 114.595 50.6818 113.43 50.6818C112.627 50.6818 111.91 50.8558 111.278 51.2038C110.653 51.5518 110.159 52.0597 109.797 52.7273C109.435 53.3949 109.254 54.2045 109.254 55.1562ZM27.2838 101.341C25.9202 101.341 24.7164 100.996 23.6723 100.308C22.6283 99.6115 21.8115 98.6314 21.222 97.3672C20.6325 96.0959 20.3378 94.5938 20.3378 92.8608C20.3378 91.142 20.6325 89.6506 21.222 88.3864C21.8115 87.1222 22.6318 86.1456 23.683 85.4567C24.7341 84.7678 25.9486 84.4233 27.3264 84.4233C28.3918 84.4233 29.2334 84.6009 29.8513 84.956C30.4763 85.304 30.9521 85.7017 31.2789 86.1491C31.6127 86.5895 31.8719 86.9517 32.0566 87.2358H32.2696V79.1818H34.7838V101H32.3548V98.4858H32.0566C31.8719 98.7841 31.6091 99.1605 31.2682 99.6151C30.9273 100.062 30.4408 100.464 29.8087 100.819C29.1766 101.167 28.335 101.341 27.2838 101.341ZM27.6247 99.0824C28.6333 99.0824 29.4855 98.8196 30.1816 98.294C30.8776 97.7614 31.4067 97.0263 31.7689 96.0888C32.1311 95.1442 32.3122 94.054 32.3122 92.8182C32.3122 91.5966 32.1347 90.5277 31.7796 89.6115C31.4245 88.6882 30.8989 87.9709 30.2029 87.4595C29.5068 86.9411 28.6475 86.6818 27.6247 86.6818C26.5594 86.6818 25.6716 86.9553 24.9614 87.5021C24.2583 88.0419 23.7291 88.777 23.374 89.7074C23.026 90.6307 22.852 91.6676 22.852 92.8182C22.852 93.983 23.0296 95.0412 23.3847 95.9929C23.7469 96.9375 24.2796 97.6903 24.9827 98.2514C25.6929 98.8054 26.5736 99.0824 27.6247 99.0824ZM39.7377 101V84.6364H42.2519V101H39.7377ZM41.0161 81.9091C40.526 81.9091 40.1034 81.7422 39.7483 81.4084C39.4003 81.0746 39.2263 80.6733 39.2263 80.2045C39.2263 79.7358 39.4003 79.3345 39.7483 79.0007C40.1034 78.6669 40.526 78.5 41.0161 78.5C41.5061 78.5 41.9252 78.6669 42.2732 79.0007C42.6283 79.3345 42.8058 79.7358 42.8058 80.2045C42.8058 80.6733 42.6283 81.0746 42.2732 81.4084C41.9252 81.7422 41.5061 81.9091 41.0161 81.9091ZM53.5045 101.341C52.0273 101.341 50.7311 100.989 49.616 100.286C48.5081 99.5831 47.6416 98.5994 47.0166 97.3352C46.3987 96.071 46.0898 94.5937 46.0898 92.9034C46.0898 91.1989 46.3987 89.7109 47.0166 88.4396C47.6416 87.1683 48.5081 86.1811 49.616 85.478C50.7311 84.7749 52.0273 84.4233 53.5045 84.4233C54.9818 84.4233 56.2744 84.7749 57.3824 85.478C58.4974 86.1811 59.3639 87.1683 59.9818 88.4396C60.6068 89.7109 60.9193 91.1989 60.9193 92.9034C60.9193 94.5937 60.6068 96.071 59.9818 97.3352C59.3639 98.5994 58.4974 99.5831 57.3824 100.286C56.2744 100.989 54.9818 101.341 53.5045 101.341ZM53.5045 99.0824C54.6267 99.0824 55.55 98.7947 56.2744 98.2195C56.9988 97.6442 57.5351 96.8878 57.8831 95.9503C58.2311 95.0128 58.4051 93.9972 58.4051 92.9034C58.4051 91.8097 58.2311 90.7905 57.8831 89.8459C57.5351 88.9013 56.9988 88.1378 56.2744 87.5554C55.55 86.973 54.6267 86.6818 53.5045 86.6818C52.3824 86.6818 51.4591 86.973 50.7346 87.5554C50.0102 88.1378 49.474 88.9013 49.126 89.8459C48.778 90.7905 48.604 91.8097 48.604 92.9034C48.604 93.9972 48.778 95.0128 49.126 95.9503C49.474 96.8878 50.0102 97.6442 50.7346 98.2195C51.4591 98.7947 52.3824 99.0824 53.5045 99.0824ZM65.9584 84.6364L69.8788 91.3267L73.7993 84.6364H76.697L71.4129 92.8182L76.697 101H73.7993L69.8788 94.6506L65.9584 101H63.0606L68.2595 92.8182L63.0606 84.6364H65.9584ZM80.2845 101V84.6364H82.7987V101H80.2845ZM81.5629 81.9091C81.0729 81.9091 80.6503 81.7422 80.2952 81.4084C79.9472 81.0746 79.7732 80.6733 79.7732 80.2045C79.7732 79.7358 79.9472 79.3345 80.2952 79.0007C80.6503 78.6669 81.0729 78.5 81.5629 78.5C82.053 78.5 82.472 78.6669 82.82 79.0007C83.1752 79.3345 83.3527 79.7358 83.3527 80.2045C83.3527 80.6733 83.1752 81.0746 82.82 81.4084C82.472 81.7422 82.053 81.9091 81.5629 81.9091ZM93.5827 101.341C92.219 101.341 91.0152 100.996 89.9711 100.308C88.9271 99.6115 88.1104 98.6314 87.5209 97.3672C86.9314 96.0959 86.6366 94.5938 86.6366 92.8608C86.6366 91.142 86.9314 89.6506 87.5209 88.3864C88.1104 87.1222 88.9307 86.1456 89.9818 85.4567C91.0329 84.7678 92.2474 84.4233 93.6253 84.4233C94.6906 84.4233 95.5322 84.6009 96.1501 84.956C96.7751 85.304 97.251 85.7017 97.5777 86.1491C97.9115 86.5895 98.1707 86.9517 98.3554 87.2358H98.5684V79.1818H101.083V101H98.6537V98.4858H98.3554C98.1707 98.7841 97.9079 99.1605 97.567 99.6151C97.2261 100.062 96.7396 100.464 96.1075 100.819C95.4754 101.167 94.6338 101.341 93.5827 101.341ZM93.9236 99.0824C94.9321 99.0824 95.7844 98.8196 96.4804 98.294C97.1764 97.7614 97.7055 97.0263 98.0677 96.0888C98.43 95.1442 98.6111 94.054 98.6111 92.8182C98.6111 91.5966 98.4335 90.5277 98.0784 89.6115C97.7233 88.6882 97.1977 87.9709 96.5017 87.4595C95.8057 86.9411 94.9463 86.6818 93.9236 86.6818C92.8582 86.6818 91.9704 86.9553 91.2602 87.5021C90.5571 88.0419 90.028 88.777 89.6729 89.7074C89.3248 90.6307 89.1508 91.6676 89.1508 92.8182C89.1508 93.983 89.3284 95.0412 89.6835 95.9929C90.0457 96.9375 90.5784 97.6903 91.2815 98.2514C91.9917 98.8054 92.8724 99.0824 93.9236 99.0824ZM112.897 101.341C111.321 101.341 109.96 100.993 108.817 100.297C107.681 99.5938 106.804 98.6136 106.186 97.3565C105.575 96.0923 105.269 94.6222 105.269 92.946C105.269 91.2699 105.575 89.7926 106.186 88.5142C106.804 87.2287 107.663 86.2273 108.764 85.5099C109.872 84.7855 111.164 84.4233 112.642 84.4233C113.494 84.4233 114.335 84.5653 115.166 84.8494C115.997 85.1335 116.754 85.5952 117.436 86.2344C118.117 86.8665 118.661 87.7045 119.066 88.7486C119.47 89.7926 119.673 91.0781 119.673 92.6051V93.6705H107.059V91.4972H117.116C117.116 90.5739 116.931 89.75 116.562 89.0256C116.2 88.3011 115.681 87.7294 115.007 87.3104C114.339 86.8913 113.551 86.6818 112.642 86.6818C111.64 86.6818 110.774 86.9304 110.042 87.4276C109.318 87.9176 108.76 88.5568 108.37 89.3452C107.979 90.1335 107.784 90.9787 107.784 91.8807V93.3295C107.784 94.5653 107.997 95.6129 108.423 96.4723C108.856 97.3246 109.456 97.9744 110.223 98.4219C110.99 98.8622 111.882 99.0824 112.897 99.0824C113.558 99.0824 114.154 98.9901 114.687 98.8054C115.227 98.6136 115.692 98.3295 116.083 97.9531C116.473 97.5696 116.775 97.0937 116.988 96.5256L119.417 97.2074C119.161 98.0312 118.732 98.7557 118.128 99.3807C117.524 99.9986 116.779 100.482 115.891 100.83C115.003 101.17 114.005 101.341 112.897 101.341Z"></path>
</svg>
