<svg xmlns="http://www.w3.org/2000/svg" fill="none" viewBox="0 0 139 164" height="164" width="139">
<path fill="#EEC638" d="M0 20C0 8.95431 8.95431 0 20 0H119C130.046 0 139 8.95431 139 20V144C139 155.046 130.046 164 119 164H20C8.95431 164 0 155.046 0 144V20Z"></path>
<path fill="black" d="M36.2102 135.455V150H34.5341V135.455H36.2102ZM43.854 150.227C42.8029 150.227 41.8962 149.995 41.1339 149.531C40.3763 149.062 39.7915 148.409 39.3796 147.571C38.9724 146.728 38.7688 145.748 38.7688 144.631C38.7688 143.513 38.9724 142.528 39.3796 141.676C39.7915 140.819 40.3645 140.152 41.0984 139.673C41.837 139.19 42.6987 138.949 43.6836 138.949C44.2518 138.949 44.8129 139.044 45.3668 139.233C45.9208 139.422 46.4251 139.73 46.8796 140.156C47.3342 140.578 47.6964 141.136 47.9663 141.832C48.2362 142.528 48.3711 143.385 48.3711 144.403V145.114H39.962V143.665H46.6665C46.6665 143.049 46.5434 142.5 46.2972 142.017C46.0558 141.534 45.7101 141.153 45.2603 140.874C44.8152 140.594 44.2897 140.455 43.6836 140.455C43.016 140.455 42.4383 140.62 41.9506 140.952C41.4677 141.278 41.096 141.705 40.8356 142.23C40.5752 142.756 40.445 143.319 40.445 143.92V144.886C40.445 145.71 40.587 146.409 40.8711 146.982C41.1599 147.55 41.56 147.983 42.0714 148.281C42.5827 148.575 43.177 148.722 43.854 148.722C44.2944 148.722 44.6921 148.66 45.0472 148.537C45.4071 148.409 45.7172 148.22 45.9776 147.969C46.238 147.713 46.4393 147.396 46.5813 147.017L48.2006 147.472C48.0302 148.021 47.7437 148.504 47.3413 148.92C46.9388 149.332 46.4416 149.654 45.8498 149.886C45.2579 150.114 44.5927 150.227 43.854 150.227ZM55.6651 139.091V140.511H50.0117V139.091H55.6651ZM51.6594 136.477H53.3356V146.875C53.3356 147.348 53.4042 147.704 53.5415 147.94C53.6836 148.172 53.8635 148.329 54.0813 148.409C54.3039 148.485 54.5382 148.523 54.7844 148.523C54.9691 148.523 55.1206 148.513 55.239 148.494C55.3574 148.471 55.4521 148.452 55.5231 148.438L55.864 149.943C55.7504 149.986 55.5917 150.028 55.3881 150.071C55.1845 150.118 54.9265 150.142 54.614 150.142C54.1405 150.142 53.6765 150.04 53.2219 149.837C52.7721 149.633 52.3981 149.323 52.0998 148.906C51.8062 148.49 51.6594 147.964 51.6594 147.33V136.477ZM62.9308 139.091V140.511H57.2773V139.091H62.9308ZM58.9251 136.477H60.6012V146.875C60.6012 147.348 60.6699 147.704 60.8072 147.94C60.9492 148.172 61.1291 148.329 61.3469 148.409C61.5695 148.485 61.8039 148.523 62.0501 148.523C62.2347 148.523 62.3862 148.513 62.5046 148.494C62.623 148.471 62.7177 148.452 62.7887 148.438L63.1296 149.943C63.016 149.986 62.8574 150.028 62.6538 150.071C62.4502 150.118 62.1921 150.142 61.8796 150.142C61.4061 150.142 60.9421 150.04 60.4876 149.837C60.0378 149.633 59.6637 149.323 59.3654 148.906C59.0719 148.49 58.9251 147.964 58.9251 147.33V136.477ZM69.9087 150.227C68.8576 150.227 67.9509 149.995 67.1886 149.531C66.431 149.062 65.8462 148.409 65.4343 147.571C65.0271 146.728 64.8235 145.748 64.8235 144.631C64.8235 143.513 65.0271 142.528 65.4343 141.676C65.8462 140.819 66.4192 140.152 67.1531 139.673C67.8917 139.19 68.7534 138.949 69.7383 138.949C70.3065 138.949 70.8675 139.044 71.4215 139.233C71.9755 139.422 72.4798 139.73 72.9343 140.156C73.3888 140.578 73.7511 141.136 74.021 141.832C74.2908 142.528 74.4258 143.385 74.4258 144.403V145.114H66.0167V143.665H72.7212C72.7212 143.049 72.5981 142.5 72.3519 142.017C72.1104 141.534 71.7648 141.153 71.315 140.874C70.8699 140.594 70.3443 140.455 69.7383 140.455C69.0707 140.455 68.493 140.62 68.0053 140.952C67.5224 141.278 67.1507 141.705 66.8903 142.23C66.6299 142.756 66.4996 143.319 66.4996 143.92V144.886C66.4996 145.71 66.6417 146.409 66.9258 146.982C67.2146 147.55 67.6147 147.983 68.1261 148.281C68.6374 148.575 69.2317 148.722 69.9087 148.722C70.3491 148.722 70.7468 148.66 71.1019 148.537C71.4618 148.409 71.7719 148.22 72.0323 147.969C72.2927 147.713 72.494 147.396 72.636 147.017L74.2553 147.472C74.0849 148.021 73.7984 148.504 73.396 148.92C72.9935 149.332 72.4963 149.654 71.9045 149.886C71.3126 150.114 70.6474 150.227 69.9087 150.227ZM76.9755 150V139.091H78.5948V140.739H78.7085C78.9073 140.199 79.2672 139.761 79.788 139.425C80.3088 139.089 80.896 138.92 81.5494 138.92C81.6725 138.92 81.8263 138.923 82.011 138.928C82.1957 138.932 82.3353 138.939 82.43 138.949V140.653C82.3732 140.639 82.243 140.618 82.0394 140.589C81.8406 140.556 81.6299 140.54 81.4073 140.54C80.877 140.54 80.4035 140.651 79.9869 140.874C79.5749 141.091 79.2482 141.394 79.0067 141.783C78.77 142.166 78.6516 142.604 78.6516 143.097V150H76.9755ZM90.8658 150H89.0192L94.3601 135.455H96.1783L101.519 150H99.6726L95.326 137.756H95.2124L90.8658 150ZM91.5476 144.318H98.9908V145.881H91.5476V144.318Z"></path>
<path fill="black" d="M49.0641 58.6364C48.9363 57.5568 48.4178 56.7188 47.5087 56.1222C46.5996 55.5256 45.4846 55.2273 44.1635 55.2273C43.1976 55.2273 42.3525 55.3835 41.628 55.696C40.9107 56.0085 40.3496 56.4382 39.9448 56.9851C39.5471 57.532 39.3482 58.1534 39.3482 58.8494C39.3482 59.4318 39.4867 59.9325 39.7637 60.3516C40.0478 60.7635 40.41 61.108 40.8503 61.3849C41.2907 61.6548 41.7523 61.8786 42.2353 62.0561C42.7182 62.2266 43.1621 62.3651 43.5669 62.4716L45.7828 63.0682C46.351 63.2173 46.9831 63.4233 47.6792 63.6861C48.3823 63.9489 49.0534 64.3075 49.6926 64.7621C50.339 65.2095 50.8716 65.7848 51.2907 66.4879C51.7097 67.1911 51.9192 68.054 51.9192 69.0767C51.9192 70.2557 51.6103 71.321 50.9924 72.2727C50.3816 73.2244 49.4867 73.9808 48.3077 74.5419C47.1358 75.103 45.7118 75.3835 44.0357 75.3835C42.4732 75.3835 41.1202 75.1314 39.9767 74.6271C38.8404 74.1229 37.9455 73.4197 37.2921 72.5178C36.6458 71.6158 36.28 70.5682 36.1948 69.375H38.9221C38.9931 70.1989 39.2701 70.8807 39.753 71.4205C40.2431 71.9531 40.861 72.3509 41.6067 72.6136C42.3596 72.8693 43.1692 72.9972 44.0357 72.9972C45.0442 72.9972 45.9498 72.8338 46.7523 72.5071C47.5549 72.1733 48.1905 71.7116 48.6593 71.1222C49.128 70.5256 49.3624 69.8295 49.3624 69.0341C49.3624 68.3097 49.16 67.7202 48.7551 67.2656C48.3503 66.8111 47.8176 66.4418 47.1571 66.1577C46.4966 65.8736 45.7828 65.625 45.0158 65.4119L42.3311 64.6449C40.6266 64.1548 39.2772 63.4553 38.2828 62.5462C37.2885 61.6371 36.7914 60.4474 36.7914 58.9773C36.7914 57.7557 37.1216 56.6903 37.7821 55.7812C38.4498 54.8651 39.3446 54.1548 40.4668 53.6506C41.5961 53.1392 42.8567 52.8835 44.2488 52.8835C45.655 52.8835 46.905 53.1357 47.9988 53.6399C49.0925 54.1371 49.959 54.8189 50.5982 55.6854C51.2445 56.5518 51.5854 57.5355 51.6209 58.6364H49.0641ZM63.0387 58.6364V60.767H54.5586V58.6364H63.0387ZM57.0302 54.7159H59.5444V70.3125C59.5444 71.0227 59.6474 71.5554 59.8533 71.9105C60.0664 72.2585 60.3363 72.4929 60.663 72.6136C60.9968 72.7273 61.3484 72.7841 61.7177 72.7841C61.9947 72.7841 62.2219 72.7699 62.3995 72.7415C62.5771 72.706 62.7191 72.6776 62.8256 72.6562L63.337 74.9148C63.1665 74.9787 62.9286 75.0426 62.6232 75.1065C62.3178 75.1776 61.9308 75.2131 61.462 75.2131C60.7518 75.2131 60.0558 75.0604 59.3739 74.755C58.6992 74.4496 58.1381 73.9844 57.6907 73.3594C57.2504 72.7344 57.0302 71.946 57.0302 70.9943V54.7159ZM71.636 75.3835C70.5991 75.3835 69.658 75.1882 68.8129 74.7976C67.9677 74.3999 67.2965 73.8281 66.7994 73.0824C66.3022 72.3295 66.0536 71.4205 66.0536 70.3551C66.0536 69.4176 66.2383 68.6577 66.6076 68.0753C66.9769 67.4858 67.4705 67.0241 68.0884 66.6903C68.7063 66.3565 69.3881 66.108 70.1339 65.9446C70.8867 65.7741 71.6431 65.6392 72.4031 65.5398C73.3974 65.4119 74.2035 65.3161 74.8214 65.2521C75.4464 65.1811 75.9009 65.0639 76.185 64.9006C76.4762 64.7372 76.6218 64.4531 76.6218 64.0483V63.9631C76.6218 62.9119 76.3342 62.0952 75.7589 61.5128C75.1907 60.9304 74.3278 60.6392 73.1701 60.6392C71.9698 60.6392 71.0288 60.902 70.3469 61.4276C69.6651 61.9531 69.1857 62.5142 68.9087 63.1108L66.5224 62.2585C66.9485 61.2642 67.5167 60.4901 68.2269 59.9361C68.9442 59.375 69.7255 58.9844 70.5707 58.7642C71.4229 58.5369 72.261 58.4233 73.0849 58.4233C73.6104 58.4233 74.2141 58.4872 74.896 58.6151C75.5849 58.7358 76.2489 58.9879 76.8881 59.3714C77.5344 59.755 78.0707 60.3338 78.4968 61.108C78.9229 61.8821 79.136 62.919 79.136 64.2188V75H76.6218V72.7841H76.494C76.3235 73.1392 76.0394 73.5192 75.6417 73.924C75.244 74.3288 74.7148 74.6733 74.0543 74.9574C73.3938 75.2415 72.5877 75.3835 71.636 75.3835ZM72.0195 73.125C73.0138 73.125 73.8519 72.9297 74.5337 72.5391C75.2227 72.1484 75.7411 71.6442 76.0891 71.0263C76.4442 70.4084 76.6218 69.7585 76.6218 69.0767V66.7756C76.5153 66.9034 76.2809 67.0206 75.9187 67.1271C75.5636 67.2266 75.1516 67.3153 74.6829 67.3935C74.2212 67.4645 73.7702 67.5284 73.3299 67.5852C72.8967 67.6349 72.5451 67.6776 72.2752 67.7131C71.6218 67.7983 71.011 67.9368 70.4428 68.1286C69.8817 68.3132 69.4272 68.5937 69.0792 68.9702C68.7383 69.3395 68.5678 69.8437 68.5678 70.483C68.5678 71.3565 68.891 72.017 69.5373 72.4645C70.1907 72.9048 71.0181 73.125 72.0195 73.125ZM83.725 75V58.6364H86.1539V61.108H86.3244C86.6227 60.2983 87.1625 59.6413 87.9437 59.1371C88.725 58.6328 89.6056 58.3807 90.5858 58.3807C90.7704 58.3807 91.0012 58.3842 91.2782 58.3913C91.5552 58.3984 91.7647 58.4091 91.9068 58.4233V60.9801C91.8216 60.9588 91.6262 60.9268 91.3208 60.8842C91.0226 60.8345 90.7065 60.8097 90.3727 60.8097C89.5772 60.8097 88.867 60.9766 88.242 61.3104C87.6241 61.6371 87.1341 62.0916 86.7718 62.674C86.4167 63.2493 86.2392 63.9062 86.2392 64.6449V75H83.725ZM103.029 58.6364V60.767H94.5488V58.6364H103.029ZM97.0204 54.7159H99.5346V70.3125C99.5346 71.0227 99.6376 71.5554 99.8436 71.9105C100.057 72.2585 100.327 72.4929 100.653 72.6136C100.987 72.7273 101.339 72.7841 101.708 72.7841C101.985 72.7841 102.212 72.7699 102.39 72.7415C102.567 72.706 102.709 72.6776 102.816 72.6562L103.327 74.9148C103.157 74.9787 102.919 75.0426 102.613 75.1065C102.308 75.1776 101.921 75.2131 101.452 75.2131C100.742 75.2131 100.046 75.0604 99.3642 74.755C98.6895 74.4496 98.1284 73.9844 97.6809 73.3594C97.2406 72.7344 97.0204 71.946 97.0204 70.9943V54.7159Z"></path>
</svg>
