<svg version="1.1" xmlns="http://www.w3.org/2000/svg" xmlns:xlink="http://www.w3.org/1999/xlink" width="238.99282" height="35.83203" viewBox="0,0,238.99282,35.83203"><g transform="translate(-120.50359,-162.08398)"><g data-paper-data="{&quot;isPaintingLayer&quot;:true}" fill="#ffffff" fill-rule="nonzero" stroke="none" stroke-width="1" stroke-linecap="butt" stroke-linejoin="miter" stroke-miterlimit="10" stroke-dasharray="" stroke-dashoffset="0" style="mix-blend-mode: normal"><path d="M123.79814,174.50912l-3.29455,-12.04862h1.48254l2.51796,9.81303h0.11766l2.56507,-9.81303h1.64726l2.56503,9.81303h0.11766l2.51799,-9.81303h1.48253l-3.29453,12.04862h-1.5061l-2.65915,-9.60125h-0.09412l-2.65919,9.60125zM138.53532,169.07313v5.436h-1.38841v-12.04862h1.38841v4.42411h0.11769c0.21178,-0.46674 0.52945,-0.83735 0.95304,-1.11191c0.42753,-0.27846 0.99622,-0.41769 1.70611,-0.41769c0.61577,0 1.15505,0.12353 1.61786,0.37061c0.4628,0.24319 0.82168,0.61774 1.0766,1.12368c0.25886,0.50204 0.38829,1.14132 0.38829,1.91789v5.74193h-1.38841v-5.64778c0,-0.71776 -0.18631,-1.27271 -0.55889,-1.66493c-0.36868,-0.39612 -0.88053,-0.5942 -1.53551,-0.5942c-0.45497,0 -0.86286,0.09609 -1.22367,0.28826c-0.35691,0.19221 -0.63931,0.47264 -0.84719,0.84129c-0.20394,0.36868 -0.30593,0.81581 -0.30593,1.34136zM149.59411,174.7209c-0.57263,0 -1.09227,-0.10786 -1.55901,-0.32357c-0.46674,-0.21961 -0.83735,-0.53535 -1.11191,-0.94718c-0.27456,-0.41572 -0.41182,-0.91777 -0.41182,-1.50606c0,-0.51771 0.10199,-0.93737 0.30593,-1.25898c0.20394,-0.32554 0.47654,-0.5805 0.81775,-0.76484c0.34121,-0.18431 0.71772,-0.3216 1.12955,-0.41179c0.41576,-0.09415 0.83345,-0.16867 1.25311,-0.22358c0.54909,-0.07058 0.99425,-0.12353 1.33546,-0.15883c0.34514,-0.03921 0.59617,-0.10392 0.75303,-0.19414c0.16084,-0.09022 0.24122,-0.24709 0.24122,-0.47064v-0.04708c0,-0.58046 -0.15883,-1.03149 -0.47654,-1.3531c-0.31377,-0.32164 -0.79027,-0.48244 -1.42958,-0.48244c-0.66285,0 -1.18253,0.14513 -1.55904,0.43536c-0.37652,0.29023 -0.64124,0.60007 -0.79421,0.92954l-1.31782,-0.47067c0.23532,-0.54909 0.54909,-0.97658 0.94131,-1.28252c0.39612,-0.30983 0.82755,-0.52555 1.29429,-0.64714c0.47064,-0.12549 0.93344,-0.18824 1.38841,-0.18824c0.29023,0 0.6236,0.03527 1.00012,0.10589c0.38045,0.06668 0.74717,0.20591 1.10014,0.41769c0.35691,0.21181 0.65304,0.53145 0.88836,0.95894c0.23532,0.42753 0.35298,1.00015 0.35298,1.71788v5.95371h-1.38841v-1.2237h-0.07058c-0.09415,0.19611 -0.25102,0.40596 -0.47067,0.62951c-0.21961,0.22355 -0.51181,0.41379 -0.87656,0.57066c-0.36478,0.1569 -0.80991,0.23532 -1.3355,0.23532zM149.80593,173.4737c0.54909,0 1.01189,-0.10786 1.38841,-0.32357c0.38045,-0.21571 0.66675,-0.49418 0.85892,-0.83542c0.19611,-0.34121 0.29417,-0.70009 0.29417,-1.0766v-1.27075c-0.05881,0.07062 -0.18824,0.13533 -0.38829,0.19414c-0.19611,0.05491 -0.42359,0.10392 -0.68245,0.14707c-0.25492,0.03924 -0.50398,0.07455 -0.74713,0.10592c-0.23925,0.02744 -0.4334,0.05098 -0.58243,0.07058c-0.36085,0.04708 -0.69815,0.12356 -1.01192,0.22945c-0.30983,0.10196 -0.56086,0.25689 -0.75303,0.46477c-0.18824,0.20394 -0.2824,0.48241 -0.2824,0.83538c0,0.48244 0.17847,0.84719 0.53539,1.09428c0.36081,0.24315 0.81775,0.36475 1.37077,0.36475zM160.19993,165.47267v1.17663h-4.6829v-1.17663zM156.88173,163.30769h1.38851v8.61286c0,0.39222 0.05695,0.68635 0.1705,0.88246c0.11769,0.19218 0.2668,0.3216 0.44731,0.38829c0.18431,0.06275 0.37828,0.09412 0.58226,0.09412c0.1529,0 0.27853,-0.00783 0.37655,-0.0235c0.09802,-0.01964 0.17671,-0.03531 0.23539,-0.04708l0.28233,1.24721c-0.09422,0.03531 -0.22538,0.07062 -0.39415,0.10592c-0.16843,0.03921 -0.38242,0.05881 -0.64128,0.05881c-0.39208,0 -0.77657,-0.08432 -1.15312,-0.25296c-0.37241,-0.16867 -0.68235,-0.42556 -0.92947,-0.7707c-0.24298,-0.34514 -0.36482,-0.78051 -0.36482,-1.30605zM166.94782,174.50912v-9.03646h1.38851v9.03646zM167.65398,163.96657c-0.27094,0 -0.50425,-0.09215 -0.70029,-0.27649c-0.19224,-0.18434 -0.28819,-0.40592 -0.28819,-0.66478c0,-0.25886 0.09595,-0.48047 0.28819,-0.66481c0.19604,-0.18434 0.42936,-0.27649 0.70029,-0.27649c0.27059,0 0.50184,0.09215 0.69408,0.27649c0.19604,0.18434 0.29406,0.40596 0.29406,0.66481c0,0.25886 -0.09802,0.48044 -0.29406,0.66478c-0.19224,0.18434 -0.42349,0.27649 -0.69408,0.27649zM177.28001,167.49644l-1.247,0.35298c-0.07869,-0.20784 -0.19432,-0.40986 -0.34721,-0.60593c-0.1491,-0.20004 -0.35308,-0.36478 -0.61194,-0.49421c-0.25886,-0.12943 -0.59019,-0.19414 -0.99436,-0.19414c-0.55292,0 -1.01368,0.1275 -1.3823,0.38242c-0.36482,0.25102 -0.54705,0.57066 -0.54705,0.95894c0,0.34514 0.12529,0.61774 0.37621,0.81775c0.25126,0.20004 0.64335,0.36671 1.17694,0.50008l1.34122,0.32944c0.80798,0.19611 1.40991,0.49614 1.80613,0.90013c0.39622,0.40005 0.59399,0.9158 0.59399,1.54724c0,0.51771 -0.14876,0.98055 -0.44696,1.38844c-0.29406,0.40789 -0.70582,0.72949 -1.23561,0.96481c-0.52945,0.23532 -1.14518,0.35301 -1.8472,0.35301c-0.92153,0 -1.68464,-0.20004 -2.28864,-0.6001c-0.604,-0.40005 -0.98607,-0.98445 -1.14691,-1.75315l1.31776,-0.32947c0.12529,0.48634 0.36275,0.85109 0.71168,1.09428c0.35308,0.24315 0.81385,0.36475 1.38264,0.36475c0.64714,0 1.16106,-0.13726 1.54141,-0.41182c0.38449,-0.27846 0.57639,-0.61183 0.57639,-1.00012c0,-0.31377 -0.10976,-0.57656 -0.32927,-0.78834c-0.21986,-0.21571 -0.55706,-0.37652 -1.01196,-0.48241l-1.5062,-0.35301c-0.82731,-0.19608 -1.43545,-0.50004 -1.82373,-0.91187c-0.38414,-0.41572 -0.57639,-0.93541 -0.57639,-1.55901c0,-0.50988 0.14323,-0.96091 0.42936,-1.35313c0.29027,-0.39222 0.68442,-0.70009 1.18246,-0.92364c0.50218,-0.22358 1.07098,-0.33534 1.70604,-0.33534c0.89426,0 1.59629,0.19611 2.10641,0.5883c0.51357,0.39222 0.87839,0.90993 1.0941,1.55314zM188.12405,165.47267v1.17663h-4.6829v-1.17663zM184.8062,163.30769h1.38816v8.61286c0,0.39222 0.05695,0.68635 0.17085,0.88246c0.11769,0.19218 0.26645,0.3216 0.44696,0.38829c0.18431,0.06275 0.37862,0.09412 0.5826,0.09412c0.1529,0 0.27819,-0.00783 0.37621,-0.0235c0.09837,-0.01964 0.17671,-0.03531 0.23539,-0.04708l0.28233,1.24721c-0.09388,0.03531 -0.22538,0.07062 -0.39415,0.10592c-0.16843,0.03921 -0.38242,0.05881 -0.64128,0.05881c-0.39208,0 -0.77657,-0.08432 -1.15278,-0.25296c-0.37275,-0.16867 -0.68269,-0.42556 -0.92981,-0.7707c-0.24298,-0.34514 -0.36447,-0.78051 -0.36447,-1.30605zM191.79534,169.07313v5.436h-1.38851v-12.04862h1.38851v4.42411h0.11735c0.21192,-0.46674 0.52979,-0.83735 0.95328,-1.11191c0.42729,-0.27846 0.99608,-0.41769 1.70604,-0.41769c0.61573,0 1.15519,0.12353 1.61768,0.37061c0.46284,0.24319 0.82178,0.61774 1.07685,1.12368c0.25886,0.50204 0.38829,1.14132 0.38829,1.91789v5.74193h-1.38851v-5.64778c0,-0.71776 -0.18638,-1.27271 -0.55879,-1.66493c-0.36861,-0.39612 -0.88046,-0.5942 -1.53554,-0.5942c-0.4549,0 -0.86286,0.09609 -1.22388,0.28826c-0.35688,0.19221 -0.6392,0.47264 -0.84698,0.84129c-0.20398,0.36868 -0.3058,0.81581 -0.3058,1.34136zM203.98336,174.6974c-0.87045,0 -1.62148,-0.19221 -2.25309,-0.57656c-0.62747,-0.38829 -1.11205,-0.92954 -1.45305,-1.62372c-0.3372,-0.69815 -0.50598,-1.51 -0.50598,-2.43564c0,-0.9256 0.16877,-1.74138 0.50598,-2.44737c0.341,-0.70989 0.81557,-1.26291 1.42371,-1.65903c0.61194,-0.40005 1.32569,-0.60007 2.14127,-0.60007c0.47077,0 0.93568,0.07842 1.39438,0.23532c0.45904,0.15687 0.87666,0.41182 1.25321,0.7648c0.37655,0.34908 0.67648,0.81188 0.90013,1.38841c0.22365,0.57656 0.33513,1.28645 0.33513,2.1297v0.5883h-6.96533v-1.20013h5.55335c0,-0.50988 -0.10182,-0.96485 -0.3058,-1.3649c-0.19984,-0.40005 -0.48631,-0.71579 -0.85906,-0.94718c-0.36861,-0.23142 -0.80384,-0.34711 -1.30602,-0.34711c-0.55292,0 -1.03129,0.13726 -1.43545,0.41182c-0.40002,0.27063 -0.70789,0.6236 -0.9236,1.05897c-0.21571,0.43533 -0.3234,0.90207 -0.3234,1.40018v0.80011c0,0.68242 0.11769,1.26094 0.35274,1.73552c0.23953,0.47064 0.57087,0.82952 0.99436,1.0766c0.42349,0.24315 0.91566,0.36475 1.47652,0.36475c0.36482,0 0.69443,-0.05098 0.98849,-0.15297c0.2982,-0.10589 0.55499,-0.26276 0.7707,-0.47064c0.21571,-0.21178 0.38242,-0.47457 0.50011,-0.78834l1.34122,0.37652c-0.14116,0.45497 -0.37828,0.85502 -0.71168,1.20016c-0.33341,0.34121 -0.74516,0.60793 -1.23561,0.80011c-0.4901,0.18824 -1.0413,0.2824 -1.65323,0.2824zM215.88492,169.07313v5.436h-1.38816v-9.03646h1.34122v1.41194h0.11769c0.21192,-0.4589 0.53325,-0.82755 0.96467,-1.10604c0.43143,-0.28236 0.98849,-0.42356 1.67084,-0.42356c0.61194,0 1.14725,0.12549 1.60629,0.37652c0.45869,0.24709 0.81557,0.6236 1.07063,1.12955c0.25506,0.50204 0.38242,1.13742 0.38242,1.90612v5.74193h-1.38851v-5.64778c0,-0.70992 -0.18431,-1.26291 -0.55292,-1.65907c-0.36861,-0.40002 -0.87459,-0.60007 -1.51794,-0.60007c-0.44316,0 -0.83939,0.09609 -1.18833,0.28826c-0.34514,0.19221 -0.61781,0.47264 -0.81764,0.84129c-0.20018,0.36868 -0.30027,0.81581 -0.30027,1.34136zM227.97631,174.6974c-0.8708,0 -1.62183,-0.19221 -2.25309,-0.57656c-0.62781,-0.38829 -1.11205,-0.92954 -1.4534,-1.62372c-0.3372,-0.69815 -0.50563,-1.51 -0.50563,-2.43564c0,-0.9256 0.16843,-1.74138 0.50563,-2.44737c0.34135,-0.70989 0.81592,-1.26291 1.42371,-1.65903c0.61194,-0.40005 1.32569,-0.60007 2.14161,-0.60007c0.47077,0 0.93534,0.07842 1.39438,0.23532c0.45869,0.15687 0.87666,0.41182 1.25287,0.7648c0.37655,0.34908 0.67682,0.81188 0.90013,1.38841c0.22365,0.57656 0.33548,1.28645 0.33548,2.1297v0.5883h-6.96567v-1.20013h5.55369c0,-0.50988 -0.10182,-0.96485 -0.3058,-1.3649c-0.20018,-0.40005 -0.48631,-0.71579 -0.85906,-0.94718c-0.36861,-0.23142 -0.80384,-0.34711 -1.30602,-0.34711c-0.55292,0 -1.03163,0.13726 -1.43545,0.41182c-0.40002,0.27063 -0.70789,0.6236 -0.9236,1.05897c-0.21571,0.43533 -0.32374,0.90207 -0.32374,1.40018v0.80011c0,0.68242 0.11769,1.26094 0.35308,1.73552c0.23918,0.47064 0.57052,0.82952 0.99436,1.0766c0.42349,0.24315 0.91566,0.36475 1.47652,0.36475c0.36482,0 0.69408,-0.05098 0.98849,-0.15297c0.29786,-0.10589 0.55499,-0.26276 0.7707,-0.47064c0.21571,-0.21178 0.38242,-0.47457 0.50011,-0.78834l1.34122,0.37652c-0.14116,0.45497 -0.37862,0.85502 -0.71203,1.20016c-0.33306,0.34121 -0.74516,0.60793 -1.23527,0.80011c-0.49045,0.18824 -1.0413,0.2824 -1.65323,0.2824zM234.62272,165.47267l2.16508,3.69458l2.16508,-3.69458h1.60008l-2.91818,4.51823l2.91818,4.51823h-1.60008l-2.16508,-3.50634l-2.16508,3.50634h-1.60008l2.8709,-4.51823l-2.8709,-4.51823zM246.46388,165.47267v1.17663h-4.6829v-1.17663zM243.14602,163.30769h1.38851v8.61286c0,0.39222 0.0566,0.68635 0.1705,0.88246c0.11769,0.19218 0.2668,0.3216 0.44696,0.38829c0.18431,0.06275 0.37862,0.09412 0.5826,0.09412c0.1529,0 0.27853,-0.00783 0.37655,-0.0235c0.09802,-0.01964 0.17637,-0.03531 0.23539,-0.04708l0.28233,1.24721c-0.09422,0.03531 -0.22572,0.07062 -0.39415,0.10592c-0.16877,0.03921 -0.38242,0.05881 -0.64128,0.05881c-0.39243,0 -0.77657,-0.08432 -1.15312,-0.25296c-0.37275,-0.16867 -0.68235,-0.42556 -0.92947,-0.7707c-0.24333,-0.34514 -0.36482,-0.78051 -0.36482,-1.30605zM254.60028,169.07313v5.436h-1.38816v-9.03646h1.34122v1.41194h0.11769c0.21157,-0.4589 0.53325,-0.82755 0.96467,-1.10604c0.43143,-0.28236 0.98849,-0.42356 1.67084,-0.42356c0.61194,0 1.14725,0.12549 1.60629,0.37652c0.45869,0.24709 0.81557,0.6236 1.07063,1.12955c0.25506,0.50204 0.38242,1.13742 0.38242,1.90612v5.74193h-1.38851v-5.64778c0,-0.70992 -0.18431,-1.26291 -0.55292,-1.65907c-0.36861,-0.40002 -0.87459,-0.60007 -1.51794,-0.60007c-0.44316,0 -0.83939,0.09609 -1.18833,0.28826c-0.34514,0.19221 -0.61781,0.47264 -0.81764,0.84129c-0.20018,0.36868 -0.30027,0.81581 -0.30027,1.34136zM268.59789,170.81454v-5.34188h1.38816v9.03646h-1.38816v-1.5296h-0.09422c-0.21192,0.45887 -0.54118,0.84912 -0.98849,1.17072c-0.44696,0.3177 -1.01161,0.47654 -1.69431,0.47654c-0.56465,0 -1.06684,-0.12353 -1.50586,-0.37065c-0.43937,-0.25099 -0.78451,-0.6275 -1.03543,-1.12955c-0.25126,-0.50594 -0.37655,-1.14329 -0.37655,-1.91202v-5.7419h1.38816v5.64778c0,0.65891 0.18465,1.18446 0.55326,1.57668c0.37241,0.39222 0.84698,0.5883 1.42371,0.5883c0.34514,0 0.69615,-0.08822 1.05303,-0.26472c0.36067,-0.17651 0.66267,-0.44713 0.906,-0.81188c0.24712,-0.36475 0.37068,-0.82952 0.37068,-1.39427zM272.52906,174.50912v-9.03646h1.34157v1.41194h0.11769c0.1881,-0.48241 0.49217,-0.85699 0.91187,-1.12368c0.41969,-0.27063 0.9236,-0.40592 1.51173,-0.40592c0.59641,0 1.09238,0.1353 1.4886,0.40592c0.40002,0.26669 0.71168,0.64128 0.93534,1.12368h0.09422c0.23125,-0.46674 0.57846,-0.83735 1.0413,-1.11191c0.46284,-0.27846 1.01783,-0.41769 1.66497,-0.41769c0.80798,0 1.46858,0.25296 1.9825,0.7589c0.51392,0.50204 0.7707,1.28448 0.7707,2.34738v6.04783h-1.38851v-6.04783c0,-0.66675 -0.18224,-1.14329 -0.54705,-1.42962c-0.36482,-0.2863 -0.79417,-0.42946 -1.28842,-0.42946c-0.63541,0 -1.12758,0.19218 -1.47652,0.57656c-0.34928,0.38042 -0.52358,0.86286 -0.52358,1.44722v5.88313h-1.41198v-6.18903c0,-0.51381 -0.1667,-0.92757 -0.50011,-1.24134c-0.33341,-0.3177 -0.76277,-0.47654 -1.28842,-0.47654c-0.36102,0 -0.69822,0.09609 -1.01196,0.28826c-0.30994,0.19221 -0.56086,0.4589 -0.7531,0.80011c-0.1881,0.33731 -0.28233,0.72756 -0.28233,1.17076v5.64778zM287.11652,174.50912v-12.04862h1.38816v4.44765h0.11769c0.10216,-0.1569 0.24333,-0.35691 0.42349,-0.6001c0.18465,-0.24709 0.44731,-0.4667 0.78865,-0.65891c0.34514,-0.19608 0.81178,-0.29413 1.3999,-0.29413c0.76104,0 1.43165,0.19021 2.01218,0.57066c0.58053,0.38045 1.03336,0.91974 1.35883,1.61786c0.32581,0.69812 0.48838,1.52177 0.48838,2.47091c0,0.95698 -0.16256,1.78649 -0.48838,2.48855c-0.32547,0.69812 -0.77657,1.23937 -1.35296,1.62372c-0.57673,0.38045 -1.24148,0.57069 -1.99423,0.57069c-0.58053,0 -1.04544,-0.09612 -1.39438,-0.2883c-0.34928,-0.19611 -0.61781,-0.41769 -0.80591,-0.66478c-0.18845,-0.25102 -0.33341,-0.4589 -0.43557,-0.6236h-0.16463v1.38841zM288.48121,169.99089c0,0.68245 0.10009,1.28448 0.29993,1.8061c0.20018,0.51771 0.49252,0.92367 0.87666,1.21784c0.38449,0.29023 0.85492,0.43533 1.41198,0.43533c0.58053,0 1.06477,-0.15297 1.45305,-0.45887c0.39243,-0.30987 0.68649,-0.72559 0.88253,-1.24724c0.20018,-0.52555 0.29993,-1.10994 0.29993,-1.75315c0,-0.63537 -0.09802,-1.208 -0.29406,-1.71788c-0.19224,-0.51378 -0.48424,-0.91974 -0.87666,-1.2178c-0.38829,-0.302 -0.87632,-0.453 -1.46479,-0.453c-0.56465,0 -1.03922,0.14317 -1.42371,0.42946c-0.38449,0.2824 -0.67441,0.67852 -0.8708,1.1884c-0.19604,0.50594 -0.29406,1.09621 -0.29406,1.77082zM301.00645,174.6974c-0.8708,0 -1.62183,-0.19221 -2.25344,-0.57656c-0.62747,-0.38829 -1.1117,-0.92954 -1.45305,-1.62372c-0.3372,-0.69815 -0.50598,-1.51 -0.50598,-2.43564c0,-0.9256 0.16877,-1.74138 0.50598,-2.44737c0.34135,-0.70989 0.81592,-1.26291 1.42371,-1.65903c0.61194,-0.40005 1.32569,-0.60007 2.14161,-0.60007c0.47043,0 0.93534,0.07842 1.39438,0.23532c0.45869,0.15687 0.87632,0.41182 1.25287,0.7648c0.37655,0.34908 0.67648,0.81188 0.90013,1.38841c0.22365,0.57656 0.33548,1.28645 0.33548,2.1297v0.5883h-6.96567v-1.20013h5.55369c0,-0.50988 -0.10216,-0.96485 -0.30614,-1.3649c-0.19984,-0.40005 -0.48631,-0.71579 -0.85872,-0.94718c-0.36861,-0.23142 -0.80418,-0.34711 -1.30602,-0.34711c-0.55326,0 -1.03163,0.13726 -1.43545,0.41182c-0.40002,0.27063 -0.70789,0.6236 -0.9236,1.05897c-0.21571,0.43533 -0.32374,0.90207 -0.32374,1.40018v0.80011c0,0.68242 0.11769,1.26094 0.35308,1.73552c0.23918,0.47064 0.57052,0.82952 0.99401,1.0766c0.42384,0.24315 0.91601,0.36475 1.47687,0.36475c0.36482,0 0.69408,-0.05098 0.98814,-0.15297c0.2982,-0.10589 0.55499,-0.26276 0.7707,-0.47064c0.21571,-0.21178 0.38242,-0.47457 0.50011,-0.78834l1.34157,0.37652c-0.14116,0.45497 -0.37862,0.85502 -0.71203,1.20016c-0.33341,0.34121 -0.74516,0.60793 -1.23527,0.80011c-0.49045,0.18824 -1.0413,0.2824 -1.65323,0.2824zM306.86007,174.50912v-9.03646h1.34122v1.36487h0.09422c0.16463,-0.4471 0.46284,-0.80991 0.89426,-1.08837c0.43143,-0.27846 0.91773,-0.41769 1.45892,-0.41769c0.10216,0 0.22952,0.00197 0.38242,0.00587c0.1529,0.00393 0.26887,0.0098 0.34721,0.01767v1.41194c-0.04694,-0.01177 -0.15497,-0.02941 -0.32374,-0.05294c-0.16463,-0.02747 -0.33893,-0.04118 -0.52358,-0.04118c-0.43902,0 -0.83145,0.09215 -1.17659,0.27649c-0.341,0.18041 -0.61159,0.43143 -0.81178,0.75303c-0.19604,0.3177 -0.29406,0.68048 -0.29406,1.08837v5.71839zM317.6834,174.50912v-9.03646h1.38851v9.03646zM318.38956,163.96657c-0.27059,0 -0.50391,-0.09215 -0.70029,-0.27649c-0.1919,-0.18434 -0.28819,-0.40592 -0.28819,-0.66478c0,-0.25886 0.09629,-0.48047 0.28819,-0.66481c0.19639,-0.18434 0.4297,-0.27649 0.70029,-0.27649c0.27059,0 0.50184,0.09215 0.69408,0.27649c0.19604,0.18434 0.29441,0.40596 0.29441,0.66481c0,0.25886 -0.09837,0.48044 -0.29441,0.66478c-0.19224,0.18434 -0.42349,0.27649 -0.69408,0.27649zM323.00343,169.07313v5.436h-1.38851v-9.03646h1.34122v1.41194h0.11769c0.21192,-0.4589 0.53359,-0.82755 0.96502,-1.10604c0.43143,-0.28236 0.98814,-0.42356 1.67084,-0.42356c0.61159,0 1.14725,0.12549 1.60595,0.37652c0.45904,0.24709 0.81592,0.6236 1.07063,1.12955c0.25506,0.50204 0.38242,1.13742 0.38242,1.90612v5.74193h-1.38816v-5.64778c0,-0.70992 -0.18431,-1.26291 -0.55326,-1.65907c-0.36861,-0.40002 -0.87459,-0.60007 -1.51759,-0.60007c-0.44316,0 -0.83939,0.09609 -1.18867,0.28826c-0.34514,0.19221 -0.61746,0.47264 -0.81764,0.84129c-0.19984,0.36868 -0.29993,0.81581 -0.29993,1.34136zM339.89541,165.47267v1.17663h-4.68324v-1.17663zM336.5772,163.30769h1.38851v8.61286c0,0.39222 0.0566,0.68635 0.1705,0.88246c0.11769,0.19218 0.2668,0.3216 0.44696,0.38829c0.18465,0.06275 0.37862,0.09412 0.5826,0.09412c0.1529,0 0.27853,-0.00783 0.37655,-0.0235c0.09802,-0.01964 0.17637,-0.03531 0.23539,-0.04708l0.28233,1.24721c-0.09422,0.03531 -0.22572,0.07062 -0.39415,0.10592c-0.16877,0.03921 -0.38242,0.05881 -0.64128,0.05881c-0.39243,0 -0.77657,-0.08432 -1.15312,-0.25296c-0.37275,-0.16867 -0.68235,-0.42556 -0.92947,-0.7707c-0.24333,-0.34514 -0.36482,-0.78051 -0.36482,-1.30605zM343.56634,169.07313v5.436h-1.38851v-12.04862h1.38851v4.42411h0.11769c0.21157,-0.46674 0.52945,-0.83735 0.95294,-1.11191c0.42763,-0.27846 0.99643,-0.41769 1.70604,-0.41769c0.61573,0 1.15519,0.12353 1.61803,0.37061c0.46284,0.24319 0.82178,0.61774 1.0765,1.12368c0.25886,0.50204 0.38829,1.14132 0.38829,1.91789v5.74193h-1.38851v-5.64778c0,-0.71776 -0.18603,-1.27271 -0.55879,-1.66493c-0.36861,-0.39612 -0.88046,-0.5942 -1.53554,-0.5942c-0.4549,0 -0.86286,0.09609 -1.22353,0.28826c-0.35688,0.19221 -0.6392,0.47264 -0.84733,0.84129c-0.20398,0.36868 -0.3058,0.81581 -0.3058,1.34136zM355.75472,174.6974c-0.8708,0 -1.62183,-0.19221 -2.25344,-0.57656c-0.62747,-0.38829 -1.1117,-0.92954 -1.45305,-1.62372c-0.3372,-0.69815 -0.50598,-1.51 -0.50598,-2.43564c0,-0.9256 0.16877,-1.74138 0.50598,-2.44737c0.34135,-0.70989 0.81592,-1.26291 1.42371,-1.65903c0.61194,-0.40005 1.32569,-0.60007 2.14161,-0.60007c0.47043,0 0.93534,0.07842 1.39438,0.23532c0.45869,0.15687 0.87632,0.41182 1.25287,0.7648c0.37655,0.34908 0.67648,0.81188 0.90013,1.38841c0.22365,0.57656 0.33548,1.28645 0.33548,2.1297v0.5883h-6.96567v-1.20013h5.55369c0,-0.50988 -0.10216,-0.96485 -0.30614,-1.3649c-0.19984,-0.40005 -0.48631,-0.71579 -0.85872,-0.94718c-0.36861,-0.23142 -0.80418,-0.34711 -1.30602,-0.34711c-0.55326,0 -1.03163,0.13726 -1.43545,0.41182c-0.40002,0.27063 -0.70789,0.6236 -0.9236,1.05897c-0.21571,0.43533 -0.32374,0.90207 -0.32374,1.40018v0.80011c0,0.68242 0.11769,1.26094 0.35308,1.73552c0.23918,0.47064 0.57052,0.82952 0.99401,1.0766c0.42384,0.24315 0.91601,0.36475 1.47687,0.36475c0.36482,0 0.69408,-0.05098 0.98814,-0.15297c0.2982,-0.10589 0.55499,-0.26276 0.7707,-0.47064c0.21571,-0.21178 0.38242,-0.47457 0.50011,-0.78834l1.34157,0.37652c-0.14116,0.45497 -0.37862,0.85502 -0.71203,1.20016c-0.33341,0.34121 -0.74516,0.60793 -1.23527,0.80011c-0.49045,0.18824 -1.0413,0.2824 -1.65323,0.2824zM127.8222,187.51472l-1.24724,0.35298c-0.07842,-0.20784 -0.19414,-0.40986 -0.34708,-0.60593c-0.14907,-0.20004 -0.35301,-0.36478 -0.61187,-0.49421c-0.25886,-0.12943 -0.59026,-0.19414 -0.99425,-0.19414c-0.55299,0 -1.01386,0.1275 -1.38252,0.38242c-0.36475,0.25102 -0.54713,0.57066 -0.54713,0.95894c0,0.34514 0.1255,0.61774 0.37652,0.81775c0.25101,0.20004 0.64323,0.36671 1.17661,0.50008l1.34136,0.32944c0.80794,0.19611 1.40998,0.49614 1.80613,0.90013c0.39612,0.40005 0.59416,0.9158 0.59416,1.54724c0,0.51771 -0.14903,0.98055 -0.4471,1.38834c-0.29417,0.40796 -0.70599,0.72963 -1.23547,0.96502c-0.52945,0.23539 -1.14522,0.35274 -1.84727,0.35274c-0.9217,0 -1.68454,-0.19984 -2.28854,-0.59986c-0.604,-0.40002 -0.9864,-0.98452 -1.14721,-1.75322l1.31782,-0.32947c0.12551,0.48634 0.36279,0.85109 0.71186,1.09428c0.35299,0.24326 0.81384,0.36475 1.38253,0.36475c0.64714,0 1.16092,-0.13737 1.54137,-0.41182c0.38435,-0.27846 0.57656,-0.61183 0.57656,-1.00012c0,-0.31377 -0.10982,-0.57656 -0.32947,-0.78834c-0.21965,-0.21571 -0.55692,-0.37652 -1.01189,-0.48241l-1.50606,-0.35301c-0.82757,-0.19608 -1.4355,-0.50004 -1.82378,-0.91187c-0.38436,-0.41572 -0.57654,-0.93541 -0.57654,-1.55901c0,-0.50988 0.14315,-0.96091 0.42947,-1.35313c0.29023,-0.39222 0.6844,-0.70009 1.1825,-0.92364c0.50203,-0.22358 1.07072,-0.33534 1.70609,-0.33534c0.89426,0 1.59629,0.19611 2.10616,0.5883c0.51381,0.39222 0.87856,0.90993 1.09428,1.55314zM133.86561,194.71551c-0.87069,0 -1.62176,-0.1919 -2.25323,-0.57639c-0.62754,-0.38829 -1.11191,-0.92947 -1.45312,-1.62372c-0.33731,-0.69815 -0.50594,-1.51 -0.50594,-2.43564c0,-0.9256 0.16864,-1.74138 0.50594,-2.44737c0.34121,-0.70989 0.81578,-1.26291 1.42371,-1.65903c0.61183,-0.40005 1.32566,-0.60007 2.14144,-0.60007c0.47067,0 0.93544,0.07842 1.39431,0.23532c0.45887,0.15687 0.87659,0.41182 1.25311,0.7648c0.37652,0.34908 0.67655,0.81188 0.9001,1.38841c0.22358,0.57656 0.33534,1.28645 0.33534,2.1297v0.5883h-6.9656v-1.20013h5.55366c0,-0.50988 -0.10196,-0.96485 -0.3059,-1.3649c-0.20004,-0.40005 -0.48634,-0.71579 -0.85896,-0.94718c-0.36868,-0.23142 -0.80401,-0.34711 -1.30605,-0.34711c-0.55299,0 -1.03149,0.13726 -1.43548,0.41182c-0.40005,0.27063 -0.70792,0.6236 -0.92364,1.05897c-0.21571,0.43533 -0.32357,0.90207 -0.32357,1.40018v0.80011c0,0.68242 0.11766,1.26094 0.35298,1.73552c0.23925,0.47064 0.57066,0.82952 0.99425,1.0766c0.42359,0.24333 0.9158,0.36482 1.47666,0.36482c0.36475,0 0.69422,-0.05108 0.98839,-0.1529c0.29807,-0.10596 0.55496,-0.2629 0.77067,-0.47077c0.21571,-0.21178 0.38242,-0.47457 0.50008,-0.78834l1.34133,0.37652c-0.1412,0.45497 -0.37848,0.85499 -0.71186,1.20013c-0.33337,0.34135 -0.7452,0.6078 -1.23544,0.80004c-0.49028,0.18845 -1.04133,0.28233 -1.65316,0.28233zM145.88483,197.91602v-4.77702h-0.11766c-0.10199,0.16487 -0.24709,0.37265 -0.43536,0.62357c-0.18824,0.24712 -0.45693,0.4687 -0.80598,0.66474c-0.34908,0.19224 -0.81385,0.28819 -1.39431,0.28819c-0.75303,0 -1.41781,-0.19017 -1.99437,-0.57052c-0.57656,-0.38449 -1.02759,-0.92567 -1.35313,-1.62372c-0.3255,-0.70205 -0.48827,-1.53157 -0.48827,-2.48855c0,-0.94914 0.16277,-1.77279 0.48827,-2.47091c0.32554,-0.69812 0.77854,-1.23741 1.359,-1.61786c0.5805,-0.38045 1.25114,-0.57066 2.01204,-0.57066c0.5883,0 1.05307,0.09806 1.39431,0.29413c0.34514,0.19221 0.6079,0.41182 0.78834,0.65891c0.18431,0.24319 0.32747,0.4432 0.42946,0.6001h0.1647v-1.43548h1.34136v12.42507zM143.3198,193.46851c0.55692,0 1.02756,-0.14531 1.41194,-0.4354c0.38435,-0.29417 0.67655,-0.70012 0.87656,-1.21784c0.20004,-0.52161 0.30007,-1.12365 0.30007,-1.8061c0,-0.67462 -0.09806,-1.26488 -0.29417,-1.77082c-0.19611,-0.50988 -0.48634,-0.906 -0.87069,-1.1884c-0.38439,-0.2863 -0.85896,-0.42946 -1.42371,-0.42946c-0.58833,0 -1.07857,0.151 -1.47079,0.453c-0.38829,0.29807 -0.68048,0.70402 -0.87659,1.2178c-0.19218,0.50988 -0.28826,1.08251 -0.28826,1.71788c0,0.64321 0.09806,1.2276 0.29417,1.75315c0.20001,0.52165 0.49418,0.93737 0.88246,1.24724c0.39222,0.30604 0.87853,0.45894 1.45902,0.45894zM155.50944,190.83282v-5.34188h1.38851v9.03646h-1.38851v-1.5296h-0.09388c-0.21192,0.45897 -0.54118,0.84898 -0.98845,1.17066c-0.44713,0.31788 -1.01189,0.47664 -1.69434,0.47664c-0.56479,0 -1.0668,-0.12356 -1.50606,-0.37068c-0.4393,-0.25092 -0.78444,-0.62747 -1.03543,-1.12955c-0.25102,-0.50594 -0.37655,-1.14329 -0.37655,-1.91202v-5.7419h1.38844v5.64778c0,0.65891 0.18434,1.18446 0.55299,1.57668c0.37262,0.39222 0.84719,0.58847 1.42371,0.58847c0.34514,0 0.69619,-0.08836 1.0531,-0.2649c0.36081,-0.17651 0.66281,-0.44713 0.90614,-0.81188c0.24678,-0.36475 0.37034,-0.82952 0.37034,-1.39427zM163.2296,194.71551c-0.87045,0 -1.62183,-0.1919 -2.25309,-0.57639c-0.62747,-0.38829 -1.11205,-0.92947 -1.45305,-1.62372c-0.33755,-0.69815 -0.50598,-1.51 -0.50598,-2.43564c0,-0.9256 0.16843,-1.74138 0.50598,-2.44737c0.341,-0.70989 0.81557,-1.26291 1.42371,-1.65903c0.61159,-0.40005 1.32569,-0.60007 2.14127,-0.60007c0.47077,0 0.93534,0.07842 1.39438,0.23532c0.45904,0.15687 0.87666,0.41182 1.25321,0.7648c0.37655,0.34908 0.67648,0.81188 0.90013,1.38841c0.22331,0.57656 0.33513,1.28645 0.33513,2.1297v0.5883h-6.96567v-1.20013h5.55369c0,-0.50988 -0.10182,-0.96485 -0.3058,-1.3649c-0.20018,-0.40005 -0.48631,-0.71579 -0.85906,-0.94718c-0.36861,-0.23142 -0.80384,-0.34711 -1.30602,-0.34711c-0.55292,0 -1.03129,0.13726 -1.43545,0.41182c-0.40002,0.27063 -0.70789,0.6236 -0.9236,1.05897c-0.21571,0.43533 -0.3234,0.90207 -0.3234,1.40018v0.80011c0,0.68242 0.11735,1.26094 0.35274,1.73552c0.23918,0.47064 0.57087,0.82952 0.99436,1.0766c0.42349,0.24333 0.91566,0.36482 1.47652,0.36482c0.36482,0 0.69443,-0.05108 0.98849,-0.1529c0.2982,-0.10596 0.55499,-0.2629 0.7707,-0.47077c0.21571,-0.21178 0.38242,-0.47457 0.50011,-0.78834l1.34122,0.37652c-0.14116,0.45497 -0.37828,0.85499 -0.71168,1.20013c-0.33341,0.34135 -0.74516,0.6078 -1.23561,0.80004c-0.4901,0.18845 -1.0413,0.28233 -1.65323,0.28233zM170.47173,189.09141v5.436h-1.38816v-9.03646h1.34122v1.41194h0.11769c0.21157,-0.4589 0.53325,-0.82755 0.96467,-1.10604c0.43143,-0.28236 0.98849,-0.42356 1.67084,-0.42356c0.61194,0 1.14725,0.12549 1.60629,0.37652c0.45869,0.24709 0.81557,0.6236 1.07063,1.12955c0.25506,0.50204 0.38242,1.13742 0.38242,1.90612v5.74193h-1.38851v-5.64778c0,-0.70992 -0.18431,-1.26291 -0.55292,-1.65907c-0.36861,-0.40002 -0.87459,-0.60007 -1.51794,-0.60007c-0.44316,0 -0.83939,0.09609 -1.18833,0.28826c-0.34514,0.19221 -0.61781,0.47264 -0.81764,0.84129c-0.20018,0.36868 -0.30027,0.81581 -0.30027,1.34136zM182.44542,194.71551c-0.84698,0 -1.57661,-0.19984 -2.18855,-0.59986c-0.61194,-0.40002 -1.08237,-0.95121 -1.41198,-1.65323c-0.32927,-0.70202 -0.49424,-1.5041 -0.49424,-2.40616c0,-0.91777 0.16877,-1.72768 0.50598,-2.42974c0.34135,-0.70599 0.81592,-1.25704 1.42371,-1.65316c0.61194,-0.40005 1.32569,-0.60007 2.14161,-0.60007c0.63541,0 1.208,0.11766 1.71778,0.35298c0.50978,0.23532 0.92774,0.56479 1.25321,0.98835c0.32547,0.42359 0.52738,0.91777 0.60607,1.48256h-1.38851c-0.10596,-0.41182 -0.34135,-0.77657 -0.70616,-1.09428c-0.36067,-0.3216 -0.84698,-0.48241 -1.45892,-0.48241c-0.54118,0 -1.01576,0.1412 -1.42371,0.42359c-0.40382,0.27846 -0.71962,0.67261 -0.94707,1.18249c-0.22365,0.50594 -0.33548,1.10014 -0.33548,1.78259c0,0.69812 0.10976,1.30605 0.32961,1.82377c0.22331,0.51771 0.53739,0.91974 0.9412,1.20603c0.40796,0.2863 0.88633,0.42953 1.43545,0.42953c0.36102,0 0.68821,-0.06282 0.98262,-0.18845c0.29406,-0.12529 0.54325,-0.3058 0.74689,-0.54111c0.20398,-0.23532 0.34928,-0.51771 0.43557,-0.84719h1.38851c-0.07869,0.53342 -0.27266,1.01386 -0.5826,1.44145c-0.3058,0.42349 -0.71168,0.76069 -1.21766,1.01196c-0.50218,0.24712 -1.08651,0.37034 -1.75333,0.37034zM191.81708,194.71551c-0.87045,0 -1.62148,-0.1919 -2.25309,-0.57639c-0.62747,-0.38829 -1.11205,-0.92947 -1.45305,-1.62372c-0.3372,-0.69815 -0.50598,-1.51 -0.50598,-2.43564c0,-0.9256 0.16877,-1.74138 0.50598,-2.44737c0.341,-0.70989 0.81557,-1.26291 1.42371,-1.65903c0.61194,-0.40005 1.32569,-0.60007 2.14127,-0.60007c0.47077,0 0.93568,0.07842 1.39438,0.23532c0.45904,0.15687 0.87666,0.41182 1.25321,0.7648c0.37655,0.34908 0.67648,0.81188 0.90013,1.38841c0.22365,0.57656 0.33513,1.28645 0.33513,2.1297v0.5883h-6.96533v-1.20013h5.55335c0,-0.50988 -0.10182,-0.96485 -0.3058,-1.3649c-0.19984,-0.40005 -0.48631,-0.71579 -0.85906,-0.94718c-0.36861,-0.23142 -0.80384,-0.34711 -1.30602,-0.34711c-0.55292,0 -1.03129,0.13726 -1.43545,0.41182c-0.40002,0.27063 -0.70789,0.6236 -0.9236,1.05897c-0.21571,0.43533 -0.3234,0.90207 -0.3234,1.40018v0.80011c0,0.68242 0.11769,1.26094 0.35274,1.73552c0.23953,0.47064 0.57087,0.82952 0.99436,1.0766c0.42349,0.24333 0.91566,0.36482 1.47652,0.36482c0.36482,0 0.69443,-0.05108 0.98849,-0.1529c0.2982,-0.10596 0.55499,-0.2629 0.7707,-0.47077c0.21571,-0.21178 0.38242,-0.47457 0.50011,-0.78834l1.34122,0.37652c-0.14116,0.45497 -0.37828,0.85499 -0.71168,1.20013c-0.33341,0.34135 -0.74516,0.6078 -1.23561,0.80004c-0.4901,0.18845 -1.0413,0.28233 -1.65323,0.28233zM198.68301,194.62163c-0.29027,0 -0.53946,-0.10389 -0.74723,-0.31201c-0.20812,-0.20778 -0.31201,-0.45697 -0.31201,-0.74689c0,-0.29027 0.10389,-0.53946 0.31201,-0.7473c0.20778,-0.20788 0.45697,-0.3118 0.74723,-0.3118c0.28992,0 0.53911,0.10392 0.74689,0.3118c0.20812,0.20784 0.31201,0.45704 0.31201,0.7473c0,0.1919 -0.04901,0.36861 -0.14703,0.52945c-0.09422,0.16084 -0.22158,0.29027 -0.38242,0.38829c-0.15704,0.09388 -0.33341,0.14116 -0.52945,0.14116zM198.68301,187.91478c-0.29027,0 -0.53946,-0.10392 -0.74723,-0.3118c-0.20812,-0.20788 -0.31201,-0.45693 -0.31201,-0.74717c0,-0.29023 0.10389,-0.53929 0.31201,-0.74713c0.20778,-0.20788 0.45697,-0.31184 0.74723,-0.31184c0.28992,0 0.53911,0.10396 0.74689,0.31184c0.20812,0.20784 0.31201,0.4569 0.31201,0.74713c0,0.19218 -0.04901,0.36868 -0.14703,0.52948c-0.09422,0.1608 -0.22158,0.29023 -0.38242,0.38829c-0.15704,0.09412 -0.33341,0.1412 -0.52945,0.1412zM206.8691,194.5274v-1.0589l3.97708,-4.35356c0.46663,-0.50988 0.85112,-0.95308 1.15312,-1.32959c0.302,-0.38045 0.52565,-0.73736 0.67061,-1.07074c0.1491,-0.33727 0.22365,-0.69029 0.22365,-1.05893c0,-0.42359 -0.10216,-0.79031 -0.30614,-1.10014c-0.19984,-0.30987 -0.47457,-0.54912 -0.82351,-0.71776c-0.34894,-0.16864 -0.74137,-0.25296 -1.17659,-0.25296c-0.46284,0 -0.86665,0.09609 -1.2118,0.28826c-0.34135,0.18824 -0.60607,0.453 -0.79452,0.79421c-0.18431,0.34124 -0.27646,0.74126 -0.27646,1.20016h-1.38816c0,-0.70599 0.16256,-1.32566 0.48803,-1.85908c0.32581,-0.53338 0.76898,-0.94914 1.32984,-1.24721c0.56465,-0.29807 1.19799,-0.44713 1.90001,-0.44713c0.70616,0 1.33156,0.14907 1.87689,0.44713c0.54498,0.29807 0.97261,0.70009 1.28255,1.20603c0.30959,0.50594 0.46456,1.06877 0.46456,1.68847c0,0.44316 -0.08042,0.87656 -0.24125,1.30015c-0.15669,0.41966 -0.43143,0.88836 -0.82351,1.40608c-0.38829,0.51378 -0.9274,1.14132 -1.61768,1.88258l-2.70626,2.89451v0.09412h5.60063v1.29429zM218.99431,192.88014l-0.09422,0.6353c-0.06661,0.44731 -0.16843,0.92567 -0.3058,1.43545c-0.13357,0.51012 -0.27266,0.99056 -0.41762,1.44132c-0.14531,0.4511 -0.26472,0.81005 -0.35895,1.07685h-1.0589c0.05074,-0.25126 0.11769,-0.5826 0.19984,-0.99436c0.08249,-0.41176 0.16463,-0.87252 0.24712,-1.38264c0.08629,-0.50598 0.15704,-1.02369 0.21192,-1.55314l0.07041,-0.65877zM225.92029,192.05649v-1.20016l5.29484,-8.37755h0.87045v1.85908h-0.58812l-4.00055,6.33023v0.09412h7.1303v1.29429zM231.59168,194.5274v-2.83566v-0.55889v-8.65408h1.38816v12.04862zM238.35993,192.88014l-0.09388,0.6353c-0.06696,0.44731 -0.16877,0.92567 -0.30614,1.43545c-0.13323,0.51012 -0.27266,0.99056 -0.41762,1.44132c-0.14496,0.4511 -0.26472,0.81005 -0.35895,1.07685h-1.0589c0.05108,-0.25126 0.11769,-0.5826 0.20018,-0.99436c0.08214,-0.41176 0.16463,-0.87252 0.24678,-1.38264c0.08629,-0.50598 0.15704,-1.02369 0.21192,-1.55314l0.07075,-0.65877zM249.56878,194.69204c-0.49424,-0.00759 -0.98814,-0.10182 -1.48239,-0.28233c-0.49424,-0.18051 -0.94535,-0.48424 -1.3533,-0.91187c-0.40796,-0.43143 -0.73515,-1.01386 -0.98228,-1.74729c-0.24712,-0.73733 -0.37068,-1.66293 -0.37068,-2.77681c0,-1.0668 0.10009,-2.01204 0.29993,-2.83566c0.20018,-0.82755 0.49045,-1.52374 0.8708,-2.08853c0.38035,-0.56869 0.83939,-1.00012 1.37643,-1.29429c0.54153,-0.29413 1.1514,-0.44123 1.82995,-0.44123c0.67441,0 1.27461,0.13533 1.80026,0.40596c0.52945,0.26669 0.96088,0.63927 1.29429,1.11778c0.33306,0.47851 0.54878,1.02956 0.64714,1.65316h-1.43579c-0.13323,-0.54125 -0.39208,-0.99032 -0.77657,-1.34723c-0.38414,-0.35691 -0.89392,-0.53539 -1.52933,-0.53539c-0.93361,0 -1.66911,0.40596 -2.20615,1.2178c-0.53359,0.81188 -0.80211,1.95126 -0.80625,3.41812h0.09422c0.21951,-0.33341 0.48044,-0.61774 0.78244,-0.85305c0.3058,-0.23925 0.64335,-0.42359 1.01196,-0.55302c0.36861,-0.12943 0.75897,-0.19414 1.17072,-0.19414c0.69029,0 1.3219,0.17257 1.89449,0.51771c0.57259,0.34121 1.03129,0.81381 1.37643,1.41781c0.34514,0.6001 0.51771,1.28842 0.51771,2.06499c0,0.7452 -0.1667,1.42765 -0.50011,2.04732c-0.33341,0.6158 -0.80177,1.10591 -1.40577,1.47072c-0.6002,0.36102 -1.30637,0.53739 -2.11814,0.52945zM249.56878,193.39775c0.49424,0 0.93741,-0.12356 1.32949,-0.37055c0.39622,-0.24709 0.70823,-0.57849 0.93568,-0.99425c0.23125,-0.41572 0.34687,-0.87853 0.34687,-1.38841c0,-0.49811 -0.11183,-0.95111 -0.33513,-1.359c-0.21986,-0.41182 -0.52358,-0.7393 -0.91187,-0.98248c-0.38449,-0.24315 -0.82386,-0.36475 -1.31776,-0.36475c-0.37275,0 -0.71997,0.07452 -1.04164,0.22355c-0.32133,0.14513 -0.604,0.34514 -0.84698,0.6001c-0.23918,0.25492 -0.42763,0.54712 -0.56465,0.87656c-0.13737,0.32554 -0.20605,0.66871 -0.20605,1.02956c0,0.47847 0.11183,0.9256 0.33548,1.34133c0.22745,0.41576 0.53704,0.7511 0.92947,1.00602c0.39588,0.25496 0.84525,0.38231 1.34709,0.38231zM257.43459,192.88014l-0.09422,0.6353c-0.06661,0.44731 -0.16843,0.92567 -0.3058,1.43545c-0.13357,0.51012 -0.27266,0.99056 -0.41762,1.44132c-0.14531,0.4511 -0.26472,0.81005 -0.35895,1.07685h-1.0589c0.05074,-0.25126 0.11769,-0.5826 0.19984,-0.99436c0.08249,-0.41176 0.16463,-0.87252 0.24712,-1.38264c0.08629,-0.50598 0.15704,-1.02369 0.21192,-1.55314l0.07041,-0.65877zM268.50228,194.69204c-0.80798,0 -1.52173,-0.14323 -2.14161,-0.42936c-0.61573,-0.29027 -1.09617,-0.68821 -1.44132,-1.1943c-0.34514,-0.50984 -0.51564,-1.09034 -0.51185,-1.74138c-0.0038,-0.50988 0.09595,-0.98052 0.29993,-1.41194c0.20398,-0.43536 0.48251,-0.79814 0.83559,-1.08837c0.35688,-0.29417 0.75483,-0.48047 1.19419,-0.55892v-0.07058c-0.57639,-0.14903 -1.03543,-0.4726 -1.37677,-0.97071c-0.341,-0.50204 -0.50978,-1.0727 -0.50563,-1.71198c-0.00414,-0.61187 0.15083,-1.15899 0.46456,-1.6414c0.31373,-0.48241 0.74516,-0.86286 1.29429,-1.14132c0.55292,-0.2785 1.18246,-0.41773 1.88862,-0.41773c0.69788,0 1.32155,0.13923 1.87067,0.41773c0.54912,0.27846 0.98055,0.65891 1.29429,1.14132c0.31788,0.48241 0.47871,1.02953 0.48251,1.6414c-0.0038,0.63927 -0.17844,1.20993 -0.52358,1.71198c-0.34135,0.49811 -0.79417,0.82168 -1.35917,0.97071v0.07058c0.43557,0.07845 0.82765,0.26476 1.17659,0.55892c0.34928,0.29023 0.62781,0.65301 0.83559,1.08837c0.20778,0.43143 0.31373,0.90207 0.31753,1.41194c-0.0038,0.65104 -0.18016,1.23154 -0.52945,1.74138c-0.34514,0.50608 -0.82558,0.90403 -1.44132,1.1943c-0.61194,0.28612 -1.31983,0.42936 -2.12366,0.42936zM268.50228,193.39775c0.54498,0 1.01576,-0.08801 1.41198,-0.26466c0.39588,-0.17647 0.70202,-0.42553 0.91773,-0.74713c0.21571,-0.32164 0.32547,-0.69815 0.32927,-1.12958c-0.0038,-0.45497 -0.12149,-0.85695 -0.35274,-1.20603c-0.23159,-0.34908 -0.5474,-0.6236 -0.94742,-0.82365c-0.39622,-0.20001 -0.84905,-0.30003 -1.35883,-0.30003c-0.51392,0 -0.97261,0.10002 -1.37677,0.30003c-0.40002,0.20004 -0.71583,0.47457 -0.94707,0.82365c-0.22745,0.34908 -0.33928,0.75107 -0.33548,1.20603c-0.0038,0.43143 0.10009,0.80794 0.31201,1.12958c0.21571,0.3216 0.52358,0.57066 0.9236,0.74713c0.40002,0.17664 0.87459,0.26466 1.42371,0.26466zM268.50228,187.67946c0.43143,0 0.81385,-0.08629 1.14725,-0.25886c0.3372,-0.17257 0.60193,-0.41379 0.79417,-0.72363c0.19224,-0.30983 0.29027,-0.67265 0.29406,-1.08837c-0.0038,-0.40789 -0.10009,-0.76283 -0.28819,-1.06483c-0.18845,-0.30593 -0.44903,-0.54125 -0.78244,-0.70599c-0.33341,-0.16864 -0.72169,-0.25296 -1.16486,-0.25296c-0.4511,0 -0.84525,0.08432 -1.18246,0.25296c-0.33755,0.16474 -0.59813,0.40005 -0.78244,0.70599c-0.18465,0.302 -0.27473,0.65694 -0.27094,1.06483c-0.0038,0.41572 0.08836,0.77854 0.2768,1.08837c0.1919,0.30983 0.45662,0.55105 0.79417,0.72363c0.3372,0.17257 0.72549,0.25886 1.16486,0.25886zM276.57379,192.88014l-0.09422,0.6353c-0.06661,0.44731 -0.16843,0.92567 -0.3058,1.43545c-0.13323,0.51012 -0.27266,0.99056 -0.41762,1.44132c-0.14531,0.4511 -0.26472,0.81005 -0.35895,1.07685h-1.0589c0.05108,-0.25126 0.11769,-0.5826 0.19984,-0.99436c0.08249,-0.41176 0.16498,-0.87252 0.24712,-1.38264c0.08629,-0.50598 0.15704,-1.02369 0.21192,-1.55314l0.07041,-0.65877zM284.81752,194.62163c-0.29027,0 -0.53911,-0.10389 -0.74723,-0.31201c-0.20778,-0.20778 -0.31166,-0.45697 -0.31166,-0.74689c0,-0.29027 0.10389,-0.53946 0.31166,-0.7473c0.20812,-0.20788 0.45697,-0.3118 0.74723,-0.3118c0.29027,0 0.53946,0.10392 0.74723,0.3118c0.20778,0.20784 0.31166,0.45704 0.31166,0.7473c0,0.1919 -0.04901,0.36861 -0.14703,0.52945c-0.09422,0.16084 -0.22158,0.29027 -0.38242,0.38829c-0.15669,0.09388 -0.33341,0.14116 -0.52945,0.14116zM289.37997,194.62163c-0.29027,0 -0.53946,-0.10389 -0.74723,-0.31201c-0.20778,-0.20778 -0.31166,-0.45697 -0.31166,-0.74689c0,-0.29027 0.10389,-0.53946 0.31166,-0.7473c0.20778,-0.20788 0.45697,-0.3118 0.74723,-0.3118c0.29027,0 0.53911,0.10392 0.74723,0.3118c0.20778,0.20784 0.31166,0.45704 0.31166,0.7473c0,0.1919 -0.04901,0.36861 -0.14703,0.52945c-0.09422,0.16084 -0.22158,0.29027 -0.38242,0.38829c-0.15704,0.09388 -0.33341,0.14116 -0.52945,0.14116zM293.94241,194.62163c-0.29027,0 -0.53946,-0.10389 -0.74723,-0.31201c-0.20812,-0.20778 -0.31201,-0.45697 -0.31201,-0.74689c0,-0.29027 0.10389,-0.53946 0.31201,-0.7473c0.20778,-0.20788 0.45697,-0.3118 0.74723,-0.3118c0.28992,0 0.53911,0.10392 0.74689,0.3118c0.20812,0.20784 0.31201,0.45704 0.31201,0.7473c0,0.1919 -0.04901,0.36861 -0.14703,0.52945c-0.09422,0.16084 -0.22158,0.29027 -0.38242,0.38829c-0.15704,0.09388 -0.33341,0.14116 -0.52945,0.14116zM297.81629,191.13872v-0.07058c0.00794,-0.74913 0.08629,-1.3453 0.23539,-1.78846c0.1491,-0.4432 0.36067,-0.80208 0.63541,-1.07664c0.27439,-0.27453 0.604,-0.52752 0.98814,-0.7589c0.23159,-0.1412 0.43937,-0.3079 0.62367,-0.50008c0.18431,-0.19611 0.32961,-0.42163 0.43523,-0.67655c0.1101,-0.25496 0.16498,-0.53732 0.16498,-0.84719c0,-0.38435 -0.09043,-0.71772 -0.27059,-1.00012c-0.18051,-0.2824 -0.42176,-0.50008 -0.72376,-0.65301c-0.302,-0.15297 -0.63748,-0.22945 -1.00609,-0.22945c-0.32167,0 -0.63127,0.06668 -0.92947,0.20001c-0.2982,0.13336 -0.54705,0.34321 -0.74723,0.62951c-0.19984,0.2863 -0.31546,0.66088 -0.34687,1.12368h-1.48273c0.03141,-0.66675 0.20398,-1.23741 0.51771,-1.71198c0.31788,-0.47457 0.7355,-0.83739 1.25321,-1.08841c0.52151,-0.25099 1.09997,-0.37652 1.73538,-0.37652c0.69029,0 1.29049,0.1373 1.80026,0.41182c0.51392,0.27456 0.91014,0.65108 1.18833,1.12955c0.28267,0.47851 0.42384,1.02369 0.42384,1.63553c0,0.43143 -0.06696,0.82168 -0.20018,1.17072c-0.12943,0.34908 -0.31753,0.66088 -0.56465,0.93544c-0.24333,0.27453 -0.53739,0.51771 -0.88253,0.72949c-0.34514,0.21571 -0.6216,0.4432 -0.82938,0.68245c-0.20812,0.23532 -0.35895,0.51575 -0.45317,0.84129c-0.09422,0.3255 -0.14496,0.73146 -0.1529,1.2178v0.07058zM298.56939,194.62163c-0.29027,0 -0.53946,-0.10389 -0.74723,-0.31201c-0.20778,-0.20778 -0.31166,-0.45697 -0.31166,-0.74689c0,-0.29027 0.10389,-0.53946 0.31166,-0.7473c0.20778,-0.20788 0.45697,-0.3118 0.74723,-0.3118c0.29027,0 0.53911,0.10392 0.74723,0.3118c0.20778,0.20784 0.31166,0.45704 0.31166,0.7473c0,0.1919 -0.04901,0.36861 -0.14703,0.52945c-0.09422,0.16084 -0.22158,0.29027 -0.38242,0.38829c-0.15704,0.09388 -0.33341,0.14116 -0.52945,0.14116z"/></g></g></svg>