<svg xmlns="http://www.w3.org/2000/svg" fill="none" viewBox="0 0 139 164" height="164" width="139">
<path fill="#EEC638" d="M0 20C0 8.95431 8.95431 0 20 0H119C130.046 0 139 8.95431 139 20V144C139 155.046 130.046 164 119 164H20C8.95431 164 0 155.046 0 144V20Z"></path>
<path fill="black" d="M36.2102 135.455V150H34.5341V135.455H36.2102ZM43.854 150.227C42.8029 150.227 41.8962 149.995 41.1339 149.531C40.3763 149.062 39.7915 148.409 39.3796 147.571C38.9724 146.728 38.7688 145.748 38.7688 144.631C38.7688 143.513 38.9724 142.528 39.3796 141.676C39.7915 140.819 40.3645 140.152 41.0984 139.673C41.837 139.19 42.6987 138.949 43.6836 138.949C44.2518 138.949 44.8129 139.044 45.3668 139.233C45.9208 139.422 46.4251 139.73 46.8796 140.156C47.3342 140.578 47.6964 141.136 47.9663 141.832C48.2362 142.528 48.3711 143.385 48.3711 144.403V145.114H39.962V143.665H46.6665C46.6665 143.049 46.5434 142.5 46.2972 142.017C46.0558 141.534 45.7101 141.153 45.2603 140.874C44.8152 140.594 44.2897 140.455 43.6836 140.455C43.016 140.455 42.4383 140.62 41.9506 140.952C41.4677 141.278 41.096 141.705 40.8356 142.23C40.5752 142.756 40.445 143.319 40.445 143.92V144.886C40.445 145.71 40.587 146.409 40.8711 146.982C41.1599 147.55 41.56 147.983 42.0714 148.281C42.5827 148.575 43.177 148.722 43.854 148.722C44.2944 148.722 44.6921 148.66 45.0472 148.537C45.4071 148.409 45.7172 148.22 45.9776 147.969C46.238 147.713 46.4393 147.396 46.5813 147.017L48.2006 147.472C48.0302 148.021 47.7437 148.504 47.3413 148.92C46.9388 149.332 46.4416 149.654 45.8498 149.886C45.2579 150.114 44.5927 150.227 43.854 150.227ZM55.6651 139.091V140.511H50.0117V139.091H55.6651ZM51.6594 136.477H53.3356V146.875C53.3356 147.348 53.4042 147.704 53.5415 147.94C53.6836 148.172 53.8635 148.329 54.0813 148.409C54.3039 148.485 54.5382 148.523 54.7844 148.523C54.9691 148.523 55.1206 148.513 55.239 148.494C55.3574 148.471 55.4521 148.452 55.5231 148.438L55.864 149.943C55.7504 149.986 55.5917 150.028 55.3881 150.071C55.1845 150.118 54.9265 150.142 54.614 150.142C54.1405 150.142 53.6765 150.04 53.2219 149.837C52.7721 149.633 52.3981 149.323 52.0998 148.906C51.8062 148.49 51.6594 147.964 51.6594 147.33V136.477ZM62.9308 139.091V140.511H57.2773V139.091H62.9308ZM58.9251 136.477H60.6012V146.875C60.6012 147.348 60.6699 147.704 60.8072 147.94C60.9492 148.172 61.1291 148.329 61.3469 148.409C61.5695 148.485 61.8039 148.523 62.0501 148.523C62.2347 148.523 62.3862 148.513 62.5046 148.494C62.623 148.471 62.7177 148.452 62.7887 148.438L63.1296 149.943C63.016 149.986 62.8574 150.028 62.6538 150.071C62.4502 150.118 62.1921 150.142 61.8796 150.142C61.4061 150.142 60.9421 150.04 60.4876 149.837C60.0378 149.633 59.6637 149.323 59.3654 148.906C59.0719 148.49 58.9251 147.964 58.9251 147.33V136.477ZM69.9087 150.227C68.8576 150.227 67.9509 149.995 67.1886 149.531C66.431 149.062 65.8462 148.409 65.4343 147.571C65.0271 146.728 64.8235 145.748 64.8235 144.631C64.8235 143.513 65.0271 142.528 65.4343 141.676C65.8462 140.819 66.4192 140.152 67.1531 139.673C67.8917 139.19 68.7534 138.949 69.7383 138.949C70.3065 138.949 70.8675 139.044 71.4215 139.233C71.9755 139.422 72.4798 139.73 72.9343 140.156C73.3888 140.578 73.7511 141.136 74.021 141.832C74.2908 142.528 74.4258 143.385 74.4258 144.403V145.114H66.0167V143.665H72.7212C72.7212 143.049 72.5981 142.5 72.3519 142.017C72.1104 141.534 71.7648 141.153 71.315 140.874C70.8699 140.594 70.3443 140.455 69.7383 140.455C69.0707 140.455 68.493 140.62 68.0053 140.952C67.5224 141.278 67.1507 141.705 66.8903 142.23C66.6299 142.756 66.4996 143.319 66.4996 143.92V144.886C66.4996 145.71 66.6417 146.409 66.9258 146.982C67.2146 147.55 67.6147 147.983 68.1261 148.281C68.6374 148.575 69.2317 148.722 69.9087 148.722C70.3491 148.722 70.7468 148.66 71.1019 148.537C71.4618 148.409 71.7719 148.22 72.0323 147.969C72.2927 147.713 72.494 147.396 72.636 147.017L74.2553 147.472C74.0849 148.021 73.7984 148.504 73.396 148.92C72.9935 149.332 72.4963 149.654 71.9045 149.886C71.3126 150.114 70.6474 150.227 69.9087 150.227ZM76.9755 150V139.091H78.5948V140.739H78.7085C78.9073 140.199 79.2672 139.761 79.788 139.425C80.3088 139.089 80.896 138.92 81.5494 138.92C81.6725 138.92 81.8263 138.923 82.011 138.928C82.1957 138.932 82.3353 138.939 82.43 138.949V140.653C82.3732 140.639 82.243 140.618 82.0394 140.589C81.8406 140.556 81.6299 140.54 81.4073 140.54C80.877 140.54 80.4035 140.651 79.9869 140.874C79.5749 141.091 79.2482 141.394 79.0067 141.783C78.77 142.166 78.6516 142.604 78.6516 143.097V150H76.9755ZM90.8658 150H89.0192L94.3601 135.455H96.1783L101.519 150H99.6726L95.326 137.756H95.2124L90.8658 150ZM91.5476 144.318H98.9908V145.881H91.5476V144.318Z"></path>
<path fill="black" d="M53.4879 60H50.8459C50.6896 59.2401 50.4162 58.5724 50.0256 57.9972C49.642 57.4219 49.1733 56.9389 48.6193 56.5483C48.0724 56.1506 47.4652 55.8523 46.7976 55.6534C46.13 55.4545 45.4339 55.3551 44.7095 55.3551C43.3885 55.3551 42.1918 55.6889 41.1193 56.3565C40.054 57.0241 39.2053 58.0078 38.5732 59.3075C37.9482 60.6072 37.6357 62.2017 37.6357 64.0909C37.6357 65.9801 37.9482 67.5746 38.5732 68.8743C39.2053 70.174 40.054 71.1577 41.1193 71.8253C42.1918 72.4929 43.3885 72.8267 44.7095 72.8267C45.4339 72.8267 46.13 72.7273 46.7976 72.5284C47.4652 72.3295 48.0724 72.0348 48.6193 71.6442C49.1733 71.2464 49.642 70.7599 50.0256 70.1847C50.4162 69.6023 50.6896 68.9347 50.8459 68.1818H53.4879C53.2891 69.2969 52.9268 70.2947 52.4013 71.1754C51.8757 72.0561 51.2223 72.8054 50.4411 73.4233C49.6598 74.0341 48.7827 74.4993 47.8097 74.8189C46.8438 75.1385 45.8104 75.2983 44.7095 75.2983C42.8487 75.2983 41.1939 74.8438 39.745 73.9347C38.2962 73.0256 37.1563 71.733 36.3253 70.0568C35.4943 68.3807 35.0788 66.392 35.0788 64.0909C35.0788 61.7898 35.4943 59.8011 36.3253 58.125C37.1563 56.4489 38.2962 55.1562 39.745 54.2472C41.1939 53.3381 42.8487 52.8835 44.7095 52.8835C45.8104 52.8835 46.8438 53.0433 47.8097 53.3629C48.7827 53.6825 49.6598 54.1513 50.4411 54.7692C51.2223 55.38 51.8757 56.1257 52.4013 57.0064C52.9268 57.88 53.2891 58.8778 53.4879 60ZM59.9306 65.1562V75H57.4164V53.1818H59.9306V61.1932H60.1436C60.5272 60.348 61.1025 59.6768 61.8695 59.1797C62.6436 58.6754 63.6735 58.4233 64.959 58.4233C66.074 58.4233 67.0506 58.647 67.8887 59.0945C68.7267 59.5348 69.3766 60.2131 69.8382 61.1293C70.307 62.0384 70.5414 63.196 70.5414 64.6023V75H68.0272V64.7727C68.0272 63.473 67.6898 62.468 67.0151 61.7578C66.3475 61.0405 65.4206 60.6818 64.2346 60.6818C63.4107 60.6818 62.6721 60.8558 62.0186 61.2038C61.3723 61.5518 60.861 62.0597 60.4846 62.7273C60.1152 63.3949 59.9306 64.2045 59.9306 65.1562ZM75.141 75V58.6364H77.6552V75H75.141ZM76.4194 55.9091C75.9293 55.9091 75.5067 55.7422 75.1516 55.4084C74.8036 55.0746 74.6296 54.6733 74.6296 54.2045C74.6296 53.7358 74.8036 53.3345 75.1516 53.0007C75.5067 52.6669 75.9293 52.5 76.4194 52.5C76.9094 52.5 77.3285 52.6669 77.6765 53.0007C78.0316 53.3345 78.2092 53.7358 78.2092 54.2045C78.2092 54.6733 78.0316 55.0746 77.6765 55.4084C77.3285 55.7422 76.9094 55.9091 76.4194 55.9091ZM84.7743 53.1818V75H82.2601V53.1818H84.7743ZM95.5582 75.3409C94.1946 75.3409 92.9908 74.9964 91.9467 74.3075C90.9027 73.6115 90.0859 72.6314 89.4964 71.3672C88.907 70.0959 88.6122 68.5938 88.6122 66.8608C88.6122 65.142 88.907 63.6506 89.4964 62.3864C90.0859 61.1222 90.9063 60.1456 91.9574 59.4567C93.0085 58.7678 94.223 58.4233 95.6009 58.4233C96.6662 58.4233 97.5078 58.6009 98.1257 58.956C98.7507 59.304 99.2266 59.7017 99.5533 60.1491C99.8871 60.5895 100.146 60.9517 100.331 61.2358H100.544V53.1818H103.058V75H100.629V72.4858H100.331C100.146 72.7841 99.8835 73.1605 99.5426 73.6151C99.2017 74.0625 98.7152 74.4638 98.0831 74.8189C97.451 75.1669 96.6094 75.3409 95.5582 75.3409ZM95.8991 73.0824C96.9077 73.0824 97.7599 72.8196 98.456 72.294C99.152 71.7614 99.6811 71.0263 100.043 70.0888C100.406 69.1442 100.587 68.054 100.587 66.8182C100.587 65.5966 100.409 64.5277 100.054 63.6115C99.6989 62.6882 99.1733 61.9709 98.4773 61.4595C97.7813 60.9411 96.9219 60.6818 95.8991 60.6818C94.8338 60.6818 93.946 60.9553 93.2358 61.5021C92.5327 62.0419 92.0036 62.777 91.6484 63.7074C91.3004 64.6307 91.1264 65.6676 91.1264 66.8182C91.1264 67.983 91.304 69.0412 91.6591 69.9929C92.0213 70.9375 92.554 71.6903 93.2571 72.2514C93.9673 72.8054 94.848 73.0824 95.8991 73.0824Z"></path>
</svg>
