<svg xmlns="http://www.w3.org/2000/svg" fill="none" viewBox="0 0 139 164" height="164" width="139">
<path fill="#EEC638" d="M0 20C0 8.95431 8.95431 0 20 0H119C130.046 0 139 8.95431 139 20V144C139 155.046 130.046 164 119 164H20C8.95431 164 0 155.046 0 144V20Z"></path>
<path fill="black" d="M36.2102 135.455V150H34.5341V135.455H36.2102ZM43.854 150.227C42.8029 150.227 41.8962 149.995 41.1339 149.531C40.3763 149.062 39.7915 148.409 39.3796 147.571C38.9724 146.728 38.7688 145.748 38.7688 144.631C38.7688 143.513 38.9724 142.528 39.3796 141.676C39.7915 140.819 40.3645 140.152 41.0984 139.673C41.837 139.19 42.6987 138.949 43.6836 138.949C44.2518 138.949 44.8129 139.044 45.3668 139.233C45.9208 139.422 46.4251 139.73 46.8796 140.156C47.3342 140.578 47.6964 141.136 47.9663 141.832C48.2362 142.528 48.3711 143.385 48.3711 144.403V145.114H39.962V143.665H46.6665C46.6665 143.049 46.5434 142.5 46.2972 142.017C46.0558 141.534 45.7101 141.153 45.2603 140.874C44.8152 140.594 44.2897 140.455 43.6836 140.455C43.016 140.455 42.4383 140.62 41.9506 140.952C41.4677 141.278 41.096 141.705 40.8356 142.23C40.5752 142.756 40.445 143.319 40.445 143.92V144.886C40.445 145.71 40.587 146.409 40.8711 146.982C41.1599 147.55 41.56 147.983 42.0714 148.281C42.5827 148.575 43.177 148.722 43.854 148.722C44.2944 148.722 44.6921 148.66 45.0472 148.537C45.4071 148.409 45.7172 148.22 45.9776 147.969C46.238 147.713 46.4393 147.396 46.5813 147.017L48.2006 147.472C48.0302 148.021 47.7437 148.504 47.3413 148.92C46.9388 149.332 46.4416 149.654 45.8498 149.886C45.2579 150.114 44.5927 150.227 43.854 150.227ZM55.6651 139.091V140.511H50.0117V139.091H55.6651ZM51.6594 136.477H53.3356V146.875C53.3356 147.348 53.4042 147.704 53.5415 147.94C53.6836 148.172 53.8635 148.329 54.0813 148.409C54.3039 148.485 54.5382 148.523 54.7844 148.523C54.9691 148.523 55.1206 148.513 55.239 148.494C55.3574 148.471 55.4521 148.452 55.5231 148.438L55.864 149.943C55.7504 149.986 55.5917 150.028 55.3881 150.071C55.1845 150.118 54.9265 150.142 54.614 150.142C54.1405 150.142 53.6765 150.04 53.2219 149.837C52.7721 149.633 52.3981 149.323 52.0998 148.906C51.8062 148.49 51.6594 147.964 51.6594 147.33V136.477ZM62.9308 139.091V140.511H57.2773V139.091H62.9308ZM58.9251 136.477H60.6012V146.875C60.6012 147.348 60.6699 147.704 60.8072 147.94C60.9492 148.172 61.1291 148.329 61.3469 148.409C61.5695 148.485 61.8039 148.523 62.0501 148.523C62.2347 148.523 62.3862 148.513 62.5046 148.494C62.623 148.471 62.7177 148.452 62.7887 148.438L63.1296 149.943C63.016 149.986 62.8574 150.028 62.6538 150.071C62.4502 150.118 62.1921 150.142 61.8796 150.142C61.4061 150.142 60.9421 150.04 60.4876 149.837C60.0378 149.633 59.6637 149.323 59.3654 148.906C59.0719 148.49 58.9251 147.964 58.9251 147.33V136.477ZM69.9087 150.227C68.8576 150.227 67.9509 149.995 67.1886 149.531C66.431 149.062 65.8462 148.409 65.4343 147.571C65.0271 146.728 64.8235 145.748 64.8235 144.631C64.8235 143.513 65.0271 142.528 65.4343 141.676C65.8462 140.819 66.4192 140.152 67.1531 139.673C67.8917 139.19 68.7534 138.949 69.7383 138.949C70.3065 138.949 70.8675 139.044 71.4215 139.233C71.9755 139.422 72.4798 139.73 72.9343 140.156C73.3888 140.578 73.7511 141.136 74.021 141.832C74.2908 142.528 74.4258 143.385 74.4258 144.403V145.114H66.0167V143.665H72.7212C72.7212 143.049 72.5981 142.5 72.3519 142.017C72.1104 141.534 71.7648 141.153 71.315 140.874C70.8699 140.594 70.3443 140.455 69.7383 140.455C69.0707 140.455 68.493 140.62 68.0053 140.952C67.5224 141.278 67.1507 141.705 66.8903 142.23C66.6299 142.756 66.4996 143.319 66.4996 143.92V144.886C66.4996 145.71 66.6417 146.409 66.9258 146.982C67.2146 147.55 67.6147 147.983 68.1261 148.281C68.6374 148.575 69.2317 148.722 69.9087 148.722C70.3491 148.722 70.7468 148.66 71.1019 148.537C71.4618 148.409 71.7719 148.22 72.0323 147.969C72.2927 147.713 72.494 147.396 72.636 147.017L74.2553 147.472C74.0849 148.021 73.7984 148.504 73.396 148.92C72.9935 149.332 72.4963 149.654 71.9045 149.886C71.3126 150.114 70.6474 150.227 69.9087 150.227ZM76.9755 150V139.091H78.5948V140.739H78.7085C78.9073 140.199 79.2672 139.761 79.788 139.425C80.3088 139.089 80.896 138.92 81.5494 138.92C81.6725 138.92 81.8263 138.923 82.011 138.928C82.1957 138.932 82.3353 138.939 82.43 138.949V140.653C82.3732 140.639 82.243 140.618 82.0394 140.589C81.8406 140.556 81.6299 140.54 81.4073 140.54C80.877 140.54 80.4035 140.651 79.9869 140.874C79.5749 141.091 79.2482 141.394 79.0067 141.783C78.77 142.166 78.6516 142.604 78.6516 143.097V150H76.9755ZM94.7578 150H90.2692V135.455H94.9567C96.3677 135.455 97.575 135.746 98.5788 136.328C99.5826 136.906 100.352 137.737 100.887 138.821C101.422 139.901 101.69 141.193 101.69 142.699C101.69 144.214 101.42 145.518 100.88 146.612C100.34 147.701 99.5542 148.539 98.522 149.126C97.4898 149.709 96.2351 150 94.7578 150ZM92.0305 148.438H94.6442C95.8468 148.438 96.8435 148.205 97.6342 147.741C98.425 147.277 99.0144 146.617 99.4027 145.76C99.791 144.903 99.9851 143.883 99.9851 142.699C99.9851 141.525 99.7933 140.514 99.4098 139.666C99.0263 138.814 98.4534 138.161 97.6911 137.706C96.9287 137.247 95.9794 137.017 94.843 137.017H92.0305V148.438Z"></path>
<path fill="black" d="M36.483 60H33.841C33.6847 59.2401 33.4113 58.5724 33.0207 57.9972C32.6372 57.4219 32.1684 56.9389 31.6144 56.5483C31.0676 56.1506 30.4603 55.8523 29.7927 55.6534C29.1251 55.4545 28.4291 55.3551 27.7046 55.3551C26.3836 55.3551 25.1869 55.6889 24.1144 56.3565C23.0491 57.0241 22.2004 58.0078 21.5683 59.3075C20.9433 60.6072 20.6308 62.2017 20.6308 64.0909C20.6308 65.9801 20.9433 67.5746 21.5683 68.8743C22.2004 70.174 23.0491 71.1577 24.1144 71.8253C25.1869 72.4929 26.3836 72.8267 27.7046 72.8267C28.4291 72.8267 29.1251 72.7273 29.7927 72.5284C30.4603 72.3295 31.0676 72.0348 31.6144 71.6442C32.1684 71.2464 32.6372 70.7599 33.0207 70.1847C33.4113 69.6023 33.6847 68.9347 33.841 68.1818H36.483C36.2842 69.2969 35.922 70.2947 35.3964 71.1754C34.8708 72.0561 34.2174 72.8054 33.4362 73.4233C32.6549 74.0341 31.7778 74.4993 30.8048 74.8189C29.8389 75.1385 28.8055 75.2983 27.7046 75.2983C25.8438 75.2983 24.189 74.8438 22.7401 73.9347C21.2913 73.0256 20.1514 71.733 19.3204 70.0568C18.4894 68.3807 18.074 66.392 18.074 64.0909C18.074 61.7898 18.4894 59.8011 19.3204 58.125C20.1514 56.4489 21.2913 55.1562 22.7401 54.2472C24.189 53.3381 25.8438 52.8835 27.7046 52.8835C28.8055 52.8835 29.8389 53.0433 30.8048 53.3629C31.7778 53.6825 32.6549 54.1513 33.4362 54.7692C34.2174 55.38 34.8708 56.1257 35.3964 57.0064C35.922 57.88 36.2842 58.8778 36.483 60ZM42.9257 65.1562V75H40.4115V53.1818H42.9257V61.1932H43.1388C43.5223 60.348 44.0976 59.6768 44.8646 59.1797C45.6388 58.6754 46.6686 58.4233 47.9541 58.4233C49.0692 58.4233 50.0457 58.647 50.8838 59.0945C51.7219 59.5348 52.3717 60.2131 52.8334 61.1293C53.3021 62.0384 53.5365 63.196 53.5365 64.6023V75H51.0223V64.7727C51.0223 63.473 50.6849 62.468 50.0102 61.7578C49.3426 61.0405 48.4157 60.6818 47.2297 60.6818C46.4058 60.6818 45.6672 60.8558 45.0138 61.2038C44.3675 61.5518 43.8561 62.0597 43.4797 62.7273C43.1104 63.3949 42.9257 64.2045 42.9257 65.1562ZM58.1361 75V58.6364H60.6503V75H58.1361ZM59.4145 55.9091C58.9244 55.9091 58.5019 55.7422 58.1468 55.4084C57.7987 55.0746 57.6247 54.6733 57.6247 54.2045C57.6247 53.7358 57.7987 53.3345 58.1468 53.0007C58.5019 52.6669 58.9244 52.5 59.4145 52.5C59.9046 52.5 60.3236 52.6669 60.6716 53.0007C61.0267 53.3345 61.2043 53.7358 61.2043 54.2045C61.2043 54.6733 61.0267 55.0746 60.6716 55.4084C60.3236 55.7422 59.9046 55.9091 59.4145 55.9091ZM67.7694 53.1818V75H65.2552V53.1818H67.7694ZM78.5534 75.3409C77.1897 75.3409 75.9859 74.9964 74.9419 74.3075C73.8978 73.6115 73.0811 72.6314 72.4916 71.3672C71.9021 70.0959 71.6073 68.5938 71.6073 66.8608C71.6073 65.142 71.9021 63.6506 72.4916 62.3864C73.0811 61.1222 73.9014 60.1456 74.9525 59.4567C76.0036 58.7678 77.2181 58.4233 78.596 58.4233C79.6613 58.4233 80.5029 58.6009 81.1208 58.956C81.7458 59.304 82.2217 59.7017 82.5484 60.1491C82.8822 60.5895 83.1414 60.9517 83.3261 61.2358H83.5392V53.1818H86.0534V75H83.6244V72.4858H83.3261C83.1414 72.7841 82.8786 73.1605 82.5377 73.6151C82.1968 74.0625 81.7103 74.4638 81.0782 74.8189C80.4461 75.1669 79.6045 75.3409 78.5534 75.3409ZM78.8943 73.0824C79.9028 73.0824 80.7551 72.8196 81.4511 72.294C82.1471 71.7614 82.6762 71.0263 83.0384 70.0888C83.4007 69.1442 83.5818 68.054 83.5818 66.8182C83.5818 65.5966 83.4042 64.5277 83.0491 63.6115C82.694 62.6882 82.1684 61.9709 81.4724 61.4595C80.7764 60.9411 79.917 60.6818 78.8943 60.6818C77.8289 60.6818 76.9411 60.9553 76.2309 61.5021C75.5278 62.0419 74.9987 62.777 74.6436 63.7074C74.2955 64.6307 74.1215 65.6676 74.1215 66.8182C74.1215 67.983 74.2991 69.0412 74.6542 69.9929C75.0164 70.9375 75.5491 71.6903 76.2522 72.2514C76.9624 72.8054 77.8431 73.0824 78.8943 73.0824ZM97.868 75.3409C96.2913 75.3409 94.9312 74.9929 93.7877 74.2969C92.6514 73.5938 91.7742 72.6136 91.1563 71.3565C90.5455 70.0923 90.2401 68.6222 90.2401 66.946C90.2401 65.2699 90.5455 63.7926 91.1563 62.5142C91.7742 61.2287 92.6336 60.2273 93.7345 59.5099C94.8424 58.7855 96.135 58.4233 97.6123 58.4233C98.4646 58.4233 99.3062 58.5653 100.137 58.8494C100.968 59.1335 101.725 59.5952 102.406 60.2344C103.088 60.8665 103.631 61.7045 104.036 62.7486C104.441 63.7926 104.644 65.0781 104.644 66.6051V67.6705H92.0299V65.4972H102.087C102.087 64.5739 101.902 63.75 101.533 63.0256C101.171 62.3011 100.652 61.7294 99.9774 61.3104C99.3097 60.8913 98.5214 60.6818 97.6123 60.6818C96.6109 60.6818 95.7444 60.9304 95.0129 61.4276C94.2884 61.9176 93.7309 62.5568 93.3403 63.3452C92.9497 64.1335 92.7544 64.9787 92.7544 65.8807V67.3295C92.7544 68.5653 92.9674 69.6129 93.3936 70.4723C93.8268 71.3246 94.4269 71.9744 95.194 72.4219C95.961 72.8622 96.8524 73.0824 97.868 73.0824C98.5285 73.0824 99.1251 72.9901 99.6578 72.8054C100.198 72.6136 100.663 72.3295 101.053 71.9531C101.444 71.5696 101.746 71.0937 101.959 70.5256L104.388 71.2074C104.132 72.0312 103.703 72.7557 103.099 73.3807C102.495 73.9986 101.749 74.4815 100.862 74.8295C99.9738 75.1705 98.9759 75.3409 97.868 75.3409ZM110.982 65.1562V75H108.468V58.6364H110.897V61.1932H111.11C111.494 60.3622 112.076 59.6946 112.857 59.1903C113.639 58.679 114.647 58.4233 115.883 58.4233C116.991 58.4233 117.96 58.6506 118.791 59.1051C119.622 59.5526 120.269 60.2344 120.73 61.1506C121.192 62.0597 121.423 63.2102 121.423 64.6023V75H118.908V64.7727C118.908 63.4872 118.575 62.4858 117.907 61.7685C117.239 61.044 116.323 60.6818 115.158 60.6818C114.356 60.6818 113.639 60.8558 113.006 61.2038C112.381 61.5518 111.888 62.0597 111.526 62.7273C111.163 63.3949 110.982 64.2045 110.982 65.1562Z"></path>
</svg>
