<svg xmlns="http://www.w3.org/2000/svg" fill="none" viewBox="0 0 139 164" height="164" width="139">
<path fill="#EEC638" d="M0 20C0 8.95431 8.95431 0 20 0H119C130.046 0 139 8.95431 139 20V144C139 155.046 130.046 164 119 164H20C8.95431 164 0 155.046 0 144V20Z"></path>
<path fill="black" d="M36.2102 135.455V150H34.5341V135.455H36.2102ZM43.854 150.227C42.8029 150.227 41.8962 149.995 41.1339 149.531C40.3763 149.062 39.7915 148.409 39.3796 147.571C38.9724 146.728 38.7688 145.748 38.7688 144.631C38.7688 143.513 38.9724 142.528 39.3796 141.676C39.7915 140.819 40.3645 140.152 41.0984 139.673C41.837 139.19 42.6987 138.949 43.6836 138.949C44.2518 138.949 44.8129 139.044 45.3668 139.233C45.9208 139.422 46.4251 139.73 46.8796 140.156C47.3342 140.578 47.6964 141.136 47.9663 141.832C48.2362 142.528 48.3711 143.385 48.3711 144.403V145.114H39.962V143.665H46.6665C46.6665 143.049 46.5434 142.5 46.2972 142.017C46.0558 141.534 45.7101 141.153 45.2603 140.874C44.8152 140.594 44.2897 140.455 43.6836 140.455C43.016 140.455 42.4383 140.62 41.9506 140.952C41.4677 141.278 41.096 141.705 40.8356 142.23C40.5752 142.756 40.445 143.319 40.445 143.92V144.886C40.445 145.71 40.587 146.409 40.8711 146.982C41.1599 147.55 41.56 147.983 42.0714 148.281C42.5827 148.575 43.177 148.722 43.854 148.722C44.2944 148.722 44.6921 148.66 45.0472 148.537C45.4071 148.409 45.7172 148.22 45.9776 147.969C46.238 147.713 46.4393 147.396 46.5813 147.017L48.2006 147.472C48.0302 148.021 47.7437 148.504 47.3413 148.92C46.9388 149.332 46.4416 149.654 45.8498 149.886C45.2579 150.114 44.5927 150.227 43.854 150.227ZM55.6651 139.091V140.511H50.0117V139.091H55.6651ZM51.6594 136.477H53.3356V146.875C53.3356 147.348 53.4042 147.704 53.5415 147.94C53.6836 148.172 53.8635 148.329 54.0813 148.409C54.3039 148.485 54.5382 148.523 54.7844 148.523C54.9691 148.523 55.1206 148.513 55.239 148.494C55.3574 148.471 55.4521 148.452 55.5231 148.438L55.864 149.943C55.7504 149.986 55.5917 150.028 55.3881 150.071C55.1845 150.118 54.9265 150.142 54.614 150.142C54.1405 150.142 53.6765 150.04 53.2219 149.837C52.7721 149.633 52.3981 149.323 52.0998 148.906C51.8062 148.49 51.6594 147.964 51.6594 147.33V136.477ZM62.9308 139.091V140.511H57.2773V139.091H62.9308ZM58.9251 136.477H60.6012V146.875C60.6012 147.348 60.6699 147.704 60.8072 147.94C60.9492 148.172 61.1291 148.329 61.3469 148.409C61.5695 148.485 61.8039 148.523 62.0501 148.523C62.2347 148.523 62.3862 148.513 62.5046 148.494C62.623 148.471 62.7177 148.452 62.7887 148.438L63.1296 149.943C63.016 149.986 62.8574 150.028 62.6538 150.071C62.4502 150.118 62.1921 150.142 61.8796 150.142C61.4061 150.142 60.9421 150.04 60.4876 149.837C60.0378 149.633 59.6637 149.323 59.3654 148.906C59.0719 148.49 58.9251 147.964 58.9251 147.33V136.477ZM69.9087 150.227C68.8576 150.227 67.9509 149.995 67.1886 149.531C66.431 149.062 65.8462 148.409 65.4343 147.571C65.0271 146.728 64.8235 145.748 64.8235 144.631C64.8235 143.513 65.0271 142.528 65.4343 141.676C65.8462 140.819 66.4192 140.152 67.1531 139.673C67.8917 139.19 68.7534 138.949 69.7383 138.949C70.3065 138.949 70.8675 139.044 71.4215 139.233C71.9755 139.422 72.4798 139.73 72.9343 140.156C73.3888 140.578 73.7511 141.136 74.021 141.832C74.2908 142.528 74.4258 143.385 74.4258 144.403V145.114H66.0167V143.665H72.7212C72.7212 143.049 72.5981 142.5 72.3519 142.017C72.1104 141.534 71.7648 141.153 71.315 140.874C70.8699 140.594 70.3443 140.455 69.7383 140.455C69.0707 140.455 68.493 140.62 68.0053 140.952C67.5224 141.278 67.1507 141.705 66.8903 142.23C66.6299 142.756 66.4996 143.319 66.4996 143.92V144.886C66.4996 145.71 66.6417 146.409 66.9258 146.982C67.2146 147.55 67.6147 147.983 68.1261 148.281C68.6374 148.575 69.2317 148.722 69.9087 148.722C70.3491 148.722 70.7468 148.66 71.1019 148.537C71.4618 148.409 71.7719 148.22 72.0323 147.969C72.2927 147.713 72.494 147.396 72.636 147.017L74.2553 147.472C74.0849 148.021 73.7984 148.504 73.396 148.92C72.9935 149.332 72.4963 149.654 71.9045 149.886C71.3126 150.114 70.6474 150.227 69.9087 150.227ZM76.9755 150V139.091H78.5948V140.739H78.7085C78.9073 140.199 79.2672 139.761 79.788 139.425C80.3088 139.089 80.896 138.92 81.5494 138.92C81.6725 138.92 81.8263 138.923 82.011 138.928C82.1957 138.932 82.3353 138.939 82.43 138.949V140.653C82.3732 140.639 82.243 140.618 82.0394 140.589C81.8406 140.556 81.6299 140.54 81.4073 140.54C80.877 140.54 80.4035 140.651 79.9869 140.874C79.5749 141.091 79.2482 141.394 79.0067 141.783C78.77 142.166 78.6516 142.604 78.6516 143.097V150H76.9755ZM90.2692 150V135.455H95.3544C96.3677 135.455 97.2034 135.63 97.8615 135.98C98.5197 136.326 99.0097 136.792 99.3317 137.379C99.6536 137.962 99.8146 138.608 99.8146 139.318C99.8146 139.943 99.7034 140.459 99.4808 140.866C99.263 141.274 98.9742 141.596 98.6143 141.832C98.2592 142.069 97.8733 142.244 97.4567 142.358V142.5C97.9018 142.528 98.3492 142.685 98.799 142.969C99.2488 143.253 99.6252 143.66 99.9283 144.19C100.231 144.721 100.383 145.369 100.383 146.136C100.383 146.866 100.217 147.521 99.8857 148.104C99.5542 148.686 99.031 149.148 98.3161 149.489C97.6011 149.83 96.6707 150 95.5249 150H90.2692ZM92.0305 148.438H95.5249C96.6754 148.438 97.4922 148.215 97.9751 147.77C98.4628 147.32 98.7067 146.776 98.7067 146.136C98.7067 145.644 98.5812 145.189 98.3303 144.773C98.0793 144.351 97.7218 144.015 97.2578 143.764C96.7938 143.509 96.2446 143.381 95.6101 143.381H92.0305V148.438ZM92.0305 141.847H95.2976C95.8279 141.847 96.3061 141.742 96.7322 141.534C97.1631 141.326 97.504 141.032 97.755 140.653C98.0107 140.275 98.1385 139.83 98.1385 139.318C98.1385 138.679 97.916 138.137 97.4709 137.692C97.0258 137.242 96.3203 137.017 95.3544 137.017H92.0305V141.847Z"></path>
<path fill="black" d="M36.627 75H29.894V53.1818H36.9252C39.0417 53.1818 40.8528 53.6186 42.3585 54.4922C43.8642 55.3587 45.0183 56.6051 45.8208 58.2315C46.6234 59.8509 47.0247 61.7898 47.0247 64.0483C47.0247 66.321 46.6199 68.2777 45.8102 69.9183C45.0005 71.5518 43.8216 72.8089 42.2733 73.6896C40.725 74.5632 38.8429 75 36.627 75ZM32.536 72.6562H36.4565C38.2605 72.6562 39.7555 72.3082 40.9416 71.6122C42.1277 70.9162 43.0119 69.9254 43.5943 68.6399C44.1767 67.3544 44.4679 65.8239 44.4679 64.0483C44.4679 62.2869 44.1802 60.7706 43.6049 59.4993C43.0297 58.2209 42.1703 57.2408 41.0268 56.5589C39.8833 55.87 38.4593 55.5256 36.7548 55.5256H32.536V72.6562ZM51.1156 75V58.6364H53.5446V61.108H53.715C54.0133 60.2983 54.5531 59.6413 55.3343 59.1371C56.1156 58.6328 56.9963 58.3807 57.9764 58.3807C58.161 58.3807 58.3919 58.3842 58.6689 58.3913C58.9458 58.3984 59.1554 58.4091 59.2974 58.4233V60.9801C59.2122 60.9588 59.0169 60.9268 58.7115 60.8842C58.4132 60.8345 58.0971 60.8097 57.7633 60.8097C56.9679 60.8097 56.2576 60.9766 55.6326 61.3104C55.0147 61.6371 54.5247 62.0916 54.1625 62.674C53.8074 63.2493 53.6298 63.9062 53.6298 64.6449V75H51.1156ZM67.093 75.3835C66.0561 75.3835 65.1151 75.1882 64.2699 74.7976C63.4247 74.3999 62.7536 73.8281 62.2564 73.0824C61.7592 72.3295 61.5107 71.4205 61.5107 70.3551C61.5107 69.4176 61.6953 68.6577 62.0646 68.0753C62.4339 67.4858 62.9276 67.0241 63.5455 66.6903C64.1634 66.3565 64.8452 66.108 65.5909 65.9446C66.3438 65.7741 67.1001 65.6392 67.8601 65.5398C68.8544 65.4119 69.6605 65.3161 70.2784 65.2521C70.9034 65.1811 71.358 65.0639 71.642 64.9006C71.9332 64.7372 72.0788 64.4531 72.0788 64.0483V63.9631C72.0788 62.9119 71.7912 62.0952 71.2159 61.5128C70.6477 60.9304 69.7848 60.6392 68.6271 60.6392C67.4268 60.6392 66.4858 60.902 65.804 61.4276C65.1222 61.9531 64.6428 62.5142 64.3658 63.1108L61.9794 62.2585C62.4055 61.2642 62.9737 60.4901 63.6839 59.9361C64.4013 59.375 65.1825 58.9844 66.0277 58.7642C66.88 58.5369 67.718 58.4233 68.5419 58.4233C69.0675 58.4233 69.6712 58.4872 70.353 58.6151C71.0419 58.7358 71.706 58.9879 72.3452 59.3714C72.9915 59.755 73.5277 60.3338 73.9538 61.108C74.38 61.8821 74.593 62.919 74.593 64.2188V75H72.0788V72.7841H71.951C71.7805 73.1392 71.4964 73.5192 71.0987 73.924C70.701 74.3288 70.1719 74.6733 69.5114 74.9574C68.8509 75.2415 68.0447 75.3835 67.093 75.3835ZM67.4766 73.125C68.4709 73.125 69.3089 72.9297 69.9908 72.5391C70.6797 72.1484 71.1982 71.6442 71.5462 71.0263C71.9013 70.4084 72.0788 69.7585 72.0788 69.0767V66.7756C71.9723 66.9034 71.7379 67.0206 71.3757 67.1271C71.0206 67.2266 70.6087 67.3153 70.1399 67.3935C69.6783 67.4645 69.2273 67.5284 68.7869 67.5852C68.3537 67.6349 68.0021 67.6776 67.7322 67.7131C67.0788 67.7983 66.468 67.9368 65.8999 68.1286C65.3388 68.3132 64.8842 68.5937 64.5362 68.9702C64.1953 69.3395 64.0249 69.8437 64.0249 70.483C64.0249 71.3565 64.348 72.017 64.9943 72.4645C65.6477 72.9048 66.4751 73.125 67.4766 73.125ZM81.6962 65.1562V75H79.182V58.6364H81.611V61.1932H81.824C82.2076 60.3622 82.79 59.6946 83.5712 59.1903C84.3525 58.679 85.361 58.4233 86.5968 58.4233C87.7047 58.4233 88.6742 58.6506 89.5051 59.1051C90.3361 59.5526 90.9824 60.2344 91.4441 61.1506C91.9057 62.0597 92.1365 63.2102 92.1365 64.6023V75H89.6223V64.7727C89.6223 63.4872 89.2885 62.4858 88.6209 61.7685C87.9533 61.044 87.0371 60.6818 85.8723 60.6818C85.0698 60.6818 84.3525 60.8558 83.7203 61.2038C83.0953 61.5518 82.6017 62.0597 82.2395 62.7273C81.8773 63.3949 81.6962 64.2045 81.6962 65.1562ZM99.0746 69.0341L99.032 65.9233H99.5433L106.702 58.6364H109.813L102.185 66.3494H101.972L99.0746 69.0341ZM96.7308 75V53.1818H99.245V75H96.7308ZM107.129 75L100.737 66.9034L102.526 65.1562L110.325 75H107.129Z"></path>
</svg>
