<svg xmlns="http://www.w3.org/2000/svg" fill="none" viewBox="0 0 139 164" height="164" width="139">
<path fill="#43D059" d="M0 20C0 8.95431 8.95431 0 20 0H119C130.046 0 139 8.95431 139 20V144C139 155.046 130.046 164 119 164H20C8.95431 164 0 155.046 0 144V20Z"></path>
<path fill="black" d="M36.2102 135.455V150H34.5341V135.455H36.2102ZM43.854 150.227C42.8029 150.227 41.8962 149.995 41.1339 149.531C40.3763 149.062 39.7915 148.409 39.3796 147.571C38.9724 146.728 38.7688 145.748 38.7688 144.631C38.7688 143.513 38.9724 142.528 39.3796 141.676C39.7915 140.819 40.3645 140.152 41.0984 139.673C41.837 139.19 42.6987 138.949 43.6836 138.949C44.2518 138.949 44.8129 139.044 45.3668 139.233C45.9208 139.422 46.4251 139.73 46.8796 140.156C47.3342 140.578 47.6964 141.136 47.9663 141.832C48.2362 142.528 48.3711 143.385 48.3711 144.403V145.114H39.962V143.665H46.6665C46.6665 143.049 46.5434 142.5 46.2972 142.017C46.0558 141.534 45.7101 141.153 45.2603 140.874C44.8152 140.594 44.2897 140.455 43.6836 140.455C43.016 140.455 42.4383 140.62 41.9506 140.952C41.4677 141.278 41.096 141.705 40.8356 142.23C40.5752 142.756 40.445 143.319 40.445 143.92V144.886C40.445 145.71 40.587 146.409 40.8711 146.982C41.1599 147.55 41.56 147.983 42.0714 148.281C42.5827 148.575 43.177 148.722 43.854 148.722C44.2944 148.722 44.6921 148.66 45.0472 148.537C45.4071 148.409 45.7172 148.22 45.9776 147.969C46.238 147.713 46.4393 147.396 46.5813 147.017L48.2006 147.472C48.0302 148.021 47.7437 148.504 47.3413 148.92C46.9388 149.332 46.4416 149.654 45.8498 149.886C45.2579 150.114 44.5927 150.227 43.854 150.227ZM55.6651 139.091V140.511H50.0117V139.091H55.6651ZM51.6594 136.477H53.3356V146.875C53.3356 147.348 53.4042 147.704 53.5415 147.94C53.6836 148.172 53.8635 148.329 54.0813 148.409C54.3039 148.485 54.5382 148.523 54.7844 148.523C54.9691 148.523 55.1206 148.513 55.239 148.494C55.3574 148.471 55.4521 148.452 55.5231 148.438L55.864 149.943C55.7504 149.986 55.5917 150.028 55.3881 150.071C55.1845 150.118 54.9265 150.142 54.614 150.142C54.1405 150.142 53.6765 150.04 53.2219 149.837C52.7721 149.633 52.3981 149.323 52.0998 148.906C51.8062 148.49 51.6594 147.964 51.6594 147.33V136.477ZM62.9308 139.091V140.511H57.2773V139.091H62.9308ZM58.9251 136.477H60.6012V146.875C60.6012 147.348 60.6699 147.704 60.8072 147.94C60.9492 148.172 61.1291 148.329 61.3469 148.409C61.5695 148.485 61.8039 148.523 62.0501 148.523C62.2347 148.523 62.3862 148.513 62.5046 148.494C62.623 148.471 62.7177 148.452 62.7887 148.438L63.1296 149.943C63.016 149.986 62.8574 150.028 62.6538 150.071C62.4502 150.118 62.1921 150.142 61.8796 150.142C61.4061 150.142 60.9421 150.04 60.4876 149.837C60.0378 149.633 59.6637 149.323 59.3654 148.906C59.0719 148.49 58.9251 147.964 58.9251 147.33V136.477ZM69.9087 150.227C68.8576 150.227 67.9509 149.995 67.1886 149.531C66.431 149.062 65.8462 148.409 65.4343 147.571C65.0271 146.728 64.8235 145.748 64.8235 144.631C64.8235 143.513 65.0271 142.528 65.4343 141.676C65.8462 140.819 66.4192 140.152 67.1531 139.673C67.8917 139.19 68.7534 138.949 69.7383 138.949C70.3065 138.949 70.8675 139.044 71.4215 139.233C71.9755 139.422 72.4798 139.73 72.9343 140.156C73.3888 140.578 73.7511 141.136 74.021 141.832C74.2908 142.528 74.4258 143.385 74.4258 144.403V145.114H66.0167V143.665H72.7212C72.7212 143.049 72.5981 142.5 72.3519 142.017C72.1104 141.534 71.7648 141.153 71.315 140.874C70.8699 140.594 70.3443 140.455 69.7383 140.455C69.0707 140.455 68.493 140.62 68.0053 140.952C67.5224 141.278 67.1507 141.705 66.8903 142.23C66.6299 142.756 66.4996 143.319 66.4996 143.92V144.886C66.4996 145.71 66.6417 146.409 66.9258 146.982C67.2146 147.55 67.6147 147.983 68.1261 148.281C68.6374 148.575 69.2317 148.722 69.9087 148.722C70.3491 148.722 70.7468 148.66 71.1019 148.537C71.4618 148.409 71.7719 148.22 72.0323 147.969C72.2927 147.713 72.494 147.396 72.636 147.017L74.2553 147.472C74.0849 148.021 73.7984 148.504 73.396 148.92C72.9935 149.332 72.4963 149.654 71.9045 149.886C71.3126 150.114 70.6474 150.227 69.9087 150.227ZM76.9755 150V139.091H78.5948V140.739H78.7085C78.9073 140.199 79.2672 139.761 79.788 139.425C80.3088 139.089 80.896 138.92 81.5494 138.92C81.6725 138.92 81.8263 138.923 82.011 138.928C82.1957 138.932 82.3353 138.939 82.43 138.949V140.653C82.3732 140.639 82.243 140.618 82.0394 140.589C81.8406 140.556 81.6299 140.54 81.4073 140.54C80.877 140.54 80.4035 140.651 79.9869 140.874C79.5749 141.091 79.2482 141.394 79.0067 141.783C78.77 142.166 78.6516 142.604 78.6516 143.097V150H76.9755ZM101.974 140H100.212C100.108 139.493 99.9259 139.048 99.6655 138.665C99.4098 138.281 99.0973 137.959 98.728 137.699C98.3634 137.434 97.9586 137.235 97.5135 137.102C97.0684 136.97 96.6044 136.903 96.1214 136.903C95.2408 136.903 94.4429 137.126 93.728 137.571C93.0178 138.016 92.4519 138.672 92.0305 139.538C91.6139 140.405 91.4055 141.468 91.4055 142.727C91.4055 143.987 91.6139 145.05 92.0305 145.916C92.4519 146.783 93.0178 147.438 93.728 147.884C94.4429 148.329 95.2408 148.551 96.1214 148.551C96.6044 148.551 97.0684 148.485 97.5135 148.352C97.9586 148.22 98.3634 148.023 98.728 147.763C99.0973 147.498 99.4098 147.173 99.6655 146.79C99.9259 146.402 100.108 145.956 100.212 145.455H101.974C101.841 146.198 101.6 146.863 101.249 147.45C100.899 148.037 100.463 148.537 99.9425 148.949C99.4216 149.356 98.8369 149.666 98.1882 149.879C97.5443 150.092 96.8554 150.199 96.1214 150.199C94.8809 150.199 93.7777 149.896 92.8118 149.29C91.8459 148.684 91.0859 147.822 90.532 146.705C89.978 145.587 89.701 144.261 89.701 142.727C89.701 141.193 89.978 139.867 90.532 138.75C91.0859 137.633 91.8459 136.771 92.8118 136.165C93.7777 135.559 94.8809 135.256 96.1214 135.256C96.8554 135.256 97.5443 135.362 98.1882 135.575C98.8369 135.788 99.4216 136.101 99.9425 136.513C100.463 136.92 100.899 137.417 101.249 138.004C101.6 138.587 101.841 139.252 101.974 140Z"></path>
<path fill="black" d="M24.5742 53H19.1879V35.5455H24.8129C26.506 35.5455 27.9549 35.8949 29.1594 36.5938C30.364 37.2869 31.2873 38.2841 31.9293 39.5852C32.5714 40.8807 32.8924 42.4318 32.8924 44.2386C32.8924 46.0568 32.5685 47.6222 31.9208 48.9347C31.2731 50.2415 30.3299 51.2472 29.0913 51.9517C27.8526 52.6506 26.3469 53 24.5742 53ZM21.3015 51.125H24.4379C25.881 51.125 27.0771 50.8466 28.0259 50.2898C28.9748 49.733 29.6822 48.9403 30.1481 47.9119C30.614 46.8835 30.8469 45.6591 30.8469 44.2386C30.8469 42.8295 30.6168 41.6165 30.1566 40.5994C29.6964 39.5767 29.0089 38.7926 28.0941 38.2472C27.1793 37.696 26.0401 37.4205 24.6765 37.4205H21.3015V51.125ZM36.1651 53V39.9091H38.1765V53H36.1651ZM37.1879 37.7273C36.7958 37.7273 36.4577 37.5938 36.1737 37.3267C35.8952 37.0597 35.756 36.7386 35.756 36.3636C35.756 35.9886 35.8952 35.6676 36.1737 35.4006C36.4577 35.1335 36.7958 35 37.1879 35C37.5799 35 37.9151 35.1335 38.1935 35.4006C38.4776 35.6676 38.6197 35.9886 38.6197 36.3636C38.6197 36.7386 38.4776 37.0597 38.1935 37.3267C37.9151 37.5938 37.5799 37.7273 37.1879 37.7273ZM47.1445 58.1818C46.1729 58.1818 45.3377 58.0568 44.6388 57.8068C43.94 57.5625 43.3576 57.2386 42.8917 56.8352C42.4315 56.4375 42.065 56.0114 41.7923 55.5568L43.3945 54.4318C43.5763 54.6705 43.8065 54.9432 44.0849 55.25C44.3633 55.5625 44.744 55.8324 45.2269 56.0597C45.7156 56.2926 46.3548 56.4091 47.1445 56.4091C48.2013 56.4091 49.0735 56.1534 49.761 55.642C50.4485 55.1307 50.7923 54.3295 50.7923 53.2386V50.5795H50.6218C50.4741 50.8182 50.2638 51.1136 49.9911 51.4659C49.7241 51.8125 49.3377 52.1222 48.832 52.3949C48.332 52.6619 47.6559 52.7955 46.8036 52.7955C45.7468 52.7955 44.7979 52.5455 43.957 52.0455C43.1218 51.5455 42.4599 50.8182 41.9712 49.8636C41.4883 48.9091 41.2468 47.75 41.2468 46.3864C41.2468 45.0455 41.4826 43.8778 41.9542 42.8835C42.4258 41.8835 43.082 41.1108 43.9229 40.5653C44.7638 40.0142 45.7354 39.7386 46.8377 39.7386C47.69 39.7386 48.3661 39.8807 48.8661 40.1648C49.3718 40.4432 49.7582 40.7614 50.0252 41.1193C50.2979 41.4716 50.5082 41.7614 50.6559 41.9886H50.8604V39.9091H52.8036V53.375C52.8036 54.5 52.5479 55.4148 52.0366 56.1193C51.5309 56.8295 50.8491 57.3494 49.9911 57.679C49.1388 58.0142 48.19 58.1818 47.1445 58.1818ZM47.0763 50.9886C47.8832 50.9886 48.565 50.804 49.1218 50.4347C49.6786 50.0653 50.1019 49.5341 50.3917 48.8409C50.6815 48.1477 50.8263 47.3182 50.8263 46.3523C50.8263 45.4091 50.6843 44.5767 50.4002 43.8551C50.1161 43.1335 49.6957 42.5682 49.1388 42.1591C48.582 41.75 47.8945 41.5455 47.0763 41.5455C46.2241 41.5455 45.5138 41.7614 44.9457 42.1932C44.3832 42.625 43.9599 43.2045 43.6758 43.9318C43.3974 44.6591 43.2582 45.4659 43.2582 46.3523C43.2582 47.2614 43.4002 48.0653 43.6843 48.7642C43.9741 49.4574 44.4002 50.0028 44.9627 50.4006C45.5309 50.7926 46.2354 50.9886 47.0763 50.9886ZM61.9741 53.2727C60.7127 53.2727 59.6246 52.9943 58.7099 52.4375C57.8008 51.875 57.0991 51.0909 56.6048 50.0852C56.1161 49.0739 55.8718 47.8977 55.8718 46.5568C55.8718 45.2159 56.1161 44.0341 56.6048 43.0114C57.0991 41.983 57.7866 41.1818 58.6673 40.608C59.5536 40.0284 60.5877 39.7386 61.7695 39.7386C62.4513 39.7386 63.1246 39.8523 63.7894 40.0795C64.4542 40.3068 65.0593 40.6761 65.6048 41.1875C66.1502 41.6932 66.5849 42.3636 66.9087 43.1989C67.2326 44.0341 67.3945 45.0625 67.3945 46.2841V47.1364H57.3036V45.3977H65.3491C65.3491 44.6591 65.2013 44 64.9059 43.4205C64.6161 42.8409 64.2013 42.3835 63.6616 42.0483C63.1275 41.7131 62.4968 41.5455 61.7695 41.5455C60.9684 41.5455 60.2752 41.7443 59.69 42.142C59.1104 42.5341 58.6644 43.0455 58.3519 43.6761C58.0394 44.3068 57.8832 44.983 57.8832 45.7045V46.8636C57.8832 47.8523 58.0536 48.6903 58.3945 49.3778C58.7411 50.0597 59.2212 50.5795 59.8349 50.9375C60.4485 51.2898 61.1616 51.4659 61.9741 51.4659C62.5025 51.4659 62.9798 51.392 63.4059 51.2443C63.8377 51.0909 64.2099 50.8636 64.5224 50.5625C64.8349 50.2557 65.0763 49.875 65.2468 49.4205L67.19 49.9659C66.9854 50.625 66.6417 51.2045 66.1587 51.7045C65.6758 52.1989 65.0792 52.5852 64.369 52.8636C63.6587 53.1364 62.8604 53.2727 61.9741 53.2727ZM79.7269 42.8409L77.9201 43.3523C77.8065 43.0511 77.6388 42.7585 77.4173 42.4744C77.2013 42.1847 76.9059 41.946 76.5309 41.7585C76.1559 41.571 75.6758 41.4773 75.0906 41.4773C74.2894 41.4773 73.6218 41.6619 73.0877 42.0312C72.5593 42.3949 72.2951 42.858 72.2951 43.4205C72.2951 43.9205 72.4769 44.3153 72.8406 44.6051C73.2042 44.8949 73.7724 45.1364 74.5451 45.3295L76.4883 45.8068C77.6587 46.0909 78.5309 46.5256 79.1048 47.1108C79.6786 47.6903 79.9656 48.4375 79.9656 49.3523C79.9656 50.1023 79.7496 50.7727 79.3178 51.3636C78.8917 51.9545 78.2951 52.4205 77.5281 52.7614C76.761 53.1023 75.869 53.2727 74.8519 53.2727C73.5167 53.2727 72.4116 52.983 71.5366 52.4034C70.6616 51.8239 70.1076 50.9773 69.8746 49.8636L71.7837 49.3864C71.9656 50.0909 72.3093 50.6193 72.815 50.9716C73.3263 51.3239 73.994 51.5 74.8178 51.5C75.7553 51.5 76.4996 51.3011 77.0508 50.9034C77.6076 50.5 77.886 50.017 77.886 49.4545C77.886 49 77.7269 48.6193 77.4087 48.3125C77.0906 48 76.6019 47.767 75.9428 47.6136L73.761 47.1023C72.5621 46.8182 71.6815 46.3778 71.119 45.7812C70.5621 45.179 70.2837 44.4261 70.2837 43.5227C70.2837 42.7841 70.4911 42.1307 70.9059 41.5625C71.3263 40.9943 71.8974 40.5483 72.619 40.2244C73.3462 39.9006 74.1701 39.7386 75.0906 39.7386C76.386 39.7386 77.4031 40.0227 78.1417 40.5909C78.886 41.1591 79.4144 41.9091 79.7269 42.8409ZM88.6864 39.9091V41.6136H81.9023V39.9091H88.6864ZM83.8796 36.7727H85.891V49.25C85.891 49.8182 85.9734 50.2443 86.1381 50.5284C86.3086 50.8068 86.5245 50.9943 86.7859 51.0909C87.0529 51.1818 87.3342 51.2273 87.6296 51.2273C87.8512 51.2273 88.033 51.2159 88.1751 51.1932C88.3171 51.1648 88.4308 51.142 88.516 51.125L88.9251 52.9318C88.7887 52.983 88.5984 53.0341 88.354 53.0852C88.1097 53.142 87.8001 53.1705 87.4251 53.1705C86.8569 53.1705 86.3001 53.0483 85.7546 52.804C85.2148 52.5597 84.766 52.1875 84.408 51.6875C84.0558 51.1875 83.8796 50.5568 83.8796 49.7955V36.7727ZM91.712 53V39.9091H93.7234V53H91.712ZM92.7347 37.7273C92.3427 37.7273 92.0046 37.5938 91.7205 37.3267C91.4421 37.0597 91.3029 36.7386 91.3029 36.3636C91.3029 35.9886 91.4421 35.6676 91.7205 35.4006C92.0046 35.1335 92.3427 35 92.7347 35C93.1268 35 93.462 35.1335 93.7404 35.4006C94.0245 35.6676 94.1665 35.9886 94.1665 36.3636C94.1665 36.7386 94.0245 37.0597 93.7404 37.3267C93.462 37.5938 93.1268 37.7273 92.7347 37.7273ZM102.725 53.2727C101.544 53.2727 100.507 52.9915 99.6147 52.429C98.7283 51.8665 98.0352 51.0795 97.5352 50.0682C97.0408 49.0568 96.7937 47.875 96.7937 46.5227C96.7937 45.1591 97.0408 43.9687 97.5352 42.9517C98.0352 41.9347 98.7283 41.1449 99.6147 40.5824C100.507 40.0199 101.544 39.7386 102.725 39.7386C103.907 39.7386 104.941 40.0199 105.828 40.5824C106.72 41.1449 107.413 41.9347 107.907 42.9517C108.407 43.9687 108.657 45.1591 108.657 46.5227C108.657 47.875 108.407 49.0568 107.907 50.0682C107.413 51.0795 106.72 51.8665 105.828 52.429C104.941 52.9915 103.907 53.2727 102.725 53.2727ZM102.725 51.4659C103.623 51.4659 104.362 51.2358 104.941 50.7756C105.521 50.3153 105.95 49.7102 106.228 48.9602C106.507 48.2102 106.646 47.3977 106.646 46.5227C106.646 45.6477 106.507 44.8324 106.228 44.0767C105.95 43.321 105.521 42.7102 104.941 42.2443C104.362 41.7784 103.623 41.5455 102.725 41.5455C101.828 41.5455 101.089 41.7784 100.51 42.2443C99.93 42.7102 99.5011 43.321 99.2227 44.0767C98.9442 44.8324 98.805 45.6477 98.805 46.5227C98.805 47.3977 98.9442 48.2102 99.2227 48.9602C99.5011 49.7102 99.93 50.3153 100.51 50.7756C101.089 51.2358 101.828 51.4659 102.725 51.4659ZM113.739 45.125V53H111.728V39.9091H113.671V41.9545H113.841C114.148 41.2898 114.614 40.7557 115.239 40.3523C115.864 39.9432 116.671 39.7386 117.659 39.7386C118.546 39.7386 119.321 39.9205 119.986 40.2841C120.651 40.642 121.168 41.1875 121.537 41.9205C121.907 42.6477 122.091 43.5682 122.091 44.6818V53H120.08V44.8182C120.08 43.7898 119.813 42.9886 119.279 42.4148C118.745 41.8352 118.012 41.5455 117.08 41.5455C116.438 41.5455 115.864 41.6847 115.358 41.9631C114.858 42.2415 114.463 42.6477 114.174 43.1818C113.884 43.7159 113.739 44.3636 113.739 45.125Z"></path>
</svg>
