<svg version="1.1" xmlns="http://www.w3.org/2000/svg" xmlns:xlink="http://www.w3.org/1999/xlink" width="243.82587" height="12.73549" viewBox="0,0,243.82587,12.73549"><g transform="translate(-118.08707,-173.63226)"><g data-paper-data="{&quot;isPaintingLayer&quot;:true}" fill="#ffffff" fill-rule="nonzero" stroke="none" stroke-width="1" stroke-linecap="butt" stroke-linejoin="miter" stroke-miterlimit="10" stroke-dasharray="" stroke-dashoffset="0" style="mix-blend-mode: normal"><path d="M120.70908,183.67081l-2.62202,-9.58907h1.1799l2.00396,7.80984h0.09364l2.04145,-7.80984h1.311l2.04142,7.80984h0.09364l2.00398,-7.80984h1.17989l-2.622,9.58907h-1.19865l-2.11632,-7.64129h-0.07491l-2.11635,7.64129zM132.43788,179.3445v4.32632h-1.10498v-9.58907h1.10498v3.52099h0.09367c0.16855,-0.37146 0.42137,-0.66642 0.75849,-0.88493c0.34025,-0.22162 0.79286,-0.33243 1.35783,-0.33243c0.49007,0 0.91927,0.09831 1.28759,0.29496c0.36833,0.19354 0.65395,0.49163 0.85683,0.8943c0.20602,0.39956 0.30902,0.90833 0.30902,1.52638v4.5698h-1.10498v-4.49487c0,-0.57124 -0.14828,-1.01291 -0.4448,-1.32506c-0.29342,-0.31526 -0.70078,-0.4729 -1.22205,-0.4729c-0.36209,0 -0.68672,0.07647 -0.97387,0.22942c-0.28405,0.15297 -0.5088,0.37616 -0.67425,0.66955c-0.16231,0.29342 -0.24348,0.64928 -0.24348,1.06754zM141.23918,183.83936c-0.45573,0 -0.8693,-0.08584 -1.24076,-0.25752c-0.37146,-0.17478 -0.66642,-0.42607 -0.88493,-0.75382c-0.21851,-0.33086 -0.32776,-0.73042 -0.32776,-1.19862c0,-0.41203 0.08117,-0.74602 0.24348,-1.00198c0.16231,-0.25908 0.37926,-0.462 0.65082,-0.60871c0.27156,-0.14668 0.57121,-0.25595 0.89897,-0.32773c0.33089,-0.07493 0.66331,-0.13424 0.99731,-0.17794c0.437,-0.05617 0.79129,-0.09831 1.06285,-0.12641c0.27469,-0.0312 0.47447,-0.08271 0.59931,-0.15451c0.128,-0.0718 0.19198,-0.19665 0.19198,-0.37456v-0.03747c0,-0.46197 -0.12641,-0.82093 -0.37926,-1.07688c-0.24972,-0.25598 -0.62895,-0.38396 -1.13775,-0.38396c-0.52754,0 -0.94113,0.11551 -1.24079,0.34649c-0.29966,0.23098 -0.51034,0.47757 -0.63208,0.73979l-1.04881,-0.37459c0.18728,-0.437 0.437,-0.77723 0.74915,-1.02071c0.31526,-0.24659 0.65862,-0.41827 1.03008,-0.51504c0.37456,-0.09988 0.74289,-0.14981 1.10498,-0.14981c0.23098,0 0.4963,0.02807 0.79596,0.08427c0.30279,0.05307 0.59464,0.16388 0.87556,0.33243c0.28405,0.16858 0.51974,0.42296 0.70702,0.76319c0.18728,0.34025 0.28092,0.79599 0.28092,1.3672v4.73835h-1.10498v-0.9739h-0.05617c-0.07493,0.15608 -0.19978,0.32309 -0.37459,0.501c-0.17478,0.17791 -0.40733,0.32932 -0.69762,0.45417c-0.29032,0.12487 -0.64458,0.18728 -1.06287,0.18728zM141.40775,182.84675c0.437,0 0.80533,-0.08584 1.10498,-0.25752c0.30279,-0.17168 0.53064,-0.3933 0.68359,-0.66488c0.15608,-0.27156 0.23412,-0.55717 0.23412,-0.85683v-1.01134c-0.04681,0.0562 -0.14981,0.1077 -0.30902,0.15451c-0.15608,0.0437 -0.33712,0.08271 -0.54314,0.11704c-0.20288,0.03123 -0.4011,0.05933 -0.59461,0.0843c-0.19041,0.02184 -0.34492,0.04057 -0.46353,0.05617c-0.28719,0.03747 -0.55564,0.09834 -0.80535,0.18261c-0.24659,0.08114 -0.44637,0.20445 -0.59931,0.36989c-0.14981,0.16231 -0.22475,0.38393 -0.22475,0.66485c0,0.38396 0.14204,0.67425 0.42609,0.87089c0.28716,0.19352 0.65082,0.29029 1.09095,0.29029zM149.67997,176.47902v0.93643h-3.72695v-0.93643zM147.03914,174.75599h1.10507v6.85467c0,0.31215 0.04532,0.54624 0.1357,0.70232c0.09367,0.15295 0.21233,0.25595 0.35599,0.30902c0.14668,0.04994 0.30106,0.07491 0.4634,0.07491c0.12169,0 0.22167,-0.00624 0.29968,-0.01871c0.07801,-0.01563 0.14064,-0.0281 0.18734,-0.03747l0.22469,0.99261c-0.07499,0.0281 -0.17937,0.0562 -0.31369,0.0843c-0.13405,0.0312 -0.30435,0.04681 -0.51037,0.04681c-0.31204,0 -0.61805,-0.06711 -0.91773,-0.20132c-0.29639,-0.13424 -0.54306,-0.33869 -0.73973,-0.61338c-0.19338,-0.27469 -0.29034,-0.62118 -0.29034,-1.03944zM155.05038,183.67081v-7.1918h1.10507v7.1918zM155.61239,175.28037c-0.21563,0 -0.40132,-0.07334 -0.55734,-0.22005c-0.153,-0.14671 -0.22936,-0.32306 -0.22936,-0.52907c0,-0.20602 0.07636,-0.38239 0.22936,-0.5291c0.15602,-0.14671 0.34171,-0.22005 0.55734,-0.22005c0.21535,0 0.39939,0.07334 0.5524,0.22005c0.15602,0.14671 0.23403,0.32309 0.23403,0.5291c0,0.20602 -0.07801,0.38236 -0.23403,0.52907c-0.153,0.14671 -0.33704,0.22005 -0.5524,0.22005zM163.2734,178.08967l-0.99244,0.28092c-0.06263,-0.16542 -0.15465,-0.32619 -0.27633,-0.48224c-0.11866,-0.15921 -0.281,-0.29032 -0.48702,-0.39332c-0.20602,-0.10301 -0.46971,-0.15451 -0.79137,-0.15451c-0.44005,0 -0.80676,0.10147 -1.10012,0.30435c-0.29034,0.19978 -0.43538,0.45417 -0.43538,0.76319c0,0.27469 0.09971,0.49163 0.29941,0.65082c0.19997,0.15921 0.51202,0.29185 0.93668,0.39799l1.06743,0.26219c0.64304,0.15608 1.1221,0.39486 1.43744,0.71638c0.31534,0.31839 0.47274,0.72885 0.47274,1.23139c0,0.41203 -0.11839,0.78039 -0.35572,1.10501c-0.23403,0.32462 -0.56173,0.58058 -0.98338,0.76786c-0.42137,0.18728 -0.91141,0.28095 -1.47012,0.28095c-0.73341,0 -1.34075,-0.15921 -1.82145,-0.4776c-0.4807,-0.31839 -0.78478,-0.78349 -0.91278,-1.39527l1.04875,-0.26222c0.09971,0.38706 0.2887,0.67735 0.5664,0.87089c0.281,0.19352 0.64771,0.29029 1.1004,0.29029c0.51504,0 0.92405,-0.10924 1.22675,-0.32776c0.306,-0.22162 0.45873,-0.48694 0.45873,-0.79596c0,-0.24972 -0.08735,-0.45886 -0.26205,-0.62741c-0.17498,-0.17168 -0.44334,-0.29966 -0.80538,-0.38393l-1.19873,-0.28095c-0.65842,-0.15605 -1.14242,-0.39797 -1.45145,-0.72572c-0.30573,-0.33086 -0.45873,-0.74446 -0.45873,-1.24076c0,-0.40579 0.114,-0.76476 0.34171,-1.07691c0.23101,-0.31215 0.5447,-0.55717 0.94108,-0.73509c0.39967,-0.17794 0.85235,-0.26689 1.35778,-0.26689c0.71171,0 1.27043,0.15608 1.67641,0.4682c0.40873,0.31215 0.69908,0.72418 0.87076,1.23609zM171.90379,176.47902v0.93643h-3.72695v-0.93643zM169.26323,174.75599h1.10479v6.85467c0,0.31215 0.04532,0.54624 0.13597,0.70232c0.09367,0.15295 0.21206,0.25595 0.35572,0.30902c0.14668,0.04994 0.30133,0.07491 0.46367,0.07491c0.12169,0 0.2214,-0.00624 0.29941,-0.01871c0.07829,-0.01563 0.14064,-0.0281 0.18734,-0.03747l0.22469,0.99261c-0.07471,0.0281 -0.17937,0.0562 -0.31369,0.0843c-0.13405,0.0312 -0.30435,0.04681 -0.51037,0.04681c-0.31204,0 -0.61805,-0.06711 -0.91745,-0.20132c-0.29666,-0.13424 -0.54333,-0.33869 -0.74001,-0.61338c-0.19338,-0.27469 -0.29007,-0.62118 -0.29007,-1.03944zM174.82563,179.3445v4.32632h-1.10507v-9.58907h1.10507v3.52099h0.09339c0.16866,-0.37146 0.42164,-0.66642 0.75869,-0.88493c0.34006,-0.22162 0.79275,-0.33243 1.35778,-0.33243c0.49004,0 0.91938,0.09831 1.28746,0.29496c0.36836,0.19354 0.65403,0.49163 0.85702,0.8943c0.20602,0.39956 0.30902,0.90833 0.30902,1.52638v4.5698h-1.10507v-4.49487c0,-0.57124 -0.14833,-1.01291 -0.44472,-1.32506c-0.29337,-0.31526 -0.70073,-0.4729 -1.22208,-0.4729c-0.36204,0 -0.68672,0.07647 -0.97404,0.22942c-0.28403,0.15297 -0.50872,0.37616 -0.67408,0.66955c-0.16234,0.29342 -0.24337,0.64928 -0.24337,1.06754zM184.52565,183.82066c-0.69276,0 -1.29048,-0.15297 -1.79316,-0.45886c-0.49938,-0.30902 -0.88504,-0.73979 -1.15643,-1.29226c-0.26837,-0.55564 -0.40269,-1.20176 -0.40269,-1.93844c0,-0.73666 0.13432,-1.38591 0.40269,-1.94778c0.27139,-0.56498 0.64909,-1.00511 1.13308,-1.32036c0.48702,-0.31839 1.05507,-0.47757 1.70416,-0.47757c0.37467,0 0.74468,0.06241 1.10973,0.18728c0.36533,0.12485 0.6977,0.32776 0.99739,0.60868c0.29968,0.27782 0.53839,0.64615 0.71638,1.10498c0.178,0.45886 0.26672,1.02384 0.26672,1.69496v0.4682h-5.54346v-0.95514h4.41971c0,-0.40579 -0.08103,-0.76789 -0.24337,-1.08628c-0.15904,-0.31839 -0.38703,-0.56967 -0.6837,-0.75382c-0.29337,-0.18418 -0.63975,-0.27625 -1.03942,-0.27625c-0.44005,0 -0.82076,0.10924 -1.14242,0.32776c-0.31836,0.21538 -0.56338,0.4963 -0.73506,0.84279c-0.17168,0.34646 -0.25738,0.71792 -0.25738,1.11435v0.63678c0,0.54311 0.09367,1.00354 0.28073,1.38124c0.19063,0.37456 0.45433,0.66018 0.79137,0.85683c0.33704,0.19352 0.72874,0.29029 1.17511,0.29029c0.29034,0 0.55267,-0.04057 0.7867,-0.12174c0.23733,-0.08427 0.4417,-0.20912 0.61338,-0.37456c0.17168,-0.16855 0.30435,-0.37769 0.39802,-0.62741l1.06743,0.29966c-0.11235,0.36209 -0.30106,0.68048 -0.5664,0.95517c-0.26535,0.27156 -0.59305,0.48383 -0.98338,0.63678c-0.39006,0.14981 -0.82873,0.22475 -1.31575,0.22475zM195.81446,183.82066c-0.67408,0 -1.25477,-0.15921 -1.74179,-0.4776c-0.48702,-0.31839 -0.86142,-0.75695 -1.12374,-1.3157c-0.26205,-0.55871 -0.39335,-1.19706 -0.39335,-1.91498c0,-0.73042 0.13432,-1.375 0.40269,-1.93374c0.27167,-0.56187 0.64936,-1.00044 1.13308,-1.3157c0.48702,-0.31839 1.05507,-0.47757 1.70443,-0.47757c0.5057,0 0.9614,0.09364 1.36712,0.28092c0.40571,0.18728 0.73836,0.4495 0.99739,0.78659c0.25903,0.33712 0.41972,0.73042 0.48235,1.17992h-1.10507c-0.08433,-0.32776 -0.27167,-0.61805 -0.56201,-0.87089c-0.28705,-0.25595 -0.67408,-0.38393 -1.1611,-0.38393c-0.43071,0 -0.8084,0.11237 -1.13308,0.33712c-0.32138,0.22162 -0.57272,0.53531 -0.75374,0.9411c-0.178,0.40266 -0.267,0.87556 -0.267,1.4187c0,0.55561 0.08735,1.03944 0.26233,1.45147c0.17772,0.41203 0.42769,0.73199 0.74907,0.95984c0.32468,0.22785 0.7054,0.34179 1.14242,0.34179c0.28732,0 0.54773,-0.04994 0.78203,-0.14981c0.23403,-0.0999 0.43236,-0.24348 0.59442,-0.43076c0.16234,-0.18728 0.27798,-0.41203 0.34665,-0.67425h1.10507c-0.06263,0.42453 -0.217,0.80689 -0.46367,1.14715c-0.24337,0.3371 -0.5664,0.60555 -0.9691,0.80533c-0.39967,0.19665 -0.86471,0.29499 -1.39541,0.29499zM201.36286,179.3445v4.32632h-1.10507v-9.58907h1.10507v3.52099h0.09367c0.16838,-0.37146 0.42137,-0.66642 0.75841,-0.88493c0.34034,-0.22162 0.79302,-0.33243 1.35778,-0.33243c0.49004,0 0.91938,0.09831 1.28773,0.29496c0.36836,0.19354 0.65403,0.49163 0.85675,0.8943c0.20602,0.39956 0.30902,0.90833 0.30902,1.52638v4.5698h-1.10507v-4.49487c0,-0.57124 -0.14806,-1.01291 -0.44472,-1.32506c-0.29337,-0.31526 -0.70073,-0.4729 -1.22208,-0.4729c-0.36204,0 -0.68672,0.07647 -0.97376,0.22942c-0.28403,0.15297 -0.50872,0.37616 -0.67436,0.66955c-0.16234,0.29342 -0.24337,0.64928 -0.24337,1.06754zM211.06315,183.82066c-0.69303,0 -1.29075,-0.15297 -1.79343,-0.45886c-0.49938,-0.30902 -0.88477,-0.73979 -1.15643,-1.29226c-0.26837,-0.55564 -0.40269,-1.20176 -0.40269,-1.93844c0,-0.73666 0.13432,-1.38591 0.40269,-1.94778c0.27167,-0.56498 0.64936,-1.00511 1.13308,-1.32036c0.48702,-0.31839 1.05507,-0.47757 1.70443,-0.47757c0.3744,0 0.7444,0.06241 1.10973,0.18728c0.36506,0.12485 0.69743,0.32776 0.99711,0.60868c0.29968,0.27782 0.53839,0.64615 0.71638,1.10498c0.178,0.45886 0.267,1.02384 0.267,1.69496v0.4682h-5.54373v-0.95514h4.41999c0,-0.40579 -0.08131,-0.76789 -0.24365,-1.08628c-0.15904,-0.31839 -0.38703,-0.56967 -0.68342,-0.75382c-0.29337,-0.18418 -0.64002,-0.27625 -1.03942,-0.27625c-0.44032,0 -0.82104,0.10924 -1.14242,0.32776c-0.31836,0.21538 -0.56338,0.4963 -0.73506,0.84279c-0.17168,0.34646 -0.25766,0.71792 -0.25766,1.11435v0.63678c0,0.54311 0.09367,1.00354 0.281,1.38124c0.19036,0.37456 0.45406,0.66018 0.7911,0.85683c0.33732,0.19352 0.72902,0.29029 1.17539,0.29029c0.29034,0 0.5524,-0.04057 0.78643,-0.12174c0.23733,-0.08427 0.4417,-0.20912 0.61338,-0.37456c0.17168,-0.16855 0.30435,-0.37769 0.39802,-0.62741l1.06771,0.29966c-0.11235,0.36209 -0.30133,0.68048 -0.56668,0.95517c-0.26535,0.27156 -0.59305,0.48383 -0.9831,0.63678c-0.39033,0.14981 -0.82873,0.22475 -1.31575,0.22475zM215.72184,183.67081v-7.1918h1.06743v1.12372h0.09367c0.14998,-0.38393 0.3917,-0.68205 0.72572,-0.8943c0.33402,-0.21538 0.73534,-0.32306 1.2034,-0.32306c0.47438,0 0.86938,0.10768 1.18472,0.32306c0.31836,0.21225 0.5664,0.51037 0.7444,0.8943h0.07499c0.18404,-0.37146 0.46038,-0.66642 0.82873,-0.88493c0.36808,-0.22162 0.80978,-0.33243 1.32481,-0.33243c0.64304,0 1.16907,0.20132 1.57808,0.60398c0.40873,0.39956 0.61338,1.02227 0.61338,1.8682v4.81326h-1.10507v-4.81326c0,-0.53064 -0.14503,-0.9099 -0.43538,-1.13778c-0.29034,-0.22785 -0.63205,-0.34179 -1.02541,-0.34179c-0.5057,0 -0.8974,0.15295 -1.17539,0.45886c-0.27771,0.30276 -0.4167,0.68672 -0.4167,1.15179v4.68217h-1.12374v-4.92563c0,-0.40893 -0.13267,-0.73822 -0.39775,-0.98794c-0.26535,-0.25285 -0.60733,-0.37926 -1.02541,-0.37926c-0.28732,0 -0.55569,0.07647 -0.80538,0.22942c-0.24667,0.15297 -0.44637,0.36522 -0.59937,0.63678c-0.1497,0.26845 -0.22469,0.57904 -0.22469,0.93177v4.49487zM227.1815,183.67081v-7.1918h1.10507v7.1918zM227.74323,175.28037c-0.21535,0 -0.40104,-0.07334 -0.55706,-0.22005c-0.153,-0.14671 -0.22936,-0.32306 -0.22936,-0.52907c0,-0.20602 0.07636,-0.38239 0.22936,-0.5291c0.15602,-0.14671 0.34171,-0.22005 0.55706,-0.22005c0.21535,0 0.39967,0.07334 0.55267,0.22005c0.15602,0.14671 0.23403,0.32309 0.23403,0.5291c0,0.20602 -0.07801,0.38236 -0.23403,0.52907c-0.153,0.14671 -0.33732,0.22005 -0.55267,0.22005zM233.23203,183.82066c-0.67436,0 -1.25477,-0.15921 -1.74179,-0.4776c-0.48702,-0.31839 -0.86142,-0.75695 -1.12374,-1.3157c-0.26233,-0.55871 -0.39335,-1.19706 -0.39335,-1.91498c0,-0.73042 0.13432,-1.375 0.40269,-1.93374c0.27167,-0.56187 0.64936,-1.00044 1.13308,-1.3157c0.48702,-0.31839 1.05507,-0.47757 1.70443,-0.47757c0.5057,0 0.9614,0.09364 1.36712,0.28092c0.40571,0.18728 0.73808,0.4495 0.99739,0.78659c0.25903,0.33712 0.41972,0.73042 0.48208,1.17992h-1.10479c-0.08433,-0.32776 -0.27167,-0.61805 -0.56201,-0.87089c-0.28705,-0.25595 -0.67408,-0.38393 -1.1611,-0.38393c-0.43071,0 -0.8084,0.11237 -1.13308,0.33712c-0.32166,0.22162 -0.57272,0.53531 -0.75402,0.9411c-0.17772,0.40266 -0.26672,0.87556 -0.26672,1.4187c0,0.55561 0.08735,1.03944 0.26205,1.45147c0.178,0.41203 0.42769,0.73199 0.74935,0.95984c0.32468,0.22785 0.7054,0.34179 1.14242,0.34179c0.28705,0 0.54773,-0.04994 0.78176,-0.14981c0.23431,-0.0999 0.43236,-0.24348 0.5947,-0.43076c0.16234,-0.18728 0.27798,-0.41203 0.34665,-0.67425h1.10479c-0.06235,0.42453 -0.217,0.80689 -0.4634,1.14715c-0.24365,0.3371 -0.56668,0.60555 -0.96937,0.80533c-0.39939,0.19665 -0.86444,0.29499 -1.39513,0.29499zM239.79155,183.83936c-0.45571,0 -0.86911,-0.08584 -1.24076,-0.25752c-0.37138,-0.17478 -0.66639,-0.42607 -0.88477,-0.75382c-0.21865,-0.33086 -0.3277,-0.73042 -0.3277,-1.19862c0,-0.41203 0.08103,-0.74602 0.24337,-1.00198c0.16234,-0.25908 0.37934,-0.462 0.65073,-0.60871c0.27167,-0.14668 0.57135,-0.25595 0.89905,-0.32773c0.331,-0.07493 0.66337,-0.13424 0.99739,-0.17794c0.43703,-0.05617 0.7911,-0.09831 1.06276,-0.12641c0.27469,-0.0312 0.47438,-0.08271 0.59937,-0.15451c0.128,-0.0718 0.19201,-0.19665 0.19201,-0.37456v-0.03747c0,-0.46197 -0.12636,-0.82093 -0.37934,-1.07688c-0.24969,-0.25598 -0.62903,-0.38396 -1.13775,-0.38396c-0.5274,0 -0.94108,0.11551 -1.24076,0.34649c-0.29968,0.23098 -0.51037,0.47757 -0.63205,0.73979l-1.04875,-0.37459c0.18706,-0.437 0.43703,-0.77723 0.74907,-1.02071c0.31534,-0.24659 0.6587,-0.41827 1.03008,-0.51504c0.37467,-0.09988 0.74275,-0.14981 1.10507,-0.14981c0.23101,0 0.49608,0.02807 0.79577,0.08427c0.30298,0.05307 0.5947,0.16388 0.8757,0.33243c0.28403,0.16858 0.51971,0.42296 0.70704,0.76319c0.18734,0.34025 0.28073,0.79599 0.28073,1.3672v4.73835h-1.10479v-0.9739h-0.05631c-0.07499,0.15608 -0.1997,0.32309 -0.3744,0.501c-0.17498,0.17791 -0.40736,0.32932 -0.6977,0.45417c-0.29034,0.12487 -0.64469,0.18728 -1.06304,0.18728zM239.96021,182.84675c0.43703,0 0.80538,-0.08584 1.10507,-0.25752c0.3027,-0.17168 0.5307,-0.3933 0.68342,-0.66488c0.1563,-0.27156 0.23431,-0.55717 0.23431,-0.85683v-1.01134c-0.04697,0.0562 -0.14998,0.1077 -0.30902,0.15451c-0.15602,0.0437 -0.33732,0.08271 -0.54333,0.11704c-0.20272,0.03123 -0.40104,0.05933 -0.59442,0.0843c-0.19036,0.02184 -0.34501,0.04057 -0.46367,0.05617c-0.28705,0.03747 -0.55569,0.09834 -0.80538,0.18261c-0.24639,0.08114 -0.44637,0.20445 -0.59909,0.36989c-0.14998,0.16231 -0.22497,0.38393 -0.22497,0.66485c0,0.38396 0.14201,0.67425 0.42631,0.87089c0.28705,0.19352 0.65073,0.29029 1.09078,0.29029zM246.20988,174.08174v9.58907h-1.10507v-9.58907zM257.03612,178.08967l-0.99272,0.28092c-0.06235,-0.16542 -0.15437,-0.32619 -0.27606,-0.48224c-0.11866,-0.15921 -0.281,-0.29032 -0.48702,-0.39332c-0.20602,-0.10301 -0.46971,-0.15451 -0.79137,-0.15451c-0.44005,0 -0.80676,0.10147 -1.1004,0.30435c-0.29007,0.19978 -0.43538,0.45417 -0.43538,0.76319c0,0.27469 0.09999,0.49163 0.29968,0.65082c0.1997,0.15921 0.51202,0.29185 0.93641,0.39799l1.06771,0.26219c0.64304,0.15608 1.1221,0.39486 1.43744,0.71638c0.31507,0.31839 0.47274,0.72885 0.47274,1.23139c0,0.41203 -0.11866,0.78039 -0.35572,1.10501c-0.23431,0.32462 -0.56201,0.58058 -0.98338,0.76786c-0.42137,0.18728 -0.91141,0.28095 -1.47012,0.28095c-0.73369,0 -1.34075,-0.15921 -1.82145,-0.4776c-0.4807,-0.31839 -0.78506,-0.78349 -0.91306,-1.39527l1.04903,-0.26222c0.09971,0.38706 0.2887,0.67735 0.5664,0.87089c0.281,0.19352 0.64771,0.29029 1.1004,0.29029c0.51504,0 0.92377,-0.10924 1.22675,-0.32776c0.30573,-0.22162 0.45873,-0.48694 0.45873,-0.79596c0,-0.24972 -0.08735,-0.45886 -0.26205,-0.62741c-0.17498,-0.17168 -0.44334,-0.29966 -0.80538,-0.38393l-1.19873,-0.28095c-0.6587,-0.15605 -1.14242,-0.39797 -1.45145,-0.72572c-0.306,-0.33086 -0.45873,-0.74446 -0.45873,-1.24076c0,-0.40579 0.11372,-0.76476 0.34171,-1.07691c0.23101,-0.31215 0.5447,-0.55717 0.94108,-0.73509c0.39967,-0.17794 0.85208,-0.26689 1.35778,-0.26689c0.71171,0 1.27043,0.15608 1.67614,0.4682c0.40901,0.31215 0.69935,0.72418 0.87103,1.23609zM259.54208,186.36774c-0.18706,0 -0.35407,-0.0156 -0.50075,-0.04683c-0.14668,-0.02807 -0.24832,-0.05617 -0.30435,-0.08427l0.28073,-0.97387c0.26864,0.06867 0.5057,0.09364 0.71171,0.07491c0.20602,-0.01873 0.38868,-0.11081 0.548,-0.27625c0.16234,-0.16231 0.3104,-0.42607 0.44472,-0.79129l0.20602,-0.56184l-2.65952,-7.22926h1.19873l1.98516,5.73096h0.07499l1.98516,-5.73096h1.19873l-3.05287,8.24061c-0.13734,0.37146 -0.30737,0.67892 -0.51037,0.92237c-0.20299,0.24661 -0.43867,0.4292 -0.70704,0.54784c-0.26535,0.11861 -0.56503,0.17791 -0.89905,0.17791zM266.16973,183.67081v-7.1918h1.06771v1.12372h0.09367c0.1497,-0.38393 0.3917,-0.68205 0.72572,-0.8943c0.33402,-0.21538 0.73506,-0.32306 1.20313,-0.32306c0.47466,0 0.86938,0.10768 1.18472,0.32306c0.31836,0.21225 0.5664,0.51037 0.7444,0.8943h0.07499c0.18404,-0.37146 0.46038,-0.66642 0.82873,-0.88493c0.36836,-0.22162 0.81005,-0.33243 1.32509,-0.33243c0.64304,0 1.16879,0.20132 1.5778,0.60398c0.40901,0.39956 0.61338,1.02227 0.61338,1.8682v4.81326h-1.10507v-4.81326c0,-0.53064 -0.14503,-0.9099 -0.43538,-1.13778c-0.29034,-0.22785 -0.63205,-0.34179 -1.02541,-0.34179c-0.5057,0 -0.8974,0.15295 -1.17511,0.45886c-0.27798,0.30276 -0.4167,0.68672 -0.4167,1.15179v4.68217h-1.12374v-4.92563c0,-0.40893 -0.13267,-0.73822 -0.39802,-0.98794c-0.26535,-0.25285 -0.60706,-0.37926 -1.02541,-0.37926c-0.28732,0 -0.55569,0.07647 -0.80538,0.22942c-0.24667,0.15297 -0.44637,0.36522 -0.59937,0.63678c-0.1497,0.26845 -0.22469,0.57904 -0.22469,0.93177v4.49487zM277.77937,183.67081v-9.58907h1.10479v3.53972h0.09367c0.08131,-0.12487 0.19365,-0.28405 0.33704,-0.4776c0.14696,-0.19665 0.35599,-0.37143 0.62766,-0.5244c0.27469,-0.15605 0.64606,-0.23409 1.11413,-0.23409c0.60568,0 1.1394,0.15138 1.60142,0.45417c0.46202,0.30279 0.82241,0.73199 1.08144,1.28759c0.2593,0.55561 0.38868,1.21112 0.38868,1.96651c0,0.76162 -0.12938,1.42181 -0.38868,1.98055c-0.25903,0.55561 -0.61805,0.98637 -1.07677,1.29226c-0.459,0.30279 -0.98805,0.45419 -1.58714,0.45419c-0.46202,0 -0.83203,-0.0765 -1.10973,-0.22945c-0.27798,-0.15608 -0.49169,-0.33243 -0.64139,-0.52907c-0.14998,-0.19978 -0.26535,-0.36522 -0.34665,-0.4963h-0.13103v1.10498zM278.86548,180.07492c0,0.54314 0.07966,1.02227 0.2387,1.43741c0.15932,0.41203 0.39198,0.73512 0.6977,0.96923c0.306,0.23098 0.6804,0.34646 1.12374,0.34646c0.46202,0 0.84741,-0.12174 1.15643,-0.3652c0.31232,-0.24661 0.54635,-0.57747 0.70237,-0.99264c0.15932,-0.41827 0.2387,-0.88337 0.2387,-1.39527c0,-0.50567 -0.07801,-0.9614 -0.23403,-1.3672c-0.153,-0.4089 -0.38539,-0.73199 -0.6977,-0.96921c-0.30902,-0.24035 -0.69743,-0.36053 -1.16577,-0.36053c-0.44939,0 -0.82708,0.11394 -1.13308,0.34179c-0.306,0.22475 -0.53674,0.54001 -0.69303,0.9458c-0.15602,0.40266 -0.23403,0.87243 -0.23403,1.40934zM288.7402,183.82066c-0.64936,0 -1.21906,-0.15451 -1.7091,-0.46353c-0.48675,-0.30902 -0.86774,-0.74135 -1.14242,-1.29696c-0.27139,-0.55564 -0.40736,-1.20489 -0.40736,-1.94778c0,-0.74915 0.13597,-1.4031 0.40736,-1.96184c0.27469,-0.55874 0.65568,-0.99261 1.14242,-1.30163c0.49004,-0.30902 1.05974,-0.46353 1.7091,-0.46353c0.64936,0 1.21741,0.15451 1.70416,0.46353c0.49032,0.30902 0.87103,0.74289 1.1427,1.30163c0.27469,0.55874 0.41203,1.21269 0.41203,1.96184c0,0.74289 -0.13734,1.39214 -0.41203,1.94778c-0.27167,0.55561 -0.65238,0.98794 -1.1427,1.29696c-0.48675,0.30902 -1.0548,0.46353 -1.70416,0.46353zM288.7402,182.82802c0.49306,0 0.89905,-0.12641 1.21741,-0.37926c0.31836,-0.25282 0.55404,-0.58525 0.70704,-0.99728c0.15273,-0.41203 0.22936,-0.8584 0.22936,-1.3391c0,-0.4807 -0.07664,-0.92863 -0.22936,-1.3438c-0.153,-0.41516 -0.38868,-0.75069 -0.70704,-1.00667c-0.31836,-0.25595 -0.72435,-0.38393 -1.21741,-0.38393c-0.49334,0 -0.89905,0.12798 -1.21741,0.38393c-0.31836,0.25598 -0.55404,0.59151 -0.70704,1.00667c-0.153,0.41516 -0.22936,0.86309 -0.22936,1.3438c0,0.4807 0.07636,0.92707 0.22936,1.3391c0.153,0.41203 0.38868,0.74446 0.70704,0.99728c0.31836,0.25285 0.72407,0.37926 1.21741,0.37926zM294.79073,174.08174v9.58907h-1.10507v-9.58907zM303.72547,176.47902v0.93643h-3.87693v-0.93643zM301.00991,183.67081v-8.18443c0,-0.41203 0.09669,-0.75539 0.29007,-1.03008c0.19365,-0.27469 0.44499,-0.4807 0.75402,-0.61805c0.30902,-0.13733 0.63508,-0.206 0.97843,-0.206c0.27167,0 0.49334,0.02185 0.66502,0.06555c0.17168,0.0437 0.29968,0.08428 0.38374,0.12175l-0.31836,0.95514c-0.05604,-0.01871 -0.13405,-0.04214 -0.23403,-0.07021c-0.09669,-0.0281 -0.22469,-0.04216 -0.38401,-0.04216c-0.36506,0 -0.62876,0.0921 -0.7911,0.27625c-0.15932,0.18418 -0.23898,0.45417 -0.23898,0.81002v7.92222zM307.89961,183.82066c-0.64936,0 -1.21906,-0.15451 -1.7091,-0.46353c-0.48675,-0.30902 -0.86774,-0.74135 -1.14242,-1.29696c-0.27139,-0.55564 -0.40736,-1.20489 -0.40736,-1.94778c0,-0.74915 0.13597,-1.4031 0.40736,-1.96184c0.27469,-0.55874 0.65568,-0.99261 1.14242,-1.30163c0.49004,-0.30902 1.05974,-0.46353 1.7091,-0.46353c0.64936,0 1.21741,0.15451 1.70416,0.46353c0.49032,0.30902 0.87103,0.74289 1.1427,1.30163c0.27469,0.55874 0.41203,1.21269 0.41203,1.96184c0,0.74289 -0.13734,1.39214 -0.41203,1.94778c-0.27167,0.55561 -0.65238,0.98794 -1.1427,1.29696c-0.48675,0.30902 -1.0548,0.46353 -1.70416,0.46353zM307.89961,182.82802c0.49306,0 0.89905,-0.12641 1.21741,-0.37926c0.31836,-0.25282 0.55404,-0.58525 0.70704,-0.99728c0.15273,-0.41203 0.22936,-0.8584 0.22936,-1.3391c0,-0.4807 -0.07664,-0.92863 -0.22936,-1.3438c-0.153,-0.41516 -0.38868,-0.75069 -0.70704,-1.00667c-0.31836,-0.25595 -0.72435,-0.38393 -1.21741,-0.38393c-0.49334,0 -0.89905,0.12798 -1.21741,0.38393c-0.31836,0.25598 -0.55404,0.59151 -0.70704,1.00667c-0.153,0.41516 -0.22936,0.86309 -0.22936,1.3438c0,0.4807 0.07636,0.92707 0.22936,1.3391c0.153,0.41203 0.38868,0.74446 0.70704,0.99728c0.31836,0.25285 0.72407,0.37926 1.21741,0.37926zM312.84507,183.67081v-7.1918h1.06771v1.08625h0.07471c0.1313,-0.35583 0.36836,-0.64458 0.71171,-0.8662c0.34336,-0.22162 0.73039,-0.33243 1.1611,-0.33243c0.08131,0 0.18267,0.00157 0.30435,0.00467c0.12196,0.00313 0.21398,0.0078 0.27633,0.01406v1.12372c-0.03736,-0.00937 -0.12333,-0.0234 -0.25738,-0.04214c-0.1313,-0.02187 -0.27002,-0.03277 -0.4167,-0.03277c-0.34968,0 -0.662,0.07334 -0.93668,0.22005c-0.27139,0.14358 -0.48675,0.34336 -0.64606,0.59931c-0.15602,0.25285 -0.23403,0.54157 -0.23403,0.8662v4.55107zM323.08842,183.67081l-2.19118,-7.1918h1.1611l1.55445,5.50621h0.07499l1.53577,-5.50621h1.18005l1.51682,5.4875h0.07499l1.55445,-5.4875h1.1611l-2.19118,7.1918h-1.08611l-1.57341,-5.52494h-0.11235l-1.57313,5.52494zM334.28823,183.83936c-0.45571,0 -0.86938,-0.08584 -1.24076,-0.25752c-0.37138,-0.17478 -0.66639,-0.42607 -0.88504,-0.75382c-0.21838,-0.33086 -0.3277,-0.73042 -0.3277,-1.19862c0,-0.41203 0.08131,-0.74602 0.24365,-1.00198c0.16234,-0.25908 0.37907,-0.462 0.65073,-0.60871c0.27167,-0.14668 0.57135,-0.25595 0.89905,-0.32773c0.33072,-0.07493 0.66309,-0.13424 0.99711,-0.17794c0.43703,-0.05617 0.79137,-0.09831 1.06304,-0.12641c0.27469,-0.0312 0.47438,-0.08271 0.59937,-0.15451c0.12773,-0.0718 0.19173,-0.19665 0.19173,-0.37456v-0.03747c0,-0.46197 -0.12636,-0.82093 -0.37907,-1.07688c-0.24969,-0.25598 -0.62903,-0.38396 -1.13775,-0.38396c-0.52767,0 -0.94108,0.11551 -1.24076,0.34649c-0.29968,0.23098 -0.51037,0.47757 -0.63233,0.73979l-1.04875,-0.37459c0.18734,-0.437 0.43703,-0.77723 0.74935,-1.02071c0.31507,-0.24659 0.65842,-0.41827 1.03008,-0.51504c0.3744,-0.09988 0.74275,-0.14981 1.10479,-0.14981c0.23101,0 0.49636,0.02807 0.79604,0.08427c0.3027,0.05307 0.5947,0.16388 0.8757,0.33243c0.28403,0.16858 0.51971,0.42296 0.70677,0.76319c0.18734,0.34025 0.281,0.79599 0.281,1.3672v4.73835h-1.10507v-0.9739h-0.05604c-0.07499,0.15608 -0.1997,0.32309 -0.37467,0.501c-0.1747,0.17791 -0.40736,0.32932 -0.6977,0.45417c-0.29007,0.12487 -0.64442,0.18728 -1.06276,0.18728zM334.45688,182.84675c0.43703,0 0.80538,-0.08584 1.10479,-0.25752c0.30298,-0.17168 0.5307,-0.3933 0.6837,-0.66488c0.15602,-0.27156 0.23403,-0.55717 0.23403,-0.85683v-1.01134c-0.0467,0.0562 -0.1497,0.1077 -0.30902,0.15451c-0.15602,0.0437 -0.33704,0.08271 -0.54306,0.11704c-0.20299,0.03123 -0.40104,0.05933 -0.5947,0.0843c-0.19036,0.02184 -0.34473,0.04057 -0.4634,0.05617c-0.28732,0.03747 -0.55569,0.09834 -0.80538,0.18261c-0.24667,0.08114 -0.44637,0.20445 -0.59937,0.36989c-0.1497,0.16231 -0.22469,0.38393 -0.22469,0.66485c0,0.38396 0.14201,0.67425 0.42604,0.87089c0.28732,0.19352 0.65073,0.29029 1.09106,0.29029zM342.72908,176.47902v0.93643h-3.72695v-0.93643zM340.08824,174.75599h1.10507v6.85467c0,0.31215 0.04532,0.54624 0.1357,0.70232c0.09367,0.15295 0.21233,0.25595 0.35599,0.30902c0.14668,0.04994 0.30106,0.07491 0.4634,0.07491c0.12169,0 0.22167,-0.00624 0.29968,-0.01871c0.07801,-0.01563 0.14036,-0.0281 0.18734,-0.03747l0.22469,0.99261c-0.07499,0.0281 -0.17937,0.0562 -0.31369,0.0843c-0.13432,0.0312 -0.30435,0.04681 -0.51037,0.04681c-0.31204,0 -0.61805,-0.06711 -0.91773,-0.20132c-0.29639,-0.13424 -0.54306,-0.33869 -0.73973,-0.61338c-0.19365,-0.27469 -0.29034,-0.62118 -0.29034,-1.03944zM347.32926,183.82066c-0.69303,0 -1.29075,-0.15297 -1.79316,-0.45886c-0.49966,-0.30902 -0.88504,-0.73979 -1.15671,-1.29226c-0.26837,-0.55564 -0.40269,-1.20176 -0.40269,-1.93844c0,-0.73666 0.13432,-1.38591 0.40269,-1.94778c0.27167,-0.56498 0.64936,-1.00511 1.13308,-1.32036c0.48702,-0.31839 1.05507,-0.47757 1.70443,-0.47757c0.37467,0 0.7444,0.06241 1.10973,0.18728c0.36506,0.12485 0.69743,0.32776 0.99711,0.60868c0.29968,0.27782 0.53866,0.64615 0.71638,1.10498c0.178,0.45886 0.267,1.02384 0.267,1.69496v0.4682h-5.54373v-0.95514h4.41999c0,-0.40579 -0.08103,-0.76789 -0.24337,-1.08628c-0.15932,-0.31839 -0.38703,-0.56967 -0.6837,-0.75382c-0.29337,-0.18418 -0.64002,-0.27625 -1.03942,-0.27625c-0.44005,0 -0.82104,0.10924 -1.14242,0.32776c-0.31836,0.21538 -0.56338,0.4963 -0.73506,0.84279c-0.17168,0.34646 -0.25766,0.71792 -0.25766,1.11435v0.63678c0,0.54311 0.09367,1.00354 0.281,1.38124c0.19036,0.37456 0.45406,0.66018 0.79137,0.85683c0.33704,0.19352 0.72874,0.29029 1.17511,0.29029c0.29034,0 0.5524,-0.04057 0.7867,-0.12174c0.23705,-0.08427 0.4417,-0.20912 0.61338,-0.37456c0.17168,-0.16855 0.30435,-0.37769 0.39775,-0.62741l1.06771,0.29966c-0.11235,0.36209 -0.30133,0.68048 -0.56668,0.95517c-0.26535,0.27156 -0.59305,0.48383 -0.9831,0.63678c-0.39033,0.14981 -0.82873,0.22475 -1.31575,0.22475zM351.98795,183.67081v-7.1918h1.06771v1.08625h0.07471c0.1313,-0.35583 0.36836,-0.64458 0.71171,-0.8662c0.34336,-0.22162 0.73039,-0.33243 1.1611,-0.33243c0.08131,0 0.18267,0.00157 0.30435,0.00467c0.12196,0.00313 0.21398,0.0078 0.27633,0.01406v1.12372c-0.03736,-0.00937 -0.12333,-0.0234 -0.25738,-0.04214c-0.1313,-0.02187 -0.27002,-0.03277 -0.4167,-0.03277c-0.34968,0 -0.662,0.07334 -0.93668,0.22005c-0.27139,0.14358 -0.48675,0.34336 -0.64606,0.59931c-0.15602,0.25285 -0.23403,0.54157 -0.23403,0.8662v4.55107zM358.33596,180.97388v-0.05617c0.00604,-0.59621 0.06867,-1.07067 0.18706,-1.42337c0.11866,-0.35273 0.28732,-0.63834 0.5057,-0.85686c0.21865,-0.21849 0.4807,-0.41983 0.7867,-0.60398c0.18404,-0.11237 0.34968,-0.24505 0.49636,-0.39799c0.14668,-0.15608 0.26205,-0.33556 0.34638,-0.53844c0.08735,-0.20291 0.13103,-0.42763 0.13103,-0.67425c0,-0.30589 -0.07169,-0.57121 -0.21535,-0.79596c-0.14339,-0.22475 -0.33539,-0.39799 -0.57574,-0.51971c-0.24035,-0.12174 -0.50735,-0.18261 -0.80071,-0.18261c-0.25601,0 -0.50268,0.05307 -0.73973,0.15918c-0.23733,0.10614 -0.43538,0.27315 -0.5947,0.501c-0.15932,0.22785 -0.25134,0.52597 -0.27633,0.8943h-1.17978c0.025,-0.53064 0.16234,-0.98481 0.41203,-1.3625c0.25271,-0.37769 0.58536,-0.66645 0.99739,-0.86623c0.41505,-0.19975 0.87543,-0.29966 1.38113,-0.29966c0.54937,0 1.02705,0.10927 1.43277,0.32776c0.40873,0.21851 0.72407,0.51817 0.94575,0.89897c0.22469,0.38083 0.33704,0.81472 0.33704,1.30166c0,0.34336 -0.05301,0.65395 -0.15904,0.93174c-0.10301,0.27782 -0.25299,0.52597 -0.44966,0.74448c-0.19338,0.21849 -0.42741,0.41203 -0.7021,0.58058c-0.27469,0.17168 -0.49499,0.35273 -0.66035,0.54314c-0.16536,0.18728 -0.28567,0.41046 -0.36039,0.66955c-0.07499,0.25906 -0.11564,0.58214 -0.12196,0.96921v0.05617zM358.93505,183.74572c-0.23101,0 -0.42906,-0.08271 -0.59442,-0.24815c-0.16564,-0.16544 -0.24832,-0.36363 -0.24832,-0.59464c0,-0.23098 0.08268,-0.4292 0.24832,-0.59461c0.16536,-0.16544 0.36341,-0.24815 0.59442,-0.24815c0.23101,0 0.42934,0.08271 0.5947,0.24815c0.16536,0.16542 0.24832,0.36363 0.24832,0.59461c0,0.15297 -0.03901,0.29342 -0.11729,0.4214c-0.07471,0.12798 -0.17635,0.23098 -0.30435,0.30902c-0.12471,0.07493 -0.26507,0.11237 -0.42137,0.11237z"/></g></g></svg>