<svg xmlns="http://www.w3.org/2000/svg" fill="none" viewBox="0 0 139 164" height="164" width="139">
<path fill="#43D059" d="M0 20C0 8.95431 8.95431 0 20 0H119C130.046 0 139 8.95431 139 20V144C139 155.046 130.046 164 119 164H20C8.95431 164 0 155.046 0 144V20Z"></path>
<path fill="black" d="M36.2102 135.455V150H34.5341V135.455H36.2102ZM43.854 150.227C42.8029 150.227 41.8962 149.995 41.1339 149.531C40.3763 149.062 39.7915 148.409 39.3796 147.571C38.9724 146.728 38.7688 145.748 38.7688 144.631C38.7688 143.513 38.9724 142.528 39.3796 141.676C39.7915 140.819 40.3645 140.152 41.0984 139.673C41.837 139.19 42.6987 138.949 43.6836 138.949C44.2518 138.949 44.8129 139.044 45.3668 139.233C45.9208 139.422 46.4251 139.73 46.8796 140.156C47.3342 140.578 47.6964 141.136 47.9663 141.832C48.2362 142.528 48.3711 143.385 48.3711 144.403V145.114H39.962V143.665H46.6665C46.6665 143.049 46.5434 142.5 46.2972 142.017C46.0558 141.534 45.7101 141.153 45.2603 140.874C44.8152 140.594 44.2897 140.455 43.6836 140.455C43.016 140.455 42.4383 140.62 41.9506 140.952C41.4677 141.278 41.096 141.705 40.8356 142.23C40.5752 142.756 40.445 143.319 40.445 143.92V144.886C40.445 145.71 40.587 146.409 40.8711 146.982C41.1599 147.55 41.56 147.983 42.0714 148.281C42.5827 148.575 43.177 148.722 43.854 148.722C44.2944 148.722 44.6921 148.66 45.0472 148.537C45.4071 148.409 45.7172 148.22 45.9776 147.969C46.238 147.713 46.4393 147.396 46.5813 147.017L48.2006 147.472C48.0302 148.021 47.7437 148.504 47.3413 148.92C46.9388 149.332 46.4416 149.654 45.8498 149.886C45.2579 150.114 44.5927 150.227 43.854 150.227ZM55.6651 139.091V140.511H50.0117V139.091H55.6651ZM51.6594 136.477H53.3356V146.875C53.3356 147.348 53.4042 147.704 53.5415 147.94C53.6836 148.172 53.8635 148.329 54.0813 148.409C54.3039 148.485 54.5382 148.523 54.7844 148.523C54.9691 148.523 55.1206 148.513 55.239 148.494C55.3574 148.471 55.4521 148.452 55.5231 148.438L55.864 149.943C55.7504 149.986 55.5917 150.028 55.3881 150.071C55.1845 150.118 54.9265 150.142 54.614 150.142C54.1405 150.142 53.6765 150.04 53.2219 149.837C52.7721 149.633 52.3981 149.323 52.0998 148.906C51.8062 148.49 51.6594 147.964 51.6594 147.33V136.477ZM62.9308 139.091V140.511H57.2773V139.091H62.9308ZM58.9251 136.477H60.6012V146.875C60.6012 147.348 60.6699 147.704 60.8072 147.94C60.9492 148.172 61.1291 148.329 61.3469 148.409C61.5695 148.485 61.8039 148.523 62.0501 148.523C62.2347 148.523 62.3862 148.513 62.5046 148.494C62.623 148.471 62.7177 148.452 62.7887 148.438L63.1296 149.943C63.016 149.986 62.8574 150.028 62.6538 150.071C62.4502 150.118 62.1921 150.142 61.8796 150.142C61.4061 150.142 60.9421 150.04 60.4876 149.837C60.0378 149.633 59.6637 149.323 59.3654 148.906C59.0719 148.49 58.9251 147.964 58.9251 147.33V136.477ZM69.9087 150.227C68.8576 150.227 67.9509 149.995 67.1886 149.531C66.431 149.062 65.8462 148.409 65.4343 147.571C65.0271 146.728 64.8235 145.748 64.8235 144.631C64.8235 143.513 65.0271 142.528 65.4343 141.676C65.8462 140.819 66.4192 140.152 67.1531 139.673C67.8917 139.19 68.7534 138.949 69.7383 138.949C70.3065 138.949 70.8675 139.044 71.4215 139.233C71.9755 139.422 72.4798 139.73 72.9343 140.156C73.3888 140.578 73.7511 141.136 74.021 141.832C74.2908 142.528 74.4258 143.385 74.4258 144.403V145.114H66.0167V143.665H72.7212C72.7212 143.049 72.5981 142.5 72.3519 142.017C72.1104 141.534 71.7648 141.153 71.315 140.874C70.8699 140.594 70.3443 140.455 69.7383 140.455C69.0707 140.455 68.493 140.62 68.0053 140.952C67.5224 141.278 67.1507 141.705 66.8903 142.23C66.6299 142.756 66.4996 143.319 66.4996 143.92V144.886C66.4996 145.71 66.6417 146.409 66.9258 146.982C67.2146 147.55 67.6147 147.983 68.1261 148.281C68.6374 148.575 69.2317 148.722 69.9087 148.722C70.3491 148.722 70.7468 148.66 71.1019 148.537C71.4618 148.409 71.7719 148.22 72.0323 147.969C72.2927 147.713 72.494 147.396 72.636 147.017L74.2553 147.472C74.0849 148.021 73.7984 148.504 73.396 148.92C72.9935 149.332 72.4963 149.654 71.9045 149.886C71.3126 150.114 70.6474 150.227 69.9087 150.227ZM76.9755 150V139.091H78.5948V140.739H78.7085C78.9073 140.199 79.2672 139.761 79.788 139.425C80.3088 139.089 80.896 138.92 81.5494 138.92C81.6725 138.92 81.8263 138.923 82.011 138.928C82.1957 138.932 82.3353 138.939 82.43 138.949V140.653C82.3732 140.639 82.243 140.618 82.0394 140.589C81.8406 140.556 81.6299 140.54 81.4073 140.54C80.877 140.54 80.4035 140.651 79.9869 140.874C79.5749 141.091 79.2482 141.394 79.0067 141.783C78.77 142.166 78.6516 142.604 78.6516 143.097V150H76.9755ZM90.8658 150H89.0192L94.3601 135.455H96.1783L101.519 150H99.6726L95.326 137.756H95.2124L90.8658 150ZM91.5476 144.318H98.9908V145.881H91.5476V144.318Z"></path>
<path fill="black" d="M29.6043 60.1818L36.0816 78.5483H36.3373L42.8145 60.1818H45.5844L37.5731 82H34.8458L26.8344 60.1818H29.6043ZM53.9793 82.3409C52.4026 82.3409 51.0425 81.9929 49.8991 81.2969C48.7627 80.5938 47.8856 79.6136 47.2677 78.3565C46.6569 77.0923 46.3515 75.6222 46.3515 73.946C46.3515 72.2699 46.6569 70.7926 47.2677 69.5142C47.8856 68.2287 48.7449 67.2273 49.8458 66.5099C50.9537 65.7855 52.2464 65.4233 53.7236 65.4233C54.5759 65.4233 55.4175 65.5653 56.2485 65.8494C57.0795 66.1335 57.8358 66.5952 58.5177 67.2344C59.1995 67.8665 59.7428 68.7045 60.1476 69.7486C60.5525 70.7926 60.7549 72.0781 60.7549 73.6051V74.6705H48.1412V72.4972H58.1981C58.1981 71.5739 58.0134 70.75 57.6441 70.0256C57.2819 69.3011 56.7634 68.7294 56.0887 68.3104C55.4211 67.8913 54.6327 67.6818 53.7236 67.6818C52.7222 67.6818 51.8557 67.9304 51.1242 68.4276C50.3998 68.9176 49.8422 69.5568 49.4516 70.3452C49.061 71.1335 48.8657 71.9787 48.8657 72.8807V74.3295C48.8657 75.5653 49.0787 76.6129 49.5049 77.4723C49.9381 78.3246 50.5383 78.9744 51.3053 79.4219C52.0724 79.8622 52.9637 80.0824 53.9793 80.0824C54.6398 80.0824 55.2364 79.9901 55.7691 79.8054C56.3089 79.6136 56.7741 79.3295 57.1647 78.9531C57.5553 78.5696 57.8572 78.0937 58.0702 77.5256L60.4992 78.2074C60.2435 79.0312 59.8138 79.7557 59.2101 80.3807C58.6064 80.9986 57.8607 81.4815 56.9729 81.8295C56.0851 82.1705 55.0873 82.3409 53.9793 82.3409ZM67.0937 72.1562V82H64.5795V65.6364H67.0084V68.1932H67.2215C67.605 67.3622 68.1874 66.6946 68.9687 66.1903C69.7499 65.679 70.7584 65.4233 71.9942 65.4233C73.1022 65.4233 74.0716 65.6506 74.9026 66.1051C75.7336 66.5526 76.3799 67.2344 76.8415 68.1506C77.3032 69.0597 77.534 70.2102 77.534 71.6023V82H75.0198V71.7727C75.0198 70.4872 74.686 69.4858 74.0184 68.7685C73.3508 68.044 72.4346 67.6818 71.2698 67.6818C70.4672 67.6818 69.7499 67.8558 69.1178 68.2038C68.4928 68.5518 67.9992 69.0597 67.637 69.7273C67.2748 70.3949 67.0937 71.2045 67.0937 72.1562ZM92.4408 75.3097V65.6364H94.955V82H92.4408V79.2301H92.2703C91.8868 80.0611 91.2902 80.7678 90.4806 81.3501C89.6709 81.9254 88.6482 82.2131 87.4124 82.2131C86.3896 82.2131 85.4806 81.9893 84.6851 81.5419C83.8896 81.0874 83.2646 80.4055 82.8101 79.4964C82.3556 78.5803 82.1283 77.4261 82.1283 76.0341V65.6364H84.6425V75.8636C84.6425 77.0568 84.9763 78.0085 85.6439 78.7188C86.3186 79.429 87.178 79.7841 88.222 79.7841C88.847 79.7841 89.4827 79.6243 90.129 79.3047C90.7824 78.9851 91.3293 78.495 91.7696 77.8345C92.2171 77.174 92.4408 76.3324 92.4408 75.3097ZM111.151 69.3011L108.892 69.9403C108.75 69.5639 108.541 69.1982 108.264 68.843C107.994 68.4808 107.625 68.1825 107.156 67.9482C106.687 67.7138 106.087 67.5966 105.355 67.5966C104.354 67.5966 103.519 67.8274 102.852 68.2891C102.191 68.7436 101.861 69.3224 101.861 70.0256C101.861 70.6506 102.088 71.1442 102.543 71.5064C102.997 71.8686 103.708 72.1705 104.674 72.4119L107.103 73.0085C108.566 73.3636 109.656 73.907 110.373 74.6385C111.09 75.3629 111.449 76.2969 111.449 77.4403C111.449 78.3778 111.179 79.2159 110.639 79.9545C110.107 80.6932 109.361 81.2756 108.402 81.7017C107.443 82.1278 106.328 82.3409 105.057 82.3409C103.388 82.3409 102.007 81.9787 100.913 81.2543C99.8192 80.5298 99.1267 79.4716 98.8355 78.0795L101.222 77.483C101.449 78.3636 101.879 79.0241 102.511 79.4645C103.15 79.9048 103.985 80.125 105.014 80.125C106.186 80.125 107.117 79.8764 107.806 79.3793C108.502 78.875 108.85 78.2713 108.85 77.5682C108.85 77 108.651 76.5241 108.253 76.1406C107.855 75.75 107.245 75.4588 106.421 75.267L103.693 74.6278C102.195 74.2727 101.094 73.7223 100.391 72.9766C99.6949 72.2237 99.3469 71.2827 99.3469 70.1534C99.3469 69.2301 99.6061 68.4134 100.125 67.7031C100.65 66.9929 101.364 66.4354 102.266 66.0305C103.175 65.6257 104.205 65.4233 105.355 65.4233C106.975 65.4233 108.246 65.7784 109.169 66.4886C110.1 67.1989 110.76 68.1364 111.151 69.3011Z"></path>
</svg>
