<svg xmlns="http://www.w3.org/2000/svg" fill="none" viewBox="0 0 139 164" height="164" width="139">
<path fill="#EEC638" d="M0 20C0 8.95431 8.95431 0 20 0H119C130.046 0 139 8.95431 139 20V144C139 155.046 130.046 164 119 164H20C8.95431 164 0 155.046 0 144V20Z"></path>
<path fill="black" d="M36.2102 135.455V150H34.5341V135.455H36.2102ZM43.854 150.227C42.8029 150.227 41.8962 149.995 41.1339 149.531C40.3763 149.062 39.7915 148.409 39.3796 147.571C38.9724 146.728 38.7688 145.748 38.7688 144.631C38.7688 143.513 38.9724 142.528 39.3796 141.676C39.7915 140.819 40.3645 140.152 41.0984 139.673C41.837 139.19 42.6987 138.949 43.6836 138.949C44.2518 138.949 44.8129 139.044 45.3668 139.233C45.9208 139.422 46.4251 139.73 46.8796 140.156C47.3342 140.578 47.6964 141.136 47.9663 141.832C48.2362 142.528 48.3711 143.385 48.3711 144.403V145.114H39.962V143.665H46.6665C46.6665 143.049 46.5434 142.5 46.2972 142.017C46.0558 141.534 45.7101 141.153 45.2603 140.874C44.8152 140.594 44.2897 140.455 43.6836 140.455C43.016 140.455 42.4383 140.62 41.9506 140.952C41.4677 141.278 41.096 141.705 40.8356 142.23C40.5752 142.756 40.445 143.319 40.445 143.92V144.886C40.445 145.71 40.587 146.409 40.8711 146.982C41.1599 147.55 41.56 147.983 42.0714 148.281C42.5827 148.575 43.177 148.722 43.854 148.722C44.2944 148.722 44.6921 148.66 45.0472 148.537C45.4071 148.409 45.7172 148.22 45.9776 147.969C46.238 147.713 46.4393 147.396 46.5813 147.017L48.2006 147.472C48.0302 148.021 47.7437 148.504 47.3413 148.92C46.9388 149.332 46.4416 149.654 45.8498 149.886C45.2579 150.114 44.5927 150.227 43.854 150.227ZM55.6651 139.091V140.511H50.0117V139.091H55.6651ZM51.6594 136.477H53.3356V146.875C53.3356 147.348 53.4042 147.704 53.5415 147.94C53.6836 148.172 53.8635 148.329 54.0813 148.409C54.3039 148.485 54.5382 148.523 54.7844 148.523C54.9691 148.523 55.1206 148.513 55.239 148.494C55.3574 148.471 55.4521 148.452 55.5231 148.438L55.864 149.943C55.7504 149.986 55.5917 150.028 55.3881 150.071C55.1845 150.118 54.9265 150.142 54.614 150.142C54.1405 150.142 53.6765 150.04 53.2219 149.837C52.7721 149.633 52.3981 149.323 52.0998 148.906C51.8062 148.49 51.6594 147.964 51.6594 147.33V136.477ZM62.9308 139.091V140.511H57.2773V139.091H62.9308ZM58.9251 136.477H60.6012V146.875C60.6012 147.348 60.6699 147.704 60.8072 147.94C60.9492 148.172 61.1291 148.329 61.3469 148.409C61.5695 148.485 61.8039 148.523 62.0501 148.523C62.2347 148.523 62.3862 148.513 62.5046 148.494C62.623 148.471 62.7177 148.452 62.7887 148.438L63.1296 149.943C63.016 149.986 62.8574 150.028 62.6538 150.071C62.4502 150.118 62.1921 150.142 61.8796 150.142C61.4061 150.142 60.9421 150.04 60.4876 149.837C60.0378 149.633 59.6637 149.323 59.3654 148.906C59.0719 148.49 58.9251 147.964 58.9251 147.33V136.477ZM69.9087 150.227C68.8576 150.227 67.9509 149.995 67.1886 149.531C66.431 149.062 65.8462 148.409 65.4343 147.571C65.0271 146.728 64.8235 145.748 64.8235 144.631C64.8235 143.513 65.0271 142.528 65.4343 141.676C65.8462 140.819 66.4192 140.152 67.1531 139.673C67.8917 139.19 68.7534 138.949 69.7383 138.949C70.3065 138.949 70.8675 139.044 71.4215 139.233C71.9755 139.422 72.4798 139.73 72.9343 140.156C73.3888 140.578 73.7511 141.136 74.021 141.832C74.2908 142.528 74.4258 143.385 74.4258 144.403V145.114H66.0167V143.665H72.7212C72.7212 143.049 72.5981 142.5 72.3519 142.017C72.1104 141.534 71.7648 141.153 71.315 140.874C70.8699 140.594 70.3443 140.455 69.7383 140.455C69.0707 140.455 68.493 140.62 68.0053 140.952C67.5224 141.278 67.1507 141.705 66.8903 142.23C66.6299 142.756 66.4996 143.319 66.4996 143.92V144.886C66.4996 145.71 66.6417 146.409 66.9258 146.982C67.2146 147.55 67.6147 147.983 68.1261 148.281C68.6374 148.575 69.2317 148.722 69.9087 148.722C70.3491 148.722 70.7468 148.66 71.1019 148.537C71.4618 148.409 71.7719 148.22 72.0323 147.969C72.2927 147.713 72.494 147.396 72.636 147.017L74.2553 147.472C74.0849 148.021 73.7984 148.504 73.396 148.92C72.9935 149.332 72.4963 149.654 71.9045 149.886C71.3126 150.114 70.6474 150.227 69.9087 150.227ZM76.9755 150V139.091H78.5948V140.739H78.7085C78.9073 140.199 79.2672 139.761 79.788 139.425C80.3088 139.089 80.896 138.92 81.5494 138.92C81.6725 138.92 81.8263 138.923 82.011 138.928C82.1957 138.932 82.3353 138.939 82.43 138.949V140.653C82.3732 140.639 82.243 140.618 82.0394 140.589C81.8406 140.556 81.6299 140.54 81.4073 140.54C80.877 140.54 80.4035 140.651 79.9869 140.874C79.5749 141.091 79.2482 141.394 79.0067 141.783C78.77 142.166 78.6516 142.604 78.6516 143.097V150H76.9755ZM101.974 140H100.212C100.108 139.493 99.9259 139.048 99.6655 138.665C99.4098 138.281 99.0973 137.959 98.728 137.699C98.3634 137.434 97.9586 137.235 97.5135 137.102C97.0684 136.97 96.6044 136.903 96.1214 136.903C95.2408 136.903 94.4429 137.126 93.728 137.571C93.0178 138.016 92.4519 138.672 92.0305 139.538C91.6139 140.405 91.4055 141.468 91.4055 142.727C91.4055 143.987 91.6139 145.05 92.0305 145.916C92.4519 146.783 93.0178 147.438 93.728 147.884C94.4429 148.329 95.2408 148.551 96.1214 148.551C96.6044 148.551 97.0684 148.485 97.5135 148.352C97.9586 148.22 98.3634 148.023 98.728 147.763C99.0973 147.498 99.4098 147.173 99.6655 146.79C99.9259 146.402 100.108 145.956 100.212 145.455H101.974C101.841 146.198 101.6 146.863 101.249 147.45C100.899 148.037 100.463 148.537 99.9425 148.949C99.4216 149.356 98.8369 149.666 98.1882 149.879C97.5443 150.092 96.8554 150.199 96.1214 150.199C94.8809 150.199 93.7777 149.896 92.8118 149.29C91.8459 148.684 91.0859 147.822 90.532 146.705C89.978 145.587 89.701 144.261 89.701 142.727C89.701 141.193 89.978 139.867 90.532 138.75C91.0859 137.633 91.8459 136.771 92.8118 136.165C93.7777 135.559 94.8809 135.256 96.1214 135.256C96.8554 135.256 97.5443 135.362 98.1882 135.575C98.8369 135.788 99.4216 136.101 99.9425 136.513C100.463 136.92 100.899 137.417 101.249 138.004C101.6 138.587 101.841 139.252 101.974 140Z"></path>
<path fill="black" d="M6.01083 52.017V50.4545H16.9199V52.017H12.3461V65H10.5847V52.017H6.01083ZM21.0872 58.4375V65H19.411V50.4545H21.0872V55.7955H21.2292C21.4849 55.232 21.8684 54.7846 22.3798 54.4531C22.8959 54.117 23.5824 53.9489 24.4395 53.9489C25.1828 53.9489 25.8339 54.098 26.3926 54.3963C26.9513 54.6899 27.3845 55.142 27.6923 55.7528C28.0048 56.3589 28.161 57.1307 28.161 58.0682V65H26.4849V58.1818C26.4849 57.3153 26.26 56.6454 25.8102 56.1719C25.3651 55.6937 24.7472 55.4545 23.9565 55.4545C23.4073 55.4545 22.9148 55.5705 22.4792 55.8026C22.0484 56.0346 21.7074 56.3731 21.4565 56.8182C21.2103 57.2633 21.0872 57.803 21.0872 58.4375ZM35.8013 65.2273C34.7502 65.2273 33.8435 64.9953 33.0811 64.5312C32.3236 64.0625 31.7388 63.4091 31.3269 62.571C30.9197 61.7282 30.7161 60.7481 30.7161 59.6307C30.7161 58.5133 30.9197 57.5284 31.3269 56.6761C31.7388 55.8191 32.3117 55.1515 33.0456 54.6733C33.7843 54.1903 34.646 53.9489 35.6309 53.9489C36.199 53.9489 36.7601 54.0436 37.3141 54.233C37.8681 54.4223 38.3723 54.7301 38.8269 55.1562C39.2814 55.5777 39.6436 56.1364 39.9135 56.8324C40.1834 57.5284 40.3184 58.3854 40.3184 59.4034V60.1136H31.9093V58.6648H38.6138C38.6138 58.0492 38.4907 57.5 38.2445 57.017C38.003 56.5341 37.6574 56.1529 37.2076 55.8736C36.7625 55.5942 36.2369 55.4545 35.6309 55.4545C34.9632 55.4545 34.3856 55.6203 33.8979 55.9517C33.415 56.2784 33.0433 56.7045 32.7828 57.2301C32.5224 57.7557 32.3922 58.3191 32.3922 58.9205V59.8864C32.3922 60.7102 32.5343 61.4086 32.8184 61.9815C33.1072 62.5497 33.5073 62.983 34.0186 63.2812C34.53 63.5748 35.1242 63.7216 35.8013 63.7216C36.2417 63.7216 36.6394 63.66 36.9945 63.5369C37.3543 63.4091 37.6645 63.2197 37.9249 62.9688C38.1853 62.7131 38.3865 62.3958 38.5286 62.017L40.1479 62.4716C39.9775 63.0208 39.691 63.5038 39.2885 63.9205C38.8861 64.3324 38.3889 64.6544 37.7971 64.8864C37.2052 65.1136 36.54 65.2273 35.8013 65.2273ZM43.6156 69.0909C43.3315 69.0909 43.0782 69.0672 42.8556 69.0199C42.6331 68.9773 42.4792 68.9347 42.394 68.892L42.8201 67.4148C43.2273 67.5189 43.5872 67.5568 43.8997 67.5284C44.2122 67.5 44.4892 67.3603 44.7306 67.1094C44.9769 66.8632 45.2018 66.4631 45.4054 65.9091L45.7179 65.0568L41.6838 54.0909H43.502L46.5133 62.7841H46.627L49.6383 54.0909H51.4565L46.8258 66.5909C46.6175 67.1544 46.3594 67.6207 46.0517 67.9901C45.7439 68.3641 45.3864 68.6411 44.9792 68.821C44.5768 69.0009 44.1222 69.0909 43.6156 69.0909ZM61.7654 65L58.4416 54.0909H60.2029L62.5609 62.4432H62.6745L65.0041 54.0909H66.7939L69.095 62.4148H69.2086L71.5666 54.0909H73.3279L70.0041 65H68.3564L65.97 56.6193H65.7995L63.4132 65H61.7654ZM75.5439 65V54.0909H77.22V65H75.5439ZM76.3961 52.2727C76.0694 52.2727 75.7877 52.1615 75.551 51.9389C75.319 51.7164 75.2029 51.4489 75.2029 51.1364C75.2029 50.8239 75.319 50.5563 75.551 50.3338C75.7877 50.1113 76.0694 50 76.3961 50C76.7228 50 77.0022 50.1113 77.2342 50.3338C77.4709 50.5563 77.5893 50.8239 77.5893 51.1364C77.5893 51.4489 77.4709 51.7164 77.2342 51.9389C77.0022 52.1615 76.7228 52.2727 76.3961 52.2727ZM81.9661 50.4545V65H80.29V50.4545H81.9661ZM86.7122 50.4545V65H85.036V50.4545H86.7122ZM103.134 56.5341L101.629 56.9602C101.534 56.7093 101.394 56.4654 101.21 56.2287C101.03 55.9872 100.784 55.7884 100.471 55.6321C100.159 55.4759 99.7585 55.3977 99.2708 55.3977C98.6032 55.3977 98.0468 55.5516 97.6017 55.8594C97.1614 56.1624 96.9412 56.5483 96.9412 57.017C96.9412 57.4337 97.0927 57.7628 97.3958 58.0043C97.6988 58.2457 98.1723 58.447 98.8162 58.608L100.436 59.0057C101.411 59.2424 102.138 59.6046 102.616 60.0923C103.094 60.5753 103.333 61.1979 103.333 61.9602C103.333 62.5852 103.153 63.1439 102.794 63.6364C102.438 64.1288 101.941 64.517 101.302 64.8011C100.663 65.0852 99.9194 65.2273 99.0719 65.2273C97.9592 65.2273 97.0383 64.9858 96.3091 64.5028C95.58 64.0199 95.1183 63.3144 94.9242 62.3864L96.5151 61.9886C96.6666 62.5758 96.9531 63.0161 97.3745 63.3097C97.8006 63.6032 98.3569 63.75 99.0435 63.75C99.8248 63.75 100.445 63.5843 100.904 63.2528C101.368 62.9167 101.6 62.5142 101.6 62.0455C101.6 61.6667 101.468 61.3494 101.203 61.0938C100.937 60.8333 100.53 60.6392 99.981 60.5114L98.1628 60.0852C97.1638 59.8485 96.4299 59.4815 95.9611 58.9844C95.4971 58.4825 95.2651 57.8551 95.2651 57.1023C95.2651 56.4867 95.4379 55.9422 95.7836 55.4688C96.1339 54.9953 96.6098 54.6236 97.2111 54.3537C97.8172 54.0838 98.5037 53.9489 99.2708 53.9489C100.35 53.9489 101.198 54.1856 101.813 54.6591C102.434 55.1326 102.874 55.7576 103.134 56.5341ZM105.856 65V54.0909H107.532V65H105.856ZM106.709 52.2727C106.382 52.2727 106.1 52.1615 105.863 51.9389C105.631 51.7164 105.515 51.4489 105.515 51.1364C105.515 50.8239 105.631 50.5563 105.863 50.3338C106.1 50.1113 106.382 50 106.709 50C107.035 50 107.315 50.1113 107.547 50.3338C107.783 50.5563 107.902 50.8239 107.902 51.1364C107.902 51.4489 107.783 51.7164 107.547 51.9389C107.315 52.1615 107.035 52.2727 106.709 52.2727ZM112.279 58.4375V65H110.602V54.0909H112.222V55.7955H112.364C112.619 55.2415 113.008 54.7964 113.529 54.4602C114.049 54.1193 114.722 53.9489 115.546 53.9489C116.284 53.9489 116.931 54.1004 117.485 54.4034C118.039 54.7017 118.469 55.1562 118.777 55.767C119.085 56.3731 119.239 57.1402 119.239 58.0682V65H117.563V58.1818C117.563 57.3248 117.34 56.6572 116.895 56.179C116.45 55.696 115.839 55.4545 115.063 55.4545C114.528 55.4545 114.049 55.5705 113.628 55.8026C113.211 56.0346 112.882 56.3731 112.641 56.8182C112.399 57.2633 112.279 57.803 112.279 58.4375ZM126.705 69.3182C125.895 69.3182 125.199 69.214 124.617 69.0057C124.035 68.8021 123.549 68.5322 123.161 68.196C122.778 67.8646 122.472 67.5095 122.245 67.1307L123.58 66.1932C123.732 66.392 123.923 66.6193 124.155 66.875C124.387 67.1354 124.705 67.3603 125.107 67.5497C125.514 67.7438 126.047 67.8409 126.705 67.8409C127.586 67.8409 128.313 67.6278 128.885 67.2017C129.458 66.7756 129.745 66.108 129.745 65.1989V62.983H129.603C129.48 63.1818 129.305 63.428 129.077 63.7216C128.855 64.0104 128.533 64.2685 128.111 64.4957C127.695 64.7183 127.131 64.8295 126.421 64.8295C125.54 64.8295 124.75 64.6212 124.049 64.2045C123.353 63.7879 122.801 63.1818 122.394 62.3864C121.992 61.5909 121.79 60.625 121.79 59.4886C121.79 58.3712 121.987 57.3982 122.38 56.5696C122.773 55.7363 123.32 55.0923 124.02 54.6378C124.721 54.1785 125.531 53.9489 126.449 53.9489C127.16 53.9489 127.723 54.0672 128.14 54.304C128.561 54.536 128.883 54.8011 129.106 55.0994C129.333 55.393 129.508 55.6345 129.631 55.8239H129.802V54.0909H131.421V65.3125C131.421 66.25 131.208 67.0123 130.782 67.5994C130.36 68.1913 129.792 68.6245 129.077 68.8991C128.367 69.1785 127.576 69.3182 126.705 69.3182ZM126.648 63.3239C127.321 63.3239 127.889 63.17 128.353 62.8622C128.817 62.5545 129.17 62.1117 129.411 61.5341C129.653 60.9564 129.773 60.2652 129.773 59.4602C129.773 58.6742 129.655 57.9806 129.418 57.3793C129.181 56.7779 128.831 56.3068 128.367 55.9659C127.903 55.625 127.33 55.4545 126.648 55.4545C125.938 55.4545 125.346 55.6345 124.873 55.9943C124.404 56.3542 124.051 56.8371 123.814 57.4432C123.582 58.0492 123.466 58.7216 123.466 59.4602C123.466 60.2178 123.585 60.8878 123.822 61.4702C124.063 62.0478 124.418 62.5024 124.887 62.8338C125.36 63.1605 125.948 63.3239 126.648 63.3239ZM39.4084 89.2557C38.7171 89.2557 38.0897 89.1255 37.5263 88.8651C36.9628 88.5999 36.5154 88.2188 36.1839 87.7216C35.8525 87.2197 35.6868 86.6136 35.6868 85.9034C35.6868 85.2784 35.8099 84.7718 36.0561 84.3835C36.3023 83.9905 36.6314 83.6828 37.0433 83.4602C37.4553 83.2377 37.9098 83.072 38.407 82.9631C38.9089 82.8494 39.4131 82.7595 39.9197 82.6932C40.5826 82.608 41.12 82.544 41.532 82.5014C41.9486 82.4541 42.2517 82.3759 42.4411 82.267C42.6352 82.1581 42.7322 81.9687 42.7322 81.6989V81.642C42.7322 80.9413 42.5405 80.3968 42.157 80.0085C41.7782 79.6203 41.2029 79.4261 40.4311 79.4261C39.6309 79.4261 39.0036 79.6013 38.549 79.9517C38.0945 80.3021 37.7749 80.6761 37.5902 81.0739L35.9993 80.5057C36.2834 79.8428 36.6622 79.3267 37.1357 78.9574C37.6139 78.5833 38.1347 78.3229 38.6982 78.1761C39.2663 78.0246 39.825 77.9489 40.3743 77.9489C40.7247 77.9489 41.1271 77.9915 41.5817 78.0767C42.041 78.1572 42.4837 78.3253 42.9098 78.581C43.3407 78.8366 43.6982 79.2225 43.9822 79.7386C44.2663 80.2547 44.4084 80.946 44.4084 81.8125V89H42.7322V87.5227H42.647C42.5334 87.7595 42.344 88.0128 42.0788 88.2827C41.8137 88.5526 41.4609 88.7822 41.0206 88.9716C40.5803 89.161 40.0429 89.2557 39.4084 89.2557ZM39.6641 87.75C40.3269 87.75 40.8857 87.6198 41.3402 87.3594C41.7995 87.099 42.1451 86.7628 42.3771 86.3509C42.6139 85.9389 42.7322 85.5057 42.7322 85.0511V83.517C42.6612 83.6023 42.505 83.6804 42.2635 83.7514C42.0268 83.8177 41.7521 83.8769 41.4396 83.929C41.1319 83.9763 40.8312 84.0189 40.5376 84.0568C40.2488 84.09 40.0144 84.1184 39.8345 84.142C39.3989 84.1989 38.9917 84.2912 38.6129 84.419C38.2389 84.5421 37.9358 84.7292 37.7038 84.9801C37.4766 85.2263 37.3629 85.5625 37.3629 85.9886C37.3629 86.571 37.5784 87.0114 38.0092 87.3097C38.4448 87.6032 38.9964 87.75 39.6641 87.75ZM60.82 80.5341L59.3143 80.9602C59.2196 80.7093 59.0799 80.4654 58.8952 80.2287C58.7153 79.9872 58.4691 79.7884 58.1566 79.6321C57.8441 79.4759 57.444 79.3977 56.9563 79.3977C56.2887 79.3977 55.7324 79.5516 55.2873 79.8594C54.8469 80.1624 54.6268 80.5483 54.6268 81.017C54.6268 81.4337 54.7783 81.7628 55.0813 82.0043C55.3844 82.2457 55.8578 82.447 56.5018 82.608L58.1211 83.0057C59.0965 83.2424 59.8233 83.6046 60.3015 84.0923C60.7797 84.5753 61.0188 85.1979 61.0188 85.9602C61.0188 86.5852 60.8389 87.1439 60.479 87.6364C60.1239 88.1288 59.6268 88.517 58.9876 88.8011C58.3484 89.0852 57.605 89.2273 56.7575 89.2273C55.6448 89.2273 54.7238 88.9858 53.9947 88.5028C53.2655 88.0199 52.8039 87.3144 52.6097 86.3864L54.2006 85.9886C54.3522 86.5758 54.6386 87.0161 55.06 87.3097C55.4862 87.6032 56.0425 87.75 56.729 87.75C57.5103 87.75 58.1306 87.5843 58.5898 87.2528C59.0539 86.9167 59.2859 86.5142 59.2859 86.0455C59.2859 85.6667 59.1533 85.3494 58.8881 85.0938C58.623 84.8333 58.2158 84.6392 57.6665 84.5114L55.8484 84.0852C54.8493 83.8485 54.1154 83.4815 53.6467 82.9844C53.1826 82.4825 52.9506 81.8551 52.9506 81.1023C52.9506 80.4867 53.1235 79.9422 53.4691 79.4688C53.8195 78.9953 54.2953 78.6236 54.8967 78.3537C55.5027 78.0838 56.1893 77.9489 56.9563 77.9489C58.0359 77.9489 58.8834 78.1856 59.4989 78.6591C60.1192 79.1326 60.5595 79.7576 60.82 80.5341ZM67.9737 89.2273C66.9889 89.2273 66.1248 88.9929 65.3814 88.5241C64.6428 88.0554 64.0651 87.3996 63.6484 86.5568C63.2365 85.714 63.0305 84.7292 63.0305 83.6023C63.0305 82.4659 63.2365 81.474 63.6484 80.6264C64.0651 79.7789 64.6428 79.1207 65.3814 78.652C66.1248 78.1832 66.9889 77.9489 67.9737 77.9489C68.9586 77.9489 69.8203 78.1832 70.5589 78.652C71.3023 79.1207 71.88 79.7789 72.2919 80.6264C72.7086 81.474 72.9169 82.4659 72.9169 83.6023C72.9169 84.7292 72.7086 85.714 72.2919 86.5568C71.88 87.3996 71.3023 88.0554 70.5589 88.5241C69.8203 88.9929 68.9586 89.2273 67.9737 89.2273ZM67.9737 87.7216C68.7218 87.7216 69.3374 87.5298 69.8203 87.1463C70.3033 86.7628 70.6607 86.2585 70.8928 85.6335C71.1248 85.0085 71.2408 84.3314 71.2408 83.6023C71.2408 82.8731 71.1248 82.1937 70.8928 81.5639C70.6607 80.9342 70.3033 80.4252 69.8203 80.0369C69.3374 79.6487 68.7218 79.4545 67.9737 79.4545C67.2256 79.4545 66.6101 79.6487 66.1271 80.0369C65.6442 80.4252 65.2867 80.9342 65.0547 81.5639C64.8227 82.1937 64.7067 82.8731 64.7067 83.6023C64.7067 84.3314 64.8227 85.0085 65.0547 85.6335C65.2867 86.2585 65.6442 86.7628 66.1271 87.1463C66.6101 87.5298 67.2256 87.7216 67.9737 87.7216ZM77.1516 82.4375V89H75.4755V78.0909H77.0948V79.7955H77.2369C77.4925 79.2415 77.8808 78.7964 78.4016 78.4602C78.9225 78.1193 79.5948 77.9489 80.4187 77.9489C81.1573 77.9489 81.8036 78.1004 82.3576 78.4034C82.9116 78.7017 83.3424 79.1562 83.6502 79.767C83.958 80.3731 84.1119 81.1402 84.1119 82.0682V89H82.4357V82.1818C82.4357 81.3248 82.2132 80.6572 81.7681 80.179C81.323 79.696 80.7122 79.4545 79.9357 79.4545C79.4007 79.4545 78.9225 79.5705 78.5011 79.8026C78.0844 80.0346 77.7553 80.3731 77.5138 80.8182C77.2724 81.2633 77.1516 81.803 77.1516 82.4375ZM91.5781 93.3182C90.7685 93.3182 90.0724 93.214 89.4901 93.0057C88.9077 92.8021 88.4223 92.5322 88.0341 92.196C87.6506 91.8646 87.3452 91.5095 87.1179 91.1307L88.4531 90.1932C88.6046 90.392 88.7964 90.6193 89.0284 90.875C89.2604 91.1354 89.5777 91.3603 89.9801 91.5497C90.3873 91.7438 90.92 91.8409 91.5781 91.8409C92.4588 91.8409 93.1856 91.6278 93.7585 91.2017C94.3314 90.7756 94.6179 90.108 94.6179 89.1989V86.983H94.4759C94.3527 87.1818 94.1776 87.428 93.9503 87.7216C93.7277 88.0104 93.4058 88.2685 92.9844 88.4957C92.5677 88.7183 92.0043 88.8295 91.294 88.8295C90.4134 88.8295 89.6226 88.6212 88.9219 88.2045C88.2259 87.7879 87.6742 87.1818 87.267 86.3864C86.8646 85.5909 86.6634 84.625 86.6634 83.4886C86.6634 82.3712 86.8598 81.3982 87.2528 80.5696C87.6458 79.7363 88.1927 79.0923 88.8935 78.6378C89.5942 78.1785 90.4039 77.9489 91.3224 77.9489C92.0327 77.9489 92.5961 78.0672 93.0128 78.304C93.4342 78.536 93.7562 78.8011 93.9787 79.0994C94.206 79.393 94.3812 79.6345 94.5043 79.8239H94.6747V78.0909H96.294V89.3125C96.294 90.25 96.081 91.0123 95.6548 91.5994C95.2334 92.1913 94.6652 92.6245 93.9503 92.8991C93.2401 93.1785 92.4493 93.3182 91.5781 93.3182ZM91.5213 87.3239C92.1937 87.3239 92.7618 87.17 93.2259 86.8622C93.6899 86.5545 94.0426 86.1117 94.2841 85.5341C94.5256 84.9564 94.6463 84.2652 94.6463 83.4602C94.6463 82.6742 94.5279 81.9806 94.2912 81.3793C94.0545 80.7779 93.7041 80.3068 93.2401 79.9659C92.776 79.625 92.2031 79.4545 91.5213 79.4545C90.8111 79.4545 90.2192 79.6345 89.7457 79.9943C89.277 80.3542 88.9242 80.8371 88.6875 81.4432C88.4555 82.0492 88.3395 82.7216 88.3395 83.4602C88.3395 84.2178 88.4579 84.8878 88.6946 85.4702C88.9361 86.0478 89.2912 86.5024 89.7599 86.8338C90.2334 87.1605 90.8205 87.3239 91.5213 87.3239ZM100.584 89.1136C100.233 89.1136 99.9328 88.9882 99.6818 88.7372C99.4309 88.4863 99.3054 88.1856 99.3054 87.8352C99.3054 87.4848 99.4309 87.1842 99.6818 86.9332C99.9328 86.6823 100.233 86.5568 100.584 86.5568C100.934 86.5568 101.235 86.6823 101.486 86.9332C101.737 87.1842 101.862 87.4848 101.862 87.8352C101.862 88.0672 101.803 88.2803 101.685 88.4744C101.571 88.6686 101.417 88.8248 101.223 88.9432C101.034 89.0568 100.821 89.1136 100.584 89.1136Z"></path>
</svg>
