<svg version="1.1" xmlns="http://www.w3.org/2000/svg" xmlns:xlink="http://www.w3.org/1999/xlink" width="247.51069" height="29.4072" viewBox="0,0,247.51069,29.4072"><g transform="translate(-116.24466,-165.2964)"><g data-paper-data="{&quot;isPaintingLayer&quot;:true}" fill="#ffffff" fill-rule="nonzero" stroke="none" stroke-width="1" stroke-linecap="butt" stroke-linejoin="miter" stroke-miterlimit="10" stroke-dasharray="" stroke-dashoffset="0" style="mix-blend-mode: normal"><path d="M118.92035,175.54047l-2.67569,-9.78538h1.20406l2.04498,7.96973h0.09556l2.08324,-7.96973h1.33784l2.08321,7.96973h0.09556l2.045,-7.96973h1.20404l-2.67567,9.78538h-1.22319l-2.15965,-7.79773h-0.07644l-2.15968,7.79773zM130.88926,171.12558v4.41489h-1.1276v-9.78538h1.1276v3.59307h0.09559c0.172,-0.37906 0.43,-0.68006 0.77402,-0.90305c0.34722,-0.22615 0.80909,-0.33923 1.38563,-0.33923c0.5001,0 0.93809,0.10032 1.31395,0.301c0.37587,0.19751 0.66733,0.5017 0.87437,0.91261c0.21023,0.40774 0.31535,0.92693 0.31535,1.55763v4.66335h-1.1276v-4.58689c0,-0.58293 -0.15131,-1.03364 -0.45391,-1.35219c-0.29943,-0.32171 -0.71513,-0.48258 -1.24707,-0.48258c-0.36951,0 -0.70078,0.07804 -0.99381,0.23412c-0.28987,0.1561 -0.51922,0.38386 -0.68805,0.68326c-0.16564,0.29943 -0.24847,0.66257 -0.24847,1.0894zM137.71109,175.54047v-7.33903h1.1276v7.33903zM138.28444,166.97825c-0.21976,0 -0.40931,-0.07484 -0.56858,-0.22456c-0.15608,-0.14971 -0.23412,-0.32967 -0.23412,-0.53991c0,-0.21023 0.07804,-0.39022 0.23412,-0.53993c0.15927,-0.14971 0.34882,-0.22456 0.56858,-0.22456c0.21979,0 0.40774,0.07484 0.56382,0.22456c0.15927,0.14971 0.23891,0.3297 0.23891,0.53993c0,0.21023 -0.07964,0.39019 -0.23891,0.53991c-0.15608,0.14971 -0.34402,0.22456 -0.56382,0.22456zM143.88548,175.69338c-0.68805,0 -1.28051,-0.16247 -1.77742,-0.48738c-0.49693,-0.32491 -0.87917,-0.77245 -1.14672,-1.34263c-0.26758,-0.57015 -0.40138,-1.22156 -0.40138,-1.95418c0,-0.74537 0.13699,-1.40315 0.41093,-1.97333c0.27711,-0.57337 0.66254,-1.02092 1.15628,-1.34263c0.49691,-0.32491 1.07664,-0.48735 1.73919,-0.48735c0.51591,0 0.98095,0.09556 1.39524,0.28667c0.41402,0.19112 0.75319,0.4587 1.01753,0.8027c0.26461,0.34402 0.42859,0.74537 0.49222,1.20407h-1.12769c-0.08577,-0.33447 -0.27695,-0.6307 -0.57323,-0.88872c-0.29292,-0.26119 -0.68816,-0.39179 -1.18496,-0.39179c-0.43958,0 -0.82501,0.11467 -1.15628,0.34402c-0.3281,0.22615 -0.5845,0.54627 -0.76926,0.96037c-0.18158,0.41091 -0.27235,0.89349 -0.27235,1.44775c0,0.56698 0.08919,1.06072 0.26756,1.48119c0.18156,0.42047 0.43639,0.74697 0.76449,0.97949c0.33127,0.23252 0.71989,0.34879 1.16584,0.34879c0.29301,0 0.55902,-0.05096 0.79785,-0.15288c0.2391,-0.10195 0.44121,-0.24847 0.60687,-0.43958c0.16566,-0.19112 0.28339,-0.42047 0.35347,-0.68805h1.12769c-0.06363,0.43322 -0.22145,0.82341 -0.47288,1.17063c-0.24864,0.344 -0.57828,0.61794 -0.98921,0.82181c-0.40757,0.20067 -0.88214,0.30103 -1.42378,0.30103zM149.54756,171.12558v4.41489h-1.12769v-9.78538h1.12769v3.59307h0.09531c0.17211,-0.37906 0.43028,-0.68006 0.77422,-0.90305c0.34702,-0.22615 0.80898,-0.33923 1.38557,-0.33923c0.50007,0 0.9382,0.10032 1.31381,0.301c0.3759,0.19751 0.66742,0.5017 0.87457,0.91261c0.21023,0.40774 0.31535,0.92693 0.31535,1.55763v4.66335h-1.12769v-4.58689c0,-0.58293 -0.15137,-1.03364 -0.45382,-1.35219c-0.29937,-0.32171 -0.71507,-0.48258 -1.2471,-0.48258c-0.36945,0 -0.70078,0.07804 -0.99398,0.23412c-0.28984,0.1561 -0.51913,0.38386 -0.68788,0.68326c-0.16566,0.29943 -0.24835,0.66257 -0.24835,1.0894zM163.13504,175.69338c-0.66265,0 -1.24402,-0.15767 -1.74409,-0.47302c-0.49699,-0.31535 -0.8855,-0.75653 -1.16581,-1.32351c-0.27723,-0.56701 -0.4157,-1.22955 -0.4157,-1.98765c0,-0.76449 0.13847,-1.43182 0.4157,-2.002c0.28031,-0.57018 0.66882,-1.01293 1.16581,-1.32828c0.50007,-0.31535 1.08144,-0.47302 1.74409,-0.47302c0.66237,0 1.24205,0.15767 1.73904,0.47302c0.50007,0.31535 0.88886,0.7581 1.16581,1.32828c0.28031,0.57018 0.42047,1.23751 0.42047,2.002c0,0.7581 -0.14016,1.42064 -0.42047,1.98765c-0.27695,0.56698 -0.66574,1.00816 -1.16581,1.32351c-0.49699,0.31535 -1.07667,0.47302 -1.73904,0.47302zM163.13504,174.68042c0.50316,0 0.91718,-0.129 1.24205,-0.38702c0.32488,-0.258 0.56539,-0.59723 0.72152,-1.01769c0.15613,-0.42047 0.23406,-0.87597 0.23406,-1.36651c0,-0.49054 -0.07793,-0.94764 -0.23406,-1.37131c-0.15613,-0.42366 -0.39664,-0.76606 -0.72152,-1.02728c-0.32488,-0.26119 -0.7389,-0.39179 -1.24205,-0.39179c-0.50344,0 -0.91746,0.1306 -1.24234,0.39179c-0.32488,0.26122 -0.56539,0.60362 -0.72152,1.02728c-0.15613,0.42366 -0.23406,0.88076 -0.23406,1.37131c0,0.49054 0.07793,0.94605 0.23406,1.36651c0.15613,0.42047 0.39664,0.7597 0.72152,1.01769c0.32488,0.25803 0.7389,0.38702 1.24234,0.38702zM171.44988,168.20144v0.95561h-3.9563v-0.95561zM168.67873,175.54047v-8.35198c0,-0.42047 0.09867,-0.77085 0.29601,-1.05116c0.19762,-0.28031 0.4541,-0.49054 0.76945,-0.6307c0.31535,-0.14014 0.64808,-0.21022 0.99847,-0.21022c0.27723,0 0.50344,0.0223 0.67863,0.06689c0.17519,0.04459 0.30582,0.086 0.39159,0.12424l-0.32488,0.97469c-0.05718,-0.01909 -0.13679,-0.043 -0.23882,-0.07165c-0.09867,-0.02868 -0.22929,-0.04303 -0.39187,-0.04303c-0.37253,0 -0.64163,0.09399 -0.80729,0.28191c-0.16258,0.18795 -0.24387,0.46347 -0.24387,0.82661v8.0844zM180.00607,168.20144v0.95561h-3.80325v-0.95561zM177.31117,166.44314h1.12769v6.995c0,0.31854 0.04625,0.55743 0.13847,0.7167c0.09559,0.15608 0.21668,0.26119 0.36328,0.31535c0.14969,0.05096 0.3075,0.07644 0.47288,0.07644c0.12446,0 0.22621,-0.00636 0.30582,-0.01909c0.07961,-0.01595 0.14352,-0.02868 0.19117,-0.03823l0.22929,1.01293c-0.07624,0.02868 -0.18304,0.05735 -0.32011,0.08603c-0.13679,0.03184 -0.31058,0.04776 -0.52082,0.04776c-0.31843,0 -0.6307,-0.06848 -0.93652,-0.20544c-0.30245,-0.13699 -0.55417,-0.34562 -0.75488,-0.62593c-0.19734,-0.28031 -0.29629,-0.63389 -0.29629,-1.06072zM182.98745,171.12558v4.41489h-1.12741v-9.78538h1.12741v3.59307h0.09559c0.17211,-0.37906 0.43,-0.68006 0.77422,-0.90305c0.34702,-0.22615 0.80898,-0.33923 1.38557,-0.33923c0.50007,0 0.93792,0.10032 1.31381,0.301c0.3759,0.19751 0.66742,0.5017 0.87457,0.91261c0.21023,0.40774 0.31535,0.92693 0.31535,1.55763v4.66335h-1.12769v-4.58689c0,-0.58293 -0.15137,-1.03364 -0.45382,-1.35219c-0.29965,-0.32171 -0.71507,-0.48258 -1.2471,-0.48258c-0.36945,0 -0.70078,0.07804 -0.99398,0.23412c-0.28984,0.1561 -0.51913,0.38386 -0.68788,0.68326c-0.16566,0.29943 -0.24864,0.66257 -0.24864,1.0894zM192.88633,175.69338c-0.70694,0 -1.31718,-0.1561 -1.82987,-0.46826c-0.5096,-0.31535 -0.90316,-0.75493 -1.18011,-1.31872c-0.27414,-0.56701 -0.41093,-1.22636 -0.41093,-1.97812c0,-0.75174 0.13679,-1.41428 0.41093,-1.98765c0.27695,-0.57654 0.66237,-1.02568 1.15628,-1.3474c0.49671,-0.32491 1.07667,-0.48735 1.73904,-0.48735c0.38234,0 0.75964,0.06369 1.13245,0.19112c0.37281,0.1274 0.71199,0.33447 1.01781,0.62114c0.30582,0.28351 0.54941,0.65937 0.73105,1.1276c0.18136,0.46826 0.27218,1.0448 0.27218,1.72965v0.47779h-5.65722v-0.97469h4.51047c0,-0.4141 -0.08269,-0.78361 -0.24835,-1.10852c-0.16258,-0.32491 -0.39496,-0.58134 -0.69769,-0.76926c-0.29937,-0.18795 -0.65284,-0.28191 -1.06069,-0.28191c-0.44906,0 -0.83757,0.11148 -1.16581,0.33447c-0.32488,0.21979 -0.57492,0.50646 -0.75011,0.86005c-0.17519,0.35356 -0.26265,0.73262 -0.26265,1.13716v0.64982c0,0.55423 0.09531,1.02409 0.28648,1.40951c0.19426,0.38223 0.46363,0.6737 0.80757,0.87437c0.34394,0.19748 0.74366,0.29623 1.19917,0.29623c0.29629,0 0.56398,-0.0414 0.80281,-0.12423c0.24219,-0.086 0.45074,-0.2134 0.62593,-0.38223c0.17519,-0.172 0.31058,-0.38543 0.40617,-0.64026l1.08929,0.30579c-0.11465,0.36951 -0.30722,0.69441 -0.578,0.97472c-0.27078,0.27711 -0.60519,0.49374 -1.00351,0.64982c-0.39804,0.15288 -0.8457,0.22935 -1.34269,0.22935zM204.693,168.20144v0.95561h-3.9563v-0.95561zM201.92157,175.54047v-8.35198c0,-0.42047 0.09895,-0.77085 0.29629,-1.05116c0.19762,-0.28031 0.45382,-0.49054 0.76917,-0.6307c0.31535,-0.14014 0.64836,-0.21022 0.99875,-0.21022c0.27723,0 0.50316,0.0223 0.67835,0.06689c0.17519,0.04459 0.30582,0.086 0.39187,0.12424l-0.32488,0.97469c-0.05746,-0.01909 -0.13707,-0.043 -0.23882,-0.07165c-0.09895,-0.02868 -0.22929,-0.04303 -0.39187,-0.04303c-0.37281,0 -0.64191,0.09399 -0.80757,0.28191c-0.1623,0.18795 -0.24359,0.46347 -0.24359,0.82661v8.0844zM208.95259,175.69338c-0.66265,0 -1.24402,-0.15767 -1.74409,-0.47302c-0.49699,-0.31535 -0.8855,-0.75653 -1.16581,-1.32351c-0.27723,-0.56701 -0.4157,-1.22955 -0.4157,-1.98765c0,-0.76449 0.13847,-1.43182 0.4157,-2.002c0.28031,-0.57018 0.66882,-1.01293 1.16581,-1.32828c0.50007,-0.31535 1.08144,-0.47302 1.74409,-0.47302c0.66237,0 1.24234,0.15767 1.73904,0.47302c0.50007,0.31535 0.88886,0.7581 1.16581,1.32828c0.28031,0.57018 0.42047,1.23751 0.42047,2.002c0,0.7581 -0.14016,1.42064 -0.42047,1.98765c-0.27695,0.56698 -0.66574,1.00816 -1.16581,1.32351c-0.49671,0.31535 -1.07667,0.47302 -1.73904,0.47302zM208.95259,174.68042c0.50316,0 0.91718,-0.129 1.24234,-0.38702c0.32488,-0.258 0.56539,-0.59723 0.72124,-1.01769c0.15613,-0.42047 0.23434,-0.87597 0.23434,-1.36651c0,-0.49054 -0.07821,-0.94764 -0.23434,-1.37131c-0.15585,-0.42366 -0.39636,-0.76606 -0.72124,-1.02728c-0.32516,-0.26119 -0.73918,-0.39179 -1.24234,-0.39179c-0.50344,0 -0.91746,0.1306 -1.24234,0.39179c-0.32488,0.26122 -0.56539,0.60362 -0.72152,1.02728c-0.15613,0.42366 -0.23406,0.88076 -0.23406,1.37131c0,0.49054 0.07793,0.94605 0.23406,1.36651c0.15613,0.42047 0.39664,0.7597 0.72152,1.01769c0.32488,0.25803 0.7389,0.38702 1.24234,0.38702zM215.12699,165.75509v9.78538h-1.12769v-9.78538zM218.31972,165.75509v9.78538h-1.12741v-9.78538zM223.36671,175.69338c-0.66265,0 -1.24402,-0.15767 -1.74409,-0.47302c-0.49699,-0.31535 -0.8855,-0.75653 -1.16581,-1.32351c-0.27723,-0.56701 -0.4157,-1.22955 -0.4157,-1.98765c0,-0.76449 0.13847,-1.43182 0.4157,-2.002c0.28031,-0.57018 0.66882,-1.01293 1.16581,-1.32828c0.50007,-0.31535 1.08144,-0.47302 1.74409,-0.47302c0.66237,0 1.24205,0.15767 1.73904,0.47302c0.50007,0.31535 0.88886,0.7581 1.16581,1.32828c0.28031,0.57018 0.42047,1.23751 0.42047,2.002c0,0.7581 -0.14016,1.42064 -0.42047,1.98765c-0.27695,0.56698 -0.66574,1.00816 -1.16581,1.32351c-0.49699,0.31535 -1.07667,0.47302 -1.73904,0.47302zM223.36671,174.68042c0.50316,0 0.91718,-0.129 1.24205,-0.38702c0.32488,-0.258 0.56539,-0.59723 0.72152,-1.01769c0.15613,-0.42047 0.23406,-0.87597 0.23406,-1.36651c0,-0.49054 -0.07793,-0.94764 -0.23406,-1.37131c-0.15613,-0.42366 -0.39664,-0.76606 -0.72152,-1.02728c-0.32488,-0.26119 -0.7389,-0.39179 -1.24205,-0.39179c-0.50344,0 -0.91746,0.1306 -1.24234,0.39179c-0.32488,0.26122 -0.56539,0.60362 -0.72152,1.02728c-0.15613,0.42366 -0.23406,0.88076 -0.23406,1.37131c0,0.49054 0.07793,0.94605 0.23406,1.36651c0.15613,0.42047 0.39664,0.7597 0.72152,1.01769c0.32488,0.25803 0.7389,0.38702 1.24234,0.38702zM229.82646,175.54047l-2.23604,-7.33903h1.18487l1.58628,5.61893h0.07652l1.56721,-5.61893h1.20393l1.54815,5.59984h0.07652l1.58628,-5.59984h1.18487l-2.23604,7.33903h-1.10863l-1.60534,-5.63805h-0.11465l-1.60534,5.63805zM239.09576,175.54047v-7.33903h1.12769v7.33903zM239.66927,166.97825c-0.21976,0 -0.40953,-0.07484 -0.56875,-0.22456c-0.15613,-0.14971 -0.23406,-0.32967 -0.23406,-0.53991c0,-0.21023 0.07793,-0.39022 0.23406,-0.53993c0.15922,-0.14971 0.34899,-0.22456 0.56875,-0.22456c0.21976,0 0.40757,0.07484 0.5637,0.22456c0.15922,0.14971 0.23882,0.3297 0.23882,0.53993c0,0.21023 -0.07961,0.39019 -0.23882,0.53991c-0.15613,0.14971 -0.34394,0.22456 -0.5637,0.22456zM243.41646,171.12558v4.41489h-1.12769v-7.33903h1.08929v1.14672h0.09559c0.17211,-0.3727 0.43336,-0.6721 0.78375,-0.89828c0.35039,-0.22932 0.80253,-0.344 1.3567,-0.344c0.49699,0 0.93175,0.10192 1.30456,0.30579c0.37253,0.20067 0.66265,0.50646 0.86952,0.91737c0.20715,0.40774 0.31058,0.92376 0.31058,1.54807v4.66335h-1.12769v-4.58689c0,-0.57657 -0.14969,-1.02568 -0.44906,-1.34742c-0.29937,-0.32488 -0.71031,-0.48735 -1.2328,-0.48735c-0.35992,0 -0.68143,0.07804 -0.96511,0.23412c-0.28031,0.1561 -0.50176,0.38386 -0.66406,0.68326c-0.16258,0.29943 -0.24359,0.66257 -0.24359,1.0894zM253.12164,178.44549c-0.54464,0 -1.01304,-0.07008 -1.40463,-0.21023c-0.39187,-0.13696 -0.71844,-0.31852 -0.97968,-0.54467c-0.25789,-0.22299 -0.46335,-0.4619 -0.61612,-0.71673l0.89811,-0.6307c0.10203,0.13379 0.23098,0.2867 0.38711,0.4587c0.15613,0.17519 0.36945,0.32651 0.64023,0.45391c0.27386,0.1306 0.63238,0.19591 1.07499,0.19591c0.59258,0 1.08144,-0.14335 1.46686,-0.43002c0.38543,-0.28667 0.57828,-0.73581 0.57828,-1.3474v-1.49075h-0.09559c-0.08297,0.13379 -0.2007,0.29943 -0.35375,0.49691c-0.14969,0.19431 -0.36637,0.36791 -0.64976,0.52082c-0.28031,0.14971 -0.65929,0.22456 -1.13722,0.22456c-0.5923,0 -1.12432,-0.14016 -1.59581,-0.42047c-0.46812,-0.28031 -0.83925,-0.68802 -1.11311,-1.22316c-0.27078,-0.53514 -0.40617,-1.18496 -0.40617,-1.94945c0,-0.75174 0.13203,-1.40632 0.39636,-1.96377c0.26461,-0.56062 0.63238,-0.99381 1.10386,-1.2996c0.47148,-0.30899 1.01612,-0.46347 1.63393,-0.46347c0.47793,0 0.85691,0.07964 1.13722,0.23888c0.28367,0.1561 0.50007,0.33447 0.64976,0.53514c0.15305,0.19751 0.27078,0.35995 0.35375,0.48738h0.11465v-1.16584h1.08929v7.54926c0,0.6307 -0.14324,1.14353 -0.43,1.53851c-0.28339,0.39818 -0.66574,0.68965 -1.14675,0.8744c-0.47765,0.18792 -1.00968,0.28188 -1.59581,0.28188zM253.08352,174.41286c0.45214,0 0.83448,-0.10352 1.14675,-0.31058c0.31199,-0.20704 0.54941,-0.50487 0.71171,-0.89349c0.16258,-0.38859 0.24387,-0.85366 0.24387,-1.39519c0,-0.52875 -0.07961,-0.99541 -0.2391,-1.39995c-0.15922,-0.40454 -0.39496,-0.72146 -0.70694,-0.95081c-0.31227,-0.22935 -0.69769,-0.34402 -1.15628,-0.34402c-0.47793,0 -0.87597,0.12104 -1.19468,0.36314c-0.31535,0.24208 -0.55249,0.56698 -0.71171,0.97469c-0.15613,0.40774 -0.23434,0.86005 -0.23434,1.35695c0,0.50966 0.07961,0.9604 0.2391,1.35219c0.1623,0.38862 0.40112,0.69441 0.71647,0.91737c0.31871,0.21979 0.71367,0.3297 1.18515,0.3297zM262.14259,175.54047v-7.33903h1.12769v7.33903zM262.71582,166.97825c-0.21976,0 -0.40925,-0.07484 -0.56847,-0.22456c-0.15613,-0.14971 -0.23406,-0.32967 -0.23406,-0.53991c0,-0.21023 0.07793,-0.39022 0.23406,-0.53993c0.15922,-0.14971 0.34871,-0.22456 0.56847,-0.22456c0.21976,0 0.40785,0.07484 0.56398,0.22456c0.15922,0.14971 0.23882,0.3297 0.23882,0.53993c0,0.21023 -0.07961,0.39019 -0.23882,0.53991c-0.15613,0.14971 -0.34422,0.22456 -0.56398,0.22456zM270.53396,169.84507l-1.01304,0.28667c-0.06363,-0.1688 -0.15753,-0.33287 -0.28171,-0.49211c-0.12109,-0.16247 -0.28676,-0.29626 -0.49699,-0.40138c-0.21023,-0.10512 -0.47933,-0.15767 -0.80757,-0.15767c-0.44906,0 -0.82327,0.10355 -1.12264,0.31058c-0.29629,0.20387 -0.44457,0.46347 -0.44457,0.77881c0,0.28031 0.10203,0.5017 0.30582,0.66414c0.20407,0.16247 0.5225,0.29783 0.95558,0.40614l1.08957,0.26756c0.65621,0.15927 1.14507,0.40295 1.46686,0.73105c0.32152,0.32491 0.48241,0.74378 0.48241,1.2566c0,0.42047 -0.12109,0.79636 -0.363,1.12763c-0.23882,0.33127 -0.57351,0.59246 -1.00351,0.78358c-0.43,0.19112 -0.93007,0.2867 -1.50022,0.2867c-0.74843,0 -1.36819,-0.16247 -1.85874,-0.48738c-0.49054,-0.32491 -0.80113,-0.79953 -0.93175,-1.42384l1.0705,-0.26758c0.10175,0.39499 0.29461,0.69122 0.578,0.88872c0.28676,0.19748 0.66097,0.29623 1.12292,0.29623c0.52558,0 0.94268,-0.11148 1.25187,-0.33447c0.31199,-0.22615 0.46812,-0.49691 0.46812,-0.81226c0,-0.25483 -0.08914,-0.46826 -0.26742,-0.64026c-0.17856,-0.17519 -0.45242,-0.30579 -0.82187,-0.39179l-1.22327,-0.2867c-0.67218,-0.15924 -1.16581,-0.40611 -1.48116,-0.74058c-0.31227,-0.33763 -0.46812,-0.7597 -0.46812,-1.26616c0,-0.4141 0.11605,-0.78041 0.34871,-1.09896c0.23574,-0.31854 0.55586,-0.56858 0.96034,-0.75014c0.40785,-0.18158 0.86952,-0.27235 1.38557,-0.27235c0.72628,0 1.29644,0.15927 1.71073,0.47779c0.4171,0.31854 0.71339,0.73901 0.88858,1.2614zM284.06173,165.75509v9.78538h-1.14675l-5.33234,-7.68305h-0.09559v7.68305h-1.18487v-9.78538h1.14675l5.3514,7.70217h0.09559v-7.70217zM294.68913,170.64779c0,1.03205 -0.18613,1.92394 -0.55894,2.67567c-0.37281,0.75174 -0.88382,1.33147 -1.53386,1.73921c-0.64976,0.40771 -1.39174,0.61158 -2.2265,0.61158c-0.83448,0 -1.57675,-0.20387 -2.2265,-0.61158c-0.64976,-0.40774 -1.16105,-0.98748 -1.53386,-1.73921c-0.37253,-0.75174 -0.55894,-1.64363 -0.55894,-2.67567c0,-1.03207 0.18641,-1.92397 0.55894,-2.6757c0.37281,-0.75174 0.8841,-1.33147 1.53386,-1.73919c0.64976,-0.40774 1.39202,-0.61161 2.2265,-0.61161c0.83476,0 1.57675,0.20387 2.2265,0.61161c0.65004,0.40771 1.16105,0.98745 1.53386,1.73919c0.37281,0.75174 0.55894,1.64363 0.55894,2.6757zM293.54238,170.64779c0,-0.84732 -0.14156,-1.56242 -0.42523,-2.14535c-0.28031,-0.58291 -0.66097,-1.02409 -1.1417,-1.32348c-0.47793,-0.29943 -1.01304,-0.44914 -1.60562,-0.44914c-0.5923,0 -1.12909,0.14971 -1.6101,0.44914c-0.47793,0.2994 -0.85859,0.74058 -1.14198,1.32348c-0.28031,0.58293 -0.42047,1.29803 -0.42047,2.14535c0,0.84729 0.14016,1.56239 0.42047,2.14533c0.28339,0.58291 0.66406,1.02409 1.14198,1.32351c0.48101,0.2994 1.01781,0.44911 1.6101,0.44911c0.59258,0 1.12769,-0.14971 1.60562,-0.44911c0.48073,-0.29943 0.86139,-0.74061 1.1417,-1.32351c0.28367,-0.58293 0.42523,-1.29803 0.42523,-2.14533zM295.73918,166.80625v-1.05116h7.33908v1.05116h-3.07697v8.73422h-1.18515v-8.73422zM310.69793,175.71247c-0.46503,0 -0.88718,-0.0876 -1.26616,-0.26279c-0.37898,-0.17836 -0.68003,-0.43479 -0.90316,-0.76926c-0.22285,-0.33763 -0.33441,-0.74537 -0.33441,-1.22316c0,-0.42047 0.08297,-0.76129 0.24864,-1.02249c0.16566,-0.26439 0.38683,-0.47145 0.66406,-0.62117c0.27723,-0.14969 0.58305,-0.26119 0.91746,-0.33444c0.33749,-0.07647 0.67667,-0.13699 1.01753,-0.18158c0.44597,-0.05732 0.80757,-0.10032 1.0848,-0.129c0.28031,-0.03184 0.4841,-0.0844 0.61164,-0.15767c0.13034,-0.07327 0.19566,-0.20067 0.19566,-0.38223v-0.03823c0,-0.47143 -0.12894,-0.83774 -0.38683,-1.09893c-0.2548,-0.26122 -0.64191,-0.39182 -1.16105,-0.39182c-0.53848,0 -0.96034,0.11787 -1.26616,0.35358c-0.30582,0.23571 -0.52082,0.48735 -0.64527,0.75493l-1.07022,-0.38226c0.19117,-0.44595 0.44597,-0.79314 0.76469,-1.0416c0.32152,-0.25163 0.6719,-0.42683 1.05116,-0.52558c0.38206,-0.10192 0.75796,-0.15288 1.12741,-0.15288c0.23574,0 0.50652,0.02865 0.81234,0.086c0.3089,0.05416 0.60687,0.16723 0.89363,0.33923c0.28984,0.17203 0.53035,0.43162 0.72124,0.77881c0.19117,0.34722 0.28676,0.81228 0.28676,1.39519v4.83535h-1.12769v-0.99384h-0.05718c-0.07652,0.15927 -0.20379,0.3297 -0.38234,0.51126c-0.17828,0.18156 -0.4157,0.33606 -0.71199,0.46347c-0.29601,0.12743 -0.65761,0.19112 -1.08452,0.19112zM310.87004,174.69954c0.44597,0 0.82187,-0.0876 1.12741,-0.26279c0.30918,-0.17519 0.54156,-0.40135 0.69769,-0.67849c0.15922,-0.27711 0.23882,-0.56858 0.23882,-0.87437v-1.03205c-0.04765,0.05735 -0.15277,0.10991 -0.31535,0.15767c-0.15922,0.0446 -0.34394,0.0844 -0.55417,0.11944c-0.20715,0.03187 -0.40925,0.06055 -0.60687,0.08603c-0.19426,0.02228 -0.35179,0.0414 -0.47288,0.05732c-0.2932,0.03823 -0.56707,0.10035 -0.82187,0.18635c-0.25172,0.0828 -0.4555,0.20863 -0.61164,0.37747c-0.15277,0.16564 -0.22929,0.39179 -0.22929,0.67846c0,0.39182 0.14492,0.68805 0.43476,0.88872c0.2932,0.19748 0.66406,0.29623 1.11339,0.29623zM323.09578,168.20144v0.95561h-3.80325v-0.95561zM320.40087,166.44314h1.12769v6.995c0,0.31854 0.04625,0.55743 0.13847,0.7167c0.09559,0.15608 0.21668,0.26119 0.36328,0.31535c0.14969,0.05096 0.30722,0.07644 0.47288,0.07644c0.12418,0 0.22621,-0.00636 0.30582,-0.01909c0.07961,-0.01595 0.14324,-0.02868 0.19117,-0.03823l0.22929,1.01293c-0.07652,0.02868 -0.18304,0.05735 -0.32011,0.08603c-0.13707,0.03184 -0.31058,0.04776 -0.52082,0.04776c-0.31843,0 -0.6307,-0.06848 -0.93652,-0.20544c-0.30245,-0.13699 -0.55417,-0.34562 -0.75488,-0.62593c-0.19762,-0.28031 -0.29629,-0.63389 -0.29629,-1.06072zM325.51822,178.29261c-0.19117,0 -0.3616,-0.01592 -0.51129,-0.04779c-0.14969,-0.02865 -0.25312,-0.05732 -0.31058,-0.086l0.28676,-0.99381c0.27386,0.07008 0.51605,0.09556 0.72628,0.07644c0.21023,-0.01912 0.39636,-0.11308 0.55894,-0.28191c0.16566,-0.16564 0.31703,-0.43479 0.45382,-0.80749l0.21023,-0.57335l-2.71396,-7.37726h1.22327l2.0258,5.84828h0.07652l2.0258,-5.84828h1.22327l-3.11537,8.40931c-0.14016,0.37906 -0.31367,0.69281 -0.52082,0.94125c-0.20687,0.25166 -0.44738,0.43798 -0.72124,0.55905c-0.27078,0.12104 -0.5766,0.18156 -0.91746,0.18156zM332.28154,178.29261v-10.09117h1.08929v1.16584h0.13371c0.08297,-0.12743 0.19762,-0.28987 0.34422,-0.48738c0.14969,-0.20067 0.363,-0.37904 0.64023,-0.53514c0.28031,-0.15924 0.65929,-0.23888 1.13722,-0.23888c0.6178,0 1.16245,0.15448 1.63393,0.46347c0.47148,0.30899 0.83925,0.74697 1.10386,1.31395c0.26433,0.56698 0.39636,1.23592 0.39636,2.00677c0,0.77722 -0.13203,1.45091 -0.39636,2.02109c-0.26461,0.56698 -0.6307,1.00657 -1.0991,1.31872c-0.46812,0.30899 -1.008,0.46349 -1.61963,0.46349c-0.47148,0 -0.84906,-0.07807 -1.13245,-0.23414c-0.28339,-0.15927 -0.50176,-0.33923 -0.65452,-0.53991c-0.15305,-0.20387 -0.27078,-0.3727 -0.35375,-0.50646h-0.09559v3.87975zM333.38989,171.87095c0,0.55426 0.08129,1.0432 0.24387,1.46684c0.1623,0.42047 0.39972,0.75017 0.71171,0.98907c0.31227,0.23571 0.69461,0.35356 1.14675,0.35356c0.47148,0 0.86476,-0.12423 1.18011,-0.37267c0.31871,-0.25166 0.55754,-0.5893 0.71675,-1.01296c0.16258,-0.42683 0.24387,-0.90145 0.24387,-1.42384c0,-0.51602 -0.07961,-0.98109 -0.2391,-1.39519c-0.15585,-0.41727 -0.39328,-0.74697 -0.71171,-0.98905c-0.31535,-0.24527 -0.71199,-0.36791 -1.18992,-0.36791c-0.45859,0 -0.84401,0.11627 -1.15628,0.34879c-0.31199,0.22935 -0.54773,0.55106 -0.70694,0.96516c-0.1595,0.41091 -0.2391,0.89029 -0.2391,1.43819zM343.55759,175.69338c-0.70722,0 -1.31718,-0.1561 -1.82987,-0.46826c-0.50988,-0.31535 -0.90316,-0.75493 -1.18039,-1.31872c-0.27386,-0.56701 -0.41093,-1.22636 -0.41093,-1.97812c0,-0.75174 0.13707,-1.41428 0.41093,-1.98765c0.27723,-0.57654 0.66265,-1.02568 1.15628,-1.3474c0.49699,-0.32491 1.07667,-0.48735 1.73933,-0.48735c0.38234,0 0.75964,0.06369 1.13245,0.19112c0.37253,0.1274 0.71171,0.33447 1.01753,0.62114c0.30582,0.28351 0.54969,0.65937 0.73105,1.1276c0.18164,0.46826 0.27246,1.0448 0.27246,1.72965v0.47779h-5.65722v-0.97469h4.51047c0,-0.4141 -0.08269,-0.78361 -0.24835,-1.10852c-0.16258,-0.32491 -0.39496,-0.58134 -0.69769,-0.76926c-0.29937,-0.18795 -0.65312,-0.28191 -1.06069,-0.28191c-0.44906,0 -0.83785,0.11148 -1.16581,0.33447c-0.32488,0.21979 -0.57492,0.50646 -0.75011,0.86005c-0.17519,0.35356 -0.26293,0.73262 -0.26293,1.13716v0.64982c0,0.55423 0.09559,1.02409 0.28676,1.40951c0.19426,0.38223 0.46335,0.6737 0.80757,0.87437c0.34394,0.19748 0.74366,0.29623 1.19917,0.29623c0.29629,0 0.5637,-0.0414 0.80281,-0.12423c0.24191,-0.086 0.45074,-0.2134 0.62593,-0.38223c0.17519,-0.172 0.31058,-0.38543 0.40589,-0.64026l1.08957,0.30579c-0.11465,0.36951 -0.3075,0.69441 -0.57828,0.97472c-0.27078,0.27711 -0.60519,0.49374 -1.00323,0.64982c-0.39832,0.15288 -0.8457,0.22935 -1.34269,0.22935zM355.0775,175.69338c-0.66265,0 -1.24402,-0.15767 -1.74409,-0.47302c-0.49699,-0.31535 -0.8855,-0.75653 -1.16581,-1.32351c-0.27723,-0.56701 -0.4157,-1.22955 -0.4157,-1.98765c0,-0.76449 0.13847,-1.43182 0.4157,-2.002c0.28031,-0.57018 0.66882,-1.01293 1.16581,-1.32828c0.50007,-0.31535 1.08144,-0.47302 1.74409,-0.47302c0.66237,0 1.24205,0.15767 1.73904,0.47302c0.50007,0.31535 0.88886,0.7581 1.16581,1.32828c0.28031,0.57018 0.42047,1.23751 0.42047,2.002c0,0.7581 -0.14016,1.42064 -0.42047,1.98765c-0.27695,0.56698 -0.66574,1.00816 -1.16581,1.32351c-0.49699,0.31535 -1.07667,0.47302 -1.73904,0.47302zM355.0775,174.68042c0.50316,0 0.91718,-0.129 1.24205,-0.38702c0.32488,-0.258 0.56539,-0.59723 0.72152,-1.01769c0.15613,-0.42047 0.23406,-0.87597 0.23406,-1.36651c0,-0.49054 -0.07793,-0.94764 -0.23406,-1.37131c-0.15613,-0.42366 -0.39664,-0.76606 -0.72152,-1.02728c-0.32488,-0.26119 -0.7389,-0.39179 -1.24205,-0.39179c-0.50344,0 -0.91746,0.1306 -1.24234,0.39179c-0.32488,0.26122 -0.56539,0.60362 -0.72152,1.02728c-0.15613,0.42366 -0.23406,0.88076 -0.23406,1.37131c0,0.49054 0.07793,0.94605 0.23406,1.36651c0.15613,0.42047 0.39664,0.7597 0.72152,1.01769c0.32488,0.25803 0.7389,0.38702 1.24234,0.38702zM363.39234,168.20144v0.95561h-3.9563v-0.95561zM360.62119,175.54047v-8.35198c0,-0.42047 0.09867,-0.77085 0.29601,-1.05116c0.19762,-0.28031 0.4541,-0.49054 0.76945,-0.6307c0.31535,-0.14014 0.64808,-0.21022 0.99847,-0.21022c0.27723,0 0.50344,0.0223 0.67863,0.06689c0.17519,0.04459 0.30582,0.086 0.39159,0.12424l-0.32488,0.97469c-0.05718,-0.01909 -0.13679,-0.043 -0.23882,-0.07165c-0.09867,-0.02868 -0.22929,-0.04303 -0.39187,-0.04303c-0.37253,0 -0.64163,0.09399 -0.80729,0.28191c-0.16258,0.18795 -0.24387,0.46347 -0.24387,0.82661v8.0844zM116.99003,191.79846v-7.33903h1.08939v1.10849h0.07645c0.13378,-0.36311 0.37587,-0.65778 0.72625,-0.88393c0.35039,-0.22615 0.74537,-0.33923 1.18496,-0.33923c0.0828,0 0.18635,0.0016 0.31056,0.00477c0.12423,0.0032 0.21822,0.00796 0.28191,0.01435v1.14672c-0.03821,-0.00956 -0.1258,-0.02388 -0.26279,-0.043c-0.13376,-0.02231 -0.27552,-0.03344 -0.42523,-0.03344c-0.35675,0 -0.6753,0.07484 -0.95561,0.22456c-0.27713,0.14652 -0.49692,0.35039 -0.65937,0.61158c-0.15927,0.25803 -0.2389,0.55266 -0.2389,0.88393v4.64424zM124.84987,191.95123c-0.70714,0 -1.31715,-0.15585 -1.82998,-0.46812c-0.50966,-0.31535 -0.90305,-0.75488 -1.18016,-1.31872c-0.27395,-0.56701 -0.41093,-1.22636 -0.41093,-1.97812c0,-0.75174 0.13699,-1.41428 0.41093,-1.98765c0.27711,-0.57654 0.66254,-1.02568 1.15628,-1.3474c0.49691,-0.32491 1.07664,-0.48735 1.73919,-0.48735c0.38223,0 0.7597,0.06369 1.1324,0.19112c0.37267,0.1274 0.7119,0.33447 1.01772,0.62114c0.30579,0.28351 0.54946,0.65937 0.73102,1.1276c0.18156,0.46826 0.27235,1.0448 0.27235,1.72965v0.47779h-5.65717v-0.97469h4.51044c0,-0.4141 -0.08283,-0.78361 -0.24847,-1.10852c-0.16244,-0.32491 -0.39499,-0.58134 -0.69758,-0.76926c-0.29943,-0.18795 -0.65301,-0.28191 -1.06072,-0.28191c-0.44914,0 -0.83774,0.11148 -1.16584,0.33447c-0.32491,0.21979 -0.57494,0.50646 -0.75014,0.86005c-0.17519,0.35356 -0.26279,0.73262 -0.26279,1.13716v0.64982c0,0.55423 0.09556,1.02409 0.28667,1.40951c0.19431,0.38223 0.46347,0.6737 0.80749,0.87437c0.34402,0.19762 0.74378,0.29629 1.19928,0.29629c0.29623,0 0.56382,-0.04149 0.8027,-0.12418c0.2421,-0.08606 0.45074,-0.21351 0.62593,-0.38234c0.17519,-0.172 0.31056,-0.38543 0.40611,-0.64026l1.0894,0.30579c-0.11467,0.36951 -0.30739,0.69438 -0.57814,0.97469c-0.27075,0.27723 -0.60522,0.49363 -1.00337,0.64976c-0.39818,0.15305 -0.84572,0.22929 -1.34263,0.22929zM130.73159,187.38358v4.41489h-1.1276v-7.33903h1.0894v1.14672h0.09556c0.172,-0.3727 0.43319,-0.6721 0.78358,-0.89828c0.35039,-0.22932 0.80272,-0.344 1.35698,-0.344c0.49691,0 0.9317,0.10192 1.3044,0.30579c0.37267,0.20067 0.66254,0.50646 0.86958,0.91737c0.20707,0.40774 0.31058,0.92376 0.31058,1.54807v4.66335h-1.1276v-4.58689c0,-0.57657 -0.14971,-1.02568 -0.44914,-1.34742c-0.29943,-0.32488 -0.71033,-0.48735 -1.23272,-0.48735c-0.35995,0 -0.68169,0.07804 -0.96516,0.23412c-0.28031,0.1561 -0.5017,0.38386 -0.66414,0.68326c-0.16247,0.29943 -0.2437,0.66257 -0.2437,1.0894zM140.55161,191.95123c-0.70714,0 -1.31712,-0.15585 -1.82998,-0.46812c-0.50966,-0.31535 -0.90305,-0.75488 -1.18016,-1.31872c-0.27395,-0.56701 -0.41091,-1.22636 -0.41091,-1.97812c0,-0.75174 0.13696,-1.41428 0.41091,-1.98765c0.27711,-0.57654 0.66254,-1.02568 1.15628,-1.3474c0.49691,-0.32491 1.07664,-0.48735 1.73919,-0.48735c0.38226,0 0.75972,0.06369 1.1324,0.19112c0.37267,0.1274 0.71193,0.33447 1.01772,0.62114c0.30579,0.28351 0.54946,0.65937 0.73102,1.1276c0.18158,0.46826 0.27235,1.0448 0.27235,1.72965v0.47779h-5.65717v-0.97469h4.51044c0,-0.4141 -0.0828,-0.78361 -0.24844,-1.10852c-0.16247,-0.32491 -0.39499,-0.58134 -0.69761,-0.76926c-0.29943,-0.18795 -0.65298,-0.28191 -1.06072,-0.28191c-0.44911,0 -0.83774,0.11148 -1.16584,0.33447c-0.32491,0.21979 -0.57494,0.50646 -0.75014,0.86005c-0.17519,0.35356 -0.26279,0.73262 -0.26279,1.13716v0.64982c0,0.55423 0.09556,1.02409 0.28667,1.40951c0.19431,0.38223 0.46347,0.6737 0.80749,0.87437c0.34402,0.19762 0.74378,0.29629 1.19928,0.29629c0.29623,0 0.56382,-0.04149 0.80272,-0.12418c0.24208,-0.08606 0.45071,-0.21351 0.6259,-0.38234c0.17519,-0.172 0.31058,-0.38543 0.40614,-0.64026l1.08937,0.30579c-0.11467,0.36951 -0.30739,0.69438 -0.57814,0.97469c-0.27075,0.27723 -0.60522,0.49363 -1.00337,0.64976c-0.39818,0.15305 -0.84572,0.22929 -1.34263,0.22929zM146.96842,191.79846l-2.23604,-7.33903h1.18487l1.58628,5.61893h0.07652l1.56721,-5.61893h1.20393l1.54815,5.59984h0.07652l1.58628,-5.59984h1.18487l-2.23604,7.33903h-1.10863l-1.60534,-5.63805h-0.11465l-1.60534,5.63805zM158.39751,191.97057c-0.46503,0 -0.88718,-0.08774 -1.26616,-0.26293c-0.37898,-0.17828 -0.68003,-0.43476 -0.90316,-0.76917c-0.22285,-0.33769 -0.33441,-0.74543 -0.33441,-1.22322c0,-0.42047 0.08297,-0.76129 0.24864,-1.02249c0.16538,-0.26439 0.38683,-0.47145 0.66406,-0.62117c0.27695,-0.14969 0.58277,-0.26119 0.91746,-0.33444c0.33749,-0.07647 0.67667,-0.13699 1.01753,-0.18158c0.44597,-0.05732 0.80757,-0.10032 1.0848,-0.129c0.28031,-0.03184 0.4841,-0.0844 0.61136,-0.15767c0.13062,-0.07327 0.19594,-0.20067 0.19594,-0.38223v-0.03823c0,-0.47143 -0.12894,-0.83774 -0.38683,-1.09893c-0.25508,-0.26122 -0.64191,-0.39182 -1.16105,-0.39182c-0.53848,0 -0.96062,0.11787 -1.26644,0.35358c-0.30554,0.23571 -0.52054,0.48735 -0.64499,0.75493l-1.07022,-0.38226c0.19117,-0.44595 0.44597,-0.79314 0.76441,-1.0416c0.3218,-0.25163 0.67218,-0.42683 1.05116,-0.52558c0.38234,-0.10192 0.75824,-0.15288 1.12769,-0.15288c0.23574,0 0.50652,0.02865 0.81234,0.086c0.3089,0.05416 0.60687,0.16723 0.89335,0.33923c0.28984,0.17203 0.53035,0.43162 0.72152,0.77881c0.19117,0.34722 0.28676,0.81228 0.28676,1.39519v4.83535h-1.12769v-0.9937h-0.05718c-0.07652,0.15922 -0.20407,0.32964 -0.38234,0.51101c-0.17828,0.18164 -0.4157,0.33609 -0.71199,0.46363c-0.29629,0.12726 -0.65761,0.19117 -1.08452,0.19117zM158.56962,190.95753c0.44597,0 0.82159,-0.08746 1.12741,-0.26293c0.30918,-0.17505 0.54156,-0.40121 0.69769,-0.67835c0.15922,-0.27711 0.23882,-0.56858 0.23882,-0.87437v-1.03205c-0.04765,0.05735 -0.15277,0.10991 -0.31535,0.15767c-0.15922,0.0446 -0.34394,0.0844 -0.55417,0.11944c-0.20715,0.03187 -0.40925,0.06055 -0.60687,0.08603c-0.19426,0.02228 -0.35179,0.0414 -0.47288,0.05732c-0.2932,0.03823 -0.56707,0.10035 -0.82187,0.18635c-0.25172,0.0828 -0.4555,0.20863 -0.61164,0.37747c-0.15277,0.16564 -0.22929,0.39179 -0.22929,0.67846c0,0.39182 0.14492,0.68805 0.43476,0.88872c0.29292,0.19756 0.66406,0.29623 1.11339,0.29623zM163.97232,191.79846v-9.78538h1.12741v3.61219h0.09559c0.08297,-0.12743 0.19762,-0.28987 0.34422,-0.48738c0.14969,-0.20067 0.363,-0.37904 0.64023,-0.53514c0.28031,-0.15924 0.65929,-0.23888 1.13722,-0.23888c0.6178,0 1.16245,0.15448 1.63393,0.46347c0.47148,0.30899 0.83925,0.74697 1.10386,1.31395c0.26433,0.56698 0.39636,1.23592 0.39636,2.00677c0,0.77722 -0.13203,1.45091 -0.39636,2.02109c-0.26461,0.56693 -0.6307,1.00645 -1.0991,1.31872c-0.46812,0.3089 -1.008,0.46335 -1.61963,0.46335c-0.47148,0 -0.84906,-0.07793 -1.13245,-0.23406c-0.28339,-0.15922 -0.50176,-0.33918 -0.65452,-0.53988c-0.15305,-0.20379 -0.27078,-0.37253 -0.35375,-0.50644h-0.13371v1.1276zM165.08067,188.12895c0,0.55426 0.08129,1.0432 0.24387,1.46684c0.1623,0.42047 0.39972,0.75017 0.71171,0.98907c0.31227,0.2356 0.69461,0.35361 1.14675,0.35361c0.47148,0 0.86504,-0.12418 1.18039,-0.37273c0.31843,-0.25166 0.55726,-0.5893 0.71647,-1.01296c0.16258,-0.42683 0.24387,-0.90145 0.24387,-1.42384c0,-0.51602 -0.07961,-0.98109 -0.2391,-1.39519c-0.15585,-0.41727 -0.39328,-0.74697 -0.71171,-0.98905c-0.31535,-0.24527 -0.71199,-0.36791 -1.18992,-0.36791c-0.45859,0 -0.84401,0.11627 -1.15628,0.34879c-0.31199,0.22935 -0.54773,0.55106 -0.70694,0.96516c-0.1595,0.41091 -0.2391,0.89029 -0.2391,1.43819zM173.30385,182.01308v9.78538h-1.12769v-9.78538zM178.44614,191.95123c-0.70722,0 -1.31718,-0.15585 -1.83015,-0.46812c-0.5096,-0.31535 -0.90288,-0.75488 -1.18011,-1.31872c-0.27386,-0.56701 -0.41093,-1.22636 -0.41093,-1.97812c0,-0.75174 0.13707,-1.41428 0.41093,-1.98765c0.27723,-0.57654 0.66265,-1.02568 1.15628,-1.3474c0.49699,-0.32491 1.07667,-0.48735 1.73933,-0.48735c0.38206,0 0.75964,0.06369 1.13217,0.19112c0.37281,0.1274 0.71199,0.33447 1.01781,0.62114c0.30582,0.28351 0.54941,0.65937 0.73105,1.1276c0.18164,0.46826 0.27246,1.0448 0.27246,1.72965v0.47779h-5.65722v-0.97469h4.51047c0,-0.4141 -0.08297,-0.78361 -0.24864,-1.10852c-0.1623,-0.32491 -0.39496,-0.58134 -0.69741,-0.76926c-0.29937,-0.18795 -0.65312,-0.28191 -1.06069,-0.28191c-0.44934,0 -0.83785,0.11148 -1.16581,0.33447c-0.32516,0.21979 -0.5752,0.50646 -0.75039,0.86005c-0.17519,0.35356 -0.26265,0.73262 -0.26265,1.13716v0.64982c0,0.55423 0.09559,1.02409 0.28676,1.40951c0.19426,0.38223 0.46335,0.6737 0.80729,0.87437c0.34422,0.19762 0.74394,0.29629 1.19945,0.29629c0.29629,0 0.5637,-0.04149 0.80253,-0.12418c0.24219,-0.08606 0.45074,-0.21351 0.62593,-0.38234c0.17519,-0.172 0.31058,-0.38543 0.40617,-0.64026l1.08957,0.30579c-0.11493,0.36951 -0.3075,0.69438 -0.57828,0.97469c-0.27078,0.27723 -0.60519,0.49363 -1.00351,0.64976c-0.39804,0.15305 -0.8457,0.22929 -1.34241,0.22929zM190.06136,191.95123c-0.70722,0 -1.31718,-0.15585 -1.82987,-0.46812c-0.5096,-0.31535 -0.90316,-0.75488 -1.18011,-1.31872c-0.27414,-0.56701 -0.41093,-1.22636 -0.41093,-1.97812c0,-0.75174 0.13679,-1.41428 0.41093,-1.98765c0.27695,-0.57654 0.66237,-1.02568 1.15628,-1.3474c0.49671,-0.32491 1.07639,-0.48735 1.73904,-0.48735c0.38234,0 0.75964,0.06369 1.13245,0.19112c0.37253,0.1274 0.71199,0.33447 1.01781,0.62114c0.30554,0.28351 0.54941,0.65937 0.73105,1.1276c0.18136,0.46826 0.27218,1.0448 0.27218,1.72965v0.47779h-5.65722v-0.97469h4.51047c0,-0.4141 -0.08269,-0.78361 -0.24835,-1.10852c-0.16258,-0.32491 -0.39496,-0.58134 -0.69769,-0.76926c-0.29937,-0.18795 -0.65284,-0.28191 -1.06069,-0.28191c-0.44906,0 -0.83785,0.11148 -1.16581,0.33447c-0.32488,0.21979 -0.57492,0.50646 -0.75011,0.86005c-0.17519,0.35356 -0.26293,0.73262 -0.26293,1.13716v0.64982c0,0.55423 0.09559,1.02409 0.28676,1.40951c0.19426,0.38223 0.46363,0.6737 0.80757,0.87437c0.34394,0.19762 0.74366,0.29629 1.19917,0.29629c0.29629,0 0.56398,-0.04149 0.80281,-0.12418c0.24191,-0.08606 0.45074,-0.21351 0.62593,-0.38234c0.17519,-0.172 0.31058,-0.38543 0.40617,-0.64026l1.08929,0.30579c-0.11465,0.36951 -0.3075,0.69438 -0.578,0.97469c-0.27078,0.27723 -0.60547,0.49363 -1.00351,0.64976c-0.39804,0.15305 -0.8457,0.22929 -1.34269,0.22929zM195.94311,187.38358v4.41489h-1.12769v-7.33903h1.08957v1.14672h0.09559c0.17183,-0.3727 0.43308,-0.6721 0.78347,-0.89828c0.35039,-0.22932 0.80281,-0.344 1.35698,-0.344c0.49699,0 0.93175,0.10192 1.30428,0.30579c0.37281,0.20067 0.66265,0.50646 0.8698,0.91737c0.20687,0.40774 0.31058,0.92376 0.31058,1.54807v4.66335h-1.12769v-4.58689c0,-0.57657 -0.14969,-1.02568 -0.44906,-1.34742c-0.29937,-0.32488 -0.71031,-0.48735 -1.2328,-0.48735c-0.35992,0 -0.68171,0.07804 -0.96511,0.23412c-0.28031,0.1561 -0.50176,0.38386 -0.66434,0.68326c-0.1623,0.29943 -0.24359,0.66257 -0.24359,1.0894zM205.76322,191.95123c-0.70722,0 -1.31718,-0.15585 -1.83015,-0.46812c-0.5096,-0.31535 -0.90288,-0.75488 -1.18011,-1.31872c-0.27386,-0.56701 -0.41093,-1.22636 -0.41093,-1.97812c0,-0.75174 0.13707,-1.41428 0.41093,-1.98765c0.27723,-0.57654 0.66265,-1.02568 1.15628,-1.3474c0.49699,-0.32491 1.07667,-0.48735 1.73933,-0.48735c0.38206,0 0.75964,0.06369 1.13245,0.19112c0.37253,0.1274 0.71171,0.33447 1.01753,0.62114c0.30582,0.28351 0.54941,0.65937 0.73105,1.1276c0.18164,0.46826 0.27246,1.0448 0.27246,1.72965v0.47779h-5.65722v-0.97469h4.51047c0,-0.4141 -0.08297,-0.78361 -0.24864,-1.10852c-0.1623,-0.32491 -0.39496,-0.58134 -0.69741,-0.76926c-0.29937,-0.18795 -0.65312,-0.28191 -1.06069,-0.28191c-0.44934,0 -0.83785,0.11148 -1.16581,0.33447c-0.32488,0.21979 -0.57492,0.50646 -0.75011,0.86005c-0.17519,0.35356 -0.26293,0.73262 -0.26293,1.13716v0.64982c0,0.55423 0.09559,1.02409 0.28676,1.40951c0.19426,0.38223 0.46335,0.6737 0.80729,0.87437c0.34422,0.19762 0.74394,0.29629 1.19945,0.29629c0.29629,0 0.5637,-0.04149 0.80253,-0.12418c0.24219,-0.08606 0.45074,-0.21351 0.62593,-0.38234c0.17519,-0.172 0.31058,-0.38543 0.40617,-0.64026l1.08957,0.30579c-0.11465,0.36951 -0.3075,0.69438 -0.57828,0.97469c-0.27078,0.27723 -0.60519,0.49363 -1.00323,0.64976c-0.39832,0.15305 -0.8457,0.22929 -1.34269,0.22929zM210.51728,191.79846v-7.33903h1.08929v1.10849h0.07652c0.13371,-0.36311 0.3759,-0.65778 0.72628,-0.88393c0.35039,-0.22615 0.74535,-0.33923 1.18487,-0.33923c0.08297,0 0.18641,0.0016 0.31058,0.00477c0.12418,0.0032 0.21836,0.00796 0.28199,0.01435v1.14672c-0.03812,-0.00956 -0.12586,-0.02388 -0.26293,-0.043c-0.13371,-0.02231 -0.27526,-0.03344 -0.42523,-0.03344c-0.35655,0 -0.67527,0.07484 -0.95558,0.22456c-0.27695,0.14652 -0.49671,0.35039 -0.65929,0.61158c-0.15922,0.25803 -0.23882,0.55266 -0.23882,0.88393v4.64424zM218.26254,194.7036c-0.54464,0 -1.01304,-0.07008 -1.40492,-0.21023c-0.39159,-0.13707 -0.71815,-0.31871 -0.9794,-0.54492c-0.25789,-0.22285 -0.46335,-0.46167 -0.6164,-0.71647l0.89839,-0.6307c0.10175,0.13371 0.23098,0.28648 0.38683,0.45859c0.15613,0.17519 0.36973,0.32656 0.64051,0.45382c0.27386,0.13062 0.6321,0.19594 1.07499,0.19594c0.5923,0 1.08144,-0.14324 1.46686,-0.43c0.38543,-0.28676 0.578,-0.73581 0.578,-1.34745v-1.49066h-0.09559c-0.08269,0.13379 -0.2007,0.29934 -0.35347,0.49696c-0.14969,0.19426 -0.36637,0.36777 -0.64976,0.52082c-0.28031,0.14969 -0.65957,0.22453 -1.13722,0.22453c-0.59258,0 -1.12432,-0.14016 -1.59581,-0.42047c-0.4684,-0.28031 -0.83953,-0.68805 -1.11339,-1.22319c-0.27078,-0.53514 -0.40617,-1.18496 -0.40617,-1.94945c0,-0.75174 0.13231,-1.40632 0.39664,-1.96377c0.26433,-0.56062 0.63238,-0.99381 1.10386,-1.2996c0.4712,-0.30899 1.01612,-0.46347 1.63393,-0.46347c0.47793,0 0.85691,0.07964 1.13722,0.23888c0.28339,0.1561 0.50007,0.33447 0.64976,0.53514c0.15305,0.19751 0.27078,0.35995 0.35347,0.48738h0.11493v-1.16584h1.08929v7.54926c0,0.6307 -0.14324,1.14367 -0.43,1.53862c-0.28367,0.39804 -0.66574,0.68956 -1.14675,0.87429c-0.47793,0.18781 -1.00968,0.28199 -1.59581,0.28199zM218.22413,190.67086c0.45242,0 0.83476,-0.10352 1.14675,-0.31058c0.31227,-0.20704 0.54969,-0.50487 0.71199,-0.89349c0.16258,-0.38859 0.24359,-0.85366 0.24359,-1.39519c0,-0.52875 -0.07961,-0.99541 -0.23882,-1.39995c-0.15922,-0.40454 -0.39496,-0.72146 -0.70722,-0.95081c-0.31199,-0.22935 -0.69741,-0.34402 -1.15628,-0.34402c-0.47765,0 -0.87597,0.12104 -1.1944,0.36314c-0.31535,0.24208 -0.55277,0.56698 -0.71199,0.97469c-0.15613,0.40774 -0.23406,0.86005 -0.23406,1.35695c0,0.50966 0.07961,0.9604 0.23882,1.35219c0.16258,0.38862 0.4014,0.69441 0.71675,0.91737c0.31843,0.21979 0.71367,0.3297 1.18487,0.3297zM224.2253,194.55055c-0.19089,0 -0.36132,-0.01598 -0.51101,-0.04765c-0.14969,-0.02887 -0.2534,-0.05746 -0.31058,-0.08606l0.28648,-0.99398c0.27414,0.07008 0.51605,0.09559 0.72628,0.07652c0.21023,-0.01906 0.39664,-0.11297 0.55922,-0.28199c0.16566,-0.16538 0.31675,-0.43476 0.45382,-0.80729l0.21023,-0.57351l-2.71396,-7.37715h1.22327l2.0258,5.84828h0.07652l2.0258,-5.84828h1.22327l-3.11537,8.40925c-0.14016,0.37898 -0.31367,0.69293 -0.52082,0.94128c-0.20715,0.25172 -0.44766,0.43812 -0.72152,0.55894c-0.27078,0.12109 -0.5766,0.18164 -0.91746,0.18164zM239.97145,186.10306l-1.01304,0.28667c-0.06363,-0.1688 -0.15753,-0.33287 -0.28199,-0.49211c-0.12081,-0.16247 -0.28648,-0.29626 -0.49671,-0.40138c-0.21023,-0.10512 -0.47961,-0.15767 -0.80757,-0.15767c-0.44906,0 -0.82327,0.10355 -1.12292,0.31058c-0.29601,0.20387 -0.44429,0.46347 -0.44429,0.77881c0,0.28031 0.10203,0.5017 0.30582,0.66414c0.20379,0.16247 0.5225,0.29783 0.95558,0.40614l1.08957,0.26756c0.65593,0.15927 1.14507,0.40295 1.46658,0.73105c0.3218,0.32491 0.48269,0.74378 0.48269,1.2566c0,0.42047 -0.12109,0.79636 -0.363,1.12755c-0.2391,0.33133 -0.57351,0.59258 -1.00351,0.78375c-0.43,0.19117 -0.93007,0.28648 -1.50022,0.28648c-0.74871,0 -1.36819,-0.1623 -1.85874,-0.48718c-0.49054,-0.32488 -0.80113,-0.79959 -0.93175,-1.42389l1.07022,-0.26758c0.10203,0.39499 0.29489,0.69122 0.57828,0.88872c0.28676,0.19756 0.66097,0.29623 1.12292,0.29623c0.52558,0 0.94268,-0.11156 1.25159,-0.33447c0.31227,-0.22615 0.4684,-0.49691 0.4684,-0.81226c0,-0.25483 -0.08914,-0.46826 -0.2677,-0.64026c-0.17828,-0.17519 -0.45214,-0.30579 -0.82159,-0.39179l-1.22327,-0.2867c-0.67218,-0.15924 -1.16581,-0.40611 -1.48116,-0.74058c-0.31227,-0.33763 -0.4684,-0.7597 -0.4684,-1.26616c0,-0.4141 0.11633,-0.78041 0.34899,-1.09896c0.23574,-0.31854 0.55586,-0.56858 0.96034,-0.75014c0.40757,-0.18158 0.86952,-0.27235 1.38557,-0.27235c0.72628,0 1.29644,0.15927 1.71045,0.47779c0.41738,0.31854 0.71367,0.73901 0.88886,1.2614zM244.78409,191.95123c-0.66265,0 -1.24402,-0.15753 -1.74409,-0.47288c-0.49699,-0.31535 -0.8855,-0.75656 -1.16581,-1.32351c-0.27723,-0.56701 -0.4157,-1.22955 -0.4157,-1.98765c0,-0.76449 0.13847,-1.43182 0.4157,-2.002c0.28031,-0.57018 0.66882,-1.01293 1.16581,-1.32828c0.50007,-0.31535 1.08144,-0.47302 1.74409,-0.47302c0.66237,0 1.24234,0.15767 1.73904,0.47302c0.50007,0.31535 0.88886,0.7581 1.16581,1.32828c0.28031,0.57018 0.42047,1.23751 0.42047,2.002c0,0.7581 -0.14016,1.42064 -0.42047,1.98765c-0.27695,0.56696 -0.66574,1.00816 -1.16581,1.32351c-0.49671,0.31535 -1.07667,0.47288 -1.73904,0.47288zM244.78409,190.93847c0.50316,0 0.91746,-0.12894 1.24234,-0.38708c0.32488,-0.258 0.56539,-0.59723 0.72124,-1.01769c0.15613,-0.42047 0.23434,-0.87597 0.23434,-1.36651c0,-0.49054 -0.07821,-0.94764 -0.23434,-1.37131c-0.15585,-0.42366 -0.39636,-0.76606 -0.72124,-1.02728c-0.32488,-0.26119 -0.73918,-0.39179 -1.24234,-0.39179c-0.50344,0 -0.91746,0.1306 -1.24234,0.39179c-0.32488,0.26122 -0.56539,0.60362 -0.72152,1.02728c-0.15613,0.42366 -0.23406,0.88076 -0.23406,1.37131c0,0.49054 0.07793,0.94605 0.23406,1.36651c0.15613,0.42047 0.39664,0.7597 0.72152,1.01769c0.32488,0.25814 0.7389,0.38708 1.24234,0.38708zM254.45592,188.79788v-4.33845h1.12769v7.33903h-1.12769v-1.24228h-0.07652c-0.17183,0.37276 -0.43953,0.68951 -0.80253,0.95076c-0.36328,0.25817 -0.82187,0.38711 -1.37604,0.38711c-0.45887,0 -0.86644,-0.10035 -1.22327,-0.30105c-0.35683,-0.20379 -0.63715,-0.5096 -0.84093,-0.91737c-0.20379,-0.41091 -0.30582,-0.92853 -0.30582,-1.55286v-4.66333h1.12769v4.58689c0,0.53514 0.14969,0.96197 0.44906,1.28051c0.30274,0.31854 0.68816,0.47793 1.15628,0.47793c0.28031,0 0.56539,-0.07176 0.85523,-0.21514c0.2932,-0.14335 0.53848,-0.36314 0.73581,-0.65937c0.2007,-0.29623 0.30105,-0.6737 0.30105,-1.13237zM257.64893,191.79846v-7.33903h1.08929v1.10849h0.07652c0.13371,-0.36311 0.3759,-0.65778 0.72628,-0.88393c0.35039,-0.22615 0.74535,-0.33923 1.18487,-0.33923c0.08269,0 0.18641,0.0016 0.31058,0.00477c0.12418,0.0032 0.21808,0.00796 0.28199,0.01435v1.14672c-0.0384,-0.00956 -0.12586,-0.02388 -0.26293,-0.043c-0.13371,-0.02231 -0.27555,-0.03344 -0.42523,-0.03344c-0.35683,0 -0.67527,0.07484 -0.95558,0.22456c-0.27723,0.14652 -0.49699,0.35039 -0.65929,0.61158c-0.15922,0.25803 -0.2391,0.55266 -0.2391,0.88393v4.64424zM265.41325,191.95123c-0.68816,0 -1.28074,-0.1623 -1.77745,-0.48718c-0.49699,-0.32488 -0.87933,-0.77254 -1.14675,-1.34269c-0.2677,-0.57015 -0.4014,-1.22156 -0.4014,-1.95418c0,-0.74537 0.13707,-1.40315 0.41093,-1.97333c0.27695,-0.57337 0.66237,-1.02092 1.15628,-1.34263c0.49699,-0.32491 1.07667,-0.48735 1.73904,-0.48735c0.51605,0 0.98109,0.09556 1.39538,0.28667c0.41402,0.19112 0.75319,0.4587 1.01753,0.8027c0.26461,0.34402 0.42859,0.74537 0.49222,1.20407h-1.12769c-0.08606,-0.33447 -0.27695,-0.6307 -0.57323,-0.88872c-0.2932,-0.26119 -0.68816,-0.39179 -1.18487,-0.39179c-0.43981,0 -0.82523,0.11467 -1.15628,0.34402c-0.32824,0.22615 -0.58473,0.54627 -0.76945,0.96037c-0.18136,0.41091 -0.27218,0.89349 -0.27218,1.44775c0,0.56698 0.08914,1.06072 0.26742,1.48119c0.18164,0.42047 0.43644,0.74697 0.76441,0.97949c0.33133,0.23252 0.72012,0.34885 1.16609,0.34885c0.29292,0 0.55894,-0.05102 0.79776,-0.15305c0.23882,-0.10175 0.44121,-0.24835 0.60687,-0.43947c0.16566,-0.19112 0.28339,-0.42047 0.35347,-0.68805h1.12769c-0.06363,0.43322 -0.22145,0.82341 -0.47288,1.17069c-0.24864,0.34394 -0.57828,0.6178 -0.98921,0.82187c-0.40757,0.2007 -0.88242,0.30077 -1.4237,0.30077zM273.02451,191.95123c-0.70722,0 -1.31718,-0.15585 -1.82987,-0.46812c-0.50988,-0.31535 -0.90316,-0.75488 -1.18039,-1.31872c-0.27386,-0.56701 -0.41093,-1.22636 -0.41093,-1.97812c0,-0.75174 0.13707,-1.41428 0.41093,-1.98765c0.27723,-0.57654 0.66265,-1.02568 1.15628,-1.3474c0.49699,-0.32491 1.07667,-0.48735 1.73933,-0.48735c0.38234,0 0.75964,0.06369 1.13245,0.19112c0.37253,0.1274 0.71171,0.33447 1.01753,0.62114c0.30582,0.28351 0.54969,0.65937 0.73105,1.1276c0.18164,0.46826 0.27246,1.0448 0.27246,1.72965v0.47779h-5.65722v-0.97469h4.51047c0,-0.4141 -0.08269,-0.78361 -0.24835,-1.10852c-0.16258,-0.32491 -0.39496,-0.58134 -0.69769,-0.76926c-0.29937,-0.18795 -0.65312,-0.28191 -1.06069,-0.28191c-0.44906,0 -0.83785,0.11148 -1.16581,0.33447c-0.32488,0.21979 -0.57492,0.50646 -0.75011,0.86005c-0.17519,0.35356 -0.26293,0.73262 -0.26293,1.13716v0.64982c0,0.55423 0.09559,1.02409 0.28676,1.40951c0.19426,0.38223 0.46335,0.6737 0.80757,0.87437c0.34394,0.19762 0.74366,0.29629 1.19917,0.29629c0.29629,0 0.5637,-0.04149 0.80281,-0.12418c0.24191,-0.08606 0.45074,-0.21351 0.62593,-0.38234c0.17519,-0.172 0.31058,-0.38543 0.40589,-0.64026l1.08957,0.30579c-0.11465,0.36951 -0.3075,0.69438 -0.57828,0.97469c-0.27078,0.27723 -0.60519,0.49363 -1.00323,0.64976c-0.39832,0.15305 -0.8457,0.22929 -1.34269,0.22929zM279.2502,189.04632v-0.05732c0.00645,-0.60841 0.07008,-1.09259 0.19117,-1.45251c0.12109,-0.35995 0.29292,-0.65141 0.51605,-0.8744c0.22285,-0.22296 0.49054,-0.42843 0.80281,-0.61635c0.18781,-0.11467 0.35655,-0.25006 0.50624,-0.40614c0.14969,-0.15927 0.2677,-0.34243 0.35375,-0.54946c0.08914,-0.20707 0.13371,-0.43639 0.13371,-0.68805c0,-0.31215 -0.07316,-0.58291 -0.21976,-0.81226c-0.1466,-0.22935 -0.34254,-0.40614 -0.58781,-0.53035c-0.24527,-0.12423 -0.51745,-0.18635 -0.81682,-0.18635c-0.26125,0 -0.51297,0.05416 -0.75516,0.16244c-0.24191,0.10831 -0.44429,0.27874 -0.60659,0.51126c-0.16258,0.23252 -0.25648,0.53674 -0.28199,0.91261h-1.20421c0.02551,-0.5415 0.16566,-1.00497 0.42047,-1.3904c0.25817,-0.38543 0.59734,-0.68009 1.01781,-0.88396c0.42383,-0.20384 0.89363,-0.30579 1.40968,-0.30579c0.56062,0 1.0478,0.11151 1.46182,0.33447c0.41738,0.22299 0.73918,0.52878 0.96539,0.91737c0.22929,0.38862 0.34394,0.8314 0.34394,1.32831c0,0.35039 -0.0541,0.66733 -0.16258,0.95081c-0.10512,0.28351 -0.25789,0.53674 -0.45859,0.75972c-0.19762,0.22296 -0.43644,0.42047 -0.71675,0.59246c-0.28031,0.17519 -0.50484,0.35995 -0.67359,0.55426c-0.16875,0.19112 -0.29152,0.41887 -0.36805,0.68326c-0.07624,0.26436 -0.11773,0.59406 -0.12418,0.98905v0.05732zM279.86184,191.87499c-0.23574,0 -0.43784,-0.08437 -0.60687,-0.2534c-0.16875,-0.16875 -0.25312,-0.37113 -0.25312,-0.60659c0,-0.23574 0.08437,-0.43812 0.25312,-0.60693c0.16903,-0.16883 0.37113,-0.25323 0.60687,-0.25323c0.23574,0 0.43812,0.0844 0.60687,0.25323c0.16875,0.1688 0.25312,0.37119 0.25312,0.60693c0,0.15585 -0.0398,0.29937 -0.11941,0.43c-0.07652,0.13062 -0.17996,0.23574 -0.31058,0.31535c-0.12726,0.07624 -0.27078,0.11465 -0.43,0.11465z"/></g></g></svg>