<svg xmlns="http://www.w3.org/2000/svg" fill="none" viewBox="0 0 139 164" height="164" width="139">
<path fill="#43D059" d="M0 20C0 8.95431 8.95431 0 20 0H119C130.046 0 139 8.95431 139 20V144C139 155.046 130.046 164 119 164H20C8.95431 164 0 155.046 0 144V20Z"></path>
<path fill="black" d="M36.2102 135.455V150H34.5341V135.455H36.2102ZM43.854 150.227C42.8029 150.227 41.8962 149.995 41.1339 149.531C40.3763 149.062 39.7915 148.409 39.3796 147.571C38.9724 146.728 38.7688 145.748 38.7688 144.631C38.7688 143.513 38.9724 142.528 39.3796 141.676C39.7915 140.819 40.3645 140.152 41.0984 139.673C41.837 139.19 42.6987 138.949 43.6836 138.949C44.2518 138.949 44.8129 139.044 45.3668 139.233C45.9208 139.422 46.4251 139.73 46.8796 140.156C47.3342 140.578 47.6964 141.136 47.9663 141.832C48.2362 142.528 48.3711 143.385 48.3711 144.403V145.114H39.962V143.665H46.6665C46.6665 143.049 46.5434 142.5 46.2972 142.017C46.0558 141.534 45.7101 141.153 45.2603 140.874C44.8152 140.594 44.2897 140.455 43.6836 140.455C43.016 140.455 42.4383 140.62 41.9506 140.952C41.4677 141.278 41.096 141.705 40.8356 142.23C40.5752 142.756 40.445 143.319 40.445 143.92V144.886C40.445 145.71 40.587 146.409 40.8711 146.982C41.1599 147.55 41.56 147.983 42.0714 148.281C42.5827 148.575 43.177 148.722 43.854 148.722C44.2944 148.722 44.6921 148.66 45.0472 148.537C45.4071 148.409 45.7172 148.22 45.9776 147.969C46.238 147.713 46.4393 147.396 46.5813 147.017L48.2006 147.472C48.0302 148.021 47.7437 148.504 47.3413 148.92C46.9388 149.332 46.4416 149.654 45.8498 149.886C45.2579 150.114 44.5927 150.227 43.854 150.227ZM55.6651 139.091V140.511H50.0117V139.091H55.6651ZM51.6594 136.477H53.3356V146.875C53.3356 147.348 53.4042 147.704 53.5415 147.94C53.6836 148.172 53.8635 148.329 54.0813 148.409C54.3039 148.485 54.5382 148.523 54.7844 148.523C54.9691 148.523 55.1206 148.513 55.239 148.494C55.3574 148.471 55.4521 148.452 55.5231 148.438L55.864 149.943C55.7504 149.986 55.5917 150.028 55.3881 150.071C55.1845 150.118 54.9265 150.142 54.614 150.142C54.1405 150.142 53.6765 150.04 53.2219 149.837C52.7721 149.633 52.3981 149.323 52.0998 148.906C51.8062 148.49 51.6594 147.964 51.6594 147.33V136.477ZM62.9308 139.091V140.511H57.2773V139.091H62.9308ZM58.9251 136.477H60.6012V146.875C60.6012 147.348 60.6699 147.704 60.8072 147.94C60.9492 148.172 61.1291 148.329 61.3469 148.409C61.5695 148.485 61.8039 148.523 62.0501 148.523C62.2347 148.523 62.3862 148.513 62.5046 148.494C62.623 148.471 62.7177 148.452 62.7887 148.438L63.1296 149.943C63.016 149.986 62.8574 150.028 62.6538 150.071C62.4502 150.118 62.1921 150.142 61.8796 150.142C61.4061 150.142 60.9421 150.04 60.4876 149.837C60.0378 149.633 59.6637 149.323 59.3654 148.906C59.0719 148.49 58.9251 147.964 58.9251 147.33V136.477ZM69.9087 150.227C68.8576 150.227 67.9509 149.995 67.1886 149.531C66.431 149.062 65.8462 148.409 65.4343 147.571C65.0271 146.728 64.8235 145.748 64.8235 144.631C64.8235 143.513 65.0271 142.528 65.4343 141.676C65.8462 140.819 66.4192 140.152 67.1531 139.673C67.8917 139.19 68.7534 138.949 69.7383 138.949C70.3065 138.949 70.8675 139.044 71.4215 139.233C71.9755 139.422 72.4798 139.73 72.9343 140.156C73.3888 140.578 73.7511 141.136 74.021 141.832C74.2908 142.528 74.4258 143.385 74.4258 144.403V145.114H66.0167V143.665H72.7212C72.7212 143.049 72.5981 142.5 72.3519 142.017C72.1104 141.534 71.7648 141.153 71.315 140.874C70.8699 140.594 70.3443 140.455 69.7383 140.455C69.0707 140.455 68.493 140.62 68.0053 140.952C67.5224 141.278 67.1507 141.705 66.8903 142.23C66.6299 142.756 66.4996 143.319 66.4996 143.92V144.886C66.4996 145.71 66.6417 146.409 66.9258 146.982C67.2146 147.55 67.6147 147.983 68.1261 148.281C68.6374 148.575 69.2317 148.722 69.9087 148.722C70.3491 148.722 70.7468 148.66 71.1019 148.537C71.4618 148.409 71.7719 148.22 72.0323 147.969C72.2927 147.713 72.494 147.396 72.636 147.017L74.2553 147.472C74.0849 148.021 73.7984 148.504 73.396 148.92C72.9935 149.332 72.4963 149.654 71.9045 149.886C71.3126 150.114 70.6474 150.227 69.9087 150.227ZM76.9755 150V139.091H78.5948V140.739H78.7085C78.9073 140.199 79.2672 139.761 79.788 139.425C80.3088 139.089 80.896 138.92 81.5494 138.92C81.6725 138.92 81.8263 138.923 82.011 138.928C82.1957 138.932 82.3353 138.939 82.43 138.949V140.653C82.3732 140.639 82.243 140.618 82.0394 140.589C81.8406 140.556 81.6299 140.54 81.4073 140.54C80.877 140.54 80.4035 140.651 79.9869 140.874C79.5749 141.091 79.2482 141.394 79.0067 141.783C78.77 142.166 78.6516 142.604 78.6516 143.097V150H76.9755ZM90.2692 150V135.455H95.3544C96.3677 135.455 97.2034 135.63 97.8615 135.98C98.5197 136.326 99.0097 136.792 99.3317 137.379C99.6536 137.962 99.8146 138.608 99.8146 139.318C99.8146 139.943 99.7034 140.459 99.4808 140.866C99.263 141.274 98.9742 141.596 98.6143 141.832C98.2592 142.069 97.8733 142.244 97.4567 142.358V142.5C97.9018 142.528 98.3492 142.685 98.799 142.969C99.2488 143.253 99.6252 143.66 99.9283 144.19C100.231 144.721 100.383 145.369 100.383 146.136C100.383 146.866 100.217 147.521 99.8857 148.104C99.5542 148.686 99.031 149.148 98.3161 149.489C97.6011 149.83 96.6707 150 95.5249 150H90.2692ZM92.0305 148.438H95.5249C96.6754 148.438 97.4922 148.215 97.9751 147.77C98.4628 147.32 98.7067 146.776 98.7067 146.136C98.7067 145.644 98.5812 145.189 98.3303 144.773C98.0793 144.351 97.7218 144.015 97.2578 143.764C96.7938 143.509 96.2446 143.381 95.6101 143.381H92.0305V148.438ZM92.0305 141.847H95.2976C95.8279 141.847 96.3061 141.742 96.7322 141.534C97.1631 141.326 97.504 141.032 97.755 140.653C98.0107 140.275 98.1385 139.83 98.1385 139.318C98.1385 138.679 97.916 138.137 97.4709 137.692C97.0258 137.242 96.3203 137.017 95.3544 137.017H92.0305V141.847Z"></path>
<path fill="black" d="M13.0231 72V57.4545H17.9379C19.079 57.4545 20.0117 57.6605 20.7362 58.0724C21.4653 58.4796 22.0051 59.0312 22.3555 59.7273C22.7058 60.4233 22.881 61.1998 22.881 62.0568C22.881 62.9138 22.7058 63.6927 22.3555 64.3935C22.0098 65.0942 21.4748 65.6529 20.7504 66.0696C20.0259 66.4815 19.0979 66.6875 17.9663 66.6875H14.4435V65.125H17.9094C18.6907 65.125 19.3181 64.9901 19.7915 64.7202C20.265 64.4503 20.6083 64.0857 20.8214 63.6264C21.0392 63.1624 21.1481 62.6392 21.1481 62.0568C21.1481 61.4744 21.0392 60.9536 20.8214 60.4943C20.6083 60.035 20.2627 59.6752 19.7844 59.4148C19.3062 59.1496 18.6718 59.017 17.881 59.017H14.7844V72H13.0231ZM25.4911 72V61.0909H27.1104V62.7386H27.2241C27.4229 62.1989 27.7828 61.7609 28.3036 61.4247C28.8245 61.0885 29.4116 60.9205 30.065 60.9205C30.1881 60.9205 30.342 60.9228 30.5266 60.9276C30.7113 60.9323 30.851 60.9394 30.9457 60.9489V62.6534C30.8888 62.6392 30.7586 62.6179 30.555 62.5895C30.3562 62.5563 30.1455 62.5398 29.9229 62.5398C29.3926 62.5398 28.9192 62.651 28.5025 62.8736C28.0906 63.0914 27.7638 63.3944 27.5224 63.7827C27.2856 64.1662 27.1673 64.6042 27.1673 65.0966V72H25.4911ZM37.1744 72.2273C36.1232 72.2273 35.2165 71.9953 34.4542 71.5312C33.6966 71.0625 33.1119 70.4091 32.6999 69.571C32.2927 68.7282 32.0891 67.7481 32.0891 66.6307C32.0891 65.5133 32.2927 64.5284 32.6999 63.6761C33.1119 62.8191 33.6848 62.1515 34.4187 61.6733C35.1573 61.1903 36.0191 60.9489 37.0039 60.9489C37.5721 60.9489 38.1332 61.0436 38.6871 61.233C39.2411 61.4223 39.7454 61.7301 40.1999 62.1562C40.6545 62.5777 41.0167 63.1364 41.2866 63.8324C41.5565 64.5284 41.6914 65.3854 41.6914 66.4034V67.1136H33.2823V65.6648H39.9869C39.9869 65.0492 39.8638 64.5 39.6175 64.017C39.3761 63.5341 39.0304 63.1529 38.5806 62.8736C38.1355 62.5942 37.61 62.4545 37.0039 62.4545C36.3363 62.4545 35.7586 62.6203 35.271 62.9517C34.788 63.2784 34.4163 63.7045 34.1559 64.2301C33.8955 64.7557 33.7653 65.3191 33.7653 65.9205V66.8864C33.7653 67.7102 33.9073 68.4086 34.1914 68.9815C34.4802 69.5497 34.8803 69.983 35.3917 70.2812C35.9031 70.5748 36.4973 70.7216 37.1744 70.7216C37.6147 70.7216 38.0124 70.66 38.3675 70.5369C38.7274 70.4091 39.0375 70.2197 39.2979 69.9688C39.5584 69.7131 39.7596 69.3958 39.9016 69.017L41.521 69.4716C41.3505 70.0208 41.064 70.5038 40.6616 70.9205C40.2591 71.3324 39.762 71.6544 39.1701 71.8864C38.5782 72.1136 37.913 72.2273 37.1744 72.2273ZM48.6729 72.2273C47.6502 72.2273 46.7695 71.9858 46.0309 71.5028C45.2923 71.0199 44.7241 70.3546 44.3263 69.5071C43.9286 68.6596 43.7298 67.6913 43.7298 66.6023C43.7298 65.4943 43.9334 64.5166 44.3406 63.669C44.7525 62.8168 45.3254 62.1515 46.0593 61.6733C46.7979 61.1903 47.6597 60.9489 48.6445 60.9489C49.4116 60.9489 50.1029 61.0909 50.7184 61.375C51.3339 61.6591 51.8382 62.0568 52.2312 62.5682C52.6242 63.0795 52.868 63.6761 52.9627 64.358H51.2866C51.1587 63.8608 50.8746 63.4205 50.4343 63.0369C49.9987 62.6487 49.4116 62.4545 48.6729 62.4545C48.0195 62.4545 47.4466 62.625 46.9542 62.9659C46.4665 63.3021 46.0853 63.7779 45.8107 64.3935C45.5408 65.0043 45.4059 65.7216 45.4059 66.5455C45.4059 67.3883 45.5385 68.1222 45.8036 68.7472C46.0735 69.3722 46.4523 69.8575 46.94 70.2031C47.4324 70.5488 48.0101 70.7216 48.6729 70.7216C49.1085 70.7216 49.5039 70.6458 49.859 70.4943C50.2141 70.3428 50.5148 70.125 50.761 69.8409C51.0072 69.5568 51.1824 69.2159 51.2866 68.8182H52.9627C52.868 69.4621 52.6336 70.0421 52.2596 70.5582C51.8903 71.0696 51.4002 71.4768 50.7894 71.7798C50.1834 72.0781 49.4779 72.2273 48.6729 72.2273ZM55.413 72V61.0909H57.0891V72H55.413ZM56.2653 59.2727C55.9386 59.2727 55.6568 59.1615 55.4201 58.9389C55.1881 58.7164 55.0721 58.4489 55.0721 58.1364C55.0721 57.8239 55.1881 57.5563 55.4201 57.3338C55.6568 57.1113 55.9386 57 56.2653 57C56.592 57 56.8713 57.1113 57.1033 57.3338C57.3401 57.5563 57.4585 57.8239 57.4585 58.1364C57.4585 58.4489 57.3401 58.7164 57.1033 58.9389C56.8713 59.1615 56.592 59.2727 56.2653 59.2727ZM60.1591 76.0909V61.0909H61.7784V62.8239H61.9773C62.1004 62.6345 62.2708 62.393 62.4886 62.0994C62.7112 61.8011 63.0284 61.536 63.4403 61.304C63.857 61.0672 64.4205 60.9489 65.1307 60.9489C66.0492 60.9489 66.8589 61.1785 67.5597 61.6378C68.2604 62.0971 68.8073 62.7481 69.2003 63.5909C69.5933 64.4337 69.7898 65.428 69.7898 66.5739C69.7898 67.7292 69.5933 68.7306 69.2003 69.5781C68.8073 70.4209 68.2628 71.0743 67.5668 71.5384C66.8707 71.9976 66.0682 72.2273 65.1591 72.2273C64.4583 72.2273 63.8973 72.1113 63.4759 71.8793C63.0545 71.6425 62.7301 71.375 62.5028 71.0767C62.2756 70.7737 62.1004 70.5227 61.9773 70.3239H61.8352V76.0909H60.1591ZM61.8068 66.5455C61.8068 67.3693 61.9276 68.0961 62.169 68.7259C62.4105 69.3509 62.7633 69.8409 63.2273 70.196C63.6913 70.5464 64.2595 70.7216 64.9318 70.7216C65.6326 70.7216 66.2173 70.5369 66.6861 70.1676C67.1596 69.7936 67.5147 69.2917 67.7514 68.6619C67.9929 68.0275 68.1136 67.322 68.1136 66.5455C68.1136 65.7784 67.9953 65.0871 67.7585 64.4716C67.5265 63.8513 67.1738 63.3613 66.7003 63.0014C66.2315 62.6368 65.642 62.4545 64.9318 62.4545C64.25 62.4545 63.6771 62.6274 63.2131 62.973C62.7491 63.3139 62.3987 63.7921 62.1619 64.4077C61.9252 65.0185 61.8068 65.7311 61.8068 66.5455ZM72.3466 72V61.0909H74.0227V72H72.3466ZM73.1989 59.2727C72.8722 59.2727 72.5904 59.1615 72.3537 58.9389C72.1217 58.7164 72.0057 58.4489 72.0057 58.1364C72.0057 57.8239 72.1217 57.5563 72.3537 57.3338C72.5904 57.1113 72.8722 57 73.1989 57C73.5256 57 73.8049 57.1113 74.0369 57.3338C74.2737 57.5563 74.392 57.8239 74.392 58.1364C74.392 58.4489 74.2737 58.7164 74.0369 58.9389C73.8049 59.1615 73.5256 59.2727 73.1989 59.2727ZM81.837 61.0909V62.5114H76.1836V61.0909H81.837ZM77.8313 58.4773H79.5075V68.875C79.5075 69.3485 79.5761 69.7036 79.7134 69.9403C79.8555 70.1723 80.0354 70.3286 80.2532 70.4091C80.4757 70.4848 80.7101 70.5227 80.9563 70.5227C81.141 70.5227 81.2925 70.5133 81.4109 70.4943C81.5292 70.4706 81.6239 70.4517 81.695 70.4375L82.0359 71.9432C81.9222 71.9858 81.7636 72.0284 81.56 72.071C81.3564 72.1184 81.0984 72.142 80.7859 72.142C80.3124 72.142 79.8484 72.0402 79.3938 71.8366C78.944 71.633 78.57 71.3229 78.2717 70.9062C77.9781 70.4896 77.8313 69.964 77.8313 69.3295V58.4773ZM87.5685 72.2557C86.8772 72.2557 86.2499 72.1255 85.6864 71.8651C85.123 71.5999 84.6755 71.2188 84.3441 70.7216C84.0127 70.2197 83.8469 69.6136 83.8469 68.9034C83.8469 68.2784 83.9701 67.7718 84.2163 67.3835C84.4625 66.9905 84.7915 66.6828 85.2035 66.4602C85.6154 66.2377 86.07 66.072 86.5671 65.9631C87.069 65.8494 87.5733 65.7595 88.0799 65.6932C88.7428 65.608 89.2802 65.544 89.6921 65.5014C90.1088 65.4541 90.4118 65.3759 90.6012 65.267C90.7953 65.1581 90.8924 64.9687 90.8924 64.6989V64.642C90.8924 63.9413 90.7006 63.3968 90.3171 63.0085C89.9383 62.6203 89.363 62.4261 88.5913 62.4261C87.7911 62.4261 87.1637 62.6013 86.7092 62.9517C86.2546 63.3021 85.935 63.6761 85.7504 64.0739L84.1594 63.5057C84.4435 62.8428 84.8223 62.3267 85.2958 61.9574C85.774 61.5833 86.2949 61.3229 86.8583 61.1761C87.4265 61.0246 87.9852 60.9489 88.5344 60.9489C88.8848 60.9489 89.2873 60.9915 89.7418 61.0767C90.2011 61.1572 90.6438 61.3253 91.07 61.581C91.5008 61.8366 91.8583 62.2225 92.1424 62.7386C92.4265 63.2547 92.5685 63.946 92.5685 64.8125V72H90.8924V70.5227H90.8072C90.6935 70.7595 90.5041 71.0128 90.239 71.2827C89.9738 71.5526 89.6211 71.7822 89.1808 71.9716C88.7404 72.161 88.203 72.2557 87.5685 72.2557ZM87.8242 70.75C88.4871 70.75 89.0458 70.6198 89.5004 70.3594C89.9596 70.099 90.3053 69.7628 90.5373 69.3509C90.774 68.9389 90.8924 68.5057 90.8924 68.0511V66.517C90.8214 66.6023 90.6651 66.6804 90.4237 66.7514C90.1869 66.8177 89.9123 66.8769 89.5998 66.929C89.292 66.9763 88.9914 67.0189 88.6978 67.0568C88.409 67.09 88.1746 67.1184 87.9947 67.142C87.5591 67.1989 87.1519 67.2912 86.7731 67.419C86.399 67.5421 86.096 67.7292 85.864 67.9801C85.6367 68.2263 85.5231 68.5625 85.5231 68.9886C85.5231 69.571 85.7385 70.0114 86.1694 70.3097C86.605 70.6032 87.1566 70.75 87.8242 70.75ZM100.372 61.0909V62.5114H94.7188V61.0909H100.372ZM96.3665 58.4773H98.0426V68.875C98.0426 69.3485 98.1113 69.7036 98.2486 69.9403C98.3906 70.1723 98.5705 70.3286 98.7884 70.4091C99.0109 70.4848 99.2453 70.5227 99.4915 70.5227C99.6761 70.5227 99.8277 70.5133 99.946 70.4943C100.064 70.4706 100.159 70.4517 100.23 70.4375L100.571 71.9432C100.457 71.9858 100.299 72.0284 100.095 72.071C99.8916 72.1184 99.6335 72.142 99.321 72.142C98.8475 72.142 98.3835 72.0402 97.929 71.8366C97.4792 71.633 97.1051 71.3229 96.8068 70.9062C96.5133 70.4896 96.3665 69.964 96.3665 69.3295V58.4773ZM102.893 72V61.0909H104.57V72H102.893ZM103.746 59.2727C103.419 59.2727 103.137 59.1615 102.901 58.9389C102.669 58.7164 102.553 58.4489 102.553 58.1364C102.553 57.8239 102.669 57.5563 102.901 57.3338C103.137 57.1113 103.419 57 103.746 57C104.072 57 104.352 57.1113 104.584 57.3338C104.821 57.5563 104.939 57.8239 104.939 58.1364C104.939 58.4489 104.821 58.7164 104.584 58.9389C104.352 59.1615 104.072 59.2727 103.746 59.2727ZM112.071 72.2273C111.087 72.2273 110.222 71.9929 109.479 71.5241C108.74 71.0554 108.163 70.3996 107.746 69.5568C107.334 68.714 107.128 67.7292 107.128 66.6023C107.128 65.4659 107.334 64.474 107.746 63.6264C108.163 62.7789 108.74 62.1207 109.479 61.652C110.222 61.1832 111.087 60.9489 112.071 60.9489C113.056 60.9489 113.918 61.1832 114.657 61.652C115.4 62.1207 115.978 62.7789 116.39 63.6264C116.806 64.474 117.015 65.4659 117.015 66.6023C117.015 67.7292 116.806 68.714 116.39 69.5568C115.978 70.3996 115.4 71.0554 114.657 71.5241C113.918 71.9929 113.056 72.2273 112.071 72.2273ZM112.071 70.7216C112.819 70.7216 113.435 70.5298 113.918 70.1463C114.401 69.7628 114.758 69.2585 114.99 68.6335C115.222 68.0085 115.338 67.3314 115.338 66.6023C115.338 65.8731 115.222 65.1937 114.99 64.5639C114.758 63.9342 114.401 63.4252 113.918 63.0369C113.435 62.6487 112.819 62.4545 112.071 62.4545C111.323 62.4545 110.708 62.6487 110.225 63.0369C109.742 63.4252 109.384 63.9342 109.152 64.5639C108.92 65.1937 108.804 65.8731 108.804 66.6023C108.804 67.3314 108.92 68.0085 109.152 68.6335C109.384 69.2585 109.742 69.7628 110.225 70.1463C110.708 70.5298 111.323 70.7216 112.071 70.7216ZM121.249 65.4375V72H119.573V61.0909H121.192V62.7955H121.335C121.59 62.2415 121.978 61.7964 122.499 61.4602C123.02 61.1193 123.692 60.9489 124.516 60.9489C125.255 60.9489 125.901 61.1004 126.455 61.4034C127.009 61.7017 127.44 62.1562 127.748 62.767C128.056 63.3731 128.21 64.1402 128.21 65.0682V72H126.533V65.1818C126.533 64.3248 126.311 63.6572 125.866 63.179C125.421 62.696 124.81 62.4545 124.033 62.4545C123.498 62.4545 123.02 62.5705 122.599 62.8026C122.182 63.0346 121.853 63.3731 121.612 63.8182C121.37 64.2633 121.249 64.803 121.249 65.4375Z"></path>
</svg>
