<svg xmlns="http://www.w3.org/2000/svg" fill="none" viewBox="0 0 139 164" height="164" width="139">
<path fill="#43D059" d="M0 20C0 8.95431 8.95431 0 20 0H119C130.046 0 139 8.95431 139 20V144C139 155.046 130.046 164 119 164H20C8.95431 164 0 155.046 0 144V20Z"></path>
<path fill="black" d="M36.2102 135.455V150H34.5341V135.455H36.2102ZM43.854 150.227C42.8029 150.227 41.8962 149.995 41.1339 149.531C40.3763 149.062 39.7915 148.409 39.3796 147.571C38.9724 146.728 38.7688 145.748 38.7688 144.631C38.7688 143.513 38.9724 142.528 39.3796 141.676C39.7915 140.819 40.3645 140.152 41.0984 139.673C41.837 139.19 42.6987 138.949 43.6836 138.949C44.2518 138.949 44.8129 139.044 45.3668 139.233C45.9208 139.422 46.4251 139.73 46.8796 140.156C47.3342 140.578 47.6964 141.136 47.9663 141.832C48.2362 142.528 48.3711 143.385 48.3711 144.403V145.114H39.962V143.665H46.6665C46.6665 143.049 46.5434 142.5 46.2972 142.017C46.0558 141.534 45.7101 141.153 45.2603 140.874C44.8152 140.594 44.2897 140.455 43.6836 140.455C43.016 140.455 42.4383 140.62 41.9506 140.952C41.4677 141.278 41.096 141.705 40.8356 142.23C40.5752 142.756 40.445 143.319 40.445 143.92V144.886C40.445 145.71 40.587 146.409 40.8711 146.982C41.1599 147.55 41.56 147.983 42.0714 148.281C42.5827 148.575 43.177 148.722 43.854 148.722C44.2944 148.722 44.6921 148.66 45.0472 148.537C45.4071 148.409 45.7172 148.22 45.9776 147.969C46.238 147.713 46.4393 147.396 46.5813 147.017L48.2006 147.472C48.0302 148.021 47.7437 148.504 47.3413 148.92C46.9388 149.332 46.4416 149.654 45.8498 149.886C45.2579 150.114 44.5927 150.227 43.854 150.227ZM55.6651 139.091V140.511H50.0117V139.091H55.6651ZM51.6594 136.477H53.3356V146.875C53.3356 147.348 53.4042 147.704 53.5415 147.94C53.6836 148.172 53.8635 148.329 54.0813 148.409C54.3039 148.485 54.5382 148.523 54.7844 148.523C54.9691 148.523 55.1206 148.513 55.239 148.494C55.3574 148.471 55.4521 148.452 55.5231 148.438L55.864 149.943C55.7504 149.986 55.5917 150.028 55.3881 150.071C55.1845 150.118 54.9265 150.142 54.614 150.142C54.1405 150.142 53.6765 150.04 53.2219 149.837C52.7721 149.633 52.3981 149.323 52.0998 148.906C51.8062 148.49 51.6594 147.964 51.6594 147.33V136.477ZM62.9308 139.091V140.511H57.2773V139.091H62.9308ZM58.9251 136.477H60.6012V146.875C60.6012 147.348 60.6699 147.704 60.8072 147.94C60.9492 148.172 61.1291 148.329 61.3469 148.409C61.5695 148.485 61.8039 148.523 62.0501 148.523C62.2347 148.523 62.3862 148.513 62.5046 148.494C62.623 148.471 62.7177 148.452 62.7887 148.438L63.1296 149.943C63.016 149.986 62.8574 150.028 62.6538 150.071C62.4502 150.118 62.1921 150.142 61.8796 150.142C61.4061 150.142 60.9421 150.04 60.4876 149.837C60.0378 149.633 59.6637 149.323 59.3654 148.906C59.0719 148.49 58.9251 147.964 58.9251 147.33V136.477ZM69.9087 150.227C68.8576 150.227 67.9509 149.995 67.1886 149.531C66.431 149.062 65.8462 148.409 65.4343 147.571C65.0271 146.728 64.8235 145.748 64.8235 144.631C64.8235 143.513 65.0271 142.528 65.4343 141.676C65.8462 140.819 66.4192 140.152 67.1531 139.673C67.8917 139.19 68.7534 138.949 69.7383 138.949C70.3065 138.949 70.8675 139.044 71.4215 139.233C71.9755 139.422 72.4798 139.73 72.9343 140.156C73.3888 140.578 73.7511 141.136 74.021 141.832C74.2908 142.528 74.4258 143.385 74.4258 144.403V145.114H66.0167V143.665H72.7212C72.7212 143.049 72.5981 142.5 72.3519 142.017C72.1104 141.534 71.7648 141.153 71.315 140.874C70.8699 140.594 70.3443 140.455 69.7383 140.455C69.0707 140.455 68.493 140.62 68.0053 140.952C67.5224 141.278 67.1507 141.705 66.8903 142.23C66.6299 142.756 66.4996 143.319 66.4996 143.92V144.886C66.4996 145.71 66.6417 146.409 66.9258 146.982C67.2146 147.55 67.6147 147.983 68.1261 148.281C68.6374 148.575 69.2317 148.722 69.9087 148.722C70.3491 148.722 70.7468 148.66 71.1019 148.537C71.4618 148.409 71.7719 148.22 72.0323 147.969C72.2927 147.713 72.494 147.396 72.636 147.017L74.2553 147.472C74.0849 148.021 73.7984 148.504 73.396 148.92C72.9935 149.332 72.4963 149.654 71.9045 149.886C71.3126 150.114 70.6474 150.227 69.9087 150.227ZM76.9755 150V139.091H78.5948V140.739H78.7085C78.9073 140.199 79.2672 139.761 79.788 139.425C80.3088 139.089 80.896 138.92 81.5494 138.92C81.6725 138.92 81.8263 138.923 82.011 138.928C82.1957 138.932 82.3353 138.939 82.43 138.949V140.653C82.3732 140.639 82.243 140.618 82.0394 140.589C81.8406 140.556 81.6299 140.54 81.4073 140.54C80.877 140.54 80.4035 140.651 79.9869 140.874C79.5749 141.091 79.2482 141.394 79.0067 141.783C78.77 142.166 78.6516 142.604 78.6516 143.097V150H76.9755ZM90.8658 150H89.0192L94.3601 135.455H96.1783L101.519 150H99.6726L95.326 137.756H95.2124L90.8658 150ZM91.5476 144.318H98.9908V145.881H91.5476V144.318Z"></path>
<path fill="black" d="M14.1074 55V39H19.5137C20.7637 39 21.7897 39.2135 22.5918 39.6406C23.3939 40.0625 23.9876 40.6432 24.373 41.3828C24.7585 42.1224 24.9512 42.9635 24.9512 43.9062C24.9512 44.849 24.7585 45.6849 24.373 46.4141C23.9876 47.1432 23.3965 47.7161 22.5996 48.1328C21.8027 48.5443 20.7845 48.75 19.5449 48.75H15.1699V47H19.4824C20.3366 47 21.0241 46.875 21.5449 46.625C22.071 46.375 22.4512 46.0208 22.6855 45.5625C22.9251 45.099 23.0449 44.5469 23.0449 43.9062C23.0449 43.2656 22.9251 42.7057 22.6855 42.2266C22.446 41.7474 22.0632 41.3776 21.5371 41.1172C21.0111 40.8516 20.3158 40.7187 19.4512 40.7187H16.0449V55H14.1074ZM21.6387 47.8125L25.5762 55H23.3262L19.4512 47.8125H21.6387ZM32.832 55.25C31.6758 55.25 30.6784 54.9948 29.8398 54.4844C29.0065 53.9688 28.3633 53.25 27.9102 52.3281C27.4622 51.401 27.2383 50.3229 27.2383 49.0938C27.2383 47.8646 27.4622 46.7812 27.9102 45.8437C28.3633 44.901 28.9935 44.1667 29.8008 43.6406C30.6133 43.1094 31.5612 42.8438 32.6445 42.8438C33.2695 42.8438 33.8867 42.9479 34.4961 43.1562C35.1055 43.3646 35.6602 43.7031 36.1602 44.1719C36.6602 44.6354 37.0586 45.25 37.3555 46.0156C37.6523 46.7812 37.8008 47.724 37.8008 48.8437V49.625H28.5508V48.0312H35.9258C35.9258 47.3542 35.7904 46.75 35.5195 46.2187C35.2539 45.6875 34.8737 45.2682 34.3789 44.9609C33.8893 44.6536 33.3112 44.5 32.6445 44.5C31.9102 44.5 31.2747 44.6823 30.7383 45.0469C30.207 45.4062 29.7982 45.875 29.5117 46.4531C29.2253 47.0312 29.082 47.651 29.082 48.3125V49.375C29.082 50.2813 29.2383 51.0495 29.5508 51.6797C29.8685 52.3047 30.3086 52.7812 30.8711 53.1094C31.4336 53.4323 32.0872 53.5938 32.832 53.5938C33.3164 53.5938 33.7539 53.526 34.1445 53.3906C34.5404 53.25 34.8815 53.0417 35.168 52.7656C35.4544 52.4844 35.6758 52.1354 35.832 51.7187L37.6133 52.2188C37.4258 52.8229 37.1107 53.3542 36.668 53.8125C36.2253 54.2656 35.6784 54.6198 35.0273 54.875C34.3763 55.125 33.6445 55.25 32.832 55.25ZM49.1055 45.6875L47.4492 46.1562C47.3451 45.8802 47.1914 45.612 46.9883 45.3516C46.7904 45.0859 46.5195 44.8672 46.1758 44.6953C45.832 44.5234 45.3919 44.4375 44.8555 44.4375C44.1211 44.4375 43.5091 44.6068 43.0195 44.9453C42.5352 45.2786 42.293 45.7031 42.293 46.2187C42.293 46.6771 42.4596 47.0391 42.793 47.3047C43.1263 47.5703 43.6471 47.7917 44.3555 47.9687L46.1367 48.4063C47.2096 48.6667 48.0091 49.0651 48.5352 49.6016C49.0612 50.1328 49.3242 50.8177 49.3242 51.6562C49.3242 52.3437 49.1263 52.9583 48.7305 53.5C48.3398 54.0417 47.793 54.4688 47.0898 54.7813C46.3867 55.0938 45.569 55.25 44.6367 55.25C43.4128 55.25 42.3997 54.9844 41.5977 54.4531C40.7956 53.9219 40.2878 53.1458 40.0742 52.125L41.8242 51.6875C41.9909 52.3333 42.306 52.8177 42.7695 53.1406C43.2383 53.4635 43.8503 53.625 44.6055 53.625C45.4648 53.625 46.1471 53.4427 46.6523 53.0781C47.1628 52.7083 47.418 52.2656 47.418 51.75C47.418 51.3333 47.2721 50.9844 46.9805 50.7031C46.6888 50.4167 46.2409 50.2031 45.6367 50.0625L43.6367 49.5937C42.5378 49.3333 41.7305 48.9297 41.2148 48.3828C40.7044 47.8307 40.4492 47.1406 40.4492 46.3125C40.4492 45.6354 40.6393 45.0365 41.0195 44.5156C41.4049 43.9948 41.9284 43.5859 42.5898 43.2891C43.2565 42.9922 44.0117 42.8438 44.8555 42.8438C46.043 42.8438 46.9753 43.1042 47.6523 43.625C48.3346 44.1458 48.819 44.8333 49.1055 45.6875ZM52.0996 59.5V43H53.8809V44.9062H54.0996C54.235 44.6979 54.4225 44.4323 54.6621 44.1094C54.9069 43.7812 55.2559 43.4896 55.709 43.2344C56.1673 42.974 56.7871 42.8438 57.5684 42.8438C58.5788 42.8438 59.4694 43.0964 60.2402 43.6016C61.0111 44.1068 61.6126 44.8229 62.0449 45.75C62.4772 46.6771 62.6934 47.7708 62.6934 49.0313C62.6934 50.3021 62.4772 51.4036 62.0449 52.3359C61.6126 53.263 61.0137 53.9818 60.248 54.4922C59.4824 54.9974 58.5996 55.25 57.5996 55.25C56.8288 55.25 56.2116 55.1224 55.748 54.8672C55.2845 54.6068 54.9277 54.3125 54.6777 53.9844C54.4277 53.651 54.235 53.375 54.0996 53.1562H53.9434V59.5H52.0996ZM53.9121 49C53.9121 49.9062 54.0449 50.7057 54.3105 51.3984C54.5762 52.0859 54.9642 52.625 55.4746 53.0156C55.985 53.401 56.61 53.5938 57.3496 53.5938C58.1204 53.5938 58.7637 53.3906 59.2793 52.9844C59.8001 52.5729 60.1908 52.0208 60.4512 51.3281C60.7168 50.6302 60.8496 49.8542 60.8496 49C60.8496 48.1562 60.7194 47.3958 60.459 46.7187C60.2038 46.0365 59.8158 45.4974 59.2949 45.1016C58.7793 44.7005 58.1309 44.5 57.3496 44.5C56.5996 44.5 55.9694 44.6901 55.459 45.0703C54.9486 45.4453 54.5632 45.9714 54.3027 46.6484C54.0423 47.3203 53.9121 48.1042 53.9121 49ZM65.5059 55V43H67.3496V55H65.5059ZM66.4434 41C66.084 41 65.7741 40.8776 65.5137 40.6328C65.2585 40.388 65.1309 40.0938 65.1309 39.75C65.1309 39.4063 65.2585 39.112 65.5137 38.8672C65.7741 38.6224 66.084 38.5 66.4434 38.5C66.8027 38.5 67.11 38.6224 67.3652 38.8672C67.6257 39.112 67.7559 39.4063 67.7559 39.75C67.7559 40.0938 67.6257 40.388 67.3652 40.6328C67.11 40.8776 66.8027 41 66.4434 41ZM70.7266 55V43H72.5078V44.8125H72.6328C72.8516 44.2188 73.2474 43.737 73.8203 43.3672C74.3932 42.9974 75.0391 42.8125 75.7578 42.8125C75.8932 42.8125 76.0625 42.8151 76.2656 42.8203C76.4688 42.8255 76.6224 42.8333 76.7266 42.8438V44.7187C76.6641 44.7031 76.5208 44.6797 76.2969 44.6484C76.0781 44.612 75.8464 44.5937 75.6016 44.5937C75.0182 44.5937 74.4974 44.7161 74.0391 44.9609C73.5859 45.2005 73.2266 45.5339 72.9609 45.9609C72.7005 46.3828 72.5703 46.8646 72.5703 47.4062V55H70.7266ZM82.4434 55.2813C81.6829 55.2813 80.9928 55.138 80.373 54.8516C79.7533 54.5599 79.2611 54.1406 78.8965 53.5938C78.5319 53.0417 78.3496 52.375 78.3496 51.5937C78.3496 50.9062 78.485 50.349 78.7559 49.9219C79.0267 49.4896 79.3887 49.151 79.8418 48.9062C80.2949 48.6615 80.7949 48.4792 81.3418 48.3594C81.8939 48.2344 82.4486 48.1354 83.0059 48.0625C83.735 47.9687 84.3262 47.8984 84.7793 47.8516C85.2376 47.7995 85.571 47.7135 85.7793 47.5937C85.9928 47.474 86.0996 47.2656 86.0996 46.9687V46.9062C86.0996 46.1354 85.8887 45.5365 85.4668 45.1094C85.0501 44.6823 84.4173 44.4687 83.5684 44.4687C82.6882 44.4687 81.998 44.6615 81.498 45.0469C80.998 45.4323 80.6465 45.8437 80.4434 46.2812L78.6934 45.6562C79.0059 44.9271 79.4225 44.3594 79.9434 43.9531C80.4694 43.5417 81.0423 43.2552 81.6621 43.0937C82.2871 42.9271 82.9017 42.8438 83.5059 42.8438C83.8913 42.8438 84.334 42.8906 84.834 42.9844C85.3392 43.0729 85.8262 43.2578 86.2949 43.5391C86.7689 43.8203 87.1621 44.2448 87.4746 44.8125C87.7871 45.3802 87.9434 46.1406 87.9434 47.0938V55H86.0996V53.375H86.0059C85.8809 53.6354 85.6725 53.9141 85.3809 54.2109C85.0892 54.5078 84.7012 54.7604 84.2168 54.9687C83.7324 55.1771 83.1413 55.2813 82.4434 55.2813ZM82.7246 53.625C83.4538 53.625 84.0684 53.4818 84.5684 53.1953C85.0736 52.9089 85.4538 52.5391 85.709 52.0859C85.9694 51.6328 86.0996 51.1562 86.0996 50.6562V48.9687C86.0215 49.0625 85.8496 49.1484 85.584 49.2266C85.3236 49.2995 85.0215 49.3646 84.6777 49.4219C84.3392 49.474 84.0085 49.5208 83.6855 49.5625C83.3678 49.599 83.11 49.6302 82.9121 49.6562C82.4329 49.7187 81.985 49.8203 81.5684 49.9609C81.1569 50.0964 80.8236 50.3021 80.5684 50.5781C80.3184 50.849 80.1934 51.2187 80.1934 51.6875C80.1934 52.3281 80.4303 52.8125 80.9043 53.1406C81.3835 53.4635 81.9902 53.625 82.7246 53.625ZM96.5273 43V44.5625H90.3086V43H96.5273ZM92.1211 40.125H93.9648V51.5625C93.9648 52.0833 94.0404 52.474 94.1914 52.7344C94.3477 52.9896 94.5456 53.1615 94.7852 53.25C95.0299 53.3333 95.2878 53.375 95.5586 53.375C95.7617 53.375 95.9284 53.3646 96.0586 53.3437C96.1888 53.3177 96.293 53.2969 96.3711 53.2812L96.7461 54.9375C96.6211 54.9844 96.4466 55.0313 96.2227 55.0781C95.9987 55.1302 95.7148 55.1563 95.3711 55.1563C94.8503 55.1563 94.3398 55.0443 93.8398 54.8203C93.3451 54.5964 92.9336 54.2552 92.6055 53.7969C92.2826 53.3385 92.1211 52.7604 92.1211 52.0625V40.125ZM99.3008 55V43H101.145V55H99.3008ZM100.238 41C99.8789 41 99.569 40.8776 99.3086 40.6328C99.0534 40.388 98.9258 40.0938 98.9258 39.75C98.9258 39.4063 99.0534 39.112 99.3086 38.8672C99.569 38.6224 99.8789 38.5 100.238 38.5C100.598 38.5 100.905 38.6224 101.16 38.8672C101.421 39.112 101.551 39.4063 101.551 39.75C101.551 40.0938 101.421 40.388 101.16 40.6328C100.905 40.8776 100.598 41 100.238 41ZM109.396 55.25C108.313 55.25 107.363 54.9922 106.545 54.4766C105.732 53.9609 105.097 53.2396 104.639 52.3125C104.186 51.3854 103.959 50.3021 103.959 49.0625C103.959 47.8125 104.186 46.7214 104.639 45.7891C105.097 44.8568 105.732 44.1328 106.545 43.6172C107.363 43.1016 108.313 42.8438 109.396 42.8438C110.48 42.8438 111.428 43.1016 112.24 43.6172C113.058 44.1328 113.693 44.8568 114.146 45.7891C114.605 46.7214 114.834 47.8125 114.834 49.0625C114.834 50.3021 114.605 51.3854 114.146 52.3125C113.693 53.2396 113.058 53.9609 112.24 54.4766C111.428 54.9922 110.48 55.25 109.396 55.25ZM109.396 53.5938C110.219 53.5938 110.896 53.3828 111.428 52.9609C111.959 52.5391 112.352 51.9844 112.607 51.2969C112.863 50.6094 112.99 49.8646 112.99 49.0625C112.99 48.2604 112.863 47.513 112.607 46.8203C112.352 46.1276 111.959 45.5677 111.428 45.1406C110.896 44.7135 110.219 44.5 109.396 44.5C108.574 44.5 107.896 44.7135 107.365 45.1406C106.834 45.5677 106.441 46.1276 106.186 46.8203C105.93 47.513 105.803 48.2604 105.803 49.0625C105.803 49.8646 105.93 50.6094 106.186 51.2969C106.441 51.9844 106.834 52.5391 107.365 52.9609C107.896 53.3828 108.574 53.5938 109.396 53.5938ZM119.492 47.7812V55H117.648V43H119.43V44.875H119.586C119.867 44.2656 120.294 43.776 120.867 43.4063C121.44 43.0313 122.18 42.8438 123.086 42.8438C123.898 42.8438 124.609 43.0104 125.219 43.3437C125.828 43.6719 126.302 44.1719 126.641 44.8437C126.979 45.5104 127.148 46.3542 127.148 47.375V55H125.305V47.5C125.305 46.5573 125.06 45.8229 124.57 45.2969C124.081 44.7656 123.409 44.5 122.555 44.5C121.966 44.5 121.44 44.6276 120.977 44.8828C120.518 45.138 120.156 45.5104 119.891 46C119.625 46.4896 119.492 47.0833 119.492 47.7812Z"></path>
</svg>
