<svg xmlns="http://www.w3.org/2000/svg" fill="none" viewBox="0 0 139 164" height="164" width="139">
<path fill="#EEC638" d="M0 20C0 8.95431 8.95431 0 20 0H119C130.046 0 139 8.95431 139 20V144C139 155.046 130.046 164 119 164H20C8.95431 164 0 155.046 0 144V20Z"></path>
<path fill="black" d="M36.2102 135.455V150H34.5341V135.455H36.2102ZM43.854 150.227C42.8029 150.227 41.8962 149.995 41.1339 149.531C40.3763 149.062 39.7915 148.409 39.3796 147.571C38.9724 146.728 38.7688 145.748 38.7688 144.631C38.7688 143.513 38.9724 142.528 39.3796 141.676C39.7915 140.819 40.3645 140.152 41.0984 139.673C41.837 139.19 42.6987 138.949 43.6836 138.949C44.2518 138.949 44.8129 139.044 45.3668 139.233C45.9208 139.422 46.4251 139.73 46.8796 140.156C47.3342 140.578 47.6964 141.136 47.9663 141.832C48.2362 142.528 48.3711 143.385 48.3711 144.403V145.114H39.962V143.665H46.6665C46.6665 143.049 46.5434 142.5 46.2972 142.017C46.0558 141.534 45.7101 141.153 45.2603 140.874C44.8152 140.594 44.2897 140.455 43.6836 140.455C43.016 140.455 42.4383 140.62 41.9506 140.952C41.4677 141.278 41.096 141.705 40.8356 142.23C40.5752 142.756 40.445 143.319 40.445 143.92V144.886C40.445 145.71 40.587 146.409 40.8711 146.982C41.1599 147.55 41.56 147.983 42.0714 148.281C42.5827 148.575 43.177 148.722 43.854 148.722C44.2944 148.722 44.6921 148.66 45.0472 148.537C45.4071 148.409 45.7172 148.22 45.9776 147.969C46.238 147.713 46.4393 147.396 46.5813 147.017L48.2006 147.472C48.0302 148.021 47.7437 148.504 47.3413 148.92C46.9388 149.332 46.4416 149.654 45.8498 149.886C45.2579 150.114 44.5927 150.227 43.854 150.227ZM55.6651 139.091V140.511H50.0117V139.091H55.6651ZM51.6594 136.477H53.3356V146.875C53.3356 147.348 53.4042 147.704 53.5415 147.94C53.6836 148.172 53.8635 148.329 54.0813 148.409C54.3039 148.485 54.5382 148.523 54.7844 148.523C54.9691 148.523 55.1206 148.513 55.239 148.494C55.3574 148.471 55.4521 148.452 55.5231 148.438L55.864 149.943C55.7504 149.986 55.5917 150.028 55.3881 150.071C55.1845 150.118 54.9265 150.142 54.614 150.142C54.1405 150.142 53.6765 150.04 53.2219 149.837C52.7721 149.633 52.3981 149.323 52.0998 148.906C51.8062 148.49 51.6594 147.964 51.6594 147.33V136.477ZM62.9308 139.091V140.511H57.2773V139.091H62.9308ZM58.9251 136.477H60.6012V146.875C60.6012 147.348 60.6699 147.704 60.8072 147.94C60.9492 148.172 61.1291 148.329 61.3469 148.409C61.5695 148.485 61.8039 148.523 62.0501 148.523C62.2347 148.523 62.3862 148.513 62.5046 148.494C62.623 148.471 62.7177 148.452 62.7887 148.438L63.1296 149.943C63.016 149.986 62.8574 150.028 62.6538 150.071C62.4502 150.118 62.1921 150.142 61.8796 150.142C61.4061 150.142 60.9421 150.04 60.4876 149.837C60.0378 149.633 59.6637 149.323 59.3654 148.906C59.0719 148.49 58.9251 147.964 58.9251 147.33V136.477ZM69.9087 150.227C68.8576 150.227 67.9509 149.995 67.1886 149.531C66.431 149.062 65.8462 148.409 65.4343 147.571C65.0271 146.728 64.8235 145.748 64.8235 144.631C64.8235 143.513 65.0271 142.528 65.4343 141.676C65.8462 140.819 66.4192 140.152 67.1531 139.673C67.8917 139.19 68.7534 138.949 69.7383 138.949C70.3065 138.949 70.8675 139.044 71.4215 139.233C71.9755 139.422 72.4798 139.73 72.9343 140.156C73.3888 140.578 73.7511 141.136 74.021 141.832C74.2908 142.528 74.4258 143.385 74.4258 144.403V145.114H66.0167V143.665H72.7212C72.7212 143.049 72.5981 142.5 72.3519 142.017C72.1104 141.534 71.7648 141.153 71.315 140.874C70.8699 140.594 70.3443 140.455 69.7383 140.455C69.0707 140.455 68.493 140.62 68.0053 140.952C67.5224 141.278 67.1507 141.705 66.8903 142.23C66.6299 142.756 66.4996 143.319 66.4996 143.92V144.886C66.4996 145.71 66.6417 146.409 66.9258 146.982C67.2146 147.55 67.6147 147.983 68.1261 148.281C68.6374 148.575 69.2317 148.722 69.9087 148.722C70.3491 148.722 70.7468 148.66 71.1019 148.537C71.4618 148.409 71.7719 148.22 72.0323 147.969C72.2927 147.713 72.494 147.396 72.636 147.017L74.2553 147.472C74.0849 148.021 73.7984 148.504 73.396 148.92C72.9935 149.332 72.4963 149.654 71.9045 149.886C71.3126 150.114 70.6474 150.227 69.9087 150.227ZM76.9755 150V139.091H78.5948V140.739H78.7085C78.9073 140.199 79.2672 139.761 79.788 139.425C80.3088 139.089 80.896 138.92 81.5494 138.92C81.6725 138.92 81.8263 138.923 82.011 138.928C82.1957 138.932 82.3353 138.939 82.43 138.949V140.653C82.3732 140.639 82.243 140.618 82.0394 140.589C81.8406 140.556 81.6299 140.54 81.4073 140.54C80.877 140.54 80.4035 140.651 79.9869 140.874C79.5749 141.091 79.2482 141.394 79.0067 141.783C78.77 142.166 78.6516 142.604 78.6516 143.097V150H76.9755ZM90.8658 150H89.0192L94.3601 135.455H96.1783L101.519 150H99.6726L95.326 137.756H95.2124L90.8658 150ZM91.5476 144.318H98.9908V145.881H91.5476V144.318Z"></path>
<path fill="black" d="M32.8556 60C32.6213 59.2827 32.3123 58.6399 31.9288 58.0717C31.5524 57.4964 31.1014 57.0064 30.5758 56.6016C30.0574 56.1967 29.4679 55.8878 28.8074 55.6747C28.1468 55.4616 27.4224 55.3551 26.6341 55.3551C25.3414 55.3551 24.166 55.6889 23.1078 56.3565C22.0495 57.0241 21.2079 58.0078 20.5829 59.3075C19.9579 60.6072 19.6454 62.2017 19.6454 64.0909C19.6454 65.9801 19.9615 67.5746 20.5936 68.8743C21.2257 70.174 22.0815 71.1577 23.161 71.8253C24.2406 72.4929 25.4551 72.8267 26.8045 72.8267C28.0545 72.8267 29.1554 72.5604 30.1071 72.0277C31.0659 71.4879 31.8116 70.728 32.3443 69.7479C32.8841 68.7607 33.1539 67.5994 33.1539 66.2642L33.9636 66.4347H27.4011V64.0909H35.7108V66.4347C35.7108 68.2315 35.3272 69.794 34.5602 71.1222C33.8002 72.4503 32.7491 73.4801 31.4068 74.2116C30.0716 74.9361 28.5375 75.2983 26.8045 75.2983C24.8727 75.2983 23.1752 74.8438 21.7122 73.9347C20.2562 73.0256 19.1199 71.733 18.3031 70.0568C17.4934 68.3807 17.0886 66.392 17.0886 64.0909C17.0886 62.3651 17.3194 60.8132 17.7811 59.4354C18.2498 58.0504 18.9103 56.8714 19.7626 55.8984C20.6149 54.9254 21.6234 54.1797 22.7882 53.6612C23.9529 53.1428 25.2349 52.8835 26.6341 52.8835C27.7846 52.8835 28.8571 53.0575 29.8514 53.4055C30.8528 53.7464 31.7441 54.233 32.5254 54.8651C33.3137 55.4901 33.9707 56.2393 34.4963 57.1129C35.0218 57.9794 35.3841 58.9418 35.5829 60H32.8556ZM42.4091 53.1818V75H39.8949V53.1818H42.4091ZM53.6618 75.3409C52.1845 75.3409 50.8883 74.9893 49.7733 74.2862C48.6653 73.5831 47.7988 72.5994 47.1738 71.3352C46.5559 70.071 46.247 68.5937 46.247 66.9034C46.247 65.1989 46.5559 63.7109 47.1738 62.4396C47.7988 61.1683 48.6653 60.1811 49.7733 59.478C50.8883 58.7749 52.1845 58.4233 53.6618 58.4233C55.139 58.4233 56.4316 58.7749 57.5396 59.478C58.6547 60.1811 59.5211 61.1683 60.139 62.4396C60.764 63.7109 61.0765 65.1989 61.0765 66.9034C61.0765 68.5937 60.764 70.071 60.139 71.3352C59.5211 72.5994 58.6547 73.5831 57.5396 74.2862C56.4316 74.9893 55.139 75.3409 53.6618 75.3409ZM53.6618 73.0824C54.7839 73.0824 55.7072 72.7947 56.4316 72.2195C57.1561 71.6442 57.6923 70.8878 58.0403 69.9503C58.3883 69.0128 58.5623 67.9972 58.5623 66.9034C58.5623 65.8097 58.3883 64.7905 58.0403 63.8459C57.6923 62.9013 57.1561 62.1378 56.4316 61.5554C55.7072 60.973 54.7839 60.6818 53.6618 60.6818C52.5396 60.6818 51.6163 60.973 50.8919 61.5554C50.1674 62.1378 49.6312 62.9013 49.2832 63.8459C48.9352 64.7905 48.7612 65.8097 48.7612 66.9034C48.7612 67.9972 48.9352 69.0128 49.2832 69.9503C49.6312 70.8878 50.1674 71.6442 50.8919 72.2195C51.6163 72.7947 52.5396 73.0824 53.6618 73.0824ZM71.5621 75.3409C70.0849 75.3409 68.7887 74.9893 67.6737 74.2862C66.5657 73.5831 65.6992 72.5994 65.0742 71.3352C64.4563 70.071 64.1474 68.5937 64.1474 66.9034C64.1474 65.1989 64.4563 63.7109 65.0742 62.4396C65.6992 61.1683 66.5657 60.1811 67.6737 59.478C68.7887 58.7749 70.0849 58.4233 71.5621 58.4233C73.0394 58.4233 74.332 58.7749 75.44 59.478C76.555 60.1811 77.4215 61.1683 78.0394 62.4396C78.6644 63.7109 78.9769 65.1989 78.9769 66.9034C78.9769 68.5937 78.6644 70.071 78.0394 71.3352C77.4215 72.5994 76.555 73.5831 75.44 74.2862C74.332 74.9893 73.0394 75.3409 71.5621 75.3409ZM71.5621 73.0824C72.6843 73.0824 73.6076 72.7947 74.332 72.2195C75.0565 71.6442 75.5927 70.8878 75.9407 69.9503C76.2887 69.0128 76.4627 67.9972 76.4627 66.9034C76.4627 65.8097 76.2887 64.7905 75.9407 63.8459C75.5927 62.9013 75.0565 62.1378 74.332 61.5554C73.6076 60.973 72.6843 60.6818 71.5621 60.6818C70.44 60.6818 69.5167 60.973 68.7923 61.5554C68.0678 62.1378 67.5316 62.9013 67.1836 63.8459C66.8356 64.7905 66.6616 65.8097 66.6616 66.9034C66.6616 67.9972 66.8356 69.0128 67.1836 69.9503C67.5316 70.8878 68.0678 71.6442 68.7923 72.2195C69.5167 72.7947 70.44 73.0824 71.5621 73.0824ZM82.8148 75V58.6364H85.2438V61.1932H85.4569C85.7978 60.3196 86.3482 59.6413 87.1081 59.1584C87.8681 58.6683 88.7807 58.4233 89.8461 58.4233C90.9256 58.4233 91.824 58.6683 92.5414 59.1584C93.2658 59.6413 93.8304 60.3196 94.2353 61.1932H94.4057C94.8248 60.348 95.4533 59.6768 96.2914 59.1797C97.1294 58.6754 98.1344 58.4233 99.3063 58.4233C100.769 58.4233 101.966 58.8814 102.896 59.7976C103.827 60.7067 104.292 62.1236 104.292 64.0483V75H101.778V64.0483C101.778 62.8409 101.448 61.978 100.787 61.4595C100.127 60.9411 99.3489 60.6818 98.454 60.6818C97.3034 60.6818 96.4121 61.0298 95.78 61.7259C95.1479 62.4148 94.8319 63.2884 94.8319 64.3466V75H92.275V63.7926C92.275 62.8622 91.9732 62.1129 91.3695 61.5447C90.7658 60.9695 89.9881 60.6818 89.0364 60.6818C88.383 60.6818 87.7722 60.8558 87.204 61.2038C86.6429 61.5518 86.1884 62.0348 85.8404 62.6527C85.4995 63.2635 85.329 63.9702 85.329 64.7727V75H82.8148ZM109.922 81.1364C109.496 81.1364 109.116 81.1009 108.782 81.0298C108.449 80.9659 108.218 80.902 108.09 80.8381L108.729 78.6222C109.34 78.7784 109.88 78.8352 110.349 78.7926C110.817 78.75 111.233 78.5405 111.595 78.1641C111.964 77.7947 112.302 77.1946 112.607 76.3636L113.076 75.0852L107.025 58.6364H109.752L114.269 71.6761H114.439L118.956 58.6364H121.684L114.738 77.3864C114.425 78.2315 114.038 78.9311 113.577 79.4851C113.115 80.0462 112.579 80.4616 111.968 80.7315C111.364 81.0014 110.682 81.1364 109.922 81.1364Z"></path>
</svg>
