<svg xmlns="http://www.w3.org/2000/svg" fill="none" viewBox="0 0 139 164" height="164" width="139">
<path fill="#43D059" d="M0 20C0 8.95431 8.95431 0 20 0H119C130.046 0 139 8.95431 139 20V144C139 155.046 130.046 164 119 164H20C8.95431 164 0 155.046 0 144V20Z"></path>
<path fill="black" d="M36.2102 135.455V150H34.5341V135.455H36.2102ZM43.854 150.227C42.8029 150.227 41.8962 149.995 41.1339 149.531C40.3763 149.062 39.7915 148.409 39.3796 147.571C38.9724 146.728 38.7688 145.748 38.7688 144.631C38.7688 143.513 38.9724 142.528 39.3796 141.676C39.7915 140.819 40.3645 140.152 41.0984 139.673C41.837 139.19 42.6987 138.949 43.6836 138.949C44.2518 138.949 44.8129 139.044 45.3668 139.233C45.9208 139.422 46.4251 139.73 46.8796 140.156C47.3342 140.578 47.6964 141.136 47.9663 141.832C48.2362 142.528 48.3711 143.385 48.3711 144.403V145.114H39.962V143.665H46.6665C46.6665 143.049 46.5434 142.5 46.2972 142.017C46.0558 141.534 45.7101 141.153 45.2603 140.874C44.8152 140.594 44.2897 140.455 43.6836 140.455C43.016 140.455 42.4383 140.62 41.9506 140.952C41.4677 141.278 41.096 141.705 40.8356 142.23C40.5752 142.756 40.445 143.319 40.445 143.92V144.886C40.445 145.71 40.587 146.409 40.8711 146.982C41.1599 147.55 41.56 147.983 42.0714 148.281C42.5827 148.575 43.177 148.722 43.854 148.722C44.2944 148.722 44.6921 148.66 45.0472 148.537C45.4071 148.409 45.7172 148.22 45.9776 147.969C46.238 147.713 46.4393 147.396 46.5813 147.017L48.2006 147.472C48.0302 148.021 47.7437 148.504 47.3413 148.92C46.9388 149.332 46.4416 149.654 45.8498 149.886C45.2579 150.114 44.5927 150.227 43.854 150.227ZM55.6651 139.091V140.511H50.0117V139.091H55.6651ZM51.6594 136.477H53.3356V146.875C53.3356 147.348 53.4042 147.704 53.5415 147.94C53.6836 148.172 53.8635 148.329 54.0813 148.409C54.3039 148.485 54.5382 148.523 54.7844 148.523C54.9691 148.523 55.1206 148.513 55.239 148.494C55.3574 148.471 55.4521 148.452 55.5231 148.438L55.864 149.943C55.7504 149.986 55.5917 150.028 55.3881 150.071C55.1845 150.118 54.9265 150.142 54.614 150.142C54.1405 150.142 53.6765 150.04 53.2219 149.837C52.7721 149.633 52.3981 149.323 52.0998 148.906C51.8062 148.49 51.6594 147.964 51.6594 147.33V136.477ZM62.9308 139.091V140.511H57.2773V139.091H62.9308ZM58.9251 136.477H60.6012V146.875C60.6012 147.348 60.6699 147.704 60.8072 147.94C60.9492 148.172 61.1291 148.329 61.3469 148.409C61.5695 148.485 61.8039 148.523 62.0501 148.523C62.2347 148.523 62.3862 148.513 62.5046 148.494C62.623 148.471 62.7177 148.452 62.7887 148.438L63.1296 149.943C63.016 149.986 62.8574 150.028 62.6538 150.071C62.4502 150.118 62.1921 150.142 61.8796 150.142C61.4061 150.142 60.9421 150.04 60.4876 149.837C60.0378 149.633 59.6637 149.323 59.3654 148.906C59.0719 148.49 58.9251 147.964 58.9251 147.33V136.477ZM69.9087 150.227C68.8576 150.227 67.9509 149.995 67.1886 149.531C66.431 149.062 65.8462 148.409 65.4343 147.571C65.0271 146.728 64.8235 145.748 64.8235 144.631C64.8235 143.513 65.0271 142.528 65.4343 141.676C65.8462 140.819 66.4192 140.152 67.1531 139.673C67.8917 139.19 68.7534 138.949 69.7383 138.949C70.3065 138.949 70.8675 139.044 71.4215 139.233C71.9755 139.422 72.4798 139.73 72.9343 140.156C73.3888 140.578 73.7511 141.136 74.021 141.832C74.2908 142.528 74.4258 143.385 74.4258 144.403V145.114H66.0167V143.665H72.7212C72.7212 143.049 72.5981 142.5 72.3519 142.017C72.1104 141.534 71.7648 141.153 71.315 140.874C70.8699 140.594 70.3443 140.455 69.7383 140.455C69.0707 140.455 68.493 140.62 68.0053 140.952C67.5224 141.278 67.1507 141.705 66.8903 142.23C66.6299 142.756 66.4996 143.319 66.4996 143.92V144.886C66.4996 145.71 66.6417 146.409 66.9258 146.982C67.2146 147.55 67.6147 147.983 68.1261 148.281C68.6374 148.575 69.2317 148.722 69.9087 148.722C70.3491 148.722 70.7468 148.66 71.1019 148.537C71.4618 148.409 71.7719 148.22 72.0323 147.969C72.2927 147.713 72.494 147.396 72.636 147.017L74.2553 147.472C74.0849 148.021 73.7984 148.504 73.396 148.92C72.9935 149.332 72.4963 149.654 71.9045 149.886C71.3126 150.114 70.6474 150.227 69.9087 150.227ZM76.9755 150V139.091H78.5948V140.739H78.7085C78.9073 140.199 79.2672 139.761 79.788 139.425C80.3088 139.089 80.896 138.92 81.5494 138.92C81.6725 138.92 81.8263 138.923 82.011 138.928C82.1957 138.932 82.3353 138.939 82.43 138.949V140.653C82.3732 140.639 82.243 140.618 82.0394 140.589C81.8406 140.556 81.6299 140.54 81.4073 140.54C80.877 140.54 80.4035 140.651 79.9869 140.874C79.5749 141.091 79.2482 141.394 79.0067 141.783C78.77 142.166 78.6516 142.604 78.6516 143.097V150H76.9755ZM94.7578 150H90.2692V135.455H94.9567C96.3677 135.455 97.575 135.746 98.5788 136.328C99.5826 136.906 100.352 137.737 100.887 138.821C101.422 139.901 101.69 141.193 101.69 142.699C101.69 144.214 101.42 145.518 100.88 146.612C100.34 147.701 99.5542 148.539 98.522 149.126C97.4898 149.709 96.2351 150 94.7578 150ZM92.0305 148.438H94.6442C95.8468 148.438 96.8435 148.205 97.6342 147.741C98.425 147.277 99.0144 146.617 99.4027 145.76C99.791 144.903 99.9851 143.883 99.9851 142.699C99.9851 141.525 99.7933 140.514 99.4098 139.666C99.0263 138.814 98.4534 138.161 97.6911 137.706C96.9287 137.247 95.9794 137.017 94.843 137.017H92.0305V148.438Z"></path>
<path fill="black" d="M10.7983 60.1818H13.9517L21.3665 78.2926H21.6222L29.0369 60.1818H32.1903V82H29.7188V65.4233H29.5057L22.6875 82H20.3011L13.483 65.4233H13.2699V82H10.7983V60.1818ZM41.9622 82.3835C40.9252 82.3835 39.9842 82.1882 39.139 81.7976C38.2939 81.3999 37.6227 80.8281 37.1255 80.0824C36.6284 79.3295 36.3798 78.4205 36.3798 77.3551C36.3798 76.4176 36.5645 75.6577 36.9338 75.0753C37.3031 74.4858 37.7967 74.0241 38.4146 73.6903C39.0325 73.3565 39.7143 73.108 40.46 72.9446C41.2129 72.7741 41.9693 72.6392 42.7292 72.5398C43.7235 72.4119 44.5297 72.3161 45.1476 72.2521C45.7726 72.1811 46.2271 72.0639 46.5112 71.9006C46.8024 71.7372 46.948 71.4531 46.948 71.0483V70.9631C46.948 69.9119 46.6603 69.0952 46.0851 68.5128C45.5169 67.9304 44.6539 67.6392 43.4963 67.6392C42.296 67.6392 41.3549 67.902 40.6731 68.4276C39.9913 68.9531 39.5119 69.5142 39.2349 70.1108L36.8485 69.2585C37.2747 68.2642 37.8429 67.4901 38.5531 66.9361C39.2704 66.375 40.0517 65.9844 40.8968 65.7642C41.7491 65.5369 42.5872 65.4233 43.411 65.4233C43.9366 65.4233 44.5403 65.4872 45.2221 65.6151C45.911 65.7358 46.5751 65.9879 47.2143 66.3714C47.8606 66.755 48.3968 67.3338 48.823 68.108C49.2491 68.8821 49.4622 69.919 49.4622 71.2188V82H46.948V79.7841H46.8201C46.6497 80.1392 46.3656 80.5192 45.9679 80.924C45.5701 81.3288 45.041 81.6733 44.3805 81.9574C43.72 82.2415 42.9139 82.3835 41.9622 82.3835ZM42.3457 80.125C43.34 80.125 44.1781 79.9297 44.8599 79.5391C45.5488 79.1484 46.0673 78.6442 46.4153 78.0263C46.7704 77.4084 46.948 76.7585 46.948 76.0767V73.7756C46.8414 73.9034 46.6071 74.0206 46.2449 74.1271C45.8897 74.2266 45.4778 74.3153 45.0091 74.3935C44.5474 74.4645 44.0964 74.5284 43.6561 74.5852C43.2228 74.6349 42.8713 74.6776 42.6014 74.7131C41.948 74.7983 41.3372 74.9368 40.769 75.1286C40.2079 75.3132 39.7534 75.5937 39.4054 75.9702C39.0645 76.3395 38.894 76.8437 38.894 77.483C38.894 78.3565 39.2172 79.017 39.8635 79.4645C40.5169 79.9048 41.3443 80.125 42.3457 80.125ZM60.6562 88.4773C59.4418 88.4773 58.3977 88.321 57.5241 88.0085C56.6506 87.7031 55.9226 87.2983 55.3402 86.794C54.7649 86.2969 54.3068 85.7642 53.9659 85.196L55.9688 83.7898C56.196 84.0881 56.4837 84.429 56.8317 84.8125C57.1797 85.2031 57.6555 85.5405 58.2592 85.8246C58.87 86.1158 59.669 86.2614 60.6562 86.2614C61.9773 86.2614 63.0675 85.9418 63.9268 85.3026C64.7862 84.6634 65.2159 83.6619 65.2159 82.2983V78.9744H65.0028C64.8182 79.2727 64.5554 79.642 64.2145 80.0824C63.8807 80.5156 63.3977 80.9027 62.7656 81.2436C62.1406 81.5774 61.2955 81.7443 60.2301 81.7443C58.9091 81.7443 57.723 81.4318 56.6719 80.8068C55.6278 80.1818 54.8004 79.2727 54.1896 78.0795C53.5859 76.8864 53.2841 75.4375 53.2841 73.733C53.2841 72.0568 53.5788 70.5973 54.1683 69.3544C54.7578 68.1044 55.5781 67.1385 56.6293 66.4567C57.6804 65.7678 58.8949 65.4233 60.2727 65.4233C61.3381 65.4233 62.1832 65.6009 62.8082 65.956C63.4403 66.304 63.9233 66.7017 64.2571 67.1491C64.598 67.5895 64.8608 67.9517 65.0455 68.2358H65.3011V65.6364H67.7301V82.4688C67.7301 83.875 67.4105 85.0185 66.7713 85.8991C66.1392 86.7869 65.2869 87.4368 64.2145 87.8487C63.1491 88.2678 61.9631 88.4773 60.6562 88.4773ZM60.571 79.4858C61.5795 79.4858 62.4318 79.255 63.1278 78.7933C63.8239 78.3317 64.353 77.6676 64.7152 76.8011C65.0774 75.9347 65.2585 74.8977 65.2585 73.6903C65.2585 72.5114 65.081 71.4709 64.7259 70.5689C64.3707 69.6669 63.8452 68.9602 63.1491 68.4489C62.4531 67.9375 61.5938 67.6818 60.571 67.6818C59.5057 67.6818 58.6179 67.9517 57.9077 68.4915C57.2045 69.0312 56.6754 69.7557 56.3203 70.6648C55.9723 71.5739 55.7983 72.5824 55.7983 73.6903C55.7983 74.8267 55.9759 75.8317 56.331 76.7053C56.6932 77.5717 57.2259 78.2536 57.929 78.7507C58.6392 79.2408 59.5199 79.4858 60.571 79.4858ZM79.1932 82.3409C77.6165 82.3409 76.2564 81.9929 75.1129 81.2969C73.9766 80.5938 73.0994 79.6136 72.4815 78.3565C71.8707 77.0923 71.5653 75.6222 71.5653 73.946C71.5653 72.2699 71.8707 70.7926 72.4815 69.5142C73.0994 68.2287 73.9588 67.2273 75.0597 66.5099C76.1676 65.7855 77.4602 65.4233 78.9375 65.4233C79.7898 65.4233 80.6314 65.5653 81.4624 65.8494C82.2933 66.1335 83.0497 66.5952 83.7315 67.2344C84.4134 67.8665 84.9567 68.7045 85.3615 69.7486C85.7663 70.7926 85.9688 72.0781 85.9688 73.6051V74.6705H73.3551V72.4972H83.4119C83.4119 71.5739 83.2273 70.75 82.858 70.0256C82.4957 69.3011 81.9773 68.7294 81.3026 68.3104C80.6349 67.8913 79.8466 67.6818 78.9375 67.6818C77.9361 67.6818 77.0696 67.9304 76.3381 68.4276C75.6136 68.9176 75.0561 69.5568 74.6655 70.3452C74.2749 71.1335 74.0795 71.9787 74.0795 72.8807V74.3295C74.0795 75.5653 74.2926 76.6129 74.7188 77.4723C75.152 78.3246 75.7521 78.9744 76.5192 79.4219C77.2862 79.8622 78.1776 80.0824 79.1932 80.0824C79.8537 80.0824 80.4503 79.9901 80.983 79.8054C81.5227 79.6136 81.9879 79.3295 82.3786 78.9531C82.7692 78.5696 83.071 78.0937 83.2841 77.5256L85.7131 78.2074C85.4574 79.0312 85.0277 79.7557 84.424 80.3807C83.8203 80.9986 83.0746 81.4815 82.1868 81.8295C81.299 82.1705 80.3011 82.3409 79.1932 82.3409ZM92.3075 72.1562V82H89.7933V65.6364H92.2223V68.1932H92.4354C92.8189 67.3622 93.4013 66.6946 94.1825 66.1903C94.9638 65.679 95.9723 65.4233 97.2081 65.4233C98.3161 65.4233 99.2855 65.6506 100.116 66.1051C100.947 66.5526 101.594 67.2344 102.055 68.1506C102.517 69.0597 102.748 70.2102 102.748 71.6023V82H100.234V71.7727C100.234 70.4872 99.8999 69.4858 99.2322 68.7685C98.5646 68.044 97.6484 67.6818 96.4837 67.6818C95.6811 67.6818 94.9638 67.8558 94.3317 68.2038C93.7067 68.5518 93.2131 69.0597 92.8509 69.7273C92.4886 70.3949 92.3075 71.2045 92.3075 72.1562ZM114.459 65.6364V67.767H105.979V65.6364H114.459ZM108.45 61.7159H110.964V77.3125C110.964 78.0227 111.067 78.5554 111.273 78.9105C111.486 79.2585 111.756 79.4929 112.083 79.6136C112.417 79.7273 112.768 79.7841 113.138 79.7841C113.415 79.7841 113.642 79.7699 113.819 79.7415C113.997 79.706 114.139 79.6776 114.246 79.6562L114.757 81.9148C114.586 81.9787 114.349 82.0426 114.043 82.1065C113.738 82.1776 113.351 82.2131 112.882 82.2131C112.172 82.2131 111.476 82.0604 110.794 81.755C110.119 81.4496 109.558 80.9844 109.111 80.3594C108.67 79.7344 108.45 78.946 108.45 77.9943V61.7159ZM123.056 82.3835C122.019 82.3835 121.078 82.1882 120.233 81.7976C119.388 81.3999 118.716 80.8281 118.219 80.0824C117.722 79.3295 117.474 78.4205 117.474 77.3551C117.474 76.4176 117.658 75.6577 118.028 75.0753C118.397 74.4858 118.89 74.0241 119.508 73.6903C120.126 73.3565 120.808 73.108 121.554 72.9446C122.307 72.7741 123.063 72.6392 123.823 72.5398C124.817 72.4119 125.623 72.3161 126.241 72.2521C126.866 72.1811 127.321 72.0639 127.605 71.9006C127.896 71.7372 128.042 71.4531 128.042 71.0483V70.9631C128.042 69.9119 127.754 69.0952 127.179 68.5128C126.611 67.9304 125.748 67.6392 124.59 67.6392C123.39 67.6392 122.449 67.902 121.767 68.4276C121.085 68.9531 120.606 69.5142 120.329 70.1108L117.942 69.2585C118.368 68.2642 118.937 67.4901 119.647 66.9361C120.364 66.375 121.145 65.9844 121.991 65.7642C122.843 65.5369 123.681 65.4233 124.505 65.4233C125.03 65.4233 125.634 65.4872 126.316 65.6151C127.005 65.7358 127.669 65.9879 128.308 66.3714C128.954 66.755 129.491 67.3338 129.917 68.108C130.343 68.8821 130.556 69.919 130.556 71.2188V82H128.042V79.7841H127.914C127.743 80.1392 127.459 80.5192 127.062 80.924C126.664 81.3288 126.135 81.6733 125.474 81.9574C124.814 82.2415 124.008 82.3835 123.056 82.3835ZM123.439 80.125C124.434 80.125 125.272 79.9297 125.954 79.5391C126.643 79.1484 127.161 78.6442 127.509 78.0263C127.864 77.4084 128.042 76.7585 128.042 76.0767V73.7756C127.935 73.9034 127.701 74.0206 127.339 74.1271C126.983 74.2266 126.572 74.3153 126.103 74.3935C125.641 74.4645 125.19 74.5284 124.75 74.5852C124.317 74.6349 123.965 74.6776 123.695 74.7131C123.042 74.7983 122.431 74.9368 121.863 75.1286C121.302 75.3132 120.847 75.5937 120.499 75.9702C120.158 76.3395 119.988 76.8437 119.988 77.483C119.988 78.3565 120.311 79.017 120.957 79.4645C121.611 79.9048 122.438 80.125 123.439 80.125Z"></path>
</svg>
