<svg version="1.1" xmlns="http://www.w3.org/2000/svg" xmlns:xlink="http://www.w3.org/1999/xlink" width="139" height="164" viewBox="0,0,139,164"><g transform="translate(-170.5,-98)"><g data-paper-data="{&quot;isPaintingLayer&quot;:true}" fill-rule="nonzero" stroke="none" stroke-width="1" stroke-linecap="butt" stroke-linejoin="miter" stroke-miterlimit="10" stroke-dasharray="" stroke-dashoffset="0" style="mix-blend-mode: normal"><path d="M170.5,118c0,-11.04569 8.9543,-20 20,-20h99c11.046,0 20,8.95431 20,20v124c0,11.046 -8.954,20 -20,20h-99c-11.0457,0 -20,-8.954 -20,-20z" fill="#43d059"/><path d="M206.7102,233.455v14.545h-1.6761v-14.545zM214.354,248.227c-1.0511,0 -1.9578,-0.232 -2.7201,-0.696c-0.7576,-0.469 -1.3424,-1.122 -1.7543,-1.96c-0.4072,-0.843 -0.6108,-1.823 -0.6108,-2.94c0,-1.118 0.2036,-2.103 0.6108,-2.955c0.4119,-0.857 0.9849,-1.524 1.7188,-2.003c0.7386,-0.483 1.6003,-0.724 2.5852,-0.724c0.5682,0 1.1293,0.095 1.6832,0.284c0.554,0.189 1.0583,0.497 1.5128,0.923c0.4546,0.422 0.8168,0.98 1.0867,1.676c0.2699,0.696 0.4048,1.553 0.4048,2.571v0.711h-8.4091v-1.449h6.7045c0,-0.616 -0.1231,-1.165 -0.3693,-1.648c-0.2414,-0.483 -0.5871,-0.864 -1.0369,-1.143c-0.4451,-0.28 -0.9706,-0.419 -1.5767,-0.419c-0.6676,0 -1.2453,0.165 -1.733,0.497c-0.4829,0.326 -0.8546,0.753 -1.115,1.278c-0.2604,0.526 -0.3906,1.089 -0.3906,1.69v0.966c0,0.824 0.142,1.523 0.4261,2.096c0.2888,0.568 0.6889,1.001 1.2003,1.299c0.5113,0.294 1.1056,0.441 1.7826,0.441c0.4404,0 0.8381,-0.062 1.1932,-0.185c0.3599,-0.128 0.67,-0.317 0.9304,-0.568c0.2604,-0.256 0.4617,-0.573 0.6037,-0.952l1.6193,0.455c-0.1704,0.549 -0.4569,1.032 -0.8593,1.448c-0.4025,0.412 -0.8997,0.734 -1.4915,0.966c-0.5919,0.228 -1.2571,0.341 -1.9958,0.341zM226.1651,237.091v1.42h-5.6534v-1.42zM222.1594,234.477h1.6762v10.398c0,0.473 0.0686,0.829 0.2059,1.065c0.1421,0.232 0.322,0.389 0.5398,0.469c0.2226,0.076 0.4569,0.114 0.7031,0.114c0.1847,0 0.3362,-0.01 0.4546,-0.029c0.1184,-0.023 0.2131,-0.042 0.2841,-0.056l0.3409,1.505c-0.1136,0.043 -0.2723,0.085 -0.4759,0.128c-0.2036,0.047 -0.4616,0.071 -0.7741,0.071c-0.4735,0 -0.9375,-0.102 -1.3921,-0.305c-0.4498,-0.204 -0.8238,-0.514 -1.1221,-0.931c-0.2936,-0.416 -0.4404,-0.942 -0.4404,-1.576zM233.4308,237.091v1.42h-5.6535v-1.42zM229.4251,234.477h1.6761v10.398c0,0.473 0.0687,0.829 0.206,1.065c0.142,0.232 0.3219,0.389 0.5397,0.469c0.2226,0.076 0.457,0.114 0.7032,0.114c0.1846,0 0.3361,-0.01 0.4545,-0.029c0.1184,-0.023 0.2131,-0.042 0.2841,-0.056l0.3409,1.505c-0.1136,0.043 -0.2722,0.085 -0.4758,0.128c-0.2036,0.047 -0.4617,0.071 -0.7742,0.071c-0.4735,0 -0.9375,-0.102 -1.392,-0.305c-0.4498,-0.204 -0.8239,-0.514 -1.1222,-0.931c-0.2935,-0.416 -0.4403,-0.942 -0.4403,-1.576zM240.4087,248.227c-1.0511,0 -1.9578,-0.232 -2.7201,-0.696c-0.7576,-0.469 -1.3424,-1.122 -1.7543,-1.96c-0.4072,-0.843 -0.6108,-1.823 -0.6108,-2.94c0,-1.118 0.2036,-2.103 0.6108,-2.955c0.4119,-0.857 0.9849,-1.524 1.7188,-2.003c0.7386,-0.483 1.6003,-0.724 2.5852,-0.724c0.5682,0 1.1292,0.095 1.6832,0.284c0.554,0.189 1.0583,0.497 1.5128,0.923c0.4545,0.422 0.8168,0.98 1.0867,1.676c0.2698,0.696 0.4048,1.553 0.4048,2.571v0.711h-8.4091v-1.449h6.7045c0,-0.616 -0.1231,-1.165 -0.3693,-1.648c-0.2415,-0.483 -0.5871,-0.864 -1.0369,-1.143c-0.4451,-0.28 -0.9707,-0.419 -1.5767,-0.419c-0.6676,0 -1.2453,0.165 -1.733,0.497c-0.4829,0.326 -0.8546,0.753 -1.115,1.278c-0.2604,0.526 -0.3907,1.089 -0.3907,1.69v0.966c0,0.824 0.1421,1.523 0.4262,2.096c0.2888,0.568 0.6889,1.001 1.2003,1.299c0.5113,0.294 1.1056,0.441 1.7826,0.441c0.4404,0 0.8381,-0.062 1.1932,-0.185c0.3599,-0.128 0.67,-0.317 0.9304,-0.568c0.2604,-0.256 0.4617,-0.573 0.6037,-0.952l1.6193,0.455c-0.1704,0.549 -0.4569,1.032 -0.8593,1.448c-0.4025,0.412 -0.8997,0.734 -1.4915,0.966c-0.5919,0.228 -1.2571,0.341 -1.9958,0.341zM247.4755,248v-10.909h1.6193v1.648h0.1137c0.1988,-0.54 0.5587,-0.978 1.0795,-1.314c0.5208,-0.336 1.108,-0.505 1.7614,-0.505c0.1231,0 0.2769,0.003 0.4616,0.008c0.1847,0.004 0.3243,0.011 0.419,0.021v1.704c-0.0568,-0.014 -0.187,-0.035 -0.3906,-0.064c-0.1988,-0.033 -0.4095,-0.049 -0.6321,-0.049c-0.5303,0 -1.0038,0.111 -1.4204,0.334c-0.412,0.217 -0.7387,0.52 -0.9802,0.909c-0.2367,0.383 -0.3551,0.821 -0.3551,1.314v6.903zM272.474,238h-1.762c-0.104,-0.507 -0.286,-0.952 -0.547,-1.335c-0.255,-0.384 -0.568,-0.706 -0.937,-0.966c-0.365,-0.265 -0.769,-0.464 -1.215,-0.597c-0.445,-0.132 -0.909,-0.199 -1.392,-0.199c-0.8802,0 -1.6781,0.223 -2.393,0.668c-0.7102,0.445 -1.2761,1.101 -1.6975,1.967c-0.4166,0.867 -0.625,1.93 -0.625,3.189c0,1.26 0.2084,2.323 0.625,3.189c0.4214,0.867 0.9873,1.522 1.6975,1.968c0.7149,0.445 1.5128,0.667 2.393,0.667c0.483,0 0.947,-0.066 1.392,-0.199c0.446,-0.132 0.85,-0.329 1.215,-0.589c0.369,-0.265 0.682,-0.59 0.937,-0.973c0.261,-0.388 0.443,-0.834 0.547,-1.335h1.762c-0.133,0.743 -0.374,1.408 -0.725,1.995c-0.35,0.587 -0.786,1.087 -1.307,1.499c-0.52,0.407 -1.105,0.717 -1.754,0.93c-0.644,0.213 -1.333,0.32 -2.067,0.32c-1.2401,0 -2.3433,-0.303 -3.3092,-0.909c-0.9659,-0.606 -1.7259,-1.468 -2.2798,-2.585c-0.554,-1.118 -0.831,-2.444 -0.831,-3.978c0,-1.534 0.277,-2.86 0.831,-3.977c0.5539,-1.117 1.3139,-1.979 2.2798,-2.585c0.9659,-0.606 2.0691,-0.909 3.3092,-0.909c0.734,0 1.423,0.106 2.067,0.319c0.649,0.213 1.234,0.526 1.754,0.938c0.521,0.407 0.957,0.904 1.307,1.491c0.351,0.583 0.592,1.248 0.725,1.996z" fill="#000000"/><path d="M205.7313,154.1818v21.8182h-2.5568l-11.8893,-17.1307h-0.213v17.1307h-2.6421v-21.8182h2.5568l11.9319,17.1733h0.213v-17.1733zM220.9896,169.3097v-9.6733h2.5142v16.3636h-2.5142v-2.7699h-0.1704c-0.3836,0.831 -0.9802,1.5377 -1.7898,2.12c-0.8097,0.5753 -1.8324,0.863 -3.0682,0.863c-1.0227,0 -1.9318,-0.2238 -2.7273,-0.6712c-0.7954,-0.4545 -1.4204,-1.1364 -1.875,-2.0455c-0.4545,-0.9161 -0.6818,-2.0703 -0.6818,-3.4623v-10.3977h2.5142v10.2272c0,1.1932 0.3338,2.1449 1.0014,2.8552c0.6748,0.7102 1.5341,1.0653 2.5782,1.0653c0.625,0 1.2606,-0.1598 1.9069,-0.4794c0.6534,-0.3196 1.2003,-0.8097 1.6406,-1.4702c0.4475,-0.6605 0.6712,-1.5021 0.6712,-2.5248zM234.7565,176.3409c-1.5341,0 -2.8551,-0.3622 -3.9631,-1.0866c-1.1079,-0.7245 -1.9602,-1.7223 -2.5568,-2.9936c-0.5966,-1.2714 -0.8949,-2.7238 -0.8949,-4.3573c0,-1.6619 0.3054,-3.1285 0.9162,-4.3998c0.6179,-1.2785 1.4773,-2.2763 2.5781,-2.9937c1.108,-0.7244 2.4006,-1.0866 3.8779,-1.0866c1.1505,0 2.1875,0.2131 3.1108,0.6392c0.9233,0.4261 1.6797,1.0227 2.2691,1.7898c0.5895,0.767 0.9553,1.6619 1.0973,2.6846h-2.5142c-0.1917,-0.7457 -0.6179,-1.4062 -1.2784,-1.9815c-0.6534,-0.5824 -1.5341,-0.8736 -2.642,-0.8736c-0.9801,0 -1.8395,0.2557 -2.5781,0.7671c-0.7316,0.5042 -1.3033,1.218 -1.7152,2.1413c-0.4049,0.9162 -0.6073,1.9922 -0.6073,3.228c0,1.2642 0.1989,2.365 0.5966,3.3025c0.4048,0.9375 0.973,1.6655 1.7045,2.184c0.7387,0.5185 1.6052,0.7777 2.5995,0.7777c0.6534,0 1.2464,-0.1136 1.7791,-0.3409c0.5327,-0.2273 0.9837,-0.554 1.353,-0.9801c0.3693,-0.4262 0.6321,-0.9375 0.7883,-1.5341h2.5142c-0.142,0.9659 -0.4936,1.8359 -1.0546,2.6101c-0.554,0.767 -1.2891,1.3778 -2.2053,1.8323c-0.9091,0.4475 -1.9673,0.6712 -3.1747,0.6712zM247.3808,154.1818v21.8182h-2.5142v-21.8182zM258.8465,176.3409c-1.5767,0 -2.9368,-0.348 -4.0803,-1.044c-1.1363,-0.7031 -2.0134,-1.6833 -2.6313,-2.9404c-0.6108,-1.2642 -0.9162,-2.7343 -0.9162,-4.4105c0,-1.6761 0.3054,-3.1534 0.9162,-4.4318c0.6179,-1.2855 1.4772,-2.2869 2.5781,-3.0043c1.1079,-0.7244 2.4005,-1.0866 3.8778,-1.0866c0.8523,0 1.6939,0.142 2.5249,0.4261c0.8309,0.2841 1.5873,0.7458 2.2692,1.385c0.6818,0.6321 1.2251,1.4701 1.6299,2.5142c0.4049,1.044 0.6073,2.3295 0.6073,3.8565v1.0654h-12.6137v-2.1733h10.0569c0,-0.9233 -0.1847,-1.7472 -0.554,-2.4716c-0.3622,-0.7245 -0.8807,-1.2962 -1.5554,-1.7152c-0.6676,-0.4191 -1.456,-0.6286 -2.3651,-0.6286c-1.0014,0 -1.8679,0.2486 -2.5994,0.7458c-0.7244,0.49 -1.282,1.1292 -1.6726,1.9176c-0.3906,0.7883 -0.5859,1.6335 -0.5859,2.5355v1.4488c0,1.2358 0.213,2.2834 0.6392,3.1428c0.4332,0.8523 1.0334,1.5021 1.8004,1.9496c0.767,0.4403 1.6584,0.6605 2.674,0.6605c0.6605,0 1.2571,-0.0923 1.7898,-0.277c0.5397,-0.1918 1.0049,-0.4759 1.3956,-0.8523c0.3906,-0.3835 0.6924,-0.8594 0.9055,-1.4275l2.429,0.6818c-0.2557,0.8238 -0.6854,1.5483 -1.2891,2.1733c-0.6037,0.6179 -1.3494,1.1008 -2.2372,1.4488c-0.8878,0.341 -1.8856,0.5114 -2.9936,0.5114zM274.262,176.3835c-1.037,0 -1.978,-0.1953 -2.823,-0.5859c-0.845,-0.3977 -1.517,-0.9695 -2.014,-1.7152c-0.497,-0.7529 -0.745,-1.6619 -0.745,-2.7273c0,-0.9375 0.184,-1.6974 0.554,-2.2798c0.369,-0.5895 0.863,-1.0512 1.48,-1.385c0.618,-0.3338 1.3,-0.5823 2.046,-0.7457c0.753,-0.1705 1.509,-0.3054 2.269,-0.4048c0.994,-0.1279 1.8,-0.2237 2.418,-0.2877c0.625,-0.071 1.08,-0.1882 1.364,-0.3515c0.291,-0.1634 0.437,-0.4475 0.437,-0.8523v-0.0852c0,-1.0512 -0.288,-1.8679 -0.863,-2.4503c-0.568,-0.5824 -1.431,-0.8736 -2.589,-0.8736c-1.2,0 -2.141,0.2628 -2.823,0.7884c-0.682,0.5255 -1.161,1.0866 -1.438,1.6832l-2.387,-0.8523c0.426,-0.9943 0.995,-1.7684 1.705,-2.3224c0.717,-0.5611 1.498,-0.9517 2.344,-1.1719c0.852,-0.2273 1.69,-0.3409 2.514,-0.3409c0.525,0 1.129,0.0639 1.811,0.1918c0.689,0.1207 1.353,0.3728 1.992,0.7563c0.646,0.3836 1.183,0.9624 1.609,1.7366c0.426,0.7741 0.639,1.811 0.639,3.1108v10.7812h-2.514v-2.2159h-0.128c-0.171,0.3551 -0.455,0.7351 -0.852,1.1399c-0.398,0.4048 -0.927,0.7493 -1.588,1.0334c-0.66,0.2841 -1.466,0.4261 -2.418,0.4261zM274.646,174.125c0.994,0 1.832,-0.1953 2.514,-0.5859c0.689,-0.3907 1.207,-0.8949 1.555,-1.5128c0.355,-0.6179 0.533,-1.2678 0.533,-1.9496v-2.3011c-0.107,0.1278 -0.341,0.245 -0.703,0.3515c-0.355,0.0995 -0.767,0.1882 -1.236,0.2664c-0.462,0.071 -0.913,0.1349 -1.353,0.1917c-0.433,0.0497 -0.785,0.0924 -1.055,0.1279c-0.653,0.0852 -1.264,0.2237 -1.832,0.4155c-0.561,0.1846 -1.016,0.4651 -1.364,0.8416c-0.341,0.3693 -0.511,0.8735 -0.511,1.5128c0,0.8735 0.323,1.534 0.969,1.9815c0.654,0.4403 1.481,0.6605 2.483,0.6605zM286.351,176v-16.3636h2.429v2.4716h0.17c0.299,-0.8097 0.838,-1.4667 1.62,-1.9709c0.781,-0.5043 1.662,-0.7564 2.642,-0.7564c0.184,0 0.415,0.0035 0.692,0.0106c0.277,0.0071 0.487,0.0178 0.629,0.032v2.5568c-0.085,-0.0213 -0.281,-0.0533 -0.586,-0.0959c-0.298,-0.0497 -0.615,-0.0745 -0.948,-0.0745c-0.796,0 -1.506,0.1669 -2.131,0.5007c-0.618,0.3267 -1.108,0.7812 -1.47,1.3636c-0.355,0.5753 -0.533,1.2322 -0.533,1.9709v10.3551z" fill="#000000"/></g></g></svg>