<svg version="1.1" xmlns="http://www.w3.org/2000/svg" xmlns:xlink="http://www.w3.org/1999/xlink" width="238.60695" height="26.23654" viewBox="0,0,238.60695,26.23654"><g transform="translate(-120.69652,-166.88173)"><g data-paper-data="{&quot;isPaintingLayer&quot;:true}" fill="#ffffff" fill-rule="nonzero" stroke="none" stroke-width="1" stroke-linecap="butt" stroke-linejoin="miter" stroke-miterlimit="10" stroke-dasharray="" stroke-dashoffset="0" style="mix-blend-mode: normal"><path d="M123.0962,175.93193l-2.39968,-8.77596h1.07985l1.83403,7.1476h0.0857l1.86834,-7.1476h1.19983l1.86831,7.1476h0.0857l1.83405,-7.1476h1.07984l-2.39966,8.77596h-1.09701l-1.93687,-6.99334h-0.06856l-1.93689,6.99334zM133.83045,171.97247v3.95946h-1.01128v-8.77596h1.01128v3.22243h0.08573c0.15426,-0.33996 0.38564,-0.60991 0.69418,-0.80989c0.3114,-0.20283 0.72563,-0.30424 1.24269,-0.30424c0.44851,0 0.84132,0.08997 1.17841,0.26995c0.33709,0.17713 0.5985,0.44995 0.78418,0.81847c0.18855,0.36568 0.28282,0.83131 0.28282,1.39695v4.1823h-1.01128v-4.11372c0,-0.5228 -0.1357,-0.92702 -0.40708,-1.2127c-0.26854,-0.28853 -0.64136,-0.4328 -1.11843,-0.4328c-0.33139,0 -0.62849,0.06999 -0.89129,0.20996c-0.25997,0.14 -0.46566,0.34426 -0.61707,0.61277c-0.14855,0.26854 -0.22284,0.59422 -0.22284,0.97702zM141.88543,176.08619c-0.41709,0 -0.79559,-0.07856 -1.13555,-0.23568c-0.33996,-0.15996 -0.60991,-0.38994 -0.80989,-0.6899c-0.19998,-0.3028 -0.29996,-0.66848 -0.29996,-1.09699c0,-0.37709 0.07429,-0.68276 0.22284,-0.91701c0.14855,-0.23712 0.3471,-0.42282 0.59563,-0.55709c0.24853,-0.13424 0.52278,-0.23425 0.82274,-0.29994c0.30283,-0.06858 0.60707,-0.12286 0.91274,-0.16285c0.39994,-0.05141 0.72419,-0.08997 0.97272,-0.11569c0.25139,-0.02856 0.43423,-0.07569 0.54849,-0.14141c0.11715,-0.06571 0.1757,-0.17997 0.1757,-0.3428v-0.03429c0,-0.4228 -0.11569,-0.75132 -0.3471,-0.98557c-0.22854,-0.23427 -0.57562,-0.3514 -1.04128,-0.3514c-0.4828,0 -0.86133,0.10571 -1.13557,0.31711c-0.27425,0.2114 -0.46707,0.43707 -0.57848,0.67706l-0.95987,-0.34283c0.1714,-0.39994 0.39994,-0.71132 0.68563,-0.93416c0.28853,-0.22568 0.60277,-0.3828 0.94273,-0.47136c0.3428,-0.09141 0.6799,-0.13711 1.01128,-0.13711c0.2114,0 0.45422,0.02569 0.72847,0.07713c0.27711,0.04857 0.54422,0.14998 0.80132,0.30424c0.25997,0.15428 0.47566,0.3871 0.64706,0.69847c0.1714,0.3114 0.2571,0.72849 0.2571,1.25127v4.33656h-1.01128v-0.89132h-0.05141c-0.06858,0.14284 -0.18284,0.29569 -0.34283,0.45852c-0.15996,0.16283 -0.37279,0.3014 -0.63847,0.41566c-0.2657,0.11428 -0.58992,0.1714 -0.97275,0.1714zM142.03971,175.17775c0.39994,0 0.73704,-0.07856 1.01128,-0.23568c0.27711,-0.15712 0.48564,-0.35995 0.62562,-0.6085c0.14284,-0.24853 0.21426,-0.50993 0.21426,-0.78418v-0.92558c-0.04284,0.05144 -0.13711,0.09857 -0.28282,0.14141c-0.14284,0.04 -0.30854,0.07569 -0.49708,0.10712c-0.18568,0.02858 -0.36709,0.0543 -0.54419,0.07715c-0.17427,0.01999 -0.31568,0.03713 -0.42423,0.05141c-0.26283,0.03429 -0.50852,0.09 -0.73706,0.16713c-0.22568,0.07426 -0.40852,0.18711 -0.54849,0.33853c-0.13711,0.14855 -0.20569,0.35137 -0.20569,0.60848c0,0.3514 0.13,0.61707 0.38996,0.79705c0.26281,0.17711 0.59563,0.26567 0.99844,0.26567zM149.61049,169.34997v0.85703h-3.41092v-0.85703zM147.19358,167.77305h1.01136v6.27343c0,0.28568 0.04148,0.49992 0.12419,0.64277c0.08573,0.13998 0.19433,0.23425 0.32581,0.28282c0.13424,0.0457 0.27553,0.06856 0.4241,0.06856c0.11137,0 0.20288,-0.00571 0.27427,-0.01712c0.0714,-0.0143 0.12871,-0.02572 0.17145,-0.03429l0.20564,0.90844c-0.06863,0.02572 -0.16416,0.05144 -0.28709,0.07715c-0.12268,0.02856 -0.27855,0.04284 -0.46709,0.04284c-0.28558,0 -0.56564,-0.06142 -0.83991,-0.18425c-0.27125,-0.12286 -0.49701,-0.30997 -0.67701,-0.56136c-0.17698,-0.25139 -0.26572,-0.5685 -0.26572,-0.9513zM154.5255,175.93193v-6.58196h1.01136v6.58196zM155.03985,168.25296c-0.19734,0 -0.36729,-0.06712 -0.51008,-0.20139c-0.14003,-0.13427 -0.20991,-0.29567 -0.20991,-0.48421c0,-0.18855 0.06989,-0.34997 0.20991,-0.48424c0.14279,-0.13427 0.31273,-0.20139 0.51008,-0.20139c0.19709,0 0.36553,0.06712 0.50555,0.20139c0.14279,0.13427 0.21419,0.29569 0.21419,0.48424c0,0.18855 -0.0714,0.34994 -0.21419,0.48421c-0.14003,0.13427 -0.30846,0.20139 -0.50555,0.20139zM162.05125,170.82405l-0.90829,0.2571c-0.05732,-0.15139 -0.14154,-0.29853 -0.2529,-0.44135c-0.1086,-0.14571 -0.25718,-0.2657 -0.44572,-0.35997c-0.18855,-0.09427 -0.42988,-0.14141 -0.72427,-0.14141c-0.40273,0 -0.73835,0.09287 -1.00684,0.27855c-0.26572,0.18284 -0.39846,0.41566 -0.39846,0.69847c0,0.25139 0.09126,0.44995 0.27402,0.59563c0.18302,0.14571 0.4686,0.26711 0.85726,0.36425l0.97692,0.23996c0.58851,0.14284 1.02695,0.36138 1.31555,0.65564c0.2886,0.29139 0.43265,0.66705 0.43265,1.12698c0,0.37709 -0.10835,0.71421 -0.32556,1.01131c-0.21419,0.2971 -0.5141,0.53135 -0.89999,0.70275c-0.38564,0.1714 -0.83413,0.25713 -1.34546,0.25713c-0.67122,0 -1.22706,-0.14571 -1.667,-0.4371c-0.43994,-0.29139 -0.71823,-0.71705 -0.83538,-1.27696l0.95982,-0.23998c0.09126,0.35424 0.26422,0.61991 0.51838,0.79705c0.25718,0.17711 0.59279,0.26567 1.00709,0.26567c0.47136,0 0.84569,-0.09998 1.12273,-0.29996c0.28005,-0.20283 0.41983,-0.44565 0.41983,-0.72847c0,-0.22854 -0.07994,-0.41995 -0.23983,-0.57421c-0.16014,-0.15712 -0.40575,-0.27425 -0.73709,-0.35137l-1.09709,-0.25713c-0.60259,-0.14282 -1.04555,-0.36422 -1.32837,-0.66418c-0.2798,-0.3028 -0.41983,-0.68133 -0.41983,-1.13555c0,-0.37139 0.10433,-0.69991 0.31273,-0.98559c0.21142,-0.28568 0.49852,-0.50993 0.86128,-0.67276c0.36578,-0.16285 0.78008,-0.24425 1.24264,-0.24425c0.65136,0 1.1627,0.14284 1.53426,0.4285c0.37408,0.28568 0.6398,0.66278 0.79692,1.13128zM169.94982,169.34997v0.85703h-3.41092v-0.85703zM167.53316,167.77305h1.01111v6.27343c0,0.28568 0.04148,0.49992 0.12444,0.64277c0.08573,0.13998 0.19408,0.23425 0.32556,0.28282c0.13424,0.0457 0.27578,0.06856 0.42435,0.06856c0.11137,0 0.20262,-0.00571 0.27402,-0.01712c0.07165,-0.0143 0.12871,-0.02572 0.17145,-0.03429l0.20564,0.90844c-0.06838,0.02572 -0.16416,0.05144 -0.28709,0.07715c-0.12268,0.02856 -0.27855,0.04284 -0.46709,0.04284c-0.28558,0 -0.56564,-0.06142 -0.83966,-0.18425c-0.27151,-0.12286 -0.49726,-0.30997 -0.67726,-0.56136c-0.17698,-0.25139 -0.26547,-0.5685 -0.26547,-0.9513zM172.6239,171.97247v3.95946h-1.01136v-8.77596h1.01136v3.22243h0.08547c0.15436,-0.33996 0.38589,-0.60991 0.69435,-0.80989c0.31123,-0.20283 0.72552,-0.30424 1.24264,-0.30424c0.44849,0 0.84142,0.08997 1.17829,0.26995c0.33712,0.17713 0.59857,0.44995 0.78435,0.81847c0.18855,0.36568 0.28282,0.83131 0.28282,1.39695v4.1823h-1.01136v-4.11372c0,-0.5228 -0.13575,-0.92702 -0.40701,-1.2127c-0.26849,-0.28853 -0.64131,-0.4328 -1.11845,-0.4328c-0.33134,0 -0.62849,0.06999 -0.89145,0.20996c-0.25994,0.14 -0.46558,0.34426 -0.61692,0.61277c-0.14857,0.26854 -0.22274,0.59422 -0.22274,0.97702zM181.5014,176.06907c-0.63402,0 -1.18105,-0.14 -1.6411,-0.41995c-0.45704,-0.28282 -0.80999,-0.67706 -1.05837,-1.18269c-0.24561,-0.50852 -0.36854,-1.09985 -0.36854,-1.77407c0,-0.67419 0.12293,-1.26839 0.36854,-1.78261c0.24838,-0.51707 0.59405,-0.91988 1.037,-1.2084c0.44572,-0.29139 0.96561,-0.43707 1.55965,-0.43707c0.3429,0 0.68153,0.05712 1.01563,0.1714c0.33435,0.11426 0.63854,0.29996 0.91281,0.55707c0.27427,0.25426 0.49273,0.59136 0.65564,1.01128c0.1629,0.41995 0.2441,0.93702 0.2441,1.55123v0.4285h-5.07339v-0.87415h4.04494c0,-0.37139 -0.07416,-0.70277 -0.22274,-0.99416c-0.14556,-0.29139 -0.35421,-0.52137 -0.62572,-0.6899c-0.26849,-0.16856 -0.5855,-0.25283 -0.95128,-0.25283c-0.40273,0 -0.75117,0.09998 -1.04555,0.29996c-0.29137,0.19712 -0.51561,0.45422 -0.67273,0.77133c-0.15712,0.31708 -0.23556,0.65704 -0.23556,1.01986v0.58278c0,0.49706 0.08573,0.91844 0.25693,1.26411c0.17447,0.3428 0.41581,0.6042 0.72427,0.78418c0.30846,0.17711 0.66695,0.26567 1.07547,0.26567c0.26572,0 0.50581,-0.03713 0.71999,-0.11142c0.2172,-0.07713 0.40424,-0.19139 0.56136,-0.3428c0.15712,-0.15426 0.27855,-0.34567 0.36427,-0.57421l0.97692,0.27425c-0.10282,0.33139 -0.27553,0.62278 -0.51838,0.87417c-0.24285,0.24853 -0.54276,0.44281 -0.89999,0.58278c-0.35698,0.13711 -0.75846,0.20569 -1.20418,0.20569zM189.15913,178.40018v-9.0502h0.97692v1.04558h0.11992c0.07441,-0.11428 0.17723,-0.25997 0.30871,-0.4371c0.13424,-0.17997 0.32556,-0.33994 0.57419,-0.47994c0.25139,-0.14282 0.59128,-0.21424 1.01991,-0.21424c0.55407,0 1.04253,0.13854 1.46538,0.41566c0.42285,0.27711 0.75268,0.66992 0.98999,1.17841c0.23707,0.5085 0.35547,1.10842 0.35547,1.79976c0,0.69704 -0.11841,1.30124 -0.35547,1.81261c-0.23732,0.5085 -0.56564,0.90273 -0.98572,1.18269c-0.41983,0.27711 -0.90401,0.41568 -1.45256,0.41568c-0.42285,0 -0.76147,-0.07001 -1.01563,-0.20999c-0.25416,-0.14284 -0.45,-0.30424 -0.58701,-0.48421c-0.13726,-0.18284 -0.24285,-0.33425 -0.31726,-0.45422h-0.08573v3.47953zM190.15314,172.64095c0,0.49708 0.0729,0.93559 0.21871,1.31552c0.14556,0.37709 0.35849,0.67278 0.63829,0.88705c0.28005,0.2114 0.62296,0.31708 1.02846,0.31708c0.42285,0 0.77555,-0.11142 1.05837,-0.33423c0.28584,-0.2257 0.50002,-0.52851 0.64282,-0.90846c0.14581,-0.3828 0.21871,-0.80846 0.21871,-1.27696c0,-0.46279 -0.0714,-0.87988 -0.21444,-1.25127c-0.13978,-0.37423 -0.35271,-0.66992 -0.63829,-0.88702c-0.28282,-0.21997 -0.63854,-0.32996 -1.06717,-0.32996c-0.41128,0 -0.75695,0.10428 -1.037,0.31281c-0.2798,0.20569 -0.49122,0.49422 -0.63402,0.8656c-0.14304,0.36852 -0.21444,0.79845 -0.21444,1.28983zM196.51242,175.93193v-6.58196h0.97692v0.99414h0.06863c0.11992,-0.32566 0.33712,-0.58992 0.65136,-0.79275c0.31424,-0.20283 0.66846,-0.30424 1.06264,-0.30424c0.07416,0 0.16718,0.00143 0.27855,0.00427c0.11137,0.00287 0.19558,0.00714 0.2529,0.01287v1.02843c-0.03444,-0.00857 -0.11288,-0.02142 -0.23581,-0.03856c-0.11992,-0.02001 -0.24712,-0.02999 -0.38137,-0.02999c-0.32003,0 -0.60561,0.06712 -0.857,0.20139c-0.24863,0.1314 -0.44572,0.31424 -0.59128,0.54849c-0.14279,0.23141 -0.21444,0.49565 -0.21444,0.79275v4.16516zM203.4758,176.06907c-0.5943,0 -1.11569,-0.14141 -1.56418,-0.42423c-0.44572,-0.28282 -0.79416,-0.67849 -1.04555,-1.18698c-0.24863,-0.50852 -0.37282,-1.10272 -0.37282,-1.78261c0,-0.68563 0.12419,-1.28412 0.37282,-1.79549c0.25139,-0.51136 0.59983,-0.90844 1.04555,-1.19126c0.44849,-0.28282 0.96988,-0.42423 1.56418,-0.42423c0.59405,0 1.11393,0.14141 1.55965,0.42423c0.44849,0.28282 0.79717,0.6799 1.04555,1.19126c0.25139,0.51136 0.37709,1.10986 0.37709,1.79549c0,0.6799 -0.1257,1.27409 -0.37709,1.78261c-0.24838,0.5085 -0.59706,0.90417 -1.04555,1.18698c-0.44572,0.28282 -0.96561,0.42423 -1.55965,0.42423zM203.4758,175.1606c0.45125,0 0.82256,-0.11569 1.11393,-0.3471c0.29137,-0.23138 0.50706,-0.53562 0.64709,-0.91271c0.14003,-0.37709 0.20991,-0.78561 0.20991,-1.22555c0,-0.43994 -0.06989,-0.84989 -0.20991,-1.22985c-0.14003,-0.37996 -0.35572,-0.68704 -0.64709,-0.92131c-0.29137,-0.23425 -0.66268,-0.35137 -1.11393,-0.35137c-0.4515,0 -0.82281,0.11712 -1.11418,0.35137c-0.29137,0.23427 -0.50706,0.54135 -0.64709,0.92131c-0.14003,0.37996 -0.20991,0.78991 -0.20991,1.22985c0,0.43994 0.06989,0.84846 0.20991,1.22555c0.14003,0.37709 0.35572,0.68133 0.64709,0.91271c0.29137,0.23141 0.66268,0.3471 1.11418,0.3471zM210.67574,176.06907c-0.61692,0 -1.14837,-0.14571 -1.59409,-0.4371c-0.44547,-0.29139 -0.78837,-0.69277 -1.02846,-1.20413c-0.23983,-0.51134 -0.35975,-1.09555 -0.35975,-1.7526c0,-0.66848 0.12268,-1.25841 0.36829,-1.76977c0.24863,-0.51423 0.5943,-0.9156 1.037,-1.20413c0.44572,-0.29139 0.96561,-0.43707 1.5599,-0.43707c0.46282,0 0.87988,0.0857 1.25119,0.2571c0.37156,0.1714 0.67575,0.41138 0.91281,0.71989c0.23707,0.30854 0.38413,0.66848 0.44145,1.07987h-1.01136c-0.07718,-0.29996 -0.24863,-0.56564 -0.51435,-0.79705c-0.26271,-0.23425 -0.61692,-0.35137 -1.06264,-0.35137c-0.39419,0 -0.73985,0.10285 -1.037,0.30854c-0.29413,0.20283 -0.52416,0.48992 -0.68983,0.8613c-0.1629,0.36852 -0.24436,0.80132 -0.24436,1.2984c0,0.5085 0.07994,0.9513 0.24008,1.32839c0.1629,0.37709 0.39142,0.66992 0.68555,0.87845c0.29715,0.20853 0.64558,0.31281 1.04555,0.31281c0.26296,0 0.50153,-0.0457 0.71572,-0.13711c0.21419,-0.09143 0.3957,-0.22284 0.54427,-0.39424c0.14832,-0.1714 0.25416,-0.37709 0.31701,-0.61707h1.01136c-0.05732,0.38853 -0.1986,0.73847 -0.42435,1.04987c-0.22274,0.30851 -0.51838,0.5542 -0.88692,0.73704c-0.36578,0.17997 -0.79139,0.26997 -1.27708,0.26997zM217.50211,176.06907c-0.63427,0 -1.1813,-0.14 -1.64136,-0.41995c-0.45704,-0.28282 -0.80974,-0.67706 -1.05837,-1.18269c-0.24561,-0.50852 -0.36854,-1.09985 -0.36854,-1.77407c0,-0.67419 0.12293,-1.26839 0.36854,-1.78261c0.24863,-0.51707 0.5943,-0.91988 1.037,-1.2084c0.44572,-0.29139 0.96561,-0.43707 1.5599,-0.43707c0.34265,0 0.68128,0.05712 1.01538,0.1714c0.33435,0.11426 0.63854,0.29996 0.91281,0.55707c0.27427,0.25426 0.49273,0.59136 0.65564,1.01128c0.1629,0.41995 0.24436,0.93702 0.24436,1.55123v0.4285h-5.07365v-0.87415h4.04519c0,-0.37139 -0.07441,-0.70277 -0.22299,-0.99416c-0.14556,-0.29139 -0.35421,-0.52137 -0.62547,-0.6899c-0.26874,-0.16856 -0.58575,-0.25283 -0.95128,-0.25283c-0.40299,0 -0.75142,0.09998 -1.0458,0.29996c-0.29137,0.19712 -0.51561,0.45422 -0.67273,0.77133c-0.15712,0.31708 -0.23556,0.65704 -0.23556,1.01986v0.58278c0,0.49706 0.08573,0.91844 0.25718,1.26411c0.17422,0.3428 0.41556,0.6042 0.72402,0.78418c0.30846,0.17711 0.6672,0.26567 1.07572,0.26567c0.26547,0 0.50555,-0.03713 0.71974,-0.11142c0.2172,-0.07713 0.40424,-0.19139 0.56136,-0.3428c0.15712,-0.15426 0.27855,-0.34567 0.36427,-0.57421l0.97692,0.27425c-0.10282,0.33139 -0.27553,0.62278 -0.51838,0.87417c-0.24285,0.24853 -0.54276,0.44281 -0.89999,0.58278c-0.35698,0.13711 -0.75846,0.20569 -1.20393,0.20569zM226.42787,170.82405l-0.90829,0.2571c-0.05732,-0.15139 -0.14154,-0.29853 -0.2529,-0.44135c-0.1086,-0.14571 -0.25718,-0.2657 -0.44572,-0.35997c-0.18855,-0.09427 -0.42988,-0.14141 -0.72402,-0.14141c-0.40299,0 -0.7386,0.09287 -1.00709,0.27855c-0.26572,0.18284 -0.39846,0.41566 -0.39846,0.69847c0,0.25139 0.09126,0.44995 0.27427,0.59563c0.18276,0.14571 0.46835,0.26711 0.857,0.36425l0.97692,0.23996c0.58851,0.14284 1.02695,0.36138 1.31555,0.65564c0.2886,0.29139 0.4329,0.66705 0.4329,1.12698c0,0.37709 -0.1086,0.71421 -0.32581,1.01131c-0.21419,0.2971 -0.5141,0.53135 -0.89974,0.70275c-0.38589,0.1714 -0.83438,0.25713 -1.34572,0.25713c-0.67122,0 -1.22681,-0.14571 -1.66675,-0.4371c-0.43994,-0.29139 -0.71849,-0.71705 -0.83564,-1.27696l0.95982,-0.23998c0.09151,0.35424 0.26422,0.61991 0.51838,0.79705c0.25718,0.17711 0.59279,0.26567 1.00709,0.26567c0.47136,0 0.84569,-0.09998 1.12273,-0.29996c0.28005,-0.20283 0.41983,-0.44565 0.41983,-0.72847c0,-0.22854 -0.07994,-0.41995 -0.23983,-0.57421c-0.15989,-0.15712 -0.40575,-0.27425 -0.73709,-0.35137l-1.09709,-0.25713c-0.60259,-0.14282 -1.04555,-0.36422 -1.32837,-0.66418c-0.2798,-0.3028 -0.41983,-0.68133 -0.41983,-1.13555c0,-0.37139 0.10433,-0.69991 0.31273,-0.98559c0.21142,-0.28568 0.49852,-0.50993 0.86128,-0.67276c0.36578,-0.16285 0.78008,-0.24425 1.24289,-0.24425c0.65111,0 1.1627,0.14284 1.53401,0.4285c0.37408,0.28568 0.6398,0.66278 0.79692,1.13128zM232.73234,170.82405l-0.90829,0.2571c-0.05732,-0.15139 -0.14154,-0.29853 -0.2529,-0.44135c-0.1086,-0.14571 -0.25718,-0.2657 -0.44572,-0.35997c-0.18855,-0.09427 -0.42988,-0.14141 -0.72402,-0.14141c-0.40299,0 -0.7386,0.09287 -1.00709,0.27855c-0.26572,0.18284 -0.39846,0.41566 -0.39846,0.69847c0,0.25139 0.09126,0.44995 0.27427,0.59563c0.18276,0.14571 0.46835,0.26711 0.857,0.36425l0.97692,0.23996c0.58851,0.14284 1.02695,0.36138 1.31555,0.65564c0.2886,0.29139 0.4329,0.66705 0.4329,1.12698c0,0.37709 -0.1086,0.71421 -0.32581,1.01131c-0.21419,0.2971 -0.5141,0.53135 -0.89974,0.70275c-0.38564,0.1714 -0.83438,0.25713 -1.34572,0.25713c-0.67122,0 -1.22681,-0.14571 -1.66675,-0.4371c-0.43994,-0.29139 -0.71849,-0.71705 -0.83564,-1.27696l0.95982,-0.23998c0.09151,0.35424 0.26422,0.61991 0.51863,0.79705c0.25693,0.17711 0.59254,0.26567 1.00684,0.26567c0.47136,0 0.84569,-0.09998 1.12273,-0.29996c0.28005,-0.20283 0.42008,-0.44565 0.42008,-0.72847c0,-0.22854 -0.08019,-0.41995 -0.24008,-0.57421c-0.15989,-0.15712 -0.40575,-0.27425 -0.73709,-0.35137l-1.09683,-0.25713c-0.60284,-0.14282 -1.0458,-0.36422 -1.32862,-0.66418c-0.2798,-0.3028 -0.41983,-0.68133 -0.41983,-1.13555c0,-0.37139 0.10433,-0.69991 0.31273,-0.98559c0.21142,-0.28568 0.49852,-0.50993 0.86128,-0.67276c0.36578,-0.16285 0.78008,-0.24425 1.24289,-0.24425c0.65136,0 1.1627,0.14284 1.53401,0.4285c0.37433,0.28568 0.6398,0.66278 0.79692,1.13128zM237.90579,175.93193v-8.77596h1.01111v3.23957h0.08573c0.07441,-0.11428 0.17723,-0.25997 0.30846,-0.4371c0.1345,-0.17997 0.32581,-0.33994 0.57444,-0.47994c0.25139,-0.14282 0.59128,-0.21424 1.01966,-0.21424c0.55433,0 1.04278,0.13854 1.46563,0.41566c0.42285,0.27711 0.75268,0.66992 0.98974,1.17841c0.23732,0.5085 0.35572,1.10842 0.35572,1.79976c0,0.69704 -0.11841,1.30124 -0.35572,1.81261c-0.23707,0.5085 -0.56564,0.90273 -0.98547,1.18269c-0.42008,0.27711 -0.90427,0.41568 -1.45256,0.41568c-0.42285,0 -0.76147,-0.07001 -1.01563,-0.20999c-0.25441,-0.14284 -0.45,-0.30424 -0.58701,-0.48421c-0.13726,-0.18284 -0.24285,-0.33425 -0.31726,-0.45422h-0.11992v1.01128zM238.89981,172.64095c0,0.49708 0.0729,0.93559 0.21846,1.31552c0.14581,0.37709 0.35874,0.67278 0.63854,0.88705c0.28005,0.2114 0.6227,0.31708 1.02846,0.31708c0.42285,0 0.77555,-0.11142 1.05837,-0.33423c0.28584,-0.2257 0.50002,-0.52851 0.64282,-0.90846c0.14581,-0.3828 0.21846,-0.80846 0.21846,-1.27696c0,-0.46279 -0.0714,-0.87988 -0.21419,-1.25127c-0.14003,-0.37423 -0.35271,-0.66992 -0.63854,-0.88702c-0.28282,-0.21997 -0.63829,-0.32996 -1.06692,-0.32996c-0.41128,0 -0.75695,0.10428 -1.037,0.31281c-0.28005,0.20569 -0.49122,0.49422 -0.63427,0.8656c-0.14279,0.36852 -0.21419,0.79845 -0.21419,1.28983zM245.67891,178.40018c-0.17145,0 -0.3243,-0.01428 -0.45854,-0.04286c-0.13424,-0.02569 -0.22701,-0.05141 -0.27855,-0.07713l0.25718,-0.89129c0.24561,0.06285 0.46282,0.0857 0.65136,0.06856c0.18855,-0.01715 0.35572,-0.10141 0.50128,-0.25283c0.14857,-0.14855 0.28433,-0.38994 0.40701,-0.72419l0.18855,-0.5142l-2.43375,-6.61625h1.09683l1.81708,5.245h0.06838l1.81708,-5.245h1.09683l-2.79375,7.54184c-0.1257,0.33996 -0.28156,0.62135 -0.46709,0.84416c-0.18578,0.2257 -0.40148,0.3928 -0.64709,0.50138c-0.24285,0.10855 -0.51712,0.16283 -0.82281,0.16283zM256.62966,175.93193l-2.00563,-6.58196h1.0629l1.42264,5.0393h0.06838l1.40555,-5.0393h1.07999l1.38845,5.02218h0.06838l1.42264,-5.02218h1.0629l-2.00563,6.58196h-0.99401l-1.43974,-5.05645h-0.10307l-1.43974,5.05645zM265.95414,171.97247v3.95946h-1.01136v-8.77596h1.01136v3.22243h0.08547c0.15436,-0.33996 0.38589,-0.60991 0.69435,-0.80989c0.31123,-0.20283 0.72552,-0.30424 1.24264,-0.30424c0.44849,0 0.84142,0.08997 1.17829,0.26995c0.33712,0.17713 0.59857,0.44995 0.78435,0.81847c0.18855,0.36568 0.28282,0.83131 0.28282,1.39695v4.1823h-1.01136v-4.11372c0,-0.5228 -0.13575,-0.92702 -0.40701,-1.2127c-0.26849,-0.28853 -0.64131,-0.4328 -1.11845,-0.4328c-0.33134,0 -0.62849,0.06999 -0.89145,0.20996c-0.25994,0.14 -0.46558,0.34426 -0.61692,0.61277c-0.14857,0.26854 -0.22274,0.59422 -0.22274,0.97702zM272.07207,175.93193v-6.58196h1.01136v6.58196zM272.58643,168.25296c-0.19709,0 -0.36729,-0.06712 -0.51008,-0.20139c-0.14003,-0.13427 -0.20991,-0.29567 -0.20991,-0.48421c0,-0.18855 0.06989,-0.34997 0.20991,-0.48424c0.14279,-0.13427 0.31299,-0.20139 0.51008,-0.20139c0.19709,0 0.36553,0.06712 0.50555,0.20139c0.14279,0.13427 0.21419,0.29569 0.21419,0.48424c0,0.18855 -0.0714,0.34994 -0.21419,0.48421c-0.14003,0.13427 -0.30846,0.20139 -0.50555,0.20139zM277.60954,176.06907c-0.61692,0 -1.14837,-0.14571 -1.59409,-0.4371c-0.44547,-0.29139 -0.78837,-0.69277 -1.02846,-1.20413c-0.23983,-0.51134 -0.35975,-1.09555 -0.35975,-1.7526c0,-0.66848 0.12268,-1.25841 0.36829,-1.76977c0.24863,-0.51423 0.5943,-0.9156 1.037,-1.20413c0.44572,-0.29139 0.96561,-0.43707 1.5599,-0.43707c0.46282,0 0.87988,0.0857 1.25119,0.2571c0.37156,0.1714 0.67575,0.41138 0.91281,0.71989c0.23707,0.30854 0.38413,0.66848 0.44145,1.07987h-1.01136c-0.07718,-0.29996 -0.24863,-0.56564 -0.51435,-0.79705c-0.26271,-0.23425 -0.61692,-0.35137 -1.06264,-0.35137c-0.39419,0 -0.73985,0.10285 -1.037,0.30854c-0.29413,0.20283 -0.52416,0.48992 -0.68983,0.8613c-0.1629,0.36852 -0.24436,0.80132 -0.24436,1.2984c0,0.5085 0.07994,0.9513 0.24008,1.32839c0.1629,0.37709 0.39142,0.66992 0.68555,0.87845c0.29715,0.20853 0.64558,0.31281 1.04555,0.31281c0.26296,0 0.50153,-0.0457 0.71572,-0.13711c0.21419,-0.09143 0.3957,-0.22284 0.54427,-0.39424c0.14832,-0.1714 0.25416,-0.37709 0.31701,-0.61707h1.01136c-0.05732,0.38853 -0.1986,0.73847 -0.42435,1.04987c-0.22274,0.30851 -0.51838,0.5542 -0.88692,0.73704c-0.36578,0.17997 -0.79139,0.26997 -1.27708,0.26997zM282.68746,171.97247v3.95946h-1.01136v-8.77596h1.01136v3.22243h0.08573c0.15436,-0.33996 0.38564,-0.60991 0.6941,-0.80989c0.31148,-0.20283 0.72578,-0.30424 1.24289,-0.30424c0.44849,0 0.84117,0.08997 1.17829,0.26995c0.33712,0.17713 0.59857,0.44995 0.7841,0.81847c0.18855,0.36568 0.28282,0.83131 0.28282,1.39695v4.1823h-1.01111v-4.11372c0,-0.5228 -0.13575,-0.92702 -0.40726,-1.2127c-0.26849,-0.28853 -0.64131,-0.4328 -1.11845,-0.4328c-0.33134,0 -0.62849,0.06999 -0.89119,0.20996c-0.25994,0.14 -0.46558,0.34426 -0.61717,0.61277c-0.14832,0.26854 -0.22274,0.59422 -0.22274,0.97702zM292.19948,178.40018v-9.0502h0.97692v1.04558h0.11992c0.07441,-0.11428 0.17723,-0.25997 0.30871,-0.4371c0.13424,-0.17997 0.32556,-0.33994 0.57419,-0.47994c0.25139,-0.14282 0.59128,-0.21424 1.01991,-0.21424c0.55407,0 1.04253,0.13854 1.46538,0.41566c0.42285,0.27711 0.75268,0.66992 0.98999,1.17841c0.23707,0.5085 0.35547,1.10842 0.35547,1.79976c0,0.69704 -0.11841,1.30124 -0.35547,1.81261c-0.23732,0.5085 -0.56564,0.90273 -0.98572,1.18269c-0.41983,0.27711 -0.90401,0.41568 -1.45256,0.41568c-0.42285,0 -0.76147,-0.07001 -1.01563,-0.20999c-0.25416,-0.14284 -0.45,-0.30424 -0.58701,-0.48421c-0.13726,-0.18284 -0.24285,-0.33425 -0.31726,-0.45422h-0.08573v3.47953zM293.19349,172.64095c0,0.49708 0.0729,0.93559 0.21871,1.31552c0.14556,0.37709 0.35849,0.67278 0.63829,0.88705c0.28005,0.2114 0.62296,0.31708 1.02846,0.31708c0.42285,0 0.77555,-0.11142 1.05837,-0.33423c0.28584,-0.2257 0.50002,-0.52851 0.64282,-0.90846c0.14581,-0.3828 0.21871,-0.80846 0.21871,-1.27696c0,-0.46279 -0.0714,-0.87988 -0.21444,-1.25127c-0.13978,-0.37423 -0.35271,-0.66992 -0.63829,-0.88702c-0.28282,-0.21997 -0.63854,-0.32996 -1.06717,-0.32996c-0.41128,0 -0.75695,0.10428 -1.037,0.31281c-0.2798,0.20569 -0.49122,0.49422 -0.63402,0.8656c-0.14304,0.36852 -0.21444,0.79845 -0.21444,1.28983zM300.56388,167.15597v8.77596h-1.01111v-8.77596zM304.35315,176.08619c-0.41706,0 -0.79566,-0.07856 -1.13555,-0.23568c-0.33989,-0.15996 -0.60988,-0.38994 -0.80999,-0.6899c-0.19986,-0.3028 -0.29991,-0.66848 -0.29991,-1.09699c0,-0.37709 0.07441,-0.68276 0.22274,-0.91701c0.14857,-0.23712 0.34718,-0.42282 0.59581,-0.55709c0.24838,-0.13424 0.52265,-0.23425 0.82256,-0.29994c0.30293,-0.06858 0.60712,-0.12286 0.91281,-0.16285c0.39997,-0.05141 0.72427,-0.08997 0.97265,-0.11569c0.25139,-0.02856 0.43441,-0.07569 0.54854,-0.14141c0.11715,-0.06571 0.17572,-0.17997 0.17572,-0.3428v-0.03429c0,-0.4228 -0.11564,-0.75132 -0.34718,-0.98557c-0.22852,-0.23427 -0.57544,-0.3514 -1.04128,-0.3514c-0.48268,0 -0.86128,0.10571 -1.13555,0.31711c-0.27427,0.2114 -0.46709,0.43707 -0.57846,0.67706l-0.95982,-0.34283c0.17145,-0.39994 0.39997,-0.71132 0.68555,-0.93416c0.2886,-0.22568 0.60284,-0.3828 0.94273,-0.47136c0.3429,-0.09141 0.68002,-0.13711 1.01136,-0.13711c0.21142,0 0.45427,0.02569 0.72854,0.07713c0.27704,0.04857 0.54427,0.14998 0.80119,0.30424c0.25994,0.15428 0.47564,0.3871 0.64709,0.69847c0.17145,0.3114 0.25718,0.72849 0.25718,1.25127v4.33656h-1.01136v-0.89132h-0.05128c-0.06863,0.14284 -0.18302,0.29569 -0.3429,0.45852c-0.15989,0.16283 -0.37282,0.3014 -0.63854,0.41566c-0.26572,0.11428 -0.58977,0.1714 -0.97265,0.1714zM304.5075,175.17775c0.39972,0 0.73684,-0.07856 1.01111,-0.23568c0.27729,-0.15712 0.48569,-0.35995 0.62572,-0.6085c0.14279,-0.24853 0.21419,-0.50993 0.21419,-0.78418v-0.92558c-0.04274,0.05144 -0.13701,0.09857 -0.28282,0.14141c-0.14279,0.04 -0.30846,0.07569 -0.49701,0.10712c-0.18578,0.02858 -0.36704,0.0543 -0.54427,0.07715c-0.17422,0.01999 -0.31575,0.03713 -0.4241,0.05141c-0.26296,0.03429 -0.50857,0.09 -0.73709,0.16713c-0.22575,0.07426 -0.40852,0.18711 -0.54854,0.33853c-0.13701,0.14855 -0.20564,0.35137 -0.20564,0.60848c0,0.3514 0.12997,0.61707 0.38991,0.79705c0.26271,0.17711 0.59555,0.26567 0.99854,0.26567zM310.22698,171.97247v3.95946h-1.01136v-6.58196h0.97717v1.02843h0.08547c0.15436,-0.33425 0.38866,-0.60277 0.7029,-0.80562c0.31424,-0.20567 0.71999,-0.30851 1.217,-0.30851c0.44572,0 0.83564,0.09141 1.16974,0.27425c0.33435,0.17997 0.5943,0.45422 0.78008,0.82274c0.18553,0.36568 0.27829,0.82847 0.27829,1.38838v4.1823h-1.01111v-4.11372c0,-0.51709 -0.13424,-0.91988 -0.40299,-1.20843c-0.26849,-0.29137 -0.63703,-0.43707 -1.10538,-0.43707c-0.32279,0 -0.61139,0.06999 -0.86555,0.20996c-0.25139,0.14 -0.45,0.34426 -0.59581,0.61277c-0.14556,0.26854 -0.21846,0.59422 -0.21846,0.97702zM319.13691,169.34997v0.85703h-3.41117v-0.85703zM316.72,167.77305h1.01136v6.27343c0,0.28568 0.04148,0.49992 0.12419,0.64277c0.08573,0.13998 0.19433,0.23425 0.32581,0.28282c0.13424,0.0457 0.27553,0.06856 0.4241,0.06856c0.11137,0 0.20288,-0.00571 0.27427,-0.01712c0.0714,-0.0143 0.12846,-0.02572 0.17145,-0.03429l0.20564,0.90844c-0.06863,0.02572 -0.16416,0.05144 -0.28709,0.07715c-0.12293,0.02856 -0.27855,0.04284 -0.46709,0.04284c-0.28558,0 -0.56564,-0.06142 -0.83991,-0.18425c-0.27125,-0.12286 -0.49701,-0.30997 -0.67701,-0.56136c-0.17723,-0.25139 -0.26572,-0.5685 -0.26572,-0.9513zM325.20256,170.82405l-0.90854,0.2571c-0.05707,-0.15139 -0.14154,-0.29853 -0.2529,-0.44135c-0.1086,-0.14571 -0.25718,-0.2657 -0.44572,-0.35997c-0.18855,-0.09427 -0.42988,-0.14141 -0.72402,-0.14141c-0.40273,0 -0.7386,0.09287 -1.00709,0.27855c-0.26572,0.18284 -0.39846,0.41566 -0.39846,0.69847c0,0.25139 0.09151,0.44995 0.27427,0.59563c0.18276,0.14571 0.46835,0.26711 0.857,0.36425l0.97692,0.23996c0.58851,0.14284 1.02695,0.36138 1.31555,0.65564c0.2886,0.29139 0.4329,0.66705 0.4329,1.12698c0,0.37709 -0.1086,0.71421 -0.32581,1.01131c-0.21419,0.2971 -0.5141,0.53135 -0.89974,0.70275c-0.38564,0.1714 -0.83413,0.25713 -1.34546,0.25713c-0.67147,0 -1.22706,-0.14571 -1.667,-0.4371c-0.43994,-0.29139 -0.71849,-0.71705 -0.83564,-1.27696l0.95982,-0.23998c0.09151,0.35424 0.26422,0.61991 0.51863,0.79705c0.25693,0.17711 0.59279,0.26567 1.00684,0.26567c0.47136,0 0.84569,-0.09998 1.12273,-0.29996c0.28005,-0.20283 0.42008,-0.44565 0.42008,-0.72847c0,-0.22854 -0.07994,-0.41995 -0.24008,-0.57421c-0.15989,-0.15712 -0.4055,-0.27425 -0.73709,-0.35137l-1.09683,-0.25713c-0.60284,-0.14282 -1.04555,-0.36422 -1.32837,-0.66418c-0.28005,-0.3028 -0.42008,-0.68133 -0.42008,-1.13555c0,-0.37139 0.10433,-0.69991 0.31273,-0.98559c0.21142,-0.28568 0.49852,-0.50993 0.86153,-0.67276c0.36553,-0.16285 0.77983,-0.24425 1.24264,-0.24425c0.65136,0 1.1627,0.14284 1.53401,0.4285c0.37433,0.28568 0.64005,0.66278 0.79717,1.13128zM330.23849,175.93193v-6.58196h0.97717v1.02843h0.08547c0.13726,-0.35137 0.35874,-0.62421 0.66444,-0.81847c0.30544,-0.19712 0.67273,-0.29567 1.10111,-0.29567c0.43416,0 0.79566,0.09855 1.08426,0.29567c0.29137,0.19425 0.51838,0.46709 0.68128,0.81847h0.06863c0.16843,-0.33996 0.42134,-0.60991 0.75846,-0.80989c0.33712,-0.20283 0.74136,-0.30424 1.21273,-0.30424c0.58826,0 1.06968,0.18425 1.44401,0.55277c0.37433,0.36568 0.56136,0.93559 0.56136,1.70978v4.40511h-1.01136v-4.40511c0,-0.48564 -0.13274,-0.83274 -0.39846,-1.0413c-0.26572,-0.20853 -0.57846,-0.31281 -0.93846,-0.31281c-0.46282,0 -0.82131,0.13998 -1.07547,0.41995c-0.25441,0.27709 -0.38162,0.62849 -0.38162,1.05412v4.28515h-1.0282v-4.50796c0,-0.37425 -0.12142,-0.67562 -0.36427,-0.90417c-0.24285,-0.23141 -0.55583,-0.3471 -0.93846,-0.3471c-0.26296,0 -0.50857,0.06999 -0.73709,0.20996c-0.22575,0.14 -0.40852,0.33425 -0.54854,0.58278c-0.13701,0.24569 -0.20564,0.52994 -0.20564,0.85276v4.11372zM342.66317,176.08619c-0.41706,0 -0.79541,-0.07856 -1.13555,-0.23568c-0.33989,-0.15996 -0.60988,-0.38994 -0.80974,-0.6899c-0.20011,-0.3028 -0.29991,-0.66848 -0.29991,-1.09699c0,-0.37709 0.07416,-0.68276 0.22274,-0.91701c0.14857,-0.23712 0.34718,-0.42282 0.59555,-0.55709c0.24863,-0.13424 0.5229,-0.23425 0.82281,-0.29994c0.30293,-0.06858 0.60712,-0.12286 0.91281,-0.16285c0.39997,-0.05141 0.72402,-0.08997 0.97265,-0.11569c0.25139,-0.02856 0.43416,-0.07569 0.54854,-0.14141c0.11715,-0.06571 0.17572,-0.17997 0.17572,-0.3428v-0.03429c0,-0.4228 -0.11564,-0.75132 -0.34718,-0.98557c-0.22852,-0.23427 -0.57569,-0.3514 -1.04128,-0.3514c-0.48268,0 -0.86128,0.10571 -1.13555,0.31711c-0.27427,0.2114 -0.46709,0.43707 -0.57846,0.67706l-0.95982,-0.34283c0.1712,-0.39994 0.39997,-0.71132 0.68555,-0.93416c0.2886,-0.22568 0.60284,-0.3828 0.94273,-0.47136c0.3429,-0.09141 0.67977,-0.13711 1.01136,-0.13711c0.21142,0 0.45402,0.02569 0.72829,0.07713c0.27729,0.04857 0.54427,0.14998 0.80145,0.30424c0.25994,0.15428 0.47564,0.3871 0.64709,0.69847c0.17145,0.3114 0.25693,0.72849 0.25693,1.25127v4.33656h-1.01111v-0.89132h-0.05154c-0.06863,0.14284 -0.18276,0.29569 -0.34265,0.45852c-0.16014,0.16283 -0.37282,0.3014 -0.63854,0.41566c-0.26572,0.11428 -0.59002,0.1714 -0.9729,0.1714zM342.81752,175.17775c0.39997,0 0.73709,-0.07856 1.01136,-0.23568c0.27704,-0.15712 0.48569,-0.35995 0.62547,-0.6085c0.14304,-0.24853 0.21444,-0.50993 0.21444,-0.78418v-0.92558c-0.04299,0.05144 -0.13726,0.09857 -0.28282,0.14141c-0.14279,0.04 -0.30871,0.07569 -0.49726,0.10712c-0.18553,0.02858 -0.36704,0.0543 -0.54402,0.07715c-0.17422,0.01999 -0.31575,0.03713 -0.42435,0.05141c-0.26271,0.03429 -0.50857,0.09 -0.73709,0.16713c-0.2255,0.07426 -0.40852,0.18711 -0.54829,0.33853c-0.13726,0.14855 -0.20589,0.35137 -0.20589,0.60848c0,0.3514 0.12997,0.61707 0.39016,0.79705c0.26271,0.17711 0.59555,0.26567 0.99829,0.26567zM348.46862,173.53225l-0.01709,-1.25124h0.20564l2.87947,-2.93103h1.25144l-3.06827,3.10244h-0.08573zM347.52589,175.93193v-8.77596h1.01136v8.77596zM351.70809,175.93193l-2.57101,-3.25669l0.71999,-0.70277l3.13665,3.95946zM356.57811,176.06907c-0.63402,0 -1.1813,-0.14 -1.6411,-0.41995c-0.45704,-0.28282 -0.80999,-0.67706 -1.05837,-1.18269c-0.24586,-0.50852 -0.36854,-1.09985 -0.36854,-1.77407c0,-0.67419 0.12268,-1.26839 0.36854,-1.78261c0.24838,-0.51707 0.59405,-0.91988 1.037,-1.2084c0.44547,-0.29139 0.96561,-0.43707 1.55965,-0.43707c0.3429,0 0.68128,0.05712 1.01563,0.1714c0.33435,0.11426 0.63854,0.29996 0.91281,0.55707c0.27427,0.25426 0.49273,0.59136 0.65564,1.01128c0.16265,0.41995 0.2441,0.93702 0.2441,1.55123v0.4285h-5.07365v-0.87415h4.04519c0,-0.37139 -0.07416,-0.70277 -0.22274,-0.99416c-0.14581,-0.29139 -0.35421,-0.52137 -0.62572,-0.6899c-0.26849,-0.16856 -0.5855,-0.25283 -0.95128,-0.25283c-0.40273,0 -0.75117,0.09998 -1.04555,0.29996c-0.29137,0.19712 -0.51561,0.45422 -0.67273,0.77133c-0.15712,0.31708 -0.23556,0.65704 -0.23556,1.01986v0.58278c0,0.49706 0.08547,0.91844 0.25693,1.26411c0.17422,0.3428 0.41581,0.6042 0.72427,0.78418c0.30846,0.17711 0.66695,0.26567 1.07547,0.26567c0.26572,0 0.50581,-0.03713 0.71999,-0.11142c0.2172,-0.07713 0.40424,-0.19139 0.56136,-0.3428c0.15712,-0.15426 0.27855,-0.34567 0.36427,-0.57421l0.97692,0.27425c-0.10282,0.33139 -0.27553,0.62278 -0.51838,0.87417c-0.24285,0.24853 -0.54276,0.44281 -0.89999,0.58278c-0.35698,0.13711 -0.75846,0.20569 -1.20418,0.20569zM124.22748,183.93086v0.85703h-3.41097v-0.85703zM121.81066,182.35393h1.01129v6.27343c0,0.28568 0.04142,0.49992 0.12427,0.64277c0.0857,0.13998 0.19426,0.23425 0.32566,0.28287c0.13427,0.04575 0.27568,0.06863 0.42423,0.06863c0.11142,0 0.20285,-0.00578 0.27427,-0.01735c0.0714,-0.01408 0.12854,-0.02564 0.1714,-0.03419l0.20569,0.90854c-0.06858,0.02564 -0.16429,0.05128 -0.28712,0.07693c-0.12283,0.02866 -0.27852,0.04299 -0.46707,0.04299c-0.28568,0 -0.56564,-0.06134 -0.8399,-0.18427c-0.27139,-0.12293 -0.49708,-0.30997 -0.67705,-0.56136c-0.17712,-0.25139 -0.26568,-0.5685 -0.26568,-0.9513zM126.90139,186.55335v3.95946h-1.01128v-8.77596h1.01128v3.22243h0.08573c0.15426,-0.33996 0.38564,-0.60991 0.69418,-0.80989c0.3114,-0.20283 0.72563,-0.30424 1.24269,-0.30424c0.44851,0 0.84132,0.08997 1.17841,0.26995c0.33709,0.17713 0.5985,0.44995 0.78418,0.81847c0.18855,0.36568 0.28282,0.83131 0.28282,1.39695v4.1823h-1.01128v-4.11372c0,-0.5228 -0.1357,-0.92702 -0.40708,-1.2127c-0.26854,-0.28853 -0.64136,-0.4328 -1.11843,-0.4328c-0.33139,0 -0.62849,0.06999 -0.89129,0.20996c-0.25997,0.14 -0.46566,0.34426 -0.61707,0.61277c-0.14855,0.26854 -0.22284,0.59422 -0.22284,0.97702zM135.77913,190.64983c-0.63422,0 -1.18128,-0.13978 -1.6412,-0.41983c-0.45709,-0.28282 -0.80989,-0.67701 -1.05845,-1.18269c-0.24566,-0.50852 -0.36852,-1.09985 -0.36852,-1.77407c0,-0.67419 0.12286,-1.26839 0.36852,-1.78261c0.24855,-0.51707 0.59422,-0.91988 1.037,-1.2084c0.44567,-0.29139 0.96558,-0.43707 1.5598,-0.43707c0.3428,0 0.68133,0.05712 1.01556,0.1714c0.33425,0.11426 0.63849,0.29996 0.91274,0.55707c0.27425,0.25426 0.49281,0.59136 0.65564,1.01128c0.16283,0.41995 0.24425,0.93702 0.24425,1.55123v0.4285h-5.0736v-0.87415h4.04516c0,-0.37139 -0.07429,-0.70277 -0.22284,-0.99416c-0.14568,-0.29139 -0.35424,-0.52137 -0.62562,-0.6899c-0.26854,-0.16856 -0.58565,-0.25283 -0.9513,-0.25283c-0.40281,0 -0.75134,0.09998 -1.04558,0.29996c-0.29139,0.19712 -0.51566,0.45422 -0.67278,0.77133c-0.15712,0.31708 -0.23568,0.65704 -0.23568,1.01986v0.58278c0,0.49706 0.08573,0.91844 0.25713,1.26411c0.17427,0.3428 0.41566,0.6042 0.72419,0.78418c0.30851,0.17723 0.66705,0.26572 1.07557,0.26572c0.26567,0 0.50563,-0.03721 0.71989,-0.11137c0.2171,-0.07718 0.40424,-0.19149 0.56136,-0.3429c0.15712,-0.15426 0.27852,-0.34567 0.36422,-0.57421l0.97702,0.27425c-0.10285,0.33139 -0.27568,0.62275 -0.5185,0.87415c-0.24282,0.24863 -0.54279,0.44271 -0.89989,0.58273c-0.35708,0.13726 -0.75846,0.20564 -1.2041,0.20564zM140.04284,190.51282v-6.58196h1.01128v6.58196zM140.55704,182.83385c-0.19709,0 -0.36709,-0.06712 -0.50993,-0.20139c-0.13998,-0.13427 -0.20996,-0.29567 -0.20996,-0.48421c0,-0.18855 0.06999,-0.34997 0.20996,-0.48424c0.14284,-0.13427 0.31284,-0.20139 0.50993,-0.20139c0.19712,0 0.36568,0.06712 0.50566,0.20139c0.14284,0.13427 0.21426,0.29569 0.21426,0.48424c0,0.18855 -0.07142,0.34994 -0.21426,0.48421c-0.13998,0.13427 -0.30854,0.20139 -0.50566,0.20139zM142.90637,190.51282v-6.58196h0.97702v0.99414h0.06856c0.11999,-0.32566 0.33709,-0.58992 0.65134,-0.79275c0.31424,-0.20283 0.66848,-0.30424 1.06282,-0.30424c0.07416,0 0.16693,0.00143 0.27855,0.00427c0.11137,0.00287 0.19558,0.00714 0.25265,0.01287v1.02843c-0.03419,-0.00857 -0.11288,-0.02142 -0.23556,-0.03856c-0.12017,-0.02001 -0.24712,-0.02999 -0.38137,-0.02999c-0.32003,0 -0.60571,0.06712 -0.8571,0.20139c-0.24853,0.1314 -0.44565,0.31424 -0.59136,0.54849c-0.14284,0.23141 -0.21426,0.49565 -0.21426,0.79275v4.16516zM153.46386,190.64983c-0.5943,0 -1.11544,-0.14128 -1.56418,-0.4241c-0.44547,-0.28282 -0.79416,-0.67851 -1.04555,-1.18698c-0.24838,-0.50852 -0.37282,-1.10272 -0.37282,-1.78261c0,-0.68563 0.12444,-1.28412 0.37282,-1.79549c0.25139,-0.51136 0.60008,-0.90844 1.04555,-1.19126c0.44874,-0.28282 0.96988,-0.42423 1.56418,-0.42423c0.5943,0 1.11418,0.14141 1.5599,0.42423c0.44849,0.28282 0.79692,0.6799 1.04555,1.19126c0.25139,0.51136 0.37709,1.10986 0.37709,1.79549c0,0.6799 -0.1257,1.27409 -0.37709,1.78261c-0.24863,0.50847 -0.59706,0.90417 -1.04555,1.18698c-0.44572,0.28282 -0.96561,0.4241 -1.5599,0.4241zM153.46386,189.74154c0.4515,0 0.82281,-0.11564 1.11418,-0.34715c0.29137,-0.23138 0.50706,-0.53562 0.64709,-0.91271c0.14003,-0.37709 0.20991,-0.78561 0.20991,-1.22555c0,-0.43994 -0.06989,-0.84989 -0.20991,-1.22985c-0.14003,-0.37996 -0.35572,-0.68704 -0.64709,-0.92131c-0.29137,-0.23425 -0.66268,-0.35137 -1.11418,-0.35137c-0.45125,0 -0.82281,0.11712 -1.11418,0.35137c-0.29137,0.23427 -0.50706,0.54135 -0.64709,0.92131c-0.13978,0.37996 -0.20991,0.78991 -0.20991,1.22985c0,0.43994 0.07014,0.84846 0.20991,1.22555c0.14003,0.37709 0.35572,0.68133 0.64709,0.91271c0.29137,0.23151 0.66293,0.34715 1.11418,0.34715zM159.2575,190.51282l-2.00563,-6.58196h1.0629l1.42264,5.0393h0.06838l1.40555,-5.0393h1.07999l1.3882,5.02218h0.06863l1.42264,-5.02218h1.0629l-2.00563,6.58196h-0.99401l-1.43999,-5.05645h-0.10282l-1.43974,5.05645zM168.58173,186.55335v3.95946h-1.01111v-6.58196h0.97692v1.02843h0.08573c0.15436,-0.33425 0.3884,-0.60277 0.70265,-0.80562c0.31424,-0.20567 0.71999,-0.30851 1.217,-0.30851c0.44572,0 0.83564,0.09141 1.16999,0.27425c0.3341,0.17997 0.59405,0.45422 0.77983,0.82274c0.18578,0.36568 0.27855,0.82847 0.27855,1.38838v4.1823h-1.01136v-4.11372c0,-0.51709 -0.13424,-0.91988 -0.40273,-1.20843c-0.26849,-0.29137 -0.63703,-0.43707 -1.10563,-0.43707c-0.32279,0 -0.61139,0.06999 -0.86555,0.20996c-0.25139,0.14 -0.45,0.34426 -0.59555,0.61277c-0.14581,0.26854 -0.21871,0.59422 -0.21871,0.97702zM180.95411,183.93086v0.85703h-3.54818v-0.85703zM178.46882,190.51282v-7.49043c0,-0.37709 0.08849,-0.69134 0.26547,-0.94273c0.17723,-0.25139 0.40726,-0.43994 0.69008,-0.56564c0.28282,-0.1257 0.58122,-0.18855 0.89547,-0.18855c0.24863,0 0.4515,0.02001 0.60863,0.06001c0.15712,0.04 0.27427,0.07713 0.3512,0.11142l-0.29137,0.87415c-0.05128,-0.01712 -0.12268,-0.03856 -0.21419,-0.06426c-0.08849,-0.02572 -0.20564,-0.03859 -0.35145,-0.03859c-0.3341,0 -0.57544,0.08429 -0.72402,0.25283c-0.14581,0.16856 -0.21871,0.41566 -0.21871,0.74134v7.25045zM184.7743,190.64983c-0.5943,0 -1.11569,-0.14128 -1.56418,-0.4241c-0.44547,-0.28282 -0.79416,-0.67851 -1.04555,-1.18698c-0.24838,-0.50852 -0.37282,-1.10272 -0.37282,-1.78261c0,-0.68563 0.12444,-1.28412 0.37282,-1.79549c0.25139,-0.51136 0.60008,-0.90844 1.04555,-1.19126c0.44849,-0.28282 0.96988,-0.42423 1.56418,-0.42423c0.5943,0 1.11418,0.14141 1.55965,0.42423c0.44874,0.28282 0.79717,0.6799 1.0458,1.19126c0.25139,0.51136 0.37709,1.10986 0.37709,1.79549c0,0.6799 -0.1257,1.27409 -0.37709,1.78261c-0.24863,0.50847 -0.59706,0.90417 -1.0458,1.18698c-0.44547,0.28282 -0.96536,0.4241 -1.55965,0.4241zM184.7743,189.74154c0.45125,0 0.82281,-0.11564 1.11418,-0.34715c0.29137,-0.23138 0.50706,-0.53562 0.64709,-0.91271c0.13978,-0.37709 0.20991,-0.78561 0.20991,-1.22555c0,-0.43994 -0.07014,-0.84989 -0.20991,-1.22985c-0.14003,-0.37996 -0.35572,-0.68704 -0.64709,-0.92131c-0.29137,-0.23425 -0.66293,-0.35137 -1.11418,-0.35137c-0.4515,0 -0.82281,0.11712 -1.11418,0.35137c-0.29137,0.23427 -0.50706,0.54135 -0.64709,0.92131c-0.14003,0.37996 -0.20991,0.78991 -0.20991,1.22985c0,0.43994 0.06989,0.84846 0.20991,1.22555c0.14003,0.37709 0.35572,0.68133 0.64709,0.91271c0.29137,0.23151 0.66268,0.34715 1.11418,0.34715zM191.97449,190.64983c-0.5943,0 -1.11569,-0.14128 -1.56418,-0.4241c-0.44572,-0.28282 -0.79416,-0.67851 -1.04555,-1.18698c-0.24863,-0.50852 -0.37282,-1.10272 -0.37282,-1.78261c0,-0.68563 0.12419,-1.28412 0.37282,-1.79549c0.25139,-0.51136 0.59983,-0.90844 1.04555,-1.19126c0.44849,-0.28282 0.96988,-0.42423 1.56418,-0.42423c0.59405,0 1.11393,0.14141 1.55965,0.42423c0.44849,0.28282 0.79717,0.6799 1.04555,1.19126c0.25139,0.51136 0.37709,1.10986 0.37709,1.79549c0,0.6799 -0.1257,1.27409 -0.37709,1.78261c-0.24838,0.50847 -0.59706,0.90417 -1.04555,1.18698c-0.44572,0.28282 -0.96561,0.4241 -1.55965,0.4241zM191.97449,189.74154c0.45125,0 0.82256,-0.11564 1.11393,-0.34715c0.29137,-0.23138 0.50706,-0.53562 0.64709,-0.91271c0.14003,-0.37709 0.20991,-0.78561 0.20991,-1.22555c0,-0.43994 -0.06989,-0.84989 -0.20991,-1.22985c-0.14003,-0.37996 -0.35572,-0.68704 -0.64709,-0.92131c-0.29137,-0.23425 -0.66268,-0.35137 -1.11393,-0.35137c-0.4515,0 -0.82281,0.11712 -1.11418,0.35137c-0.29137,0.23427 -0.50706,0.54135 -0.64709,0.92131c-0.14003,0.37996 -0.20991,0.78991 -0.20991,1.22985c0,0.43994 0.06989,0.84846 0.20991,1.22555c0.14003,0.37709 0.35572,0.68133 0.64709,0.91271c0.29137,0.23151 0.66268,0.34715 1.11418,0.34715zM198.98589,190.64983c-0.54854,0 -1.03273,-0.13852 -1.45256,-0.41556c-0.42008,-0.28005 -0.7484,-0.67424 -0.98572,-1.18269c-0.23707,-0.51136 -0.35547,-1.11556 -0.35547,-1.81261c0,-0.69134 0.11841,-1.29126 0.35547,-1.79976c0.23732,-0.5085 0.56715,-0.9013 0.98999,-1.17841c0.42285,-0.27711 0.91131,-0.41566 1.46538,-0.41566c0.42863,0 0.76726,0.07142 1.01563,0.21424c0.25139,0.14 0.44296,0.29996 0.57419,0.47994c0.13424,0.17713 0.23857,0.32282 0.31299,0.4371h0.08547v-3.23957h1.01136v8.77596h-0.97692v-1.01128h-0.11992c-0.07441,0.12009 -0.18,0.27143 -0.31726,0.45419c-0.13701,0.18 -0.33285,0.34139 -0.58701,0.48419c-0.25416,0.14003 -0.59279,0.20991 -1.01563,0.20991zM199.12315,189.74154c0.4055,0 0.7484,-0.10584 1.02846,-0.31713c0.2798,-0.21426 0.49273,-0.50995 0.63829,-0.88705c0.14581,-0.37993 0.21871,-0.81844 0.21871,-1.31552c0,-0.49138 -0.0714,-0.92131 -0.21444,-1.28983c-0.14279,-0.37139 -0.35421,-0.65991 -0.63402,-0.8656c-0.28005,-0.20853 -0.62572,-0.31281 -1.037,-0.31281c-0.42863,0 -0.78561,0.10999 -1.07144,0.32996c-0.28282,0.2171 -0.4955,0.51279 -0.63829,0.88702c-0.14003,0.37139 -0.21017,0.78847 -0.21017,1.25127c0,0.4685 0.0714,0.89416 0.21444,1.27696c0.14556,0.37996 0.35975,0.68276 0.64256,0.90846c0.28584,0.22291 0.64005,0.33428 1.0629,0.33428zM211.53701,187.82177v-3.89091h1.01136v6.58196h-1.01136v-1.11413h-0.06838c-0.15436,0.3343 -0.39444,0.61838 -0.71999,0.85268c-0.32556,0.23153 -0.73709,0.34718 -1.2341,0.34718c-0.41128,0 -0.77706,-0.09 -1.09709,-0.27c-0.31977,-0.18276 -0.57117,-0.45704 -0.75418,-0.82274c-0.18276,-0.36852 -0.27427,-0.83274 -0.27427,-1.39268v-4.18228h1.01136v4.11372c0,0.47994 0.13424,0.86274 0.40273,1.14842c0.27151,0.28568 0.61717,0.42863 1.037,0.42863c0.25139,0 0.50706,-0.06436 0.767,-0.19295c0.26296,-0.12856 0.48293,-0.32568 0.65991,-0.59136c0.18,-0.26567 0.27,-0.6042 0.27,-1.01556zM219.06276,185.40493l-0.90829,0.2571c-0.05732,-0.15139 -0.14154,-0.29853 -0.2529,-0.44135c-0.1086,-0.14571 -0.25718,-0.2657 -0.44572,-0.35997c-0.18855,-0.09427 -0.42988,-0.14141 -0.72402,-0.14141c-0.40299,0 -0.7386,0.09287 -1.00709,0.27855c-0.26572,0.18284 -0.39846,0.41566 -0.39846,0.69847c0,0.25139 0.09126,0.44995 0.27427,0.59563c0.18276,0.14571 0.46835,0.26711 0.857,0.36425l0.97692,0.23996c0.58851,0.14284 1.02695,0.36138 1.31555,0.65564c0.2886,0.29139 0.4329,0.66705 0.4329,1.12698c0,0.37709 -0.1086,0.71421 -0.32581,1.01123c-0.21419,0.29715 -0.5141,0.53145 -0.89974,0.7029c-0.38564,0.17145 -0.83438,0.25693 -1.34572,0.25693c-0.67122,0 -1.22681,-0.14556 -1.66675,-0.43692c-0.43994,-0.29137 -0.71849,-0.7171 -0.83564,-1.27701l0.95982,-0.23998c0.09151,0.35424 0.26422,0.61991 0.51863,0.79705c0.25693,0.17718 0.59254,0.26567 1.00684,0.26567c0.47136,0 0.84569,-0.10006 1.12273,-0.29996c0.28005,-0.20283 0.42008,-0.44565 0.42008,-0.72847c0,-0.22854 -0.08019,-0.41995 -0.24008,-0.57421c-0.15989,-0.15712 -0.40575,-0.27425 -0.73709,-0.35137l-1.09683,-0.25713c-0.60284,-0.14282 -1.0458,-0.36422 -1.32862,-0.66418c-0.2798,-0.3028 -0.41983,-0.68133 -0.41983,-1.13555c0,-0.37139 0.10433,-0.69991 0.31273,-0.98559c0.21142,-0.28568 0.49852,-0.50993 0.86128,-0.67276c0.36578,-0.16285 0.78008,-0.24425 1.24289,-0.24425c0.65136,0 1.1627,0.14284 1.53401,0.4285c0.37433,0.28568 0.6398,0.66278 0.79692,1.13128zM220.70512,190.51282v-6.58196h1.01136v6.58196zM221.21948,182.83385c-0.19734,0 -0.36729,-0.06712 -0.51008,-0.20139c-0.14003,-0.13427 -0.20991,-0.29567 -0.20991,-0.48421c0,-0.18855 0.06989,-0.34997 0.20991,-0.48424c0.14279,-0.13427 0.31273,-0.20139 0.51008,-0.20139c0.19709,0 0.36553,0.06712 0.50555,0.20139c0.14279,0.13427 0.21419,0.29569 0.21419,0.48424c0,0.18855 -0.0714,0.34994 -0.21419,0.48421c-0.14003,0.13427 -0.30846,0.20139 -0.50555,0.20139zM224.57987,186.55335v3.95946h-1.01111v-6.58196h0.97692v1.02843h0.08573c0.15436,-0.33425 0.3884,-0.60277 0.70265,-0.80562c0.31424,-0.20567 0.71999,-0.30851 1.217,-0.30851c0.44572,0 0.83564,0.09141 1.16999,0.27425c0.3341,0.17997 0.59405,0.45422 0.77983,0.82274c0.18578,0.36568 0.27855,0.82847 0.27855,1.38838v4.1823h-1.01136v-4.11372c0,-0.51709 -0.13424,-0.91988 -0.40273,-1.20843c-0.26849,-0.29137 -0.63703,-0.43707 -1.10563,-0.43707c-0.32279,0 -0.61139,0.06999 -0.86555,0.20996c-0.25139,0.14 -0.45,0.34426 -0.59555,0.61277c-0.14581,0.26854 -0.21871,0.59422 -0.21871,0.97702zM233.28415,193.11827c-0.48846,0 -0.90854,-0.06285 -1.25974,-0.18855c-0.35145,-0.12293 -0.64432,-0.28584 -0.87862,-0.48871c-0.23128,-0.19986 -0.41556,-0.41405 -0.55282,-0.64256l0.80572,-0.56564c0.09151,0.11992 0.20715,0.25693 0.34718,0.41128c0.14003,0.15712 0.33134,0.29287 0.57419,0.40701c0.24561,0.11715 0.56689,0.17572 0.9641,0.17572c0.53145,0 0.96988,-0.12846 1.31555,-0.38564c0.34567,-0.25718 0.51838,-0.65991 0.51838,-1.20845v-1.33689h-0.08547c-0.07441,0.11999 -0.18,0.26846 -0.31726,0.4457c-0.13424,0.17422 -0.32857,0.32983 -0.58273,0.46709c-0.25139,0.13424 -0.59128,0.20137 -1.01991,0.20137c-0.5312,0 -1.00834,-0.1257 -1.43119,-0.37709c-0.41983,-0.25139 -0.75268,-0.61707 -0.99854,-1.09701c-0.2426,-0.47994 -0.36402,-1.06272 -0.36402,-1.74835c0,-0.67419 0.11841,-1.26125 0.35547,-1.76119c0.23732,-0.50279 0.56715,-0.89129 0.98999,-1.16554c0.42285,-0.27711 0.91131,-0.41566 1.46538,-0.41566c0.42863,0 0.76851,0.07142 1.01991,0.21424c0.25441,0.14 0.44849,0.29996 0.58273,0.47994c0.13726,0.17713 0.24285,0.32282 0.31726,0.4371h0.10282v-1.04558h0.97692v6.77051c0,0.56564 -0.12846,1.02569 -0.38564,1.3799c-0.25416,0.35698 -0.59706,0.61843 -1.02846,0.7841c-0.42838,0.16843 -0.90552,0.2529 -1.43119,0.2529zM233.24996,189.50153c0.4055,0 0.7484,-0.09284 1.02846,-0.27855c0.2798,-0.18568 0.49273,-0.45279 0.63829,-0.80132c0.14581,-0.34851 0.21871,-0.7656 0.21871,-1.25127c0,-0.47421 -0.0714,-0.89273 -0.21444,-1.25554c-0.14279,-0.36281 -0.35421,-0.64704 -0.63402,-0.85273c-0.28005,-0.20569 -0.62572,-0.30854 -1.037,-0.30854c-0.42863,0 -0.78561,0.10855 -1.07144,0.32568c-0.28282,0.2171 -0.4955,0.5085 -0.63829,0.87415c-0.14003,0.36568 -0.21017,0.77133 -0.21017,1.21698c0,0.45709 0.0714,0.86133 0.21444,1.2127c0.14556,0.34853 0.35975,0.62278 0.64256,0.82274c0.28584,0.19712 0.64005,0.29569 1.0629,0.29569zM246.03665,185.40493l-0.90829,0.2571c-0.05732,-0.15139 -0.14154,-0.29853 -0.2529,-0.44135c-0.1086,-0.14571 -0.25718,-0.2657 -0.44572,-0.35997c-0.18855,-0.09427 -0.42988,-0.14141 -0.72402,-0.14141c-0.40299,0 -0.7386,0.09287 -1.00709,0.27855c-0.26572,0.18284 -0.39846,0.41566 -0.39846,0.69847c0,0.25139 0.09126,0.44995 0.27427,0.59563c0.18276,0.14571 0.46835,0.26711 0.857,0.36425l0.97692,0.23996c0.58851,0.14284 1.02695,0.36138 1.31555,0.65564c0.2886,0.29139 0.4329,0.66705 0.4329,1.12698c0,0.37709 -0.1086,0.71421 -0.32581,1.01123c-0.21419,0.29715 -0.5141,0.53145 -0.89974,0.7029c-0.38589,0.17145 -0.83438,0.25693 -1.34572,0.25693c-0.67122,0 -1.22681,-0.14556 -1.66675,-0.43692c-0.43994,-0.29137 -0.71849,-0.7171 -0.83564,-1.27701l0.95982,-0.23998c0.09151,0.35424 0.26422,0.61991 0.51838,0.79705c0.25718,0.17718 0.59279,0.26567 1.00709,0.26567c0.47136,0 0.84569,-0.10006 1.12273,-0.29996c0.28005,-0.20283 0.41983,-0.44565 0.41983,-0.72847c0,-0.22854 -0.07994,-0.41995 -0.23983,-0.57421c-0.15989,-0.15712 -0.40575,-0.27425 -0.73709,-0.35137l-1.09709,-0.25713c-0.60259,-0.14282 -1.04555,-0.36422 -1.32837,-0.66418c-0.2798,-0.3028 -0.41983,-0.68133 -0.41983,-1.13555c0,-0.37139 0.10433,-0.69991 0.31273,-0.98559c0.21142,-0.28568 0.49852,-0.50993 0.86128,-0.67276c0.36578,-0.16285 0.78008,-0.24425 1.24289,-0.24425c0.65111,0 1.1627,0.14284 1.53401,0.4285c0.37408,0.28568 0.6398,0.66278 0.79692,1.13128zM251.82702,187.82177v-3.89091h1.01136v6.58196h-1.01136v-1.11413h-0.06863c-0.1541,0.3343 -0.39419,0.61838 -0.71974,0.85268c-0.32581,0.23153 -0.73709,0.34718 -1.23435,0.34718c-0.41128,0 -0.77681,-0.09 -1.09683,-0.27c-0.32003,-0.18276 -0.57142,-0.45704 -0.75418,-0.82274c-0.18276,-0.36852 -0.27427,-0.83274 -0.27427,-1.39268v-4.18228h1.01136v4.11372c0,0.47994 0.13424,0.86274 0.40273,1.14842c0.27125,0.28568 0.61692,0.42863 1.037,0.42863c0.25139,0 0.50706,-0.06436 0.767,-0.19295c0.26296,-0.12856 0.48293,-0.32568 0.65991,-0.59136c0.18,-0.26567 0.27,-0.6042 0.27,-1.01556zM255.70176,186.55335v3.95946h-1.01111v-6.58196h0.97692v1.02843h0.08573c0.1541,-0.33425 0.3884,-0.60277 0.70265,-0.80562c0.31424,-0.20567 0.71999,-0.30851 1.217,-0.30851c0.44572,0 0.83564,0.09141 1.16999,0.27425c0.3341,0.17997 0.59405,0.45422 0.77983,0.82274c0.18578,0.36568 0.27855,0.82847 0.27855,1.38838v4.1823h-1.01136v-4.11372c0,-0.51709 -0.13424,-0.91988 -0.40273,-1.20843c-0.26849,-0.29137 -0.63703,-0.43707 -1.10563,-0.43707c-0.32279,0 -0.61139,0.06999 -0.86555,0.20996c-0.25139,0.14 -0.45,0.34426 -0.59555,0.61277c-0.14581,0.26854 -0.21871,0.59422 -0.21871,0.97702zM262.76042,181.73686v8.77596h-1.01111v-8.77596zM264.61269,190.51282v-6.58196h1.01136v6.58196zM265.12705,182.83385c-0.19709,0 -0.36704,-0.06712 -0.51008,-0.20139c-0.13978,-0.13427 -0.20991,-0.29567 -0.20991,-0.48421c0,-0.18855 0.07014,-0.34997 0.20991,-0.48424c0.14304,-0.13427 0.31299,-0.20139 0.51008,-0.20139c0.19709,0 0.36553,0.06712 0.50555,0.20139c0.14279,0.13427 0.21419,0.29569 0.21419,0.48424c0,0.18855 -0.0714,0.34994 -0.21419,0.48421c-0.14003,0.13427 -0.30846,0.20139 -0.50555,0.20139zM270.13307,193.11827c-0.48846,0 -0.90854,-0.06285 -1.25974,-0.18855c-0.35145,-0.12293 -0.64432,-0.28584 -0.87862,-0.48871c-0.23128,-0.19986 -0.41556,-0.41405 -0.55257,-0.64256l0.80547,-0.56564c0.09151,0.11992 0.20715,0.25693 0.34718,0.41128c0.14003,0.15712 0.33134,0.29287 0.57419,0.40701c0.24561,0.11715 0.56715,0.17572 0.9641,0.17572c0.53145,0 0.96988,-0.12846 1.31555,-0.38564c0.34567,-0.25718 0.51863,-0.65991 0.51863,-1.20845v-1.33689h-0.08573c-0.07441,0.11999 -0.18,0.26846 -0.31726,0.4457c-0.13424,0.17422 -0.32857,0.32983 -0.58273,0.46709c-0.25139,0.13424 -0.59128,0.20137 -1.01991,0.20137c-0.5312,0 -1.00834,-0.1257 -1.43119,-0.37709c-0.41983,-0.25139 -0.75268,-0.61707 -0.99829,-1.09701c-0.24285,-0.47994 -0.36427,-1.06272 -0.36427,-1.74835c0,-0.67419 0.11841,-1.26125 0.35547,-1.76119c0.23732,-0.50279 0.56715,-0.89129 0.98999,-1.16554c0.42285,-0.27711 0.91131,-0.41566 1.46538,-0.41566c0.42863,0 0.76851,0.07142 1.01991,0.21424c0.25441,0.14 0.44849,0.29996 0.58273,0.47994c0.13726,0.17713 0.24285,0.32282 0.31726,0.4371h0.10282v-1.04558h0.97692v6.77051c0,0.56564 -0.12846,1.02569 -0.38564,1.3799c-0.25416,0.35698 -0.59706,0.61843 -1.02846,0.7841c-0.42838,0.16843 -0.90552,0.2529 -1.43119,0.2529zM270.09888,189.50153c0.4055,0 0.7484,-0.09284 1.02846,-0.27855c0.2798,-0.18568 0.49273,-0.45279 0.63829,-0.80132c0.14581,-0.34851 0.21871,-0.7656 0.21871,-1.25127c0,-0.47421 -0.0714,-0.89273 -0.21444,-1.25554c-0.14279,-0.36281 -0.35421,-0.64704 -0.63402,-0.85273c-0.28005,-0.20569 -0.62572,-0.30854 -1.037,-0.30854c-0.42863,0 -0.78561,0.10855 -1.07144,0.32568c-0.28282,0.2171 -0.4955,0.5085 -0.63829,0.87415c-0.14003,0.36568 -0.21017,0.77133 -0.21017,1.21698c0,0.45709 0.0714,0.86133 0.21444,1.2127c0.14556,0.34853 0.35975,0.62278 0.64256,0.82274c0.28584,0.19712 0.64005,0.29569 1.0629,0.29569zM275.84098,186.55335v3.95946h-1.01136v-8.77596h1.01136v3.22243h0.08573c0.1541,-0.33996 0.38564,-0.60991 0.6941,-0.80989c0.31148,-0.20283 0.72552,-0.30424 1.24264,-0.30424c0.44849,0 0.84142,0.08997 1.17854,0.26995c0.33712,0.17713 0.59832,0.44995 0.7841,0.81847c0.18855,0.36568 0.28282,0.83131 0.28282,1.39695v4.1823h-1.01136v-4.11372c0,-0.5228 -0.13575,-0.92702 -0.40701,-1.2127c-0.26849,-0.28853 -0.64131,-0.4328 -1.11845,-0.4328c-0.33134,0 -0.62849,0.06999 -0.89119,0.20996c-0.26019,0.14 -0.46583,0.34426 -0.61717,0.61277c-0.14857,0.26854 -0.22274,0.59422 -0.22274,0.97702zM284.82155,183.93086v0.85703h-3.41117v-0.85703zM282.40464,182.35393h1.01136v6.27343c0,0.28568 0.04148,0.49992 0.12419,0.64277c0.08573,0.13998 0.19433,0.23425 0.32581,0.28287c0.13424,0.04575 0.27553,0.06863 0.4241,0.06863c0.11137,0 0.20288,-0.00578 0.27427,-0.01735c0.0714,-0.01408 0.12846,-0.02564 0.17145,-0.03419l0.20564,0.90854c-0.06863,0.02564 -0.16416,0.05128 -0.28709,0.07693c-0.12293,0.02866 -0.27855,0.04299 -0.46709,0.04299c-0.28558,0 -0.56564,-0.06134 -0.83991,-0.18427c-0.27125,-0.12293 -0.49701,-0.30997 -0.67701,-0.56136c-0.17723,-0.25139 -0.26572,-0.5685 -0.26572,-0.9513zM287.66256,188.04458v-0.05141c0.00578,-0.54565 0.06285,-0.97989 0.17145,-1.30268c0.10835,-0.32282 0.26271,-0.58422 0.46282,-0.7842c0.19986,-0.19996 0.43994,-0.38423 0.71974,-0.55277c0.16869,-0.10285 0.32003,-0.22427 0.45427,-0.36425c0.13424,-0.14284 0.24008,-0.3071 0.31701,-0.49278c0.08019,-0.18571 0.12017,-0.39137 0.12017,-0.61707c0,-0.27995 -0.06587,-0.52278 -0.19709,-0.72847c-0.13148,-0.20569 -0.3072,-0.36425 -0.52717,-0.47564c-0.21997,-0.11142 -0.46433,-0.16713 -0.73282,-0.16713c-0.2343,0 -0.4598,0.04857 -0.67701,0.14568c-0.2172,0.09714 -0.39846,0.24999 -0.54427,0.45852c-0.14556,0.20853 -0.23003,0.48137 -0.25265,0.81847h-1.07999c0.02288,-0.48564 0.14857,-0.9013 0.37709,-1.24697c0.23153,-0.34567 0.53572,-0.60993 0.91281,-0.79277c0.37986,-0.18281 0.80119,-0.27425 1.26401,-0.27425c0.50279,0 0.93996,0.1 1.31127,0.29996c0.37433,0.19998 0.66268,0.47423 0.86555,0.82274c0.20564,0.34853 0.30871,0.74564 0.30871,1.19128c0,0.31424 -0.04877,0.5985 -0.14581,0.85273c-0.09427,0.25426 -0.23128,0.48137 -0.41128,0.68135c-0.17723,0.19996 -0.39142,0.37709 -0.64282,0.53135c-0.25139,0.15712 -0.45276,0.32282 -0.60435,0.49708c-0.15134,0.1714 -0.2612,0.37566 -0.32983,0.61277c-0.06863,0.23709 -0.10584,0.53278 -0.11137,0.88702v0.05141zM288.2111,190.58145c-0.21142,0 -0.39293,-0.07567 -0.54427,-0.22726c-0.15134,-0.15134 -0.22726,-0.33285 -0.22726,-0.54402c0,-0.21142 0.07592,-0.39293 0.22726,-0.54432c0.15134,-0.15141 0.33285,-0.22711 0.54427,-0.22711c0.21142,0 0.39268,0.07569 0.54402,0.22711c0.15159,0.15139 0.22726,0.3329 0.22726,0.54432c0,0.13978 -0.0357,0.26849 -0.10709,0.38564c-0.06863,0.11715 -0.1614,0.21142 -0.27855,0.28282c-0.11438,0.06838 -0.24285,0.10282 -0.38564,0.10282z"/></g></g></svg>