<svg xmlns="http://www.w3.org/2000/svg" fill="none" viewBox="0 0 139 164" height="164" width="139">
<path fill="#43D059" d="M0 20C0 8.95431 8.95431 0 20 0H119C130.046 0 139 8.95431 139 20V144C139 155.046 130.046 164 119 164H20C8.95431 164 0 155.046 0 144V20Z"></path>
<path fill="black" d="M36.2102 135.455V150H34.5341V135.455H36.2102ZM43.854 150.227C42.8029 150.227 41.8962 149.995 41.1339 149.531C40.3763 149.062 39.7915 148.409 39.3796 147.571C38.9724 146.728 38.7688 145.748 38.7688 144.631C38.7688 143.513 38.9724 142.528 39.3796 141.676C39.7915 140.819 40.3645 140.152 41.0984 139.673C41.837 139.19 42.6987 138.949 43.6836 138.949C44.2518 138.949 44.8129 139.044 45.3668 139.233C45.9208 139.422 46.4251 139.73 46.8796 140.156C47.3342 140.578 47.6964 141.136 47.9663 141.832C48.2362 142.528 48.3711 143.385 48.3711 144.403V145.114H39.962V143.665H46.6665C46.6665 143.049 46.5434 142.5 46.2972 142.017C46.0558 141.534 45.7101 141.153 45.2603 140.874C44.8152 140.594 44.2897 140.455 43.6836 140.455C43.016 140.455 42.4383 140.62 41.9506 140.952C41.4677 141.278 41.096 141.705 40.8356 142.23C40.5752 142.756 40.445 143.319 40.445 143.92V144.886C40.445 145.71 40.587 146.409 40.8711 146.982C41.1599 147.55 41.56 147.983 42.0714 148.281C42.5827 148.575 43.177 148.722 43.854 148.722C44.2944 148.722 44.6921 148.66 45.0472 148.537C45.4071 148.409 45.7172 148.22 45.9776 147.969C46.238 147.713 46.4393 147.396 46.5813 147.017L48.2006 147.472C48.0302 148.021 47.7437 148.504 47.3413 148.92C46.9388 149.332 46.4416 149.654 45.8498 149.886C45.2579 150.114 44.5927 150.227 43.854 150.227ZM55.6651 139.091V140.511H50.0117V139.091H55.6651ZM51.6594 136.477H53.3356V146.875C53.3356 147.348 53.4042 147.704 53.5415 147.94C53.6836 148.172 53.8635 148.329 54.0813 148.409C54.3039 148.485 54.5382 148.523 54.7844 148.523C54.9691 148.523 55.1206 148.513 55.239 148.494C55.3574 148.471 55.4521 148.452 55.5231 148.438L55.864 149.943C55.7504 149.986 55.5917 150.028 55.3881 150.071C55.1845 150.118 54.9265 150.142 54.614 150.142C54.1405 150.142 53.6765 150.04 53.2219 149.837C52.7721 149.633 52.3981 149.323 52.0998 148.906C51.8062 148.49 51.6594 147.964 51.6594 147.33V136.477ZM62.9308 139.091V140.511H57.2773V139.091H62.9308ZM58.9251 136.477H60.6012V146.875C60.6012 147.348 60.6699 147.704 60.8072 147.94C60.9492 148.172 61.1291 148.329 61.3469 148.409C61.5695 148.485 61.8039 148.523 62.0501 148.523C62.2347 148.523 62.3862 148.513 62.5046 148.494C62.623 148.471 62.7177 148.452 62.7887 148.438L63.1296 149.943C63.016 149.986 62.8574 150.028 62.6538 150.071C62.4502 150.118 62.1921 150.142 61.8796 150.142C61.4061 150.142 60.9421 150.04 60.4876 149.837C60.0378 149.633 59.6637 149.323 59.3654 148.906C59.0719 148.49 58.9251 147.964 58.9251 147.33V136.477ZM69.9087 150.227C68.8576 150.227 67.9509 149.995 67.1886 149.531C66.431 149.062 65.8462 148.409 65.4343 147.571C65.0271 146.728 64.8235 145.748 64.8235 144.631C64.8235 143.513 65.0271 142.528 65.4343 141.676C65.8462 140.819 66.4192 140.152 67.1531 139.673C67.8917 139.19 68.7534 138.949 69.7383 138.949C70.3065 138.949 70.8675 139.044 71.4215 139.233C71.9755 139.422 72.4798 139.73 72.9343 140.156C73.3888 140.578 73.7511 141.136 74.021 141.832C74.2908 142.528 74.4258 143.385 74.4258 144.403V145.114H66.0167V143.665H72.7212C72.7212 143.049 72.5981 142.5 72.3519 142.017C72.1104 141.534 71.7648 141.153 71.315 140.874C70.8699 140.594 70.3443 140.455 69.7383 140.455C69.0707 140.455 68.493 140.62 68.0053 140.952C67.5224 141.278 67.1507 141.705 66.8903 142.23C66.6299 142.756 66.4996 143.319 66.4996 143.92V144.886C66.4996 145.71 66.6417 146.409 66.9258 146.982C67.2146 147.55 67.6147 147.983 68.1261 148.281C68.6374 148.575 69.2317 148.722 69.9087 148.722C70.3491 148.722 70.7468 148.66 71.1019 148.537C71.4618 148.409 71.7719 148.22 72.0323 147.969C72.2927 147.713 72.494 147.396 72.636 147.017L74.2553 147.472C74.0849 148.021 73.7984 148.504 73.396 148.92C72.9935 149.332 72.4963 149.654 71.9045 149.886C71.3126 150.114 70.6474 150.227 69.9087 150.227ZM76.9755 150V139.091H78.5948V140.739H78.7085C78.9073 140.199 79.2672 139.761 79.788 139.425C80.3088 139.089 80.896 138.92 81.5494 138.92C81.6725 138.92 81.8263 138.923 82.011 138.928C82.1957 138.932 82.3353 138.939 82.43 138.949V140.653C82.3732 140.639 82.243 140.618 82.0394 140.589C81.8406 140.556 81.6299 140.54 81.4073 140.54C80.877 140.54 80.4035 140.651 79.9869 140.874C79.5749 141.091 79.2482 141.394 79.0067 141.783C78.77 142.166 78.6516 142.604 78.6516 143.097V150H76.9755ZM90.2692 150V135.455H95.3544C96.3677 135.455 97.2034 135.63 97.8615 135.98C98.5197 136.326 99.0097 136.792 99.3317 137.379C99.6536 137.962 99.8146 138.608 99.8146 139.318C99.8146 139.943 99.7034 140.459 99.4808 140.866C99.263 141.274 98.9742 141.596 98.6143 141.832C98.2592 142.069 97.8733 142.244 97.4567 142.358V142.5C97.9018 142.528 98.3492 142.685 98.799 142.969C99.2488 143.253 99.6252 143.66 99.9283 144.19C100.231 144.721 100.383 145.369 100.383 146.136C100.383 146.866 100.217 147.521 99.8857 148.104C99.5542 148.686 99.031 149.148 98.3161 149.489C97.6011 149.83 96.6707 150 95.5249 150H90.2692ZM92.0305 148.438H95.5249C96.6754 148.438 97.4922 148.215 97.9751 147.77C98.4628 147.32 98.7067 146.776 98.7067 146.136C98.7067 145.644 98.5812 145.189 98.3303 144.773C98.0793 144.351 97.7218 144.015 97.2578 143.764C96.7938 143.509 96.2446 143.381 95.6101 143.381H92.0305V148.438ZM92.0305 141.847H95.2976C95.8279 141.847 96.3061 141.742 96.7322 141.534C97.1631 141.326 97.504 141.032 97.755 140.653C98.0107 140.275 98.1385 139.83 98.1385 139.318C98.1385 138.679 97.916 138.137 97.4709 137.692C97.0258 137.242 96.3203 137.017 95.3544 137.017H92.0305V141.847Z"></path>
<path fill="black" d="M32.8129 82V60.1818H35.455V69.8977H47.0885V60.1818H49.7306V82H47.0885V72.2415H35.455V82H32.8129ZM61.5399 82.3409C59.9632 82.3409 58.6031 81.9929 57.4596 81.2969C56.3232 80.5938 55.4461 79.6136 54.8282 78.3565C54.2174 77.0923 53.912 75.6222 53.912 73.946C53.912 72.2699 54.2174 70.7926 54.8282 69.5142C55.4461 68.2287 56.3055 67.2273 57.4063 66.5099C58.5143 65.7855 59.8069 65.4233 61.2842 65.4233C62.1365 65.4233 62.9781 65.5653 63.809 65.8494C64.64 66.1335 65.3964 66.5952 66.0782 67.2344C66.76 67.8665 67.3034 68.7045 67.7082 69.7486C68.113 70.7926 68.3154 72.0781 68.3154 73.6051V74.6705H55.7018V72.4972H65.7586C65.7586 71.5739 65.574 70.75 65.2046 70.0256C64.8424 69.3011 64.324 68.7294 63.6492 68.3104C62.9816 67.8913 62.1933 67.6818 61.2842 67.6818C60.2828 67.6818 59.4163 67.9304 58.6847 68.4276C57.9603 68.9176 57.4028 69.5568 57.0122 70.3452C56.6215 71.1335 56.4262 71.9787 56.4262 72.8807V74.3295C56.4262 75.5653 56.6393 76.6129 57.0654 77.4723C57.4987 78.3246 58.0988 78.9744 58.8659 79.4219C59.6329 79.8622 60.5242 80.0824 61.5399 80.0824C62.2004 80.0824 62.797 79.9901 63.3296 79.8054C63.8694 79.6136 64.3346 79.3295 64.7252 78.9531C65.1159 78.5696 65.4177 78.0937 65.6308 77.5256L68.0597 78.2074C67.8041 79.0312 67.3744 79.7557 66.7707 80.3807C66.167 80.9986 65.4213 81.4815 64.5335 81.8295C63.6457 82.1705 62.6478 82.3409 61.5399 82.3409ZM76.9553 82.3835C75.9184 82.3835 74.9774 82.1882 74.1322 81.7976C73.287 81.3999 72.6159 80.8281 72.1187 80.0824C71.6215 79.3295 71.373 78.4205 71.373 77.3551C71.373 76.4176 71.5576 75.6577 71.9269 75.0753C72.2963 74.4858 72.7899 74.0241 73.4078 73.6903C74.0257 73.3565 74.7075 73.108 75.4532 72.9446C76.2061 72.7741 76.9624 72.6392 77.7224 72.5398C78.7167 72.4119 79.5228 72.3161 80.1407 72.2521C80.7657 72.1811 81.2203 72.0639 81.5044 71.9006C81.7955 71.7372 81.9411 71.4531 81.9411 71.0483V70.9631C81.9411 69.9119 81.6535 69.0952 81.0782 68.5128C80.51 67.9304 79.6471 67.6392 78.4894 67.6392C77.2892 67.6392 76.3481 67.902 75.6663 68.4276C74.9845 68.9531 74.5051 69.5142 74.2281 70.1108L71.8417 69.2585C72.2678 68.2642 72.836 67.4901 73.5463 66.9361C74.2636 66.375 75.0448 65.9844 75.89 65.7642C76.7423 65.5369 77.5803 65.4233 78.4042 65.4233C78.9298 65.4233 79.5335 65.4872 80.2153 65.6151C80.9042 65.7358 81.5683 65.9879 82.2075 66.3714C82.8538 66.755 83.39 67.3338 83.8161 68.108C84.2423 68.8821 84.4553 69.919 84.4553 71.2188V82H81.9411V79.7841H81.8133C81.6428 80.1392 81.3588 80.5192 80.961 80.924C80.5633 81.3288 80.0342 81.6733 79.3737 81.9574C78.7132 82.2415 77.907 82.3835 76.9553 82.3835ZM77.3389 80.125C78.3332 80.125 79.1713 79.9297 79.8531 79.5391C80.542 79.1484 81.0605 78.6442 81.4085 78.0263C81.7636 77.4084 81.9411 76.7585 81.9411 76.0767V73.7756C81.8346 73.9034 81.6002 74.0206 81.238 74.1271C80.8829 74.2266 80.471 74.3153 80.0022 74.3935C79.5406 74.4645 79.0896 74.5284 78.6492 74.5852C78.216 74.6349 77.8644 74.6776 77.5945 74.7131C76.9411 74.7983 76.3303 74.9368 75.7622 75.1286C75.2011 75.3132 74.7465 75.5937 74.3985 75.9702C74.0576 76.3395 73.8872 76.8437 73.8872 77.483C73.8872 78.3565 74.2103 79.017 74.8566 79.4645C75.51 79.9048 76.3374 80.125 77.3389 80.125ZM89.0443 82V65.6364H91.4733V68.108H91.6437C91.942 67.2983 92.4818 66.6413 93.2631 66.1371C94.0443 65.6328 94.925 65.3807 95.9051 65.3807C96.0898 65.3807 96.3206 65.3842 96.5976 65.3913C96.8746 65.3984 97.0841 65.4091 97.2261 65.4233V67.9801C97.1409 67.9588 96.9456 67.9268 96.6402 67.8842C96.3419 67.8345 96.0258 67.8097 95.692 67.8097C94.8966 67.8097 94.1863 67.9766 93.5613 68.3104C92.9434 68.6371 92.4534 69.0916 92.0912 69.674C91.7361 70.2493 91.5585 70.9062 91.5585 71.6449V82H89.0443ZM108.348 65.6364V67.767H99.8682V65.6364H108.348ZM102.34 61.7159H104.854V77.3125C104.854 78.0227 104.957 78.5554 105.163 78.9105C105.376 79.2585 105.646 79.4929 105.973 79.6136C106.306 79.7273 106.658 79.7841 107.027 79.7841C107.304 79.7841 107.532 79.7699 107.709 79.7415C107.887 79.706 108.029 79.6776 108.135 79.6562L108.647 81.9148C108.476 81.9787 108.238 82.0426 107.933 82.1065C107.627 82.1776 107.24 82.2131 106.772 82.2131C106.061 82.2131 105.365 82.0604 104.684 81.755C104.009 81.4496 103.448 80.9844 103 80.3594C102.56 79.7344 102.34 78.946 102.34 77.9943V61.7159Z"></path>
</svg>
