<svg xmlns="http://www.w3.org/2000/svg" fill="none" viewBox="0 0 139 164" height="164" width="139">
<path fill="#EEC638" d="M0 20C0 8.95431 8.95431 0 20 0H119C130.046 0 139 8.95431 139 20V144C139 155.046 130.046 164 119 164H20C8.95431 164 0 155.046 0 144V20Z"></path>
<path fill="black" d="M36.2102 135.455V150H34.5341V135.455H36.2102ZM43.854 150.227C42.8029 150.227 41.8962 149.995 41.1339 149.531C40.3763 149.062 39.7915 148.409 39.3796 147.571C38.9724 146.728 38.7688 145.748 38.7688 144.631C38.7688 143.513 38.9724 142.528 39.3796 141.676C39.7915 140.819 40.3645 140.152 41.0984 139.673C41.837 139.19 42.6987 138.949 43.6836 138.949C44.2518 138.949 44.8129 139.044 45.3668 139.233C45.9208 139.422 46.4251 139.73 46.8796 140.156C47.3342 140.578 47.6964 141.136 47.9663 141.832C48.2362 142.528 48.3711 143.385 48.3711 144.403V145.114H39.962V143.665H46.6665C46.6665 143.049 46.5434 142.5 46.2972 142.017C46.0558 141.534 45.7101 141.153 45.2603 140.874C44.8152 140.594 44.2897 140.455 43.6836 140.455C43.016 140.455 42.4383 140.62 41.9506 140.952C41.4677 141.278 41.096 141.705 40.8356 142.23C40.5752 142.756 40.445 143.319 40.445 143.92V144.886C40.445 145.71 40.587 146.409 40.8711 146.982C41.1599 147.55 41.56 147.983 42.0714 148.281C42.5827 148.575 43.177 148.722 43.854 148.722C44.2944 148.722 44.6921 148.66 45.0472 148.537C45.4071 148.409 45.7172 148.22 45.9776 147.969C46.238 147.713 46.4393 147.396 46.5813 147.017L48.2006 147.472C48.0302 148.021 47.7437 148.504 47.3413 148.92C46.9388 149.332 46.4416 149.654 45.8498 149.886C45.2579 150.114 44.5927 150.227 43.854 150.227ZM55.6651 139.091V140.511H50.0117V139.091H55.6651ZM51.6594 136.477H53.3356V146.875C53.3356 147.348 53.4042 147.704 53.5415 147.94C53.6836 148.172 53.8635 148.329 54.0813 148.409C54.3039 148.485 54.5382 148.523 54.7844 148.523C54.9691 148.523 55.1206 148.513 55.239 148.494C55.3574 148.471 55.4521 148.452 55.5231 148.438L55.864 149.943C55.7504 149.986 55.5917 150.028 55.3881 150.071C55.1845 150.118 54.9265 150.142 54.614 150.142C54.1405 150.142 53.6765 150.04 53.2219 149.837C52.7721 149.633 52.3981 149.323 52.0998 148.906C51.8062 148.49 51.6594 147.964 51.6594 147.33V136.477ZM62.9308 139.091V140.511H57.2773V139.091H62.9308ZM58.9251 136.477H60.6012V146.875C60.6012 147.348 60.6699 147.704 60.8072 147.94C60.9492 148.172 61.1291 148.329 61.3469 148.409C61.5695 148.485 61.8039 148.523 62.0501 148.523C62.2347 148.523 62.3862 148.513 62.5046 148.494C62.623 148.471 62.7177 148.452 62.7887 148.438L63.1296 149.943C63.016 149.986 62.8574 150.028 62.6538 150.071C62.4502 150.118 62.1921 150.142 61.8796 150.142C61.4061 150.142 60.9421 150.04 60.4876 149.837C60.0378 149.633 59.6637 149.323 59.3654 148.906C59.0719 148.49 58.9251 147.964 58.9251 147.33V136.477ZM69.9087 150.227C68.8576 150.227 67.9509 149.995 67.1886 149.531C66.431 149.062 65.8462 148.409 65.4343 147.571C65.0271 146.728 64.8235 145.748 64.8235 144.631C64.8235 143.513 65.0271 142.528 65.4343 141.676C65.8462 140.819 66.4192 140.152 67.1531 139.673C67.8917 139.19 68.7534 138.949 69.7383 138.949C70.3065 138.949 70.8675 139.044 71.4215 139.233C71.9755 139.422 72.4798 139.73 72.9343 140.156C73.3888 140.578 73.7511 141.136 74.021 141.832C74.2908 142.528 74.4258 143.385 74.4258 144.403V145.114H66.0167V143.665H72.7212C72.7212 143.049 72.5981 142.5 72.3519 142.017C72.1104 141.534 71.7648 141.153 71.315 140.874C70.8699 140.594 70.3443 140.455 69.7383 140.455C69.0707 140.455 68.493 140.62 68.0053 140.952C67.5224 141.278 67.1507 141.705 66.8903 142.23C66.6299 142.756 66.4996 143.319 66.4996 143.92V144.886C66.4996 145.71 66.6417 146.409 66.9258 146.982C67.2146 147.55 67.6147 147.983 68.1261 148.281C68.6374 148.575 69.2317 148.722 69.9087 148.722C70.3491 148.722 70.7468 148.66 71.1019 148.537C71.4618 148.409 71.7719 148.22 72.0323 147.969C72.2927 147.713 72.494 147.396 72.636 147.017L74.2553 147.472C74.0849 148.021 73.7984 148.504 73.396 148.92C72.9935 149.332 72.4963 149.654 71.9045 149.886C71.3126 150.114 70.6474 150.227 69.9087 150.227ZM76.9755 150V139.091H78.5948V140.739H78.7085C78.9073 140.199 79.2672 139.761 79.788 139.425C80.3088 139.089 80.896 138.92 81.5494 138.92C81.6725 138.92 81.8263 138.923 82.011 138.928C82.1957 138.932 82.3353 138.939 82.43 138.949V140.653C82.3732 140.639 82.243 140.618 82.0394 140.589C81.8406 140.556 81.6299 140.54 81.4073 140.54C80.877 140.54 80.4035 140.651 79.9869 140.874C79.5749 141.091 79.2482 141.394 79.0067 141.783C78.77 142.166 78.6516 142.604 78.6516 143.097V150H76.9755ZM90.2692 150V135.455H95.3544C96.3677 135.455 97.2034 135.63 97.8615 135.98C98.5197 136.326 99.0097 136.792 99.3317 137.379C99.6536 137.962 99.8146 138.608 99.8146 139.318C99.8146 139.943 99.7034 140.459 99.4808 140.866C99.263 141.274 98.9742 141.596 98.6143 141.832C98.2592 142.069 97.8733 142.244 97.4567 142.358V142.5C97.9018 142.528 98.3492 142.685 98.799 142.969C99.2488 143.253 99.6252 143.66 99.9283 144.19C100.231 144.721 100.383 145.369 100.383 146.136C100.383 146.866 100.217 147.521 99.8857 148.104C99.5542 148.686 99.031 149.148 98.3161 149.489C97.6011 149.83 96.6707 150 95.5249 150H90.2692ZM92.0305 148.438H95.5249C96.6754 148.438 97.4922 148.215 97.9751 147.77C98.4628 147.32 98.7067 146.776 98.7067 146.136C98.7067 145.644 98.5812 145.189 98.3303 144.773C98.0793 144.351 97.7218 144.015 97.2578 143.764C96.7938 143.509 96.2446 143.381 95.6101 143.381H92.0305V148.438ZM92.0305 141.847H95.2976C95.8279 141.847 96.3061 141.742 96.7322 141.534C97.1631 141.326 97.504 141.032 97.755 140.653C98.0107 140.275 98.1385 139.83 98.1385 139.318C98.1385 138.679 97.916 138.137 97.4709 137.692C97.0258 137.242 96.3203 137.017 95.3544 137.017H92.0305V141.847Z"></path>
<path fill="black" d="M28.81 75V53.1818H36.1822C37.8938 53.1818 39.293 53.4908 40.3796 54.1087C41.4734 54.7195 42.283 55.5469 42.8086 56.5909C43.3342 57.6349 43.5969 58.7997 43.5969 60.0852C43.5969 61.3707 43.3342 62.5391 42.8086 63.5902C42.2901 64.6413 41.4876 65.4794 40.4009 66.1044C39.3143 66.7223 37.9222 67.0312 36.2248 67.0312H30.9407V64.6875H36.1396C37.3114 64.6875 38.2525 64.4851 38.9627 64.0803C39.6729 63.6754 40.1879 63.1286 40.5075 62.4396C40.8342 61.7436 40.9975 60.9588 40.9975 60.0852C40.9975 59.2116 40.8342 58.4304 40.5075 57.7415C40.1879 57.0526 39.6694 56.5128 38.9521 56.1222C38.2347 55.7244 37.283 55.5256 36.0969 55.5256H31.4521V75H28.81ZM47.5121 75V58.6364H49.9411V61.108H50.1115C50.4098 60.2983 50.9496 59.6413 51.7308 59.1371C52.5121 58.6328 53.3928 58.3807 54.3729 58.3807C54.5575 58.3807 54.7884 58.3842 55.0653 58.3913C55.3423 58.3984 55.5518 58.4091 55.6939 58.4233V60.9801C55.6087 60.9588 55.4134 60.9268 55.108 60.8842C54.8097 60.8345 54.4936 60.8097 54.1598 60.8097C53.3643 60.8097 52.6541 60.9766 52.0291 61.3104C51.4112 61.6371 50.9212 62.0916 50.5589 62.674C50.2038 63.2493 50.0263 63.9062 50.0263 64.6449V75H47.5121ZM65.0369 75.3409C63.4602 75.3409 62.1001 74.9929 60.9567 74.2969C59.8203 73.5938 58.9432 72.6136 58.3253 71.3565C57.7145 70.0923 57.4091 68.6222 57.4091 66.946C57.4091 65.2699 57.7145 63.7926 58.3253 62.5142C58.9432 61.2287 59.8026 60.2273 60.9034 59.5099C62.0114 58.7855 63.304 58.4233 64.7812 58.4233C65.6335 58.4233 66.4751 58.5653 67.3061 58.8494C68.1371 59.1335 68.8935 59.5952 69.5753 60.2344C70.2571 60.8665 70.8004 61.7045 71.2053 62.7486C71.6101 63.7926 71.8125 65.0781 71.8125 66.6051V67.6705H59.1989V65.4972H69.2557C69.2557 64.5739 69.071 63.75 68.7017 63.0256C68.3395 62.3011 67.821 61.7294 67.1463 61.3104C66.4787 60.8913 65.6903 60.6818 64.7812 60.6818C63.7798 60.6818 62.9134 60.9304 62.1818 61.4276C61.4574 61.9176 60.8999 62.5568 60.5092 63.3452C60.1186 64.1335 59.9233 64.9787 59.9233 65.8807V67.3295C59.9233 68.5653 60.1364 69.6129 60.5625 70.4723C60.9957 71.3246 61.5959 71.9744 62.3629 72.4219C63.13 72.8622 64.0213 73.0824 65.0369 73.0824C65.6974 73.0824 66.294 72.9901 66.8267 72.8054C67.3665 72.6136 67.8317 72.3295 68.2223 71.9531C68.6129 71.5696 68.9148 71.0937 69.1278 70.5256L71.5568 71.2074C71.3011 72.0312 70.8714 72.7557 70.2678 73.3807C69.6641 73.9986 68.9183 74.4815 68.0305 74.8295C67.1428 75.1705 66.1449 75.3409 65.0369 75.3409ZM82.7536 58.6364V60.767H74.2734V58.6364H82.7536ZM76.745 54.7159H79.2592V70.3125C79.2592 71.0227 79.3622 71.5554 79.5682 71.9105C79.7813 72.2585 80.0511 72.4929 80.3778 72.6136C80.7116 72.7273 81.0632 72.7841 81.4325 72.7841C81.7095 72.7841 81.9368 72.7699 82.1143 72.7415C82.2919 72.706 82.4339 72.6776 82.5405 72.6562L83.0518 74.9148C82.8814 74.9787 82.6435 75.0426 82.3381 75.1065C82.0327 75.1776 81.6456 75.2131 81.1768 75.2131C80.4666 75.2131 79.7706 75.0604 79.0888 74.755C78.4141 74.4496 77.853 73.9844 77.4055 73.3594C76.9652 72.7344 76.745 71.946 76.745 70.9943V54.7159ZM93.652 58.6364V60.767H85.1719V58.6364H93.652ZM87.6435 54.7159H90.1577V70.3125C90.1577 71.0227 90.2607 71.5554 90.4666 71.9105C90.6797 72.2585 90.9496 72.4929 91.2763 72.6136C91.6101 72.7273 91.9616 72.7841 92.331 72.7841C92.608 72.7841 92.8352 72.7699 93.0128 72.7415C93.1903 72.706 93.3324 72.6776 93.4389 72.6562L93.9503 74.9148C93.7798 74.9787 93.5419 75.0426 93.2365 75.1065C92.9311 75.1776 92.544 75.2131 92.0753 75.2131C91.3651 75.2131 90.669 75.0604 89.9872 74.755C89.3125 74.4496 88.7514 73.9844 88.304 73.3594C87.8636 72.7344 87.6435 71.946 87.6435 70.9943V54.7159ZM99.0533 81.1364C98.6271 81.1364 98.2472 81.1009 97.9134 81.0298C97.5795 80.9659 97.3487 80.902 97.2209 80.8381L97.8601 78.6222C98.4709 78.7784 99.0107 78.8352 99.4794 78.7926C99.9482 78.75 100.364 78.5405 100.726 78.1641C101.095 77.7947 101.433 77.1946 101.738 76.3636L102.207 75.0852L96.1555 58.6364H98.8828L103.4 71.6761H103.57L108.087 58.6364H110.815L103.869 77.3864C103.556 78.2315 103.169 78.9311 102.707 79.4851C102.246 80.0462 101.71 80.4616 101.099 80.7315C100.495 81.0014 99.8132 81.1364 99.0533 81.1364Z"></path>
</svg>
