<svg xmlns="http://www.w3.org/2000/svg" fill="none" viewBox="0 0 139 164" height="164" width="139">
<path fill="#EEC638" d="M0 20C0 8.95431 8.95431 0 20 0H119C130.046 0 139 8.95431 139 20V144C139 155.046 130.046 164 119 164H20C8.95431 164 0 155.046 0 144V20Z"></path>
<path fill="black" d="M36.2102 135.455V150H34.5341V135.455H36.2102ZM43.854 150.227C42.8029 150.227 41.8962 149.995 41.1339 149.531C40.3763 149.062 39.7915 148.409 39.3796 147.571C38.9724 146.728 38.7688 145.748 38.7688 144.631C38.7688 143.513 38.9724 142.528 39.3796 141.676C39.7915 140.819 40.3645 140.152 41.0984 139.673C41.837 139.19 42.6987 138.949 43.6836 138.949C44.2518 138.949 44.8129 139.044 45.3668 139.233C45.9208 139.422 46.4251 139.73 46.8796 140.156C47.3342 140.578 47.6964 141.136 47.9663 141.832C48.2362 142.528 48.3711 143.385 48.3711 144.403V145.114H39.962V143.665H46.6665C46.6665 143.049 46.5434 142.5 46.2972 142.017C46.0558 141.534 45.7101 141.153 45.2603 140.874C44.8152 140.594 44.2897 140.455 43.6836 140.455C43.016 140.455 42.4383 140.62 41.9506 140.952C41.4677 141.278 41.096 141.705 40.8356 142.23C40.5752 142.756 40.445 143.319 40.445 143.92V144.886C40.445 145.71 40.587 146.409 40.8711 146.982C41.1599 147.55 41.56 147.983 42.0714 148.281C42.5827 148.575 43.177 148.722 43.854 148.722C44.2944 148.722 44.6921 148.66 45.0472 148.537C45.4071 148.409 45.7172 148.22 45.9776 147.969C46.238 147.713 46.4393 147.396 46.5813 147.017L48.2006 147.472C48.0302 148.021 47.7437 148.504 47.3413 148.92C46.9388 149.332 46.4416 149.654 45.8498 149.886C45.2579 150.114 44.5927 150.227 43.854 150.227ZM55.6651 139.091V140.511H50.0117V139.091H55.6651ZM51.6594 136.477H53.3356V146.875C53.3356 147.348 53.4042 147.704 53.5415 147.94C53.6836 148.172 53.8635 148.329 54.0813 148.409C54.3039 148.485 54.5382 148.523 54.7844 148.523C54.9691 148.523 55.1206 148.513 55.239 148.494C55.3574 148.471 55.4521 148.452 55.5231 148.438L55.864 149.943C55.7504 149.986 55.5917 150.028 55.3881 150.071C55.1845 150.118 54.9265 150.142 54.614 150.142C54.1405 150.142 53.6765 150.04 53.2219 149.837C52.7721 149.633 52.3981 149.323 52.0998 148.906C51.8062 148.49 51.6594 147.964 51.6594 147.33V136.477ZM62.9308 139.091V140.511H57.2773V139.091H62.9308ZM58.9251 136.477H60.6012V146.875C60.6012 147.348 60.6699 147.704 60.8072 147.94C60.9492 148.172 61.1291 148.329 61.3469 148.409C61.5695 148.485 61.8039 148.523 62.0501 148.523C62.2347 148.523 62.3862 148.513 62.5046 148.494C62.623 148.471 62.7177 148.452 62.7887 148.438L63.1296 149.943C63.016 149.986 62.8574 150.028 62.6538 150.071C62.4502 150.118 62.1921 150.142 61.8796 150.142C61.4061 150.142 60.9421 150.04 60.4876 149.837C60.0378 149.633 59.6637 149.323 59.3654 148.906C59.0719 148.49 58.9251 147.964 58.9251 147.33V136.477ZM69.9087 150.227C68.8576 150.227 67.9509 149.995 67.1886 149.531C66.431 149.062 65.8462 148.409 65.4343 147.571C65.0271 146.728 64.8235 145.748 64.8235 144.631C64.8235 143.513 65.0271 142.528 65.4343 141.676C65.8462 140.819 66.4192 140.152 67.1531 139.673C67.8917 139.19 68.7534 138.949 69.7383 138.949C70.3065 138.949 70.8675 139.044 71.4215 139.233C71.9755 139.422 72.4798 139.73 72.9343 140.156C73.3888 140.578 73.7511 141.136 74.021 141.832C74.2908 142.528 74.4258 143.385 74.4258 144.403V145.114H66.0167V143.665H72.7212C72.7212 143.049 72.5981 142.5 72.3519 142.017C72.1104 141.534 71.7648 141.153 71.315 140.874C70.8699 140.594 70.3443 140.455 69.7383 140.455C69.0707 140.455 68.493 140.62 68.0053 140.952C67.5224 141.278 67.1507 141.705 66.8903 142.23C66.6299 142.756 66.4996 143.319 66.4996 143.92V144.886C66.4996 145.71 66.6417 146.409 66.9258 146.982C67.2146 147.55 67.6147 147.983 68.1261 148.281C68.6374 148.575 69.2317 148.722 69.9087 148.722C70.3491 148.722 70.7468 148.66 71.1019 148.537C71.4618 148.409 71.7719 148.22 72.0323 147.969C72.2927 147.713 72.494 147.396 72.636 147.017L74.2553 147.472C74.0849 148.021 73.7984 148.504 73.396 148.92C72.9935 149.332 72.4963 149.654 71.9045 149.886C71.3126 150.114 70.6474 150.227 69.9087 150.227ZM76.9755 150V139.091H78.5948V140.739H78.7085C78.9073 140.199 79.2672 139.761 79.788 139.425C80.3088 139.089 80.896 138.92 81.5494 138.92C81.6725 138.92 81.8263 138.923 82.011 138.928C82.1957 138.932 82.3353 138.939 82.43 138.949V140.653C82.3732 140.639 82.243 140.618 82.0394 140.589C81.8406 140.556 81.6299 140.54 81.4073 140.54C80.877 140.54 80.4035 140.651 79.9869 140.874C79.5749 141.091 79.2482 141.394 79.0067 141.783C78.77 142.166 78.6516 142.604 78.6516 143.097V150H76.9755ZM90.2692 150V135.455H95.3544C96.3677 135.455 97.2034 135.63 97.8615 135.98C98.5197 136.326 99.0097 136.792 99.3317 137.379C99.6536 137.962 99.8146 138.608 99.8146 139.318C99.8146 139.943 99.7034 140.459 99.4808 140.866C99.263 141.274 98.9742 141.596 98.6143 141.832C98.2592 142.069 97.8733 142.244 97.4567 142.358V142.5C97.9018 142.528 98.3492 142.685 98.799 142.969C99.2488 143.253 99.6252 143.66 99.9283 144.19C100.231 144.721 100.383 145.369 100.383 146.136C100.383 146.866 100.217 147.521 99.8857 148.104C99.5542 148.686 99.031 149.148 98.3161 149.489C97.6011 149.83 96.6707 150 95.5249 150H90.2692ZM92.0305 148.438H95.5249C96.6754 148.438 97.4922 148.215 97.9751 147.77C98.4628 147.32 98.7067 146.776 98.7067 146.136C98.7067 145.644 98.5812 145.189 98.3303 144.773C98.0793 144.351 97.7218 144.015 97.2578 143.764C96.7938 143.509 96.2446 143.381 95.6101 143.381H92.0305V148.438ZM92.0305 141.847H95.2976C95.8279 141.847 96.3061 141.742 96.7322 141.534C97.1631 141.326 97.504 141.032 97.755 140.653C98.0107 140.275 98.1385 139.83 98.1385 139.318C98.1385 138.679 97.916 138.137 97.4709 137.692C97.0258 137.242 96.3203 137.017 95.3544 137.017H92.0305V141.847Z"></path>
<path fill="black" d="M16.6378 45.017V43.4545H27.5469V45.017H22.973V58H21.2116V45.017H16.6378ZM31.7141 51.4375V58H30.038V43.4545H31.7141V48.7955H31.8562C32.1119 48.232 32.4954 47.7846 33.0067 47.4531C33.5228 47.117 34.2094 46.9489 35.0664 46.9489C35.8098 46.9489 36.4608 47.098 37.0195 47.3963C37.5782 47.6899 38.0115 48.142 38.3192 48.7528C38.6317 49.3589 38.788 50.1307 38.788 51.0682V58H37.1119V51.1818C37.1119 50.3153 36.887 49.6454 36.4371 49.1719C35.9921 48.6937 35.3742 48.4545 34.5835 48.4545C34.0342 48.4545 33.5418 48.5705 33.1062 48.8026C32.6753 49.0346 32.3344 49.3731 32.0835 49.8182C31.8372 50.2633 31.7141 50.803 31.7141 51.4375ZM46.4283 58.2273C45.3771 58.2273 44.4704 57.9953 43.7081 57.5312C42.9505 57.0625 42.3658 56.4091 41.9538 55.571C41.5466 54.7282 41.343 53.7481 41.343 52.6307C41.343 51.5133 41.5466 50.5284 41.9538 49.6761C42.3658 48.8191 42.9387 48.1515 43.6726 47.6733C44.4112 47.1903 45.273 46.9489 46.2578 46.9489C46.826 46.9489 47.3871 47.0436 47.9411 47.233C48.495 47.4223 48.9993 47.7301 49.4538 48.1562C49.9084 48.5777 50.2706 49.1364 50.5405 49.8324C50.8104 50.5284 50.9453 51.3854 50.9453 52.4034V53.1136H42.5362V51.6648H49.2408C49.2408 51.0492 49.1177 50.5 48.8714 50.017C48.63 49.5341 48.2843 49.1529 47.8345 48.8736C47.3894 48.5942 46.8639 48.4545 46.2578 48.4545C45.5902 48.4545 45.0125 48.6203 44.5249 48.9517C44.0419 49.2784 43.6702 49.7045 43.4098 50.2301C43.1494 50.7557 43.0192 51.3191 43.0192 51.9205V52.8864C43.0192 53.7102 43.1612 54.4086 43.4453 54.9815C43.7341 55.5497 44.1342 55.983 44.6456 56.2812C45.157 56.5748 45.7512 56.7216 46.4283 56.7216C46.8686 56.7216 47.2663 56.66 47.6214 56.5369C47.9813 56.4091 48.2914 56.2197 48.5518 55.9688C48.8123 55.7131 49.0135 55.3958 49.1555 55.017L50.7749 55.4716C50.6044 56.0208 50.3179 56.5038 49.9155 56.9205C49.513 57.3324 49.0159 57.6544 48.424 57.8864C47.8321 58.1136 47.1669 58.2273 46.4283 58.2273ZM59.12 62.0909V47.0909H60.7393V48.8239H60.9382C61.0613 48.6345 61.2318 48.393 61.4496 48.0994C61.6721 47.8011 61.9893 47.536 62.4013 47.304C62.8179 47.0672 63.3814 46.9489 64.0916 46.9489C65.0102 46.9489 65.8198 47.1785 66.5206 47.6378C67.2214 48.0971 67.7682 48.7481 68.1612 49.5909C68.5542 50.4337 68.7507 51.428 68.7507 52.5739C68.7507 53.7292 68.5542 54.7306 68.1612 55.5781C67.7682 56.4209 67.2237 57.0743 66.5277 57.5384C65.8317 57.9976 65.0291 58.2273 64.12 58.2273C63.4193 58.2273 62.8582 58.1113 62.4368 57.8793C62.0154 57.6425 61.6911 57.375 61.4638 57.0767C61.2365 56.7737 61.0613 56.5227 60.9382 56.3239H60.7962V62.0909H59.12ZM60.7678 52.5455C60.7678 53.3693 60.8885 54.0961 61.13 54.7259C61.3714 55.3509 61.7242 55.8409 62.1882 56.196C62.6522 56.5464 63.2204 56.7216 63.8928 56.7216C64.5935 56.7216 65.1783 56.5369 65.647 56.1676C66.1205 55.7936 66.4756 55.2917 66.7124 54.6619C66.9538 54.0275 67.0746 53.322 67.0746 52.5455C67.0746 51.7784 66.9562 51.0871 66.7195 50.4716C66.4875 49.8513 66.1347 49.3613 65.6612 49.0014C65.1925 48.6368 64.603 48.4545 63.8928 48.4545C63.2109 48.4545 62.638 48.6274 62.174 48.973C61.71 49.3139 61.3596 49.7921 61.1229 50.4077C60.8861 51.0185 60.7678 51.7311 60.7678 52.5455ZM71.3075 58V47.0909H72.9837V58H71.3075ZM72.1598 45.2727C71.8331 45.2727 71.5514 45.1615 71.3146 44.9389C71.0826 44.7164 70.9666 44.4489 70.9666 44.1364C70.9666 43.8239 71.0826 43.5563 71.3146 43.3338C71.5514 43.1113 71.8331 43 72.1598 43C72.4865 43 72.7659 43.1113 72.9979 43.3338C73.2346 43.5563 73.353 43.8239 73.353 44.1364C73.353 44.4489 73.2346 44.7164 72.9979 44.9389C72.7659 45.1615 72.4865 45.2727 72.1598 45.2727ZM80.4854 58.2273C79.4627 58.2273 78.582 57.9858 77.8434 57.5028C77.1048 57.0199 76.5366 56.3546 76.1388 55.5071C75.7411 54.6596 75.5423 53.6913 75.5423 52.6023C75.5423 51.4943 75.7459 50.5166 76.1531 49.669C76.565 48.8168 77.1379 48.1515 77.8718 47.6733C78.6104 47.1903 79.4722 46.9489 80.457 46.9489C81.2241 46.9489 81.9154 47.0909 82.5309 47.375C83.1464 47.6591 83.6507 48.0568 84.0437 48.5682C84.4367 49.0795 84.6805 49.6761 84.7752 50.358H83.0991C82.9712 49.8608 82.6871 49.4205 82.2468 49.0369C81.8112 48.6487 81.2241 48.4545 80.4854 48.4545C79.832 48.4545 79.2591 48.625 78.7667 48.9659C78.279 49.3021 77.8978 49.7779 77.6232 50.3935C77.3533 51.0043 77.2184 51.7216 77.2184 52.5455C77.2184 53.3883 77.351 54.1222 77.6161 54.7472C77.886 55.3722 78.2648 55.8575 78.7525 56.2031C79.2449 56.5488 79.8226 56.7216 80.4854 56.7216C80.921 56.7216 81.3164 56.6458 81.6715 56.4943C82.0266 56.3428 82.3273 56.125 82.5735 55.8409C82.8197 55.5568 82.9949 55.2159 83.0991 54.8182H84.7752C84.6805 55.4621 84.4461 56.0421 84.0721 56.5582C83.7028 57.0696 83.2127 57.4768 82.6019 57.7798C81.9959 58.0781 81.2904 58.2273 80.4854 58.2273ZM91.9698 47.0909V48.5114H86.3164V47.0909H91.9698ZM87.9641 44.4773H89.6403V54.875C89.6403 55.3485 89.7089 55.7036 89.8462 55.9403C89.9883 56.1723 90.1682 56.3286 90.386 56.4091C90.6085 56.4848 90.8429 56.5227 91.0891 56.5227C91.2738 56.5227 91.4253 56.5133 91.5437 56.4943C91.6621 56.4706 91.7567 56.4517 91.8278 56.4375L92.1687 57.9432C92.055 57.9858 91.8964 58.0284 91.6928 58.071C91.4892 58.1184 91.2312 58.142 90.9187 58.142C90.4452 58.142 89.9812 58.0402 89.5266 57.8366C89.0768 57.633 88.7028 57.3229 88.4045 56.9062C88.1109 56.4896 87.9641 55.964 87.9641 55.3295V44.4773ZM101.366 53.5398V47.0909H103.042V58H101.366V56.1534H101.252C100.997 56.7074 100.599 57.1785 100.059 57.5668C99.5195 57.9503 98.8377 58.142 98.0138 58.142C97.332 58.142 96.726 57.9929 96.1957 57.6946C95.6654 57.3916 95.2487 56.937 94.9457 56.331C94.6426 55.7202 94.4911 54.9508 94.4911 54.0227V47.0909H96.1673V53.9091C96.1673 54.7045 96.3898 55.339 96.8349 55.8125C97.2847 56.286 97.8576 56.5227 98.5536 56.5227C98.9703 56.5227 99.3941 56.4162 99.8249 56.2031C100.261 55.9901 100.625 55.6634 100.919 55.223C101.217 54.7827 101.366 54.2216 101.366 53.5398ZM106.112 58V47.0909H107.732V48.7386H107.845C108.044 48.1989 108.404 47.7609 108.925 47.4247C109.446 47.0885 110.033 46.9205 110.686 46.9205C110.809 46.9205 110.963 46.9228 111.148 46.9276C111.332 46.9323 111.472 46.9394 111.567 46.9489V48.6534C111.51 48.6392 111.38 48.6179 111.176 48.5895C110.977 48.5563 110.767 48.5398 110.544 48.5398C110.014 48.5398 109.54 48.651 109.124 48.8736C108.712 49.0914 108.385 49.3944 108.143 49.7827C107.907 50.1662 107.788 50.6042 107.788 51.0966V58H106.112ZM117.795 58.2273C116.744 58.2273 115.838 57.9953 115.075 57.5312C114.318 57.0625 113.733 56.4091 113.321 55.571C112.914 54.7282 112.71 53.7481 112.71 52.6307C112.71 51.5133 112.914 50.5284 113.321 49.6761C113.733 48.8191 114.306 48.1515 115.04 47.6733C115.778 47.1903 116.64 46.9489 117.625 46.9489C118.193 46.9489 118.754 47.0436 119.308 47.233C119.862 47.4223 120.366 47.7301 120.821 48.1562C121.276 48.5777 121.638 49.1364 121.908 49.8324C122.178 50.5284 122.312 51.3854 122.312 52.4034V53.1136H113.903V51.6648H120.608C120.608 51.0492 120.485 50.5 120.239 50.017C119.997 49.5341 119.652 49.1529 119.202 48.8736C118.757 48.5942 118.231 48.4545 117.625 48.4545C116.957 48.4545 116.38 48.6203 115.892 48.9517C115.409 49.2784 115.037 49.7045 114.777 50.2301C114.517 50.7557 114.386 51.3191 114.386 51.9205V52.8864C114.386 53.7102 114.528 54.4086 114.812 54.9815C115.101 55.5497 115.501 55.983 116.013 56.2812C116.524 56.5748 117.118 56.7216 117.795 56.7216C118.236 56.7216 118.634 56.66 118.989 56.5369C119.348 56.4091 119.659 56.2197 119.919 55.9688C120.179 55.7131 120.381 55.3958 120.523 55.017L122.142 55.4716C121.972 56.0208 121.685 56.5038 121.283 56.9205C120.88 57.3324 120.383 57.6544 119.791 57.8864C119.199 58.1136 118.534 58.2273 117.795 58.2273ZM16.1522 82L12.8283 71.0909H14.5897L16.9476 79.4432H17.0613L19.3908 71.0909H21.1806L23.4817 79.4148H23.5953L25.9533 71.0909H27.7147L24.3908 82H22.7431L20.3567 73.6193H20.1863L17.7999 82H16.1522ZM33.1408 82.2557C32.4495 82.2557 31.8221 82.1255 31.2587 81.8651C30.6953 81.5999 30.2478 81.2188 29.9164 80.7216C29.5849 80.2197 29.4192 79.6136 29.4192 78.9034C29.4192 78.2784 29.5423 77.7718 29.7885 77.3835C30.0347 76.9905 30.3638 76.6828 30.7757 76.4602C31.1877 76.2377 31.6422 76.072 32.1394 75.9631C32.6413 75.8494 33.1455 75.7595 33.6522 75.6932C34.315 75.608 34.8525 75.544 35.2644 75.5014C35.681 75.4541 35.9841 75.3759 36.1735 75.267C36.3676 75.1581 36.4647 74.9687 36.4647 74.6989V74.642C36.4647 73.9413 36.2729 73.3968 35.8894 73.0085C35.5106 72.6203 34.9353 72.4261 34.1635 72.4261C33.3633 72.4261 32.736 72.6013 32.2814 72.9517C31.8269 73.3021 31.5073 73.6761 31.3226 74.0739L29.7317 73.5057C30.0158 72.8428 30.3946 72.3267 30.8681 71.9574C31.3463 71.5833 31.8671 71.3229 32.4306 71.1761C32.9988 71.0246 33.5575 70.9489 34.1067 70.9489C34.4571 70.9489 34.8596 70.9915 35.3141 71.0767C35.7734 71.1572 36.2161 71.3253 36.6422 71.581C37.0731 71.8366 37.4306 72.2225 37.7147 72.7386C37.9988 73.2547 38.1408 73.946 38.1408 74.8125V82H36.4647V80.5227H36.3794C36.2658 80.7595 36.0764 81.0128 35.8113 81.2827C35.5461 81.5526 35.1934 81.7822 34.753 81.9716C34.3127 82.161 33.7753 82.2557 33.1408 82.2557ZM33.3965 80.75C34.0594 80.75 34.6181 80.6198 35.0726 80.3594C35.5319 80.099 35.8775 79.7628 36.1096 79.3509C36.3463 78.9389 36.4647 78.5057 36.4647 78.0511V76.517C36.3936 76.6023 36.2374 76.6804 35.9959 76.7514C35.7592 76.8177 35.4846 76.8769 35.1721 76.929C34.8643 76.9763 34.5636 77.0189 34.2701 77.0568C33.9812 77.09 33.7469 77.1184 33.5669 77.142C33.1313 77.1989 32.7241 77.2912 32.3453 77.419C31.9713 77.5421 31.6683 77.7292 31.4363 77.9801C31.209 78.2263 31.0953 78.5625 31.0953 78.9886C31.0953 79.571 31.3108 80.0114 31.7417 80.3097C32.1773 80.6032 32.7289 80.75 33.3965 80.75ZM48.9274 73.5341L47.4217 73.9602C47.327 73.7093 47.1873 73.4654 47.0027 73.2287C46.8227 72.9872 46.5765 72.7884 46.264 72.6321C45.9515 72.4759 45.5514 72.3977 45.0637 72.3977C44.3961 72.3977 43.8398 72.5516 43.3947 72.8594C42.9544 73.1624 42.7342 73.5483 42.7342 74.017C42.7342 74.4337 42.8857 74.7628 43.1887 75.0043C43.4918 75.2457 43.9653 75.447 44.6092 75.608L46.2285 76.0057C47.2039 76.2424 47.9307 76.6046 48.4089 77.0923C48.8871 77.5753 49.1262 78.1979 49.1262 78.9602C49.1262 79.5852 48.9463 80.1439 48.5865 80.6364C48.2314 81.1288 47.7342 81.517 47.095 81.8011C46.4558 82.0852 45.7124 82.2273 44.8649 82.2273C43.7522 82.2273 42.8313 81.9858 42.1021 81.5028C41.3729 81.0199 40.9113 80.3144 40.7172 79.3864L42.3081 78.9886C42.4596 79.5758 42.746 80.0161 43.1674 80.3097C43.5936 80.6032 44.1499 80.75 44.8365 80.75C45.6177 80.75 46.238 80.5843 46.6973 80.2528C47.1613 79.9167 47.3933 79.5142 47.3933 79.0455C47.3933 78.6667 47.2607 78.3494 46.9956 78.0938C46.7304 77.8333 46.3232 77.6392 45.774 77.5114L43.9558 77.0852C42.9567 76.8485 42.2228 76.4815 41.7541 75.9844C41.2901 75.4825 41.0581 74.8551 41.0581 74.1023C41.0581 73.4867 41.2309 72.9422 41.5765 72.4688C41.9269 71.9953 42.4028 71.6236 43.0041 71.3537C43.6101 71.0838 44.2967 70.9489 45.0637 70.9489C46.1433 70.9489 46.9908 71.1856 47.6064 71.6591C48.2266 72.1326 48.667 72.7576 48.9274 73.5341ZM57.2743 86.0909V71.0909H58.8936V72.8239H59.0925C59.2156 72.6345 59.3861 72.393 59.6039 72.0994C59.8264 71.8011 60.1436 71.536 60.5556 71.304C60.9722 71.0672 61.5357 70.9489 62.2459 70.9489C63.1645 70.9489 63.9741 71.1785 64.6749 71.6378C65.3757 72.0971 65.9225 72.7481 66.3155 73.5909C66.7085 74.4337 66.905 75.428 66.905 76.5739C66.905 77.7292 66.7085 78.7306 66.3155 79.5781C65.9225 80.4209 65.378 81.0743 64.682 81.5384C63.986 81.9976 63.1834 82.2273 62.2743 82.2273C61.5736 82.2273 61.0125 82.1113 60.5911 81.8793C60.1697 81.6425 59.8453 81.375 59.6181 81.0767C59.3908 80.7737 59.2156 80.5227 59.0925 80.3239H58.9505V86.0909H57.2743ZM58.9221 76.5455C58.9221 77.3693 59.0428 78.0961 59.2843 78.7259C59.5257 79.3509 59.8785 79.8409 60.3425 80.196C60.8065 80.5464 61.3747 80.7216 62.0471 80.7216C62.7478 80.7216 63.3326 80.5369 63.8013 80.1676C64.2748 79.7936 64.6299 79.2917 64.8667 78.6619C65.1081 78.0275 65.2289 77.322 65.2289 76.5455C65.2289 75.7784 65.1105 75.0871 64.8738 74.4716C64.6417 73.8513 64.289 73.3613 63.8155 73.0014C63.3468 72.6368 62.7573 72.4545 62.0471 72.4545C61.3652 72.4545 60.7923 72.6274 60.3283 72.973C59.8643 73.3139 59.5139 73.7921 59.2772 74.4077C59.0404 75.0185 58.9221 75.7311 58.9221 76.5455ZM72.6721 82.2557C71.9808 82.2557 71.3534 82.1255 70.79 81.8651C70.2265 81.5999 69.7791 81.2188 69.4476 80.7216C69.1162 80.2197 68.9505 79.6136 68.9505 78.9034C68.9505 78.2784 69.0736 77.7718 69.3198 77.3835C69.566 76.9905 69.8951 76.6828 70.307 76.4602C70.7189 76.2377 71.1735 76.072 71.6706 75.9631C72.1725 75.8494 72.6768 75.7595 73.1834 75.6932C73.8463 75.608 74.3837 75.544 74.7956 75.5014C75.2123 75.4541 75.5153 75.3759 75.7047 75.267C75.8989 75.1581 75.9959 74.9687 75.9959 74.6989V74.642C75.9959 73.9413 75.8042 73.3968 75.4206 73.0085C75.0418 72.6203 74.4666 72.4261 73.6948 72.4261C72.8946 72.4261 72.2672 72.6013 71.8127 72.9517C71.3581 73.3021 71.0385 73.6761 70.8539 74.0739L69.263 73.5057C69.5471 72.8428 69.9258 72.3267 70.3993 71.9574C70.8775 71.5833 71.3984 71.3229 71.9618 71.1761C72.53 71.0246 73.0887 70.9489 73.638 70.9489C73.9883 70.9489 74.3908 70.9915 74.8453 71.0767C75.3046 71.1572 75.7473 71.3253 76.1735 71.581C76.6043 71.8366 76.9618 72.2225 77.2459 72.7386C77.53 73.2547 77.6721 73.946 77.6721 74.8125V82H75.9959V80.5227H75.9107C75.7971 80.7595 75.6077 81.0128 75.3425 81.2827C75.0774 81.5526 74.7246 81.7822 74.2843 81.9716C73.8439 82.161 73.3065 82.2557 72.6721 82.2557ZM72.9277 80.75C73.5906 80.75 74.1493 80.6198 74.6039 80.3594C75.0632 80.099 75.4088 79.7628 75.6408 79.3509C75.8775 78.9389 75.9959 78.5057 75.9959 78.0511V76.517C75.9249 76.6023 75.7686 76.6804 75.5272 76.7514C75.2904 76.8177 75.0158 76.8769 74.7033 76.929C74.3955 76.9763 74.0949 77.0189 73.8013 77.0568C73.5125 77.09 73.2781 77.1184 73.0982 77.142C72.6626 77.1989 72.2554 77.2912 71.8766 77.419C71.5025 77.5421 71.1995 77.7292 70.9675 77.9801C70.7402 78.2263 70.6266 78.5625 70.6266 78.9886C70.6266 79.571 70.842 80.0114 71.2729 80.3097C71.7085 80.6032 72.2601 80.75 72.9277 80.75ZM80.7314 82V71.0909H82.4075V82H80.7314ZM81.5836 69.2727C81.2569 69.2727 80.9752 69.1615 80.7385 68.9389C80.5065 68.7164 80.3904 68.4489 80.3904 68.1364C80.3904 67.8239 80.5065 67.5563 80.7385 67.3338C80.9752 67.1113 81.2569 67 81.5836 67C81.9103 67 82.1897 67.1113 82.4217 67.3338C82.6584 67.5563 82.7768 67.8239 82.7768 68.1364C82.7768 68.4489 82.6584 68.7164 82.4217 68.9389C82.1897 69.1615 81.9103 69.2727 81.5836 69.2727ZM87.1536 75.4375V82H85.4775V71.0909H87.0968V72.7955H87.2388C87.4945 72.2415 87.8828 71.7964 88.4036 71.4602C88.9244 71.1193 89.5968 70.9489 90.4206 70.9489C91.1593 70.9489 91.8056 71.1004 92.3596 71.4034C92.9135 71.7017 93.3444 72.1562 93.6522 72.767C93.9599 73.3731 94.1138 74.1402 94.1138 75.0682V82H92.4377V75.1818C92.4377 74.3248 92.2151 73.6572 91.7701 73.179C91.325 72.696 90.7142 72.4545 89.9377 72.4545C89.4026 72.4545 88.9244 72.5705 88.503 72.8026C88.0864 73.0346 87.7573 73.3731 87.5158 73.8182C87.2743 74.2633 87.1536 74.803 87.1536 75.4375ZM101.921 71.0909V72.5114H96.2676V71.0909H101.921ZM97.9153 68.4773H99.5914V78.875C99.5914 79.3485 99.6601 79.7036 99.7974 79.9403C99.9395 80.1723 100.119 80.3286 100.337 80.4091C100.56 80.4848 100.794 80.5227 101.04 80.5227C101.225 80.5227 101.376 80.5133 101.495 80.4943C101.613 80.4706 101.708 80.4517 101.779 80.4375L102.12 81.9432C102.006 81.9858 101.848 82.0284 101.644 82.071C101.44 82.1184 101.182 82.142 100.87 82.142C100.396 82.142 99.9324 82.0402 99.4778 81.8366C99.028 81.633 98.6539 81.3229 98.3556 80.9062C98.0621 80.4896 97.9153 79.964 97.9153 79.3295V68.4773ZM108.899 82.2273C107.848 82.2273 106.941 81.9953 106.179 81.5312C105.421 81.0625 104.836 80.4091 104.425 79.571C104.017 78.7282 103.814 77.7481 103.814 76.6307C103.814 75.5133 104.017 74.5284 104.425 73.6761C104.836 72.8191 105.409 72.1515 106.143 71.6733C106.882 71.1903 107.744 70.9489 108.729 70.9489C109.297 70.9489 109.858 71.0436 110.412 71.233C110.966 71.4223 111.47 71.7301 111.925 72.1562C112.379 72.5777 112.741 73.1364 113.011 73.8324C113.281 74.5284 113.416 75.3854 113.416 76.4034V77.1136H105.007V75.6648H111.711C111.711 75.0492 111.588 74.5 111.342 74.017C111.101 73.5341 110.755 73.1529 110.305 72.8736C109.86 72.5942 109.335 72.4545 108.729 72.4545C108.061 72.4545 107.483 72.6203 106.996 72.9517C106.513 73.2784 106.141 73.7045 105.881 74.2301C105.62 74.7557 105.49 75.3191 105.49 75.9205V76.8864C105.49 77.7102 105.632 78.4086 105.916 78.9815C106.205 79.5497 106.605 79.983 107.116 80.2812C107.628 80.5748 108.222 80.7216 108.899 80.7216C109.339 80.7216 109.737 80.66 110.092 80.5369C110.452 80.4091 110.762 80.2197 111.023 79.9688C111.283 79.7131 111.484 79.3958 111.626 79.017L113.246 79.4716C113.075 80.0208 112.789 80.5038 112.386 80.9205C111.984 81.3324 111.487 81.6544 110.895 81.8864C110.303 82.1136 109.638 82.2273 108.899 82.2273ZM120.085 82.2273C119.176 82.2273 118.373 81.9976 117.677 81.5384C116.981 81.0743 116.437 80.4209 116.044 79.5781C115.651 78.7306 115.454 77.7292 115.454 76.5739C115.454 75.428 115.651 74.4337 116.044 73.5909C116.437 72.7481 116.984 72.0971 117.684 71.6378C118.385 71.1785 119.195 70.9489 120.113 70.9489C120.824 70.9489 121.385 71.0672 121.797 71.304C122.213 71.536 122.531 71.8011 122.748 72.0994C122.971 72.393 123.144 72.6345 123.267 72.8239H123.409V67.4545H125.085V82H123.466V80.3239H123.267C123.144 80.5227 122.969 80.7737 122.741 81.0767C122.514 81.375 122.19 81.6425 121.768 81.8793C121.347 82.1113 120.786 82.2273 120.085 82.2273ZM120.312 80.7216C120.985 80.7216 121.553 80.5464 122.017 80.196C122.481 79.8409 122.834 79.3509 123.075 78.7259C123.317 78.0961 123.437 77.3693 123.437 76.5455C123.437 75.7311 123.319 75.0185 123.082 74.4077C122.845 73.7921 122.495 73.3139 122.031 72.973C121.567 72.6274 120.994 72.4545 120.312 72.4545C119.602 72.4545 119.01 72.6368 118.537 73.0014C118.068 73.3613 117.715 73.8513 117.479 74.4716C117.247 75.0871 117.131 75.7784 117.131 76.5455C117.131 77.322 117.249 78.0275 117.486 78.6619C117.727 79.2917 118.082 79.7936 118.551 80.1676C119.024 80.5369 119.612 80.7216 120.312 80.7216ZM39.2887 106V91.4545H40.9648V96.8239H41.1069C41.23 96.6345 41.4004 96.393 41.6183 96.0994C41.8408 95.8011 42.158 95.536 42.57 95.304C42.9866 95.0672 43.5501 94.9489 44.2603 94.9489C45.1789 94.9489 45.9885 95.1785 46.6893 95.6378C47.39 96.0971 47.9369 96.7481 48.3299 97.5909C48.7229 98.4337 48.9194 99.428 48.9194 100.574C48.9194 101.729 48.7229 102.731 48.3299 103.578C47.9369 104.421 47.3924 105.074 46.6964 105.538C46.0004 105.998 45.1978 106.227 44.2887 106.227C43.5879 106.227 43.0269 106.111 42.6055 105.879C42.1841 105.643 41.8597 105.375 41.6325 105.077C41.4052 104.774 41.23 104.523 41.1069 104.324H40.908V106H39.2887ZM40.9364 100.545C40.9364 101.369 41.0572 102.096 41.2987 102.726C41.5401 103.351 41.8929 103.841 42.3569 104.196C42.8209 104.546 43.3891 104.722 44.0614 104.722C44.7622 104.722 45.3469 104.537 45.8157 104.168C46.2892 103.794 46.6443 103.292 46.881 102.662C47.1225 102.027 47.2433 101.322 47.2433 100.545C47.2433 99.7784 47.1249 99.0871 46.8881 98.4716C46.6561 97.8513 46.3034 97.3613 45.8299 97.0014C45.3612 96.6368 44.7717 96.4545 44.0614 96.4545C43.3796 96.4545 42.8067 96.6274 42.3427 96.973C41.8787 97.3139 41.5283 97.7921 41.2915 98.4077C41.0548 99.0185 40.9364 99.7311 40.9364 100.545ZM52.1722 110.091C51.8881 110.091 51.6348 110.067 51.4123 110.02C51.1897 109.977 51.0359 109.935 50.9506 109.892L51.3768 108.415C51.784 108.519 52.1438 108.557 52.4563 108.528C52.7688 108.5 53.0458 108.36 53.2873 108.109C53.5335 107.863 53.7584 107.463 53.962 106.909L54.2745 106.057L50.2404 95.0909H52.0586L55.07 103.784H55.1836L58.195 95.0909H60.0131L55.3825 107.591C55.1741 108.154 54.9161 108.621 54.6083 108.99C54.3005 109.364 53.9431 109.641 53.5359 109.821C53.1334 110.001 52.6789 110.091 52.1722 110.091ZM69.5266 99.4375V106H67.8505V91.4545H69.5266V96.7955H69.6687C69.9244 96.232 70.3079 95.7846 70.8192 95.4531C71.3353 95.117 72.0219 94.9489 72.8789 94.9489C73.6223 94.9489 74.2733 95.098 74.832 95.3963C75.3907 95.6899 75.824 96.142 76.1317 96.7528C76.4442 97.3589 76.6005 98.1307 76.6005 99.0682V106H74.9244V99.1818C74.9244 98.3153 74.6995 97.6454 74.2496 97.1719C73.8046 96.6937 73.1867 96.4545 72.396 96.4545C71.8467 96.4545 71.3543 96.5705 70.9187 96.8026C70.4878 97.0346 70.1469 97.3731 69.896 97.8182C69.6497 98.2633 69.5266 98.803 69.5266 99.4375ZM84.2408 106.227C83.1896 106.227 82.2829 105.995 81.5206 105.531C80.763 105.062 80.1783 104.409 79.7663 103.571C79.3591 102.728 79.1555 101.748 79.1555 100.631C79.1555 99.5133 79.3591 98.5284 79.7663 97.6761C80.1783 96.8191 80.7512 96.1515 81.4851 95.6733C82.2237 95.1903 83.0855 94.9489 84.0703 94.9489C84.6385 94.9489 85.1996 95.0436 85.7536 95.233C86.3075 95.4223 86.8118 95.7301 87.2663 96.1562C87.7209 96.5777 88.0831 97.1364 88.353 97.8324C88.6229 98.5284 88.7578 99.3854 88.7578 100.403V101.114H80.3487V99.6648H87.0533C87.0533 99.0492 86.9302 98.5 86.6839 98.017C86.4425 97.5341 86.0968 97.1529 85.647 96.8736C85.2019 96.5942 84.6764 96.4545 84.0703 96.4545C83.4027 96.4545 82.825 96.6203 82.3374 96.9517C81.8544 97.2784 81.4827 97.7045 81.2223 98.2301C80.9619 98.7557 80.8317 99.3191 80.8317 99.9205V100.886C80.8317 101.71 80.9737 102.409 81.2578 102.982C81.5466 103.55 81.9467 103.983 82.4581 104.281C82.9695 104.575 83.5637 104.722 84.2408 104.722C84.6811 104.722 85.0788 104.66 85.4339 104.537C85.7938 104.409 86.1039 104.22 86.3643 103.969C86.6248 103.713 86.826 103.396 86.968 103.017L88.5874 103.472C88.4169 104.021 88.1304 104.504 87.728 104.92C87.3255 105.332 86.8284 105.654 86.2365 105.886C85.6446 106.114 84.9794 106.227 84.2408 106.227ZM91.3075 106V95.0909H92.9268V96.7386H93.0405C93.2393 96.1989 93.5992 95.7609 94.12 95.4247C94.6409 95.0885 95.228 94.9205 95.8814 94.9205C96.0045 94.9205 96.1584 94.9228 96.343 94.9276C96.5277 94.9323 96.6674 94.9394 96.7621 94.9489V96.6534C96.7053 96.6392 96.575 96.6179 96.3714 96.5895C96.1726 96.5563 95.9619 96.5398 95.7393 96.5398C95.209 96.5398 94.7356 96.651 94.3189 96.8736C93.907 97.0914 93.5803 97.3944 93.3388 97.7827C93.102 98.1662 92.9837 98.6042 92.9837 99.0966V106H91.3075ZM98.7205 106.114C98.3701 106.114 98.0695 105.988 97.8185 105.737C97.5676 105.486 97.4421 105.186 97.4421 104.835C97.4421 104.485 97.5676 104.184 97.8185 103.933C98.0695 103.682 98.3701 103.557 98.7205 103.557C99.0709 103.557 99.3716 103.682 99.6225 103.933C99.8735 104.184 99.9989 104.485 99.9989 104.835C99.9989 105.067 99.9397 105.28 99.8214 105.474C99.7077 105.669 99.5539 105.825 99.3597 105.943C99.1703 106.057 98.9573 106.114 98.7205 106.114Z"></path>
</svg>
