<svg xmlns="http://www.w3.org/2000/svg" fill="none" viewBox="0 0 139 164" height="164" width="139">
<path fill="#EEC638" d="M0 20C0 8.95431 8.95431 0 20 0H119C130.046 0 139 8.95431 139 20V144C139 155.046 130.046 164 119 164H20C8.95431 164 0 155.046 0 144V20Z"></path>
<path fill="black" d="M36.2102 135.455V150H34.5341V135.455H36.2102ZM43.854 150.227C42.8029 150.227 41.8962 149.995 41.1339 149.531C40.3763 149.062 39.7915 148.409 39.3796 147.571C38.9724 146.728 38.7688 145.748 38.7688 144.631C38.7688 143.513 38.9724 142.528 39.3796 141.676C39.7915 140.819 40.3645 140.152 41.0984 139.673C41.837 139.19 42.6987 138.949 43.6836 138.949C44.2518 138.949 44.8129 139.044 45.3668 139.233C45.9208 139.422 46.4251 139.73 46.8796 140.156C47.3342 140.578 47.6964 141.136 47.9663 141.832C48.2362 142.528 48.3711 143.385 48.3711 144.403V145.114H39.962V143.665H46.6665C46.6665 143.049 46.5434 142.5 46.2972 142.017C46.0558 141.534 45.7101 141.153 45.2603 140.874C44.8152 140.594 44.2897 140.455 43.6836 140.455C43.016 140.455 42.4383 140.62 41.9506 140.952C41.4677 141.278 41.096 141.705 40.8356 142.23C40.5752 142.756 40.445 143.319 40.445 143.92V144.886C40.445 145.71 40.587 146.409 40.8711 146.982C41.1599 147.55 41.56 147.983 42.0714 148.281C42.5827 148.575 43.177 148.722 43.854 148.722C44.2944 148.722 44.6921 148.66 45.0472 148.537C45.4071 148.409 45.7172 148.22 45.9776 147.969C46.238 147.713 46.4393 147.396 46.5813 147.017L48.2006 147.472C48.0302 148.021 47.7437 148.504 47.3413 148.92C46.9388 149.332 46.4416 149.654 45.8498 149.886C45.2579 150.114 44.5927 150.227 43.854 150.227ZM55.6651 139.091V140.511H50.0117V139.091H55.6651ZM51.6594 136.477H53.3356V146.875C53.3356 147.348 53.4042 147.704 53.5415 147.94C53.6836 148.172 53.8635 148.329 54.0813 148.409C54.3039 148.485 54.5382 148.523 54.7844 148.523C54.9691 148.523 55.1206 148.513 55.239 148.494C55.3574 148.471 55.4521 148.452 55.5231 148.438L55.864 149.943C55.7504 149.986 55.5917 150.028 55.3881 150.071C55.1845 150.118 54.9265 150.142 54.614 150.142C54.1405 150.142 53.6765 150.04 53.2219 149.837C52.7721 149.633 52.3981 149.323 52.0998 148.906C51.8062 148.49 51.6594 147.964 51.6594 147.33V136.477ZM62.9308 139.091V140.511H57.2773V139.091H62.9308ZM58.9251 136.477H60.6012V146.875C60.6012 147.348 60.6699 147.704 60.8072 147.94C60.9492 148.172 61.1291 148.329 61.3469 148.409C61.5695 148.485 61.8039 148.523 62.0501 148.523C62.2347 148.523 62.3862 148.513 62.5046 148.494C62.623 148.471 62.7177 148.452 62.7887 148.438L63.1296 149.943C63.016 149.986 62.8574 150.028 62.6538 150.071C62.4502 150.118 62.1921 150.142 61.8796 150.142C61.4061 150.142 60.9421 150.04 60.4876 149.837C60.0378 149.633 59.6637 149.323 59.3654 148.906C59.0719 148.49 58.9251 147.964 58.9251 147.33V136.477ZM69.9087 150.227C68.8576 150.227 67.9509 149.995 67.1886 149.531C66.431 149.062 65.8462 148.409 65.4343 147.571C65.0271 146.728 64.8235 145.748 64.8235 144.631C64.8235 143.513 65.0271 142.528 65.4343 141.676C65.8462 140.819 66.4192 140.152 67.1531 139.673C67.8917 139.19 68.7534 138.949 69.7383 138.949C70.3065 138.949 70.8675 139.044 71.4215 139.233C71.9755 139.422 72.4798 139.73 72.9343 140.156C73.3888 140.578 73.7511 141.136 74.021 141.832C74.2908 142.528 74.4258 143.385 74.4258 144.403V145.114H66.0167V143.665H72.7212C72.7212 143.049 72.5981 142.5 72.3519 142.017C72.1104 141.534 71.7648 141.153 71.315 140.874C70.8699 140.594 70.3443 140.455 69.7383 140.455C69.0707 140.455 68.493 140.62 68.0053 140.952C67.5224 141.278 67.1507 141.705 66.8903 142.23C66.6299 142.756 66.4996 143.319 66.4996 143.92V144.886C66.4996 145.71 66.6417 146.409 66.9258 146.982C67.2146 147.55 67.6147 147.983 68.1261 148.281C68.6374 148.575 69.2317 148.722 69.9087 148.722C70.3491 148.722 70.7468 148.66 71.1019 148.537C71.4618 148.409 71.7719 148.22 72.0323 147.969C72.2927 147.713 72.494 147.396 72.636 147.017L74.2553 147.472C74.0849 148.021 73.7984 148.504 73.396 148.92C72.9935 149.332 72.4963 149.654 71.9045 149.886C71.3126 150.114 70.6474 150.227 69.9087 150.227ZM76.9755 150V139.091H78.5948V140.739H78.7085C78.9073 140.199 79.2672 139.761 79.788 139.425C80.3088 139.089 80.896 138.92 81.5494 138.92C81.6725 138.92 81.8263 138.923 82.011 138.928C82.1957 138.932 82.3353 138.939 82.43 138.949V140.653C82.3732 140.639 82.243 140.618 82.0394 140.589C81.8406 140.556 81.6299 140.54 81.4073 140.54C80.877 140.54 80.4035 140.651 79.9869 140.874C79.5749 141.091 79.2482 141.394 79.0067 141.783C78.77 142.166 78.6516 142.604 78.6516 143.097V150H76.9755ZM101.974 140H100.212C100.108 139.493 99.9259 139.048 99.6655 138.665C99.4098 138.281 99.0973 137.959 98.728 137.699C98.3634 137.434 97.9586 137.235 97.5135 137.102C97.0684 136.97 96.6044 136.903 96.1214 136.903C95.2408 136.903 94.4429 137.126 93.728 137.571C93.0178 138.016 92.4519 138.672 92.0305 139.538C91.6139 140.405 91.4055 141.468 91.4055 142.727C91.4055 143.987 91.6139 145.05 92.0305 145.916C92.4519 146.783 93.0178 147.438 93.728 147.884C94.4429 148.329 95.2408 148.551 96.1214 148.551C96.6044 148.551 97.0684 148.485 97.5135 148.352C97.9586 148.22 98.3634 148.023 98.728 147.763C99.0973 147.498 99.4098 147.173 99.6655 146.79C99.9259 146.402 100.108 145.956 100.212 145.455H101.974C101.841 146.198 101.6 146.863 101.249 147.45C100.899 148.037 100.463 148.537 99.9425 148.949C99.4216 149.356 98.8369 149.666 98.1882 149.879C97.5443 150.092 96.8554 150.199 96.1214 150.199C94.8809 150.199 93.7777 149.896 92.8118 149.29C91.8459 148.684 91.0859 147.822 90.532 146.705C89.978 145.587 89.701 144.261 89.701 142.727C89.701 141.193 89.978 139.867 90.532 138.75C91.0859 137.633 91.8459 136.771 92.8118 136.165C93.7777 135.559 94.8809 135.256 96.1214 135.256C96.8554 135.256 97.5443 135.362 98.1882 135.575C98.8369 135.788 99.4216 136.101 99.9425 136.513C100.463 136.92 100.899 137.417 101.249 138.004C101.6 138.587 101.841 139.252 101.974 140Z"></path>
<path fill="black" d="M32.2457 60H29.6037C29.4474 59.2401 29.174 58.5724 28.7834 57.9972C28.3999 57.4219 27.9311 56.9389 27.3771 56.5483C26.8303 56.1506 26.223 55.8523 25.5554 55.6534C24.8878 55.4545 24.1918 55.3551 23.4673 55.3551C22.1463 55.3551 20.9496 55.6889 19.8771 56.3565C18.8118 57.0241 17.9631 58.0078 17.331 59.3075C16.706 60.6072 16.3935 62.2017 16.3935 64.0909C16.3935 65.9801 16.706 67.5746 17.331 68.8743C17.9631 70.174 18.8118 71.1577 19.8771 71.8253C20.9496 72.4929 22.1463 72.8267 23.4673 72.8267C24.1918 72.8267 24.8878 72.7273 25.5554 72.5284C26.223 72.3295 26.8303 72.0348 27.3771 71.6442C27.9311 71.2464 28.3999 70.7599 28.7834 70.1847C29.174 69.6023 29.4474 68.9347 29.6037 68.1818H32.2457C32.0469 69.2969 31.6847 70.2947 31.1591 71.1754C30.6335 72.0561 29.9801 72.8054 29.1989 73.4233C28.4176 74.0341 27.5405 74.4993 26.5675 74.8189C25.6016 75.1385 24.5682 75.2983 23.4673 75.2983C21.6065 75.2983 19.9517 74.8438 18.5028 73.9347C17.054 73.0256 15.9141 71.733 15.0831 70.0568C14.2521 68.3807 13.8366 66.392 13.8366 64.0909C13.8366 61.7898 14.2521 59.8011 15.0831 58.125C15.9141 56.4489 17.054 55.1562 18.5028 54.2472C19.9517 53.3381 21.6065 52.8835 23.4673 52.8835C24.5682 52.8835 25.6016 53.0433 26.5675 53.3629C27.5405 53.6825 28.4176 54.1513 29.1989 54.7692C29.9801 55.38 30.6335 56.1257 31.1591 57.0064C31.6847 57.88 32.0469 58.8778 32.2457 60ZM42.8219 75.3409C41.3446 75.3409 40.0485 74.9893 38.9334 74.2862C37.8255 73.5831 36.959 72.5994 36.334 71.3352C35.7161 70.071 35.4071 68.5937 35.4071 66.9034C35.4071 65.1989 35.7161 63.7109 36.334 62.4396C36.959 61.1683 37.8255 60.1811 38.9334 59.478C40.0485 58.7749 41.3446 58.4233 42.8219 58.4233C44.2992 58.4233 45.5918 58.7749 46.6998 59.478C47.8148 60.1811 48.6813 61.1683 49.2992 62.4396C49.9242 63.7109 50.2367 65.1989 50.2367 66.9034C50.2367 68.5937 49.9242 70.071 49.2992 71.3352C48.6813 72.5994 47.8148 73.5831 46.6998 74.2862C45.5918 74.9893 44.2992 75.3409 42.8219 75.3409ZM42.8219 73.0824C43.9441 73.0824 44.8674 72.7947 45.5918 72.2195C46.3162 71.6442 46.8525 70.8878 47.2005 69.9503C47.5485 69.0128 47.7225 67.9972 47.7225 66.9034C47.7225 65.8097 47.5485 64.7905 47.2005 63.8459C46.8525 62.9013 46.3162 62.1378 45.5918 61.5554C44.8674 60.973 43.9441 60.6818 42.8219 60.6818C41.6998 60.6818 40.7765 60.973 40.052 61.5554C39.3276 62.1378 38.7914 62.9013 38.4434 63.8459C38.0953 64.7905 37.9213 65.8097 37.9213 66.9034C37.9213 67.9972 38.0953 69.0128 38.4434 69.9503C38.7914 70.8878 39.3276 71.6442 40.052 72.2195C40.7765 72.7947 41.6998 73.0824 42.8219 73.0824ZM56.5888 65.1562V75H54.0746V58.6364H56.5036V61.1932H56.7166C57.1001 60.3622 57.6825 59.6946 58.4638 59.1903C59.245 58.679 60.2536 58.4233 61.4893 58.4233C62.5973 58.4233 63.5668 58.6506 64.3977 59.1051C65.2287 59.5526 65.875 60.2344 66.3366 61.1506C66.7983 62.0597 67.0291 63.2102 67.0291 64.6023V75H64.5149V64.7727C64.5149 63.4872 64.1811 62.4858 63.5135 61.7685C62.8459 61.044 61.9297 60.6818 60.7649 60.6818C59.9624 60.6818 59.245 60.8558 58.6129 61.2038C57.9879 61.5518 57.4943 62.0597 57.1321 62.7273C56.7699 63.3949 56.5888 64.2045 56.5888 65.1562ZM78.7399 58.6364V60.767H70.2598V58.6364H78.7399ZM72.7314 54.7159H75.2456V70.3125C75.2456 71.0227 75.3485 71.5554 75.5545 71.9105C75.7676 72.2585 76.0375 72.4929 76.3642 72.6136C76.698 72.7273 77.0495 72.7841 77.4189 72.7841C77.6958 72.7841 77.9231 72.7699 78.1007 72.7415C78.2782 72.706 78.4203 72.6776 78.5268 72.6562L79.0382 74.9148C78.8677 74.9787 78.6298 75.0426 78.3244 75.1065C78.019 75.1776 77.6319 75.2131 77.1632 75.2131C76.4529 75.2131 75.7569 75.0604 75.0751 74.755C74.4004 74.4496 73.8393 73.9844 73.3919 73.3594C72.9515 72.7344 72.7314 71.946 72.7314 70.9943V54.7159ZM89.2069 75.3409C87.6301 75.3409 86.2701 74.9929 85.1266 74.2969C83.9902 73.5938 83.1131 72.6136 82.4952 71.3565C81.8844 70.0923 81.579 68.6222 81.579 66.946C81.579 65.2699 81.8844 63.7926 82.4952 62.5142C83.1131 61.2287 83.9725 60.2273 85.0733 59.5099C86.1813 58.7855 87.4739 58.4233 88.9512 58.4233C89.8034 58.4233 90.6451 58.5653 91.476 58.8494C92.307 59.1335 93.0634 59.5952 93.7452 60.2344C94.427 60.8665 94.9703 61.7045 95.3752 62.7486C95.78 63.7926 95.9824 65.0781 95.9824 66.6051V67.6705H83.3688V65.4972H93.4256C93.4256 64.5739 93.2409 63.75 92.8716 63.0256C92.5094 62.3011 91.9909 61.7294 91.3162 61.3104C90.6486 60.8913 89.8603 60.6818 88.9512 60.6818C87.9498 60.6818 87.0833 60.9304 86.3517 61.4276C85.6273 61.9176 85.0698 62.5568 84.6792 63.3452C84.2885 64.1335 84.0932 64.9787 84.0932 65.8807V67.3295C84.0932 68.5653 84.3063 69.6129 84.7324 70.4723C85.1657 71.3246 85.7658 71.9744 86.5328 72.4219C87.2999 72.8622 88.1912 73.0824 89.2069 73.0824C89.8674 73.0824 90.464 72.9901 90.9966 72.8054C91.5364 72.6136 92.0016 72.3295 92.3922 71.9531C92.7828 71.5696 93.0847 71.0937 93.2978 70.5256L95.7267 71.2074C95.4711 72.0312 95.0414 72.7557 94.4377 73.3807C93.834 73.9986 93.0882 74.4815 92.2005 74.8295C91.3127 75.1705 90.3148 75.3409 89.2069 75.3409ZM102.321 65.1562V75H99.807V58.6364H102.236V61.1932H102.449C102.833 60.3622 103.415 59.6946 104.196 59.1903C104.977 58.679 105.986 58.4233 107.222 58.4233C108.33 58.4233 109.299 58.6506 110.13 59.1051C110.961 59.5526 111.607 60.2344 112.069 61.1506C112.531 62.0597 112.762 63.2102 112.762 64.6023V75H110.247V64.7727C110.247 63.4872 109.914 62.4858 109.246 61.7685C108.578 61.044 107.662 60.6818 106.497 60.6818C105.695 60.6818 104.977 60.8558 104.345 61.2038C103.72 61.5518 103.227 62.0597 102.865 62.7273C102.502 63.3949 102.321 64.2045 102.321 65.1562ZM124.472 58.6364V60.767H115.992V58.6364H124.472ZM118.464 54.7159H120.978V70.3125C120.978 71.0227 121.081 71.5554 121.287 71.9105C121.5 72.2585 121.77 72.4929 122.097 72.6136C122.43 72.7273 122.782 72.7841 123.151 72.7841C123.428 72.7841 123.656 72.7699 123.833 72.7415C124.011 72.706 124.153 72.6776 124.259 72.6562L124.771 74.9148C124.6 74.9787 124.362 75.0426 124.057 75.1065C123.751 75.1776 123.364 75.2131 122.896 75.2131C122.185 75.2131 121.489 75.0604 120.808 74.755C120.133 74.4496 119.572 73.9844 119.124 73.3594C118.684 72.7344 118.464 71.946 118.464 70.9943V54.7159Z"></path>
</svg>
