<svg xmlns="http://www.w3.org/2000/svg" fill="none" viewBox="0 0 139 164" height="164" width="139">
<path fill="#43D059" d="M0 20C0 8.95431 8.95431 0 20 0H119C130.046 0 139 8.95431 139 20V144C139 155.046 130.046 164 119 164H20C8.95431 164 0 155.046 0 144V20Z"></path>
<path fill="black" d="M36.2102 135.455V150H34.5341V135.455H36.2102ZM43.854 150.227C42.8029 150.227 41.8962 149.995 41.1339 149.531C40.3763 149.062 39.7915 148.409 39.3796 147.571C38.9724 146.728 38.7688 145.748 38.7688 144.631C38.7688 143.513 38.9724 142.528 39.3796 141.676C39.7915 140.819 40.3645 140.152 41.0984 139.673C41.837 139.19 42.6987 138.949 43.6836 138.949C44.2518 138.949 44.8129 139.044 45.3668 139.233C45.9208 139.422 46.4251 139.73 46.8796 140.156C47.3342 140.578 47.6964 141.136 47.9663 141.832C48.2362 142.528 48.3711 143.385 48.3711 144.403V145.114H39.962V143.665H46.6665C46.6665 143.049 46.5434 142.5 46.2972 142.017C46.0558 141.534 45.7101 141.153 45.2603 140.874C44.8152 140.594 44.2897 140.455 43.6836 140.455C43.016 140.455 42.4383 140.62 41.9506 140.952C41.4677 141.278 41.096 141.705 40.8356 142.23C40.5752 142.756 40.445 143.319 40.445 143.92V144.886C40.445 145.71 40.587 146.409 40.8711 146.982C41.1599 147.55 41.56 147.983 42.0714 148.281C42.5827 148.575 43.177 148.722 43.854 148.722C44.2944 148.722 44.6921 148.66 45.0472 148.537C45.4071 148.409 45.7172 148.22 45.9776 147.969C46.238 147.713 46.4393 147.396 46.5813 147.017L48.2006 147.472C48.0302 148.021 47.7437 148.504 47.3413 148.92C46.9388 149.332 46.4416 149.654 45.8498 149.886C45.2579 150.114 44.5927 150.227 43.854 150.227ZM55.6651 139.091V140.511H50.0117V139.091H55.6651ZM51.6594 136.477H53.3356V146.875C53.3356 147.348 53.4042 147.704 53.5415 147.94C53.6836 148.172 53.8635 148.329 54.0813 148.409C54.3039 148.485 54.5382 148.523 54.7844 148.523C54.9691 148.523 55.1206 148.513 55.239 148.494C55.3574 148.471 55.4521 148.452 55.5231 148.438L55.864 149.943C55.7504 149.986 55.5917 150.028 55.3881 150.071C55.1845 150.118 54.9265 150.142 54.614 150.142C54.1405 150.142 53.6765 150.04 53.2219 149.837C52.7721 149.633 52.3981 149.323 52.0998 148.906C51.8062 148.49 51.6594 147.964 51.6594 147.33V136.477ZM62.9308 139.091V140.511H57.2773V139.091H62.9308ZM58.9251 136.477H60.6012V146.875C60.6012 147.348 60.6699 147.704 60.8072 147.94C60.9492 148.172 61.1291 148.329 61.3469 148.409C61.5695 148.485 61.8039 148.523 62.0501 148.523C62.2347 148.523 62.3862 148.513 62.5046 148.494C62.623 148.471 62.7177 148.452 62.7887 148.438L63.1296 149.943C63.016 149.986 62.8574 150.028 62.6538 150.071C62.4502 150.118 62.1921 150.142 61.8796 150.142C61.4061 150.142 60.9421 150.04 60.4876 149.837C60.0378 149.633 59.6637 149.323 59.3654 148.906C59.0719 148.49 58.9251 147.964 58.9251 147.33V136.477ZM69.9087 150.227C68.8576 150.227 67.9509 149.995 67.1886 149.531C66.431 149.062 65.8462 148.409 65.4343 147.571C65.0271 146.728 64.8235 145.748 64.8235 144.631C64.8235 143.513 65.0271 142.528 65.4343 141.676C65.8462 140.819 66.4192 140.152 67.1531 139.673C67.8917 139.19 68.7534 138.949 69.7383 138.949C70.3065 138.949 70.8675 139.044 71.4215 139.233C71.9755 139.422 72.4798 139.73 72.9343 140.156C73.3888 140.578 73.7511 141.136 74.021 141.832C74.2908 142.528 74.4258 143.385 74.4258 144.403V145.114H66.0167V143.665H72.7212C72.7212 143.049 72.5981 142.5 72.3519 142.017C72.1104 141.534 71.7648 141.153 71.315 140.874C70.8699 140.594 70.3443 140.455 69.7383 140.455C69.0707 140.455 68.493 140.62 68.0053 140.952C67.5224 141.278 67.1507 141.705 66.8903 142.23C66.6299 142.756 66.4996 143.319 66.4996 143.92V144.886C66.4996 145.71 66.6417 146.409 66.9258 146.982C67.2146 147.55 67.6147 147.983 68.1261 148.281C68.6374 148.575 69.2317 148.722 69.9087 148.722C70.3491 148.722 70.7468 148.66 71.1019 148.537C71.4618 148.409 71.7719 148.22 72.0323 147.969C72.2927 147.713 72.494 147.396 72.636 147.017L74.2553 147.472C74.0849 148.021 73.7984 148.504 73.396 148.92C72.9935 149.332 72.4963 149.654 71.9045 149.886C71.3126 150.114 70.6474 150.227 69.9087 150.227ZM76.9755 150V139.091H78.5948V140.739H78.7085C78.9073 140.199 79.2672 139.761 79.788 139.425C80.3088 139.089 80.896 138.92 81.5494 138.92C81.6725 138.92 81.8263 138.923 82.011 138.928C82.1957 138.932 82.3353 138.939 82.43 138.949V140.653C82.3732 140.639 82.243 140.618 82.0394 140.589C81.8406 140.556 81.6299 140.54 81.4073 140.54C80.877 140.54 80.4035 140.651 79.9869 140.874C79.5749 141.091 79.2482 141.394 79.0067 141.783C78.77 142.166 78.6516 142.604 78.6516 143.097V150H76.9755ZM90.2692 150V135.455H95.3544C96.3677 135.455 97.2034 135.63 97.8615 135.98C98.5197 136.326 99.0097 136.792 99.3317 137.379C99.6536 137.962 99.8146 138.608 99.8146 139.318C99.8146 139.943 99.7034 140.459 99.4808 140.866C99.263 141.274 98.9742 141.596 98.6143 141.832C98.2592 142.069 97.8733 142.244 97.4567 142.358V142.5C97.9018 142.528 98.3492 142.685 98.799 142.969C99.2488 143.253 99.6252 143.66 99.9283 144.19C100.231 144.721 100.383 145.369 100.383 146.136C100.383 146.866 100.217 147.521 99.8857 148.104C99.5542 148.686 99.031 149.148 98.3161 149.489C97.6011 149.83 96.6707 150 95.5249 150H90.2692ZM92.0305 148.438H95.5249C96.6754 148.438 97.4922 148.215 97.9751 147.77C98.4628 147.32 98.7067 146.776 98.7067 146.136C98.7067 145.644 98.5812 145.189 98.3303 144.773C98.0793 144.351 97.7218 144.015 97.2578 143.764C96.7938 143.509 96.2446 143.381 95.6101 143.381H92.0305V148.438ZM92.0305 141.847H95.2976C95.8279 141.847 96.3061 141.742 96.7322 141.534C97.1631 141.326 97.504 141.032 97.755 140.653C98.0107 140.275 98.1385 139.83 98.1385 139.318C98.1385 138.679 97.916 138.137 97.4709 137.692C97.0258 137.242 96.3203 137.017 95.3544 137.017H92.0305V141.847Z"></path>
<path fill="black" d="M33.2777 53V35.5455H39.1754C40.5447 35.5455 41.6641 35.7926 42.5334 36.2869C43.4084 36.7756 44.0561 37.4375 44.4766 38.2727C44.897 39.108 45.1072 40.0398 45.1072 41.0682C45.1072 42.0966 44.897 43.0312 44.4766 43.8722C44.0618 44.7131 43.4197 45.3835 42.5504 45.8835C41.6811 46.3778 40.5675 46.625 39.2095 46.625H34.9822V44.75H39.1413C40.0788 44.75 40.8317 44.5881 41.3999 44.2642C41.968 43.9403 42.38 43.5028 42.6357 42.9517C42.897 42.3949 43.0277 41.767 43.0277 41.0682C43.0277 40.3693 42.897 39.7443 42.6357 39.1932C42.38 38.642 41.9652 38.2102 41.3913 37.8977C40.8175 37.5795 40.0561 37.4205 39.1072 37.4205H35.3913V53H33.2777ZM50.2507 45.125V53H48.2393V35.5455H50.2507V41.9545H50.4212C50.728 41.2784 51.1882 40.7415 51.8018 40.3438C52.4212 39.9403 53.245 39.7386 54.2734 39.7386C55.1655 39.7386 55.9467 39.9176 56.6172 40.2756C57.2876 40.6278 57.8075 41.1705 58.1768 41.9034C58.5518 42.6307 58.7393 43.5568 58.7393 44.6818V53H56.728V44.8182C56.728 43.7784 56.4581 42.9744 55.9183 42.4062C55.3842 41.8324 54.6428 41.5455 53.6939 41.5455C53.0348 41.5455 52.4439 41.6847 51.9212 41.9631C51.4041 42.2415 50.995 42.6477 50.6939 43.1818C50.3984 43.7159 50.2507 44.3636 50.2507 45.125ZM67.7372 53.2727C66.5554 53.2727 65.5185 52.9915 64.6264 52.429C63.7401 51.8665 63.0469 51.0795 62.5469 50.0682C62.0526 49.0568 61.8054 47.875 61.8054 46.5227C61.8054 45.1591 62.0526 43.9687 62.5469 42.9517C63.0469 41.9347 63.7401 41.1449 64.6264 40.5824C65.5185 40.0199 66.5554 39.7386 67.7372 39.7386C68.919 39.7386 69.9531 40.0199 70.8395 40.5824C71.7315 41.1449 72.4247 41.9347 72.919 42.9517C73.419 43.9687 73.669 45.1591 73.669 46.5227C73.669 47.875 73.419 49.0568 72.919 50.0682C72.4247 51.0795 71.7315 51.8665 70.8395 52.429C69.9531 52.9915 68.919 53.2727 67.7372 53.2727ZM67.7372 51.4659C68.6349 51.4659 69.3736 51.2358 69.9531 50.7756C70.5327 50.3153 70.9616 49.7102 71.2401 48.9602C71.5185 48.2102 71.6577 47.3977 71.6577 46.5227C71.6577 45.6477 71.5185 44.8324 71.2401 44.0767C70.9616 43.321 70.5327 42.7102 69.9531 42.2443C69.3736 41.7784 68.6349 41.5455 67.7372 41.5455C66.8395 41.5455 66.1009 41.7784 65.5213 42.2443C64.9418 42.7102 64.5128 43.321 64.2344 44.0767C63.956 44.8324 63.8168 45.6477 63.8168 46.5227C63.8168 47.3977 63.956 48.2102 64.2344 48.9602C64.5128 49.7102 64.9418 50.3153 65.5213 50.7756C66.1009 51.2358 66.8395 51.4659 67.7372 51.4659ZM82.4325 39.9091V41.6136H75.6484V39.9091H82.4325ZM77.6257 36.7727H79.6371V49.25C79.6371 49.8182 79.7195 50.2443 79.8842 50.5284C80.0547 50.8068 80.2706 50.9943 80.532 51.0909C80.799 51.1818 81.0803 51.2273 81.3757 51.2273C81.5973 51.2273 81.7791 51.2159 81.9212 51.1932C82.0632 51.1648 82.1768 51.142 82.2621 51.125L82.6712 52.9318C82.5348 52.983 82.3445 53.0341 82.1001 53.0852C81.8558 53.142 81.5462 53.1705 81.1712 53.1705C80.603 53.1705 80.0462 53.0483 79.5007 52.804C78.9609 52.5597 78.5121 52.1875 78.1541 51.6875C77.8018 51.1875 77.6257 50.5568 77.6257 49.7955V36.7727ZM90.6357 53.2727C89.4538 53.2727 88.4169 52.9915 87.5249 52.429C86.6385 51.8665 85.9453 51.0795 85.4453 50.0682C84.951 49.0568 84.7038 47.875 84.7038 46.5227C84.7038 45.1591 84.951 43.9687 85.4453 42.9517C85.9453 41.9347 86.6385 41.1449 87.5249 40.5824C88.4169 40.0199 89.4538 39.7386 90.6357 39.7386C91.8175 39.7386 92.8516 40.0199 93.7379 40.5824C94.63 41.1449 95.3232 41.9347 95.8175 42.9517C96.3175 43.9687 96.5675 45.1591 96.5675 46.5227C96.5675 47.875 96.3175 49.0568 95.8175 50.0682C95.3232 51.0795 94.63 51.8665 93.7379 52.429C92.8516 52.9915 91.8175 53.2727 90.6357 53.2727ZM90.6357 51.4659C91.5334 51.4659 92.272 51.2358 92.8516 50.7756C93.4311 50.3153 93.8601 49.7102 94.1385 48.9602C94.4169 48.2102 94.5561 47.3977 94.5561 46.5227C94.5561 45.6477 94.4169 44.8324 94.1385 44.0767C93.8601 43.321 93.4311 42.7102 92.8516 42.2443C92.272 41.7784 91.5334 41.5455 90.6357 41.5455C89.7379 41.5455 88.9993 41.7784 88.4197 42.2443C87.8402 42.7102 87.4112 43.321 87.1328 44.0767C86.8544 44.8324 86.7152 45.6477 86.7152 46.5227C86.7152 47.3977 86.8544 48.2102 87.1328 48.9602C87.4112 49.7102 87.8402 50.3153 88.4197 50.7756C88.9993 51.2358 89.7379 51.4659 90.6357 51.4659ZM107.138 44.5795V46.4545H99.5014V44.5795H107.138ZM27.1839 71.8409L25.3771 72.3523C25.2635 72.0511 25.0959 71.7585 24.8743 71.4744C24.6584 71.1847 24.3629 70.946 23.9879 70.7585C23.6129 70.571 23.1328 70.4773 22.5476 70.4773C21.7464 70.4773 21.0788 70.6619 20.5447 71.0312C20.0163 71.3949 19.7521 71.858 19.7521 72.4205C19.7521 72.9205 19.9339 73.3153 20.2976 73.6051C20.6612 73.8949 21.2294 74.1364 22.0021 74.3295L23.9453 74.8068C25.1158 75.0909 25.9879 75.5256 26.5618 76.1108C27.1357 76.6903 27.4226 77.4375 27.4226 78.3523C27.4226 79.1023 27.2067 79.7727 26.7749 80.3636C26.3487 80.9545 25.7521 81.4205 24.9851 81.7614C24.218 82.1023 23.326 82.2727 22.3089 82.2727C20.9737 82.2727 19.8686 81.983 18.9936 81.4034C18.1186 80.8239 17.5646 79.9773 17.3317 78.8636L19.2408 78.3864C19.4226 79.0909 19.7663 79.6193 20.272 79.9716C20.7834 80.3239 21.451 80.5 22.2749 80.5C23.2124 80.5 23.9567 80.3011 24.5078 79.9034C25.0646 79.5 25.343 79.017 25.343 78.4545C25.343 78 25.1839 77.6193 24.8658 77.3125C24.5476 77 24.0589 76.767 23.3999 76.6136L21.218 76.1023C20.0192 75.8182 19.1385 75.3778 18.576 74.7812C18.0192 74.179 17.7408 73.4261 17.7408 72.5227C17.7408 71.7841 17.9482 71.1307 18.3629 70.5625C18.7834 69.9943 19.3544 69.5483 20.076 69.2244C20.8033 68.9006 21.6271 68.7386 22.5476 68.7386C23.843 68.7386 24.8601 69.0227 25.5987 69.5909C26.343 70.1591 26.8714 70.9091 27.1839 71.8409ZM31.7457 86.9091C31.4048 86.9091 31.1009 86.8807 30.8338 86.8239C30.5668 86.7727 30.3821 86.7216 30.2798 86.6705L30.7912 84.8977C31.2798 85.0227 31.7116 85.0682 32.0866 85.0341C32.4616 85 32.794 84.8324 33.0838 84.5312C33.3793 84.2358 33.6491 83.7557 33.8935 83.0909L34.2685 82.0682L29.4276 68.9091H31.6094L35.223 79.3409H35.3594L38.973 68.9091H41.1548L35.598 83.9091C35.348 84.5852 35.0384 85.1449 34.669 85.5881C34.2997 86.0369 33.8707 86.3693 33.3821 86.5852C32.8991 86.8011 32.3537 86.9091 31.7457 86.9091ZM45.821 74.125V82H43.8097V68.9091H45.7528V70.9545H45.9233C46.2301 70.2898 46.696 69.7557 47.321 69.3523C47.946 68.9432 48.7528 68.7386 49.7415 68.7386C50.6278 68.7386 51.4034 68.9205 52.0682 69.2841C52.733 69.642 53.25 70.1875 53.6193 70.9205C53.9886 71.6477 54.1733 72.5682 54.1733 73.6818V82H52.1619V73.8182C52.1619 72.7898 51.8949 71.9886 51.3608 71.4148C50.8267 70.8352 50.0938 70.5455 49.1619 70.5455C48.5199 70.5455 47.946 70.6847 47.4403 70.9631C46.9403 71.2415 46.5455 71.6477 46.2557 72.1818C45.9659 72.7159 45.821 73.3636 45.821 74.125ZM63.5419 68.9091V70.6136H56.7578V68.9091H63.5419ZM58.7351 65.7727H60.7464V78.25C60.7464 78.8182 60.8288 79.2443 60.9936 79.5284C61.1641 79.8068 61.38 79.9943 61.6413 80.0909C61.9084 80.1818 62.1896 80.2273 62.4851 80.2273C62.7067 80.2273 62.8885 80.2159 63.0305 80.1932C63.1726 80.1648 63.2862 80.142 63.3714 80.125L63.7805 81.9318C63.6442 81.983 63.4538 82.0341 63.2095 82.0852C62.9652 82.142 62.6555 82.1705 62.2805 82.1705C61.7124 82.1705 61.1555 82.0483 60.6101 81.804C60.0703 81.5597 59.6214 81.1875 59.2635 80.6875C58.9112 80.1875 58.7351 79.5568 58.7351 78.7955V65.7727ZM68.8601 74.125V82H66.8487V64.5455H68.8601V70.9545H69.0305C69.3374 70.2784 69.7976 69.7415 70.4112 69.3438C71.0305 68.9403 71.8544 68.7386 72.8828 68.7386C73.7749 68.7386 74.5561 68.9176 75.2266 69.2756C75.897 69.6278 76.4169 70.1705 76.7862 70.9034C77.1612 71.6307 77.3487 72.5568 77.3487 73.6818V82H75.3374V73.8182C75.3374 72.7784 75.0675 71.9744 74.5277 71.4062C73.9936 70.8324 73.2521 70.5455 72.3033 70.5455C71.6442 70.5455 71.0533 70.6847 70.5305 70.9631C70.0135 71.2415 69.6044 71.6477 69.3033 72.1818C69.0078 72.7159 68.8601 73.3636 68.8601 74.125ZM86.517 82.2727C85.2557 82.2727 84.1676 81.9943 83.2528 81.4375C82.3438 80.875 81.642 80.0909 81.1477 79.0852C80.6591 78.0739 80.4148 76.8977 80.4148 75.5568C80.4148 74.2159 80.6591 73.0341 81.1477 72.0114C81.642 70.983 82.3295 70.1818 83.2102 69.608C84.0966 69.0284 85.1307 68.7386 86.3125 68.7386C86.9943 68.7386 87.6676 68.8523 88.3324 69.0795C88.9972 69.3068 89.6023 69.6761 90.1477 70.1875C90.6932 70.6932 91.1278 71.3636 91.4517 72.1989C91.7756 73.0341 91.9375 74.0625 91.9375 75.2841V76.1364H81.8466V74.3977H89.892C89.892 73.6591 89.7443 73 89.4489 72.4205C89.1591 71.8409 88.7443 71.3835 88.2045 71.0483C87.6705 70.7131 87.0398 70.5455 86.3125 70.5455C85.5114 70.5455 84.8182 70.7443 84.233 71.142C83.6534 71.5341 83.2074 72.0455 82.8949 72.6761C82.5824 73.3068 82.4261 73.983 82.4261 74.7045V75.8636C82.4261 76.8523 82.5966 77.6903 82.9375 78.3778C83.2841 79.0597 83.7642 79.5795 84.3778 79.9375C84.9915 80.2898 85.7045 80.4659 86.517 80.4659C87.0455 80.4659 87.5227 80.392 87.9489 80.2443C88.3807 80.0909 88.7528 79.8636 89.0653 79.5625C89.3778 79.2557 89.6193 78.875 89.7898 78.4205L91.733 78.9659C91.5284 79.625 91.1847 80.2045 90.7017 80.7045C90.2188 81.1989 89.6222 81.5852 88.9119 81.8636C88.2017 82.1364 87.4034 82.2727 86.517 82.2727ZM104.27 71.8409L102.463 72.3523C102.349 72.0511 102.182 71.7585 101.96 71.4744C101.744 71.1847 101.449 70.946 101.074 70.7585C100.699 70.571 100.219 70.4773 99.6335 70.4773C98.8324 70.4773 98.1648 70.6619 97.6307 71.0312C97.1023 71.3949 96.8381 71.858 96.8381 72.4205C96.8381 72.9205 97.0199 73.3153 97.3835 73.6051C97.7472 73.8949 98.3153 74.1364 99.0881 74.3295L101.031 74.8068C102.202 75.0909 103.074 75.5256 103.648 76.1108C104.222 76.6903 104.509 77.4375 104.509 78.3523C104.509 79.1023 104.293 79.7727 103.861 80.3636C103.435 80.9545 102.838 81.4205 102.071 81.7614C101.304 82.1023 100.412 82.2727 99.3949 82.2727C98.0597 82.2727 96.9545 81.983 96.0795 81.4034C95.2045 80.8239 94.6506 79.9773 94.4176 78.8636L96.3267 78.3864C96.5085 79.0909 96.8523 79.6193 97.358 79.9716C97.8693 80.3239 98.5369 80.5 99.3608 80.5C100.298 80.5 101.043 80.3011 101.594 79.9034C102.151 79.5 102.429 79.017 102.429 78.4545C102.429 78 102.27 77.6193 101.952 77.3125C101.634 77 101.145 76.767 100.486 76.6136L98.304 76.1023C97.1051 75.8182 96.2244 75.3778 95.6619 74.7812C95.1051 74.179 94.8267 73.4261 94.8267 72.5227C94.8267 71.7841 95.0341 71.1307 95.4489 70.5625C95.8693 69.9943 96.4403 69.5483 97.1619 69.2244C97.8892 68.9006 98.7131 68.7386 99.6335 68.7386C100.929 68.7386 101.946 69.0227 102.685 69.5909C103.429 70.1591 103.957 70.9091 104.27 71.8409ZM107.536 82V68.9091H109.548V82H107.536ZM108.559 66.7273C108.167 66.7273 107.829 66.5938 107.545 66.3267C107.266 66.0597 107.127 65.7386 107.127 65.3636C107.127 64.9886 107.266 64.6676 107.545 64.4006C107.829 64.1335 108.167 64 108.559 64C108.951 64 109.286 64.1335 109.565 64.4006C109.849 64.6676 109.991 64.9886 109.991 65.3636C109.991 65.7386 109.849 66.0597 109.565 66.3267C109.286 66.5938 108.951 66.7273 108.559 66.7273ZM122.504 71.8409L120.697 72.3523C120.584 72.0511 120.416 71.7585 120.195 71.4744C119.979 71.1847 119.683 70.946 119.308 70.7585C118.933 70.571 118.453 70.4773 117.868 70.4773C117.067 70.4773 116.399 70.6619 115.865 71.0312C115.337 71.3949 115.072 71.858 115.072 72.4205C115.072 72.9205 115.254 73.3153 115.618 73.6051C115.982 73.8949 116.55 74.1364 117.322 74.3295L119.266 74.8068C120.436 75.0909 121.308 75.5256 121.882 76.1108C122.456 76.6903 122.743 77.4375 122.743 78.3523C122.743 79.1023 122.527 79.7727 122.095 80.3636C121.669 80.9545 121.072 81.4205 120.305 81.7614C119.538 82.1023 118.646 82.2727 117.629 82.2727C116.294 82.2727 115.189 81.983 114.314 81.4034C113.439 80.8239 112.885 79.9773 112.652 78.8636L114.561 78.3864C114.743 79.0909 115.087 79.6193 115.592 79.9716C116.104 80.3239 116.771 80.5 117.595 80.5C118.533 80.5 119.277 80.3011 119.828 79.9034C120.385 79.5 120.663 79.017 120.663 78.4545C120.663 78 120.504 77.6193 120.186 77.3125C119.868 77 119.379 76.767 118.72 76.6136L116.538 76.1023C115.339 75.8182 114.459 75.3778 113.896 74.7812C113.339 74.179 113.061 73.4261 113.061 72.5227C113.061 71.7841 113.268 71.1307 113.683 70.5625C114.104 69.9943 114.675 69.5483 115.396 69.2244C116.124 68.9006 116.947 68.7386 117.868 68.7386C119.163 68.7386 120.18 69.0227 120.919 69.5909C121.663 70.1591 122.192 70.9091 122.504 71.8409Z"></path>
</svg>
