<svg version="1.1" xmlns="http://www.w3.org/2000/svg" xmlns:xlink="http://www.w3.org/1999/xlink" width="239.76286" height="41.79757" viewBox="0,0,239.76286,41.79757"><g transform="translate(-120.11857,-159.10122)"><g data-paper-data="{&quot;isPaintingLayer&quot;:true}" fill="#ffffff" fill-rule="nonzero" stroke="none" stroke-width="1" stroke-linecap="butt" stroke-linejoin="miter" stroke-miterlimit="10" stroke-dasharray="" stroke-dashoffset="0" style="mix-blend-mode: normal"><path d="M121.37809,159.52106v8.9566h-1.08459v-8.9566zM126.40415,161.76022v0.87467h-3.62112v-0.87467zM123.86763,168.47766v-7.64461c0,-0.38485 0.09036,-0.70556 0.27114,-0.96213c0.18075,-0.25657 0.41546,-0.449 0.7041,-0.57728c0.28864,-0.12827 0.59331,-0.19242 0.91403,-0.19242c0.25364,0 0.46067,0.02041 0.62103,0.06123c0.16036,0.04082 0.27989,0.07872 0.35861,0.11372l-0.29739,0.89214c-0.05247,-0.01747 -0.12536,-0.03936 -0.21867,-0.06558c-0.09036,-0.02625 -0.20993,-0.03938 -0.35861,-0.03938c-0.34111,0 -0.58749,0.08603 -0.7391,0.25803c-0.14868,0.17203 -0.22303,0.42421 -0.22303,0.7566v7.39969zM133.29108,168.63509c-0.42567,0 -0.81199,-0.08018 -1.15895,-0.24053c-0.34696,-0.16326 -0.62246,-0.39797 -0.82656,-0.7041c-0.20408,-0.30904 -0.30614,-0.68224 -0.30614,-1.11957c0,-0.38485 0.07582,-0.69682 0.22742,-0.93589c0.15161,-0.242 0.35424,-0.43153 0.60789,-0.56856c0.25367,-0.13701 0.53356,-0.23907 0.8397,-0.30611c0.30904,-0.06999 0.61954,-0.12539 0.9315,-0.16621c0.40818,-0.05247 0.7391,-0.09183 0.99277,-0.11807c0.25657,-0.02915 0.44315,-0.07725 0.55978,-0.14432c0.11954,-0.06707 0.17929,-0.18368 0.17929,-0.34986v-0.035c0,-0.4315 -0.11807,-0.76678 -0.35422,-1.00585c-0.23325,-0.2391 -0.58749,-0.35863 -1.06274,-0.35863c-0.49272,0 -0.87903,0.10789 -1.15892,0.32364c-0.27989,0.21575 -0.47671,0.44607 -0.59042,0.69099l-0.97963,-0.34988c0.17496,-0.40818 0.4082,-0.72596 0.69974,-0.95339c0.29447,-0.23032 0.61518,-0.39068 0.96214,-0.48107c0.34988,-0.09329 0.69392,-0.13993 1.0321,-0.13993c0.21578,0 0.4636,0.02622 0.74349,0.07872c0.28279,0.04957 0.5554,0.15307 0.81781,0.3105c0.26532,0.15746 0.48543,0.39507 0.66036,0.71285c0.17496,0.31781 0.26242,0.74349 0.26242,1.27702v4.42582h-1.03213v-0.90967h-0.05247c-0.06997,0.14578 -0.1866,0.30178 -0.34986,0.46796c-0.16328,0.16618 -0.38049,0.3076 -0.65163,0.42421c-0.27114,0.11664 -0.60206,0.17493 -0.99274,0.17493zM133.44851,167.70795c0.40818,0 0.75221,-0.08018 1.0321,-0.24053c0.28282,-0.16036 0.49564,-0.36736 0.63852,-0.62103c0.14576,-0.25364 0.21865,-0.52043 0.21865,-0.80032v-0.94464c-0.04372,0.05249 -0.13993,0.1006 -0.28864,0.14432c-0.14576,0.04082 -0.31486,0.07725 -0.50729,0.10932c-0.18953,0.02917 -0.37467,0.05542 -0.55542,0.07874c-0.17785,0.0204 -0.32217,0.0379 -0.43296,0.05247c-0.26824,0.035 -0.51896,0.09185 -0.75221,0.17057c-0.23035,0.07579 -0.41693,0.19096 -0.55978,0.3455c-0.13996,0.15161 -0.20993,0.35861 -0.20993,0.621c0,0.35863 0.13265,0.62978 0.39797,0.81345c0.26824,0.18075 0.60789,0.27114 1.01899,0.27114zM144.63881,161.76022v0.87467h-3.48118v-0.87467zM142.17223,160.15083h1.0321v6.40256c0,0.29157 0.04228,0.51021 0.12685,0.656c0.08746,0.14286 0.19825,0.23907 0.33236,0.28864c0.13703,0.04664 0.28135,0.06997 0.43296,0.06997c0.11371,0 0.207,-0.00582 0.27989,-0.01747c0.07289,-0.0146 0.13121,-0.02625 0.17493,-0.035l0.20993,0.92714c-0.06997,0.02625 -0.16764,0.05249 -0.293,0.07874c-0.12539,0.02915 -0.28428,0.04372 -0.4767,0.04372c-0.29154,0 -0.57728,-0.06268 -0.85717,-0.18804c-0.27697,-0.12539 -0.50732,-0.31635 -0.69099,-0.57292c-0.18075,-0.25657 -0.27114,-0.58021 -0.27114,-0.97088zM146.19128,168.47766v-6.71744h0.99728v1.0146h0.06979c0.12264,-0.33236 0.34406,-0.60207 0.66477,-0.80907c0.32071,-0.207 0.68222,-0.3105 1.08452,-0.3105c0.07594,0 0.17062,0.00146 0.28428,0.00436c0.11392,0.00293 0.19987,0.00729 0.25811,0.01314v1.0496c-0.03489,-0.00875 -0.1152,-0.02186 -0.24041,-0.03936c-0.12264,-0.02042 -0.25221,-0.03061 -0.38922,-0.03061c-0.32661,0 -0.61833,0.0685 -0.8749,0.20554c-0.25349,0.13411 -0.45464,0.32071 -0.60345,0.55978c-0.14573,0.23617 -0.2186,0.50585 -0.2186,0.80907v4.25089zM150.77361,168.47766v-6.71744h1.03192v6.71744zM151.29829,160.64062c-0.20115,0 -0.37459,-0.0685 -0.52032,-0.20554c-0.14291,-0.13703 -0.21449,-0.30175 -0.21449,-0.49418c0,-0.19243 0.07158,-0.35717 0.21449,-0.4942c0.14573,-0.13703 0.31917,-0.20554 0.52032,-0.20554c0.20115,0 0.37331,0.06851 0.51596,0.20554c0.14599,0.13703 0.21885,0.30177 0.21885,0.4942c0,0.19243 -0.07287,0.35715 -0.21885,0.49418c-0.14265,0.13703 -0.31481,0.20554 -0.51596,0.20554zM155.6728,168.63509c-0.42565,0 -0.81204,-0.08018 -1.15892,-0.24053c-0.34714,-0.16326 -0.62244,-0.39797 -0.82667,-0.7041c-0.20397,-0.30904 -0.30609,-0.68224 -0.30609,-1.11957c0,-0.38485 0.07569,-0.69682 0.22732,-0.93589c0.15163,-0.242 0.35432,-0.43153 0.60807,-0.56856c0.25349,-0.13701 0.53341,-0.23907 0.83949,-0.30611c0.30917,-0.06999 0.61961,-0.12539 0.9316,-0.16621c0.4082,-0.05247 0.73918,-0.09183 0.99267,-0.11807c0.25657,-0.02915 0.44335,-0.07725 0.55984,-0.14432c0.11956,-0.06707 0.17934,-0.18368 0.17934,-0.34986v-0.035c0,-0.4315 -0.11802,-0.76678 -0.35432,-1.00585c-0.23322,-0.2391 -0.58729,-0.35863 -1.06271,-0.35863c-0.49261,0 -0.87901,0.10789 -1.15892,0.32364c-0.27992,0.21575 -0.47671,0.44607 -0.59037,0.69099l-0.97958,-0.34988c0.17498,-0.40818 0.4082,-0.72596 0.69966,-0.95339c0.29454,-0.23032 0.61525,-0.39068 0.96213,-0.48107c0.34996,-0.09329 0.69402,-0.13993 1.03218,-0.13993c0.21578,0 0.46362,0.02622 0.74354,0.07872c0.28274,0.04957 0.55522,0.15307 0.81769,0.3105c0.26529,0.15746 0.48543,0.39507 0.66041,0.71285c0.17498,0.31781 0.26247,0.74349 0.26247,1.27702v4.42582h-1.03218v-0.90967h-0.0526c-0.06979,0.14578 -0.18653,0.30178 -0.3497,0.46796c-0.16343,0.16618 -0.38049,0.3076 -0.65169,0.42421c-0.27119,0.11664 -0.60217,0.17493 -0.99267,0.17493zM155.83008,167.70795c0.4082,0 0.75226,-0.08018 1.03218,-0.24053c0.28274,-0.16036 0.49569,-0.36736 0.6386,-0.62103c0.14573,-0.25364 0.2186,-0.52043 0.2186,-0.80032v-0.94464c-0.04362,0.05249 -0.13983,0.1006 -0.28864,0.14432c-0.14573,0.04082 -0.31481,0.07725 -0.50724,0.10932c-0.18961,0.02917 -0.37459,0.05542 -0.55547,0.07874c-0.1778,0.0204 -0.32225,0.0379 -0.43309,0.05247c-0.26811,0.035 -0.51878,0.09185 -0.752,0.17057c-0.2304,0.07579 -0.41693,0.19096 -0.55983,0.3455c-0.14009,0.15161 -0.20987,0.35861 -0.20987,0.621c0,0.35863 0.13265,0.62978 0.39794,0.81345c0.26811,0.18075 0.60781,0.27114 1.01884,0.27114zM161.66754,164.43669v4.04097h-1.03218v-6.71744h0.99703v1.0496h0.08749c0.15753,-0.34114 0.39665,-0.61518 0.71737,-0.8222c0.32071,-0.2099 0.73456,-0.31486 1.24205,-0.31486c0.45464,0 0.85284,0.09329 1.19382,0.27989c0.34124,0.18368 0.60653,0.46357 0.79588,0.83968c0.18961,0.37321 0.28428,0.84552 0.28428,1.41695v4.26839h-1.03192v-4.1984c0,-0.52774 -0.13701,-0.93881 -0.41128,-1.2333c-0.27402,-0.29736 -0.65015,-0.44607 -1.12813,-0.44607c-0.32944,0 -0.62398,0.07143 -0.88362,0.21429c-0.25657,0.14288 -0.459,0.35134 -0.60781,0.62539c-0.14855,0.27407 -0.22296,0.60645 -0.22296,0.99713zM170.55074,171.13664c-0.49851,0 -0.92698,-0.06414 -1.28567,-0.19243c-0.35868,-0.12536 -0.65733,-0.29154 -0.89645,-0.49854c-0.2363,-0.2041 -0.42437,-0.42278 -0.56419,-0.65602l0.82205,-0.57728c0.09339,0.12246 0.21141,0.26242 0.35432,0.41985c0.14291,0.16036 0.33816,0.29885 0.586,0.41546c0.25067,0.11954 0.57882,0.17932 0.98394,0.17932c0.54239,0 0.98984,-0.13121 1.34263,-0.3936c0.35278,-0.26239 0.5293,-0.67349 0.5293,-1.23328v-1.36449h-0.08749c-0.07594,0.12246 -0.1837,0.27407 -0.32353,0.45482c-0.13726,0.17785 -0.33534,0.33675 -0.59498,0.47671c-0.25657,0.13703 -0.60345,0.20554 -1.04064,0.20554c-0.54239,0 -1.02936,-0.12828 -1.46091,-0.38485c-0.42847,-0.25657 -0.76817,-0.62975 -1.01884,-1.11957c-0.24785,-0.48982 -0.37177,-1.0846 -0.37177,-1.78434c0,-0.68807 0.1211,-1.28721 0.36304,-1.79745c0.24194,-0.51314 0.57856,-0.90964 1.01011,-1.18953c0.43155,-0.28282 0.93006,-0.42421 1.4958,-0.42421c0.43719,0 0.78433,0.07289 1.0409,0.21865c0.25939,0.14288 0.45772,0.30614 0.59473,0.48982c0.13983,0.18078 0.24785,0.32946 0.32353,0.4461h0.10494v-1.0671h0.99728v6.90987c0,0.57728 -0.13136,1.04667 -0.39383,1.40821c-0.25939,0.36446 -0.60935,0.63124 -1.04937,0.80034c-0.43745,0.172 -0.92442,0.25801 -1.46091,0.25801zM170.51585,167.44556c0.4141,0 0.76381,-0.09475 1.04963,-0.28428c0.28582,-0.1895 0.50287,-0.46211 0.65169,-0.81781c0.14855,-0.35568 0.22296,-0.78136 0.22296,-1.27702c0,-0.48397 -0.07287,-0.9111 -0.2186,-1.28138c-0.14573,-0.37028 -0.36151,-0.66036 -0.64733,-0.87028c-0.28582,-0.20993 -0.6386,-0.31489 -1.05835,-0.31489c-0.43745,0 -0.80178,0.11079 -1.09324,0.33239c-0.28864,0.22157 -0.50595,0.51896 -0.65169,0.89214c-0.14291,0.37321 -0.21423,0.78721 -0.21423,1.24203c0,0.4665 0.07287,0.87906 0.2186,1.23766c0.14855,0.35571 0.36741,0.6356 0.65605,0.83967c0.29146,0.20118 0.65297,0.30178 1.08452,0.30178zM176.37615,159.52106v8.9566h-1.03218v-8.9566zM181.08291,168.61762c-0.64732,0 -1.20562,-0.14288 -1.67488,-0.4286c-0.4667,-0.28864 -0.82667,-0.69099 -1.08041,-1.20703c-0.25067,-0.51899 -0.37588,-1.12249 -0.37588,-1.81058c0,-0.68807 0.12521,-1.29449 0.37588,-1.81931c0.25375,-0.52771 0.60653,-0.93881 1.05835,-1.23328c0.4549,-0.29739 0.98548,-0.44607 1.59201,-0.44607c0.34996,0 0.6953,0.05829 1.03654,0.17493c0.34098,0.11661 0.65169,0.30614 0.93135,0.56853c0.27992,0.2595 0.50313,0.60353 0.66913,1.0321c0.16626,0.4286 0.24938,0.95631 0.24938,1.58316v0.43732h-5.17808v-0.89214h4.12846c0,-0.37903 -0.07569,-0.71724 -0.22732,-1.01463c-0.14881,-0.29739 -0.36151,-0.5321 -0.6386,-0.7041c-0.27402,-0.17203 -0.59755,-0.25803 -0.97086,-0.25803c-0.41102,0 -0.76688,0.10204 -1.06707,0.30614c-0.29736,0.20118 -0.52622,0.46357 -0.68658,0.78721c-0.16036,0.32361 -0.24066,0.67057 -0.24066,1.04085v0.59478c0,0.50729 0.08749,0.93735 0.26247,1.29013c0.1778,0.34986 0.42411,0.61664 0.73918,0.80032c0.31481,0.18075 0.68068,0.27114 1.0976,0.27114c0.27119,0 0.51596,-0.0379 0.73481,-0.11371c0.22142,-0.07872 0.41256,-0.19533 0.57292,-0.34986c0.16036,-0.15743 0.28428,-0.35278 0.37177,-0.58603l0.99703,0.27989c-0.10494,0.33821 -0.28146,0.6356 -0.5293,0.89217c-0.24759,0.25364 -0.55393,0.45192 -0.91826,0.59478c-0.36458,0.13993 -0.77407,0.20993 -1.22897,0.20993zM189.93019,164.43669v4.04097h-1.03218v-8.9566h1.03218v3.28876h0.08749c0.15753,-0.34696 0.39358,-0.62246 0.70839,-0.82656c0.31789,-0.207 0.74071,-0.3105 1.26848,-0.3105c0.45772,0 0.85848,0.09183 1.20254,0.2755c0.34406,0.18078 0.61089,0.45921 0.80024,0.83531c0.19243,0.37321 0.28864,0.84842 0.28864,1.4257v4.26839h-1.03192v-4.1984c0,-0.53356 -0.13855,-0.9461 -0.41564,-1.23766c-0.27402,-0.29447 -0.65451,-0.44171 -1.14148,-0.44171c-0.33816,0 -0.64142,0.07143 -0.90954,0.21429c-0.26529,0.14288 -0.47517,0.35134 -0.62988,0.62539c-0.15138,0.27407 -0.22732,0.60645 -0.22732,0.99713zM198.15093,168.63509c-0.42565,0 -0.81204,-0.08018 -1.15892,-0.24053c-0.34688,-0.16326 -0.62244,-0.39797 -0.82641,-0.7041c-0.20423,-0.30904 -0.30634,-0.68224 -0.30634,-1.11957c0,-0.38485 0.07594,-0.69682 0.22758,-0.93589c0.15163,-0.242 0.35407,-0.43153 0.60781,-0.56856c0.25375,-0.13701 0.53366,-0.23907 0.83975,-0.30611c0.30891,-0.06999 0.61961,-0.12539 0.9316,-0.16621c0.40795,-0.05247 0.73892,-0.09183 0.99267,-0.11807c0.25657,-0.02915 0.4431,-0.07725 0.55984,-0.14432c0.11956,-0.06707 0.17934,-0.18368 0.17934,-0.34986v-0.035c0,-0.4315 -0.11828,-0.76678 -0.35432,-1.00585c-0.23322,-0.2391 -0.58754,-0.35863 -1.06271,-0.35863c-0.49287,0 -0.879,0.10789 -1.15892,0.32364c-0.27992,0.21575 -0.47671,0.44607 -0.59037,0.69099l-0.97984,-0.34988c0.17498,-0.40818 0.4082,-0.72596 0.69992,-0.95339c0.29428,-0.23032 0.61499,-0.39068 0.96213,-0.48107c0.3497,-0.09329 0.69376,-0.13993 1.03192,-0.13993c0.21578,0 0.46362,0.02622 0.74354,0.07872c0.28274,0.04957 0.55547,0.15307 0.81794,0.3105c0.26529,0.15746 0.48543,0.39507 0.66041,0.71285c0.17472,0.31781 0.26221,0.74349 0.26221,1.27702v4.42582h-1.03192v-0.90967h-0.0526c-0.07004,0.14578 -0.18652,0.30178 -0.34996,0.46796c-0.16318,0.16618 -0.38049,0.3076 -0.65143,0.42421c-0.27119,0.11664 -0.60217,0.17493 -0.99292,0.17493zM198.30846,167.70795c0.4082,0 0.75226,-0.08018 1.03218,-0.24053c0.28274,-0.16036 0.49544,-0.36736 0.63834,-0.62103c0.14573,-0.25364 0.21885,-0.52043 0.21885,-0.80032v-0.94464c-0.04387,0.05249 -0.14009,0.1006 -0.28864,0.14432c-0.14599,0.04082 -0.31507,0.07725 -0.50749,0.10932c-0.18935,0.02917 -0.37459,0.05542 -0.55547,0.07874c-0.1778,0.0204 -0.32199,0.0379 -0.43283,0.05247c-0.26811,0.035 -0.51904,0.09185 -0.75226,0.17057c-0.2304,0.07579 -0.41693,0.19096 -0.55983,0.3455c-0.13983,0.15161 -0.20987,0.35861 -0.20987,0.621c0,0.35863 0.13265,0.62978 0.39794,0.81345c0.26837,0.18075 0.60807,0.27114 1.01909,0.27114zM207.87182,163.26463l-0.92724,0.26239c-0.05824,-0.15451 -0.14419,-0.30467 -0.25785,-0.45043c-0.11084,-0.14871 -0.26247,-0.27117 -0.4549,-0.36738c-0.19243,-0.09621 -0.43873,-0.14432 -0.73918,-0.14432c-0.41102,0 -0.75354,0.09478 -1.02756,0.28428c-0.27119,0.1866 -0.40692,0.42421 -0.40692,0.71285c0,0.25657 0.09339,0.45921 0.27992,0.60789c0.18678,0.14871 0.47825,0.2726 0.87465,0.37174l0.99728,0.2449c0.60063,0.14578 1.04809,0.36882 1.34263,0.66913c0.29428,0.29739 0.44156,0.68078 0.44156,1.15017c0,0.38485 -0.11084,0.72891 -0.33226,1.03213c-0.2186,0.30321 -0.52494,0.54228 -0.91852,0.71721c-0.39358,0.17493 -0.8513,0.26242 -1.37316,0.26242c-0.68504,0 -1.25232,-0.14871 -1.70131,-0.4461c-0.449,-0.29739 -0.73328,-0.73181 -0.85284,-1.30324l0.97984,-0.24492c0.09313,0.36153 0.26965,0.63268 0.52905,0.81345c0.26247,0.18075 0.60499,0.27114 1.02782,0.27114c0.48107,0 0.86284,-0.10204 1.14584,-0.30614c0.28556,-0.207 0.42847,-0.45482 0.42847,-0.74346c0,-0.23325 -0.08159,-0.4286 -0.24477,-0.58603c-0.16343,-0.16036 -0.4141,-0.27989 -0.75226,-0.35861l-1.11967,-0.26242c-0.61525,-0.14576 -1.06707,-0.37172 -1.35571,-0.67785c-0.28582,-0.30904 -0.42847,-0.69535 -0.42847,-1.15892c0,-0.37903 0.10622,-0.71431 0.31917,-1.00588c0.21578,-0.29157 0.50878,-0.52043 0.87901,-0.68661c0.37331,-0.16621 0.79588,-0.24928 1.26822,-0.24928c0.66477,0 1.18663,0.14578 1.56584,0.43732c0.38177,0.29157 0.65297,0.67642 0.81332,1.15456zM214.98829,168.63509c-0.42565,0 -0.81204,-0.08018 -1.15892,-0.24053c-0.34688,-0.16326 -0.62244,-0.39797 -0.82641,-0.7041c-0.20423,-0.30904 -0.30634,-0.68224 -0.30634,-1.11957c0,-0.38485 0.07594,-0.69682 0.22758,-0.93589c0.15163,-0.242 0.35407,-0.43153 0.60781,-0.56856c0.25375,-0.13701 0.53366,-0.23907 0.83975,-0.30611c0.30891,-0.06999 0.61961,-0.12539 0.9316,-0.16621c0.40795,-0.05247 0.73892,-0.09183 0.99267,-0.11807c0.25657,-0.02915 0.44309,-0.07725 0.55983,-0.14432c0.11956,-0.06707 0.17934,-0.18368 0.17934,-0.34986v-0.035c0,-0.4315 -0.11828,-0.76678 -0.35432,-1.00585c-0.23322,-0.2391 -0.58754,-0.35863 -1.06271,-0.35863c-0.49287,0 -0.879,0.10789 -1.15892,0.32364c-0.27992,0.21575 -0.47671,0.44607 -0.59037,0.69099l-0.97984,-0.34988c0.17498,-0.40818 0.4082,-0.72596 0.69992,-0.95339c0.29428,-0.23032 0.615,-0.39068 0.96214,-0.48107c0.3497,-0.09329 0.69376,-0.13993 1.03192,-0.13993c0.21578,0 0.46362,0.02622 0.74354,0.07872c0.28274,0.04957 0.55547,0.15307 0.81794,0.3105c0.26529,0.15746 0.48543,0.39507 0.66041,0.71285c0.17472,0.31781 0.26221,0.74349 0.26221,1.27702v4.42582h-1.03192v-0.90967h-0.0526c-0.07004,0.14578 -0.18653,0.30178 -0.34996,0.46796c-0.16318,0.16618 -0.38049,0.3076 -0.65143,0.42421c-0.27119,0.11664 -0.60217,0.17493 -0.99292,0.17493zM215.14582,167.70795c0.4082,0 0.75226,-0.08018 1.03218,-0.24053c0.28274,-0.16036 0.49544,-0.36736 0.63834,-0.62103c0.14573,-0.25364 0.21885,-0.52043 0.21885,-0.80032v-0.94464c-0.04387,0.05249 -0.14009,0.1006 -0.28864,0.14432c-0.14599,0.04082 -0.31507,0.07725 -0.50749,0.10932c-0.18935,0.02917 -0.37459,0.05542 -0.55547,0.07874c-0.1778,0.0204 -0.32199,0.0379 -0.43283,0.05247c-0.26811,0.035 -0.51904,0.09185 -0.75226,0.17057c-0.2304,0.07579 -0.41693,0.19096 -0.55983,0.3455c-0.13983,0.15161 -0.20987,0.35861 -0.20987,0.621c0,0.35863 0.13265,0.62978 0.39794,0.81345c0.26837,0.18075 0.60807,0.27114 1.01909,0.27114zM220.98303,164.43669v4.04097h-1.03192v-6.71744h0.99703v1.0496h0.08749c0.15728,-0.34114 0.3964,-0.61518 0.71711,-0.8222c0.32071,-0.2099 0.73481,-0.31486 1.24205,-0.31486c0.4549,0 0.85284,0.09329 1.19407,0.27989c0.34098,0.18368 0.60627,0.46357 0.79588,0.83968c0.18961,0.37321 0.28428,0.84552 0.28428,1.41695v4.26839h-1.03218v-4.1984c0,-0.52774 -0.13701,-0.93881 -0.41102,-1.2333c-0.27402,-0.29736 -0.65015,-0.44607 -1.12839,-0.44607c-0.32944,0 -0.62398,0.07143 -0.88337,0.21429c-0.25657,0.14288 -0.45926,0.35134 -0.60781,0.62539c-0.14881,0.27407 -0.22322,0.60645 -0.22322,0.99713zM229.86648,171.13664c-0.49851,0 -0.92724,-0.06414 -1.28567,-0.19243c-0.35868,-0.12536 -0.65759,-0.29154 -0.89671,-0.49854c-0.23604,-0.2041 -0.42411,-0.42278 -0.5642,-0.65602l0.8223,-0.57728c0.09339,0.12246 0.21141,0.26242 0.35432,0.41985c0.14265,0.16036 0.33816,0.29885 0.58601,0.41546c0.25067,0.11954 0.57856,0.17932 0.98394,0.17932c0.54239,0 0.98984,-0.13121 1.34263,-0.3936c0.35278,-0.26239 0.52905,-0.67349 0.52905,-1.23328v-1.36449h-0.08749c-0.07569,0.12246 -0.18345,0.27407 -0.32353,0.45482c-0.13701,0.17785 -0.33534,0.33675 -0.59473,0.47671c-0.25657,0.13703 -0.60345,0.20554 -1.0409,0.20554c-0.54239,0 -1.0291,-0.12828 -1.46065,-0.38485c-0.42873,-0.25657 -0.76817,-0.62975 -1.01909,-1.11957c-0.24785,-0.48982 -0.37177,-1.0846 -0.37177,-1.78434c0,-0.68807 0.1211,-1.28721 0.36305,-1.79745c0.24194,-0.51314 0.57882,-0.90964 1.01037,-1.18953c0.43155,-0.28282 0.93006,-0.42421 1.49554,-0.42421c0.43745,0 0.78433,0.07289 1.0409,0.21865c0.25939,0.14288 0.45772,0.30614 0.59473,0.48982c0.14009,0.18078 0.24785,0.32946 0.32379,0.4461h0.10494v-1.0671h0.99703v6.90987c0,0.57728 -0.13111,1.04667 -0.39358,1.40821c-0.25939,0.36446 -0.60935,0.63124 -1.04962,0.80034c-0.43719,0.172 -0.92416,0.25801 -1.46065,0.25801zM229.83159,167.44556c0.41385,0 0.76381,-0.09475 1.04937,-0.28428c0.28582,-0.1895 0.50313,-0.46211 0.65169,-0.81781c0.14881,-0.35568 0.22322,-0.78136 0.22322,-1.27702c0,-0.48397 -0.07312,-0.9111 -0.21885,-1.28138c-0.14573,-0.37028 -0.36151,-0.66036 -0.64707,-0.87028c-0.28582,-0.20993 -0.6386,-0.31489 -1.05835,-0.31489c-0.43745,0 -0.80178,0.11079 -1.0935,0.33239c-0.28864,0.22157 -0.5057,0.51896 -0.65169,0.89214c-0.14265,0.37321 -0.21424,0.78721 -0.21424,1.24203c0,0.4665 0.07287,0.87906 0.2186,1.23766c0.14881,0.35571 0.36741,0.6356 0.65605,0.83967c0.29172,0.20118 0.65322,0.30178 1.08477,0.30178zM235.69163,159.52106v8.9566h-1.03192v-8.9566zM240.39865,168.61762c-0.64732,0 -1.20562,-0.14288 -1.67514,-0.4286c-0.46644,-0.28864 -0.82641,-0.69099 -1.08016,-1.20703c-0.25067,-0.51899 -0.37613,-1.12249 -0.37613,-1.81058c0,-0.68807 0.12546,-1.29449 0.37613,-1.81931c0.25375,-0.52771 0.60653,-0.93881 1.05835,-1.23328c0.4549,-0.29739 0.98548,-0.44607 1.59201,-0.44607c0.3497,0 0.6953,0.05829 1.03628,0.17493c0.34124,0.11661 0.65169,0.30614 0.9316,0.56853c0.27992,0.2595 0.50288,0.60353 0.66913,1.0321c0.16626,0.4286 0.24939,0.95631 0.24939,1.58316v0.43732h-5.17808v-0.89214h4.12846c0,-0.37903 -0.07594,-0.71724 -0.22758,-1.01463c-0.14855,-0.29739 -0.36151,-0.5321 -0.63834,-0.7041c-0.27427,-0.17203 -0.59781,-0.25803 -0.97086,-0.25803c-0.41128,0 -0.76688,0.10204 -1.06733,0.30614c-0.29736,0.20118 -0.52623,0.46357 -0.68658,0.78721c-0.16036,0.32361 -0.2404,0.67057 -0.2404,1.04085v0.59478c0,0.50729 0.08749,0.93735 0.26247,1.29013c0.1778,0.34986 0.42411,0.61664 0.73892,0.80032c0.31481,0.18075 0.68094,0.27114 1.09786,0.27114c0.27094,0 0.51596,-0.0379 0.73456,-0.11371c0.22168,-0.07872 0.41256,-0.19533 0.57292,-0.34986c0.16036,-0.15743 0.28428,-0.35278 0.37177,-0.58603l0.99703,0.27989c-0.10494,0.33821 -0.2812,0.6356 -0.52905,0.89217c-0.24785,0.25364 -0.55393,0.45192 -0.91852,0.59478c-0.36433,0.13993 -0.77407,0.20993 -1.22871,0.20993zM249.50814,163.26463l-0.92698,0.26239c-0.0585,-0.15451 -0.14445,-0.30467 -0.25811,-0.45043c-0.11084,-0.14871 -0.26247,-0.27117 -0.4549,-0.36738c-0.19243,-0.09621 -0.43873,-0.14432 -0.73892,-0.14432c-0.41128,0 -0.7538,0.09478 -1.02782,0.28428c-0.27119,0.1866 -0.40666,0.42421 -0.40666,0.71285c0,0.25657 0.09314,0.45921 0.27992,0.60789c0.18652,0.14871 0.47799,0.2726 0.87465,0.37174l0.99703,0.2449c0.60063,0.14578 1.04809,0.36882 1.34263,0.66913c0.29454,0.29739 0.44181,0.68078 0.44181,1.15017c0,0.38485 -0.11084,0.72891 -0.33251,1.03213c-0.2186,0.30321 -0.52468,0.54228 -0.91826,0.71721c-0.39383,0.17493 -0.85155,0.26242 -1.37342,0.26242c-0.68504,0 -1.25206,-0.14871 -1.70105,-0.4461c-0.449,-0.29739 -0.73328,-0.73181 -0.85284,-1.30324l0.97958,-0.24492c0.09339,0.36153 0.26965,0.63268 0.52905,0.81345c0.26247,0.18075 0.60499,0.27114 1.02782,0.27114c0.48107,0 0.8631,-0.10204 1.14584,-0.30614c0.28582,-0.207 0.42847,-0.45482 0.42847,-0.74346c0,-0.23325 -0.08159,-0.4286 -0.24477,-0.58603c-0.16318,-0.16036 -0.4141,-0.27989 -0.75226,-0.35861l-1.11967,-0.26242c-0.615,-0.14576 -1.06707,-0.37172 -1.35571,-0.67785c-0.28556,-0.30904 -0.42847,-0.69535 -0.42847,-1.15892c0,-0.37903 0.10647,-0.71431 0.31917,-1.00588c0.21578,-0.29157 0.50878,-0.52043 0.87901,-0.68661c0.37331,-0.16621 0.79613,-0.24928 1.26848,-0.24928c0.66451,0 1.18663,0.14578 1.56559,0.43732c0.38177,0.29157 0.65297,0.67642 0.81332,1.15456zM254.648,168.47766v-6.71744h0.99703v1.0496h0.08749c0.14009,-0.35861 0.36587,-0.63706 0.67786,-0.83531c0.31199,-0.20118 0.68658,-0.30175 1.12403,-0.30175c0.44309,0 0.81204,0.10058 1.10633,0.30175c0.29762,0.19825 0.5293,0.4767 0.69556,0.83531h0.06979c0.17216,-0.34696 0.43027,-0.62246 0.77407,-0.82656c0.34406,-0.207 0.75662,-0.3105 1.23769,-0.3105c0.60063,0 1.09196,0.18804 1.47399,0.56414c0.38177,0.37321 0.57292,0.95485 0.57292,1.74498v4.49579h-1.03218v-4.49579c0,-0.49564 -0.13573,-0.84988 -0.40666,-1.06274c-0.27119,-0.21282 -0.59062,-0.31925 -0.95777,-0.31925c-0.47234,0 -0.83821,0.14286 -1.09786,0.4286c-0.25939,0.28279 -0.38921,0.64142 -0.38921,1.07582v4.37335h-1.04963v-4.60075c0,-0.38196 -0.12392,-0.68953 -0.37177,-0.92278c-0.24759,-0.23617 -0.56702,-0.35424 -0.95777,-0.35424c-0.26811,0 -0.51878,0.07143 -0.752,0.21429c-0.2304,0.14288 -0.41693,0.34113 -0.55984,0.59478c-0.14009,0.25075 -0.20987,0.54085 -0.20987,0.87031v4.1984zM268.16817,168.61762c-0.64732,0 -1.20562,-0.14288 -1.67488,-0.4286c-0.4667,-0.28864 -0.82667,-0.69099 -1.08041,-1.20703c-0.25067,-0.51899 -0.37613,-1.12249 -0.37613,-1.81058c0,-0.68807 0.12546,-1.29449 0.37613,-1.81931c0.25375,-0.52771 0.60653,-0.93881 1.05835,-1.23328c0.4549,-0.29739 0.98548,-0.44607 1.59201,-0.44607c0.34996,0 0.6953,0.05829 1.03654,0.17493c0.34098,0.11661 0.65143,0.30614 0.93135,0.56853c0.27992,0.2595 0.50313,0.60353 0.66913,1.0321c0.16626,0.4286 0.24938,0.95631 0.24938,1.58316v0.43732h-5.17808v-0.89214h4.12845c0,-0.37903 -0.07569,-0.71724 -0.22732,-1.01463c-0.14881,-0.29739 -0.36151,-0.5321 -0.6386,-0.7041c-0.27402,-0.17203 -0.59781,-0.25803 -0.97086,-0.25803c-0.41102,0 -0.76688,0.10204 -1.06707,0.30614c-0.29736,0.20118 -0.52622,0.46357 -0.68658,0.78721c-0.16036,0.32361 -0.24066,0.67057 -0.24066,1.04085v0.59478c0,0.50729 0.08749,0.93735 0.26247,1.29013c0.1778,0.34986 0.42411,0.61664 0.73918,0.80032c0.31481,0.18075 0.68068,0.27114 1.0976,0.27114c0.27119,0 0.51596,-0.0379 0.73481,-0.11371c0.22142,-0.07872 0.41256,-0.19533 0.57292,-0.34986c0.16036,-0.15743 0.28428,-0.35278 0.37151,-0.58603l0.99728,0.27989c-0.10494,0.33821 -0.28146,0.6356 -0.5293,0.89217c-0.24785,0.25364 -0.55393,0.45192 -0.91826,0.59478c-0.36458,0.13993 -0.77407,0.20993 -1.22897,0.20993zM274.49645,168.63509c-0.42565,0 -0.81204,-0.08018 -1.15892,-0.24053c-0.34714,-0.16326 -0.62244,-0.39797 -0.82667,-0.7041c-0.20397,-0.30904 -0.30609,-0.68224 -0.30609,-1.11957c0,-0.38485 0.07569,-0.69682 0.22732,-0.93589c0.15163,-0.242 0.35432,-0.43153 0.60807,-0.56856c0.25349,-0.13701 0.53341,-0.23907 0.83949,-0.30611c0.30917,-0.06999 0.61961,-0.12539 0.9316,-0.16621c0.4082,-0.05247 0.73918,-0.09183 0.99267,-0.11807c0.25657,-0.02915 0.44335,-0.07725 0.55983,-0.14432c0.11956,-0.06707 0.17934,-0.18368 0.17934,-0.34986v-0.035c0,-0.4315 -0.11802,-0.76678 -0.35432,-1.00585c-0.23322,-0.2391 -0.58729,-0.35863 -1.06271,-0.35863c-0.49261,0 -0.879,0.10789 -1.15892,0.32364c-0.27992,0.21575 -0.47671,0.44607 -0.59037,0.69099l-0.97958,-0.34988c0.17498,-0.40818 0.4082,-0.72596 0.69966,-0.95339c0.29454,-0.23032 0.61525,-0.39068 0.96214,-0.48107c0.34996,-0.09329 0.69402,-0.13993 1.03218,-0.13993c0.21578,0 0.46362,0.02622 0.74354,0.07872c0.28274,0.04957 0.55522,0.15307 0.81769,0.3105c0.26529,0.15746 0.48543,0.39507 0.66041,0.71285c0.17498,0.31781 0.26247,0.74349 0.26247,1.27702v4.42582h-1.03218v-0.90967h-0.0526c-0.06979,0.14578 -0.18653,0.30178 -0.3497,0.46796c-0.16343,0.16618 -0.38049,0.3076 -0.65169,0.42421c-0.27119,0.11664 -0.60217,0.17493 -0.99267,0.17493zM274.65373,167.70795c0.4082,0 0.75226,-0.08018 1.03218,-0.24053c0.28274,-0.16036 0.49569,-0.36736 0.6386,-0.62103c0.14573,-0.25364 0.2186,-0.52043 0.2186,-0.80032v-0.94464c-0.04362,0.05249 -0.13983,0.1006 -0.28864,0.14432c-0.14573,0.04082 -0.31481,0.07725 -0.50724,0.10932c-0.18961,0.02917 -0.37459,0.05542 -0.55547,0.07874c-0.1778,0.0204 -0.32225,0.0379 -0.43309,0.05247c-0.26811,0.035 -0.51878,0.09185 -0.75201,0.17057c-0.2304,0.07579 -0.41693,0.19096 -0.55983,0.3455c-0.14009,0.15161 -0.20987,0.35861 -0.20987,0.621c0,0.35863 0.13265,0.62978 0.39794,0.81345c0.26811,0.18075 0.60781,0.27114 1.01884,0.27114zM284.21735,163.26463l-0.92724,0.26239c-0.05824,-0.15451 -0.14445,-0.30467 -0.25811,-0.45043c-0.11084,-0.14871 -0.26247,-0.27117 -0.4549,-0.36738c-0.19243,-0.09621 -0.43873,-0.14432 -0.73892,-0.14432c-0.41102,0 -0.7538,0.09478 -1.02782,0.28428c-0.27119,0.1866 -0.40666,0.42421 -0.40666,0.71285c0,0.25657 0.09339,0.45921 0.27992,0.60789c0.18652,0.14871 0.47799,0.2726 0.87464,0.37174l0.99703,0.2449c0.60063,0.14578 1.04809,0.36882 1.34263,0.66913c0.29454,0.29739 0.44181,0.68078 0.44181,1.15017c0,0.38485 -0.11084,0.72891 -0.33251,1.03213c-0.2186,0.30321 -0.52468,0.54228 -0.91826,0.71721c-0.39358,0.17493 -0.8513,0.26242 -1.37316,0.26242c-0.6853,0 -1.25232,-0.14871 -1.70131,-0.4461c-0.449,-0.29739 -0.73327,-0.73181 -0.85284,-1.30324l0.97958,-0.24492c0.09339,0.36153 0.26965,0.63268 0.5293,0.81345c0.26221,0.18075 0.60499,0.27114 1.02756,0.27114c0.48107,0 0.8631,-0.10204 1.14584,-0.30614c0.28582,-0.207 0.42873,-0.45482 0.42873,-0.74346c0,-0.23325 -0.08159,-0.4286 -0.24502,-0.58603c-0.16318,-0.16036 -0.41385,-0.27989 -0.75226,-0.35861l-1.11941,-0.26242c-0.61525,-0.14576 -1.06707,-0.37172 -1.35571,-0.67785c-0.28582,-0.30904 -0.42873,-0.69535 -0.42873,-1.15892c0,-0.37903 0.10648,-0.71431 0.31917,-1.00588c0.21578,-0.29157 0.50878,-0.52043 0.87926,-0.68661c0.37305,-0.16621 0.79588,-0.24928 1.26822,-0.24928c0.66477,0 1.18663,0.14578 1.56559,0.43732c0.38203,0.29157 0.65323,0.67642 0.81358,1.15456zM290.12665,165.73121v-3.971h1.03218v6.71744h-1.03218v-1.13706h-0.07005c-0.15728,0.34111 -0.4023,0.63121 -0.73456,0.87028c-0.33251,0.23617 -0.75226,0.35424 -1.2595,0.35424c-0.42,0 -0.79306,-0.09183 -1.11967,-0.27553c-0.32661,-0.18658 -0.58318,-0.46647 -0.76971,-0.83968c-0.18652,-0.37611 -0.27992,-0.84988 -0.27992,-1.42134v-4.26836h1.03218v4.1984c0,0.48982 0.13701,0.88049 0.41102,1.17206c0.27709,0.29157 0.62988,0.43732 1.05835,0.43732c0.25657,0 0.5175,-0.06558 0.78279,-0.19679c0.26837,-0.13121 0.49287,-0.33239 0.67349,-0.60353c0.1837,-0.27114 0.27556,-0.61664 0.27556,-1.03646zM293.04923,168.47766v-6.71744h0.99703v1.0146h0.07004c0.12238,-0.33236 0.34406,-0.60207 0.66477,-0.80907c0.32071,-0.207 0.68222,-0.3105 1.08452,-0.3105c0.07594,0 0.17062,0.00146 0.28428,0.00436c0.11366,0.00293 0.19961,0.00729 0.25811,0.01314v1.0496c-0.03515,-0.00875 -0.1152,-0.02186 -0.24066,-0.03936c-0.12238,-0.02042 -0.25221,-0.03061 -0.38921,-0.03061c-0.32661,0 -0.61808,0.0685 -0.87465,0.20554c-0.25375,0.13411 -0.4549,0.32071 -0.60345,0.55978c-0.14573,0.23617 -0.2186,0.50585 -0.2186,0.80907v4.25089zM297.6313,168.47766v-6.71744h1.03218v6.71744zM298.15625,160.64062c-0.20115,0 -0.37485,-0.0685 -0.52058,-0.20554c-0.14291,-0.13703 -0.21424,-0.30175 -0.21424,-0.49418c0,-0.19243 0.07133,-0.35717 0.21424,-0.4942c0.14573,-0.13703 0.31943,-0.20554 0.52058,-0.20554c0.20115,0 0.37305,0.06851 0.51596,0.20554c0.14573,0.13703 0.2186,0.30177 0.2186,0.4942c0,0.19243 -0.07287,0.35715 -0.2186,0.49418c-0.14291,0.13703 -0.31481,0.20554 -0.51596,0.20554zM301.58607,164.43669v4.04097h-1.03218v-6.71744h0.99703v1.0496h0.08749c0.15753,-0.34114 0.39666,-0.61518 0.71737,-0.8222c0.32071,-0.2099 0.73456,-0.31486 1.24179,-0.31486c0.4549,0 0.85284,0.09329 1.19407,0.27989c0.34098,0.18368 0.60653,0.46357 0.79588,0.83968c0.18961,0.37321 0.28428,0.84552 0.28428,1.41695v4.26839h-1.03218v-4.1984c0,-0.52774 -0.13701,-0.93881 -0.41102,-1.2333c-0.27402,-0.29736 -0.65015,-0.44607 -1.12839,-0.44607c-0.32944,0 -0.62372,0.07143 -0.88337,0.21429c-0.25657,0.14288 -0.45926,0.35134 -0.60781,0.62539c-0.14881,0.27407 -0.22296,0.60645 -0.22296,0.99713zM310.46926,171.13664c-0.49851,0 -0.92724,-0.06414 -1.28567,-0.19243c-0.35868,-0.12536 -0.65759,-0.29154 -0.89671,-0.49854c-0.23604,-0.2041 -0.42411,-0.42278 -0.56394,-0.65602l0.82205,-0.57728c0.09339,0.12246 0.21141,0.26242 0.35432,0.41985c0.14291,0.16036 0.33816,0.29885 0.58601,0.41546c0.25067,0.11954 0.57882,0.17932 0.98394,0.17932c0.54239,0 0.98984,-0.13121 1.34263,-0.3936c0.35278,-0.26239 0.5293,-0.67349 0.5293,-1.23328v-1.36449h-0.08749c-0.07594,0.12246 -0.1837,0.27407 -0.32379,0.45482c-0.13701,0.17785 -0.33534,0.33675 -0.59473,0.47671c-0.25657,0.13703 -0.60345,0.20554 -1.0409,0.20554c-0.54213,0 -1.0291,-0.12828 -1.46065,-0.38485c-0.42847,-0.25657 -0.76817,-0.62975 -1.01884,-1.11957c-0.24785,-0.48982 -0.37177,-1.0846 -0.37177,-1.78434c0,-0.68807 0.12084,-1.28721 0.36279,-1.79745c0.2422,-0.51314 0.57882,-0.90964 1.01037,-1.18953c0.43155,-0.28282 0.93006,-0.42421 1.49554,-0.42421c0.43745,0 0.78433,0.07289 1.0409,0.21865c0.25965,0.14288 0.45772,0.30614 0.59473,0.48982c0.14009,0.18078 0.24785,0.32946 0.32379,0.4461h0.10494v-1.0671h0.99703v6.90987c0,0.57728 -0.13111,1.04667 -0.39358,1.40821c-0.25939,0.36446 -0.60935,0.63124 -1.04962,0.80034c-0.43719,0.172 -0.92416,0.25801 -1.46065,0.25801zM310.43437,167.44556c0.41385,0 0.76381,-0.09475 1.04962,-0.28428c0.28556,-0.1895 0.50288,-0.46211 0.65143,-0.81781c0.14881,-0.35568 0.22322,-0.78136 0.22322,-1.27702c0,-0.48397 -0.07287,-0.9111 -0.21885,-1.28138c-0.14573,-0.37028 -0.36151,-0.66036 -0.64707,-0.87028c-0.28582,-0.20993 -0.6386,-0.31489 -1.05835,-0.31489c-0.43745,0 -0.80178,0.11079 -1.0935,0.33239c-0.28864,0.22157 -0.5057,0.51896 -0.65143,0.89214c-0.14291,0.37321 -0.21449,0.78721 -0.21449,1.24203c0,0.4665 0.07287,0.87906 0.21885,1.23766c0.14855,0.35571 0.36715,0.6356 0.65579,0.83967c0.29172,0.20118 0.65322,0.30178 1.08477,0.30178zM123.16242,183.48106c-0.57728,0 -1.09188,-0.09904 -1.54379,-0.29736c-0.449,-0.19833 -0.80615,-0.47363 -1.07147,-0.82641c-0.2624,-0.35581 -0.40527,-0.76835 -0.42859,-1.23777h1.10208c0.02332,0.28864 0.12245,0.53792 0.29739,0.74785c0.17493,0.207 0.40381,0.36736 0.6866,0.48094c0.28282,0.11392 0.59624,0.17062 0.94027,0.17062c0.38485,0 0.72599,-0.06696 1.02335,-0.2011c0.29739,-0.13411 0.53064,-0.32071 0.69974,-0.55978c0.16911,-0.2391 0.25367,-0.51606 0.25367,-0.83095c0,-0.32946 -0.08164,-0.61954 -0.24492,-0.87028c-0.16328,-0.25367 -0.40235,-0.45192 -0.71721,-0.59478c-0.31489,-0.14286 -0.69974,-0.21429 -1.15456,-0.21429h-0.71724v-0.96214h0.71724c0.35568,0 0.66765,-0.06414 0.93589,-0.19243c0.27114,-0.12828 0.48253,-0.30906 0.63414,-0.54231c0.15451,-0.23325 0.23178,-0.50729 0.23178,-0.82218c0,-0.30321 -0.06707,-0.56707 -0.20118,-0.79157c-0.13411,-0.2245 -0.32364,-0.39945 -0.56853,-0.52481c-0.242,-0.12536 -0.52771,-0.18804 -0.85717,-0.18804c-0.30906,0 -0.6006,0.05683 -0.87467,0.17054c-0.27114,0.11079 -0.49274,0.2726 -0.66475,0.48545c-0.17202,0.20993 -0.26531,0.46357 -0.27989,0.76096h-1.0496c0.0175,-0.46942 0.1589,-0.8805 0.42421,-1.23328c0.26532,-0.35571 0.61227,-0.63267 1.04086,-0.83095c0.4315,-0.19825 0.90528,-0.29739 1.42134,-0.29739c0.55393,0 1.02918,0.11225 1.4257,0.33675c0.3965,0.2216 0.70118,0.5146 0.91403,0.87906c0.21282,0.36443 0.31925,0.75803 0.31925,1.18078c0,0.50442 -0.13267,0.93445 -0.39796,1.29016c-0.26242,0.35568 -0.61956,0.60204 -1.07148,0.73907v0.06999c0.56563,0.09329 1.00734,0.33382 1.32513,0.7216c0.31779,0.38485 0.47668,0.86153 0.47668,1.43007c0,0.48692 -0.13265,0.92424 -0.39796,1.31202c-0.26239,0.38475 -0.621,0.68802 -1.07585,0.90969c-0.45482,0.22142 -0.97232,0.33226 -1.55253,0.33226zM130.89885,183.48106c-0.65892,0 -1.22017,-0.17934 -1.68374,-0.53777c-0.46357,-0.36151 -0.81781,-0.88496 -1.06271,-1.5701c-0.24492,-0.68809 -0.36738,-1.51902 -0.36738,-2.4928c0,-0.96798 0.12246,-1.79455 0.36738,-2.47969c0.24782,-0.68807 0.6035,-1.21288 1.06707,-1.57441c0.4665,-0.36443 1.02628,-0.54667 1.67937,-0.54667c0.6531,0 1.21142,0.18224 1.67499,0.54667c0.4665,0.36153 0.8222,0.88634 1.0671,1.57441c0.24782,0.68514 0.37174,1.51171 0.37174,2.47969c0,0.97378 -0.12246,1.80471 -0.36738,2.4928c-0.2449,0.68514 -0.59914,1.2086 -1.06271,1.5701c-0.46357,0.35843 -1.02482,0.53777 -1.68374,0.53777zM130.89885,182.51893c0.6531,0 1.16039,-0.31481 1.52192,-0.94456c0.36153,-0.62978 0.54231,-1.52777 0.54231,-2.69398c0,-0.77556 -0.0831,-1.43592 -0.24928,-1.98113c-0.16328,-0.54521 -0.39945,-0.9607 -0.70849,-1.24641c-0.30614,-0.28572 -0.67496,-0.42857 -1.10646,-0.42857c-0.64725,0 -1.1531,0.31925 -1.51756,0.95775c-0.36443,0.6356 -0.54667,1.53505 -0.54667,2.69837c0,0.77553 0.08164,1.43445 0.24492,1.97674c0.16328,0.54229 0.39797,0.95485 0.7041,1.23766c0.30906,0.28276 0.68078,0.42413 1.1152,0.42413zM141.69226,183.49851c-0.55978,0 -1.05399,-0.14137 -1.48256,-0.42411c-0.4286,-0.28582 -0.76389,-0.68812 -1.00588,-1.20703c-0.242,-0.52189 -0.36299,-1.13853 -0.36299,-1.84992c0,-0.70557 0.121,-1.31784 0.36299,-1.83681c0.242,-0.51896 0.57874,-0.91985 1.01024,-1.20267c0.4315,-0.28282 0.93006,-0.42421 1.4957,-0.42421c0.43732,0 0.78282,0.07289 1.03646,0.21865c0.25657,0.14288 0.45192,0.30614 0.58603,0.48982c0.13703,0.18078 0.24346,0.32946 0.31925,0.4461h0.08749v-3.30625h1.0321v8.9566h-0.99713v-1.0321h-0.12246c-0.07579,0.12256 -0.18368,0.27702 -0.32361,0.46354c-0.13996,0.1837 -0.33967,0.34842 -0.59914,0.49415c-0.2595,0.14291 -0.60499,0.21424 -1.03649,0.21424zM141.8322,182.57153c0.41403,0 0.76388,-0.10802 1.0496,-0.32366c0.28574,-0.21867 0.50295,-0.52045 0.65163,-0.9053c0.14871,-0.38775 0.22304,-0.83529 0.22304,-1.3426c0,-0.50149 -0.07289,-0.94027 -0.21865,-1.31638c-0.14578,-0.37903 -0.36153,-0.67349 -0.64727,-0.88342c-0.28572,-0.21282 -0.6385,-0.31925 -1.05835,-0.31925c-0.43732,0 -0.80178,0.11225 -1.09332,0.33675c-0.28864,0.22157 -0.50585,0.52335 -0.65163,0.90528c-0.14286,0.37903 -0.21429,0.8047 -0.21429,1.27702c0,0.47814 0.07289,0.91257 0.21865,1.30324c0.14871,0.38778 0.36738,0.69682 0.65602,0.92717c0.29154,0.2275 0.65307,0.34116 1.08457,0.34116zM149.6211,183.49851c-0.64732,0 -1.20562,-0.14265 -1.67488,-0.42847c-0.46644,-0.28864 -0.82667,-0.69094 -1.08041,-1.20703c-0.25067,-0.51899 -0.37588,-1.12249 -0.37588,-1.81058c0,-0.68807 0.12521,-1.29449 0.37588,-1.81931c0.25375,-0.52771 0.60653,-0.93881 1.05835,-1.23328c0.4549,-0.29739 0.98548,-0.44607 1.59201,-0.44607c0.34996,0 0.6953,0.05829 1.03654,0.17493c0.34098,0.11661 0.65169,0.30614 0.93135,0.56853c0.27992,0.2595 0.50313,0.60353 0.66913,1.0321c0.16626,0.4286 0.24938,0.95631 0.24938,1.58316v0.43732h-5.17808v-0.89214h4.12846c0,-0.37903 -0.07569,-0.71724 -0.22732,-1.01463c-0.14881,-0.29739 -0.36151,-0.5321 -0.6386,-0.7041c-0.27402,-0.17203 -0.59755,-0.25803 -0.97086,-0.25803c-0.41102,0 -0.76689,0.10204 -1.06707,0.30614c-0.29736,0.20118 -0.52622,0.46357 -0.68658,0.78721c-0.16036,0.32361 -0.24066,0.67057 -0.24066,1.04085v0.59478c0,0.50729 0.08749,0.93735 0.26247,1.29013c0.1778,0.34986 0.42411,0.61664 0.73918,0.80032c0.31481,0.18088 0.68068,0.2712 1.0976,0.2712c0.27119,0 0.51596,-0.03797 0.73482,-0.11366c0.22142,-0.07877 0.41256,-0.19543 0.57292,-0.34996c0.16036,-0.15743 0.28428,-0.35278 0.37177,-0.58603l0.99703,0.27989c-0.10494,0.33821 -0.28146,0.63557 -0.5293,0.89214c-0.24759,0.25375 -0.55393,0.45182 -0.91826,0.59473c-0.36458,0.14009 -0.77407,0.20987 -1.22897,0.20987zM156.68394,186.01776c-0.49851,0 -0.92698,-0.06414 -1.28567,-0.19243c-0.35868,-0.12546 -0.65733,-0.29172 -0.89645,-0.49877c-0.2363,-0.20397 -0.42437,-0.42257 -0.56419,-0.65579l0.82205,-0.57728c0.09339,0.12238 0.21141,0.26221 0.35432,0.41975c0.14291,0.16036 0.33816,0.2989 0.58601,0.41539c0.25092,0.11956 0.57882,0.17934 0.98394,0.17934c0.54239,0 0.98984,-0.13111 1.34263,-0.39358c0.35278,-0.26247 0.5293,-0.6735 0.5293,-1.23333v-1.36441h-0.08749c-0.07569,0.12246 -0.1837,0.27399 -0.32353,0.45487c-0.13701,0.1778 -0.33534,0.33662 -0.59473,0.4767c-0.25657,0.13701 -0.60371,0.20551 -1.0409,0.20551c-0.54239,0 -1.02936,-0.12828 -1.46065,-0.38485c-0.42873,-0.25657 -0.76843,-0.62978 -1.01909,-1.11959c-0.24785,-0.48982 -0.37177,-1.0846 -0.37177,-1.78434c0,-0.68807 0.1211,-1.28721 0.36305,-1.79745c0.24194,-0.51314 0.57882,-0.90964 1.01011,-1.18953c0.43155,-0.28282 0.93006,-0.42421 1.4958,-0.42421c0.43719,0 0.78433,0.07289 1.0409,0.21865c0.25939,0.14288 0.45772,0.30614 0.59473,0.48982c0.13983,0.18078 0.24785,0.32946 0.32353,0.4461h0.10494v-1.0671h0.99728v6.90987c0,0.57728 -0.13136,1.0468 -0.39358,1.40831c-0.25965,0.36433 -0.60935,0.63116 -1.04963,0.80024c-0.43745,0.1719 -0.92442,0.25811 -1.46091,0.25811zM156.64905,182.32658c0.4141,0 0.76381,-0.09475 1.04962,-0.28428c0.28582,-0.1895 0.50288,-0.46211 0.65169,-0.81781c0.14855,-0.35568 0.22296,-0.78136 0.22296,-1.27702c0,-0.48397 -0.07287,-0.9111 -0.2186,-1.28138c-0.14573,-0.37028 -0.36151,-0.66036 -0.64732,-0.87028c-0.28556,-0.20993 -0.63834,-0.31489 -1.05835,-0.31489c-0.43719,0 -0.80178,0.11079 -1.09324,0.33239c-0.28864,0.22157 -0.50595,0.51896 -0.65169,0.89214c-0.14291,0.37321 -0.21424,0.78721 -0.21424,1.24203c0,0.4665 0.07287,0.87906 0.2186,1.23766c0.14881,0.35571 0.36741,0.6356 0.65605,0.83967c0.29146,0.20118 0.65297,0.30178 1.08452,0.30178zM161.47717,183.35868v-6.71744h0.99728v1.0146h0.06979c0.12264,-0.33236 0.34406,-0.60207 0.66477,-0.80907c0.32071,-0.207 0.68222,-0.3105 1.08477,-0.3105c0.07569,0 0.17036,0.00146 0.28428,0.00436c0.11366,0.00293 0.19961,0.00729 0.25785,0.01314v1.0496c-0.03489,-0.00875 -0.1152,-0.02186 -0.24041,-0.03936c-0.12264,-0.02042 -0.25221,-0.03061 -0.38921,-0.03061c-0.32661,0 -0.61808,0.0685 -0.87465,0.20554c-0.25375,0.13411 -0.4549,0.32071 -0.60371,0.55978c-0.14573,0.23617 -0.2186,0.50585 -0.2186,0.80906v4.25089zM168.67137,183.49851c-0.64732,0 -1.20562,-0.14265 -1.67488,-0.42847c-0.46644,-0.28864 -0.82667,-0.69094 -1.08041,-1.20703c-0.25067,-0.51899 -0.37587,-1.12249 -0.37587,-1.81058c0,-0.68807 0.12521,-1.29449 0.37587,-1.81931c0.25375,-0.52771 0.60653,-0.93881 1.05835,-1.23328c0.4549,-0.29739 0.98548,-0.44607 1.59201,-0.44607c0.34996,0 0.6953,0.05829 1.03654,0.17493c0.34098,0.11661 0.65169,0.30614 0.93135,0.56853c0.27992,0.2595 0.50313,0.60353 0.66913,1.0321c0.16626,0.4286 0.24938,0.95631 0.24938,1.58316v0.43732h-5.17808v-0.89214h4.12846c0,-0.37903 -0.07569,-0.71724 -0.22732,-1.01463c-0.14881,-0.29739 -0.36151,-0.5321 -0.6386,-0.7041c-0.27402,-0.17203 -0.59755,-0.25803 -0.97086,-0.25803c-0.41102,0 -0.76688,0.10204 -1.06707,0.30614c-0.29736,0.20118 -0.52622,0.46357 -0.68658,0.78721c-0.16036,0.32361 -0.24066,0.67057 -0.24066,1.04085v0.59478c0,0.50729 0.08749,0.93735 0.26247,1.29013c0.1778,0.34986 0.42411,0.61664 0.73918,0.80032c0.31481,0.18088 0.68068,0.2712 1.0976,0.2712c0.27119,0 0.51596,-0.03797 0.73481,-0.11366c0.22142,-0.07877 0.41256,-0.19543 0.57292,-0.34996c0.16036,-0.15743 0.28428,-0.35278 0.37177,-0.58603l0.99703,0.27989c-0.10494,0.33821 -0.28146,0.63557 -0.5293,0.89214c-0.24759,0.25375 -0.55393,0.45182 -0.91826,0.59473c-0.36458,0.14009 -0.77407,0.20987 -1.22897,0.20987zM175.8394,183.49851c-0.64732,0 -1.20562,-0.14265 -1.67514,-0.42847c-0.46644,-0.28864 -0.82641,-0.69094 -1.08016,-1.20703c-0.25067,-0.51899 -0.37613,-1.12249 -0.37613,-1.81058c0,-0.68807 0.12546,-1.29449 0.37613,-1.81931c0.25375,-0.52771 0.60653,-0.93881 1.05835,-1.23328c0.4549,-0.29739 0.98548,-0.44607 1.59176,-0.44607c0.34996,0 0.69556,0.05829 1.03654,0.17493c0.34124,0.11661 0.65169,0.30614 0.9316,0.56853c0.27992,0.2595 0.50288,0.60353 0.66913,1.0321c0.16626,0.4286 0.24913,0.95631 0.24913,1.58316v0.43732h-5.17783v-0.89214h4.12846c0,-0.37903 -0.07594,-0.71724 -0.22758,-1.01463c-0.14855,-0.29739 -0.36151,-0.5321 -0.63834,-0.7041c-0.27427,-0.17203 -0.59781,-0.25803 -0.97112,-0.25803c-0.41102,0 -0.76663,0.10204 -1.06707,0.30614c-0.29736,0.20118 -0.52622,0.46357 -0.68658,0.78721c-0.16036,0.32361 -0.24041,0.67057 -0.24041,1.04085v0.59478c0,0.50729 0.08749,0.93735 0.26221,1.29013c0.17806,0.34986 0.42437,0.61664 0.73918,0.80032c0.31481,0.18088 0.68094,0.2712 1.09786,0.2712c0.27094,0 0.51596,-0.03797 0.73456,-0.11366c0.22168,-0.07877 0.41256,-0.19543 0.57292,-0.34996c0.16036,-0.15743 0.28428,-0.35278 0.37177,-0.58603l0.99703,0.27989c-0.10494,0.33821 -0.2812,0.63557 -0.52905,0.89214c-0.24785,0.25375 -0.55393,0.45182 -0.91852,0.59473c-0.36433,0.14009 -0.77407,0.20987 -1.22871,0.20987zM184.9489,178.14565l-0.92698,0.26239c-0.0585,-0.15451 -0.14445,-0.30467 -0.25811,-0.45043c-0.11084,-0.14871 -0.26247,-0.27117 -0.4549,-0.36738c-0.19243,-0.09621 -0.43873,-0.14432 -0.73892,-0.14432c-0.41128,0 -0.7538,0.09477 -1.02782,0.28428c-0.27119,0.1866 -0.40666,0.42421 -0.40666,0.71285c0,0.25657 0.09313,0.45921 0.27992,0.60789c0.18652,0.14871 0.47799,0.2726 0.87465,0.37174l0.99703,0.2449c0.60063,0.14578 1.04809,0.36882 1.34263,0.66913c0.29454,0.29739 0.44181,0.68078 0.44181,1.15017c0,0.38485 -0.11084,0.72891 -0.33251,1.03205c-0.2186,0.30327 -0.52468,0.54239 -0.91826,0.71737c-0.39383,0.17498 -0.85155,0.26221 -1.37342,0.26221c-0.68504,0 -1.25206,-0.14856 -1.70105,-0.44592c-0.449,-0.29736 -0.73328,-0.73186 -0.85284,-1.30329l0.97958,-0.24492c0.09339,0.36153 0.26965,0.63268 0.52905,0.81345c0.26247,0.18083 0.60499,0.27114 1.02782,0.27114c0.48107,0 0.8631,-0.10212 1.14584,-0.30614c0.28582,-0.207 0.42847,-0.45482 0.42847,-0.74346c0,-0.23325 -0.08159,-0.4286 -0.24477,-0.58603c-0.16318,-0.16036 -0.4141,-0.27989 -0.75226,-0.35861l-1.11967,-0.26242c-0.615,-0.14576 -1.06707,-0.37172 -1.35571,-0.67785c-0.28556,-0.30904 -0.42847,-0.69535 -0.42847,-1.15892c0,-0.37903 0.10647,-0.71431 0.31917,-1.00588c0.21578,-0.29157 0.50878,-0.52043 0.87901,-0.68661c0.37331,-0.16621 0.79614,-0.24928 1.26848,-0.24928c0.66451,0 1.18663,0.14578 1.56558,0.43732c0.38177,0.29157 0.65297,0.67642 0.81332,1.15456zM188.16448,182.13415l-0.07004,0.47227c-0.04952,0.33251 -0.1252,0.68812 -0.22732,1.06707c-0.09929,0.37921 -0.20269,0.73635 -0.31045,1.07143c-0.10802,0.33534 -0.19679,0.60217 -0.26683,0.8005h-0.78716c0.03772,-0.18678 0.08749,-0.43309 0.14855,-0.73918c0.06132,-0.30609 0.12238,-0.64861 0.1837,-1.02782c0.06414,-0.37613 0.11674,-0.76098 0.15753,-1.15456l0.05234,-0.48971zM196.49682,183.48106c-0.36741,-0.00564 -0.73481,-0.07569 -1.10222,-0.20987c-0.36715,-0.13419 -0.70249,-0.35997 -1.00575,-0.67785c-0.30327,-0.32071 -0.54675,-0.75367 -0.73045,-1.29888c-0.1837,-0.54811 -0.27555,-1.23618 -0.27555,-2.0642c0,-0.79303 0.0744,-1.4957 0.22322,-2.10795c0.14855,-0.61518 0.36433,-1.1327 0.64707,-1.55255c0.283,-0.42275 0.62398,-0.74346 1.02346,-0.96214c0.4023,-0.21865 0.85566,-0.328 1.36007,-0.328c0.50159,0 0.94751,0.1006 1.33827,0.30178c0.39358,0.19825 0.71429,0.47522 0.96213,0.83093c0.24785,0.35571 0.4082,0.76535 0.48107,1.22892h-1.06707c-0.09904,-0.40235 -0.29146,-0.73618 -0.57728,-1.00149c-0.28582,-0.26532 -0.66477,-0.39799 -1.13712,-0.39799c-0.69376,0 -1.24051,0.30178 -1.63999,0.90528c-0.3964,0.60353 -0.59627,1.45052 -0.59909,2.54093h0.07004c0.16318,-0.24785 0.35714,-0.45921 0.58164,-0.63414c0.22732,-0.17785 0.47799,-0.31489 0.75226,-0.4111c0.27402,-0.09621 0.56394,-0.14432 0.87028,-0.14432c0.51314,0 0.9824,0.12828 1.40805,0.38485c0.42565,0.25364 0.76688,0.60496 1.02345,1.05396c0.25657,0.4461 0.38485,0.95777 0.38485,1.53505c0,0.55396 -0.12392,1.06127 -0.37177,1.52192c-0.24785,0.45777 -0.59627,0.8221 -1.04526,1.09329c-0.44592,0.26837 -0.97086,0.39948 -1.57431,0.39358zM196.49682,182.51893c0.36741,0 0.69684,-0.09185 0.98831,-0.27545c0.29454,-0.18368 0.52622,-0.43004 0.6953,-0.7391c0.17216,-0.30904 0.25811,-0.65307 0.25811,-1.0321c0,-0.37028 -0.08313,-0.70703 -0.24938,-1.01024c-0.16318,-0.30614 -0.38922,-0.54957 -0.67786,-0.73035c-0.28556,-0.18075 -0.61217,-0.27114 -0.97958,-0.27114c-0.27684,0 -0.53495,0.05539 -0.77407,0.16618c-0.23912,0.10789 -0.449,0.25657 -0.62962,0.4461c-0.17806,0.1895 -0.31789,0.40671 -0.42,0.65161c-0.10212,0.242 -0.15292,0.4971 -0.15292,0.76535c0,0.35568 0.08287,0.68807 0.24913,0.99711c0.16908,0.30906 0.39948,0.55834 0.69094,0.74785c0.29454,0.18953 0.62834,0.2842 1.00165,0.2842zM204.12925,183.48106c-0.65887,0 -1.21999,-0.17934 -1.68361,-0.53777c-0.46362,-0.36151 -0.81794,-0.88496 -1.06271,-1.5701c-0.24502,-0.68809 -0.36741,-1.51902 -0.36741,-2.4928c0,-0.96798 0.12238,-1.79455 0.36741,-2.47969c0.24785,-0.68807 0.60345,-1.21288 1.06707,-1.57441c0.46644,-0.36443 1.02628,-0.54667 1.67925,-0.54667c0.65322,0 1.21152,0.18224 1.67514,0.54667c0.46644,0.36153 0.82205,0.88634 1.06707,1.57441c0.24785,0.68514 0.37177,1.51171 0.37177,2.47969c0,0.97378 -0.12264,1.80471 -0.36741,2.4928c-0.24502,0.68514 -0.59909,1.2086 -1.06271,1.5701c-0.46362,0.35843 -1.02474,0.53777 -1.68386,0.53777zM204.12925,182.51893c0.65322,0 1.16046,-0.31481 1.52197,-0.94456c0.36151,-0.62978 0.54239,-1.52777 0.54239,-2.69398c0,-0.77556 -0.08313,-1.43592 -0.24938,-1.98113c-0.16318,-0.54521 -0.39948,-0.9607 -0.70839,-1.24641c-0.30609,-0.28572 -0.67503,-0.42857 -1.10658,-0.42857c-0.64707,0 -1.15302,0.31925 -1.51735,0.95775c-0.36458,0.6356 -0.54675,1.53505 -0.54675,2.69837c0,0.77553 0.08159,1.43445 0.24477,1.97674c0.16343,0.54229 0.3982,0.95485 0.70428,1.23766c0.30891,0.28276 0.68068,0.42413 1.11505,0.42413zM214.92286,183.49851c-0.55983,0 -1.05399,-0.14137 -1.48272,-0.42411c-0.42847,-0.28582 -0.76381,-0.68812 -1.00575,-1.20703c-0.24194,-0.52189 -0.36305,-1.13853 -0.36305,-1.84992c0,-0.70557 0.1211,-1.31784 0.36305,-1.83681c0.24194,-0.51896 0.57856,-0.91985 1.01011,-1.20267c0.43155,-0.28282 0.93006,-0.42421 1.4958,-0.42421c0.43719,0 0.78279,0.07289 1.03654,0.21865c0.25657,0.14288 0.45182,0.30614 0.58601,0.48982c0.13701,0.18078 0.24323,0.32946 0.31917,0.4461h0.08749v-3.30625h1.03218v8.9566h-0.99728v-1.0321h-0.12238c-0.07594,0.12256 -0.1837,0.27702 -0.32353,0.46354c-0.14009,0.1837 -0.3397,0.34842 -0.59935,0.49415c-0.25939,0.14291 -0.60499,0.21424 -1.03628,0.21424zM215.06269,182.57153c0.4141,0 0.76381,-0.10802 1.04962,-0.32366c0.28582,-0.21867 0.50288,-0.52045 0.65169,-0.9053c0.14855,-0.38775 0.22296,-0.83529 0.22296,-1.3426c0,-0.50149 -0.07287,-0.94027 -0.2186,-1.31638c-0.14573,-0.37903 -0.36151,-0.67349 -0.64732,-0.88342c-0.28582,-0.21282 -0.6386,-0.31925 -1.05835,-0.31925c-0.43745,0 -0.80178,0.11225 -1.09324,0.33675c-0.28864,0.22157 -0.50595,0.52335 -0.65169,0.90528c-0.14291,0.37903 -0.21424,0.8047 -0.21424,1.27702c0,0.47814 0.07287,0.91257 0.2186,1.30324c0.14855,0.38778 0.36741,0.69682 0.65605,0.92717c0.29146,0.2275 0.65297,0.34116 1.08452,0.34116zM222.85162,183.49851c-0.64732,0 -1.20562,-0.14265 -1.67488,-0.42847c-0.4667,-0.28864 -0.82667,-0.69094 -1.08041,-1.20703c-0.25067,-0.51899 -0.37613,-1.12249 -0.37613,-1.81058c0,-0.68807 0.12546,-1.29449 0.37613,-1.81931c0.25375,-0.52771 0.60653,-0.93881 1.05835,-1.23328c0.4549,-0.29739 0.98548,-0.44607 1.59201,-0.44607c0.34996,0 0.6953,0.05829 1.03654,0.17493c0.34098,0.11661 0.65143,0.30614 0.93135,0.56853c0.27992,0.2595 0.50313,0.60353 0.66913,1.0321c0.16626,0.4286 0.24939,0.95631 0.24939,1.58316v0.43732h-5.17808v-0.89214h4.12846c0,-0.37903 -0.07569,-0.71724 -0.22732,-1.01463c-0.14881,-0.29739 -0.36151,-0.5321 -0.6386,-0.7041c-0.27402,-0.17203 -0.59781,-0.25803 -0.97086,-0.25803c-0.41102,0 -0.76688,0.10204 -1.06707,0.30614c-0.29736,0.20118 -0.52623,0.46357 -0.68658,0.78721c-0.16036,0.32361 -0.24066,0.67057 -0.24066,1.04085v0.59478c0,0.50729 0.08749,0.93735 0.26247,1.29013c0.1778,0.34986 0.42411,0.61664 0.73918,0.80032c0.31481,0.18088 0.68068,0.2712 1.0976,0.2712c0.27119,0 0.51596,-0.03797 0.73481,-0.11366c0.22142,-0.07877 0.41256,-0.19543 0.57292,-0.34996c0.16036,-0.15743 0.28428,-0.35278 0.37151,-0.58603l0.99728,0.27989c-0.10494,0.33821 -0.28146,0.63557 -0.5293,0.89214c-0.24785,0.25375 -0.55393,0.45182 -0.91826,0.59473c-0.36458,0.14009 -0.77407,0.20987 -1.22897,0.20987zM229.91446,186.01776c-0.49851,0 -0.92699,-0.06414 -1.28567,-0.19243c-0.35868,-0.12546 -0.65733,-0.29172 -0.89645,-0.49877c-0.2363,-0.20397 -0.42437,-0.42257 -0.5642,-0.65579l0.82205,-0.57728c0.09339,0.12238 0.21141,0.26221 0.35432,0.41975c0.14291,0.16036 0.33816,0.2989 0.58601,0.41539c0.25067,0.11956 0.57882,0.17934 0.98394,0.17934c0.54239,0 0.98984,-0.13111 1.34263,-0.39358c0.35278,-0.26247 0.5293,-0.6735 0.5293,-1.23333v-1.36441h-0.08749c-0.07594,0.12246 -0.1837,0.27399 -0.32353,0.45487c-0.13726,0.1778 -0.33534,0.33662 -0.59498,0.4767c-0.25657,0.13701 -0.60345,0.20551 -1.04064,0.20551c-0.54239,0 -1.02936,-0.12828 -1.46091,-0.38485c-0.42847,-0.25657 -0.76817,-0.62978 -1.01884,-1.11959c-0.24785,-0.48982 -0.37177,-1.0846 -0.37177,-1.78434c0,-0.68807 0.1211,-1.28721 0.36305,-1.79745c0.24194,-0.51314 0.57856,-0.90964 1.01011,-1.18953c0.43155,-0.28282 0.93006,-0.42421 1.4958,-0.42421c0.43719,0 0.78433,0.07289 1.0409,0.21865c0.25939,0.14288 0.45772,0.30614 0.59473,0.48982c0.13983,0.18078 0.24785,0.32946 0.32353,0.4461h0.10494v-1.0671h0.99728v6.90987c0,0.57728 -0.13136,1.0468 -0.39383,1.40831c-0.25939,0.36433 -0.60935,0.63116 -1.04937,0.80024c-0.43745,0.1719 -0.92442,0.25811 -1.46091,0.25811zM229.87957,182.32658c0.4141,0 0.76381,-0.09475 1.04963,-0.28428c0.28582,-0.1895 0.50287,-0.46211 0.65169,-0.81781c0.14855,-0.35568 0.22296,-0.78136 0.22296,-1.27702c0,-0.48397 -0.07287,-0.9111 -0.2186,-1.28138c-0.14573,-0.37028 -0.36151,-0.66036 -0.64732,-0.87028c-0.28582,-0.20993 -0.6386,-0.31489 -1.05835,-0.31489c-0.43745,0 -0.80178,0.11079 -1.09324,0.33239c-0.28864,0.22157 -0.50595,0.51896 -0.65169,0.89214c-0.14291,0.37321 -0.21424,0.78721 -0.21424,1.24203c0,0.4665 0.07287,0.87906 0.2186,1.23766c0.14855,0.35571 0.36741,0.6356 0.65605,0.83967c0.29146,0.20118 0.65297,0.30178 1.08452,0.30178zM234.70769,183.35868v-6.71744h0.99728v1.0146h0.06979c0.12264,-0.33236 0.34406,-0.60207 0.66477,-0.80907c0.32071,-0.207 0.68222,-0.3105 1.08452,-0.3105c0.07594,0 0.17062,0.00146 0.28428,0.00436c0.11392,0.00293 0.19987,0.00729 0.25811,0.01314v1.0496c-0.03489,-0.00875 -0.1152,-0.02186 -0.24041,-0.03936c-0.12264,-0.02042 -0.25221,-0.03061 -0.38922,-0.03061c-0.32661,0 -0.61833,0.0685 -0.8749,0.20554c-0.25349,0.13411 -0.45464,0.32071 -0.60345,0.55978c-0.14573,0.23617 -0.2186,0.50585 -0.2186,0.80906v4.25089zM241.90189,183.49851c-0.64732,0 -1.20562,-0.14265 -1.67488,-0.42847c-0.4667,-0.28864 -0.82667,-0.69094 -1.08041,-1.20703c-0.25067,-0.51899 -0.37613,-1.12249 -0.37613,-1.81058c0,-0.68807 0.12546,-1.29449 0.37613,-1.81931c0.25375,-0.52771 0.60653,-0.93881 1.05835,-1.23328c0.4549,-0.29739 0.98548,-0.44607 1.59201,-0.44607c0.34996,0 0.6953,0.05829 1.03654,0.17493c0.34098,0.11661 0.65143,0.30614 0.93135,0.56853c0.27992,0.2595 0.50313,0.60353 0.66913,1.0321c0.16626,0.4286 0.24938,0.95631 0.24938,1.58316v0.43732h-5.17808v-0.89214h4.12846c0,-0.37903 -0.07569,-0.71724 -0.22732,-1.01463c-0.14881,-0.29739 -0.36151,-0.5321 -0.6386,-0.7041c-0.27402,-0.17203 -0.59781,-0.25803 -0.97086,-0.25803c-0.41102,0 -0.76689,0.10204 -1.06707,0.30614c-0.29736,0.20118 -0.52622,0.46357 -0.68658,0.78721c-0.16036,0.32361 -0.24066,0.67057 -0.24066,1.04085v0.59478c0,0.50729 0.08749,0.93735 0.26247,1.29013c0.1778,0.34986 0.42411,0.61664 0.73918,0.80032c0.31481,0.18088 0.68068,0.2712 1.0976,0.2712c0.27119,0 0.51596,-0.03797 0.73482,-0.11366c0.22142,-0.07877 0.41256,-0.19543 0.57292,-0.34996c0.16036,-0.15743 0.28428,-0.35278 0.37151,-0.58603l0.99728,0.27989c-0.10494,0.33821 -0.28146,0.63557 -0.5293,0.89214c-0.24785,0.25375 -0.55393,0.45182 -0.91826,0.59473c-0.36458,0.14009 -0.77407,0.20987 -1.22897,0.20987zM249.06967,183.49851c-0.64707,0 -1.20536,-0.14265 -1.67488,-0.42847c-0.46644,-0.28864 -0.82667,-0.69094 -1.08016,-1.20703c-0.25067,-0.51899 -0.37613,-1.12249 -0.37613,-1.81058c0,-0.68807 0.12546,-1.29449 0.37613,-1.81931c0.25349,-0.52771 0.60627,-0.93881 1.05835,-1.23328c0.4549,-0.29739 0.98548,-0.44607 1.59176,-0.44607c0.34996,0 0.69556,0.05829 1.03654,0.17493c0.34124,0.11661 0.65169,0.30614 0.9316,0.56853c0.27992,0.2595 0.50288,0.60353 0.66913,1.0321c0.16626,0.4286 0.24913,0.95631 0.24913,1.58316v0.43732h-5.17783v-0.89214h4.1282c0,-0.37903 -0.07569,-0.71724 -0.22732,-1.01463c-0.14855,-0.29739 -0.36151,-0.5321 -0.6386,-0.7041c-0.27402,-0.17203 -0.59755,-0.25803 -0.97086,-0.25803c-0.41102,0 -0.76663,0.10204 -1.06707,0.30614c-0.29736,0.20118 -0.52622,0.46357 -0.68658,0.78721c-0.16036,0.32361 -0.24041,0.67057 -0.24041,1.04085v0.59478c0,0.50729 0.08749,0.93735 0.26221,1.29013c0.17806,0.34986 0.42437,0.61664 0.73918,0.80032c0.31481,0.18088 0.68068,0.2712 1.0976,0.2712c0.27119,0 0.51622,-0.03797 0.73481,-0.11366c0.22168,-0.07877 0.41256,-0.19543 0.57292,-0.34996c0.16036,-0.15743 0.28428,-0.35278 0.37177,-0.58603l0.99703,0.27989c-0.10494,0.33821 -0.2812,0.63557 -0.52905,0.89214c-0.24785,0.25375 -0.55393,0.45182 -0.91852,0.59473c-0.36433,0.14009 -0.77407,0.20987 -1.22897,0.20987zM258.17942,178.14565l-0.92698,0.26239c-0.0585,-0.15451 -0.14445,-0.30467 -0.25811,-0.45043c-0.11084,-0.14871 -0.26247,-0.27117 -0.4549,-0.36738c-0.19243,-0.09621 -0.43873,-0.14432 -0.73918,-0.14432c-0.41102,0 -0.75355,0.09477 -1.02756,0.28428c-0.27119,0.1866 -0.40666,0.42421 -0.40666,0.71285c0,0.25657 0.09314,0.45921 0.27966,0.60789c0.18678,0.14871 0.47824,0.2726 0.8749,0.37174l0.99703,0.2449c0.60063,0.14578 1.04809,0.36882 1.34263,0.66913c0.29454,0.29739 0.44156,0.68078 0.44156,1.15017c0,0.38485 -0.11058,0.72891 -0.33226,1.03205c-0.2186,0.30327 -0.52468,0.54239 -0.91852,0.71737c-0.39358,0.17498 -0.8513,0.26221 -1.37316,0.26221c-0.68504,0 -1.25232,-0.14856 -1.70131,-0.44592c-0.449,-0.29736 -0.73302,-0.73186 -0.85258,-1.30329l0.97958,-0.24492c0.09313,0.36153 0.26965,0.63268 0.52905,0.81345c0.26247,0.18083 0.60499,0.27114 1.02782,0.27114c0.48107,0 0.8631,-0.10212 1.14584,-0.30614c0.28582,-0.207 0.42847,-0.45482 0.42847,-0.74346c0,-0.23325 -0.08159,-0.4286 -0.24477,-0.58603c-0.16343,-0.16036 -0.4141,-0.27989 -0.75226,-0.35861l-1.11967,-0.26242c-0.615,-0.14576 -1.06707,-0.37172 -1.35571,-0.67785c-0.28556,-0.30904 -0.42847,-0.69535 -0.42847,-1.15892c0,-0.37903 0.10648,-0.71431 0.31917,-1.00588c0.21578,-0.29157 0.50878,-0.52043 0.87901,-0.68661c0.37331,-0.16621 0.79613,-0.24928 1.26822,-0.24928c0.66477,0 1.18663,0.14578 1.56584,0.43732c0.38177,0.29157 0.65297,0.67642 0.81332,1.15456zM261.395,182.13415l-0.07005,0.47227c-0.04952,0.33251 -0.12546,0.68812 -0.22732,1.06707c-0.09929,0.37921 -0.20269,0.73635 -0.31071,1.07143c-0.10776,0.33534 -0.19679,0.60217 -0.26658,0.8005h-0.78716c0.03772,-0.18678 0.08723,-0.43309 0.14855,-0.73918c0.06132,-0.30609 0.12238,-0.64861 0.1837,-1.02782c0.06414,-0.37613 0.11674,-0.76098 0.15753,-1.15456l0.05234,-0.48971zM268.7475,183.51621c-0.42565,0 -0.81179,-0.08031 -1.15892,-0.24066c-0.34688,-0.16318 -0.62244,-0.39794 -0.82641,-0.70403c-0.20423,-0.30909 -0.30609,-0.6823 -0.30609,-1.11962c0,-0.38485 0.07569,-0.69682 0.22732,-0.93589c0.15163,-0.242 0.35432,-0.43153 0.60781,-0.56856c0.25375,-0.13701 0.53366,-0.23907 0.83975,-0.30611c0.30917,-0.06999 0.61961,-0.12539 0.9316,-0.16621c0.4082,-0.05247 0.73892,-0.09183 0.99267,-0.11807c0.25657,-0.02915 0.44309,-0.07725 0.55983,-0.14432c0.11956,-0.06707 0.17934,-0.18368 0.17934,-0.34986v-0.035c0,-0.4315 -0.11802,-0.76678 -0.35432,-1.00585c-0.23322,-0.2391 -0.58754,-0.35863 -1.06271,-0.35863c-0.49261,0 -0.879,0.10789 -1.15892,0.32364c-0.27992,0.21575 -0.47671,0.44607 -0.59037,0.69099l-0.97958,-0.34988c0.17472,-0.40818 0.4082,-0.72596 0.69966,-0.95339c0.29454,-0.23032 0.61525,-0.39068 0.96214,-0.48107c0.34996,-0.09329 0.69376,-0.13993 1.03218,-0.13993c0.21578,0 0.46336,0.02622 0.74328,0.07872c0.283,0.04957 0.55547,0.15307 0.81794,0.3105c0.26529,0.15746 0.48543,0.39507 0.66041,0.71285c0.17498,0.31781 0.26221,0.74349 0.26221,1.27702v4.42582h-1.03192v-0.90954h-0.0526c-0.07004,0.14573 -0.18653,0.30172 -0.3497,0.46773c-0.16343,0.16626 -0.38049,0.30763 -0.65169,0.42437c-0.27119,0.11648 -0.60217,0.17498 -0.99292,0.17498zM268.90504,182.58897c0.4082,0 0.75226,-0.08005 1.03218,-0.24066c0.28274,-0.16023 0.49569,-0.36723 0.63834,-0.6209c0.14599,-0.25364 0.21885,-0.52043 0.21885,-0.80032v-0.94464c-0.04387,0.05249 -0.14009,0.1006 -0.28864,0.14432c-0.14573,0.04082 -0.31507,0.07725 -0.50749,0.10932c-0.18935,0.02917 -0.37459,0.05542 -0.55522,0.07874c-0.1778,0.0204 -0.32225,0.0379 -0.43309,0.05247c-0.26811,0.035 -0.51904,0.09185 -0.75226,0.17057c-0.23014,0.07579 -0.41693,0.19096 -0.55958,0.3455c-0.14009,0.15161 -0.21013,0.35861 -0.21013,0.621c0,0.35863 0.13265,0.62978 0.3982,0.81345c0.26811,0.18083 0.60781,0.27114 1.01884,0.27114zM274.7425,179.31771v4.04097h-1.03218v-6.71744h0.99703v1.0496h0.08749c0.15753,-0.34114 0.39666,-0.61518 0.71737,-0.8222c0.32071,-0.2099 0.73456,-0.31486 1.24179,-0.31486c0.4549,0 0.85284,0.09329 1.19407,0.27989c0.34098,0.18368 0.60653,0.46357 0.79588,0.83968c0.18961,0.37321 0.28428,0.84552 0.28428,1.41695v4.26839h-1.03218v-4.1984c0,-0.52774 -0.13701,-0.93881 -0.41102,-1.2333c-0.27402,-0.29736 -0.65015,-0.44607 -1.12839,-0.44607c-0.32944,0 -0.62372,0.07143 -0.88337,0.21429c-0.25657,0.14288 -0.45926,0.35134 -0.60781,0.62539c-0.14881,0.27407 -0.22296,0.60645 -0.22296,0.99713zM283.45072,183.49851c-0.55983,0 -1.05399,-0.14137 -1.48246,-0.42411c-0.42873,-0.28582 -0.76381,-0.68812 -1.00601,-1.20703c-0.24194,-0.52189 -0.36279,-1.13853 -0.36279,-1.84992c0,-0.70557 0.12084,-1.31784 0.36279,-1.83681c0.2422,-0.51896 0.57882,-0.91985 1.01037,-1.20267c0.43155,-0.28282 0.93006,-0.42421 1.49554,-0.42421c0.43745,0 0.78305,0.07289 1.03654,0.21865c0.25657,0.14288 0.45208,0.30614 0.58601,0.48982c0.13701,0.18078 0.24348,0.32946 0.31943,0.4461h0.08749v-3.30625h1.03192v8.9566h-0.99703v-1.0321h-0.12238c-0.07594,0.12256 -0.1837,0.27702 -0.32379,0.46354c-0.13983,0.1837 -0.3397,0.34842 -0.59909,0.49415c-0.25939,0.14291 -0.60499,0.21424 -1.03654,0.21424zM283.59081,182.57153c0.41385,0 0.76381,-0.10802 1.04963,-0.32366c0.28556,-0.21867 0.50287,-0.52045 0.65143,-0.9053c0.14881,-0.38775 0.22322,-0.83529 0.22322,-1.3426c0,-0.50149 -0.07287,-0.94027 -0.21885,-1.31638c-0.14573,-0.37903 -0.36151,-0.67349 -0.64707,-0.88342c-0.28582,-0.21282 -0.6386,-0.31925 -1.05835,-0.31925c-0.43745,0 -0.80178,0.11225 -1.0935,0.33675c-0.28864,0.22157 -0.5057,0.52335 -0.65143,0.90528c-0.14291,0.37903 -0.21449,0.8047 -0.21449,1.27702c0,0.47814 0.07287,0.91257 0.21885,1.30324c0.14855,0.38778 0.36715,0.69682 0.65579,0.92717c0.29172,0.2275 0.65322,0.34116 1.08477,0.34116zM294.86087,174.27962c0.36741,0.00293 0.73481,0.07289 1.10197,0.20993c0.36741,0.13703 0.70274,0.36446 1.00601,0.68224c0.30327,0.31489 0.54649,0.74492 0.7302,1.29013c0.1837,0.54521 0.27556,1.22892 0.27556,2.05109c0,0.79596 -0.07569,1.50298 -0.22732,2.12108c-0.14881,0.61518 -0.36458,1.13414 -0.64732,1.55691c-0.27992,0.42285 -0.6209,0.74356 -1.0232,0.96216c-0.39948,0.2186 -0.85155,0.3279 -1.35597,0.3279c-0.50134,0 -0.94879,-0.09904 -1.34263,-0.29736c-0.3905,-0.20115 -0.71121,-0.47953 -0.96213,-0.83539c-0.24759,-0.35848 -0.40666,-0.77394 -0.47645,-1.24629h1.06707c0.09621,0.4111 0.2871,0.75077 0.57292,1.01899c0.28864,0.26527 0.66913,0.39791 1.14122,0.39791c0.6912,0 1.23641,-0.3017 1.63563,-0.9052c0.40256,-0.60353 0.60371,-1.45634 0.60371,-2.55841h-0.07004c-0.16318,0.2449 -0.35714,0.45628 -0.58164,0.63414c-0.2245,0.17783 -0.47388,0.31486 -0.7479,0.41108c-0.27402,0.09621 -0.56548,0.14432 -0.87464,0.14432c-0.51314,0 -0.98394,-0.12682 -1.41267,-0.38047c-0.42565,-0.25657 -0.76663,-0.60789 -1.0232,-1.05399c-0.25375,-0.449 -0.38049,-0.96214 -0.38049,-1.53942c0,-0.54811 0.12238,-1.0496 0.36741,-1.50442c0.24785,-0.45775 0.59473,-0.8222 1.04064,-1.09335c0.449,-0.27114 0.97676,-0.40235 1.58329,-0.3936zM294.86087,175.24175c-0.36741,0 -0.69838,0.09185 -0.99267,0.27553c-0.29172,0.18075 -0.5234,0.42568 -0.69556,0.73471c-0.16908,0.30614 -0.25349,0.64581 -0.25349,1.01899c0,0.37321 0.08159,0.71285 0.24477,1.01899c0.16626,0.30321 0.39229,0.54521 0.67785,0.72599c0.28864,0.17783 0.61679,0.26676 0.9842,0.26676c0.27684,0 0.53495,-0.05393 0.77407,-0.16179c0.23887,-0.11081 0.44746,-0.26095 0.62526,-0.45046c0.18088,-0.19243 0.32225,-0.40964 0.42411,-0.65163c0.10212,-0.2449 0.15317,-0.50003 0.15317,-0.76535c0,-0.34986 -0.08441,-0.67786 -0.25375,-0.98399c-0.166,-0.30614 -0.3964,-0.55396 -0.69094,-0.74346c-0.29146,-0.1895 -0.62398,-0.28428 -0.99703,-0.28428zM302.61593,183.48106c-0.65887,0 -1.22024,-0.17934 -1.68386,-0.53777c-0.46362,-0.36151 -0.81769,-0.88496 -1.06271,-1.5701c-0.24477,-0.68809 -0.36741,-1.51902 -0.36741,-2.4928c0,-0.96798 0.12264,-1.79455 0.36741,-2.47969c0.24785,-0.68807 0.60345,-1.21288 1.06707,-1.57441c0.46644,-0.36443 1.02628,-0.54667 1.6795,-0.54667c0.65297,0 1.21126,0.18224 1.67488,0.54667c0.46644,0.36153 0.8223,0.88634 1.06707,1.57441c0.24785,0.68514 0.37177,1.51171 0.37177,2.47969c0,0.97378 -0.12238,1.80471 -0.36741,2.4928c-0.24477,0.68514 -0.59909,1.2086 -1.06271,1.5701c-0.46362,0.35843 -1.02474,0.53777 -1.68361,0.53777zM302.61593,182.51893c0.65297,0 1.16021,-0.31481 1.52197,-0.94456c0.36151,-0.62978 0.54213,-1.52777 0.54213,-2.69398c0,-0.77556 -0.08313,-1.43592 -0.24913,-1.98113c-0.16343,-0.54521 -0.39948,-0.9607 -0.70864,-1.24641c-0.30609,-0.28572 -0.67478,-0.42857 -1.10633,-0.42857c-0.64732,0 -1.15328,0.31925 -1.51761,0.95775c-0.36433,0.6356 -0.54675,1.53505 -0.54675,2.69837c0,0.77553 0.08159,1.43445 0.24503,1.97674c0.16318,0.54229 0.39794,0.95485 0.70402,1.23766c0.30917,0.28276 0.68094,0.42413 1.11531,0.42413zM313.40929,183.49851c-0.55983,0 -1.05399,-0.14137 -1.48246,-0.42411c-0.42873,-0.28582 -0.76406,-0.68812 -1.00601,-1.20703c-0.24194,-0.52189 -0.36304,-1.13853 -0.36304,-1.84992c0,-0.70557 0.1211,-1.31784 0.36304,-1.83681c0.24194,-0.51896 0.57882,-0.91985 1.01037,-1.20267c0.43129,-0.28282 0.93006,-0.42421 1.49554,-0.42421c0.43745,0 0.78279,0.07289 1.03654,0.21865c0.25657,0.14288 0.45182,0.30614 0.58601,0.48982c0.13701,0.18078 0.24348,0.32946 0.31917,0.4461h0.08749v-3.30625h1.03218v8.9566h-0.99703v-1.0321h-0.12264c-0.07569,0.12256 -0.1837,0.27702 -0.32353,0.46354c-0.14009,0.1837 -0.3397,0.34842 -0.59909,0.49415c-0.25965,0.14291 -0.60499,0.21424 -1.03654,0.21424zM313.54912,182.57153c0.4141,0 0.76406,-0.10802 1.04963,-0.32366c0.28582,-0.21867 0.50313,-0.52045 0.65169,-0.9053c0.14881,-0.38775 0.22296,-0.83529 0.22296,-1.3426c0,-0.50149 -0.07287,-0.94027 -0.2186,-1.31638c-0.14573,-0.37903 -0.36151,-0.67349 -0.64732,-0.88342c-0.28556,-0.21282 -0.63834,-0.31925 -1.05835,-0.31925c-0.43719,0 -0.80178,0.11225 -1.09324,0.33675c-0.28864,0.22157 -0.50595,0.52335 -0.65169,0.90528c-0.14291,0.37903 -0.21424,0.8047 -0.21424,1.27702c0,0.47814 0.07287,0.91257 0.2186,1.30324c0.14881,0.38778 0.36741,0.69682 0.65605,0.92717c0.29146,0.2275 0.65322,0.34116 1.08452,0.34116zM321.33805,183.49851c-0.64707,0 -1.20562,-0.14265 -1.67488,-0.42847c-0.46644,-0.28864 -0.82667,-0.69094 -1.08016,-1.20703c-0.25092,-0.51899 -0.37613,-1.12249 -0.37613,-1.81058c0,-0.68807 0.12521,-1.29449 0.37613,-1.81931c0.25349,-0.52771 0.60627,-0.93881 1.05835,-1.23328c0.45464,-0.29739 0.98548,-0.44607 1.59176,-0.44607c0.34996,0 0.6953,0.05829 1.03654,0.17493c0.34124,0.11661 0.65169,0.30614 0.9316,0.56853c0.27992,0.2595 0.50288,0.60353 0.66913,1.0321c0.166,0.4286 0.24913,0.95631 0.24913,1.58316v0.43732h-5.17808v-0.89214h4.12846c0,-0.37903 -0.07569,-0.71724 -0.22732,-1.01463c-0.14881,-0.29739 -0.36151,-0.5321 -0.6386,-0.7041c-0.27402,-0.17203 -0.59755,-0.25803 -0.97086,-0.25803c-0.41102,0 -0.76663,0.10204 -1.06707,0.30614c-0.29736,0.20118 -0.52622,0.46357 -0.68658,0.78721c-0.16036,0.32361 -0.24041,0.67057 -0.24041,1.04085v0.59478c0,0.50729 0.08723,0.93735 0.26221,1.29013c0.1778,0.34986 0.42437,0.61664 0.73918,0.80032c0.31481,0.18088 0.68068,0.2712 1.0976,0.2712c0.27119,0 0.51622,-0.03797 0.73481,-0.11366c0.22168,-0.07877 0.41256,-0.19543 0.57292,-0.34996c0.16036,-0.15743 0.28428,-0.35278 0.37177,-0.58603l0.99703,0.27989c-0.10494,0.33821 -0.2812,0.63557 -0.52905,0.89214c-0.24785,0.25375 -0.55393,0.45182 -0.91852,0.59473c-0.36433,0.14009 -0.77407,0.20987 -1.22897,0.20987zM328.40115,186.01776c-0.49851,0 -0.92724,-0.06414 -1.28593,-0.19243c-0.35843,-0.12546 -0.65733,-0.29172 -0.89645,-0.49877c-0.23604,-0.20397 -0.42411,-0.42257 -0.5642,-0.65579l0.82231,-0.57728c0.09313,0.12238 0.21141,0.26221 0.35407,0.41975c0.14291,0.16036 0.33841,0.2989 0.58626,0.41539c0.25067,0.11956 0.57856,0.17934 0.98394,0.17934c0.54213,0 0.98984,-0.13111 1.34263,-0.39358c0.35278,-0.26247 0.52905,-0.6735 0.52905,-1.23333v-1.36441h-0.08749c-0.07569,0.12246 -0.1837,0.27399 -0.32353,0.45487c-0.13701,0.1778 -0.33534,0.33662 -0.59473,0.4767c-0.25657,0.13701 -0.60371,0.20551 -1.0409,0.20551c-0.54239,0 -1.0291,-0.12828 -1.46065,-0.38485c-0.42873,-0.25657 -0.76843,-0.62978 -1.01909,-1.11959c-0.24785,-0.48982 -0.37177,-1.0846 -0.37177,-1.78434c0,-0.68807 0.1211,-1.28721 0.36304,-1.79745c0.24194,-0.51314 0.57882,-0.90964 1.01037,-1.18953c0.43129,-0.28282 0.93006,-0.42421 1.49554,-0.42421c0.43745,0 0.78433,0.07289 1.0409,0.21865c0.25939,0.14288 0.45772,0.30614 0.59473,0.48982c0.14009,0.18078 0.24784,0.32946 0.32353,0.4461h0.10519v-1.0671h0.99703v6.90987c0,0.57728 -0.13111,1.0468 -0.39358,1.40831c-0.25965,0.36433 -0.60935,0.63116 -1.04962,0.80024c-0.43745,0.1719 -0.92416,0.25811 -1.46065,0.25811zM328.366,182.32658c0.4141,0 0.76406,-0.09475 1.04963,-0.28428c0.28582,-0.1895 0.50313,-0.46211 0.65169,-0.81781c0.14881,-0.35568 0.22296,-0.78136 0.22296,-1.27702c0,-0.48397 -0.07287,-0.9111 -0.2186,-1.28138c-0.14573,-0.37028 -0.36151,-0.66036 -0.64732,-0.87028c-0.28556,-0.20993 -0.63834,-0.31489 -1.05835,-0.31489c-0.43719,0 -0.80178,0.11079 -1.09324,0.33239c-0.28864,0.22157 -0.50595,0.51896 -0.65169,0.89214c-0.14291,0.37321 -0.21424,0.78721 -0.21424,1.24203c0,0.4665 0.07287,0.87906 0.2186,1.23766c0.14881,0.35571 0.36741,0.6356 0.65605,0.83967c0.29146,0.20118 0.65322,0.30178 1.08452,0.30178zM333.19438,183.35868v-6.71744h0.99703v1.0146h0.07004c0.12238,-0.33236 0.34406,-0.60207 0.66477,-0.80907c0.32071,-0.207 0.68222,-0.3105 1.08452,-0.3105c0.07569,0 0.17062,0.00146 0.28428,0.00436c0.11366,0.00293 0.19961,0.00729 0.25785,0.01314v1.0496c-0.03489,-0.00875 -0.11494,-0.02186 -0.24041,-0.03936c-0.12238,-0.02042 -0.25221,-0.03061 -0.38922,-0.03061c-0.32661,0 -0.61807,0.0685 -0.87464,0.20554c-0.25375,0.13411 -0.4549,0.32071 -0.60345,0.55978c-0.14599,0.23617 -0.21885,0.50585 -0.21885,0.80906v4.25089zM340.38832,183.49851c-0.64707,0 -1.20562,-0.14265 -1.67488,-0.42847c-0.46644,-0.28864 -0.82667,-0.69094 -1.08016,-1.20703c-0.25092,-0.51899 -0.37613,-1.12249 -0.37613,-1.81058c0,-0.68807 0.12521,-1.29449 0.37613,-1.81931c0.25349,-0.52771 0.60627,-0.93881 1.05835,-1.23328c0.45464,-0.29739 0.98548,-0.44607 1.59176,-0.44607c0.34996,0 0.6953,0.05829 1.03654,0.17493c0.34124,0.11661 0.65169,0.30614 0.9316,0.56853c0.27992,0.2595 0.50288,0.60353 0.66913,1.0321c0.166,0.4286 0.24913,0.95631 0.24913,1.58316v0.43732h-5.17808v-0.89214h4.12846c0,-0.37903 -0.07569,-0.71724 -0.22732,-1.01463c-0.14881,-0.29739 -0.36151,-0.5321 -0.6386,-0.7041c-0.27402,-0.17203 -0.59755,-0.25803 -0.97086,-0.25803c-0.41102,0 -0.76663,0.10204 -1.06707,0.30614c-0.29736,0.20118 -0.52623,0.46357 -0.68658,0.78721c-0.16036,0.32361 -0.24041,0.67057 -0.24041,1.04085v0.59478c0,0.50729 0.08723,0.93735 0.26221,1.29013c0.1778,0.34986 0.42437,0.61664 0.73918,0.80032c0.31481,0.18088 0.68068,0.2712 1.0976,0.2712c0.27119,0 0.51622,-0.03797 0.73481,-0.11366c0.22168,-0.07877 0.41256,-0.19543 0.57292,-0.34996c0.16036,-0.15743 0.28428,-0.35278 0.37177,-0.58603l0.99703,0.27989c-0.10494,0.33821 -0.2812,0.63557 -0.52905,0.89214c-0.24785,0.25375 -0.55393,0.45182 -0.91852,0.59473c-0.36433,0.14009 -0.77407,0.20987 -1.22897,0.20987zM347.55635,183.49851c-0.64732,0 -1.20562,-0.14265 -1.67514,-0.42847c-0.46644,-0.28864 -0.82641,-0.69094 -1.08015,-1.20703c-0.25067,-0.51899 -0.37613,-1.12249 -0.37613,-1.81058c0,-0.68807 0.12546,-1.29449 0.37613,-1.81931c0.25375,-0.52771 0.60653,-0.93881 1.05835,-1.23328c0.4549,-0.29739 0.98548,-0.44607 1.59201,-0.44607c0.3497,0 0.6953,0.05829 1.03654,0.17493c0.34098,0.11661 0.65143,0.30614 0.93135,0.56853c0.27992,0.2595 0.50288,0.60353 0.66913,1.0321c0.16626,0.4286 0.24938,0.95631 0.24938,1.58316v0.43732h-5.17808v-0.89214h4.12846c0,-0.37903 -0.07595,-0.71724 -0.22758,-1.01463c-0.14855,-0.29739 -0.36151,-0.5321 -0.63834,-0.7041c-0.27402,-0.17203 -0.59781,-0.25803 -0.97086,-0.25803c-0.41128,0 -0.76688,0.10204 -1.06707,0.30614c-0.29736,0.20118 -0.52622,0.46357 -0.68658,0.78721c-0.16036,0.32361 -0.24066,0.67057 -0.24066,1.04085v0.59478c0,0.50729 0.08749,0.93735 0.26247,1.29013c0.1778,0.34986 0.42411,0.61664 0.73892,0.80032c0.31507,0.18088 0.68093,0.2712 1.09786,0.2712c0.27119,0 0.51596,-0.03797 0.73456,-0.11366c0.22168,-0.07877 0.41256,-0.19543 0.57292,-0.34996c0.16036,-0.15743 0.28428,-0.35278 0.37177,-0.58603l0.99728,0.27989c-0.10494,0.33821 -0.28146,0.63557 -0.5293,0.89214c-0.24785,0.25375 -0.55393,0.45182 -0.91826,0.59473c-0.36458,0.14009 -0.77407,0.20987 -1.22897,0.20987zM356.6661,178.14565l-0.92724,0.26239c-0.05824,-0.15451 -0.14445,-0.30467 -0.25811,-0.45043c-0.11084,-0.14871 -0.26247,-0.27117 -0.4549,-0.36738c-0.19243,-0.09621 -0.43873,-0.14432 -0.73892,-0.14432c-0.41102,0 -0.7538,0.09477 -1.02782,0.28428c-0.27119,0.1866 -0.40666,0.42421 -0.40666,0.71285c0,0.25657 0.09339,0.45921 0.27992,0.60789c0.18652,0.14871 0.47799,0.2726 0.87464,0.37174l0.99703,0.2449c0.60063,0.14578 1.04808,0.36882 1.34263,0.66913c0.29454,0.29739 0.44181,0.68078 0.44181,1.15017c0,0.38485 -0.11084,0.72891 -0.33251,1.03205c-0.2186,0.30327 -0.52468,0.54239 -0.91826,0.71737c-0.39358,0.17498 -0.8513,0.26221 -1.37316,0.26221c-0.6853,0 -1.25232,-0.14856 -1.70131,-0.44592c-0.449,-0.29736 -0.73327,-0.73186 -0.85284,-1.30329l0.97958,-0.24492c0.09339,0.36153 0.26965,0.63268 0.5293,0.81345c0.26221,0.18083 0.60499,0.27114 1.02756,0.27114c0.48107,0 0.8631,-0.10212 1.14584,-0.30614c0.28582,-0.207 0.42873,-0.45482 0.42873,-0.74346c0,-0.23325 -0.08159,-0.4286 -0.24502,-0.58603c-0.16318,-0.16036 -0.41385,-0.27989 -0.75226,-0.35861l-1.11941,-0.26242c-0.61525,-0.14576 -1.06707,-0.37172 -1.35571,-0.67785c-0.28582,-0.30904 -0.42873,-0.69535 -0.42873,-1.15892c0,-0.37903 0.10648,-0.71431 0.31917,-1.00588c0.21578,-0.29157 0.50878,-0.52043 0.87926,-0.68661c0.37305,-0.16621 0.79588,-0.24928 1.26822,-0.24928c0.66477,0 1.18663,0.14578 1.56559,0.43732c0.38203,0.29157 0.65323,0.67642 0.81358,1.15456zM359.88143,182.13415l-0.07004,0.47227c-0.04952,0.33251 -0.12521,0.68812 -0.22732,1.06707c-0.09904,0.37921 -0.20269,0.73635 -0.31045,1.07143c-0.10802,0.33534 -0.19679,0.60217 -0.26683,0.8005h-0.78716c0.03797,-0.18678 0.08749,-0.43309 0.14855,-0.73918c0.06132,-0.30609 0.12264,-0.64861 0.1837,-1.02782c0.06414,-0.37613 0.11674,-0.76098 0.15753,-1.15456l0.0526,-0.48971zM125.13916,198.2397l-2.0467,-6.7175h1.08457l1.45195,5.14319h0.06999l1.43445,-5.14319h1.10207l1.41696,5.12548h0.06999l1.45195,-5.12548h1.08457l-2.0467,6.7175h-1.01463l-1.46945,-5.16063h-0.10494l-1.46945,5.16063zM134.65554,194.19873v4.04097h-1.0321v-8.95658h1.0321v3.28871h0.08749c0.15743,-0.34688 0.39358,-0.62244 0.70846,-0.82641c0.31781,-0.20705 0.74056,-0.31071 1.26827,-0.31071c0.45775,0 0.85864,0.09185 1.20267,0.27556c0.34403,0.18088 0.61081,0.45926 0.80032,0.83539c0.19243,0.37305 0.28864,0.84848 0.28864,1.42576v4.26829h-1.0321v-4.1985c0,-0.53341 -0.13849,-0.94597 -0.41546,-1.23769c-0.27407,-0.29428 -0.65456,-0.44156 -1.14145,-0.44156c-0.33821,0 -0.64142,0.07133 -0.90964,0.21424c-0.26532,0.14291 -0.47524,0.35124 -0.62977,0.62552c-0.15161,0.27402 -0.22742,0.60627 -0.22742,0.99703zM142.87633,198.39723c-0.42567,0 -0.81196,-0.08031 -1.15892,-0.24066c-0.34696,-0.16318 -0.62246,-0.39794 -0.82656,-0.70403c-0.2041,-0.30917 -0.30614,-0.68222 -0.30614,-1.11967c0,-0.38485 0.07582,-0.69684 0.22742,-0.93596c0.15161,-0.24194 0.35424,-0.43129 0.60789,-0.5683c0.25364,-0.13726 0.53354,-0.23912 0.83967,-0.30634c0.30906,-0.06979 0.61956,-0.12521 0.93153,-0.166c0.40818,-0.0526 0.7391,-0.09185 0.99274,-0.11828c0.25657,-0.02899 0.44317,-0.07723 0.55978,-0.14419c0.11956,-0.06696 0.17932,-0.1837 0.17932,-0.34996v-0.03489c0,-0.43155 -0.11807,-0.76688 -0.35424,-1.00601c-0.23325,-0.23887 -0.58747,-0.35843 -1.06271,-0.35843c-0.49274,0 -0.87906,0.10776 -1.15895,0.32353c-0.27989,0.21578 -0.47668,0.44617 -0.59039,0.69094l-0.97963,-0.3497c0.17493,-0.4082 0.40818,-0.72609 0.69974,-0.95341c0.29447,-0.2304 0.61518,-0.39076 0.96213,-0.48107c0.34986,-0.09339 0.69389,-0.14009 1.0321,-0.14009c0.21575,0 0.46357,0.02643 0.74346,0.07877c0.28282,0.04952 0.55542,0.15317 0.81779,0.31045c0.26529,0.15753 0.48543,0.39512 0.66041,0.71301c0.17498,0.31763 0.26247,0.74328 0.26247,1.27695v4.42582h-1.03218v-0.90954h-0.0526c-0.06986,0.14573 -0.18647,0.30172 -0.34975,0.46773c-0.16326,0.16626 -0.38047,0.30763 -0.65161,0.42437c-0.27117,0.11648 -0.60207,0.17498 -0.99277,0.17498zM143.03379,197.46999c0.40818,0 0.75221,-0.08005 1.0321,-0.24066c0.28282,-0.1601 0.49564,-0.36715 0.6385,-0.6209c0.14578,-0.25375 0.21867,-0.52032 0.21867,-0.80024v-0.94469c-0.04362,0.05234 -0.13993,0.10058 -0.28864,0.14419c-0.14578,0.04079 -0.31489,0.07749 -0.50731,0.10956c-0.1895,0.02899 -0.37464,0.05516 -0.5554,0.07851c-0.17785,0.02053 -0.32217,0.03797 -0.43296,0.0526c-0.26824,0.03489 -0.51899,0.09185 -0.75224,0.17062c-0.23032,0.07569 -0.41693,0.19089 -0.55978,0.34534c-0.13993,0.15163 -0.20993,0.35868 -0.20993,0.62115c0,0.35843 0.13267,0.62962 0.39799,0.81332c0.26822,0.18088 0.60789,0.27119 1.01899,0.27119zM150.76027,191.5222v0.87465h-3.48113v-0.87465zM148.29387,189.91274h1.03218v6.40269c0,0.29146 0.04208,0.51032 0.12675,0.65605c0.08749,0.14291 0.19833,0.23912 0.33226,0.28864c0.13701,0.0467 0.28146,0.07004 0.43309,0.07004c0.11366,0 0.20705,-0.0059 0.27992,-0.0177c0.07287,-0.01437 0.13111,-0.02617 0.17498,-0.03489l0.20987,0.92724c-0.07004,0.02617 -0.1678,0.05234 -0.293,0.07851c-0.12546,0.02925 -0.28428,0.04387 -0.47671,0.04387c-0.29172,0 -0.57728,-0.0626 -0.8572,-0.18806c-0.27709,-0.12546 -0.50724,-0.31635 -0.69094,-0.57292c-0.18088,-0.25657 -0.27119,-0.5801 -0.27119,-0.97086zM158.69801,191.5222v0.87465h-3.48113v-0.87465zM156.23135,189.91274h1.03218v6.40269c0,0.29146 0.04233,0.51032 0.12675,0.65605c0.08749,0.14291 0.19833,0.23912 0.33251,0.28864c0.13701,0.0467 0.2812,0.07004 0.43283,0.07004c0.11366,0 0.20705,-0.0059 0.27992,-0.0177c0.07287,-0.01437 0.13136,-0.02617 0.17498,-0.03489l0.20987,0.92724c-0.07004,0.02617 -0.16754,0.05234 -0.293,0.07851c-0.12521,0.02925 -0.28428,0.04387 -0.4767,0.04387c-0.29146,0 -0.57728,-0.0626 -0.8572,-0.18806c-0.27684,-0.12546 -0.50724,-0.31635 -0.69094,-0.57292c-0.18062,-0.25657 -0.2712,-0.5801 -0.2712,-0.97086zM160.91528,200.75869c-0.17498,0 -0.33097,-0.01463 -0.46798,-0.04362c-0.13701,-0.02643 -0.23168,-0.0526 -0.28428,-0.07877l0.26247,-0.90979c0.25067,0.06414 0.47234,0.08749 0.66477,0.07004c0.19243,-0.01745 0.36304,-0.1034 0.5116,-0.25811c0.15163,-0.15138 0.29018,-0.39794 0.41539,-0.73892l0.19243,-0.52494l-2.48385,-6.75239h1.11941l1.85448,5.35306h0.06979l1.85448,-5.35306h1.11941l-2.85125,7.69708c-0.12828,0.34688 -0.28736,0.63424 -0.47671,0.86156c-0.18961,0.2304 -0.40974,0.40102 -0.66041,0.5116c-0.24785,0.11084 -0.52776,0.16626 -0.83975,0.16626zM167.10578,200.75869v-9.23649h0.99703v1.06707h0.12238c0.07594,-0.11648 0.18088,-0.26529 0.31507,-0.44592c0.13701,-0.1837 0.33226,-0.34714 0.58601,-0.48979c0.25657,-0.14599 0.60345,-0.21885 1.0409,-0.21885c0.56548,0 1.06399,0.14137 1.49554,0.42437c0.43155,0.28274 0.76842,0.6835 1.01037,1.20254c0.24194,0.51904 0.36279,1.13121 0.36279,1.83678c0,0.71147 -0.12084,1.328 -0.36279,1.85012c-0.24194,0.51878 -0.57728,0.92108 -1.00601,1.2069c-0.42847,0.28274 -0.92262,0.42411 -1.48246,0.42411c-0.43155,0 -0.77715,-0.07133 -1.03654,-0.21424c-0.25939,-0.14573 -0.45926,-0.31045 -0.59909,-0.49415c-0.14009,-0.18652 -0.24785,-0.34098 -0.32379,-0.46362h-0.08723v3.55117zM168.12026,194.88095c0,0.50724 0.0744,0.95495 0.22322,1.34263c0.14855,0.38485 0.36587,0.68658 0.65143,0.90518c0.28582,0.21578 0.63578,0.32379 1.04962,0.32379c0.43155,0 0.79177,-0.11366 1.08041,-0.34124c0.29146,-0.23014 0.51006,-0.53931 0.65579,-0.92698c0.14881,-0.39076 0.22322,-0.82513 0.22322,-1.30337c0,-0.47234 -0.07287,-0.89799 -0.21885,-1.27695c-0.14265,-0.38203 -0.35997,-0.68376 -0.65143,-0.90543c-0.28864,-0.2245 -0.65169,-0.33662 -1.08914,-0.33662c-0.41975,0 -0.77253,0.10648 -1.05835,0.31917c-0.28556,0.20987 -0.50133,0.50442 -0.64707,0.88337c-0.14599,0.37613 -0.21885,0.81512 -0.21885,1.31646zM177.4268,198.37953c-0.64732,0 -1.20562,-0.14265 -1.67488,-0.42847c-0.4667,-0.28864 -0.82667,-0.69094 -1.08041,-1.20716c-0.25067,-0.51878 -0.37587,-1.12249 -0.37587,-1.81035c0,-0.68812 0.12521,-1.29465 0.37587,-1.81933c0.25375,-0.52776 0.60653,-0.93879 1.05835,-1.23333c0.4549,-0.29736 0.98548,-0.44617 1.59201,-0.44617c0.34996,0 0.6953,0.0585 1.03654,0.17498c0.34098,0.11674 0.65169,0.30609 0.93135,0.56856c0.27992,0.25939 0.50313,0.60345 0.66913,1.03218c0.16626,0.42847 0.24939,0.95623 0.24939,1.58303v0.43745h-5.17808v-0.89235h4.12846c0,-0.37895 -0.07569,-0.71711 -0.22732,-1.01447c-0.14881,-0.29736 -0.36151,-0.53212 -0.6386,-0.70403c-0.27402,-0.17216 -0.59755,-0.25811 -0.97086,-0.25811c-0.41102,0 -0.76688,0.10212 -1.06707,0.30609c-0.29736,0.20115 -0.52623,0.46362 -0.68658,0.78716c-0.16036,0.32379 -0.24066,0.67067 -0.24066,1.0409v0.59473c0,0.50749 0.08749,0.9375 0.26247,1.29029c0.1778,0.3497 0.42411,0.61654 0.73918,0.80024c0.31481,0.18088 0.68068,0.2712 1.0976,0.2712c0.27119,0 0.51596,-0.03797 0.73481,-0.11366c0.22142,-0.07877 0.41256,-0.1955 0.57292,-0.34996c0.16036,-0.15753 0.28428,-0.35278 0.37177,-0.58601l0.99703,0.27992c-0.10494,0.33816 -0.28146,0.63552 -0.5293,0.89209c-0.24759,0.25375 -0.55393,0.45182 -0.91826,0.59473c-0.36458,0.14009 -0.77407,0.20987 -1.22897,0.20987zM187.97103,198.37953c-0.60653,0 -1.13865,-0.14419 -1.59637,-0.43283c-0.4549,-0.28864 -0.8105,-0.69248 -1.06707,-1.21152c-0.25375,-0.51878 -0.38049,-1.12531 -0.38049,-1.81933c0,-0.69966 0.12675,-1.31056 0.38049,-1.83242c0.25657,-0.52186 0.61217,-0.92698 1.06707,-1.21562c0.45772,-0.28864 0.98984,-0.43309 1.59637,-0.43309c0.60627,0 1.13711,0.14445 1.59176,0.43309c0.45772,0.28864 0.81358,0.69376 1.06707,1.21562c0.25657,0.52186 0.38485,1.13275 0.38485,1.83242c0,0.69402 -0.12828,1.30055 -0.38485,1.81933c-0.25349,0.51904 -0.60935,0.92288 -1.06707,1.21152c-0.45464,0.28864 -0.98548,0.43283 -1.59176,0.43283zM187.97103,197.45254c0.46054,0 0.8395,-0.11802 1.13712,-0.35432c0.29736,-0.23604 0.5175,-0.54675 0.66015,-0.9316c0.14291,-0.38485 0.21449,-0.80178 0.21449,-1.25078c0,-0.449 -0.07158,-0.86721 -0.21449,-1.25514c-0.14265,-0.38768 -0.36279,-0.7012 -0.66015,-0.94007c-0.29762,-0.23912 -0.67657,-0.35868 -1.13712,-0.35868c-0.4608,0 -0.83975,0.11956 -1.13711,0.35868c-0.29736,0.23887 -0.5175,0.55239 -0.66041,0.94007c-0.14291,0.38793 -0.21424,0.80614 -0.21424,1.25514c0,0.449 0.07133,0.86592 0.21424,1.25078c0.14291,0.38485 0.36305,0.69556 0.66041,0.9316c0.29736,0.2363 0.67632,0.35432 1.13711,0.35432zM195.58164,191.5222v0.87465h-3.62122v-0.87465zM193.0452,198.2397v-7.64448c0,-0.38485 0.09031,-0.70557 0.27094,-0.96214c0.18088,-0.25657 0.41564,-0.449 0.70428,-0.57728c0.28864,-0.12828 0.59319,-0.19243 0.9139,-0.19243c0.25375,0 0.4608,0.02027 0.62115,0.06106c0.16036,0.04079 0.27992,0.07877 0.35843,0.11366l-0.29736,0.89235c-0.05234,-0.0177 -0.12521,-0.03951 -0.2186,-0.06568c-0.09031,-0.02617 -0.20987,-0.03926 -0.35868,-0.03926c-0.34098,0 -0.58729,0.08595 -0.73892,0.25785c-0.14881,0.17216 -0.22322,0.42437 -0.22322,0.75662v7.39971zM203.41316,191.5222v0.87465h-3.48113v-0.87465zM200.94676,189.91274h1.03192v6.40269c0,0.29146 0.04233,0.51032 0.127,0.65605c0.08749,0.14291 0.19807,0.23912 0.33226,0.28864c0.13701,0.0467 0.28146,0.07004 0.43309,0.07004c0.11366,0 0.2068,-0.0059 0.27966,-0.0177c0.07312,-0.01437 0.13136,-0.02617 0.17498,-0.03489l0.20987,0.92724c-0.06979,0.02617 -0.16754,0.05234 -0.293,0.07851c-0.12521,0.02925 -0.28428,0.04387 -0.47671,0.04387c-0.29146,0 -0.57728,-0.0626 -0.85694,-0.18806c-0.27709,-0.12546 -0.50749,-0.31635 -0.6912,-0.57292c-0.18062,-0.25657 -0.27094,-0.5801 -0.27094,-0.97086zM204.96566,198.2397v-6.7175h0.99728v1.01473h0.06979c0.12264,-0.33251 0.34406,-0.60217 0.66477,-0.80922c0.32071,-0.20705 0.68222,-0.31045 1.08477,-0.31045c0.07569,0 0.17036,0.00154 0.28428,0.00436c0.11366,0.00282 0.19961,0.00744 0.25785,0.01308v1.04963c-0.03489,-0.00872 -0.1152,-0.02181 -0.24041,-0.03926c-0.12264,-0.02053 -0.25221,-0.03079 -0.38922,-0.03079c-0.32661,0 -0.61807,0.0685 -0.87464,0.20577c-0.25375,0.13393 -0.4549,0.32071 -0.60371,0.55958c-0.14573,0.2363 -0.2186,0.50595 -0.2186,0.80922v4.25084zM209.54799,198.2397v-6.7175h1.03192v6.7175zM210.07267,190.40279c-0.20115,0 -0.37459,-0.0685 -0.52032,-0.20577c-0.14291,-0.13701 -0.21423,-0.30172 -0.21423,-0.49415c0,-0.19243 0.07133,-0.35715 0.21423,-0.49415c0.14573,-0.13701 0.31917,-0.20551 0.52032,-0.20551c0.20115,0 0.37331,0.0685 0.51622,0.20551c0.14573,0.13701 0.2186,0.30173 0.2186,0.49415c0,0.19243 -0.07287,0.35714 -0.2186,0.49415c-0.14291,0.13726 -0.31507,0.20577 -0.51622,0.20577zM214.44718,198.39723c-0.42565,0 -0.81204,-0.08031 -1.15892,-0.24066c-0.34688,-0.16318 -0.62244,-0.39794 -0.82667,-0.70403c-0.20397,-0.30917 -0.30609,-0.68222 -0.30609,-1.11967c0,-0.38485 0.07594,-0.69684 0.22732,-0.93596c0.15163,-0.24194 0.35432,-0.43129 0.60807,-0.5683c0.25349,-0.13726 0.53341,-0.23912 0.83949,-0.30634c0.30917,-0.06979 0.61962,-0.12521 0.9316,-0.166c0.4082,-0.0526 0.73918,-0.09185 0.99267,-0.11828c0.25657,-0.02899 0.44335,-0.07723 0.55983,-0.14419c0.11956,-0.06696 0.17934,-0.1837 0.17934,-0.34996v-0.03489c0,-0.43155 -0.11802,-0.76688 -0.35432,-1.00601c-0.23322,-0.23887 -0.58729,-0.35843 -1.06271,-0.35843c-0.49261,0 -0.87901,0.10776 -1.15892,0.32353c-0.27992,0.21578 -0.4767,0.44617 -0.59036,0.69094l-0.97958,-0.3497c0.17498,-0.4082 0.4082,-0.72609 0.69966,-0.95341c0.29454,-0.2304 0.61525,-0.39076 0.96214,-0.48107c0.34996,-0.09339 0.69402,-0.14009 1.03218,-0.14009c0.21578,0 0.46362,0.02643 0.74354,0.07877c0.28274,0.04952 0.55547,0.15317 0.81769,0.31045c0.26529,0.15753 0.48543,0.39512 0.66041,0.71301c0.17498,0.31763 0.26247,0.74328 0.26247,1.27695v4.42582h-1.03218v-0.90954h-0.05234c-0.07004,0.14573 -0.18678,0.30172 -0.34996,0.46773c-0.16318,0.16626 -0.38049,0.30763 -0.65169,0.42437c-0.27119,0.11648 -0.60191,0.17498 -0.99267,0.17498zM214.60446,197.46999c0.4082,0 0.75226,-0.08005 1.03218,-0.24066c0.283,-0.1601 0.49569,-0.36715 0.6386,-0.6209c0.14573,-0.25375 0.2186,-0.52032 0.2186,-0.80024v-0.94469c-0.04362,0.05234 -0.13983,0.10058 -0.28864,0.14419c-0.14573,0.04079 -0.31481,0.07749 -0.50724,0.10956c-0.18961,0.02899 -0.37459,0.05516 -0.55547,0.07851c-0.1778,0.02053 -0.32225,0.03797 -0.43283,0.0526c-0.26837,0.03489 -0.51904,0.09185 -0.75226,0.17062c-0.2304,0.07569 -0.41693,0.19089 -0.55983,0.34534c-0.13983,0.15163 -0.20987,0.35868 -0.20987,0.62115c0,0.35843 0.13265,0.62962 0.39794,0.81332c0.26811,0.18088 0.60781,0.27119 1.01884,0.27119zM220.44192,194.19873v4.04097h-1.03218v-6.7175h0.99728v1.04963h0.08723c0.15753,-0.34098 0.39665,-0.61525 0.71737,-0.82205c0.32071,-0.21013 0.73482,-0.31507 1.24205,-0.31507c0.4549,0 0.85284,0.09339 1.19382,0.27992c0.34124,0.1837 0.60653,0.46362 0.79613,0.83975c0.18935,0.37305 0.28402,0.8454 0.28402,1.41703v4.26829h-1.03192v-4.1985c0,-0.52751 -0.13701,-0.93879 -0.41128,-1.23307c-0.27402,-0.29762 -0.65015,-0.44617 -1.12813,-0.44617c-0.32944,0 -0.62398,0.07133 -0.88337,0.21424c-0.25657,0.14291 -0.45926,0.35124 -0.60807,0.62552c-0.14855,0.27402 -0.22296,0.60627 -0.22296,0.99703zM229.32538,200.89878c-0.49877,0 -0.92724,-0.06414 -1.28593,-0.19243c-0.35868,-0.12546 -0.65733,-0.29172 -0.89645,-0.49877c-0.2363,-0.20397 -0.42437,-0.42257 -0.56419,-0.65579l0.8223,-0.57728c0.09313,0.12238 0.21116,0.26221 0.35407,0.41975c0.14291,0.16036 0.33816,0.2989 0.58601,0.41538c0.25092,0.11956 0.57882,0.17934 0.9842,0.17934c0.54213,0 0.98959,-0.13111 1.34237,-0.39358c0.35278,-0.26247 0.5293,-0.6735 0.5293,-1.23333v-1.36444h-0.08749c-0.07569,0.12238 -0.1837,0.27402 -0.32353,0.4549c-0.13701,0.1778 -0.33534,0.33662 -0.59498,0.4767c-0.25657,0.13701 -0.60345,0.20551 -1.04064,0.20551c-0.54239,0 -1.02936,-0.12828 -1.46091,-0.38485c-0.42847,-0.25657 -0.76817,-0.62988 -1.01884,-1.11967c-0.24785,-0.48979 -0.37177,-1.08452 -0.37177,-1.78418c0,-0.68812 0.1211,-1.28721 0.36304,-1.79753c0.24194,-0.51314 0.57882,-0.90954 1.01011,-1.18946c0.43155,-0.283 0.93006,-0.42437 1.4958,-0.42437c0.43719,0 0.78433,0.07287 1.0409,0.21885c0.25939,0.14265 0.45772,0.30609 0.59473,0.48979c0.13983,0.18062 0.24785,0.32944 0.32353,0.44592h0.10494v-1.06707h0.99728v6.90992c0,0.57728 -0.13136,1.0468 -0.39358,1.40831c-0.25965,0.36433 -0.60935,0.63116 -1.04963,0.80024c-0.43745,0.1719 -0.92442,0.25811 -1.46065,0.25811zM229.29023,197.20752c0.4141,0 0.76381,-0.09467 1.04962,-0.28428c0.28582,-0.18935 0.50288,-0.46208 0.65169,-0.81769c0.14855,-0.35586 0.22296,-0.78151 0.22296,-1.27695c0,-0.48415 -0.07287,-0.91133 -0.2186,-1.28156c-0.14573,-0.37023 -0.36151,-0.66041 -0.64733,-0.87028c-0.28556,-0.20987 -0.63834,-0.31481 -1.05835,-0.31481c-0.43719,0 -0.80178,0.11084 -1.09324,0.33226c-0.28864,0.22168 -0.50595,0.51904 -0.65169,0.89235c-0.14291,0.37305 -0.21424,0.78715 -0.21424,1.24205c0,0.46644 0.07287,0.87901 0.2186,1.23743c0.14881,0.35586 0.36741,0.63578 0.65605,0.83975c0.29146,0.20115 0.65297,0.30173 1.08452,0.30173zM235.15053,189.28312v8.95658h-1.03218v-8.95658zM239.85729,198.37953c-0.64732,0 -1.20562,-0.14265 -1.67488,-0.42847c-0.46644,-0.28864 -0.82666,-0.69094 -1.08015,-1.20716c-0.25092,-0.51878 -0.37613,-1.12249 -0.37613,-1.81035c0,-0.68812 0.12521,-1.29465 0.37613,-1.81933c0.25349,-0.52776 0.60627,-0.93879 1.05835,-1.23333c0.45464,-0.29736 0.98523,-0.44617 1.59176,-0.44617c0.34996,0 0.6953,0.0585 1.03654,0.17498c0.34098,0.11674 0.65169,0.30609 0.9316,0.56856c0.27966,0.25939 0.50288,0.60345 0.66913,1.03218c0.166,0.42847 0.24913,0.95623 0.24913,1.58303v0.43745h-5.17808v-0.89235h4.12846c0,-0.37895 -0.07569,-0.71711 -0.22732,-1.01447c-0.14881,-0.29736 -0.36151,-0.53212 -0.6386,-0.70403c-0.27402,-0.17216 -0.59755,-0.25811 -0.97086,-0.25811c-0.41102,0 -0.76689,0.10212 -1.06707,0.30609c-0.29736,0.20115 -0.52622,0.46362 -0.68658,0.78716c-0.16036,0.32379 -0.24066,0.67067 -0.24066,1.0409v0.59473c0,0.50749 0.08749,0.9375 0.26247,1.29029c0.1778,0.3497 0.42437,0.61654 0.73918,0.80024c0.31481,0.18088 0.68068,0.2712 1.0976,0.2712c0.27119,0 0.51622,-0.03797 0.73482,-0.11366c0.22142,-0.07877 0.41256,-0.1955 0.57292,-0.34996c0.16036,-0.15753 0.28428,-0.35278 0.37177,-0.58601l0.99703,0.27992c-0.10494,0.33816 -0.28146,0.63552 -0.52905,0.89209c-0.24785,0.25375 -0.55419,0.45182 -0.91852,0.59473c-0.36433,0.14009 -0.77407,0.20987 -1.22897,0.20987zM247.67239,198.2397v-6.7175h1.03218v6.7175zM248.19733,190.40279c-0.20115,0 -0.37459,-0.0685 -0.52058,-0.20577c-0.14265,-0.13701 -0.21424,-0.30172 -0.21424,-0.49415c0,-0.19243 0.07158,-0.35715 0.21424,-0.49415c0.14599,-0.13701 0.31943,-0.20551 0.52058,-0.20551c0.20115,0 0.37305,0.0685 0.51596,0.20551c0.14573,0.13701 0.21885,0.30173 0.21885,0.49415c0,0.19243 -0.07312,0.35714 -0.21885,0.49415c-0.14291,0.13726 -0.31481,0.20577 -0.51596,0.20577zM255.3533,193.02672l-0.92724,0.26247c-0.05824,-0.15471 -0.14445,-0.3048 -0.25811,-0.45054c-0.11084,-0.14881 -0.26247,-0.2712 -0.4549,-0.36741c-0.19243,-0.09621 -0.43873,-0.14419 -0.73892,-0.14419c-0.41102,0 -0.7538,0.09468 -1.02782,0.28402c-0.27119,0.18678 -0.40666,0.42437 -0.40666,0.71301c0,0.25657 0.09339,0.45926 0.27992,0.60781c0.18652,0.14881 0.47799,0.27273 0.87465,0.37177l0.99703,0.24502c0.60063,0.14573 1.04809,0.36869 1.34263,0.66913c0.29454,0.29736 0.44181,0.68068 0.44181,1.1502c0,0.38485 -0.11084,0.72866 -0.33251,1.03192c-0.2186,0.30327 -0.52468,0.54239 -0.91826,0.71737c-0.39358,0.17498 -0.8513,0.26221 -1.37316,0.26221c-0.6853,0 -1.25232,-0.14856 -1.70131,-0.44592c-0.449,-0.29736 -0.73328,-0.73174 -0.85284,-1.30337l0.97958,-0.24477c0.09339,0.36151 0.26965,0.6327 0.5293,0.81332c0.26221,0.18088 0.60499,0.27119 1.02756,0.27119c0.48107,0 0.8631,-0.10211 1.14584,-0.30609c0.28582,-0.20705 0.42873,-0.4549 0.42873,-0.74354c0,-0.23322 -0.08159,-0.42847 -0.24502,-0.58601c-0.16318,-0.16036 -0.41385,-0.27992 -0.75226,-0.35868l-1.11941,-0.26221c-0.61525,-0.14599 -1.06707,-0.37177 -1.35571,-0.67811c-0.28582,-0.30891 -0.42873,-0.6953 -0.42873,-1.15892c0,-0.37895 0.10648,-0.71429 0.31917,-1.00575c0.21578,-0.29146 0.50878,-0.52032 0.87926,-0.68658c0.37305,-0.16626 0.79588,-0.24938 1.26822,-0.24938c0.66477,0 1.18663,0.14573 1.56559,0.43745c0.38203,0.29146 0.65322,0.67632 0.81358,1.15456zM260.4929,198.2397v-6.7175h1.03218v6.7175zM261.01784,190.40279c-0.20115,0 -0.37485,-0.0685 -0.52058,-0.20577c-0.14291,-0.13701 -0.21424,-0.30172 -0.21424,-0.49415c0,-0.19243 0.07133,-0.35715 0.21424,-0.49415c0.14573,-0.13701 0.31943,-0.20551 0.52058,-0.20551c0.20115,0 0.37305,0.0685 0.51596,0.20551c0.14573,0.13701 0.2186,0.30173 0.2186,0.49415c0,0.19243 -0.07287,0.35714 -0.2186,0.49415c-0.14291,0.13726 -0.31481,0.20577 -0.51596,0.20577zM266.33678,191.5222v0.87465h-3.48113v-0.87465zM263.87038,189.91274h1.03192v6.40269c0,0.29146 0.04233,0.51032 0.127,0.65605c0.08749,0.14291 0.19807,0.23912 0.33226,0.28864c0.13701,0.0467 0.28146,0.07004 0.43309,0.07004c0.11366,0 0.2068,-0.0059 0.27966,-0.0177c0.07312,-0.01437 0.13136,-0.02617 0.17498,-0.03489l0.20987,0.92724c-0.06979,0.02617 -0.16754,0.05234 -0.293,0.07851c-0.12521,0.02925 -0.28428,0.04387 -0.47671,0.04387c-0.29146,0 -0.57728,-0.0626 -0.85694,-0.18806c-0.27709,-0.12546 -0.50749,-0.31635 -0.6912,-0.57292c-0.18062,-0.25657 -0.27094,-0.5801 -0.27094,-0.97086zM269.23627,195.7207v-0.0526c0.0059,-0.55675 0.06414,-0.99985 0.17498,-1.32954c0.11084,-0.32944 0.26837,-0.59601 0.47234,-0.80024c0.20397,-0.20397 0.449,-0.39204 0.73481,-0.56419c0.1719,-0.10494 0.32636,-0.22886 0.46362,-0.37177c0.13701,-0.14573 0.24477,-0.31327 0.32353,-0.50288c0.08159,-0.18935 0.12238,-0.39948 0.12238,-0.62962c0,-0.28582 -0.06696,-0.53366 -0.20115,-0.74354c-0.13419,-0.20987 -0.31353,-0.37177 -0.53803,-0.48543c-0.2245,-0.11366 -0.47363,-0.17062 -0.74764,-0.17062c-0.23912,0 -0.46952,0.04952 -0.69094,0.14881c-0.22168,0.09904 -0.40692,0.25503 -0.55547,0.46773c-0.14881,0.21295 -0.23476,0.49133 -0.25811,0.83539h-1.10197c0.02309,-0.49569 0.15138,-0.9198 0.38485,-1.27258c0.23604,-0.35278 0.54649,-0.62244 0.93135,-0.80896c0.38793,-0.18678 0.81794,-0.27992 1.29029,-0.27992c0.51314,0 0.95906,0.10186 1.33827,0.30609c0.38177,0.20397 0.67632,0.48389 0.88337,0.83975c0.20987,0.3556 0.31481,0.76073 0.31481,1.21562c0,0.32071 -0.04952,0.61089 -0.14855,0.87028c-0.09647,0.25965 -0.2363,0.49133 -0.42,0.6953c-0.18062,0.20423 -0.39948,0.38485 -0.65605,0.54239c-0.25657,0.16036 -0.46208,0.32944 -0.61654,0.50724c-0.15445,0.17498 -0.26683,0.38357 -0.33688,0.62552c-0.06979,0.24194 -0.10776,0.54367 -0.11366,0.90518v0.0526zM269.7961,198.30974c-0.21578,0 -0.40076,-0.07723 -0.55547,-0.23194c-0.15445,-0.15445 -0.23168,-0.3397 -0.23168,-0.55522c0,-0.21578 0.07723,-0.40102 0.23168,-0.55547c0.15471,-0.15471 0.3397,-0.23194 0.55547,-0.23194c0.21578,0 0.40102,0.07723 0.55547,0.23194c0.15445,0.15445 0.23168,0.3397 0.23168,0.55547c0,0.14265 -0.03643,0.27402 -0.1093,0.39358c-0.07004,0.11956 -0.16472,0.21578 -0.28428,0.28864c-0.11648,0.06979 -0.24785,0.10494 -0.39358,0.10494z"/></g></g></svg>