<svg xmlns="http://www.w3.org/2000/svg" fill="none" viewBox="0 0 139 164" height="164" width="139">
<path fill="#EEC638" d="M0 20C0 8.95431 8.95431 0 20 0H119C130.046 0 139 8.95431 139 20V144C139 155.046 130.046 164 119 164H20C8.95431 164 0 155.046 0 144V20Z"></path>
<path fill="black" d="M36.2102 135.455V150H34.5341V135.455H36.2102ZM43.854 150.227C42.8029 150.227 41.8962 149.995 41.1339 149.531C40.3763 149.062 39.7915 148.409 39.3796 147.571C38.9724 146.728 38.7688 145.748 38.7688 144.631C38.7688 143.513 38.9724 142.528 39.3796 141.676C39.7915 140.819 40.3645 140.152 41.0984 139.673C41.837 139.19 42.6987 138.949 43.6836 138.949C44.2518 138.949 44.8129 139.044 45.3668 139.233C45.9208 139.422 46.4251 139.73 46.8796 140.156C47.3342 140.578 47.6964 141.136 47.9663 141.832C48.2362 142.528 48.3711 143.385 48.3711 144.403V145.114H39.962V143.665H46.6665C46.6665 143.049 46.5434 142.5 46.2972 142.017C46.0558 141.534 45.7101 141.153 45.2603 140.874C44.8152 140.594 44.2897 140.455 43.6836 140.455C43.016 140.455 42.4383 140.62 41.9506 140.952C41.4677 141.278 41.096 141.705 40.8356 142.23C40.5752 142.756 40.445 143.319 40.445 143.92V144.886C40.445 145.71 40.587 146.409 40.8711 146.982C41.1599 147.55 41.56 147.983 42.0714 148.281C42.5827 148.575 43.177 148.722 43.854 148.722C44.2944 148.722 44.6921 148.66 45.0472 148.537C45.4071 148.409 45.7172 148.22 45.9776 147.969C46.238 147.713 46.4393 147.396 46.5813 147.017L48.2006 147.472C48.0302 148.021 47.7437 148.504 47.3413 148.92C46.9388 149.332 46.4416 149.654 45.8498 149.886C45.2579 150.114 44.5927 150.227 43.854 150.227ZM55.6651 139.091V140.511H50.0117V139.091H55.6651ZM51.6594 136.477H53.3356V146.875C53.3356 147.348 53.4042 147.704 53.5415 147.94C53.6836 148.172 53.8635 148.329 54.0813 148.409C54.3039 148.485 54.5382 148.523 54.7844 148.523C54.9691 148.523 55.1206 148.513 55.239 148.494C55.3574 148.471 55.4521 148.452 55.5231 148.438L55.864 149.943C55.7504 149.986 55.5917 150.028 55.3881 150.071C55.1845 150.118 54.9265 150.142 54.614 150.142C54.1405 150.142 53.6765 150.04 53.2219 149.837C52.7721 149.633 52.3981 149.323 52.0998 148.906C51.8062 148.49 51.6594 147.964 51.6594 147.33V136.477ZM62.9308 139.091V140.511H57.2773V139.091H62.9308ZM58.9251 136.477H60.6012V146.875C60.6012 147.348 60.6699 147.704 60.8072 147.94C60.9492 148.172 61.1291 148.329 61.3469 148.409C61.5695 148.485 61.8039 148.523 62.0501 148.523C62.2347 148.523 62.3862 148.513 62.5046 148.494C62.623 148.471 62.7177 148.452 62.7887 148.438L63.1296 149.943C63.016 149.986 62.8574 150.028 62.6538 150.071C62.4502 150.118 62.1921 150.142 61.8796 150.142C61.4061 150.142 60.9421 150.04 60.4876 149.837C60.0378 149.633 59.6637 149.323 59.3654 148.906C59.0719 148.49 58.9251 147.964 58.9251 147.33V136.477ZM69.9087 150.227C68.8576 150.227 67.9509 149.995 67.1886 149.531C66.431 149.062 65.8462 148.409 65.4343 147.571C65.0271 146.728 64.8235 145.748 64.8235 144.631C64.8235 143.513 65.0271 142.528 65.4343 141.676C65.8462 140.819 66.4192 140.152 67.1531 139.673C67.8917 139.19 68.7534 138.949 69.7383 138.949C70.3065 138.949 70.8675 139.044 71.4215 139.233C71.9755 139.422 72.4798 139.73 72.9343 140.156C73.3888 140.578 73.7511 141.136 74.021 141.832C74.2908 142.528 74.4258 143.385 74.4258 144.403V145.114H66.0167V143.665H72.7212C72.7212 143.049 72.5981 142.5 72.3519 142.017C72.1104 141.534 71.7648 141.153 71.315 140.874C70.8699 140.594 70.3443 140.455 69.7383 140.455C69.0707 140.455 68.493 140.62 68.0053 140.952C67.5224 141.278 67.1507 141.705 66.8903 142.23C66.6299 142.756 66.4996 143.319 66.4996 143.92V144.886C66.4996 145.71 66.6417 146.409 66.9258 146.982C67.2146 147.55 67.6147 147.983 68.1261 148.281C68.6374 148.575 69.2317 148.722 69.9087 148.722C70.3491 148.722 70.7468 148.66 71.1019 148.537C71.4618 148.409 71.7719 148.22 72.0323 147.969C72.2927 147.713 72.494 147.396 72.636 147.017L74.2553 147.472C74.0849 148.021 73.7984 148.504 73.396 148.92C72.9935 149.332 72.4963 149.654 71.9045 149.886C71.3126 150.114 70.6474 150.227 69.9087 150.227ZM76.9755 150V139.091H78.5948V140.739H78.7085C78.9073 140.199 79.2672 139.761 79.788 139.425C80.3088 139.089 80.896 138.92 81.5494 138.92C81.6725 138.92 81.8263 138.923 82.011 138.928C82.1957 138.932 82.3353 138.939 82.43 138.949V140.653C82.3732 140.639 82.243 140.618 82.0394 140.589C81.8406 140.556 81.6299 140.54 81.4073 140.54C80.877 140.54 80.4035 140.651 79.9869 140.874C79.5749 141.091 79.2482 141.394 79.0067 141.783C78.77 142.166 78.6516 142.604 78.6516 143.097V150H76.9755ZM90.8658 150H89.0192L94.3601 135.455H96.1783L101.519 150H99.6726L95.326 137.756H95.2124L90.8658 150ZM91.5476 144.318H98.9908V145.881H91.5476V144.318Z"></path>
<path fill="black" d="M56.7399 58.6364C56.612 57.5568 56.0936 56.7188 55.1845 56.1222C54.2754 55.5256 53.1603 55.2273 51.8393 55.2273C50.8734 55.2273 50.0282 55.3835 49.3038 55.696C48.5865 56.0085 48.0254 56.4382 47.6206 56.9851C47.2228 57.532 47.024 58.1534 47.024 58.8494C47.024 59.4318 47.1625 59.9325 47.4395 60.3516C47.7235 60.7635 48.0858 61.108 48.5261 61.3849C48.9664 61.6548 49.4281 61.8786 49.911 62.0561C50.394 62.2266 50.8379 62.3651 51.2427 62.4716L53.4586 63.0682C54.0268 63.2173 54.6589 63.4233 55.3549 63.6861C56.0581 63.9489 56.7292 64.3075 57.3684 64.7621C58.0147 65.2095 58.5474 65.7848 58.9664 66.4879C59.3855 67.1911 59.595 68.054 59.595 69.0767C59.595 70.2557 59.286 71.321 58.6681 72.2727C58.0574 73.2244 57.1625 73.9808 55.9835 74.5419C54.8116 75.103 53.3876 75.3835 51.7115 75.3835C50.149 75.3835 48.796 75.1314 47.6525 74.6271C46.5162 74.1229 45.6213 73.4197 44.9679 72.5178C44.3216 71.6158 43.9558 70.5682 43.8706 69.375H46.5978C46.6689 70.1989 46.9458 70.8807 47.4288 71.4205C47.9189 71.9531 48.5368 72.3509 49.2825 72.6136C50.0353 72.8693 50.845 72.9972 51.7115 72.9972C52.72 72.9972 53.6255 72.8338 54.4281 72.5071C55.2306 72.1733 55.8663 71.7116 56.3351 71.1222C56.8038 70.5256 57.0382 69.8295 57.0382 69.0341C57.0382 68.3097 56.8358 67.7202 56.4309 67.2656C56.0261 66.8111 55.4934 66.4418 54.8329 66.1577C54.1724 65.8736 53.4586 65.625 52.6916 65.4119L50.0069 64.6449C48.3024 64.1548 46.9529 63.4553 45.9586 62.5462C44.9643 61.6371 44.4672 60.4474 44.4672 58.9773C44.4672 57.7557 44.7974 56.6903 45.4579 55.7812C46.1255 54.8651 47.0204 54.1548 48.1426 53.6506C49.2718 53.1392 50.5325 52.8835 51.9245 52.8835C53.3308 52.8835 54.5808 53.1357 55.6745 53.6399C56.7683 54.1371 57.6348 54.8189 58.274 55.6854C58.9203 56.5518 59.2612 57.5355 59.2967 58.6364H56.7399ZM68.4134 75.3835C67.3764 75.3835 66.4354 75.1882 65.5902 74.7976C64.745 74.3999 64.0739 73.8281 63.5767 73.0824C63.0795 72.3295 62.831 71.4205 62.831 70.3551C62.831 69.4176 63.0156 68.6577 63.3849 68.0753C63.7543 67.4858 64.2479 67.0241 64.8658 66.6903C65.4837 66.3565 66.1655 66.108 66.9112 65.9446C67.6641 65.7741 68.4205 65.6392 69.1804 65.5398C70.1747 65.4119 70.9808 65.3161 71.5987 65.2521C72.2237 65.1811 72.6783 65.0639 72.9624 64.9006C73.2536 64.7372 73.3991 64.4531 73.3991 64.0483V63.9631C73.3991 62.9119 73.1115 62.0952 72.5362 61.5128C71.968 60.9304 71.1051 60.6392 69.9474 60.6392C68.7472 60.6392 67.8061 60.902 67.1243 61.4276C66.4425 61.9531 65.9631 62.5142 65.6861 63.1108L63.2997 62.2585C63.7259 61.2642 64.294 60.4901 65.0043 59.9361C65.7216 59.375 66.5028 58.9844 67.348 58.7642C68.2003 58.5369 69.0384 58.4233 69.8622 58.4233C70.3878 58.4233 70.9915 58.4872 71.6733 58.6151C72.3622 58.7358 73.0263 58.9879 73.6655 59.3714C74.3118 59.755 74.848 60.3338 75.2741 61.108C75.7003 61.8821 75.9134 62.919 75.9134 64.2188V75H73.3991V72.7841H73.2713C73.1009 73.1392 72.8168 73.5192 72.419 73.924C72.0213 74.3288 71.4922 74.6733 70.8317 74.9574C70.1712 75.2415 69.3651 75.3835 68.4134 75.3835ZM68.7969 73.125C69.7912 73.125 70.6293 72.9297 71.3111 72.5391C72 72.1484 72.5185 71.6442 72.8665 71.0263C73.2216 70.4084 73.3991 69.7585 73.3991 69.0767V66.7756C73.2926 66.9034 73.0582 67.0206 72.696 67.1271C72.3409 67.2266 71.929 67.3153 71.4602 67.3935C70.9986 67.4645 70.5476 67.5284 70.1072 67.5852C69.674 67.6349 69.3224 67.6776 69.0526 67.7131C68.3991 67.7983 67.7884 67.9368 67.2202 68.1286C66.6591 68.3132 66.2045 68.5937 65.8565 68.9702C65.5156 69.3395 65.3452 69.8437 65.3452 70.483C65.3452 71.3565 65.6683 72.017 66.3146 72.4645C66.968 72.9048 67.7955 73.125 68.7969 73.125ZM86.6813 75.3409C85.3176 75.3409 84.1138 74.9964 83.0698 74.3075C82.0257 73.6115 81.209 72.6314 80.6195 71.3672C80.03 70.0959 79.7353 68.5938 79.7353 66.8608C79.7353 65.142 80.03 63.6506 80.6195 62.3864C81.209 61.1222 82.0293 60.1456 83.0804 59.4567C84.1316 58.7678 85.3461 58.4233 86.7239 58.4233C87.7892 58.4233 88.6309 58.6009 89.2488 58.956C89.8738 59.304 90.3496 59.7017 90.6763 60.1491C91.0101 60.5895 91.2694 60.9517 91.454 61.2358H91.6671V53.1818H94.1813V75H91.7523V72.4858H91.454C91.2694 72.7841 91.0066 73.1605 90.6657 73.6151C90.3248 74.0625 89.8382 74.4638 89.2061 74.8189C88.574 75.1669 87.7324 75.3409 86.6813 75.3409ZM87.0222 73.0824C88.0307 73.0824 88.883 72.8196 89.579 72.294C90.275 71.7614 90.8042 71.0263 91.1664 70.0888C91.5286 69.1442 91.7097 68.054 91.7097 66.8182C91.7097 65.5966 91.5321 64.5277 91.177 63.6115C90.8219 62.6882 90.2963 61.9709 89.6003 61.4595C88.9043 60.9411 88.0449 60.6818 87.0222 60.6818C85.9569 60.6818 85.0691 60.9553 84.3588 61.5021C83.6557 62.0419 83.1266 62.777 82.7715 63.7074C82.4235 64.6307 82.2495 65.6676 82.2495 66.8182C82.2495 67.983 82.427 69.0412 82.7821 69.9929C83.1444 70.9375 83.677 71.6903 84.3801 72.2514C85.0904 72.8054 85.9711 73.0824 87.0222 73.0824Z"></path>
</svg>
