<svg version="1.1" xmlns="http://www.w3.org/2000/svg" xmlns:xlink="http://www.w3.org/1999/xlink" width="139" height="164" viewBox="0,0,139,164"><g transform="translate(-170.5,-98)"><g data-paper-data="{&quot;isPaintingLayer&quot;:true}" fill-rule="nonzero" stroke="none" stroke-width="1" stroke-linecap="butt" stroke-linejoin="miter" stroke-miterlimit="10" stroke-dasharray="" stroke-dashoffset="0" style="mix-blend-mode: normal"><path d="M170.5,118c0,-11.04569 8.9543,-20 20,-20h99c11.046,0 20,8.95431 20,20v124c0,11.046 -8.954,20 -20,20h-99c-11.0457,0 -20,-8.954 -20,-20z" fill="#ee6338"/><path d="M206.7102,228.455v14.545h-1.6761v-14.545zM214.354,243.227c-1.0511,0 -1.9578,-0.232 -2.7201,-0.696c-0.7576,-0.469 -1.3424,-1.122 -1.7543,-1.96c-0.4072,-0.843 -0.6108,-1.823 -0.6108,-2.94c0,-1.118 0.2036,-2.103 0.6108,-2.955c0.4119,-0.857 0.9849,-1.524 1.7188,-2.003c0.7386,-0.483 1.6003,-0.724 2.5852,-0.724c0.5682,0 1.1293,0.095 1.6832,0.284c0.554,0.189 1.0583,0.497 1.5128,0.923c0.4546,0.422 0.8168,0.98 1.0867,1.676c0.2699,0.696 0.4048,1.553 0.4048,2.571v0.711h-8.4091v-1.449h6.7045c0,-0.616 -0.1231,-1.165 -0.3693,-1.648c-0.2414,-0.483 -0.5871,-0.864 -1.0369,-1.143c-0.4451,-0.28 -0.9706,-0.419 -1.5767,-0.419c-0.6676,0 -1.2453,0.165 -1.733,0.497c-0.4829,0.326 -0.8546,0.753 -1.115,1.278c-0.2604,0.526 -0.3906,1.089 -0.3906,1.69v0.966c0,0.824 0.142,1.523 0.4261,2.096c0.2888,0.568 0.6889,1.001 1.2003,1.299c0.5113,0.294 1.1056,0.441 1.7826,0.441c0.4404,0 0.8381,-0.062 1.1932,-0.185c0.3599,-0.128 0.67,-0.317 0.9304,-0.568c0.2604,-0.256 0.4617,-0.573 0.6037,-0.952l1.6193,0.455c-0.1704,0.549 -0.4569,1.032 -0.8593,1.448c-0.4025,0.412 -0.8997,0.734 -1.4915,0.966c-0.5919,0.228 -1.2571,0.341 -1.9958,0.341zM226.1651,232.091v1.42h-5.6534v-1.42zM222.1594,229.477h1.6762v10.398c0,0.473 0.0686,0.829 0.2059,1.065c0.1421,0.232 0.322,0.389 0.5398,0.469c0.2226,0.076 0.4569,0.114 0.7031,0.114c0.1847,0 0.3362,-0.01 0.4546,-0.029c0.1184,-0.023 0.2131,-0.042 0.2841,-0.056l0.3409,1.505c-0.1136,0.043 -0.2723,0.085 -0.4759,0.128c-0.2036,0.047 -0.4616,0.071 -0.7741,0.071c-0.4735,0 -0.9375,-0.102 -1.3921,-0.305c-0.4498,-0.204 -0.8238,-0.514 -1.1221,-0.931c-0.2936,-0.416 -0.4404,-0.942 -0.4404,-1.576zM233.4308,232.091v1.42h-5.6535v-1.42zM229.4251,229.477h1.6761v10.398c0,0.473 0.0687,0.829 0.206,1.065c0.142,0.232 0.3219,0.389 0.5397,0.469c0.2226,0.076 0.457,0.114 0.7032,0.114c0.1846,0 0.3361,-0.01 0.4545,-0.029c0.1184,-0.023 0.2131,-0.042 0.2841,-0.056l0.3409,1.505c-0.1136,0.043 -0.2722,0.085 -0.4758,0.128c-0.2036,0.047 -0.4617,0.071 -0.7742,0.071c-0.4735,0 -0.9375,-0.102 -1.392,-0.305c-0.4498,-0.204 -0.8239,-0.514 -1.1222,-0.931c-0.2935,-0.416 -0.4403,-0.942 -0.4403,-1.576zM240.4087,243.227c-1.0511,0 -1.9578,-0.232 -2.7201,-0.696c-0.7576,-0.469 -1.3424,-1.122 -1.7543,-1.96c-0.4072,-0.843 -0.6108,-1.823 -0.6108,-2.94c0,-1.118 0.2036,-2.103 0.6108,-2.955c0.4119,-0.857 0.9849,-1.524 1.7188,-2.003c0.7386,-0.483 1.6003,-0.724 2.5852,-0.724c0.5682,0 1.1292,0.095 1.6832,0.284c0.554,0.189 1.0583,0.497 1.5128,0.923c0.4545,0.422 0.8168,0.98 1.0867,1.676c0.2698,0.696 0.4048,1.553 0.4048,2.571v0.711h-8.4091v-1.449h6.7045c0,-0.616 -0.1231,-1.165 -0.3693,-1.648c-0.2415,-0.483 -0.5871,-0.864 -1.0369,-1.143c-0.4451,-0.28 -0.9707,-0.419 -1.5767,-0.419c-0.6676,0 -1.2453,0.165 -1.733,0.497c-0.4829,0.326 -0.8546,0.753 -1.115,1.278c-0.2604,0.526 -0.3907,1.089 -0.3907,1.69v0.966c0,0.824 0.1421,1.523 0.4262,2.096c0.2888,0.568 0.6889,1.001 1.2003,1.299c0.5113,0.294 1.1056,0.441 1.7826,0.441c0.4404,0 0.8381,-0.062 1.1932,-0.185c0.3599,-0.128 0.67,-0.317 0.9304,-0.568c0.2604,-0.256 0.4617,-0.573 0.6037,-0.952l1.6193,0.455c-0.1704,0.549 -0.4569,1.032 -0.8593,1.448c-0.4025,0.412 -0.8997,0.734 -1.4915,0.966c-0.5919,0.228 -1.2571,0.341 -1.9958,0.341zM247.4755,243v-10.909h1.6193v1.648h0.1137c0.1988,-0.54 0.5587,-0.978 1.0795,-1.314c0.5208,-0.336 1.108,-0.505 1.7614,-0.505c0.1231,0 0.2769,0.003 0.4616,0.008c0.1847,0.004 0.3243,0.011 0.419,0.021v1.704c-0.0568,-0.014 -0.187,-0.035 -0.3906,-0.064c-0.1988,-0.033 -0.4095,-0.049 -0.6321,-0.049c-0.5303,0 -1.0038,0.111 -1.4204,0.334c-0.412,0.217 -0.7387,0.52 -0.9802,0.909c-0.2367,0.383 -0.3551,0.821 -0.3551,1.314v6.903zM265.2578,243h-4.4886v-14.545h4.6875c1.4113,0 2.6183,0.291 3.6223,0.873c1.004,0.578 1.773,1.409 2.308,2.493c0.535,1.08 0.803,2.372 0.803,3.878c0,1.515 -0.27,2.819 -0.81,3.913c-0.54,1.089 -1.326,1.927 -2.358,2.514c-1.032,0.583 -2.287,0.874 -3.7642,0.874zM262.5305,241.438h2.6137c1.2026,0 2.1998,-0.233 2.9898,-0.697c0.791,-0.464 1.38,-1.124 1.769,-1.981c0.388,-0.857 0.582,-1.877 0.582,-3.061c0,-1.174 -0.192,-2.185 -0.575,-3.033c-0.384,-0.852 -0.957,-1.505 -1.719,-1.96c-0.762,-0.459 -1.7116,-0.689 -2.848,-0.689h-2.8125z" fill="#000000"/><path d="M213.3658,168.8409v-3.4773l15.3409,-24.2727h2.5227v5.3864h-1.7045l-11.591,18.3409v0.2727h20.6591v3.75zM229.7976,176v-8.2159v-1.6193v-25.0739h4.0227v34.9091zM244.9808,176v-3.0682l11.5228,-12.6136c1.3522,-1.4773 2.4659,-2.7614 3.3409,-3.8523c0.875,-1.1023 1.5227,-2.1364 1.9431,-3.1023c0.4319,-0.9772 0.6478,-2 0.6478,-3.0681c0,-1.2273 -0.2955,-2.2898 -0.8864,-3.1875c-0.5795,-0.8978 -1.375,-1.591 -2.3864,-2.0796c-1.0113,-0.4886 -2.1477,-0.7329 -3.409,-0.7329c-1.341,0 -2.5114,0.2784 -3.5114,0.8352c-0.9886,0.5454 -1.7557,1.3125 -2.3011,2.3011c-0.5341,0.9887 -0.8012,2.1477 -0.8012,3.4773h-4.0227c0,-2.0455 0.4716,-3.8409 1.4148,-5.3864c0.9431,-1.5454 2.2272,-2.75 3.8522,-3.6136c1.6364,-0.8636 3.4716,-1.2955 5.5057,-1.2955c2.0455,0 3.858,0.4319 5.4375,1.2955c1.5796,0.8636 2.8182,2.0284 3.7159,3.4943c0.8978,1.4659 1.3466,3.0966 1.3466,4.8921c0,1.284 -0.2329,2.5397 -0.6988,3.767c-0.4546,1.2159 -1.25,2.5739 -2.3864,4.0739c-1.125,1.4886 -2.6875,3.3068 -4.6875,5.4545l-7.8409,8.3864v0.2727h16.2277v3.75z" fill="#000000"/></g></g></svg>