<svg xmlns="http://www.w3.org/2000/svg" fill="none" viewBox="0 0 139 164" height="164" width="139">
<path fill="#EEC638" d="M0 20C0 8.95431 8.95431 0 20 0H119C130.046 0 139 8.95431 139 20V144C139 155.046 130.046 164 119 164H20C8.95431 164 0 155.046 0 144V20Z"></path>
<path fill="black" d="M36.2102 135.455V150H34.5341V135.455H36.2102ZM43.854 150.227C42.8029 150.227 41.8962 149.995 41.1339 149.531C40.3763 149.062 39.7915 148.409 39.3796 147.571C38.9724 146.728 38.7688 145.748 38.7688 144.631C38.7688 143.513 38.9724 142.528 39.3796 141.676C39.7915 140.819 40.3645 140.152 41.0984 139.673C41.837 139.19 42.6987 138.949 43.6836 138.949C44.2518 138.949 44.8129 139.044 45.3668 139.233C45.9208 139.422 46.4251 139.73 46.8796 140.156C47.3342 140.578 47.6964 141.136 47.9663 141.832C48.2362 142.528 48.3711 143.385 48.3711 144.403V145.114H39.962V143.665H46.6665C46.6665 143.049 46.5434 142.5 46.2972 142.017C46.0558 141.534 45.7101 141.153 45.2603 140.874C44.8152 140.594 44.2897 140.455 43.6836 140.455C43.016 140.455 42.4383 140.62 41.9506 140.952C41.4677 141.278 41.096 141.705 40.8356 142.23C40.5752 142.756 40.445 143.319 40.445 143.92V144.886C40.445 145.71 40.587 146.409 40.8711 146.982C41.1599 147.55 41.56 147.983 42.0714 148.281C42.5827 148.575 43.177 148.722 43.854 148.722C44.2944 148.722 44.6921 148.66 45.0472 148.537C45.4071 148.409 45.7172 148.22 45.9776 147.969C46.238 147.713 46.4393 147.396 46.5813 147.017L48.2006 147.472C48.0302 148.021 47.7437 148.504 47.3413 148.92C46.9388 149.332 46.4416 149.654 45.8498 149.886C45.2579 150.114 44.5927 150.227 43.854 150.227ZM55.6651 139.091V140.511H50.0117V139.091H55.6651ZM51.6594 136.477H53.3356V146.875C53.3356 147.348 53.4042 147.704 53.5415 147.94C53.6836 148.172 53.8635 148.329 54.0813 148.409C54.3039 148.485 54.5382 148.523 54.7844 148.523C54.9691 148.523 55.1206 148.513 55.239 148.494C55.3574 148.471 55.4521 148.452 55.5231 148.438L55.864 149.943C55.7504 149.986 55.5917 150.028 55.3881 150.071C55.1845 150.118 54.9265 150.142 54.614 150.142C54.1405 150.142 53.6765 150.04 53.2219 149.837C52.7721 149.633 52.3981 149.323 52.0998 148.906C51.8062 148.49 51.6594 147.964 51.6594 147.33V136.477ZM62.9308 139.091V140.511H57.2773V139.091H62.9308ZM58.9251 136.477H60.6012V146.875C60.6012 147.348 60.6699 147.704 60.8072 147.94C60.9492 148.172 61.1291 148.329 61.3469 148.409C61.5695 148.485 61.8039 148.523 62.0501 148.523C62.2347 148.523 62.3862 148.513 62.5046 148.494C62.623 148.471 62.7177 148.452 62.7887 148.438L63.1296 149.943C63.016 149.986 62.8574 150.028 62.6538 150.071C62.4502 150.118 62.1921 150.142 61.8796 150.142C61.4061 150.142 60.9421 150.04 60.4876 149.837C60.0378 149.633 59.6637 149.323 59.3654 148.906C59.0719 148.49 58.9251 147.964 58.9251 147.33V136.477ZM69.9087 150.227C68.8576 150.227 67.9509 149.995 67.1886 149.531C66.431 149.062 65.8462 148.409 65.4343 147.571C65.0271 146.728 64.8235 145.748 64.8235 144.631C64.8235 143.513 65.0271 142.528 65.4343 141.676C65.8462 140.819 66.4192 140.152 67.1531 139.673C67.8917 139.19 68.7534 138.949 69.7383 138.949C70.3065 138.949 70.8675 139.044 71.4215 139.233C71.9755 139.422 72.4798 139.73 72.9343 140.156C73.3888 140.578 73.7511 141.136 74.021 141.832C74.2908 142.528 74.4258 143.385 74.4258 144.403V145.114H66.0167V143.665H72.7212C72.7212 143.049 72.5981 142.5 72.3519 142.017C72.1104 141.534 71.7648 141.153 71.315 140.874C70.8699 140.594 70.3443 140.455 69.7383 140.455C69.0707 140.455 68.493 140.62 68.0053 140.952C67.5224 141.278 67.1507 141.705 66.8903 142.23C66.6299 142.756 66.4996 143.319 66.4996 143.92V144.886C66.4996 145.71 66.6417 146.409 66.9258 146.982C67.2146 147.55 67.6147 147.983 68.1261 148.281C68.6374 148.575 69.2317 148.722 69.9087 148.722C70.3491 148.722 70.7468 148.66 71.1019 148.537C71.4618 148.409 71.7719 148.22 72.0323 147.969C72.2927 147.713 72.494 147.396 72.636 147.017L74.2553 147.472C74.0849 148.021 73.7984 148.504 73.396 148.92C72.9935 149.332 72.4963 149.654 71.9045 149.886C71.3126 150.114 70.6474 150.227 69.9087 150.227ZM76.9755 150V139.091H78.5948V140.739H78.7085C78.9073 140.199 79.2672 139.761 79.788 139.425C80.3088 139.089 80.896 138.92 81.5494 138.92C81.6725 138.92 81.8263 138.923 82.011 138.928C82.1957 138.932 82.3353 138.939 82.43 138.949V140.653C82.3732 140.639 82.243 140.618 82.0394 140.589C81.8406 140.556 81.6299 140.54 81.4073 140.54C80.877 140.54 80.4035 140.651 79.9869 140.874C79.5749 141.091 79.2482 141.394 79.0067 141.783C78.77 142.166 78.6516 142.604 78.6516 143.097V150H76.9755ZM90.2692 150V135.455H95.3544C96.3677 135.455 97.2034 135.63 97.8615 135.98C98.5197 136.326 99.0097 136.792 99.3317 137.379C99.6536 137.962 99.8146 138.608 99.8146 139.318C99.8146 139.943 99.7034 140.459 99.4808 140.866C99.263 141.274 98.9742 141.596 98.6143 141.832C98.2592 142.069 97.8733 142.244 97.4567 142.358V142.5C97.9018 142.528 98.3492 142.685 98.799 142.969C99.2488 143.253 99.6252 143.66 99.9283 144.19C100.231 144.721 100.383 145.369 100.383 146.136C100.383 146.866 100.217 147.521 99.8857 148.104C99.5542 148.686 99.031 149.148 98.3161 149.489C97.6011 149.83 96.6707 150 95.5249 150H90.2692ZM92.0305 148.438H95.5249C96.6754 148.438 97.4922 148.215 97.9751 147.77C98.4628 147.32 98.7067 146.776 98.7067 146.136C98.7067 145.644 98.5812 145.189 98.3303 144.773C98.0793 144.351 97.7218 144.015 97.2578 143.764C96.7938 143.509 96.2446 143.381 95.6101 143.381H92.0305V148.438ZM92.0305 141.847H95.2976C95.8279 141.847 96.3061 141.742 96.7322 141.534C97.1631 141.326 97.504 141.032 97.755 140.653C98.0107 140.275 98.1385 139.83 98.1385 139.318C98.1385 138.679 97.916 138.137 97.4709 137.692C97.0258 137.242 96.3203 137.017 95.3544 137.017H92.0305V141.847Z"></path>
<path fill="black" d="M40.034 53.1818L46.5113 71.5483H46.767L53.2442 53.1818H56.0141L48.0028 75H45.2755L37.2641 53.1818H40.034ZM64.409 75.3409C62.8323 75.3409 61.4722 74.9929 60.3287 74.2969C59.1924 73.5938 58.3153 72.6136 57.6974 71.3565C57.0866 70.0923 56.7812 68.6222 56.7812 66.946C56.7812 65.2699 57.0866 63.7926 57.6974 62.5142C58.3153 61.2287 59.1746 60.2273 60.2755 59.5099C61.3834 58.7855 62.676 58.4233 64.1533 58.4233C65.0056 58.4233 65.8472 58.5653 66.6782 58.8494C67.5091 59.1335 68.2655 59.5952 68.9474 60.2344C69.6292 60.8665 70.1725 61.7045 70.5773 62.7486C70.9822 63.7926 71.1846 65.0781 71.1846 66.6051V67.6705H58.5709V65.4972H68.6278C68.6278 64.5739 68.4431 63.75 68.0738 63.0256C67.7116 62.3011 67.1931 61.7294 66.5184 61.3104C65.8508 60.8913 65.0624 60.6818 64.1533 60.6818C63.1519 60.6818 62.2854 60.9304 61.5539 61.4276C60.8295 61.9176 60.2719 62.5568 59.8813 63.3452C59.4907 64.1335 59.2954 64.9787 59.2954 65.8807V67.3295C59.2954 68.5653 59.5084 69.6129 59.9346 70.4723C60.3678 71.3246 60.968 71.9744 61.735 72.4219C62.502 72.8622 63.3934 73.0824 64.409 73.0824C65.0695 73.0824 65.6661 72.9901 66.1988 72.8054C66.7385 72.6136 67.2037 72.3295 67.5944 71.9531C67.985 71.5696 68.2868 71.0937 68.4999 70.5256L70.9289 71.2074C70.6732 72.0312 70.2435 72.7557 69.6398 73.3807C69.0361 73.9986 68.2904 74.4815 67.4026 74.8295C66.5148 75.1705 65.517 75.3409 64.409 75.3409ZM75.0091 75V58.6364H77.4381V61.108H77.6086C77.9069 60.2983 78.4466 59.6413 79.2279 59.1371C80.0091 58.6328 80.8898 58.3807 81.8699 58.3807C82.0546 58.3807 82.2854 58.3842 82.5624 58.3913C82.8394 58.3984 83.0489 58.4091 83.191 58.4233V60.9801C83.1057 60.9588 82.9104 60.9268 82.605 60.8842C82.3067 60.8345 81.9907 60.8097 81.6569 60.8097C80.8614 60.8097 80.1512 60.9766 79.5262 61.3104C78.9083 61.6371 78.4182 62.0916 78.056 62.674C77.7009 63.2493 77.5233 63.9062 77.5233 64.6449V75H75.0091ZM86.5122 75V53.1818H89.0264V61.2358H89.2394C89.4241 60.9517 89.6798 60.5895 90.0065 60.1491C90.3403 59.7017 90.8161 59.304 91.434 58.956C92.059 58.6009 92.9042 58.4233 93.9695 58.4233C95.3474 58.4233 96.5619 58.7678 97.613 59.4567C98.6642 60.1456 99.4845 61.1222 100.074 62.3864C100.663 63.6506 100.958 65.142 100.958 66.8608C100.958 68.5938 100.663 70.0959 100.074 71.3672C99.4845 72.6314 98.6677 73.6115 97.6237 74.3075C96.5796 74.9964 95.3758 75.3409 94.0122 75.3409C92.961 75.3409 92.1194 75.1669 91.4873 74.8189C90.8552 74.4638 90.3687 74.0625 90.0278 73.6151C89.6869 73.1605 89.4241 72.7841 89.2394 72.4858H88.9411V75H86.5122ZM88.9838 66.8182C88.9838 68.054 89.1649 69.1442 89.5271 70.0888C89.8893 71.0263 90.4184 71.7614 91.1144 72.294C91.8105 72.8196 92.6627 73.0824 93.6713 73.0824C94.7224 73.0824 95.5995 72.8054 96.3026 72.2514C97.0129 71.6903 97.5455 70.9375 97.9007 69.9929C98.2629 69.0412 98.444 67.983 98.444 66.8182C98.444 65.6676 98.2664 64.6307 97.9113 63.7074C97.5633 62.777 97.0342 62.0419 96.324 61.5021C95.6208 60.9553 94.7366 60.6818 93.6713 60.6818C92.6485 60.6818 91.7892 60.9411 91.0931 61.4595C90.3971 61.9709 89.8715 62.6882 89.5164 63.6115C89.1613 64.5277 88.9838 65.5966 88.9838 66.8182Z"></path>
</svg>
