<svg version="1.1" xmlns="http://www.w3.org/2000/svg" xmlns:xlink="http://www.w3.org/1999/xlink" width="139" height="164" viewBox="0,0,139,164"><g transform="translate(-170.5,-98)"><g data-paper-data="{&quot;isPaintingLayer&quot;:true}" fill-rule="nonzero" stroke="none" stroke-width="1" stroke-linecap="butt" stroke-linejoin="miter" stroke-miterlimit="10" stroke-dasharray="" stroke-dashoffset="0" style="mix-blend-mode: normal"><path d="M170.5,118c0,-11.04569 8.9543,-20 20,-20h99c11.046,0 20,8.95431 20,20v124c0,11.046 -8.954,20 -20,20h-99c-11.0457,0 -20,-8.954 -20,-20z" fill="#43d059"/><path d="M206.7102,233.455v14.545h-1.6761v-14.545zM214.354,248.227c-1.0511,0 -1.9578,-0.232 -2.7201,-0.696c-0.7576,-0.469 -1.3424,-1.122 -1.7543,-1.96c-0.4072,-0.843 -0.6108,-1.823 -0.6108,-2.94c0,-1.118 0.2036,-2.103 0.6108,-2.955c0.4119,-0.857 0.9849,-1.524 1.7188,-2.003c0.7386,-0.483 1.6003,-0.724 2.5852,-0.724c0.5682,0 1.1293,0.095 1.6832,0.284c0.554,0.189 1.0583,0.497 1.5128,0.923c0.4546,0.422 0.8168,0.98 1.0867,1.676c0.2699,0.696 0.4048,1.553 0.4048,2.571v0.711h-8.4091v-1.449h6.7045c0,-0.616 -0.1231,-1.165 -0.3693,-1.648c-0.2414,-0.483 -0.5871,-0.864 -1.0369,-1.143c-0.4451,-0.28 -0.9706,-0.419 -1.5767,-0.419c-0.6676,0 -1.2453,0.165 -1.733,0.497c-0.4829,0.326 -0.8546,0.753 -1.115,1.278c-0.2604,0.526 -0.3906,1.089 -0.3906,1.69v0.966c0,0.824 0.142,1.523 0.4261,2.096c0.2888,0.568 0.6889,1.001 1.2003,1.299c0.5113,0.294 1.1056,0.441 1.7826,0.441c0.4404,0 0.8381,-0.062 1.1932,-0.185c0.3599,-0.128 0.67,-0.317 0.9304,-0.568c0.2604,-0.256 0.4617,-0.573 0.6037,-0.952l1.6193,0.455c-0.1704,0.549 -0.4569,1.032 -0.8593,1.448c-0.4025,0.412 -0.8997,0.734 -1.4915,0.966c-0.5919,0.228 -1.2571,0.341 -1.9958,0.341zM226.1651,237.091v1.42h-5.6534v-1.42zM222.1594,234.477h1.6762v10.398c0,0.473 0.0686,0.829 0.2059,1.065c0.1421,0.232 0.322,0.389 0.5398,0.469c0.2226,0.076 0.4569,0.114 0.7031,0.114c0.1847,0 0.3362,-0.01 0.4546,-0.029c0.1184,-0.023 0.2131,-0.042 0.2841,-0.056l0.3409,1.505c-0.1136,0.043 -0.2723,0.085 -0.4759,0.128c-0.2036,0.047 -0.4616,0.071 -0.7741,0.071c-0.4735,0 -0.9375,-0.102 -1.3921,-0.305c-0.4498,-0.204 -0.8238,-0.514 -1.1221,-0.931c-0.2936,-0.416 -0.4404,-0.942 -0.4404,-1.576zM233.4308,237.091v1.42h-5.6535v-1.42zM229.4251,234.477h1.6761v10.398c0,0.473 0.0687,0.829 0.206,1.065c0.142,0.232 0.3219,0.389 0.5397,0.469c0.2226,0.076 0.457,0.114 0.7032,0.114c0.1846,0 0.3361,-0.01 0.4545,-0.029c0.1184,-0.023 0.2131,-0.042 0.2841,-0.056l0.3409,1.505c-0.1136,0.043 -0.2722,0.085 -0.4758,0.128c-0.2036,0.047 -0.4617,0.071 -0.7742,0.071c-0.4735,0 -0.9375,-0.102 -1.392,-0.305c-0.4498,-0.204 -0.8239,-0.514 -1.1222,-0.931c-0.2935,-0.416 -0.4403,-0.942 -0.4403,-1.576zM240.4087,248.227c-1.0511,0 -1.9578,-0.232 -2.7201,-0.696c-0.7576,-0.469 -1.3424,-1.122 -1.7543,-1.96c-0.4072,-0.843 -0.6108,-1.823 -0.6108,-2.94c0,-1.118 0.2036,-2.103 0.6108,-2.955c0.4119,-0.857 0.9849,-1.524 1.7188,-2.003c0.7386,-0.483 1.6003,-0.724 2.5852,-0.724c0.5682,0 1.1292,0.095 1.6832,0.284c0.554,0.189 1.0583,0.497 1.5128,0.923c0.4545,0.422 0.8168,0.98 1.0867,1.676c0.2698,0.696 0.4048,1.553 0.4048,2.571v0.711h-8.4091v-1.449h6.7045c0,-0.616 -0.1231,-1.165 -0.3693,-1.648c-0.2415,-0.483 -0.5871,-0.864 -1.0369,-1.143c-0.4451,-0.28 -0.9707,-0.419 -1.5767,-0.419c-0.6676,0 -1.2453,0.165 -1.733,0.497c-0.4829,0.326 -0.8546,0.753 -1.115,1.278c-0.2604,0.526 -0.3907,1.089 -0.3907,1.69v0.966c0,0.824 0.1421,1.523 0.4262,2.096c0.2888,0.568 0.6889,1.001 1.2003,1.299c0.5113,0.294 1.1056,0.441 1.7826,0.441c0.4404,0 0.8381,-0.062 1.1932,-0.185c0.3599,-0.128 0.67,-0.317 0.9304,-0.568c0.2604,-0.256 0.4617,-0.573 0.6037,-0.952l1.6193,0.455c-0.1704,0.549 -0.4569,1.032 -0.8593,1.448c-0.4025,0.412 -0.8997,0.734 -1.4915,0.966c-0.5919,0.228 -1.2571,0.341 -1.9958,0.341zM247.4755,248v-10.909h1.6193v1.648h0.1137c0.1988,-0.54 0.5587,-0.978 1.0795,-1.314c0.5208,-0.336 1.108,-0.505 1.7614,-0.505c0.1231,0 0.2769,0.003 0.4616,0.008c0.1847,0.004 0.3243,0.011 0.419,0.021v1.704c-0.0568,-0.014 -0.187,-0.035 -0.3906,-0.064c-0.1988,-0.033 -0.4095,-0.049 -0.6321,-0.049c-0.5303,0 -1.0038,0.111 -1.4204,0.334c-0.412,0.217 -0.7387,0.52 -0.9802,0.909c-0.2367,0.383 -0.3551,0.821 -0.3551,1.314v6.903zM265.2578,248h-4.4886v-14.545h4.6875c1.4113,0 2.6183,0.291 3.6223,0.873c1.004,0.578 1.773,1.409 2.308,2.493c0.535,1.08 0.803,2.372 0.803,3.878c0,1.515 -0.27,2.819 -0.81,3.913c-0.54,1.089 -1.326,1.927 -2.358,2.514c-1.032,0.583 -2.287,0.874 -3.7642,0.874zM262.5305,246.438h2.6137c1.2026,0 2.1998,-0.233 2.9898,-0.697c0.791,-0.464 1.38,-1.124 1.769,-1.981c0.388,-0.857 0.582,-1.877 0.582,-3.061c0,-1.174 -0.192,-2.185 -0.575,-3.033c-0.384,-0.852 -0.957,-1.505 -1.719,-1.96c-0.762,-0.459 -1.7116,-0.689 -2.848,-0.689h-2.8125z" fill="#000000"/><path d="M200.3833,176v-21.8182h2.642v9.7159h11.6335v-9.7159h2.6421v21.8182h-2.6421v-9.7585h-11.6335v9.7585zM223.8687,182.1364c-0.4261,0 -0.8061,-0.0355 -1.1399,-0.1066c-0.3338,-0.0639 -0.5646,-0.1278 -0.6925,-0.1917l0.6392,-2.2159c0.6108,0.1562 1.1506,0.213 1.6193,0.1704c0.4688,-0.0426 0.8843,-0.2521 1.2465,-0.6285c0.3693,-0.3694 0.7067,-0.9695 1.0121,-1.8005l0.4687,-1.2784l-6.0511,-16.4488h2.7272l4.5171,13.0397h0.1704l4.5171,-13.0397h2.7273l-6.9461,18.75c-0.3125,0.8451 -0.6995,1.5447 -1.1612,2.0987c-0.4616,0.5611 -0.9979,0.9765 -1.6086,1.2464c-0.6037,0.2699 -1.2856,0.4049 -2.0455,0.4049zM244.5416,176.3409c-1.3636,0 -2.5674,-0.3445 -3.6115,-1.0334c-1.044,-0.696 -1.8608,-1.6761 -2.4503,-2.9403c-0.5894,-1.2713 -0.8842,-2.7734 -0.8842,-4.5064c0,-1.7188 0.2948,-3.2102 0.8842,-4.4744c0.5895,-1.2642 1.4098,-2.2408 2.461,-2.9297c1.0511,-0.6889 2.2656,-1.0334 3.6435,-1.0334c1.0653,0 1.9069,0.1776 2.5248,0.5327c0.625,0.348 1.1009,0.7457 1.4276,1.1931c0.3338,0.4404 0.593,0.8026 0.7777,1.0867h0.213v-8.054h2.5142v21.8182h-2.4289v-2.5142h-0.2983c-0.1847,0.2983 -0.4475,0.6747 -0.7884,1.1293c-0.3409,0.4474 -0.8274,0.8487 -1.4595,1.2038c-0.6321,0.348 -1.4737,0.522 -2.5249,0.522zM244.8825,174.0824c1.0086,0 1.8608,-0.2628 2.5569,-0.7884c0.696,-0.5326 1.2251,-1.2677 1.5873,-2.2052c0.3622,-0.9446 0.5433,-2.0348 0.5433,-3.2706c0,-1.2216 -0.1775,-2.2905 -0.5326,-3.2067c-0.3551,-0.9233 -0.8807,-1.6406 -1.5767,-2.152c-0.6961,-0.5184 -1.5554,-0.7777 -2.5782,-0.7777c-1.0653,0 -1.9531,0.2735 -2.6633,0.8203c-0.7031,0.5398 -1.2323,1.2749 -1.5874,2.2053c-0.348,0.9233 -0.522,1.9602 -0.522,3.1108c0,1.1648 0.1776,2.223 0.5327,3.1747c0.3622,0.9446 0.8949,1.6974 1.598,2.2585c0.7102,0.554 1.5909,0.831 2.642,0.831zM256.9955,176v-16.3636h2.4289v2.4716h0.1705c0.2983,-0.8097 0.8381,-1.4667 1.6193,-1.9709c0.7813,-0.5043 1.662,-0.7564 2.6421,-0.7564c0.1846,0 0.4155,0.0035 0.6924,0.0106c0.277,0.0071 0.4865,0.0178 0.6286,0.032v2.5568c-0.0852,-0.0213 -0.2805,-0.0533 -0.5859,-0.0959c-0.2983,-0.0497 -0.6144,-0.0745 -0.9482,-0.0745c-0.7955,0 -1.5057,0.1669 -2.1307,0.5007c-0.6179,0.3267 -1.1079,0.7812 -1.4702,1.3636c-0.3551,0.5753 -0.5326,1.2322 -0.5326,1.9709v10.3551zM274.307,176.3409c-1.477,0 -2.773,-0.3516 -3.888,-1.0547c-1.108,-0.7031 -1.975,-1.6868 -2.6,-2.951c-0.618,-1.2642 -0.927,-2.7415 -0.927,-4.4318c0,-1.7045 0.309,-3.1925 0.927,-4.4638c0.625,-1.2713 1.492,-2.2585 2.6,-2.9616c1.115,-0.7031 2.411,-1.0547 3.888,-1.0547c1.478,0 2.77,0.3516 3.878,1.0547c1.115,0.7031 1.982,1.6903 2.6,2.9616c0.625,1.2713 0.937,2.7593 0.937,4.4638c0,1.6903 -0.312,3.1676 -0.937,4.4318c-0.618,1.2642 -1.485,2.2479 -2.6,2.951c-1.108,0.7031 -2.4,1.0547 -3.878,1.0547zM274.307,174.0824c1.122,0 2.046,-0.2877 2.77,-0.8629c0.725,-0.5753 1.261,-1.3317 1.609,-2.2692c0.348,-0.9375 0.522,-1.9531 0.522,-3.0469c0,-1.0937 -0.174,-2.1129 -0.522,-3.0575c-0.348,-0.9446 -0.884,-1.7081 -1.609,-2.2905c-0.724,-0.5824 -1.648,-0.8736 -2.77,-0.8736c-1.122,0 -2.045,0.2912 -2.77,0.8736c-0.724,0.5824 -1.26,1.3459 -1.608,2.2905c-0.348,0.9446 -0.522,1.9638 -0.522,3.0575c0,1.0938 0.174,2.1094 0.522,3.0469c0.348,0.9375 0.884,1.6939 1.608,2.2692c0.725,0.5752 1.648,0.8629 2.77,0.8629z" fill="#000000"/></g></g></svg>