<svg xmlns="http://www.w3.org/2000/svg" fill="none" viewBox="0 0 139 164" height="164" width="139">
<path fill="#EE6338" d="M0 20C0 8.95431 8.95431 0 20 0H119C130.046 0 139 8.95431 139 20V144C139 155.046 130.046 164 119 164H20C8.95431 164 0 155.046 0 144V20Z"></path>
<path fill="black" d="M36.2102 134.455V149H34.5341V134.455H36.2102ZM43.854 149.227C42.8029 149.227 41.8962 148.995 41.1339 148.531C40.3763 148.062 39.7915 147.409 39.3796 146.571C38.9724 145.728 38.7688 144.748 38.7688 143.631C38.7688 142.513 38.9724 141.528 39.3796 140.676C39.7915 139.819 40.3645 139.152 41.0984 138.673C41.837 138.19 42.6987 137.949 43.6836 137.949C44.2518 137.949 44.8129 138.044 45.3668 138.233C45.9208 138.422 46.4251 138.73 46.8796 139.156C47.3342 139.578 47.6964 140.136 47.9663 140.832C48.2362 141.528 48.3711 142.385 48.3711 143.403V144.114H39.962V142.665H46.6665C46.6665 142.049 46.5434 141.5 46.2972 141.017C46.0558 140.534 45.7101 140.153 45.2603 139.874C44.8152 139.594 44.2897 139.455 43.6836 139.455C43.016 139.455 42.4383 139.62 41.9506 139.952C41.4677 140.278 41.096 140.705 40.8356 141.23C40.5752 141.756 40.445 142.319 40.445 142.92V143.886C40.445 144.71 40.587 145.409 40.8711 145.982C41.1599 146.55 41.56 146.983 42.0714 147.281C42.5827 147.575 43.177 147.722 43.854 147.722C44.2944 147.722 44.6921 147.66 45.0472 147.537C45.4071 147.409 45.7172 147.22 45.9776 146.969C46.238 146.713 46.4393 146.396 46.5813 146.017L48.2006 146.472C48.0302 147.021 47.7437 147.504 47.3413 147.92C46.9388 148.332 46.4416 148.654 45.8498 148.886C45.2579 149.114 44.5927 149.227 43.854 149.227ZM55.6651 138.091V139.511H50.0117V138.091H55.6651ZM51.6594 135.477H53.3356V145.875C53.3356 146.348 53.4042 146.704 53.5415 146.94C53.6836 147.172 53.8635 147.329 54.0813 147.409C54.3039 147.485 54.5382 147.523 54.7844 147.523C54.9691 147.523 55.1206 147.513 55.239 147.494C55.3574 147.471 55.4521 147.452 55.5231 147.438L55.864 148.943C55.7504 148.986 55.5917 149.028 55.3881 149.071C55.1845 149.118 54.9265 149.142 54.614 149.142C54.1405 149.142 53.6765 149.04 53.2219 148.837C52.7721 148.633 52.3981 148.323 52.0998 147.906C51.8062 147.49 51.6594 146.964 51.6594 146.33V135.477ZM62.9308 138.091V139.511H57.2773V138.091H62.9308ZM58.9251 135.477H60.6012V145.875C60.6012 146.348 60.6699 146.704 60.8072 146.94C60.9492 147.172 61.1291 147.329 61.3469 147.409C61.5695 147.485 61.8039 147.523 62.0501 147.523C62.2347 147.523 62.3862 147.513 62.5046 147.494C62.623 147.471 62.7177 147.452 62.7887 147.438L63.1296 148.943C63.016 148.986 62.8574 149.028 62.6538 149.071C62.4502 149.118 62.1921 149.142 61.8796 149.142C61.4061 149.142 60.9421 149.04 60.4876 148.837C60.0378 148.633 59.6637 148.323 59.3654 147.906C59.0719 147.49 58.9251 146.964 58.9251 146.33V135.477ZM69.9087 149.227C68.8576 149.227 67.9509 148.995 67.1886 148.531C66.431 148.062 65.8462 147.409 65.4343 146.571C65.0271 145.728 64.8235 144.748 64.8235 143.631C64.8235 142.513 65.0271 141.528 65.4343 140.676C65.8462 139.819 66.4192 139.152 67.1531 138.673C67.8917 138.19 68.7534 137.949 69.7383 137.949C70.3065 137.949 70.8675 138.044 71.4215 138.233C71.9755 138.422 72.4798 138.73 72.9343 139.156C73.3888 139.578 73.7511 140.136 74.021 140.832C74.2908 141.528 74.4258 142.385 74.4258 143.403V144.114H66.0167V142.665H72.7212C72.7212 142.049 72.5981 141.5 72.3519 141.017C72.1104 140.534 71.7648 140.153 71.315 139.874C70.8699 139.594 70.3443 139.455 69.7383 139.455C69.0707 139.455 68.493 139.62 68.0053 139.952C67.5224 140.278 67.1507 140.705 66.8903 141.23C66.6299 141.756 66.4996 142.319 66.4996 142.92V143.886C66.4996 144.71 66.6417 145.409 66.9258 145.982C67.2146 146.55 67.6147 146.983 68.1261 147.281C68.6374 147.575 69.2317 147.722 69.9087 147.722C70.3491 147.722 70.7468 147.66 71.1019 147.537C71.4618 147.409 71.7719 147.22 72.0323 146.969C72.2927 146.713 72.494 146.396 72.636 146.017L74.2553 146.472C74.0849 147.021 73.7984 147.504 73.396 147.92C72.9935 148.332 72.4963 148.654 71.9045 148.886C71.3126 149.114 70.6474 149.227 69.9087 149.227ZM76.9755 149V138.091H78.5948V139.739H78.7085C78.9073 139.199 79.2672 138.761 79.788 138.425C80.3088 138.089 80.896 137.92 81.5494 137.92C81.6725 137.92 81.8263 137.923 82.011 137.928C82.1957 137.932 82.3353 137.939 82.43 137.949V139.653C82.3732 139.639 82.243 139.618 82.0394 139.589C81.8406 139.556 81.6299 139.54 81.4073 139.54C80.877 139.54 80.4035 139.651 79.9869 139.874C79.5749 140.091 79.2482 140.394 79.0067 140.783C78.77 141.166 78.6516 141.604 78.6516 142.097V149H76.9755ZM94.7578 149H90.2692V134.455H94.9567C96.3677 134.455 97.575 134.746 98.5788 135.328C99.5826 135.906 100.352 136.737 100.887 137.821C101.422 138.901 101.69 140.193 101.69 141.699C101.69 143.214 101.42 144.518 100.88 145.612C100.34 146.701 99.5542 147.539 98.522 148.126C97.4898 148.709 96.2351 149 94.7578 149ZM92.0305 147.438H94.6442C95.8468 147.438 96.8435 147.205 97.6342 146.741C98.425 146.277 99.0144 145.617 99.4027 144.76C99.791 143.903 99.9851 142.883 99.9851 141.699C99.9851 140.525 99.7933 139.514 99.4098 138.666C99.0263 137.814 98.4534 137.161 97.6911 136.706C96.9287 136.247 95.9794 136.017 94.843 136.017H92.0305V147.438Z"></path>
<path fill="black" d="M69.7507 46.6136C71.1825 46.625 72.6143 46.8977 74.0462 47.4318C75.478 47.9659 76.7848 48.8523 77.9666 50.0909C79.1484 51.3182 80.0973 52.9943 80.8132 55.1193C81.5291 57.2443 81.8871 59.9091 81.8871 63.1136C81.8871 66.2159 81.5916 68.9716 81.0007 71.3807C80.4212 73.7784 79.5803 75.8011 78.478 77.4489C77.3871 79.0966 76.0575 80.3466 74.4893 81.1989C72.9325 82.0511 71.1712 82.4773 69.2053 82.4773C67.2507 82.4773 65.5064 82.0909 63.9723 81.3182C62.4496 80.5341 61.1996 79.4489 60.2223 78.0625C59.2564 76.6648 58.6371 75.0455 58.3643 73.2045H62.5234C62.8984 74.8068 63.6428 76.1307 64.7564 77.1761C65.8814 78.2102 67.3643 78.7273 69.2053 78.7273C71.8984 78.7273 74.0234 77.5511 75.5803 75.1989C77.1484 72.8466 77.9325 69.5227 77.9325 65.2273H77.6598C77.0234 66.1818 76.2678 67.0057 75.3928 67.6989C74.5178 68.392 73.5462 68.9261 72.478 69.3011C71.4098 69.6761 70.2734 69.8636 69.0689 69.8636C67.0689 69.8636 65.2337 69.3693 63.5632 68.3807C61.9041 67.3807 60.5746 66.0114 59.5746 64.2727C58.5859 62.5227 58.0916 60.5227 58.0916 58.2727C58.0916 56.1364 58.5689 54.1818 59.5234 52.4091C60.4893 50.625 61.8416 49.2045 63.5803 48.1477C65.3303 47.0909 67.3871 46.5795 69.7507 46.6136ZM69.7507 50.3636C68.3189 50.3636 67.0291 50.7216 65.8814 51.4375C64.745 52.142 63.8416 53.0966 63.1712 54.3011C62.5121 55.4943 62.1825 56.8182 62.1825 58.2727C62.1825 59.7273 62.5007 61.0511 63.1371 62.2443C63.7848 63.4261 64.6655 64.3693 65.7791 65.0739C66.9041 65.767 68.1825 66.1136 69.6143 66.1136C70.6939 66.1136 71.6996 65.9034 72.6314 65.483C73.5632 65.0511 74.3757 64.4659 75.0689 63.7273C75.7734 62.9773 76.3246 62.1307 76.7223 61.1875C77.12 60.233 77.3189 59.2386 77.3189 58.2045C77.3189 56.8409 76.9893 55.5625 76.3303 54.3693C75.6825 53.1761 74.7848 52.2102 73.6371 51.4716C72.5007 50.733 71.2053 50.3636 69.7507 50.3636Z"></path>
</svg>
