<svg xmlns="http://www.w3.org/2000/svg" fill="none" viewBox="0 0 139 164" height="164" width="139">
<path fill="#EEC638" d="M0 20C0 8.95431 8.95431 0 20 0H119C130.046 0 139 8.95431 139 20V144C139 155.046 130.046 164 119 164H20C8.95431 164 0 155.046 0 144V20Z"></path>
<path fill="black" d="M36.2102 135.455V150H34.5341V135.455H36.2102ZM43.854 150.227C42.8029 150.227 41.8962 149.995 41.1339 149.531C40.3763 149.062 39.7915 148.409 39.3796 147.571C38.9724 146.728 38.7688 145.748 38.7688 144.631C38.7688 143.513 38.9724 142.528 39.3796 141.676C39.7915 140.819 40.3645 140.152 41.0984 139.673C41.837 139.19 42.6987 138.949 43.6836 138.949C44.2518 138.949 44.8129 139.044 45.3668 139.233C45.9208 139.422 46.4251 139.73 46.8796 140.156C47.3342 140.578 47.6964 141.136 47.9663 141.832C48.2362 142.528 48.3711 143.385 48.3711 144.403V145.114H39.962V143.665H46.6665C46.6665 143.049 46.5434 142.5 46.2972 142.017C46.0558 141.534 45.7101 141.153 45.2603 140.874C44.8152 140.594 44.2897 140.455 43.6836 140.455C43.016 140.455 42.4383 140.62 41.9506 140.952C41.4677 141.278 41.096 141.705 40.8356 142.23C40.5752 142.756 40.445 143.319 40.445 143.92V144.886C40.445 145.71 40.587 146.409 40.8711 146.982C41.1599 147.55 41.56 147.983 42.0714 148.281C42.5827 148.575 43.177 148.722 43.854 148.722C44.2944 148.722 44.6921 148.66 45.0472 148.537C45.4071 148.409 45.7172 148.22 45.9776 147.969C46.238 147.713 46.4393 147.396 46.5813 147.017L48.2006 147.472C48.0302 148.021 47.7437 148.504 47.3413 148.92C46.9388 149.332 46.4416 149.654 45.8498 149.886C45.2579 150.114 44.5927 150.227 43.854 150.227ZM55.6651 139.091V140.511H50.0117V139.091H55.6651ZM51.6594 136.477H53.3356V146.875C53.3356 147.348 53.4042 147.704 53.5415 147.94C53.6836 148.172 53.8635 148.329 54.0813 148.409C54.3039 148.485 54.5382 148.523 54.7844 148.523C54.9691 148.523 55.1206 148.513 55.239 148.494C55.3574 148.471 55.4521 148.452 55.5231 148.438L55.864 149.943C55.7504 149.986 55.5917 150.028 55.3881 150.071C55.1845 150.118 54.9265 150.142 54.614 150.142C54.1405 150.142 53.6765 150.04 53.2219 149.837C52.7721 149.633 52.3981 149.323 52.0998 148.906C51.8062 148.49 51.6594 147.964 51.6594 147.33V136.477ZM62.9308 139.091V140.511H57.2773V139.091H62.9308ZM58.9251 136.477H60.6012V146.875C60.6012 147.348 60.6699 147.704 60.8072 147.94C60.9492 148.172 61.1291 148.329 61.3469 148.409C61.5695 148.485 61.8039 148.523 62.0501 148.523C62.2347 148.523 62.3862 148.513 62.5046 148.494C62.623 148.471 62.7177 148.452 62.7887 148.438L63.1296 149.943C63.016 149.986 62.8574 150.028 62.6538 150.071C62.4502 150.118 62.1921 150.142 61.8796 150.142C61.4061 150.142 60.9421 150.04 60.4876 149.837C60.0378 149.633 59.6637 149.323 59.3654 148.906C59.0719 148.49 58.9251 147.964 58.9251 147.33V136.477ZM69.9087 150.227C68.8576 150.227 67.9509 149.995 67.1886 149.531C66.431 149.062 65.8462 148.409 65.4343 147.571C65.0271 146.728 64.8235 145.748 64.8235 144.631C64.8235 143.513 65.0271 142.528 65.4343 141.676C65.8462 140.819 66.4192 140.152 67.1531 139.673C67.8917 139.19 68.7534 138.949 69.7383 138.949C70.3065 138.949 70.8675 139.044 71.4215 139.233C71.9755 139.422 72.4798 139.73 72.9343 140.156C73.3888 140.578 73.7511 141.136 74.021 141.832C74.2908 142.528 74.4258 143.385 74.4258 144.403V145.114H66.0167V143.665H72.7212C72.7212 143.049 72.5981 142.5 72.3519 142.017C72.1104 141.534 71.7648 141.153 71.315 140.874C70.8699 140.594 70.3443 140.455 69.7383 140.455C69.0707 140.455 68.493 140.62 68.0053 140.952C67.5224 141.278 67.1507 141.705 66.8903 142.23C66.6299 142.756 66.4996 143.319 66.4996 143.92V144.886C66.4996 145.71 66.6417 146.409 66.9258 146.982C67.2146 147.55 67.6147 147.983 68.1261 148.281C68.6374 148.575 69.2317 148.722 69.9087 148.722C70.3491 148.722 70.7468 148.66 71.1019 148.537C71.4618 148.409 71.7719 148.22 72.0323 147.969C72.2927 147.713 72.494 147.396 72.636 147.017L74.2553 147.472C74.0849 148.021 73.7984 148.504 73.396 148.92C72.9935 149.332 72.4963 149.654 71.9045 149.886C71.3126 150.114 70.6474 150.227 69.9087 150.227ZM76.9755 150V139.091H78.5948V140.739H78.7085C78.9073 140.199 79.2672 139.761 79.788 139.425C80.3088 139.089 80.896 138.92 81.5494 138.92C81.6725 138.92 81.8263 138.923 82.011 138.928C82.1957 138.932 82.3353 138.939 82.43 138.949V140.653C82.3732 140.639 82.243 140.618 82.0394 140.589C81.8406 140.556 81.6299 140.54 81.4073 140.54C80.877 140.54 80.4035 140.651 79.9869 140.874C79.5749 141.091 79.2482 141.394 79.0067 141.783C78.77 142.166 78.6516 142.604 78.6516 143.097V150H76.9755ZM90.8658 150H89.0192L94.3601 135.455H96.1783L101.519 150H99.6726L95.326 137.756H95.2124L90.8658 150ZM91.5476 144.318H98.9908V145.881H91.5476V144.318Z"></path>
<path fill="black" d="M22.7413 54.0909C22.6561 53.3712 22.3104 52.8125 21.7044 52.4148C21.0983 52.017 20.3549 51.8182 19.4743 51.8182C18.8303 51.8182 18.2669 51.9223 17.7839 52.1307C17.3057 52.339 16.9316 52.6255 16.6618 52.9901C16.3966 53.3546 16.264 53.7689 16.264 54.233C16.264 54.6212 16.3564 54.955 16.541 55.2344C16.7304 55.509 16.9719 55.7386 17.2654 55.9233C17.559 56.1032 17.8668 56.2524 18.1887 56.3707C18.5107 56.4844 18.8066 56.5767 19.0765 56.6477L20.5538 57.0455C20.9326 57.1449 21.354 57.2822 21.818 57.4574C22.2868 57.6326 22.7342 57.8717 23.1603 58.1747C23.5912 58.473 23.9463 58.8565 24.2257 59.3253C24.505 59.794 24.6447 60.3693 24.6447 61.0511C24.6447 61.8371 24.4387 62.5473 24.0268 63.1818C23.6196 63.8163 23.023 64.3205 22.237 64.6946C21.4558 65.0687 20.5065 65.2557 19.389 65.2557C18.3474 65.2557 17.4454 65.0876 16.6831 64.7514C15.9255 64.4152 15.3289 63.9465 14.8933 63.3452C14.4624 62.7438 14.2186 62.0455 14.1618 61.25H15.9799C16.0273 61.7992 16.2119 62.2538 16.5339 62.6136C16.8606 62.9687 17.2725 63.2339 17.7697 63.4091C18.2716 63.5795 18.8114 63.6648 19.389 63.6648C20.0614 63.6648 20.6651 63.5559 21.2001 63.3381C21.7351 63.1155 22.1589 62.8078 22.4714 62.4148C22.7839 62.017 22.9402 61.553 22.9402 61.0227C22.9402 60.5398 22.8052 60.1468 22.5353 59.8438C22.2654 59.5407 21.9103 59.2945 21.47 59.1051C21.0297 58.9157 20.5538 58.75 20.0424 58.608L18.2527 58.0966C17.1163 57.7699 16.2167 57.3035 15.5538 56.6974C14.8909 56.0914 14.5595 55.2983 14.5595 54.3182C14.5595 53.5038 14.7797 52.7936 15.22 52.1875C15.6651 51.5767 16.2617 51.1032 17.0098 50.767C17.7626 50.4261 18.603 50.2557 19.5311 50.2557C20.4686 50.2557 21.3019 50.4238 22.0311 50.7599C22.7602 51.0914 23.3379 51.5459 23.764 52.1236C24.1949 52.7012 24.4222 53.357 24.4458 54.0909H22.7413ZM28.9895 58.4375V65H27.3134V50.4545H28.9895V55.7955H29.1316C29.3873 55.232 29.7708 54.7846 30.2821 54.4531C30.7982 54.117 31.4848 53.9489 32.3418 53.9489C33.0852 53.9489 33.7362 54.098 34.2949 54.3963C34.8536 54.6899 35.2869 55.142 35.5946 55.7528C35.9071 56.3589 36.0634 57.1307 36.0634 58.0682V65H34.3873V58.1818C34.3873 57.3153 34.1623 56.6454 33.7125 56.1719C33.2675 55.6937 32.6496 55.4545 31.8588 55.4545C31.3096 55.4545 30.8172 55.5705 30.3816 55.8026C29.9507 56.0346 29.6098 56.3731 29.3588 56.8182C29.1126 57.2633 28.9895 57.803 28.9895 58.4375ZM43.7037 65.2273C42.6525 65.2273 41.7458 64.9953 40.9835 64.5312C40.2259 64.0625 39.6412 63.4091 39.2292 62.571C38.822 61.7282 38.6184 60.7481 38.6184 59.6307C38.6184 58.5133 38.822 57.5284 39.2292 56.6761C39.6412 55.8191 40.2141 55.1515 40.948 54.6733C41.6866 54.1903 42.5484 53.9489 43.5332 53.9489C44.1014 53.9489 44.6625 54.0436 45.2164 54.233C45.7704 54.4223 46.2747 54.7301 46.7292 55.1562C47.1838 55.5777 47.546 56.1364 47.8159 56.8324C48.0858 57.5284 48.2207 58.3854 48.2207 59.4034V60.1136H39.8116V58.6648H46.5162C46.5162 58.0492 46.3931 57.5 46.1468 57.017C45.9054 56.5341 45.5597 56.1529 45.1099 55.8736C44.6648 55.5942 44.1393 55.4545 43.5332 55.4545C42.8656 55.4545 42.2879 55.6203 41.8002 55.9517C41.3173 56.2784 40.9456 56.7045 40.6852 57.2301C40.4248 57.7557 40.2946 58.3191 40.2946 58.9205V59.8864C40.2946 60.7102 40.4366 61.4086 40.7207 61.9815C41.0095 62.5497 41.4096 62.983 41.921 63.2812C42.4324 63.5748 43.0266 63.7216 43.7037 63.7216C44.144 63.7216 44.5417 63.66 44.8968 63.5369C45.2567 63.4091 45.5668 63.2197 45.8272 62.9688C46.0877 62.7131 46.2889 62.3958 46.4309 62.017L48.0502 62.4716C47.8798 63.0208 47.5933 63.5038 47.1909 63.9205C46.7884 64.3324 46.2913 64.6544 45.6994 64.8864C45.1075 65.1136 44.4423 65.2273 43.7037 65.2273ZM56.3954 69.0909V54.0909H58.0147V55.8239H58.2136C58.3367 55.6345 58.5072 55.393 58.725 55.0994C58.9475 54.8011 59.2647 54.536 59.6767 54.304C60.0933 54.0672 60.6568 53.9489 61.367 53.9489C62.2856 53.9489 63.0952 54.1785 63.796 54.6378C64.4967 55.0971 65.0436 55.7481 65.4366 56.5909C65.8296 57.4337 66.0261 58.428 66.0261 59.5739C66.0261 60.7292 65.8296 61.7306 65.4366 62.5781C65.0436 63.4209 64.4991 64.0743 63.8031 64.5384C63.1071 64.9976 62.3045 65.2273 61.3954 65.2273C60.6947 65.2273 60.1336 65.1113 59.7122 64.8793C59.2908 64.6425 58.9664 64.375 58.7392 64.0767C58.5119 63.7737 58.3367 63.5227 58.2136 63.3239H58.0716V69.0909H56.3954ZM58.0431 59.5455C58.0431 60.3693 58.1639 61.0961 58.4054 61.7259C58.6468 62.3509 58.9996 62.8409 59.4636 63.196C59.9276 63.5464 60.4958 63.7216 61.1681 63.7216C61.8689 63.7216 62.4537 63.5369 62.9224 63.1676C63.3959 62.7936 63.751 62.2917 63.9877 61.6619C64.2292 61.0275 64.35 60.322 64.35 59.5455C64.35 58.7784 64.2316 58.0871 63.9949 57.4716C63.7628 56.8513 63.4101 56.3613 62.9366 56.0014C62.4679 55.6368 61.8784 55.4545 61.1681 55.4545C60.4863 55.4545 59.9134 55.6274 59.4494 55.973C58.9854 56.3139 58.635 56.7921 58.3983 57.4077C58.1615 58.0185 58.0431 58.7311 58.0431 59.5455ZM71.7931 65.2557C71.1019 65.2557 70.4745 65.1255 69.911 64.8651C69.3476 64.5999 68.9002 64.2188 68.5687 63.7216C68.2373 63.2197 68.0716 62.6136 68.0716 61.9034C68.0716 61.2784 68.1947 60.7718 68.4409 60.3835C68.6871 59.9905 69.0162 59.6828 69.4281 59.4602C69.84 59.2377 70.2946 59.072 70.7917 58.9631C71.2936 58.8494 71.7979 58.7595 72.3045 58.6932C72.9674 58.608 73.5048 58.544 73.9167 58.5014C74.3334 58.4541 74.6364 58.3759 74.8258 58.267C75.0199 58.1581 75.117 57.9687 75.117 57.6989V57.642C75.117 56.9413 74.9252 56.3968 74.5417 56.0085C74.1629 55.6203 73.5877 55.4261 72.8159 55.4261C72.0157 55.4261 71.3883 55.6013 70.9338 55.9517C70.4792 56.3021 70.1596 56.6761 69.975 57.0739L68.3841 56.5057C68.6681 55.8428 69.0469 55.3267 69.5204 54.9574C69.9986 54.5833 70.5195 54.3229 71.0829 54.1761C71.6511 54.0246 72.2098 53.9489 72.7591 53.9489C73.1094 53.9489 73.5119 53.9915 73.9664 54.0767C74.4257 54.1572 74.8684 54.3253 75.2946 54.581C75.7254 54.8366 76.0829 55.2225 76.367 55.7386C76.6511 56.2547 76.7931 56.946 76.7931 57.8125V65H75.117V63.5227H75.0318C74.9181 63.7595 74.7288 64.0128 74.4636 64.2827C74.1984 64.5526 73.8457 64.7822 73.4054 64.9716C72.965 65.161 72.4276 65.2557 71.7931 65.2557ZM72.0488 63.75C72.7117 63.75 73.2704 63.6198 73.725 63.3594C74.1842 63.099 74.5299 62.7628 74.7619 62.3509C74.9986 61.9389 75.117 61.5057 75.117 61.0511V59.517C75.046 59.6023 74.8897 59.6804 74.6483 59.7514C74.4115 59.8177 74.1369 59.8769 73.8244 59.929C73.5166 59.9763 73.216 60.0189 72.9224 60.0568C72.6336 60.09 72.3992 60.1184 72.2193 60.142C71.7837 60.1989 71.3765 60.2912 70.9977 60.419C70.6236 60.5421 70.3206 60.7292 70.0886 60.9801C69.8613 61.2263 69.7477 61.5625 69.7477 61.9886C69.7477 62.571 69.9631 63.0114 70.394 63.3097C70.8296 63.6032 71.3812 63.75 72.0488 63.75ZM79.8525 65V54.0909H81.5286V65H79.8525ZM80.7047 52.2727C80.378 52.2727 80.0963 52.1615 79.8596 51.9389C79.6275 51.7164 79.5115 51.4489 79.5115 51.1364C79.5115 50.8239 79.6275 50.5563 79.8596 50.3338C80.0963 50.1113 80.378 50 80.7047 50C81.0314 50 81.3108 50.1113 81.5428 50.3338C81.7795 50.5563 81.8979 50.8239 81.8979 51.1364C81.8979 51.4489 81.7795 51.7164 81.5428 51.9389C81.3108 52.1615 81.0314 52.2727 80.7047 52.2727ZM86.2747 58.4375V65H84.5985V54.0909H86.2179V55.7955H86.3599C86.6156 55.2415 87.0038 54.7964 87.5247 54.4602C88.0455 54.1193 88.7179 53.9489 89.5417 53.9489C90.2804 53.9489 90.9267 54.1004 91.4806 54.4034C92.0346 54.7017 92.4655 55.1562 92.7733 55.767C93.081 56.3731 93.2349 57.1402 93.2349 58.0682V65H91.5588V58.1818C91.5588 57.3248 91.3362 56.6572 90.8912 56.179C90.4461 55.696 89.8353 55.4545 89.0588 55.4545C88.5237 55.4545 88.0455 55.5705 87.6241 55.8026C87.2074 56.0346 86.8784 56.3731 86.6369 56.8182C86.3954 57.2633 86.2747 57.803 86.2747 58.4375ZM101.042 54.0909V55.5114H95.3887V54.0909H101.042ZM97.0364 51.4773H98.7125V61.875C98.7125 62.3485 98.7812 62.7036 98.9185 62.9403C99.0605 63.1723 99.2405 63.3286 99.4583 63.4091C99.6808 63.4848 99.9152 63.5227 100.161 63.5227C100.346 63.5227 100.498 63.5133 100.616 63.4943C100.734 63.4706 100.829 63.4517 100.9 63.4375L101.241 64.9432C101.127 64.9858 100.969 65.0284 100.765 65.071C100.561 65.1184 100.303 65.142 99.9909 65.142C99.5175 65.142 99.0534 65.0402 98.5989 64.8366C98.1491 64.633 97.775 64.3229 97.4767 63.9062C97.1832 63.4896 97.0364 62.964 97.0364 62.3295V51.4773ZM108.02 65.2273C106.969 65.2273 106.062 64.9953 105.3 64.5312C104.542 64.0625 103.958 63.4091 103.546 62.571C103.138 61.7282 102.935 60.7481 102.935 59.6307C102.935 58.5133 103.138 57.5284 103.546 56.6761C103.958 55.8191 104.53 55.1515 105.264 54.6733C106.003 54.1903 106.865 53.9489 107.85 53.9489C108.418 53.9489 108.979 54.0436 109.533 54.233C110.087 54.4223 110.591 54.7301 111.046 55.1562C111.5 55.5777 111.862 56.1364 112.132 56.8324C112.402 57.5284 112.537 58.3854 112.537 59.4034V60.1136H104.128V58.6648H110.833C110.833 58.0492 110.709 57.5 110.463 57.017C110.222 56.5341 109.876 56.1529 109.426 55.8736C108.981 55.5942 108.456 55.4545 107.85 55.4545C107.182 55.4545 106.604 55.6203 106.117 55.9517C105.634 56.2784 105.262 56.7045 105.002 57.2301C104.741 57.7557 104.611 58.3191 104.611 58.9205V59.8864C104.611 60.7102 104.753 61.4086 105.037 61.9815C105.326 62.5497 105.726 62.983 106.237 63.2812C106.749 63.5748 107.343 63.7216 108.02 63.7216C108.46 63.7216 108.858 63.66 109.213 63.5369C109.573 63.4091 109.883 63.2197 110.144 62.9688C110.404 62.7131 110.605 62.3958 110.747 62.017L112.367 62.4716C112.196 63.0208 111.91 63.5038 111.507 63.9205C111.105 64.3324 110.608 64.6544 110.016 64.8864C109.424 65.1136 108.759 65.2273 108.02 65.2273ZM119.206 65.2273C118.297 65.2273 117.494 64.9976 116.798 64.5384C116.102 64.0743 115.558 63.4209 115.165 62.5781C114.772 61.7306 114.575 60.7292 114.575 59.5739C114.575 58.428 114.772 57.4337 115.165 56.5909C115.558 55.7481 116.105 55.0971 116.806 54.6378C117.506 54.1785 118.316 53.9489 119.235 53.9489C119.945 53.9489 120.506 54.0672 120.918 54.304C121.334 54.536 121.652 54.8011 121.869 55.0994C122.092 55.393 122.265 55.6345 122.388 55.8239H122.53V50.4545H124.206V65H122.587V63.3239H122.388C122.265 63.5227 122.09 63.7737 121.862 64.0767C121.635 64.375 121.311 64.6425 120.889 64.8793C120.468 65.1113 119.907 65.2273 119.206 65.2273ZM119.433 63.7216C120.106 63.7216 120.674 63.5464 121.138 63.196C121.602 62.8409 121.955 62.3509 122.196 61.7259C122.438 61.0961 122.558 60.3693 122.558 59.5455C122.558 58.7311 122.44 58.0185 122.203 57.4077C121.967 56.7921 121.616 56.3139 121.152 55.973C120.688 55.6274 120.115 55.4545 119.433 55.4545C118.723 55.4545 118.131 55.6368 117.658 56.0014C117.189 56.3613 116.836 56.8513 116.6 57.4716C116.368 58.0871 116.252 58.7784 116.252 59.5455C116.252 60.322 116.37 61.0275 116.607 61.6619C116.848 62.2917 117.203 62.7936 117.672 63.1676C118.146 63.5369 118.733 63.7216 119.433 63.7216ZM21.8624 78.0909V79.5114H16.209V78.0909H21.8624ZM17.8567 75.4773H19.5328V85.875C19.5328 86.3485 19.6015 86.7036 19.7388 86.9403C19.8809 87.1723 20.0608 87.3286 20.2786 87.4091C20.5011 87.4848 20.7355 87.5227 20.9817 87.5227C21.1664 87.5227 21.3179 87.5133 21.4363 87.4943C21.5546 87.4706 21.6493 87.4517 21.7203 87.4375L22.0613 88.9432C21.9476 88.9858 21.789 89.0284 21.5854 89.071C21.3818 89.1184 21.1238 89.142 20.8113 89.142C20.3378 89.142 19.8738 89.0402 19.4192 88.8366C18.9694 88.633 18.5953 88.3229 18.2971 87.9062C18.0035 87.4896 17.8567 86.964 17.8567 86.3295V75.4773ZM26.2942 82.4375V89H24.6181V74.4545H26.2942V79.7955H26.4363C26.6919 79.232 27.0755 78.7846 27.5868 78.4531C28.1029 78.117 28.7895 77.9489 29.6465 77.9489C30.3899 77.9489 31.0409 78.098 31.5996 78.3963C32.1583 78.6899 32.5916 79.142 32.8993 79.7528C33.2118 80.3589 33.3681 81.1307 33.3681 82.0682V89H31.6919V82.1818C31.6919 81.3153 31.467 80.6454 31.0172 80.1719C30.5721 79.6937 29.9542 79.4545 29.1635 79.4545C28.6143 79.4545 28.1219 79.5705 27.6863 79.8026C27.2554 80.0346 26.9145 80.3731 26.6635 80.8182C26.4173 81.2633 26.2942 81.803 26.2942 82.4375ZM41.0083 89.2273C39.9572 89.2273 39.0505 88.9953 38.2882 88.5312C37.5306 88.0625 36.9458 87.4091 36.5339 86.571C36.1267 85.7282 35.9231 84.7481 35.9231 83.6307C35.9231 82.5133 36.1267 81.5284 36.5339 80.6761C36.9458 79.8191 37.5188 79.1515 38.2527 78.6733C38.9913 78.1903 39.853 77.9489 40.8379 77.9489C41.4061 77.9489 41.9672 78.0436 42.5211 78.233C43.0751 78.4223 43.5794 78.7301 44.0339 79.1562C44.4885 79.5777 44.8507 80.1364 45.1206 80.8324C45.3904 81.5284 45.5254 82.3854 45.5254 83.4034V84.1136H37.1163V82.6648H43.8208C43.8208 82.0492 43.6977 81.5 43.4515 81.017C43.21 80.5341 42.8644 80.1529 42.4146 79.8736C41.9695 79.5942 41.444 79.4545 40.8379 79.4545C40.1703 79.4545 39.5926 79.6203 39.1049 79.9517C38.622 80.2784 38.2503 80.7045 37.9899 81.2301C37.7295 81.7557 37.5993 82.3191 37.5993 82.9205V83.8864C37.5993 84.7102 37.7413 85.4086 38.0254 85.9815C38.3142 86.5497 38.7143 86.983 39.2257 87.2812C39.737 87.5748 40.3313 87.7216 41.0083 87.7216C41.4487 87.7216 41.8464 87.66 42.2015 87.5369C42.5614 87.4091 42.8715 87.2197 43.1319 86.9688C43.3923 86.7131 43.5936 86.3958 43.7356 86.017L45.3549 86.4716C45.1845 87.0208 44.898 87.5038 44.4956 87.9205C44.0931 88.3324 43.5959 88.6544 43.0041 88.8864C42.4122 89.1136 41.747 89.2273 41.0083 89.2273ZM53.7001 93.0909V78.0909H55.3194V79.8239H55.5183C55.6414 79.6345 55.8118 79.393 56.0297 79.0994C56.2522 78.8011 56.5694 78.536 56.9814 78.304C57.398 78.0672 57.9615 77.9489 58.6717 77.9489C59.5903 77.9489 60.3999 78.1785 61.1007 78.6378C61.8014 79.0971 62.3483 79.7481 62.7413 80.5909C63.1343 81.4337 63.3308 82.428 63.3308 83.5739C63.3308 84.7292 63.1343 85.7306 62.7413 86.5781C62.3483 87.4209 61.8038 88.0743 61.1078 88.5384C60.4118 88.9976 59.6092 89.2273 58.7001 89.2273C57.9993 89.2273 57.4383 89.1113 57.0169 88.8793C56.5955 88.6425 56.2711 88.375 56.0439 88.0767C55.8166 87.7737 55.6414 87.5227 55.5183 87.3239H55.3762V93.0909H53.7001ZM55.3478 83.5455C55.3478 84.3693 55.4686 85.0961 55.71 85.7259C55.9515 86.3509 56.3043 86.8409 56.7683 87.196C57.2323 87.5464 57.8005 87.7216 58.4728 87.7216C59.1736 87.7216 59.7583 87.5369 60.2271 87.1676C60.7006 86.7936 61.0557 86.2917 61.2924 85.6619C61.5339 85.0275 61.6547 84.322 61.6547 83.5455C61.6547 82.7784 61.5363 82.0871 61.2995 81.4716C61.0675 80.8513 60.7148 80.3613 60.2413 80.0014C59.7725 79.6368 59.1831 79.4545 58.4728 79.4545C57.791 79.4545 57.2181 79.6274 56.7541 79.973C56.2901 80.3139 55.9397 80.7921 55.7029 81.4077C55.4662 82.0185 55.3478 82.7311 55.3478 83.5455ZM65.8876 89V78.0909H67.5637V89H65.8876ZM66.7399 76.2727C66.4132 76.2727 66.1315 76.1615 65.8947 75.9389C65.6627 75.7164 65.5467 75.4489 65.5467 75.1364C65.5467 74.8239 65.6627 74.5563 65.8947 74.3338C66.1315 74.1113 66.4132 74 66.7399 74C67.0666 74 67.3459 74.1113 67.5779 74.3338C67.8147 74.5563 67.9331 74.8239 67.9331 75.1364C67.9331 75.4489 67.8147 75.7164 67.5779 75.9389C67.3459 76.1615 67.0666 76.2727 66.7399 76.2727ZM75.0655 89.2273C74.0428 89.2273 73.1621 88.9858 72.4235 88.5028C71.6848 88.0199 71.1167 87.3546 70.7189 86.5071C70.3212 85.6596 70.1223 84.6913 70.1223 83.6023C70.1223 82.4943 70.3259 81.5166 70.7331 80.669C71.1451 79.8168 71.718 79.1515 72.4519 78.6733C73.1905 78.1903 74.0523 77.9489 75.0371 77.9489C75.8042 77.9489 76.4954 78.0909 77.111 78.375C77.7265 78.6591 78.2308 79.0568 78.6238 79.5682C79.0167 80.0795 79.2606 80.6761 79.3553 81.358H77.6792C77.5513 80.8608 77.2672 80.4205 76.8269 80.0369C76.3913 79.6487 75.8042 79.4545 75.0655 79.4545C74.4121 79.4545 73.8392 79.625 73.3468 79.9659C72.8591 80.3021 72.4779 80.7779 72.2033 81.3935C71.9334 82.0043 71.7985 82.7216 71.7985 83.5455C71.7985 84.3883 71.931 85.1222 72.1962 85.7472C72.4661 86.3722 72.8449 86.8575 73.3326 87.2031C73.825 87.5488 74.4026 87.7216 75.0655 87.7216C75.5011 87.7216 75.8965 87.6458 76.2516 87.4943C76.6067 87.3428 76.9074 87.125 77.1536 86.8409C77.3998 86.5568 77.575 86.2159 77.6792 85.8182H79.3553C79.2606 86.4621 79.0262 87.0421 78.6522 87.5582C78.2828 88.0696 77.7928 88.4768 77.182 88.7798C76.5759 89.0781 75.8704 89.2273 75.0655 89.2273ZM86.5499 78.0909V79.5114H80.8965V78.0909H86.5499ZM82.5442 75.4773H84.2203V85.875C84.2203 86.3485 84.289 86.7036 84.4263 86.9403C84.5684 87.1723 84.7483 87.3286 84.9661 87.4091C85.1886 87.4848 85.423 87.5227 85.6692 87.5227C85.8539 87.5227 86.0054 87.5133 86.1238 87.4943C86.2421 87.4706 86.3368 87.4517 86.4078 87.4375L86.7488 88.9432C86.6351 88.9858 86.4765 89.0284 86.2729 89.071C86.0693 89.1184 85.8113 89.142 85.4988 89.142C85.0253 89.142 84.5613 89.0402 84.1067 88.8366C83.6569 88.633 83.2828 88.3229 82.9846 87.9062C82.691 87.4896 82.5442 86.964 82.5442 86.3295V75.4773ZM95.9462 84.5398V78.0909H97.6223V89H95.9462V87.1534H95.8326C95.5769 87.7074 95.1792 88.1785 94.6394 88.5668C94.0996 88.9503 93.4178 89.142 92.5939 89.142C91.9121 89.142 91.306 88.9929 90.7757 88.6946C90.2454 88.3916 89.8288 87.937 89.5257 87.331C89.2227 86.7202 89.0712 85.9508 89.0712 85.0227V78.0909H90.7473V84.9091C90.7473 85.7045 90.9699 86.339 91.415 86.8125C91.8648 87.286 92.4377 87.5227 93.1337 87.5227C93.5504 87.5227 93.9741 87.4162 94.405 87.2031C94.8406 86.9901 95.2052 86.6634 95.4988 86.223C95.7971 85.7827 95.9462 85.2216 95.9462 84.5398ZM100.692 89V78.0909H102.312V79.7386H102.425C102.624 79.1989 102.984 78.7609 103.505 78.4247C104.026 78.0885 104.613 77.9205 105.266 77.9205C105.389 77.9205 105.543 77.9228 105.728 77.9276C105.912 77.9323 106.052 77.9394 106.147 77.9489V79.6534C106.09 79.6392 105.96 79.6179 105.756 79.5895C105.557 79.5563 105.347 79.5398 105.124 79.5398C104.594 79.5398 104.12 79.651 103.704 79.8736C103.292 80.0914 102.965 80.3944 102.724 80.7827C102.487 81.1662 102.368 81.6042 102.368 82.0966V89H100.692ZM112.376 89.2273C111.324 89.2273 110.418 88.9953 109.655 88.5312C108.898 88.0625 108.313 87.4091 107.901 86.571C107.494 85.7282 107.29 84.7481 107.29 83.6307C107.29 82.5133 107.494 81.5284 107.901 80.6761C108.313 79.8191 108.886 79.1515 109.62 78.6733C110.358 78.1903 111.22 77.9489 112.205 77.9489C112.773 77.9489 113.334 78.0436 113.888 78.233C114.442 78.4223 114.947 78.7301 115.401 79.1562C115.856 79.5777 116.218 80.1364 116.488 80.8324C116.758 81.5284 116.893 82.3854 116.893 83.4034V84.1136H108.483V82.6648H115.188C115.188 82.0492 115.065 81.5 114.819 81.017C114.577 80.5341 114.232 80.1529 113.782 79.8736C113.337 79.5942 112.811 79.4545 112.205 79.4545C111.537 79.4545 110.96 79.6203 110.472 79.9517C109.989 80.2784 109.617 80.7045 109.357 81.2301C109.097 81.7557 108.966 82.3191 108.966 82.9205V83.8864C108.966 84.7102 109.108 85.4086 109.393 85.9815C109.681 86.5497 110.081 86.983 110.593 87.2812C111.104 87.5748 111.698 87.7216 112.376 87.7216C112.816 87.7216 113.214 87.66 113.569 87.5369C113.929 87.4091 114.239 87.2197 114.499 86.9688C114.76 86.7131 114.961 86.3958 115.103 86.017L116.722 86.4716C116.552 87.0208 116.265 87.5038 115.863 87.9205C115.46 88.3324 114.963 88.6544 114.371 88.8864C113.779 89.1136 113.114 89.2273 112.376 89.2273ZM120.664 89.1136C120.314 89.1136 120.013 88.9882 119.762 88.7372C119.511 88.4863 119.385 88.1856 119.385 87.8352C119.385 87.4848 119.511 87.1842 119.762 86.9332C120.013 86.6823 120.314 86.5568 120.664 86.5568C121.014 86.5568 121.315 86.6823 121.566 86.9332C121.817 87.1842 121.942 87.4848 121.942 87.8352C121.942 88.0672 121.883 88.2803 121.765 88.4744C121.651 88.6686 121.497 88.8248 121.303 88.9432C121.114 89.0568 120.901 89.1136 120.664 89.1136Z"></path>
</svg>
