<svg xmlns="http://www.w3.org/2000/svg" fill="none" viewBox="0 0 139 164" height="164" width="139">
<path fill="#EEC638" d="M0 20C0 8.95431 8.95431 0 20 0H119C130.046 0 139 8.95431 139 20V144C139 155.046 130.046 164 119 164H20C8.95431 164 0 155.046 0 144V20Z"></path>
<path fill="black" d="M36.2102 135.455V150H34.5341V135.455H36.2102ZM43.854 150.227C42.8029 150.227 41.8962 149.995 41.1339 149.531C40.3763 149.062 39.7915 148.409 39.3796 147.571C38.9724 146.728 38.7688 145.748 38.7688 144.631C38.7688 143.513 38.9724 142.528 39.3796 141.676C39.7915 140.819 40.3645 140.152 41.0984 139.673C41.837 139.19 42.6987 138.949 43.6836 138.949C44.2518 138.949 44.8129 139.044 45.3668 139.233C45.9208 139.422 46.4251 139.73 46.8796 140.156C47.3342 140.578 47.6964 141.136 47.9663 141.832C48.2362 142.528 48.3711 143.385 48.3711 144.403V145.114H39.962V143.665H46.6665C46.6665 143.049 46.5434 142.5 46.2972 142.017C46.0558 141.534 45.7101 141.153 45.2603 140.874C44.8152 140.594 44.2897 140.455 43.6836 140.455C43.016 140.455 42.4383 140.62 41.9506 140.952C41.4677 141.278 41.096 141.705 40.8356 142.23C40.5752 142.756 40.445 143.319 40.445 143.92V144.886C40.445 145.71 40.587 146.409 40.8711 146.982C41.1599 147.55 41.56 147.983 42.0714 148.281C42.5827 148.575 43.177 148.722 43.854 148.722C44.2944 148.722 44.6921 148.66 45.0472 148.537C45.4071 148.409 45.7172 148.22 45.9776 147.969C46.238 147.713 46.4393 147.396 46.5813 147.017L48.2006 147.472C48.0302 148.021 47.7437 148.504 47.3413 148.92C46.9388 149.332 46.4416 149.654 45.8498 149.886C45.2579 150.114 44.5927 150.227 43.854 150.227ZM55.6651 139.091V140.511H50.0117V139.091H55.6651ZM51.6594 136.477H53.3356V146.875C53.3356 147.348 53.4042 147.704 53.5415 147.94C53.6836 148.172 53.8635 148.329 54.0813 148.409C54.3039 148.485 54.5382 148.523 54.7844 148.523C54.9691 148.523 55.1206 148.513 55.239 148.494C55.3574 148.471 55.4521 148.452 55.5231 148.438L55.864 149.943C55.7504 149.986 55.5917 150.028 55.3881 150.071C55.1845 150.118 54.9265 150.142 54.614 150.142C54.1405 150.142 53.6765 150.04 53.2219 149.837C52.7721 149.633 52.3981 149.323 52.0998 148.906C51.8062 148.49 51.6594 147.964 51.6594 147.33V136.477ZM62.9308 139.091V140.511H57.2773V139.091H62.9308ZM58.9251 136.477H60.6012V146.875C60.6012 147.348 60.6699 147.704 60.8072 147.94C60.9492 148.172 61.1291 148.329 61.3469 148.409C61.5695 148.485 61.8039 148.523 62.0501 148.523C62.2347 148.523 62.3862 148.513 62.5046 148.494C62.623 148.471 62.7177 148.452 62.7887 148.438L63.1296 149.943C63.016 149.986 62.8574 150.028 62.6538 150.071C62.4502 150.118 62.1921 150.142 61.8796 150.142C61.4061 150.142 60.9421 150.04 60.4876 149.837C60.0378 149.633 59.6637 149.323 59.3654 148.906C59.0719 148.49 58.9251 147.964 58.9251 147.33V136.477ZM69.9087 150.227C68.8576 150.227 67.9509 149.995 67.1886 149.531C66.431 149.062 65.8462 148.409 65.4343 147.571C65.0271 146.728 64.8235 145.748 64.8235 144.631C64.8235 143.513 65.0271 142.528 65.4343 141.676C65.8462 140.819 66.4192 140.152 67.1531 139.673C67.8917 139.19 68.7534 138.949 69.7383 138.949C70.3065 138.949 70.8675 139.044 71.4215 139.233C71.9755 139.422 72.4798 139.73 72.9343 140.156C73.3888 140.578 73.7511 141.136 74.021 141.832C74.2908 142.528 74.4258 143.385 74.4258 144.403V145.114H66.0167V143.665H72.7212C72.7212 143.049 72.5981 142.5 72.3519 142.017C72.1104 141.534 71.7648 141.153 71.315 140.874C70.8699 140.594 70.3443 140.455 69.7383 140.455C69.0707 140.455 68.493 140.62 68.0053 140.952C67.5224 141.278 67.1507 141.705 66.8903 142.23C66.6299 142.756 66.4996 143.319 66.4996 143.92V144.886C66.4996 145.71 66.6417 146.409 66.9258 146.982C67.2146 147.55 67.6147 147.983 68.1261 148.281C68.6374 148.575 69.2317 148.722 69.9087 148.722C70.3491 148.722 70.7468 148.66 71.1019 148.537C71.4618 148.409 71.7719 148.22 72.0323 147.969C72.2927 147.713 72.494 147.396 72.636 147.017L74.2553 147.472C74.0849 148.021 73.7984 148.504 73.396 148.92C72.9935 149.332 72.4963 149.654 71.9045 149.886C71.3126 150.114 70.6474 150.227 69.9087 150.227ZM76.9755 150V139.091H78.5948V140.739H78.7085C78.9073 140.199 79.2672 139.761 79.788 139.425C80.3088 139.089 80.896 138.92 81.5494 138.92C81.6725 138.92 81.8263 138.923 82.011 138.928C82.1957 138.932 82.3353 138.939 82.43 138.949V140.653C82.3732 140.639 82.243 140.618 82.0394 140.589C81.8406 140.556 81.6299 140.54 81.4073 140.54C80.877 140.54 80.4035 140.651 79.9869 140.874C79.5749 141.091 79.2482 141.394 79.0067 141.783C78.77 142.166 78.6516 142.604 78.6516 143.097V150H76.9755ZM94.7578 150H90.2692V135.455H94.9567C96.3677 135.455 97.575 135.746 98.5788 136.328C99.5826 136.906 100.352 137.737 100.887 138.821C101.422 139.901 101.69 141.193 101.69 142.699C101.69 144.214 101.42 145.518 100.88 146.612C100.34 147.701 99.5542 148.539 98.522 149.126C97.4898 149.709 96.2351 150 94.7578 150ZM92.0305 148.438H94.6442C95.8468 148.438 96.8435 148.205 97.6342 147.741C98.425 147.277 99.0144 146.617 99.4027 145.76C99.791 144.903 99.9851 143.883 99.9851 142.699C99.9851 141.525 99.7933 140.514 99.4098 139.666C99.0263 138.814 98.4534 138.161 97.6911 137.706C96.9287 137.247 95.9794 137.017 94.843 137.017H92.0305V148.438Z"></path>
<path fill="black" d="M22.8992 75H20.1294L28.1407 53.1818H30.868L38.8794 75H36.1095L29.5896 56.6335H29.4191L22.8992 75ZM23.922 66.4773H35.0867V68.821H23.922V66.4773ZM48.1159 75.3409C46.7522 75.3409 45.5484 74.9964 44.5044 74.3075C43.4603 73.6115 42.6436 72.6314 42.0541 71.3672C41.4646 70.0959 41.1698 68.5938 41.1698 66.8608C41.1698 65.142 41.4646 63.6506 42.0541 62.3864C42.6436 61.1222 43.4639 60.1456 44.515 59.4567C45.5661 58.7678 46.7806 58.4233 48.1585 58.4233C49.2238 58.4233 50.0654 58.6009 50.6833 58.956C51.3083 59.304 51.7842 59.7017 52.1109 60.1491C52.4447 60.5895 52.7039 60.9517 52.8886 61.2358H53.1017V53.1818H55.6159V75H53.1869V72.4858H52.8886C52.7039 72.7841 52.4411 73.1605 52.1002 73.6151C51.7593 74.0625 51.2728 74.4638 50.6407 74.8189C50.0086 75.1669 49.167 75.3409 48.1159 75.3409ZM48.4568 73.0824C49.4653 73.0824 50.3176 72.8196 51.0136 72.294C51.7096 71.7614 52.2387 71.0263 52.6009 70.0888C52.9632 69.1442 53.1443 68.054 53.1443 66.8182C53.1443 65.5966 52.9667 64.5277 52.6116 63.6115C52.2565 62.6882 51.7309 61.9709 51.0349 61.4595C50.3389 60.9411 49.4795 60.6818 48.4568 60.6818C47.3914 60.6818 46.5036 60.9553 45.7934 61.5021C45.0903 62.0419 44.5612 62.777 44.2061 63.7074C43.858 64.6307 43.684 65.6676 43.684 66.8182C43.684 67.983 43.8616 69.0412 44.2167 69.9929C44.5789 70.9375 45.1116 71.6903 45.8147 72.2514C46.5249 72.8054 47.4056 73.0824 48.4568 73.0824ZM73.9504 58.6364L67.8992 75H65.3424L59.2913 58.6364H62.0186L66.5356 71.6761H66.7061L71.2231 58.6364H73.9504ZM83.5438 75.3409C81.9671 75.3409 80.607 74.9929 79.4635 74.2969C78.3271 73.5938 77.45 72.6136 76.8321 71.3565C76.2213 70.0923 75.9159 68.6222 75.9159 66.946C75.9159 65.2699 76.2213 63.7926 76.8321 62.5142C77.45 61.2287 78.3094 60.2273 79.4102 59.5099C80.5182 58.7855 81.8108 58.4233 83.2881 58.4233C84.1404 58.4233 84.982 58.5653 85.8129 58.8494C86.6439 59.1335 87.4003 59.5952 88.0821 60.2344C88.7639 60.8665 89.3073 61.7045 89.7121 62.7486C90.1169 63.7926 90.3193 65.0781 90.3193 66.6051V67.6705H77.7057V65.4972H87.7625C87.7625 64.5739 87.5779 63.75 87.2085 63.0256C86.8463 62.3011 86.3279 61.7294 85.6531 61.3104C84.9855 60.8913 84.1972 60.6818 83.2881 60.6818C82.2867 60.6818 81.4202 60.9304 80.6887 61.4276C79.9642 61.9176 79.4067 62.5568 79.0161 63.3452C78.6254 64.1335 78.4301 64.9787 78.4301 65.8807V67.3295C78.4301 68.5653 78.6432 69.6129 79.0693 70.4723C79.5026 71.3246 80.1027 71.9744 80.8698 72.4219C81.6368 72.8622 82.5281 73.0824 83.5438 73.0824C84.2043 73.0824 84.8009 72.9901 85.3335 72.8054C85.8733 72.6136 86.3385 72.3295 86.7291 71.9531C87.1198 71.5696 87.4216 71.0937 87.6347 70.5256L90.0637 71.2074C89.808 72.0312 89.3783 72.7557 88.7746 73.3807C88.1709 73.9986 87.4252 74.4815 86.5374 74.8295C85.6496 75.1705 84.6517 75.3409 83.5438 75.3409ZM94.1439 75V58.6364H96.5729V61.108H96.7433C97.0416 60.2983 97.5814 59.6413 98.3627 59.1371C99.1439 58.6328 100.025 58.3807 101.005 58.3807C101.189 58.3807 101.42 58.3842 101.697 58.3913C101.974 58.3984 102.184 58.4091 102.326 58.4233V60.9801C102.241 60.9588 102.045 60.9268 101.74 60.8842C101.441 60.8345 101.125 60.8097 100.792 60.8097C99.9962 60.8097 99.286 60.9766 98.661 61.3104C98.0431 61.6371 97.553 62.0916 97.1908 62.674C96.8357 63.2493 96.6581 63.9062 96.6581 64.6449V75H94.1439ZM105.647 75V53.1818H108.161V61.2358H108.374C108.559 60.9517 108.815 60.5895 109.141 60.1491C109.475 59.7017 109.951 59.304 110.569 58.956C111.194 58.6009 112.039 58.4233 113.104 58.4233C114.482 58.4233 115.697 58.7678 116.748 59.4567C117.799 60.1456 118.619 61.1222 119.209 62.3864C119.798 63.6506 120.093 65.142 120.093 66.8608C120.093 68.5938 119.798 70.0959 119.209 71.3672C118.619 72.6314 117.802 73.6115 116.758 74.3075C115.714 74.9964 114.511 75.3409 113.147 75.3409C112.096 75.3409 111.254 75.1669 110.622 74.8189C109.99 74.4638 109.503 74.0625 109.163 73.6151C108.822 73.1605 108.559 72.7841 108.374 72.4858H108.076V75H105.647ZM108.119 66.8182C108.119 68.054 108.3 69.1442 108.662 70.0888C109.024 71.0263 109.553 71.7614 110.249 72.294C110.945 72.8196 111.797 73.0824 112.806 73.0824C113.857 73.0824 114.734 72.8054 115.437 72.2514C116.148 71.6903 116.68 70.9375 117.035 69.9929C117.398 69.0412 117.579 67.983 117.579 66.8182C117.579 65.6676 117.401 64.6307 117.046 63.7074C116.698 62.777 116.169 62.0419 115.459 61.5021C114.756 60.9553 113.871 60.6818 112.806 60.6818C111.783 60.6818 110.924 60.9411 110.228 61.4595C109.532 61.9709 109.006 62.6882 108.651 63.6115C108.296 64.5277 108.119 65.5966 108.119 66.8182Z"></path>
</svg>
