<svg version="1.1" xmlns="http://www.w3.org/2000/svg" xmlns:xlink="http://www.w3.org/1999/xlink" width="529.26829" height="400.6664" viewBox="0,0,529.26829,400.6664"><defs><linearGradient x1="-129.26005" y1="-103.67902" x2="387.2827" y2="-103.67902" gradientUnits="userSpaceOnUse" id="color-1"><stop offset="0" stop-color="#d600ff"/><stop offset="1" stop-color="#005cff"/></linearGradient><radialGradient cx="240" cy="180" r="63.5" gradientUnits="userSpaceOnUse" id="color-2"><stop offset="0" stop-color="#005cff"/><stop offset="1" stop-color="#d600ff"/></radialGradient></defs><g transform="translate(24.63414,30.4225)"><g data-paper-data="{&quot;isPaintingLayer&quot;:true}" fill-rule="nonzero" stroke-linecap="butt" stroke-linejoin="miter" stroke-miterlimit="10" stroke-dasharray="" stroke-dashoffset="0" style="mix-blend-mode: normal"><path d="M-24.63414,370.2439v-380.4878h529.26829v380.4878z" fill="#9966ff" stroke="none" stroke-width="NaN"/><path d="M44.01475,90.4225l-62.28581,-120.845h516.54211l-67.65445,120.845z" fill="url(#color-1)" stroke="#ffffff" stroke-width="0"/><text transform="translate(131.88059,47.76875) scale(0.5,0.5)" font-size="40" xml:space="preserve" fill="#ffffff" fill-rule="nonzero" stroke="none" stroke-width="1" stroke-linecap="butt" stroke-linejoin="miter" stroke-miterlimit="10" stroke-dasharray="" stroke-dashoffset="0" font-family="Sans Serif" font-weight="normal" text-anchor="start" style="mix-blend-mode: normal"><tspan x="0" dy="0">General Subjects Trivia</tspan></text><path d="M176.5,180c0,-35.07008 28.42992,-63.5 63.5,-63.5c35.07008,0 63.5,28.42992 63.5,63.5c0,35.07008 -28.42992,63.5 -63.5,63.5c-35.07008,0 -63.5,-28.42992 -63.5,-63.5z" fill="url(#color-2)" stroke="none" stroke-width="1"/><path d="M276.5,179.5l-61,32v-64z" fill-opacity="0.75" fill="#ffffff" stroke="none" stroke-width="1"/><text transform="translate(123.275,275.76875) scale(0.5,0.5)" font-size="40" xml:space="preserve" fill="#000000" fill-rule="nonzero" stroke="none" stroke-width="1" stroke-linecap="butt" stroke-linejoin="miter" stroke-miterlimit="10" stroke-dasharray="" stroke-dashoffset="0" font-family="Sans Serif" font-weight="normal" text-anchor="start" style="mix-blend-mode: normal"><tspan x="0" dy="0">Press green flag to play.</tspan></text></g></g></svg>