<svg xmlns="http://www.w3.org/2000/svg" fill="none" viewBox="0 0 139 164" height="164" width="139">
<path fill="#EE6338" d="M0 20C0 8.95431 8.95431 0 20 0H119C130.046 0 139 8.95431 139 20V144C139 155.046 130.046 164 119 164H20C8.95431 164 0 155.046 0 144V20Z"></path>
<path fill="black" d="M36.2102 135.455V150H34.5341V135.455H36.2102ZM43.854 150.227C42.8029 150.227 41.8962 149.995 41.1339 149.531C40.3763 149.062 39.7915 148.409 39.3796 147.571C38.9724 146.728 38.7688 145.748 38.7688 144.631C38.7688 143.513 38.9724 142.528 39.3796 141.676C39.7915 140.819 40.3645 140.152 41.0984 139.673C41.837 139.19 42.6987 138.949 43.6836 138.949C44.2518 138.949 44.8129 139.044 45.3668 139.233C45.9208 139.422 46.4251 139.73 46.8796 140.156C47.3342 140.578 47.6964 141.136 47.9663 141.832C48.2362 142.528 48.3711 143.385 48.3711 144.403V145.114H39.962V143.665H46.6665C46.6665 143.049 46.5434 142.5 46.2972 142.017C46.0558 141.534 45.7101 141.153 45.2603 140.874C44.8152 140.594 44.2897 140.455 43.6836 140.455C43.016 140.455 42.4383 140.62 41.9506 140.952C41.4677 141.278 41.096 141.705 40.8356 142.23C40.5752 142.756 40.445 143.319 40.445 143.92V144.886C40.445 145.71 40.587 146.409 40.8711 146.982C41.1599 147.55 41.56 147.983 42.0714 148.281C42.5827 148.575 43.177 148.722 43.854 148.722C44.2944 148.722 44.6921 148.66 45.0472 148.537C45.4071 148.409 45.7172 148.22 45.9776 147.969C46.238 147.713 46.4393 147.396 46.5813 147.017L48.2006 147.472C48.0302 148.021 47.7437 148.504 47.3413 148.92C46.9388 149.332 46.4416 149.654 45.8498 149.886C45.2579 150.114 44.5927 150.227 43.854 150.227ZM55.6651 139.091V140.511H50.0117V139.091H55.6651ZM51.6594 136.477H53.3356V146.875C53.3356 147.348 53.4042 147.704 53.5415 147.94C53.6836 148.172 53.8635 148.329 54.0813 148.409C54.3039 148.485 54.5382 148.523 54.7844 148.523C54.9691 148.523 55.1206 148.513 55.239 148.494C55.3574 148.471 55.4521 148.452 55.5231 148.438L55.864 149.943C55.7504 149.986 55.5917 150.028 55.3881 150.071C55.1845 150.118 54.9265 150.142 54.614 150.142C54.1405 150.142 53.6765 150.04 53.2219 149.837C52.7721 149.633 52.3981 149.323 52.0998 148.906C51.8062 148.49 51.6594 147.964 51.6594 147.33V136.477ZM62.9308 139.091V140.511H57.2773V139.091H62.9308ZM58.9251 136.477H60.6012V146.875C60.6012 147.348 60.6699 147.704 60.8072 147.94C60.9492 148.172 61.1291 148.329 61.3469 148.409C61.5695 148.485 61.8039 148.523 62.0501 148.523C62.2347 148.523 62.3862 148.513 62.5046 148.494C62.623 148.471 62.7177 148.452 62.7887 148.438L63.1296 149.943C63.016 149.986 62.8574 150.028 62.6538 150.071C62.4502 150.118 62.1921 150.142 61.8796 150.142C61.4061 150.142 60.9421 150.04 60.4876 149.837C60.0378 149.633 59.6637 149.323 59.3654 148.906C59.0719 148.49 58.9251 147.964 58.9251 147.33V136.477ZM69.9087 150.227C68.8576 150.227 67.9509 149.995 67.1886 149.531C66.431 149.062 65.8462 148.409 65.4343 147.571C65.0271 146.728 64.8235 145.748 64.8235 144.631C64.8235 143.513 65.0271 142.528 65.4343 141.676C65.8462 140.819 66.4192 140.152 67.1531 139.673C67.8917 139.19 68.7534 138.949 69.7383 138.949C70.3065 138.949 70.8675 139.044 71.4215 139.233C71.9755 139.422 72.4798 139.73 72.9343 140.156C73.3888 140.578 73.7511 141.136 74.021 141.832C74.2908 142.528 74.4258 143.385 74.4258 144.403V145.114H66.0167V143.665H72.7212C72.7212 143.049 72.5981 142.5 72.3519 142.017C72.1104 141.534 71.7648 141.153 71.315 140.874C70.8699 140.594 70.3443 140.455 69.7383 140.455C69.0707 140.455 68.493 140.62 68.0053 140.952C67.5224 141.278 67.1507 141.705 66.8903 142.23C66.6299 142.756 66.4996 143.319 66.4996 143.92V144.886C66.4996 145.71 66.6417 146.409 66.9258 146.982C67.2146 147.55 67.6147 147.983 68.1261 148.281C68.6374 148.575 69.2317 148.722 69.9087 148.722C70.3491 148.722 70.7468 148.66 71.1019 148.537C71.4618 148.409 71.7719 148.22 72.0323 147.969C72.2927 147.713 72.494 147.396 72.636 147.017L74.2553 147.472C74.0849 148.021 73.7984 148.504 73.396 148.92C72.9935 149.332 72.4963 149.654 71.9045 149.886C71.3126 150.114 70.6474 150.227 69.9087 150.227ZM76.9755 150V139.091H78.5948V140.739H78.7085C78.9073 140.199 79.2672 139.761 79.788 139.425C80.3088 139.089 80.896 138.92 81.5494 138.92C81.6725 138.92 81.8263 138.923 82.011 138.928C82.1957 138.932 82.3353 138.939 82.43 138.949V140.653C82.3732 140.639 82.243 140.618 82.0394 140.589C81.8406 140.556 81.6299 140.54 81.4073 140.54C80.877 140.54 80.4035 140.651 79.9869 140.874C79.5749 141.091 79.2482 141.394 79.0067 141.783C78.77 142.166 78.6516 142.604 78.6516 143.097V150H76.9755ZM101.974 140H100.212C100.108 139.493 99.9259 139.048 99.6655 138.665C99.4098 138.281 99.0973 137.959 98.728 137.699C98.3634 137.434 97.9586 137.235 97.5135 137.102C97.0684 136.97 96.6044 136.903 96.1214 136.903C95.2408 136.903 94.4429 137.126 93.728 137.571C93.0178 138.016 92.4519 138.672 92.0305 139.538C91.6139 140.405 91.4055 141.468 91.4055 142.727C91.4055 143.987 91.6139 145.05 92.0305 145.916C92.4519 146.783 93.0178 147.438 93.728 147.884C94.4429 148.329 95.2408 148.551 96.1214 148.551C96.6044 148.551 97.0684 148.485 97.5135 148.352C97.9586 148.22 98.3634 148.023 98.728 147.763C99.0973 147.498 99.4098 147.173 99.6655 146.79C99.9259 146.402 100.108 145.956 100.212 145.455H101.974C101.841 146.198 101.6 146.863 101.249 147.45C100.899 148.037 100.463 148.537 99.9425 148.949C99.4216 149.356 98.8369 149.666 98.1882 149.879C97.5443 150.092 96.8554 150.199 96.1214 150.199C94.8809 150.199 93.7777 149.896 92.8118 149.29C91.8459 148.684 91.0859 147.822 90.532 146.705C89.978 145.587 89.701 144.261 89.701 142.727C89.701 141.193 89.978 139.867 90.532 138.75C91.0859 137.633 91.8459 136.771 92.8118 136.165C93.7777 135.559 94.8809 135.256 96.1214 135.256C96.8554 135.256 97.5443 135.362 98.1882 135.575C98.8369 135.788 99.4216 136.101 99.9425 136.513C100.463 136.92 100.899 137.417 101.249 138.004C101.6 138.587 101.841 139.252 101.974 140Z"></path>
<path fill="black" d="M35.706 45.9091C35.6037 45.0455 35.1889 44.375 34.4616 43.8977C33.7344 43.4205 32.8423 43.1818 31.7855 43.1818C31.0128 43.1818 30.3366 43.3068 29.7571 43.5568C29.1832 43.8068 28.7344 44.1506 28.4105 44.5881C28.0923 45.0256 27.9332 45.5227 27.9332 46.0795C27.9332 46.5455 28.044 46.946 28.2656 47.2812C28.4929 47.6108 28.7827 47.8864 29.1349 48.108C29.4872 48.3239 29.8565 48.5028 30.2429 48.6449C30.6293 48.7812 30.9844 48.892 31.3082 48.9773L33.081 49.4545C33.5355 49.5739 34.0412 49.7386 34.598 49.9489C35.1605 50.1591 35.6974 50.446 36.2088 50.8097C36.7259 51.1676 37.152 51.6278 37.4872 52.1903C37.8224 52.7528 37.9901 53.4432 37.9901 54.2614C37.9901 55.2045 37.7429 56.0568 37.2486 56.8182C36.7599 57.5795 36.044 58.1847 35.1009 58.6335C34.1634 59.0824 33.0241 59.3068 31.6832 59.3068C30.4332 59.3068 29.3509 59.1051 28.4361 58.7017C27.527 58.2983 26.8111 57.7358 26.2884 57.0142C25.7713 56.2926 25.4787 55.4545 25.4105 54.5H27.5923C27.6491 55.1591 27.8707 55.7045 28.2571 56.1364C28.6491 56.5625 29.1435 56.8807 29.7401 57.0909C30.3423 57.2955 30.9901 57.3977 31.6832 57.3977C32.4901 57.3977 33.2145 57.267 33.8565 57.0057C34.4986 56.7386 35.0071 56.3693 35.3821 55.8977C35.7571 55.4205 35.9446 54.8636 35.9446 54.2273C35.9446 53.6477 35.7827 53.1761 35.4588 52.8125C35.1349 52.4489 34.7088 52.1534 34.1804 51.9261C33.652 51.6989 33.081 51.5 32.4673 51.3295L30.3196 50.7159C28.956 50.3239 27.8764 49.7642 27.081 49.0369C26.2855 48.3097 25.8878 47.358 25.8878 46.1818C25.8878 45.2045 26.152 44.3523 26.6804 43.625C27.2145 42.892 27.9304 42.3239 28.8281 41.9205C29.7315 41.5114 30.7401 41.3068 31.8537 41.3068C32.9787 41.3068 33.9787 41.5085 34.8537 41.9119C35.7287 42.3097 36.4219 42.8551 36.9332 43.5483C37.4503 44.2415 37.723 45.0284 37.7514 45.9091H35.706ZM46.5107 59.2727C45.2834 59.2727 44.2266 58.983 43.3402 58.4034C42.4538 57.8239 41.772 57.0256 41.2947 56.0085C40.8175 54.9915 40.5788 53.8295 40.5788 52.5227C40.5788 51.1932 40.8232 50.0199 41.3118 49.0028C41.8061 47.9801 42.4936 47.1818 43.3743 46.608C44.2607 46.0284 45.2947 45.7386 46.4766 45.7386C47.397 45.7386 48.2266 45.9091 48.9652 46.25C49.7038 46.5909 50.3089 47.0682 50.7805 47.6818C51.2521 48.2955 51.5447 49.0114 51.6584 49.8295H49.647C49.4936 49.233 49.1527 48.7045 48.6243 48.2443C48.1016 47.7784 47.397 47.5455 46.5107 47.5455C45.7266 47.5455 45.0391 47.75 44.4482 48.1591C43.8629 48.5625 43.4055 49.1335 43.076 49.8722C42.7521 50.6051 42.5902 51.4659 42.5902 52.4545C42.5902 53.4659 42.7493 54.3466 43.0675 55.0966C43.3913 55.8466 43.8459 56.429 44.4311 56.8438C45.022 57.2585 45.7152 57.4659 46.5107 57.4659C47.0334 57.4659 47.5078 57.375 47.9339 57.1932C48.3601 57.0114 48.7209 56.75 49.0163 56.4091C49.3118 56.0682 49.522 55.6591 49.647 55.1818H51.6584C51.5447 55.9545 51.2635 56.6506 50.8146 57.2699C50.3714 57.8835 49.7834 58.3722 49.0504 58.7358C48.3232 59.0938 47.4766 59.2727 46.5107 59.2727ZM58.451 59.3068C57.6214 59.3068 56.8686 59.1506 56.1925 58.8381C55.5163 58.5199 54.9794 58.0625 54.5817 57.4659C54.1839 56.8636 53.9851 56.1364 53.9851 55.2841C53.9851 54.5341 54.1328 53.9261 54.4283 53.4602C54.7237 52.9886 55.1186 52.6193 55.6129 52.3523C56.1072 52.0852 56.6527 51.8864 57.2493 51.7557C57.8516 51.6193 58.4567 51.5114 59.0646 51.4318C59.8601 51.3295 60.505 51.2528 60.9993 51.2017C61.4993 51.1449 61.8629 51.0511 62.0902 50.9205C62.3232 50.7898 62.4396 50.5625 62.4396 50.2386V50.1705C62.4396 49.3295 62.2095 48.6761 61.7493 48.2102C61.2947 47.7443 60.6044 47.5114 59.6783 47.5114C58.718 47.5114 57.9652 47.7216 57.4197 48.142C56.8743 48.5625 56.4908 49.0114 56.2692 49.4886L54.3601 48.8068C54.701 48.0114 55.1555 47.392 55.7237 46.9489C56.2976 46.5 56.9226 46.1875 57.5987 46.0114C58.2805 45.8295 58.951 45.7386 59.6101 45.7386C60.0305 45.7386 60.5135 45.7898 61.0589 45.892C61.6101 45.9886 62.1413 46.1903 62.6527 46.4972C63.1697 46.804 63.5987 47.267 63.9396 47.8864C64.2805 48.5057 64.451 49.3352 64.451 50.375V59H62.4396V57.2273H62.3374C62.201 57.5114 61.9737 57.8153 61.6555 58.1392C61.3374 58.4631 60.9141 58.7386 60.3857 58.9659C59.8572 59.1932 59.2124 59.3068 58.451 59.3068ZM58.7578 57.5C59.5533 57.5 60.2237 57.3438 60.7692 57.0312C61.3203 56.7188 61.7351 56.3153 62.0135 55.821C62.2976 55.3267 62.4396 54.8068 62.4396 54.2614V52.4205C62.3544 52.5227 62.1669 52.6165 61.8771 52.7017C61.593 52.7812 61.2635 52.8523 60.8885 52.9148C60.5192 52.9716 60.1584 53.0227 59.8061 53.0682C59.4595 53.108 59.1783 53.142 58.9624 53.1705C58.4396 53.2386 57.951 53.3494 57.4964 53.5028C57.0476 53.6506 56.6839 53.875 56.4055 54.1761C56.1328 54.4716 55.9964 54.875 55.9964 55.3864C55.9964 56.0852 56.255 56.6136 56.772 56.9716C57.2947 57.3239 57.9567 57.5 58.7578 57.5ZM70.1335 41.5455V59H68.1222V41.5455H70.1335ZM79.3061 59.2727C78.0447 59.2727 76.9567 58.9943 76.0419 58.4375C75.1328 57.875 74.4311 57.0909 73.9368 56.0852C73.4482 55.0739 73.2038 53.8977 73.2038 52.5568C73.2038 51.2159 73.4482 50.0341 73.9368 49.0114C74.4311 47.983 75.1186 47.1818 75.9993 46.608C76.8857 46.0284 77.9197 45.7386 79.1016 45.7386C79.7834 45.7386 80.4567 45.8523 81.1214 46.0795C81.7862 46.3068 82.3913 46.6761 82.9368 47.1875C83.4822 47.6932 83.9169 48.3636 84.2408 49.1989C84.5646 50.0341 84.7266 51.0625 84.7266 52.2841V53.1364H74.6357V51.3977H82.6811C82.6811 50.6591 82.5334 50 82.2379 49.4205C81.9482 48.8409 81.5334 48.3835 80.9936 48.0483C80.4595 47.7131 79.8288 47.5455 79.1016 47.5455C78.3004 47.5455 77.6072 47.7443 77.022 48.142C76.4425 48.5341 75.9964 49.0455 75.6839 49.6761C75.3714 50.3068 75.2152 50.983 75.2152 51.7045V52.8636C75.2152 53.8523 75.3857 54.6903 75.7266 55.3778C76.0732 56.0597 76.5533 56.5795 77.1669 56.9375C77.7805 57.2898 78.4936 57.4659 79.3061 57.4659C79.8345 57.4659 80.3118 57.392 80.7379 57.2443C81.1697 57.0909 81.5419 56.8636 81.8544 56.5625C82.1669 56.2557 82.4084 55.875 82.5788 55.4205L84.522 55.9659C84.3175 56.625 83.9737 57.2045 83.4908 57.7045C83.0078 58.1989 82.4112 58.5852 81.701 58.8636C80.9908 59.1364 80.1925 59.2727 79.3061 59.2727ZM89.7976 51.125V59H87.7862V45.9091H89.7294V47.9545H89.8999C90.2067 47.2898 90.6726 46.7557 91.2976 46.3523C91.9226 45.9432 92.7294 45.7386 93.718 45.7386C94.6044 45.7386 95.38 45.9205 96.0447 46.2841C96.7095 46.642 97.2266 47.1875 97.5959 47.9205C97.9652 48.6477 98.1499 49.5682 98.1499 50.6818V59H96.1385V50.8182C96.1385 49.7898 95.8714 48.9886 95.3374 48.4148C94.8033 47.8352 94.0703 47.5455 93.1385 47.5455C92.4964 47.5455 91.9226 47.6847 91.4169 47.9631C90.9169 48.2415 90.522 48.6477 90.2322 49.1818C89.9425 49.7159 89.7976 50.3636 89.7976 51.125ZM107.314 59.2727C106.053 59.2727 104.964 58.9943 104.05 58.4375C103.141 57.875 102.439 57.0909 101.945 56.0852C101.456 55.0739 101.212 53.8977 101.212 52.5568C101.212 51.2159 101.456 50.0341 101.945 49.0114C102.439 47.983 103.126 47.1818 104.007 46.608C104.893 46.0284 105.928 45.7386 107.109 45.7386C107.791 45.7386 108.464 45.8523 109.129 46.0795C109.794 46.3068 110.399 46.6761 110.945 47.1875C111.49 47.6932 111.925 48.3636 112.249 49.1989C112.572 50.0341 112.734 51.0625 112.734 52.2841V53.1364H102.643V51.3977H110.689C110.689 50.6591 110.541 50 110.246 49.4205C109.956 48.8409 109.541 48.3835 109.001 48.0483C108.467 47.7131 107.837 47.5455 107.109 47.5455C106.308 47.5455 105.615 47.7443 105.03 48.142C104.45 48.5341 104.004 49.0455 103.692 49.6761C103.379 50.3068 103.223 50.983 103.223 51.7045V52.8636C103.223 53.8523 103.393 54.6903 103.734 55.3778C104.081 56.0597 104.561 56.5795 105.175 56.9375C105.788 57.2898 106.501 57.4659 107.314 57.4659C107.842 57.4659 108.32 57.392 108.746 57.2443C109.178 57.0909 109.55 56.8636 109.862 56.5625C110.175 56.2557 110.416 55.875 110.587 55.4205L112.53 55.9659C112.325 56.625 111.982 57.2045 111.499 57.7045C111.016 58.1989 110.419 58.5852 109.709 58.8636C108.999 59.1364 108.2 59.2727 107.314 59.2727Z"></path>
</svg>
