<svg xmlns="http://www.w3.org/2000/svg" fill="none" viewBox="0 0 139 164" height="164" width="139">
<path fill="#EEC638" d="M0 20C0 8.95431 8.95431 0 20 0H119C130.046 0 139 8.95431 139 20V144C139 155.046 130.046 164 119 164H20C8.95431 164 0 155.046 0 144V20Z"></path>
<path fill="black" d="M36.2102 135.455V150H34.5341V135.455H36.2102ZM43.854 150.227C42.8029 150.227 41.8962 149.995 41.1339 149.531C40.3763 149.062 39.7915 148.409 39.3796 147.571C38.9724 146.728 38.7688 145.748 38.7688 144.631C38.7688 143.513 38.9724 142.528 39.3796 141.676C39.7915 140.819 40.3645 140.152 41.0984 139.673C41.837 139.19 42.6987 138.949 43.6836 138.949C44.2518 138.949 44.8129 139.044 45.3668 139.233C45.9208 139.422 46.4251 139.73 46.8796 140.156C47.3342 140.578 47.6964 141.136 47.9663 141.832C48.2362 142.528 48.3711 143.385 48.3711 144.403V145.114H39.962V143.665H46.6665C46.6665 143.049 46.5434 142.5 46.2972 142.017C46.0558 141.534 45.7101 141.153 45.2603 140.874C44.8152 140.594 44.2897 140.455 43.6836 140.455C43.016 140.455 42.4383 140.62 41.9506 140.952C41.4677 141.278 41.096 141.705 40.8356 142.23C40.5752 142.756 40.445 143.319 40.445 143.92V144.886C40.445 145.71 40.587 146.409 40.8711 146.982C41.1599 147.55 41.56 147.983 42.0714 148.281C42.5827 148.575 43.177 148.722 43.854 148.722C44.2944 148.722 44.6921 148.66 45.0472 148.537C45.4071 148.409 45.7172 148.22 45.9776 147.969C46.238 147.713 46.4393 147.396 46.5813 147.017L48.2006 147.472C48.0302 148.021 47.7437 148.504 47.3413 148.92C46.9388 149.332 46.4416 149.654 45.8498 149.886C45.2579 150.114 44.5927 150.227 43.854 150.227ZM55.6651 139.091V140.511H50.0117V139.091H55.6651ZM51.6594 136.477H53.3356V146.875C53.3356 147.348 53.4042 147.704 53.5415 147.94C53.6836 148.172 53.8635 148.329 54.0813 148.409C54.3039 148.485 54.5382 148.523 54.7844 148.523C54.9691 148.523 55.1206 148.513 55.239 148.494C55.3574 148.471 55.4521 148.452 55.5231 148.438L55.864 149.943C55.7504 149.986 55.5917 150.028 55.3881 150.071C55.1845 150.118 54.9265 150.142 54.614 150.142C54.1405 150.142 53.6765 150.04 53.2219 149.837C52.7721 149.633 52.3981 149.323 52.0998 148.906C51.8062 148.49 51.6594 147.964 51.6594 147.33V136.477ZM62.9308 139.091V140.511H57.2773V139.091H62.9308ZM58.9251 136.477H60.6012V146.875C60.6012 147.348 60.6699 147.704 60.8072 147.94C60.9492 148.172 61.1291 148.329 61.3469 148.409C61.5695 148.485 61.8039 148.523 62.0501 148.523C62.2347 148.523 62.3862 148.513 62.5046 148.494C62.623 148.471 62.7177 148.452 62.7887 148.438L63.1296 149.943C63.016 149.986 62.8574 150.028 62.6538 150.071C62.4502 150.118 62.1921 150.142 61.8796 150.142C61.4061 150.142 60.9421 150.04 60.4876 149.837C60.0378 149.633 59.6637 149.323 59.3654 148.906C59.0719 148.49 58.9251 147.964 58.9251 147.33V136.477ZM69.9087 150.227C68.8576 150.227 67.9509 149.995 67.1886 149.531C66.431 149.062 65.8462 148.409 65.4343 147.571C65.0271 146.728 64.8235 145.748 64.8235 144.631C64.8235 143.513 65.0271 142.528 65.4343 141.676C65.8462 140.819 66.4192 140.152 67.1531 139.673C67.8917 139.19 68.7534 138.949 69.7383 138.949C70.3065 138.949 70.8675 139.044 71.4215 139.233C71.9755 139.422 72.4798 139.73 72.9343 140.156C73.3888 140.578 73.7511 141.136 74.021 141.832C74.2908 142.528 74.4258 143.385 74.4258 144.403V145.114H66.0167V143.665H72.7212C72.7212 143.049 72.5981 142.5 72.3519 142.017C72.1104 141.534 71.7648 141.153 71.315 140.874C70.8699 140.594 70.3443 140.455 69.7383 140.455C69.0707 140.455 68.493 140.62 68.0053 140.952C67.5224 141.278 67.1507 141.705 66.8903 142.23C66.6299 142.756 66.4996 143.319 66.4996 143.92V144.886C66.4996 145.71 66.6417 146.409 66.9258 146.982C67.2146 147.55 67.6147 147.983 68.1261 148.281C68.6374 148.575 69.2317 148.722 69.9087 148.722C70.3491 148.722 70.7468 148.66 71.1019 148.537C71.4618 148.409 71.7719 148.22 72.0323 147.969C72.2927 147.713 72.494 147.396 72.636 147.017L74.2553 147.472C74.0849 148.021 73.7984 148.504 73.396 148.92C72.9935 149.332 72.4963 149.654 71.9045 149.886C71.3126 150.114 70.6474 150.227 69.9087 150.227ZM76.9755 150V139.091H78.5948V140.739H78.7085C78.9073 140.199 79.2672 139.761 79.788 139.425C80.3088 139.089 80.896 138.92 81.5494 138.92C81.6725 138.92 81.8263 138.923 82.011 138.928C82.1957 138.932 82.3353 138.939 82.43 138.949V140.653C82.3732 140.639 82.243 140.618 82.0394 140.589C81.8406 140.556 81.6299 140.54 81.4073 140.54C80.877 140.54 80.4035 140.651 79.9869 140.874C79.5749 141.091 79.2482 141.394 79.0067 141.783C78.77 142.166 78.6516 142.604 78.6516 143.097V150H76.9755ZM90.8658 150H89.0192L94.3601 135.455H96.1783L101.519 150H99.6726L95.326 137.756H95.2124L90.8658 150ZM91.5476 144.318H98.9908V145.881H91.5476V144.318Z"></path>
<path fill="black" d="M51.2088 53.1818V75H48.652L36.7628 57.8693H36.5497V75H33.9077V53.1818H36.4645L48.3963 70.3551H48.6094V53.1818H51.2088ZM62.8024 75.3409C61.3251 75.3409 60.0289 74.9893 58.9139 74.2862C57.8059 73.5831 56.9395 72.5994 56.3145 71.3352C55.6966 70.071 55.3876 68.5937 55.3876 66.9034C55.3876 65.1989 55.6966 63.7109 56.3145 62.4396C56.9395 61.1683 57.8059 60.1811 58.9139 59.478C60.0289 58.7749 61.3251 58.4233 62.8024 58.4233C64.2797 58.4233 65.5723 58.7749 66.6802 59.478C67.7953 60.1811 68.6618 61.1683 69.2797 62.4396C69.9047 63.7109 70.2172 65.1989 70.2172 66.9034C70.2172 68.5937 69.9047 70.071 69.2797 71.3352C68.6618 72.5994 67.7953 73.5831 66.6802 74.2862C65.5723 74.9893 64.2797 75.3409 62.8024 75.3409ZM62.8024 73.0824C63.9245 73.0824 64.8478 72.7947 65.5723 72.2195C66.2967 71.6442 66.8329 70.8878 67.1809 69.9503C67.5289 69.0128 67.7029 67.9972 67.7029 66.9034C67.7029 65.8097 67.5289 64.7905 67.1809 63.8459C66.8329 62.9013 66.2967 62.1378 65.5723 61.5554C64.8478 60.973 63.9245 60.6818 62.8024 60.6818C61.6802 60.6818 60.7569 60.973 60.0325 61.5554C59.3081 62.1378 58.7718 62.9013 58.4238 63.8459C58.0758 64.7905 57.9018 65.8097 57.9018 66.9034C57.9018 67.9972 58.0758 69.0128 58.4238 69.9503C58.7718 70.8878 59.3081 71.6442 60.0325 72.2195C60.7569 72.7947 61.6802 73.0824 62.8024 73.0824ZM84.3675 68.3097V58.6364H86.8817V75H84.3675V72.2301H84.1971C83.8136 73.0611 83.217 73.7678 82.4073 74.3501C81.5977 74.9254 80.5749 75.2131 79.3391 75.2131C78.3164 75.2131 77.4073 74.9893 76.6119 74.5419C75.8164 74.0874 75.1914 73.4055 74.7369 72.4964C74.2823 71.5803 74.055 70.4261 74.055 69.0341V58.6364H76.5692V68.8636C76.5692 70.0568 76.9031 71.0085 77.5707 71.7188C78.2454 72.429 79.1048 72.7841 80.1488 72.7841C80.7738 72.7841 81.4094 72.6243 82.0558 72.3047C82.7092 71.9851 83.256 71.495 83.6964 70.8345C84.1438 70.174 84.3675 69.3324 84.3675 68.3097ZM94.0009 65.1562V75H91.4867V58.6364H93.9157V61.1932H94.1287C94.5123 60.3622 95.0946 59.6946 95.8759 59.1903C96.6571 58.679 97.6657 58.4233 98.9015 58.4233C100.009 58.4233 100.979 58.6506 101.81 59.1051C102.641 59.5526 103.287 60.2344 103.749 61.1506C104.21 62.0597 104.441 63.2102 104.441 64.6023V75H101.927V64.7727C101.927 63.4872 101.593 62.4858 100.926 61.7685C100.258 61.044 99.3418 60.6818 98.177 60.6818C97.3745 60.6818 96.6571 60.8558 96.025 61.2038C95.4 61.5518 94.9064 62.0597 94.5442 62.7273C94.182 63.3949 94.0009 64.2045 94.0009 65.1562Z"></path>
</svg>
