<svg xmlns="http://www.w3.org/2000/svg" fill="none" viewBox="0 0 139 164" height="164" width="139">
<path fill="#EEC638" d="M0 20C0 8.95431 8.95431 0 20 0H119C130.046 0 139 8.95431 139 20V144C139 155.046 130.046 164 119 164H20C8.95431 164 0 155.046 0 144V20Z"></path>
<path fill="black" d="M36.2102 135.455V150H34.5341V135.455H36.2102ZM43.854 150.227C42.8029 150.227 41.8962 149.995 41.1339 149.531C40.3763 149.062 39.7915 148.409 39.3796 147.571C38.9724 146.728 38.7688 145.748 38.7688 144.631C38.7688 143.513 38.9724 142.528 39.3796 141.676C39.7915 140.819 40.3645 140.152 41.0984 139.673C41.837 139.19 42.6987 138.949 43.6836 138.949C44.2518 138.949 44.8129 139.044 45.3668 139.233C45.9208 139.422 46.4251 139.73 46.8796 140.156C47.3342 140.578 47.6964 141.136 47.9663 141.832C48.2362 142.528 48.3711 143.385 48.3711 144.403V145.114H39.962V143.665H46.6665C46.6665 143.049 46.5434 142.5 46.2972 142.017C46.0558 141.534 45.7101 141.153 45.2603 140.874C44.8152 140.594 44.2897 140.455 43.6836 140.455C43.016 140.455 42.4383 140.62 41.9506 140.952C41.4677 141.278 41.096 141.705 40.8356 142.23C40.5752 142.756 40.445 143.319 40.445 143.92V144.886C40.445 145.71 40.587 146.409 40.8711 146.982C41.1599 147.55 41.56 147.983 42.0714 148.281C42.5827 148.575 43.177 148.722 43.854 148.722C44.2944 148.722 44.6921 148.66 45.0472 148.537C45.4071 148.409 45.7172 148.22 45.9776 147.969C46.238 147.713 46.4393 147.396 46.5813 147.017L48.2006 147.472C48.0302 148.021 47.7437 148.504 47.3413 148.92C46.9388 149.332 46.4416 149.654 45.8498 149.886C45.2579 150.114 44.5927 150.227 43.854 150.227ZM55.6651 139.091V140.511H50.0117V139.091H55.6651ZM51.6594 136.477H53.3356V146.875C53.3356 147.348 53.4042 147.704 53.5415 147.94C53.6836 148.172 53.8635 148.329 54.0813 148.409C54.3039 148.485 54.5382 148.523 54.7844 148.523C54.9691 148.523 55.1206 148.513 55.239 148.494C55.3574 148.471 55.4521 148.452 55.5231 148.438L55.864 149.943C55.7504 149.986 55.5917 150.028 55.3881 150.071C55.1845 150.118 54.9265 150.142 54.614 150.142C54.1405 150.142 53.6765 150.04 53.2219 149.837C52.7721 149.633 52.3981 149.323 52.0998 148.906C51.8062 148.49 51.6594 147.964 51.6594 147.33V136.477ZM62.9308 139.091V140.511H57.2773V139.091H62.9308ZM58.9251 136.477H60.6012V146.875C60.6012 147.348 60.6699 147.704 60.8072 147.94C60.9492 148.172 61.1291 148.329 61.3469 148.409C61.5695 148.485 61.8039 148.523 62.0501 148.523C62.2347 148.523 62.3862 148.513 62.5046 148.494C62.623 148.471 62.7177 148.452 62.7887 148.438L63.1296 149.943C63.016 149.986 62.8574 150.028 62.6538 150.071C62.4502 150.118 62.1921 150.142 61.8796 150.142C61.4061 150.142 60.9421 150.04 60.4876 149.837C60.0378 149.633 59.6637 149.323 59.3654 148.906C59.0719 148.49 58.9251 147.964 58.9251 147.33V136.477ZM69.9087 150.227C68.8576 150.227 67.9509 149.995 67.1886 149.531C66.431 149.062 65.8462 148.409 65.4343 147.571C65.0271 146.728 64.8235 145.748 64.8235 144.631C64.8235 143.513 65.0271 142.528 65.4343 141.676C65.8462 140.819 66.4192 140.152 67.1531 139.673C67.8917 139.19 68.7534 138.949 69.7383 138.949C70.3065 138.949 70.8675 139.044 71.4215 139.233C71.9755 139.422 72.4798 139.73 72.9343 140.156C73.3888 140.578 73.7511 141.136 74.021 141.832C74.2908 142.528 74.4258 143.385 74.4258 144.403V145.114H66.0167V143.665H72.7212C72.7212 143.049 72.5981 142.5 72.3519 142.017C72.1104 141.534 71.7648 141.153 71.315 140.874C70.8699 140.594 70.3443 140.455 69.7383 140.455C69.0707 140.455 68.493 140.62 68.0053 140.952C67.5224 141.278 67.1507 141.705 66.8903 142.23C66.6299 142.756 66.4996 143.319 66.4996 143.92V144.886C66.4996 145.71 66.6417 146.409 66.9258 146.982C67.2146 147.55 67.6147 147.983 68.1261 148.281C68.6374 148.575 69.2317 148.722 69.9087 148.722C70.3491 148.722 70.7468 148.66 71.1019 148.537C71.4618 148.409 71.7719 148.22 72.0323 147.969C72.2927 147.713 72.494 147.396 72.636 147.017L74.2553 147.472C74.0849 148.021 73.7984 148.504 73.396 148.92C72.9935 149.332 72.4963 149.654 71.9045 149.886C71.3126 150.114 70.6474 150.227 69.9087 150.227ZM76.9755 150V139.091H78.5948V140.739H78.7085C78.9073 140.199 79.2672 139.761 79.788 139.425C80.3088 139.089 80.896 138.92 81.5494 138.92C81.6725 138.92 81.8263 138.923 82.011 138.928C82.1957 138.932 82.3353 138.939 82.43 138.949V140.653C82.3732 140.639 82.243 140.618 82.0394 140.589C81.8406 140.556 81.6299 140.54 81.4073 140.54C80.877 140.54 80.4035 140.651 79.9869 140.874C79.5749 141.091 79.2482 141.394 79.0067 141.783C78.77 142.166 78.6516 142.604 78.6516 143.097V150H76.9755ZM94.7578 150H90.2692V135.455H94.9567C96.3677 135.455 97.575 135.746 98.5788 136.328C99.5826 136.906 100.352 137.737 100.887 138.821C101.422 139.901 101.69 141.193 101.69 142.699C101.69 144.214 101.42 145.518 100.88 146.612C100.34 147.701 99.5542 148.539 98.522 149.126C97.4898 149.709 96.2351 150 94.7578 150ZM92.0305 148.438H94.6442C95.8468 148.438 96.8435 148.205 97.6342 147.741C98.425 147.277 99.0144 146.617 99.4027 145.76C99.791 144.903 99.9851 143.883 99.9851 142.699C99.9851 141.525 99.7933 140.514 99.4098 139.666C99.0263 138.814 98.4534 138.161 97.6911 137.706C96.9287 137.247 95.9794 137.017 94.843 137.017H92.0305V148.438Z"></path>
<path fill="black" d="M26.8883 65V50.4545H28.6497V56.9318H36.4054V50.4545H38.1667V65H36.4054V58.4943H28.6497V65H26.8883ZM46.0396 65.2273C44.9885 65.2273 44.0817 64.9953 43.3194 64.5312C42.5618 64.0625 41.9771 63.4091 41.5652 62.571C41.158 61.7282 40.9544 60.7481 40.9544 59.6307C40.9544 58.5133 41.158 57.5284 41.5652 56.6761C41.9771 55.8191 42.55 55.1515 43.2839 54.6733C44.0225 54.1903 44.8843 53.9489 45.8691 53.9489C46.4373 53.9489 46.9984 54.0436 47.5524 54.233C48.1064 54.4223 48.6106 54.7301 49.0652 55.1562C49.5197 55.5777 49.8819 56.1364 50.1518 56.8324C50.4217 57.5284 50.5566 58.3854 50.5566 59.4034V60.1136H42.1475V58.6648H48.8521C48.8521 58.0492 48.729 57.5 48.4828 57.017C48.2413 56.5341 47.8957 56.1529 47.4458 55.8736C47.0008 55.5942 46.4752 55.4545 45.8691 55.4545C45.2015 55.4545 44.6239 55.6203 44.1362 55.9517C43.6532 56.2784 43.2815 56.7045 43.0211 57.2301C42.7607 57.7557 42.6305 58.3191 42.6305 58.9205V59.8864C42.6305 60.7102 42.7725 61.4086 43.0566 61.9815C43.3455 62.5497 43.7456 62.983 44.2569 63.2812C44.7683 63.5748 45.3625 63.7216 46.0396 63.7216C46.4799 63.7216 46.8777 63.66 47.2328 63.5369C47.5926 63.4091 47.9028 63.2197 48.1632 62.9688C48.4236 62.7131 48.6248 62.3958 48.7669 62.017L50.3862 62.4716C50.2157 63.0208 49.9293 63.5038 49.5268 63.9205C49.1243 64.3324 48.6272 64.6544 48.0353 64.8864C47.4435 65.1136 46.7782 65.2273 46.0396 65.2273ZM61.2029 65L57.8791 54.0909H59.6404L61.9984 62.4432H62.112L64.4416 54.0909H66.2314L68.5325 62.4148H68.6461L71.0041 54.0909H72.7654L69.4416 65H67.7939L65.4075 56.6193H65.237L62.8507 65H61.2029ZM74.9814 65V54.0909H76.6007V55.7386H76.7143C76.9132 55.1989 77.273 54.7609 77.7939 54.4247C78.3147 54.0885 78.9018 53.9205 79.5552 53.9205C79.6783 53.9205 79.8322 53.9228 80.0169 53.9276C80.2015 53.9323 80.3412 53.9394 80.4359 53.9489V55.6534C80.3791 55.6392 80.2489 55.6179 80.0453 55.5895C79.8464 55.5563 79.6357 55.5398 79.4132 55.5398C78.8829 55.5398 78.4094 55.651 77.9927 55.8736C77.5808 56.0914 77.2541 56.3944 77.0126 56.7827C76.7759 57.1662 76.6575 57.6042 76.6575 58.0966V65H74.9814ZM82.4228 65V54.0909H84.0989V65H82.4228ZM83.275 52.2727C82.9483 52.2727 82.6666 52.1615 82.4299 51.9389C82.1979 51.7164 82.0819 51.4489 82.0819 51.1364C82.0819 50.8239 82.1979 50.5563 82.4299 50.3338C82.6666 50.1113 82.9483 50 83.275 50C83.6017 50 83.8811 50.1113 84.1131 50.3338C84.3498 50.5563 84.4682 50.8239 84.4682 51.1364C84.4682 51.4489 84.3498 51.7164 84.1131 51.9389C83.8811 52.1615 83.6017 52.2727 83.275 52.2727ZM91.9132 54.0909V55.5114H86.2598V54.0909H91.9132ZM87.9075 51.4773H89.5836V61.875C89.5836 62.3485 89.6523 62.7036 89.7896 62.9403C89.9316 63.1723 90.1116 63.3286 90.3294 63.4091C90.5519 63.4848 90.7863 63.5227 91.0325 63.5227C91.2172 63.5227 91.3687 63.5133 91.487 63.4943C91.6054 63.4706 91.7001 63.4517 91.7711 63.4375L92.112 64.9432C91.9984 64.9858 91.8398 65.0284 91.6362 65.071C91.4326 65.1184 91.1745 65.142 90.862 65.142C90.3886 65.142 89.9245 65.0402 89.47 64.8366C89.0202 64.633 88.6461 64.3229 88.3478 63.9062C88.0543 63.4896 87.9075 62.964 87.9075 62.3295V51.4773ZM98.8912 65.2273C97.84 65.2273 96.9333 64.9953 96.171 64.5312C95.4134 64.0625 94.8287 63.4091 94.4167 62.571C94.0095 61.7282 93.8059 60.7481 93.8059 59.6307C93.8059 58.5133 94.0095 57.5284 94.4167 56.6761C94.8287 55.8191 95.4016 55.1515 96.1355 54.6733C96.8741 54.1903 97.7359 53.9489 98.7207 53.9489C99.2889 53.9489 99.85 54.0436 100.404 54.233C100.958 54.4223 101.462 54.7301 101.917 55.1562C102.371 55.5777 102.733 56.1364 103.003 56.8324C103.273 57.5284 103.408 58.3854 103.408 59.4034V60.1136H94.9991V58.6648H101.704C101.704 58.0492 101.581 57.5 101.334 57.017C101.093 56.5341 100.747 56.1529 100.297 55.8736C99.8523 55.5942 99.3268 55.4545 98.7207 55.4545C98.0531 55.4545 97.4754 55.6203 96.9877 55.9517C96.5048 56.2784 96.1331 56.7045 95.8727 57.2301C95.6123 57.7557 95.4821 58.3191 95.4821 58.9205V59.8864C95.4821 60.7102 95.6241 61.4086 95.9082 61.9815C96.197 62.5497 96.5971 62.983 97.1085 63.2812C97.6199 63.5748 98.2141 63.7216 98.8912 63.7216C99.3315 63.7216 99.7292 63.66 100.084 63.5369C100.444 63.4091 100.754 63.2197 101.015 62.9688C101.275 62.7131 101.476 62.3958 101.618 62.017L103.238 62.4716C103.067 63.0208 102.781 63.5038 102.378 63.9205C101.976 64.3324 101.479 64.6544 100.887 64.8864C100.295 65.1136 99.6298 65.2273 98.8912 65.2273ZM113.685 56.5341L112.18 56.9602C112.085 56.7093 111.945 56.4654 111.76 56.2287C111.581 55.9872 111.334 55.7884 111.022 55.6321C110.709 55.4759 110.309 55.3977 109.822 55.3977C109.154 55.3977 108.598 55.5516 108.153 55.8594C107.712 56.1624 107.492 56.5483 107.492 57.017C107.492 57.4337 107.644 57.7628 107.947 58.0043C108.25 58.2457 108.723 58.447 109.367 58.608L110.986 59.0057C111.962 59.2424 112.689 59.6046 113.167 60.0923C113.645 60.5753 113.884 61.1979 113.884 61.9602C113.884 62.5852 113.704 63.1439 113.344 63.6364C112.989 64.1288 112.492 64.517 111.853 64.8011C111.214 65.0852 110.47 65.2273 109.623 65.2273C108.51 65.2273 107.589 64.9858 106.86 64.5028C106.131 64.0199 105.669 63.3144 105.475 62.3864L107.066 61.9886C107.217 62.5758 107.504 63.0161 107.925 63.3097C108.351 63.6032 108.908 63.75 109.594 63.75C110.376 63.75 110.996 63.5843 111.455 63.2528C111.919 62.9167 112.151 62.5142 112.151 62.0455C112.151 61.6667 112.019 61.3494 111.753 61.0938C111.488 60.8333 111.081 60.6392 110.532 60.5114L108.714 60.0852C107.715 59.8485 106.981 59.4815 106.512 58.9844C106.048 58.4825 105.816 57.8551 105.816 57.1023C105.816 56.4867 105.989 55.9422 106.334 55.4688C106.685 54.9953 107.161 54.6236 107.762 54.3537C108.368 54.0838 109.055 53.9489 109.822 53.9489C110.901 53.9489 111.749 54.1856 112.364 54.6591C112.984 55.1326 113.425 55.7576 113.685 56.5341ZM38.3576 89.2557C37.6663 89.2557 37.0389 89.1255 36.4755 88.8651C35.9121 88.5999 35.4646 88.2188 35.1332 87.7216C34.8017 87.2197 34.636 86.6136 34.636 85.9034C34.636 85.2784 34.7591 84.7718 35.0053 84.3835C35.2515 83.9905 35.5806 83.6828 35.9925 83.4602C36.4045 83.2377 36.859 83.072 37.3562 82.9631C37.8581 82.8494 38.3623 82.7595 38.869 82.6932C39.5318 82.608 40.0692 82.544 40.4812 82.5014C40.8978 82.4541 41.2009 82.3759 41.3903 82.267C41.5844 82.1581 41.6815 81.9687 41.6815 81.6989V81.642C41.6815 80.9413 41.4897 80.3968 41.1062 80.0085C40.7274 79.6203 40.1521 79.4261 39.3803 79.4261C38.5801 79.4261 37.9528 79.6013 37.4982 79.9517C37.0437 80.3021 36.7241 80.6761 36.5394 81.0739L34.9485 80.5057C35.2326 79.8428 35.6114 79.3267 36.0849 78.9574C36.5631 78.5833 37.0839 78.3229 37.6474 78.1761C38.2156 78.0246 38.7743 77.9489 39.3235 77.9489C39.6739 77.9489 40.0763 77.9915 40.5309 78.0767C40.9902 78.1572 41.4329 78.3253 41.859 78.581C42.2899 78.8366 42.6474 79.2225 42.9315 79.7386C43.2156 80.2547 43.3576 80.946 43.3576 81.8125V89H41.6815V87.5227H41.5962C41.4826 87.7595 41.2932 88.0128 41.0281 88.2827C40.7629 88.5526 40.4102 88.7822 39.9698 88.9716C39.5295 89.161 38.9921 89.2557 38.3576 89.2557ZM38.6133 87.75C39.2762 87.75 39.8349 87.6198 40.2894 87.3594C40.7487 87.099 41.0943 86.7628 41.3263 86.3509C41.5631 85.9389 41.6815 85.5057 41.6815 85.0511V83.517C41.6104 83.6023 41.4542 83.6804 41.2127 83.7514C40.976 83.8177 40.7013 83.8769 40.3888 83.929C40.0811 83.9763 39.7804 84.0189 39.4869 84.0568C39.198 84.09 38.9637 84.1184 38.7837 84.142C38.3481 84.1989 37.9409 84.2912 37.5621 84.419C37.1881 84.5421 36.8851 84.7292 36.6531 84.9801C36.4258 85.2263 36.3121 85.5625 36.3121 85.9886C36.3121 86.571 36.5276 87.0114 36.9585 87.3097C37.3941 87.6032 37.9457 87.75 38.6133 87.75ZM53.718 82.4375V89H52.0419V78.0909H53.6612V79.7955H53.8033C54.0589 79.2415 54.4472 78.7964 54.968 78.4602C55.4889 78.1193 56.1612 77.9489 56.9851 77.9489C57.7237 77.9489 58.37 78.1004 58.924 78.4034C59.478 78.7017 59.9089 79.1562 60.2166 79.767C60.5244 80.3731 60.6783 81.1402 60.6783 82.0682V89H59.0021V82.1818C59.0021 81.3248 58.7796 80.6572 58.3345 80.179C57.8894 79.696 57.2786 79.4545 56.5021 79.4545C55.9671 79.4545 55.4889 79.5705 55.0675 79.8026C54.6508 80.0346 54.3217 80.3731 54.0803 80.8182C53.8388 81.2633 53.718 81.803 53.718 82.4375ZM68.1729 89.2273C67.1881 89.2273 66.324 88.9929 65.5806 88.5241C64.842 88.0554 64.2643 87.3996 63.8477 86.5568C63.4357 85.714 63.2298 84.7292 63.2298 83.6023C63.2298 82.4659 63.4357 81.474 63.8477 80.6264C64.2643 79.7789 64.842 79.1207 65.5806 78.652C66.324 78.1832 67.1881 77.9489 68.1729 77.9489C69.1578 77.9489 70.0195 78.1832 70.7582 78.652C71.5015 79.1207 72.0792 79.7789 72.4911 80.6264C72.9078 81.474 73.1161 82.4659 73.1161 83.6023C73.1161 84.7292 72.9078 85.714 72.4911 86.5568C72.0792 87.3996 71.5015 88.0554 70.7582 88.5241C70.0195 88.9929 69.1578 89.2273 68.1729 89.2273ZM68.1729 87.7216C68.921 87.7216 69.5366 87.5298 70.0195 87.1463C70.5025 86.7628 70.86 86.2585 71.092 85.6335C71.324 85.0085 71.44 84.3314 71.44 83.6023C71.44 82.8731 71.324 82.1937 71.092 81.5639C70.86 80.9342 70.5025 80.4252 70.0195 80.0369C69.5366 79.6487 68.921 79.4545 68.1729 79.4545C67.4248 79.4545 66.8093 79.6487 66.3263 80.0369C65.8434 80.4252 65.4859 80.9342 65.2539 81.5639C65.0219 82.1937 64.9059 82.8731 64.9059 83.6023C64.9059 84.3314 65.0219 85.0085 65.2539 85.6335C65.4859 86.2585 65.8434 86.7628 66.3263 87.1463C66.8093 87.5298 67.4248 87.7216 68.1729 87.7216ZM84.2045 78.0909L80.1705 89H78.4659L74.4318 78.0909H76.25L79.2614 86.7841H79.375L82.3864 78.0909H84.2045ZM90.6001 89.2273C89.549 89.2273 88.6423 88.9953 87.88 88.5312C87.1224 88.0625 86.5376 87.4091 86.1257 86.571C85.7185 85.7282 85.5149 84.7481 85.5149 83.6307C85.5149 82.5133 85.7185 81.5284 86.1257 80.6761C86.5376 79.8191 87.1106 79.1515 87.8445 78.6733C88.5831 78.1903 89.4448 77.9489 90.4297 77.9489C90.9979 77.9489 91.5589 78.0436 92.1129 78.233C92.6669 78.4223 93.1712 78.7301 93.6257 79.1562C94.0803 79.5777 94.4425 80.1364 94.7124 80.8324C94.9822 81.5284 95.1172 82.3854 95.1172 83.4034V84.1136H86.7081V82.6648H93.4126C93.4126 82.0492 93.2895 81.5 93.0433 81.017C92.8018 80.5341 92.4562 80.1529 92.0064 79.8736C91.5613 79.5942 91.0357 79.4545 90.4297 79.4545C89.7621 79.4545 89.1844 79.6203 88.6967 79.9517C88.2138 80.2784 87.8421 80.7045 87.5817 81.2301C87.3213 81.7557 87.1911 82.3191 87.1911 82.9205V83.8864C87.1911 84.7102 87.3331 85.4086 87.6172 85.9815C87.906 86.5497 88.3061 86.983 88.8175 87.2812C89.3288 87.5748 89.9231 87.7216 90.6001 87.7216C91.0405 87.7216 91.4382 87.66 91.7933 87.5369C92.1532 87.4091 92.4633 87.2197 92.7237 86.9688C92.9841 86.7131 93.1854 86.3958 93.3274 86.017L94.9467 86.4716C94.7763 87.0208 94.4898 87.5038 94.0874 87.9205C93.6849 88.3324 93.1877 88.6544 92.5959 88.8864C92.004 89.1136 91.3388 89.2273 90.6001 89.2273ZM99.343 74.4545V89H97.6669V74.4545H99.343ZM103.635 89.1136C103.284 89.1136 102.984 88.9882 102.733 88.7372C102.482 88.4863 102.356 88.1856 102.356 87.8352C102.356 87.4848 102.482 87.1842 102.733 86.9332C102.984 86.6823 103.284 86.5568 103.635 86.5568C103.985 86.5568 104.286 86.6823 104.537 86.9332C104.788 87.1842 104.913 87.4848 104.913 87.8352C104.913 88.0672 104.854 88.2803 104.735 88.4744C104.622 88.6686 104.468 88.8248 104.274 88.9432C104.084 89.0568 103.871 89.1136 103.635 89.1136Z"></path>
</svg>
