<svg xmlns="http://www.w3.org/2000/svg" fill="none" viewBox="0 0 139 164" height="164" width="139">
<path fill="#EEC638" d="M0 20C0 8.95431 8.95431 0 20 0H119C130.046 0 139 8.95431 139 20V144C139 155.046 130.046 164 119 164H20C8.95431 164 0 155.046 0 144V20Z"></path>
<path fill="black" d="M36.2102 135.455V150H34.5341V135.455H36.2102ZM43.854 150.227C42.8029 150.227 41.8962 149.995 41.1339 149.531C40.3763 149.062 39.7915 148.409 39.3796 147.571C38.9724 146.728 38.7688 145.748 38.7688 144.631C38.7688 143.513 38.9724 142.528 39.3796 141.676C39.7915 140.819 40.3645 140.152 41.0984 139.673C41.837 139.19 42.6987 138.949 43.6836 138.949C44.2518 138.949 44.8129 139.044 45.3668 139.233C45.9208 139.422 46.4251 139.73 46.8796 140.156C47.3342 140.578 47.6964 141.136 47.9663 141.832C48.2362 142.528 48.3711 143.385 48.3711 144.403V145.114H39.962V143.665H46.6665C46.6665 143.049 46.5434 142.5 46.2972 142.017C46.0558 141.534 45.7101 141.153 45.2603 140.874C44.8152 140.594 44.2897 140.455 43.6836 140.455C43.016 140.455 42.4383 140.62 41.9506 140.952C41.4677 141.278 41.096 141.705 40.8356 142.23C40.5752 142.756 40.445 143.319 40.445 143.92V144.886C40.445 145.71 40.587 146.409 40.8711 146.982C41.1599 147.55 41.56 147.983 42.0714 148.281C42.5827 148.575 43.177 148.722 43.854 148.722C44.2944 148.722 44.6921 148.66 45.0472 148.537C45.4071 148.409 45.7172 148.22 45.9776 147.969C46.238 147.713 46.4393 147.396 46.5813 147.017L48.2006 147.472C48.0302 148.021 47.7437 148.504 47.3413 148.92C46.9388 149.332 46.4416 149.654 45.8498 149.886C45.2579 150.114 44.5927 150.227 43.854 150.227ZM55.6651 139.091V140.511H50.0117V139.091H55.6651ZM51.6594 136.477H53.3356V146.875C53.3356 147.348 53.4042 147.704 53.5415 147.94C53.6836 148.172 53.8635 148.329 54.0813 148.409C54.3039 148.485 54.5382 148.523 54.7844 148.523C54.9691 148.523 55.1206 148.513 55.239 148.494C55.3574 148.471 55.4521 148.452 55.5231 148.438L55.864 149.943C55.7504 149.986 55.5917 150.028 55.3881 150.071C55.1845 150.118 54.9265 150.142 54.614 150.142C54.1405 150.142 53.6765 150.04 53.2219 149.837C52.7721 149.633 52.3981 149.323 52.0998 148.906C51.8062 148.49 51.6594 147.964 51.6594 147.33V136.477ZM62.9308 139.091V140.511H57.2773V139.091H62.9308ZM58.9251 136.477H60.6012V146.875C60.6012 147.348 60.6699 147.704 60.8072 147.94C60.9492 148.172 61.1291 148.329 61.3469 148.409C61.5695 148.485 61.8039 148.523 62.0501 148.523C62.2347 148.523 62.3862 148.513 62.5046 148.494C62.623 148.471 62.7177 148.452 62.7887 148.438L63.1296 149.943C63.016 149.986 62.8574 150.028 62.6538 150.071C62.4502 150.118 62.1921 150.142 61.8796 150.142C61.4061 150.142 60.9421 150.04 60.4876 149.837C60.0378 149.633 59.6637 149.323 59.3654 148.906C59.0719 148.49 58.9251 147.964 58.9251 147.33V136.477ZM69.9087 150.227C68.8576 150.227 67.9509 149.995 67.1886 149.531C66.431 149.062 65.8462 148.409 65.4343 147.571C65.0271 146.728 64.8235 145.748 64.8235 144.631C64.8235 143.513 65.0271 142.528 65.4343 141.676C65.8462 140.819 66.4192 140.152 67.1531 139.673C67.8917 139.19 68.7534 138.949 69.7383 138.949C70.3065 138.949 70.8675 139.044 71.4215 139.233C71.9755 139.422 72.4798 139.73 72.9343 140.156C73.3888 140.578 73.7511 141.136 74.021 141.832C74.2908 142.528 74.4258 143.385 74.4258 144.403V145.114H66.0167V143.665H72.7212C72.7212 143.049 72.5981 142.5 72.3519 142.017C72.1104 141.534 71.7648 141.153 71.315 140.874C70.8699 140.594 70.3443 140.455 69.7383 140.455C69.0707 140.455 68.493 140.62 68.0053 140.952C67.5224 141.278 67.1507 141.705 66.8903 142.23C66.6299 142.756 66.4996 143.319 66.4996 143.92V144.886C66.4996 145.71 66.6417 146.409 66.9258 146.982C67.2146 147.55 67.6147 147.983 68.1261 148.281C68.6374 148.575 69.2317 148.722 69.9087 148.722C70.3491 148.722 70.7468 148.66 71.1019 148.537C71.4618 148.409 71.7719 148.22 72.0323 147.969C72.2927 147.713 72.494 147.396 72.636 147.017L74.2553 147.472C74.0849 148.021 73.7984 148.504 73.396 148.92C72.9935 149.332 72.4963 149.654 71.9045 149.886C71.3126 150.114 70.6474 150.227 69.9087 150.227ZM76.9755 150V139.091H78.5948V140.739H78.7085C78.9073 140.199 79.2672 139.761 79.788 139.425C80.3088 139.089 80.896 138.92 81.5494 138.92C81.6725 138.92 81.8263 138.923 82.011 138.928C82.1957 138.932 82.3353 138.939 82.43 138.949V140.653C82.3732 140.639 82.243 140.618 82.0394 140.589C81.8406 140.556 81.6299 140.54 81.4073 140.54C80.877 140.54 80.4035 140.651 79.9869 140.874C79.5749 141.091 79.2482 141.394 79.0067 141.783C78.77 142.166 78.6516 142.604 78.6516 143.097V150H76.9755ZM101.974 140H100.212C100.108 139.493 99.9259 139.048 99.6655 138.665C99.4098 138.281 99.0973 137.959 98.728 137.699C98.3634 137.434 97.9586 137.235 97.5135 137.102C97.0684 136.97 96.6044 136.903 96.1214 136.903C95.2408 136.903 94.4429 137.126 93.728 137.571C93.0178 138.016 92.4519 138.672 92.0305 139.538C91.6139 140.405 91.4055 141.468 91.4055 142.727C91.4055 143.987 91.6139 145.05 92.0305 145.916C92.4519 146.783 93.0178 147.438 93.728 147.884C94.4429 148.329 95.2408 148.551 96.1214 148.551C96.6044 148.551 97.0684 148.485 97.5135 148.352C97.9586 148.22 98.3634 148.023 98.728 147.763C99.0973 147.498 99.4098 147.173 99.6655 146.79C99.9259 146.402 100.108 145.956 100.212 145.455H101.974C101.841 146.198 101.6 146.863 101.249 147.45C100.899 148.037 100.463 148.537 99.9425 148.949C99.4216 149.356 98.8369 149.666 98.1882 149.879C97.5443 150.092 96.8554 150.199 96.1214 150.199C94.8809 150.199 93.7777 149.896 92.8118 149.29C91.8459 148.684 91.0859 147.822 90.532 146.705C89.978 145.587 89.701 144.261 89.701 142.727C89.701 141.193 89.978 139.867 90.532 138.75C91.0859 137.633 91.8459 136.771 92.8118 136.165C93.7777 135.559 94.8809 135.256 96.1214 135.256C96.8554 135.256 97.5443 135.362 98.1882 135.575C98.8369 135.788 99.4216 136.101 99.9425 136.513C100.463 136.92 100.899 137.417 101.249 138.004C101.6 138.587 101.841 139.252 101.974 140Z"></path>
<path fill="black" d="M30.7456 75V53.1818H43.8279V55.5256H33.3876V62.8977H42.8478V65.2415H33.3876V75H30.7456ZM48.0121 75V58.6364H50.5263V75H48.0121ZM49.2905 55.9091C48.8004 55.9091 48.3778 55.7422 48.0227 55.4084C47.6747 55.0746 47.5007 54.6733 47.5007 54.2045C47.5007 53.7358 47.6747 53.3345 48.0227 53.0007C48.3778 52.6669 48.8004 52.5 49.2905 52.5C49.7805 52.5 50.1996 52.6669 50.5476 53.0007C50.9027 53.3345 51.0803 53.7358 51.0803 54.2045C51.0803 54.6733 50.9027 55.0746 50.5476 55.4084C50.1996 55.7422 49.7805 55.9091 49.2905 55.9091ZM57.6454 65.1562V75H55.1312V58.6364H57.5602V61.1932H57.7733C58.1568 60.3622 58.7392 59.6946 59.5204 59.1903C60.3017 58.679 61.3102 58.4233 62.546 58.4233C63.6539 58.4233 64.6234 58.6506 65.4544 59.1051C66.2853 59.5526 66.9316 60.2344 67.3933 61.1506C67.8549 62.0597 68.0858 63.2102 68.0858 64.6023V75H65.5716V64.7727C65.5716 63.4872 65.2377 62.4858 64.5701 61.7685C63.9025 61.044 62.9863 60.6818 61.8216 60.6818C61.019 60.6818 60.3017 60.8558 59.6696 61.2038C59.0446 61.5518 58.551 62.0597 58.1887 62.7273C57.8265 63.3949 57.6454 64.2045 57.6454 65.1562ZM72.68 75V58.6364H75.1942V75H72.68ZM73.9585 55.9091C73.4684 55.9091 73.0458 55.7422 72.6907 55.4084C72.3427 55.0746 72.1687 54.6733 72.1687 54.2045C72.1687 53.7358 72.3427 53.3345 72.6907 53.0007C73.0458 52.6669 73.4684 52.5 73.9585 52.5C74.4485 52.5 74.8675 52.6669 75.2156 53.0007C75.5707 53.3345 75.7482 53.7358 75.7482 54.2045C75.7482 54.6733 75.5707 55.0746 75.2156 55.4084C74.8675 55.7422 74.4485 55.9091 73.9585 55.9091ZM91.3901 62.3011L89.1316 62.9403C88.9895 62.5639 88.78 62.1982 88.503 61.843C88.2331 61.4808 87.8638 61.1825 87.3951 60.9482C86.9263 60.7138 86.3262 60.5966 85.5946 60.5966C84.5932 60.5966 83.7587 60.8274 83.0911 61.2891C82.4306 61.7436 82.1003 62.3224 82.1003 63.0256C82.1003 63.6506 82.3276 64.1442 82.7821 64.5064C83.2367 64.8686 83.9469 65.1705 84.9128 65.4119L87.3418 66.0085C88.8049 66.3636 89.8951 66.907 90.6124 67.6385C91.3297 68.3629 91.6884 69.2969 91.6884 70.4403C91.6884 71.3778 91.4185 72.2159 90.8787 72.9545C90.3461 73.6932 89.6003 74.2756 88.6415 74.7017C87.6827 75.1278 86.5676 75.3409 85.2963 75.3409C83.6273 75.3409 82.2459 74.9787 81.1522 74.2543C80.0584 73.5298 79.3659 72.4716 79.0748 71.0795L81.4611 70.483C81.6884 71.3636 82.1181 72.0241 82.7502 72.4645C83.3894 72.9048 84.2239 73.125 85.2537 73.125C86.4256 73.125 87.356 72.8764 88.0449 72.3793C88.7409 71.875 89.089 71.2713 89.089 70.5682C89.089 70 88.8901 69.5241 88.4924 69.1406C88.0946 68.75 87.4838 68.4588 86.66 68.267L83.9327 67.6278C82.4341 67.2727 81.3333 66.7223 80.6301 65.9766C79.9341 65.2237 79.5861 64.2827 79.5861 63.1534C79.5861 62.2301 79.8453 61.4134 80.3638 60.7031C80.8894 59.9929 81.6032 59.4354 82.5051 59.0305C83.4142 58.6257 84.4441 58.4233 85.5946 58.4233C87.214 58.4233 88.4853 58.7784 89.4086 59.4886C90.339 60.1989 90.9995 61.1364 91.3901 62.3011ZM97.9872 65.1562V75H95.473V53.1818H97.9872V61.1932H98.2003C98.5838 60.348 99.1591 59.6768 99.9261 59.1797C100.7 58.6754 101.73 58.4233 103.016 58.4233C104.131 58.4233 105.107 58.647 105.945 59.0945C106.783 59.5348 107.433 60.2131 107.895 61.1293C108.364 62.0384 108.598 63.196 108.598 64.6023V75H106.084V64.7727C106.084 63.473 105.746 62.468 105.072 61.7578C104.404 61.0405 103.477 60.6818 102.291 60.6818C101.467 60.6818 100.729 60.8558 100.075 61.2038C99.429 61.5518 98.9176 62.0597 98.5412 62.7273C98.1719 63.3949 97.9872 64.2045 97.9872 65.1562Z"></path>
</svg>
