<svg xmlns="http://www.w3.org/2000/svg" fill="none" viewBox="0 0 139 164" height="164" width="139">
<path fill="#EEC638" d="M0 20C0 8.95431 8.95431 0 20 0H119C130.046 0 139 8.95431 139 20V144C139 155.046 130.046 164 119 164H20C8.95431 164 0 155.046 0 144V20Z"></path>
<path fill="black" d="M36.2102 135.455V150H34.5341V135.455H36.2102ZM43.854 150.227C42.8029 150.227 41.8962 149.995 41.1339 149.531C40.3763 149.062 39.7915 148.409 39.3796 147.571C38.9724 146.728 38.7688 145.748 38.7688 144.631C38.7688 143.513 38.9724 142.528 39.3796 141.676C39.7915 140.819 40.3645 140.152 41.0984 139.673C41.837 139.19 42.6987 138.949 43.6836 138.949C44.2518 138.949 44.8129 139.044 45.3668 139.233C45.9208 139.422 46.4251 139.73 46.8796 140.156C47.3342 140.578 47.6964 141.136 47.9663 141.832C48.2362 142.528 48.3711 143.385 48.3711 144.403V145.114H39.962V143.665H46.6665C46.6665 143.049 46.5434 142.5 46.2972 142.017C46.0558 141.534 45.7101 141.153 45.2603 140.874C44.8152 140.594 44.2897 140.455 43.6836 140.455C43.016 140.455 42.4383 140.62 41.9506 140.952C41.4677 141.278 41.096 141.705 40.8356 142.23C40.5752 142.756 40.445 143.319 40.445 143.92V144.886C40.445 145.71 40.587 146.409 40.8711 146.982C41.1599 147.55 41.56 147.983 42.0714 148.281C42.5827 148.575 43.177 148.722 43.854 148.722C44.2944 148.722 44.6921 148.66 45.0472 148.537C45.4071 148.409 45.7172 148.22 45.9776 147.969C46.238 147.713 46.4393 147.396 46.5813 147.017L48.2006 147.472C48.0302 148.021 47.7437 148.504 47.3413 148.92C46.9388 149.332 46.4416 149.654 45.8498 149.886C45.2579 150.114 44.5927 150.227 43.854 150.227ZM55.6651 139.091V140.511H50.0117V139.091H55.6651ZM51.6594 136.477H53.3356V146.875C53.3356 147.348 53.4042 147.704 53.5415 147.94C53.6836 148.172 53.8635 148.329 54.0813 148.409C54.3039 148.485 54.5382 148.523 54.7844 148.523C54.9691 148.523 55.1206 148.513 55.239 148.494C55.3574 148.471 55.4521 148.452 55.5231 148.438L55.864 149.943C55.7504 149.986 55.5917 150.028 55.3881 150.071C55.1845 150.118 54.9265 150.142 54.614 150.142C54.1405 150.142 53.6765 150.04 53.2219 149.837C52.7721 149.633 52.3981 149.323 52.0998 148.906C51.8062 148.49 51.6594 147.964 51.6594 147.33V136.477ZM62.9308 139.091V140.511H57.2773V139.091H62.9308ZM58.9251 136.477H60.6012V146.875C60.6012 147.348 60.6699 147.704 60.8072 147.94C60.9492 148.172 61.1291 148.329 61.3469 148.409C61.5695 148.485 61.8039 148.523 62.0501 148.523C62.2347 148.523 62.3862 148.513 62.5046 148.494C62.623 148.471 62.7177 148.452 62.7887 148.438L63.1296 149.943C63.016 149.986 62.8574 150.028 62.6538 150.071C62.4502 150.118 62.1921 150.142 61.8796 150.142C61.4061 150.142 60.9421 150.04 60.4876 149.837C60.0378 149.633 59.6637 149.323 59.3654 148.906C59.0719 148.49 58.9251 147.964 58.9251 147.33V136.477ZM69.9087 150.227C68.8576 150.227 67.9509 149.995 67.1886 149.531C66.431 149.062 65.8462 148.409 65.4343 147.571C65.0271 146.728 64.8235 145.748 64.8235 144.631C64.8235 143.513 65.0271 142.528 65.4343 141.676C65.8462 140.819 66.4192 140.152 67.1531 139.673C67.8917 139.19 68.7534 138.949 69.7383 138.949C70.3065 138.949 70.8675 139.044 71.4215 139.233C71.9755 139.422 72.4798 139.73 72.9343 140.156C73.3888 140.578 73.7511 141.136 74.021 141.832C74.2908 142.528 74.4258 143.385 74.4258 144.403V145.114H66.0167V143.665H72.7212C72.7212 143.049 72.5981 142.5 72.3519 142.017C72.1104 141.534 71.7648 141.153 71.315 140.874C70.8699 140.594 70.3443 140.455 69.7383 140.455C69.0707 140.455 68.493 140.62 68.0053 140.952C67.5224 141.278 67.1507 141.705 66.8903 142.23C66.6299 142.756 66.4996 143.319 66.4996 143.92V144.886C66.4996 145.71 66.6417 146.409 66.9258 146.982C67.2146 147.55 67.6147 147.983 68.1261 148.281C68.6374 148.575 69.2317 148.722 69.9087 148.722C70.3491 148.722 70.7468 148.66 71.1019 148.537C71.4618 148.409 71.7719 148.22 72.0323 147.969C72.2927 147.713 72.494 147.396 72.636 147.017L74.2553 147.472C74.0849 148.021 73.7984 148.504 73.396 148.92C72.9935 149.332 72.4963 149.654 71.9045 149.886C71.3126 150.114 70.6474 150.227 69.9087 150.227ZM76.9755 150V139.091H78.5948V140.739H78.7085C78.9073 140.199 79.2672 139.761 79.788 139.425C80.3088 139.089 80.896 138.92 81.5494 138.92C81.6725 138.92 81.8263 138.923 82.011 138.928C82.1957 138.932 82.3353 138.939 82.43 138.949V140.653C82.3732 140.639 82.243 140.618 82.0394 140.589C81.8406 140.556 81.6299 140.54 81.4073 140.54C80.877 140.54 80.4035 140.651 79.9869 140.874C79.5749 141.091 79.2482 141.394 79.0067 141.783C78.77 142.166 78.6516 142.604 78.6516 143.097V150H76.9755ZM90.8658 150H89.0192L94.3601 135.455H96.1783L101.519 150H99.6726L95.326 137.756H95.2124L90.8658 150ZM91.5476 144.318H98.9908V145.881H91.5476V144.318Z"></path>
<path fill="black" d="M53.3568 64.0909C53.3568 66.392 52.9413 68.3807 52.1104 70.0568C51.2794 71.733 50.1395 73.0256 48.6906 73.9347C47.2417 74.8438 45.5869 75.2983 43.7261 75.2983C41.8653 75.2983 40.2105 74.8438 38.7616 73.9347C37.3128 73.0256 36.1729 71.733 35.3419 70.0568C34.5109 68.3807 34.0954 66.392 34.0954 64.0909C34.0954 61.7898 34.5109 59.8011 35.3419 58.125C36.1729 56.4489 37.3128 55.1562 38.7616 54.2472C40.2105 53.3381 41.8653 52.8835 43.7261 52.8835C45.5869 52.8835 47.2417 53.3381 48.6906 54.2472C50.1395 55.1562 51.2794 56.4489 52.1104 58.125C52.9413 59.8011 53.3568 61.7898 53.3568 64.0909ZM50.8 64.0909C50.8 62.2017 50.4839 60.6072 49.8518 59.3075C49.2268 58.0078 48.3781 57.0241 47.3057 56.3565C46.2403 55.6889 45.0471 55.3551 43.7261 55.3551C42.4051 55.3551 41.2084 55.6889 40.1359 56.3565C39.0706 57.0241 38.2219 58.0078 37.5898 59.3075C36.9648 60.6072 36.6523 62.2017 36.6523 64.0909C36.6523 65.9801 36.9648 67.5746 37.5898 68.8743C38.2219 70.174 39.0706 71.1577 40.1359 71.8253C41.2084 72.4929 42.4051 72.8267 43.7261 72.8267C45.0471 72.8267 46.2403 72.4929 47.3057 71.8253C48.3781 71.1577 49.2268 70.174 49.8518 68.8743C50.4839 67.5746 50.8 65.9801 50.8 64.0909ZM59.3334 58.6364L63.2538 65.3267L67.1743 58.6364H70.072L64.7879 66.8182L70.072 75H67.1743L63.2538 68.6506L59.3334 75H56.4356L61.6345 66.8182L56.4356 58.6364H59.3334ZM79.8465 75.3409C78.2698 75.3409 76.9097 74.9929 75.7662 74.2969C74.6299 73.5938 73.7528 72.6136 73.1349 71.3565C72.5241 70.0923 72.2187 68.6222 72.2187 66.946C72.2187 65.2699 72.5241 63.7926 73.1349 62.5142C73.7528 61.2287 74.6121 60.2273 75.713 59.5099C76.8209 58.7855 78.1135 58.4233 79.5908 58.4233C80.4431 58.4233 81.2847 58.5653 82.1157 58.8494C82.9466 59.1335 83.703 59.5952 84.3849 60.2344C85.0667 60.8665 85.61 61.7045 86.0148 62.7486C86.4197 63.7926 86.6221 65.0781 86.6221 66.6051V67.6705H74.0084V65.4972H84.0653C84.0653 64.5739 83.8806 63.75 83.5113 63.0256C83.1491 62.3011 82.6306 61.7294 81.9559 61.3104C81.2883 60.8913 80.4999 60.6818 79.5908 60.6818C78.5894 60.6818 77.7229 60.9304 76.9914 61.4276C76.267 61.9176 75.7094 62.5568 75.3188 63.3452C74.9282 64.1335 74.7329 64.9787 74.7329 65.8807V67.3295C74.7329 68.5653 74.9459 69.6129 75.3721 70.4723C75.8053 71.3246 76.4055 71.9744 77.1725 72.4219C77.9395 72.8622 78.8309 73.0824 79.8465 73.0824C80.507 73.0824 81.1036 72.9901 81.6363 72.8054C82.176 72.6136 82.6412 72.3295 83.0319 71.9531C83.4225 71.5696 83.7243 71.0937 83.9374 70.5256L86.3664 71.2074C86.1107 72.0312 85.681 72.7557 85.0773 73.3807C84.4736 73.9986 83.7279 74.4815 82.8401 74.8295C81.9523 75.1705 80.9545 75.3409 79.8465 75.3409ZM92.9608 65.1562V75H90.4466V58.6364H92.8756V61.1932H93.0887C93.4722 60.3622 94.0546 59.6946 94.8358 59.1903C95.6171 58.679 96.6256 58.4233 97.8614 58.4233C98.9694 58.4233 99.9388 58.6506 100.77 59.1051C101.601 59.5526 102.247 60.2344 102.709 61.1506C103.17 62.0597 103.401 63.2102 103.401 64.6023V75H100.887V64.7727C100.887 63.4872 100.553 62.4858 99.8856 61.7685C99.218 61.044 98.3018 60.6818 97.137 60.6818C96.3344 60.6818 95.6171 60.8558 94.985 61.2038C94.36 61.5518 93.8664 62.0597 93.5042 62.7273C93.142 63.3949 92.9608 64.2045 92.9608 65.1562Z"></path>
</svg>
