<svg version="1.1" xmlns="http://www.w3.org/2000/svg" xmlns:xlink="http://www.w3.org/1999/xlink" width="254.21262" height="11.8364" viewBox="0,0,254.21262,11.8364"><g transform="translate(-112.89369,-174.0818)"><g data-paper-data="{&quot;isPaintingLayer&quot;:true}" fill="#ffffff" fill-rule="nonzero" stroke="none" stroke-width="1" stroke-linecap="butt" stroke-linejoin="miter" stroke-miterlimit="10" stroke-dasharray="" stroke-dashoffset="0" style="mix-blend-mode: normal"><path d="M115.93424,185.72275l-3.04055,-11.11971h1.36824l2.32384,9.05648h0.10859l2.36731,-9.05648h1.52027l2.36728,9.05648h0.10859l2.32386,-9.05648h1.36823l-3.04053,11.11971h-1.38999l-2.45414,-8.86102h-0.08686l-2.45417,8.86102zM129.53523,180.70585v5.0169h-1.28136v-11.11971h1.28136v4.08303h0.10862c0.19545,-0.43075 0.48863,-0.77279 0.87957,-1.02619c0.39457,-0.25699 0.91941,-0.38549 1.57457,-0.38549c0.5683,0 1.066,0.114 1.49312,0.34204c0.42712,0.22444 0.75833,0.57011 0.9936,1.03705c0.2389,0.46334 0.35835,1.05333 0.35835,1.77003v5.29925h-1.28136v-5.21235c0,-0.66242 -0.17195,-1.17459 -0.5158,-1.53657c-0.34026,-0.36558 -0.81264,-0.54839 -1.41712,-0.54839c-0.41989,0 -0.79634,0.08868 -1.12933,0.26604c-0.32939,0.17739 -0.59002,0.4362 -0.78187,0.77642c-0.18822,0.34026 -0.28235,0.75292 -0.28235,1.23795zM139.74142,185.9182c-0.52848,0 -1.00806,-0.09954 -1.43882,-0.29863c-0.43075,-0.20268 -0.77279,-0.49408 -1.02619,-0.87415c-0.25339,-0.38367 -0.38007,-0.84701 -0.38007,-1.38995c0,-0.4778 0.09413,-0.8651 0.28235,-1.16191c0.18822,-0.30044 0.4398,-0.53574 0.7547,-0.70587c0.3149,-0.1701 0.66239,-0.29681 1.04247,-0.38004c0.3837,-0.0869 0.76919,-0.15567 1.1565,-0.20635c0.50675,-0.06514 0.9176,-0.114 1.2325,-0.14659c0.31853,-0.03618 0.5502,-0.09591 0.69498,-0.17917c0.14844,-0.08326 0.22262,-0.22804 0.22262,-0.43435v-0.04345c0,-0.53571 -0.14659,-0.95197 -0.4398,-1.24878c-0.28958,-0.29684 -0.72934,-0.44524 -1.31936,-0.44524c-0.61174,0 -1.09136,0.13394 -1.43885,0.4018c-0.34749,0.26785 -0.5918,0.5538 -0.73298,0.85787l-1.21622,-0.43438c0.21717,-0.50675 0.50675,-0.90129 0.86873,-1.18364c0.36558,-0.28595 0.76375,-0.48503 1.1945,-0.59725c0.43435,-0.11582 0.86147,-0.17373 1.28136,-0.17373c0.26785,0 0.57553,0.03255 0.92301,0.09773c0.35112,0.06154 0.68956,0.19004 1.01533,0.38549c0.32939,0.19548 0.6027,0.49048 0.81987,0.88501c0.21717,0.39457 0.32576,0.92305 0.32576,1.58544v5.4947h-1.28136v-1.12936h-0.06514c-0.0869,0.18099 -0.23167,0.37466 -0.43438,0.58097c-0.20268,0.20632 -0.47235,0.38189 -0.80898,0.52666c-0.33666,0.14481 -0.74747,0.21718 -1.23253,0.21718zM139.93691,184.76715c0.50675,0 0.93387,-0.09954 1.28136,-0.29862c0.35112,-0.19908 0.61534,-0.45608 0.7927,-0.77101c0.18099,-0.3149 0.27149,-0.64611 0.27149,-0.9936v-1.17278c-0.05428,0.06517 -0.17373,0.1249 -0.35835,0.17917c-0.18099,0.05068 -0.39094,0.09591 -0.62984,0.13573c-0.23527,0.03622 -0.46512,0.0688 -0.68953,0.09776c-0.22081,0.02532 -0.39998,0.04705 -0.53752,0.06514c-0.33303,0.04345 -0.64433,0.11403 -0.93391,0.21176c-0.28595,0.0941 -0.51762,0.23709 -0.69498,0.42894c-0.17373,0.18822 -0.26062,0.44521 -0.26062,0.77098c0,0.44525 0.16471,0.78187 0.49411,1.00991c0.33299,0.22441 0.7547,0.33663 1.26509,0.33663zM149.52957,177.38297v1.08591h-4.32186v-1.08591zM146.46719,175.38491h1.28146v7.94884c0,0.36198 0.05256,0.63344 0.15736,0.81443c0.10862,0.17736 0.24623,0.29681 0.41282,0.35835c0.1701,0.05791 0.34911,0.08686 0.53736,0.08686c0.14111,0 0.25706,-0.00723 0.34752,-0.02169c0.09046,-0.01812 0.16309,-0.03259 0.21724,-0.04345l0.26056,1.15105c-0.08696,0.03259 -0.208,0.06517 -0.36377,0.09776c-0.15544,0.03618 -0.35294,0.05428 -0.59184,0.05428c-0.36185,0 -0.7167,-0.07782 -1.06422,-0.23345c-0.3437,-0.15567 -0.62974,-0.39275 -0.85781,-0.71129c-0.22425,-0.31853 -0.33669,-0.72033 -0.33669,-1.20536zM155.75721,185.72275v-8.33978h1.28146v8.33978zM156.40893,175.99299c-0.25005,0 -0.46538,-0.08505 -0.6463,-0.25518c-0.17742,-0.17013 -0.26598,-0.37463 -0.26598,-0.61353c0,-0.2389 0.08855,-0.44343 0.26598,-0.61356c0.18093,-0.17013 0.39625,-0.25518 0.6463,-0.25518c0.24973,0 0.46315,0.08505 0.64057,0.25518c0.18093,0.17013 0.27139,0.37466 0.27139,0.61356c0,0.2389 -0.09047,0.4434 -0.27139,0.61353c-0.17742,0.17013 -0.39084,0.25518 -0.64057,0.25518zM165.29283,179.25072l-1.15086,0.32576c-0.07262,-0.19182 -0.17933,-0.37826 -0.32044,-0.55922c-0.13761,-0.18462 -0.32586,-0.33666 -0.56476,-0.45611c-0.2389,-0.11945 -0.54469,-0.17917 -0.91769,-0.17917c-0.51029,0 -0.93553,0.11767 -1.27573,0.35293c-0.33669,0.23167 -0.50487,0.52667 -0.50487,0.88501c0,0.31853 0.11562,0.57011 0.3472,0.7547c0.23189,0.18462 0.59375,0.33844 1.0862,0.46152l1.23782,0.30404c0.74569,0.18099 1.30121,0.45789 1.66688,0.83073c0.36568,0.36921 0.5482,0.8452 0.5482,1.42795c0,0.4778 -0.13729,0.90495 -0.4125,1.2814c-0.27139,0.37644 -0.6514,0.67325 -1.14035,0.89043c-0.48863,0.21717 -1.0569,0.3258 -1.70479,0.3258c-0.85048,0 -1.55476,-0.18462 -2.11219,-0.55383c-0.55743,-0.36921 -0.91005,-0.90855 -1.05849,-1.61799l1.21616,-0.30407c0.11563,0.44884 0.33478,0.78547 0.65682,1.00991c0.32586,0.22441 0.7511,0.33663 1.27605,0.33663c0.59725,0 1.07155,-0.12668 1.42257,-0.38007c0.35485,-0.25699 0.53195,-0.56466 0.53195,-0.92301c0,-0.28958 -0.10129,-0.53211 -0.30388,-0.72756c-0.2029,-0.19908 -0.51411,-0.34749 -0.93394,-0.44521l-1.39008,-0.3258c-0.76352,-0.18096 -1.32478,-0.46149 -1.68313,-0.84157c-0.35453,-0.38367 -0.53195,-0.86329 -0.53195,-1.43882c0,-0.47057 0.13219,-0.88683 0.39625,-1.24881c0.26789,-0.36198 0.63165,-0.64611 1.09129,-0.85243c0.46347,-0.20635 0.98841,-0.30949 1.57451,-0.30949c0.82532,0 1.47322,0.18099 1.94401,0.54294c0.47398,0.36198 0.81067,0.83978 1.00975,1.4334zM175.30083,177.38297v1.08591h-4.32186v-1.08591zM172.23877,175.38491h1.28114v7.94884c0,0.36198 0.05256,0.63344 0.15768,0.81443c0.10862,0.17736 0.24591,0.29681 0.4125,0.35835c0.1701,0.05791 0.34943,0.08686 0.53768,0.08686c0.14111,0 0.25674,-0.00723 0.3472,-0.02169c0.09078,-0.01812 0.16309,-0.03259 0.21724,-0.04345l0.26056,1.15105c-0.08664,0.03259 -0.208,0.06517 -0.36377,0.09776c-0.15544,0.03618 -0.35294,0.05428 -0.59184,0.05428c-0.36185,0 -0.7167,-0.07782 -1.0639,-0.23345c-0.34402,-0.15567 -0.63006,-0.39275 -0.85813,-0.71129c-0.22425,-0.31853 -0.33637,-0.72033 -0.33637,-1.20536zM178.68907,180.70585v5.0169h-1.28146v-11.11971h1.28146v4.08303h0.1083c0.19558,-0.43075 0.48895,-0.77279 0.87979,-1.02619c0.39434,-0.25699 0.91929,-0.38549 1.57451,-0.38549c0.56826,0 1.06613,0.114 1.49297,0.34204c0.42715,0.22444 0.75843,0.57011 0.99382,1.03705c0.2389,0.46334 0.35835,1.05333 0.35835,1.77003v5.29925h-1.28146v-5.21235c0,-0.66242 -0.17201,-1.17459 -0.51571,-1.53657c-0.34019,-0.36558 -0.81258,-0.54839 -1.41715,-0.54839c-0.41983,0 -0.79634,0.08868 -1.12952,0.26604c-0.32936,0.17739 -0.58992,0.4362 -0.78168,0.77642c-0.18825,0.34026 -0.28222,0.75292 -0.28222,1.23795zM189.93743,185.89651c-0.80334,0 -1.49647,-0.17739 -2.07938,-0.53211c-0.57909,-0.35835 -1.02632,-0.85787 -1.34103,-1.49854c-0.31121,-0.64433 -0.46697,-1.39358 -0.46697,-2.24786c0,-0.85424 0.15576,-1.60713 0.46697,-2.25869c0.31471,-0.65516 0.75269,-1.16554 1.31395,-1.53113c0.56476,-0.36921 1.22349,-0.5538 1.97618,-0.5538c0.43448,0 0.86355,0.07237 1.28688,0.21718c0.42365,0.14477 0.80907,0.38007 1.15659,0.70584c0.34752,0.32217 0.62432,0.74929 0.83073,1.28136c0.20641,0.53211 0.3093,1.18727 0.3093,1.96551v0.54294h-6.42832v-1.10761h5.1252c0,-0.47057 -0.09397,-0.89046 -0.28222,-1.25967c-0.18443,-0.36921 -0.44881,-0.66061 -0.79283,-0.87415c-0.34019,-0.21358 -0.74186,-0.32035 -1.20533,-0.32035c-0.51029,0 -0.95178,0.12668 -1.32478,0.38007c-0.36918,0.24976 -0.65331,0.57552 -0.8524,0.97732c-0.19908,0.40177 -0.29847,0.83252 -0.29847,1.29223v0.73842c0,0.62981 0.10862,1.16373 0.32554,1.60171c0.22106,0.43435 0.52686,0.76556 0.9177,0.9936c0.39084,0.22441 0.84507,0.33663 1.36269,0.33663c0.33669,0 0.64089,-0.04705 0.91228,-0.14118c0.27521,-0.09773 0.5122,-0.2425 0.71128,-0.43435c0.19908,-0.19545 0.35294,-0.43798 0.46155,-0.72756l1.23782,0.34749c-0.13028,0.41989 -0.34911,0.7891 -0.65682,1.10764c-0.3077,0.3149 -0.68771,0.56106 -1.14035,0.73842c-0.45232,0.17373 -0.96101,0.26062 -1.52577,0.26062zM205.54748,179.25072l-1.15086,0.32576c-0.07262,-0.19182 -0.17934,-0.37826 -0.32045,-0.55922c-0.13761,-0.18462 -0.32586,-0.33666 -0.56476,-0.45611c-0.2389,-0.11945 -0.54469,-0.17917 -0.91769,-0.17917c-0.51029,0 -0.93553,0.11767 -1.27573,0.35293c-0.33669,0.23167 -0.50488,0.52667 -0.50488,0.88501c0,0.31853 0.11563,0.57011 0.3472,0.7547c0.23189,0.18462 0.59374,0.33844 1.0862,0.46152l1.23782,0.30404c0.74569,0.18099 1.30121,0.45789 1.66688,0.83073c0.36568,0.36921 0.5482,0.8452 0.5482,1.42795c0,0.4778 -0.13729,0.90495 -0.4125,1.2814c-0.27139,0.37644 -0.6514,0.67325 -1.14035,0.89043c-0.48863,0.21717 -1.05689,0.3258 -1.70479,0.3258c-0.85048,0 -1.55476,-0.18462 -2.1122,-0.55383c-0.55743,-0.36921 -0.91005,-0.90855 -1.05849,-1.61799l1.21616,-0.30407c0.11563,0.44884 0.33478,0.78547 0.65682,1.00991c0.32586,0.22441 0.7511,0.33663 1.27604,0.33663c0.59725,0 1.07155,-0.12668 1.42257,-0.38007c0.35485,-0.25699 0.53195,-0.56466 0.53195,-0.92301c0,-0.28958 -0.10129,-0.53211 -0.30388,-0.72756c-0.2029,-0.19908 -0.51411,-0.34749 -0.93394,-0.44521l-1.39008,-0.3258c-0.76352,-0.18096 -1.32478,-0.46149 -1.68313,-0.84157c-0.35453,-0.38367 -0.53195,-0.86329 -0.53195,-1.43882c0,-0.47057 0.13219,-0.88683 0.39625,-1.24881c0.26789,-0.36198 0.63165,-0.64611 1.09129,-0.85243c0.46347,-0.20635 0.98841,-0.30949 1.57451,-0.30949c0.82532,0 1.47322,0.18099 1.94401,0.54294c0.47398,0.36198 0.81067,0.83978 1.00975,1.4334zM207.62846,185.72275v-8.33978h1.23782v1.30309h0.10862c0.17392,-0.44521 0.45423,-0.79092 0.84157,-1.03705c0.38734,-0.24976 0.8524,-0.37463 1.39549,-0.37463c0.55011,0 1.00816,0.12487 1.37351,0.37463c0.36918,0.24613 0.65713,0.59184 0.86354,1.03705h0.08664c0.21374,-0.43075 0.53386,-0.77279 0.96101,-1.02619c0.42715,-0.25699 0.93936,-0.38549 1.53661,-0.38549c0.74569,0 1.35568,0.23345 1.82965,0.70039c0.4743,0.46334 0.71129,1.18545 0.71129,2.16641v5.58156h-1.28114v-5.58156c0,-0.61534 -0.16851,-1.05514 -0.50488,-1.3194c-0.33669,-0.26422 -0.73326,-0.39635 -1.18908,-0.39635c-0.58642,0 -1.04065,0.17736 -1.363,0.53211c-0.32204,0.35109 -0.48322,0.79633 -0.48322,1.33564v5.42956h-1.30312v-5.71187c0,-0.4742 -0.15385,-0.85606 -0.46155,-1.14564c-0.3077,-0.29321 -0.70396,-0.4398 -1.18909,-0.4398c-0.33287,0 -0.64407,0.08868 -0.93362,0.26604c-0.28604,0.17739 -0.51762,0.42352 -0.69504,0.73842c-0.17392,0.3113 -0.26056,0.67147 -0.26056,1.0805v5.21235zM223.37133,185.9182c-0.52845,0 -1.00816,-0.09954 -1.43881,-0.29863c-0.43066,-0.20268 -0.77276,-0.49408 -1.02632,-0.87415c-0.25323,-0.38367 -0.38001,-0.84701 -0.38001,-1.38995c0,-0.4778 0.09429,-0.8651 0.28254,-1.16191c0.18825,-0.30044 0.43958,-0.53574 0.7546,-0.70587c0.31503,-0.1701 0.66255,-0.29681 1.04256,-0.38004c0.38351,-0.0869 0.76894,-0.15567 1.15627,-0.20635c0.50679,-0.06514 0.9177,-0.114 1.23273,-0.14659c0.31853,-0.03618 0.5501,-0.09591 0.69504,-0.17917c0.14812,-0.08326 0.22234,-0.22804 0.22234,-0.43435v-0.04345c0,-0.53571 -0.14653,-0.95197 -0.43958,-1.24878c-0.28955,-0.29684 -0.72944,-0.44524 -1.31936,-0.44524c-0.6119,0 -1.09129,0.13394 -1.43882,0.4018c-0.34752,0.26785 -0.59184,0.5538 -0.73326,0.85787l-1.21616,-0.43438c0.21724,-0.50675 0.50678,-0.90129 0.86896,-1.18364c0.36536,-0.28595 0.76352,-0.48503 1.1945,-0.59725c0.43416,-0.11582 0.86131,-0.17373 1.28114,-0.17373c0.26789,0 0.57559,0.03255 0.92311,0.09773c0.35102,0.06154 0.68963,0.19004 1.01549,0.38549c0.32936,0.19548 0.60266,0.49048 0.81958,0.88501c0.21724,0.39457 0.32586,0.92305 0.32586,1.58544v5.4947h-1.28146v-1.12936h-0.06498c-0.08696,0.18099 -0.23157,0.37466 -0.43448,0.58097c-0.20259,0.20632 -0.47238,0.38189 -0.80908,0.52666c-0.33637,0.14481 -0.74728,0.21718 -1.23241,0.21718zM223.56691,184.76715c0.50679,0 0.93394,-0.09954 1.28114,-0.29862c0.35134,-0.19908 0.61541,-0.45608 0.79283,-0.77101c0.18093,-0.3149 0.27139,-0.64611 0.27139,-0.9936v-1.17278c-0.05415,0.06517 -0.1736,0.1249 -0.35835,0.17917c-0.18093,0.05068 -0.39084,0.09591 -0.62974,0.13573c-0.2354,0.03622 -0.46506,0.0688 -0.68963,0.09776c-0.22074,0.02532 -0.39976,0.04705 -0.53736,0.06514c-0.33319,0.04345 -0.64439,0.11403 -0.93394,0.21176c-0.28604,0.0941 -0.51762,0.23709 -0.69504,0.42894c-0.1736,0.18822 -0.26056,0.44521 -0.26056,0.77098c0,0.44525 0.16468,0.78187 0.49405,1.00991c0.33319,0.22441 0.7546,0.33663 1.26521,0.33663zM230.81386,174.60303v11.11971h-1.28146v-11.11971zM234.44227,174.60303v11.11971h-1.28146v-11.11971zM240.28577,185.89651c-0.80366,0 -1.49679,-0.17739 -2.07939,-0.53211c-0.57941,-0.35835 -1.02632,-0.85787 -1.34134,-1.49854c-0.31121,-0.64433 -0.46697,-1.39358 -0.46697,-2.24786c0,-0.85424 0.15576,-1.60713 0.46697,-2.25869c0.31503,-0.65516 0.75301,-1.16554 1.31395,-1.53113c0.56476,-0.36921 1.22349,-0.5538 1.9765,-0.5538c0.43448,0 0.86322,0.07237 1.28687,0.21718c0.42333,0.14477 0.80876,0.38007 1.15628,0.70584c0.34752,0.32217 0.62464,0.74929 0.83073,1.28136c0.20641,0.53211 0.30962,1.18727 0.30962,1.96551v0.54294h-6.42864v-1.10761h5.12552c0,-0.47057 -0.09397,-0.89046 -0.28222,-1.25967c-0.18475,-0.36921 -0.44881,-0.66061 -0.79283,-0.87415c-0.34019,-0.21358 -0.74218,-0.32035 -1.20533,-0.32035c-0.51029,0 -0.9521,0.12668 -1.32478,0.38007c-0.36918,0.24976 -0.65331,0.57552 -0.8524,0.97732c-0.19908,0.40177 -0.29878,0.83252 -0.29878,1.29223v0.73842c0,0.62981 0.10862,1.16373 0.32586,1.60171c0.22074,0.43435 0.52653,0.76556 0.91769,0.9936c0.39084,0.22441 0.84507,0.33663 1.36269,0.33663c0.33669,0 0.64057,-0.04705 0.91228,-0.14118c0.27489,-0.09773 0.5122,-0.2425 0.71129,-0.43435c0.19908,-0.19545 0.35294,-0.43798 0.46124,-0.72756l1.23814,0.34749c-0.13028,0.41989 -0.34943,0.7891 -0.65714,1.10764c-0.3077,0.3149 -0.68771,0.56106 -1.14003,0.73842c-0.45264,0.17373 -0.96101,0.26062 -1.52577,0.26062zM251.59561,179.25072l-1.15118,0.32576c-0.07231,-0.19182 -0.17902,-0.37826 -0.32045,-0.55922c-0.13729,-0.18462 -0.32554,-0.33666 -0.56444,-0.45611c-0.2389,-0.11945 -0.54501,-0.17917 -0.91769,-0.17917c-0.51029,0 -0.93585,0.11767 -1.27605,0.35293c-0.33669,0.23167 -0.50488,0.52667 -0.50488,0.88501c0,0.31853 0.11595,0.57011 0.34752,0.7547c0.23157,0.18462 0.59375,0.33844 1.08588,0.46152l1.23782,0.30404c0.74569,0.18099 1.30153,0.45789 1.66688,0.83073c0.36568,0.36921 0.54851,0.8452 0.54851,1.42795c0,0.4778 -0.13761,0.90495 -0.41282,1.2814c-0.27139,0.37644 -0.6514,0.67325 -1.14003,0.89043c-0.48863,0.21717 -1.0569,0.3258 -1.70479,0.3258c-0.8508,0 -1.55476,-0.18462 -2.11219,-0.55383c-0.55743,-0.36921 -0.91037,-0.90855 -1.0588,-1.61799l1.21616,-0.30407c0.11595,0.44884 0.33478,0.78547 0.65713,1.00991c0.32586,0.22441 0.7511,0.33663 1.27573,0.33663c0.59725,0 1.07155,-0.12668 1.42257,-0.38007c0.35485,-0.25699 0.53227,-0.56466 0.53227,-0.92301c0,-0.28958 -0.10129,-0.53211 -0.3042,-0.72756c-0.20259,-0.19908 -0.51379,-0.34749 -0.93394,-0.44521l-1.38976,-0.3258c-0.76384,-0.18096 -1.32478,-0.46149 -1.68313,-0.84157c-0.35485,-0.38367 -0.53227,-0.86329 -0.53227,-1.43882c0,-0.47057 0.13219,-0.88683 0.39658,-1.24881c0.26789,-0.36198 0.63165,-0.64611 1.09129,-0.85243c0.46315,-0.20635 0.98809,-0.30949 1.57451,-0.30949c0.82532,0 1.47321,0.18099 1.94369,0.54294c0.4743,0.36198 0.81099,0.83978 1.01007,1.4334zM257.30341,177.38297v1.08591h-4.32218v-1.08591zM254.24103,175.38491h1.28146v7.94884c0,0.36198 0.05256,0.63344 0.15736,0.81443c0.10862,0.17736 0.24623,0.29681 0.41282,0.35835c0.1701,0.05791 0.34911,0.08686 0.53736,0.08686c0.14111,0 0.25706,-0.00723 0.34752,-0.02169c0.09046,-0.01812 0.16277,-0.03259 0.21724,-0.04345l0.26056,1.15105c-0.08696,0.03259 -0.208,0.06517 -0.36377,0.09776c-0.15576,0.03618 -0.35294,0.05428 -0.59184,0.05428c-0.36185,0 -0.7167,-0.07782 -1.06422,-0.23345c-0.3437,-0.15567 -0.62974,-0.39275 -0.85781,-0.71129c-0.22457,-0.31853 -0.33669,-0.72033 -0.33669,-1.20536zM268.78686,182.31301v-4.93004h1.28146v8.33978h-1.28146v-1.41167h-0.08696c-0.19558,0.42349 -0.49946,0.78365 -0.91228,1.08046c-0.4125,0.29321 -0.93362,0.4398 -1.56368,0.4398c-0.52112,0 -0.98459,-0.114 -1.38976,-0.34207c-0.40549,-0.23164 -0.72403,-0.57913 -0.9556,-1.04246c-0.23189,-0.46694 -0.34752,-1.05514 -0.34752,-1.76461v-5.29922h1.28146v5.21235c0,0.60811 0.1701,1.09314 0.51029,1.45512c0.3437,0.36198 0.78168,0.54294 1.31395,0.54294c0.31853,0 0.64248,-0.08142 0.97184,-0.24432c0.33287,-0.1629 0.61158,-0.41266 0.83615,-0.74929c0.22807,-0.33663 0.3421,-0.76556 0.3421,-1.28678zM273.69641,180.70585v5.0169h-1.28146v-8.33978h1.23814v1.30309h0.10862c0.19526,-0.42352 0.49213,-0.76375 0.8903,-1.02077c0.39817,-0.26059 0.91228,-0.39091 1.54202,-0.39091c0.56476,0 1.05881,0.11582 1.48214,0.34749c0.42365,0.22804 0.75301,0.57552 0.98841,1.04246c0.23508,0.46334 0.35294,1.04973 0.35294,1.75917v5.29925h-1.28146v-5.21235c0,-0.65519 -0.1701,-1.16554 -0.51029,-1.53116c-0.34019,-0.36918 -0.80716,-0.5538 -1.40091,-0.5538c-0.409,0 -0.77467,0.08868 -1.09671,0.26604c-0.31853,0.17739 -0.57018,0.4362 -0.75492,0.77642c-0.18443,0.34026 -0.2768,0.75292 -0.2768,1.23795zM281.35905,185.72275v-8.33978h1.28114v8.33978zM282.01045,175.99299c-0.24973,0 -0.46506,-0.08505 -0.64599,-0.25518c-0.17742,-0.17013 -0.26629,-0.37463 -0.26629,-0.61353c0,-0.2389 0.08887,-0.44343 0.26629,-0.61356c0.18093,-0.17013 0.39625,-0.25518 0.64599,-0.25518c0.24973,0 0.46347,0.08505 0.64057,0.25518c0.18125,0.17013 0.27171,0.37466 0.27171,0.61356c0,0.2389 -0.09046,0.4434 -0.27171,0.61353c-0.1771,0.17013 -0.39084,0.25518 -0.64057,0.25518zM288.61428,177.38297v1.08591h-4.32218v-1.08591zM285.5519,175.38491h1.28146v7.94884c0,0.36198 0.05224,0.63344 0.15736,0.81443c0.10862,0.17736 0.24623,0.29681 0.4125,0.35835c0.17042,0.05791 0.34943,0.08686 0.53768,0.08686c0.14111,0 0.25706,-0.00723 0.34752,-0.02169c0.09046,-0.01812 0.16277,-0.03259 0.21724,-0.04345l0.26056,1.15105c-0.08696,0.03259 -0.20832,0.06517 -0.36377,0.09776c-0.15576,0.03618 -0.35294,0.05428 -0.59184,0.05428c-0.36217,0 -0.7167,-0.07782 -1.06422,-0.23345c-0.34402,-0.15567 -0.62974,-0.39275 -0.85781,-0.71129c-0.22457,-0.31853 -0.33669,-0.72033 -0.33669,-1.20536zM298.22985,185.89651c-0.75301,0 -1.41333,-0.17917 -1.98191,-0.53752c-0.56444,-0.35835 -1.00625,-0.85969 -1.32478,-1.50399c-0.31471,-0.64433 -0.47238,-1.39722 -0.47238,-2.25869c0,-0.86874 0.15767,-1.62707 0.47238,-2.275c0.31853,-0.64793 0.76034,-1.15105 1.32478,-1.5094c0.56858,-0.35835 1.2289,-0.53753 1.98191,-0.53753c0.75301,0 1.41174,0.17918 1.9765,0.53753c0.56826,0.35835 1.00975,0.86147 1.32478,1.5094c0.31853,0.64793 0.4778,1.40626 0.4778,2.275c0,0.86147 -0.15926,1.61436 -0.4778,2.25869c-0.31503,0.6443 -0.75652,1.14564 -1.32478,1.50399c-0.56476,0.35835 -1.22349,0.53752 -1.9765,0.53752zM298.22985,184.74542c0.57209,0 1.04256,-0.14659 1.41174,-0.4398c0.36918,-0.29318 0.64248,-0.67867 0.8199,-1.15647c0.17742,-0.4778 0.26597,-0.99542 0.26597,-1.55285c0,-0.55743 -0.08855,-1.07686 -0.26597,-1.5583c-0.17742,-0.48143 -0.45073,-0.87052 -0.8199,-1.16736c-0.36918,-0.29681 -0.83965,-0.44521 -1.41174,-0.44521c-0.57177,0 -1.04256,0.1484 -1.41174,0.44521c-0.36918,0.29684 -0.64248,0.68593 -0.8199,1.16736c-0.1771,0.48143 -0.26597,1.00086 -0.26597,1.5583c0,0.55743 0.08887,1.07505 0.26597,1.55285c0.17742,0.4778 0.45073,0.86329 0.8199,1.15647c0.36918,0.29321 0.83997,0.4398 1.41174,0.4398zM307.6785,177.38297v1.08591h-4.49546v-1.08591zM304.52948,185.72275v-9.49086c0,-0.4778 0.11212,-0.87597 0.33669,-1.1945c0.22425,-0.31853 0.51571,-0.55743 0.87406,-0.7167c0.35835,-0.15925 0.73677,-0.23889 1.13493,-0.23889c0.31471,0 0.57177,0.02534 0.77085,0.07601c0.19908,0.05067 0.34752,0.09773 0.44531,0.14118l-0.36918,1.1076c-0.0653,-0.02169 -0.15576,-0.04886 -0.27171,-0.08142c-0.11212,-0.03259 -0.26056,-0.04889 -0.44499,-0.04889c-0.42365,0 -0.72944,0.1068 -0.91769,0.32035c-0.18443,0.21358 -0.27681,0.52666 -0.27681,0.93932v9.18679zM313.77459,185.72275v-8.33978h1.23814v1.30309h0.1083c0.17392,-0.44521 0.45455,-0.79092 0.84188,-1.03705c0.38702,-0.24976 0.8524,-0.37463 1.39518,-0.37463c0.55011,0 1.00816,0.12487 1.37384,0.37463c0.36918,0.24613 0.65682,0.59184 0.86323,1.03705h0.08696c0.21342,-0.43075 0.53386,-0.77279 0.96101,-1.02619c0.42715,-0.25699 0.93936,-0.38549 1.5366,-0.38549c0.74537,0 1.35536,0.23345 1.82966,0.70039c0.4743,0.46334 0.71128,1.18545 0.71128,2.16641v5.58156h-1.28146v-5.58156c0,-0.61534 -0.16818,-1.05514 -0.50487,-1.3194c-0.33669,-0.26422 -0.73295,-0.39635 -1.18909,-0.39635c-0.58642,0 -1.04065,0.17736 -1.36269,0.53211c-0.32236,0.35109 -0.48353,0.79633 -0.48353,1.33564v5.42956h-1.3028v-5.71187c0,-0.4742 -0.15385,-0.85606 -0.46155,-1.14564c-0.3077,-0.29321 -0.70428,-0.4398 -1.18908,-0.4398c-0.33319,0 -0.64439,0.08868 -0.93394,0.26604c-0.28604,0.17739 -0.51762,0.42352 -0.69504,0.73842c-0.1736,0.3113 -0.26056,0.67147 -0.26056,1.0805v5.21235zM329.51747,185.9182c-0.52845,0 -1.00784,-0.09954 -1.43882,-0.29863c-0.43066,-0.20268 -0.77276,-0.49408 -1.026,-0.87415c-0.25355,-0.38367 -0.38001,-0.84701 -0.38001,-1.38995c0,-0.4778 0.09397,-0.8651 0.28222,-1.16191c0.18825,-0.30044 0.43989,-0.53574 0.7546,-0.70587c0.31503,-0.1701 0.66255,-0.29681 1.04256,-0.38004c0.38383,-0.0869 0.76926,-0.15567 1.1566,-0.20635c0.50679,-0.06514 0.91738,-0.114 1.2324,-0.14659c0.31853,-0.03618 0.55011,-0.09591 0.69504,-0.17917c0.14844,-0.08326 0.22265,-0.22804 0.22265,-0.43435v-0.04345c0,-0.53571 -0.14652,-0.95197 -0.43989,-1.24878c-0.28955,-0.29684 -0.72944,-0.44524 -1.31937,-0.44524c-0.61158,0 -1.09129,0.13394 -1.43882,0.4018c-0.34752,0.26785 -0.59184,0.5538 -0.73295,0.85787l-1.21616,-0.43438c0.21692,-0.50675 0.50679,-0.90129 0.86864,-1.18364c0.36568,-0.28595 0.76384,-0.48503 1.1945,-0.59725c0.43448,-0.11582 0.86131,-0.17373 1.28146,-0.17373c0.26789,0 0.57527,0.03255 0.92279,0.09773c0.35134,0.06154 0.68963,0.19004 1.01549,0.38549c0.32936,0.19548 0.60266,0.49048 0.8199,0.88501c0.21724,0.39457 0.32554,0.92305 0.32554,1.58544v5.4947h-1.28114v-1.12936h-0.0653c-0.08696,0.18099 -0.23157,0.37466 -0.43416,0.58097c-0.2029,0.20632 -0.47238,0.38189 -0.80908,0.52666c-0.33669,0.14481 -0.7476,0.21718 -1.23272,0.21718zM329.71305,184.76715c0.50679,0 0.93394,-0.09954 1.28146,-0.29862c0.35102,-0.19908 0.61541,-0.45608 0.79251,-0.77101c0.18125,-0.3149 0.27171,-0.64611 0.27171,-0.9936v-1.17278c-0.05447,0.06517 -0.17392,0.1249 -0.35835,0.17917c-0.18093,0.05068 -0.39116,0.09591 -0.63006,0.13573c-0.23508,0.03622 -0.46506,0.0688 -0.68931,0.09776c-0.22074,0.02532 -0.40008,0.04705 -0.53768,0.06514c-0.33287,0.04345 -0.64439,0.11403 -0.93394,0.21176c-0.28573,0.0941 -0.51762,0.23709 -0.69472,0.42894c-0.17392,0.18822 -0.26088,0.44521 -0.26088,0.77098c0,0.44525 0.16468,0.78187 0.49436,1.00991c0.33287,0.22441 0.75461,0.33663 1.2649,0.33663zM339.30568,177.38297v1.08591h-4.32186v-1.08591zM336.24362,175.38491h1.28114v7.94884c0,0.36198 0.05256,0.63344 0.15767,0.81443c0.10862,0.17736 0.24591,0.29681 0.4125,0.35835c0.1701,0.05791 0.34943,0.08686 0.53768,0.08686c0.14111,0 0.25674,-0.00723 0.3472,-0.02169c0.09078,-0.01812 0.16309,-0.03259 0.21724,-0.04345l0.26056,1.15105c-0.08664,0.03259 -0.208,0.06517 -0.36377,0.09776c-0.15544,0.03618 -0.35294,0.05428 -0.59184,0.05428c-0.36185,0 -0.7167,-0.07782 -1.0639,-0.23345c-0.34402,-0.15567 -0.63006,-0.39275 -0.85813,-0.71129c-0.22425,-0.31853 -0.33637,-0.72033 -0.33637,-1.20536zM344.86026,177.38297v1.08591h-4.32186v-1.08591zM341.79788,175.38491h1.28146v7.94884c0,0.36198 0.05256,0.63344 0.15736,0.81443c0.10862,0.17736 0.24623,0.29681 0.41282,0.35835c0.1701,0.05791 0.34911,0.08686 0.53737,0.08686c0.14111,0 0.25706,-0.00723 0.34752,-0.02169c0.09046,-0.01812 0.16277,-0.03259 0.21724,-0.04345l0.26056,1.15105c-0.08696,0.03259 -0.208,0.06517 -0.36377,0.09776c-0.15576,0.03618 -0.35294,0.05428 -0.59184,0.05428c-0.36185,0 -0.7167,-0.07782 -1.06422,-0.23345c-0.3437,-0.15567 -0.62974,-0.39275 -0.85781,-0.71129c-0.22457,-0.31853 -0.33669,-0.72033 -0.33669,-1.20536zM350.19474,185.89651c-0.80366,0 -1.49679,-0.17739 -2.0797,-0.53211c-0.57909,-0.35835 -1.026,-0.85787 -1.34103,-1.49854c-0.31121,-0.64433 -0.46697,-1.39358 -0.46697,-2.24786c0,-0.85424 0.15576,-1.60713 0.46697,-2.25869c0.31503,-0.65516 0.75301,-1.16554 1.31395,-1.53113c0.56476,-0.36921 1.22349,-0.5538 1.9765,-0.5538c0.43416,0 0.86323,0.07237 1.28688,0.21718c0.42333,0.14477 0.80875,0.38007 1.15627,0.70584c0.34752,0.32217 0.62433,0.74929 0.83074,1.28136c0.20641,0.53211 0.30961,1.18727 0.30961,1.96551v0.54294h-6.42864v-1.10761h5.12552c0,-0.47057 -0.09429,-0.89046 -0.28254,-1.25967c-0.18443,-0.36921 -0.44881,-0.66061 -0.79251,-0.87415c-0.34019,-0.21358 -0.74218,-0.32035 -1.20533,-0.32035c-0.51061,0 -0.9521,0.12668 -1.32478,0.38007c-0.36918,0.24976 -0.65331,0.57552 -0.85239,0.97732c-0.19908,0.40177 -0.29879,0.83252 -0.29879,1.29223v0.73842c0,0.62981 0.10862,1.16373 0.32586,1.60171c0.22074,0.43435 0.52653,0.76556 0.91738,0.9936c0.39116,0.22441 0.84539,0.33663 1.363,0.33663c0.33669,0 0.64057,-0.04705 0.91196,-0.14118c0.27521,-0.09773 0.5122,-0.2425 0.71128,-0.43435c0.19908,-0.19545 0.35294,-0.43798 0.46155,-0.72756l1.23814,0.34749c-0.13028,0.41989 -0.34943,0.7891 -0.65713,1.10764c-0.3077,0.3149 -0.68771,0.56106 -1.14003,0.73842c-0.45264,0.17373 -0.96101,0.26062 -1.52577,0.26062zM355.59707,185.72275v-8.33978h1.23782v1.25964h0.08696c0.15194,-0.41263 0.42715,-0.74747 0.82532,-1.00446c0.39817,-0.25699 0.84698,-0.38549 1.34644,-0.38549c0.09429,0 0.21183,0.00181 0.35294,0.00541c0.14111,0.00363 0.24814,0.00905 0.32045,0.01631v1.30309c-0.04332,-0.01086 -0.14302,-0.02714 -0.29879,-0.04886c-0.15194,-0.02535 -0.3128,-0.038 -0.48321,-0.038c-0.40517,0 -0.76734,0.08505 -1.08588,0.25518c-0.31471,0.1665 -0.56444,0.39817 -0.74919,0.69498c-0.18093,0.29321 -0.27139,0.62802 -0.27139,1.00446v5.27752zM362.95805,182.59532v-0.06514c0.00733,-0.69138 0.07963,-1.24158 0.21724,-1.65058c0.13761,-0.40903 0.33319,-0.74024 0.58642,-0.99363c0.25355,-0.25336 0.55743,-0.48684 0.91228,-0.70039c0.21342,-0.13031 0.40549,-0.28417 0.57559,-0.46152c0.1701,-0.18099 0.30388,-0.38912 0.40167,-0.62439c0.10129,-0.2353 0.15194,-0.49589 0.15194,-0.78187c0,-0.35472 -0.08314,-0.66239 -0.24973,-0.92301c-0.16659,-0.26062 -0.38893,-0.46152 -0.66764,-0.60266c-0.27872,-0.14118 -0.58833,-0.21176 -0.92853,-0.21176c-0.29687,0 -0.58292,0.06154 -0.85781,0.18459c-0.27521,0.12308 -0.50519,0.31675 -0.68962,0.58097c-0.18475,0.26422 -0.29146,0.60993 -0.32045,1.03705h-1.3681c0.02899,-0.61534 0.18825,-1.142 0.4778,-1.57999c0.29305,-0.43798 0.67848,-0.77283 1.15628,-1.0045c0.48162,-0.23164 1.01548,-0.34749 1.6019,-0.34749c0.63707,0 1.19068,0.12671 1.66147,0.38007c0.47398,0.25339 0.83965,0.60088 1.09671,1.04246c0.26056,0.44161 0.39084,0.94477 0.39084,1.50943c0,0.39817 -0.06148,0.75833 -0.18443,1.08047c-0.11945,0.32217 -0.29337,0.60993 -0.52144,0.86332c-0.22425,0.25336 -0.49596,0.4778 -0.81449,0.67325c-0.31853,0.19908 -0.57368,0.40903 -0.76544,0.62984c-0.19176,0.21717 -0.33127,0.47598 -0.41791,0.77642c-0.08696,0.30041 -0.1341,0.67507 -0.14143,1.12391v0.06514zM363.65309,185.80961c-0.26789,0 -0.49755,-0.09591 -0.68963,-0.28776c-0.19176,-0.19185 -0.28764,-0.42167 -0.28764,-0.68956c0,-0.26785 0.09588,-0.49771 0.28764,-0.68953c0.19208,-0.19185 0.42174,-0.28776 0.68963,-0.28776c0.26789,0 0.49787,0.09591 0.68962,0.28776c0.19176,0.19182 0.28764,0.42167 0.28764,0.68953c0,0.17739 -0.04523,0.34026 -0.1357,0.48866c-0.08664,0.1484 -0.2045,0.26785 -0.35293,0.35835c-0.14461,0.0869 -0.3077,0.13031 -0.48863,0.13031z"/></g></g></svg>