<svg xmlns="http://www.w3.org/2000/svg" fill="none" viewBox="0 0 139 164" height="164" width="139">
<path fill="#EEC638" d="M0 20C0 8.95431 8.95431 0 20 0H119C130.046 0 139 8.95431 139 20V144C139 155.046 130.046 164 119 164H20C8.95431 164 0 155.046 0 144V20Z"></path>
<path fill="black" d="M36.2102 135.455V150H34.5341V135.455H36.2102ZM43.854 150.227C42.8029 150.227 41.8962 149.995 41.1339 149.531C40.3763 149.062 39.7915 148.409 39.3796 147.571C38.9724 146.728 38.7688 145.748 38.7688 144.631C38.7688 143.513 38.9724 142.528 39.3796 141.676C39.7915 140.819 40.3645 140.152 41.0984 139.673C41.837 139.19 42.6987 138.949 43.6836 138.949C44.2518 138.949 44.8129 139.044 45.3668 139.233C45.9208 139.422 46.4251 139.73 46.8796 140.156C47.3342 140.578 47.6964 141.136 47.9663 141.832C48.2362 142.528 48.3711 143.385 48.3711 144.403V145.114H39.962V143.665H46.6665C46.6665 143.049 46.5434 142.5 46.2972 142.017C46.0558 141.534 45.7101 141.153 45.2603 140.874C44.8152 140.594 44.2897 140.455 43.6836 140.455C43.016 140.455 42.4383 140.62 41.9506 140.952C41.4677 141.278 41.096 141.705 40.8356 142.23C40.5752 142.756 40.445 143.319 40.445 143.92V144.886C40.445 145.71 40.587 146.409 40.8711 146.982C41.1599 147.55 41.56 147.983 42.0714 148.281C42.5827 148.575 43.177 148.722 43.854 148.722C44.2944 148.722 44.6921 148.66 45.0472 148.537C45.4071 148.409 45.7172 148.22 45.9776 147.969C46.238 147.713 46.4393 147.396 46.5813 147.017L48.2006 147.472C48.0302 148.021 47.7437 148.504 47.3413 148.92C46.9388 149.332 46.4416 149.654 45.8498 149.886C45.2579 150.114 44.5927 150.227 43.854 150.227ZM55.6651 139.091V140.511H50.0117V139.091H55.6651ZM51.6594 136.477H53.3356V146.875C53.3356 147.348 53.4042 147.704 53.5415 147.94C53.6836 148.172 53.8635 148.329 54.0813 148.409C54.3039 148.485 54.5382 148.523 54.7844 148.523C54.9691 148.523 55.1206 148.513 55.239 148.494C55.3574 148.471 55.4521 148.452 55.5231 148.438L55.864 149.943C55.7504 149.986 55.5917 150.028 55.3881 150.071C55.1845 150.118 54.9265 150.142 54.614 150.142C54.1405 150.142 53.6765 150.04 53.2219 149.837C52.7721 149.633 52.3981 149.323 52.0998 148.906C51.8062 148.49 51.6594 147.964 51.6594 147.33V136.477ZM62.9308 139.091V140.511H57.2773V139.091H62.9308ZM58.9251 136.477H60.6012V146.875C60.6012 147.348 60.6699 147.704 60.8072 147.94C60.9492 148.172 61.1291 148.329 61.3469 148.409C61.5695 148.485 61.8039 148.523 62.0501 148.523C62.2347 148.523 62.3862 148.513 62.5046 148.494C62.623 148.471 62.7177 148.452 62.7887 148.438L63.1296 149.943C63.016 149.986 62.8574 150.028 62.6538 150.071C62.4502 150.118 62.1921 150.142 61.8796 150.142C61.4061 150.142 60.9421 150.04 60.4876 149.837C60.0378 149.633 59.6637 149.323 59.3654 148.906C59.0719 148.49 58.9251 147.964 58.9251 147.33V136.477ZM69.9087 150.227C68.8576 150.227 67.9509 149.995 67.1886 149.531C66.431 149.062 65.8462 148.409 65.4343 147.571C65.0271 146.728 64.8235 145.748 64.8235 144.631C64.8235 143.513 65.0271 142.528 65.4343 141.676C65.8462 140.819 66.4192 140.152 67.1531 139.673C67.8917 139.19 68.7534 138.949 69.7383 138.949C70.3065 138.949 70.8675 139.044 71.4215 139.233C71.9755 139.422 72.4798 139.73 72.9343 140.156C73.3888 140.578 73.7511 141.136 74.021 141.832C74.2908 142.528 74.4258 143.385 74.4258 144.403V145.114H66.0167V143.665H72.7212C72.7212 143.049 72.5981 142.5 72.3519 142.017C72.1104 141.534 71.7648 141.153 71.315 140.874C70.8699 140.594 70.3443 140.455 69.7383 140.455C69.0707 140.455 68.493 140.62 68.0053 140.952C67.5224 141.278 67.1507 141.705 66.8903 142.23C66.6299 142.756 66.4996 143.319 66.4996 143.92V144.886C66.4996 145.71 66.6417 146.409 66.9258 146.982C67.2146 147.55 67.6147 147.983 68.1261 148.281C68.6374 148.575 69.2317 148.722 69.9087 148.722C70.3491 148.722 70.7468 148.66 71.1019 148.537C71.4618 148.409 71.7719 148.22 72.0323 147.969C72.2927 147.713 72.494 147.396 72.636 147.017L74.2553 147.472C74.0849 148.021 73.7984 148.504 73.396 148.92C72.9935 149.332 72.4963 149.654 71.9045 149.886C71.3126 150.114 70.6474 150.227 69.9087 150.227ZM76.9755 150V139.091H78.5948V140.739H78.7085C78.9073 140.199 79.2672 139.761 79.788 139.425C80.3088 139.089 80.896 138.92 81.5494 138.92C81.6725 138.92 81.8263 138.923 82.011 138.928C82.1957 138.932 82.3353 138.939 82.43 138.949V140.653C82.3732 140.639 82.243 140.618 82.0394 140.589C81.8406 140.556 81.6299 140.54 81.4073 140.54C80.877 140.54 80.4035 140.651 79.9869 140.874C79.5749 141.091 79.2482 141.394 79.0067 141.783C78.77 142.166 78.6516 142.604 78.6516 143.097V150H76.9755ZM90.8658 150H89.0192L94.3601 135.455H96.1783L101.519 150H99.6726L95.326 137.756H95.2124L90.8658 150ZM91.5476 144.318H98.9908V145.881H91.5476V144.318Z"></path>
<path fill="black" d="M27.8012 75V53.1818H40.9688V55.5256H30.4433V62.8977H40.287V65.2415H30.4433V72.6562H41.1393V75H27.8012ZM50.2053 75.3835C49.1684 75.3835 48.2274 75.1882 47.3822 74.7976C46.537 74.3999 45.8659 73.8281 45.3687 73.0824C44.8715 72.3295 44.623 71.4205 44.623 70.3551C44.623 69.4176 44.8076 68.6577 45.1769 68.0753C45.5463 67.4858 46.0399 67.0241 46.6578 66.6903C47.2757 66.3565 47.9575 66.108 48.7032 65.9446C49.4561 65.7741 50.2124 65.6392 50.9724 65.5398C51.9667 65.4119 52.7728 65.3161 53.3907 65.2521C54.0157 65.1811 54.4703 65.0639 54.7544 64.9006C55.0455 64.7372 55.1911 64.4531 55.1911 64.0483V63.9631C55.1911 62.9119 54.9035 62.0952 54.3282 61.5128C53.76 60.9304 52.8971 60.6392 51.7394 60.6392C50.5392 60.6392 49.5981 60.902 48.9163 61.4276C48.2345 61.9531 47.7551 62.5142 47.4781 63.1108L45.0917 62.2585C45.5178 61.2642 46.086 60.4901 46.7963 59.9361C47.5136 59.375 48.2948 58.9844 49.14 58.7642C49.9923 58.5369 50.8303 58.4233 51.6542 58.4233C52.1798 58.4233 52.7835 58.4872 53.4653 58.6151C54.1542 58.7358 54.8183 58.9879 55.4575 59.3714C56.1038 59.755 56.64 60.3338 57.0661 61.108C57.4923 61.8821 57.7053 62.919 57.7053 64.2188V75H55.1911V72.7841H55.0633C54.8928 73.1392 54.6088 73.5192 54.211 73.924C53.8133 74.3288 53.2842 74.6733 52.6237 74.9574C51.9632 75.2415 51.157 75.3835 50.2053 75.3835ZM50.5889 73.125C51.5832 73.125 52.4213 72.9297 53.1031 72.5391C53.792 72.1484 54.3105 71.6442 54.6585 71.0263C55.0136 70.4084 55.1911 69.7585 55.1911 69.0767V66.7756C55.0846 66.9034 54.8502 67.0206 54.488 67.1271C54.1329 67.2266 53.721 67.3153 53.2522 67.3935C52.7906 67.4645 52.3396 67.5284 51.8992 67.5852C51.466 67.6349 51.1144 67.6776 50.8445 67.7131C50.1911 67.7983 49.5803 67.9368 49.0122 68.1286C48.4511 68.3132 47.9965 68.5937 47.6485 68.9702C47.3076 69.3395 47.1372 69.8437 47.1372 70.483C47.1372 71.3565 47.4603 72.017 48.1066 72.4645C48.76 72.9048 49.5874 73.125 50.5889 73.125ZM69.4108 58.6364V60.767H60.9307V58.6364H69.4108ZM63.4023 54.7159H65.9165V70.3125C65.9165 71.0227 66.0194 71.5554 66.2254 71.9105C66.4385 72.2585 66.7084 72.4929 67.0351 72.6136C67.3689 72.7273 67.7204 72.7841 68.0898 72.7841C68.3667 72.7841 68.594 72.7699 68.7716 72.7415C68.9491 72.706 69.0912 72.6776 69.1977 72.6562L69.7091 74.9148C69.5386 74.9787 69.3007 75.0426 68.9953 75.1065C68.6899 75.1776 68.3028 75.2131 67.8341 75.2131C67.1238 75.2131 66.4278 75.0604 65.746 74.755C65.0713 74.4496 64.5102 73.9844 64.0628 73.3594C63.6224 72.7344 63.4023 71.946 63.4023 70.9943V54.7159ZM73.1927 75V58.6364H75.7069V75H73.1927ZM74.4711 55.9091C73.9811 55.9091 73.5585 55.7422 73.2034 55.4084C72.8554 55.0746 72.6814 54.6733 72.6814 54.2045C72.6814 53.7358 72.8554 53.3345 73.2034 53.0007C73.5585 52.6669 73.9811 52.5 74.4711 52.5C74.9612 52.5 75.3802 52.6669 75.7282 53.0007C76.0834 53.3345 76.2609 53.7358 76.2609 54.2045C76.2609 54.6733 76.0834 55.0746 75.7282 55.4084C75.3802 55.7422 74.9612 55.9091 74.4711 55.9091ZM82.8261 65.1562V75H80.3119V58.6364H82.7409V61.1932H82.9539C83.3374 60.3622 83.9198 59.6946 84.7011 59.1903C85.4823 58.679 86.4909 58.4233 87.7267 58.4233C88.8346 58.4233 89.8041 58.6506 90.635 59.1051C91.466 59.5526 92.1123 60.2344 92.574 61.1506C93.0356 62.0597 93.2664 63.2102 93.2664 64.6023V75H90.7522V64.7727C90.7522 63.4872 90.4184 62.4858 89.7508 61.7685C89.0832 61.044 88.167 60.6818 87.0022 60.6818C86.1997 60.6818 85.4823 60.8558 84.8502 61.2038C84.2252 61.5518 83.7316 62.0597 83.3694 62.7273C83.0072 63.3949 82.8261 64.2045 82.8261 65.1562ZM104.466 81.4773C103.251 81.4773 102.207 81.321 101.334 81.0085C100.46 80.7031 99.7322 80.2983 99.1498 79.794C98.5745 79.2969 98.1164 78.7642 97.7755 78.196L99.7783 76.7898C100.006 77.0881 100.293 77.429 100.641 77.8125C100.989 78.2031 101.465 78.5405 102.069 78.8246C102.68 79.1158 103.479 79.2614 104.466 79.2614C105.787 79.2614 106.877 78.9418 107.736 78.3026C108.596 77.6634 109.025 76.6619 109.025 75.2983V71.9744H108.812C108.628 72.2727 108.365 72.642 108.024 73.0824C107.69 73.5156 107.207 73.9027 106.575 74.2436C105.95 74.5774 105.105 74.7443 104.04 74.7443C102.719 74.7443 101.533 74.4318 100.481 73.8068C99.4374 73.1818 98.61 72.2727 97.9992 71.0795C97.3955 69.8864 97.0937 68.4375 97.0937 66.733C97.0937 65.0568 97.3884 63.5973 97.9779 62.3544C98.5674 61.1044 99.3877 60.1385 100.439 59.4567C101.49 58.7678 102.704 58.4233 104.082 58.4233C105.148 58.4233 105.993 58.6009 106.618 58.956C107.25 59.304 107.733 59.7017 108.067 60.1491C108.408 60.5895 108.67 60.9517 108.855 61.2358H109.111V58.6364H111.54V75.4688C111.54 76.875 111.22 78.0185 110.581 78.8991C109.949 79.7869 109.097 80.4368 108.024 80.8487C106.959 81.2678 105.773 81.4773 104.466 81.4773ZM104.381 72.4858C105.389 72.4858 106.241 72.255 106.937 71.7933C107.633 71.3317 108.163 70.6676 108.525 69.8011C108.887 68.9347 109.068 67.8977 109.068 66.6903C109.068 65.5114 108.891 64.4709 108.535 63.5689C108.18 62.6669 107.655 61.9602 106.959 61.4489C106.263 60.9375 105.403 60.6818 104.381 60.6818C103.315 60.6818 102.427 60.9517 101.717 61.4915C101.014 62.0312 100.485 62.7557 100.13 63.6648C99.7819 64.5739 99.6079 65.5824 99.6079 66.6903C99.6079 67.8267 99.7854 68.8317 100.141 69.7053C100.503 70.5717 101.035 71.2536 101.739 71.7507C102.449 72.2408 103.329 72.4858 104.381 72.4858Z"></path>
</svg>
