<svg xmlns="http://www.w3.org/2000/svg" fill="none" viewBox="0 0 139 164" height="164" width="139">
<path fill="#43D059" d="M0 20C0 8.95431 8.95431 0 20 0H119C130.046 0 139 8.95431 139 20V144C139 155.046 130.046 164 119 164H20C8.95431 164 0 155.046 0 144V20Z"></path>
<path fill="black" d="M36.2102 135.455V150H34.5341V135.455H36.2102ZM43.854 150.227C42.8029 150.227 41.8962 149.995 41.1339 149.531C40.3763 149.062 39.7915 148.409 39.3796 147.571C38.9724 146.728 38.7688 145.748 38.7688 144.631C38.7688 143.513 38.9724 142.528 39.3796 141.676C39.7915 140.819 40.3645 140.152 41.0984 139.673C41.837 139.19 42.6987 138.949 43.6836 138.949C44.2518 138.949 44.8129 139.044 45.3668 139.233C45.9208 139.422 46.4251 139.73 46.8796 140.156C47.3342 140.578 47.6964 141.136 47.9663 141.832C48.2362 142.528 48.3711 143.385 48.3711 144.403V145.114H39.962V143.665H46.6665C46.6665 143.049 46.5434 142.5 46.2972 142.017C46.0558 141.534 45.7101 141.153 45.2603 140.874C44.8152 140.594 44.2897 140.455 43.6836 140.455C43.016 140.455 42.4383 140.62 41.9506 140.952C41.4677 141.278 41.096 141.705 40.8356 142.23C40.5752 142.756 40.445 143.319 40.445 143.92V144.886C40.445 145.71 40.587 146.409 40.8711 146.982C41.1599 147.55 41.56 147.983 42.0714 148.281C42.5827 148.575 43.177 148.722 43.854 148.722C44.2944 148.722 44.6921 148.66 45.0472 148.537C45.4071 148.409 45.7172 148.22 45.9776 147.969C46.238 147.713 46.4393 147.396 46.5813 147.017L48.2006 147.472C48.0302 148.021 47.7437 148.504 47.3413 148.92C46.9388 149.332 46.4416 149.654 45.8498 149.886C45.2579 150.114 44.5927 150.227 43.854 150.227ZM55.6651 139.091V140.511H50.0117V139.091H55.6651ZM51.6594 136.477H53.3356V146.875C53.3356 147.348 53.4042 147.704 53.5415 147.94C53.6836 148.172 53.8635 148.329 54.0813 148.409C54.3039 148.485 54.5382 148.523 54.7844 148.523C54.9691 148.523 55.1206 148.513 55.239 148.494C55.3574 148.471 55.4521 148.452 55.5231 148.438L55.864 149.943C55.7504 149.986 55.5917 150.028 55.3881 150.071C55.1845 150.118 54.9265 150.142 54.614 150.142C54.1405 150.142 53.6765 150.04 53.2219 149.837C52.7721 149.633 52.3981 149.323 52.0998 148.906C51.8062 148.49 51.6594 147.964 51.6594 147.33V136.477ZM62.9308 139.091V140.511H57.2773V139.091H62.9308ZM58.9251 136.477H60.6012V146.875C60.6012 147.348 60.6699 147.704 60.8072 147.94C60.9492 148.172 61.1291 148.329 61.3469 148.409C61.5695 148.485 61.8039 148.523 62.0501 148.523C62.2347 148.523 62.3862 148.513 62.5046 148.494C62.623 148.471 62.7177 148.452 62.7887 148.438L63.1296 149.943C63.016 149.986 62.8574 150.028 62.6538 150.071C62.4502 150.118 62.1921 150.142 61.8796 150.142C61.4061 150.142 60.9421 150.04 60.4876 149.837C60.0378 149.633 59.6637 149.323 59.3654 148.906C59.0719 148.49 58.9251 147.964 58.9251 147.33V136.477ZM69.9087 150.227C68.8576 150.227 67.9509 149.995 67.1886 149.531C66.431 149.062 65.8462 148.409 65.4343 147.571C65.0271 146.728 64.8235 145.748 64.8235 144.631C64.8235 143.513 65.0271 142.528 65.4343 141.676C65.8462 140.819 66.4192 140.152 67.1531 139.673C67.8917 139.19 68.7534 138.949 69.7383 138.949C70.3065 138.949 70.8675 139.044 71.4215 139.233C71.9755 139.422 72.4798 139.73 72.9343 140.156C73.3888 140.578 73.7511 141.136 74.021 141.832C74.2908 142.528 74.4258 143.385 74.4258 144.403V145.114H66.0167V143.665H72.7212C72.7212 143.049 72.5981 142.5 72.3519 142.017C72.1104 141.534 71.7648 141.153 71.315 140.874C70.8699 140.594 70.3443 140.455 69.7383 140.455C69.0707 140.455 68.493 140.62 68.0053 140.952C67.5224 141.278 67.1507 141.705 66.8903 142.23C66.6299 142.756 66.4996 143.319 66.4996 143.92V144.886C66.4996 145.71 66.6417 146.409 66.9258 146.982C67.2146 147.55 67.6147 147.983 68.1261 148.281C68.6374 148.575 69.2317 148.722 69.9087 148.722C70.3491 148.722 70.7468 148.66 71.1019 148.537C71.4618 148.409 71.7719 148.22 72.0323 147.969C72.2927 147.713 72.494 147.396 72.636 147.017L74.2553 147.472C74.0849 148.021 73.7984 148.504 73.396 148.92C72.9935 149.332 72.4963 149.654 71.9045 149.886C71.3126 150.114 70.6474 150.227 69.9087 150.227ZM76.9755 150V139.091H78.5948V140.739H78.7085C78.9073 140.199 79.2672 139.761 79.788 139.425C80.3088 139.089 80.896 138.92 81.5494 138.92C81.6725 138.92 81.8263 138.923 82.011 138.928C82.1957 138.932 82.3353 138.939 82.43 138.949V140.653C82.3732 140.639 82.243 140.618 82.0394 140.589C81.8406 140.556 81.6299 140.54 81.4073 140.54C80.877 140.54 80.4035 140.651 79.9869 140.874C79.5749 141.091 79.2482 141.394 79.0067 141.783C78.77 142.166 78.6516 142.604 78.6516 143.097V150H76.9755ZM94.7578 150H90.2692V135.455H94.9567C96.3677 135.455 97.575 135.746 98.5788 136.328C99.5826 136.906 100.352 137.737 100.887 138.821C101.422 139.901 101.69 141.193 101.69 142.699C101.69 144.214 101.42 145.518 100.88 146.612C100.34 147.701 99.5542 148.539 98.522 149.126C97.4898 149.709 96.2351 150 94.7578 150ZM92.0305 148.438H94.6442C95.8468 148.438 96.8435 148.205 97.6342 147.741C98.425 147.277 99.0144 146.617 99.4027 145.76C99.791 144.903 99.9851 143.883 99.9851 142.699C99.9851 141.525 99.7933 140.514 99.4098 139.666C99.0263 138.814 98.4534 138.161 97.6911 137.706C96.9287 137.247 95.9794 137.017 94.843 137.017H92.0305V148.438Z"></path>
<path fill="black" d="M14.0024 82V60.1818H27.17V62.5256H16.6444V69.8977H26.4882V72.2415H16.6444V79.6562H27.3405V82H14.0024ZM34.1054 60.1818V82H31.5912V60.1818H34.1054ZM45.5711 82.3409C43.9944 82.3409 42.6343 81.9929 41.4909 81.2969C40.3545 80.5938 39.4774 79.6136 38.8595 78.3565C38.2487 77.0923 37.9433 75.6222 37.9433 73.946C37.9433 72.2699 38.2487 70.7926 38.8595 69.5142C39.4774 68.2287 40.3367 67.2273 41.4376 66.5099C42.5455 65.7855 43.8382 65.4233 45.3154 65.4233C46.1677 65.4233 47.0093 65.5653 47.8403 65.8494C48.6713 66.1335 49.4276 66.5952 50.1095 67.2344C50.7913 67.8665 51.3346 68.7045 51.7394 69.7486C52.1443 70.7926 52.3467 72.0781 52.3467 73.6051V74.6705H39.733V72.4972H49.7899C49.7899 71.5739 49.6052 70.75 49.2359 70.0256C48.8737 69.3011 48.3552 68.7294 47.6805 68.3104C47.0129 67.8913 46.2245 67.6818 45.3154 67.6818C44.314 67.6818 43.4475 67.9304 42.716 68.4276C41.9916 68.9176 41.434 69.5568 41.0434 70.3452C40.6528 71.1335 40.4575 71.9787 40.4575 72.8807V74.3295C40.4575 75.5653 40.6705 76.6129 41.0967 77.4723C41.5299 78.3246 42.1301 78.9744 42.8971 79.4219C43.6642 79.8622 44.5555 80.0824 45.5711 80.0824C46.2316 80.0824 46.8282 79.9901 47.3609 79.8054C47.9007 79.6136 48.3659 79.3295 48.7565 78.9531C49.1471 78.5696 49.449 78.0937 49.662 77.5256L52.091 78.2074C51.8353 79.0312 51.4056 79.7557 50.8019 80.3807C50.1982 80.9986 49.4525 81.4815 48.5647 81.8295C47.6769 82.1705 46.6791 82.3409 45.5711 82.3409ZM62.819 82.3409C61.2849 82.3409 59.9639 81.9787 58.8559 81.2543C57.748 80.5298 56.8957 79.532 56.2991 78.2607C55.7025 76.9893 55.4042 75.5369 55.4042 73.9034C55.4042 72.2415 55.7096 70.7749 56.3204 69.5036C56.9383 68.2251 57.7977 67.2273 58.8985 66.5099C60.0065 65.7855 61.2991 65.4233 62.7764 65.4233C63.9269 65.4233 64.9639 65.6364 65.8872 66.0625C66.8105 66.4886 67.5669 67.0852 68.1563 67.8523C68.7458 68.6193 69.1116 69.5142 69.2536 70.5369H66.7394C66.5477 69.7912 66.1215 69.1307 65.461 68.5554C64.8076 67.973 63.9269 67.6818 62.819 67.6818C61.8389 67.6818 60.9795 67.9375 60.2409 68.4489C59.5093 68.9531 58.9376 69.6669 58.5257 70.5902C58.1208 71.5064 57.9184 72.5824 57.9184 73.8182C57.9184 75.0824 58.1173 76.1832 58.515 77.1207C58.9198 78.0582 59.488 78.7862 60.2195 79.3047C60.9582 79.8232 61.8247 80.0824 62.819 80.0824C63.4724 80.0824 64.0654 79.9688 64.5981 79.7415C65.1308 79.5142 65.5818 79.1875 65.9511 78.7614C66.3204 78.3352 66.5832 77.8239 66.7394 77.2273H69.2536C69.1116 78.1932 68.76 79.0632 68.199 79.8374C67.645 80.6044 66.9099 81.2152 65.9937 81.6697C65.0846 82.1172 64.0264 82.3409 62.819 82.3409ZM80.0455 65.6364V67.767H71.5654V65.6364H80.0455ZM74.037 61.7159H76.5512V77.3125C76.5512 78.0227 76.6542 78.5554 76.8602 78.9105C77.0732 79.2585 77.3431 79.4929 77.6698 79.6136C78.0036 79.7273 78.3552 79.7841 78.7245 79.7841C79.0015 79.7841 79.2288 79.7699 79.4063 79.7415C79.5839 79.706 79.7259 79.6776 79.8325 79.6562L80.3438 81.9148C80.1734 81.9787 79.9355 82.0426 79.6301 82.1065C79.3247 82.1776 78.9376 82.2131 78.4688 82.2131C77.7586 82.2131 77.0626 82.0604 76.3808 81.755C75.7061 81.4496 75.145 80.9844 74.6975 80.3594C74.2572 79.7344 74.037 78.946 74.037 77.9943V61.7159ZM83.8275 82V65.6364H86.2565V68.108H86.4269C86.7252 67.2983 87.265 66.6413 88.0463 66.1371C88.8275 65.6328 89.7082 65.3807 90.6883 65.3807C90.873 65.3807 91.1038 65.3842 91.3808 65.3913C91.6578 65.3984 91.8673 65.4091 92.0093 65.4233V67.9801C91.9241 67.9588 91.7288 67.9268 91.4234 67.8842C91.1251 67.8345 90.809 67.8097 90.4752 67.8097C89.6798 67.8097 88.9695 67.9766 88.3445 68.3104C87.7267 68.6371 87.2366 69.0916 86.8744 69.674C86.5193 70.2493 86.3417 70.9062 86.3417 71.6449V82H83.8275ZM101.139 82.3409C99.662 82.3409 98.3659 81.9893 97.2508 81.2862C96.1428 80.5831 95.2764 79.5994 94.6514 78.3352C94.0335 77.071 93.7245 75.5937 93.7245 73.9034C93.7245 72.1989 94.0335 70.7109 94.6514 69.4396C95.2764 68.1683 96.1428 67.1811 97.2508 66.478C98.3659 65.7749 99.662 65.4233 101.139 65.4233C102.617 65.4233 103.909 65.7749 105.017 66.478C106.132 67.1811 106.999 68.1683 107.617 69.4396C108.242 70.7109 108.554 72.1989 108.554 73.9034C108.554 75.5937 108.242 77.071 107.617 78.3352C106.999 79.5994 106.132 80.5831 105.017 81.2862C103.909 81.9893 102.617 82.3409 101.139 82.3409ZM101.139 80.0824C102.261 80.0824 103.185 79.7947 103.909 79.2195C104.634 78.6442 105.17 77.8878 105.518 76.9503C105.866 76.0128 106.04 74.9972 106.04 73.9034C106.04 72.8097 105.866 71.7905 105.518 70.8459C105.17 69.9013 104.634 69.1378 103.909 68.5554C103.185 67.973 102.261 67.6818 101.139 67.6818C100.017 67.6818 99.0938 67.973 98.3694 68.5554C97.645 69.1378 97.1088 69.9013 96.7607 70.8459C96.4127 71.7905 96.2387 72.8097 96.2387 73.9034C96.2387 74.9972 96.4127 76.0128 96.7607 76.9503C97.1088 77.8878 97.645 78.6442 98.3694 79.2195C99.0938 79.7947 100.017 80.0824 101.139 80.0824ZM114.906 72.1562V82H112.392V65.6364H114.821V68.1932H115.034C115.418 67.3622 116 66.6946 116.781 66.1903C117.562 65.679 118.571 65.4233 119.807 65.4233C120.915 65.4233 121.884 65.6506 122.715 66.1051C123.546 66.5526 124.192 67.2344 124.654 68.1506C125.116 69.0597 125.347 70.2102 125.347 71.6023V82H122.832V71.7727C122.832 70.4872 122.498 69.4858 121.831 68.7685C121.163 68.044 120.247 67.6818 119.082 67.6818C118.28 67.6818 117.562 67.8558 116.93 68.2038C116.305 68.5518 115.812 69.0597 115.449 69.7273C115.087 70.3949 114.906 71.2045 114.906 72.1562Z"></path>
</svg>
