<svg xmlns="http://www.w3.org/2000/svg" fill="none" viewBox="0 0 139 164" height="164" width="139">
<path fill="#43D059" d="M0 20C0 8.95431 8.95431 0 20 0H119C130.046 0 139 8.95431 139 20V144C139 155.046 130.046 164 119 164H20C8.95431 164 0 155.046 0 144V20Z"></path>
<path fill="black" d="M36.2102 135.455V150H34.5341V135.455H36.2102ZM43.854 150.227C42.8029 150.227 41.8962 149.995 41.1339 149.531C40.3763 149.062 39.7915 148.409 39.3796 147.571C38.9724 146.728 38.7688 145.748 38.7688 144.631C38.7688 143.513 38.9724 142.528 39.3796 141.676C39.7915 140.819 40.3645 140.152 41.0984 139.673C41.837 139.19 42.6987 138.949 43.6836 138.949C44.2518 138.949 44.8129 139.044 45.3668 139.233C45.9208 139.422 46.4251 139.73 46.8796 140.156C47.3342 140.578 47.6964 141.136 47.9663 141.832C48.2362 142.528 48.3711 143.385 48.3711 144.403V145.114H39.962V143.665H46.6665C46.6665 143.049 46.5434 142.5 46.2972 142.017C46.0558 141.534 45.7101 141.153 45.2603 140.874C44.8152 140.594 44.2897 140.455 43.6836 140.455C43.016 140.455 42.4383 140.62 41.9506 140.952C41.4677 141.278 41.096 141.705 40.8356 142.23C40.5752 142.756 40.445 143.319 40.445 143.92V144.886C40.445 145.71 40.587 146.409 40.8711 146.982C41.1599 147.55 41.56 147.983 42.0714 148.281C42.5827 148.575 43.177 148.722 43.854 148.722C44.2944 148.722 44.6921 148.66 45.0472 148.537C45.4071 148.409 45.7172 148.22 45.9776 147.969C46.238 147.713 46.4393 147.396 46.5813 147.017L48.2006 147.472C48.0302 148.021 47.7437 148.504 47.3413 148.92C46.9388 149.332 46.4416 149.654 45.8498 149.886C45.2579 150.114 44.5927 150.227 43.854 150.227ZM55.6651 139.091V140.511H50.0117V139.091H55.6651ZM51.6594 136.477H53.3356V146.875C53.3356 147.348 53.4042 147.704 53.5415 147.94C53.6836 148.172 53.8635 148.329 54.0813 148.409C54.3039 148.485 54.5382 148.523 54.7844 148.523C54.9691 148.523 55.1206 148.513 55.239 148.494C55.3574 148.471 55.4521 148.452 55.5231 148.438L55.864 149.943C55.7504 149.986 55.5917 150.028 55.3881 150.071C55.1845 150.118 54.9265 150.142 54.614 150.142C54.1405 150.142 53.6765 150.04 53.2219 149.837C52.7721 149.633 52.3981 149.323 52.0998 148.906C51.8062 148.49 51.6594 147.964 51.6594 147.33V136.477ZM62.9308 139.091V140.511H57.2773V139.091H62.9308ZM58.9251 136.477H60.6012V146.875C60.6012 147.348 60.6699 147.704 60.8072 147.94C60.9492 148.172 61.1291 148.329 61.3469 148.409C61.5695 148.485 61.8039 148.523 62.0501 148.523C62.2347 148.523 62.3862 148.513 62.5046 148.494C62.623 148.471 62.7177 148.452 62.7887 148.438L63.1296 149.943C63.016 149.986 62.8574 150.028 62.6538 150.071C62.4502 150.118 62.1921 150.142 61.8796 150.142C61.4061 150.142 60.9421 150.04 60.4876 149.837C60.0378 149.633 59.6637 149.323 59.3654 148.906C59.0719 148.49 58.9251 147.964 58.9251 147.33V136.477ZM69.9087 150.227C68.8576 150.227 67.9509 149.995 67.1886 149.531C66.431 149.062 65.8462 148.409 65.4343 147.571C65.0271 146.728 64.8235 145.748 64.8235 144.631C64.8235 143.513 65.0271 142.528 65.4343 141.676C65.8462 140.819 66.4192 140.152 67.1531 139.673C67.8917 139.19 68.7534 138.949 69.7383 138.949C70.3065 138.949 70.8675 139.044 71.4215 139.233C71.9755 139.422 72.4798 139.73 72.9343 140.156C73.3888 140.578 73.7511 141.136 74.021 141.832C74.2908 142.528 74.4258 143.385 74.4258 144.403V145.114H66.0167V143.665H72.7212C72.7212 143.049 72.5981 142.5 72.3519 142.017C72.1104 141.534 71.7648 141.153 71.315 140.874C70.8699 140.594 70.3443 140.455 69.7383 140.455C69.0707 140.455 68.493 140.62 68.0053 140.952C67.5224 141.278 67.1507 141.705 66.8903 142.23C66.6299 142.756 66.4996 143.319 66.4996 143.92V144.886C66.4996 145.71 66.6417 146.409 66.9258 146.982C67.2146 147.55 67.6147 147.983 68.1261 148.281C68.6374 148.575 69.2317 148.722 69.9087 148.722C70.3491 148.722 70.7468 148.66 71.1019 148.537C71.4618 148.409 71.7719 148.22 72.0323 147.969C72.2927 147.713 72.494 147.396 72.636 147.017L74.2553 147.472C74.0849 148.021 73.7984 148.504 73.396 148.92C72.9935 149.332 72.4963 149.654 71.9045 149.886C71.3126 150.114 70.6474 150.227 69.9087 150.227ZM76.9755 150V139.091H78.5948V140.739H78.7085C78.9073 140.199 79.2672 139.761 79.788 139.425C80.3088 139.089 80.896 138.92 81.5494 138.92C81.6725 138.92 81.8263 138.923 82.011 138.928C82.1957 138.932 82.3353 138.939 82.43 138.949V140.653C82.3732 140.639 82.243 140.618 82.0394 140.589C81.8406 140.556 81.6299 140.54 81.4073 140.54C80.877 140.54 80.4035 140.651 79.9869 140.874C79.5749 141.091 79.2482 141.394 79.0067 141.783C78.77 142.166 78.6516 142.604 78.6516 143.097V150H76.9755ZM90.8658 150H89.0192L94.3601 135.455H96.1783L101.519 150H99.6726L95.326 137.756H95.2124L90.8658 150ZM91.5476 144.318H98.9908V145.881H91.5476V144.318Z"></path>
<path fill="black" d="M41.3535 39V55H39.416V39H41.3535ZM46.832 47.7812V55H44.9883V43H46.7695V44.875H46.9258C47.207 44.2656 47.6341 43.776 48.207 43.4063C48.7799 43.0313 49.5195 42.8438 50.4258 42.8438C51.2383 42.8438 51.9492 43.0104 52.5586 43.3437C53.168 43.6719 53.6419 44.1719 53.9805 44.8437C54.319 45.5104 54.4883 46.3542 54.4883 47.375V55H52.6445V47.5C52.6445 46.5573 52.3997 45.8229 51.9102 45.2969C51.4206 44.7656 50.7487 44.5 49.8945 44.5C49.306 44.5 48.7799 44.6276 48.3164 44.8828C47.8581 45.138 47.4961 45.5104 47.2305 46C46.9648 46.4896 46.832 47.0833 46.832 47.7812ZM62.8887 55.25C61.7324 55.25 60.735 54.9948 59.8965 54.4844C59.0632 53.9688 58.4199 53.25 57.9668 52.3281C57.5189 51.401 57.2949 50.3229 57.2949 49.0938C57.2949 47.8646 57.5189 46.7812 57.9668 45.8437C58.4199 44.901 59.0501 44.1667 59.8574 43.6406C60.6699 43.1094 61.6178 42.8438 62.7012 42.8438C63.3262 42.8438 63.9434 42.9479 64.5527 43.1562C65.1621 43.3646 65.7168 43.7031 66.2168 44.1719C66.7168 44.6354 67.1152 45.25 67.4121 46.0156C67.709 46.7812 67.8574 47.724 67.8574 48.8437V49.625H58.6074V48.0312H65.9824C65.9824 47.3542 65.847 46.75 65.5762 46.2187C65.3105 45.6875 64.9303 45.2682 64.4355 44.9609C63.946 44.6536 63.3678 44.5 62.7012 44.5C61.9668 44.5 61.3314 44.6823 60.7949 45.0469C60.2637 45.4062 59.8548 45.875 59.5684 46.4531C59.2819 47.0312 59.1387 47.651 59.1387 48.3125V49.375C59.1387 50.2813 59.2949 51.0495 59.6074 51.6797C59.9251 52.3047 60.3652 52.7812 60.9277 53.1094C61.4902 53.4323 62.1439 53.5938 62.8887 53.5938C63.373 53.5938 63.8105 53.526 64.2012 53.3906C64.597 53.25 64.9382 53.0417 65.2246 52.7656C65.5111 52.4844 65.7324 52.1354 65.8887 51.7187L67.6699 52.2188C67.4824 52.8229 67.1673 53.3542 66.7246 53.8125C66.2819 54.2656 65.735 54.6198 65.084 54.875C64.4329 55.125 63.7012 55.25 62.8887 55.25ZM70.6621 55V43H72.4434V44.8125H72.5684C72.7871 44.2188 73.1829 43.737 73.7559 43.3672C74.3288 42.9974 74.9746 42.8125 75.6934 42.8125C75.8288 42.8125 75.998 42.8151 76.2012 42.8203C76.4043 42.8255 76.5579 42.8333 76.6621 42.8438V44.7187C76.5996 44.7031 76.4564 44.6797 76.2324 44.6484C76.0137 44.612 75.7819 44.5937 75.5371 44.5937C74.9538 44.5937 74.4329 44.7161 73.9746 44.9609C73.5215 45.2005 73.1621 45.5339 72.8965 45.9609C72.6361 46.3828 72.5059 46.8646 72.5059 47.4062V55H70.6621ZM84.8184 43V44.5625H78.5996V43H84.8184ZM80.4121 40.125H82.2559V51.5625C82.2559 52.0833 82.3314 52.474 82.4824 52.7344C82.6387 52.9896 82.8366 53.1615 83.0762 53.25C83.321 53.3333 83.5788 53.375 83.8496 53.375C84.0527 53.375 84.2194 53.3646 84.3496 53.3437C84.4798 53.3177 84.584 53.2969 84.6621 53.2812L85.0371 54.9375C84.9121 54.9844 84.7376 55.0313 84.5137 55.0781C84.2897 55.1302 84.0059 55.1563 83.6621 55.1563C83.1413 55.1563 82.6309 55.0443 82.1309 54.8203C81.6361 54.5964 81.2246 54.2552 80.8965 53.7969C80.5736 53.3385 80.4121 52.7604 80.4121 52.0625V40.125ZM87.5918 55V43H89.4355V55H87.5918ZM88.5293 41C88.1699 41 87.86 40.8776 87.5996 40.6328C87.3444 40.388 87.2168 40.0938 87.2168 39.75C87.2168 39.4063 87.3444 39.112 87.5996 38.8672C87.86 38.6224 88.1699 38.5 88.5293 38.5C88.8887 38.5 89.196 38.6224 89.4512 38.8672C89.7116 39.112 89.8418 39.4063 89.8418 39.75C89.8418 40.0938 89.7116 40.388 89.4512 40.6328C89.196 40.8776 88.8887 41 88.5293 41ZM96.3438 55.2813C95.5833 55.2813 94.8932 55.138 94.2734 54.8516C93.6536 54.5599 93.1615 54.1406 92.7969 53.5938C92.4323 53.0417 92.25 52.375 92.25 51.5937C92.25 50.9062 92.3854 50.349 92.6563 49.9219C92.9271 49.4896 93.2891 49.151 93.7422 48.9062C94.1953 48.6615 94.6953 48.4792 95.2422 48.3594C95.7943 48.2344 96.349 48.1354 96.9063 48.0625C97.6354 47.9687 98.2266 47.8984 98.6797 47.8516C99.138 47.7995 99.4714 47.7135 99.6797 47.5937C99.8932 47.474 100 47.2656 100 46.9687V46.9062C100 46.1354 99.7891 45.5365 99.3672 45.1094C98.9505 44.6823 98.3177 44.4687 97.4688 44.4687C96.5885 44.4687 95.8984 44.6615 95.3984 45.0469C94.8984 45.4323 94.5469 45.8437 94.3438 46.2812L92.5938 45.6562C92.9063 44.9271 93.3229 44.3594 93.8438 43.9531C94.3698 43.5417 94.9427 43.2552 95.5625 43.0937C96.1875 42.9271 96.8021 42.8438 97.4063 42.8438C97.7917 42.8438 98.2344 42.8906 98.7344 42.9844C99.2396 43.0729 99.7266 43.2578 100.195 43.5391C100.669 43.8203 101.063 44.2448 101.375 44.8125C101.688 45.3802 101.844 46.1406 101.844 47.0938V55H100V53.375H99.9063C99.7813 53.6354 99.5729 53.9141 99.2813 54.2109C98.9896 54.5078 98.6016 54.7604 98.1172 54.9687C97.6328 55.1771 97.0417 55.2813 96.3438 55.2813ZM96.625 53.625C97.3542 53.625 97.9688 53.4818 98.4688 53.1953C98.974 52.9089 99.3542 52.5391 99.6094 52.0859C99.8698 51.6328 100 51.1562 100 50.6562V48.9687C99.9219 49.0625 99.75 49.1484 99.4844 49.2266C99.224 49.2995 98.9219 49.3646 98.5781 49.4219C98.2396 49.474 97.9089 49.5208 97.5859 49.5625C97.2682 49.599 97.0104 49.6302 96.8125 49.6562C96.3333 49.7187 95.8854 49.8203 95.4688 49.9609C95.0573 50.0964 94.724 50.3021 94.4688 50.5781C94.2188 50.849 94.0938 51.2187 94.0938 51.6875C94.0938 52.3281 94.3307 52.8125 94.8047 53.1406C95.2839 53.4635 95.8906 53.625 96.625 53.625Z"></path>
</svg>
