<svg version="1.1" xmlns="http://www.w3.org/2000/svg" xmlns:xlink="http://www.w3.org/1999/xlink" width="225.14684" height="42.47754" viewBox="0,0,225.14684,42.47754"><g transform="translate(-127.42658,-158.76123)"><g data-paper-data="{&quot;isPaintingLayer&quot;:true}" fill="#ffffff" fill-rule="nonzero" stroke="none" stroke-width="1" stroke-linecap="butt" stroke-linejoin="miter" stroke-miterlimit="10" stroke-dasharray="" stroke-dashoffset="0" style="mix-blend-mode: normal"><path d="M131.33214,173.49077l-3.90556,-14.2832h1.7575l2.98495,11.63298h0.13948l3.04079,-11.63298h1.95277l3.04075,11.63298h0.13948l2.98498,-11.63298h1.75748l-3.90554,14.2832h-1.78542l-3.15233,-11.38193h-0.11158l-3.15237,11.38193zM148.80252,167.0466v6.44417h-1.6459v-14.2832h1.6459v5.24462h0.13952c0.25106,-0.5533 0.62764,-0.99265 1.1298,-1.31813c0.50682,-0.3301 1.18098,-0.49516 2.02253,-0.49516c0.72997,0 1.36928,0.14644 1.91791,0.43935c0.54863,0.28829 0.97407,0.7323 1.27627,1.33208c0.30686,0.59516 0.4603,1.35299 0.4603,2.27359v6.80685h-1.6459v-6.69523c0,-0.85088 -0.22086,-1.50876 -0.66255,-1.97372c-0.43706,-0.46959 -1.04384,-0.7044 -1.82029,-0.7044c-0.53935,0 -1.02289,0.11391 -1.45062,0.34173c-0.4231,0.22786 -0.75788,0.56029 -1.00431,0.99732c-0.24177,0.43706 -0.36268,0.96712 -0.36268,1.59013zM158.75998,173.49077v-10.71239h1.6459v10.71239zM159.59686,160.99297c-0.32078,0 -0.59745,-0.10925 -0.82993,-0.32778c-0.22781,-0.21853 -0.34173,-0.48121 -0.34173,-0.78807c0,-0.30686 0.11391,-0.56958 0.34173,-0.78811c0.23248,-0.21853 0.50915,-0.32778 0.82993,-0.32778c0.32082,0 0.59516,0.10925 0.82297,0.32778c0.23248,0.21853 0.34872,0.48124 0.34872,0.78811c0,0.30686 -0.11624,0.56954 -0.34872,0.78807c-0.22781,0.21853 -0.50216,0.32778 -0.82297,0.32778zM167.77241,173.71397c-1.00431,0 -1.8691,-0.23714 -2.59441,-0.7114c-0.72534,-0.47425 -1.28327,-1.1275 -1.67381,-1.95977c-0.39058,-0.83222 -0.58587,-1.78305 -0.58587,-2.85242c0,-1.08798 0.19995,-2.0481 0.59982,-2.88036c0.40449,-0.83693 0.96707,-1.49018 1.68776,-1.95977c0.72531,-0.47425 1.57152,-0.71136 2.53859,-0.71136c0.75305,0 1.43183,0.13948 2.03656,0.41845c0.60432,0.27896 1.0994,0.66954 1.48523,1.17165c0.38624,0.50216 0.6256,1.08798 0.71848,1.75752h-1.64603c-0.1252,-0.4882 -0.40425,-0.9206 -0.83672,-1.29722c-0.42757,-0.38125 -1.00447,-0.57188 -1.72962,-0.57188c-0.64163,0 -1.20422,0.16739 -1.68776,0.50216c-0.47892,0.3301 -0.85317,0.79736 -1.12284,1.4018c-0.26505,0.59978 -0.39753,1.30418 -0.39753,2.1132c0,0.8276 0.13019,1.54828 0.39054,2.16201c0.26501,0.61373 0.63697,1.09031 1.11588,1.4297c0.48354,0.33939 1.05079,0.50911 1.70171,0.50911c0.42769,0 0.81598,-0.07438 1.16457,-0.22315c0.34901,-0.14881 0.64401,-0.36268 0.88582,-0.64163c0.24181,-0.27896 0.41366,-0.61373 0.51595,-1.00431h1.64603c-0.09288,0.63235 -0.32323,1.20189 -0.69025,1.70871c-0.36292,0.50211 -0.84408,0.90198 -1.4439,1.19956c-0.59491,0.29291 -1.2876,0.43939 -2.07822,0.43939zM176.03703,167.0466v6.44417h-1.64603v-14.2832h1.64603v5.24462h0.13911c0.25122,-0.5533 0.62805,-0.99265 1.13008,-1.31813c0.50654,-0.3301 1.18082,-0.49516 2.02245,-0.49516c0.72993,0 1.36944,0.14644 1.9177,0.43935c0.54868,0.28829 0.9742,0.7323 1.27656,1.33208c0.30686,0.59516 0.4603,1.35299 0.4603,2.27359v6.80685h-1.64603v-6.69523c0,-0.85088 -0.22094,-1.50876 -0.66242,-1.97372c-0.43698,-0.46959 -1.04376,-0.7044 -1.82032,-0.7044c-0.53926,0 -1.02289,0.11391 -1.45086,0.34173c-0.42307,0.22786 -0.75775,0.56029 -1.00407,0.99732c-0.24181,0.43706 -0.36251,0.96712 -0.36251,1.59013zM199.10595,165.1775l-1.47868,0.41845c-0.09288,-0.24639 -0.22994,-0.48587 -0.41161,-0.71831c-0.17634,-0.23714 -0.41816,-0.43243 -0.72502,-0.58587c-0.30686,-0.15343 -0.70006,-0.23015 -1.17877,-0.23015c-0.65546,0 -1.20209,0.15114 -1.63907,0.45335c-0.43248,0.29758 -0.64851,0.6765 -0.64851,1.13679c0,0.40915 0.14893,0.7323 0.44639,0.96941c0.29745,0.23714 0.76266,0.43472 1.3948,0.59282l1.58997,0.39054c0.95783,0.23248 1.67181,0.58816 2.14111,1.06707c0.46971,0.47425 0.70456,1.08565 0.70456,1.8342c0,0.61373 -0.17675,1.1624 -0.53026,1.64594c-0.3486,0.48354 -0.83672,0.86479 -1.46436,1.14375c-0.62764,0.27896 -1.35757,0.41848 -2.18979,0.41848c-1.09285,0 -1.99708,-0.23714 -2.7131,-0.7114c-0.71602,-0.47425 -1.16936,-1.16703 -1.36003,-2.0783l1.56215,-0.39058c0.14893,0.57654 0.43002,1.00893 0.84408,1.29722c0.41856,0.28825 0.96479,0.43239 1.63866,0.43239c0.76716,0 1.37639,-0.16272 1.82728,-0.4882c0.4558,-0.3301 0.68369,-0.72531 0.68369,-1.1856c0,-0.37196 -0.13011,-0.68349 -0.39074,-0.93455c-0.26022,-0.25572 -0.65997,-0.44634 -1.19964,-0.57188l-1.78514,-0.41848c-0.98115,-0.23244 -1.70167,-0.59278 -2.16197,-1.08098c-0.4558,-0.49283 -0.68369,-1.10889 -0.68369,-1.84815c0,-0.60444 0.1698,-1.13913 0.50939,-1.60408c0.3441,-0.46496 0.81135,-0.82993 1.40176,-1.09493c0.59491,-0.26505 1.2692,-0.39753 2.02245,-0.39753c1.06011,0 1.89233,0.23248 2.49666,0.6974c0.60923,0.46496 1.04171,1.07869 1.29743,1.84119zM206.27023,173.71397c-1.0323,0 -1.92261,-0.22786 -2.67137,-0.68349c-0.74384,-0.4603 -1.31788,-1.10193 -1.72253,-1.92487c-0.39974,-0.82764 -0.59982,-1.79005 -0.59982,-2.88736c0,-1.09727 0.20008,-2.06434 0.59982,-2.90127c0.40465,-0.84155 0.96724,-1.49714 1.68776,-1.96672c0.72543,-0.47425 1.57156,-0.71136 2.53839,-0.71136c0.55809,0 1.10921,0.09296 1.65298,0.27896c0.54418,0.18596 1.03925,0.4882 1.48564,0.90665c0.44639,0.41382 0.80194,0.96245 1.06707,1.6459c0.26513,0.68349 0.39729,1.52504 0.39729,2.52469v0.6974h-8.25713v-1.42271h6.5837c0,-0.60444 -0.12111,-1.14379 -0.36292,-1.61804c-0.2369,-0.47425 -0.5765,-0.84854 -1.01798,-1.12284c-0.43738,-0.27434 -0.95333,-0.41149 -1.54865,-0.41149c-0.65546,0 -1.22255,0.16272 -1.70167,0.4882c-0.47421,0.32082 -0.83917,0.73926 -1.0949,1.25537c-0.25572,0.51606 -0.38338,1.06936 -0.38338,1.65985v0.9485c0,0.80898 0.13952,1.4948 0.41816,2.05739c0.28395,0.55792 0.67674,0.98336 1.17877,1.27627c0.50203,0.28825 1.08589,0.43239 1.75077,0.43239c0.43206,0 0.82281,-0.06043 1.17141,-0.18134c0.35351,-0.12552 0.65792,-0.31149 0.91364,-0.55792c0.25572,-0.25106 0.45335,-0.56258 0.59286,-0.93455l1.58997,0.44634c-0.16734,0.53935 -0.44843,1.01359 -0.84368,1.42275c-0.39524,0.40449 -0.88336,0.72068 -1.46477,0.9485c-0.581,0.22315 -1.23442,0.33477 -1.95944,0.33477zM214.85551,167.0466v6.44417h-1.64603v-10.71239h1.58997v1.67381h0.13952c0.25122,-0.54401 0.63255,-0.98103 1.144,-1.31117c0.51144,-0.33473 1.17141,-0.50211 1.9803,-0.50211c0.72543,0 1.36003,0.14877 1.9042,0.44634c0.54376,0.29291 0.96724,0.73926 1.2692,1.33904c0.30237,0.59516 0.45335,1.34836 0.45335,2.25964v6.80685h-1.64603v-6.69523c0,-0.84159 -0.21849,-1.49714 -0.65546,-1.96676c-0.43698,-0.47421 -1.0368,-0.71136 -1.79946,-0.71136c-0.52536,0 -0.99465,0.11391 -1.40872,0.34173c-0.40915,0.22786 -0.73238,0.56029 -0.96928,0.99732c-0.23731,0.43706 -0.35556,0.96712 -0.35556,1.59013zM229.35633,162.77839v1.39485h-5.5514v-1.39485zM225.42314,160.21189h1.64562v10.21023c0,0.46496 0.06751,0.81364 0.20253,1.04613c0.13952,0.22781 0.31587,0.38125 0.52985,0.4603c0.21849,0.07438 0.44884,0.11158 0.69065,0.11158c0.18126,0 0.32978,-0.00929 0.44639,-0.02786c0.1162,-0.02328 0.20908,-0.04186 0.27863,-0.05581l0.33509,1.47852c-0.1117,0.04186 -0.26759,0.08371 -0.46725,0.12557c-0.20008,0.04648 -0.45335,0.06972 -0.76021,0.06972c-0.46521,0 -0.9206,-0.09995 -1.36698,-0.29987c-0.44189,-0.19995 -0.80931,-0.50449 -1.10226,-0.91364c-0.28804,-0.40915 -0.43206,-0.92526 -0.43206,-1.54828zM236.20843,173.71397c-1.03188,0 -1.92221,-0.22786 -2.67096,-0.68349c-0.74384,-0.4603 -1.3183,-1.10193 -1.72253,-1.92487c-0.39974,-0.82764 -0.59982,-1.79005 -0.59982,-2.88736c0,-1.09727 0.20008,-2.06434 0.59982,-2.90127c0.40425,-0.84155 0.96683,-1.49714 1.68776,-1.96672c0.72543,-0.47425 1.57156,-0.71136 2.53839,-0.71136c0.55809,0 1.10921,0.09296 1.65298,0.27896c0.54418,0.18596 1.03925,0.4882 1.48564,0.90665c0.44639,0.41382 0.80194,0.96245 1.06707,1.6459c0.26513,0.68349 0.39729,1.52504 0.39729,2.52469v0.6974h-8.25713v-1.42271h6.58328c0,-0.60444 -0.1207,-1.14379 -0.36251,-1.61804c-0.2369,-0.47425 -0.5765,-0.84854 -1.01838,-1.12284c-0.43698,-0.27434 -0.95292,-0.41149 -1.54824,-0.41149c-0.65546,0 -1.22255,0.16272 -1.70167,0.4882c-0.47421,0.32082 -0.83917,0.73926 -1.0949,1.25537c-0.25572,0.51606 -0.38338,1.06936 -0.38338,1.65985v0.9485c0,0.80898 0.13952,1.4948 0.41816,2.05739c0.28395,0.55792 0.67674,0.98336 1.17877,1.27627c0.50203,0.28825 1.08549,0.43239 1.75036,0.43239c0.43248,0 0.82322,-0.06043 1.17181,-0.18134c0.35351,-0.12552 0.65792,-0.31149 0.91364,-0.55792c0.25572,-0.25106 0.45335,-0.56258 0.59286,-0.93455l1.58997,0.44634c-0.16734,0.53935 -0.44843,1.01359 -0.84368,1.42275c-0.39524,0.40449 -0.88336,0.72068 -1.46477,0.9485c-0.581,0.22315 -1.23442,0.33477 -1.95985,0.33477zM244.79371,167.0466v6.44417h-1.64562v-10.71239h1.58997v1.67381h0.13952c0.25122,-0.54401 0.63214,-0.98103 1.14358,-1.31117c0.51144,-0.33473 1.17181,-0.50211 1.98071,-0.50211c0.72543,0 1.36003,0.14877 1.9042,0.44634c0.54376,0.29291 0.96683,0.73926 1.2692,1.33904c0.30237,0.59516 0.45335,1.34836 0.45335,2.25964v6.80685h-1.64603v-6.69523c0,-0.84159 -0.21849,-1.49714 -0.65546,-1.96676c-0.43698,-0.47421 -1.0368,-0.71136 -1.79946,-0.71136c-0.52536,0 -0.99506,0.11391 -1.40872,0.34173c-0.40915,0.22786 -0.73238,0.56029 -0.96928,0.99732c-0.23731,0.43706 -0.35596,0.96712 -0.35596,1.59013zM258.98807,173.71397c-1.00407,0 -1.86902,-0.23714 -2.59444,-0.7114c-0.72502,-0.47425 -1.28311,-1.1275 -1.67385,-1.95977c-0.39033,-0.83222 -0.5855,-1.78305 -0.5855,-2.85242c0,-1.08798 0.19966,-2.0481 0.59941,-2.88036c0.40465,-0.83693 0.96724,-1.49018 1.68776,-1.95977c0.72543,-0.47425 1.57156,-0.71136 2.5388,-0.71136c0.75325,0 1.43204,0.13948 2.03636,0.41845c0.60473,0.27896 1.0998,0.66954 1.48564,1.17165c0.38583,0.50216 0.62518,1.08798 0.71848,1.75752h-1.64603c-0.12561,-0.4882 -0.40465,-0.9206 -0.83713,-1.29722c-0.42757,-0.38125 -1.00407,-0.57188 -1.72949,-0.57188c-0.64155,0 -1.20414,0.16739 -1.68776,0.50216c-0.47871,0.3301 -0.85309,0.79736 -1.12271,1.4018c-0.26513,0.59978 -0.39769,1.30418 -0.39769,2.1132c0,0.8276 0.13011,1.54828 0.39074,2.16201c0.26513,0.61373 0.63706,1.09031 1.11577,1.4297c0.48362,0.33939 1.0507,0.50911 1.70167,0.50911c0.42797,0 0.81585,-0.07438 1.16486,-0.22315c0.3486,-0.14881 0.64401,-0.36268 0.88582,-0.64163c0.2414,-0.27896 0.41366,-0.61373 0.51595,-1.00431h1.64603c-0.09329,0.63235 -0.32323,1.20189 -0.69065,1.70871c-0.36251,0.50211 -0.84368,0.90198 -1.4435,1.19956c-0.59532,0.29291 -1.28802,0.43939 -2.07851,0.43939zM270.09823,173.71397c-1.0323,0 -1.92261,-0.22786 -2.67137,-0.68349c-0.74384,-0.4603 -1.31788,-1.10193 -1.72253,-1.92487c-0.39974,-0.82764 -0.59982,-1.79005 -0.59982,-2.88736c0,-1.09727 0.20008,-2.06434 0.59982,-2.90127c0.40465,-0.84155 0.96724,-1.49714 1.68776,-1.96672c0.72543,-0.47425 1.57156,-0.71136 2.53839,-0.71136c0.55809,0 1.10921,0.09296 1.65298,0.27896c0.54418,0.18596 1.03925,0.4882 1.48564,0.90665c0.44639,0.41382 0.80194,0.96245 1.06707,1.6459c0.26513,0.68349 0.39729,1.52504 0.39729,2.52469v0.6974h-8.25713v-1.42271h6.5837c0,-0.60444 -0.12111,-1.14379 -0.36292,-1.61804c-0.2369,-0.47425 -0.5765,-0.84854 -1.01798,-1.12284c-0.43738,-0.27434 -0.95333,-0.41149 -1.54865,-0.41149c-0.65546,0 -1.22255,0.16272 -1.70167,0.4882c-0.47421,0.32082 -0.83917,0.73926 -1.0949,1.25537c-0.25572,0.51606 -0.38338,1.06936 -0.38338,1.65985v0.9485c0,0.80898 0.13952,1.4948 0.41816,2.05739c0.28395,0.55792 0.67674,0.98336 1.17877,1.27627c0.50203,0.28825 1.08589,0.43239 1.75077,0.43239c0.43206,0 0.82281,-0.06043 1.17141,-0.18134c0.35351,-0.12552 0.65792,-0.31149 0.91364,-0.55792c0.25572,-0.25106 0.45335,-0.56258 0.59286,-0.93455l1.58997,0.44634c-0.16734,0.53935 -0.44843,1.01359 -0.84368,1.42275c-0.39524,0.40449 -0.88336,0.72068 -1.46477,0.9485c-0.581,0.22315 -1.23442,0.33477 -1.95944,0.33477zM282.56106,173.49077v-10.71239h1.64603v10.71239zM283.39778,160.99297c-0.32078,0 -0.59737,-0.10925 -0.82976,-0.32778c-0.2279,-0.21853 -0.34164,-0.48121 -0.34164,-0.78807c0,-0.30686 0.11374,-0.56958 0.34164,-0.78811c0.2324,-0.21853 0.50899,-0.32778 0.82976,-0.32778c0.32078,0 0.59532,0.10925 0.82322,0.32778c0.2324,0.21853 0.3486,0.48124 0.3486,0.78811c0,0.30686 -0.1162,0.56954 -0.3486,0.78807c-0.2279,0.21853 -0.50244,0.32778 -0.82322,0.32778zM294.8095,165.1775l-1.47868,0.41845c-0.09288,-0.24639 -0.22994,-0.48587 -0.4112,-0.71831c-0.17675,-0.23714 -0.41856,-0.43243 -0.72543,-0.58587c-0.30686,-0.15343 -0.69966,-0.23015 -1.17877,-0.23015c-0.65546,0 -1.20168,0.15114 -1.63907,0.45335c-0.43206,0.29758 -0.64851,0.6765 -0.64851,1.13679c0,0.40915 0.14893,0.7323 0.44639,0.96941c0.29745,0.23714 0.76266,0.43472 1.3948,0.59282l1.59038,0.39054c0.95783,0.23248 1.67139,0.58816 2.14111,1.06707c0.4693,0.47425 0.70415,1.08565 0.70415,1.8342c0,0.61373 -0.17675,1.1624 -0.52985,1.64594c-0.34901,0.48354 -0.83713,0.86479 -1.46477,1.14375c-0.62764,0.27896 -1.35757,0.41848 -2.18979,0.41848c-1.09285,0 -1.99708,-0.23714 -2.7131,-0.7114c-0.71602,-0.47425 -1.16936,-1.16703 -1.36003,-2.0783l1.56256,-0.39058c0.14852,0.57654 0.43002,1.00893 0.84368,1.29722c0.41856,0.28825 0.96479,0.43239 1.63907,0.43239c0.76716,0 1.37598,-0.16272 1.82728,-0.4882c0.45539,-0.3301 0.68329,-0.72531 0.68329,-1.1856c0,-0.37196 -0.13011,-0.68349 -0.39033,-0.93455c-0.26063,-0.25572 -0.66037,-0.44634 -1.19964,-0.57188l-1.78555,-0.41848c-0.98115,-0.23244 -1.70167,-0.59278 -2.16197,-1.08098c-0.4558,-0.49283 -0.68329,-1.10889 -0.68329,-1.84815c0,-0.60444 0.16939,-1.13913 0.50899,-1.60408c0.3441,-0.46496 0.81135,-0.82993 1.40176,-1.09493c0.59532,-0.26505 1.2692,-0.39753 2.02245,-0.39753c1.06011,0 1.89233,0.23248 2.49666,0.6974c0.60923,0.46496 1.04171,1.07869 1.29743,1.84119zM303.00608,173.49077v-10.71239h1.64562v10.71239zM303.84279,160.99297c-0.32078,0 -0.59737,-0.10925 -0.82976,-0.32778c-0.2279,-0.21853 -0.34205,-0.48121 -0.34205,-0.78807c0,-0.30686 0.11415,-0.56958 0.34205,-0.78811c0.2324,-0.21853 0.50899,-0.32778 0.82976,-0.32778c0.32078,0 0.59532,0.10925 0.82281,0.32778c0.23281,0.21853 0.34901,0.48124 0.34901,0.78811c0,0.30686 -0.1162,0.56954 -0.34901,0.78807c-0.22749,0.21853 -0.50203,0.32778 -0.82281,0.32778zM309.31236,167.0466v6.44417h-1.64603v-10.71239h1.59038v1.67381h0.13911c0.25122,-0.54401 0.63255,-0.98103 1.144,-1.31117c0.51144,-0.33473 1.17181,-0.50211 1.98071,-0.50211c0.72543,0 1.36003,0.14877 1.90379,0.44634c0.54418,0.29291 0.96724,0.73926 1.2696,1.33904c0.30196,0.59516 0.45293,1.34836 0.45293,2.25964v6.80685h-1.64562v-6.69523c0,-0.84159 -0.21849,-1.49714 -0.65588,-1.96676c-0.43698,-0.47421 -1.0368,-0.71136 -1.79905,-0.71136c-0.52536,0 -0.99506,0.11391 -1.40872,0.34173c-0.40915,0.22786 -0.73238,0.56029 -0.9697,0.99732c-0.2369,0.43706 -0.35556,0.96712 -0.35556,1.59013zM329.33717,162.77839v1.39485h-5.5514v-1.39485zM325.40356,160.21189h1.64603v10.21023c0,0.46496 0.06751,0.81364 0.20212,1.04613c0.13952,0.22781 0.31627,0.38125 0.53026,0.4603c0.21849,0.07438 0.44843,0.11158 0.69025,0.11158c0.18126,0 0.33019,-0.00929 0.44639,-0.02786c0.1162,-0.02328 0.20908,-0.04186 0.27904,-0.05581l0.33469,1.47852c-0.1117,0.04186 -0.26718,0.08371 -0.46725,0.12557c-0.20008,0.04648 -0.45335,0.06972 -0.76021,0.06972c-0.4648,0 -0.9206,-0.09995 -1.36698,-0.29987c-0.44147,-0.19995 -0.8089,-0.50449 -1.10185,-0.91364c-0.28845,-0.40915 -0.43248,-0.92526 -0.43248,-1.54828zM333.68893,167.0466v6.44417h-1.64603v-14.2832h1.64603v5.24462h0.13952c0.25122,-0.5533 0.62764,-0.99265 1.12967,-1.31813c0.50694,-0.3301 1.18123,-0.49516 2.02285,-0.49516c0.72993,0 1.36903,0.14644 1.9177,0.43935c0.54868,0.28829 0.9742,0.7323 1.27615,1.33208c0.30686,0.59516 0.4603,1.35299 0.4603,2.27359v6.80685h-1.64562v-6.69523c0,-0.85088 -0.22094,-1.50876 -0.66283,-1.97372c-0.43698,-0.46959 -1.04376,-0.7044 -1.82032,-0.7044c-0.53926,0 -1.02289,0.11391 -1.45045,0.34173c-0.42307,0.22786 -0.75775,0.56029 -1.00447,0.99732c-0.2414,0.43706 -0.36251,0.96712 -0.36251,1.59013zM348.13779,173.71397c-1.0323,0 -1.92261,-0.22786 -2.67096,-0.68349c-0.74425,-0.4603 -1.3183,-1.10193 -1.72295,-1.92487c-0.39974,-0.82764 -0.59982,-1.79005 -0.59982,-2.88736c0,-1.09727 0.20008,-2.06434 0.59982,-2.90127c0.40465,-0.84155 0.96724,-1.49714 1.68776,-1.96672c0.72543,-0.47425 1.57156,-0.71136 2.5388,-0.71136c0.55809,0 1.10881,0.09296 1.65298,0.27896c0.54376,0.18596 1.03884,0.4882 1.48523,0.90665c0.44639,0.41382 0.80235,0.96245 1.06707,1.6459c0.26513,0.68349 0.39769,1.52504 0.39769,2.52469v0.6974h-8.25754v-1.42271h6.5837c0,-0.60444 -0.1207,-1.14379 -0.36251,-1.61804c-0.23731,-0.47425 -0.5765,-0.84854 -1.01838,-1.12284c-0.43698,-0.27434 -0.95333,-0.41149 -1.54824,-0.41149c-0.65546,0 -1.22296,0.16272 -1.70167,0.4882c-0.47421,0.32082 -0.83917,0.73926 -1.0949,1.25537c-0.25572,0.51606 -0.38379,1.06936 -0.38379,1.65985v0.9485c0,0.80898 0.13952,1.4948 0.41856,2.05739c0.28355,0.55792 0.67633,0.98336 1.17877,1.27627c0.50203,0.28825 1.08549,0.43239 1.75036,0.43239c0.43248,0 0.82281,-0.06043 1.17181,-0.18134c0.3531,-0.12552 0.65792,-0.31149 0.91364,-0.55792c0.25572,-0.25106 0.45335,-0.56258 0.59245,-0.93455l1.59038,0.44634c-0.16734,0.53935 -0.44884,1.01359 -0.84408,1.42275c-0.39524,0.40449 -0.88336,0.72068 -1.46436,0.9485c-0.5814,0.22315 -1.23442,0.33477 -1.95985,0.33477zM128.51456,201.23877v-14.72946h1.59012v1.70171h0.19528c0.12089,-0.186 0.28827,-0.4231 0.50214,-0.7114c0.21852,-0.29291 0.53005,-0.55326 0.93454,-0.78111c0.40915,-0.23244 0.96245,-0.34868 1.65985,-0.34868c0.90202,0 1.69709,0.22549 2.38521,0.6765c0.68812,0.45101 1.22513,1.09031 1.61104,1.91791c0.38591,0.8276 0.57887,1.804 0.57887,2.92918c0,1.13446 -0.19296,2.11782 -0.57887,2.95008c-0.38591,0.82752 -0.9206,1.46907 -1.60408,1.92487c-0.68345,0.45088 -1.47157,0.67633 -2.36426,0.67633c-0.68812,0 -1.23908,-0.11374 -1.6529,-0.34164c-0.41378,-0.2324 -0.73227,-0.49508 -0.95545,-0.78803c-0.22318,-0.29745 -0.3952,-0.54376 -0.51609,-0.73922h-0.13948v5.66298zM130.13257,191.8655c0,0.80902 0.11856,1.52271 0.35568,2.14106c0.23712,0.61373 0.58351,1.09498 1.03918,1.4437c0.45564,0.34389 1.01356,0.51614 1.67381,0.51614c0.68812,0 1.26232,-0.18126 1.72262,-0.54405c0.46496,-0.36734 0.81364,-0.86016 1.04613,-1.47856c0.23714,-0.62302 0.35568,-1.3158 0.35568,-2.0783c0,-0.75321 -0.11624,-1.43204 -0.34868,-2.03648c-0.22786,-0.60907 -0.57425,-1.09031 -1.03917,-1.44366c-0.4603,-0.35801 -1.03917,-0.53701 -1.73657,-0.53701c-0.66954,0 -1.23212,0.16972 -1.68776,0.50911c-0.45566,0.33477 -0.79972,0.80436 -1.0322,1.4088c-0.23248,0.59978 -0.34871,1.29951 -0.34871,2.09925zM143.63467,197.47292c-0.67882,0 -1.29489,-0.12807 -1.84819,-0.38379c-0.5533,-0.26022 -0.99265,-0.63459 -1.31813,-1.12271c-0.32544,-0.49291 -0.4882,-1.08807 -0.4882,-1.78547c0,-0.61373 0.1209,-1.11122 0.36268,-1.49247c0.24177,-0.38591 0.56492,-0.68815 0.96941,-0.90668c0.40453,-0.21849 0.85088,-0.38125 1.33908,-0.48816c0.49283,-0.11162 0.98799,-0.19995 1.48547,-0.26505c0.65092,-0.08367 1.17865,-0.14644 1.58318,-0.18829c0.40915,-0.04648 0.70669,-0.1232 0.89269,-0.23015c0.19062,-0.10695 0.28592,-0.29291 0.28592,-0.55792v-0.05581c0,-0.68812 -0.18829,-1.22279 -0.56488,-1.60405c-0.37196,-0.38129 -0.93688,-0.57191 -1.69475,-0.57191c-0.78574,0 -1.4018,0.17205 -1.84815,0.51611c-0.44634,0.34405 -0.76021,0.71136 -0.94155,1.10193l-1.56223,-0.55796c0.279,-0.65092 0.65096,-1.1577 1.11588,-1.52037c0.46959,-0.3673 0.98103,-0.62302 1.53433,-0.76716c0.55796,-0.14877 1.1066,-0.22315 1.6459,-0.22315c0.3441,0 0.7393,0.04181 1.18565,0.12552c0.45097,0.07905 0.8857,0.2441 1.30418,0.49516c0.4231,0.2511 0.77412,0.63002 1.05308,1.13679c0.279,0.50682 0.41848,1.18565 0.41848,2.03648v7.0579h-1.64594v-1.45045h-0.08367c-0.11158,0.2324 -0.29758,0.48116 -0.55792,0.74589c-0.26039,0.26513 -0.60678,0.49057 -1.03917,0.67674c-0.43239,0.18576 -0.96012,0.27904 -1.58314,0.27904zM143.88572,195.99424c0.65092,0 1.19956,-0.12765 1.6459,-0.38379c0.45101,-0.25552 0.79041,-0.58562 1.01826,-0.99015c0.23244,-0.40449 0.34868,-0.82993 0.34868,-1.27627v-1.50642c-0.06972,0.08371 -0.22315,0.16043 -0.4603,0.23015c-0.23244,0.0651 -0.50211,0.1232 -0.80898,0.17434c-0.30224,0.04652 -0.59748,0.08838 -0.88573,0.12557c-0.28363,0.03253 -0.51377,0.06043 -0.69045,0.08367c-0.42777,0.05581 -0.8276,0.14648 -1.19956,0.27201c-0.36734,0.12087 -0.66487,0.30453 -0.89269,0.55096c-0.22319,0.24177 -0.33477,0.57188 -0.33477,0.99031c0,0.57191 0.21153,1.00431 0.63464,1.29722c0.42777,0.28837 0.96941,0.43239 1.625,0.43239zM159.13657,188.90843l-1.47852,0.41845c-0.093,-0.24639 -0.23015,-0.48587 -0.41149,-0.71831c-0.17667,-0.23714 -0.41845,-0.43243 -0.72531,-0.58587c-0.30686,-0.15343 -0.69974,-0.23015 -1.17865,-0.23015c-0.65559,0 -1.20189,0.15114 -1.63895,0.45335c-0.43239,0.29758 -0.64859,0.6765 -0.64859,1.13679c0,0.40915 0.14877,0.7323 0.44634,0.96941c0.29758,0.23714 0.76254,0.43472 1.39485,0.59282l1.59013,0.39054c0.95779,0.23248 1.67147,0.58816 2.14106,1.06707c0.46962,0.47425 0.7044,1.08565 0.7044,1.8342c0,0.61373 -0.17667,1.1624 -0.53002,1.64582c-0.34872,0.48362 -0.83693,0.86495 -1.46461,1.144c-0.62768,0.27904 -1.35766,0.41816 -2.18991,0.41816c-1.0926,0 -1.99691,-0.2369 -2.71294,-0.71111c-0.71602,-0.47421 -1.16936,-1.16711 -1.35998,-2.07838l1.56223,-0.39058c0.14877,0.57654 0.43006,1.00893 0.84388,1.29722c0.41845,0.28837 0.96474,0.43239 1.63895,0.43239c0.76716,0 1.37623,-0.16284 1.82724,-0.4882c0.45564,-0.3301 0.68345,-0.72531 0.68345,-1.1856c0,-0.37196 -0.13019,-0.68349 -0.39054,-0.93455c-0.26039,-0.25572 -0.66025,-0.44634 -1.19956,-0.57188l-1.78542,-0.41848c-0.98103,-0.23244 -1.70171,-0.59278 -2.16201,-1.08098c-0.45564,-0.49283 -0.68345,-1.10889 -0.68345,-1.84815c0,-0.60444 0.16972,-1.13913 0.50911,-1.60408c0.34405,-0.46496 0.81135,-0.82993 1.4018,-1.09493c0.59516,-0.26505 1.26931,-0.39753 2.02253,-0.39753c1.06008,0 1.89233,0.23248 2.49678,0.6974c0.60907,0.46496 1.04146,1.07869 1.29718,1.84119zM169.39728,188.90843l-1.47843,0.41845c-0.09296,-0.24639 -0.23015,-0.48587 -0.41144,-0.71831c-0.17671,-0.23714 -0.41848,-0.43243 -0.72534,-0.58587c-0.30686,-0.15343 -0.69974,-0.23015 -1.17865,-0.23015c-0.65555,0 -1.20189,0.15114 -1.6389,0.45335c-0.43243,0.29758 -0.64863,0.6765 -0.64863,1.13679c0,0.40915 0.14881,0.7323 0.44634,0.96941c0.29758,0.23714 0.76254,0.43472 1.39485,0.59282l1.59013,0.39054c0.95779,0.23248 1.67139,0.58816 2.14111,1.06707c0.46971,0.47425 0.70456,1.08565 0.70456,1.8342c0,0.61373 -0.17675,1.1624 -0.53026,1.64582c-0.3486,0.48362 -0.83672,0.86495 -1.46457,1.144c-0.62764,0.27904 -1.35761,0.41816 -2.18987,0.41816c-1.09265,0 -1.99696,-0.2369 -2.71297,-0.71111c-0.71602,-0.47421 -1.16936,-1.16711 -1.35998,-2.07838l1.56223,-0.39058c0.14877,0.57654 0.43006,1.00893 0.84388,1.29722c0.41845,0.28837 0.96479,0.43239 1.63895,0.43239c0.76716,0 1.37623,-0.16284 1.82724,-0.4882c0.45564,-0.3301 0.68349,-0.72531 0.68349,-1.1856c0,-0.37196 -0.13019,-0.68349 -0.39058,-0.93455c-0.26039,-0.25572 -0.66021,-0.44634 -1.19956,-0.57188l-1.78539,-0.41848c-0.98107,-0.23244 -1.70171,-0.59278 -2.16201,-1.08098c-0.45567,-0.49283 -0.68349,-1.10889 -0.68349,-1.84815c0,-0.60444 0.16972,-1.13913 0.50911,-1.60408c0.34405,-0.46496 0.81135,-0.82993 1.40184,-1.09493c0.59511,-0.26505 1.26928,-0.39753 2.02249,-0.39753c1.06011,0 1.89233,0.23248 2.49686,0.6974c0.60882,0.46496 1.04129,1.07869 1.29702,1.84119zM172.07029,197.2217v-10.71239h1.64603v10.71239zM172.90701,184.72389c-0.32078,0 -0.59737,-0.10925 -0.82976,-0.32778c-0.2279,-0.21853 -0.34164,-0.48121 -0.34164,-0.78807c0,-0.30686 0.11374,-0.56958 0.34164,-0.78811c0.2324,-0.21853 0.50899,-0.32778 0.82976,-0.32778c0.32078,0 0.59532,0.10925 0.82322,0.32778c0.2324,0.21853 0.3486,0.48124 0.3486,0.78811c0,0.30686 -0.1162,0.56954 -0.3486,0.78807c-0.2279,0.21853 -0.50244,0.32778 -0.82322,0.32778zM185.49053,186.50932l-3.96143,10.71239h-1.67385l-3.96143,-10.71239h1.78555l2.95696,8.53642h0.1117l2.95696,-8.53642zM191.77063,197.44469c-1.0323,0 -1.92261,-0.22749 -2.67096,-0.68329c-0.74384,-0.4603 -1.3183,-1.10185 -1.72295,-1.92487c-0.39974,-0.82764 -0.59941,-1.79005 -0.59941,-2.88736c0,-1.09727 0.19966,-2.06434 0.59941,-2.90127c0.40465,-0.84155 0.96724,-1.49714 1.68776,-1.96672c0.72543,-0.47425 1.57156,-0.71136 2.5388,-0.71136c0.55809,0 1.10881,0.09296 1.65298,0.27896c0.54376,0.18596 1.03925,0.4882 1.48523,0.90665c0.44639,0.41382 0.80235,0.96245 1.06707,1.6459c0.26513,0.68349 0.39769,1.52504 0.39769,2.52469v0.6974h-8.25754v-1.42271h6.5837c0,-0.60444 -0.1207,-1.14379 -0.36251,-1.61804c-0.23731,-0.47425 -0.5765,-0.84854 -1.01838,-1.12284c-0.43698,-0.27434 -0.95292,-0.41149 -1.54824,-0.41149c-0.65546,0 -1.22296,0.16272 -1.70167,0.4882c-0.47421,0.32082 -0.83917,0.73926 -1.0949,1.25537c-0.25572,0.51606 -0.38379,1.06936 -0.38379,1.65985v0.9485c0,0.80898 0.13952,1.4948 0.41856,2.05739c0.28355,0.55792 0.67633,0.98336 1.17877,1.27627c0.50203,0.28845 1.08549,0.43248 1.75036,0.43248c0.43248,0 0.82281,-0.06055 1.17181,-0.18126c0.3531,-0.12561 0.65792,-0.31165 0.91364,-0.55809c0.25572,-0.25106 0.45335,-0.56258 0.59286,-0.93455l1.58997,0.44634c-0.16734,0.53935 -0.44884,1.01356 -0.84408,1.42271c-0.39483,0.40465 -0.88336,0.72052 -1.46436,0.94842c-0.5814,0.2234 -1.23442,0.33469 -1.95985,0.33469zM212.99304,186.50932l-3.96102,10.71239h-1.67385l-3.96143,-10.71239h1.78514l2.95736,8.53642h0.11129l2.95736,-8.53642zM219.13403,197.44469c-0.96724,0 -1.81583,-0.22994 -2.54576,-0.69025c-0.72502,-0.4603 -1.29252,-1.10431 -1.70167,-1.93186c-0.40425,-0.82764 -0.60678,-1.79471 -0.60678,-2.90127c0,-1.11588 0.20253,-2.08996 0.60678,-2.92222c0.40915,-0.83226 0.97665,-1.47852 1.70167,-1.93882c0.72993,-0.4603 1.57851,-0.69045 2.54576,-0.69045c0.96724,0 1.81337,0.23015 2.53839,0.69045c0.73034,0.4603 1.29743,1.10655 1.70208,1.93882c0.40915,0.83226 0.61373,1.80634 0.61373,2.92222c0,1.10655 -0.20458,2.07363 -0.61373,2.90127c-0.40465,0.82755 -0.97174,1.47157 -1.70208,1.93186c-0.72502,0.4603 -1.57115,0.69025 -2.53839,0.69025zM219.13403,195.96641c0.73443,0 1.33916,-0.18821 1.81337,-0.565c0.47421,-0.37658 0.82526,-0.87175 1.05317,-1.48547c0.22749,-0.61373 0.34164,-1.27861 0.34164,-1.99462c0,-0.71602 -0.11415,-1.38323 -0.34164,-2.00162c-0.2279,-0.6184 -0.57895,-1.11818 -1.05317,-1.49947c-0.47421,-0.38125 -1.07894,-0.57188 -1.81337,-0.57188c-0.73484,0 -1.33916,0.19062 -1.81337,0.57188c-0.47421,0.38129 -0.82526,0.88108 -1.05317,1.49947c-0.2279,0.6184 -0.34164,1.2856 -0.34164,2.00162c0,0.71602 0.11374,1.3809 0.34164,1.99462c0.2279,0.61373 0.57895,1.10889 1.05317,1.48547c0.47421,0.37679 1.07853,0.565 1.81337,0.565zM226.50043,197.2217v-10.71239h1.64603v10.71239zM227.33757,184.72389c-0.32078,0 -0.59777,-0.10925 -0.83017,-0.32778c-0.2279,-0.21853 -0.34164,-0.48121 -0.34164,-0.78807c0,-0.30686 0.11374,-0.56958 0.34164,-0.78811c0.2324,-0.21853 0.50939,-0.32778 0.83017,-0.32778c0.32078,0 0.59491,0.10925 0.82281,0.32778c0.2324,0.21853 0.3486,0.48124 0.3486,0.78811c0,0.30686 -0.1162,0.56954 -0.3486,0.78807c-0.2279,0.21853 -0.50203,0.32778 -0.82281,0.32778zM235.51287,197.44469c-1.00407,0 -1.86902,-0.2369 -2.59444,-0.71111c-0.72502,-0.47421 -1.28311,-1.12763 -1.67385,-1.95985c-0.39033,-0.83222 -0.5855,-1.78305 -0.5855,-2.85242c0,-1.08798 0.19966,-2.0481 0.59941,-2.88036c0.40465,-0.83693 0.96724,-1.49018 1.68776,-1.95977c0.72543,-0.47425 1.57156,-0.71136 2.5388,-0.71136c0.75325,0 1.43204,0.13948 2.03636,0.41845c0.60473,0.27896 1.0998,0.66954 1.48564,1.17165c0.38583,0.50216 0.62518,1.08798 0.71848,1.75752h-1.64603c-0.12561,-0.4882 -0.40465,-0.9206 -0.83713,-1.29722c-0.42757,-0.38125 -1.00407,-0.57188 -1.72949,-0.57188c-0.64155,0 -1.20414,0.16739 -1.68776,0.50216c-0.47871,0.3301 -0.85309,0.79736 -1.12271,1.4018c-0.26513,0.59978 -0.39769,1.30418 -0.39769,2.1132c0,0.8276 0.13011,1.54828 0.39074,2.16201c0.26513,0.61373 0.63706,1.09031 1.11577,1.4297c0.48362,0.33939 1.0507,0.5092 1.70167,0.5092c0.42797,0 0.81626,-0.07446 1.16486,-0.2234c0.3486,-0.14852 0.64401,-0.36251 0.88582,-0.64147c0.2414,-0.27896 0.41366,-0.61373 0.51595,-1.00431h1.64603c-0.09329,0.63235 -0.32323,1.20189 -0.69065,1.70879c-0.36251,0.50203 -0.84368,0.90178 -1.4435,1.19964c-0.59532,0.29296 -1.28802,0.43902 -2.07851,0.43902zM246.62303,197.44469c-1.0323,0 -1.92261,-0.22749 -2.67137,-0.68329c-0.74384,-0.4603 -1.31788,-1.10185 -1.72253,-1.92487c-0.39974,-0.82764 -0.59982,-1.79005 -0.59982,-2.88736c0,-1.09727 0.20008,-2.06434 0.59982,-2.90127c0.40465,-0.84155 0.96724,-1.49714 1.68776,-1.96672c0.72543,-0.47425 1.57156,-0.71136 2.5388,-0.71136c0.55768,0 1.10881,0.09296 1.65257,0.27896c0.54418,0.18596 1.03925,0.4882 1.48564,0.90665c0.44639,0.41382 0.80194,0.96245 1.06707,1.6459c0.26513,0.68349 0.39769,1.52504 0.39769,2.52469v0.6974h-8.25754v-1.42271h6.5837c0,-0.60444 -0.12111,-1.14379 -0.36292,-1.61804c-0.2369,-0.47425 -0.5765,-0.84854 -1.01798,-1.12284c-0.43738,-0.27434 -0.95333,-0.41149 -1.54824,-0.41149c-0.65588,0 -1.22296,0.16272 -1.70208,0.4882c-0.47421,0.32082 -0.83917,0.73926 -1.0949,1.25537c-0.25572,0.51606 -0.38338,1.06936 -0.38338,1.65985v0.9485c0,0.80898 0.13952,1.4948 0.41856,2.05739c0.28355,0.55792 0.67633,0.98336 1.17837,1.27627c0.50203,0.28845 1.08589,0.43248 1.75077,0.43248c0.43206,0 0.82281,-0.06055 1.17141,-0.18126c0.35351,-0.12561 0.65792,-0.31165 0.91364,-0.55809c0.25572,-0.25106 0.45335,-0.56258 0.59286,-0.93455l1.58997,0.44634c-0.16734,0.53935 -0.44843,1.01356 -0.84368,1.42271c-0.39524,0.40465 -0.88336,0.72052 -1.46477,0.94842c-0.581,0.2234 -1.23442,0.33469 -1.95944,0.33469zM255.71034,193.20454v-0.08367c0.00941,-0.88807 0.10229,-1.5948 0.27904,-2.12016c0.17634,-0.52539 0.42757,-0.95083 0.75325,-1.27632c0.32528,-0.32544 0.71602,-0.62535 1.17141,-0.89965c0.27454,-0.16739 0.52085,-0.365 0.73934,-0.59282c0.21849,-0.23248 0.39074,-0.49982 0.51595,-0.80202c0.13052,-0.30224 0.19558,-0.63697 0.19558,-1.00431c0,-0.45564 -0.1072,-0.85083 -0.32078,-1.1856c-0.21399,-0.33477 -0.49998,-0.59282 -0.858,-0.77412c-0.35801,-0.18134 -0.75571,-0.27201 -1.19268,-0.27201c-0.38133,0 -0.74834,0.07905 -1.10185,0.23711c-0.35351,0.1581 -0.64851,0.40686 -0.88582,0.74626c-0.2369,0.33939 -0.37438,0.78345 -0.4112,1.33208h-1.75772c0.03724,-0.79041 0.24181,-1.4669 0.61373,-2.02949c0.37683,-0.56258 0.87191,-0.99269 1.48564,-1.29027c0.61823,-0.29753 1.30397,-0.44634 2.05722,-0.44634c0.81831,0 1.52983,0.16276 2.13415,0.4882c0.60923,0.32548 1.07853,0.77183 1.40872,1.33904c0.33469,0.56725 0.50244,1.21355 0.50244,1.93885c0,0.51144 -0.07937,0.97407 -0.23731,1.38785c-0.15343,0.41382 -0.37642,0.78345 -0.66938,1.10893c-0.28845,0.32544 -0.63706,0.61373 -1.04621,0.86479c-0.40915,0.25572 -0.73688,0.52539 -0.98361,0.80902c-0.24631,0.27896 -0.42511,0.6114 -0.53681,0.99732c-0.1117,0.38587 -0.17225,0.86712 -0.18126,1.44366v0.08367zM256.60312,197.3334c-0.3441,0 -0.63951,-0.12315 -0.88582,-0.36988c-0.24631,-0.24631 -0.36988,-0.54172 -0.36988,-0.88541c0,-0.3441 0.12356,-0.63951 0.36988,-0.8859c0.24631,-0.24644 0.54172,-0.36963 0.88582,-0.36963c0.3441,0 0.6391,0.1232 0.88541,0.36963c0.24672,0.24639 0.36988,0.5418 0.36988,0.8859c0,0.22749 -0.0581,0.43698 -0.1743,0.62764c-0.1117,0.19067 -0.26268,0.3441 -0.45335,0.4603c-0.18616,0.11129 -0.39524,0.16734 -0.62764,0.16734z"/></g></g></svg>