<svg xmlns="http://www.w3.org/2000/svg" fill="none" viewBox="0 0 139 164" height="164" width="139">
<path fill="#EEC638" d="M0 20C0 8.95431 8.95431 0 20 0H119C130.046 0 139 8.95431 139 20V144C139 155.046 130.046 164 119 164H20C8.95431 164 0 155.046 0 144V20Z"></path>
<path fill="black" d="M36.2102 135.455V150H34.5341V135.455H36.2102ZM43.854 150.227C42.8029 150.227 41.8962 149.995 41.1339 149.531C40.3763 149.062 39.7915 148.409 39.3796 147.571C38.9724 146.728 38.7688 145.748 38.7688 144.631C38.7688 143.513 38.9724 142.528 39.3796 141.676C39.7915 140.819 40.3645 140.152 41.0984 139.673C41.837 139.19 42.6987 138.949 43.6836 138.949C44.2518 138.949 44.8129 139.044 45.3668 139.233C45.9208 139.422 46.4251 139.73 46.8796 140.156C47.3342 140.578 47.6964 141.136 47.9663 141.832C48.2362 142.528 48.3711 143.385 48.3711 144.403V145.114H39.962V143.665H46.6665C46.6665 143.049 46.5434 142.5 46.2972 142.017C46.0558 141.534 45.7101 141.153 45.2603 140.874C44.8152 140.594 44.2897 140.455 43.6836 140.455C43.016 140.455 42.4383 140.62 41.9506 140.952C41.4677 141.278 41.096 141.705 40.8356 142.23C40.5752 142.756 40.445 143.319 40.445 143.92V144.886C40.445 145.71 40.587 146.409 40.8711 146.982C41.1599 147.55 41.56 147.983 42.0714 148.281C42.5827 148.575 43.177 148.722 43.854 148.722C44.2944 148.722 44.6921 148.66 45.0472 148.537C45.4071 148.409 45.7172 148.22 45.9776 147.969C46.238 147.713 46.4393 147.396 46.5813 147.017L48.2006 147.472C48.0302 148.021 47.7437 148.504 47.3413 148.92C46.9388 149.332 46.4416 149.654 45.8498 149.886C45.2579 150.114 44.5927 150.227 43.854 150.227ZM55.6651 139.091V140.511H50.0117V139.091H55.6651ZM51.6594 136.477H53.3356V146.875C53.3356 147.348 53.4042 147.704 53.5415 147.94C53.6836 148.172 53.8635 148.329 54.0813 148.409C54.3039 148.485 54.5382 148.523 54.7844 148.523C54.9691 148.523 55.1206 148.513 55.239 148.494C55.3574 148.471 55.4521 148.452 55.5231 148.438L55.864 149.943C55.7504 149.986 55.5917 150.028 55.3881 150.071C55.1845 150.118 54.9265 150.142 54.614 150.142C54.1405 150.142 53.6765 150.04 53.2219 149.837C52.7721 149.633 52.3981 149.323 52.0998 148.906C51.8062 148.49 51.6594 147.964 51.6594 147.33V136.477ZM62.9308 139.091V140.511H57.2773V139.091H62.9308ZM58.9251 136.477H60.6012V146.875C60.6012 147.348 60.6699 147.704 60.8072 147.94C60.9492 148.172 61.1291 148.329 61.3469 148.409C61.5695 148.485 61.8039 148.523 62.0501 148.523C62.2347 148.523 62.3862 148.513 62.5046 148.494C62.623 148.471 62.7177 148.452 62.7887 148.438L63.1296 149.943C63.016 149.986 62.8574 150.028 62.6538 150.071C62.4502 150.118 62.1921 150.142 61.8796 150.142C61.4061 150.142 60.9421 150.04 60.4876 149.837C60.0378 149.633 59.6637 149.323 59.3654 148.906C59.0719 148.49 58.9251 147.964 58.9251 147.33V136.477ZM69.9087 150.227C68.8576 150.227 67.9509 149.995 67.1886 149.531C66.431 149.062 65.8462 148.409 65.4343 147.571C65.0271 146.728 64.8235 145.748 64.8235 144.631C64.8235 143.513 65.0271 142.528 65.4343 141.676C65.8462 140.819 66.4192 140.152 67.1531 139.673C67.8917 139.19 68.7534 138.949 69.7383 138.949C70.3065 138.949 70.8675 139.044 71.4215 139.233C71.9755 139.422 72.4798 139.73 72.9343 140.156C73.3888 140.578 73.7511 141.136 74.021 141.832C74.2908 142.528 74.4258 143.385 74.4258 144.403V145.114H66.0167V143.665H72.7212C72.7212 143.049 72.5981 142.5 72.3519 142.017C72.1104 141.534 71.7648 141.153 71.315 140.874C70.8699 140.594 70.3443 140.455 69.7383 140.455C69.0707 140.455 68.493 140.62 68.0053 140.952C67.5224 141.278 67.1507 141.705 66.8903 142.23C66.6299 142.756 66.4996 143.319 66.4996 143.92V144.886C66.4996 145.71 66.6417 146.409 66.9258 146.982C67.2146 147.55 67.6147 147.983 68.1261 148.281C68.6374 148.575 69.2317 148.722 69.9087 148.722C70.3491 148.722 70.7468 148.66 71.1019 148.537C71.4618 148.409 71.7719 148.22 72.0323 147.969C72.2927 147.713 72.494 147.396 72.636 147.017L74.2553 147.472C74.0849 148.021 73.7984 148.504 73.396 148.92C72.9935 149.332 72.4963 149.654 71.9045 149.886C71.3126 150.114 70.6474 150.227 69.9087 150.227ZM76.9755 150V139.091H78.5948V140.739H78.7085C78.9073 140.199 79.2672 139.761 79.788 139.425C80.3088 139.089 80.896 138.92 81.5494 138.92C81.6725 138.92 81.8263 138.923 82.011 138.928C82.1957 138.932 82.3353 138.939 82.43 138.949V140.653C82.3732 140.639 82.243 140.618 82.0394 140.589C81.8406 140.556 81.6299 140.54 81.4073 140.54C80.877 140.54 80.4035 140.651 79.9869 140.874C79.5749 141.091 79.2482 141.394 79.0067 141.783C78.77 142.166 78.6516 142.604 78.6516 143.097V150H76.9755ZM90.2692 150V135.455H95.3544C96.3677 135.455 97.2034 135.63 97.8615 135.98C98.5197 136.326 99.0097 136.792 99.3317 137.379C99.6536 137.962 99.8146 138.608 99.8146 139.318C99.8146 139.943 99.7034 140.459 99.4808 140.866C99.263 141.274 98.9742 141.596 98.6143 141.832C98.2592 142.069 97.8733 142.244 97.4567 142.358V142.5C97.9018 142.528 98.3492 142.685 98.799 142.969C99.2488 143.253 99.6252 143.66 99.9283 144.19C100.231 144.721 100.383 145.369 100.383 146.136C100.383 146.866 100.217 147.521 99.8857 148.104C99.5542 148.686 99.031 149.148 98.3161 149.489C97.6011 149.83 96.6707 150 95.5249 150H90.2692ZM92.0305 148.438H95.5249C96.6754 148.438 97.4922 148.215 97.9751 147.77C98.4628 147.32 98.7067 146.776 98.7067 146.136C98.7067 145.644 98.5812 145.189 98.3303 144.773C98.0793 144.351 97.7218 144.015 97.2578 143.764C96.7938 143.509 96.2446 143.381 95.6101 143.381H92.0305V148.438ZM92.0305 141.847H95.2976C95.8279 141.847 96.3061 141.742 96.7322 141.534C97.1631 141.326 97.504 141.032 97.755 140.653C98.0107 140.275 98.1385 139.83 98.1385 139.318C98.1385 138.679 97.916 138.137 97.4709 137.692C97.0258 137.242 96.3203 137.017 95.3544 137.017H92.0305V141.847Z"></path>
<path fill="black" d="M29.6881 60H27.0461C26.8898 59.2401 26.6164 58.5724 26.2258 57.9972C25.8422 57.4219 25.3735 56.9389 24.8195 56.5483C24.2726 56.1506 23.6654 55.8523 22.9978 55.6534C22.3302 55.4545 21.6341 55.3551 20.9097 55.3551C19.5887 55.3551 18.392 55.6889 17.3195 56.3565C16.2542 57.0241 15.4055 58.0078 14.7733 59.3075C14.1483 60.6072 13.8358 62.2017 13.8358 64.0909C13.8358 65.9801 14.1483 67.5746 14.7733 68.8743C15.4055 70.174 16.2542 71.1577 17.3195 71.8253C18.392 72.4929 19.5887 72.8267 20.9097 72.8267C21.6341 72.8267 22.3302 72.7273 22.9978 72.5284C23.6654 72.3295 24.2726 72.0348 24.8195 71.6442C25.3735 71.2464 25.8422 70.7599 26.2258 70.1847C26.6164 69.6023 26.8898 68.9347 27.0461 68.1818H29.6881C29.4893 69.2969 29.127 70.2947 28.6015 71.1754C28.0759 72.0561 27.4225 72.8054 26.6412 73.4233C25.86 74.0341 24.9829 74.4993 24.0099 74.8189C23.0439 75.1385 22.0106 75.2983 20.9097 75.2983C19.0489 75.2983 17.3941 74.8438 15.9452 73.9347C14.4964 73.0256 13.3564 71.733 12.5255 70.0568C11.6945 68.3807 11.279 66.392 11.279 64.0909C11.279 61.7898 11.6945 59.8011 12.5255 58.125C13.3564 56.4489 14.4964 55.1562 15.9452 54.2472C17.3941 53.3381 19.0489 52.8835 20.9097 52.8835C22.0106 52.8835 23.0439 53.0433 24.0099 53.3629C24.9829 53.6825 25.86 54.1513 26.6412 54.7692C27.4225 55.38 28.0759 56.1257 28.6015 57.0064C29.127 57.88 29.4893 58.8778 29.6881 60ZM36.1308 65.1562V75H33.6166V53.1818H36.1308V61.1932H36.3438C36.7274 60.348 37.3026 59.6768 38.0697 59.1797C38.8438 58.6754 39.8737 58.4233 41.1592 58.4233C42.2742 58.4233 43.2508 58.647 44.0889 59.0945C44.9269 59.5348 45.5768 60.2131 46.0384 61.1293C46.5072 62.0384 46.7416 63.196 46.7416 64.6023V75H44.2274V64.7727C44.2274 63.473 43.89 62.468 43.2153 61.7578C42.5477 61.0405 41.6208 60.6818 40.4347 60.6818C39.6109 60.6818 38.8722 60.8558 38.2188 61.2038C37.5725 61.5518 37.0612 62.0597 36.6847 62.7273C36.3154 63.3949 36.1308 64.2045 36.1308 65.1562ZM58.202 75.3409C56.6253 75.3409 55.2652 74.9929 54.1217 74.2969C52.9854 73.5938 52.1082 72.6136 51.4903 71.3565C50.8795 70.0923 50.5741 68.6222 50.5741 66.946C50.5741 65.2699 50.8795 63.7926 51.4903 62.5142C52.1082 61.2287 52.9676 60.2273 54.0684 59.5099C55.1764 58.7855 56.469 58.4233 57.9463 58.4233C58.7986 58.4233 59.6402 58.5653 60.4711 58.8494C61.3021 59.1335 62.0585 59.5952 62.7403 60.2344C63.4221 60.8665 63.9655 61.7045 64.3703 62.7486C64.7751 63.7926 64.9775 65.0781 64.9775 66.6051V67.6705H52.3639V65.4972H62.4207C62.4207 64.5739 62.2361 63.75 61.8667 63.0256C61.5045 62.3011 60.9861 61.7294 60.3113 61.3104C59.6437 60.8913 58.8554 60.6818 57.9463 60.6818C56.9449 60.6818 56.0784 60.9304 55.3469 61.4276C54.6224 61.9176 54.0649 62.5568 53.6743 63.3452C53.2836 64.1335 53.0883 64.9787 53.0883 65.8807V67.3295C53.0883 68.5653 53.3014 69.6129 53.7275 70.4723C54.1608 71.3246 54.7609 71.9744 55.528 72.4219C56.295 72.8622 57.1863 73.0824 58.202 73.0824C58.8625 73.0824 59.4591 72.9901 59.9917 72.8054C60.5315 72.6136 60.9967 72.3295 61.3873 71.9531C61.778 71.5696 62.0798 71.0937 62.2929 70.5256L64.7219 71.2074C64.4662 72.0312 64.0365 72.7557 63.4328 73.3807C62.8291 73.9986 62.0834 74.4815 61.1956 74.8295C60.3078 75.1705 59.3099 75.3409 58.202 75.3409ZM75.6629 75.3409C74.0862 75.3409 72.7261 74.9929 71.5827 74.2969C70.4463 73.5938 69.5692 72.6136 68.9513 71.3565C68.3405 70.0923 68.0351 68.6222 68.0351 66.946C68.0351 65.2699 68.3405 63.7926 68.9513 62.5142C69.5692 61.2287 70.4285 60.2273 71.5294 59.5099C72.6373 58.7855 73.93 58.4233 75.4072 58.4233C76.2595 58.4233 77.1011 58.5653 77.9321 58.8494C78.7631 59.1335 79.5194 59.5952 80.2013 60.2344C80.8831 60.8665 81.4264 61.7045 81.8312 62.7486C82.2361 63.7926 82.4385 65.0781 82.4385 66.6051V67.6705H69.8248V65.4972H79.8817C79.8817 64.5739 79.697 63.75 79.3277 63.0256C78.9655 62.3011 78.447 61.7294 77.7723 61.3104C77.1047 60.8913 76.3163 60.6818 75.4072 60.6818C74.4058 60.6818 73.5393 60.9304 72.8078 61.4276C72.0834 61.9176 71.5258 62.5568 71.1352 63.3452C70.7446 64.1335 70.5493 64.9787 70.5493 65.8807V67.3295C70.5493 68.5653 70.7623 69.6129 71.1885 70.4723C71.6217 71.3246 72.2219 71.9744 72.9889 72.4219C73.7559 72.8622 74.6473 73.0824 75.6629 73.0824C76.3234 73.0824 76.92 72.9901 77.4527 72.8054C77.9925 72.6136 78.4577 72.3295 78.8483 71.9531C79.2389 71.5696 79.5407 71.0937 79.7538 70.5256L82.1828 71.2074C81.9271 72.0312 81.4974 72.7557 80.8937 73.3807C80.29 73.9986 79.5443 74.4815 78.6565 74.8295C77.7687 75.1705 76.7709 75.3409 75.6629 75.3409ZM86.2631 75V58.6364H88.692V61.108H88.8625C89.1608 60.2983 89.7006 59.6413 90.4818 59.1371C91.2631 58.6328 92.1437 58.3807 93.1238 58.3807C93.3085 58.3807 93.5393 58.3842 93.8163 58.3913C94.0933 58.3984 94.3028 58.4091 94.4449 58.4233V60.9801C94.3596 60.9588 94.1643 60.9268 93.8589 60.8842C93.5606 60.8345 93.2446 60.8097 92.9108 60.8097C92.1153 60.8097 91.4051 60.9766 90.7801 61.3104C90.1622 61.6371 89.6721 62.0916 89.3099 62.674C88.9548 63.2493 88.7773 63.9062 88.7773 64.6449V75H86.2631ZM105.737 58.6364V60.767H96.9165V58.6364H105.737ZM99.5585 75V56.3778C99.5585 55.4403 99.7787 54.6591 100.219 54.0341C100.659 53.4091 101.231 52.9403 101.934 52.6278C102.637 52.3153 103.38 52.1591 104.161 52.1591C104.779 52.1591 105.283 52.2088 105.674 52.3082C106.064 52.4077 106.355 52.5 106.547 52.5852L105.823 54.7585C105.695 54.7159 105.517 54.6626 105.29 54.5987C105.07 54.5348 104.779 54.5028 104.416 54.5028C103.585 54.5028 102.985 54.7124 102.616 55.1314C102.254 55.5504 102.073 56.1648 102.073 56.9744V75H99.5585ZM119.574 68.3097V58.6364H122.088V75H119.574V72.2301H119.403C119.02 73.0611 118.423 73.7678 117.613 74.3501C116.804 74.9254 115.781 75.2131 114.545 75.2131C113.522 75.2131 112.613 74.9893 111.818 74.5419C111.022 74.0874 110.397 73.4055 109.943 72.4964C109.488 71.5803 109.261 70.4261 109.261 69.0341V58.6364H111.775V68.8636C111.775 70.0568 112.109 71.0085 112.777 71.7188C113.451 72.429 114.311 72.7841 115.355 72.7841C115.98 72.7841 116.616 72.6243 117.262 72.3047C117.915 71.9851 118.462 71.495 118.902 70.8345C119.35 70.174 119.574 69.3324 119.574 68.3097ZM129.207 53.1818V75H126.693V53.1818H129.207Z"></path>
</svg>
