<svg xmlns="http://www.w3.org/2000/svg" fill="none" viewBox="0 0 139 164" height="164" width="139">
<path fill="#EE6338" d="M0 20C0 8.95431 8.95431 0 20 0H119C130.046 0 139 8.95431 139 20V144C139 155.046 130.046 164 119 164H20C8.95431 164 0 155.046 0 144V20Z"></path>
<path fill="black" d="M36.2102 135.455V150H34.5341V135.455H36.2102ZM43.854 150.227C42.8029 150.227 41.8962 149.995 41.1339 149.531C40.3763 149.062 39.7915 148.409 39.3796 147.571C38.9724 146.728 38.7688 145.748 38.7688 144.631C38.7688 143.513 38.9724 142.528 39.3796 141.676C39.7915 140.819 40.3645 140.152 41.0984 139.673C41.837 139.19 42.6987 138.949 43.6836 138.949C44.2518 138.949 44.8129 139.044 45.3668 139.233C45.9208 139.422 46.4251 139.73 46.8796 140.156C47.3342 140.578 47.6964 141.136 47.9663 141.832C48.2362 142.528 48.3711 143.385 48.3711 144.403V145.114H39.962V143.665H46.6665C46.6665 143.049 46.5434 142.5 46.2972 142.017C46.0558 141.534 45.7101 141.153 45.2603 140.874C44.8152 140.594 44.2897 140.455 43.6836 140.455C43.016 140.455 42.4383 140.62 41.9506 140.952C41.4677 141.278 41.096 141.705 40.8356 142.23C40.5752 142.756 40.445 143.319 40.445 143.92V144.886C40.445 145.71 40.587 146.409 40.8711 146.982C41.1599 147.55 41.56 147.983 42.0714 148.281C42.5827 148.575 43.177 148.722 43.854 148.722C44.2944 148.722 44.6921 148.66 45.0472 148.537C45.4071 148.409 45.7172 148.22 45.9776 147.969C46.238 147.713 46.4393 147.396 46.5813 147.017L48.2006 147.472C48.0302 148.021 47.7437 148.504 47.3413 148.92C46.9388 149.332 46.4416 149.654 45.8498 149.886C45.2579 150.114 44.5927 150.227 43.854 150.227ZM55.6651 139.091V140.511H50.0117V139.091H55.6651ZM51.6594 136.477H53.3356V146.875C53.3356 147.348 53.4042 147.704 53.5415 147.94C53.6836 148.172 53.8635 148.329 54.0813 148.409C54.3039 148.485 54.5382 148.523 54.7844 148.523C54.9691 148.523 55.1206 148.513 55.239 148.494C55.3574 148.471 55.4521 148.452 55.5231 148.438L55.864 149.943C55.7504 149.986 55.5917 150.028 55.3881 150.071C55.1845 150.118 54.9265 150.142 54.614 150.142C54.1405 150.142 53.6765 150.04 53.2219 149.837C52.7721 149.633 52.3981 149.323 52.0998 148.906C51.8062 148.49 51.6594 147.964 51.6594 147.33V136.477ZM62.9308 139.091V140.511H57.2773V139.091H62.9308ZM58.9251 136.477H60.6012V146.875C60.6012 147.348 60.6699 147.704 60.8072 147.94C60.9492 148.172 61.1291 148.329 61.3469 148.409C61.5695 148.485 61.8039 148.523 62.0501 148.523C62.2347 148.523 62.3862 148.513 62.5046 148.494C62.623 148.471 62.7177 148.452 62.7887 148.438L63.1296 149.943C63.016 149.986 62.8574 150.028 62.6538 150.071C62.4502 150.118 62.1921 150.142 61.8796 150.142C61.4061 150.142 60.9421 150.04 60.4876 149.837C60.0378 149.633 59.6637 149.323 59.3654 148.906C59.0719 148.49 58.9251 147.964 58.9251 147.33V136.477ZM69.9087 150.227C68.8576 150.227 67.9509 149.995 67.1886 149.531C66.431 149.062 65.8462 148.409 65.4343 147.571C65.0271 146.728 64.8235 145.748 64.8235 144.631C64.8235 143.513 65.0271 142.528 65.4343 141.676C65.8462 140.819 66.4192 140.152 67.1531 139.673C67.8917 139.19 68.7534 138.949 69.7383 138.949C70.3065 138.949 70.8675 139.044 71.4215 139.233C71.9755 139.422 72.4798 139.73 72.9343 140.156C73.3888 140.578 73.7511 141.136 74.021 141.832C74.2908 142.528 74.4258 143.385 74.4258 144.403V145.114H66.0167V143.665H72.7212C72.7212 143.049 72.5981 142.5 72.3519 142.017C72.1104 141.534 71.7648 141.153 71.315 140.874C70.8699 140.594 70.3443 140.455 69.7383 140.455C69.0707 140.455 68.493 140.62 68.0053 140.952C67.5224 141.278 67.1507 141.705 66.8903 142.23C66.6299 142.756 66.4996 143.319 66.4996 143.92V144.886C66.4996 145.71 66.6417 146.409 66.9258 146.982C67.2146 147.55 67.6147 147.983 68.1261 148.281C68.6374 148.575 69.2317 148.722 69.9087 148.722C70.3491 148.722 70.7468 148.66 71.1019 148.537C71.4618 148.409 71.7719 148.22 72.0323 147.969C72.2927 147.713 72.494 147.396 72.636 147.017L74.2553 147.472C74.0849 148.021 73.7984 148.504 73.396 148.92C72.9935 149.332 72.4963 149.654 71.9045 149.886C71.3126 150.114 70.6474 150.227 69.9087 150.227ZM76.9755 150V139.091H78.5948V140.739H78.7085C78.9073 140.199 79.2672 139.761 79.788 139.425C80.3088 139.089 80.896 138.92 81.5494 138.92C81.6725 138.92 81.8263 138.923 82.011 138.928C82.1957 138.932 82.3353 138.939 82.43 138.949V140.653C82.3732 140.639 82.243 140.618 82.0394 140.589C81.8406 140.556 81.6299 140.54 81.4073 140.54C80.877 140.54 80.4035 140.651 79.9869 140.874C79.5749 141.091 79.2482 141.394 79.0067 141.783C78.77 142.166 78.6516 142.604 78.6516 143.097V150H76.9755ZM90.8658 150H89.0192L94.3601 135.455H96.1783L101.519 150H99.6726L95.326 137.756H95.2124L90.8658 150ZM91.5476 144.318H98.9908V145.881H91.5476V144.318Z"></path>
<path fill="black" d="M38.5888 82.4773C36.3388 82.4773 34.3331 82.0909 32.5717 81.3182C30.8217 80.5455 29.4297 79.4716 28.3956 78.0966C27.3729 76.7102 26.8161 75.1023 26.7251 73.2727H31.0206C31.1115 74.3977 31.4979 75.3693 32.1797 76.1875C32.8615 76.9943 33.7536 77.6193 34.8558 78.0625C35.9581 78.5057 37.1797 78.7273 38.5206 78.7273C40.0206 78.7273 41.3501 78.4659 42.5092 77.9432C43.6683 77.4205 44.5774 76.6932 45.2365 75.7614C45.8956 74.8295 46.2251 73.75 46.2251 72.5227C46.2251 71.2386 45.907 70.108 45.2706 69.1307C44.6342 68.142 43.7024 67.3693 42.4751 66.8125C41.2479 66.2557 39.7479 65.9773 37.9751 65.9773H35.1797V62.2273H37.9751C39.3615 62.2273 40.5774 61.9773 41.6229 61.4773C42.6797 60.9773 43.5036 60.2727 44.0945 59.3636C44.6967 58.4545 44.9979 57.3864 44.9979 56.1591C44.9979 54.9773 44.7365 53.9489 44.2138 53.0739C43.6911 52.1989 42.9524 51.517 41.9979 51.0284C41.0547 50.5398 39.9411 50.2955 38.657 50.2955C37.4524 50.2955 36.3161 50.517 35.2479 50.9602C34.1911 51.392 33.3274 52.0227 32.657 52.8523C31.9865 53.6705 31.6229 54.6591 31.5661 55.8182H27.4751C27.5433 53.9886 28.0945 52.3864 29.1286 51.0114C30.1626 49.625 31.5149 48.5455 33.1854 47.7727C34.8672 47 36.7138 46.6136 38.7251 46.6136C40.8842 46.6136 42.7365 47.0511 44.282 47.9261C45.8274 48.7898 47.0149 49.9318 47.8445 51.3523C48.674 52.7727 49.0888 54.3068 49.0888 55.9545C49.0888 57.9205 48.5717 59.5966 47.5376 60.983C46.5149 62.3693 45.1229 63.3295 43.3615 63.8636V64.1364C45.5661 64.5 47.2876 65.4375 48.5263 66.9489C49.7649 68.4489 50.3842 70.3068 50.3842 72.5227C50.3842 74.4205 49.8672 76.125 48.8331 77.6364C47.8104 79.1364 46.4126 80.3182 44.6399 81.1818C42.8672 82.0455 40.8501 82.4773 38.5888 82.4773ZM59.2777 82.2727C58.4368 82.2727 57.7152 81.9716 57.1129 81.3693C56.5107 80.767 56.2095 80.0455 56.2095 79.2045C56.2095 78.3636 56.5107 77.642 57.1129 77.0398C57.7152 76.4375 58.4368 76.1364 59.2777 76.1364C60.1186 76.1364 60.8402 76.4375 61.4425 77.0398C62.0447 77.642 62.3459 78.3636 62.3459 79.2045C62.3459 79.7614 62.2038 80.2727 61.9197 80.7386C61.647 81.2045 61.2777 81.5795 60.8118 81.8636C60.3572 82.1364 59.8459 82.2727 59.2777 82.2727ZM77.5973 47.0909V82H73.37V51.5227H73.1655L64.6428 57.1818V52.8864L73.37 47.0909H77.5973ZM86.8189 74.8409V71.3636L102.16 47.0909H104.683V52.4773H102.978L91.3871 70.8182V71.0909H112.046V74.8409H86.8189ZM103.251 82V73.7841V72.1648V47.0909H107.273V82H103.251Z"></path>
</svg>
