<svg xmlns="http://www.w3.org/2000/svg" fill="none" viewBox="0 0 139 164" height="164" width="139">
<path fill="#43D059" d="M0 20C0 8.95431 8.95431 0 20 0H119C130.046 0 139 8.95431 139 20V144C139 155.046 130.046 164 119 164H20C8.95431 164 0 155.046 0 144V20Z"></path>
<path fill="black" d="M36.2102 135.455V150H34.5341V135.455H36.2102ZM43.854 150.227C42.8029 150.227 41.8962 149.995 41.1339 149.531C40.3763 149.062 39.7915 148.409 39.3796 147.571C38.9724 146.728 38.7688 145.748 38.7688 144.631C38.7688 143.513 38.9724 142.528 39.3796 141.676C39.7915 140.819 40.3645 140.152 41.0984 139.673C41.837 139.19 42.6987 138.949 43.6836 138.949C44.2518 138.949 44.8129 139.044 45.3668 139.233C45.9208 139.422 46.4251 139.73 46.8796 140.156C47.3342 140.578 47.6964 141.136 47.9663 141.832C48.2362 142.528 48.3711 143.385 48.3711 144.403V145.114H39.962V143.665H46.6665C46.6665 143.049 46.5434 142.5 46.2972 142.017C46.0558 141.534 45.7101 141.153 45.2603 140.874C44.8152 140.594 44.2897 140.455 43.6836 140.455C43.016 140.455 42.4383 140.62 41.9506 140.952C41.4677 141.278 41.096 141.705 40.8356 142.23C40.5752 142.756 40.445 143.319 40.445 143.92V144.886C40.445 145.71 40.587 146.409 40.8711 146.982C41.1599 147.55 41.56 147.983 42.0714 148.281C42.5827 148.575 43.177 148.722 43.854 148.722C44.2944 148.722 44.6921 148.66 45.0472 148.537C45.4071 148.409 45.7172 148.22 45.9776 147.969C46.238 147.713 46.4393 147.396 46.5813 147.017L48.2006 147.472C48.0302 148.021 47.7437 148.504 47.3413 148.92C46.9388 149.332 46.4416 149.654 45.8498 149.886C45.2579 150.114 44.5927 150.227 43.854 150.227ZM55.6651 139.091V140.511H50.0117V139.091H55.6651ZM51.6594 136.477H53.3356V146.875C53.3356 147.348 53.4042 147.704 53.5415 147.94C53.6836 148.172 53.8635 148.329 54.0813 148.409C54.3039 148.485 54.5382 148.523 54.7844 148.523C54.9691 148.523 55.1206 148.513 55.239 148.494C55.3574 148.471 55.4521 148.452 55.5231 148.438L55.864 149.943C55.7504 149.986 55.5917 150.028 55.3881 150.071C55.1845 150.118 54.9265 150.142 54.614 150.142C54.1405 150.142 53.6765 150.04 53.2219 149.837C52.7721 149.633 52.3981 149.323 52.0998 148.906C51.8062 148.49 51.6594 147.964 51.6594 147.33V136.477ZM62.9308 139.091V140.511H57.2773V139.091H62.9308ZM58.9251 136.477H60.6012V146.875C60.6012 147.348 60.6699 147.704 60.8072 147.94C60.9492 148.172 61.1291 148.329 61.3469 148.409C61.5695 148.485 61.8039 148.523 62.0501 148.523C62.2347 148.523 62.3862 148.513 62.5046 148.494C62.623 148.471 62.7177 148.452 62.7887 148.438L63.1296 149.943C63.016 149.986 62.8574 150.028 62.6538 150.071C62.4502 150.118 62.1921 150.142 61.8796 150.142C61.4061 150.142 60.9421 150.04 60.4876 149.837C60.0378 149.633 59.6637 149.323 59.3654 148.906C59.0719 148.49 58.9251 147.964 58.9251 147.33V136.477ZM69.9087 150.227C68.8576 150.227 67.9509 149.995 67.1886 149.531C66.431 149.062 65.8462 148.409 65.4343 147.571C65.0271 146.728 64.8235 145.748 64.8235 144.631C64.8235 143.513 65.0271 142.528 65.4343 141.676C65.8462 140.819 66.4192 140.152 67.1531 139.673C67.8917 139.19 68.7534 138.949 69.7383 138.949C70.3065 138.949 70.8675 139.044 71.4215 139.233C71.9755 139.422 72.4798 139.73 72.9343 140.156C73.3888 140.578 73.7511 141.136 74.021 141.832C74.2908 142.528 74.4258 143.385 74.4258 144.403V145.114H66.0167V143.665H72.7212C72.7212 143.049 72.5981 142.5 72.3519 142.017C72.1104 141.534 71.7648 141.153 71.315 140.874C70.8699 140.594 70.3443 140.455 69.7383 140.455C69.0707 140.455 68.493 140.62 68.0053 140.952C67.5224 141.278 67.1507 141.705 66.8903 142.23C66.6299 142.756 66.4996 143.319 66.4996 143.92V144.886C66.4996 145.71 66.6417 146.409 66.9258 146.982C67.2146 147.55 67.6147 147.983 68.1261 148.281C68.6374 148.575 69.2317 148.722 69.9087 148.722C70.3491 148.722 70.7468 148.66 71.1019 148.537C71.4618 148.409 71.7719 148.22 72.0323 147.969C72.2927 147.713 72.494 147.396 72.636 147.017L74.2553 147.472C74.0849 148.021 73.7984 148.504 73.396 148.92C72.9935 149.332 72.4963 149.654 71.9045 149.886C71.3126 150.114 70.6474 150.227 69.9087 150.227ZM76.9755 150V139.091H78.5948V140.739H78.7085C78.9073 140.199 79.2672 139.761 79.788 139.425C80.3088 139.089 80.896 138.92 81.5494 138.92C81.6725 138.92 81.8263 138.923 82.011 138.928C82.1957 138.932 82.3353 138.939 82.43 138.949V140.653C82.3732 140.639 82.243 140.618 82.0394 140.589C81.8406 140.556 81.6299 140.54 81.4073 140.54C80.877 140.54 80.4035 140.651 79.9869 140.874C79.5749 141.091 79.2482 141.394 79.0067 141.783C78.77 142.166 78.6516 142.604 78.6516 143.097V150H76.9755ZM101.974 140H100.212C100.108 139.493 99.9259 139.048 99.6655 138.665C99.4098 138.281 99.0973 137.959 98.728 137.699C98.3634 137.434 97.9586 137.235 97.5135 137.102C97.0684 136.97 96.6044 136.903 96.1214 136.903C95.2408 136.903 94.4429 137.126 93.728 137.571C93.0178 138.016 92.4519 138.672 92.0305 139.538C91.6139 140.405 91.4055 141.468 91.4055 142.727C91.4055 143.987 91.6139 145.05 92.0305 145.916C92.4519 146.783 93.0178 147.438 93.728 147.884C94.4429 148.329 95.2408 148.551 96.1214 148.551C96.6044 148.551 97.0684 148.485 97.5135 148.352C97.9586 148.22 98.3634 148.023 98.728 147.763C99.0973 147.498 99.4098 147.173 99.6655 146.79C99.9259 146.402 100.108 145.956 100.212 145.455H101.974C101.841 146.198 101.6 146.863 101.249 147.45C100.899 148.037 100.463 148.537 99.9425 148.949C99.4216 149.356 98.8369 149.666 98.1882 149.879C97.5443 150.092 96.8554 150.199 96.1214 150.199C94.8809 150.199 93.7777 149.896 92.8118 149.29C91.8459 148.684 91.0859 147.822 90.532 146.705C89.978 145.587 89.701 144.261 89.701 142.727C89.701 141.193 89.978 139.867 90.532 138.75C91.0859 137.633 91.8459 136.771 92.8118 136.165C93.7777 135.559 94.8809 135.256 96.1214 135.256C96.8554 135.256 97.5443 135.362 98.1882 135.575C98.8369 135.788 99.4216 136.101 99.9425 136.513C100.463 136.92 100.899 137.417 101.249 138.004C101.6 138.587 101.841 139.252 101.974 140Z"></path>
<path fill="black" d="M16.0114 72V57.4545H24.7898V59.017H17.7727V63.9318H24.3352V65.4943H17.7727V70.4375H24.9034V72H16.0114ZM36.6577 61.0909L32.6236 72H30.919L26.8849 61.0909H28.7031L31.7145 69.7841H31.8281L34.8395 61.0909H36.6577ZM41.7482 72.2557C41.0569 72.2557 40.4296 72.1255 39.8661 71.8651C39.3027 71.5999 38.8552 71.2188 38.5238 70.7216C38.1924 70.2197 38.0266 69.6136 38.0266 68.9034C38.0266 68.2784 38.1497 67.7718 38.396 67.3835C38.6422 66.9905 38.9712 66.6828 39.3832 66.4602C39.7951 66.2377 40.2496 66.072 40.7468 65.9631C41.2487 65.8494 41.753 65.7595 42.2596 65.6932C42.9225 65.608 43.4599 65.544 43.8718 65.5014C44.2885 65.4541 44.5915 65.3759 44.7809 65.267C44.975 65.1581 45.0721 64.9687 45.0721 64.6989V64.642C45.0721 63.9413 44.8803 63.3968 44.4968 63.0085C44.118 62.6203 43.5427 62.4261 42.771 62.4261C41.9708 62.4261 41.3434 62.6013 40.8888 62.9517C40.4343 63.3021 40.1147 63.6761 39.93 64.0739L38.3391 63.5057C38.6232 62.8428 39.002 62.3267 39.4755 61.9574C39.9537 61.5833 40.4746 61.3229 41.038 61.1761C41.6062 61.0246 42.1649 60.9489 42.7141 60.9489C43.0645 60.9489 43.467 60.9915 43.9215 61.0767C44.3808 61.1572 44.8235 61.3253 45.2496 61.581C45.6805 61.8366 46.038 62.2225 46.3221 62.7386C46.6062 63.2547 46.7482 63.946 46.7482 64.8125V72H45.0721V70.5227H44.9869C44.8732 70.7595 44.6838 71.0128 44.4187 71.2827C44.1535 71.5526 43.8008 71.7822 43.3604 71.9716C42.9201 72.161 42.3827 72.2557 41.7482 72.2557ZM42.0039 70.75C42.6668 70.75 43.2255 70.6198 43.68 70.3594C44.1393 70.099 44.485 69.7628 44.717 69.3509C44.9537 68.9389 45.0721 68.5057 45.0721 68.0511V66.517C45.0011 66.6023 44.8448 66.6804 44.6033 66.7514C44.3666 66.8177 44.092 66.8769 43.7795 66.929C43.4717 66.9763 43.171 67.0189 42.8775 67.0568C42.5887 67.09 42.3543 67.1184 42.1744 67.142C41.7388 67.1989 41.3316 67.2912 40.9528 67.419C40.5787 67.5421 40.2757 67.7292 40.0437 67.9801C39.8164 68.2263 39.7028 68.5625 39.7028 68.9886C39.7028 69.571 39.9182 70.0114 40.3491 70.3097C40.7847 70.6032 41.3363 70.75 42.0039 70.75ZM49.8075 76.0909V61.0909H51.4268V62.8239H51.6257C51.7488 62.6345 51.9193 62.393 52.1371 62.0994C52.3596 61.8011 52.6768 61.536 53.0888 61.304C53.5054 61.0672 54.0689 60.9489 54.7791 60.9489C55.6977 60.9489 56.5073 61.1785 57.2081 61.6378C57.9089 62.0971 58.4557 62.7481 58.8487 63.5909C59.2417 64.4337 59.4382 65.428 59.4382 66.5739C59.4382 67.7292 59.2417 68.7306 58.8487 69.5781C58.4557 70.4209 57.9112 71.0743 57.2152 71.5384C56.5192 71.9976 55.7166 72.2273 54.8075 72.2273C54.1068 72.2273 53.5457 72.1113 53.1243 71.8793C52.7029 71.6425 52.3786 71.375 52.1513 71.0767C51.924 70.7737 51.7488 70.5227 51.6257 70.3239H51.4837V76.0909H49.8075ZM51.4553 66.5455C51.4553 67.3693 51.576 68.0961 51.8175 68.7259C52.0589 69.3509 52.4117 69.8409 52.8757 70.196C53.3397 70.5464 53.9079 70.7216 54.5803 70.7216C55.281 70.7216 55.8658 70.5369 56.3345 70.1676C56.808 69.7936 57.1631 69.2917 57.3999 68.6619C57.6413 68.0275 57.7621 67.322 57.7621 66.5455C57.7621 65.7784 57.6437 65.0871 57.407 64.4716C57.175 63.8513 56.8222 63.3613 56.3487 63.0014C55.88 62.6368 55.2905 62.4545 54.5803 62.4545C53.8984 62.4545 53.3255 62.6274 52.8615 62.973C52.3975 63.3139 52.0471 63.7921 51.8104 64.4077C51.5736 65.0185 51.4553 65.7311 51.4553 66.5455ZM66.4268 72.2273C65.442 72.2273 64.5779 71.9929 63.8345 71.5241C63.0959 71.0554 62.5182 70.3996 62.1016 69.5568C61.6896 68.714 61.4837 67.7292 61.4837 66.6023C61.4837 65.4659 61.6896 64.474 62.1016 63.6264C62.5182 62.7789 63.0959 62.1207 63.8345 61.652C64.5779 61.1832 65.442 60.9489 66.4268 60.9489C67.4117 60.9489 68.2734 61.1832 69.0121 61.652C69.7554 62.1207 70.3331 62.7789 70.745 63.6264C71.1617 64.474 71.37 65.4659 71.37 66.6023C71.37 67.7292 71.1617 68.714 70.745 69.5568C70.3331 70.3996 69.7554 71.0554 69.0121 71.5241C68.2734 71.9929 67.4117 72.2273 66.4268 72.2273ZM66.4268 70.7216C67.175 70.7216 67.7905 70.5298 68.2734 70.1463C68.7564 69.7628 69.1139 69.2585 69.3459 68.6335C69.5779 68.0085 69.6939 67.3314 69.6939 66.6023C69.6939 65.8731 69.5779 65.1937 69.3459 64.5639C69.1139 63.9342 68.7564 63.4252 68.2734 63.0369C67.7905 62.6487 67.175 62.4545 66.4268 62.4545C65.6787 62.4545 65.0632 62.6487 64.5803 63.0369C64.0973 63.4252 63.7398 63.9342 63.5078 64.5639C63.2758 65.1937 63.1598 65.8731 63.1598 66.6023C63.1598 67.3314 63.2758 68.0085 63.5078 68.6335C63.7398 69.2585 64.0973 69.7628 64.5803 70.1463C65.0632 70.5298 65.6787 70.7216 66.4268 70.7216ZM73.9286 72V61.0909H75.5479V62.7386H75.6616C75.8604 62.1989 76.2203 61.7609 76.7411 61.4247C77.262 61.0885 77.8491 60.9205 78.5025 60.9205C78.6256 60.9205 78.7795 60.9228 78.9641 60.9276C79.1488 60.9323 79.2885 60.9394 79.3832 60.9489V62.6534C79.3263 62.6392 79.1961 62.6179 78.9925 62.5895C78.7937 62.5563 78.583 62.5398 78.3604 62.5398C77.8301 62.5398 77.3567 62.651 76.94 62.8736C76.5281 63.0914 76.2013 63.3944 75.9599 63.7827C75.7231 64.1662 75.6048 64.6042 75.6048 65.0966V72H73.9286ZM84.5803 72.2557C83.889 72.2557 83.2616 72.1255 82.6982 71.8651C82.1347 71.5999 81.6873 71.2188 81.3558 70.7216C81.0244 70.2197 80.8587 69.6136 80.8587 68.9034C80.8587 68.2784 80.9818 67.7718 81.228 67.3835C81.4742 66.9905 81.8033 66.6828 82.2152 66.4602C82.6271 66.2377 83.0817 66.072 83.5788 65.9631C84.0807 65.8494 84.585 65.7595 85.0916 65.6932C85.7545 65.608 86.2919 65.544 86.7038 65.5014C87.1205 65.4541 87.4235 65.3759 87.6129 65.267C87.8071 65.1581 87.9041 64.9687 87.9041 64.6989V64.642C87.9041 63.9413 87.7124 63.3968 87.3288 63.0085C86.95 62.6203 86.3748 62.4261 85.603 62.4261C84.8028 62.4261 84.1754 62.6013 83.7209 62.9517C83.2663 63.3021 82.9467 63.6761 82.7621 64.0739L81.1712 63.5057C81.4553 62.8428 81.834 62.3267 82.3075 61.9574C82.7857 61.5833 83.3066 61.3229 83.87 61.1761C84.4382 61.0246 84.9969 60.9489 85.5462 60.9489C85.8965 60.9489 86.299 60.9915 86.7536 61.0767C87.2128 61.1572 87.6555 61.3253 88.0817 61.581C88.5125 61.8366 88.87 62.2225 89.1541 62.7386C89.4382 63.2547 89.5803 63.946 89.5803 64.8125V72H87.9041V70.5227H87.8189C87.7053 70.7595 87.5159 71.0128 87.2507 71.2827C86.9856 71.5526 86.6328 71.7822 86.1925 71.9716C85.7521 72.161 85.2147 72.2557 84.5803 72.2557ZM84.8359 70.75C85.4988 70.75 86.0575 70.6198 86.5121 70.3594C86.9714 70.099 87.317 69.7628 87.549 69.3509C87.7857 68.9389 87.9041 68.5057 87.9041 68.0511V66.517C87.8331 66.6023 87.6768 66.6804 87.4354 66.7514C87.1986 66.8177 86.924 66.8769 86.6115 66.929C86.3037 66.9763 86.0031 67.0189 85.7095 67.0568C85.4207 67.09 85.1863 67.1184 85.0064 67.142C84.5708 67.1989 84.1636 67.2912 83.7848 67.419C83.4107 67.5421 83.1077 67.7292 82.8757 67.9801C82.6484 68.2263 82.5348 68.5625 82.5348 68.9886C82.5348 69.571 82.7502 70.0114 83.1811 70.3097C83.6167 70.6032 84.1683 70.75 84.8359 70.75ZM97.3839 61.0909V62.5114H91.7305V61.0909H97.3839ZM93.3782 58.4773H95.0543V68.875C95.0543 69.3485 95.123 69.7036 95.2603 69.9403C95.4023 70.1723 95.5823 70.3286 95.8001 70.4091C96.0226 70.4848 96.257 70.5227 96.5032 70.5227C96.6879 70.5227 96.8394 70.5133 96.9577 70.4943C97.0761 70.4706 97.1708 70.4517 97.2418 70.4375L97.5827 71.9432C97.4691 71.9858 97.3105 72.0284 97.1069 72.071C96.9033 72.1184 96.6452 72.142 96.3327 72.142C95.8593 72.142 95.3952 72.0402 94.9407 71.8366C94.4909 71.633 94.1168 71.3229 93.8185 70.9062C93.525 70.4896 93.3782 69.964 93.3782 69.3295V58.4773ZM99.9052 72V61.0909H101.581V72H99.9052ZM100.757 59.2727C100.431 59.2727 100.149 59.1615 99.9123 58.9389C99.6803 58.7164 99.5643 58.4489 99.5643 58.1364C99.5643 57.8239 99.6803 57.5563 99.9123 57.3338C100.149 57.1113 100.431 57 100.757 57C101.084 57 101.364 57.1113 101.596 57.3338C101.832 57.5563 101.951 57.8239 101.951 58.1364C101.951 58.4489 101.832 58.7164 101.596 58.9389C101.364 59.1615 101.084 59.2727 100.757 59.2727ZM109.083 72.2273C108.098 72.2273 107.234 71.9929 106.491 71.5241C105.752 71.0554 105.174 70.3996 104.758 69.5568C104.346 68.714 104.14 67.7292 104.14 66.6023C104.14 65.4659 104.346 64.474 104.758 63.6264C105.174 62.7789 105.752 62.1207 106.491 61.652C107.234 61.1832 108.098 60.9489 109.083 60.9489C110.068 60.9489 110.93 61.1832 111.668 61.652C112.412 62.1207 112.989 62.7789 113.401 63.6264C113.818 64.474 114.026 65.4659 114.026 66.6023C114.026 67.7292 113.818 68.714 113.401 69.5568C112.989 70.3996 112.412 71.0554 111.668 71.5241C110.93 71.9929 110.068 72.2273 109.083 72.2273ZM109.083 70.7216C109.831 70.7216 110.447 70.5298 110.93 70.1463C111.413 69.7628 111.77 69.2585 112.002 68.6335C112.234 68.0085 112.35 67.3314 112.35 66.6023C112.35 65.8731 112.234 65.1937 112.002 64.5639C111.77 63.9342 111.413 63.4252 110.93 63.0369C110.447 62.6487 109.831 62.4545 109.083 62.4545C108.335 62.4545 107.719 62.6487 107.237 63.0369C106.754 63.4252 106.396 63.9342 106.164 64.5639C105.932 65.1937 105.816 65.8731 105.816 66.6023C105.816 67.3314 105.932 68.0085 106.164 68.6335C106.396 69.2585 106.754 69.7628 107.237 70.1463C107.719 70.5298 108.335 70.7216 109.083 70.7216ZM118.261 65.4375V72H116.585V61.0909H118.204V62.7955H118.346C118.602 62.2415 118.99 61.7964 119.511 61.4602C120.032 61.1193 120.704 60.9489 121.528 60.9489C122.267 60.9489 122.913 61.1004 123.467 61.4034C124.021 61.7017 124.452 62.1562 124.76 62.767C125.067 63.3731 125.221 64.1402 125.221 65.0682V72H123.545V65.1818C123.545 64.3248 123.323 63.6572 122.877 63.179C122.432 62.696 121.822 62.4545 121.045 62.4545C120.51 62.4545 120.032 62.5705 119.61 62.8026C119.194 63.0346 118.865 63.3731 118.623 63.8182C118.382 64.2633 118.261 64.803 118.261 65.4375Z"></path>
</svg>
