<svg version="1.1" xmlns="http://www.w3.org/2000/svg" xmlns:xlink="http://www.w3.org/1999/xlink" width="235.00223" height="15.99106" viewBox="0,0,235.00223,15.99106"><g transform="translate(-122.49888,-172.00447)"><g data-paper-data="{&quot;isPaintingLayer&quot;:true}" fill="#ffffff" fill-rule="nonzero" stroke="none" stroke-width="1" stroke-linecap="butt" stroke-linejoin="miter" stroke-miterlimit="10" stroke-dasharray="" stroke-dashoffset="0" style="mix-blend-mode: normal"><path d="M125.79116,184.60918l-3.29227,-12.04033h1.48152l2.51623,9.80627h0.11758l2.5633,-9.80627h1.64613l2.56326,9.80627h0.11758l2.51626,-9.80627h1.48151l-3.29226,12.04033h-1.50506l-2.65732,-9.59463h-0.09406l-2.65736,9.59463zM140.5182,179.17693v5.43226h-1.38745v-12.04033h1.38745v4.42106h0.11762c0.21163,-0.46641 0.52908,-0.83677 0.95239,-1.11115c0.42723,-0.27827 0.99553,-0.4174 1.70493,-0.4174c0.61534,0 1.15426,0.12344 1.61674,0.37036c0.46249,0.24302 0.82112,0.61731 1.07586,1.12291c0.25868,0.5017 0.38802,1.14053 0.38802,1.91657v5.73798h-1.38745v-5.64389c0,-0.71727 -0.18618,-1.27184 -0.5585,-1.66379c-0.36843,-0.39585 -0.87992,-0.59379 -1.53445,-0.59379c-0.45465,0 -0.86226,0.09602 -1.22282,0.28807c-0.35667,0.19208 -0.63887,0.47231 -0.84661,0.84071c-0.2038,0.36843 -0.30572,0.81525 -0.30572,1.34044zM151.56938,184.82082c-0.57223,0 -1.09152,-0.10778 -1.55794,-0.32335c-0.46641,-0.21946 -0.83677,-0.53498 -1.11115,-0.94652c-0.27437,-0.41544 -0.41154,-0.91714 -0.41154,-1.50503c0,-0.51736 0.10192,-0.93672 0.30572,-1.25811c0.2038,-0.32531 0.47621,-0.5801 0.81718,-0.76431c0.34097,-0.18418 0.71723,-0.32138 1.12877,-0.4115c0.41547,-0.09409 0.83288,-0.16856 1.25225,-0.22343c0.54871,-0.07053 0.99357,-0.12344 1.33454,-0.15873c0.34491,-0.03918 0.59575,-0.10385 0.75251,-0.19401c0.16073,-0.09016 0.24105,-0.24692 0.24105,-0.47031v-0.04705c0,-0.58006 -0.15873,-1.03078 -0.47621,-1.35217c-0.31355,-0.32142 -0.78973,-0.48211 -1.4286,-0.48211c-0.66239,0 -1.18171,0.14504 -1.55797,0.43507c-0.37626,0.29003 -0.6408,0.59965 -0.79366,0.9289l-1.31692,-0.47034c0.23516,-0.54871 0.54871,-0.97591 0.94066,-1.28164c0.39585,-0.30962 0.82698,-0.52519 1.29339,-0.6467c0.47031,-0.12541 0.9328,-0.18811 1.38745,-0.18811c0.29003,0 0.62317,0.03525 0.99943,0.10582c0.38019,0.06664 0.74665,0.20577 1.09939,0.4174c0.35667,0.21167 0.65259,0.53109 0.88775,0.95829c0.23516,0.42723 0.35274,0.99947 0.35274,1.71669v5.94961h-1.38745v-1.22286h-0.07053c-0.09409,0.19598 -0.25085,0.40568 -0.47035,0.62907c-0.21946,0.2234 -0.51146,0.41351 -0.87595,0.57027c-0.36453,0.15679 -0.80935,0.23516 -1.33457,0.23516zM151.78104,183.57447c0.54871,0 1.01119,-0.10778 1.38745,-0.32335c0.38019,-0.21556 0.66629,-0.49384 0.85833,-0.83485c0.19598,-0.34097 0.29396,-0.6996 0.29396,-1.07586v-1.26987c-0.05877,0.07057 -0.18811,0.13524 -0.38802,0.19401c-0.19598,0.05487 -0.4233,0.10385 -0.68198,0.14696c-0.25475,0.03922 -0.50363,0.0745 -0.74662,0.10585c-0.23909,0.02742 -0.4331,0.05094 -0.58203,0.07053c-0.3606,0.04704 -0.69768,0.12348 -1.01123,0.22929c-0.30962,0.10189 -0.56047,0.25671 -0.75251,0.46445c-0.18811,0.2038 -0.2822,0.48207 -0.2822,0.83481c0,0.48211 0.17835,0.84661 0.53502,1.09352c0.36056,0.24299 0.81718,0.3645 1.36982,0.3645zM162.1679,175.57895v1.17582h-4.67967v-1.17582zM158.85198,173.41544h1.38755v8.60695c0,0.39195 0.05691,0.68588 0.17038,0.88185c0.11761,0.19204 0.26661,0.32138 0.447,0.38802c0.18418,0.06271 0.37802,0.09405 0.58185,0.09405c0.15279,0 0.27834,-0.00783 0.37629,-0.02349c0.09795,-0.01962 0.1766,-0.03529 0.23523,-0.04705l0.28213,1.24635c-0.09416,0.03528 -0.22522,0.07057 -0.39388,0.10585c-0.16831,0.03918 -0.38216,0.05877 -0.64083,0.05877c-0.39181,0 -0.77604,-0.08426 -1.15233,-0.25278c-0.37215,-0.16856 -0.68188,-0.42527 -0.92883,-0.77017c-0.24281,-0.34491 -0.36456,-0.77997 -0.36456,-1.30515zM168.91114,184.60918v-9.03024h1.38755v9.03024zM169.61681,174.0739c-0.27075,0 -0.50391,-0.0921 -0.69981,-0.27632c-0.19211,-0.18421 -0.28799,-0.40566 -0.28799,-0.66433c0,-0.25868 0.09588,-0.48012 0.28799,-0.66433c0.1959,-0.18421 0.42906,-0.27632 0.69981,-0.27632c0.27041,0 0.50149,0.0921 0.6936,0.27632c0.1959,0.18421 0.29386,0.40566 0.29386,0.66433c0,0.25868 -0.09796,0.48012 -0.29386,0.66433c-0.19211,0.18421 -0.4232,0.27632 -0.6936,0.27632zM179.23621,177.60133l-1.24614,0.35273c-0.07864,-0.2077 -0.19418,-0.40958 -0.34697,-0.60552c-0.149,-0.19991 -0.35284,-0.36453 -0.61151,-0.49387c-0.25868,-0.12934 -0.58979,-0.19401 -0.99367,-0.19401c-0.55254,0 -1.01299,0.12741 -1.38135,0.38216c-0.36457,0.25085 -0.54667,0.57027 -0.54667,0.95828c0,0.34491 0.1252,0.61731 0.37595,0.81718c0.25109,0.19991 0.6429,0.36646 1.17612,0.49973l1.3403,0.32921c0.80742,0.19598 1.40894,0.4958 1.80489,0.89952c0.39595,0.39978 0.59358,0.91517 0.59358,1.54617c0,0.51736 -0.14865,0.97987 -0.44665,1.38748c-0.29386,0.40761 -0.70533,0.72899 -1.23476,0.96415c-0.52908,0.23516 -1.1444,0.35277 -1.84593,0.35277c-0.9209,0 -1.68348,-0.19991 -2.28706,-0.59969c-0.60358,-0.39978 -0.9854,-0.98377 -1.14612,-1.75195l1.31685,-0.32925c0.1252,0.48601 0.3625,0.8505 0.7112,1.09352c0.35284,0.24299 0.81328,0.3645 1.38169,0.3645c0.6467,0 1.16026,-0.13717 1.54035,-0.41154c0.38422,-0.27827 0.57599,-0.61141 0.57599,-0.99943c0,-0.31355 -0.10968,-0.57616 -0.32904,-0.7878c-0.21971,-0.21556 -0.55668,-0.37626 -1.01126,-0.48207l-1.50517,-0.35277c-0.82674,-0.19594 -1.43446,-0.4997 -1.82248,-0.91124c-0.38388,-0.41544 -0.57599,-0.93476 -0.57599,-1.55794c0,-0.50953 0.14314,-0.96025 0.42906,-1.3522c0.29007,-0.39195 0.68394,-0.69961 1.18164,-0.923c0.50184,-0.22343 1.07024,-0.33511 1.70487,-0.33511c0.89365,0 1.59519,0.19597 2.10496,0.58789c0.51322,0.39195 0.87778,0.90931 1.09335,1.55207zM190.07279,175.57895v1.17582h-4.67967v-1.17582zM186.75722,173.41544h1.38721v8.60695c0,0.39195 0.05691,0.68588 0.17073,0.88185c0.11761,0.19204 0.26627,0.32138 0.44665,0.38802c0.18418,0.06271 0.37836,0.09405 0.5822,0.09405c0.15279,0 0.27799,-0.00783 0.37595,-0.02349c0.0983,-0.01962 0.17659,-0.03529 0.23522,-0.04705l0.28213,1.24635c-0.09381,0.03528 -0.22522,0.07057 -0.39388,0.10585c-0.16831,0.03918 -0.38216,0.05877 -0.64083,0.05877c-0.39181,0 -0.77604,-0.08426 -1.15198,-0.25278c-0.3725,-0.16856 -0.68222,-0.42527 -0.92917,-0.77017c-0.24281,-0.34491 -0.36422,-0.77997 -0.36422,-1.30515zM193.74155,179.17693v5.43226h-1.38756v-12.04033h1.38756v4.42106h0.11727c0.21177,-0.46641 0.52943,-0.83677 0.95263,-1.11115c0.42699,-0.27827 0.9954,-0.4174 1.70487,-0.4174c0.61531,0 1.1544,0.12344 1.61657,0.37036c0.46252,0.24302 0.82122,0.61731 1.0761,1.12291c0.25868,0.5017 0.38802,1.14053 0.38802,1.91657v5.73798h-1.38755v-5.64389c0,-0.71727 -0.18625,-1.27184 -0.5584,-1.66379c-0.36836,-0.39585 -0.87985,-0.59379 -1.53448,-0.59379c-0.45459,0 -0.86226,0.09602 -1.22303,0.28807c-0.35663,0.19208 -0.63877,0.47231 -0.8464,0.84071c-0.20384,0.36843 -0.30559,0.81525 -0.30559,1.34044zM205.92118,184.79733c-0.86985,0 -1.62036,-0.19208 -2.25154,-0.57616c-0.62704,-0.38802 -1.11128,-0.9289 -1.45205,-1.62261c-0.33697,-0.69767 -0.50563,-1.50896 -0.50563,-2.43396c0,-0.92497 0.16866,-1.74018 0.50563,-2.44569c0.34077,-0.7094 0.81501,-1.26204 1.42273,-1.65789c0.61152,-0.39978 1.32478,-0.59965 2.13979,-0.59965c0.47045,0 0.93504,0.07836 1.39342,0.23516c0.45872,0.15676 0.87606,0.41154 1.25235,0.76427c0.37629,0.34884 0.67601,0.81132 0.89951,1.38745c0.2235,0.57616 0.3349,1.28556 0.3349,2.12824v0.58789h-6.96053v-1.1993h5.54952c0,-0.50953 -0.10175,-0.96418 -0.30559,-1.36396c-0.1997,-0.39978 -0.48597,-0.7153 -0.85847,-0.94652c-0.36836,-0.23126 -0.80328,-0.34687 -1.30512,-0.34687c-0.55254,0 -1.03057,0.13717 -1.43446,0.41154c-0.39974,0.27044 -0.7074,0.62317 -0.92297,1.05824c-0.21556,0.43503 -0.32318,0.90144 -0.32318,1.39921v0.79956c0,0.68195 0.11761,1.26008 0.35249,1.73432c0.23937,0.47031 0.57048,0.82895 0.99367,1.07586c0.4232,0.24299 0.91503,0.36449 1.4755,0.36449c0.36457,0 0.69395,-0.05094 0.98781,-0.15286c0.298,-0.10582 0.55461,-0.26258 0.77017,-0.47031c0.21556,-0.21163 0.38216,-0.47425 0.49977,-0.7878l1.3403,0.37625c-0.14107,0.45465 -0.37802,0.85443 -0.7112,1.19934c-0.33318,0.34097 -0.74465,0.60752 -1.23476,0.79956c-0.48976,0.18811 -1.04057,0.2822 -1.65209,0.2822zM222.8236,177.60133l-1.24614,0.35273c-0.07864,-0.2077 -0.19418,-0.40958 -0.34698,-0.60552c-0.149,-0.19991 -0.35284,-0.36453 -0.61151,-0.49387c-0.25868,-0.12934 -0.58979,-0.19401 -0.99367,-0.19401c-0.55254,0 -1.01298,0.12741 -1.38134,0.38216c-0.36457,0.25085 -0.54668,0.57027 -0.54668,0.95828c0,0.34491 0.1252,0.61731 0.37595,0.81718c0.25109,0.19991 0.6429,0.36646 1.17612,0.49973l1.3403,0.32921c0.80742,0.19598 1.40894,0.4958 1.80489,0.89952c0.39595,0.39978 0.59358,0.91517 0.59358,1.54617c0,0.51736 -0.14866,0.97987 -0.44665,1.38748c-0.29386,0.40761 -0.70533,0.72899 -1.23476,0.96415c-0.52908,0.23516 -1.1444,0.35277 -1.84594,0.35277c-0.9209,0 -1.68348,-0.19991 -2.28706,-0.59969c-0.60358,-0.39978 -0.9854,-0.98377 -1.14612,-1.75195l1.31685,-0.32925c0.1252,0.48601 0.36249,0.8505 0.71119,1.09352c0.35284,0.24299 0.81328,0.3645 1.38169,0.3645c0.6467,0 1.16026,-0.13717 1.54035,-0.41154c0.38422,-0.27827 0.57599,-0.61141 0.57599,-0.99943c0,-0.31355 -0.10968,-0.57616 -0.32904,-0.7878c-0.21971,-0.21556 -0.55668,-0.37626 -1.01126,-0.48207l-1.50516,-0.35277c-0.82674,-0.19594 -1.43446,-0.4997 -1.82248,-0.91124c-0.38388,-0.41544 -0.57599,-0.93476 -0.57599,-1.55794c0,-0.50953 0.14313,-0.96025 0.42906,-1.3522c0.29007,-0.39195 0.68394,-0.69961 1.18164,-0.923c0.50184,-0.22343 1.07024,-0.33511 1.70487,-0.33511c0.89365,0 1.59519,0.19597 2.10496,0.58789c0.51322,0.39195 0.87779,0.90931 1.09335,1.55207zM231.23791,187.99553v-4.7738h-0.11727c-0.10209,0.16459 -0.24695,0.37232 -0.43527,0.62317c-0.18797,0.24692 -0.45665,0.46834 -0.80535,0.66432c-0.3487,0.19204 -0.81329,0.2881 -1.39342,0.2881c-0.75258,0 -1.41687,-0.19011 -1.99286,-0.5703c-0.57634,-0.38409 -1.02678,-0.92497 -1.35237,-1.62261c-0.32525,-0.70157 -0.4877,-1.53051 -0.4877,-2.48683c0,-0.94849 0.16245,-1.77157 0.4877,-2.46921c0.32559,-0.69764 0.77811,-1.23655 1.35824,-1.61674c0.58013,-0.38019 1.25028,-0.57027 2.01045,-0.57027c0.58806,0 1.05265,0.09799 1.39342,0.29393c0.34491,0.19208 0.60772,0.41154 0.78776,0.65846c0.18418,0.24302 0.32731,0.44289 0.42941,0.59969h0.16452v-1.43449h1.3403v12.41658zM228.67492,183.55094c0.55633,0 1.02678,-0.145 1.41101,-0.43503c0.38388,-0.29396 0.67602,-0.69964 0.87571,-1.217c0.20005,-0.52125 0.30007,-1.12288 0.30007,-1.80485c0,-0.67415 -0.09795,-1.26401 -0.2942,-1.7696c-0.1959,-0.50953 -0.48597,-0.90538 -0.86985,-1.18758c-0.38422,-0.2861 -0.85847,-0.42917 -1.42273,-0.42917c-0.58806,0 -1.07783,0.1509 -1.46999,0.45269c-0.38802,0.29786 -0.67981,0.70354 -0.87606,1.21696c-0.19177,0.50953 -0.28799,1.08176 -0.28799,1.7167c0,0.64277 0.09795,1.22676 0.2942,1.75194c0.1997,0.52129 0.49356,0.93673 0.88158,1.24639c0.39216,0.30569 0.87813,0.45855 1.45826,0.45855zM240.85627,180.91715v-5.3382h1.38756v9.03024h-1.38756v-1.52855h-0.09416c-0.21177,0.45855 -0.54081,0.84854 -0.98781,1.16992c-0.44665,0.31749 -1.01092,0.47621 -1.69314,0.47621c-0.56426,0 -1.0661,-0.12344 -1.50482,-0.37039c-0.43906,-0.25081 -0.78397,-0.62708 -1.03472,-1.12877c-0.25109,-0.5056 -0.37629,-1.1425 -0.37629,-1.91071v-5.73794h1.38755v5.64389c0,0.65846 0.18418,1.18365 0.55254,1.5756c0.37215,0.39195 0.8464,0.58789 1.42273,0.58789c0.34491,0 0.69568,-0.08816 1.05231,-0.26454c0.36043,-0.17638 0.66222,-0.44682 0.90537,-0.81132c0.24695,-0.3645 0.37043,-0.82895 0.37043,-1.39331zM247.44224,184.82082c-0.5722,0 -1.09163,-0.10778 -1.55794,-0.32335c-0.46631,-0.21946 -0.83674,-0.53498 -1.11128,-0.94652c-0.2742,-0.41544 -0.41147,-0.91714 -0.41147,-1.50503c0,-0.51736 0.10209,-0.93672 0.30593,-1.25811c0.2035,-0.32531 0.47597,-0.5801 0.81708,-0.76431c0.34077,-0.18418 0.71706,-0.32138 1.12887,-0.4115c0.41527,-0.09409 0.8326,-0.16856 1.252,-0.22343c0.54874,-0.07053 0.99367,-0.12344 1.33479,-0.15873c0.34491,-0.03918 0.59565,-0.10385 0.75224,-0.19401c0.16073,-0.09016 0.24109,-0.24692 0.24109,-0.47031v-0.04705c0,-0.58006 -0.15866,-1.03078 -0.47597,-1.35217c-0.31386,-0.32142 -0.78983,-0.48211 -1.4286,-0.48211c-0.66256,0 -1.18199,0.14504 -1.55828,0.43507c-0.37595,0.29003 -0.64049,0.59965 -0.79363,0.9289l-1.31685,-0.47034c0.23522,-0.54871 0.54874,-0.97591 0.94056,-1.28164c0.39595,-0.30962 0.82708,-0.52519 1.29339,-0.6467c0.47045,-0.12541 0.93297,-0.18811 1.38756,-0.18811c0.29007,0 0.62324,0.03525 0.99953,0.10582c0.38008,0.06664 0.74672,0.20577 1.09921,0.4174c0.35663,0.21167 0.65256,0.53109 0.88779,0.95829c0.23522,0.42723 0.35284,0.99947 0.35284,1.71669v5.94961h-1.38755v-1.22286h-0.07036c-0.09416,0.19598 -0.25109,0.40568 -0.47045,0.62907c-0.21936,0.2234 -0.51149,0.41351 -0.87606,0.57027c-0.36457,0.15679 -0.80915,0.23516 -1.33444,0.23516zM247.65401,183.57447c0.54874,0 1.01092,-0.10778 1.38721,-0.32335c0.38043,-0.21556 0.66636,-0.49384 0.85847,-0.83485c0.1959,-0.34097 0.29386,-0.6996 0.29386,-1.07586v-1.26987c-0.05863,0.07057 -0.18797,0.13524 -0.38802,0.19401c-0.1959,0.05487 -0.4232,0.10385 -0.68188,0.14696c-0.25488,0.03922 -0.50356,0.0745 -0.74672,0.10585c-0.23902,0.02742 -0.43285,0.05094 -0.58185,0.07053c-0.36077,0.04704 -0.69774,0.12348 -1.01126,0.22929c-0.30973,0.10189 -0.56047,0.25671 -0.75258,0.46445c-0.18797,0.2038 -0.28213,0.48207 -0.28213,0.83481c0,0.48211 0.17832,0.84661 0.53495,1.09352c0.36043,0.24299 0.81708,0.3645 1.36996,0.3645zM254.11339,184.60918v-9.03024h1.34064v1.36393h0.09381c0.16486,-0.44679 0.46252,-0.80936 0.89365,-1.08762c0.43113,-0.27827 0.9171,-0.41741 1.45826,-0.41741c0.10175,0 0.22902,0.00197 0.38216,0.00587c0.15279,0.00393 0.26834,0.0098 0.34663,0.01766v1.41097c-0.04691,-0.01176 -0.15486,-0.02938 -0.32318,-0.05291c-0.16486,-0.02746 -0.33904,-0.04115 -0.52322,-0.04115c-0.43906,0 -0.83088,0.09209 -1.17578,0.2763c-0.34111,0.18028 -0.61151,0.43113 -0.81156,0.75251c-0.1959,0.31749 -0.29386,0.68001 -0.29386,1.08762v5.71446zM263.78453,184.79733c-0.8702,0 -1.62071,-0.19208 -2.25154,-0.57616c-0.62738,-0.38802 -1.11128,-0.9289 -1.45239,-1.62261c-0.33697,-0.69767 -0.50529,-1.50896 -0.50529,-2.43396c0,-0.92497 0.16831,-1.74018 0.50529,-2.44569c0.34111,-0.7094 0.81536,-1.26204 1.42273,-1.65789c0.61152,-0.39978 1.32478,-0.59965 2.14014,-0.59965c0.47045,0 0.93469,0.07836 1.39342,0.23516c0.45838,0.15676 0.87606,0.41154 1.252,0.76427c0.37629,0.34884 0.67636,0.81132 0.89951,1.38745c0.2235,0.57616 0.33525,1.28556 0.33525,2.12824v0.58789h-6.96088v-1.1993h5.54987c0,-0.50953 -0.10175,-0.96418 -0.30559,-1.36396c-0.20005,-0.39978 -0.48597,-0.7153 -0.85847,-0.94652c-0.36836,-0.23126 -0.80328,-0.34687 -1.30512,-0.34687c-0.55254,0 -1.03092,0.13717 -1.43446,0.41154c-0.39974,0.27044 -0.7074,0.62317 -0.92297,1.05824c-0.21556,0.43503 -0.32352,0.90144 -0.32352,1.39921v0.79956c0,0.68195 0.11762,1.26008 0.35284,1.73432c0.23902,0.47031 0.57013,0.82895 0.99367,1.07586c0.4232,0.24299 0.91503,0.36449 1.4755,0.36449c0.36457,0 0.6936,-0.05094 0.98781,-0.15286c0.29765,-0.10582 0.55461,-0.26258 0.77017,-0.47031c0.21556,-0.21163 0.38216,-0.47425 0.49977,-0.7878l1.3403,0.37625c-0.14107,0.45465 -0.37836,0.85443 -0.71154,1.19934c-0.33283,0.34097 -0.74465,0.60752 -1.23442,0.79956c-0.49011,0.18811 -1.04058,0.2822 -1.6521,0.2822zM274.29034,184.60918v-9.03024h1.34064v1.36393h0.09381c0.16486,-0.44679 0.46252,-0.80936 0.89365,-1.08762c0.43113,-0.27827 0.9171,-0.41741 1.45826,-0.41741c0.10175,0 0.22901,0.00197 0.38215,0.00587c0.15279,0.00393 0.26834,0.0098 0.34663,0.01766v1.41097c-0.04691,-0.01176 -0.15486,-0.02938 -0.32318,-0.05291c-0.16486,-0.02746 -0.33904,-0.04115 -0.52322,-0.04115c-0.43906,0 -0.83088,0.09209 -1.17578,0.2763c-0.34111,0.18028 -0.61152,0.43113 -0.81156,0.75251c-0.1959,0.31749 -0.29386,0.68001 -0.29386,1.08762v5.71446zM283.84387,184.79733c-0.81501,0 -1.53034,-0.19401 -2.14565,-0.58203c-0.61152,-0.38802 -1.08955,-0.93086 -1.43446,-1.62851c-0.34111,-0.69767 -0.51149,-1.51289 -0.51149,-2.44569c0,-0.94066 0.17038,-1.76177 0.51149,-2.46334c0.34491,-0.70157 0.82294,-1.24635 1.43446,-1.63437c0.61531,-0.38802 1.33064,-0.58203 2.14565,-0.58203c0.81536,0 1.52862,0.19401 2.14014,0.58203c0.61531,0.38802 1.09335,0.9328 1.43446,1.63437c0.34491,0.70157 0.51736,1.52268 0.51736,2.46334c0,0.9328 -0.17245,1.74802 -0.51736,2.44569c-0.34111,0.69764 -0.81915,1.24049 -1.43446,1.62851c-0.61152,0.38802 -1.32478,0.58203 -2.14014,0.58203zM283.84387,183.55094c0.61945,0 1.12888,-0.15872 1.52862,-0.47621c0.39974,-0.31745 0.69568,-0.73486 0.88779,-1.25222c0.19211,-0.51736 0.28799,-1.07783 0.28799,-1.68141c0,-0.60358 -0.09588,-1.16602 -0.28799,-1.68731c-0.19211,-0.52129 -0.48804,-0.94259 -0.88779,-1.26401c-0.39974,-0.32138 -0.90917,-0.48208 -1.52862,-0.48208c-0.61911,0 -1.12887,0.16069 -1.52862,0.48208c-0.39974,0.32142 -0.69568,0.74272 -0.88779,1.26401c-0.19177,0.52129 -0.28799,1.08373 -0.28799,1.68731c0,0.60358 0.09623,1.16406 0.28799,1.68141c0.19211,0.51736 0.48804,0.93477 0.88779,1.25222c0.39974,0.31749 0.90951,0.47621 1.52862,0.47621zM293.72229,184.79733c-0.81536,0 -1.53069,-0.19401 -2.146,-0.58203c-0.61152,-0.38802 -1.08955,-0.93086 -1.43446,-1.62851c-0.34111,-0.69767 -0.5115,-1.51289 -0.5115,-2.44569c0,-0.94066 0.17039,-1.76177 0.5115,-2.46334c0.34491,-0.70157 0.82294,-1.24635 1.43446,-1.63437c0.61531,-0.38802 1.33064,-0.58203 2.146,-0.58203c0.81501,0 1.52862,0.19401 2.13979,0.58203c0.61531,0.38802 1.0937,0.9328 1.43446,1.63437c0.34491,0.70157 0.51736,1.52268 0.51736,2.46334c0,0.9328 -0.17245,1.74802 -0.51736,2.44569c-0.34077,0.69764 -0.81915,1.24049 -1.43446,1.62851c-0.61117,0.38802 -1.32478,0.58203 -2.13979,0.58203zM293.72229,183.55094c0.61911,0 1.12888,-0.15872 1.52862,-0.47621c0.39974,-0.31745 0.69567,-0.73486 0.88744,-1.25222c0.19211,-0.51736 0.28834,-1.07783 0.28834,-1.68141c0,-0.60358 -0.09623,-1.16602 -0.28834,-1.68731c-0.19177,-0.52129 -0.4877,-0.94259 -0.88744,-1.26401c-0.39974,-0.32138 -0.90952,-0.48208 -1.52862,-0.48208c-0.61945,0 -1.12887,0.16069 -1.52862,0.48208c-0.39974,0.32142 -0.69568,0.74272 -0.88779,1.26401c-0.19211,0.52129 -0.28799,1.08373 -0.28799,1.68731c0,0.60358 0.09588,1.16406 0.28799,1.68141c0.19211,0.51736 0.48804,0.93477 0.88779,1.25222c0.39974,0.31749 0.90917,0.47621 1.52862,0.47621zM303.85906,175.57895v1.17582h-4.67967v-1.17582zM300.54349,173.41544h1.38755v8.60695c0,0.39195 0.05656,0.68588 0.17038,0.88185c0.11761,0.19204 0.26661,0.32138 0.44665,0.38802c0.18418,0.06271 0.37836,0.09405 0.5822,0.09405c0.15279,0 0.27834,-0.00783 0.37629,-0.02349c0.09795,-0.01962 0.17625,-0.03529 0.23523,-0.04705l0.28213,1.24635c-0.09416,0.03528 -0.22557,0.07057 -0.39388,0.10585c-0.16866,0.03918 -0.38216,0.05877 -0.64083,0.05877c-0.39216,0 -0.77604,-0.08426 -1.15233,-0.25278c-0.3725,-0.16856 -0.68188,-0.42527 -0.92883,-0.77017c-0.24316,-0.34491 -0.36457,-0.77997 -0.36457,-1.30515zM314.27105,184.79733c-0.81536,0 -1.53069,-0.19401 -2.146,-0.58203c-0.61117,-0.38802 -1.08955,-0.93086 -1.43446,-1.62851c-0.34077,-0.69767 -0.5115,-1.51289 -0.5115,-2.44569c0,-0.94066 0.17073,-1.76177 0.5115,-2.46334c0.34491,-0.70157 0.82329,-1.24635 1.43446,-1.63437c0.61531,-0.38802 1.33064,-0.58203 2.146,-0.58203c0.81536,0 1.52862,0.19401 2.13979,0.58203c0.61566,0.38802 1.0937,0.9328 1.43481,1.63437c0.34491,0.70157 0.51736,1.52268 0.51736,2.46334c0,0.9328 -0.17245,1.74802 -0.51736,2.44569c-0.34111,0.69764 -0.81915,1.24049 -1.43481,1.62851c-0.61117,0.38802 -1.32443,0.58203 -2.13979,0.58203zM314.27105,183.55094c0.61911,0 1.12888,-0.15872 1.52862,-0.47621c0.39974,-0.31745 0.69568,-0.73486 0.88779,-1.25222c0.19177,-0.51736 0.28799,-1.07783 0.28799,-1.68141c0,-0.60358 -0.09623,-1.16602 -0.28799,-1.68731c-0.19211,-0.52129 -0.48804,-0.94259 -0.88779,-1.26401c-0.39974,-0.32138 -0.90952,-0.48208 -1.52862,-0.48208c-0.61945,0 -1.12887,0.16069 -1.52862,0.48208c-0.39974,0.32142 -0.69568,0.74272 -0.88779,1.26401c-0.19211,0.52129 -0.28799,1.08373 -0.28799,1.68731c0,0.60358 0.09588,1.16406 0.28799,1.68141c0.19211,0.51736 0.48804,0.93477 0.88779,1.25222c0.39974,0.31749 0.90917,0.47621 1.52862,0.47621zM324.50198,175.57895v1.17582h-4.86765v-1.17582zM321.09224,184.60918v-10.2766c0,-0.51736 0.1214,-0.9485 0.36456,-1.2934c0.24281,-0.34491 0.5584,-0.60358 0.94642,-0.77603c0.38802,-0.17245 0.79777,-0.25868 1.2289,-0.25868c0.34077,0 0.61911,0.02743 0.83467,0.0823c0.21556,0.05487 0.37629,0.10582 0.48218,0.15286l-0.39974,1.19933c-0.0707,-0.02352 -0.16866,-0.05291 -0.2942,-0.08819c-0.12141,-0.03527 -0.28214,-0.05291 -0.48183,-0.05291c-0.45872,0 -0.78983,0.11562 -0.99367,0.34687c-0.20005,0.23124 -0.29972,0.57027 -0.29972,1.01708v9.94738zM331.07931,184.60918v-1.05824l3.97434,-4.35049c0.46631,-0.50953 0.85054,-0.95242 1.15233,-1.32868c0.30179,-0.38019 0.52494,-0.73685 0.67015,-1.07c0.149,-0.33704 0.22316,-0.68981 0.22316,-1.0582c0,-0.4233 -0.10175,-0.78977 -0.30559,-1.0994c-0.1997,-0.30963 -0.47425,-0.54871 -0.82294,-0.71724c-0.34904,-0.16854 -0.74086,-0.2528 -1.17578,-0.2528c-0.46252,0 -0.8664,0.09603 -1.21131,0.28808c-0.34077,0.18813 -0.60531,0.45269 -0.79363,0.79368c-0.18418,0.34098 -0.27627,0.74074 -0.27627,1.19933h-1.38756c0,-0.70549 0.1628,-1.32475 0.48804,-1.85779c0.32525,-0.53304 0.7681,-0.94849 1.32857,-1.24636c0.56461,-0.29787 1.19751,-0.44681 1.89905,-0.44681c0.70533,0 1.33064,0.14894 1.87525,0.44681c0.54495,0.29787 0.97229,0.69961 1.28167,1.20521c0.30973,0.5056 0.46459,1.06803 0.46459,1.68731c0,0.44286 -0.08036,0.87596 -0.24109,1.29926c-0.15659,0.41937 -0.43113,0.88775 -0.82294,1.40511c-0.38802,0.51343 -0.9271,1.14053 -1.61691,1.88129l-2.7044,2.89251v0.09405h5.59712v1.2934zM344.86552,184.77381c-0.68981,0 -1.31098,-0.1372 -1.86352,-0.41154c-0.55254,-0.27437 -0.9954,-0.65063 -1.32858,-1.12877c-0.33318,-0.47818 -0.51563,-1.02295 -0.54668,-1.6344h1.41066c0.05519,0.54481 0.3018,0.99554 0.74086,1.3522c0.44286,0.35274 0.97194,0.52912 1.58725,0.52912c0.49391,0 0.93297,-0.11565 1.31719,-0.34687c0.38802,-0.23126 0.69154,-0.54871 0.91124,-0.95242c0.22315,-0.40761 0.3349,-0.86812 0.3349,-1.38159c0,-0.52519 -0.11554,-0.99353 -0.34663,-1.40507c-0.22729,-0.41547 -0.54116,-0.74272 -0.9409,-0.98181c-0.39974,-0.23909 -0.8564,-0.3606 -1.36962,-0.3645c-0.36836,-0.00393 -0.74672,0.05291 -1.13474,0.17049c-0.38802,0.11365 -0.7074,0.26065 -0.95814,0.44093l-1.3641,-0.16462l0.72913,-5.92609h6.2552v1.2934h-5.03251l-0.4232,3.55097h0.07036c0.24695,-0.19598 0.55668,-0.35863 0.92917,-0.48797c0.37215,-0.12934 0.76017,-0.19401 1.16406,-0.19401c0.73672,0 1.39307,0.17638 1.96941,0.52912c0.58013,0.3488 1.03472,0.82698 1.36375,1.43449c0.33318,0.60748 0.49976,1.30122 0.49976,2.08119c0,0.76817 -0.17245,1.45409 -0.51736,2.05767c-0.34077,0.59965 -0.81122,1.0739 -1.41101,1.42273c-0.59945,0.34491 -1.28167,0.51736 -2.04598,0.51736zM353.00976,181.22284v-0.07053c0.00759,-0.74862 0.08623,-1.34437 0.23523,-1.78723c0.14865,-0.44289 0.36042,-0.80153 0.63462,-1.0759c0.27454,-0.27434 0.60358,-0.52715 0.98781,-0.75837c0.23143,-0.1411 0.43906,-0.30769 0.62324,-0.49973c0.18418,-0.19598 0.32904,-0.42134 0.43493,-0.67608c0.10968,-0.25478 0.16486,-0.53695 0.16486,-0.8466c0,-0.38409 -0.09036,-0.71723 -0.27075,-0.99943c-0.18004,-0.2822 -0.42113,-0.49972 -0.72292,-0.65258c-0.30179,-0.15286 -0.63704,-0.22928 -1.0054,-0.22928c-0.32145,0 -0.63083,0.06663 -0.92883,0.19989c-0.298,0.13326 -0.54668,0.34294 -0.74672,0.62906c-0.1997,0.28611 -0.31559,0.66042 -0.34697,1.12291h-1.48137c0.03138,-0.6663 0.20384,-1.23657 0.51736,-1.71081c0.31731,-0.47425 0.735,-0.83679 1.25235,-1.08763c0.52115,-0.25084 1.09921,-0.37626 1.73418,-0.37626c0.68981,0 1.2896,0.13718 1.79903,0.41154c0.51356,0.27435 0.90917,0.65062 1.18751,1.12878c0.28213,0.47816 0.4232,1.02295 0.4232,1.63439c0,0.43113 -0.06656,0.82112 -0.1997,1.16992c-0.12934,0.34884 -0.31766,0.66043 -0.56426,0.9348c-0.24316,0.27434 -0.53702,0.51736 -0.88192,0.72899c-0.34491,0.21556 -0.62117,0.44289 -0.82915,0.68198c-0.20763,0.23516 -0.35836,0.51539 -0.45252,0.84071c-0.09416,0.32528 -0.1452,0.73096 -0.15279,1.21696v0.07053zM353.76234,184.70324c-0.29007,0 -0.53908,-0.10385 -0.74672,-0.31159c-0.20798,-0.20774 -0.3118,-0.45658 -0.3118,-0.74665c0,-0.29003 0.10382,-0.53892 0.3118,-0.74662c0.20763,-0.20774 0.45665,-0.31159 0.74672,-0.31159c0.28972,0 0.53874,0.10385 0.74637,0.31159c0.20798,0.2077 0.3118,0.45659 0.3118,0.74662c0,0.19208 -0.04898,0.36843 -0.14693,0.52912c-0.09416,0.16069 -0.22143,0.29003 -0.38216,0.38802c-0.15693,0.09409 -0.33318,0.1411 -0.52908,0.1411z"/></g></g></svg>