<svg version="1.1" xmlns="http://www.w3.org/2000/svg" xmlns:xlink="http://www.w3.org/1999/xlink" width="139" height="164" viewBox="0,0,139,164"><g transform="translate(-170.5,-98)"><g data-paper-data="{&quot;isPaintingLayer&quot;:true}" fill-rule="nonzero" stroke="none" stroke-width="1" stroke-linecap="butt" stroke-linejoin="miter" stroke-miterlimit="10" stroke-dasharray="" stroke-dashoffset="0" style="mix-blend-mode: normal"><path d="M170.5,118c0,-11.04569 8.95431,-20 20,-20h99c11.046,0 20,8.95431 20,20v124c0,11.046 -8.954,20 -20,20h-99c-11.04569,0 -20,-8.954 -20,-20z" fill="#ee6338"/><path d="M206.7102,233.455v14.545h-1.6761v-14.545zM214.354,248.227c-1.0511,0 -1.9578,-0.232 -2.7201,-0.696c-0.7576,-0.469 -1.3424,-1.122 -1.7543,-1.96c-0.4072,-0.843 -0.6108,-1.823 -0.6108,-2.94c0,-1.118 0.2036,-2.103 0.6108,-2.955c0.4119,-0.857 0.9849,-1.524 1.7188,-2.003c0.7386,-0.483 1.6003,-0.724 2.5852,-0.724c0.5682,0 1.1293,0.095 1.6832,0.284c0.554,0.189 1.0583,0.497 1.5128,0.923c0.4546,0.422 0.8168,0.98 1.0867,1.676c0.2699,0.696 0.4048,1.553 0.4048,2.571v0.711h-8.4091v-1.449h6.7045c0,-0.616 -0.1231,-1.165 -0.3693,-1.648c-0.2414,-0.483 -0.5871,-0.864 -1.0369,-1.143c-0.4451,-0.28 -0.9706,-0.419 -1.5767,-0.419c-0.6676,0 -1.2453,0.165 -1.733,0.497c-0.4829,0.326 -0.8546,0.753 -1.115,1.278c-0.2604,0.526 -0.3906,1.089 -0.3906,1.69v0.966c0,0.824 0.142,1.523 0.4261,2.096c0.2888,0.568 0.6889,1.001 1.2003,1.299c0.5113,0.294 1.1056,0.441 1.7826,0.441c0.4404,0 0.8381,-0.062 1.1932,-0.185c0.3599,-0.128 0.67,-0.317 0.9304,-0.568c0.2604,-0.256 0.4617,-0.573 0.6037,-0.952l1.6193,0.455c-0.1704,0.549 -0.4569,1.032 -0.8593,1.448c-0.4025,0.412 -0.8997,0.734 -1.4915,0.966c-0.5919,0.228 -1.2571,0.341 -1.9958,0.341zM226.1651,237.091v1.42h-5.6534v-1.42zM222.1594,234.477h1.6762v10.398c0,0.473 0.0686,0.829 0.2059,1.065c0.1421,0.232 0.322,0.389 0.5398,0.469c0.2226,0.076 0.4569,0.114 0.7031,0.114c0.1847,0 0.3362,-0.01 0.4546,-0.029c0.1184,-0.023 0.2131,-0.042 0.2841,-0.056l0.3409,1.505c-0.1136,0.043 -0.2723,0.085 -0.4759,0.128c-0.2036,0.047 -0.4616,0.071 -0.7741,0.071c-0.4735,0 -0.9375,-0.102 -1.3921,-0.305c-0.4498,-0.204 -0.8238,-0.514 -1.1221,-0.931c-0.2936,-0.416 -0.4404,-0.942 -0.4404,-1.576zM233.4308,237.091v1.42h-5.6535v-1.42zM229.4251,234.477h1.6761v10.398c0,0.473 0.0687,0.829 0.206,1.065c0.142,0.232 0.3219,0.389 0.5397,0.469c0.2226,0.076 0.457,0.114 0.7032,0.114c0.1846,0 0.3361,-0.01 0.4545,-0.029c0.1184,-0.023 0.2131,-0.042 0.2841,-0.056l0.3409,1.505c-0.1136,0.043 -0.2722,0.085 -0.4758,0.128c-0.2036,0.047 -0.4617,0.071 -0.7742,0.071c-0.4735,0 -0.9375,-0.102 -1.392,-0.305c-0.4498,-0.204 -0.8239,-0.514 -1.1222,-0.931c-0.2935,-0.416 -0.4403,-0.942 -0.4403,-1.576zM240.4087,248.227c-1.0511,0 -1.9578,-0.232 -2.7201,-0.696c-0.7576,-0.469 -1.3424,-1.122 -1.7543,-1.96c-0.4072,-0.843 -0.6108,-1.823 -0.6108,-2.94c0,-1.118 0.2036,-2.103 0.6108,-2.955c0.4119,-0.857 0.9849,-1.524 1.7188,-2.003c0.7386,-0.483 1.6003,-0.724 2.5852,-0.724c0.5682,0 1.1292,0.095 1.6832,0.284c0.554,0.189 1.0583,0.497 1.5128,0.923c0.4545,0.422 0.8168,0.98 1.0867,1.676c0.2698,0.696 0.4048,1.553 0.4048,2.571v0.711h-8.4091v-1.449h6.7045c0,-0.616 -0.1231,-1.165 -0.3693,-1.648c-0.2415,-0.483 -0.5871,-0.864 -1.0369,-1.143c-0.4451,-0.28 -0.9707,-0.419 -1.5767,-0.419c-0.6676,0 -1.2453,0.165 -1.733,0.497c-0.4829,0.326 -0.8546,0.753 -1.115,1.278c-0.2604,0.526 -0.3907,1.089 -0.3907,1.69v0.966c0,0.824 0.1421,1.523 0.4262,2.096c0.2888,0.568 0.6889,1.001 1.2003,1.299c0.5113,0.294 1.1056,0.441 1.7826,0.441c0.4404,0 0.8381,-0.062 1.1932,-0.185c0.3599,-0.128 0.67,-0.317 0.9304,-0.568c0.2604,-0.256 0.4617,-0.573 0.6037,-0.952l1.6193,0.455c-0.1704,0.549 -0.4569,1.032 -0.8593,1.448c-0.4025,0.412 -0.8997,0.734 -1.4915,0.966c-0.5919,0.228 -1.2571,0.341 -1.9958,0.341zM247.4755,248v-10.909h1.6193v1.648h0.1137c0.1988,-0.54 0.5587,-0.978 1.0795,-1.314c0.5208,-0.336 1.108,-0.505 1.7614,-0.505c0.1231,0 0.2769,0.003 0.4616,0.008c0.1847,0.004 0.3243,0.011 0.419,0.021v1.704c-0.0568,-0.014 -0.187,-0.035 -0.3906,-0.064c-0.1988,-0.033 -0.4095,-0.049 -0.6321,-0.049c-0.5303,0 -1.0038,0.111 -1.4204,0.334c-0.412,0.217 -0.7387,0.52 -0.9802,0.909c-0.2367,0.383 -0.3551,0.821 -0.3551,1.314v6.903zM272.474,238h-1.762c-0.104,-0.507 -0.2861,-0.952 -0.5465,-1.335c-0.2557,-0.384 -0.5682,-0.706 -0.9375,-0.966c-0.3646,-0.265 -0.7694,-0.464 -1.2145,-0.597c-0.4451,-0.132 -0.9091,-0.199 -1.3921,-0.199c-0.8806,0 -1.6785,0.223 -2.3934,0.668c-0.7102,0.445 -1.2761,1.101 -1.6975,1.967c-0.4166,0.867 -0.625,1.93 -0.625,3.189c0,1.26 0.2084,2.323 0.625,3.189c0.4214,0.867 0.9873,1.522 1.6975,1.968c0.7149,0.445 1.5128,0.667 2.3934,0.667c0.483,0 0.947,-0.066 1.3921,-0.199c0.4451,-0.132 0.8499,-0.329 1.2145,-0.589c0.3693,-0.265 0.6818,-0.59 0.9375,-0.973c0.2604,-0.388 0.4425,-0.834 0.5465,-1.335h1.762c-0.133,0.743 -0.374,1.408 -0.725,1.995c-0.35,0.587 -0.786,1.087 -1.3065,1.499c-0.5209,0.407 -1.1056,0.717 -1.7543,0.93c-0.6439,0.213 -1.3328,0.32 -2.0668,0.32c-1.2405,0 -2.3437,-0.303 -3.3096,-0.909c-0.9659,-0.606 -1.7259,-1.468 -2.2798,-2.585c-0.554,-1.118 -0.831,-2.444 -0.831,-3.978c0,-1.534 0.277,-2.86 0.831,-3.977c0.5539,-1.117 1.3139,-1.979 2.2798,-2.585c0.9659,-0.606 2.0691,-0.909 3.3096,-0.909c0.734,0 1.4229,0.106 2.0668,0.319c0.6487,0.213 1.2334,0.526 1.7543,0.938c0.5205,0.407 0.9565,0.904 1.3065,1.491c0.351,0.583 0.592,1.248 0.725,1.996z" fill="#000000"/><path d="M210.3857,180.15452c-2.25,0 -4.2557,-0.3864 -6.0171,-1.1591c-1.75,-0.7727 -3.142,-1.8466 -4.1761,-3.2216c-1.0228,-1.3864 -1.5796,-2.9943 -1.6705,-4.8239h4.2955c0.0909,1.125 0.4772,2.0966 1.1591,2.9148c0.6818,0.8068 1.5738,1.4318 2.6761,1.875c1.1023,0.4432 2.3239,0.6648 3.6648,0.6648c1.5,0 2.8295,-0.2614 3.9886,-0.7841c1.1591,-0.5227 2.0682,-1.25 2.7273,-2.1818c0.6591,-0.9319 0.9886,-2.0114 0.9886,-3.2387c0,-1.2841 -0.3182,-2.4147 -0.9545,-3.392c-0.6364,-0.9887 -1.5682,-1.7614 -2.7955,-2.3182c-1.2273,-0.5568 -2.7273,-0.8352 -4.5,-0.8352h-2.7954v-3.75h2.7954c1.3864,0 2.6023,-0.25 3.6477,-0.75c1.0569,-0.5 1.8807,-1.2046 2.4716,-2.1137c0.6023,-0.9091 0.9034,-1.9772 0.9034,-3.2045c0,-1.1818 -0.2613,-2.2102 -0.784,-3.0852c-0.5228,-0.875 -1.2614,-1.5569 -2.216,-2.0455c-0.9431,-0.4886 -2.0568,-0.7329 -3.3409,-0.7329c-1.2045,0 -2.3409,0.2215 -3.4091,0.6647c-1.0568,0.4318 -1.9204,1.0625 -2.5909,1.8921c-0.6704,0.8182 -1.0341,1.8068 -1.0909,2.9659h-4.0909c0.0682,-1.8296 0.6193,-3.4318 1.6534,-4.8068c1.0341,-1.3864 2.3864,-2.4659 4.0568,-3.2387c1.6819,-0.7727 3.5285,-1.1591 5.5398,-1.1591c2.1591,0 4.0114,0.4375 5.5568,1.3125c1.5455,0.8637 2.733,2.0057 3.5625,3.4262c0.8296,1.4204 1.2444,2.9545 1.2444,4.6022c0,1.966 -0.5171,3.6421 -1.5512,5.0285c-1.0227,1.3863 -2.4148,2.3465 -4.1761,2.8806v0.2728c2.2045,0.3636 3.9261,1.3011 5.1648,2.8125c1.2386,1.5 1.8579,3.3579 1.8579,5.5738c0,1.8978 -0.517,3.6023 -1.5511,5.1137c-1.0228,1.5 -2.4205,2.6818 -4.1932,3.5454c-1.7727,0.8637 -3.7898,1.2955 -6.0511,1.2955zM231.0746,179.94992c-0.8409,0 -1.5625,-0.3011 -2.1648,-0.9034c-0.6023,-0.6023 -0.9034,-1.3238 -0.9034,-2.1648c0,-0.8409 0.3011,-1.5625 0.9034,-2.1647c0.6023,-0.6023 1.3239,-0.9034 2.1648,-0.9034c0.8409,0 1.5625,0.3011 2.1647,0.9034c0.6023,0.6022 0.9035,1.3238 0.9035,2.1647c0,0.5569 -0.1421,1.0682 -0.4262,1.5341c-0.2727,0.4659 -0.642,0.8409 -1.1079,1.125c-0.4546,0.2728 -0.9659,0.4091 -1.5341,0.4091zM249.3942,144.76812v34.9091h-4.2273v-30.4773h-0.2045l-8.5228,5.6591v-4.2954l8.7273,-5.7955zM270.343,180.15452c-2,0 -3.8011,-0.3978 -5.4034,-1.1932c-1.6022,-0.7955 -2.8863,-1.8864 -3.8522,-3.2727c-0.966,-1.3864 -1.4944,-2.9659 -1.5853,-4.7387h4.0909c0.1591,1.5796 0.875,2.8864 2.1478,3.9205c1.2841,1.0227 2.8181,1.5341 4.6022,1.5341c1.432,0 2.705,-0.3353 3.818,-1.0057c1.125,-0.6705 2.006,-1.5909 2.642,-2.7614c0.648,-1.1818 0.972,-2.517 0.972,-4.0057c0,-1.5227 -0.335,-2.8806 -1.006,-4.0738c-0.659,-1.2046 -1.568,-2.1534 -2.727,-2.8466c-1.159,-0.6932 -2.483,-1.0455 -3.9717,-1.0568c-1.0682,-0.0114 -2.1648,0.1534 -3.2898,0.4943c-1.125,0.3295 -2.0511,0.7557 -2.7784,1.2784l-3.9545,-0.4773l2.1136,-17.1818h18.1368v3.75h-14.5913l-1.2273,10.2955h0.2045c0.716,-0.5682 1.6137,-1.0398 2.6932,-1.4148c1.0796,-0.375 2.2046,-0.5625 3.3749,-0.5625c2.136,0 4.04,0.5114 5.71,1.5341c1.682,1.0113 3,2.3977 3.955,4.1591c0.966,1.7613 1.449,3.7727 1.449,6.0341c0,2.2272 -0.5,4.2159 -1.5,5.9659c-0.989,1.7386 -2.353,3.1136 -4.091,4.125c-1.739,1 -3.716,1.5 -5.932,1.5z" fill="#000000"/></g></g></svg>