<svg xmlns="http://www.w3.org/2000/svg" fill="none" viewBox="0 0 139 164" height="164" width="139">
<path fill="#EEC638" d="M0 20C0 8.95431 8.95431 0 20 0H119C130.046 0 139 8.95431 139 20V144C139 155.046 130.046 164 119 164H20C8.95431 164 0 155.046 0 144V20Z"></path>
<path fill="black" d="M36.2102 135.455V150H34.5341V135.455H36.2102ZM43.854 150.227C42.8029 150.227 41.8962 149.995 41.1339 149.531C40.3763 149.062 39.7915 148.409 39.3796 147.571C38.9724 146.728 38.7688 145.748 38.7688 144.631C38.7688 143.513 38.9724 142.528 39.3796 141.676C39.7915 140.819 40.3645 140.152 41.0984 139.673C41.837 139.19 42.6987 138.949 43.6836 138.949C44.2518 138.949 44.8129 139.044 45.3668 139.233C45.9208 139.422 46.4251 139.73 46.8796 140.156C47.3342 140.578 47.6964 141.136 47.9663 141.832C48.2362 142.528 48.3711 143.385 48.3711 144.403V145.114H39.962V143.665H46.6665C46.6665 143.049 46.5434 142.5 46.2972 142.017C46.0558 141.534 45.7101 141.153 45.2603 140.874C44.8152 140.594 44.2897 140.455 43.6836 140.455C43.016 140.455 42.4383 140.62 41.9506 140.952C41.4677 141.278 41.096 141.705 40.8356 142.23C40.5752 142.756 40.445 143.319 40.445 143.92V144.886C40.445 145.71 40.587 146.409 40.8711 146.982C41.1599 147.55 41.56 147.983 42.0714 148.281C42.5827 148.575 43.177 148.722 43.854 148.722C44.2944 148.722 44.6921 148.66 45.0472 148.537C45.4071 148.409 45.7172 148.22 45.9776 147.969C46.238 147.713 46.4393 147.396 46.5813 147.017L48.2006 147.472C48.0302 148.021 47.7437 148.504 47.3413 148.92C46.9388 149.332 46.4416 149.654 45.8498 149.886C45.2579 150.114 44.5927 150.227 43.854 150.227ZM55.6651 139.091V140.511H50.0117V139.091H55.6651ZM51.6594 136.477H53.3356V146.875C53.3356 147.348 53.4042 147.704 53.5415 147.94C53.6836 148.172 53.8635 148.329 54.0813 148.409C54.3039 148.485 54.5382 148.523 54.7844 148.523C54.9691 148.523 55.1206 148.513 55.239 148.494C55.3574 148.471 55.4521 148.452 55.5231 148.438L55.864 149.943C55.7504 149.986 55.5917 150.028 55.3881 150.071C55.1845 150.118 54.9265 150.142 54.614 150.142C54.1405 150.142 53.6765 150.04 53.2219 149.837C52.7721 149.633 52.3981 149.323 52.0998 148.906C51.8062 148.49 51.6594 147.964 51.6594 147.33V136.477ZM62.9308 139.091V140.511H57.2773V139.091H62.9308ZM58.9251 136.477H60.6012V146.875C60.6012 147.348 60.6699 147.704 60.8072 147.94C60.9492 148.172 61.1291 148.329 61.3469 148.409C61.5695 148.485 61.8039 148.523 62.0501 148.523C62.2347 148.523 62.3862 148.513 62.5046 148.494C62.623 148.471 62.7177 148.452 62.7887 148.438L63.1296 149.943C63.016 149.986 62.8574 150.028 62.6538 150.071C62.4502 150.118 62.1921 150.142 61.8796 150.142C61.4061 150.142 60.9421 150.04 60.4876 149.837C60.0378 149.633 59.6637 149.323 59.3654 148.906C59.0719 148.49 58.9251 147.964 58.9251 147.33V136.477ZM69.9087 150.227C68.8576 150.227 67.9509 149.995 67.1886 149.531C66.431 149.062 65.8462 148.409 65.4343 147.571C65.0271 146.728 64.8235 145.748 64.8235 144.631C64.8235 143.513 65.0271 142.528 65.4343 141.676C65.8462 140.819 66.4192 140.152 67.1531 139.673C67.8917 139.19 68.7534 138.949 69.7383 138.949C70.3065 138.949 70.8675 139.044 71.4215 139.233C71.9755 139.422 72.4798 139.73 72.9343 140.156C73.3888 140.578 73.7511 141.136 74.021 141.832C74.2908 142.528 74.4258 143.385 74.4258 144.403V145.114H66.0167V143.665H72.7212C72.7212 143.049 72.5981 142.5 72.3519 142.017C72.1104 141.534 71.7648 141.153 71.315 140.874C70.8699 140.594 70.3443 140.455 69.7383 140.455C69.0707 140.455 68.493 140.62 68.0053 140.952C67.5224 141.278 67.1507 141.705 66.8903 142.23C66.6299 142.756 66.4996 143.319 66.4996 143.92V144.886C66.4996 145.71 66.6417 146.409 66.9258 146.982C67.2146 147.55 67.6147 147.983 68.1261 148.281C68.6374 148.575 69.2317 148.722 69.9087 148.722C70.3491 148.722 70.7468 148.66 71.1019 148.537C71.4618 148.409 71.7719 148.22 72.0323 147.969C72.2927 147.713 72.494 147.396 72.636 147.017L74.2553 147.472C74.0849 148.021 73.7984 148.504 73.396 148.92C72.9935 149.332 72.4963 149.654 71.9045 149.886C71.3126 150.114 70.6474 150.227 69.9087 150.227ZM76.9755 150V139.091H78.5948V140.739H78.7085C78.9073 140.199 79.2672 139.761 79.788 139.425C80.3088 139.089 80.896 138.92 81.5494 138.92C81.6725 138.92 81.8263 138.923 82.011 138.928C82.1957 138.932 82.3353 138.939 82.43 138.949V140.653C82.3732 140.639 82.243 140.618 82.0394 140.589C81.8406 140.556 81.6299 140.54 81.4073 140.54C80.877 140.54 80.4035 140.651 79.9869 140.874C79.5749 141.091 79.2482 141.394 79.0067 141.783C78.77 142.166 78.6516 142.604 78.6516 143.097V150H76.9755ZM101.974 140H100.212C100.108 139.493 99.9259 139.048 99.6655 138.665C99.4098 138.281 99.0973 137.959 98.728 137.699C98.3634 137.434 97.9586 137.235 97.5135 137.102C97.0684 136.97 96.6044 136.903 96.1214 136.903C95.2408 136.903 94.4429 137.126 93.728 137.571C93.0178 138.016 92.4519 138.672 92.0305 139.538C91.6139 140.405 91.4055 141.468 91.4055 142.727C91.4055 143.987 91.6139 145.05 92.0305 145.916C92.4519 146.783 93.0178 147.438 93.728 147.884C94.4429 148.329 95.2408 148.551 96.1214 148.551C96.6044 148.551 97.0684 148.485 97.5135 148.352C97.9586 148.22 98.3634 148.023 98.728 147.763C99.0973 147.498 99.4098 147.173 99.6655 146.79C99.9259 146.402 100.108 145.956 100.212 145.455H101.974C101.841 146.198 101.6 146.863 101.249 147.45C100.899 148.037 100.463 148.537 99.9425 148.949C99.4216 149.356 98.8369 149.666 98.1882 149.879C97.5443 150.092 96.8554 150.199 96.1214 150.199C94.8809 150.199 93.7777 149.896 92.8118 149.29C91.8459 148.684 91.0859 147.822 90.532 146.705C89.978 145.587 89.701 144.261 89.701 142.727C89.701 141.193 89.978 139.867 90.532 138.75C91.0859 137.633 91.8459 136.771 92.8118 136.165C93.7777 135.559 94.8809 135.256 96.1214 135.256C96.8554 135.256 97.5443 135.362 98.1882 135.575C98.8369 135.788 99.4216 136.101 99.9425 136.513C100.463 136.92 100.899 137.417 101.249 138.004C101.6 138.587 101.841 139.252 101.974 140Z"></path>
<path fill="black" d="M45.651 60H43.009C42.8527 59.2401 42.5793 58.5724 42.1887 57.9972C41.8051 57.4219 41.3364 56.9389 40.7824 56.5483C40.2355 56.1506 39.6283 55.8523 38.9607 55.6534C38.2931 55.4545 37.597 55.3551 36.8726 55.3551C35.5516 55.3551 34.3548 55.6889 33.2824 56.3565C32.2171 57.0241 31.3683 58.0078 30.7362 59.3075C30.1112 60.6072 29.7987 62.2017 29.7987 64.0909C29.7987 65.9801 30.1112 67.5746 30.7362 68.8743C31.3683 70.174 32.2171 71.1577 33.2824 71.8253C34.3548 72.4929 35.5516 72.8267 36.8726 72.8267C37.597 72.8267 38.2931 72.7273 38.9607 72.5284C39.6283 72.3295 40.2355 72.0348 40.7824 71.6442C41.3364 71.2464 41.8051 70.7599 42.1887 70.1847C42.5793 69.6023 42.8527 68.9347 43.009 68.1818H45.651C45.4521 69.2969 45.0899 70.2947 44.5644 71.1754C44.0388 72.0561 43.3854 72.8054 42.6041 73.4233C41.8229 74.0341 40.9458 74.4993 39.9727 74.8189C39.0068 75.1385 37.9735 75.2983 36.8726 75.2983C35.0118 75.2983 33.357 74.8438 31.9081 73.9347C30.4593 73.0256 29.3193 71.733 28.4884 70.0568C27.6574 68.3807 27.2419 66.392 27.2419 64.0909C27.2419 61.7898 27.6574 59.8011 28.4884 58.125C29.3193 56.4489 30.4593 55.1562 31.9081 54.2472C33.357 53.3381 35.0118 52.8835 36.8726 52.8835C37.9735 52.8835 39.0068 53.0433 39.9727 53.3629C40.9458 53.6825 41.8229 54.1513 42.6041 54.7692C43.3854 55.38 44.0388 56.1257 44.5644 57.0064C45.0899 57.88 45.4521 58.8778 45.651 60ZM52.0937 65.1562V75H49.5795V53.1818H52.0937V61.1932H52.3067C52.6903 60.348 53.2655 59.6768 54.0326 59.1797C54.8067 58.6754 55.8366 58.4233 57.1221 58.4233C58.2371 58.4233 59.2137 58.647 60.0518 59.0945C60.8898 59.5348 61.5397 60.2131 62.0013 61.1293C62.4701 62.0384 62.7045 63.196 62.7045 64.6023V75H60.1903V64.7727C60.1903 63.473 59.8529 62.468 59.1782 61.7578C58.5106 61.0405 57.5837 60.6818 56.3976 60.6818C55.5738 60.6818 54.8351 60.8558 54.1817 61.2038C53.5354 61.5518 53.0241 62.0597 52.6476 62.7273C52.2783 63.3949 52.0937 64.2045 52.0937 65.1562ZM67.3041 75V58.6364H69.8183V75H67.3041ZM68.5825 55.9091C68.0924 55.9091 67.6698 55.7422 67.3147 55.4084C66.9667 55.0746 66.7927 54.6733 66.7927 54.2045C66.7927 53.7358 66.9667 53.3345 67.3147 53.0007C67.6698 52.6669 68.0924 52.5 68.5825 52.5C69.0725 52.5 69.4916 52.6669 69.8396 53.0007C70.1947 53.3345 70.3722 53.7358 70.3722 54.2045C70.3722 54.6733 70.1947 55.0746 69.8396 55.4084C69.4916 55.7422 69.0725 55.9091 68.5825 55.9091ZM76.9374 53.1818V75H74.4232V53.1818H76.9374ZM87.7213 75.3409C86.3577 75.3409 85.1539 74.9964 84.1098 74.3075C83.0658 73.6115 82.249 72.6314 81.6595 71.3672C81.07 70.0959 80.7753 68.5938 80.7753 66.8608C80.7753 65.142 81.07 63.6506 81.6595 62.3864C82.249 61.1222 83.0693 60.1456 84.1205 59.4567C85.1716 58.7678 86.3861 58.4233 87.7639 58.4233C88.8293 58.4233 89.6709 58.6009 90.2888 58.956C90.9138 59.304 91.3896 59.7017 91.7164 60.1491C92.0502 60.5895 92.3094 60.9517 92.4941 61.2358H92.7071V53.1818H95.2213V75H92.7923V72.4858H92.4941C92.3094 72.7841 92.0466 73.1605 91.7057 73.6151C91.3648 74.0625 90.8783 74.4638 90.2462 74.8189C89.6141 75.1669 88.7725 75.3409 87.7213 75.3409ZM88.0622 73.0824C89.0708 73.0824 89.923 72.8196 90.6191 72.294C91.3151 71.7614 91.8442 71.0263 92.2064 70.0888C92.5686 69.1442 92.7497 68.054 92.7497 66.8182C92.7497 65.5966 92.5722 64.5277 92.2171 63.6115C91.862 62.6882 91.3364 61.9709 90.6404 61.4595C89.9443 60.9411 89.085 60.6818 88.0622 60.6818C86.9969 60.6818 86.1091 60.9553 85.3989 61.5021C84.6958 62.0419 84.1666 62.777 83.8115 63.7074C83.4635 64.6307 83.2895 65.6676 83.2895 66.8182C83.2895 67.983 83.4671 69.0412 83.8222 69.9929C84.1844 70.9375 84.7171 71.6903 85.4202 72.2514C86.1304 72.8054 87.0111 73.0824 88.0622 73.0824ZM111.766 62.3011L109.508 62.9403C109.366 62.5639 109.156 62.1982 108.879 61.843C108.609 61.4808 108.24 61.1825 107.771 60.9482C107.302 60.7138 106.702 60.5966 105.971 60.5966C104.969 60.5966 104.135 60.8274 103.467 61.2891C102.807 61.7436 102.476 62.3224 102.476 63.0256C102.476 63.6506 102.704 64.1442 103.158 64.5064C103.613 64.8686 104.323 65.1705 105.289 65.4119L107.718 66.0085C109.181 66.3636 110.271 66.907 110.988 67.6385C111.706 68.3629 112.064 69.2969 112.064 70.4403C112.064 71.3778 111.794 72.2159 111.255 72.9545C110.722 73.6932 109.976 74.2756 109.017 74.7017C108.059 75.1278 106.944 75.3409 105.672 75.3409C104.003 75.3409 102.622 74.9787 101.528 74.2543C100.434 73.5298 99.7419 72.4716 99.4507 71.0795L101.837 70.483C102.064 71.3636 102.494 72.0241 103.126 72.4645C103.765 72.9048 104.6 73.125 105.63 73.125C106.802 73.125 107.732 72.8764 108.421 72.3793C109.117 71.875 109.465 71.2713 109.465 70.5682C109.465 70 109.266 69.5241 108.868 69.1406C108.471 68.75 107.86 68.4588 107.036 68.267L104.309 67.6278C102.81 67.2727 101.709 66.7223 101.006 65.9766C100.31 65.2237 99.9621 64.2827 99.9621 63.1534C99.9621 62.2301 100.221 61.4134 100.74 60.7031C101.265 59.9929 101.979 59.4354 102.881 59.0305C103.79 58.6257 104.82 58.4233 105.971 58.4233C107.59 58.4233 108.861 58.7784 109.785 59.4886C110.715 60.1989 111.375 61.1364 111.766 62.3011Z"></path>
</svg>
