<svg version="1.1" xmlns="http://www.w3.org/2000/svg" xmlns:xlink="http://www.w3.org/1999/xlink" width="237.06121" height="44.90927" viewBox="0,0,237.06121,44.90927"><g transform="translate(-121.46939,-157.54537)"><g data-paper-data="{&quot;isPaintingLayer&quot;:true}" fill="#ffffff" fill-rule="nonzero" stroke="none" stroke-width="1" stroke-linecap="butt" stroke-linejoin="miter" stroke-miterlimit="10" stroke-dasharray="" stroke-dashoffset="0" style="mix-blend-mode: normal"><path d="M125.57696,173.27146l-4.10757,-15.02195h1.8484l3.13934,12.23466h0.14669l3.19807,-12.23466h2.05377l3.19802,12.23466h0.14669l3.13937,-12.23466h1.84838l-4.10754,15.02195h-1.87777l-3.31537,-11.97062h-0.11735l-3.31541,11.97062zM143.95094,166.49399v6.77748h-1.73103v-15.02195h1.73103v5.51588h0.14674c0.26404,-0.58192 0.6601,-1.04399 1.18823,-1.38631c0.53303,-0.34718 1.24206,-0.52077 2.12714,-0.52077c0.76773,0 1.4401,0.15401 2.01711,0.46207c0.57701,0.3032 1.02445,0.77018 1.34228,1.40098c0.32274,0.62594 0.48411,1.42297 0.48411,2.39118v7.15891h-1.73103v-7.04152c0,-0.89489 -0.23228,-1.58679 -0.69681,-2.0758c-0.45966,-0.49387 -1.09782,-0.74083 -1.91443,-0.74083c-0.56724,0 -1.07579,0.1198 -1.52564,0.3594c-0.44499,0.23964 -0.79707,0.58927 -1.05625,1.0489c-0.25427,0.45966 -0.38143,1.01714 -0.38143,1.67238zM154.42341,173.27146v-11.26645h1.73103v11.26645zM155.30358,160.12724c-0.33737,0 -0.62835,-0.11489 -0.87285,-0.34473c-0.2396,-0.22983 -0.3594,-0.50609 -0.3594,-0.82883c0,-0.32274 0.1198,-0.59904 0.3594,-0.82887c0.24451,-0.22983 0.53549,-0.34473 0.87285,-0.34473c0.33741,0 0.62594,0.11489 0.86554,0.34473c0.24451,0.22983 0.36676,0.50614 0.36676,0.82887c0,0.32274 -0.12225,0.599 -0.36676,0.82883c-0.2396,0.22983 -0.52813,0.34473 -0.86554,0.34473zM163.90198,173.5062c-1.05625,0 -1.96577,-0.24941 -2.72859,-0.74819c-0.76286,-0.49878 -1.34964,-1.18582 -1.76038,-2.06113c-0.41078,-0.87526 -0.61617,-1.87527 -0.61617,-2.99995c0,-1.14425 0.2103,-2.15403 0.63084,-3.02934c0.42541,-0.88021 1.01709,-1.56725 1.77505,-2.06113c0.76282,-0.49878 1.6528,-0.74815 2.6699,-0.74815c0.792,0 1.50589,0.14669 2.1419,0.44008c0.63558,0.29339 1.15626,0.70417 1.56205,1.23225c0.40622,0.52813 0.65795,1.14425 0.75563,1.84842h-1.73116c-0.13168,-0.51345 -0.42515,-0.96821 -0.88,-1.36432c-0.44968,-0.40097 -1.05643,-0.60145 -1.81907,-0.60145c-0.67482,0 -1.26651,0.17604 -1.77505,0.52813c-0.50368,0.34718 -0.89729,0.8386 -1.18092,1.47431c-0.27876,0.6308 -0.4181,1.37163 -0.4181,2.2225c0,0.8704 0.13693,1.62836 0.41074,2.27383c0.27872,0.64547 0.66992,1.14671 1.1736,1.50365c0.50855,0.35695 1.10514,0.53544 1.78973,0.53544c0.44981,0 0.85818,-0.07823 1.22481,-0.23469c0.36706,-0.15651 0.67732,-0.38143 0.93163,-0.67482c0.25432,-0.29339 0.43505,-0.64547 0.54263,-1.05625h1.73116c-0.09768,0.66505 -0.33995,1.26405 -0.72594,1.79709c-0.38169,0.52808 -0.88774,0.94863 -1.51859,1.2616c-0.62568,0.30806 -1.3542,0.46212 -2.1857,0.46212zM172.59407,166.49399v6.77748h-1.73116v-15.02195h1.73116v5.51588h0.14631c0.26421,-0.58192 0.66054,-1.04399 1.18853,-1.38631c0.53273,-0.34718 1.24189,-0.52077 2.12705,-0.52077c0.76768,0 1.44027,0.15401 2.01689,0.46207c0.57705,0.3032 1.02458,0.77018 1.34259,1.40098c0.32274,0.62594 0.48411,1.42297 0.48411,2.39118v7.15891h-1.73116v-7.04152c0,-0.89489 -0.23237,-1.58679 -0.69668,-2.0758c-0.45958,-0.49387 -1.09774,-0.74083 -1.91448,-0.74083c-0.56716,0 -1.07579,0.1198 -1.5259,0.3594c-0.44495,0.23964 -0.79695,0.58927 -1.056,1.0489c-0.25432,0.45966 -0.38126,1.01714 -0.38126,1.67238zM193.45277,173.5062c-1.01727,0 -1.90974,-0.24205 -2.67743,-0.72616c-0.76295,-0.48411 -1.35937,-1.16138 -1.78968,-2.03178c-0.42558,-0.87044 -0.63816,-1.88754 -0.63816,-3.05133c0,-1.1736 0.21258,-2.19805 0.63816,-3.07336c0.43032,-0.87531 1.02673,-1.55499 1.78968,-2.0391c0.76768,-0.48411 1.66016,-0.72616 2.67743,-0.72616c1.01684,0 1.90673,0.24205 2.66968,0.72616c0.76768,0.48411 1.36453,1.16379 1.78968,2.0391c0.43032,0.87531 0.64547,1.89976 0.64547,3.07336c0,1.16379 -0.21516,2.18088 -0.64547,3.05133c-0.42515,0.8704 -1.022,1.54767 -1.78968,2.03178c-0.76295,0.48411 -1.65284,0.72616 -2.66968,0.72616zM193.45277,171.95117c0.77242,0 1.40799,-0.19803 1.90673,-0.59414c0.49874,-0.39606 0.86795,-0.91683 1.10763,-1.56231c0.23969,-0.64547 0.35931,-1.34474 0.35931,-2.09779c0,-0.75305 -0.11963,-1.45477 -0.35931,-2.10515c-0.23969,-0.65038 -0.6089,-1.17601 -1.10763,-1.57702c-0.49874,-0.40097 -1.13431,-0.60145 -1.90673,-0.60145c-0.77285,0 -1.40842,0.20048 -1.90716,0.60145c-0.49874,0.40101 -0.86795,0.92664 -1.10763,1.57702c-0.23969,0.65038 -0.35931,1.3521 -0.35931,2.10515c0,0.75305 0.11963,1.45232 0.35931,2.09779c0.23969,0.64547 0.6089,1.16624 1.10763,1.56231c0.49874,0.39611 1.13431,0.59414 1.90716,0.59414zM206.21724,162.00501v1.46699h-6.07348v-1.46699zM201.96313,173.27146v-12.82148c0,-0.64547 0.15147,-1.18337 0.45441,-1.61369c0.30337,-0.43032 0.69711,-0.75305 1.18122,-0.96821c0.48411,-0.21514 0.99489,-0.32272 1.53279,-0.32272c0.42558,0 0.77285,0.03423 1.0418,0.10269c0.26895,0.06846 0.46947,0.13203 0.60115,0.19072l-0.49874,1.49629c-0.08778,-0.0293 -0.20999,-0.06601 -0.36663,-0.10999c-0.15147,-0.04402 -0.352,-0.06605 -0.60158,-0.06605c-0.57189,0 -0.98499,0.14428 -1.23931,0.43277c-0.24958,0.28853 -0.37437,0.71148 -0.37437,1.26896v12.4107zM219.3522,162.00501v1.46699h-5.83853v-1.46699zM215.21515,159.30577h1.73116v10.73832c0,0.48901 0.071,0.85573 0.21258,1.10023c0.14674,0.2396 0.33263,0.40097 0.55769,0.48411c0.22979,0.07823 0.47206,0.11735 0.72594,0.11735c0.19106,0 0.34727,-0.00977 0.46947,-0.0293c0.12221,-0.02448 0.22032,-0.04402 0.29348,-0.0587l0.352,1.55499c-0.11705,0.04402 -0.281,0.08804 -0.49142,0.13206c-0.20999,0.04888 -0.47679,0.07333 -0.79953,0.07333c-0.48884,0 -0.96821,-0.10513 -1.43769,-0.31538c-0.46431,-0.2103 -0.85073,-0.53058 -1.15884,-0.9609c-0.30294,-0.43032 -0.45484,-0.97312 -0.45484,-1.62836zM223.92905,166.49399v6.77748h-1.73073v-15.02195h1.73073v5.51588h0.14674c0.26421,-0.58192 0.6601,-1.04399 1.18853,-1.38631c0.53273,-0.34718 1.24189,-0.52077 2.12705,-0.52077c0.76768,0 1.43984,0.15401 2.01689,0.46207c0.57705,0.3032 1.02458,0.77018 1.34259,1.40098c0.32274,0.62594 0.48411,1.42297 0.48411,2.39118v7.15891h-1.73116v-7.04152c0,-0.89489 -0.23237,-1.58679 -0.69668,-2.0758c-0.46001,-0.49387 -1.09774,-0.74083 -1.91448,-0.74083c-0.56716,0 -1.07579,0.1198 -1.5259,0.3594c-0.44495,0.23964 -0.79695,0.58927 -1.056,1.0489c-0.25432,0.45966 -0.38169,1.01714 -0.38169,1.67238zM239.12523,173.5062c-1.08526,0 -2.02205,-0.23964 -2.8091,-0.71884c-0.78231,-0.48411 -1.38648,-1.15893 -1.81163,-2.02442c-0.42085,-0.87044 -0.63084,-1.88263 -0.63084,-3.0367c0,-1.15402 0.20999,-2.17112 0.63084,-3.05133c0.42515,-0.88507 1.01684,-1.57457 1.77505,-2.06844c0.76252,-0.49878 1.65284,-0.74815 2.66968,-0.74815c0.58695,0 1.16616,0.09777 1.73848,0.29339c0.57232,0.19558 1.093,0.51345 1.56248,0.95354c0.46947,0.43522 0.84342,1.01223 1.12226,1.73103c0.27841,0.71884 0.41784,1.60392 0.41784,2.65527v0.73347h-8.68464v-1.49629h6.92422c0,-0.63571 -0.12694,-1.20295 -0.38126,-1.70173c-0.24958,-0.49878 -0.60632,-0.89243 -1.07106,-1.18092c-0.45958,-0.28853 -1.00221,-0.43277 -1.62832,-0.43277c-0.68937,0 -1.28578,0.17114 -1.78968,0.51345c-0.49874,0.33741 -0.88258,0.77749 -1.15153,1.3203c-0.26895,0.54276 -0.40321,1.12467 -0.40321,1.74571v0.99756c0,0.85082 0.14631,1.57212 0.43978,2.1638c0.29821,0.58678 0.71174,1.03422 1.23974,1.34228c0.528,0.30316 1.14163,0.45476 1.84089,0.45476c0.45484,0 0.8658,-0.06356 1.23243,-0.19072c0.37179,-0.13202 0.69195,-0.3276 0.9609,-0.58678c0.26895,-0.26404 0.47679,-0.59168 0.62353,-0.98288l1.67221,0.46943c-0.176,0.56724 -0.47163,1.06602 -0.88731,1.49634c-0.41569,0.42541 -0.92905,0.75796 -1.54053,0.99756c-0.61105,0.23469 -1.29826,0.35208 -2.06121,0.35208zM257.25014,162.00501v1.46699h-6.07348v-1.46699zM252.9956,173.27146v-12.82148c0,-0.64547 0.1519,-1.18337 0.45484,-1.61369c0.30337,-0.43032 0.69668,-0.75305 1.18079,-0.96821c0.48411,-0.21514 0.99532,-0.32272 1.53322,-0.32272c0.42558,0 0.77242,0.03423 1.04136,0.10269c0.26895,0.06846 0.46947,0.13203 0.60158,0.19072l-0.49874,1.49629c-0.08821,-0.0293 -0.21042,-0.06601 -0.36663,-0.10999c-0.1519,-0.04402 -0.352,-0.06605 -0.60158,-0.06605c-0.57232,0 -0.98542,0.14428 -1.23974,0.43277c-0.24915,0.28853 -0.37394,0.71148 -0.37394,1.26896v12.4107zM263.78922,173.5062c-1.01727,0 -1.90974,-0.24205 -2.67743,-0.72616c-0.76295,-0.48411 -1.35937,-1.16138 -1.78968,-2.03178c-0.42558,-0.87044 -0.63816,-1.88754 -0.63816,-3.05133c0,-1.1736 0.21258,-2.19805 0.63816,-3.07336c0.43032,-0.87531 1.02673,-1.55499 1.78968,-2.0391c0.76768,-0.48411 1.66016,-0.72616 2.67743,-0.72616c1.01684,0 1.90716,0.24205 2.66968,0.72616c0.76768,0.48411 1.36453,1.16379 1.78968,2.0391c0.43032,0.87531 0.64547,1.89976 0.64547,3.07336c0,1.16379 -0.21516,2.18088 -0.64547,3.05133c-0.42515,0.8704 -1.022,1.54767 -1.78968,2.03178c-0.76252,0.48411 -1.65284,0.72616 -2.66968,0.72616zM263.78922,171.95117c0.77242,0 1.40799,-0.19803 1.90716,-0.59414c0.49874,-0.39606 0.86795,-0.91683 1.1072,-1.56231c0.23969,-0.64547 0.35974,-1.34474 0.35974,-2.09779c0,-0.75305 -0.12006,-1.45477 -0.35974,-2.10515c-0.23926,-0.65038 -0.60847,-1.17601 -1.1072,-1.57702c-0.49917,-0.40097 -1.13474,-0.60145 -1.90716,-0.60145c-0.77285,0 -1.40842,0.20048 -1.90716,0.60145c-0.49874,0.40101 -0.86795,0.92664 -1.10763,1.57702c-0.23969,0.65038 -0.35931,1.3521 -0.35931,2.10515c0,0.75305 0.11963,1.45232 0.35931,2.09779c0.23969,0.64547 0.6089,1.16624 1.10763,1.56231c0.49874,0.39611 1.13431,0.59414 1.90716,0.59414zM273.26779,158.24952v15.02195h-1.73116v-15.02195zM278.16909,158.24952v15.02195h-1.73073v-15.02195zM285.91693,173.5062c-1.01727,0 -1.90974,-0.24205 -2.67743,-0.72616c-0.76295,-0.48411 -1.35937,-1.16138 -1.78968,-2.03178c-0.42558,-0.87044 -0.63816,-1.88754 -0.63816,-3.05133c0,-1.1736 0.21258,-2.19805 0.63816,-3.07336c0.43032,-0.87531 1.02673,-1.55499 1.78968,-2.0391c0.76768,-0.48411 1.66016,-0.72616 2.67743,-0.72616c1.01684,0 1.90673,0.24205 2.66968,0.72616c0.76768,0.48411 1.36453,1.16379 1.78968,2.0391c0.43032,0.87531 0.64547,1.89976 0.64547,3.07336c0,1.16379 -0.21516,2.18088 -0.64547,3.05133c-0.42515,0.8704 -1.022,1.54767 -1.78968,2.03178c-0.76295,0.48411 -1.65284,0.72616 -2.66968,0.72616zM285.91693,171.95117c0.77242,0 1.40799,-0.19803 1.90673,-0.59414c0.49874,-0.39606 0.86795,-0.91683 1.10763,-1.56231c0.23969,-0.64547 0.35931,-1.34474 0.35931,-2.09779c0,-0.75305 -0.11963,-1.45477 -0.35931,-2.10515c-0.23969,-0.65038 -0.6089,-1.17601 -1.10763,-1.57702c-0.49874,-0.40097 -1.13431,-0.60145 -1.90673,-0.60145c-0.77285,0 -1.40842,0.20048 -1.90716,0.60145c-0.49874,0.40101 -0.86795,0.92664 -1.10763,1.57702c-0.23969,0.65038 -0.35931,1.3521 -0.35931,2.10515c0,0.75305 0.11963,1.45232 0.35931,2.09779c0.23969,0.64547 0.6089,1.16624 1.10763,1.56231c0.49874,0.39611 1.13431,0.59414 1.90716,0.59414zM295.83356,173.27146l-3.43263,-11.26645h1.81895l2.43516,8.62586h0.11748l2.4059,-8.62586h1.84821l2.37664,8.59655h0.11748l2.43516,-8.59655h1.81895l-3.43263,11.26645h-1.7019l-2.46442,-8.6552h-0.176l-2.46442,8.6552zM310.06325,173.27146v-11.26645h1.73116v11.26645zM310.94368,160.12724c-0.33737,0 -0.62869,-0.11489 -0.87311,-0.34473c-0.23969,-0.22983 -0.35931,-0.50609 -0.35931,-0.82883c0,-0.32274 0.11963,-0.59904 0.35931,-0.82887c0.24442,-0.22983 0.53574,-0.34473 0.87311,-0.34473c0.33737,0 0.62568,0.11489 0.86537,0.34473c0.24442,0.22983 0.36663,0.50614 0.36663,0.82887c0,0.32274 -0.12221,0.599 -0.36663,0.82883c-0.23969,0.22983 -0.528,0.34473 -0.86537,0.34473zM316.69614,166.49399v6.77748h-1.73116v-11.26645h1.67221v1.76038h0.14674c0.26421,-0.57215 0.66527,-1.03177 1.20316,-1.37899c0.5379,-0.35204 1.23199,-0.52808 2.08273,-0.52808c0.76295,0 1.43037,0.15646 2.00269,0.46943c0.57189,0.30806 1.01727,0.77749 1.33484,1.4083c0.318,0.62594 0.47679,1.41811 0.47679,2.37651v7.15891h-1.73116v-7.04152c0,-0.88512 -0.22979,-1.57457 -0.68937,-2.06849c-0.45958,-0.49874 -1.09042,-0.74815 -1.89253,-0.74815c-0.55253,0 -1.0461,0.1198 -1.48158,0.3594c-0.43032,0.23964 -0.77027,0.58927 -1.01942,1.0489c-0.24958,0.45966 -0.37394,1.01714 -0.37394,1.67238zM331.59497,177.73109c-0.8361,0 -1.55516,-0.10758 -2.15631,-0.32274c-0.60158,-0.21025 -1.1029,-0.48897 -1.50395,-0.83615c-0.39589,-0.34232 -0.71131,-0.70907 -0.94583,-1.10028l1.37873,-0.96821c0.15664,0.20539 0.35458,0.44013 0.59427,0.70417c0.23969,0.26895 0.56716,0.50123 0.98284,0.69681c0.42042,0.20048 0.97079,0.30075 1.65026,0.30075c0.90969,0 1.66016,-0.22006 2.25184,-0.66015c0.59168,-0.44008 0.88774,-1.12958 0.88774,-2.06844v-2.28851h-0.14674c-0.12737,0.20539 -0.30811,0.45966 -0.54306,0.76282c-0.22979,0.2983 -0.56242,0.56479 -0.99747,0.79953c-0.43032,0.22983 -1.0121,0.34473 -1.74579,0.34473c-0.90926,0 -1.726,-0.21516 -2.44979,-0.64547c-0.71863,-0.43032 -1.28837,-1.05621 -1.70878,-1.87773c-0.41569,-0.82152 -0.62353,-1.81907 -0.62353,-2.99268c0,-1.15402 0.20268,-2.1589 0.60847,-3.01466c0.40622,-0.86063 0.97079,-1.52564 1.69458,-1.99507c0.72379,-0.47434 1.5599,-0.71148 2.50831,-0.71148c0.73369,0 1.31548,0.12225 1.74579,0.36672c0.43548,0.23964 0.76768,0.51345 0.99747,0.82152c0.23495,0.3032 0.41569,0.55257 0.54306,0.74819h0.176v-1.78973h1.67221v11.58919c0,0.96821 -0.21989,1.75547 -0.6601,2.36183c-0.43505,0.61126 -1.022,1.05871 -1.76042,1.34233c-0.73326,0.28848 -1.55,0.43273 -2.44979,0.43273zM331.53645,171.54043c0.6941,0 1.28105,-0.15892 1.76042,-0.47679c0.47894,-0.31783 0.84342,-0.77504 1.09257,-1.37163c0.24958,-0.59655 0.37437,-1.31048 0.37437,-2.14181c0,-0.81171 -0.12221,-1.5281 -0.36706,-2.14913c-0.24442,-0.62103 -0.60632,-1.10755 -1.08526,-1.45963c-0.47937,-0.35208 -1.07106,-0.52813 -1.77505,-0.52813c-0.73369,0 -1.34474,0.18581 -1.83401,0.55747c-0.48411,0.37162 -0.84815,0.8704 -1.09257,1.49629c-0.23969,0.62594 -0.35974,1.3203 -0.35974,2.08312c0,0.7824 0.12221,1.47435 0.36706,2.0758c0.24915,0.59659 0.61578,1.06602 1.09989,1.4083c0.48927,0.33741 1.09558,0.50614 1.81938,0.50614zM345.44341,173.27146v-11.26645h1.73116v11.26645zM346.3234,160.12724c-0.33737,0 -0.62826,-0.11489 -0.87268,-0.34473c-0.23969,-0.22983 -0.35931,-0.50609 -0.35931,-0.82883c0,-0.32274 0.11963,-0.59904 0.35931,-0.82887c0.24442,-0.22983 0.53531,-0.34473 0.87268,-0.34473c0.33737,0 0.62611,0.11489 0.8658,0.34473c0.24442,0.22983 0.36663,0.50614 0.36663,0.82887c0,0.32274 -0.12221,0.599 -0.36663,0.82883c-0.23969,0.22983 -0.52843,0.34473 -0.8658,0.34473zM358.32535,164.52822l-1.55516,0.44008c-0.09768,-0.25914 -0.24184,-0.511 -0.43247,-0.75546c-0.1859,-0.24941 -0.44021,-0.4548 -0.76295,-0.61617c-0.32274,-0.16137 -0.73584,-0.24205 -1.23974,-0.24205c-0.68937,0 -1.26384,0.15896 -1.72342,0.47679c-0.45484,0.31297 -0.68248,0.71148 -0.68248,1.19559c0,0.43032 0.15664,0.77018 0.46947,1.01955c0.31327,0.24941 0.80211,0.45721 1.46695,0.62348l1.67264,0.41074c1.00737,0.24451 1.75784,0.61858 2.25184,1.12226c0.49357,0.49878 0.74057,1.1418 0.74057,1.92906c0,0.64547 -0.1859,1.22253 -0.55726,1.73108c-0.36663,0.50855 -0.88043,0.90952 -1.54053,1.20291c-0.6601,0.29339 -1.42779,0.44013 -2.30305,0.44013c-1.14894,0 -2.10037,-0.24941 -2.85343,-0.74819c-0.75305,-0.49878 -1.22984,-1.22739 -1.43037,-2.18579l1.64338,-0.41078c0.1562,0.60636 0.45226,1.06112 0.88731,1.36432c0.44021,0.30316 1.01469,0.45476 1.72385,0.45476c0.80684,0 1.44715,-0.17114 1.92179,-0.51345c0.47894,-0.34718 0.71863,-0.76282 0.71863,-1.24693c0,-0.3912 -0.13684,-0.71884 -0.41052,-0.98288c-0.27411,-0.26895 -0.69453,-0.46943 -1.26169,-0.60145l-1.8779,-0.44013c-1.0319,-0.24446 -1.78968,-0.62344 -2.27379,-1.13689c-0.47937,-0.51832 -0.71863,-1.16624 -0.71863,-1.94374c0,-0.63571 0.17815,-1.19804 0.53531,-1.68705c0.3619,-0.48901 0.85332,-0.87285 1.47426,-1.15157c0.62611,-0.27876 1.33484,-0.4181 2.12705,-0.4181c1.11495,0 1.99021,0.24451 2.62622,0.73347c0.64031,0.48901 1.09515,1.13449 1.3641,1.93642zM125.92905,198.49401c-0.71395,0 -1.36187,-0.13469 -1.94377,-0.40364c-0.5819,-0.27368 -1.04401,-0.66742 -1.3863,-1.18079c-0.3423,-0.5184 -0.51344,-1.14434 -0.51344,-1.87781c0,-0.64547 0.12714,-1.1687 0.38141,-1.56966c0.25428,-0.40587 0.59413,-0.72375 1.01956,-0.95358c0.42542,-0.22979 0.89486,-0.40097 1.4083,-0.51341c0.51834,-0.11739 1.03911,-0.2103 1.56233,-0.27876c0.68459,-0.088 1.23961,-0.15401 1.66506,-0.19803c0.43032,-0.04888 0.74324,-0.12957 0.93886,-0.24205c0.20048,-0.11248 0.3007,-0.30806 0.3007,-0.58678v-0.0587c0,-0.72371 -0.19803,-1.28604 -0.59409,-1.68701c-0.3912,-0.40101 -0.98534,-0.6015 -1.78241,-0.6015c-0.82638,0 -1.47431,0.18095 -1.94375,0.5428c-0.46944,0.36185 -0.79951,0.74815 -0.99021,1.15893l-1.64302,-0.58682c0.29339,-0.68459 0.68459,-1.21758 1.17359,-1.59901c0.49389,-0.38629 1.03178,-0.65524 1.61369,-0.80684c0.58681,-0.15646 1.16382,-0.23469 1.73102,-0.23469c0.3619,0 0.77754,0.04398 1.24697,0.13202c0.47429,0.08314 0.93151,0.25673 1.37163,0.52077c0.44499,0.26408 0.81416,0.6626 1.10755,1.19559c0.29343,0.53303 0.44013,1.24697 0.44013,2.14181v7.42295h-1.73108v-1.52547h-0.088c-0.11735,0.24442 -0.31297,0.50605 -0.58678,0.78447c-0.27385,0.27884 -0.63816,0.51595 -1.09292,0.71174c-0.45476,0.19536 -1.00978,0.29348 -1.66502,0.29348zM126.19309,196.93884c0.68459,0 1.2616,-0.13426 1.73103,-0.40364c0.47434,-0.26873 0.83128,-0.61591 1.07093,-1.04136c0.24446,-0.42541 0.36672,-0.87285 0.36672,-1.34228v-1.58434c-0.07333,0.08804 -0.23469,0.16873 -0.48411,0.24205c-0.24446,0.06846 -0.52808,0.12957 -0.85082,0.18336c-0.31787,0.04893 -0.62839,0.09295 -0.93155,0.13206c-0.2983,0.03421 -0.54035,0.06356 -0.72616,0.088c-0.4499,0.0587 -0.8704,0.15405 -1.26161,0.28607c-0.3863,0.12712 -0.69926,0.32028 -0.93887,0.57946c-0.23472,0.25427 -0.35208,0.60145 -0.35208,1.04154c0,0.6015 0.22249,1.05625 0.66748,1.36432c0.44987,0.30329 1.01954,0.45476 1.70904,0.45476zM144.63863,198.46431c-1.05625,0 -1.96577,-0.24915 -2.72863,-0.74789c-0.76282,-0.49874 -1.3496,-1.18595 -1.76038,-2.06121c-0.41074,-0.87526 -0.61613,-1.87527 -0.61613,-2.99995c0,-1.14425 0.2103,-2.15403 0.6308,-3.02934c0.42545,-0.88021 1.01714,-1.56725 1.77505,-2.06113c0.76286,-0.49878 1.6528,-0.74815 2.66994,-0.74815c0.79217,0 1.50611,0.14669 2.14177,0.44008c0.63571,0.29339 1.15647,0.70417 1.56235,1.23225c0.40587,0.52813 0.6577,1.14425 0.75551,1.84842h-1.73103c-0.13202,-0.51345 -0.42545,-0.96821 -0.88021,-1.36432c-0.44985,-0.40097 -1.05621,-0.60145 -1.81903,-0.60145c-0.67482,0 -1.26651,0.17604 -1.77505,0.52813c-0.50368,0.34718 -0.89734,0.8386 -1.18096,1.47431c-0.27872,0.6308 -0.4181,1.37163 -0.4181,2.2225c0,0.8704 0.13693,1.62836 0.41078,2.27383c0.27872,0.64547 0.66992,1.14671 1.1736,1.50365c0.50855,0.35695 1.10509,0.53553 1.78973,0.53553c0.44985,0 0.85818,-0.07832 1.22489,-0.23495c0.36676,-0.1562 0.67727,-0.38126 0.93155,-0.67465c0.25427,-0.29339 0.43522,-0.64547 0.5428,-1.05625h1.73103c-0.09781,0.66505 -0.33986,1.26405 -0.72616,1.79717c-0.38143,0.528 -0.88753,0.94842 -1.51833,1.26169c-0.62589,0.30811 -1.35451,0.46173 -2.18579,0.46173zM156.17648,198.46431c-1.01714,0 -1.90953,-0.24184 -2.67725,-0.72594c-0.76286,-0.48411 -1.35941,-1.16142 -1.78973,-2.03178c-0.42545,-0.87044 -0.63816,-1.88754 -0.63816,-3.05133c0,-1.1736 0.21271,-2.19805 0.63816,-3.07336c0.43032,-0.87531 1.02686,-1.55499 1.78973,-2.0391c0.76773,-0.48411 1.66012,-0.72616 2.67725,-0.72616c1.01709,0 1.90707,0.24205 2.6699,0.72616c0.76773,0.48411 1.36432,1.16379 1.78973,2.0391c0.43032,0.87531 0.64547,1.89976 0.64547,3.07336c0,1.16379 -0.21516,2.18088 -0.64547,3.05133c-0.42541,0.87036 -1.022,1.54767 -1.78973,2.03178c-0.76282,0.48411 -1.6528,0.72594 -2.6699,0.72594zM156.17648,196.90958c0.77259,0 1.4083,-0.19795 1.90707,-0.59422c0.49878,-0.39606 0.86795,-0.91683 1.10755,-1.56231c0.23964,-0.64547 0.35944,-1.34474 0.35944,-2.09779c0,-0.75305 -0.1198,-1.45477 -0.35944,-2.10515c-0.2396,-0.65038 -0.60877,-1.17601 -1.10755,-1.57702c-0.49878,-0.40097 -1.13449,-0.60145 -1.90707,-0.60145c-0.77263,0 -1.40834,0.20048 -1.90712,0.60145c-0.49878,0.40101 -0.86795,0.92664 -1.10755,1.57702c-0.2396,0.65038 -0.35944,1.3521 -0.35944,2.10515c0,0.75305 0.11984,1.45232 0.35944,2.09779c0.2396,0.64547 0.60877,1.16624 1.10755,1.56231c0.49878,0.39628 1.13449,0.59422 1.90712,0.59422zM165.65522,191.45231v6.77748h-1.73125v-11.26645h1.67229v1.76038h0.14674c0.26421,-0.57215 0.66527,-1.03177 1.20316,-1.37899c0.5379,-0.35204 1.23199,-0.52808 2.08273,-0.52808c0.76295,0 1.43037,0.15646 2.00269,0.46943c0.57189,0.30806 1.01727,0.77749 1.33484,1.4083c0.318,0.62594 0.47679,1.41811 0.47679,2.37651v7.15891h-1.73116v-7.04152c0,-0.88512 -0.22979,-1.57457 -0.68937,-2.06849c-0.45958,-0.49874 -1.09042,-0.74815 -1.89253,-0.74815c-0.55253,0 -1.0461,0.1198 -1.48158,0.3594c-0.43032,0.23964 -0.77027,0.58927 -1.01942,1.0489c-0.24958,0.45966 -0.37394,1.01714 -0.37394,1.67238zM176.00647,186.96334h1.73116v12.08792c0,0.69453 -0.12006,1.29568 -0.35974,1.80432c-0.23452,0.50863 -0.59168,0.90237 -1.07063,1.18122c-0.47421,0.27841 -1.07364,0.41784 -1.797,0.41784c-0.05895,0 -0.11748,0 -0.176,0c-0.05895,0 -0.11748,0 -0.17643,0v-1.61369c0.05895,0 0.11274,0 0.16137,0c0.04906,0 0.10285,0 0.16137,0c0.52843,0 0.91442,-0.1562 1.15927,-0.46947c0.24442,-0.30811 0.36663,-0.74789 0.36663,-1.32021zM176.85721,185.08557c-0.33737,0 -0.62826,-0.11489 -0.87268,-0.34473c-0.23969,-0.22983 -0.35931,-0.50609 -0.35931,-0.82883c0,-0.32274 0.11963,-0.59904 0.35931,-0.82887c0.24442,-0.22983 0.53531,-0.34473 0.87268,-0.34473c0.33737,0 0.62611,0.11489 0.8658,0.34473c0.24442,0.22983 0.36663,0.50614 0.36663,0.82887c0,0.32274 -0.12221,0.599 -0.36663,0.82883c-0.23969,0.22983 -0.52843,0.34473 -0.8658,0.34473zM188.00842,193.62347v-6.66013h1.73073v11.26645h-1.73073v-1.90707h-0.11748c-0.26421,0.57223 -0.67474,1.05849 -1.23243,1.45955c-0.55726,0.39632 -1.26169,0.59427 -2.11242,0.59427c-0.704,0 -1.33011,-0.15405 -1.8779,-0.46216c-0.54736,-0.31284 -0.97768,-0.78231 -1.29095,-1.4083c-0.31284,-0.6308 -0.46904,-1.42542 -0.46904,-2.38386v-7.15887h1.73073v7.04152c0,0.82152 0.22979,1.47676 0.6898,1.96577c0.46431,0.48901 1.056,0.73369 1.77505,0.73369c0.43032,0 0.86795,-0.11016 1.31289,-0.33027c0.44968,-0.22006 0.82621,-0.55747 1.12958,-1.01223c0.30811,-0.45476 0.46216,-1.03422 0.46216,-1.73835zM194.64088,191.45231v6.77748h-1.73116v-11.26645h1.67264v1.76038h0.14631c0.26421,-0.57215 0.66527,-1.03177 1.20316,-1.37899c0.5379,-0.35204 1.23243,-0.52808 2.08316,-0.52808c0.76295,0 1.43037,0.15646 2.00226,0.46943c0.57232,0.30806 1.01727,0.77749 1.33527,1.4083c0.31757,0.62594 0.47636,1.41811 0.47636,2.37651v7.15891h-1.73073v-7.04152c0,-0.88512 -0.22979,-1.57457 -0.6898,-2.06849c-0.45958,-0.49874 -1.09042,-0.74815 -1.8921,-0.74815c-0.55253,0 -1.04653,0.1198 -1.48158,0.3594c-0.43032,0.23964 -0.77027,0.58927 -1.01985,1.0489c-0.24915,0.45966 -0.37394,1.01714 -0.37394,1.67238zM209.5694,198.46431c-1.05643,0 -1.96568,-0.24915 -2.72863,-0.74789c-0.76295,-0.49874 -1.3499,-1.18595 -1.76042,-2.06121c-0.41095,-0.87526 -0.61621,-1.87527 -0.61621,-2.99995c0,-1.14425 0.21042,-2.15403 0.63084,-3.02934c0.42558,-0.88021 1.01727,-1.56725 1.77505,-2.06113c0.76295,-0.49878 1.65284,-0.74815 2.67011,-0.74815c0.79178,0 1.50611,0.14669 2.14168,0.44008c0.63558,0.29339 1.15626,0.70417 1.56205,1.23225c0.40622,0.52813 0.65795,1.14425 0.75563,1.84842h-1.73116c-0.13168,-0.51345 -0.42515,-0.96821 -0.88,-1.36432c-0.44968,-0.40097 -1.05643,-0.60145 -1.81895,-0.60145c-0.67474,0 -1.26642,0.17604 -1.77505,0.52813c-0.5039,0.34718 -0.89764,0.8386 -1.18122,1.47431c-0.27841,0.6308 -0.41784,1.37163 -0.41784,2.2225c0,0.8704 0.13684,1.62836 0.41052,2.27383c0.27884,0.64547 0.67,1.14671 1.1739,1.50365c0.5082,0.35695 1.10505,0.53553 1.78968,0.53553c0.44968,0 0.85805,-0.07832 1.22468,-0.23495c0.36706,-0.1562 0.67732,-0.38126 0.93163,-0.67465c0.25432,-0.29339 0.43505,-0.64547 0.54263,-1.05625h1.73116c-0.09768,0.66505 -0.33995,1.26405 -0.72594,1.79717c-0.38169,0.528 -0.88774,0.94842 -1.51859,1.26169c-0.62568,0.30811 -1.3542,0.46173 -2.18558,0.46173zM221.42977,186.96334v1.46699h-5.83853v-1.46699zM217.29314,184.2641h1.73073v10.73832c0,0.48901 0.071,0.85573 0.21301,1.10023c0.14674,0.2396 0.3322,0.40097 0.55726,0.48419c0.22979,0.07832 0.47206,0.11748 0.72637,0.11748c0.19063,0 0.34683,-0.0099 0.46904,-0.02969c0.12264,-0.0241 0.22032,-0.04389 0.29348,-0.05852l0.352,1.55516c-0.11705,0.04389 -0.281,0.08778 -0.49142,0.13168c-0.20999,0.04906 -0.47679,0.07358 -0.79953,0.07358c-0.48884,0 -0.96821,-0.105 -1.43726,-0.31542c-0.46474,-0.21042 -0.85117,-0.53058 -1.15927,-0.9609c-0.30294,-0.43032 -0.45441,-0.97312 -0.45441,-1.62836zM224.03361,198.22979v-11.26645h1.73116v11.26645zM224.91404,185.08557c-0.33737,0 -0.62826,-0.11489 -0.87311,-0.34473c-0.23926,-0.22983 -0.35931,-0.50609 -0.35931,-0.82883c0,-0.32274 0.12006,-0.59904 0.35931,-0.82887c0.24485,-0.22983 0.53574,-0.34473 0.87311,-0.34473c0.33737,0 0.62568,0.11489 0.86537,0.34473c0.24442,0.22983 0.36663,0.50614 0.36663,0.82887c0,0.32274 -0.12221,0.599 -0.36663,0.82883c-0.23969,0.22983 -0.528,0.34473 -0.86537,0.34473zM233.51218,198.46431c-1.01684,0 -1.90931,-0.24184 -2.677,-0.72594c-0.76295,-0.48411 -1.35937,-1.16142 -1.78968,-2.03178c-0.42558,-0.87044 -0.63816,-1.88754 -0.63816,-3.05133c0,-1.1736 0.21258,-2.19805 0.63816,-3.07336c0.43032,-0.87531 1.02673,-1.55499 1.78968,-2.0391c0.76768,-0.48411 1.66016,-0.72616 2.677,-0.72616c1.01727,0 1.90716,0.24205 2.67011,0.72616c0.76768,0.48411 1.3641,1.16379 1.78968,2.0391c0.43032,0.87531 0.64547,1.89976 0.64547,3.07336c0,1.16379 -0.21516,2.18088 -0.64547,3.05133c-0.42558,0.87036 -1.022,1.54767 -1.78968,2.03178c-0.76295,0.48411 -1.65284,0.72594 -2.67011,0.72594zM233.51218,196.90958c0.77285,0 1.40842,-0.19795 1.90716,-0.59422c0.49874,-0.39606 0.86795,-0.91683 1.10763,-1.56231c0.23969,-0.64547 0.35931,-1.34474 0.35931,-2.09779c0,-0.75305 -0.11963,-1.45477 -0.35931,-2.10515c-0.23969,-0.65038 -0.6089,-1.17601 -1.10763,-1.57702c-0.49874,-0.40097 -1.13431,-0.60145 -1.90716,-0.60145c-0.77242,0 -1.40799,0.20048 -1.90716,0.60145c-0.49874,0.40101 -0.86795,0.92664 -1.1072,1.57702c-0.23969,0.65038 -0.35974,1.3521 -0.35974,2.10515c0,0.75305 0.12006,1.45232 0.35974,2.09779c0.23926,0.64547 0.60847,1.16624 1.1072,1.56231c0.49917,0.39628 1.13474,0.59422 1.90716,0.59422zM242.99075,191.45231v6.77748h-1.73073v-11.26645h1.67221v1.76038h0.14674c0.26378,-0.57215 0.66484,-1.03177 1.20273,-1.37899c0.5379,-0.35204 1.23243,-0.52808 2.08316,-0.52808c0.76295,0 1.43037,0.15646 2.00269,0.46943c0.57189,0.30806 1.01684,0.77749 1.33484,1.4083c0.318,0.62594 0.47679,1.41811 0.47679,2.37651v7.15891h-1.73116v-7.04152c0,-0.88512 -0.22979,-1.57457 -0.68937,-2.06849c-0.45958,-0.49874 -1.09042,-0.74815 -1.89253,-0.74815c-0.55253,0 -1.04653,0.1198 -1.48158,0.3594c-0.43032,0.23964 -0.77027,0.58927 -1.01942,1.0489c-0.24958,0.45966 -0.37437,1.01714 -0.37437,1.67238zM255.6016,194.00486v-0.088c0.00947,-0.934 0.10758,-1.67729 0.29348,-2.22981c0.18547,-0.55257 0.44968,-1.00001 0.79178,-1.34233c0.34253,-0.34227 0.75305,-0.6577 1.23243,-0.94618c0.28874,-0.17604 0.54779,-0.38388 0.77758,-0.62348c0.22979,-0.24451 0.41052,-0.52567 0.54263,-0.84351c0.13684,-0.31787 0.20569,-0.66992 0.20569,-1.05625c0,-0.4792 -0.11274,-0.89484 -0.3378,-1.24693c-0.22462,-0.35208 -0.52542,-0.62348 -0.90194,-0.81416c-0.37653,-0.19072 -0.79479,-0.28607 -1.25437,-0.28607c-0.40105,0 -0.78705,0.08314 -1.15884,0.24937c-0.37179,0.16627 -0.68205,0.42791 -0.93163,0.78485c-0.24915,0.35695 -0.39374,0.82397 -0.4329,1.40098h-1.84821c0.03916,-0.83128 0.25432,-1.54277 0.64547,-2.13445c0.39589,-0.59168 0.917,-1.04403 1.56248,-1.357c0.65021,-0.31293 1.37142,-0.46943 2.16363,-0.46943c0.86063,0 1.60895,0.17118 2.24453,0.51345c0.64074,0.34232 1.13431,0.81175 1.48158,1.4083c0.352,0.59659 0.528,1.27632 0.528,2.03914c0,0.5379 -0.08305,1.02445 -0.24915,1.45963c-0.16137,0.43522 -0.39632,0.82397 -0.704,1.16629c-0.30337,0.34227 -0.67,0.64547 -1.10032,0.90952c-0.43032,0.26895 -0.775,0.55257 -1.03448,0.85086c-0.25905,0.29339 -0.4471,0.64302 -0.56457,1.0489c-0.11748,0.40583 -0.18116,0.91197 -0.19063,1.51833v0.088zM256.54055,198.34727c-0.3619,0 -0.67258,-0.12953 -0.93163,-0.38901c-0.25948,-0.25905 -0.38901,-0.56974 -0.38901,-0.9312c0,-0.3619 0.12953,-0.67258 0.38901,-0.93172c0.25905,-0.25918 0.56974,-0.38875 0.93163,-0.38875c0.36147,0 0.67215,0.12957 0.9312,0.38875c0.25948,0.25914 0.38901,0.56982 0.38901,0.93172c0,0.23926 -0.0611,0.45958 -0.18331,0.6601c-0.11748,0.20053 -0.27626,0.3619 -0.47679,0.48411c-0.19579,0.11705 -0.41569,0.176 -0.6601,0.176z"/></g></g></svg>