<svg version="1.1" xmlns="http://www.w3.org/2000/svg" xmlns:xlink="http://www.w3.org/1999/xlink" width="220.20345" height="41.71571" viewBox="0,0,220.20345,41.71571"><g transform="translate(-129.89828,-159.14215)"><g data-paper-data="{&quot;isPaintingLayer&quot;:true}" fill="#ffffff" fill-rule="nonzero" stroke="none" stroke-width="1" stroke-linecap="butt" stroke-linejoin="miter" stroke-miterlimit="10" stroke-dasharray="" stroke-dashoffset="0" style="mix-blend-mode: normal"><path d="M133.71375,173.74994l-3.81547,-13.95371h1.71696l2.91609,11.36463h0.13626l2.97065,-11.36463h1.90772l2.97061,11.36463h0.13626l2.91613,-11.36463h1.71694l-3.81545,13.95371h-1.74424l-3.07961,-11.11937h-0.109l-3.07965,11.11937zM150.78113,167.45442v6.29552h-1.60794v-13.95371h1.60794v5.12363h0.1363c0.24527,-0.54054 0.61316,-0.96975 1.10373,-1.28772c0.49513,-0.32249 1.15374,-0.48374 1.97587,-0.48374c0.71313,0 1.33769,0.14306 1.87367,0.42921c0.53598,0.28164 0.9516,0.71541 1.24683,1.30135c0.29979,0.58143 0.44968,1.32178 0.44968,2.22114v6.64983h-1.60794v-6.54079c0,-0.83125 -0.21577,-1.47395 -0.64726,-1.92819c-0.42698,-0.45875 -1.01975,-0.68815 -1.77829,-0.68815c-0.52691,0 -0.99929,0.11128 -1.41715,0.33384c-0.41335,0.2226 -0.74039,0.54737 -0.98114,0.97431c-0.23619,0.42698 -0.35431,0.94481 -0.35431,1.55345zM160.50889,173.74994v-10.46527h1.60794v10.46527zM161.32647,161.54042c-0.31338,0 -0.58366,-0.10672 -0.81078,-0.32021c-0.22256,-0.21349 -0.33384,-0.47011 -0.33384,-0.76989c0,-0.29979 0.11128,-0.55644 0.33384,-0.76993c0.22712,-0.21349 0.49741,-0.32021 0.81078,-0.32021c0.31342,0 0.58143,0.10672 0.80399,0.32021c0.22712,0.21349 0.34068,0.47015 0.34068,0.76993c0,0.29979 -0.11356,0.5564 -0.34068,0.76989c-0.22256,0.21349 -0.49057,0.32021 -0.80399,0.32021zM169.31342,173.96798c-0.98114,0 -1.82598,-0.23168 -2.53456,-0.69499c-0.70862,-0.46331 -1.25367,-1.1015 -1.6352,-1.91456c-0.38157,-0.81302 -0.57235,-1.74192 -0.57235,-2.78662c0,-1.06288 0.19534,-2.00086 0.58598,-2.81392c0.39516,-0.81762 0.94477,-1.4558 1.64883,-1.91456c0.70858,-0.46331 1.53527,-0.69495 2.48004,-0.69495c0.73568,0 1.3988,0.13626 1.98958,0.40879c0.59038,0.27253 1.07404,0.65409 1.45097,1.14463c0.37733,0.49057 0.61117,1.06288 0.7019,1.71698h-1.60806c-0.12231,-0.47694 -0.39492,-0.89936 -0.81742,-1.2673c-0.4177,-0.37246 -0.9813,-0.55868 -1.68972,-0.55868c-0.62683,0 -1.17644,0.16352 -1.64883,0.49057c-0.46787,0.32249 -0.83349,0.77897 -1.09694,1.36947c-0.25894,0.58594 -0.38836,1.27409 -0.38836,2.06445c0,0.8085 0.12719,1.51256 0.38153,2.11214c0.2589,0.59957 0.62228,1.06516 1.09014,1.39673c0.47238,0.33156 1.02655,0.49737 1.66246,0.49737c0.41782,0 0.79715,-0.07267 1.13771,-0.218c0.34096,-0.14538 0.62915,-0.35431 0.86538,-0.62683c0.23623,-0.27253 0.40411,-0.59957 0.50404,-0.98114h1.60806c-0.09074,0.61776 -0.31578,1.17416 -0.67432,1.66929c-0.35455,0.49053 -0.82461,0.88117 -1.4106,1.17189c-0.58119,0.28616 -1.25791,0.42925 -2.03028,0.42925zM177.3874,167.45442v6.29552h-1.60806v-13.95371h1.60806v5.12363h0.1359c0.24543,-0.54054 0.61356,-0.96975 1.10401,-1.28772c0.49485,-0.32249 1.15358,-0.48374 1.97579,-0.48374c0.71309,0 1.33785,0.14306 1.87347,0.42921c0.53602,0.28164 0.95172,0.71541 1.24711,1.30135c0.29979,0.58143 0.44968,1.32178 0.44968,2.22114v6.64983h-1.60806v-6.54079c0,-0.83125 -0.21585,-1.47395 -0.64714,-1.92819c-0.4269,-0.45875 -1.01967,-0.68815 -1.77833,-0.68815c-0.52683,0 -0.99929,0.11128 -1.41739,0.33384c-0.41331,0.2226 -0.74027,0.54737 -0.9809,0.97431c-0.23623,0.42698 -0.35415,0.94481 -0.35415,1.55345zM196.76281,173.96798c-0.94493,0 -1.77394,-0.22484 -2.48703,-0.67452c-0.7087,-0.44968 -1.2627,-1.07879 -1.66242,-1.8873c-0.39532,-0.80854 -0.59278,-1.75331 -0.59278,-2.83434c0,-1.09014 0.19746,-2.04175 0.59278,-2.85481c0.39972,-0.81306 0.95372,-1.44441 1.66242,-1.89409c0.71309,-0.44968 1.5421,-0.67452 2.48703,-0.67452c0.94453,0 1.77114,0.22484 2.47984,0.67452c0.71309,0.44968 1.2675,1.08103 1.66242,1.89409c0.39972,0.81306 0.59957,1.76466 0.59957,2.85481c0,1.08103 -0.19986,2.0258 -0.59957,2.83434c-0.39492,0.8085 -0.94932,1.43762 -1.66242,1.8873c-0.7087,0.44968 -1.53531,0.67452 -2.47984,0.67452zM196.76281,172.52353c0.71749,0 1.30787,-0.18395 1.77114,-0.55189c0.46327,-0.3679 0.80623,-0.85163 1.02887,-1.45121c0.22264,-0.59957 0.33376,-1.24911 0.33376,-1.94861c0,-0.6995 -0.11112,-1.35132 -0.33376,-1.95545c-0.22264,-0.60413 -0.5656,-1.09238 -1.02887,-1.46488c-0.46327,-0.37246 -1.05365,-0.55868 -1.77114,-0.55868c-0.71789,0 -1.30827,0.18623 -1.77154,0.55868c-0.46327,0.37249 -0.80623,0.86075 -1.02887,1.46488c-0.22264,0.60413 -0.33376,1.25595 -0.33376,1.95545c0,0.6995 0.11112,1.34904 0.33376,1.94861c0.22264,0.59957 0.5656,1.08331 1.02887,1.45121c0.46327,0.36794 1.05365,0.55189 1.77154,0.55189zM208.61958,163.28466v1.36267h-5.64159v-1.36267zM204.66799,173.74994v-11.90973c0,-0.59957 0.1407,-1.09922 0.4221,-1.49893c0.2818,-0.39972 0.64754,-0.6995 1.09722,-0.89936c0.44968,-0.19984 0.92414,-0.29977 1.42379,-0.29977c0.39532,0 0.71789,0.0318 0.96771,0.09539c0.24982,0.06359 0.43609,0.12264 0.5584,0.17716l-0.46327,1.38989c-0.08154,-0.02722 -0.19506,-0.06132 -0.34056,-0.10217c-0.1407,-0.04089 -0.32697,-0.06136 -0.5588,-0.06136c-0.53122,0 -0.91495,0.13402 -1.15118,0.40199c-0.23184,0.26801 -0.34775,0.66089 -0.34775,1.17872v11.52816zM220.8205,163.28466v1.36267h-5.42334v-1.36267zM216.97763,160.77737h1.60806v9.9747c0,0.45424 0.06595,0.79487 0.19746,1.02199c0.1363,0.22256 0.30898,0.37246 0.51803,0.44968c0.21345,0.07267 0.43849,0.109 0.67432,0.109c0.17747,0 0.32257,-0.00907 0.43609,-0.02722c0.11352,-0.02274 0.20465,-0.04089 0.27261,-0.05452l0.32697,1.44441c-0.10872,0.04089 -0.26101,0.08178 -0.45648,0.12267c-0.19506,0.04541 -0.44288,0.06811 -0.74267,0.06811c-0.45408,0 -0.89936,-0.09765 -1.33545,-0.29295c-0.43129,-0.19534 -0.79024,-0.49285 -1.07643,-0.89256c-0.2814,-0.39972 -0.4225,-0.90392 -0.4225,-1.51256zM225.07187,167.45442v6.29552h-1.60766v-13.95371h1.60766v5.12363h0.1363c0.24543,-0.54054 0.61316,-0.96975 1.10401,-1.28772c0.49485,-0.32249 1.15358,-0.48374 1.97579,-0.48374c0.71309,0 1.33745,0.14306 1.87347,0.42921c0.53602,0.28164 0.95172,0.71541 1.24711,1.30135c0.29979,0.58143 0.44968,1.32178 0.44968,2.22114v6.64983h-1.60806v-6.54079c0,-0.83125 -0.21585,-1.47395 -0.64714,-1.92819c-0.4273,-0.45875 -1.01967,-0.68815 -1.77833,-0.68815c-0.52683,0 -0.99929,0.11128 -1.41739,0.33384c-0.41331,0.2226 -0.74027,0.54737 -0.9809,0.97431c-0.23623,0.42698 -0.35455,0.94481 -0.35455,1.55345zM239.18743,173.96798c-1.00808,0 -1.87826,-0.2226 -2.60934,-0.66772c-0.72668,-0.44968 -1.28788,-1.07651 -1.6828,-1.88046c-0.39092,-0.80854 -0.58598,-1.74876 -0.58598,-2.82075c0,-1.07196 0.19506,-2.01673 0.58598,-2.83434c0.39492,-0.82214 0.94453,-1.4626 1.64883,-1.92135c0.7083,-0.46331 1.53531,-0.69495 2.47984,-0.69495c0.54521,0 1.08323,0.09082 1.61485,0.27253c0.53162,0.18167 1.01528,0.47694 1.45137,0.88573c0.43609,0.40427 0.78344,0.94025 1.04246,1.60794c0.25862,0.66772 0.38812,1.48986 0.38812,2.46645v0.68132h-8.06706v-1.38989h6.43182c0,-0.5905 -0.11792,-1.11741 -0.35415,-1.58072c-0.23184,-0.46331 -0.5632,-0.82897 -0.99489,-1.09694c-0.4269,-0.26801 -0.93094,-0.40199 -1.51252,-0.40199c-0.64034,0 -1.19435,0.15897 -1.66242,0.47694c-0.46327,0.31342 -0.81982,0.72221 -1.06964,1.22641c-0.24982,0.50416 -0.37453,1.0447 -0.37453,1.62157v0.92662c0,0.79032 0.1359,1.46032 0.40851,2.00993c0.277,0.54505 0.66113,0.96068 1.15158,1.24683c0.49045,0.2816 1.06045,0.42242 1.70998,0.42242c0.4225,0 0.80423,-0.05904 1.14479,-0.17715c0.34535,-0.12263 0.64274,-0.3043 0.89256,-0.54505c0.24982,-0.24527 0.44288,-0.54961 0.57919,-0.91299l1.55329,0.43605c-0.16348,0.52691 -0.43809,0.99022 -0.82421,1.38993c-0.38613,0.39516 -0.86299,0.70406 -1.43098,0.92662c-0.5676,0.218 -1.20594,0.32705 -1.91464,0.32705zM256.02345,163.28466v1.36267h-5.64159v-1.36267zM252.07147,173.74994v-11.90973c0,-0.59957 0.1411,-1.09922 0.4225,-1.49893c0.2818,-0.39972 0.64714,-0.6995 1.09682,-0.89936c0.44968,-0.19984 0.92454,-0.29977 1.42419,-0.29977c0.39532,0 0.71749,0.0318 0.96731,0.09539c0.24982,0.06359 0.43609,0.12264 0.5588,0.17716l-0.46327,1.38989c-0.08194,-0.02722 -0.19546,-0.06132 -0.34056,-0.10217c-0.1411,-0.04089 -0.32697,-0.06136 -0.5588,-0.06136c-0.53162,0 -0.91535,0.13402 -1.15158,0.40199c-0.23144,0.26801 -0.34735,0.66089 -0.34735,1.17872v11.52816zM262.09753,173.96798c-0.94493,0 -1.77394,-0.22484 -2.48703,-0.67452c-0.7087,-0.44968 -1.2627,-1.07879 -1.66242,-1.8873c-0.39532,-0.80854 -0.59278,-1.75331 -0.59278,-2.83434c0,-1.09014 0.19746,-2.04175 0.59278,-2.85481c0.39972,-0.81306 0.95372,-1.44441 1.66242,-1.89409c0.71309,-0.44968 1.5421,-0.67452 2.48703,-0.67452c0.94453,0 1.77154,0.22484 2.47984,0.67452c0.71309,0.44968 1.2675,1.08103 1.66242,1.89409c0.39972,0.81306 0.59957,1.76466 0.59957,2.85481c0,1.08103 -0.19986,2.0258 -0.59957,2.83434c-0.39492,0.8085 -0.94932,1.43762 -1.66242,1.8873c-0.7083,0.44968 -1.53531,0.67452 -2.47984,0.67452zM262.09753,172.52353c0.71749,0 1.30787,-0.18395 1.77154,-0.55189c0.46327,-0.3679 0.80623,-0.85163 1.02847,-1.45121c0.22264,-0.59957 0.33416,-1.24911 0.33416,-1.94861c0,-0.6995 -0.11152,-1.35132 -0.33416,-1.95545c-0.22224,-0.60413 -0.5652,-1.09238 -1.02847,-1.46488c-0.46367,-0.37246 -1.05405,-0.55868 -1.77154,-0.55868c-0.71789,0 -1.30827,0.18623 -1.77154,0.55868c-0.46327,0.37249 -0.80623,0.86075 -1.02887,1.46488c-0.22264,0.60413 -0.33376,1.25595 -0.33376,1.95545c0,0.6995 0.11112,1.34904 0.33376,1.94861c0.22264,0.59957 0.5656,1.08331 1.02887,1.45121c0.46327,0.36794 1.05365,0.55189 1.77154,0.55189zM270.90207,159.79623v13.95371h-1.60806v-13.95371zM275.45483,159.79623v13.95371h-1.60766v-13.95371zM282.65171,173.96798c-0.94493,0 -1.77394,-0.22484 -2.48703,-0.67452c-0.7087,-0.44968 -1.2627,-1.07879 -1.66242,-1.8873c-0.39532,-0.80854 -0.59278,-1.75331 -0.59278,-2.83434c0,-1.09014 0.19746,-2.04175 0.59278,-2.85481c0.39972,-0.81306 0.95372,-1.44441 1.66242,-1.89409c0.71309,-0.44968 1.5421,-0.67452 2.48703,-0.67452c0.94453,0 1.77114,0.22484 2.47984,0.67452c0.71309,0.44968 1.2675,1.08103 1.66242,1.89409c0.39972,0.81306 0.59957,1.76466 0.59957,2.85481c0,1.08103 -0.19986,2.0258 -0.59957,2.83434c-0.39492,0.8085 -0.94932,1.43762 -1.66242,1.8873c-0.7087,0.44968 -1.53531,0.67452 -2.47984,0.67452zM282.65171,172.52353c0.71749,0 1.30787,-0.18395 1.77114,-0.55189c0.46327,-0.3679 0.80623,-0.85163 1.02887,-1.45121c0.22264,-0.59957 0.33376,-1.24911 0.33376,-1.94861c0,-0.6995 -0.11112,-1.35132 -0.33376,-1.95545c-0.22264,-0.60413 -0.5656,-1.09238 -1.02887,-1.46488c-0.46327,-0.37246 -1.05365,-0.55868 -1.77114,-0.55868c-0.71789,0 -1.30827,0.18623 -1.77154,0.55868c-0.46327,0.37249 -0.80623,0.86075 -1.02887,1.46488c-0.22264,0.60413 -0.33376,1.25595 -0.33376,1.95545c0,0.6995 0.11112,1.34904 0.33376,1.94861c0.22264,0.59957 0.5656,1.08331 1.02887,1.45121c0.46327,0.36794 1.05365,0.55189 1.77154,0.55189zM291.86316,173.74994l-3.18853,-10.46527h1.6896l2.26199,8.01246h0.10912l2.23481,-8.01246h1.71678l2.20763,7.98524h0.10912l2.26199,-7.98524h1.6896l-3.18853,10.46527h-1.58088l-2.28917,-8.03972h-0.16348l-2.28917,8.03972zM305.08095,173.74994v-10.46527h1.60806v10.46527zM305.89877,161.54042c-0.31338,0 -0.58398,-0.10672 -0.81102,-0.32021c-0.22264,-0.21349 -0.33376,-0.47011 -0.33376,-0.76989c0,-0.29979 0.11112,-0.55644 0.33376,-0.76993c0.22704,-0.21349 0.49765,-0.32021 0.81102,-0.32021c0.31338,0 0.58119,0.10672 0.80383,0.32021c0.22704,0.21349 0.34056,0.47015 0.34056,0.76993c0,0.29979 -0.11352,0.5564 -0.34056,0.76989c-0.22264,0.21349 -0.49045,0.32021 -0.80383,0.32021zM311.24217,167.45442v6.29552h-1.60806v-10.46527h1.55329v1.6352h0.1363c0.24543,-0.53146 0.61796,-0.9584 1.1176,-1.28093c0.49964,-0.32701 1.14439,-0.49053 1.93462,-0.49053c0.7087,0 1.32865,0.14534 1.86028,0.43605c0.53122,0.28616 0.94493,0.72221 1.23992,1.30815c0.29539,0.58143 0.44288,1.31726 0.44288,2.20751v6.64983h-1.60806v-6.54079c0,-0.82218 -0.21345,-1.4626 -0.64034,-1.92139c-0.4269,-0.46327 -1.01288,-0.69495 -1.75795,-0.69495c-0.51323,0 -0.97171,0.11128 -1.37622,0.33384c-0.39972,0.2226 -0.71549,0.54737 -0.94693,0.97431c-0.23184,0.42698 -0.34735,0.94481 -0.34735,1.55345zM325.08152,177.89243c-0.77665,0 -1.44457,-0.09993 -2.00298,-0.29979c-0.5588,-0.1953 -1.02447,-0.4542 -1.39701,-0.77669c-0.36774,-0.31797 -0.66073,-0.65865 -0.87857,-1.02203l1.28069,-0.89936c0.1455,0.19078 0.32937,0.40883 0.55201,0.65409c0.22264,0.24982 0.52683,0.46559 0.91295,0.64726c0.39052,0.18623 0.90176,0.27936 1.53291,0.27936c0.845,0 1.5421,-0.20441 2.09171,-0.6132c0.54961,-0.40879 0.82461,-1.04925 0.82461,-1.92135v-2.12577h-0.1363c-0.11832,0.19078 -0.2862,0.42698 -0.50444,0.70858c-0.21345,0.27708 -0.52243,0.52463 -0.92654,0.74267c-0.39972,0.21349 -0.94013,0.32021 -1.62165,0.32021c-0.8446,0 -1.60326,-0.19986 -2.27558,-0.59957c-0.66753,-0.39972 -1.19675,-0.9811 -1.58727,-1.7442c-0.38613,-0.7631 -0.57919,-1.68972 -0.57919,-2.77986c0,-1.07196 0.18827,-2.00537 0.5652,-2.80029c0.37733,-0.79943 0.90176,-1.41715 1.57408,-1.8532c0.67232,-0.44061 1.44897,-0.66089 2.32994,-0.66089c0.68152,0 1.22193,0.11356 1.62165,0.34064c0.40451,0.2226 0.71309,0.47694 0.92654,0.7631c0.21824,0.28164 0.38613,0.51327 0.50444,0.69499h0.16348v-1.66246h1.55329v10.76506c0,0.89936 -0.20425,1.63064 -0.61316,2.19388c-0.40411,0.5678 -0.94932,0.98342 -1.63524,1.24687c-0.68112,0.26797 -1.43978,0.40195 -2.27558,0.40195zM325.02716,172.142c0.64474,0 1.18995,-0.14761 1.63524,-0.44288c0.44488,-0.29523 0.78344,-0.71993 1.01488,-1.27409c0.23184,-0.55413 0.34775,-1.21729 0.34775,-1.9895c0,-0.75398 -0.11352,-1.41943 -0.34096,-1.9963c-0.22704,-0.57687 -0.5632,-1.02879 -1.00808,-1.35584c-0.44528,-0.32705 -0.99489,-0.49057 -1.64883,-0.49057c-0.68152,0 -1.24911,0.1726 -1.70359,0.51783c-0.44968,0.34519 -0.78784,0.8085 -1.01488,1.38989c-0.22264,0.58143 -0.33416,1.22641 -0.33416,1.93498c0,0.72676 0.11352,1.36951 0.34096,1.92819c0.23144,0.55417 0.57199,0.99022 1.02167,1.30815c0.45448,0.31342 1.01768,0.47015 1.69,0.47015zM337.94517,173.74994v-10.46527h1.60806v10.46527zM338.76259,161.54042c-0.31338,0 -0.58358,-0.10672 -0.81062,-0.32021c-0.22264,-0.21349 -0.33376,-0.47011 -0.33376,-0.76989c0,-0.29979 0.11112,-0.55644 0.33376,-0.76993c0.22704,-0.21349 0.49725,-0.32021 0.81062,-0.32021c0.31338,0 0.58159,0.10672 0.80423,0.32021c0.22704,0.21349 0.34056,0.47015 0.34056,0.76993c0,0.29979 -0.11352,0.5564 -0.34056,0.76989c-0.22264,0.21349 -0.49085,0.32021 -0.80423,0.32021zM349.91106,165.62844l-1.44457,0.40879c-0.09074,-0.24071 -0.22464,-0.47466 -0.40171,-0.70174c-0.17268,-0.23168 -0.40891,-0.42246 -0.7087,-0.57235c-0.29979,-0.14989 -0.68351,-0.22484 -1.15158,-0.22484c-0.64034,0 -1.17396,0.14765 -1.60086,0.44288c-0.4225,0.29071 -0.63395,0.66089 -0.63395,1.11057c0,0.39972 0.1455,0.71541 0.43609,0.94705c0.29099,0.23168 0.74507,0.4247 1.36263,0.57915l1.55369,0.38153c0.93573,0.22712 1.63284,0.57459 2.09171,1.04246c0.45847,0.46331 0.68791,1.06061 0.68791,1.79189c0,0.59957 -0.17268,1.13559 -0.51763,1.60798c-0.34056,0.47238 -0.81782,0.84484 -1.43098,1.11737c-0.61316,0.27253 -1.32626,0.40883 -2.13928,0.40883c-1.06724,0 -1.95101,-0.23168 -2.65051,-0.69499c-0.6995,-0.46331 -1.14239,-1.14011 -1.32865,-2.03036l1.52651,-0.38157c0.1451,0.56324 0.4201,0.98566 0.82421,1.2673c0.40891,0.2816 0.94253,0.42242 1.60126,0.42242c0.74947,0 1.34424,-0.15897 1.78513,-0.47694c0.44488,-0.32249 0.66753,-0.70858 0.66753,-1.15826c0,-0.36338 -0.12711,-0.66772 -0.38133,-0.91299c-0.25462,-0.24982 -0.64514,-0.43605 -1.17197,-0.55868l-1.74436,-0.40883c-0.95852,-0.22708 -1.66242,-0.57911 -2.1121,-1.05605c-0.44528,-0.48146 -0.66753,-1.08331 -0.66753,-1.80552c0,-0.5905 0.16548,-1.11285 0.49725,-1.56709c0.33616,-0.45424 0.79264,-0.81078 1.36943,-1.06968c0.58159,-0.25894 1.23992,-0.38836 1.97579,-0.38836c1.03566,0 1.84868,0.22712 2.43946,0.68132c0.59478,0.45424 1.01728,1.05381 1.2671,1.79872zM134.0408,197.17887c-0.66318,0 -1.26502,-0.12511 -1.80555,-0.37493c-0.54052,-0.25422 -0.96977,-0.61996 -1.28772,-1.09682c-0.31796,-0.48154 -0.47693,-1.06296 -0.47693,-1.74428c0,-0.59957 0.1181,-1.08559 0.35429,-1.45804c0.2362,-0.37701 0.55188,-0.67228 0.94705,-0.88577c0.39517,-0.21345 0.83122,-0.37246 1.30816,-0.4769c0.48148,-0.10904 0.96521,-0.19534 1.45123,-0.25894c0.63591,-0.08174 1.15146,-0.14306 1.54666,-0.18395c0.39972,-0.04541 0.69039,-0.12035 0.8721,-0.22484c0.18623,-0.10449 0.27932,-0.28616 0.27932,-0.54505v-0.05452c0,-0.67224 -0.18395,-1.19459 -0.55185,-1.56705c-0.36338,-0.37249 -0.91527,-0.55872 -1.65566,-0.55872c-0.76761,0 -1.36947,0.16808 -1.80553,0.5042c-0.43605,0.33612 -0.74265,0.69495 -0.9198,1.07651l-1.52619,-0.54509c0.27253,-0.63591 0.63591,-1.131 1.09013,-1.4853c0.45877,-0.35882 0.95841,-0.60865 1.49893,-0.74947c0.54508,-0.14534 1.08106,-0.218 1.60793,-0.218c0.33616,0 0.72225,0.04085 1.1583,0.12263c0.44057,0.07723 0.86526,0.23847 1.27409,0.48374c0.41335,0.24531 0.75626,0.61548 1.02879,1.11057c0.27257,0.49513 0.40883,1.1583 0.40883,1.9895v6.89509h-1.60798v-1.41699h-0.08174c-0.109,0.22704 -0.29071,0.47007 -0.54505,0.72868c-0.25438,0.25902 -0.59278,0.47926 -1.0152,0.66113c-0.42242,0.18147 -0.93797,0.27261 -1.54662,0.27261zM134.28606,195.7343c0.63591,0 1.17189,-0.12471 1.60794,-0.37493c0.44061,-0.24962 0.77217,-0.57211 0.99477,-0.96731c0.22708,-0.39516 0.34064,-0.81078 0.34064,-1.24683v-1.47167c-0.06811,0.08178 -0.218,0.15673 -0.44968,0.22484c-0.22708,0.06359 -0.49053,0.12035 -0.79032,0.17032c-0.29527,0.04545 -0.5837,0.08634 -0.8653,0.12267c-0.27708,0.03178 -0.50192,0.05904 -0.67452,0.08174c-0.4179,0.05452 -0.8085,0.1431 -1.1719,0.26573c-0.35883,0.11808 -0.64954,0.29751 -0.87211,0.53826c-0.21802,0.23619 -0.32704,0.55868 -0.32704,0.96747c0,0.55872 0.20667,0.98114 0.62001,1.2673c0.41788,0.28172 0.94704,0.42242 1.58751,0.42242zM147.16838,200.85785v-14.38968h1.55345v1.66246h0.19074c0.11812,-0.18171 0.28164,-0.41335 0.49057,-0.69499c0.21349,-0.28616 0.51783,-0.5405 0.91299,-0.7631c0.39972,-0.22708 0.94025,-0.34064 1.62157,-0.34064c0.88121,0 1.6579,0.22028 2.33018,0.66089c0.67224,0.44061 1.19687,1.06516 1.57388,1.87367c0.37697,0.8085 0.56548,1.76239 0.56548,2.8616c0,1.10829 -0.18851,2.06897 -0.56548,2.88203c-0.37701,0.80842 -0.89936,1.43518 -1.56709,1.88046c-0.66772,0.44049 -1.43762,0.66073 -2.30972,0.66073c-0.67224,0 -1.2105,-0.11112 -1.61477,-0.33376c-0.40423,-0.22704 -0.71541,-0.48366 -0.93342,-0.76985c-0.21804,-0.29059 -0.38609,-0.53122 -0.5042,-0.72217h-0.13626v5.53234zM148.74905,191.70081c0,0.79036 0.11584,1.48758 0.34751,2.09167c0.23164,0.59957 0.57003,1.06972 1.01516,1.4104c0.44516,0.33596 0.99022,0.50424 1.6352,0.50424c0.67228,0 1.23324,-0.17707 1.68292,-0.5315c0.4542,-0.35886 0.79487,-0.84032 1.02199,-1.44445c0.23164,-0.60865 0.34747,-1.28545 0.34747,-2.03036c0,-0.73584 -0.11356,-1.399 -0.34068,-1.9895c-0.22256,-0.59502 -0.56096,-1.06516 -1.01516,-1.41036c-0.44968,-0.34975 -1.0152,-0.52463 -1.69655,-0.52463c-0.65405,0 -1.20366,0.1658 -1.64883,0.49737c-0.44512,0.32705 -0.78124,0.7858 -1.00836,1.3763c-0.22712,0.58594 -0.34068,1.26954 -0.34068,2.05082zM158.86006,196.93344v-10.46527h1.55345v1.58068h0.109c0.19078,-0.51779 0.53598,-0.93797 1.03562,-1.26046c0.49964,-0.32249 1.06288,-0.48374 1.68972,-0.48374c0.11808,0 0.26569,0.00228 0.44284,0.0068c0.17715,0.00456 0.31114,0.01135 0.40199,0.02047v1.6352c-0.05452,-0.01363 -0.17943,-0.03406 -0.37473,-0.06132c-0.19078,-0.03182 -0.39292,-0.04769 -0.60637,-0.04769c-0.50876,0 -0.96295,0.10672 -1.36267,0.32021c-0.3952,0.20893 -0.70862,0.49964 -0.94025,0.8721c-0.22712,0.36794 -0.34068,0.78808 -0.34068,1.26046v6.62257zM169.9319,197.15129c-0.94497,0 -1.7739,-0.22464 -2.48703,-0.67432c-0.70862,-0.44968 -1.26274,-1.07883 -1.66246,-1.8873c-0.3952,-0.80854 -0.59278,-1.75331 -0.59278,-2.83434c0,-1.09014 0.19758,-2.04175 0.59278,-2.85481c0.39972,-0.81306 0.95384,-1.44441 1.66246,-1.89409c0.71313,-0.44968 1.54206,-0.67452 2.48703,-0.67452c0.94453,0 1.77114,0.22484 2.47984,0.67452c0.71309,0.44968 1.2675,1.08103 1.66242,1.89409c0.39972,0.81306 0.59957,1.76466 0.59957,2.85481c0,1.08103 -0.19986,2.0258 -0.59957,2.83434c-0.39492,0.80846 -0.94932,1.43762 -1.66242,1.8873c-0.7087,0.44968 -1.53531,0.67432 -2.47984,0.67432zM169.9319,195.70712c0.71749,0 1.30787,-0.18387 1.77114,-0.55197c0.46327,-0.3679 0.80623,-0.85163 1.02887,-1.45121c0.22264,-0.59957 0.33376,-1.24911 0.33376,-1.94861c0,-0.6995 -0.11112,-1.35132 -0.33376,-1.95545c-0.22264,-0.60413 -0.5656,-1.09238 -1.02887,-1.46488c-0.46327,-0.37246 -1.05365,-0.55868 -1.77114,-0.55868c-0.71785,0 -1.30835,0.18623 -1.77166,0.55868c-0.46331,0.37249 -0.80623,0.86075 -1.02879,1.46488c-0.22256,0.60413 -0.33388,1.25595 -0.33388,1.95545c0,0.6995 0.11132,1.34904 0.33388,1.94861c0.22256,0.59957 0.56548,1.08331 1.02879,1.45121c0.46331,0.3681 1.05381,0.55197 1.77166,0.55197zM178.73644,190.63792v6.29552h-1.60806v-10.46527h1.55329v1.6352h0.1363c0.24543,-0.53146 0.61796,-0.9584 1.1176,-1.28093c0.49964,-0.32701 1.14439,-0.49053 1.93462,-0.49053c0.7087,0 1.32865,0.14534 1.86028,0.43605c0.53122,0.28616 0.94493,0.72221 1.23992,1.30815c0.29539,0.58143 0.44288,1.31726 0.44288,2.20751v6.64983h-1.60806v-6.54079c0,-0.82218 -0.21345,-1.4626 -0.64034,-1.92139c-0.4269,-0.46327 -1.01288,-0.69495 -1.75795,-0.69495c-0.51323,0 -0.97171,0.11128 -1.37622,0.33384c-0.39972,0.2226 -0.71549,0.54737 -0.94693,0.97431c-0.23184,0.42698 -0.34735,0.94481 -0.34735,1.55345zM192.60297,197.15129c-0.94453,0 -1.77354,-0.22464 -2.48663,-0.67432c-0.7087,-0.44968 -1.2627,-1.07883 -1.66242,-1.8873c-0.39532,-0.80854 -0.59278,-1.75331 -0.59278,-2.83434c0,-1.09014 0.19746,-2.04175 0.59278,-2.85481c0.39972,-0.81306 0.95372,-1.44441 1.66242,-1.89409c0.71309,-0.44968 1.5421,-0.67452 2.48663,-0.67452c0.94493,0 1.77154,0.22484 2.48024,0.67452c0.71309,0.44968 1.2671,1.08103 1.66242,1.89409c0.39972,0.81306 0.59957,1.76466 0.59957,2.85481c0,1.08103 -0.19986,2.0258 -0.59957,2.83434c-0.39532,0.80846 -0.94932,1.43762 -1.66242,1.8873c-0.7087,0.44968 -1.53531,0.67432 -2.48024,0.67432zM192.60297,195.70712c0.71789,0 1.30827,-0.18387 1.77154,-0.55197c0.46327,-0.3679 0.80623,-0.85163 1.02887,-1.45121c0.22264,-0.59957 0.33376,-1.24911 0.33376,-1.94861c0,-0.6995 -0.11112,-1.35132 -0.33376,-1.95545c-0.22264,-0.60413 -0.5656,-1.09238 -1.02887,-1.46488c-0.46327,-0.37246 -1.05365,-0.55868 -1.77154,-0.55868c-0.71749,0 -1.30787,0.18623 -1.77154,0.55868c-0.46327,0.37249 -0.80623,0.86075 -1.02847,1.46488c-0.22264,0.60413 -0.33416,1.25595 -0.33416,1.95545c0,0.6995 0.11152,1.34904 0.33416,1.94861c0.22224,0.59957 0.5652,1.08331 1.02847,1.45121c0.46367,0.3681 1.05405,0.55197 1.77154,0.55197zM206.39516,192.65469v-6.18652h1.60766v10.46527h-1.60766v-1.77146h-0.10912c-0.24543,0.53154 -0.62675,0.98322 -1.14479,1.35576c-0.51763,0.36814 -1.17197,0.55201 -1.9622,0.55201c-0.65393,0 -1.23552,-0.1431 -1.74436,-0.42929c-0.50844,-0.29059 -0.90815,-0.72668 -1.19915,-1.30815c-0.29059,-0.58594 -0.43569,-1.32406 -0.43569,-2.21434v-6.64979h1.60766v6.54079c0,0.7631 0.21345,1.37174 0.64074,1.82598c0.43129,0.45424 0.9809,0.68152 1.64883,0.68152c0.39972,0 0.80623,-0.10233 1.21953,-0.30678c0.4177,-0.20441 0.76745,-0.51783 1.04925,-0.94025c0.2862,-0.42242 0.42929,-0.96068 0.42929,-1.61473zM212.55598,190.63792v6.29552h-1.60806v-10.46527h1.55369v1.6352h0.1359c0.24543,-0.53146 0.61796,-0.9584 1.1176,-1.28093c0.49964,-0.32701 1.14479,-0.49053 1.93502,-0.49053c0.7087,0 1.32865,0.14534 1.85988,0.43605c0.53162,0.28616 0.94493,0.72221 1.24032,1.30815c0.29499,0.58143 0.44249,1.31726 0.44249,2.20751v6.64983h-1.60766v-6.54079c0,-0.82218 -0.21345,-1.4626 -0.64074,-1.92139c-0.4269,-0.46327 -1.01288,-0.69495 -1.75755,-0.69495c-0.51323,0 -0.97211,0.11128 -1.37622,0.33384c-0.39972,0.2226 -0.71549,0.54737 -0.94733,0.97431c-0.23144,0.42698 -0.34735,0.94481 -0.34735,1.55345zM224.26965,193.00896v-0.08174c0.00919,-0.86758 0.09993,-1.55801 0.27261,-2.07125c0.17268,-0.51327 0.4181,-0.9289 0.73588,-1.24687c0.31817,-0.31793 0.6995,-0.61093 1.14479,-0.87889c0.26781,-0.16352 0.50844,-0.35659 0.72189,-0.57915c0.21385,-0.22712 0.38173,-0.48829 0.50444,-0.78352c0.12711,-0.29527 0.19066,-0.62228 0.19066,-0.98114c0,-0.44512 -0.10433,-0.83121 -0.31338,-1.15826c-0.20905,-0.32705 -0.48845,-0.57915 -0.8382,-0.75626c-0.34975,-0.17715 -0.73788,-0.26573 -1.16477,-0.26573c-0.37253,0 -0.73148,0.07723 -1.07683,0.23164c-0.34495,0.15445 -0.63355,0.39748 -0.86498,0.72904c-0.23184,0.33156 -0.36574,0.76538 -0.40211,1.30135h-1.71678c0.03637,-0.77217 0.23623,-1.43306 0.59957,-1.98267c0.36774,-0.54961 0.85139,-0.96979 1.45097,-1.2605c0.60437,-0.29067 1.27429,-0.43605 2.01017,-0.43605c0.79943,0 1.49414,0.15901 2.08492,0.47694c0.59478,0.31797 1.05365,0.75402 1.37622,1.30815c0.32697,0.55417 0.49045,1.18556 0.49045,1.89413c0,0.49964 -0.07715,0.9516 -0.23184,1.35584c-0.14949,0.40427 -0.36774,0.76538 -0.65393,1.08335c-0.2814,0.31793 -0.62236,0.59957 -1.02207,0.84484c-0.39972,0.24982 -0.71989,0.51327 -0.96052,0.79036c-0.24063,0.27253 -0.4157,0.5973 -0.52483,0.97431c-0.10872,0.37697 -0.16788,0.84712 -0.17707,1.41036v0.08174zM225.14182,197.04257c-0.33616,0 -0.62436,-0.12031 -0.86538,-0.36134c-0.24063,-0.24063 -0.36094,-0.52922 -0.36094,-0.86498c0,-0.33616 0.12031,-0.62476 0.36094,-0.86546c0.24103,-0.24075 0.52922,-0.3611 0.86538,-0.3611c0.33616,0 0.62476,0.12035 0.86538,0.3611c0.24063,0.24071 0.36094,0.5293 0.36094,0.86546c0,0.22224 -0.05676,0.4269 -0.17028,0.61316c-0.10912,0.18627 -0.25662,0.33616 -0.44288,0.44968c-0.18147,0.10872 -0.38613,0.16348 -0.61316,0.16348z"/></g></g></svg>